<?xml version="1.0" encoding="UTF-8" standalone="no"?>
<!DOCTYPE svg PUBLIC "-//W3C//DTD SVG 1.1//EN"
 "http://www.w3.org/Graphics/SVG/1.1/DTD/svg11.dtd">
<!-- Generated by graphviz version 3.0.0 (20221109.1736)
 -->
<!-- Title: denoptim.fitness.DescriptorUtils.getClassNamesToDenoptimDescriptors Pages: 1 -->
<svg width="422pt" height="39pt"
 viewBox="0.00 0.00 422.00 39.00" xmlns="http://www.w3.org/2000/svg" xmlns:xlink="http://www.w3.org/1999/xlink">
<g id="graph0" class="graph" transform="scale(1 1) rotate(0) translate(4 35)">
<title>denoptim.fitness.DescriptorUtils.getClassNamesToDenoptimDescriptors</title>
<polygon fill="white" stroke="transparent" points="-4,4 -4,-35 418,-35 418,4 -4,4"/>
<!-- Node1 -->
<g id="node1" class="node">
<title>Node1</title>
<g id="a_node1"><a xlink:title=" ">
<polygon fill="#bfbfbf" stroke="black" points="0,-0.5 0,-30.5 211,-30.5 211,-0.5 0,-0.5"/>
<text text-anchor="start" x="8" y="-18.5" font-family="Helvetica,sans-Serif" font-size="10.00">denoptim.fitness.Descriptor</text>
<text text-anchor="middle" x="105.5" y="-7.5" font-family="Helvetica,sans-Serif" font-size="10.00">Utils.getClassNamesToDenoptimDescriptors</text>
</a>
</g>
</g>
<!-- Node2 -->
<g id="node2" class="node">
<title>Node2</title>
<g id="a_node2"><a xlink:href="classdenoptim_1_1fitness_1_1_descriptor_utils.html#a9c51a30d8807d0045eb9ff8a853d42c9" target="_top" xlink:title="Search for packages in the class path and in the appended archives.">
<polygon fill="white" stroke="black" points="247,-0.5 247,-30.5 414,-30.5 414,-0.5 247,-0.5"/>
<text text-anchor="start" x="255" y="-18.5" font-family="Helvetica,sans-Serif" font-size="10.00">denoptim.fitness.Descriptor</text>
<text text-anchor="middle" x="330.5" y="-7.5" font-family="Helvetica,sans-Serif" font-size="10.00">Utils.getAllClassNamesInPackage</text>
</a>
</g>
</g>
<!-- Node1&#45;&gt;Node2 -->
<g id="edge1" class="edge">
<title>Node1&#45;&gt;Node2</title>
<path fill="none" stroke="midnightblue" d="M211.14,-15.5C219.67,-15.5 228.25,-15.5 236.69,-15.5"/>
<polygon fill="midnightblue" stroke="midnightblue" points="236.89,-19 246.89,-15.5 236.89,-12 236.89,-19"/>
</g>
</g>
</svg>
