<?xml version="1.0" encoding="UTF-8" standalone="no"?>
<!DOCTYPE svg PUBLIC "-//W3C//DTD SVG 1.1//EN"
 "http://www.w3.org/Graphics/SVG/1.1/DTD/svg11.dtd">
<!-- Generated by graphviz version 3.0.0 (20221109.1736)
 -->
<!-- Title: denoptim.programs.fragmenter.FragmenterParameters.getScaffoldingPolicy Pages: 1 -->
<svg width="1013pt" height="148pt"
 viewBox="0.00 0.00 1013.00 147.50" xmlns="http://www.w3.org/2000/svg" xmlns:xlink="http://www.w3.org/1999/xlink">
<g id="graph0" class="graph" transform="scale(1 1) rotate(0) translate(4 143.5)">
<title>denoptim.programs.fragmenter.FragmenterParameters.getScaffoldingPolicy</title>
<polygon fill="white" stroke="transparent" points="-4,4 -4,-143.5 1009,-143.5 1009,4 -4,4"/>
<!-- Node1 -->
<g id="node1" class="node">
<title>Node1</title>
<g id="a_node1"><a xlink:title=" ">
<polygon fill="#bfbfbf" stroke="black" points="825,-54.5 825,-95.5 1005,-95.5 1005,-54.5 825,-54.5"/>
<text text-anchor="start" x="833" y="-83.5" font-family="Helvetica,sans-Serif" font-size="10.00">denoptim.programs.fragmenter.</text>
<text text-anchor="start" x="833" y="-72.5" font-family="Helvetica,sans-Serif" font-size="10.00">FragmenterParameters.getScaffolding</text>
<text text-anchor="middle" x="915" y="-61.5" font-family="Helvetica,sans-Serif" font-size="10.00">Policy</text>
</a>
</g>
</g>
<!-- Node2 -->
<g id="node2" class="node">
<title>Node2</title>
<g id="a_node2"><a xlink:href="classdenoptim_1_1gui_1_1_g_u_i_graph_handler.html#a2546eaac0cf6becaf10b56a1c929953a" target="_top" xlink:title=" ">
<polygon fill="white" stroke="black" points="604,-109 604,-139 789,-139 789,-109 604,-109"/>
<text text-anchor="start" x="612" y="-127" font-family="Helvetica,sans-Serif" font-size="10.00">denoptim.gui.GUIGraphHandler.append</text>
<text text-anchor="middle" x="696.5" y="-116" font-family="Helvetica,sans-Serif" font-size="10.00">GraphsFromConvertingMolecule</text>
</a>
</g>
</g>
<!-- Node1&#45;&gt;Node2 -->
<g id="edge1" class="edge">
<title>Node1&#45;&gt;Node2</title>
<path fill="none" stroke="midnightblue" d="M814.6,-97.5C797.37,-101.4 779.85,-105.36 763.78,-109"/>
<polygon fill="midnightblue" stroke="midnightblue" points="815.71,-100.83 824.69,-95.21 814.17,-94.01 815.71,-100.83"/>
</g>
<!-- Node5 -->
<g id="node5" class="node">
<title>Node5</title>
<g id="a_node5"><a xlink:href="classdenoptim_1_1ga_1_1_e_a_utils.html#a8357317053a9158e81f78ffe6bd65688" target="_top" xlink:title="Generates a candidate by fragmenting a molecule and generating the graph that reconnects all fragment...">
<polygon fill="white" stroke="black" points="614.5,-60 614.5,-90 778.5,-90 778.5,-60 614.5,-60"/>
<text text-anchor="start" x="622.5" y="-78" font-family="Helvetica,sans-Serif" font-size="10.00">denoptim.ga.EAUtils.build</text>
<text text-anchor="middle" x="696.5" y="-67" font-family="Helvetica,sans-Serif" font-size="10.00">CandidateByFragmentingMolecule</text>
</a>
</g>
</g>
<!-- Node1&#45;&gt;Node5 -->
<g id="edge4" class="edge">
<title>Node1&#45;&gt;Node5</title>
<path fill="none" stroke="midnightblue" d="M814.62,-75C802.57,-75 790.37,-75 778.62,-75"/>
<polygon fill="midnightblue" stroke="midnightblue" points="814.69,-78.5 824.69,-75 814.69,-71.5 814.69,-78.5"/>
</g>
<!-- Node10 -->
<g id="node10" class="node">
<title>Node10</title>
<g id="a_node10"><a xlink:href="classdenoptim_1_1programs_1_1mol2graph_1_1_mol2_graph_parameters.html#af5bb3fefec5ad4f6a564031cfe1165a4" target="_top" xlink:title=" ">
<polygon fill="white" stroke="black" points="607.5,-0.5 607.5,-41.5 785.5,-41.5 785.5,-0.5 607.5,-0.5"/>
<text text-anchor="start" x="615.5" y="-29.5" font-family="Helvetica,sans-Serif" font-size="10.00">denoptim.programs.mol2graph.</text>
<text text-anchor="start" x="615.5" y="-18.5" font-family="Helvetica,sans-Serif" font-size="10.00">Mol2GraphParameters.getScaffolding</text>
<text text-anchor="middle" x="696.5" y="-7.5" font-family="Helvetica,sans-Serif" font-size="10.00">Policy</text>
</a>
</g>
</g>
<!-- Node1&#45;&gt;Node10 -->
<g id="edge9" class="edge">
<title>Node1&#45;&gt;Node10</title>
<path fill="none" stroke="midnightblue" d="M821.5,-51.93C807.62,-48.47 793.39,-44.92 779.74,-41.51"/>
<polygon fill="midnightblue" stroke="midnightblue" points="820.98,-55.41 831.53,-54.43 822.68,-48.61 820.98,-55.41"/>
</g>
<!-- Node3 -->
<g id="node3" class="node">
<title>Node3</title>
<g id="a_node3"><a xlink:href="classdenoptim_1_1gui_1_1_g_u_i_graph_handler.html#af5b000c105018cbd7c262b34f9750044" target="_top" xlink:title="Initialize the panel and add buttons.">
<polygon fill="white" stroke="black" points="380,-114.5 380,-133.5 568,-133.5 568,-114.5 380,-114.5"/>
<text text-anchor="middle" x="474" y="-121.5" font-family="Helvetica,sans-Serif" font-size="10.00">denoptim.gui.GUIGraphHandler.initialize</text>
</a>
</g>
</g>
<!-- Node2&#45;&gt;Node3 -->
<g id="edge2" class="edge">
<title>Node2&#45;&gt;Node3</title>
<path fill="none" stroke="midnightblue" d="M593.86,-124C585.27,-124 576.61,-124 568.09,-124"/>
<polygon fill="midnightblue" stroke="midnightblue" points="593.9,-127.5 603.9,-124 593.9,-120.5 593.9,-127.5"/>
</g>
<!-- Node4 -->
<g id="node4" class="node">
<title>Node4</title>
<g id="a_node4"><a xlink:href="classdenoptim_1_1gui_1_1_g_u_i_graph_handler.html#ab7d010d9a384f6b85edce47c95d6723b" target="_top" xlink:title="Constructor.">
<polygon fill="white" stroke="black" points="190,-109 190,-139 344,-139 344,-109 190,-109"/>
<text text-anchor="start" x="198" y="-127" font-family="Helvetica,sans-Serif" font-size="10.00">denoptim.gui.GUIGraphHandler.</text>
<text text-anchor="middle" x="267" y="-116" font-family="Helvetica,sans-Serif" font-size="10.00">GUIGraphHandler</text>
</a>
</g>
</g>
<!-- Node3&#45;&gt;Node4 -->
<g id="edge3" class="edge">
<title>Node3&#45;&gt;Node4</title>
<path fill="none" stroke="midnightblue" d="M369.69,-124C361.07,-124 352.45,-124 344.09,-124"/>
<polygon fill="midnightblue" stroke="midnightblue" points="369.8,-127.5 379.8,-124 369.8,-120.5 369.8,-127.5"/>
</g>
<!-- Node6 -->
<g id="node6" class="node">
<title>Node6</title>
<g id="a_node6"><a xlink:href="classdenoptim_1_1ga_1_1_evolutionary_algorithm.html#ad43588620dab3340e0d8b0042ec73618" target="_top" xlink:title="Fills up the population with candidates build from scratch.">
<polygon fill="white" stroke="black" points="404,-60 404,-90 544,-90 544,-60 404,-60"/>
<text text-anchor="start" x="412" y="-78" font-family="Helvetica,sans-Serif" font-size="10.00">denoptim.ga.Evolutionary</text>
<text text-anchor="middle" x="474" y="-67" font-family="Helvetica,sans-Serif" font-size="10.00">Algorithm.initializePopulation</text>
</a>
</g>
</g>
<!-- Node5&#45;&gt;Node6 -->
<g id="edge5" class="edge">
<title>Node5&#45;&gt;Node6</title>
<path fill="none" stroke="midnightblue" d="M604.22,-75C584.1,-75 563.11,-75 544.04,-75"/>
<polygon fill="midnightblue" stroke="midnightblue" points="604.33,-78.5 614.33,-75 604.33,-71.5 604.33,-78.5"/>
</g>
<!-- Node7 -->
<g id="node7" class="node">
<title>Node7</title>
<g id="a_node7"><a xlink:href="classdenoptim_1_1ga_1_1_evolutionary_algorithm.html#a6bfc2fa59b199da6259b5b6bad3d6de7" target="_top" xlink:title=" ">
<polygon fill="white" stroke="black" points="205,-60 205,-90 329,-90 329,-60 205,-60"/>
<text text-anchor="start" x="213" y="-78" font-family="Helvetica,sans-Serif" font-size="10.00">denoptim.ga.Evolutionary</text>
<text text-anchor="middle" x="267" y="-67" font-family="Helvetica,sans-Serif" font-size="10.00">Algorithm.run</text>
</a>
</g>
</g>
<!-- Node6&#45;&gt;Node7 -->
<g id="edge6" class="edge">
<title>Node6&#45;&gt;Node7</title>
<path fill="none" stroke="midnightblue" d="M393.83,-75C372.4,-75 349.53,-75 329.26,-75"/>
<polygon fill="midnightblue" stroke="midnightblue" points="393.88,-78.5 403.88,-75 393.88,-71.5 393.88,-78.5"/>
</g>
<!-- Node8 -->
<g id="node8" class="node">
<title>Node8</title>
<g id="a_node8"><a xlink:href="classdenoptim_1_1ga_1_1_evolutionary_algorithm.html#a0f2063b722b7291daf83d62acaa683d3" target="_top" xlink:title=" ">
<polygon fill="white" stroke="black" points="0,-85 0,-115 154,-115 154,-85 0,-85"/>
<text text-anchor="start" x="8" y="-103" font-family="Helvetica,sans-Serif" font-size="10.00">denoptim.ga.Evolutionary</text>
<text text-anchor="middle" x="77" y="-92" font-family="Helvetica,sans-Serif" font-size="10.00">Algorithm.EvolutionaryAlgorithm</text>
</a>
</g>
</g>
<!-- Node7&#45;&gt;Node8 -->
<g id="edge7" class="edge">
<title>Node7&#45;&gt;Node8</title>
<path fill="none" stroke="midnightblue" d="M194.93,-84.45C181.62,-86.22 167.66,-88.08 154.2,-89.87"/>
<polygon fill="midnightblue" stroke="midnightblue" points="195.51,-87.9 204.96,-83.12 194.59,-80.97 195.51,-87.9"/>
</g>
<!-- Node9 -->
<g id="node9" class="node">
<title>Node9</title>
<g id="a_node9"><a xlink:href="classdenoptim_1_1programs_1_1denovo_1_1_g_a_runner.html#a7cafd6d78727b89dce3e2c8d06f0dd7c" target="_top" xlink:title=" ">
<polygon fill="white" stroke="black" points="9.5,-36 9.5,-66 144.5,-66 144.5,-36 9.5,-36"/>
<text text-anchor="start" x="17.5" y="-54" font-family="Helvetica,sans-Serif" font-size="10.00">denoptim.programs.denovo.</text>
<text text-anchor="middle" x="77" y="-43" font-family="Helvetica,sans-Serif" font-size="10.00">GARunner.runProgram</text>
</a>
</g>
</g>
<!-- Node7&#45;&gt;Node9 -->
<g id="edge8" class="edge">
<title>Node7&#45;&gt;Node9</title>
<path fill="none" stroke="midnightblue" d="M194.84,-65.92C178.35,-63.81 160.86,-61.58 144.58,-59.5"/>
<polygon fill="midnightblue" stroke="midnightblue" points="194.6,-69.41 204.96,-67.21 195.49,-62.47 194.6,-69.41"/>
</g>
<!-- Node11 -->
<g id="node11" class="node">
<title>Node11</title>
<g id="a_node11"><a xlink:href="classdenoptim_1_1programs_1_1mol2graph_1_1_mol2_graph.html#a55924e2fcd5c0081af56b98766d74ee1" target="_top" xlink:title=" ">
<polygon fill="white" stroke="black" points="399.5,-6 399.5,-36 548.5,-36 548.5,-6 399.5,-6"/>
<text text-anchor="start" x="407.5" y="-24" font-family="Helvetica,sans-Serif" font-size="10.00">denoptim.programs.mol2graph.</text>
<text text-anchor="middle" x="474" y="-13" font-family="Helvetica,sans-Serif" font-size="10.00">Mol2Graph.runProgram</text>
</a>
</g>
</g>
<!-- Node10&#45;&gt;Node11 -->
<g id="edge10" class="edge">
<title>Node10&#45;&gt;Node11</title>
<path fill="none" stroke="midnightblue" d="M597.31,-21C581.01,-21 564.35,-21 548.78,-21"/>
<polygon fill="midnightblue" stroke="midnightblue" points="597.4,-24.5 607.4,-21 597.4,-17.5 597.4,-24.5"/>
</g>
</g>
</svg>
