<?xml version="1.0" encoding="UTF-8" standalone="no"?>
<!DOCTYPE svg PUBLIC "-//W3C//DTD SVG 1.1//EN"
 "http://www.w3.org/Graphics/SVG/1.1/DTD/svg11.dtd">
<!-- Generated by graphviz version 3.0.0 (20221109.1736)
 -->
<!-- Title: denoptim.utils.GraphEdit Pages: 1 -->
<svg width="1366pt" height="855pt"
 viewBox="0.00 0.00 1366.00 855.00" xmlns="http://www.w3.org/2000/svg" xmlns:xlink="http://www.w3.org/1999/xlink">
<g id="graph0" class="graph" transform="scale(1 1) rotate(0) translate(4 851)">
<title>denoptim.utils.GraphEdit</title>
<polygon fill="white" stroke="transparent" points="-4,4 -4,-851 1362,-851 1362,4 -4,4"/>
<!-- Node1 -->
<g id="node1" class="node">
<title>Node1</title>
<g id="a_node1"><a xlink:title="Definition of a graph editing task.">
<polygon fill="#bfbfbf" stroke="black" points="1233,-714.5 1233,-733.5 1355,-733.5 1355,-714.5 1233,-714.5"/>
<text text-anchor="middle" x="1294" y="-721.5" font-family="Helvetica,sans-Serif" font-size="10.00">denoptim.utils.GraphEdit</text>
</a>
</g>
</g>
<!-- Node2 -->
<g id="node2" class="node">
<title>Node2</title>
<g id="a_node2"><a xlink:href="enumdenoptim_1_1utils_1_1_graph_edit_1_1_edit_task.html" target="_top" xlink:title="Defined the kind of graph editing task.">
<polygon fill="white" stroke="black" points="989,-685 989,-715 1113,-715 1113,-685 989,-685"/>
<text text-anchor="start" x="997" y="-703" font-family="Helvetica,sans-Serif" font-size="10.00">denoptim.utils.GraphEdit.</text>
<text text-anchor="middle" x="1051" y="-692" font-family="Helvetica,sans-Serif" font-size="10.00">EditTask</text>
</a>
</g>
</g>
<!-- Node2&#45;&gt;Node1 -->
<g id="edge1" class="edge">
<title>Node2&#45;&gt;Node1</title>
<path fill="none" stroke="#9a32cd" stroke-dasharray="5,2" d="M1123.23,-707.09C1158.07,-710.56 1199.54,-714.69 1232.77,-718"/>
<polygon fill="#9a32cd" stroke="#9a32cd" points="1123.42,-703.6 1113.13,-706.09 1122.73,-710.56 1123.42,-703.6"/>
<text text-anchor="middle" x="1175" y="-718" font-family="Helvetica,sans-Serif" font-size="10.00"> task</text>
</g>
<!-- Node3 -->
<g id="node3" class="node">
<title>Node3</title>
<g id="a_node3"><a xlink:href="classdenoptim_1_1graph_1_1_vertex_query.html" target="_top" xlink:title="Query for searching vertices.">
<polygon fill="white" stroke="black" points="982,-783.5 982,-802.5 1120,-802.5 1120,-783.5 982,-783.5"/>
<text text-anchor="middle" x="1051" y="-790.5" font-family="Helvetica,sans-Serif" font-size="10.00">denoptim.graph.VertexQuery</text>
</a>
</g>
</g>
<!-- Node3&#45;&gt;Node1 -->
<g id="edge2" class="edge">
<title>Node3&#45;&gt;Node1</title>
<path fill="none" stroke="#9a32cd" stroke-dasharray="5,2" d="M1106.98,-781.25C1138.05,-774.2 1177.46,-764.57 1212,-754 1231.65,-747.99 1253.46,-739.82 1269.5,-733.52"/>
<polygon fill="#9a32cd" stroke="#9a32cd" points="1106.2,-777.84 1097.21,-783.45 1107.73,-784.67 1106.2,-777.84"/>
<text text-anchor="middle" x="1175" y="-775" font-family="Helvetica,sans-Serif" font-size="10.00"> vertexQuery</text>
</g>
<!-- Node4 -->
<g id="node4" class="node">
<title>Node4</title>
<g id="a_node4"><a xlink:href="enumdenoptim_1_1graph_1_1_vertex_1_1_b_b_type.html" target="_top" xlink:title="The type of building block.">
<polygon fill="white" stroke="black" points="98.5,-646.5 98.5,-665.5 247.5,-665.5 247.5,-646.5 98.5,-646.5"/>
<text text-anchor="middle" x="173" y="-653.5" font-family="Helvetica,sans-Serif" font-size="10.00">denoptim.graph.Vertex.BBType</text>
</a>
</g>
</g>
<!-- Node4&#45;&gt;Node1 -->
<g id="edge45" class="edge">
<title>Node4&#45;&gt;Node1</title>
<path fill="none" stroke="#9a32cd" stroke-dasharray="5,2" d="M257.65,-656C318.94,-656 404.14,-656 479,-656 479,-656 479,-656 1052,-656 1136.99,-656 1232.72,-695.66 1273.22,-714.4"/>
<polygon fill="#9a32cd" stroke="#9a32cd" points="257.65,-652.5 247.65,-656 257.65,-659.5 257.65,-652.5"/>
<text text-anchor="middle" x="767.5" y="-659" font-family="Helvetica,sans-Serif" font-size="10.00"> incomingBBTyp</text>
</g>
<!-- Node4&#45;&gt;Node3 -->
<g id="edge3" class="edge">
<title>Node4&#45;&gt;Node3</title>
<path fill="none" stroke="#9a32cd" stroke-dasharray="5,2" d="M244.87,-667.08C412.68,-693.33 832.01,-758.91 989.21,-783.49"/>
<polygon fill="#9a32cd" stroke="#9a32cd" points="245.32,-663.61 234.9,-665.52 244.24,-670.53 245.32,-663.61"/>
<text text-anchor="middle" x="619" y="-733" font-family="Helvetica,sans-Serif" font-size="10.00"> buildingBlockType</text>
</g>
<!-- Node23 -->
<g id="node23" class="node">
<title>Node23</title>
<g id="a_node23"><a xlink:href="classdenoptim_1_1graph_1_1_vertex.html" target="_top" xlink:title="A vertex is a data structure that has an identity and holds a list of AttachmentPoints.">
<polygon fill="white" stroke="black" points="423.5,-435.5 423.5,-454.5 536.5,-454.5 536.5,-435.5 423.5,-435.5"/>
<text text-anchor="middle" x="480" y="-442.5" font-family="Helvetica,sans-Serif" font-size="10.00">denoptim.graph.Vertex</text>
</a>
</g>
</g>
<!-- Node4&#45;&gt;Node23 -->
<g id="edge31" class="edge">
<title>Node4&#45;&gt;Node23</title>
<path fill="none" stroke="#9a32cd" stroke-dasharray="5,2" d="M196.9,-640.8C235.37,-615.18 315.31,-561.65 382,-515 412.29,-493.81 447.35,-468.25 465.91,-454.63"/>
<polygon fill="#9a32cd" stroke="#9a32cd" points="194.86,-637.95 188.47,-646.4 198.74,-643.78 194.86,-637.95"/>
<text text-anchor="middle" x="327.5" y="-591" font-family="Helvetica,sans-Serif" font-size="10.00"> buildingBlockType</text>
</g>
<!-- Node5 -->
<g id="node5" class="node">
<title>Node5</title>
<g id="a_node5"><a xlink:href="enumdenoptim_1_1graph_1_1_vertex_1_1_vertex_type.html" target="_top" xlink:title="Flag declaring the type of Vertex implementation.">
<polygon fill="white" stroke="black" points="91,-435.5 91,-454.5 255,-454.5 255,-435.5 91,-435.5"/>
<text text-anchor="middle" x="173" y="-442.5" font-family="Helvetica,sans-Serif" font-size="10.00">denoptim.graph.Vertex.VertexType</text>
</a>
</g>
</g>
<!-- Node5&#45;&gt;Node3 -->
<g id="edge4" class="edge">
<title>Node5&#45;&gt;Node3</title>
<path fill="none" stroke="#9a32cd" stroke-dasharray="5,2" d="M251.65,-460.69C252.82,-461.73 253.94,-462.83 255,-464 294.84,-507.81 229.68,-555.64 273,-596 368.15,-684.66 740.09,-577.03 857,-634 931.98,-670.54 911.2,-729.89 982,-774 988.24,-777.89 995.29,-781 1002.43,-783.48"/>
<polygon fill="#9a32cd" stroke="#9a32cd" points="253.43,-457.66 243.27,-454.67 249.35,-463.34 253.43,-457.66"/>
<text text-anchor="middle" x="619" y="-628" font-family="Helvetica,sans-Serif" font-size="10.00"> vertexType</text>
</g>
<!-- Node5&#45;&gt;Node23 -->
<g id="edge35" class="edge">
<title>Node5&#45;&gt;Node23</title>
<path fill="none" stroke="#9a32cd" stroke-dasharray="5,2" d="M265.23,-442.13C267.85,-442.08 270.44,-442.04 273,-442 321.44,-441.27 333.56,-441.25 382,-442 395.39,-442.21 409.82,-442.57 423.35,-442.98"/>
<polygon fill="#9a32cd" stroke="#9a32cd" points="264.96,-438.64 255.04,-442.34 265.11,-445.64 264.96,-438.64"/>
<text text-anchor="middle" x="327.5" y="-445" font-family="Helvetica,sans-Serif" font-size="10.00"> vertexType</text>
</g>
<!-- Node6 -->
<g id="node6" class="node">
<title>Node6</title>
<g id="a_node6"><a xlink:href="classdenoptim_1_1graph_1_1_edge_query.html" target="_top" xlink:title="A query for edges: a list of properties that target edges should possess in order to match this query...">
<polygon fill="white" stroke="black" points="701.5,-810.5 701.5,-829.5 833.5,-829.5 833.5,-810.5 701.5,-810.5"/>
<text text-anchor="middle" x="767.5" y="-817.5" font-family="Helvetica,sans-Serif" font-size="10.00">denoptim.graph.EdgeQuery</text>
</a>
</g>
</g>
<!-- Node6&#45;&gt;Node1 -->
<g id="edge14" class="edge">
<title>Node6&#45;&gt;Node1</title>
<path fill="none" stroke="#9a32cd" stroke-dasharray="5,2" d="M840.42,-830.66C931.95,-840.77 1092.49,-846.69 1212,-787 1240.69,-772.67 1269.08,-747.35 1283.41,-733.57"/>
<polygon fill="#9a32cd" stroke="#9a32cd" points="840.76,-827.18 830.43,-829.51 839.96,-834.13 840.76,-827.18"/>
<text text-anchor="middle" x="1051" y="-839" font-family="Helvetica,sans-Serif" font-size="10.00"> edgeQuery</text>
</g>
<!-- Node6&#45;&gt;Node3 -->
<g id="edge5" class="edge">
<title>Node6&#45;&gt;Node3</title>
<path fill="none" stroke="#9a32cd" stroke-dasharray="5,2" d="M831.63,-808.84C845.86,-806.63 860.92,-804.52 875,-803 910.1,-799.21 949.32,-796.8 981.72,-795.3"/>
<polygon fill="#9a32cd" stroke="#9a32cd" points="830.77,-805.44 821.45,-810.47 831.87,-812.35 830.77,-805.44"/>
<text text-anchor="middle" x="919.5" y="-817" font-family="Helvetica,sans-Serif" font-size="10.00"> incomingEdgeQuery</text>
<text text-anchor="middle" x="919.5" y="-806" font-family="Helvetica,sans-Serif" font-size="10.00">outgoingEdgeQuery</text>
</g>
<!-- Node7 -->
<g id="node7" class="node">
<title>Node7</title>
<g id="a_node7"><a xlink:href="enumdenoptim_1_1graph_1_1_edge_1_1_bond_type.html" target="_top" xlink:title="Possible chemical bond types an edge can represent.">
<polygon fill="white" stroke="black" points="97,-819.5 97,-838.5 249,-838.5 249,-819.5 97,-819.5"/>
<text text-anchor="middle" x="173" y="-826.5" font-family="Helvetica,sans-Serif" font-size="10.00">denoptim.graph.Edge.BondType</text>
</a>
</g>
</g>
<!-- Node7&#45;&gt;Node6 -->
<g id="edge6" class="edge">
<title>Node7&#45;&gt;Node6</title>
<path fill="none" stroke="#9a32cd" stroke-dasharray="5,2" d="M259.31,-829.92C263.94,-829.95 268.53,-829.98 273,-830 321.44,-830.24 333.56,-830.63 382,-830 494.17,-828.54 624.71,-824.69 701.2,-822.22"/>
<polygon fill="#9a32cd" stroke="#9a32cd" points="259.16,-826.42 249.14,-829.84 259.11,-833.42 259.16,-826.42"/>
<text text-anchor="middle" x="480" y="-832" font-family="Helvetica,sans-Serif" font-size="10.00"> bondType</text>
</g>
<!-- Node9 -->
<g id="node9" class="node">
<title>Node9</title>
<g id="a_node9"><a xlink:href="classdenoptim_1_1graph_1_1_a_p_class.html" target="_top" xlink:title=" ">
<polygon fill="white" stroke="black" points="418.5,-737.5 418.5,-756.5 541.5,-756.5 541.5,-737.5 418.5,-737.5"/>
<text text-anchor="middle" x="480" y="-744.5" font-family="Helvetica,sans-Serif" font-size="10.00">denoptim.graph.APClass</text>
</a>
</g>
</g>
<!-- Node7&#45;&gt;Node9 -->
<g id="edge13" class="edge">
<title>Node7&#45;&gt;Node9</title>
<path fill="none" stroke="#9a32cd" stroke-dasharray="5,2" d="M223.37,-817.02C265.61,-806.63 327.97,-790.95 382,-776 404.19,-769.86 429.07,-762.41 448.08,-756.6"/>
<polygon fill="#9a32cd" stroke="#9a32cd" points="222.49,-813.64 213.62,-819.42 224.16,-820.43 222.49,-813.64"/>
<text text-anchor="middle" x="327.5" y="-818" font-family="Helvetica,sans-Serif" font-size="10.00"> DEFAULTBT</text>
<text text-anchor="middle" x="327.5" y="-807" font-family="Helvetica,sans-Serif" font-size="10.00">bndTyp</text>
</g>
<!-- Node8 -->
<g id="node8" class="node">
<title>Node8</title>
<g id="a_node8"><a xlink:title=" ">
<polygon fill="white" stroke="black" points="0,-819.5 0,-838.5 42,-838.5 42,-819.5 0,-819.5"/>
<text text-anchor="middle" x="21" y="-826.5" font-family="Helvetica,sans-Serif" font-size="10.00">IBond</text>
</a>
</g>
</g>
<!-- Node8&#45;&gt;Node7 -->
<g id="edge7" class="edge">
<title>Node8&#45;&gt;Node7</title>
<path fill="none" stroke="#9a32cd" stroke-dasharray="5,2" d="M52.4,-829C65.37,-829 81.12,-829 96.89,-829"/>
<polygon fill="#9a32cd" stroke="#9a32cd" points="52.23,-825.5 42.23,-829 52.23,-832.5 52.23,-825.5"/>
<text text-anchor="middle" x="66.5" y="-832" font-family="Helvetica,sans-Serif" font-size="10.00"> bo</text>
</g>
<!-- Node9&#45;&gt;Node6 -->
<g id="edge8" class="edge">
<title>Node9&#45;&gt;Node6</title>
<path fill="none" stroke="#9a32cd" stroke-dasharray="5,2" d="M528.05,-759.03C584.38,-773.43 677.55,-797.25 729.17,-810.45"/>
<polygon fill="#9a32cd" stroke="#9a32cd" points="528.88,-755.63 518.32,-756.54 527.15,-762.41 528.88,-755.63"/>
<text text-anchor="middle" x="619" y="-806" font-family="Helvetica,sans-Serif" font-size="10.00"> srcAPC</text>
<text text-anchor="middle" x="619" y="-795" font-family="Helvetica,sans-Serif" font-size="10.00">trgAPC</text>
</g>
<!-- Node9&#45;&gt;Node9 -->
<g id="edge12" class="edge">
<title>Node9&#45;&gt;Node9</title>
<path fill="none" stroke="#9a32cd" stroke-dasharray="5,2" d="M454.33,-766.03C455.73,-771.13 464.29,-775 480,-775 504.53,-775 511.62,-765.57 501.27,-756.76"/>
<polygon fill="#9a32cd" stroke="#9a32cd" points="457.61,-767.29 458.73,-756.76 451.28,-764.29 457.61,-767.29"/>
<text text-anchor="middle" x="480" y="-800" font-family="Helvetica,sans-Serif" font-size="10.00"> RCACLASSMINUS</text>
<text text-anchor="middle" x="480" y="-789" font-family="Helvetica,sans-Serif" font-size="10.00">RCACLASSNEUTRAL</text>
<text text-anchor="middle" x="480" y="-778" font-family="Helvetica,sans-Serif" font-size="10.00">RCACLASSPLUS</text>
</g>
<!-- Node10 -->
<g id="node10" class="node">
<title>Node10</title>
<g id="a_node10"><a xlink:title=" ">
<polygon fill="white" stroke="black" points="143.5,-532.5 143.5,-551.5 202.5,-551.5 202.5,-532.5 143.5,-532.5"/>
<text text-anchor="middle" x="173" y="-539.5" font-family="Helvetica,sans-Serif" font-size="10.00">Cloneable</text>
</a>
</g>
</g>
<!-- Node10&#45;&gt;Node9 -->
<g id="edge9" class="edge">
<title>Node10&#45;&gt;Node9</title>
<path fill="none" stroke="midnightblue" d="M192.03,-558.37C211.37,-575.59 243.33,-603.04 273,-624 339.34,-670.86 424.14,-717.7 460.79,-737.36"/>
<polygon fill="midnightblue" stroke="midnightblue" points="194.33,-555.74 184.55,-551.67 189.66,-560.95 194.33,-555.74"/>
</g>
<!-- Node13 -->
<g id="node13" class="node">
<title>Node13</title>
<g id="a_node13"><a xlink:href="classdenoptim_1_1graph_1_1_d_graph.html" target="_top" xlink:title="Container for the list of vertices and the edges that connect them.">
<polygon fill="white" stroke="black" points="992,-324.5 992,-343.5 1110,-343.5 1110,-324.5 992,-324.5"/>
<text text-anchor="middle" x="1051" y="-331.5" font-family="Helvetica,sans-Serif" font-size="10.00">denoptim.graph.DGraph</text>
</a>
</g>
</g>
<!-- Node10&#45;&gt;Node13 -->
<g id="edge16" class="edge">
<title>Node10&#45;&gt;Node13</title>
<path fill="none" stroke="midnightblue" d="M212.76,-536.27C257.71,-529.75 334.1,-519.11 400,-512 501.32,-501.07 757.56,-496.27 857,-474 906.54,-462.9 922.36,-463.05 964,-434 1000.81,-408.32 1031.67,-363.34 1044.11,-343.67"/>
<polygon fill="midnightblue" stroke="midnightblue" points="212.23,-532.81 202.84,-537.71 213.24,-539.73 212.23,-532.81"/>
</g>
<!-- Node19 -->
<g id="node19" class="node">
<title>Node19</title>
<g id="a_node19"><a xlink:href="classdenoptim_1_1graph_1_1_candidate.html" target="_top" xlink:title="A candidate is the combination of a denoptim graph with molecular representation and may include also...">
<polygon fill="white" stroke="black" points="1230,-472.5 1230,-491.5 1358,-491.5 1358,-472.5 1230,-472.5"/>
<text text-anchor="middle" x="1294" y="-479.5" font-family="Helvetica,sans-Serif" font-size="10.00">denoptim.graph.Candidate</text>
</a>
</g>
</g>
<!-- Node10&#45;&gt;Node19 -->
<g id="edge24" class="edge">
<title>Node10&#45;&gt;Node19</title>
<path fill="none" stroke="midnightblue" d="M212.73,-543.66C257.73,-545.52 334.23,-548.48 400,-550 727.93,-557.58 809.99,-556.22 1138,-558 1170.89,-558.18 1181.42,-570.1 1212,-558 1246.25,-544.45 1274.48,-508.81 1286.61,-491.59"/>
<polygon fill="midnightblue" stroke="midnightblue" points="212.67,-540.15 202.53,-543.23 212.38,-547.15 212.67,-540.15"/>
</g>
<!-- Node10&#45;&gt;Node23 -->
<g id="edge29" class="edge">
<title>Node10&#45;&gt;Node23</title>
<path fill="none" stroke="midnightblue" d="M212.31,-531.41C230.66,-526.37 252.95,-520.31 273,-515 321.35,-502.2 335.15,-504.5 382,-487 390.38,-483.87 391.87,-481.73 400,-478 418.24,-469.64 439.21,-460.92 454.96,-454.55"/>
<polygon fill="midnightblue" stroke="midnightblue" points="211.28,-528.06 202.56,-534.09 213.13,-534.81 211.28,-528.06"/>
</g>
<!-- Node11 -->
<g id="node11" class="node">
<title>Node11</title>
<g id="a_node11"><a xlink:title=" ">
<polygon fill="white" stroke="black" points="111.5,-765.5 111.5,-784.5 234.5,-784.5 234.5,-765.5 111.5,-765.5"/>
<text text-anchor="middle" x="173" y="-772.5" font-family="Helvetica,sans-Serif" font-size="10.00">Comparable&lt; APClass &gt;</text>
</a>
</g>
</g>
<!-- Node11&#45;&gt;Node9 -->
<g id="edge10" class="edge">
<title>Node11&#45;&gt;Node9</title>
<path fill="none" stroke="midnightblue" d="M244.56,-769.79C284.85,-766.67 336.29,-762.46 382,-758 393.81,-756.85 406.41,-755.5 418.49,-754.16"/>
<polygon fill="midnightblue" stroke="midnightblue" points="244.27,-766.3 234.57,-770.55 244.81,-773.28 244.27,-766.3"/>
</g>
<!-- Node12 -->
<g id="node12" class="node">
<title>Node12</title>
<g id="a_node12"><a xlink:title=" ">
<polygon fill="white" stroke="black" points="95.5,-727.5 95.5,-746.5 250.5,-746.5 250.5,-727.5 95.5,-727.5"/>
<text text-anchor="middle" x="173" y="-734.5" font-family="Helvetica,sans-Serif" font-size="10.00">Set&lt; denoptim.graph.APClass &gt;</text>
</a>
</g>
</g>
<!-- Node12&#45;&gt;Node9 -->
<g id="edge11" class="edge">
<title>Node12&#45;&gt;Node9</title>
<path fill="none" stroke="#9a32cd" stroke-dasharray="5,2" d="M260.79,-739.85C311.09,-741.49 373.17,-743.53 418.24,-745.01"/>
<polygon fill="#9a32cd" stroke="#9a32cd" points="260.68,-736.34 250.57,-739.51 260.45,-743.34 260.68,-736.34"/>
<text text-anchor="middle" x="327.5" y="-746" font-family="Helvetica,sans-Serif" font-size="10.00"> uniqueAPClasses</text>
</g>
<!-- Node13&#45;&gt;Node1 -->
<g id="edge15" class="edge">
<title>Node13&#45;&gt;Node1</title>
<path fill="none" stroke="#9a32cd" stroke-dasharray="5,2" d="M1063.46,-352.55C1106.18,-421.68 1255.31,-663 1287.04,-714.35"/>
<polygon fill="#9a32cd" stroke="#9a32cd" points="1066.19,-350.31 1057.96,-343.64 1060.24,-353.99 1066.19,-350.31"/>
<text text-anchor="middle" x="1175" y="-589" font-family="Helvetica,sans-Serif" font-size="10.00"> incomingGraph</text>
</g>
<!-- Node13&#45;&gt;Node19 -->
<g id="edge25" class="edge">
<title>Node13&#45;&gt;Node19</title>
<path fill="none" stroke="#9a32cd" stroke-dasharray="5,2" d="M1067.94,-351C1084.34,-367.79 1111.2,-393.45 1138,-411 1179.84,-438.41 1233.99,-460.57 1265.96,-472.47"/>
<polygon fill="#9a32cd" stroke="#9a32cd" points="1070.23,-348.33 1060.78,-343.54 1065.18,-353.18 1070.23,-348.33"/>
<text text-anchor="middle" x="1175" y="-454" font-family="Helvetica,sans-Serif" font-size="10.00"> graph</text>
</g>
<!-- Node22 -->
<g id="node22" class="node">
<title>Node22</title>
<g id="a_node22"><a xlink:href="classdenoptim_1_1graph_1_1_template.html" target="_top" xlink:title=" ">
<polygon fill="white" stroke="black" points="705,-279.5 705,-298.5 830,-298.5 830,-279.5 705,-279.5"/>
<text text-anchor="middle" x="767.5" y="-286.5" font-family="Helvetica,sans-Serif" font-size="10.00">denoptim.graph.Template</text>
</a>
</g>
</g>
<!-- Node13&#45;&gt;Node22 -->
<g id="edge36" class="edge">
<title>Node13&#45;&gt;Node22</title>
<path fill="none" stroke="#9a32cd" stroke-dasharray="5,2" d="M1000.53,-322.32C988.61,-319.71 975.88,-317.1 964,-315 919.49,-307.14 868.91,-300.47 830.34,-295.86"/>
<polygon fill="#9a32cd" stroke="#9a32cd" points="999.8,-325.74 1010.32,-324.49 1001.32,-318.91 999.8,-325.74"/>
<text text-anchor="middle" x="919.5" y="-318" font-family="Helvetica,sans-Serif" font-size="10.00"> innerGraph</text>
</g>
<!-- Node13&#45;&gt;Node23 -->
<g id="edge30" class="edge">
<title>Node13&#45;&gt;Node23</title>
<path fill="none" stroke="#9a32cd" stroke-dasharray="5,2" d="M1034.65,-351.14C1018.72,-367.76 992.21,-392.27 964,-405 820.96,-469.54 629.99,-461.27 536.84,-452.03"/>
<polygon fill="#9a32cd" stroke="#9a32cd" points="1037.33,-353.4 1041.59,-343.7 1032.21,-348.63 1037.33,-353.4"/>
<text text-anchor="middle" x="767.5" y="-462" font-family="Helvetica,sans-Serif" font-size="10.00"> owner</text>
</g>
<!-- Node14 -->
<g id="node14" class="node">
<title>Node14</title>
<g id="a_node14"><a xlink:title=" ">
<polygon fill="white" stroke="black" points="694.5,-393.5 694.5,-412.5 840.5,-412.5 840.5,-393.5 694.5,-393.5"/>
<text text-anchor="middle" x="767.5" y="-400.5" font-family="Helvetica,sans-Serif" font-size="10.00">List&lt; denoptim.graph.Vertex &gt;</text>
</a>
</g>
</g>
<!-- Node14&#45;&gt;Node13 -->
<g id="edge17" class="edge">
<title>Node14&#45;&gt;Node13</title>
<path fill="none" stroke="#9a32cd" stroke-dasharray="5,2" d="M851.18,-394.02C886.39,-389.03 927.64,-381.62 964,-371 988.03,-363.98 1014.27,-352.02 1031.36,-343.6"/>
<polygon fill="#9a32cd" stroke="#9a32cd" points="850.37,-390.6 840.94,-395.43 851.32,-397.53 850.37,-390.6"/>
<text text-anchor="middle" x="919.5" y="-393" font-family="Helvetica,sans-Serif" font-size="10.00"> gVertices</text>
</g>
<!-- Node15 -->
<g id="node15" class="node">
<title>Node15</title>
<g id="a_node15"><a xlink:title=" ">
<polygon fill="white" stroke="black" points="697.5,-355.5 697.5,-374.5 837.5,-374.5 837.5,-355.5 697.5,-355.5"/>
<text text-anchor="middle" x="767.5" y="-362.5" font-family="Helvetica,sans-Serif" font-size="10.00">List&lt; denoptim.graph.Edge &gt;</text>
</a>
</g>
</g>
<!-- Node15&#45;&gt;Node13 -->
<g id="edge18" class="edge">
<title>Node15&#45;&gt;Node13</title>
<path fill="none" stroke="#9a32cd" stroke-dasharray="5,2" d="M848.1,-358.02C883.61,-354.72 925.93,-350.5 964,-346 972.98,-344.94 982.48,-343.71 991.75,-342.46"/>
<polygon fill="#9a32cd" stroke="#9a32cd" points="847.43,-354.57 837.79,-358.98 848.07,-361.54 847.43,-354.57"/>
<text text-anchor="middle" x="919.5" y="-359" font-family="Helvetica,sans-Serif" font-size="10.00"> gEdges</text>
</g>
<!-- Node16 -->
<g id="node16" class="node">
<title>Node16</title>
<g id="a_node16"><a xlink:title=" ">
<polygon fill="white" stroke="black" points="699,-317.5 699,-336.5 836,-336.5 836,-317.5 699,-317.5"/>
<text text-anchor="middle" x="767.5" y="-324.5" font-family="Helvetica,sans-Serif" font-size="10.00">List&lt; denoptim.graph.Ring &gt;</text>
</a>
</g>
</g>
<!-- Node16&#45;&gt;Node13 -->
<g id="edge19" class="edge">
<title>Node16&#45;&gt;Node13</title>
<path fill="none" stroke="#9a32cd" stroke-dasharray="5,2" d="M846.52,-328.94C892.54,-330.08 949.8,-331.51 991.85,-332.55"/>
<polygon fill="#9a32cd" stroke="#9a32cd" points="846.37,-325.44 836.28,-328.69 846.19,-332.43 846.37,-325.44"/>
<text text-anchor="middle" x="919.5" y="-335" font-family="Helvetica,sans-Serif" font-size="10.00"> gRings</text>
</g>
<!-- Node17 -->
<g id="node17" class="node">
<title>Node17</title>
<g id="a_node17"><a xlink:title=" ">
<polygon fill="white" stroke="black" points="701,-230 701,-260 834,-260 834,-230 701,-230"/>
<text text-anchor="start" x="709" y="-248" font-family="Helvetica,sans-Serif" font-size="10.00">List&lt; denoptim.graph.rings.</text>
<text text-anchor="middle" x="767.5" y="-237" font-family="Helvetica,sans-Serif" font-size="10.00">ClosableChain &gt;</text>
</a>
</g>
</g>
<!-- Node17&#45;&gt;Node13 -->
<g id="edge20" class="edge">
<title>Node17&#45;&gt;Node13</title>
<path fill="none" stroke="#9a32cd" stroke-dasharray="5,2" d="M844.76,-231.99C882.09,-228.91 926.87,-230.26 964,-246 1002.55,-262.34 1032.48,-305.24 1044.39,-324.46"/>
<polygon fill="#9a32cd" stroke="#9a32cd" points="844.06,-228.54 834.44,-232.97 844.72,-235.51 844.06,-228.54"/>
<text text-anchor="middle" x="919.5" y="-249" font-family="Helvetica,sans-Serif" font-size="10.00"> closableChains</text>
</g>
<!-- Node18 -->
<g id="node18" class="node">
<title>Node18</title>
<g id="a_node18"><a xlink:title=" ">
<polygon fill="white" stroke="black" points="689.5,-181 689.5,-211 845.5,-211 845.5,-181 689.5,-181"/>
<text text-anchor="start" x="697.5" y="-199" font-family="Helvetica,sans-Serif" font-size="10.00">List&lt; denoptim.graph.Symmetric</text>
<text text-anchor="middle" x="767.5" y="-188" font-family="Helvetica,sans-Serif" font-size="10.00">Vertexes &gt;</text>
</a>
</g>
</g>
<!-- Node18&#45;&gt;Node13 -->
<g id="edge21" class="edge">
<title>Node18&#45;&gt;Node13</title>
<path fill="none" stroke="#9a32cd" stroke-dasharray="5,2" d="M856.19,-189.89C891.7,-191.13 931.82,-197.51 964,-216 1008.62,-241.63 1036.55,-300.81 1046.21,-324.22"/>
<polygon fill="#9a32cd" stroke="#9a32cd" points="855.89,-186.39 845.82,-189.67 855.74,-193.38 855.89,-186.39"/>
<text text-anchor="middle" x="919.5" y="-219" font-family="Helvetica,sans-Serif" font-size="10.00"> symVertices</text>
</g>
<!-- Node19&#45;&gt;Node13 -->
<g id="edge22" class="edge">
<title>Node19&#45;&gt;Node13</title>
<path fill="none" stroke="#9a32cd" stroke-dasharray="5,2" d="M1279.26,-464.4C1264.33,-446.26 1238.98,-418.12 1212,-400 1172.09,-373.2 1119.57,-354.12 1085.79,-343.58"/>
<polygon fill="#9a32cd" stroke="#9a32cd" points="1276.72,-466.83 1285.71,-472.42 1282.17,-462.44 1276.72,-466.83"/>
<text text-anchor="middle" x="1175" y="-403" font-family="Helvetica,sans-Serif" font-size="10.00"> candidate</text>
</g>
<!-- Node20 -->
<g id="node20" class="node">
<title>Node20</title>
<g id="a_node20"><a xlink:title=" ">
<polygon fill="white" stroke="black" points="987,-472.5 987,-491.5 1115,-491.5 1115,-472.5 987,-472.5"/>
<text text-anchor="middle" x="1051" y="-479.5" font-family="Helvetica,sans-Serif" font-size="10.00">Comparable&lt; Candidate &gt;</text>
</a>
</g>
</g>
<!-- Node20&#45;&gt;Node19 -->
<g id="edge23" class="edge">
<title>Node20&#45;&gt;Node19</title>
<path fill="none" stroke="midnightblue" d="M1125.18,-482C1158.62,-482 1197.83,-482 1229.94,-482"/>
<polygon fill="midnightblue" stroke="midnightblue" points="1125.01,-478.5 1115.01,-482 1125.01,-485.5 1125.01,-478.5"/>
</g>
<!-- Node21 -->
<g id="node21" class="node">
<title>Node21</title>
<g id="a_node21"><a xlink:title=" ">
<polygon fill="white" stroke="black" points="438,-521.5 438,-540.5 522,-540.5 522,-521.5 438,-521.5"/>
<text text-anchor="middle" x="480" y="-528.5" font-family="Helvetica,sans-Serif" font-size="10.00">IAtomContainer</text>
</a>
</g>
</g>
<!-- Node21&#45;&gt;Node19 -->
<g id="edge26" class="edge">
<title>Node21&#45;&gt;Node19</title>
<path fill="none" stroke="#9a32cd" stroke-dasharray="5,2" d="M532.13,-528.73C640.51,-523.88 901.34,-512.07 1120,-501 1160.9,-498.93 1171.31,-500.61 1212,-496 1222.21,-494.84 1233.08,-493.23 1243.44,-491.51"/>
<polygon fill="#9a32cd" stroke="#9a32cd" points="531.96,-525.23 522.12,-529.17 532.27,-532.23 531.96,-525.23"/>
<text text-anchor="middle" x="919.5" y="-516" font-family="Helvetica,sans-Serif" font-size="10.00"> iac</text>
</g>
<!-- Node21&#45;&gt;Node22 -->
<g id="edge37" class="edge">
<title>Node21&#45;&gt;Node22</title>
<path fill="none" stroke="#9a32cd" stroke-dasharray="5,2" d="M500.28,-514.92C516.36,-501.44 539.82,-481.63 560,-464 605.03,-424.66 628.64,-424.91 660,-374 675.95,-348.11 655.92,-328.9 678,-308 685.42,-300.98 694.77,-296.3 704.61,-293.22"/>
<polygon fill="#9a32cd" stroke="#9a32cd" points="498.03,-512.24 492.6,-521.34 502.52,-517.61 498.03,-512.24"/>
<text text-anchor="middle" x="619" y="-451" font-family="Helvetica,sans-Serif" font-size="10.00"> mol</text>
</g>
<!-- Node22&#45;&gt;Node13 -->
<g id="edge27" class="edge">
<title>Node22&#45;&gt;Node13</title>
<path fill="none" stroke="#9a32cd" stroke-dasharray="5,2" d="M815.12,-277.23C833.63,-273.12 855.19,-269.02 875,-267 914.35,-262.98 926.59,-254.15 964,-267 997.29,-278.44 1027.61,-308.62 1041.69,-324.28"/>
<polygon fill="#9a32cd" stroke="#9a32cd" points="814.15,-273.86 805.18,-279.5 815.71,-280.68 814.15,-273.86"/>
<text text-anchor="middle" x="919.5" y="-270" font-family="Helvetica,sans-Serif" font-size="10.00"> templateJacket</text>
</g>
<!-- Node23&#45;&gt;Node22 -->
<g id="edge28" class="edge">
<title>Node23&#45;&gt;Node22</title>
<path fill="none" stroke="midnightblue" d="M509.01,-430.62C545.91,-410.9 611.78,-372.98 660,-330 669.43,-321.59 667.22,-314.58 678,-308 686.18,-303 695.49,-299.31 704.92,-296.58"/>
<polygon fill="midnightblue" stroke="midnightblue" points="507.05,-427.7 499.84,-435.46 510.32,-433.89 507.05,-427.7"/>
</g>
<!-- Node24 -->
<g id="node24" class="node">
<title>Node24</title>
<g id="a_node24"><a xlink:title=" ">
<polygon fill="white" stroke="black" points="116,-397.5 116,-416.5 230,-416.5 230,-397.5 116,-397.5"/>
<text text-anchor="middle" x="173" y="-404.5" font-family="Helvetica,sans-Serif" font-size="10.00">Map&lt; Object, Object &gt;</text>
</a>
</g>
</g>
<!-- Node24&#45;&gt;Node23 -->
<g id="edge32" class="edge">
<title>Node24&#45;&gt;Node23</title>
<path fill="none" stroke="#9a32cd" stroke-dasharray="5,2" d="M240.34,-411.89C281.28,-415.27 334.81,-420.37 382,-427 398.45,-429.31 416.36,-432.46 432.26,-435.47"/>
<polygon fill="#9a32cd" stroke="#9a32cd" points="240.47,-408.39 230.22,-411.06 239.9,-415.36 240.47,-408.39"/>
<text text-anchor="middle" x="327.5" y="-430" font-family="Helvetica,sans-Serif" font-size="10.00"> properties</text>
</g>
<!-- Node25 -->
<g id="node25" class="node">
<title>Node25</title>
<g id="a_node25"><a xlink:title=" ">
<polygon fill="white" stroke="black" points="136,-359.5 136,-378.5 210,-378.5 210,-359.5 136,-359.5"/>
<text text-anchor="middle" x="173" y="-366.5" font-family="Helvetica,sans-Serif" font-size="10.00">Set&lt; String &gt;</text>
</a>
</g>
</g>
<!-- Node25&#45;&gt;Node23 -->
<g id="edge33" class="edge">
<title>Node25&#45;&gt;Node23</title>
<path fill="none" stroke="#9a32cd" stroke-dasharray="5,2" d="M220.1,-372.07C262.8,-375.8 327.72,-383.73 382,-400 411.34,-408.79 443.16,-424.95 462.07,-435.32"/>
<polygon fill="#9a32cd" stroke="#9a32cd" points="220.26,-368.57 210.01,-371.23 219.68,-375.55 220.26,-368.57"/>
<text text-anchor="middle" x="327.5" y="-403" font-family="Helvetica,sans-Serif" font-size="10.00"> uniquefyingPropertyKeys</text>
</g>
<!-- Node26 -->
<g id="node26" class="node">
<title>Node26</title>
<g id="a_node26"><a xlink:title=" ">
<polygon fill="white" stroke="black" points="102.5,-474 102.5,-504 243.5,-504 243.5,-474 102.5,-474"/>
<text text-anchor="start" x="110.5" y="-492" font-family="Helvetica,sans-Serif" font-size="10.00">List&lt; denoptim.utils.Mutation</text>
<text text-anchor="middle" x="173" y="-481" font-family="Helvetica,sans-Serif" font-size="10.00">Type &gt;</text>
</a>
</g>
</g>
<!-- Node26&#45;&gt;Node23 -->
<g id="edge34" class="edge">
<title>Node26&#45;&gt;Node23</title>
<path fill="none" stroke="#9a32cd" stroke-dasharray="5,2" d="M253.7,-477.5C307.06,-469.8 375.96,-459.87 423.44,-453.02"/>
<polygon fill="#9a32cd" stroke="#9a32cd" points="252.99,-474.07 243.59,-478.96 253.99,-481 252.99,-474.07"/>
<text text-anchor="middle" x="327.5" y="-477" font-family="Helvetica,sans-Serif" font-size="10.00"> allowedMutationTypes</text>
</g>
<!-- Node27 -->
<g id="node27" class="node">
<title>Node27</title>
<g id="a_node27"><a xlink:href="enumdenoptim_1_1graph_1_1_template_1_1_contract_level.html" target="_top" xlink:title="Enum specifying to what extent the template&#39;s inner graph can be changed.">
<polygon fill="white" stroke="black" points="416,-270 416,-300 544,-300 544,-270 416,-270"/>
<text text-anchor="start" x="424" y="-288" font-family="Helvetica,sans-Serif" font-size="10.00">denoptim.graph.Template.</text>
<text text-anchor="middle" x="480" y="-277" font-family="Helvetica,sans-Serif" font-size="10.00">ContractLevel</text>
</a>
</g>
</g>
<!-- Node27&#45;&gt;Node22 -->
<g id="edge38" class="edge">
<title>Node27&#45;&gt;Node22</title>
<path fill="none" stroke="#9a32cd" stroke-dasharray="5,2" d="M554.04,-286.02C600.64,-286.68 660.38,-287.51 704.64,-288.13"/>
<polygon fill="#9a32cd" stroke="#9a32cd" points="554.06,-282.52 544.01,-285.88 553.96,-289.52 554.06,-282.52"/>
<text text-anchor="middle" x="619" y="-291" font-family="Helvetica,sans-Serif" font-size="10.00"> contractLevel</text>
</g>
<!-- Node28 -->
<g id="node28" class="node">
<title>Node28</title>
<g id="a_node28"><a xlink:title=" ">
<polygon fill="white" stroke="black" points="400,-221 400,-251 560,-251 560,-221 400,-221"/>
<text text-anchor="start" x="408" y="-239" font-family="Helvetica,sans-Serif" font-size="10.00">List&lt; denoptim.graph.Attachment</text>
<text text-anchor="middle" x="480" y="-228" font-family="Helvetica,sans-Serif" font-size="10.00">Point &gt;</text>
</a>
</g>
</g>
<!-- Node28&#45;&gt;Node22 -->
<g id="edge39" class="edge">
<title>Node28&#45;&gt;Node22</title>
<path fill="none" stroke="#9a32cd" stroke-dasharray="5,2" d="M570.17,-252.55C617.85,-261.4 674.86,-271.99 715.13,-279.46"/>
<polygon fill="#9a32cd" stroke="#9a32cd" points="570.62,-249.08 560.15,-250.69 569.34,-255.96 570.62,-249.08"/>
<text text-anchor="middle" x="619" y="-272" font-family="Helvetica,sans-Serif" font-size="10.00"> requiredAPs</text>
</g>
<!-- Node29 -->
<g id="node29" class="node">
<title>Node29</title>
<g id="a_node29"><a xlink:href="classdenoptim_1_1graph_1_1_a_p_tree_map.html" target="_top" xlink:title="Attachment point mapping where keys are sorted by natural ordering, i.e., by AttachmentPoint#compareT...">
<polygon fill="white" stroke="black" points="411.5,-319.5 411.5,-338.5 548.5,-338.5 548.5,-319.5 411.5,-319.5"/>
<text text-anchor="middle" x="480" y="-326.5" font-family="Helvetica,sans-Serif" font-size="10.00">denoptim.graph.APTreeMap</text>
</a>
</g>
</g>
<!-- Node29&#45;&gt;Node22 -->
<g id="edge40" class="edge">
<title>Node29&#45;&gt;Node22</title>
<path fill="none" stroke="#9a32cd" stroke-dasharray="5,2" d="M558.57,-318.13C604.48,-311.7 661.85,-303.66 704.69,-297.66"/>
<polygon fill="#9a32cd" stroke="#9a32cd" points="558.08,-314.67 548.66,-319.52 559.05,-321.6 558.08,-314.67"/>
<text text-anchor="middle" x="619" y="-318" font-family="Helvetica,sans-Serif" font-size="10.00"> innerToOuterAPs</text>
</g>
<!-- Node30 -->
<g id="node30" class="node">
<title>Node30</title>
<g id="a_node30"><a xlink:title=" ">
<polygon fill="white" stroke="black" points="100,-310 100,-340 246,-340 246,-310 100,-310"/>
<text text-anchor="start" x="108" y="-328" font-family="Helvetica,sans-Serif" font-size="10.00">LinkedHashMap&lt; Attachment</text>
<text text-anchor="middle" x="173" y="-317" font-family="Helvetica,sans-Serif" font-size="10.00">Point, AttachmentPoint &gt;</text>
</a>
</g>
</g>
<!-- Node30&#45;&gt;Node29 -->
<g id="edge41" class="edge">
<title>Node30&#45;&gt;Node29</title>
<path fill="none" stroke="midnightblue" d="M256.45,-326.08C305.02,-326.72 365.69,-327.51 411.42,-328.11"/>
<polygon fill="midnightblue" stroke="midnightblue" points="256.33,-322.58 246.28,-325.95 256.23,-329.58 256.33,-322.58"/>
</g>
<!-- Node31 -->
<g id="node31" class="node">
<title>Node31</title>
<g id="a_node31"><a xlink:title=" ">
<polygon fill="white" stroke="black" points="679,-110 679,-162 856,-162 856,-110 679,-110"/>
<text text-anchor="start" x="687" y="-150" font-family="Helvetica,sans-Serif" font-size="10.00">DefaultUndirectedGraph</text>
<text text-anchor="start" x="687" y="-139" font-family="Helvetica,sans-Serif" font-size="10.00">&lt; denoptim.graph.Vertex,</text>
<text text-anchor="start" x="687" y="-128" font-family="Helvetica,sans-Serif" font-size="10.00"> denoptim.graph.simplified.Undirected</text>
<text text-anchor="middle" x="767.5" y="-117" font-family="Helvetica,sans-Serif" font-size="10.00">Edge &gt;</text>
</a>
</g>
</g>
<!-- Node31&#45;&gt;Node13 -->
<g id="edge42" class="edge">
<title>Node31&#45;&gt;Node13</title>
<path fill="none" stroke="#9a32cd" stroke-dasharray="5,2" d="M866.64,-140.08C900.12,-145.53 936.11,-156.31 964,-177 1016.42,-215.88 1040.71,-296.62 1047.75,-324.38"/>
<polygon fill="#9a32cd" stroke="#9a32cd" points="866.75,-136.56 856.34,-138.55 865.72,-143.48 866.75,-136.56"/>
<text text-anchor="middle" x="919.5" y="-180" font-family="Helvetica,sans-Serif" font-size="10.00"> jGraph</text>
</g>
<!-- Node32 -->
<g id="node32" class="node">
<title>Node32</title>
<g id="a_node32"><a xlink:title=" ">
<polygon fill="white" stroke="black" points="678,-39 678,-91 857,-91 857,-39 678,-39"/>
<text text-anchor="start" x="686" y="-79" font-family="Helvetica,sans-Serif" font-size="10.00">DefaultUndirectedGraph</text>
<text text-anchor="start" x="686" y="-68" font-family="Helvetica,sans-Serif" font-size="10.00">&lt; denoptim.graph.simplified.</text>
<text text-anchor="start" x="686" y="-57" font-family="Helvetica,sans-Serif" font-size="10.00">Node, denoptim.graph.simplified.Node</text>
<text text-anchor="middle" x="767.5" y="-46" font-family="Helvetica,sans-Serif" font-size="10.00">Connection &gt;</text>
</a>
</g>
</g>
<!-- Node32&#45;&gt;Node13 -->
<g id="edge43" class="edge">
<title>Node32&#45;&gt;Node13</title>
<path fill="none" stroke="#9a32cd" stroke-dasharray="5,2" d="M867.08,-79.38C901.12,-88.53 937.36,-103.5 964,-128 1025.33,-184.4 1044.3,-291.37 1048.81,-324.18"/>
<polygon fill="#9a32cd" stroke="#9a32cd" points="867.63,-75.9 857.07,-76.83 865.9,-82.69 867.63,-75.9"/>
<text text-anchor="middle" x="919.5" y="-131" font-family="Helvetica,sans-Serif" font-size="10.00"> jGraphKernel</text>
</g>
<!-- Node33 -->
<g id="node33" class="node">
<title>Node33</title>
<g id="a_node33"><a xlink:title=" ">
<polygon fill="white" stroke="black" points="729,-0.5 729,-19.5 806,-19.5 806,-0.5 729,-0.5"/>
<text text-anchor="middle" x="767.5" y="-7.5" font-family="Helvetica,sans-Serif" font-size="10.00">AtomicInteger</text>
</a>
</g>
</g>
<!-- Node33&#45;&gt;Node13 -->
<g id="edge44" class="edge">
<title>Node33&#45;&gt;Node13</title>
<path fill="none" stroke="#9a32cd" stroke-dasharray="5,2" d="M816.36,-11.36C860.7,-15.25 925.45,-28 964,-68 1038.1,-144.88 1048.35,-286.07 1049.77,-324.26"/>
<polygon fill="#9a32cd" stroke="#9a32cd" points="816.35,-7.85 806.11,-10.59 815.82,-14.83 816.35,-7.85"/>
<text text-anchor="middle" x="919.5" y="-71" font-family="Helvetica,sans-Serif" font-size="10.00"> apCounter</text>
</g>
<!-- Node34 -->
<g id="node34" class="node">
<title>Node34</title>
<g id="a_node34"><a xlink:title=" ">
<polygon fill="white" stroke="black" points="986.5,-734 986.5,-764 1115.5,-764 1115.5,-734 986.5,-734"/>
<text text-anchor="start" x="994.5" y="-752" font-family="Helvetica,sans-Serif" font-size="10.00">LinkedHashMap&lt; Integer,</text>
<text text-anchor="middle" x="1051" y="-741" font-family="Helvetica,sans-Serif" font-size="10.00"> Integer &gt;</text>
</a>
</g>
</g>
<!-- Node34&#45;&gt;Node1 -->
<g id="edge46" class="edge">
<title>Node34&#45;&gt;Node1</title>
<path fill="none" stroke="#9a32cd" stroke-dasharray="5,2" d="M1125.61,-741.36C1159.93,-737.8 1200.27,-733.62 1232.75,-730.25"/>
<polygon fill="#9a32cd" stroke="#9a32cd" points="1125.22,-737.89 1115.64,-742.4 1125.94,-744.85 1125.22,-737.89"/>
<text text-anchor="middle" x="1175" y="-742" font-family="Helvetica,sans-Serif" font-size="10.00"> incomingAPMap</text>
</g>
</g>
</svg>
