<?xml version="1.0" encoding="UTF-8" standalone="no"?>
<!DOCTYPE svg PUBLIC "-//W3C//DTD SVG 1.1//EN"
 "http://www.w3.org/Graphics/SVG/1.1/DTD/svg11.dtd">
<!-- Generated by graphviz version 3.0.0 (20221109.1736)
 -->
<!-- Title: denoptim.fitness.DescriptorForFitness Pages: 1 -->
<svg width="370pt" height="106pt"
 viewBox="0.00 0.00 370.00 106.00" xmlns="http://www.w3.org/2000/svg" xmlns:xlink="http://www.w3.org/1999/xlink">
<g id="graph0" class="graph" transform="scale(1 1) rotate(0) translate(4 102)">
<title>denoptim.fitness.DescriptorForFitness</title>
<polygon fill="white" stroke="transparent" points="-4,4 -4,-102 366,-102 366,4 -4,4"/>
<!-- Node1 -->
<g id="node1" class="node">
<title>Node1</title>
<g id="a_node1"><a xlink:title="This is a reference to a specific descriptor value.">
<polygon fill="#bfbfbf" stroke="black" points="94,-0.5 94,-30.5 228,-30.5 228,-0.5 94,-0.5"/>
<text text-anchor="start" x="102" y="-18.5" font-family="Helvetica,sans-Serif" font-size="10.00">denoptim.fitness.Descriptor</text>
<text text-anchor="middle" x="161" y="-7.5" font-family="Helvetica,sans-Serif" font-size="10.00">ForFitness</text>
</a>
</g>
</g>
<!-- Node2 -->
<g id="node2" class="node">
<title>Node2</title>
<g id="a_node2"><a xlink:title=" ">
<polygon fill="white" stroke="black" points="0,-78.5 0,-97.5 64,-97.5 64,-78.5 0,-78.5"/>
<text text-anchor="middle" x="32" y="-85.5" font-family="Helvetica,sans-Serif" font-size="10.00">IDescriptor</text>
</a>
</g>
</g>
<!-- Node2&#45;&gt;Node1 -->
<g id="edge1" class="edge">
<title>Node2&#45;&gt;Node1</title>
<path fill="none" stroke="#9a32cd" stroke-dasharray="5,2" d="M52.02,-72.14C62.46,-64.73 75.61,-55.89 88,-49 100,-42.32 113.64,-35.95 125.85,-30.65"/>
<polygon fill="#9a32cd" stroke="#9a32cd" points="49.68,-69.52 43.63,-78.21 53.78,-75.19 49.68,-69.52"/>
<text text-anchor="middle" x="122.5" y="-52" font-family="Helvetica,sans-Serif" font-size="10.00"> implementation</text>
</g>
<!-- Node3 -->
<g id="node3" class="node">
<title>Node3</title>
<g id="a_node3"><a xlink:title=" ">
<polygon fill="white" stroke="black" points="82,-78.5 82,-97.5 240,-97.5 240,-78.5 82,-78.5"/>
<text text-anchor="middle" x="161" y="-85.5" font-family="Helvetica,sans-Serif" font-size="10.00">List&lt; denoptim.fitness.Variable &gt;</text>
</a>
</g>
</g>
<!-- Node3&#45;&gt;Node1 -->
<g id="edge2" class="edge">
<title>Node3&#45;&gt;Node1</title>
<path fill="none" stroke="#9a32cd" stroke-dasharray="5,2" d="M161,-68.24C161,-56.41 161,-41.38 161,-30.58"/>
<polygon fill="#9a32cd" stroke="#9a32cd" points="157.5,-68.36 161,-78.36 164.5,-68.36 157.5,-68.36"/>
<text text-anchor="middle" x="182" y="-52" font-family="Helvetica,sans-Serif" font-size="10.00"> variables</text>
</g>
<!-- Node4 -->
<g id="node4" class="node">
<title>Node4</title>
<g id="a_node4"><a xlink:title=" ">
<polygon fill="white" stroke="black" points="258,-78.5 258,-97.5 362,-97.5 362,-78.5 258,-78.5"/>
<text text-anchor="middle" x="310" y="-85.5" font-family="Helvetica,sans-Serif" font-size="10.00">IChemObjectBuilder</text>
</a>
</g>
</g>
<!-- Node4&#45;&gt;Node1 -->
<g id="edge3" class="edge">
<title>Node4&#45;&gt;Node1</title>
<path fill="none" stroke="#9a32cd" stroke-dasharray="5,2" d="M282.73,-74.1C256.65,-61.76 217.43,-43.2 190.6,-30.51"/>
<polygon fill="#9a32cd" stroke="#9a32cd" points="281.49,-77.38 292.03,-78.5 284.48,-71.06 281.49,-77.38"/>
<text text-anchor="middle" x="272.5" y="-52" font-family="Helvetica,sans-Serif" font-size="10.00"> cdkBuilder</text>
</g>
</g>
</svg>
