<?xml version="1.0" encoding="UTF-8" standalone="no"?>
<!DOCTYPE svg PUBLIC "-//W3C//DTD SVG 1.1//EN"
 "http://www.w3.org/Graphics/SVG/1.1/DTD/svg11.dtd">
<!-- Generated by graphviz version 3.0.0 (20221109.1736)
 -->
<!-- Title: denoptim.gui.MolToGraphParametersDialog Pages: 1 -->
<svg width="1536pt" height="963pt"
 viewBox="0.00 0.00 1536.00 962.50" xmlns="http://www.w3.org/2000/svg" xmlns:xlink="http://www.w3.org/1999/xlink">
<g id="graph0" class="graph" transform="scale(1 1) rotate(0) translate(4 958.5)">
<title>denoptim.gui.MolToGraphParametersDialog</title>
<polygon fill="white" stroke="transparent" points="-4,4 -4,-958.5 1532,-958.5 1532,4 -4,4"/>
<!-- Node1 -->
<g id="node1" class="node">
<title>Node1</title>
<g id="a_node1"><a xlink:title=" ">
<polygon fill="#bfbfbf" stroke="black" points="1351,-600.5 1351,-630.5 1528,-630.5 1528,-600.5 1351,-600.5"/>
<text text-anchor="start" x="1359" y="-618.5" font-family="Helvetica,sans-Serif" font-size="10.00">denoptim.gui.MolToGraphParameters</text>
<text text-anchor="middle" x="1439.5" y="-607.5" font-family="Helvetica,sans-Serif" font-size="10.00">Dialog</text>
</a>
</g>
</g>
<!-- Node2 -->
<g id="node2" class="node">
<title>Node2</title>
<g id="a_node2"><a xlink:href="classdenoptim_1_1gui_1_1_cutting_rules_selection_dialog.html" target="_top" xlink:title="A modal dialog to define parameters for fragmentation and fragment filtering.">
<polygon fill="white" stroke="black" points="1089,-666.5 1089,-696.5 1218,-696.5 1218,-666.5 1089,-666.5"/>
<text text-anchor="start" x="1097" y="-684.5" font-family="Helvetica,sans-Serif" font-size="10.00">denoptim.gui.CuttingRules</text>
<text text-anchor="middle" x="1153.5" y="-673.5" font-family="Helvetica,sans-Serif" font-size="10.00">SelectionDialog</text>
</a>
</g>
</g>
<!-- Node2&#45;&gt;Node1 -->
<g id="edge1" class="edge">
<title>Node2&#45;&gt;Node1</title>
<path fill="none" stroke="midnightblue" d="M1228.23,-664.37C1273.22,-653.91 1330.2,-640.67 1373.5,-630.61"/>
<polygon fill="midnightblue" stroke="midnightblue" points="1227.18,-661.02 1218.24,-666.69 1228.77,-667.83 1227.18,-661.02"/>
</g>
<!-- Node3 -->
<g id="node3" class="node">
<title>Node3</title>
<g id="a_node3"><a xlink:href="classdenoptim_1_1gui_1_1_g_u_i_modal_dialog.html" target="_top" xlink:title=" ">
<polygon fill="white" stroke="black" points="802.5,-730 802.5,-749 947.5,-749 947.5,-730 802.5,-730"/>
<text text-anchor="middle" x="875" y="-737" font-family="Helvetica,sans-Serif" font-size="10.00">denoptim.gui.GUIModalDialog</text>
</a>
</g>
</g>
<!-- Node3&#45;&gt;Node2 -->
<g id="edge2" class="edge">
<title>Node3&#45;&gt;Node2</title>
<path fill="none" stroke="midnightblue" d="M958.06,-729.47C993.11,-724.41 1034.32,-717.43 1071,-708.5 1084.32,-705.26 1098.6,-700.86 1111.42,-696.55"/>
<polygon fill="midnightblue" stroke="midnightblue" points="957.28,-726.05 947.87,-730.91 958.26,-732.98 957.28,-726.05"/>
</g>
<!-- Node4 -->
<g id="node4" class="node">
<title>Node4</title>
<g id="a_node4"><a xlink:title=" ">
<polygon fill="white" stroke="black" points="517,-676 517,-695 566,-695 566,-676 517,-676"/>
<text text-anchor="middle" x="541.5" y="-683" font-family="Helvetica,sans-Serif" font-size="10.00">JDialog</text>
</a>
</g>
</g>
<!-- Node4&#45;&gt;Node3 -->
<g id="edge3" class="edge">
<title>Node4&#45;&gt;Node3</title>
<path fill="none" stroke="midnightblue" d="M576.27,-686.07C623.2,-687.6 710.45,-693.06 782,-712.5 790.45,-714.79 791.73,-717.62 800,-720.5 810.15,-724.03 821.28,-727.23 831.76,-729.95"/>
<polygon fill="midnightblue" stroke="midnightblue" points="576.16,-682.57 566.06,-685.79 575.96,-689.57 576.16,-682.57"/>
</g>
<!-- Node5 -->
<g id="node5" class="node">
<title>Node5</title>
<g id="a_node5"><a xlink:title=" ">
<polygon fill="white" stroke="black" points="516.5,-714 516.5,-733 566.5,-733 566.5,-714 516.5,-714"/>
<text text-anchor="middle" x="541.5" y="-721" font-family="Helvetica,sans-Serif" font-size="10.00">JButton</text>
</a>
</g>
</g>
<!-- Node5&#45;&gt;Node3 -->
<g id="edge4" class="edge">
<title>Node5&#45;&gt;Node3</title>
<path fill="none" stroke="#9a32cd" stroke-dasharray="5,2" d="M576.86,-720.96C623.46,-718.03 709.24,-714.45 782,-721.5 799.17,-723.16 817.9,-726.54 833.94,-729.92"/>
<polygon fill="#9a32cd" stroke="#9a32cd" points="576.46,-717.48 566.71,-721.63 576.92,-724.46 576.46,-717.48"/>
<text text-anchor="middle" x="714.5" y="-746.5" font-family="Helvetica,sans-Serif" font-size="10.00"> btnCanc</text>
<text text-anchor="middle" x="714.5" y="-735.5" font-family="Helvetica,sans-Serif" font-size="10.00">btnDone</text>
<text text-anchor="middle" x="714.5" y="-724.5" font-family="Helvetica,sans-Serif" font-size="10.00">btnExtra</text>
</g>
<!-- Node6 -->
<g id="node6" class="node">
<title>Node6</title>
<g id="a_node6"><a xlink:title=" ">
<polygon fill="white" stroke="black" points="518,-793 518,-812 565,-812 565,-793 518,-793"/>
<text text-anchor="middle" x="541.5" y="-800" font-family="Helvetica,sans-Serif" font-size="10.00">JPanel</text>
</a>
</g>
</g>
<!-- Node6&#45;&gt;Node1 -->
<g id="edge34" class="edge">
<title>Node6&#45;&gt;Node1</title>
<path fill="none" stroke="#9a32cd" stroke-dasharray="5,2" d="M571.71,-816.29C668.87,-860.07 988.05,-986.91 1218,-880.5 1333.97,-826.83 1409.87,-678.37 1431.87,-630.55"/>
<polygon fill="#9a32cd" stroke="#9a32cd" points="573.05,-813.05 562.49,-812.09 570.14,-819.42 573.05,-813.05"/>
<text text-anchor="middle" x="1019.5" y="-946.5" font-family="Helvetica,sans-Serif" font-size="10.00"> lineEmbTmpl</text>
<text text-anchor="middle" x="1019.5" y="-935.5" font-family="Helvetica,sans-Serif" font-size="10.00">lineScaffoldingPolicy</text>
<text text-anchor="middle" x="1019.5" y="-924.5" font-family="Helvetica,sans-Serif" font-size="10.00">lineTemplateContract</text>
</g>
<!-- Node6&#45;&gt;Node2 -->
<g id="edge6" class="edge">
<title>Node6&#45;&gt;Node2</title>
<path fill="none" stroke="#9a32cd" stroke-dasharray="5,2" d="M575.25,-803.64C660.42,-805.44 894.5,-803 1071,-731.5 1093.15,-722.52 1116.17,-707.83 1132.07,-696.68"/>
<polygon fill="#9a32cd" stroke="#9a32cd" points="575.24,-800.13 565.15,-803.39 575.06,-807.13 575.24,-800.13"/>
<text text-anchor="middle" x="875" y="-795.5" font-family="Helvetica,sans-Serif" font-size="10.00"> centralPanel</text>
</g>
<!-- Node6&#45;&gt;Node3 -->
<g id="edge5" class="edge">
<title>Node6&#45;&gt;Node3</title>
<path fill="none" stroke="#9a32cd" stroke-dasharray="5,2" d="M575.04,-794.1C595.59,-788.95 622.76,-782.42 647,-777.5 663.28,-774.2 754.15,-759.16 815.86,-749.02"/>
<polygon fill="#9a32cd" stroke="#9a32cd" points="574.07,-790.74 565.23,-796.58 575.78,-797.53 574.07,-790.74"/>
<text text-anchor="middle" x="714.5" y="-780.5" font-family="Helvetica,sans-Serif" font-size="10.00"> pnlControls</text>
</g>
<!-- Node7 -->
<g id="node7" class="node">
<title>Node7</title>
<g id="a_node7"><a xlink:title=" ">
<polygon fill="white" stroke="black" points="837.5,-865 837.5,-884 912.5,-884 912.5,-865 837.5,-865"/>
<text text-anchor="middle" x="875" y="-872" font-family="Helvetica,sans-Serif" font-size="10.00">JRadioButton</text>
</a>
</g>
</g>
<!-- Node7&#45;&gt;Node1 -->
<g id="edge35" class="edge">
<title>Node7&#45;&gt;Node1</title>
<path fill="none" stroke="#9a32cd" stroke-dasharray="5,2" d="M922.67,-881.62C962.97,-885.99 1022.21,-888.14 1071,-872.5 1228.91,-821.87 1378.46,-677.58 1424.24,-630.53"/>
<polygon fill="#9a32cd" stroke="#9a32cd" points="922.94,-878.12 912.6,-880.43 922.12,-885.08 922.94,-878.12"/>
<text text-anchor="middle" x="1153.5" y="-868.5" font-family="Helvetica,sans-Serif" font-size="10.00"> rdbEmbTmpl</text>
</g>
<!-- Node7&#45;&gt;Node2 -->
<g id="edge7" class="edge">
<title>Node7&#45;&gt;Node2</title>
<path fill="none" stroke="#9a32cd" stroke-dasharray="5,2" d="M921.28,-862.35C936.14,-858.45 952.75,-854.19 968,-850.5 1013.59,-839.47 1033.4,-855.54 1071,-827.5 1116.38,-793.66 1139.91,-726.66 1148.55,-696.65"/>
<polygon fill="#9a32cd" stroke="#9a32cd" points="920.09,-859.04 911.31,-864.97 921.88,-865.81 920.09,-859.04"/>
<text text-anchor="middle" x="1019.5" y="-864.5" font-family="Helvetica,sans-Serif" font-size="10.00"> rdbUseCustom</text>
<text text-anchor="middle" x="1019.5" y="-853.5" font-family="Helvetica,sans-Serif" font-size="10.00">rdbUseDefault</text>
</g>
<!-- Node8 -->
<g id="node8" class="node">
<title>Node8</title>
<g id="a_node8"><a xlink:title=" ">
<polygon fill="white" stroke="black" points="826,-342 826,-361 924,-361 924,-342 826,-342"/>
<text text-anchor="middle" x="875" y="-349" font-family="Helvetica,sans-Serif" font-size="10.00">DefaultTableModel</text>
</a>
</g>
</g>
<!-- Node8&#45;&gt;Node2 -->
<g id="edge8" class="edge">
<title>Node8&#45;&gt;Node2</title>
<path fill="none" stroke="#9a32cd" stroke-dasharray="5,2" d="M933.86,-361.8C939.59,-364.13 945.09,-366.99 950,-370.5 1042.29,-436.42 1028.75,-488.41 1089,-584.5 1107.39,-613.83 1129.73,-647.54 1142.42,-666.5"/>
<polygon fill="#9a32cd" stroke="#9a32cd" points="934.67,-358.37 924.07,-358.35 932.34,-364.98 934.67,-358.37"/>
<text text-anchor="middle" x="1019.5" y="-565.5" font-family="Helvetica,sans-Serif" font-size="10.00"> customRulesTabModel</text>
<text text-anchor="middle" x="1019.5" y="-554.5" font-family="Helvetica,sans-Serif" font-size="10.00">defaultRulesTabModel</text>
</g>
<!-- Node9 -->
<g id="node9" class="node">
<title>Node9</title>
<g id="a_node9"><a xlink:title=" ">
<polygon fill="white" stroke="black" points="859,-815 859,-834 891,-834 891,-815 859,-815"/>
<text text-anchor="middle" x="875" y="-822" font-family="Helvetica,sans-Serif" font-size="10.00">File</text>
</a>
</g>
</g>
<!-- Node9&#45;&gt;Node2 -->
<g id="edge9" class="edge">
<title>Node9&#45;&gt;Node2</title>
<path fill="none" stroke="#9a32cd" stroke-dasharray="5,2" d="M901.36,-819.27C953.33,-808.51 1067.36,-784.74 1071,-782.5 1105.92,-761 1132.38,-719.02 1144.76,-696.55"/>
<polygon fill="#9a32cd" stroke="#9a32cd" points="900.36,-815.9 891.27,-821.35 901.78,-822.75 900.36,-815.9"/>
<text text-anchor="middle" x="1019.5" y="-818.5" font-family="Helvetica,sans-Serif" font-size="10.00"> lastUsedCutRulFile</text>
<text text-anchor="middle" x="1019.5" y="-807.5" font-family="Helvetica,sans-Serif" font-size="10.00">nextWrittenCutRulFile</text>
</g>
<!-- Node10 -->
<g id="node10" class="node">
<title>Node10</title>
<g id="a_node10"><a xlink:title=" ">
<polygon fill="white" stroke="black" points="844,-692 844,-711 906,-711 906,-692 844,-692"/>
<text text-anchor="middle" x="875" y="-699" font-family="Helvetica,sans-Serif" font-size="10.00">Dimension</text>
</a>
</g>
</g>
<!-- Node10&#45;&gt;Node2 -->
<g id="edge10" class="edge">
<title>Node10&#45;&gt;Node2</title>
<path fill="none" stroke="#9a32cd" stroke-dasharray="5,2" d="M916.14,-698.6C961.4,-695.32 1035.61,-689.96 1088.8,-686.11"/>
<polygon fill="#9a32cd" stroke="#9a32cd" points="915.84,-695.11 906.12,-699.32 916.34,-702.09 915.84,-695.11"/>
<text text-anchor="middle" x="1019.5" y="-696.5" font-family="Helvetica,sans-Serif" font-size="10.00"> strFieldSize</text>
</g>
<!-- Node11 -->
<g id="node11" class="node">
<title>Node11</title>
<g id="a_node11"><a xlink:title=" ">
<polygon fill="white" stroke="black" points="844,-380 844,-399 906,-399 906,-380 844,-380"/>
<text text-anchor="middle" x="875" y="-387" font-family="Helvetica,sans-Serif" font-size="10.00">JTextField</text>
</a>
</g>
</g>
<!-- Node11&#45;&gt;Node1 -->
<g id="edge38" class="edge">
<title>Node11&#45;&gt;Node1</title>
<path fill="none" stroke="#9a32cd" stroke-dasharray="5,2" d="M916.03,-391.13C928.61,-393.68 941.44,-398.75 950,-408.5 993.43,-457.96 921.57,-508.84 968,-555.5 994.5,-582.13 1222.33,-601.29 1350.97,-610.09"/>
<polygon fill="#9a32cd" stroke="#9a32cd" points="916.5,-387.66 906.08,-389.59 915.42,-394.58 916.5,-387.66"/>
<text text-anchor="middle" x="1153.5" y="-602.5" font-family="Helvetica,sans-Serif" font-size="10.00"> txtScaffoldingPolicy</text>
</g>
<!-- Node11&#45;&gt;Node2 -->
<g id="edge11" class="edge">
<title>Node11&#45;&gt;Node2</title>
<path fill="none" stroke="#9a32cd" stroke-dasharray="5,2" d="M916.13,-391.04C928.72,-393.58 941.52,-398.67 950,-408.5 1000.21,-466.7 916.35,-523.58 968,-580.5 999.4,-615.1 1029.75,-579.57 1071,-601.5 1101.11,-617.51 1127.55,-648.12 1141.66,-666.48"/>
<polygon fill="#9a32cd" stroke="#9a32cd" points="916.58,-387.57 906.16,-389.51 915.52,-394.49 916.58,-387.57"/>
<text text-anchor="middle" x="1019.5" y="-604.5" font-family="Helvetica,sans-Serif" font-size="10.00"> txtLinearity</text>
</g>
<!-- Node12 -->
<g id="node12" class="node">
<title>Node12</title>
<g id="a_node12"><a xlink:title=" ">
<polygon fill="white" stroke="black" points="454,-623.5 454,-653.5 629,-653.5 629,-623.5 454,-623.5"/>
<text text-anchor="start" x="462" y="-641.5" font-family="Helvetica,sans-Serif" font-size="10.00">List&lt; denoptim.programs.fragmenter.</text>
<text text-anchor="middle" x="541.5" y="-630.5" font-family="Helvetica,sans-Serif" font-size="10.00">CuttingRule &gt;</text>
</a>
</g>
</g>
<!-- Node12&#45;&gt;Node2 -->
<g id="edge12" class="edge">
<title>Node12&#45;&gt;Node2</title>
<path fill="none" stroke="#9a32cd" stroke-dasharray="5,2" d="M639.28,-646.9C641.88,-647.1 644.46,-647.31 647,-647.5 805.74,-659.67 992.71,-671.63 1088.63,-677.59"/>
<polygon fill="#9a32cd" stroke="#9a32cd" points="639.41,-643.4 629.16,-646.09 638.85,-650.38 639.41,-643.4"/>
<text text-anchor="middle" x="875" y="-670.5" font-family="Helvetica,sans-Serif" font-size="10.00"> chosenOnes</text>
</g>
<!-- Node13 -->
<g id="node13" class="node">
<title>Node13</title>
<g id="a_node13"><a xlink:href="classdenoptim_1_1programs_1_1fragmenter_1_1_fragmenter_parameters.html" target="_top" xlink:title="Parameters controlling execution of the fragmenter.">
<polygon fill="white" stroke="black" points="800,-418.5 800,-448.5 950,-448.5 950,-418.5 800,-418.5"/>
<text text-anchor="start" x="808" y="-436.5" font-family="Helvetica,sans-Serif" font-size="10.00">denoptim.programs.fragmenter.</text>
<text text-anchor="middle" x="875" y="-425.5" font-family="Helvetica,sans-Serif" font-size="10.00">FragmenterParameters</text>
</a>
</g>
</g>
<!-- Node12&#45;&gt;Node13 -->
<g id="edge21" class="edge">
<title>Node12&#45;&gt;Node13</title>
<path fill="none" stroke="#9a32cd" stroke-dasharray="5,2" d="M639.33,-633.18C700.43,-629.07 770.02,-622.7 782,-614.5 840.9,-574.18 864.19,-484.4 871.34,-448.63"/>
<polygon fill="#9a32cd" stroke="#9a32cd" points="638.96,-629.7 629.21,-633.85 639.42,-636.68 638.96,-629.7"/>
<text text-anchor="middle" x="714.5" y="-635.5" font-family="Helvetica,sans-Serif" font-size="10.00"> cuttingRules</text>
</g>
<!-- Node13&#45;&gt;Node2 -->
<g id="edge13" class="edge">
<title>Node13&#45;&gt;Node2</title>
<path fill="none" stroke="#9a32cd" stroke-dasharray="5,2" d="M881.49,-458.59C891.5,-498.15 916.61,-574.6 968,-614.5 1005.05,-643.26 1027.06,-621.09 1071,-637.5 1091.34,-645.09 1112.89,-656.91 1128.72,-666.39"/>
<polygon fill="#9a32cd" stroke="#9a32cd" points="884.85,-457.6 879.1,-448.7 878.04,-459.24 884.85,-457.6"/>
<text text-anchor="middle" x="1019.5" y="-640.5" font-family="Helvetica,sans-Serif" font-size="10.00"> frgParams</text>
</g>
<!-- Node14 -->
<g id="node14" class="node">
<title>Node14</title>
<g id="a_node14"><a xlink:href="classdenoptim_1_1programs_1_1_run_time_parameters.html" target="_top" xlink:title="Collection of parameters controlling the behavior of the software.">
<polygon fill="white" stroke="black" points="471.5,-75.5 471.5,-105.5 611.5,-105.5 611.5,-75.5 471.5,-75.5"/>
<text text-anchor="start" x="479.5" y="-93.5" font-family="Helvetica,sans-Serif" font-size="10.00">denoptim.programs.RunTime</text>
<text text-anchor="middle" x="541.5" y="-82.5" font-family="Helvetica,sans-Serif" font-size="10.00">Parameters</text>
</a>
</g>
</g>
<!-- Node14&#45;&gt;Node13 -->
<g id="edge14" class="edge">
<title>Node14&#45;&gt;Node13</title>
<path fill="none" stroke="midnightblue" d="M621.65,-75.48C674.66,-70.39 741.85,-74.43 782,-116.5 826.89,-163.53 760.49,-356.87 800,-408.5 802.97,-412.38 806.56,-415.66 810.55,-418.43"/>
<polygon fill="midnightblue" stroke="midnightblue" points="621.16,-72.01 611.59,-76.57 621.91,-78.97 621.16,-72.01"/>
</g>
<!-- Node15 -->
<g id="node15" class="node">
<title>Node15</title>
<g id="a_node15"><a xlink:title=" ">
<polygon fill="white" stroke="black" points="219,-147 219,-166 266,-166 266,-147 219,-147"/>
<text text-anchor="middle" x="242.5" y="-154" font-family="Helvetica,sans-Serif" font-size="10.00">Logger</text>
</a>
</g>
</g>
<!-- Node15&#45;&gt;Node14 -->
<g id="edge15" class="edge">
<title>Node15&#45;&gt;Node14</title>
<path fill="none" stroke="#9a32cd" stroke-dasharray="5,2" d="M276.19,-152.71C314.84,-147.78 380.88,-137.92 436,-122.5 444.27,-120.19 445.87,-118.25 454,-115.5 464.07,-112.09 474.89,-108.73 485.36,-105.64"/>
<polygon fill="#9a32cd" stroke="#9a32cd" points="275.54,-149.27 266.05,-153.97 276.41,-156.21 275.54,-149.27"/>
<text text-anchor="middle" x="398.5" y="-142.5" font-family="Helvetica,sans-Serif" font-size="10.00"> logger</text>
</g>
<!-- Node16 -->
<g id="node16" class="node">
<title>Node16</title>
<g id="a_node16"><a xlink:href="classdenoptim_1_1utils_1_1_randomizer.html" target="_top" xlink:title="Tool to generate random numbers and random decisions.">
<polygon fill="white" stroke="black" points="177.5,-109 177.5,-128 307.5,-128 307.5,-109 177.5,-109"/>
<text text-anchor="middle" x="242.5" y="-116" font-family="Helvetica,sans-Serif" font-size="10.00">denoptim.utils.Randomizer</text>
</a>
</g>
</g>
<!-- Node16&#45;&gt;Node14 -->
<g id="edge16" class="edge">
<title>Node16&#45;&gt;Node14</title>
<path fill="none" stroke="#9a32cd" stroke-dasharray="5,2" d="M317.71,-111.5C364.79,-107.06 425.29,-101.36 471.36,-97.02"/>
<polygon fill="#9a32cd" stroke="#9a32cd" points="317.21,-108.04 307.58,-112.46 317.86,-115 317.21,-108.04"/>
<text text-anchor="middle" x="398.5" y="-110.5" font-family="Helvetica,sans-Serif" font-size="10.00"> rng</text>
</g>
<!-- Node17 -->
<g id="node17" class="node">
<title>Node17</title>
<g id="a_node17"><a xlink:title=" ">
<polygon fill="white" stroke="black" points="0,-109 0,-128 92,-128 92,-109 0,-109"/>
<text text-anchor="middle" x="46" y="-116" font-family="Helvetica,sans-Serif" font-size="10.00">MersenneTwister</text>
</a>
</g>
</g>
<!-- Node17&#45;&gt;Node16 -->
<g id="edge17" class="edge">
<title>Node17&#45;&gt;Node16</title>
<path fill="none" stroke="#9a32cd" stroke-dasharray="5,2" d="M102.23,-118.5C125.67,-118.5 153.15,-118.5 177.48,-118.5"/>
<polygon fill="#9a32cd" stroke="#9a32cd" points="102.11,-115 92.11,-118.5 102.11,-122 102.11,-115"/>
<text text-anchor="middle" x="117" y="-121.5" font-family="Helvetica,sans-Serif" font-size="10.00"> mt</text>
</g>
<!-- Node18 -->
<g id="node18" class="node">
<title>Node18</title>
<g id="a_node18"><a xlink:title=" ">
<polygon fill="white" stroke="black" points="142,-49 142,-90 343,-90 343,-49 142,-49"/>
<text text-anchor="start" x="150" y="-78" font-family="Helvetica,sans-Serif" font-size="10.00">Map&lt; denoptim.programs.Run</text>
<text text-anchor="start" x="150" y="-67" font-family="Helvetica,sans-Serif" font-size="10.00">TimeParameters.ParametersType,</text>
<text text-anchor="middle" x="242.5" y="-56" font-family="Helvetica,sans-Serif" font-size="10.00"> denoptim.programs.RunTimeParameters &gt;</text>
</a>
</g>
</g>
<!-- Node18&#45;&gt;Node14 -->
<g id="edge18" class="edge">
<title>Node18&#45;&gt;Node14</title>
<path fill="none" stroke="#9a32cd" stroke-dasharray="5,2" d="M353.72,-73.37C380.66,-74.67 409.39,-76.35 436,-78.5 447.47,-79.43 459.62,-80.62 471.42,-81.9"/>
<polygon fill="#9a32cd" stroke="#9a32cd" points="353.65,-69.86 343.49,-72.89 353.32,-76.85 353.65,-69.86"/>
<text text-anchor="middle" x="398.5" y="-81.5" font-family="Helvetica,sans-Serif" font-size="10.00"> otherParameters</text>
</g>
<!-- Node19 -->
<g id="node19" class="node">
<title>Node19</title>
<g id="a_node19"><a xlink:href="enumdenoptim_1_1programs_1_1_run_time_parameters_1_1_parameters_type.html" target="_top" xlink:title="Identifier of the type of parameters.">
<polygon fill="white" stroke="black" points="172.5,-0.5 172.5,-30.5 312.5,-30.5 312.5,-0.5 172.5,-0.5"/>
<text text-anchor="start" x="180.5" y="-18.5" font-family="Helvetica,sans-Serif" font-size="10.00">denoptim.programs.RunTime</text>
<text text-anchor="middle" x="242.5" y="-7.5" font-family="Helvetica,sans-Serif" font-size="10.00">Parameters.ParametersType</text>
</a>
</g>
</g>
<!-- Node19&#45;&gt;Node14 -->
<g id="edge19" class="edge">
<title>Node19&#45;&gt;Node14</title>
<path fill="none" stroke="#9a32cd" stroke-dasharray="5,2" d="M322.66,-31.78C357.6,-39.43 399.05,-49.14 436,-59.5 444.12,-61.78 445.95,-63 454,-65.5 464.6,-68.8 475.97,-72.19 486.87,-75.37"/>
<polygon fill="#9a32cd" stroke="#9a32cd" points="323.02,-28.28 312.51,-29.57 321.54,-35.12 323.02,-28.28"/>
<text text-anchor="middle" x="398.5" y="-62.5" font-family="Helvetica,sans-Serif" font-size="10.00"> paramType</text>
</g>
<!-- Node20 -->
<g id="node20" class="node">
<title>Node20</title>
<g id="a_node20"><a xlink:title=" ">
<polygon fill="white" stroke="black" points="479,-26.5 479,-56.5 604,-56.5 604,-26.5 479,-26.5"/>
<text text-anchor="start" x="487" y="-44.5" font-family="Helvetica,sans-Serif" font-size="10.00">LinkedHashMap&lt; String,</text>
<text text-anchor="middle" x="541.5" y="-33.5" font-family="Helvetica,sans-Serif" font-size="10.00"> String &gt;</text>
</a>
</g>
</g>
<!-- Node20&#45;&gt;Node13 -->
<g id="edge20" class="edge">
<title>Node20&#45;&gt;Node13</title>
<path fill="none" stroke="#9a32cd" stroke-dasharray="5,2" d="M611.61,-24.8C665.77,-16.23 738.94,-15.41 782,-59.5 809.13,-87.28 776.55,-377.55 800,-408.5 802.95,-412.39 806.53,-415.68 810.51,-418.47"/>
<polygon fill="#9a32cd" stroke="#9a32cd" points="611,-21.36 601.73,-26.48 612.17,-28.26 611,-21.36"/>
<text text-anchor="middle" x="714.5" y="-62.5" font-family="Helvetica,sans-Serif" font-size="10.00"> formulae</text>
</g>
<!-- Node21 -->
<g id="node21" class="node">
<title>Node21</title>
<g id="a_node21"><a xlink:title=" ">
<polygon fill="white" stroke="black" points="504.5,-579 504.5,-598 578.5,-598 578.5,-579 504.5,-579"/>
<text text-anchor="middle" x="541.5" y="-586" font-family="Helvetica,sans-Serif" font-size="10.00">Set&lt; String &gt;</text>
</a>
</g>
</g>
<!-- Node21&#45;&gt;Node13 -->
<g id="edge22" class="edge">
<title>Node21&#45;&gt;Node13</title>
<path fill="none" stroke="#9a32cd" stroke-dasharray="5,2" d="M588.61,-584.69C653.5,-579.04 765.7,-568.06 782,-558.5 826.39,-532.46 855.76,-475.7 867.8,-448.55"/>
<polygon fill="#9a32cd" stroke="#9a32cd" points="588.29,-581.21 578.62,-585.55 588.89,-588.18 588.29,-581.21"/>
<text text-anchor="middle" x="714.5" y="-603.5" font-family="Helvetica,sans-Serif" font-size="10.00"> preFilterSMARTS</text>
<text text-anchor="middle" x="714.5" y="-592.5" font-family="Helvetica,sans-Serif" font-size="10.00">rejectedAPClasses</text>
<text text-anchor="middle" x="714.5" y="-581.5" font-family="Helvetica,sans-Serif" font-size="10.00">rejectedElements</text>
</g>
<!-- Node22 -->
<g id="node22" class="node">
<title>Node22</title>
<g id="a_node22"><a xlink:title=" ">
<polygon fill="white" stroke="black" points="485,-541 485,-560 598,-560 598,-541 485,-541"/>
<text text-anchor="middle" x="541.5" y="-548" font-family="Helvetica,sans-Serif" font-size="10.00">Map&lt; String, Double &gt;</text>
</a>
</g>
</g>
<!-- Node22&#45;&gt;Node13 -->
<g id="edge23" class="edge">
<title>Node22&#45;&gt;Node13</title>
<path fill="none" stroke="#9a32cd" stroke-dasharray="5,2" d="M608.23,-548.21C668.32,-545.24 752.23,-538.66 782,-524.5 818.31,-507.22 848.82,-469.62 863.89,-448.56"/>
<polygon fill="#9a32cd" stroke="#9a32cd" points="607.87,-544.72 598.05,-548.69 608.2,-551.71 607.87,-544.72"/>
<text text-anchor="middle" x="714.5" y="-548.5" font-family="Helvetica,sans-Serif" font-size="10.00"> formulaCriteriaLessThan</text>
</g>
<!-- Node23 -->
<g id="node23" class="node">
<title>Node23</title>
<g id="a_node23"><a xlink:title=" ">
<polygon fill="white" stroke="black" points="469.5,-503 469.5,-522 613.5,-522 613.5,-503 469.5,-503"/>
<text text-anchor="middle" x="541.5" y="-510" font-family="Helvetica,sans-Serif" font-size="10.00">Set&lt; Map&lt; String, Double &gt; &gt;</text>
</a>
</g>
</g>
<!-- Node23&#45;&gt;Node13 -->
<g id="edge24" class="edge">
<title>Node23&#45;&gt;Node13</title>
<path fill="none" stroke="#9a32cd" stroke-dasharray="5,2" d="M623.93,-511.39C671.08,-508.77 731.01,-502.02 782,-485.5 808.01,-477.07 834.91,-460.84 852.85,-448.74"/>
<polygon fill="#9a32cd" stroke="#9a32cd" points="623.57,-507.9 613.76,-511.9 623.92,-514.89 623.57,-507.9"/>
<text text-anchor="middle" x="714.5" y="-513.5" font-family="Helvetica,sans-Serif" font-size="10.00"> formulaCriteriaMoreThan</text>
</g>
<!-- Node24 -->
<g id="node24" class="node">
<title>Node24</title>
<g id="a_node24"><a xlink:title=" ">
<polygon fill="white" stroke="black" points="503,-465 503,-484 580,-484 580,-465 503,-465"/>
<text text-anchor="middle" x="541.5" y="-472" font-family="Helvetica,sans-Serif" font-size="10.00">Set&lt; String[]&gt;</text>
</a>
</g>
</g>
<!-- Node24&#45;&gt;Node13 -->
<g id="edge25" class="edge">
<title>Node24&#45;&gt;Node13</title>
<path fill="none" stroke="#9a32cd" stroke-dasharray="5,2" d="M590.27,-473.3C638.81,-471.52 716.04,-467.14 782,-456.5 794.52,-454.48 807.82,-451.59 820.32,-448.55"/>
<polygon fill="#9a32cd" stroke="#9a32cd" points="589.94,-469.81 580.07,-473.65 590.18,-476.8 589.94,-469.81"/>
<text text-anchor="middle" x="714.5" y="-473.5" font-family="Helvetica,sans-Serif" font-size="10.00"> rejectedAPClassCombinations</text>
</g>
<!-- Node25 -->
<g id="node25" class="node">
<title>Node25</title>
<g id="a_node25"><a xlink:title=" ">
<polygon fill="white" stroke="black" points="487.5,-426 487.5,-445 595.5,-445 595.5,-426 487.5,-426"/>
<text text-anchor="middle" x="541.5" y="-433" font-family="Helvetica,sans-Serif" font-size="10.00">Map&lt; String, String &gt;</text>
</a>
</g>
</g>
<!-- Node25&#45;&gt;Node13 -->
<g id="edge26" class="edge">
<title>Node25&#45;&gt;Node13</title>
<path fill="none" stroke="#9a32cd" stroke-dasharray="5,2" d="M605.88,-434.84C619.45,-434.71 633.7,-434.59 647,-434.5 698.03,-434.14 755.52,-433.89 799.88,-433.73"/>
<polygon fill="#9a32cd" stroke="#9a32cd" points="605.63,-431.34 595.66,-434.94 605.69,-438.34 605.63,-431.34"/>
<text text-anchor="middle" x="714.5" y="-448.5" font-family="Helvetica,sans-Serif" font-size="10.00"> fragRejectionSMARTS</text>
<text text-anchor="middle" x="714.5" y="-437.5" font-family="Helvetica,sans-Serif" font-size="10.00">fragRetentionSMARTS</text>
</g>
<!-- Node26 -->
<g id="node26" class="node">
<title>Node26</title>
<g id="a_node26"><a xlink:title=" ">
<polygon fill="white" stroke="black" points="475.5,-376.5 475.5,-406.5 607.5,-406.5 607.5,-376.5 475.5,-376.5"/>
<text text-anchor="start" x="483.5" y="-394.5" font-family="Helvetica,sans-Serif" font-size="10.00">ArrayList&lt; denoptim.graph.</text>
<text text-anchor="middle" x="541.5" y="-383.5" font-family="Helvetica,sans-Serif" font-size="10.00">Vertex &gt;</text>
</a>
</g>
</g>
<!-- Node26&#45;&gt;Node13 -->
<g id="edge27" class="edge">
<title>Node26&#45;&gt;Node13</title>
<path fill="none" stroke="#9a32cd" stroke-dasharray="5,2" d="M617.89,-393.1C665.28,-395.03 727.54,-399.26 782,-408.5 796.36,-410.94 811.72,-414.65 825.69,-418.48"/>
<polygon fill="#9a32cd" stroke="#9a32cd" points="617.84,-389.59 607.71,-392.71 617.57,-396.59 617.84,-389.59"/>
<text text-anchor="middle" x="714.5" y="-422.5" font-family="Helvetica,sans-Serif" font-size="10.00"> ignorableFragments</text>
<text text-anchor="middle" x="714.5" y="-411.5" font-family="Helvetica,sans-Serif" font-size="10.00">targetFragments</text>
</g>
<!-- Node27 -->
<g id="node27" class="node">
<title>Node27</title>
<g id="a_node27"><a xlink:title=" ">
<polygon fill="white" stroke="black" points="492.5,-338 492.5,-357 590.5,-357 590.5,-338 492.5,-338"/>
<text text-anchor="middle" x="541.5" y="-345" font-family="Helvetica,sans-Serif" font-size="10.00">Map&lt; String, File &gt;</text>
</a>
</g>
</g>
<!-- Node27&#45;&gt;Node13 -->
<g id="edge28" class="edge">
<title>Node27&#45;&gt;Node13</title>
<path fill="none" stroke="#9a32cd" stroke-dasharray="5,2" d="M601.03,-337.55C653.26,-331.97 729.4,-332.35 782,-369.5 797.59,-380.51 785.8,-395.74 800,-408.5 804.34,-412.4 809.3,-415.69 814.57,-418.47"/>
<polygon fill="#9a32cd" stroke="#9a32cd" points="600.44,-334.09 590.92,-338.73 601.26,-341.05 600.44,-334.09"/>
<text text-anchor="middle" x="714.5" y="-383.5" font-family="Helvetica,sans-Serif" font-size="10.00"> mwSlotToAllFragsFile</text>
<text text-anchor="middle" x="714.5" y="-372.5" font-family="Helvetica,sans-Serif" font-size="10.00">mwSlotToUnqFragsFile</text>
</g>
<!-- Node28 -->
<g id="node28" class="node">
<title>Node28</title>
<g id="a_node28"><a xlink:title=" ">
<polygon fill="white" stroke="black" points="485,-300 485,-319 598,-319 598,-300 485,-300"/>
<text text-anchor="middle" x="541.5" y="-307" font-family="Helvetica,sans-Serif" font-size="10.00">Map&lt; String, Integer &gt;</text>
</a>
</g>
</g>
<!-- Node28&#45;&gt;Node13 -->
<g id="edge29" class="edge">
<title>Node28&#45;&gt;Node13</title>
<path fill="none" stroke="#9a32cd" stroke-dasharray="5,2" d="M608.33,-303.81C670.14,-299.96 756.79,-298.94 782,-320.5 812.34,-346.44 773.58,-378.58 800,-408.5 803.41,-412.36 807.44,-415.63 811.83,-418.39"/>
<polygon fill="#9a32cd" stroke="#9a32cd" points="608,-300.32 598.25,-304.47 608.46,-307.3 608,-300.32"/>
<text text-anchor="middle" x="714.5" y="-323.5" font-family="Helvetica,sans-Serif" font-size="10.00"> isomorphsCount</text>
</g>
<!-- Node29 -->
<g id="node29" class="node">
<title>Node29</title>
<g id="a_node29"><a xlink:title=" ">
<polygon fill="white" stroke="black" points="503,-262 503,-281 580,-281 580,-262 503,-262"/>
<text text-anchor="middle" x="541.5" y="-269" font-family="Helvetica,sans-Serif" font-size="10.00">AtomicInteger</text>
</a>
</g>
</g>
<!-- Node29&#45;&gt;Node13 -->
<g id="edge30" class="edge">
<title>Node29&#45;&gt;Node13</title>
<path fill="none" stroke="#9a32cd" stroke-dasharray="5,2" d="M586.43,-259.73C639.88,-248.33 729.48,-239.07 782,-287.5 821.97,-324.36 765.13,-366.79 800,-408.5 803.22,-412.35 807.05,-415.61 811.26,-418.37"/>
<polygon fill="#9a32cd" stroke="#9a32cd" points="585.55,-256.34 576.56,-261.95 587.09,-263.17 585.55,-256.34"/>
<text text-anchor="middle" x="714.5" y="-290.5" font-family="Helvetica,sans-Serif" font-size="10.00"> unqIsomorphicFamilyId</text>
</g>
<!-- Node30 -->
<g id="node30" class="node">
<title>Node30</title>
<g id="a_node30"><a xlink:href="enumdenoptim_1_1fragmenter_1_1_scaffolding_policy.html" target="_top" xlink:title="Defines how to define the scaffold vertex of a graph.">
<polygon fill="white" stroke="black" points="464,-212.5 464,-242.5 619,-242.5 619,-212.5 464,-212.5"/>
<text text-anchor="start" x="472" y="-230.5" font-family="Helvetica,sans-Serif" font-size="10.00">denoptim.fragmenter.Scaffolding</text>
<text text-anchor="middle" x="541.5" y="-219.5" font-family="Helvetica,sans-Serif" font-size="10.00">Policy</text>
</a>
</g>
</g>
<!-- Node30&#45;&gt;Node13 -->
<g id="edge31" class="edge">
<title>Node30&#45;&gt;Node13</title>
<path fill="none" stroke="#9a32cd" stroke-dasharray="5,2" d="M602.09,-210.2C656.23,-198.5 734.66,-192.21 782,-236.5 810.07,-262.75 776,-378.49 800,-408.5 803.05,-412.31 806.7,-415.55 810.73,-418.29"/>
<polygon fill="#9a32cd" stroke="#9a32cd" points="601.25,-206.81 592.28,-212.44 602.8,-213.63 601.25,-206.81"/>
<text text-anchor="middle" x="714.5" y="-239.5" font-family="Helvetica,sans-Serif" font-size="10.00"> scaffoldingPolicy</text>
</g>
<!-- Node31 -->
<g id="node31" class="node">
<title>Node31</title>
<g id="a_node31"><a xlink:href="enumdenoptim_1_1graph_1_1_template_1_1_contract_level.html" target="_top" xlink:title="Enum specifying to what extent the template&#39;s inner graph can be changed.">
<polygon fill="white" stroke="black" points="477.5,-163.5 477.5,-193.5 605.5,-193.5 605.5,-163.5 477.5,-163.5"/>
<text text-anchor="start" x="485.5" y="-181.5" font-family="Helvetica,sans-Serif" font-size="10.00">denoptim.graph.Template.</text>
<text text-anchor="middle" x="541.5" y="-170.5" font-family="Helvetica,sans-Serif" font-size="10.00">ContractLevel</text>
</a>
</g>
</g>
<!-- Node31&#45;&gt;Node13 -->
<g id="edge32" class="edge">
<title>Node31&#45;&gt;Node13</title>
<path fill="none" stroke="#9a32cd" stroke-dasharray="5,2" d="M601.34,-161.17C655.68,-149.15 734.89,-142.4 782,-187.5 817.59,-221.57 769.67,-369.67 800,-408.5 803.01,-412.35 806.63,-415.61 810.64,-418.37"/>
<polygon fill="#9a32cd" stroke="#9a32cd" points="600.45,-157.79 591.5,-163.46 602.03,-164.6 600.45,-157.79"/>
<text text-anchor="middle" x="714.5" y="-190.5" font-family="Helvetica,sans-Serif" font-size="10.00"> embeddedRingsContract</text>
</g>
<!-- Node32 -->
<g id="node32" class="node">
<title>Node32</title>
<g id="a_node32"><a xlink:title=" ">
<polygon fill="white" stroke="black" points="466,-125 466,-144 617,-144 617,-125 466,-125"/>
<text text-anchor="middle" x="541.5" y="-132" font-family="Helvetica,sans-Serif" font-size="10.00">List&lt; denoptim.graph.DGraph &gt;</text>
</a>
</g>
</g>
<!-- Node32&#45;&gt;Node13 -->
<g id="edge33" class="edge">
<title>Node32&#45;&gt;Node13</title>
<path fill="none" stroke="#9a32cd" stroke-dasharray="5,2" d="M626.35,-123.99C686.32,-118.55 760.14,-116.78 782,-137.5 825.81,-179.01 763.2,-360.66 800,-408.5 802.98,-412.37 806.58,-415.65 810.57,-418.42"/>
<polygon fill="#9a32cd" stroke="#9a32cd" points="625.72,-120.54 616.1,-124.97 626.39,-127.51 625.72,-120.54"/>
<text text-anchor="middle" x="714.5" y="-140.5" font-family="Helvetica,sans-Serif" font-size="10.00"> fragmentationTmpls</text>
</g>
<!-- Node33 -->
<g id="node33" class="node">
<title>Node33</title>
<g id="a_node33"><a xlink:title=" ">
<polygon fill="white" stroke="black" points="1130.5,-514 1130.5,-533 1176.5,-533 1176.5,-514 1130.5,-514"/>
<text text-anchor="middle" x="1153.5" y="-521" font-family="Helvetica,sans-Serif" font-size="10.00">JLabel</text>
</a>
</g>
</g>
<!-- Node33&#45;&gt;Node1 -->
<g id="edge36" class="edge">
<title>Node33&#45;&gt;Node1</title>
<path fill="none" stroke="#9a32cd" stroke-dasharray="5,2" d="M1186.61,-519.69C1223.28,-516.6 1284.45,-515.32 1333,-533.5 1371.02,-547.74 1406.36,-580.83 1424.92,-600.34"/>
<polygon fill="#9a32cd" stroke="#9a32cd" points="1186.13,-516.22 1176.51,-520.65 1186.79,-523.19 1186.13,-516.22"/>
<text text-anchor="middle" x="1284.5" y="-547.5" font-family="Helvetica,sans-Serif" font-size="10.00"> lblScaffoldingPolicy</text>
<text text-anchor="middle" x="1284.5" y="-536.5" font-family="Helvetica,sans-Serif" font-size="10.00">lblTemplateContract</text>
</g>
<!-- Node34 -->
<g id="node34" class="node">
<title>Node34</title>
<g id="a_node34"><a xlink:title=" ">
<polygon fill="white" stroke="black" points="1098,-473 1098,-492 1209,-492 1209,-473 1098,-473"/>
<text text-anchor="middle" x="1153.5" y="-480" font-family="Helvetica,sans-Serif" font-size="10.00">JComboBox&lt; String &gt;</text>
</a>
</g>
</g>
<!-- Node34&#45;&gt;Node1 -->
<g id="edge37" class="edge">
<title>Node34&#45;&gt;Node1</title>
<path fill="none" stroke="#9a32cd" stroke-dasharray="5,2" d="M1219.44,-474.18C1254.74,-472.52 1298.18,-475.29 1333,-492.5 1381.18,-516.3 1416.19,-573.06 1430.87,-600.34"/>
<polygon fill="#9a32cd" stroke="#9a32cd" points="1219.01,-470.7 1209.24,-474.79 1219.43,-477.69 1219.01,-470.7"/>
<text text-anchor="middle" x="1284.5" y="-506.5" font-family="Helvetica,sans-Serif" font-size="10.00"> cmbScaffoldingPolicy</text>
<text text-anchor="middle" x="1284.5" y="-495.5" font-family="Helvetica,sans-Serif" font-size="10.00">cmbTemplateContract</text>
</g>
</g>
</svg>
