<?xml version="1.0" encoding="UTF-8" standalone="no"?>
<!DOCTYPE svg PUBLIC "-//W3C//DTD SVG 1.1//EN"
 "http://www.w3.org/Graphics/SVG/1.1/DTD/svg11.dtd">
<!-- Generated by graphviz version 3.0.0 (20221109.1736)
 -->
<!-- Title: denoptim.fragmenter.FragmenterTools.fragmentation Pages: 1 -->
<svg width="596pt" height="127pt"
 viewBox="0.00 0.00 596.00 127.00" xmlns="http://www.w3.org/2000/svg" xmlns:xlink="http://www.w3.org/1999/xlink">
<g id="graph0" class="graph" transform="scale(1 1) rotate(0) translate(4 123)">
<title>denoptim.fragmenter.FragmenterTools.fragmentation</title>
<polygon fill="white" stroke="transparent" points="-4,4 -4,-123 592,-123 592,4 -4,4"/>
<!-- Node1 -->
<g id="node1" class="node">
<title>Node1</title>
<g id="a_node1"><a xlink:title="Performs fragmentation according to the given cutting rules.">
<polygon fill="#bfbfbf" stroke="black" points="431,-44.5 431,-74.5 588,-74.5 588,-44.5 431,-44.5"/>
<text text-anchor="start" x="439" y="-62.5" font-family="Helvetica,sans-Serif" font-size="10.00">denoptim.fragmenter.Fragmenter</text>
<text text-anchor="middle" x="509.5" y="-51.5" font-family="Helvetica,sans-Serif" font-size="10.00">Tools.fragmentation</text>
</a>
</g>
</g>
<!-- Node1&#45;&gt;Node1 -->
<g id="edge2" class="edge">
<title>Node1&#45;&gt;Node1</title>
<path fill="none" stroke="midnightblue" d="M547.17,-84.96C542.49,-89.68 529.94,-93 509.5,-93 475.96,-93 463.65,-84.06 472.55,-74.66"/>
<polygon fill="midnightblue" stroke="midnightblue" points="550.64,-84.39 546.45,-74.66 543.66,-84.88 550.64,-84.39"/>
</g>
<!-- Node2 -->
<g id="node2" class="node">
<title>Node2</title>
<g id="a_node2"><a xlink:href="classdenoptim_1_1fragmenter_1_1_fragmenter_task.html#ad73de82da7bcd76c0159c2d5080682c4" target="_top" xlink:title="Performs the whatever work has to be done by this task.">
<polygon fill="white" stroke="black" points="218,-88.5 218,-118.5 375,-118.5 375,-88.5 218,-88.5"/>
<text text-anchor="start" x="226" y="-106.5" font-family="Helvetica,sans-Serif" font-size="10.00">denoptim.fragmenter.Fragmenter</text>
<text text-anchor="middle" x="296.5" y="-95.5" font-family="Helvetica,sans-Serif" font-size="10.00">Task.call</text>
</a>
</g>
</g>
<!-- Node1&#45;&gt;Node2 -->
<g id="edge1" class="edge">
<title>Node1&#45;&gt;Node2</title>
<path fill="none" stroke="midnightblue" d="M426.47,-76.61C407.69,-80.52 387.88,-84.65 369.56,-88.47"/>
<polygon fill="midnightblue" stroke="midnightblue" points="427.4,-79.99 436.48,-74.52 425.97,-73.13 427.4,-79.99"/>
</g>
<!-- Node3 -->
<g id="node3" class="node">
<title>Node3</title>
<g id="a_node3"><a xlink:href="classdenoptim_1_1gui_1_1_g_u_i_vertex_inspector.html#acadecc92299a7ea46113c06382a1f333" target="_top" xlink:title="Initialize the panel and add buttons.">
<polygon fill="white" stroke="black" points="198,-50 198,-69 395,-69 395,-50 198,-50"/>
<text text-anchor="middle" x="296.5" y="-57" font-family="Helvetica,sans-Serif" font-size="10.00">denoptim.gui.GUIVertexInspector.initialize</text>
</a>
</g>
</g>
<!-- Node1&#45;&gt;Node3 -->
<g id="edge3" class="edge">
<title>Node1&#45;&gt;Node3</title>
<path fill="none" stroke="midnightblue" d="M420.64,-59.5C412.2,-59.5 403.61,-59.5 395.1,-59.5"/>
<polygon fill="midnightblue" stroke="midnightblue" points="420.83,-63 430.83,-59.5 420.83,-56 420.83,-63"/>
</g>
<!-- Node5 -->
<g id="node5" class="node">
<title>Node5</title>
<g id="a_node5"><a xlink:href="classdenoptim_1_1ga_1_1_e_a_utils.html#a18eb5d0ba6772e9116176ef6ca9f84fc" target="_top" xlink:title="Converts a molecule into a DGraph by fragmentation and re&#45;assembling of the fragments.">
<polygon fill="white" stroke="black" points="219.5,-0.5 219.5,-30.5 373.5,-30.5 373.5,-0.5 219.5,-0.5"/>
<text text-anchor="start" x="227.5" y="-18.5" font-family="Helvetica,sans-Serif" font-size="10.00">denoptim.ga.EAUtils.make</text>
<text text-anchor="middle" x="296.5" y="-7.5" font-family="Helvetica,sans-Serif" font-size="10.00">GraphFromFragmentationOfMol</text>
</a>
</g>
</g>
<!-- Node1&#45;&gt;Node5 -->
<g id="edge5" class="edge">
<title>Node1&#45;&gt;Node5</title>
<path fill="none" stroke="midnightblue" d="M426.47,-42.39C407.69,-38.48 387.88,-34.35 369.56,-30.53"/>
<polygon fill="midnightblue" stroke="midnightblue" points="425.97,-45.87 436.48,-44.48 427.4,-39.01 425.97,-45.87"/>
</g>
<!-- Node4 -->
<g id="node4" class="node">
<title>Node4</title>
<g id="a_node4"><a xlink:href="classdenoptim_1_1gui_1_1_g_u_i_vertex_inspector.html#abc5d3c33ad9b2b114ce43e9b2cd577bb" target="_top" xlink:title="Constructor.">
<polygon fill="white" stroke="black" points="0,-44.5 0,-74.5 162,-74.5 162,-44.5 0,-44.5"/>
<text text-anchor="start" x="8" y="-62.5" font-family="Helvetica,sans-Serif" font-size="10.00">denoptim.gui.GUIVertexInspector.</text>
<text text-anchor="middle" x="81" y="-51.5" font-family="Helvetica,sans-Serif" font-size="10.00">GUIVertexInspector</text>
</a>
</g>
</g>
<!-- Node3&#45;&gt;Node4 -->
<g id="edge4" class="edge">
<title>Node3&#45;&gt;Node4</title>
<path fill="none" stroke="midnightblue" d="M187.69,-59.5C179.06,-59.5 170.44,-59.5 162.05,-59.5"/>
<polygon fill="midnightblue" stroke="midnightblue" points="187.81,-63 197.81,-59.5 187.81,-56 187.81,-63"/>
</g>
</g>
</svg>
