<?xml version="1.0" encoding="UTF-8" standalone="no"?>
<!DOCTYPE svg PUBLIC "-//W3C//DTD SVG 1.1//EN"
 "http://www.w3.org/Graphics/SVG/1.1/DTD/svg11.dtd">
<!-- Generated by graphviz version 3.0.0 (20221109.1736)
 -->
<!-- Title: denoptim.gui.GAParametersForm.createLvlProbDataset Pages: 1 -->
<svg width="544pt" height="99pt"
 viewBox="0.00 0.00 544.00 98.50" xmlns="http://www.w3.org/2000/svg" xmlns:xlink="http://www.w3.org/1999/xlink">
<g id="graph0" class="graph" transform="scale(1 1) rotate(0) translate(4 94.5)">
<title>denoptim.gui.GAParametersForm.createLvlProbDataset</title>
<polygon fill="white" stroke="transparent" points="-4,4 -4,-94.5 540,-94.5 540,4 -4,4"/>
<!-- Node1 -->
<g id="node1" class="node">
<title>Node1</title>
<g id="a_node1"><a xlink:title=" ">
<polygon fill="#bfbfbf" stroke="black" points="0,-27.5 0,-57.5 138,-57.5 138,-27.5 0,-27.5"/>
<text text-anchor="start" x="8" y="-45.5" font-family="Helvetica,sans-Serif" font-size="10.00">denoptim.gui.GAParameters</text>
<text text-anchor="middle" x="69" y="-34.5" font-family="Helvetica,sans-Serif" font-size="10.00">Form.createLvlProbDataset</text>
</a>
</g>
</g>
<!-- Node2 -->
<g id="node2" class="node">
<title>Node2</title>
<g id="a_node2"><a xlink:href="classdenoptim_1_1programs_1_1denovo_1_1_g_a_parameters.html#a4488a01992b7a7f2cda6f3aa7baa25ab" target="_top" xlink:title=" ">
<polygon fill="white" stroke="black" points="174,-49 174,-90 335,-90 335,-49 174,-49"/>
<text text-anchor="start" x="182" y="-78" font-family="Helvetica,sans-Serif" font-size="10.00">denoptim.programs.denovo.</text>
<text text-anchor="start" x="182" y="-67" font-family="Helvetica,sans-Serif" font-size="10.00">GAParameters.convertProbability</text>
<text text-anchor="middle" x="254.5" y="-56" font-family="Helvetica,sans-Serif" font-size="10.00">Scheme</text>
</a>
</g>
</g>
<!-- Node1&#45;&gt;Node2 -->
<g id="edge1" class="edge">
<title>Node1&#45;&gt;Node2</title>
<path fill="none" stroke="midnightblue" d="M138.07,-52.52C146.43,-53.75 155.06,-55.02 163.68,-56.28"/>
<polygon fill="midnightblue" stroke="midnightblue" points="163.36,-59.77 173.77,-57.77 164.38,-52.85 163.36,-59.77"/>
</g>
<!-- Node3 -->
<g id="node3" class="node">
<title>Node3</title>
<g id="a_node3"><a xlink:href="classdenoptim_1_1ga_1_1_e_a_utils.html#a3dc8bf41035f263b397e14655edc1db3" target="_top" xlink:title="Calculates the probability of adding a fragment to the given level.">
<polygon fill="white" stroke="black" points="178.5,-0.5 178.5,-30.5 330.5,-30.5 330.5,-0.5 178.5,-0.5"/>
<text text-anchor="start" x="186.5" y="-18.5" font-family="Helvetica,sans-Serif" font-size="10.00">denoptim.ga.EAUtils.getGrowth</text>
<text text-anchor="middle" x="254.5" y="-7.5" font-family="Helvetica,sans-Serif" font-size="10.00">ProbabilityAtLevel</text>
</a>
</g>
</g>
<!-- Node1&#45;&gt;Node3 -->
<g id="edge2" class="edge">
<title>Node1&#45;&gt;Node3</title>
<path fill="none" stroke="midnightblue" d="M138.07,-32.48C147.94,-31.03 158.2,-29.52 168.35,-28.03"/>
<polygon fill="midnightblue" stroke="midnightblue" points="169.06,-31.46 178.45,-26.54 168.04,-24.54 169.06,-31.46"/>
</g>
<!-- Node4 -->
<g id="node4" class="node">
<title>Node4</title>
<g id="a_node4"><a xlink:href="classdenoptim_1_1ga_1_1_e_a_utils.html#a41e3b62363bfa04f372d094483eee83f" target="_top" xlink:title="Calculated a probability given parameters defining the shape of the probability function and a single...">
<polygon fill="white" stroke="black" points="371,-6 371,-25 536,-25 536,-6 371,-6"/>
<text text-anchor="middle" x="453.5" y="-13" font-family="Helvetica,sans-Serif" font-size="10.00">denoptim.ga.EAUtils.getProbability</text>
</a>
</g>
</g>
<!-- Node3&#45;&gt;Node4 -->
<g id="edge3" class="edge">
<title>Node3&#45;&gt;Node4</title>
<path fill="none" stroke="midnightblue" d="M330.54,-15.5C340.41,-15.5 350.61,-15.5 360.71,-15.5"/>
<polygon fill="midnightblue" stroke="midnightblue" points="360.77,-19 370.77,-15.5 360.77,-12 360.77,-19"/>
</g>
</g>
</svg>
