<?xml version="1.0" encoding="UTF-8" standalone="no"?>
<!DOCTYPE svg PUBLIC "-//W3C//DTD SVG 1.1//EN"
 "http://www.w3.org/Graphics/SVG/1.1/DTD/svg11.dtd">
<!-- Generated by graphviz version 3.0.0 (20221109.1736)
 -->
<!-- Title: denoptim.molecularmodeling.ThreeDimTreeBuilder.append3DFragmentsViaEdges Pages: 1 -->
<svg width="1295pt" height="666pt"
 viewBox="0.00 0.00 1295.00 666.00" xmlns="http://www.w3.org/2000/svg" xmlns:xlink="http://www.w3.org/1999/xlink">
<g id="graph0" class="graph" transform="scale(1 1) rotate(0) translate(4 662)">
<title>denoptim.molecularmodeling.ThreeDimTreeBuilder.append3DFragmentsViaEdges</title>
<polygon fill="white" stroke="transparent" points="-4,4 -4,-662 1291,-662 1291,4 -4,4"/>
<!-- Node1 -->
<g id="node1" class="node">
<title>Node1</title>
<g id="a_node1"><a xlink:title="Recursive method that appends branches of building blocks following the edges of the graph.">
<polygon fill="#bfbfbf" stroke="black" points="0,-303 0,-344 200,-344 200,-303 0,-303"/>
<text text-anchor="start" x="8" y="-332" font-family="Helvetica,sans-Serif" font-size="10.00">denoptim.molecularmodeling.</text>
<text text-anchor="start" x="8" y="-321" font-family="Helvetica,sans-Serif" font-size="10.00">ThreeDimTreeBuilder.append3DFragments</text>
<text text-anchor="middle" x="100" y="-310" font-family="Helvetica,sans-Serif" font-size="10.00">ViaEdges</text>
</a>
</g>
</g>
<!-- Node1&#45;&gt;Node1 -->
<g id="edge1" class="edge">
<title>Node1&#45;&gt;Node1</title>
<path fill="none" stroke="midnightblue" d="M58.46,-344.36C53.93,-354.04 67.78,-362.5 100,-362.5 120.14,-362.5 133.1,-359.2 138.88,-354.36"/>
<polygon fill="midnightblue" stroke="midnightblue" points="142.35,-354.93 141.54,-344.36 135.59,-353.13 142.35,-354.93"/>
</g>
<!-- Node2 -->
<g id="node2" class="node">
<title>Node2</title>
<g id="a_node2"><a xlink:href="classdenoptim_1_1graph_1_1_vertex.html#a32403330588674911277547b93f3a4e7" target="_top" xlink:title=" ">
<polygon fill="white" stroke="black" points="251,-627.5 251,-657.5 403,-657.5 403,-627.5 251,-627.5"/>
<text text-anchor="start" x="259" y="-645.5" font-family="Helvetica,sans-Serif" font-size="10.00">denoptim.graph.Vertex.contains</text>
<text text-anchor="middle" x="327" y="-634.5" font-family="Helvetica,sans-Serif" font-size="10.00">Atoms</text>
</a>
</g>
</g>
<!-- Node1&#45;&gt;Node2 -->
<g id="edge2" class="edge">
<title>Node1&#45;&gt;Node2</title>
<path fill="none" stroke="midnightblue" d="M104.29,-344.3C113.95,-398.24 147.34,-543.66 236,-618.5 237.81,-620.03 239.7,-621.46 241.67,-622.79"/>
<polygon fill="midnightblue" stroke="midnightblue" points="240.3,-626.05 250.69,-628.11 243.85,-620.02 240.3,-626.05"/>
</g>
<!-- Node3 -->
<g id="node3" class="node">
<title>Node3</title>
<g id="a_node3"><a xlink:href="classdenoptim_1_1graph_1_1_attachment_point.html#a7e45846280a63bd2bf36b85e502ffa49" target="_top" xlink:title="The index of the source atom in the atom list of the fragment.">
<polygon fill="white" stroke="black" points="253,-578.5 253,-608.5 401,-608.5 401,-578.5 253,-578.5"/>
<text text-anchor="start" x="261" y="-596.5" font-family="Helvetica,sans-Serif" font-size="10.00">denoptim.graph.Attachment</text>
<text text-anchor="middle" x="327" y="-585.5" font-family="Helvetica,sans-Serif" font-size="10.00">Point.getAtomPositionNumber</text>
</a>
</g>
</g>
<!-- Node1&#45;&gt;Node3 -->
<g id="edge3" class="edge">
<title>Node1&#45;&gt;Node3</title>
<path fill="none" stroke="midnightblue" d="M106.34,-344.32C119.66,-391.89 158.93,-509.1 236,-569.5 238.47,-571.43 241.07,-573.21 243.79,-574.85"/>
<polygon fill="midnightblue" stroke="midnightblue" points="242.3,-578.02 252.78,-579.6 245.57,-571.83 242.3,-578.02"/>
</g>
<!-- Node4 -->
<g id="node4" class="node">
<title>Node4</title>
<g id="a_node4"><a xlink:href="classdenoptim_1_1graph_1_1_vertex.html#a85aa901ec3fff8e566c0cc32d9c9f84e" target="_top" xlink:title=" ">
<polygon fill="white" stroke="black" points="263,-529.5 263,-559.5 391,-559.5 391,-529.5 263,-529.5"/>
<text text-anchor="start" x="271" y="-547.5" font-family="Helvetica,sans-Serif" font-size="10.00">denoptim.graph.Vertex.get</text>
<text text-anchor="middle" x="327" y="-536.5" font-family="Helvetica,sans-Serif" font-size="10.00">AttachmentPoints</text>
</a>
</g>
</g>
<!-- Node1&#45;&gt;Node4 -->
<g id="edge4" class="edge">
<title>Node1&#45;&gt;Node4</title>
<path fill="none" stroke="midnightblue" d="M109.23,-344.09C126.43,-384.42 170.15,-473.95 236,-520.5 241.29,-524.24 247.12,-527.39 253.2,-530.06"/>
<polygon fill="midnightblue" stroke="midnightblue" points="252.33,-533.47 262.92,-533.85 254.87,-526.95 252.33,-533.47"/>
</g>
<!-- Node5 -->
<g id="node5" class="node">
<title>Node5</title>
<g id="a_node5"><a xlink:href="classdenoptim_1_1graph_1_1_vertex.html#a200f775296c4c9804e3a2b59e065be8a" target="_top" xlink:title="Returns the index of the building block that should correspond to the position of the building block ...">
<polygon fill="white" stroke="black" points="263,-480.5 263,-510.5 391,-510.5 391,-480.5 263,-480.5"/>
<text text-anchor="start" x="271" y="-498.5" font-family="Helvetica,sans-Serif" font-size="10.00">denoptim.graph.Vertex.get</text>
<text text-anchor="middle" x="327" y="-487.5" font-family="Helvetica,sans-Serif" font-size="10.00">BuildingBlockId</text>
</a>
</g>
</g>
<!-- Node1&#45;&gt;Node5 -->
<g id="edge5" class="edge">
<title>Node1&#45;&gt;Node5</title>
<path fill="none" stroke="midnightblue" d="M114.05,-344.15C135.5,-376.35 181.31,-438.27 236,-471.5 241.35,-474.75 247.14,-477.57 253.12,-480.01"/>
<polygon fill="midnightblue" stroke="midnightblue" points="252.03,-483.34 262.62,-483.54 254.47,-476.77 252.03,-483.34"/>
</g>
<!-- Node6 -->
<g id="node6" class="node">
<title>Node6</title>
<g id="a_node6"><a xlink:href="classdenoptim_1_1graph_1_1_vertex.html#a46dadb5fd30f1877db91e97ae55c2dd8" target="_top" xlink:title=" ">
<polygon fill="white" stroke="black" points="263,-431.5 263,-461.5 391,-461.5 391,-431.5 263,-431.5"/>
<text text-anchor="start" x="271" y="-449.5" font-family="Helvetica,sans-Serif" font-size="10.00">denoptim.graph.Vertex.get</text>
<text text-anchor="middle" x="327" y="-438.5" font-family="Helvetica,sans-Serif" font-size="10.00">BuildingBlockType</text>
</a>
</g>
</g>
<!-- Node1&#45;&gt;Node6 -->
<g id="edge6" class="edge">
<title>Node1&#45;&gt;Node6</title>
<path fill="none" stroke="midnightblue" d="M123.65,-344.28C149.17,-366.65 192.75,-401.78 236,-422.5 241.55,-425.16 247.44,-427.56 253.45,-429.71"/>
<polygon fill="midnightblue" stroke="midnightblue" points="252.35,-433.04 262.95,-432.91 254.58,-426.4 252.35,-433.04"/>
</g>
<!-- Node7 -->
<g id="node7" class="node">
<title>Node7</title>
<g id="a_node7"><a xlink:href="enumdenoptim_1_1graph_1_1_edge_1_1_bond_type.html#a3b106d49993cb7dcc1544211e8a17dfd" target="_top" xlink:title=" ">
<polygon fill="white" stroke="black" points="261.5,-382.5 261.5,-412.5 392.5,-412.5 392.5,-382.5 261.5,-382.5"/>
<text text-anchor="start" x="269.5" y="-400.5" font-family="Helvetica,sans-Serif" font-size="10.00">denoptim.graph.Edge.Bond</text>
<text text-anchor="middle" x="327" y="-389.5" font-family="Helvetica,sans-Serif" font-size="10.00">Type.getCDKOrder</text>
</a>
</g>
</g>
<!-- Node1&#45;&gt;Node7 -->
<g id="edge7" class="edge">
<title>Node1&#45;&gt;Node7</title>
<path fill="none" stroke="midnightblue" d="M152.85,-344.01C177.8,-353.54 208.25,-364.68 236,-373.5 242.52,-375.57 249.35,-377.62 256.2,-379.58"/>
<polygon fill="midnightblue" stroke="midnightblue" points="255.65,-383.06 266.22,-382.41 257.55,-376.33 255.65,-383.06"/>
</g>
<!-- Node8 -->
<g id="node8" class="node">
<title>Node8</title>
<g id="a_node8"><a xlink:href="classdenoptim_1_1graph_1_1_attachment_point.html#a9c1db3123b7f73aa20c0d1895f31f8d7" target="_top" xlink:title="Returns the end of the direction vector.">
<polygon fill="white" stroke="black" points="259.5,-333.5 259.5,-363.5 394.5,-363.5 394.5,-333.5 259.5,-333.5"/>
<text text-anchor="start" x="267.5" y="-351.5" font-family="Helvetica,sans-Serif" font-size="10.00">denoptim.graph.Attachment</text>
<text text-anchor="middle" x="327" y="-340.5" font-family="Helvetica,sans-Serif" font-size="10.00">Point.getDirectionVector</text>
</a>
</g>
</g>
<!-- Node1&#45;&gt;Node8 -->
<g id="edge8" class="edge">
<title>Node1&#45;&gt;Node8</title>
<path fill="none" stroke="midnightblue" d="M200.02,-334.5C216.46,-336.33 233.29,-338.2 249.08,-339.95"/>
<polygon fill="midnightblue" stroke="midnightblue" points="248.96,-343.46 259.29,-341.09 249.74,-336.5 248.96,-343.46"/>
</g>
<!-- Node9 -->
<g id="node9" class="node">
<title>Node9</title>
<g id="a_node9"><a xlink:href="classdenoptim_1_1graph_1_1_vertex.html#acc83e15edc2c04f8b3ae66a8628a6134" target="_top" xlink:title=" ">
<polygon fill="white" stroke="black" points="263,-284.5 263,-314.5 391,-314.5 391,-284.5 263,-284.5"/>
<text text-anchor="start" x="271" y="-302.5" font-family="Helvetica,sans-Serif" font-size="10.00">denoptim.graph.Vertex.get</text>
<text text-anchor="middle" x="327" y="-291.5" font-family="Helvetica,sans-Serif" font-size="10.00">IAtomContainer</text>
</a>
</g>
</g>
<!-- Node1&#45;&gt;Node9 -->
<g id="edge9" class="edge">
<title>Node1&#45;&gt;Node9</title>
<path fill="none" stroke="midnightblue" d="M200.02,-312.94C217.69,-311.05 235.81,-309.12 252.6,-307.33"/>
<polygon fill="midnightblue" stroke="midnightblue" points="253.3,-310.77 262.87,-306.23 252.56,-303.81 253.3,-310.77"/>
</g>
<!-- Node10 -->
<g id="node10" class="node">
<title>Node10</title>
<g id="a_node10"><a xlink:href="classdenoptim_1_1utils_1_1_math_utils.html#af9381b3f298709f1183f6751cdee8823" target="_top" xlink:title="Generate a vector that is perpendicular to the given one.">
<polygon fill="white" stroke="black" points="258.5,-235.5 258.5,-265.5 395.5,-265.5 395.5,-235.5 258.5,-235.5"/>
<text text-anchor="start" x="266.5" y="-253.5" font-family="Helvetica,sans-Serif" font-size="10.00">denoptim.utils.MathUtils.get</text>
<text text-anchor="middle" x="327" y="-242.5" font-family="Helvetica,sans-Serif" font-size="10.00">NormalDirection</text>
</a>
</g>
</g>
<!-- Node1&#45;&gt;Node10 -->
<g id="edge10" class="edge">
<title>Node1&#45;&gt;Node10</title>
<path fill="none" stroke="midnightblue" d="M155.88,-303C180.28,-294.14 209.44,-283.9 236,-275.5 243.58,-273.1 251.57,-270.7 259.52,-268.4"/>
<polygon fill="midnightblue" stroke="midnightblue" points="260.52,-271.75 269.17,-265.63 258.59,-265.02 260.52,-271.75"/>
</g>
<!-- Node11 -->
<g id="node11" class="node">
<title>Node11</title>
<g id="a_node11"><a xlink:href="classdenoptim_1_1utils_1_1_molecule_utils.html#ac74037442de1ef05310f5e6fa79f7fb0" target="_top" xlink:title="Return the 3D coordinates, if present.">
<polygon fill="white" stroke="black" points="675.5,-178.5 675.5,-208.5 829.5,-208.5 829.5,-178.5 675.5,-178.5"/>
<text text-anchor="start" x="683.5" y="-196.5" font-family="Helvetica,sans-Serif" font-size="10.00">denoptim.utils.MoleculeUtils.get</text>
<text text-anchor="middle" x="752.5" y="-185.5" font-family="Helvetica,sans-Serif" font-size="10.00">Point3d</text>
</a>
</g>
</g>
<!-- Node1&#45;&gt;Node11 -->
<g id="edge11" class="edge">
<title>Node1&#45;&gt;Node11</title>
<path fill="none" stroke="midnightblue" d="M121.71,-302.78C146.47,-279.5 190.35,-242.83 236,-226.5 312.49,-199.14 538.86,-193.98 664.69,-193.3"/>
<polygon fill="midnightblue" stroke="midnightblue" points="665.08,-196.8 675.06,-193.25 665.05,-189.8 665.08,-196.8"/>
</g>
<!-- Node12 -->
<g id="node12" class="node">
<title>Node12</title>
<g id="a_node12"><a xlink:href="classdenoptim_1_1molecularmodeling_1_1_three_dim_tree_builder.html#a6ef3c605f4c86de64db48e322f338119" target="_top" xlink:title=" ">
<polygon fill="white" stroke="black" points="236,-147.5 236,-177.5 418,-177.5 418,-147.5 236,-147.5"/>
<text text-anchor="start" x="244" y="-165.5" font-family="Helvetica,sans-Serif" font-size="10.00">denoptim.molecularmodeling.</text>
<text text-anchor="middle" x="327" y="-154.5" font-family="Helvetica,sans-Serif" font-size="10.00">ThreeDimTreeBuilder.getRandomPoint</text>
</a>
</g>
</g>
<!-- Node1&#45;&gt;Node12 -->
<g id="edge12" class="edge">
<title>Node1&#45;&gt;Node12</title>
<path fill="none" stroke="midnightblue" d="M117.13,-302.83C140.46,-274.23 186.32,-222.69 236,-192.5 243.08,-188.2 250.86,-184.43 258.78,-181.14"/>
<polygon fill="midnightblue" stroke="midnightblue" points="260.06,-184.4 268.11,-177.52 257.52,-177.88 260.06,-184.4"/>
</g>
<!-- Node20 -->
<g id="node20" class="node">
<title>Node20</title>
<g id="a_node20"><a xlink:href="classdenoptim_1_1graph_1_1_vertex.html#a9493346ca1480edfcfa00cb78a52adf5" target="_top" xlink:title=" ">
<polygon fill="white" stroke="black" points="263,-98.5 263,-128.5 391,-128.5 391,-98.5 263,-98.5"/>
<text text-anchor="start" x="271" y="-116.5" font-family="Helvetica,sans-Serif" font-size="10.00">denoptim.graph.Vertex.get</text>
<text text-anchor="middle" x="327" y="-105.5" font-family="Helvetica,sans-Serif" font-size="10.00">VertexId</text>
</a>
</g>
</g>
<!-- Node1&#45;&gt;Node20 -->
<g id="edge21" class="edge">
<title>Node1&#45;&gt;Node20</title>
<path fill="none" stroke="midnightblue" d="M110.33,-302.74C128.68,-264.29 173.24,-181.96 236,-138.5 241.25,-134.86 247.01,-131.76 253.01,-129.1"/>
<polygon fill="midnightblue" stroke="midnightblue" points="254.59,-132.24 262.58,-125.28 252,-125.73 254.59,-132.24"/>
</g>
<!-- Node21 -->
<g id="node21" class="node">
<title>Node21</title>
<g id="a_node21"><a xlink:href="enumdenoptim_1_1graph_1_1_edge_1_1_bond_type.html#a8be61f74c1beaa52e4a53ff70d32a614" target="_top" xlink:title="Checks if it is possible to convert this edge type into a CDK bond.">
<polygon fill="white" stroke="black" points="261.5,-49.5 261.5,-79.5 392.5,-79.5 392.5,-49.5 261.5,-49.5"/>
<text text-anchor="start" x="269.5" y="-67.5" font-family="Helvetica,sans-Serif" font-size="10.00">denoptim.graph.Edge.Bond</text>
<text text-anchor="middle" x="327" y="-56.5" font-family="Helvetica,sans-Serif" font-size="10.00">Type.hasCDKAnalogue</text>
</a>
</g>
</g>
<!-- Node1&#45;&gt;Node21 -->
<g id="edge22" class="edge">
<title>Node1&#45;&gt;Node21</title>
<path fill="none" stroke="midnightblue" d="M106.84,-302.91C120.95,-257.01 161.37,-145.82 236,-88.5 240.77,-84.84 246.04,-81.74 251.58,-79.11"/>
<polygon fill="midnightblue" stroke="midnightblue" points="253.25,-82.2 261.11,-75.11 250.54,-75.75 253.25,-82.2"/>
</g>
<!-- Node22 -->
<g id="node22" class="node">
<title>Node22</title>
<g id="a_node22"><a xlink:href="classdenoptim_1_1graph_1_1_vertex.html#ad26ecf426a5e415605df94be904e58d3" target="_top" xlink:title=" ">
<polygon fill="white" stroke="black" points="263,-0.5 263,-30.5 391,-30.5 391,-0.5 263,-0.5"/>
<text text-anchor="start" x="271" y="-18.5" font-family="Helvetica,sans-Serif" font-size="10.00">denoptim.graph.Vertex.set</text>
<text text-anchor="middle" x="327" y="-7.5" font-family="Helvetica,sans-Serif" font-size="10.00">Property</text>
</a>
</g>
</g>
<!-- Node1&#45;&gt;Node22 -->
<g id="edge23" class="edge">
<title>Node1&#45;&gt;Node22</title>
<path fill="none" stroke="midnightblue" d="M104.69,-302.7C115.15,-250.13 149.96,-111.07 236,-39.5 241.18,-35.19 247.06,-31.65 253.27,-28.74"/>
<polygon fill="midnightblue" stroke="midnightblue" points="254.65,-31.96 262.56,-24.91 251.98,-25.48 254.65,-31.96"/>
</g>
<!-- Node13 -->
<g id="node13" class="node">
<title>Node13</title>
<g id="a_node13"><a xlink:href="classdenoptim_1_1utils_1_1_molecule_utils.html#ac40f9107355e8a0fc4c4c20f1ce0d419" target="_top" xlink:title="Calculated the centroid of the given molecule.">
<polygon fill="white" stroke="black" points="454,-147.5 454,-177.5 633,-177.5 633,-147.5 454,-147.5"/>
<text text-anchor="start" x="462" y="-165.5" font-family="Helvetica,sans-Serif" font-size="10.00">denoptim.utils.MoleculeUtils.calculate</text>
<text text-anchor="middle" x="543.5" y="-154.5" font-family="Helvetica,sans-Serif" font-size="10.00">Centroid</text>
</a>
</g>
</g>
<!-- Node12&#45;&gt;Node13 -->
<g id="edge13" class="edge">
<title>Node12&#45;&gt;Node13</title>
<path fill="none" stroke="midnightblue" d="M418.03,-162.5C426.52,-162.5 435.16,-162.5 443.72,-162.5"/>
<polygon fill="midnightblue" stroke="midnightblue" points="443.73,-166 453.73,-162.5 443.73,-159 443.73,-166"/>
</g>
<!-- Node14 -->
<g id="node14" class="node">
<title>Node14</title>
<g id="a_node14"><a xlink:href="classdenoptim_1_1utils_1_1_randomizer.html#a6949bec32b63f1207da17e0c136a1d58" target="_top" xlink:title="Returns a pseudo&#45;random, uniformly distributed int value between 0 (inclusive) and the specified valu...">
<polygon fill="white" stroke="black" points="463,-109 463,-128 624,-128 624,-109 463,-109"/>
<text text-anchor="middle" x="543.5" y="-116" font-family="Helvetica,sans-Serif" font-size="10.00">denoptim.utils.Randomizer.nextInt</text>
</a>
</g>
</g>
<!-- Node12&#45;&gt;Node14 -->
<g id="edge15" class="edge">
<title>Node12&#45;&gt;Node14</title>
<path fill="none" stroke="midnightblue" d="M401.22,-147.48C428.97,-141.79 460.11,-135.4 486.08,-130.07"/>
<polygon fill="midnightblue" stroke="midnightblue" points="487.03,-133.45 496.13,-128.01 485.63,-126.59 487.03,-133.45"/>
</g>
<!-- Node13&#45;&gt;Node11 -->
<g id="edge14" class="edge">
<title>Node13&#45;&gt;Node11</title>
<path fill="none" stroke="midnightblue" d="M633.19,-175.78C643.83,-177.38 654.69,-179 665.3,-180.59"/>
<polygon fill="midnightblue" stroke="midnightblue" points="664.97,-184.08 675.38,-182.1 666,-177.16 664.97,-184.08"/>
</g>
<!-- Node15 -->
<g id="node15" class="node">
<title>Node15</title>
<g id="a_node15"><a xlink:href="classdenoptim_1_1utils_1_1_randomizer.html#a6873dd710cc271ed81bfa45411a62359" target="_top" xlink:title="Returns the random number generator.">
<polygon fill="white" stroke="black" points="669,-128 669,-147 836,-147 836,-128 669,-128"/>
<text text-anchor="middle" x="752.5" y="-135" font-family="Helvetica,sans-Serif" font-size="10.00">denoptim.utils.Randomizer.getRNG</text>
</a>
</g>
</g>
<!-- Node14&#45;&gt;Node15 -->
<g id="edge16" class="edge">
<title>Node14&#45;&gt;Node15</title>
<path fill="none" stroke="midnightblue" d="M624.24,-125.82C635.51,-126.85 647.18,-127.93 658.68,-128.98"/>
<polygon fill="midnightblue" stroke="midnightblue" points="658.44,-132.47 668.72,-129.9 659.08,-125.5 658.44,-132.47"/>
</g>
<!-- Node18 -->
<g id="node18" class="node">
<title>Node18</title>
<g id="a_node18"><a xlink:href="classdenoptim_1_1utils_1_1_randomizer.html#acaa5e386da195d9454fae611ed554c48" target="_top" xlink:title="Utility to debug: writes some log in file &#39;/tmp/rng_debug_log&#39;.">
<polygon fill="white" stroke="black" points="677,-90 677,-109 828,-109 828,-90 677,-90"/>
<text text-anchor="middle" x="752.5" y="-97" font-family="Helvetica,sans-Serif" font-size="10.00">denoptim.utils.Randomizer.print</text>
</a>
</g>
</g>
<!-- Node14&#45;&gt;Node18 -->
<g id="edge19" class="edge">
<title>Node14&#45;&gt;Node18</title>
<path fill="none" stroke="midnightblue" d="M624.24,-111.18C638.17,-109.9 652.7,-108.57 666.76,-107.28"/>
<polygon fill="midnightblue" stroke="midnightblue" points="667.26,-110.75 676.9,-106.35 666.62,-103.78 667.26,-110.75"/>
</g>
<!-- Node16 -->
<g id="node16" class="node">
<title>Node16</title>
<g id="a_node16"><a xlink:href="classdenoptim_1_1utils_1_1_randomizer.html#aaaeda6dedda5664a47a2a9a68194162a" target="_top" xlink:title="Initializes this random number generator (RNG) using a random seed that is generated on&#45;the&#45;fly rando...">
<polygon fill="white" stroke="black" points="872,-128 872,-147 1061,-147 1061,-128 872,-128"/>
<text text-anchor="middle" x="966.5" y="-135" font-family="Helvetica,sans-Serif" font-size="10.00">denoptim.utils.Randomizer.initialiseRNG</text>
</a>
</g>
</g>
<!-- Node15&#45;&gt;Node16 -->
<g id="edge17" class="edge">
<title>Node15&#45;&gt;Node16</title>
<path fill="none" stroke="midnightblue" d="M836.07,-137.5C844.51,-137.5 853.16,-137.5 861.79,-137.5"/>
<polygon fill="midnightblue" stroke="midnightblue" points="861.89,-141 871.89,-137.5 861.89,-134 861.89,-141"/>
</g>
<!-- Node17 -->
<g id="node17" class="node">
<title>Node17</title>
<g id="a_node17"><a xlink:href="classdenoptim_1_1utils_1_1_randomizer.html#ad74f0608d3e2e10caa8873ae059367a7" target="_top" xlink:title=" ">
<polygon fill="white" stroke="black" points="1097,-128 1097,-147 1287,-147 1287,-128 1097,-128"/>
<text text-anchor="middle" x="1192" y="-135" font-family="Helvetica,sans-Serif" font-size="10.00">denoptim.utils.Randomizer.initialiseSeed</text>
</a>
</g>
</g>
<!-- Node16&#45;&gt;Node17 -->
<g id="edge18" class="edge">
<title>Node16&#45;&gt;Node17</title>
<path fill="none" stroke="midnightblue" d="M1061.31,-137.5C1069.64,-137.5 1078.09,-137.5 1086.5,-137.5"/>
<polygon fill="midnightblue" stroke="midnightblue" points="1086.71,-141 1096.71,-137.5 1086.71,-134 1086.71,-141"/>
</g>
<!-- Node19 -->
<g id="node19" class="node">
<title>Node19</title>
<g id="a_node19"><a xlink:href="classdenoptim_1_1io_1_1_denoptim_i_o.html#adc7de175de66792f4f37f1661c10e7f8" target="_top" xlink:title="Write text&#45;like data file.">
<polygon fill="white" stroke="black" points="884.5,-90 884.5,-109 1048.5,-109 1048.5,-90 884.5,-90"/>
<text text-anchor="middle" x="966.5" y="-97" font-family="Helvetica,sans-Serif" font-size="10.00">denoptim.io.DenoptimIO.writeData</text>
</a>
</g>
</g>
<!-- Node18&#45;&gt;Node19 -->
<g id="edge20" class="edge">
<title>Node18&#45;&gt;Node19</title>
<path fill="none" stroke="midnightblue" d="M828.24,-99.5C843.11,-99.5 858.87,-99.5 874.22,-99.5"/>
<polygon fill="midnightblue" stroke="midnightblue" points="874.23,-103 884.23,-99.5 874.23,-96 874.23,-103"/>
</g>
</g>
</svg>
