<?xml version="1.0" encoding="UTF-8" standalone="no"?>
<!DOCTYPE svg PUBLIC "-//W3C//DTD SVG 1.1//EN"
 "http://www.w3.org/Graphics/SVG/1.1/DTD/svg11.dtd">
<!-- Generated by graphviz version 3.0.0 (20221109.1736)
 -->
<!-- Title: denoptim.ga.GraphOperations.deleteFragment Pages: 1 -->
<!--zoomable 219 -->
<svg id="main" version="1.1" xmlns="http://www.w3.org/2000/svg" xmlns:xlink="http://www.w3.org/1999/xlink" xml:space="preserve" onload="init(evt)">
<style type="text/css"><![CDATA[
.edge:hover path { stroke: red; }
.edge:hover polygon { stroke: red; fill: red; }
]]></style>
<script type="text/javascript"><![CDATA[
var edges = document.getElementsByTagName('g');
if (edges && edges.length) {
  for (var i=0;i<edges.length;i++) {
    if (edges[i].id.substr(0,4)=='edge') {
      edges[i].setAttribute('class','edge');
    }
  }
}
]]></script>
        <defs>
                <circle id="rim" cx="0" cy="0" r="7"/>
                <circle id="rim2" cx="0" cy="0" r="3.5"/>
                <g id="zoomPlus">
                        <use xlink:href="#rim" fill="#404040">
                                <set attributeName="fill" to="#808080" begin="zoomplus.mouseover" end="zoomplus.mouseout"/>
                        </use>
                        <path d="M-4,0h8M0,-4v8" fill="none" stroke="white" stroke-width="1.5" pointer-events="none"/>
                </g>
                <g id="zoomMin">
                        <use xlink:href="#rim" fill="#404040">
                                <set attributeName="fill" to="#808080" begin="zoomminus.mouseover" end="zoomminus.mouseout"/>
                        </use>
                        <path d="M-4,0h8" fill="none" stroke="white" stroke-width="1.5" pointer-events="none"/>
                </g>
                <g id="dirArrow">
                        <path fill="none" stroke="white" stroke-width="1.5" d="M0,-3.0v7 M-2.5,-0.5L0,-3.0L2.5,-0.5"/>
                </g>
               <g id="resetDef">
                       <use xlink:href="#rim2" fill="#404040">
                               <set attributeName="fill" to="#808080" begin="reset.mouseover" end="reset.mouseout"/>
                       </use>
               </g>
        </defs>

<script type="text/javascript">
var viewWidth = 712;
var viewHeight = 219;
var sectionId = 'dynsection-12';
</script>
<script xlink:href="svgpan.js"/>
<svg id="graph" class="graph">
<g id="viewport">
<title>denoptim.ga.GraphOperations.deleteFragment</title>
<polygon fill="white" stroke="transparent" points="-4,4 -4,-214.62 708,-214.62 708,4 -4,4"/>
<!-- Node1 -->
<g id="node1" class="node">
<title>Node1</title>
<g id="a_node1"><a xlink:title="Deletion mutation removes the vertex and also the symmetric partners on its parent.">
<polygon fill="#bfbfbf" stroke="black" points="0,-87.12 0,-117.12 173,-117.12 173,-87.12 0,-87.12"/>
<text text-anchor="start" x="8" y="-105.12" font-family="Helvetica,sans-Serif" font-size="10.00">denoptim.ga.GraphOperations.delete</text>
<text text-anchor="middle" x="86.5" y="-94.12" font-family="Helvetica,sans-Serif" font-size="10.00">Fragment</text>
</a>
</g>
</g>
<!-- Node2 -->
<g id="node2" class="node">
<title>Node2</title>
<g id="a_node2"><a xlink:href="classdenoptim_1_1graph_1_1_d_graph.html#aadd56400d6e58931401e88dd814de705" target="_top" xlink:title="Returns the set of vertexes symmetric to the given one.">
<polygon fill="white" stroke="black" points="401.5,-70.12 401.5,-100.12 535.5,-100.12 535.5,-70.12 401.5,-70.12"/>
<text text-anchor="start" x="409.5" y="-88.12" font-family="Helvetica,sans-Serif" font-size="10.00">denoptim.graph.DGraph.get</text>
<text text-anchor="middle" x="468.5" y="-77.12" font-family="Helvetica,sans-Serif" font-size="10.00">SymSetForVertex</text>
</a>
</g>
</g>
<!-- Node1&#45;&gt;Node2 -->
<g id="edge1" class="edge">
<title>Node1&#45;&gt;Node2</title>
<path fill="none" stroke="midnightblue" d="M173.25,-98.28C238.67,-95.36 327.98,-91.36 390.99,-88.54"/>
<polygon fill="midnightblue" stroke="midnightblue" points="391.43,-92.03 401.26,-88.08 391.12,-85.03 391.43,-92.03"/>
</g>
<!-- Node3 -->
<g id="node3" class="node">
<title>Node3</title>
<g id="a_node3"><a xlink:href="classdenoptim_1_1graph_1_1_d_graph.html#a3b7c2feb2da30079318f06819e0e6761" target="_top" xlink:title=" ">
<polygon fill="white" stroke="black" points="218,-131.12 218,-161.12 352,-161.12 352,-131.12 218,-131.12"/>
<text text-anchor="start" x="226" y="-149.12" font-family="Helvetica,sans-Serif" font-size="10.00">denoptim.graph.DGraph.get</text>
<text text-anchor="middle" x="285" y="-138.12" font-family="Helvetica,sans-Serif" font-size="10.00">VertexCount</text>
</a>
</g>
</g>
<!-- Node1&#45;&gt;Node3 -->
<g id="edge2" class="edge">
<title>Node1&#45;&gt;Node3</title>
<path fill="none" stroke="midnightblue" d="M154.57,-117.14C171.68,-120.97 190.18,-125.11 207.71,-129.04"/>
<polygon fill="midnightblue" stroke="midnightblue" points="207.37,-132.55 217.89,-131.32 208.9,-125.72 207.37,-132.55"/>
</g>
<!-- Node4 -->
<g id="node4" class="node">
<title>Node4</title>
<g id="a_node4"><a xlink:href="classdenoptim_1_1graph_1_1_d_graph.html#a16e970d1e94704f9e720ff16f58f5796" target="_top" xlink:title="Searches for a vertex with the given identifier.">
<polygon fill="white" stroke="black" points="218,-180.12 218,-210.12 352,-210.12 352,-180.12 218,-180.12"/>
<text text-anchor="start" x="226" y="-198.12" font-family="Helvetica,sans-Serif" font-size="10.00">denoptim.graph.DGraph.get</text>
<text text-anchor="middle" x="285" y="-187.12" font-family="Helvetica,sans-Serif" font-size="10.00">VertexWithId</text>
</a>
</g>
</g>
<!-- Node1&#45;&gt;Node4 -->
<g id="edge3" class="edge">
<title>Node1&#45;&gt;Node4</title>
<path fill="none" stroke="midnightblue" d="M111.47,-117.32C135.49,-132.12 173.84,-154.59 209,-170.12 214.02,-172.34 219.31,-174.47 224.65,-176.5"/>
<polygon fill="midnightblue" stroke="midnightblue" points="223.68,-179.87 234.28,-180.02 226.09,-173.3 223.68,-179.87"/>
</g>
<!-- Node7 -->
<g id="node7" class="node">
<title>Node7</title>
<g id="a_node7"><a xlink:href="classdenoptim_1_1graph_1_1_d_graph.html#ad6c07d79d0bf95370569f11ad4d4cadf" target="_top" xlink:title=" ">
<polygon fill="white" stroke="black" points="400.5,-3.12 400.5,-33.12 536.5,-33.12 536.5,-3.12 400.5,-3.12"/>
<text text-anchor="start" x="408.5" y="-21.12" font-family="Helvetica,sans-Serif" font-size="10.00">denoptim.graph.DGraph.has</text>
<text text-anchor="middle" x="468.5" y="-10.12" font-family="Helvetica,sans-Serif" font-size="10.00">SymmetryInvolvingVertex</text>
</a>
</g>
</g>
<!-- Node1&#45;&gt;Node7 -->
<g id="edge6" class="edge">
<title>Node1&#45;&gt;Node7</title>
<path fill="none" stroke="midnightblue" d="M101.86,-87.1C123,-66.2 164.78,-29.32 209,-15.12 267.69,3.73 337.81,1.49 390.2,-4.64"/>
<polygon fill="midnightblue" stroke="midnightblue" points="390.08,-8.15 400.44,-5.91 390.94,-1.2 390.08,-8.15"/>
</g>
<!-- Node8 -->
<g id="node8" class="node">
<title>Node8</title>
<g id="a_node8"><a xlink:href="classdenoptim_1_1graph_1_1_d_graph.html#ae46f896d67929c516cc66031b8777f0b" target="_top" xlink:title="Deletes the branch, i.e., the specified vertex and its children.">
<polygon fill="white" stroke="black" points="209,-25.12 209,-55.12 361,-55.12 361,-25.12 209,-25.12"/>
<text text-anchor="start" x="217" y="-43.12" font-family="Helvetica,sans-Serif" font-size="10.00">denoptim.graph.DGraph.remove</text>
<text text-anchor="middle" x="285" y="-32.12" font-family="Helvetica,sans-Serif" font-size="10.00">BranchStartingAt</text>
</a>
</g>
</g>
<!-- Node1&#45;&gt;Node8 -->
<g id="edge7" class="edge">
<title>Node1&#45;&gt;Node8</title>
<path fill="none" stroke="midnightblue" d="M135.07,-87.11C162.62,-78.42 197.5,-67.41 226.57,-58.24"/>
<polygon fill="midnightblue" stroke="midnightblue" points="227.71,-61.55 236.19,-55.21 225.6,-54.88 227.71,-61.55"/>
</g>
<!-- Node5 -->
<g id="node5" class="node">
<title>Node5</title>
<g id="a_node5"><a xlink:href="classdenoptim_1_1graph_1_1_d_graph.html#a3560b051e55499bf45522a55f6219d29" target="_top" xlink:title="Returns the position of the first vertex that has the given ID.">
<polygon fill="white" stroke="black" points="397,-180.12 397,-210.12 540,-210.12 540,-180.12 397,-180.12"/>
<text text-anchor="start" x="405" y="-198.12" font-family="Helvetica,sans-Serif" font-size="10.00">denoptim.graph.DGraph.index</text>
<text text-anchor="middle" x="468.5" y="-187.12" font-family="Helvetica,sans-Serif" font-size="10.00">OfVertexWithID</text>
</a>
</g>
</g>
<!-- Node4&#45;&gt;Node5 -->
<g id="edge4" class="edge">
<title>Node4&#45;&gt;Node5</title>
<path fill="none" stroke="midnightblue" d="M352.04,-195.12C363.33,-195.12 375.17,-195.12 386.79,-195.12"/>
<polygon fill="midnightblue" stroke="midnightblue" points="386.92,-198.62 396.92,-195.12 386.92,-191.62 386.92,-198.62"/>
</g>
<!-- Node6 -->
<g id="node6" class="node">
<title>Node6</title>
<g id="a_node6"><a xlink:href="classdenoptim_1_1graph_1_1_vertex.html#a9493346ca1480edfcfa00cb78a52adf5" target="_top" xlink:title=" ">
<polygon fill="white" stroke="black" points="576,-180.12 576,-210.12 704,-210.12 704,-180.12 576,-180.12"/>
<text text-anchor="start" x="584" y="-198.12" font-family="Helvetica,sans-Serif" font-size="10.00">denoptim.graph.Vertex.get</text>
<text text-anchor="middle" x="640" y="-187.12" font-family="Helvetica,sans-Serif" font-size="10.00">VertexId</text>
</a>
</g>
</g>
<!-- Node5&#45;&gt;Node6 -->
<g id="edge5" class="edge">
<title>Node5&#45;&gt;Node6</title>
<path fill="none" stroke="midnightblue" d="M540.4,-195.12C548.79,-195.12 557.36,-195.12 565.77,-195.12"/>
<polygon fill="midnightblue" stroke="midnightblue" points="565.94,-198.62 575.94,-195.12 565.94,-191.62 565.94,-198.62"/>
</g>
<!-- Node8&#45;&gt;Node2 -->
<g id="edge8" class="edge">
<title>Node8&#45;&gt;Node2</title>
<path fill="none" stroke="midnightblue" d="M346.69,-55.17C362.73,-59.15 380.19,-63.47 396.72,-67.57"/>
<polygon fill="midnightblue" stroke="midnightblue" points="396.32,-71.08 406.87,-70.09 398,-64.28 396.32,-71.08"/>
</g>
<!-- Node8&#45;&gt;Node7 -->
<g id="edge9" class="edge">
<title>Node8&#45;&gt;Node7</title>
<path fill="none" stroke="midnightblue" d="M361.13,-31.01C370.76,-29.85 380.63,-28.65 390.29,-27.48"/>
<polygon fill="midnightblue" stroke="midnightblue" points="390.75,-30.95 400.26,-26.27 389.91,-24 390.75,-30.95"/>
</g>
<!-- Node8&#45;&gt;Node8 -->
<g id="edge10" class="edge">
<title>Node8&#45;&gt;Node8</title>
<path fill="none" stroke="midnightblue" d="M253.28,-55.28C245.63,-64.68 256.21,-73.62 285,-73.62 302.55,-73.62 313.33,-70.3 317.34,-65.58"/>
<polygon fill="midnightblue" stroke="midnightblue" points="320.81,-65.05 316.72,-55.28 313.83,-65.47 320.81,-65.05"/>
</g>
</g>
</svg>
        <g id="navigator" transform="translate(0 0)" fill="#404254">
                <rect fill="#f2f5e9" fill-opacity="0.5" stroke="#606060" stroke-width=".5" x="0" y="0" width="60" height="60"/>
                <use id="zoomplus" xlink:href="#zoomPlus" x="17" y="9" onmousedown="handleZoom(evt,'in')"/>
                <use id="zoomminus" xlink:href="#zoomMin" x="42" y="9" onmousedown="handleZoom(evt,'out')"/>
                <use id="reset" xlink:href="#resetDef" x="30" y="36" onmousedown="handleReset()"/>
                <g id="arrowUp" xlink:href="#dirArrow" transform="translate(30 24)" onmousedown="handlePan(0,-1)">
                  <use xlink:href="#rim" fill="#404040">
                        <set attributeName="fill" to="#808080" begin="arrowUp.mouseover" end="arrowUp.mouseout"/>
                  </use>
                  <path fill="none" stroke="white" stroke-width="1.5" d="M0,-3.0v7 M-2.5,-0.5L0,-3.0L2.5,-0.5"/>
                </g>
                <g id="arrowRight" xlink:href="#dirArrow" transform="rotate(90) translate(36 -43)" onmousedown="handlePan(1,0)">
                  <use xlink:href="#rim" fill="#404040">
                        <set attributeName="fill" to="#808080" begin="arrowRight.mouseover" end="arrowRight.mouseout"/>
                  </use>
                  <path fill="none" stroke="white" stroke-width="1.5" d="M0,-3.0v7 M-2.5,-0.5L0,-3.0L2.5,-0.5"/>
                </g>
                <g id="arrowDown" xlink:href="#dirArrow" transform="rotate(180) translate(-30 -48)" onmousedown="handlePan(0,1)">
                  <use xlink:href="#rim" fill="#404040">
                        <set attributeName="fill" to="#808080" begin="arrowDown.mouseover" end="arrowDown.mouseout"/>
                  </use>
                  <path fill="none" stroke="white" stroke-width="1.5" d="M0,-3.0v7 M-2.5,-0.5L0,-3.0L2.5,-0.5"/>
                </g>
                <g id="arrowLeft" xlink:href="#dirArrow" transform="rotate(270) translate(-36 17)" onmousedown="handlePan(-1,0)">
                  <use xlink:href="#rim" fill="#404040">
                        <set attributeName="fill" to="#808080" begin="arrowLeft.mouseover" end="arrowLeft.mouseout"/>
                  </use>
                  <path fill="none" stroke="white" stroke-width="1.5" d="M0,-3.0v7 M-2.5,-0.5L0,-3.0L2.5,-0.5"/>
                </g>
        </g>
        <svg viewBox="0 0 15 15" width="100%" height="30px" preserveAspectRatio="xMaxYMin meet">
         <g id="arrow_out" transform="scale(0.3 0.3)">
          <a xlink:href="classdenoptim_1_1ga_1_1_graph_operations_aaea9294efa9a4ca6ad8840c2acf0c1b0_cgraph_org.svg" target="_base">
           <rect id="button" ry="5" rx="5" y="6" x="6" height="38" width="38"
                fill="#f2f5e9" fill-opacity="0.5" stroke="#606060" stroke-width="1.0"/>
           <path id="arrow"
             d="M 11.500037,31.436501 C 11.940474,20.09759 22.043105,11.32322 32.158766,21.979434 L 37.068811,17.246167 C 37.068811,17.246167 37.088388,32 37.088388,32 L 22.160133,31.978069 C 22.160133,31.978069 26.997745,27.140456 26.997745,27.140456 C 18.528582,18.264221 13.291696,25.230495 11.500037,31.436501 z"
             style="fill:#404040;"/>
          </a>
         </g>
        </svg>
</svg>
