<?xml version="1.0" encoding="UTF-8" standalone="no"?>
<!DOCTYPE svg PUBLIC "-//W3C//DTD SVG 1.1//EN"
 "http://www.w3.org/Graphics/SVG/1.1/DTD/svg11.dtd">
<!-- Generated by graphviz version 3.0.0 (20221109.1736)
 -->
<!-- Title: denoptim.graph.EdgeQueryTest.setUp Pages: 1 -->
<!--zoomable 321 -->
<svg id="main" version="1.1" xmlns="http://www.w3.org/2000/svg" xmlns:xlink="http://www.w3.org/1999/xlink" xml:space="preserve" onload="init(evt)">
<style type="text/css"><![CDATA[
.edge:hover path { stroke: red; }
.edge:hover polygon { stroke: red; fill: red; }
]]></style>
<script type="text/javascript"><![CDATA[
var edges = document.getElementsByTagName('g');
if (edges && edges.length) {
  for (var i=0;i<edges.length;i++) {
    if (edges[i].id.substr(0,4)=='edge') {
      edges[i].setAttribute('class','edge');
    }
  }
}
]]></script>
        <defs>
                <circle id="rim" cx="0" cy="0" r="7"/>
                <circle id="rim2" cx="0" cy="0" r="3.5"/>
                <g id="zoomPlus">
                        <use xlink:href="#rim" fill="#404040">
                                <set attributeName="fill" to="#808080" begin="zoomplus.mouseover" end="zoomplus.mouseout"/>
                        </use>
                        <path d="M-4,0h8M0,-4v8" fill="none" stroke="white" stroke-width="1.5" pointer-events="none"/>
                </g>
                <g id="zoomMin">
                        <use xlink:href="#rim" fill="#404040">
                                <set attributeName="fill" to="#808080" begin="zoomminus.mouseover" end="zoomminus.mouseout"/>
                        </use>
                        <path d="M-4,0h8" fill="none" stroke="white" stroke-width="1.5" pointer-events="none"/>
                </g>
                <g id="dirArrow">
                        <path fill="none" stroke="white" stroke-width="1.5" d="M0,-3.0v7 M-2.5,-0.5L0,-3.0L2.5,-0.5"/>
                </g>
               <g id="resetDef">
                       <use xlink:href="#rim2" fill="#404040">
                               <set attributeName="fill" to="#808080" begin="reset.mouseover" end="reset.mouseout"/>
                       </use>
               </g>
        </defs>

<script type="text/javascript">
var viewWidth = 909;
var viewHeight = 321;
var sectionId = 'dynsection-1';
</script>
<script xlink:href="svgpan.js"/>
<svg id="graph" class="graph">
<g id="viewport">
<title>denoptim.graph.EdgeQueryTest.setUp</title>
<polygon fill="white" stroke="transparent" points="-4,4 -4,-317 905,-317 905,4 -4,4"/>
<!-- Node1 -->
<g id="node1" class="node">
<title>Node1</title>
<g id="a_node1"><a xlink:title=" ">
<polygon fill="#bfbfbf" stroke="black" points="0,-144.5 0,-174.5 132,-174.5 132,-144.5 0,-144.5"/>
<text text-anchor="start" x="8" y="-162.5" font-family="Helvetica,sans-Serif" font-size="10.00">denoptim.graph.EdgeQuery</text>
<text text-anchor="middle" x="66" y="-151.5" font-family="Helvetica,sans-Serif" font-size="10.00">Test.setUp</text>
</a>
</g>
</g>
<!-- Node2 -->
<g id="node2" class="node">
<title>Node2</title>
<g id="a_node2"><a xlink:href="classdenoptim_1_1graph_1_1_d_graph_test.html#a1a2cc5c4d9ac6a66dc8f7baef0f3528f" target="_top" xlink:title="Build a graph meant to be used in unit tests.">
<polygon fill="white" stroke="black" points="168,-144.5 168,-174.5 332,-174.5 332,-144.5 168,-144.5"/>
<text text-anchor="start" x="176" y="-162.5" font-family="Helvetica,sans-Serif" font-size="10.00">denoptim.graph.DGraphTest.make</text>
<text text-anchor="middle" x="250" y="-151.5" font-family="Helvetica,sans-Serif" font-size="10.00">TestGraphA2</text>
</a>
</g>
</g>
<!-- Node1&#45;&gt;Node2 -->
<g id="edge1" class="edge">
<title>Node1&#45;&gt;Node2</title>
<path fill="none" stroke="midnightblue" d="M132.19,-159.5C140.48,-159.5 149.07,-159.5 157.67,-159.5"/>
<polygon fill="midnightblue" stroke="midnightblue" points="157.75,-163 167.75,-159.5 157.75,-156 157.75,-163"/>
</g>
<!-- Node3 -->
<g id="node3" class="node">
<title>Node3</title>
<g id="a_node3"><a xlink:href="classdenoptim_1_1graph_1_1_empty_vertex.html#af9d9965c880b45d82e9b4cc10e60efa7" target="_top" xlink:title="Adds an attachment point with no APClass or other attribute.">
<polygon fill="white" stroke="black" points="368,-288 368,-307 539,-307 539,-288 368,-288"/>
<text text-anchor="middle" x="453.5" y="-295" font-family="Helvetica,sans-Serif" font-size="10.00">denoptim.graph.EmptyVertex.addAP</text>
</a>
</g>
</g>
<!-- Node2&#45;&gt;Node3 -->
<g id="edge2" class="edge">
<title>Node2&#45;&gt;Node3</title>
<path fill="none" stroke="midnightblue" d="M261.3,-174.62C279.61,-200.26 320.4,-252.03 368,-278.5 372.14,-280.8 376.53,-282.82 381.06,-284.6"/>
<polygon fill="midnightblue" stroke="midnightblue" points="379.91,-287.9 390.5,-287.91 382.23,-281.3 379.91,-287.9"/>
</g>
<!-- Node5 -->
<g id="node5" class="node">
<title>Node5</title>
<g id="a_node5"><a xlink:href="classdenoptim_1_1graph_1_1_fragment.html#a1f1eee26acede7b656a922201399f2b4" target="_top" xlink:title="Adds an attachment point with a dummy APClass.">
<polygon fill="white" stroke="black" points="374.5,-232 374.5,-251 532.5,-251 532.5,-232 374.5,-232"/>
<text text-anchor="middle" x="453.5" y="-239" font-family="Helvetica,sans-Serif" font-size="10.00">denoptim.graph.Fragment.addAP</text>
</a>
</g>
</g>
<!-- Node2&#45;&gt;Node5 -->
<g id="edge4" class="edge">
<title>Node2&#45;&gt;Node5</title>
<path fill="none" stroke="midnightblue" d="M274.3,-174.52C297.29,-188.73 333.85,-209.74 368,-222.5 374.95,-225.1 382.37,-227.4 389.81,-229.42"/>
<polygon fill="midnightblue" stroke="midnightblue" points="389.01,-232.83 399.56,-231.93 390.75,-226.05 389.01,-232.83"/>
</g>
<!-- Node6 -->
<g id="node6" class="node">
<title>Node6</title>
<g id="a_node6"><a xlink:href="classdenoptim_1_1graph_1_1_d_graph.html#aedfe0dc03ea1250a9944fcd30a888fa1" target="_top" xlink:title="Adds the edge to the list of edges belonging to this graph.">
<polygon fill="white" stroke="black" points="374.5,-194 374.5,-213 532.5,-213 532.5,-194 374.5,-194"/>
<text text-anchor="middle" x="453.5" y="-201" font-family="Helvetica,sans-Serif" font-size="10.00">denoptim.graph.DGraph.addEdge</text>
</a>
</g>
</g>
<!-- Node2&#45;&gt;Node6 -->
<g id="edge6" class="edge">
<title>Node2&#45;&gt;Node6</title>
<path fill="none" stroke="midnightblue" d="M319.78,-174.52C345.62,-180.16 374.59,-186.49 398.85,-191.78"/>
<polygon fill="midnightblue" stroke="midnightblue" points="398.42,-195.27 408.94,-193.99 399.91,-188.43 398.42,-195.27"/>
</g>
<!-- Node7 -->
<g id="node7" class="node">
<title>Node7</title>
<g id="a_node7"><a xlink:href="classdenoptim_1_1graph_1_1_d_graph.html#a33a3299b77560786461345412d2fe193" target="_top" xlink:title="Appends a vertex to this graph without creating any edge.">
<polygon fill="white" stroke="black" points="385.5,-144.5 385.5,-174.5 521.5,-174.5 521.5,-144.5 385.5,-144.5"/>
<text text-anchor="start" x="393.5" y="-162.5" font-family="Helvetica,sans-Serif" font-size="10.00">denoptim.graph.DGraph.add</text>
<text text-anchor="middle" x="453.5" y="-151.5" font-family="Helvetica,sans-Serif" font-size="10.00">Vertex</text>
</a>
</g>
</g>
<!-- Node2&#45;&gt;Node7 -->
<g id="edge7" class="edge">
<title>Node2&#45;&gt;Node7</title>
<path fill="none" stroke="midnightblue" d="M332.09,-159.5C346.34,-159.5 361.15,-159.5 375.29,-159.5"/>
<polygon fill="midnightblue" stroke="midnightblue" points="375.46,-163 385.46,-159.5 375.46,-156 375.46,-163"/>
</g>
<!-- Node10 -->
<g id="node10" class="node">
<title>Node10</title>
<g id="a_node10"><a xlink:href="classdenoptim_1_1graph_1_1_vertex.html#aee39019987712f9784138e97917ac97f" target="_top" xlink:title="Get attachment point i on this vertex.">
<polygon fill="white" stroke="black" points="382.5,-106 382.5,-125 524.5,-125 524.5,-106 382.5,-106"/>
<text text-anchor="middle" x="453.5" y="-113" font-family="Helvetica,sans-Serif" font-size="10.00">denoptim.graph.Vertex.getAP</text>
</a>
</g>
</g>
<!-- Node2&#45;&gt;Node10 -->
<g id="edge10" class="edge">
<title>Node2&#45;&gt;Node10</title>
<path fill="none" stroke="midnightblue" d="M319.78,-144.48C345.62,-138.84 374.59,-132.51 398.85,-127.22"/>
<polygon fill="midnightblue" stroke="midnightblue" points="399.91,-130.57 408.94,-125.01 398.42,-123.73 399.91,-130.57"/>
</g>
<!-- Node12 -->
<g id="node12" class="node">
<title>Node12</title>
<g id="a_node12"><a xlink:href="classdenoptim_1_1graph_1_1_a_p_class.html#ac957566ebf8db3b83713ed0c12a56a3f" target="_top" xlink:title="Creates an APClass if it does not exist already, or returns the reference to the existing instance.">
<polygon fill="white" stroke="black" points="379,-50 379,-69 528,-69 528,-50 379,-50"/>
<text text-anchor="middle" x="453.5" y="-57" font-family="Helvetica,sans-Serif" font-size="10.00">denoptim.graph.APClass.make</text>
</a>
</g>
</g>
<!-- Node2&#45;&gt;Node12 -->
<g id="edge12" class="edge">
<title>Node2&#45;&gt;Node12</title>
<path fill="none" stroke="midnightblue" d="M277.63,-144.36C301.14,-131.19 336.48,-111.86 368,-96.5 384.93,-88.25 404.14,-79.77 419.96,-73.02"/>
<polygon fill="midnightblue" stroke="midnightblue" points="421.47,-76.18 429.32,-69.05 418.74,-69.73 421.47,-76.18"/>
</g>
<!-- Node16 -->
<g id="node16" class="node">
<title>Node16</title>
<g id="a_node16"><a xlink:href="classdenoptim_1_1graph_1_1_vertex.html#a867032399d8aad0a894cbf5b51406ac4" target="_top" xlink:title=" ">
<polygon fill="white" stroke="black" points="389.5,-0.5 389.5,-30.5 517.5,-30.5 517.5,-0.5 389.5,-0.5"/>
<text text-anchor="start" x="397.5" y="-18.5" font-family="Helvetica,sans-Serif" font-size="10.00">denoptim.graph.Vertex.set</text>
<text text-anchor="middle" x="453.5" y="-7.5" font-family="Helvetica,sans-Serif" font-size="10.00">BuildingBlockId</text>
</a>
</g>
</g>
<!-- Node2&#45;&gt;Node16 -->
<g id="edge17" class="edge">
<title>Node2&#45;&gt;Node16</title>
<path fill="none" stroke="midnightblue" d="M261.79,-144.3C280.53,-119.03 321.55,-68.39 368,-40.5 371.69,-38.28 375.59,-36.25 379.6,-34.4"/>
<polygon fill="midnightblue" stroke="midnightblue" points="381.3,-37.48 389.15,-30.36 378.58,-31.03 381.3,-37.48"/>
</g>
<!-- Node4 -->
<g id="node4" class="node">
<title>Node4</title>
<g id="a_node4"><a xlink:href="classdenoptim_1_1graph_1_1_empty_vertex.html#ade206f06a9a16581bbc22b654d4a2446" target="_top" xlink:title=" ">
<polygon fill="white" stroke="black" points="576,-282.5 576,-312.5 731,-312.5 731,-282.5 576,-282.5"/>
<text text-anchor="start" x="584" y="-300.5" font-family="Helvetica,sans-Serif" font-size="10.00">denoptim.graph.EmptyVertex.get</text>
<text text-anchor="middle" x="653.5" y="-289.5" font-family="Helvetica,sans-Serif" font-size="10.00">AttachmentPoints</text>
</a>
</g>
</g>
<!-- Node3&#45;&gt;Node4 -->
<g id="edge3" class="edge">
<title>Node3&#45;&gt;Node4</title>
<path fill="none" stroke="midnightblue" d="M539.04,-297.5C547.81,-297.5 556.73,-297.5 565.52,-297.5"/>
<polygon fill="midnightblue" stroke="midnightblue" points="565.76,-301 575.76,-297.5 565.76,-294 565.76,-301"/>
</g>
<!-- Node5&#45;&gt;Node5 -->
<g id="edge5" class="edge">
<title>Node5&#45;&gt;Node5</title>
<path fill="none" stroke="midnightblue" d="M422.67,-251.26C407.68,-260.07 417.95,-269.5 453.5,-269.5 478.49,-269.5 490.99,-264.84 491,-259"/>
<polygon fill="midnightblue" stroke="midnightblue" points="493.5,-256.55 484.33,-251.26 488.2,-261.12 493.5,-256.55"/>
</g>
<!-- Node8 -->
<g id="node8" class="node">
<title>Node8</title>
<g id="a_node8"><a xlink:href="classdenoptim_1_1graph_1_1_d_graph.html#a28d94625c4fae66625b3061f0361e959" target="_top" xlink:title="Checks if a number is already used as VertexIDs within the graph.">
<polygon fill="white" stroke="black" points="575,-193.5 575,-223.5 732,-223.5 732,-193.5 575,-193.5"/>
<text text-anchor="start" x="583" y="-211.5" font-family="Helvetica,sans-Serif" font-size="10.00">denoptim.graph.DGraph.contains</text>
<text text-anchor="middle" x="653.5" y="-200.5" font-family="Helvetica,sans-Serif" font-size="10.00">VertexID</text>
</a>
</g>
</g>
<!-- Node7&#45;&gt;Node8 -->
<g id="edge8" class="edge">
<title>Node7&#45;&gt;Node8</title>
<path fill="none" stroke="midnightblue" d="M515.25,-174.53C536.35,-179.76 560.18,-185.65 582,-191.05"/>
<polygon fill="midnightblue" stroke="midnightblue" points="581.31,-194.49 591.86,-193.49 583,-187.69 581.31,-194.49"/>
</g>
<!-- Node9 -->
<g id="node9" class="node">
<title>Node9</title>
<g id="a_node9"><a xlink:href="classdenoptim_1_1graph_1_1_d_graph.html#abc9d9eae901e1e868183f8bdaca13aea" target="_top" xlink:title=" ">
<polygon fill="white" stroke="black" points="586.5,-144.5 586.5,-174.5 720.5,-174.5 720.5,-144.5 586.5,-144.5"/>
<text text-anchor="start" x="594.5" y="-162.5" font-family="Helvetica,sans-Serif" font-size="10.00">denoptim.graph.DGraph.get</text>
<text text-anchor="middle" x="653.5" y="-151.5" font-family="Helvetica,sans-Serif" font-size="10.00">GraphId</text>
</a>
</g>
</g>
<!-- Node7&#45;&gt;Node9 -->
<g id="edge9" class="edge">
<title>Node7&#45;&gt;Node9</title>
<path fill="none" stroke="midnightblue" d="M521.53,-159.5C539.06,-159.5 558.08,-159.5 576.06,-159.5"/>
<polygon fill="midnightblue" stroke="midnightblue" points="576.21,-163 586.21,-159.5 576.21,-156 576.21,-163"/>
</g>
<!-- Node11 -->
<g id="node11" class="node">
<title>Node11</title>
<g id="a_node11"><a xlink:href="classdenoptim_1_1graph_1_1_vertex.html#a85aa901ec3fff8e566c0cc32d9c9f84e" target="_top" xlink:title=" ">
<polygon fill="white" stroke="black" points="589.5,-95.5 589.5,-125.5 717.5,-125.5 717.5,-95.5 589.5,-95.5"/>
<text text-anchor="start" x="597.5" y="-113.5" font-family="Helvetica,sans-Serif" font-size="10.00">denoptim.graph.Vertex.get</text>
<text text-anchor="middle" x="653.5" y="-102.5" font-family="Helvetica,sans-Serif" font-size="10.00">AttachmentPoints</text>
</a>
</g>
</g>
<!-- Node10&#45;&gt;Node11 -->
<g id="edge11" class="edge">
<title>Node10&#45;&gt;Node11</title>
<path fill="none" stroke="midnightblue" d="M524.59,-113.73C542.34,-113.28 561.45,-112.8 579.35,-112.35"/>
<polygon fill="midnightblue" stroke="midnightblue" points="579.53,-115.84 589.44,-112.09 579.35,-108.85 579.53,-115.84"/>
</g>
<!-- Node12&#45;&gt;Node12 -->
<g id="edge16" class="edge">
<title>Node12&#45;&gt;Node12</title>
<path fill="none" stroke="midnightblue" d="M422.67,-69.26C407.68,-78.07 417.95,-87.5 453.5,-87.5 478.49,-87.5 490.99,-82.84 491,-77"/>
<polygon fill="midnightblue" stroke="midnightblue" points="493.5,-74.55 484.33,-69.26 488.2,-79.12 493.5,-74.55"/>
</g>
<!-- Node13 -->
<g id="node13" class="node">
<title>Node13</title>
<g id="a_node13"><a xlink:href="classdenoptim_1_1graph_1_1_a_p_class.html#a6981e4878a844276c416f5cd31a80b66" target="_top" xlink:title="Evaluate is a candidate string can be used as APClass.">
<polygon fill="white" stroke="black" points="587,-44.5 587,-74.5 720,-74.5 720,-44.5 587,-44.5"/>
<text text-anchor="start" x="595" y="-62.5" font-family="Helvetica,sans-Serif" font-size="10.00">denoptim.graph.APClass.is</text>
<text text-anchor="middle" x="653.5" y="-51.5" font-family="Helvetica,sans-Serif" font-size="10.00">ValidAPClassString</text>
</a>
</g>
</g>
<!-- Node12&#45;&gt;Node13 -->
<g id="edge13" class="edge">
<title>Node12&#45;&gt;Node13</title>
<path fill="none" stroke="midnightblue" d="M528.23,-59.5C544.01,-59.5 560.71,-59.5 576.58,-59.5"/>
<polygon fill="midnightblue" stroke="midnightblue" points="576.87,-63 586.87,-59.5 576.87,-56 576.87,-63"/>
</g>
<!-- Node14 -->
<g id="node14" class="node">
<title>Node14</title>
<g id="a_node14"><a xlink:href="classdenoptim_1_1graph_1_1_a_p_class.html#a6ce0fb88cd79a6e154d889496c88455b" target="_top" xlink:title="Evaluates the given string as a candidate attachment point rule, i.e., as name of a fragmentation rul...">
<polygon fill="white" stroke="black" points="768,-69.5 768,-99.5 901,-99.5 901,-69.5 768,-69.5"/>
<text text-anchor="start" x="776" y="-87.5" font-family="Helvetica,sans-Serif" font-size="10.00">denoptim.graph.APClass.is</text>
<text text-anchor="middle" x="834.5" y="-76.5" font-family="Helvetica,sans-Serif" font-size="10.00">ValidAPRuleString</text>
</a>
</g>
</g>
<!-- Node13&#45;&gt;Node14 -->
<g id="edge14" class="edge">
<title>Node13&#45;&gt;Node14</title>
<path fill="none" stroke="midnightblue" d="M720.14,-68.67C732.42,-70.38 745.35,-72.19 757.9,-73.94"/>
<polygon fill="midnightblue" stroke="midnightblue" points="757.48,-77.42 767.87,-75.33 758.45,-70.48 757.48,-77.42"/>
</g>
<!-- Node15 -->
<g id="node15" class="node">
<title>Node15</title>
<g id="a_node15"><a xlink:href="classdenoptim_1_1graph_1_1_a_p_class.html#ac13faa6d99c5b9c3f89a42f00f4744ea" target="_top" xlink:title="Evaluate the given string as a candidate for attachment point subclass, i.e., the attachment point cl...">
<polygon fill="white" stroke="black" points="768,-20.5 768,-50.5 901,-50.5 901,-20.5 768,-20.5"/>
<text text-anchor="start" x="776" y="-38.5" font-family="Helvetica,sans-Serif" font-size="10.00">denoptim.graph.APClass.is</text>
<text text-anchor="middle" x="834.5" y="-27.5" font-family="Helvetica,sans-Serif" font-size="10.00">ValidAPSubCLassString</text>
</a>
</g>
</g>
<!-- Node13&#45;&gt;Node15 -->
<g id="edge15" class="edge">
<title>Node13&#45;&gt;Node15</title>
<path fill="none" stroke="midnightblue" d="M720.14,-50.7C732.42,-49.05 745.35,-47.32 757.9,-45.64"/>
<polygon fill="midnightblue" stroke="midnightblue" points="758.43,-49.1 767.87,-44.3 757.49,-42.16 758.43,-49.1"/>
</g>
</g>
</svg>
        <g id="navigator" transform="translate(0 0)" fill="#404254">
                <rect fill="#f2f5e9" fill-opacity="0.5" stroke="#606060" stroke-width=".5" x="0" y="0" width="60" height="60"/>
                <use id="zoomplus" xlink:href="#zoomPlus" x="17" y="9" onmousedown="handleZoom(evt,'in')"/>
                <use id="zoomminus" xlink:href="#zoomMin" x="42" y="9" onmousedown="handleZoom(evt,'out')"/>
                <use id="reset" xlink:href="#resetDef" x="30" y="36" onmousedown="handleReset()"/>
                <g id="arrowUp" xlink:href="#dirArrow" transform="translate(30 24)" onmousedown="handlePan(0,-1)">
                  <use xlink:href="#rim" fill="#404040">
                        <set attributeName="fill" to="#808080" begin="arrowUp.mouseover" end="arrowUp.mouseout"/>
                  </use>
                  <path fill="none" stroke="white" stroke-width="1.5" d="M0,-3.0v7 M-2.5,-0.5L0,-3.0L2.5,-0.5"/>
                </g>
                <g id="arrowRight" xlink:href="#dirArrow" transform="rotate(90) translate(36 -43)" onmousedown="handlePan(1,0)">
                  <use xlink:href="#rim" fill="#404040">
                        <set attributeName="fill" to="#808080" begin="arrowRight.mouseover" end="arrowRight.mouseout"/>
                  </use>
                  <path fill="none" stroke="white" stroke-width="1.5" d="M0,-3.0v7 M-2.5,-0.5L0,-3.0L2.5,-0.5"/>
                </g>
                <g id="arrowDown" xlink:href="#dirArrow" transform="rotate(180) translate(-30 -48)" onmousedown="handlePan(0,1)">
                  <use xlink:href="#rim" fill="#404040">
                        <set attributeName="fill" to="#808080" begin="arrowDown.mouseover" end="arrowDown.mouseout"/>
                  </use>
                  <path fill="none" stroke="white" stroke-width="1.5" d="M0,-3.0v7 M-2.5,-0.5L0,-3.0L2.5,-0.5"/>
                </g>
                <g id="arrowLeft" xlink:href="#dirArrow" transform="rotate(270) translate(-36 17)" onmousedown="handlePan(-1,0)">
                  <use xlink:href="#rim" fill="#404040">
                        <set attributeName="fill" to="#808080" begin="arrowLeft.mouseover" end="arrowLeft.mouseout"/>
                  </use>
                  <path fill="none" stroke="white" stroke-width="1.5" d="M0,-3.0v7 M-2.5,-0.5L0,-3.0L2.5,-0.5"/>
                </g>
        </g>
        <svg viewBox="0 0 15 15" width="100%" height="30px" preserveAspectRatio="xMaxYMin meet">
         <g id="arrow_out" transform="scale(0.3 0.3)">
          <a xlink:href="classdenoptim_1_1graph_1_1_edge_query_test_a15f2a6ce2785e2d4f4c1cbf2c8423aa1_cgraph_org.svg" target="_base">
           <rect id="button" ry="5" rx="5" y="6" x="6" height="38" width="38"
                fill="#f2f5e9" fill-opacity="0.5" stroke="#606060" stroke-width="1.0"/>
           <path id="arrow"
             d="M 11.500037,31.436501 C 11.940474,20.09759 22.043105,11.32322 32.158766,21.979434 L 37.068811,17.246167 C 37.068811,17.246167 37.088388,32 37.088388,32 L 22.160133,31.978069 C 22.160133,31.978069 26.997745,27.140456 26.997745,27.140456 C 18.528582,18.264221 13.291696,25.230495 11.500037,31.436501 z"
             style="fill:#404040;"/>
          </a>
         </g>
        </svg>
</svg>
