<?xml version="1.0" encoding="UTF-8" standalone="no"?>
<!DOCTYPE svg PUBLIC "-//W3C//DTD SVG 1.1//EN"
 "http://www.w3.org/Graphics/SVG/1.1/DTD/svg11.dtd">
<!-- Generated by graphviz version 3.0.0 (20221109.1736)
 -->
<!-- Title: denoptim.io.DenoptimIO.readAllAtomContainers Pages: 1 -->
<svg width="1664pt" height="543pt"
 viewBox="0.00 0.00 1664.00 542.88" xmlns="http://www.w3.org/2000/svg" xmlns:xlink="http://www.w3.org/1999/xlink">
<g id="graph0" class="graph" transform="scale(1 1) rotate(0) translate(4 538.88)">
<title>denoptim.io.DenoptimIO.readAllAtomContainers</title>
<polygon fill="white" stroke="transparent" points="-4,4 -4,-538.88 1660,-538.88 1660,4 -4,4"/>
<!-- Node1 -->
<g id="node1" class="node">
<title>Node1</title>
<g id="a_node1"><a xlink:title="Returns a single collection with all atom containers found in a file of any format.">
<polygon fill="#bfbfbf" stroke="black" points="1515,-312 1515,-342 1656,-342 1656,-312 1515,-312"/>
<text text-anchor="start" x="1523" y="-330" font-family="Helvetica,sans-Serif" font-size="10.00">denoptim.io.DenoptimIO.read</text>
<text text-anchor="middle" x="1585.5" y="-319" font-family="Helvetica,sans-Serif" font-size="10.00">AllAtomContainers</text>
</a>
</g>
</g>
<!-- Node1&#45;&gt;Node1 -->
<g id="edge35" class="edge">
<title>Node1&#45;&gt;Node1</title>
<path fill="none" stroke="midnightblue" d="M1621.39,-352.46C1616.94,-357.18 1604.97,-360.5 1585.5,-360.5 1553.54,-360.5 1541.81,-351.56 1550.3,-342.16"/>
<polygon fill="midnightblue" stroke="midnightblue" points="1624.86,-351.9 1620.7,-342.16 1617.88,-352.37 1624.86,-351.9"/>
</g>
<!-- Node2 -->
<g id="node2" class="node">
<title>Node2</title>
<g id="a_node2"><a xlink:href="classdenoptim_1_1gui_1_1_molecule_view_panel.html#a7823d9f27dc96ba2c777339e181dcfdc" target="_top" xlink:title=" ">
<polygon fill="white" stroke="black" points="1316.5,-444 1316.5,-474 1450.5,-474 1450.5,-444 1316.5,-444"/>
<text text-anchor="start" x="1324.5" y="-462" font-family="Helvetica,sans-Serif" font-size="10.00">denoptim.gui.MoleculeView</text>
<text text-anchor="middle" x="1383.5" y="-451" font-family="Helvetica,sans-Serif" font-size="10.00">Panel.fillDataTable</text>
</a>
</g>
</g>
<!-- Node1&#45;&gt;Node2 -->
<g id="edge1" class="edge">
<title>Node1&#45;&gt;Node2</title>
<path fill="none" stroke="midnightblue" d="M1566.32,-349.94C1546.95,-372.97 1514.27,-407.96 1479,-429 1468.95,-435 1457.57,-439.93 1446.28,-443.93"/>
<polygon fill="midnightblue" stroke="midnightblue" points="1569.17,-351.99 1572.84,-342.05 1563.77,-347.54 1569.17,-351.99"/>
</g>
<!-- Node3 -->
<g id="node3" class="node">
<title>Node3</title>
<g id="a_node3"><a xlink:href="classdenoptim_1_1gui_1_1_molecule_view_panel.html#a747fcea053ce9110f17b68d7674b0b2d" target="_top" xlink:title="Loads a structure in the Jmol viewer.">
<polygon fill="white" stroke="black" points="1072,-492 1072,-522 1252,-522 1252,-492 1072,-492"/>
<text text-anchor="start" x="1080" y="-510" font-family="Helvetica,sans-Serif" font-size="10.00">denoptim.gui.MoleculeView</text>
<text text-anchor="middle" x="1162" y="-499" font-family="Helvetica,sans-Serif" font-size="10.00">Panel.loadChemicalStructureFromFile</text>
</a>
</g>
</g>
<!-- Node1&#45;&gt;Node3 -->
<g id="edge25" class="edge">
<title>Node1&#45;&gt;Node3</title>
<path fill="none" stroke="midnightblue" d="M1577.96,-351.79C1565.94,-391.72 1536.16,-469.12 1479,-502 1399.34,-547.83 1288.64,-535.83 1221.62,-522.05"/>
<polygon fill="midnightblue" stroke="midnightblue" points="1581.36,-352.62 1580.76,-342.04 1574.63,-350.68 1581.36,-352.62"/>
</g>
<!-- Node4 -->
<g id="node4" class="node">
<title>Node4</title>
<g id="a_node4"><a xlink:href="classdenoptim_1_1gui_1_1_molecule_view_panel.html#af99749d5f2b6b6d83ce1b0f9b5c94095" target="_top" xlink:title=" ">
<polygon fill="white" stroke="black" points="1095,-428 1095,-458 1229,-458 1229,-428 1095,-428"/>
<text text-anchor="start" x="1103" y="-446" font-family="Helvetica,sans-Serif" font-size="10.00">denoptim.gui.MoleculeView</text>
<text text-anchor="middle" x="1162" y="-435" font-family="Helvetica,sans-Serif" font-size="10.00">Panel.showPopup</text>
</a>
</g>
</g>
<!-- Node1&#45;&gt;Node4 -->
<g id="edge42" class="edge">
<title>Node1&#45;&gt;Node4</title>
<path fill="none" stroke="midnightblue" d="M1556.47,-348.11C1536.05,-362.43 1507.13,-380.6 1479,-391 1396.09,-421.66 1294.27,-434.29 1229.01,-439.47"/>
<polygon fill="midnightblue" stroke="midnightblue" points="1558.58,-350.9 1564.68,-342.23 1554.51,-345.21 1558.58,-350.9"/>
</g>
<!-- Node7 -->
<g id="node7" class="node">
<title>Node7</title>
<g id="a_node7"><a xlink:href="classdenoptim_1_1gui_1_1_fragment_view_panel.html#a114ae07298284cc78bb2167f20511308" target="_top" xlink:title=" ">
<polygon fill="white" stroke="black" points="1298.5,-312 1298.5,-342 1468.5,-342 1468.5,-312 1298.5,-312"/>
<text text-anchor="start" x="1306.5" y="-330" font-family="Helvetica,sans-Serif" font-size="10.00">denoptim.gui.FragmentView</text>
<text text-anchor="middle" x="1383.5" y="-319" font-family="Helvetica,sans-Serif" font-size="10.00">Panel.getStructureFromJmolViewer</text>
</a>
</g>
</g>
<!-- Node1&#45;&gt;Node7 -->
<g id="edge7" class="edge">
<title>Node1&#45;&gt;Node7</title>
<path fill="none" stroke="midnightblue" d="M1504.58,-327C1492.78,-327 1480.6,-327 1468.72,-327"/>
<polygon fill="midnightblue" stroke="midnightblue" points="1504.83,-330.5 1514.83,-327 1504.83,-323.5 1504.83,-330.5"/>
</g>
<!-- Node10 -->
<g id="node10" class="node">
<title>Node10</title>
<g id="a_node10"><a xlink:href="classdenoptim_1_1gui_1_1_g_u_i_vertex_inspector.html#a7e833ba52549966556cc1bd1852dcfa4" target="_top" xlink:title=" ">
<polygon fill="white" stroke="black" points="431,-365 431,-395 620,-395 620,-365 431,-365"/>
<text text-anchor="start" x="439" y="-383" font-family="Helvetica,sans-Serif" font-size="10.00">denoptim.gui.GUIVertexInspector.import</text>
<text text-anchor="middle" x="525.5" y="-372" font-family="Helvetica,sans-Serif" font-size="10.00">StructureFromFile</text>
</a>
</g>
</g>
<!-- Node1&#45;&gt;Node10 -->
<g id="edge23" class="edge">
<title>Node1&#45;&gt;Node10</title>
<path fill="none" stroke="midnightblue" d="M1520.63,-344.33C1506.99,-347.41 1492.59,-350.21 1479,-352 1166.55,-393.18 791.67,-388.58 620.29,-383.53"/>
<polygon fill="midnightblue" stroke="midnightblue" points="1521.47,-347.73 1530.41,-342.05 1519.87,-340.91 1521.47,-347.73"/>
</g>
<!-- Node18 -->
<g id="node18" class="node">
<title>Node18</title>
<g id="a_node18"><a xlink:href="classdenoptim_1_1io_1_1_iterating_atom_container_reader.html#a598762effca7b540297b4112bb58266f" target="_top" xlink:title="Constructs an iterator over the containers that can be found in the given file.">
<polygon fill="white" stroke="black" points="1288,-252.5 1288,-293.5 1479,-293.5 1479,-252.5 1288,-252.5"/>
<text text-anchor="start" x="1296" y="-281.5" font-family="Helvetica,sans-Serif" font-size="10.00">denoptim.io.IteratingAtom</text>
<text text-anchor="start" x="1296" y="-270.5" font-family="Helvetica,sans-Serif" font-size="10.00">ContainerReader.IteratingAtomContainer</text>
<text text-anchor="middle" x="1383.5" y="-259.5" font-family="Helvetica,sans-Serif" font-size="10.00">Reader</text>
</a>
</g>
</g>
<!-- Node1&#45;&gt;Node18 -->
<g id="edge24" class="edge">
<title>Node1&#45;&gt;Node18</title>
<path fill="none" stroke="midnightblue" d="M1518.91,-309.29C1500.22,-304.25 1479.71,-298.71 1460.47,-293.51"/>
<polygon fill="midnightblue" stroke="midnightblue" points="1518.22,-312.73 1528.79,-311.96 1520.05,-305.97 1518.22,-312.73"/>
</g>
<!-- Node19 -->
<g id="node19" class="node">
<title>Node19</title>
<g id="a_node19"><a xlink:href="classdenoptim_1_1fitness_1_1_fitness_expression_parser.html#ad0e05471c6a67fe007e5897018bf6b84" target="_top" xlink:title="For now we only accept a filename from which we read in a molecule.">
<polygon fill="white" stroke="black" points="1294,-193 1294,-223 1473,-223 1473,-193 1294,-193"/>
<text text-anchor="start" x="1302" y="-211" font-family="Helvetica,sans-Serif" font-size="10.00">denoptim.fitness.Fitness</text>
<text text-anchor="middle" x="1383.5" y="-200" font-family="Helvetica,sans-Serif" font-size="10.00">ExpressionParser.makeIBitFingerprint</text>
</a>
</g>
</g>
<!-- Node1&#45;&gt;Node19 -->
<g id="edge26" class="edge">
<title>Node1&#45;&gt;Node19</title>
<path fill="none" stroke="midnightblue" d="M1561.34,-304.95C1540.95,-286.46 1509.78,-260.36 1479,-243 1465.13,-235.18 1449.18,-228.49 1434.38,-223.13"/>
<polygon fill="midnightblue" stroke="midnightblue" points="1559.14,-307.68 1568.86,-311.87 1563.87,-302.53 1559.14,-307.68"/>
</g>
<!-- Node27 -->
<g id="node27" class="node">
<title>Node27</title>
<g id="a_node27"><a xlink:href="classdenoptim_1_1task_1_1_fitness_task.html#a3ce62241b837ed3807a424211d9270c8" target="_top" xlink:title=" ">
<polygon fill="white" stroke="black" points="1309,-144 1309,-174 1458,-174 1458,-144 1309,-144"/>
<text text-anchor="start" x="1317" y="-162" font-family="Helvetica,sans-Serif" font-size="10.00">denoptim.task.FitnessTask.run</text>
<text text-anchor="middle" x="1383.5" y="-151" font-family="Helvetica,sans-Serif" font-size="10.00">ExternalFitness</text>
</a>
</g>
</g>
<!-- Node1&#45;&gt;Node27 -->
<g id="edge36" class="edge">
<title>Node1&#45;&gt;Node27</title>
<path fill="none" stroke="midnightblue" d="M1573.14,-302.67C1556.86,-270.55 1523.86,-214.49 1479,-184 1472.68,-179.71 1465.67,-176.15 1458.39,-173.21"/>
<polygon fill="midnightblue" stroke="midnightblue" points="1570.08,-304.4 1577.64,-311.82 1576.36,-301.3 1570.08,-304.4"/>
</g>
<!-- Node33 -->
<g id="node33" class="node">
<title>Node33</title>
<g id="a_node33"><a xlink:href="classdenoptim_1_1io_1_1_denoptim_i_o_test.html#ac52f3b49403bd5822e1ee1abeff2f628" target="_top" xlink:title=" ">
<polygon fill="white" stroke="black" points="1304.5,-95 1304.5,-125 1462.5,-125 1462.5,-95 1304.5,-95"/>
<text text-anchor="start" x="1312.5" y="-113" font-family="Helvetica,sans-Serif" font-size="10.00">denoptim.io.DenoptimIOTest.test</text>
<text text-anchor="middle" x="1383.5" y="-102" font-family="Helvetica,sans-Serif" font-size="10.00">ReadAllAtomContainersFromCIF</text>
</a>
</g>
</g>
<!-- Node1&#45;&gt;Node33 -->
<g id="edge43" class="edge">
<title>Node1&#45;&gt;Node33</title>
<path fill="none" stroke="midnightblue" d="M1577.8,-302.05C1565.42,-260.84 1534.96,-178.74 1479,-135 1474.05,-131.13 1468.56,-127.86 1462.79,-125.09"/>
<polygon fill="midnightblue" stroke="midnightblue" points="1574.49,-303.2 1580.63,-311.83 1581.21,-301.25 1574.49,-303.2"/>
</g>
<!-- Node2&#45;&gt;Node2 -->
<g id="edge2" class="edge">
<title>Node2&#45;&gt;Node2</title>
<path fill="none" stroke="midnightblue" d="M1419.39,-484.46C1414.94,-489.18 1402.97,-492.5 1383.5,-492.5 1351.54,-492.5 1339.81,-483.56 1348.3,-474.16"/>
<polygon fill="midnightblue" stroke="midnightblue" points="1422.86,-483.9 1418.7,-474.16 1415.88,-484.37 1422.86,-483.9"/>
</g>
<!-- Node2&#45;&gt;Node3 -->
<g id="edge3" class="edge">
<title>Node2&#45;&gt;Node3</title>
<path fill="none" stroke="midnightblue" d="M1306.46,-475.63C1282.16,-480.94 1255.42,-486.79 1231.68,-491.98"/>
<polygon fill="midnightblue" stroke="midnightblue" points="1307.32,-479.02 1316.35,-473.47 1305.83,-472.18 1307.32,-479.02"/>
</g>
<!-- Node2&#45;&gt;Node4 -->
<g id="edge4" class="edge">
<title>Node2&#45;&gt;Node4</title>
<path fill="none" stroke="midnightblue" d="M1306.12,-453.43C1281,-451.6 1253.3,-449.58 1229.02,-447.81"/>
<polygon fill="midnightblue" stroke="midnightblue" points="1306.12,-456.94 1316.35,-454.18 1306.63,-449.96 1306.12,-456.94"/>
</g>
<!-- Node5 -->
<g id="node5" class="node">
<title>Node5</title>
<g id="a_node5"><a xlink:href="classdenoptim_1_1gui_1_1_molecule_view_panel.html#a4e3a3010d8d8ac998af38872fd03f092" target="_top" xlink:title=" ">
<polygon fill="white" stroke="black" points="881,-428 881,-458 1015,-458 1015,-428 881,-428"/>
<text text-anchor="start" x="889" y="-446" font-family="Helvetica,sans-Serif" font-size="10.00">denoptim.gui.MoleculeView</text>
<text text-anchor="middle" x="948" y="-435" font-family="Helvetica,sans-Serif" font-size="10.00">Panel.initialize</text>
</a>
</g>
</g>
<!-- Node4&#45;&gt;Node5 -->
<g id="edge5" class="edge">
<title>Node4&#45;&gt;Node5</title>
<path fill="none" stroke="midnightblue" d="M1084.51,-443C1061.77,-443 1037.08,-443 1015.07,-443"/>
<polygon fill="midnightblue" stroke="midnightblue" points="1084.79,-446.5 1094.79,-443 1084.79,-439.5 1084.79,-446.5"/>
</g>
<!-- Node6 -->
<g id="node6" class="node">
<title>Node6</title>
<g id="a_node6"><a xlink:href="classdenoptim_1_1gui_1_1_molecule_view_panel.html#a58a6483ddef60d65b376afd4098e9465" target="_top" xlink:title="Constructor.">
<polygon fill="white" stroke="black" points="673,-428 673,-458 807,-458 807,-428 673,-428"/>
<text text-anchor="start" x="681" y="-446" font-family="Helvetica,sans-Serif" font-size="10.00">denoptim.gui.MoleculeView</text>
<text text-anchor="middle" x="740" y="-435" font-family="Helvetica,sans-Serif" font-size="10.00">Panel.MoleculeViewPanel</text>
</a>
</g>
</g>
<!-- Node5&#45;&gt;Node6 -->
<g id="edge6" class="edge">
<title>Node5&#45;&gt;Node6</title>
<path fill="none" stroke="midnightblue" d="M870.83,-443C849.88,-443 827.34,-443 807.01,-443"/>
<polygon fill="midnightblue" stroke="midnightblue" points="870.97,-446.5 880.97,-443 870.97,-439.5 870.97,-446.5"/>
</g>
<!-- Node8 -->
<g id="node8" class="node">
<title>Node8</title>
<g id="a_node8"><a xlink:href="classdenoptim_1_1gui_1_1_fragment_view_panel.html#ae583c90795f338ffbf02776738700c09" target="_top" xlink:title="Returns the chemical representation of the currently loaded chemical object.">
<polygon fill="white" stroke="black" points="1093.5,-234 1093.5,-264 1230.5,-264 1230.5,-234 1093.5,-234"/>
<text text-anchor="start" x="1101.5" y="-252" font-family="Helvetica,sans-Serif" font-size="10.00">denoptim.gui.FragmentView</text>
<text text-anchor="middle" x="1162" y="-241" font-family="Helvetica,sans-Serif" font-size="10.00">Panel.getLoadedStructure</text>
</a>
</g>
</g>
<!-- Node7&#45;&gt;Node8 -->
<g id="edge8" class="edge">
<title>Node7&#45;&gt;Node8</title>
<path fill="none" stroke="midnightblue" d="M1299.93,-308.32C1295.83,-306.69 1291.83,-304.92 1288,-303 1269.62,-293.82 1270.26,-283.41 1252,-274 1244.58,-270.18 1236.51,-266.87 1228.34,-264.04"/>
<polygon fill="midnightblue" stroke="midnightblue" points="1299.03,-311.72 1309.62,-311.9 1301.45,-305.16 1299.03,-311.72"/>
</g>
<!-- Node15 -->
<g id="node15" class="node">
<title>Node15</title>
<g id="a_node15"><a xlink:href="classdenoptim_1_1gui_1_1_fragment_view_panel.html#a4e986670257e51a91dcf4aa090043427" target="_top" xlink:title="Loads a molecule build from a smiles string.">
<polygon fill="white" stroke="black" points="879.5,-318 879.5,-348 1016.5,-348 1016.5,-318 879.5,-318"/>
<text text-anchor="start" x="887.5" y="-336" font-family="Helvetica,sans-Serif" font-size="10.00">denoptim.gui.FragmentView</text>
<text text-anchor="middle" x="948" y="-325" font-family="Helvetica,sans-Serif" font-size="10.00">Panel.loadSMILES</text>
</a>
</g>
</g>
<!-- Node7&#45;&gt;Node15 -->
<g id="edge18" class="edge">
<title>Node7&#45;&gt;Node15</title>
<path fill="none" stroke="midnightblue" d="M1288.33,-328.3C1206.34,-329.44 1089.49,-331.06 1016.51,-332.07"/>
<polygon fill="midnightblue" stroke="midnightblue" points="1288.45,-331.8 1298.4,-328.16 1288.36,-324.8 1288.45,-331.8"/>
</g>
<!-- Node17 -->
<g id="node17" class="node">
<title>Node17</title>
<g id="a_node17"><a xlink:href="classdenoptim_1_1gui_1_1_fragment_view_panel.html#a208bb82cc9e83c541c42345ba46c084b" target="_top" xlink:title=" ">
<polygon fill="white" stroke="black" points="1080,-283 1080,-313 1244,-313 1244,-283 1080,-283"/>
<text text-anchor="start" x="1088" y="-301" font-family="Helvetica,sans-Serif" font-size="10.00">denoptim.gui.FragmentView</text>
<text text-anchor="middle" x="1162" y="-290" font-family="Helvetica,sans-Serif" font-size="10.00">Panel.make3DusingCDKgenerator</text>
</a>
</g>
</g>
<!-- Node7&#45;&gt;Node17 -->
<g id="edge21" class="edge">
<title>Node7&#45;&gt;Node17</title>
<path fill="none" stroke="midnightblue" d="M1288.18,-314.54C1273.51,-312.6 1258.46,-310.61 1244.12,-308.72"/>
<polygon fill="midnightblue" stroke="midnightblue" points="1287.89,-318.03 1298.26,-315.87 1288.81,-311.09 1287.89,-318.03"/>
</g>
<!-- Node9 -->
<g id="node9" class="node">
<title>Node9</title>
<g id="a_node9"><a xlink:href="classdenoptim_1_1gui_1_1_vertex_view_panel.html#a756c2375d70d66c5bbba03e8772bb24a" target="_top" xlink:title="Returns the currently loaded vertex.">
<polygon fill="white" stroke="black" points="658,-269 658,-299 822,-299 822,-269 658,-269"/>
<text text-anchor="start" x="666" y="-287" font-family="Helvetica,sans-Serif" font-size="10.00">denoptim.gui.VertexViewPanel.get</text>
<text text-anchor="middle" x="740" y="-276" font-family="Helvetica,sans-Serif" font-size="10.00">LoadedStructure</text>
</a>
</g>
</g>
<!-- Node8&#45;&gt;Node9 -->
<g id="edge9" class="edge">
<title>Node8&#45;&gt;Node9</title>
<path fill="none" stroke="midnightblue" d="M1082.83,-255.51C1008.57,-261.7 897.39,-270.97 822.16,-277.24"/>
<polygon fill="midnightblue" stroke="midnightblue" points="1083.38,-258.98 1093.05,-254.66 1082.8,-252 1083.38,-258.98"/>
</g>
<!-- Node9&#45;&gt;Node10 -->
<g id="edge10" class="edge">
<title>Node9&#45;&gt;Node10</title>
<path fill="none" stroke="midnightblue" d="M665.05,-303.5C661.91,-305.18 658.87,-307.01 656,-309 634.36,-323.96 641.95,-341.49 620,-356 614.83,-359.42 609.2,-362.35 603.35,-364.87"/>
<polygon fill="midnightblue" stroke="midnightblue" points="666.66,-306.6 674.15,-299.11 663.62,-300.3 666.66,-306.6"/>
</g>
<!-- Node11 -->
<g id="node11" class="node">
<title>Node11</title>
<g id="a_node11"><a xlink:href="classdenoptim_1_1gui_1_1_g_u_i_vertex_inspector.html#acadecc92299a7ea46113c06382a1f333" target="_top" xlink:title="Initialize the panel and add buttons.">
<polygon fill="white" stroke="black" points="198,-299.5 198,-318.5 395,-318.5 395,-299.5 198,-299.5"/>
<text text-anchor="middle" x="296.5" y="-306.5" font-family="Helvetica,sans-Serif" font-size="10.00">denoptim.gui.GUIVertexInspector.initialize</text>
</a>
</g>
</g>
<!-- Node9&#45;&gt;Node11 -->
<g id="edge15" class="edge">
<title>Node9&#45;&gt;Node11</title>
<path fill="none" stroke="midnightblue" d="M647.57,-289.18C573.89,-293.35 470.51,-299.2 395.2,-303.47"/>
<polygon fill="midnightblue" stroke="midnightblue" points="647.98,-292.66 657.76,-288.6 647.58,-285.67 647.98,-292.66"/>
</g>
<!-- Node13 -->
<g id="node13" class="node">
<title>Node13</title>
<g id="a_node13"><a xlink:href="classdenoptim_1_1gui_1_1_g_u_i_vertex_inspector.html#a530b2f509d3e15fd285526a34461cc9e" target="_top" xlink:title="Imports the given SMILES into the viewer.">
<polygon fill="white" stroke="black" points="431,-316 431,-346 620,-346 620,-316 431,-316"/>
<text text-anchor="start" x="439" y="-334" font-family="Helvetica,sans-Serif" font-size="10.00">denoptim.gui.GUIVertexInspector.import</text>
<text text-anchor="middle" x="525.5" y="-323" font-family="Helvetica,sans-Serif" font-size="10.00">StructureFromSMILES</text>
</a>
</g>
</g>
<!-- Node9&#45;&gt;Node13 -->
<g id="edge13" class="edge">
<title>Node9&#45;&gt;Node13</title>
<path fill="none" stroke="midnightblue" d="M661.25,-301.2C639.34,-306.04 615.69,-311.27 594.41,-315.98"/>
<polygon fill="midnightblue" stroke="midnightblue" points="662.17,-304.58 671.18,-299 660.66,-297.74 662.17,-304.58"/>
</g>
<!-- Node14 -->
<g id="node14" class="node">
<title>Node14</title>
<g id="a_node14"><a xlink:href="classdenoptim_1_1gui_1_1_g_u_i_vertex_inspector.html#a09363e21a5254efe8f128a99e82acbf0" target="_top" xlink:title=" ">
<polygon fill="white" stroke="black" points="434,-228 434,-258 617,-258 617,-228 434,-228"/>
<text text-anchor="start" x="442" y="-246" font-family="Helvetica,sans-Serif" font-size="10.00">denoptim.gui.GUIVertexInspector.save</text>
<text text-anchor="middle" x="525.5" y="-235" font-family="Helvetica,sans-Serif" font-size="10.00">UnsavedChanges</text>
</a>
</g>
</g>
<!-- Node9&#45;&gt;Node14 -->
<g id="edge16" class="edge">
<title>Node9&#45;&gt;Node14</title>
<path fill="none" stroke="midnightblue" d="M651.01,-267.02C635.56,-264.04 619.57,-260.96 604.41,-258.03"/>
<polygon fill="midnightblue" stroke="midnightblue" points="650.6,-270.51 661.08,-268.97 651.92,-263.63 650.6,-270.51"/>
</g>
<!-- Node10&#45;&gt;Node11 -->
<g id="edge11" class="edge">
<title>Node10&#45;&gt;Node11</title>
<path fill="none" stroke="midnightblue" d="M452.93,-362.31C445.5,-360.27 438.08,-358.15 431,-356 392.91,-344.43 349.57,-328.68 322.87,-318.68"/>
<polygon fill="midnightblue" stroke="midnightblue" points="452.11,-365.72 462.68,-364.94 453.93,-358.96 452.11,-365.72"/>
</g>
<!-- Node12 -->
<g id="node12" class="node">
<title>Node12</title>
<g id="a_node12"><a xlink:href="classdenoptim_1_1gui_1_1_g_u_i_vertex_inspector.html#abc5d3c33ad9b2b114ce43e9b2cd577bb" target="_top" xlink:title="Constructor.">
<polygon fill="white" stroke="black" points="0,-294 0,-324 162,-324 162,-294 0,-294"/>
<text text-anchor="start" x="8" y="-312" font-family="Helvetica,sans-Serif" font-size="10.00">denoptim.gui.GUIVertexInspector.</text>
<text text-anchor="middle" x="81" y="-301" font-family="Helvetica,sans-Serif" font-size="10.00">GUIVertexInspector</text>
</a>
</g>
</g>
<!-- Node11&#45;&gt;Node12 -->
<g id="edge12" class="edge">
<title>Node11&#45;&gt;Node12</title>
<path fill="none" stroke="midnightblue" d="M187.69,-309C179.06,-309 170.44,-309 162.05,-309"/>
<polygon fill="midnightblue" stroke="midnightblue" points="187.81,-312.5 197.81,-309 187.81,-305.5 187.81,-312.5"/>
</g>
<!-- Node13&#45;&gt;Node11 -->
<g id="edge14" class="edge">
<title>Node13&#45;&gt;Node11</title>
<path fill="none" stroke="midnightblue" d="M420.63,-320.93C412.21,-320.12 403.71,-319.29 395.33,-318.48"/>
<polygon fill="midnightblue" stroke="midnightblue" points="420.57,-324.44 430.86,-321.92 421.24,-317.48 420.57,-324.44"/>
</g>
<!-- Node14&#45;&gt;Node11 -->
<g id="edge17" class="edge">
<title>Node14&#45;&gt;Node11</title>
<path fill="none" stroke="midnightblue" d="M462.97,-260.89C420.27,-273.3 365.06,-289.36 330.46,-299.42"/>
<polygon fill="midnightblue" stroke="midnightblue" points="464.08,-264.21 472.71,-258.06 462.13,-257.49 464.08,-264.21"/>
</g>
<!-- Node16 -->
<g id="node16" class="node">
<title>Node16</title>
<g id="a_node16"><a xlink:href="classdenoptim_1_1gui_1_1_vertex_view_panel.html#aa5e4bcd31e5652e33beb4c8b54908cda" target="_top" xlink:title="Loads a molecule build from a smiles string.">
<polygon fill="white" stroke="black" points="656,-318 656,-348 824,-348 824,-318 656,-318"/>
<text text-anchor="start" x="664" y="-336" font-family="Helvetica,sans-Serif" font-size="10.00">denoptim.gui.VertexViewPanel.load</text>
<text text-anchor="middle" x="740" y="-325" font-family="Helvetica,sans-Serif" font-size="10.00">SMILES</text>
</a>
</g>
</g>
<!-- Node15&#45;&gt;Node16 -->
<g id="edge19" class="edge">
<title>Node15&#45;&gt;Node16</title>
<path fill="none" stroke="midnightblue" d="M869.22,-333C854.52,-333 839.09,-333 824.23,-333"/>
<polygon fill="midnightblue" stroke="midnightblue" points="869.26,-336.5 879.26,-333 869.26,-329.5 869.26,-336.5"/>
</g>
<!-- Node16&#45;&gt;Node13 -->
<g id="edge20" class="edge">
<title>Node16&#45;&gt;Node13</title>
<path fill="none" stroke="midnightblue" d="M645.93,-332.12C637.35,-332.04 628.66,-331.96 620.08,-331.88"/>
<polygon fill="midnightblue" stroke="midnightblue" points="645.9,-335.62 655.93,-332.22 645.96,-328.62 645.9,-335.62"/>
</g>
<!-- Node17&#45;&gt;Node15 -->
<g id="edge22" class="edge">
<title>Node17&#45;&gt;Node15</title>
<path fill="none" stroke="midnightblue" d="M1070.05,-313.02C1052.1,-315.98 1033.57,-319.04 1016.57,-321.84"/>
<polygon fill="midnightblue" stroke="midnightblue" points="1070.65,-316.46 1079.94,-311.38 1069.51,-309.56 1070.65,-316.46"/>
</g>
<!-- Node20 -->
<g id="node20" class="node">
<title>Node20</title>
<g id="a_node20"><a xlink:href="classdenoptim_1_1fitness_1_1_fitness_expression_parser.html#a85b49c7a469755fbfdcdc9ed7b1c3c59" target="_top" xlink:title="For now we only accept a filename from which we read in a molecule.">
<polygon fill="white" stroke="black" points="1072.5,-135.5 1072.5,-176.5 1251.5,-176.5 1251.5,-135.5 1072.5,-135.5"/>
<text text-anchor="start" x="1080.5" y="-164.5" font-family="Helvetica,sans-Serif" font-size="10.00">denoptim.fitness.Fitness</text>
<text text-anchor="start" x="1080.5" y="-153.5" font-family="Helvetica,sans-Serif" font-size="10.00">ExpressionParser.makeIBitFingerprint</text>
<text text-anchor="middle" x="1162" y="-142.5" font-family="Helvetica,sans-Serif" font-size="10.00">BySubstructure</text>
</a>
</g>
</g>
<!-- Node19&#45;&gt;Node20 -->
<g id="edge27" class="edge">
<title>Node19&#45;&gt;Node20</title>
<path fill="none" stroke="midnightblue" d="M1309.19,-190.63C1290.09,-186.11 1269.33,-181.19 1249.62,-176.52"/>
<polygon fill="midnightblue" stroke="midnightblue" points="1308.47,-194.06 1319.01,-192.96 1310.09,-187.25 1308.47,-194.06"/>
</g>
<!-- Node21 -->
<g id="node21" class="node">
<title>Node21</title>
<g id="a_node21"><a xlink:href="classdenoptim_1_1fitness_1_1_fitness_expression_parser.html#a761cd46875eff5864f29dbb7f353bde7" target="_top" xlink:title="Parses the given expressions.">
<polygon fill="white" stroke="black" points="887,-152 887,-182 1009,-182 1009,-152 887,-152"/>
<text text-anchor="start" x="895" y="-170" font-family="Helvetica,sans-Serif" font-size="10.00">denoptim.fitness.Fitness</text>
<text text-anchor="middle" x="948" y="-159" font-family="Helvetica,sans-Serif" font-size="10.00">ExpressionParser.parse</text>
</a>
</g>
</g>
<!-- Node19&#45;&gt;Node21 -->
<g id="edge34" class="edge">
<title>Node19&#45;&gt;Node21</title>
<path fill="none" stroke="midnightblue" d="M1283.96,-203.1C1222.82,-199.54 1142.71,-193.95 1072,-186 1051.49,-183.69 1029.17,-180.46 1009.24,-177.32"/>
<polygon fill="midnightblue" stroke="midnightblue" points="1283.81,-206.6 1293.99,-203.68 1284.21,-199.61 1283.81,-206.6"/>
</g>
<!-- Node20&#45;&gt;Node21 -->
<g id="edge28" class="edge">
<title>Node20&#45;&gt;Node21</title>
<path fill="none" stroke="midnightblue" d="M1062.27,-161.12C1044.09,-162.07 1025.62,-163.02 1009.02,-163.89"/>
<polygon fill="midnightblue" stroke="midnightblue" points="1062.52,-164.61 1072.32,-160.6 1062.15,-157.62 1062.52,-164.61"/>
</g>
<!-- Node22 -->
<g id="node22" class="node">
<title>Node22</title>
<g id="a_node22"><a xlink:href="classdenoptim_1_1fitness_1_1_fitness_parameters.html#a2ab06430e0d6c35625d03557520cf505" target="_top" xlink:title="Processes all parameters and initialize related objects.">
<polygon fill="white" stroke="black" points="663,-114 663,-144 817,-144 817,-114 663,-114"/>
<text text-anchor="start" x="671" y="-132" font-family="Helvetica,sans-Serif" font-size="10.00">denoptim.fitness.Fitness</text>
<text text-anchor="middle" x="740" y="-121" font-family="Helvetica,sans-Serif" font-size="10.00">Parameters.processParameters</text>
</a>
</g>
</g>
<!-- Node21&#45;&gt;Node22 -->
<g id="edge29" class="edge">
<title>Node21&#45;&gt;Node22</title>
<path fill="none" stroke="midnightblue" d="M877,-154.09C857.8,-150.55 836.89,-146.69 817.36,-143.09"/>
<polygon fill="midnightblue" stroke="midnightblue" points="876.39,-157.53 886.86,-155.91 877.66,-150.65 876.39,-157.53"/>
</g>
<!-- Node23 -->
<g id="node23" class="node">
<title>Node23</title>
<g id="a_node23"><a xlink:href="classdenoptim_1_1fitness_1_1_fitness_provider_test.html#a2272dbcf72c993b4544719ddf64c98b6" target="_top" xlink:title=" ">
<polygon fill="white" stroke="black" points="452.5,-168.5 452.5,-209.5 598.5,-209.5 598.5,-168.5 452.5,-168.5"/>
<text text-anchor="start" x="460.5" y="-197.5" font-family="Helvetica,sans-Serif" font-size="10.00">denoptim.fitness.Fitness</text>
<text text-anchor="start" x="460.5" y="-186.5" font-family="Helvetica,sans-Serif" font-size="10.00">ProviderTest.testGetConstant</text>
<text text-anchor="middle" x="525.5" y="-175.5" font-family="Helvetica,sans-Serif" font-size="10.00">Fitness</text>
</a>
</g>
</g>
<!-- Node22&#45;&gt;Node23 -->
<g id="edge30" class="edge">
<title>Node22&#45;&gt;Node23</title>
<path fill="none" stroke="midnightblue" d="M675.85,-146.83C651.62,-153.67 623.77,-161.53 598.75,-168.6"/>
<polygon fill="midnightblue" stroke="midnightblue" points="676.98,-150.15 685.65,-144.06 675.08,-143.41 676.98,-150.15"/>
</g>
<!-- Node24 -->
<g id="node24" class="node">
<title>Node24</title>
<g id="a_node24"><a xlink:href="classdenoptim_1_1fitness_1_1_fitness_provider_test.html#ac3684e1e2969ee1c883ab279d4d5c048" target="_top" xlink:title="This test is reproducing most of what done in FitnessParametersTest#testProcessExpressions() so if bo...">
<polygon fill="white" stroke="black" points="446.5,-108.5 446.5,-149.5 604.5,-149.5 604.5,-108.5 446.5,-108.5"/>
<text text-anchor="start" x="454.5" y="-137.5" font-family="Helvetica,sans-Serif" font-size="10.00">denoptim.fitness.Fitness</text>
<text text-anchor="start" x="454.5" y="-126.5" font-family="Helvetica,sans-Serif" font-size="10.00">ProviderTest.testGetFitnessWith</text>
<text text-anchor="middle" x="525.5" y="-115.5" font-family="Helvetica,sans-Serif" font-size="10.00">ParametrizedDescriptors</text>
</a>
</g>
</g>
<!-- Node22&#45;&gt;Node24 -->
<g id="edge31" class="edge">
<title>Node22&#45;&gt;Node24</title>
<path fill="none" stroke="midnightblue" d="M652.56,-129C636.68,-129 620.2,-129 604.59,-129"/>
<polygon fill="midnightblue" stroke="midnightblue" points="652.88,-132.5 662.88,-129 652.88,-125.5 652.88,-132.5"/>
</g>
<!-- Node25 -->
<g id="node25" class="node">
<title>Node25</title>
<g id="a_node25"><a xlink:href="classdenoptim_1_1fitness_1_1_fitness_provider_test.html#a81954dc756c3f22356f01bdc0037e9f5" target="_top" xlink:title=" ">
<polygon fill="white" stroke="black" points="454,-60 454,-90 597,-90 597,-60 454,-60"/>
<text text-anchor="start" x="462" y="-78" font-family="Helvetica,sans-Serif" font-size="10.00">denoptim.fitness.Fitness</text>
<text text-anchor="middle" x="525.5" y="-67" font-family="Helvetica,sans-Serif" font-size="10.00">ProviderTest.testNaNFitness</text>
</a>
</g>
</g>
<!-- Node22&#45;&gt;Node25 -->
<g id="edge32" class="edge">
<title>Node22&#45;&gt;Node25</title>
<path fill="none" stroke="midnightblue" d="M669.98,-111.46C642.79,-104.55 611.89,-96.7 585.74,-90.05"/>
<polygon fill="midnightblue" stroke="midnightblue" points="669.25,-114.89 679.81,-113.96 670.98,-108.1 669.25,-114.89"/>
</g>
<!-- Node26 -->
<g id="node26" class="node">
<title>Node26</title>
<g id="a_node26"><a xlink:href="classdenoptim_1_1fitness_1_1_fitness_expression_parser_test.html#ad8c3056173f2ab17ebb7c12133ea03a8" target="_top" xlink:title=" ">
<polygon fill="white" stroke="black" points="442,-0.5 442,-41.5 609,-41.5 609,-0.5 442,-0.5"/>
<text text-anchor="start" x="450" y="-29.5" font-family="Helvetica,sans-Serif" font-size="10.00">denoptim.fitness.Fitness</text>
<text text-anchor="start" x="450" y="-18.5" font-family="Helvetica,sans-Serif" font-size="10.00">ExpressionParserTest.testProcess</text>
<text text-anchor="middle" x="525.5" y="-7.5" font-family="Helvetica,sans-Serif" font-size="10.00">Expressions</text>
</a>
</g>
</g>
<!-- Node22&#45;&gt;Node26 -->
<g id="edge33" class="edge">
<title>Node22&#45;&gt;Node26</title>
<path fill="none" stroke="midnightblue" d="M711.8,-107.66C688.5,-90.22 653.52,-65.92 620,-50 613.71,-47.01 607.03,-44.23 600.25,-41.68"/>
<polygon fill="midnightblue" stroke="midnightblue" points="709.74,-110.49 719.82,-113.75 713.97,-104.92 709.74,-110.49"/>
</g>
<!-- Node28 -->
<g id="node28" class="node">
<title>Node28</title>
<g id="a_node28"><a xlink:href="classdenoptim_1_1task_1_1_fitness_task.html#a39bac06427179a7d067d3eadee30ba79" target="_top" xlink:title="This method runs the actual evaluation of the fitness, whether that is run internally (i....">
<polygon fill="white" stroke="black" points="1087.5,-76 1087.5,-106 1236.5,-106 1236.5,-76 1087.5,-76"/>
<text text-anchor="start" x="1095.5" y="-94" font-family="Helvetica,sans-Serif" font-size="10.00">denoptim.task.FitnessTask.run</text>
<text text-anchor="middle" x="1162" y="-83" font-family="Helvetica,sans-Serif" font-size="10.00">FitnessProvider</text>
</a>
</g>
</g>
<!-- Node27&#45;&gt;Node28 -->
<g id="edge37" class="edge">
<title>Node27&#45;&gt;Node28</title>
<path fill="none" stroke="midnightblue" d="M1313.43,-141.35C1304.84,-138.97 1296.2,-136.49 1288,-134 1259.89,-125.46 1228.64,-114.71 1204.42,-106.1"/>
<polygon fill="midnightblue" stroke="midnightblue" points="1312.51,-144.73 1323.08,-143.99 1314.36,-137.98 1312.51,-144.73"/>
</g>
<!-- Node29 -->
<g id="node29" class="node">
<title>Node29</title>
<g id="a_node29"><a xlink:href="classdenoptim_1_1ga_1_1_offspring_evaluation_task.html#aab5b9c0b8a88922460f5c28ae161d1fa" target="_top" xlink:title=" ">
<polygon fill="white" stroke="black" points="870.5,-103 870.5,-133 1025.5,-133 1025.5,-103 870.5,-103"/>
<text text-anchor="start" x="878.5" y="-121" font-family="Helvetica,sans-Serif" font-size="10.00">denoptim.ga.OffspringEvaluation</text>
<text text-anchor="middle" x="948" y="-110" font-family="Helvetica,sans-Serif" font-size="10.00">Task.call</text>
</a>
</g>
</g>
<!-- Node28&#45;&gt;Node29 -->
<g id="edge38" class="edge">
<title>Node28&#45;&gt;Node29</title>
<path fill="none" stroke="midnightblue" d="M1077.49,-101.64C1060.41,-103.81 1042.5,-106.09 1025.66,-108.24"/>
<polygon fill="midnightblue" stroke="midnightblue" points="1077.97,-105.1 1087.45,-100.37 1077.09,-98.16 1077.97,-105.1"/>
</g>
<!-- Node30 -->
<g id="node30" class="node">
<title>Node30</title>
<g id="a_node30"><a xlink:href="classdenoptim_1_1programs_1_1fitnessevaluator_1_1_fitness_evaluation_task.html#a498b4214d06fc161d92cf1a38635ece3" target="_top" xlink:title=" ">
<polygon fill="white" stroke="black" points="862,-54 862,-84 1034,-84 1034,-54 862,-54"/>
<text text-anchor="start" x="870" y="-72" font-family="Helvetica,sans-Serif" font-size="10.00">denoptim.programs.fitnessevaluator.</text>
<text text-anchor="middle" x="948" y="-61" font-family="Helvetica,sans-Serif" font-size="10.00">FitnessEvaluationTask.call</text>
</a>
</g>
</g>
<!-- Node28&#45;&gt;Node30 -->
<g id="edge39" class="edge">
<title>Node28&#45;&gt;Node30</title>
<path fill="none" stroke="midnightblue" d="M1077.23,-82.31C1063.04,-80.83 1048.29,-79.3 1034.06,-77.83"/>
<polygon fill="midnightblue" stroke="midnightblue" points="1077.14,-85.82 1087.45,-83.37 1077.86,-78.85 1077.14,-85.82"/>
</g>
<!-- Node31 -->
<g id="node31" class="node">
<title>Node31</title>
<g id="a_node31"><a xlink:href="classdenoptim_1_1combinatorial_1_1_graph_building_task.html#a6b74fb1e5678145e094259bfa2401bd4" target="_top" xlink:title=" ">
<polygon fill="white" stroke="black" points="860,-5 860,-35 1036,-35 1036,-5 860,-5"/>
<text text-anchor="start" x="868" y="-23" font-family="Helvetica,sans-Serif" font-size="10.00">denoptim.combinatorial.Graph</text>
<text text-anchor="middle" x="948" y="-12" font-family="Helvetica,sans-Serif" font-size="10.00">BuildingTask.sendToFitnessProvider</text>
</a>
</g>
</g>
<!-- Node28&#45;&gt;Node31 -->
<g id="edge40" class="edge">
<title>Node28&#45;&gt;Node31</title>
<path fill="none" stroke="midnightblue" d="M1113.95,-72.16C1090.67,-63.13 1062.04,-52.47 1036,-44 1026.46,-40.9 1016.26,-37.85 1006.31,-35.02"/>
<polygon fill="midnightblue" stroke="midnightblue" points="1112.98,-75.54 1123.57,-75.91 1115.53,-69.02 1112.98,-75.54"/>
</g>
<!-- Node32 -->
<g id="node32" class="node">
<title>Node32</title>
<g id="a_node32"><a xlink:href="classdenoptim_1_1combinatorial_1_1_graph_building_task.html#a3eaee724fc921194fa158714aafe182d" target="_top" xlink:title="Calls the task.">
<polygon fill="white" stroke="black" points="667.5,-5 667.5,-35 812.5,-35 812.5,-5 667.5,-5"/>
<text text-anchor="start" x="675.5" y="-23" font-family="Helvetica,sans-Serif" font-size="10.00">denoptim.combinatorial.Graph</text>
<text text-anchor="middle" x="740" y="-12" font-family="Helvetica,sans-Serif" font-size="10.00">BuildingTask.call</text>
</a>
</g>
</g>
<!-- Node31&#45;&gt;Node32 -->
<g id="edge41" class="edge">
<title>Node31&#45;&gt;Node32</title>
<path fill="none" stroke="midnightblue" d="M849.57,-20C837.19,-20 824.7,-20 812.82,-20"/>
<polygon fill="midnightblue" stroke="midnightblue" points="849.94,-23.5 859.94,-20 849.94,-16.5 849.94,-23.5"/>
</g>
</g>
</svg>
