<?xml version="1.0" encoding="UTF-8" standalone="no"?>
<!DOCTYPE svg PUBLIC "-//W3C//DTD SVG 1.1//EN"
 "http://www.w3.org/Graphics/SVG/1.1/DTD/svg11.dtd">
<!-- Generated by graphviz version 3.0.0 (20221109.1736)
 -->
<!-- Title: denoptim.fragspace.FragsCombinationIterator.next Pages: 1 -->
<!--zoomable 989 -->
<svg id="main" version="1.1" xmlns="http://www.w3.org/2000/svg" xmlns:xlink="http://www.w3.org/1999/xlink" xml:space="preserve" onload="init(evt)">
<style type="text/css"><![CDATA[
.edge:hover path { stroke: red; }
.edge:hover polygon { stroke: red; fill: red; }
]]></style>
<script type="text/javascript"><![CDATA[
var edges = document.getElementsByTagName('g');
if (edges && edges.length) {
  for (var i=0;i<edges.length;i++) {
    if (edges[i].id.substr(0,4)=='edge') {
      edges[i].setAttribute('class','edge');
    }
  }
}
]]></script>
        <defs>
                <circle id="rim" cx="0" cy="0" r="7"/>
                <circle id="rim2" cx="0" cy="0" r="3.5"/>
                <g id="zoomPlus">
                        <use xlink:href="#rim" fill="#404040">
                                <set attributeName="fill" to="#808080" begin="zoomplus.mouseover" end="zoomplus.mouseout"/>
                        </use>
                        <path d="M-4,0h8M0,-4v8" fill="none" stroke="white" stroke-width="1.5" pointer-events="none"/>
                </g>
                <g id="zoomMin">
                        <use xlink:href="#rim" fill="#404040">
                                <set attributeName="fill" to="#808080" begin="zoomminus.mouseover" end="zoomminus.mouseout"/>
                        </use>
                        <path d="M-4,0h8" fill="none" stroke="white" stroke-width="1.5" pointer-events="none"/>
                </g>
                <g id="dirArrow">
                        <path fill="none" stroke="white" stroke-width="1.5" d="M0,-3.0v7 M-2.5,-0.5L0,-3.0L2.5,-0.5"/>
                </g>
               <g id="resetDef">
                       <use xlink:href="#rim2" fill="#404040">
                               <set attributeName="fill" to="#808080" begin="reset.mouseover" end="reset.mouseout"/>
                       </use>
               </g>
        </defs>

<script type="text/javascript">
var viewWidth = 707;
var viewHeight = 989;
var sectionId = 'dynsection-9';
</script>
<script xlink:href="svgpan.js"/>
<svg id="graph" class="graph">
<g id="viewport">
<title>denoptim.fragspace.FragsCombinationIterator.next</title>
<polygon fill="white" stroke="transparent" points="-4,4 -4,-985 703,-985 703,4 -4,4"/>
<!-- Node1 -->
<g id="node1" class="node">
<title>Node1</title>
<g id="a_node1"><a xlink:title="Generate the next combination of fragments.">
<polygon fill="#bfbfbf" stroke="black" points="0,-470.5 0,-500.5 128,-500.5 128,-470.5 0,-470.5"/>
<text text-anchor="start" x="8" y="-488.5" font-family="Helvetica,sans-Serif" font-size="10.00">denoptim.fragspace.Frags</text>
<text text-anchor="middle" x="64" y="-477.5" font-family="Helvetica,sans-Serif" font-size="10.00">CombinationIterator.next</text>
</a>
</g>
</g>
<!-- Node2 -->
<g id="node2" class="node">
<title>Node2</title>
<g id="a_node2"><a xlink:href="classdenoptim_1_1graph_1_1_attachment_point.html#a31bed4cb29f6437bf8a888a1dda3fd95" target="_top" xlink:title="Returns the Attachment Point class.">
<polygon fill="white" stroke="black" points="190.5,-950.5 190.5,-980.5 325.5,-980.5 325.5,-950.5 190.5,-950.5"/>
<text text-anchor="start" x="198.5" y="-968.5" font-family="Helvetica,sans-Serif" font-size="10.00">denoptim.graph.Attachment</text>
<text text-anchor="middle" x="258" y="-957.5" font-family="Helvetica,sans-Serif" font-size="10.00">Point.getAPClass</text>
</a>
</g>
</g>
<!-- Node1&#45;&gt;Node2 -->
<g id="edge1" class="edge">
<title>Node1&#45;&gt;Node2</title>
<path fill="none" stroke="midnightblue" d="M66.18,-500.57C72.1,-572 100.68,-875.67 164,-941.5 168.82,-946.51 174.53,-950.52 180.71,-953.73"/>
<polygon fill="midnightblue" stroke="midnightblue" points="179.51,-957.02 190.07,-957.88 182.35,-950.62 179.51,-957.02"/>
</g>
<!-- Node3 -->
<g id="node3" class="node">
<title>Node3</title>
<g id="a_node3"><a xlink:href="classdenoptim_1_1fragspace_1_1_id_fragment_and_a_p.html#adf2b5d0397410451714ec39348336089" target="_top" xlink:title=" ">
<polygon fill="white" stroke="black" points="181.5,-901.5 181.5,-931.5 334.5,-931.5 334.5,-901.5 181.5,-901.5"/>
<text text-anchor="start" x="189.5" y="-919.5" font-family="Helvetica,sans-Serif" font-size="10.00">denoptim.fragspace.IdFragment</text>
<text text-anchor="middle" x="258" y="-908.5" font-family="Helvetica,sans-Serif" font-size="10.00">AndAP.getApId</text>
</a>
</g>
</g>
<!-- Node1&#45;&gt;Node3 -->
<g id="edge2" class="edge">
<title>Node1&#45;&gt;Node3</title>
<path fill="none" stroke="midnightblue" d="M66.62,-500.72C74.05,-567.59 106.94,-834.64 164,-892.5 166.67,-895.21 169.61,-897.63 172.75,-899.79"/>
<polygon fill="midnightblue" stroke="midnightblue" points="171.05,-902.85 181.45,-904.91 174.6,-896.82 171.05,-902.85"/>
</g>
<!-- Node4 -->
<g id="node4" class="node">
<title>Node4</title>
<g id="a_node4"><a xlink:href="classdenoptim_1_1graph_1_1_vertex.html#a85aa901ec3fff8e566c0cc32d9c9f84e" target="_top" xlink:title=" ">
<polygon fill="white" stroke="black" points="571,-719.5 571,-749.5 699,-749.5 699,-719.5 571,-719.5"/>
<text text-anchor="start" x="579" y="-737.5" font-family="Helvetica,sans-Serif" font-size="10.00">denoptim.graph.Vertex.get</text>
<text text-anchor="middle" x="635" y="-726.5" font-family="Helvetica,sans-Serif" font-size="10.00">AttachmentPoints</text>
</a>
</g>
</g>
<!-- Node1&#45;&gt;Node4 -->
<g id="edge3" class="edge">
<title>Node1&#45;&gt;Node4</title>
<path fill="none" stroke="midnightblue" d="M68.93,-500.7C78.64,-534.95 107.2,-618.18 164,-657.5 180.2,-668.71 432.78,-705.91 560.8,-724.18"/>
<polygon fill="midnightblue" stroke="midnightblue" points="560.52,-727.68 570.92,-725.63 561.51,-720.75 560.52,-727.68"/>
</g>
<!-- Node5 -->
<g id="node5" class="node">
<title>Node5</title>
<g id="a_node5"><a xlink:href="classdenoptim_1_1graph_1_1_vertex.html#a200f775296c4c9804e3a2b59e065be8a" target="_top" xlink:title="Returns the index of the building block that should correspond to the position of the building block ...">
<polygon fill="white" stroke="black" points="194,-803.5 194,-833.5 322,-833.5 322,-803.5 194,-803.5"/>
<text text-anchor="start" x="202" y="-821.5" font-family="Helvetica,sans-Serif" font-size="10.00">denoptim.graph.Vertex.get</text>
<text text-anchor="middle" x="258" y="-810.5" font-family="Helvetica,sans-Serif" font-size="10.00">BuildingBlockId</text>
</a>
</g>
</g>
<!-- Node1&#45;&gt;Node5 -->
<g id="edge4" class="edge">
<title>Node1&#45;&gt;Node5</title>
<path fill="none" stroke="midnightblue" d="M65.03,-500.69C66.01,-550.67 76.14,-711.55 164,-794.5 169.8,-799.97 176.67,-804.24 184.02,-807.56"/>
<polygon fill="midnightblue" stroke="midnightblue" points="182.95,-810.9 193.54,-811.27 185.5,-804.38 182.95,-810.9"/>
</g>
<!-- Node6 -->
<g id="node6" class="node">
<title>Node6</title>
<g id="a_node6"><a xlink:href="classdenoptim_1_1graph_1_1_vertex.html#a46dadb5fd30f1877db91e97ae55c2dd8" target="_top" xlink:title=" ">
<polygon fill="white" stroke="black" points="194,-754.5 194,-784.5 322,-784.5 322,-754.5 194,-754.5"/>
<text text-anchor="start" x="202" y="-772.5" font-family="Helvetica,sans-Serif" font-size="10.00">denoptim.graph.Vertex.get</text>
<text text-anchor="middle" x="258" y="-761.5" font-family="Helvetica,sans-Serif" font-size="10.00">BuildingBlockType</text>
</a>
</g>
</g>
<!-- Node1&#45;&gt;Node6 -->
<g id="edge5" class="edge">
<title>Node1&#45;&gt;Node6</title>
<path fill="none" stroke="midnightblue" d="M66.09,-500.8C70.13,-545.61 88.22,-677.72 164,-745.5 169.94,-750.82 176.91,-754.98 184.31,-758.24"/>
<polygon fill="midnightblue" stroke="midnightblue" points="183.28,-761.6 193.87,-761.91 185.79,-755.06 183.28,-761.6"/>
</g>
<!-- Node7 -->
<g id="node7" class="node">
<title>Node7</title>
<g id="a_node7"><a xlink:href="classdenoptim_1_1fragspace_1_1_fragment_space_parameters.html#a93693af51412000689dc7517151b9a05" target="_top" xlink:title=" ">
<polygon fill="white" stroke="black" points="168.5,-705.5 168.5,-735.5 347.5,-735.5 347.5,-705.5 168.5,-705.5"/>
<text text-anchor="start" x="176.5" y="-723.5" font-family="Helvetica,sans-Serif" font-size="10.00">denoptim.fragspace.Fragment</text>
<text text-anchor="middle" x="258" y="-712.5" font-family="Helvetica,sans-Serif" font-size="10.00">SpaceParameters.getFragmentSpace</text>
</a>
</g>
</g>
<!-- Node1&#45;&gt;Node7 -->
<g id="edge6" class="edge">
<title>Node1&#45;&gt;Node7</title>
<path fill="none" stroke="midnightblue" d="M68.01,-500.61C76.3,-538.33 103.05,-637.42 164,-690.5 168.51,-694.43 173.54,-697.84 178.86,-700.81"/>
<polygon fill="midnightblue" stroke="midnightblue" points="177.54,-704.06 188.05,-705.39 180.66,-697.8 177.54,-704.06"/>
</g>
<!-- Node8 -->
<g id="node8" class="node">
<title>Node8</title>
<g id="a_node8"><a xlink:href="classdenoptim_1_1graph_1_1_attachment_point.html#acd666767475f39f0d7f17550d2b47651" target="_top" xlink:title=" ">
<polygon fill="white" stroke="black" points="190.5,-852.5 190.5,-882.5 325.5,-882.5 325.5,-852.5 190.5,-852.5"/>
<text text-anchor="start" x="198.5" y="-870.5" font-family="Helvetica,sans-Serif" font-size="10.00">denoptim.graph.Attachment</text>
<text text-anchor="middle" x="258" y="-859.5" font-family="Helvetica,sans-Serif" font-size="10.00">Point.getIndexInOwner</text>
</a>
</g>
</g>
<!-- Node1&#45;&gt;Node8 -->
<g id="edge7" class="edge">
<title>Node1&#45;&gt;Node8</title>
<path fill="none" stroke="midnightblue" d="M67.13,-500.53C76.16,-562 113.07,-793.44 164,-843.5 168.95,-848.37 174.76,-852.29 181,-855.44"/>
<polygon fill="midnightblue" stroke="midnightblue" points="179.86,-858.76 190.43,-859.53 182.64,-852.34 179.86,-858.76"/>
</g>
<!-- Node10 -->
<g id="node10" class="node">
<title>Node10</title>
<g id="a_node10"><a xlink:href="classdenoptim_1_1programs_1_1_run_time_parameters.html#a5d529ee791990d15bde012d8dcd6b5c1" target="_top" xlink:title="Get the name of the program specific logger.">
<polygon fill="white" stroke="black" points="188,-617.5 188,-647.5 328,-647.5 328,-617.5 188,-617.5"/>
<text text-anchor="start" x="196" y="-635.5" font-family="Helvetica,sans-Serif" font-size="10.00">denoptim.programs.RunTime</text>
<text text-anchor="middle" x="258" y="-624.5" font-family="Helvetica,sans-Serif" font-size="10.00">Parameters.getLogger</text>
</a>
</g>
</g>
<!-- Node1&#45;&gt;Node10 -->
<g id="edge10" class="edge">
<title>Node1&#45;&gt;Node10</title>
<path fill="none" stroke="midnightblue" d="M72.85,-500.6C87.25,-526.76 120.46,-580.42 164,-608.5 168.55,-611.44 173.45,-614.02 178.53,-616.28"/>
<polygon fill="midnightblue" stroke="midnightblue" points="177.25,-619.54 187.83,-620.02 179.86,-613.04 177.25,-619.54"/>
</g>
<!-- Node11 -->
<g id="node11" class="node">
<title>Node11</title>
<g id="a_node11"><a xlink:href="classdenoptim_1_1graph_1_1_vertex.html#a9542f18a17ab836ed3ade18348b22f3c" target="_top" xlink:title=" ">
<polygon fill="white" stroke="black" points="397.5,-343.5 397.5,-373.5 525.5,-373.5 525.5,-343.5 397.5,-343.5"/>
<text text-anchor="start" x="405.5" y="-361.5" font-family="Helvetica,sans-Serif" font-size="10.00">denoptim.graph.Vertex.get</text>
<text text-anchor="middle" x="461.5" y="-350.5" font-family="Helvetica,sans-Serif" font-size="10.00">SymmetricAPSets</text>
</a>
</g>
</g>
<!-- Node1&#45;&gt;Node11 -->
<g id="edge11" class="edge">
<title>Node1&#45;&gt;Node11</title>
<path fill="none" stroke="midnightblue" d="M125.66,-470.46C138.31,-467.41 151.58,-464.29 164,-461.5 247.26,-442.78 272.4,-453.26 352,-422.5 380.38,-411.53 409.96,-393.58 431.05,-379.48"/>
<polygon fill="midnightblue" stroke="midnightblue" points="433.24,-382.22 439.54,-373.7 429.31,-376.44 433.24,-382.22"/>
</g>
<!-- Node12 -->
<g id="node12" class="node">
<title>Node12</title>
<g id="a_node12"><a xlink:href="classdenoptim_1_1graph_1_1_d_graph.html#a419f97ea0a361b122274c4eda97e3be6" target="_top" xlink:title="Get an iterator for the sets of symmetrically related vertices.">
<polygon fill="white" stroke="black" points="191,-519.5 191,-549.5 325,-549.5 325,-519.5 191,-519.5"/>
<text text-anchor="start" x="199" y="-537.5" font-family="Helvetica,sans-Serif" font-size="10.00">denoptim.graph.DGraph.get</text>
<text text-anchor="middle" x="258" y="-526.5" font-family="Helvetica,sans-Serif" font-size="10.00">SymSetsIterator</text>
</a>
</g>
</g>
<!-- Node1&#45;&gt;Node12 -->
<g id="edge12" class="edge">
<title>Node1&#45;&gt;Node12</title>
<path fill="none" stroke="midnightblue" d="M123.91,-500.53C144.28,-505.73 167.27,-511.6 188.35,-516.98"/>
<polygon fill="midnightblue" stroke="midnightblue" points="187.65,-520.41 198.2,-519.49 189.38,-513.63 187.65,-520.41"/>
</g>
<!-- Node13 -->
<g id="node13" class="node">
<title>Node13</title>
<g id="a_node13"><a xlink:href="classdenoptim_1_1utils_1_1_graph_utils.html#aad6245f297edf8a9f100b3949092f3c1" target="_top" xlink:title="Unique counter for the number of graph vertices generated.">
<polygon fill="white" stroke="black" points="187.5,-470.5 187.5,-500.5 328.5,-500.5 328.5,-470.5 187.5,-470.5"/>
<text text-anchor="start" x="195.5" y="-488.5" font-family="Helvetica,sans-Serif" font-size="10.00">denoptim.utils.GraphUtils.get</text>
<text text-anchor="middle" x="258" y="-477.5" font-family="Helvetica,sans-Serif" font-size="10.00">UniqueVertexIndex</text>
</a>
</g>
</g>
<!-- Node1&#45;&gt;Node13 -->
<g id="edge13" class="edge">
<title>Node1&#45;&gt;Node13</title>
<path fill="none" stroke="midnightblue" d="M128.13,-485.5C143.79,-485.5 160.78,-485.5 177.12,-485.5"/>
<polygon fill="midnightblue" stroke="midnightblue" points="177.2,-489 187.2,-485.5 177.2,-482 177.2,-489"/>
</g>
<!-- Node14 -->
<g id="node14" class="node">
<title>Node14</title>
<g id="a_node14"><a xlink:href="classdenoptim_1_1graph_1_1_vertex.html#a9493346ca1480edfcfa00cb78a52adf5" target="_top" xlink:title=" ">
<polygon fill="white" stroke="black" points="571,-297.5 571,-327.5 699,-327.5 699,-297.5 571,-297.5"/>
<text text-anchor="start" x="579" y="-315.5" font-family="Helvetica,sans-Serif" font-size="10.00">denoptim.graph.Vertex.get</text>
<text text-anchor="middle" x="635" y="-304.5" font-family="Helvetica,sans-Serif" font-size="10.00">VertexId</text>
</a>
</g>
</g>
<!-- Node1&#45;&gt;Node14 -->
<g id="edge14" class="edge">
<title>Node1&#45;&gt;Node14</title>
<path fill="none" stroke="midnightblue" d="M64.31,-470.17C62.9,-418.32 66.19,-248.8 164,-177.5 308.01,-72.53 531.85,-230.47 607.79,-290.74"/>
<polygon fill="midnightblue" stroke="midnightblue" points="605.9,-293.72 615.89,-297.25 610.29,-288.26 605.9,-293.72"/>
</g>
<!-- Node15 -->
<g id="node15" class="node">
<title>Node15</title>
<g id="a_node15"><a xlink:href="classdenoptim_1_1fragspace_1_1_id_fragment_and_a_p.html#ad63dd7a75f57e164d33d6d84479f261e" target="_top" xlink:title=" ">
<polygon fill="white" stroke="black" points="181.5,-382.5 181.5,-412.5 334.5,-412.5 334.5,-382.5 181.5,-382.5"/>
<text text-anchor="start" x="189.5" y="-400.5" font-family="Helvetica,sans-Serif" font-size="10.00">denoptim.fragspace.IdFragment</text>
<text text-anchor="middle" x="258" y="-389.5" font-family="Helvetica,sans-Serif" font-size="10.00">AndAP.getVertexMolId</text>
</a>
</g>
</g>
<!-- Node1&#45;&gt;Node15 -->
<g id="edge15" class="edge">
<title>Node1&#45;&gt;Node15</title>
<path fill="none" stroke="midnightblue" d="M87.45,-470.44C107.04,-457.76 136.55,-439.79 164,-427.5 173.5,-423.24 183.8,-419.3 193.96,-415.77"/>
<polygon fill="midnightblue" stroke="midnightblue" points="195.26,-419.03 203.62,-412.52 193.03,-412.39 195.26,-419.03"/>
</g>
<!-- Node16 -->
<g id="node16" class="node">
<title>Node16</title>
<g id="a_node16"><a xlink:href="classdenoptim_1_1fragspace_1_1_id_fragment_and_a_p.html#a39900b3436a1150e228c236bb4aa6864" target="_top" xlink:title=" ">
<polygon fill="white" stroke="black" points="181.5,-333.5 181.5,-363.5 334.5,-363.5 334.5,-333.5 181.5,-333.5"/>
<text text-anchor="start" x="189.5" y="-351.5" font-family="Helvetica,sans-Serif" font-size="10.00">denoptim.fragspace.IdFragment</text>
<text text-anchor="middle" x="258" y="-340.5" font-family="Helvetica,sans-Serif" font-size="10.00">AndAP.getVertexMolType</text>
</a>
</g>
</g>
<!-- Node1&#45;&gt;Node16 -->
<g id="edge16" class="edge">
<title>Node1&#45;&gt;Node16</title>
<path fill="none" stroke="midnightblue" d="M74.2,-470.27C89.66,-446.02 123.19,-398.79 164,-373.5 167.42,-371.38 171.02,-369.44 174.73,-367.66"/>
<polygon fill="midnightblue" stroke="midnightblue" points="176.38,-370.76 184.16,-363.57 173.6,-364.34 176.38,-370.76"/>
</g>
<!-- Node17 -->
<g id="node17" class="node">
<title>Node17</title>
<g id="a_node17"><a xlink:href="classdenoptim_1_1graph_1_1_d_graph.html#a16e970d1e94704f9e720ff16f58f5796" target="_top" xlink:title="Searches for a vertex with the given identifier.">
<polygon fill="white" stroke="black" points="191,-568.5 191,-598.5 325,-598.5 325,-568.5 191,-568.5"/>
<text text-anchor="start" x="199" y="-586.5" font-family="Helvetica,sans-Serif" font-size="10.00">denoptim.graph.DGraph.get</text>
<text text-anchor="middle" x="258" y="-575.5" font-family="Helvetica,sans-Serif" font-size="10.00">VertexWithId</text>
</a>
</g>
</g>
<!-- Node1&#45;&gt;Node17 -->
<g id="edge17" class="edge">
<title>Node1&#45;&gt;Node17</title>
<path fill="none" stroke="midnightblue" d="M81.2,-500.8C99.79,-517.55 131.88,-544.1 164,-559.5 169.39,-562.09 175.1,-564.42 180.93,-566.52"/>
<polygon fill="midnightblue" stroke="midnightblue" points="180.23,-569.98 190.82,-569.84 182.45,-563.34 180.23,-569.98"/>
</g>
<!-- Node19 -->
<g id="node19" class="node">
<title>Node19</title>
<g id="a_node19"><a xlink:href="classdenoptim_1_1fragspace_1_1_id_fragment_and_a_p.html#a86ef8e9f9bf1bf0b1a8c6ce7d8b6b56d" target="_top" xlink:title=" ">
<polygon fill="white" stroke="black" points="181.5,-235.5 181.5,-265.5 334.5,-265.5 334.5,-235.5 181.5,-235.5"/>
<text text-anchor="start" x="189.5" y="-253.5" font-family="Helvetica,sans-Serif" font-size="10.00">denoptim.fragspace.IdFragment</text>
<text text-anchor="middle" x="258" y="-242.5" font-family="Helvetica,sans-Serif" font-size="10.00">AndAP.getVrtSymSetId</text>
</a>
</g>
</g>
<!-- Node1&#45;&gt;Node19 -->
<g id="edge20" class="edge">
<title>Node1&#45;&gt;Node19</title>
<path fill="none" stroke="midnightblue" d="M67.62,-470.41C75.14,-431.78 100.46,-328.63 164,-275.5 166.57,-273.35 169.3,-271.39 172.15,-269.6"/>
<polygon fill="midnightblue" stroke="midnightblue" points="173.99,-272.58 181.06,-264.7 170.61,-266.45 173.99,-272.58"/>
</g>
<!-- Node20 -->
<g id="node20" class="node">
<title>Node20</title>
<g id="a_node20"><a xlink:href="classdenoptim_1_1graph_1_1_d_graph.html#a690bb91df0e75ab1d1ff662117a5942d" target="_top" xlink:title=" ">
<polygon fill="white" stroke="black" points="190,-186.5 190,-216.5 326,-216.5 326,-186.5 190,-186.5"/>
<text text-anchor="start" x="198" y="-204.5" font-family="Helvetica,sans-Serif" font-size="10.00">denoptim.graph.DGraph.has</text>
<text text-anchor="middle" x="258" y="-193.5" font-family="Helvetica,sans-Serif" font-size="10.00">SymmetricAP</text>
</a>
</g>
</g>
<!-- Node1&#45;&gt;Node20 -->
<g id="edge21" class="edge">
<title>Node1&#45;&gt;Node20</title>
<path fill="none" stroke="midnightblue" d="M66.14,-470.3C70.32,-425.75 88.77,-294.39 164,-226.5 168.81,-222.16 174.29,-218.57 180.12,-215.58"/>
<polygon fill="midnightblue" stroke="midnightblue" points="181.84,-218.65 189.55,-211.39 178.99,-212.26 181.84,-218.65"/>
</g>
<!-- Node21 -->
<g id="node21" class="node">
<title>Node21</title>
<g id="a_node21"><a xlink:href="classdenoptim_1_1graph_1_1_vertex.html#a44507a876a3505edbeaf455a6f71a601" target="_top" xlink:title=" ">
<polygon fill="white" stroke="black" points="192.5,-284.5 192.5,-314.5 323.5,-314.5 323.5,-284.5 192.5,-284.5"/>
<text text-anchor="start" x="200.5" y="-302.5" font-family="Helvetica,sans-Serif" font-size="10.00">denoptim.graph.Vertex.has</text>
<text text-anchor="middle" x="258" y="-291.5" font-family="Helvetica,sans-Serif" font-size="10.00">SymmetricAP</text>
</a>
</g>
</g>
<!-- Node1&#45;&gt;Node21 -->
<g id="edge22" class="edge">
<title>Node1&#45;&gt;Node21</title>
<path fill="none" stroke="midnightblue" d="M69.92,-470.44C81.18,-438.42 111.93,-363.35 164,-324.5 169.58,-320.33 175.81,-316.86 182.33,-313.97"/>
<polygon fill="midnightblue" stroke="midnightblue" points="184.02,-317.06 192.04,-310.13 181.45,-310.55 184.02,-317.06"/>
</g>
<!-- Node22 -->
<g id="node22" class="node">
<title>Node22</title>
<g id="a_node22"><a xlink:href="classdenoptim_1_1fragspace_1_1_fragment_space.html#a95c29949d65364ea844e8b3e7150311d" target="_top" xlink:title="Checks if the symmetry settings impose use of symmetry on attachment points of the given AP class.">
<polygon fill="white" stroke="black" points="164,-98.5 164,-128.5 352,-128.5 352,-98.5 164,-98.5"/>
<text text-anchor="start" x="172" y="-116.5" font-family="Helvetica,sans-Serif" font-size="10.00">denoptim.fragspace.Fragment</text>
<text text-anchor="middle" x="258" y="-105.5" font-family="Helvetica,sans-Serif" font-size="10.00">Space.imposeSymmetryOnAPsOfClass</text>
</a>
</g>
</g>
<!-- Node1&#45;&gt;Node22 -->
<g id="edge24" class="edge">
<title>Node1&#45;&gt;Node22</title>
<path fill="none" stroke="midnightblue" d="M64.69,-470.45C64.44,-417.74 70.81,-239.55 164,-143.5 167.6,-139.79 171.66,-136.54 176.02,-133.69"/>
<polygon fill="midnightblue" stroke="midnightblue" points="177.8,-136.7 184.73,-128.69 174.32,-130.63 177.8,-136.7"/>
</g>
<!-- Node25 -->
<g id="node25" class="node">
<title>Node25</title>
<g id="a_node25"><a xlink:href="classdenoptim_1_1graph_1_1_attachment_point.html#a77887ce020d49c189b89e049f12b70ba" target="_top" xlink:title="Check availability of this attachment point.">
<polygon fill="white" stroke="black" points="190.5,-49.5 190.5,-79.5 325.5,-79.5 325.5,-49.5 190.5,-49.5"/>
<text text-anchor="start" x="198.5" y="-67.5" font-family="Helvetica,sans-Serif" font-size="10.00">denoptim.graph.Attachment</text>
<text text-anchor="middle" x="258" y="-56.5" font-family="Helvetica,sans-Serif" font-size="10.00">Point.isAvailable</text>
</a>
</g>
</g>
<!-- Node1&#45;&gt;Node25 -->
<g id="edge27" class="edge">
<title>Node1&#45;&gt;Node25</title>
<path fill="none" stroke="midnightblue" d="M66.73,-470.21C74.5,-404.24 108.22,-144.73 164,-88.5 168.89,-83.57 174.65,-79.61 180.87,-76.43"/>
<polygon fill="midnightblue" stroke="midnightblue" points="182.51,-79.53 190.27,-72.31 179.7,-73.12 182.51,-79.53"/>
</g>
<!-- Node26 -->
<g id="node26" class="node">
<title>Node26</title>
<g id="a_node26"><a xlink:href="classdenoptim_1_1fragspace_1_1_id_fragment_and_a_p.html#a6c74042257bf1581c026b08cbb358e4f" target="_top" xlink:title=" ">
<polygon fill="white" stroke="black" points="181.5,-0.5 181.5,-30.5 334.5,-30.5 334.5,-0.5 181.5,-0.5"/>
<text text-anchor="start" x="189.5" y="-18.5" font-family="Helvetica,sans-Serif" font-size="10.00">denoptim.fragspace.IdFragment</text>
<text text-anchor="middle" x="258" y="-7.5" font-family="Helvetica,sans-Serif" font-size="10.00">AndAP.setVrtSymSetId</text>
</a>
</g>
</g>
<!-- Node1&#45;&gt;Node26 -->
<g id="edge28" class="edge">
<title>Node1&#45;&gt;Node26</title>
<path fill="none" stroke="midnightblue" d="M66.28,-470.29C72.51,-399.56 101.99,-103.66 164,-39.5 166.65,-36.76 169.56,-34.32 172.68,-32.14"/>
<polygon fill="midnightblue" stroke="midnightblue" points="174.54,-35.11 181.34,-26.99 170.96,-29.1 174.54,-35.11"/>
</g>
<!-- Node9 -->
<g id="node9" class="node">
<title>Node9</title>
<g id="a_node9"><a xlink:href="classdenoptim_1_1graph_1_1_vertex.html#a367c9d31e4bb13c16e865389c154a767" target="_top" xlink:title="Returns the position of the given AP in the list of APs of this vertex.">
<polygon fill="white" stroke="black" points="397.5,-778.5 397.5,-808.5 525.5,-808.5 525.5,-778.5 397.5,-778.5"/>
<text text-anchor="start" x="405.5" y="-796.5" font-family="Helvetica,sans-Serif" font-size="10.00">denoptim.graph.Vertex.get</text>
<text text-anchor="middle" x="461.5" y="-785.5" font-family="Helvetica,sans-Serif" font-size="10.00">IndexOfAP</text>
</a>
</g>
</g>
<!-- Node8&#45;&gt;Node9 -->
<g id="edge8" class="edge">
<title>Node8&#45;&gt;Node9</title>
<path fill="none" stroke="midnightblue" d="M323.49,-852.46C333.13,-849.75 342.89,-846.75 352,-843.5 376.06,-834.93 402.08,-823.04 422.6,-813"/>
<polygon fill="midnightblue" stroke="midnightblue" points="424.21,-816.11 431.62,-808.54 421.11,-809.83 424.21,-816.11"/>
</g>
<!-- Node9&#45;&gt;Node4 -->
<g id="edge9" class="edge">
<title>Node9&#45;&gt;Node4</title>
<path fill="none" stroke="midnightblue" d="M506.22,-778.46C528.9,-770.66 556.79,-761.06 580.72,-752.83"/>
<polygon fill="midnightblue" stroke="midnightblue" points="582.04,-756.08 590.36,-749.51 579.76,-749.46 582.04,-756.08"/>
</g>
<!-- Node18 -->
<g id="node18" class="node">
<title>Node18</title>
<g id="a_node18"><a xlink:href="classdenoptim_1_1graph_1_1_d_graph.html#a3560b051e55499bf45522a55f6219d29" target="_top" xlink:title="Returns the position of the first vertex that has the given ID.">
<polygon fill="white" stroke="black" points="390,-451.5 390,-481.5 533,-481.5 533,-451.5 390,-451.5"/>
<text text-anchor="start" x="398" y="-469.5" font-family="Helvetica,sans-Serif" font-size="10.00">denoptim.graph.DGraph.index</text>
<text text-anchor="middle" x="461.5" y="-458.5" font-family="Helvetica,sans-Serif" font-size="10.00">OfVertexWithID</text>
</a>
</g>
</g>
<!-- Node17&#45;&gt;Node18 -->
<g id="edge18" class="edge">
<title>Node17&#45;&gt;Node18</title>
<path fill="none" stroke="midnightblue" d="M325.44,-570.35C334.61,-567.39 343.72,-563.82 352,-559.5 386.68,-541.42 419.79,-510.34 440.12,-489.13"/>
<polygon fill="midnightblue" stroke="midnightblue" points="442.7,-491.49 447,-481.8 437.6,-486.69 442.7,-491.49"/>
</g>
<!-- Node18&#45;&gt;Node14 -->
<g id="edge19" class="edge">
<title>Node18&#45;&gt;Node14</title>
<path fill="none" stroke="midnightblue" d="M479.26,-451.45C509.74,-424.08 574.36,-366.05 609.69,-334.33"/>
<polygon fill="midnightblue" stroke="midnightblue" points="612.07,-336.89 617.18,-327.61 607.4,-331.68 612.07,-336.89"/>
</g>
<!-- Node21&#45;&gt;Node11 -->
<g id="edge23" class="edge">
<title>Node21&#45;&gt;Node11</title>
<path fill="none" stroke="midnightblue" d="M316.65,-314.6C328.37,-317.78 340.6,-321.18 352,-324.5 369.03,-329.46 387.48,-335.12 404.24,-340.39"/>
<polygon fill="midnightblue" stroke="midnightblue" points="403.31,-343.76 413.9,-343.44 405.41,-337.09 403.31,-343.76"/>
</g>
<!-- Node23 -->
<g id="node23" class="node">
<title>Node23</title>
<g id="a_node23"><a xlink:href="classdenoptim_1_1fragspace_1_1_fragment_space.html#a1e550048eaf844b84ca694d149458a01" target="_top" xlink:title="Return the constitutional symmetry constrain for the given APclass, or null.">
<polygon fill="white" stroke="black" points="389,-49.5 389,-79.5 534,-79.5 534,-49.5 389,-49.5"/>
<text text-anchor="start" x="397" y="-67.5" font-family="Helvetica,sans-Serif" font-size="10.00">denoptim.fragspace.Fragment</text>
<text text-anchor="middle" x="461.5" y="-56.5" font-family="Helvetica,sans-Serif" font-size="10.00">Space.getSymmetryConstrain</text>
</a>
</g>
</g>
<!-- Node22&#45;&gt;Node23 -->
<g id="edge25" class="edge">
<title>Node22&#45;&gt;Node23</title>
<path fill="none" stroke="midnightblue" d="M320.83,-98.47C342.39,-93.22 366.77,-87.29 389.05,-81.87"/>
<polygon fill="midnightblue" stroke="midnightblue" points="389.9,-85.27 398.79,-79.51 388.25,-78.47 389.9,-85.27"/>
</g>
<!-- Node24 -->
<g id="node24" class="node">
<title>Node24</title>
<g id="a_node24"><a xlink:href="classdenoptim_1_1fragspace_1_1_fragment_space.html#a0f617041b436cd3c990f946511026cd7" target="_top" xlink:title="Checks if there is a constraint on the constitutional symmetry probability for the given AP class.">
<polygon fill="white" stroke="black" points="388,-98.5 388,-128.5 535,-128.5 535,-98.5 388,-98.5"/>
<text text-anchor="start" x="396" y="-116.5" font-family="Helvetica,sans-Serif" font-size="10.00">denoptim.fragspace.Fragment</text>
<text text-anchor="middle" x="461.5" y="-105.5" font-family="Helvetica,sans-Serif" font-size="10.00">Space.hasSymmetryConstrain</text>
</a>
</g>
</g>
<!-- Node22&#45;&gt;Node24 -->
<g id="edge26" class="edge">
<title>Node22&#45;&gt;Node24</title>
<path fill="none" stroke="midnightblue" d="M352.08,-113.5C360.59,-113.5 369.16,-113.5 377.57,-113.5"/>
<polygon fill="midnightblue" stroke="midnightblue" points="377.72,-117 387.72,-113.5 377.72,-110 377.72,-117"/>
</g>
</g>
</svg>
        <g id="navigator" transform="translate(0 0)" fill="#404254">
                <rect fill="#f2f5e9" fill-opacity="0.5" stroke="#606060" stroke-width=".5" x="0" y="0" width="60" height="60"/>
                <use id="zoomplus" xlink:href="#zoomPlus" x="17" y="9" onmousedown="handleZoom(evt,'in')"/>
                <use id="zoomminus" xlink:href="#zoomMin" x="42" y="9" onmousedown="handleZoom(evt,'out')"/>
                <use id="reset" xlink:href="#resetDef" x="30" y="36" onmousedown="handleReset()"/>
                <g id="arrowUp" xlink:href="#dirArrow" transform="translate(30 24)" onmousedown="handlePan(0,-1)">
                  <use xlink:href="#rim" fill="#404040">
                        <set attributeName="fill" to="#808080" begin="arrowUp.mouseover" end="arrowUp.mouseout"/>
                  </use>
                  <path fill="none" stroke="white" stroke-width="1.5" d="M0,-3.0v7 M-2.5,-0.5L0,-3.0L2.5,-0.5"/>
                </g>
                <g id="arrowRight" xlink:href="#dirArrow" transform="rotate(90) translate(36 -43)" onmousedown="handlePan(1,0)">
                  <use xlink:href="#rim" fill="#404040">
                        <set attributeName="fill" to="#808080" begin="arrowRight.mouseover" end="arrowRight.mouseout"/>
                  </use>
                  <path fill="none" stroke="white" stroke-width="1.5" d="M0,-3.0v7 M-2.5,-0.5L0,-3.0L2.5,-0.5"/>
                </g>
                <g id="arrowDown" xlink:href="#dirArrow" transform="rotate(180) translate(-30 -48)" onmousedown="handlePan(0,1)">
                  <use xlink:href="#rim" fill="#404040">
                        <set attributeName="fill" to="#808080" begin="arrowDown.mouseover" end="arrowDown.mouseout"/>
                  </use>
                  <path fill="none" stroke="white" stroke-width="1.5" d="M0,-3.0v7 M-2.5,-0.5L0,-3.0L2.5,-0.5"/>
                </g>
                <g id="arrowLeft" xlink:href="#dirArrow" transform="rotate(270) translate(-36 17)" onmousedown="handlePan(-1,0)">
                  <use xlink:href="#rim" fill="#404040">
                        <set attributeName="fill" to="#808080" begin="arrowLeft.mouseover" end="arrowLeft.mouseout"/>
                  </use>
                  <path fill="none" stroke="white" stroke-width="1.5" d="M0,-3.0v7 M-2.5,-0.5L0,-3.0L2.5,-0.5"/>
                </g>
        </g>
        <svg viewBox="0 0 15 15" width="100%" height="30px" preserveAspectRatio="xMaxYMin meet">
         <g id="arrow_out" transform="scale(0.3 0.3)">
          <a xlink:href="classdenoptim_1_1fragspace_1_1_frags_combination_iterator_a1669a88512d2bd3b14cdd00235dff50a_cgraph_org.svg" target="_base">
           <rect id="button" ry="5" rx="5" y="6" x="6" height="38" width="38"
                fill="#f2f5e9" fill-opacity="0.5" stroke="#606060" stroke-width="1.0"/>
           <path id="arrow"
             d="M 11.500037,31.436501 C 11.940474,20.09759 22.043105,11.32322 32.158766,21.979434 L 37.068811,17.246167 C 37.068811,17.246167 37.088388,32 37.088388,32 L 22.160133,31.978069 C 22.160133,31.978069 26.997745,27.140456 26.997745,27.140456 C 18.528582,18.264221 13.291696,25.230495 11.500037,31.436501 z"
             style="fill:#404040;"/>
          </a>
         </g>
        </svg>
</svg>
