<?xml version="1.0" encoding="UTF-8" standalone="no"?>
<!DOCTYPE svg PUBLIC "-//W3C//DTD SVG 1.1//EN"
 "http://www.w3.org/Graphics/SVG/1.1/DTD/svg11.dtd">
<!-- Generated by graphviz version 3.0.0 (20221109.1736)
 -->
<!-- Title: denoptim.ga.XoverSite.XoverSite Pages: 1 -->
<svg width="1071pt" height="229pt"
 viewBox="0.00 0.00 1071.00 228.50" xmlns="http://www.w3.org/2000/svg" xmlns:xlink="http://www.w3.org/1999/xlink">
<g id="graph0" class="graph" transform="scale(1 1) rotate(0) translate(4 224.5)">
<title>denoptim.ga.XoverSite.XoverSite</title>
<polygon fill="white" stroke="transparent" points="-4,4 -4,-224.5 1067,-224.5 1067,4 -4,4"/>
<!-- Node1 -->
<g id="node1" class="node">
<title>Node1</title>
<g id="a_node1"><a xlink:title="Initiate an empty data structure.">
<polygon fill="#bfbfbf" stroke="black" points="904,-117 904,-136 1063,-136 1063,-117 904,-117"/>
<text text-anchor="middle" x="983.5" y="-124" font-family="Helvetica,sans-Serif" font-size="10.00">denoptim.ga.XoverSite.XoverSite</text>
</a>
</g>
</g>
<!-- Node2 -->
<g id="node2" class="node">
<title>Node2</title>
<g id="a_node2"><a xlink:href="classdenoptim_1_1ga_1_1_xover_site.html#a1365d29678f952dd1d85a4b3282a5455" target="_top" xlink:title="Creates a new XoverSite that contains the same information of this one, i.e., a shallow copy.">
<polygon fill="white" stroke="black" points="725,-183 725,-202 865,-202 865,-183 725,-183"/>
<text text-anchor="middle" x="795" y="-190" font-family="Helvetica,sans-Serif" font-size="10.00">denoptim.ga.XoverSite.clone</text>
</a>
</g>
</g>
<!-- Node1&#45;&gt;Node2 -->
<g id="edge1" class="edge">
<title>Node1&#45;&gt;Node2</title>
<path fill="none" stroke="midnightblue" d="M952.53,-140.07C929.67,-150.11 897.23,-163.69 868,-173.5 857.7,-176.95 846.41,-180.19 835.89,-182.97"/>
<polygon fill="midnightblue" stroke="midnightblue" points="953.99,-143.25 961.71,-136 951.15,-136.85 953.99,-143.25"/>
</g>
<!-- Node3 -->
<g id="node3" class="node">
<title>Node3</title>
<g id="a_node3"><a xlink:href="classdenoptim_1_1ga_1_1_xover_site.html#a91d470661642274184e6ef634e899720" target="_top" xlink:title="Creates a new XoverSite that considers the opposite order of candidates of this one.">
<polygon fill="white" stroke="black" points="723.5,-133.5 723.5,-163.5 866.5,-163.5 866.5,-133.5 723.5,-133.5"/>
<text text-anchor="start" x="731.5" y="-151.5" font-family="Helvetica,sans-Serif" font-size="10.00">denoptim.ga.XoverSite.create</text>
<text text-anchor="middle" x="795" y="-140.5" font-family="Helvetica,sans-Serif" font-size="10.00">Mirror</text>
</a>
</g>
</g>
<!-- Node1&#45;&gt;Node3 -->
<g id="edge3" class="edge">
<title>Node1&#45;&gt;Node3</title>
<path fill="none" stroke="midnightblue" d="M893.76,-136.97C884.7,-138.04 875.58,-139.11 866.75,-140.15"/>
<polygon fill="midnightblue" stroke="midnightblue" points="894.43,-140.41 903.95,-135.77 893.61,-133.46 894.43,-140.41"/>
</g>
<!-- Node10 -->
<g id="node10" class="node">
<title>Node10</title>
<g id="a_node10"><a xlink:href="classdenoptim_1_1ga_1_1_xover_site.html#ab41422d3c5afa9c865d6a6d5feb5260a" target="_top" xlink:title="Compares this and another instance.">
<polygon fill="white" stroke="black" points="722.5,-95 722.5,-114 867.5,-114 867.5,-95 722.5,-95"/>
<text text-anchor="middle" x="795" y="-102" font-family="Helvetica,sans-Serif" font-size="10.00">denoptim.ga.XoverSite.equals</text>
</a>
</g>
</g>
<!-- Node1&#45;&gt;Node10 -->
<g id="edge10" class="edge">
<title>Node1&#45;&gt;Node10</title>
<path fill="none" stroke="midnightblue" d="M894.01,-116.06C885.17,-115.02 876.27,-113.97 867.64,-112.95"/>
<polygon fill="midnightblue" stroke="midnightblue" points="893.61,-119.54 903.95,-117.23 894.43,-112.59 893.61,-119.54"/>
</g>
<!-- Node11 -->
<g id="node11" class="node">
<title>Node11</title>
<g id="a_node11"><a xlink:href="classdenoptim_1_1ga_1_1_xover_site.html#a1d75cc7f886374a295deec540178cb61" target="_top" xlink:title="Creates a new instance of this class that contains the list of vertexes that correspond to those cont...">
<polygon fill="white" stroke="black" points="722,-44.5 722,-74.5 868,-74.5 868,-44.5 722,-44.5"/>
<text text-anchor="start" x="730" y="-62.5" font-family="Helvetica,sans-Serif" font-size="10.00">denoptim.ga.XoverSite.project</text>
<text text-anchor="middle" x="795" y="-51.5" font-family="Helvetica,sans-Serif" font-size="10.00">ToClonedGraphs</text>
</a>
</g>
</g>
<!-- Node1&#45;&gt;Node11 -->
<g id="edge11" class="edge">
<title>Node1&#45;&gt;Node11</title>
<path fill="none" stroke="midnightblue" d="M946.2,-113.46C915.13,-102.3 870.38,-86.22 837.81,-74.52"/>
<polygon fill="midnightblue" stroke="midnightblue" points="945.18,-116.81 955.78,-116.9 947.55,-110.23 945.18,-116.81"/>
</g>
<!-- Node2&#45;&gt;Node2 -->
<g id="edge2" class="edge">
<title>Node2&#45;&gt;Node2</title>
<path fill="none" stroke="midnightblue" d="M829.48,-210.39C828.98,-216.04 817.48,-220.5 795,-220.5 762.3,-220.5 752.84,-211.07 766.64,-202.26"/>
<polygon fill="midnightblue" stroke="midnightblue" points="832.17,-208.14 823.36,-202.26 826.58,-212.35 832.17,-208.14"/>
</g>
<!-- Node4 -->
<g id="node4" class="node">
<title>Node4</title>
<g id="a_node4"><a xlink:href="classdenoptim_1_1ga_1_1_population_1_1_xover_sites_among_candidates.html#ab53b763a029645b968fc3f2b0fd2bd74" target="_top" xlink:title="Creates the entry corresponding to the pair of given candidates.">
<polygon fill="white" stroke="black" points="537.5,-135.5 537.5,-165.5 682.5,-165.5 682.5,-135.5 537.5,-135.5"/>
<text text-anchor="start" x="545.5" y="-153.5" font-family="Helvetica,sans-Serif" font-size="10.00">denoptim.ga.Population.Xover</text>
<text text-anchor="middle" x="610" y="-142.5" font-family="Helvetica,sans-Serif" font-size="10.00">SitesAmongCandidates.put</text>
</a>
</g>
</g>
<!-- Node3&#45;&gt;Node4 -->
<g id="edge4" class="edge">
<title>Node3&#45;&gt;Node4</title>
<path fill="none" stroke="midnightblue" d="M713.19,-149.38C703.06,-149.49 692.75,-149.61 682.77,-149.72"/>
<polygon fill="midnightblue" stroke="midnightblue" points="713.29,-152.88 723.25,-149.27 713.21,-145.88 713.29,-152.88"/>
</g>
<!-- Node5 -->
<g id="node5" class="node">
<title>Node5</title>
<g id="a_node5"><a xlink:href="classdenoptim_1_1ga_1_1_population.html#a31b74cc5407c42fa3a4214029fb08190" target="_top" xlink:title="Returns a list of population members that can do crossover with the specified member.">
<polygon fill="white" stroke="black" points="365,-136.5 365,-166.5 498,-166.5 498,-136.5 365,-136.5"/>
<text text-anchor="start" x="373" y="-154.5" font-family="Helvetica,sans-Serif" font-size="10.00">denoptim.ga.Population.get</text>
<text text-anchor="middle" x="431.5" y="-143.5" font-family="Helvetica,sans-Serif" font-size="10.00">XoverPartners</text>
</a>
</g>
</g>
<!-- Node4&#45;&gt;Node5 -->
<g id="edge5" class="edge">
<title>Node4&#45;&gt;Node5</title>
<path fill="none" stroke="midnightblue" d="M527.33,-150.96C517.55,-151.02 507.67,-151.07 498.16,-151.13"/>
<polygon fill="midnightblue" stroke="midnightblue" points="527.49,-154.46 537.47,-150.91 527.45,-147.46 527.49,-154.46"/>
</g>
<!-- Node6 -->
<g id="node6" class="node">
<title>Node6</title>
<g id="a_node6"><a xlink:href="classdenoptim_1_1ga_1_1_e_a_utils.html#a45d4e9ec6a308aa73891efa1d501dd5e" target="_top" xlink:title="Perform fitness&#45;based, class&#45;compatible selection of parents that can do crossover operations.">
<polygon fill="white" stroke="black" points="163,-187 163,-206 329,-206 329,-187 163,-187"/>
<text text-anchor="middle" x="246" y="-194" font-family="Helvetica,sans-Serif" font-size="10.00">denoptim.ga.EAUtils.performFBCC</text>
</a>
</g>
</g>
<!-- Node5&#45;&gt;Node6 -->
<g id="edge6" class="edge">
<title>Node5&#45;&gt;Node6</title>
<path fill="none" stroke="midnightblue" d="M363,-169.02C351.66,-171.9 340,-174.82 329,-177.5 316.08,-180.65 301.98,-183.96 289.18,-186.92"/>
<polygon fill="midnightblue" stroke="midnightblue" points="364.03,-172.37 372.86,-166.51 362.3,-165.59 364.03,-172.37"/>
</g>
<!-- Node8 -->
<g id="node8" class="node">
<title>Node8</title>
<g id="a_node8"><a xlink:href="classdenoptim_1_1ga_1_1_population_test.html#a5db0672054a9fc1dbc923310732fdb3a" target="_top" xlink:title=" ">
<polygon fill="white" stroke="black" points="168.5,-137.5 168.5,-167.5 323.5,-167.5 323.5,-137.5 168.5,-137.5"/>
<text text-anchor="start" x="176.5" y="-155.5" font-family="Helvetica,sans-Serif" font-size="10.00">denoptim.ga.PopulationTest.test</text>
<text text-anchor="middle" x="246" y="-144.5" font-family="Helvetica,sans-Serif" font-size="10.00">Clone</text>
</a>
</g>
</g>
<!-- Node5&#45;&gt;Node8 -->
<g id="edge8" class="edge">
<title>Node5&#45;&gt;Node8</title>
<path fill="none" stroke="midnightblue" d="M354.61,-151.91C344.34,-151.97 333.8,-152.03 323.52,-152.08"/>
<polygon fill="midnightblue" stroke="midnightblue" points="354.79,-155.41 364.77,-151.86 354.75,-148.41 354.79,-155.41"/>
</g>
<!-- Node9 -->
<g id="node9" class="node">
<title>Node9</title>
<g id="a_node9"><a xlink:href="classdenoptim_1_1ga_1_1_population_test.html#a278212ebff2501b7071d342f9a027599" target="_top" xlink:title=" ">
<polygon fill="white" stroke="black" points="168.5,-88.5 168.5,-118.5 323.5,-118.5 323.5,-88.5 168.5,-88.5"/>
<text text-anchor="start" x="176.5" y="-106.5" font-family="Helvetica,sans-Serif" font-size="10.00">denoptim.ga.PopulationTest.test</text>
<text text-anchor="middle" x="246" y="-95.5" font-family="Helvetica,sans-Serif" font-size="10.00">XOverCompatibility</text>
</a>
</g>
</g>
<!-- Node5&#45;&gt;Node9 -->
<g id="edge9" class="edge">
<title>Node5&#45;&gt;Node9</title>
<path fill="none" stroke="midnightblue" d="M363.03,-133.85C343.76,-128.81 322.95,-123.37 304.35,-118.5"/>
<polygon fill="midnightblue" stroke="midnightblue" points="362.38,-137.3 372.94,-136.44 364.15,-130.53 362.38,-137.3"/>
</g>
<!-- Node7 -->
<g id="node7" class="node">
<title>Node7</title>
<g id="a_node7"><a xlink:href="classdenoptim_1_1ga_1_1_e_a_utils.html#a0b958439d79fae30f14530213ad22e3a" target="_top" xlink:title="Generates up to a pair of new offspring by performing a crossover operation.">
<polygon fill="white" stroke="black" points="0,-112.5 0,-142.5 127,-142.5 127,-112.5 0,-112.5"/>
<text text-anchor="start" x="8" y="-130.5" font-family="Helvetica,sans-Serif" font-size="10.00">denoptim.ga.EAUtils.build</text>
<text text-anchor="middle" x="63.5" y="-119.5" font-family="Helvetica,sans-Serif" font-size="10.00">CandidatesByXOver</text>
</a>
</g>
</g>
<!-- Node6&#45;&gt;Node7 -->
<g id="edge7" class="edge">
<title>Node6&#45;&gt;Node7</title>
<path fill="none" stroke="midnightblue" d="M185.14,-184.41C177.6,-182.37 170.07,-180.07 163,-177.5 137.23,-168.13 109.51,-153.63 90.07,-142.65"/>
<polygon fill="midnightblue" stroke="midnightblue" points="184.45,-187.85 195,-186.95 186.19,-181.07 184.45,-187.85"/>
</g>
<!-- Node11&#45;&gt;Node7 -->
<g id="edge12" class="edge">
<title>Node11&#45;&gt;Node7</title>
<path fill="none" stroke="midnightblue" d="M711.69,-51.28C589.78,-41.52 354.97,-32 163,-79.5 135.85,-86.22 107.41,-101.05 88.1,-112.46"/>
<polygon fill="midnightblue" stroke="midnightblue" points="711.44,-54.77 721.7,-52.1 712.02,-47.8 711.44,-54.77"/>
</g>
<!-- Node12 -->
<g id="node12" class="node">
<title>Node12</title>
<g id="a_node12"><a xlink:href="classdenoptim_1_1ga_1_1_xover_site_test.html#a3936ca2cfc1bb9ace410f7f47ad2c1f2" target="_top" xlink:title=" ">
<polygon fill="white" stroke="black" points="534,-0.5 534,-30.5 686,-30.5 686,-0.5 534,-0.5"/>
<text text-anchor="start" x="542" y="-18.5" font-family="Helvetica,sans-Serif" font-size="10.00">denoptim.ga.XoverSiteTest.test</text>
<text text-anchor="middle" x="610" y="-7.5" font-family="Helvetica,sans-Serif" font-size="10.00">ProjectToClonedGraphs</text>
</a>
</g>
</g>
<!-- Node11&#45;&gt;Node12 -->
<g id="edge13" class="edge">
<title>Node11&#45;&gt;Node12</title>
<path fill="none" stroke="midnightblue" d="M721.73,-42.12C705.78,-38.29 689.02,-34.26 673.5,-30.53"/>
<polygon fill="midnightblue" stroke="midnightblue" points="720.99,-45.55 731.53,-44.48 722.63,-38.74 720.99,-45.55"/>
</g>
</g>
</svg>
