<?xml version="1.0" encoding="UTF-8" standalone="no"?>
<!DOCTYPE svg PUBLIC "-//W3C//DTD SVG 1.1//EN"
 "http://www.w3.org/Graphics/SVG/1.1/DTD/svg11.dtd">
<!-- Generated by graphviz version 3.0.0 (20221109.1736)
 -->
<!-- Title: denoptim.graph.DGraph.getIndexOfEdgesWithChild Pages: 1 -->
<svg width="486pt" height="161pt"
 viewBox="0.00 0.00 486.00 161.00" xmlns="http://www.w3.org/2000/svg" xmlns:xlink="http://www.w3.org/1999/xlink">
<g id="graph0" class="graph" transform="scale(1 1) rotate(0) translate(4 157)">
<title>denoptim.graph.DGraph.getIndexOfEdgesWithChild</title>
<polygon fill="white" stroke="transparent" points="-4,4 -4,-157 482,-157 482,4 -4,4"/>
<!-- Node1 -->
<g id="node1" class="node">
<title>Node1</title>
<g id="a_node1"><a xlink:title=" ">
<polygon fill="#bfbfbf" stroke="black" points="0,-73.5 0,-103.5 134,-103.5 134,-73.5 0,-73.5"/>
<text text-anchor="start" x="8" y="-91.5" font-family="Helvetica,sans-Serif" font-size="10.00">denoptim.graph.DGraph.get</text>
<text text-anchor="middle" x="67" y="-80.5" font-family="Helvetica,sans-Serif" font-size="10.00">IndexOfEdgesWithChild</text>
</a>
</g>
</g>
<!-- Node2 -->
<g id="node2" class="node">
<title>Node2</title>
<g id="a_node2"><a xlink:href="classdenoptim_1_1graph_1_1_d_graph.html#a1c026219bd5d18db71cba560395083ae" target="_top" xlink:title=" ">
<polygon fill="white" stroke="black" points="171.5,-122.5 171.5,-152.5 305.5,-152.5 305.5,-122.5 171.5,-122.5"/>
<text text-anchor="start" x="179.5" y="-140.5" font-family="Helvetica,sans-Serif" font-size="10.00">denoptim.graph.DGraph.get</text>
<text text-anchor="middle" x="238.5" y="-129.5" font-family="Helvetica,sans-Serif" font-size="10.00">EdgeAtPosition</text>
</a>
</g>
</g>
<!-- Node1&#45;&gt;Node2 -->
<g id="edge1" class="edge">
<title>Node1&#45;&gt;Node2</title>
<path fill="none" stroke="midnightblue" d="M120.24,-103.6C137.8,-108.68 157.56,-114.39 175.78,-119.66"/>
<polygon fill="midnightblue" stroke="midnightblue" points="174.86,-123.03 185.43,-122.45 176.8,-116.31 174.86,-123.03"/>
</g>
<!-- Node3 -->
<g id="node3" class="node">
<title>Node3</title>
<g id="a_node3"><a xlink:href="classdenoptim_1_1graph_1_1_d_graph.html#a559b3bd2aa8849d8d58430afcb20b016" target="_top" xlink:title=" ">
<polygon fill="white" stroke="black" points="171.5,-73.5 171.5,-103.5 305.5,-103.5 305.5,-73.5 171.5,-73.5"/>
<text text-anchor="start" x="179.5" y="-91.5" font-family="Helvetica,sans-Serif" font-size="10.00">denoptim.graph.DGraph.get</text>
<text text-anchor="middle" x="238.5" y="-80.5" font-family="Helvetica,sans-Serif" font-size="10.00">EdgeCount</text>
</a>
</g>
</g>
<!-- Node1&#45;&gt;Node3 -->
<g id="edge2" class="edge">
<title>Node1&#45;&gt;Node3</title>
<path fill="none" stroke="midnightblue" d="M134.02,-88.5C142.93,-88.5 152.14,-88.5 161.21,-88.5"/>
<polygon fill="midnightblue" stroke="midnightblue" points="161.38,-92 171.38,-88.5 161.38,-85 161.38,-92"/>
</g>
<!-- Node4 -->
<g id="node4" class="node">
<title>Node4</title>
<g id="a_node4"><a xlink:href="classdenoptim_1_1graph_1_1_edge.html#a6331fb41fb8390b908ca7d737cc13602" target="_top" xlink:title=" ">
<polygon fill="white" stroke="black" points="170,-24.5 170,-54.5 307,-54.5 307,-24.5 170,-24.5"/>
<text text-anchor="start" x="178" y="-42.5" font-family="Helvetica,sans-Serif" font-size="10.00">denoptim.graph.Edge.getSrc</text>
<text text-anchor="middle" x="238.5" y="-31.5" font-family="Helvetica,sans-Serif" font-size="10.00">Vertex</text>
</a>
</g>
</g>
<!-- Node1&#45;&gt;Node4 -->
<g id="edge3" class="edge">
<title>Node1&#45;&gt;Node4</title>
<path fill="none" stroke="midnightblue" d="M120.24,-73.4C137.8,-68.32 157.56,-62.61 175.78,-57.34"/>
<polygon fill="midnightblue" stroke="midnightblue" points="176.8,-60.69 185.43,-54.55 174.86,-53.97 176.8,-60.69"/>
</g>
<!-- Node5 -->
<g id="node5" class="node">
<title>Node5</title>
<g id="a_node5"><a xlink:href="classdenoptim_1_1graph_1_1_attachment_point.html#ac8551521d38644f5109800b665957ee9" target="_top" xlink:title=" ">
<polygon fill="white" stroke="black" points="343,-49.5 343,-79.5 478,-79.5 478,-49.5 343,-49.5"/>
<text text-anchor="start" x="351" y="-67.5" font-family="Helvetica,sans-Serif" font-size="10.00">denoptim.graph.Attachment</text>
<text text-anchor="middle" x="410.5" y="-56.5" font-family="Helvetica,sans-Serif" font-size="10.00">Point.getOwner</text>
</a>
</g>
</g>
<!-- Node4&#45;&gt;Node5 -->
<g id="edge4" class="edge">
<title>Node4&#45;&gt;Node5</title>
<path fill="none" stroke="midnightblue" d="M307.18,-49.45C315.63,-50.7 324.32,-51.97 332.9,-53.23"/>
<polygon fill="midnightblue" stroke="midnightblue" points="332.49,-56.71 342.89,-54.7 333.5,-49.79 332.49,-56.71"/>
</g>
<!-- Node6 -->
<g id="node6" class="node">
<title>Node6</title>
<g id="a_node6"><a xlink:href="classdenoptim_1_1graph_1_1_vertex.html#a9493346ca1480edfcfa00cb78a52adf5" target="_top" xlink:title=" ">
<polygon fill="white" stroke="black" points="346.5,-0.5 346.5,-30.5 474.5,-30.5 474.5,-0.5 346.5,-0.5"/>
<text text-anchor="start" x="354.5" y="-18.5" font-family="Helvetica,sans-Serif" font-size="10.00">denoptim.graph.Vertex.get</text>
<text text-anchor="middle" x="410.5" y="-7.5" font-family="Helvetica,sans-Serif" font-size="10.00">VertexId</text>
</a>
</g>
</g>
<!-- Node4&#45;&gt;Node6 -->
<g id="edge5" class="edge">
<title>Node4&#45;&gt;Node6</title>
<path fill="none" stroke="midnightblue" d="M307.18,-29.95C316.8,-28.59 326.73,-27.19 336.45,-25.81"/>
<polygon fill="midnightblue" stroke="midnightblue" points="337.06,-29.26 346.47,-24.4 336.08,-22.33 337.06,-29.26"/>
</g>
</g>
</svg>
