<?xml version="1.0" encoding="UTF-8" standalone="no"?>
<!DOCTYPE svg PUBLIC "-//W3C//DTD SVG 1.1//EN"
 "http://www.w3.org/Graphics/SVG/1.1/DTD/svg11.dtd">
<!-- Generated by graphviz version 3.0.0 (20221109.1736)
 -->
<!-- Title: denoptim.graph.AttachmentPoint.setAPClass Pages: 1 -->
<svg width="1383pt" height="418pt"
 viewBox="0.00 0.00 1383.00 418.00" xmlns="http://www.w3.org/2000/svg" xmlns:xlink="http://www.w3.org/1999/xlink">
<g id="graph0" class="graph" transform="scale(1 1) rotate(0) translate(4 414)">
<title>denoptim.graph.AttachmentPoint.setAPClass</title>
<polygon fill="white" stroke="transparent" points="-4,4 -4,-414 1379,-414 1379,4 -4,4"/>
<!-- Node1 -->
<g id="node1" class="node">
<title>Node1</title>
<g id="a_node1"><a xlink:title="Set the Attachment Point class.">
<polygon fill="#bfbfbf" stroke="black" points="1240,-305.5 1240,-335.5 1375,-335.5 1375,-305.5 1240,-305.5"/>
<text text-anchor="start" x="1248" y="-323.5" font-family="Helvetica,sans-Serif" font-size="10.00">denoptim.graph.Attachment</text>
<text text-anchor="middle" x="1307.5" y="-312.5" font-family="Helvetica,sans-Serif" font-size="10.00">Point.setAPClass</text>
</a>
</g>
</g>
<!-- Node2 -->
<g id="node2" class="node">
<title>Node2</title>
<g id="a_node2"><a xlink:href="classdenoptim_1_1utils_1_1_graph_conversion_tool.html#abf9ddf4333b1151356a00b686f93604d" target="_top" xlink:title="Given a formatted string&#45;like representation of a DENOPTIM graph create the corresponding DENOPTIMGra...">
<polygon fill="white" stroke="black" points="1040.5,-379.5 1040.5,-409.5 1194.5,-409.5 1194.5,-379.5 1040.5,-379.5"/>
<text text-anchor="start" x="1048.5" y="-397.5" font-family="Helvetica,sans-Serif" font-size="10.00">denoptim.utils.GraphConversion</text>
<text text-anchor="middle" x="1117.5" y="-386.5" font-family="Helvetica,sans-Serif" font-size="10.00">Tool.getGraphFromString</text>
</a>
</g>
</g>
<!-- Node1&#45;&gt;Node2 -->
<g id="edge1" class="edge">
<title>Node1&#45;&gt;Node2</title>
<path fill="none" stroke="midnightblue" d="M1269.81,-340.4C1250.58,-350.31 1226.42,-361.96 1204,-370.5 1195.5,-373.74 1186.37,-376.76 1177.37,-379.49"/>
<polygon fill="midnightblue" stroke="midnightblue" points="1271.58,-343.42 1278.83,-335.69 1268.34,-337.21 1271.58,-343.42"/>
</g>
<!-- Node3 -->
<g id="node3" class="node">
<title>Node3</title>
<g id="a_node3"><a xlink:href="classdenoptim_1_1graph_1_1_template_test.html#abec2a04150d4f8948c18a796b5144ddc" target="_top" xlink:title=" ">
<polygon fill="white" stroke="black" points="1035.5,-330.5 1035.5,-360.5 1199.5,-360.5 1199.5,-330.5 1035.5,-330.5"/>
<text text-anchor="start" x="1043.5" y="-348.5" font-family="Helvetica,sans-Serif" font-size="10.00">denoptim.graph.TemplateTest.test</text>
<text text-anchor="middle" x="1117.5" y="-337.5" font-family="Helvetica,sans-Serif" font-size="10.00">SameAPClass</text>
</a>
</g>
</g>
<!-- Node1&#45;&gt;Node3 -->
<g id="edge2" class="edge">
<title>Node1&#45;&gt;Node3</title>
<path fill="none" stroke="midnightblue" d="M1229.77,-330.7C1219.89,-332.02 1209.75,-333.37 1199.79,-334.69"/>
<polygon fill="midnightblue" stroke="midnightblue" points="1230.5,-334.14 1239.95,-329.35 1229.58,-327.2 1230.5,-334.14"/>
</g>
<!-- Node5 -->
<g id="node5" class="node">
<title>Node5</title>
<g id="a_node5"><a xlink:href="classdenoptim_1_1graph_1_1_attachment_point_test.html#af2fc2503c300637c2369eb4347c990c1" target="_top" xlink:title=" ">
<polygon fill="white" stroke="black" points="1031,-281.5 1031,-311.5 1204,-311.5 1204,-281.5 1031,-281.5"/>
<text text-anchor="start" x="1039" y="-299.5" font-family="Helvetica,sans-Serif" font-size="10.00">denoptim.graph.Attachment</text>
<text text-anchor="middle" x="1117.5" y="-288.5" font-family="Helvetica,sans-Serif" font-size="10.00">PointTest.testSameAs_DiffAPClass</text>
</a>
</g>
</g>
<!-- Node1&#45;&gt;Node5 -->
<g id="edge4" class="edge">
<title>Node1&#45;&gt;Node5</title>
<path fill="none" stroke="midnightblue" d="M1230.02,-310.74C1221.47,-309.64 1212.71,-308.53 1204.06,-307.42"/>
<polygon fill="midnightblue" stroke="midnightblue" points="1229.59,-314.21 1239.95,-312 1230.48,-307.27 1229.59,-314.21"/>
</g>
<!-- Node6 -->
<g id="node6" class="node">
<title>Node6</title>
<g id="a_node6"><a xlink:href="classdenoptim_1_1graph_1_1_template.html#a61cc569f5d46c943ca1981653eaa5869" target="_top" xlink:title="Replaces a given link between APs on the surface of this template (i.e., outerAP) and the correspondi...">
<polygon fill="white" stroke="black" points="1039,-232.5 1039,-262.5 1196,-262.5 1196,-232.5 1039,-232.5"/>
<text text-anchor="start" x="1047" y="-250.5" font-family="Helvetica,sans-Serif" font-size="10.00">denoptim.graph.Template.update</text>
<text text-anchor="middle" x="1117.5" y="-239.5" font-family="Helvetica,sans-Serif" font-size="10.00">InnerApID</text>
</a>
</g>
</g>
<!-- Node1&#45;&gt;Node6 -->
<g id="edge5" class="edge">
<title>Node1&#45;&gt;Node6</title>
<path fill="none" stroke="midnightblue" d="M1268.19,-300.85C1249.18,-291.54 1225.7,-280.7 1204,-272.5 1194.6,-268.95 1184.46,-265.59 1174.56,-262.55"/>
<polygon fill="midnightblue" stroke="midnightblue" points="1266.9,-304.11 1277.41,-305.42 1270,-297.84 1266.9,-304.11"/>
</g>
<!-- Node4 -->
<g id="node4" class="node">
<title>Node4</title>
<g id="a_node4"><a xlink:href="classdenoptim_1_1graph_1_1_template_test.html#a97788ba0cf69ace70ee9f81139baa36a" target="_top" xlink:title=" ">
<polygon fill="white" stroke="black" points="831,-325 831,-366 995,-366 995,-325 831,-325"/>
<text text-anchor="start" x="839" y="-354" font-family="Helvetica,sans-Serif" font-size="10.00">denoptim.graph.TemplateTest.test</text>
<text text-anchor="start" x="839" y="-343" font-family="Helvetica,sans-Serif" font-size="10.00">SetInnerGraph_throws_on_graph</text>
<text text-anchor="middle" x="913" y="-332" font-family="Helvetica,sans-Serif" font-size="10.00">_incompatible_w_requiredAPs</text>
</a>
</g>
</g>
<!-- Node3&#45;&gt;Node4 -->
<g id="edge3" class="edge">
<title>Node3&#45;&gt;Node4</title>
<path fill="none" stroke="midnightblue" d="M1025.01,-345.5C1015.08,-345.5 1005.02,-345.5 995.22,-345.5"/>
<polygon fill="midnightblue" stroke="midnightblue" points="1025.3,-349 1035.3,-345.5 1025.3,-342 1025.3,-349"/>
</g>
<!-- Node7 -->
<g id="node7" class="node">
<title>Node7</title>
<g id="a_node7"><a xlink:href="classdenoptim_1_1graph_1_1_d_graph.html#a357b4099599e47ae47102123550771f8" target="_top" xlink:title="Remove a given vertex belonging to this graph and re&#45;connects the resulting graph branches as much as...">
<polygon fill="white" stroke="black" points="837,-245.5 837,-275.5 989,-275.5 989,-245.5 837,-245.5"/>
<text text-anchor="start" x="845" y="-263.5" font-family="Helvetica,sans-Serif" font-size="10.00">denoptim.graph.DGraph.remove</text>
<text text-anchor="middle" x="913" y="-252.5" font-family="Helvetica,sans-Serif" font-size="10.00">SingleVertexAndWeld</text>
</a>
</g>
</g>
<!-- Node6&#45;&gt;Node7 -->
<g id="edge6" class="edge">
<title>Node6&#45;&gt;Node7</title>
<path fill="none" stroke="midnightblue" d="M1028.77,-253.13C1015.58,-253.98 1002.07,-254.85 989.17,-255.67"/>
<polygon fill="midnightblue" stroke="midnightblue" points="1029.03,-256.62 1038.79,-252.49 1028.58,-249.64 1029.03,-256.62"/>
</g>
<!-- Node11 -->
<g id="node11" class="node">
<title>Node11</title>
<g id="a_node11"><a xlink:href="classdenoptim_1_1graph_1_1_d_graph.html#aefca90eb3594e935ee283f1e56fec5b4" target="_top" xlink:title="Replaced the subgraph represented by a given collection of vertices that belong to this graph.">
<polygon fill="white" stroke="black" points="837,-147.5 837,-177.5 989,-177.5 989,-147.5 837,-147.5"/>
<text text-anchor="start" x="845" y="-165.5" font-family="Helvetica,sans-Serif" font-size="10.00">denoptim.graph.DGraph.replace</text>
<text text-anchor="middle" x="913" y="-154.5" font-family="Helvetica,sans-Serif" font-size="10.00">SingleSubGraph</text>
</a>
</g>
</g>
<!-- Node6&#45;&gt;Node11 -->
<g id="edge11" class="edge">
<title>Node6&#45;&gt;Node11</title>
<path fill="none" stroke="midnightblue" d="M1071.32,-228.54C1034.76,-213.19 983.94,-191.86 950.06,-177.64"/>
<polygon fill="midnightblue" stroke="midnightblue" points="1070.19,-231.86 1080.76,-232.5 1072.9,-225.4 1070.19,-231.86"/>
</g>
<!-- Node7&#45;&gt;Node7 -->
<g id="edge7" class="edge">
<title>Node7&#45;&gt;Node7</title>
<path fill="none" stroke="midnightblue" d="M947.83,-285.96C943.5,-290.68 931.9,-294 913,-294 881.99,-294 870.61,-285.06 878.84,-275.66"/>
<polygon fill="midnightblue" stroke="midnightblue" points="951.3,-285.41 947.16,-275.66 944.31,-285.87 951.3,-285.41"/>
</g>
<!-- Node8 -->
<g id="node8" class="node">
<title>Node8</title>
<g id="a_node8"><a xlink:href="classdenoptim_1_1graph_1_1_d_graph.html#a00209ca8b4a9623b41e7d9e1e62f69ec" target="_top" xlink:title="Remove a given vertex belonging to this graph and re&#45;connects the resulting graph branches as much as...">
<polygon fill="white" stroke="black" points="641,-294.5 641,-324.5 793,-324.5 793,-294.5 641,-294.5"/>
<text text-anchor="start" x="649" y="-312.5" font-family="Helvetica,sans-Serif" font-size="10.00">denoptim.graph.DGraph.remove</text>
<text text-anchor="middle" x="717" y="-301.5" font-family="Helvetica,sans-Serif" font-size="10.00">VertexAndWeld</text>
</a>
</g>
</g>
<!-- Node7&#45;&gt;Node8 -->
<g id="edge8" class="edge">
<title>Node7&#45;&gt;Node8</title>
<path fill="none" stroke="midnightblue" d="M842.52,-278.05C821.21,-283.43 797.98,-289.3 777.41,-294.49"/>
<polygon fill="midnightblue" stroke="midnightblue" points="843.64,-281.38 852.48,-275.53 841.92,-274.59 843.64,-281.38"/>
</g>
<!-- Node9 -->
<g id="node9" class="node">
<title>Node9</title>
<g id="a_node9"><a xlink:href="classdenoptim_1_1ga_1_1_graph_operations.html#ab3adb5141a8941bf23916bb516faee63" target="_top" xlink:title="Removes a vertex while merging as many of the child branches into the parent vertex.">
<polygon fill="white" stroke="black" points="411,-300 411,-319 603,-319 603,-300 411,-300"/>
<text text-anchor="middle" x="507" y="-307" font-family="Helvetica,sans-Serif" font-size="10.00">denoptim.ga.GraphOperations.deleteLink</text>
</a>
</g>
</g>
<!-- Node8&#45;&gt;Node9 -->
<g id="edge9" class="edge">
<title>Node8&#45;&gt;Node9</title>
<path fill="none" stroke="midnightblue" d="M630.77,-309.5C621.7,-309.5 612.44,-309.5 603.27,-309.5"/>
<polygon fill="midnightblue" stroke="midnightblue" points="630.91,-313 640.91,-309.5 630.91,-306 630.91,-313"/>
</g>
<!-- Node10 -->
<g id="node10" class="node">
<title>Node10</title>
<g id="a_node10"><a xlink:href="classdenoptim_1_1ga_1_1_graph_operations.html#a0c851972015fbb4b2a317b053b8b81d9" target="_top" xlink:title="Mutates the given vertex according to the given mutation type, if possible.">
<polygon fill="white" stroke="black" points="195,-294.5 195,-324.5 375,-324.5 375,-294.5 195,-294.5"/>
<text text-anchor="start" x="203" y="-312.5" font-family="Helvetica,sans-Serif" font-size="10.00">denoptim.ga.GraphOperations.perform</text>
<text text-anchor="middle" x="285" y="-301.5" font-family="Helvetica,sans-Serif" font-size="10.00">Mutation</text>
</a>
</g>
</g>
<!-- Node9&#45;&gt;Node10 -->
<g id="edge10" class="edge">
<title>Node9&#45;&gt;Node10</title>
<path fill="none" stroke="midnightblue" d="M400.75,-309.5C392.17,-309.5 383.56,-309.5 375.11,-309.5"/>
<polygon fill="midnightblue" stroke="midnightblue" points="400.78,-313 410.78,-309.5 400.78,-306 400.78,-313"/>
</g>
<!-- Node12 -->
<g id="node12" class="node">
<title>Node12</title>
<g id="a_node12"><a xlink:href="classdenoptim_1_1graph_1_1_d_graph.html#a4df69c91a742d22f8d14d44489aeac15" target="_top" xlink:title="Edit this graph according to a given list of edit tasks.">
<polygon fill="white" stroke="black" points="649,-245.5 649,-275.5 785,-275.5 785,-245.5 649,-245.5"/>
<text text-anchor="start" x="657" y="-263.5" font-family="Helvetica,sans-Serif" font-size="10.00">denoptim.graph.DGraph.edit</text>
<text text-anchor="middle" x="717" y="-252.5" font-family="Helvetica,sans-Serif" font-size="10.00">Graph</text>
</a>
</g>
</g>
<!-- Node11&#45;&gt;Node12 -->
<g id="edge12" class="edge">
<title>Node11&#45;&gt;Node12</title>
<path fill="none" stroke="midnightblue" d="M883.04,-183.37C860.02,-199.24 826.56,-220.8 795,-235.5 787.23,-239.12 778.79,-242.43 770.44,-245.38"/>
<polygon fill="midnightblue" stroke="midnightblue" points="885.12,-186.18 891.32,-177.58 881.12,-180.44 885.12,-186.18"/>
</g>
<!-- Node14 -->
<g id="node14" class="node">
<title>Node14</title>
<g id="a_node14"><a xlink:href="classdenoptim_1_1graph_1_1_d_graph.html#a86e888ef245d2bd40b49d145c7ef3af0" target="_top" xlink:title="Replaced the subgraph represented by a given collection of vertices that belong to this graph.">
<polygon fill="white" stroke="black" points="641,-196.5 641,-226.5 793,-226.5 793,-196.5 641,-196.5"/>
<text text-anchor="start" x="649" y="-214.5" font-family="Helvetica,sans-Serif" font-size="10.00">denoptim.graph.DGraph.replace</text>
<text text-anchor="middle" x="717" y="-203.5" font-family="Helvetica,sans-Serif" font-size="10.00">SubGraph</text>
</a>
</g>
</g>
<!-- Node11&#45;&gt;Node14 -->
<g id="edge14" class="edge">
<title>Node11&#45;&gt;Node14</title>
<path fill="none" stroke="midnightblue" d="M842.52,-180.05C821.21,-185.43 797.98,-191.3 777.41,-196.49"/>
<polygon fill="midnightblue" stroke="midnightblue" points="843.64,-183.38 852.48,-177.53 841.92,-176.59 843.64,-183.38"/>
</g>
<!-- Node20 -->
<g id="node20" class="node">
<title>Node20</title>
<g id="a_node20"><a xlink:href="classdenoptim_1_1graph_1_1_d_graph.html#adc362402e41af41656e820def73de5ad" target="_top" xlink:title="Replaced a given vertex belonging to this graph with a new vertex generated specifically for this pur...">
<polygon fill="white" stroke="black" points="641,-147.5 641,-177.5 793,-177.5 793,-147.5 641,-147.5"/>
<text text-anchor="start" x="649" y="-165.5" font-family="Helvetica,sans-Serif" font-size="10.00">denoptim.graph.DGraph.replace</text>
<text text-anchor="middle" x="717" y="-154.5" font-family="Helvetica,sans-Serif" font-size="10.00">Vertex</text>
</a>
</g>
</g>
<!-- Node11&#45;&gt;Node20 -->
<g id="edge20" class="edge">
<title>Node11&#45;&gt;Node20</title>
<path fill="none" stroke="midnightblue" d="M826.78,-162.5C815.57,-162.5 804.15,-162.5 793.13,-162.5"/>
<polygon fill="midnightblue" stroke="midnightblue" points="826.99,-166 836.99,-162.5 826.99,-159 826.99,-166"/>
</g>
<!-- Node21 -->
<g id="node21" class="node">
<title>Node21</title>
<g id="a_node21"><a xlink:href="classdenoptim_1_1graph_1_1_d_graph_test.html#aea227d615f6c2f3bac5839a8099a900d" target="_top" xlink:title=" ">
<polygon fill="white" stroke="black" points="639,-98.5 639,-128.5 795,-128.5 795,-98.5 639,-98.5"/>
<text text-anchor="start" x="647" y="-116.5" font-family="Helvetica,sans-Serif" font-size="10.00">denoptim.graph.DGraphTest.test</text>
<text text-anchor="middle" x="717" y="-105.5" font-family="Helvetica,sans-Serif" font-size="10.00">IsIsostructuralTo</text>
</a>
</g>
</g>
<!-- Node11&#45;&gt;Node21 -->
<g id="edge21" class="edge">
<title>Node11&#45;&gt;Node21</title>
<path fill="none" stroke="midnightblue" d="M842.52,-144.95C821.21,-139.57 797.98,-133.7 777.41,-128.51"/>
<polygon fill="midnightblue" stroke="midnightblue" points="841.92,-148.41 852.48,-147.47 843.64,-141.62 841.92,-148.41"/>
</g>
<!-- Node22 -->
<g id="node22" class="node">
<title>Node22</title>
<g id="a_node22"><a xlink:href="classdenoptim_1_1graph_1_1_d_graph_test.html#a83a9624ea5dc6a2c515407b865b62611" target="_top" xlink:title=" ">
<polygon fill="white" stroke="black" points="639,-49.5 639,-79.5 795,-79.5 795,-49.5 639,-49.5"/>
<text text-anchor="start" x="647" y="-67.5" font-family="Helvetica,sans-Serif" font-size="10.00">denoptim.graph.DGraphTest.test</text>
<text text-anchor="middle" x="717" y="-56.5" font-family="Helvetica,sans-Serif" font-size="10.00">ReplaceSubGraph</text>
</a>
</g>
</g>
<!-- Node11&#45;&gt;Node22 -->
<g id="edge22" class="edge">
<title>Node11&#45;&gt;Node22</title>
<path fill="none" stroke="midnightblue" d="M883.55,-141.51C860.57,-125.32 826.92,-103.26 795,-88.5 787.88,-85.21 780.19,-82.21 772.53,-79.53"/>
<polygon fill="midnightblue" stroke="midnightblue" points="881.63,-144.45 891.8,-147.4 885.7,-138.75 881.63,-144.45"/>
</g>
<!-- Node23 -->
<g id="node23" class="node">
<title>Node23</title>
<g id="a_node23"><a xlink:href="classdenoptim_1_1graph_1_1_d_graph_test.html#a0c949ec1131a872dea53524614b3b42a" target="_top" xlink:title=" ">
<polygon fill="white" stroke="black" points="639,-0.5 639,-30.5 795,-30.5 795,-0.5 639,-0.5"/>
<text text-anchor="start" x="647" y="-18.5" font-family="Helvetica,sans-Serif" font-size="10.00">denoptim.graph.DGraphTest.test</text>
<text text-anchor="middle" x="717" y="-7.5" font-family="Helvetica,sans-Serif" font-size="10.00">ReplaceSubGraph_inTemplate</text>
</a>
</g>
</g>
<!-- Node11&#45;&gt;Node23 -->
<g id="edge23" class="edge">
<title>Node11&#45;&gt;Node23</title>
<path fill="none" stroke="midnightblue" d="M895.53,-138.96C875.02,-111.32 837.46,-65.9 795,-39.5 789.53,-36.1 783.54,-33.15 777.39,-30.59"/>
<polygon fill="midnightblue" stroke="midnightblue" points="892.86,-141.24 901.58,-147.27 898.52,-137.12 892.86,-141.24"/>
</g>
<!-- Node13 -->
<g id="node13" class="node">
<title>Node13</title>
<g id="a_node13"><a xlink:href="classdenoptim_1_1programs_1_1grapheditor_1_1_graph_editor.html#a649a62e3d4635ef4c19424fa49e6dcd4" target="_top" xlink:title=" ">
<polygon fill="white" stroke="black" points="431,-245.5 431,-275.5 583,-275.5 583,-245.5 431,-245.5"/>
<text text-anchor="start" x="439" y="-263.5" font-family="Helvetica,sans-Serif" font-size="10.00">denoptim.programs.grapheditor.</text>
<text text-anchor="middle" x="507" y="-252.5" font-family="Helvetica,sans-Serif" font-size="10.00">GraphEditor.runProgram</text>
</a>
</g>
</g>
<!-- Node12&#45;&gt;Node13 -->
<g id="edge13" class="edge">
<title>Node12&#45;&gt;Node13</title>
<path fill="none" stroke="midnightblue" d="M638.56,-260.5C620.49,-260.5 601.28,-260.5 583.3,-260.5"/>
<polygon fill="midnightblue" stroke="midnightblue" points="638.76,-264 648.76,-260.5 638.76,-257 638.76,-264"/>
</g>
<!-- Node15 -->
<g id="node15" class="node">
<title>Node15</title>
<g id="a_node15"><a xlink:href="classdenoptim_1_1graph_1_1_d_graph.html#a1cb3c55237933f7a4d32e002175b84bc" target="_top" xlink:title="Searches for the given pattern type and generated a new graph where each set of (clones of) vertexes ...">
<polygon fill="white" stroke="black" points="432.5,-196.5 432.5,-226.5 581.5,-226.5 581.5,-196.5 432.5,-196.5"/>
<text text-anchor="start" x="440.5" y="-214.5" font-family="Helvetica,sans-Serif" font-size="10.00">denoptim.graph.DGraph.embed</text>
<text text-anchor="middle" x="507" y="-203.5" font-family="Helvetica,sans-Serif" font-size="10.00">PatternsInTemplates</text>
</a>
</g>
</g>
<!-- Node14&#45;&gt;Node15 -->
<g id="edge15" class="edge">
<title>Node14&#45;&gt;Node15</title>
<path fill="none" stroke="midnightblue" d="M630.83,-211.5C614.5,-211.5 597.52,-211.5 581.59,-211.5"/>
<polygon fill="midnightblue" stroke="midnightblue" points="630.91,-215 640.91,-211.5 630.91,-208 630.91,-215"/>
</g>
<!-- Node16 -->
<g id="node16" class="node">
<title>Node16</title>
<g id="a_node16"><a xlink:href="classdenoptim_1_1ga_1_1_graph_operations.html#affb1be89a32e4a429bd7dbdfe0708419" target="_top" xlink:title="Performs the crossover that swaps the two subgraphs defining the given XoverSite.">
<polygon fill="white" stroke="black" points="417,-147.5 417,-177.5 597,-177.5 597,-147.5 417,-147.5"/>
<text text-anchor="start" x="425" y="-165.5" font-family="Helvetica,sans-Serif" font-size="10.00">denoptim.ga.GraphOperations.perform</text>
<text text-anchor="middle" x="507" y="-154.5" font-family="Helvetica,sans-Serif" font-size="10.00">Crossover</text>
</a>
</g>
</g>
<!-- Node14&#45;&gt;Node16 -->
<g id="edge16" class="edge">
<title>Node14&#45;&gt;Node16</title>
<path fill="none" stroke="midnightblue" d="M642.43,-194.17C619.34,-188.73 594.05,-182.77 571.7,-177.51"/>
<polygon fill="midnightblue" stroke="midnightblue" points="641.64,-197.58 652.18,-196.47 643.25,-190.77 641.64,-197.58"/>
</g>
<!-- Node17 -->
<g id="node17" class="node">
<title>Node17</title>
<g id="a_node17"><a xlink:href="classdenoptim_1_1ga_1_1_e_a_utils.html#a0b958439d79fae30f14530213ad22e3a" target="_top" xlink:title="Generates up to a pair of new offspring by performing a crossover operation.">
<polygon fill="white" stroke="black" points="221.5,-172.5 221.5,-202.5 348.5,-202.5 348.5,-172.5 221.5,-172.5"/>
<text text-anchor="start" x="229.5" y="-190.5" font-family="Helvetica,sans-Serif" font-size="10.00">denoptim.ga.EAUtils.build</text>
<text text-anchor="middle" x="285" y="-179.5" font-family="Helvetica,sans-Serif" font-size="10.00">CandidatesByXOver</text>
</a>
</g>
</g>
<!-- Node16&#45;&gt;Node17 -->
<g id="edge17" class="edge">
<title>Node16&#45;&gt;Node17</title>
<path fill="none" stroke="midnightblue" d="M406.85,-173.77C387.06,-176.02 366.78,-178.32 348.64,-180.38"/>
<polygon fill="midnightblue" stroke="midnightblue" points="407.29,-177.24 416.83,-172.63 406.5,-170.28 407.29,-177.24"/>
</g>
<!-- Node18 -->
<g id="node18" class="node">
<title>Node18</title>
<g id="a_node18"><a xlink:href="classdenoptim_1_1programs_1_1genetweeker_1_1_gene_ops_runner.html#ab0f92a94c4fb2334e7d3813e73fc4247" target="_top" xlink:title=" ">
<polygon fill="white" stroke="black" points="205.5,-123.5 205.5,-153.5 364.5,-153.5 364.5,-123.5 205.5,-123.5"/>
<text text-anchor="start" x="213.5" y="-141.5" font-family="Helvetica,sans-Serif" font-size="10.00">denoptim.programs.genetweeker.</text>
<text text-anchor="middle" x="285" y="-130.5" font-family="Helvetica,sans-Serif" font-size="10.00">GeneOpsRunner.runXOver</text>
</a>
</g>
</g>
<!-- Node16&#45;&gt;Node18 -->
<g id="edge18" class="edge">
<title>Node16&#45;&gt;Node18</title>
<path fill="none" stroke="midnightblue" d="M406.65,-151.66C392.58,-150.13 378.28,-148.57 364.68,-147.08"/>
<polygon fill="midnightblue" stroke="midnightblue" points="406.51,-155.17 416.83,-152.77 407.27,-148.21 406.51,-155.17"/>
</g>
<!-- Node19 -->
<g id="node19" class="node">
<title>Node19</title>
<g id="a_node19"><a xlink:href="classdenoptim_1_1programs_1_1genetweeker_1_1_gene_ops_runner.html#a3c2407eb1204a7b25600d3d347d98447" target="_top" xlink:title=" ">
<polygon fill="white" stroke="black" points="0,-123.5 0,-153.5 159,-153.5 159,-123.5 0,-123.5"/>
<text text-anchor="start" x="8" y="-141.5" font-family="Helvetica,sans-Serif" font-size="10.00">denoptim.programs.genetweeker.</text>
<text text-anchor="middle" x="79.5" y="-130.5" font-family="Helvetica,sans-Serif" font-size="10.00">GeneOpsRunner.runProgram</text>
</a>
</g>
</g>
<!-- Node18&#45;&gt;Node19 -->
<g id="edge19" class="edge">
<title>Node18&#45;&gt;Node19</title>
<path fill="none" stroke="midnightblue" d="M194.97,-138.5C183.09,-138.5 170.99,-138.5 159.3,-138.5"/>
<polygon fill="midnightblue" stroke="midnightblue" points="195.32,-142 205.32,-138.5 195.32,-135 195.32,-142"/>
</g>
</g>
</svg>
