<?xml version="1.0" encoding="UTF-8" standalone="no"?>
<!DOCTYPE svg PUBLIC "-//W3C//DTD SVG 1.1//EN"
 "http://www.w3.org/Graphics/SVG/1.1/DTD/svg11.dtd">
<!-- Generated by graphviz version 3.0.0 (20221109.1736)
 -->
<!-- Title: denoptim.graph.Fragment.getJGraphFragIsomorphism Pages: 1 -->
<svg width="524pt" height="88pt"
 viewBox="0.00 0.00 524.00 88.00" xmlns="http://www.w3.org/2000/svg" xmlns:xlink="http://www.w3.org/1999/xlink">
<g id="graph0" class="graph" transform="scale(1 1) rotate(0) translate(4 84)">
<title>denoptim.graph.Fragment.getJGraphFragIsomorphism</title>
<polygon fill="white" stroke="transparent" points="-4,4 -4,-84 520,-84 520,4 -4,4"/>
<!-- Node1 -->
<g id="node1" class="node">
<title>Node1</title>
<g id="a_node1"><a xlink:title="Creates a graph representation of this fragment where both atoms and AttachmentPoints are represented...">
<polygon fill="#bfbfbf" stroke="black" points="0,-24.5 0,-54.5 142,-54.5 142,-24.5 0,-24.5"/>
<text text-anchor="start" x="8" y="-42.5" font-family="Helvetica,sans-Serif" font-size="10.00">denoptim.graph.Fragment.get</text>
<text text-anchor="middle" x="71" y="-31.5" font-family="Helvetica,sans-Serif" font-size="10.00">JGraphFragIsomorphism</text>
</a>
</g>
</g>
<!-- Node2 -->
<g id="node2" class="node">
<title>Node2</title>
<g id="a_node2"><a xlink:href="classdenoptim_1_1graph_1_1_fragment.html#a366dfaf65191c724b8e393b9d9dc899f" target="_top" xlink:title=" ">
<polygon fill="white" stroke="black" points="184,-49.5 184,-79.5 326,-79.5 326,-49.5 184,-49.5"/>
<text text-anchor="start" x="192" y="-67.5" font-family="Helvetica,sans-Serif" font-size="10.00">denoptim.graph.Fragment.get</text>
<text text-anchor="middle" x="255" y="-56.5" font-family="Helvetica,sans-Serif" font-size="10.00">AttachmentPoints</text>
</a>
</g>
</g>
<!-- Node1&#45;&gt;Node2 -->
<g id="edge1" class="edge">
<title>Node1&#45;&gt;Node2</title>
<path fill="none" stroke="midnightblue" d="M142.11,-49.13C152.5,-50.56 163.28,-52.04 173.86,-53.49"/>
<polygon fill="midnightblue" stroke="midnightblue" points="173.55,-56.98 183.93,-54.88 174.5,-50.05 173.55,-56.98"/>
</g>
<!-- Node3 -->
<g id="node3" class="node">
<title>Node3</title>
<g id="a_node3"><a xlink:href="classdenoptim_1_1utils_1_1_molecule_utils.html#a8bca186632882f9399b9511020a43211" target="_top" xlink:title="Gets either the elemental symbol (for standard atoms) of the label (for pseudo&#45;atoms).">
<polygon fill="white" stroke="black" points="178,-0.5 178,-30.5 332,-30.5 332,-0.5 178,-0.5"/>
<text text-anchor="start" x="186" y="-18.5" font-family="Helvetica,sans-Serif" font-size="10.00">denoptim.utils.MoleculeUtils.get</text>
<text text-anchor="middle" x="255" y="-7.5" font-family="Helvetica,sans-Serif" font-size="10.00">SymbolOrLabel</text>
</a>
</g>
</g>
<!-- Node1&#45;&gt;Node3 -->
<g id="edge2" class="edge">
<title>Node1&#45;&gt;Node3</title>
<path fill="none" stroke="midnightblue" d="M142.11,-30.26C150.53,-29.14 159.2,-28 167.82,-26.87"/>
<polygon fill="midnightblue" stroke="midnightblue" points="168.43,-30.31 177.88,-25.54 167.51,-23.37 168.43,-30.31"/>
</g>
<!-- Node4 -->
<g id="node4" class="node">
<title>Node4</title>
<g id="a_node4"><a xlink:href="classdenoptim_1_1utils_1_1_molecule_utils.html#af975649c8225c4653efb1135d8360c2d" target="_top" xlink:title="Check element symbol corresponds to real element of Periodic Table.">
<polygon fill="white" stroke="black" points="368,-0.5 368,-30.5 516,-30.5 516,-0.5 368,-0.5"/>
<text text-anchor="start" x="376" y="-18.5" font-family="Helvetica,sans-Serif" font-size="10.00">denoptim.utils.MoleculeUtils.is</text>
<text text-anchor="middle" x="442" y="-7.5" font-family="Helvetica,sans-Serif" font-size="10.00">Element</text>
</a>
</g>
</g>
<!-- Node3&#45;&gt;Node4 -->
<g id="edge3" class="edge">
<title>Node3&#45;&gt;Node4</title>
<path fill="none" stroke="midnightblue" d="M332.05,-15.5C340.57,-15.5 349.29,-15.5 357.89,-15.5"/>
<polygon fill="midnightblue" stroke="midnightblue" points="357.93,-19 367.93,-15.5 357.93,-12 357.93,-19"/>
</g>
<!-- Node4&#45;&gt;Node4 -->
<g id="edge4" class="edge">
<title>Node4&#45;&gt;Node4</title>
<path fill="none" stroke="midnightblue" d="M409.59,-30.66C401.77,-40.06 412.57,-49 442,-49 459.93,-49 470.95,-45.68 475.05,-40.96"/>
<polygon fill="midnightblue" stroke="midnightblue" points="478.52,-40.42 474.41,-30.66 471.54,-40.86 478.52,-40.42"/>
</g>
</g>
</svg>
