<?xml version="1.0" encoding="UTF-8" standalone="no"?>
<!DOCTYPE svg PUBLIC "-//W3C//DTD SVG 1.1//EN"
 "http://www.w3.org/Graphics/SVG/1.1/DTD/svg11.dtd">
<!-- Generated by graphviz version 3.0.0 (20221109.1736)
 -->
<!-- Title: denoptim.graph.DGraphTest.testExploreGraph_nothingToExplore Pages: 1 -->
<!--zoomable 137 -->
<svg id="main" version="1.1" xmlns="http://www.w3.org/2000/svg" xmlns:xlink="http://www.w3.org/1999/xlink" xml:space="preserve" onload="init(evt)">
<style type="text/css"><![CDATA[
.edge:hover path { stroke: red; }
.edge:hover polygon { stroke: red; fill: red; }
]]></style>
<script type="text/javascript"><![CDATA[
var edges = document.getElementsByTagName('g');
if (edges && edges.length) {
  for (var i=0;i<edges.length;i++) {
    if (edges[i].id.substr(0,4)=='edge') {
      edges[i].setAttribute('class','edge');
    }
  }
}
]]></script>
        <defs>
                <circle id="rim" cx="0" cy="0" r="7"/>
                <circle id="rim2" cx="0" cy="0" r="3.5"/>
                <g id="zoomPlus">
                        <use xlink:href="#rim" fill="#404040">
                                <set attributeName="fill" to="#808080" begin="zoomplus.mouseover" end="zoomplus.mouseout"/>
                        </use>
                        <path d="M-4,0h8M0,-4v8" fill="none" stroke="white" stroke-width="1.5" pointer-events="none"/>
                </g>
                <g id="zoomMin">
                        <use xlink:href="#rim" fill="#404040">
                                <set attributeName="fill" to="#808080" begin="zoomminus.mouseover" end="zoomminus.mouseout"/>
                        </use>
                        <path d="M-4,0h8" fill="none" stroke="white" stroke-width="1.5" pointer-events="none"/>
                </g>
                <g id="dirArrow">
                        <path fill="none" stroke="white" stroke-width="1.5" d="M0,-3.0v7 M-2.5,-0.5L0,-3.0L2.5,-0.5"/>
                </g>
               <g id="resetDef">
                       <use xlink:href="#rim2" fill="#404040">
                               <set attributeName="fill" to="#808080" begin="reset.mouseover" end="reset.mouseout"/>
                       </use>
               </g>
        </defs>

<script type="text/javascript">
var viewWidth = 709;
var viewHeight = 137;
var sectionId = 'dynsection-58';
</script>
<script xlink:href="svgpan.js"/>
<svg id="graph" class="graph">
<g id="viewport">
<title>denoptim.graph.DGraphTest.testExploreGraph_nothingToExplore</title>
<polygon fill="white" stroke="transparent" points="-4,4 -4,-133 705,-133 705,4 -4,4"/>
<!-- Node1 -->
<g id="node1" class="node">
<title>Node1</title>
<g id="a_node1"><a xlink:title=" ">
<polygon fill="#bfbfbf" stroke="black" points="0,-24.5 0,-54.5 156,-54.5 156,-24.5 0,-24.5"/>
<text text-anchor="start" x="8" y="-42.5" font-family="Helvetica,sans-Serif" font-size="10.00">denoptim.graph.DGraphTest.test</text>
<text text-anchor="middle" x="78" y="-31.5" font-family="Helvetica,sans-Serif" font-size="10.00">ExploreGraph_nothingToExplore</text>
</a>
</g>
</g>
<!-- Node2 -->
<g id="node2" class="node">
<title>Node2</title>
<g id="a_node2"><a xlink:href="classdenoptim_1_1graph_1_1_d_graph.html#a98af55c12fde55e3f3f5ebe24389194b" target="_top" xlink:title="Depth&#45;first exploration of graphs.">
<polygon fill="white" stroke="black" points="192,-49.5 192,-79.5 343,-79.5 343,-49.5 192,-49.5"/>
<text text-anchor="start" x="200" y="-67.5" font-family="Helvetica,sans-Serif" font-size="10.00">denoptim.graph.DGraph.explore</text>
<text text-anchor="middle" x="267.5" y="-56.5" font-family="Helvetica,sans-Serif" font-size="10.00">Graph</text>
</a>
</g>
</g>
<!-- Node1&#45;&gt;Node2 -->
<g id="edge1" class="edge">
<title>Node1&#45;&gt;Node2</title>
<path fill="none" stroke="midnightblue" d="M156.08,-49.78C164.57,-50.91 173.25,-52.07 181.83,-53.21"/>
<polygon fill="midnightblue" stroke="midnightblue" points="181.47,-56.69 191.84,-54.55 182.39,-49.75 181.47,-56.69"/>
</g>
<!-- Node8 -->
<g id="node8" class="node">
<title>Node8</title>
<g id="a_node8"><a xlink:href="classdenoptim_1_1graph_1_1_vertex.html#ab8088bc1c894c7c916ca8d8a151fa905" target="_top" xlink:title=" ">
<polygon fill="white" stroke="black" points="203.5,-0.5 203.5,-30.5 331.5,-30.5 331.5,-0.5 203.5,-0.5"/>
<text text-anchor="start" x="211.5" y="-18.5" font-family="Helvetica,sans-Serif" font-size="10.00">denoptim.graph.Vertex.set</text>
<text text-anchor="middle" x="267.5" y="-7.5" font-family="Helvetica,sans-Serif" font-size="10.00">BuildingBlockType</text>
</a>
</g>
</g>
<!-- Node1&#45;&gt;Node8 -->
<g id="edge8" class="edge">
<title>Node1&#45;&gt;Node8</title>
<path fill="none" stroke="midnightblue" d="M156.08,-29.63C168.39,-28.06 181.09,-26.43 193.31,-24.87"/>
<polygon fill="midnightblue" stroke="midnightblue" points="193.96,-28.31 203.44,-23.57 193.07,-21.37 193.96,-28.31"/>
</g>
<!-- Node2&#45;&gt;Node2 -->
<g id="edge2" class="edge">
<title>Node2&#45;&gt;Node2</title>
<path fill="none" stroke="midnightblue" d="M236.48,-79.66C229,-89.06 239.34,-98 267.5,-98 284.66,-98 295.2,-94.68 299.13,-89.96"/>
<polygon fill="midnightblue" stroke="midnightblue" points="302.6,-89.44 298.52,-79.66 295.62,-89.85 302.6,-89.44"/>
</g>
<!-- Node3 -->
<g id="node3" class="node">
<title>Node3</title>
<g id="a_node3"><a xlink:href="classdenoptim_1_1graph_1_1_vertex.html#a85aa901ec3fff8e566c0cc32d9c9f84e" target="_top" xlink:title=" ">
<polygon fill="white" stroke="black" points="382.5,-98.5 382.5,-128.5 510.5,-128.5 510.5,-98.5 382.5,-98.5"/>
<text text-anchor="start" x="390.5" y="-116.5" font-family="Helvetica,sans-Serif" font-size="10.00">denoptim.graph.Vertex.get</text>
<text text-anchor="middle" x="446.5" y="-105.5" font-family="Helvetica,sans-Serif" font-size="10.00">AttachmentPoints</text>
</a>
</g>
</g>
<!-- Node2&#45;&gt;Node3 -->
<g id="edge3" class="edge">
<title>Node2&#45;&gt;Node3</title>
<path fill="none" stroke="midnightblue" d="M323.05,-79.6C341.47,-84.7 362.21,-90.44 381.31,-95.73"/>
<polygon fill="midnightblue" stroke="midnightblue" points="380.56,-99.15 391.13,-98.45 382.43,-92.41 380.56,-99.15"/>
</g>
<!-- Node4 -->
<g id="node4" class="node">
<title>Node4</title>
<g id="a_node4"><a xlink:href="classdenoptim_1_1graph_1_1_attachment_point.html#a05ecc9dd632f58f95e7613f8aa4ece97" target="_top" xlink:title="Gets the attachment point (AP) that is connected to this AP via the edge user.">
<polygon fill="white" stroke="black" points="379,-49.5 379,-79.5 514,-79.5 514,-49.5 379,-49.5"/>
<text text-anchor="start" x="387" y="-67.5" font-family="Helvetica,sans-Serif" font-size="10.00">denoptim.graph.Attachment</text>
<text text-anchor="middle" x="446.5" y="-56.5" font-family="Helvetica,sans-Serif" font-size="10.00">Point.getLinkedAP</text>
</a>
</g>
</g>
<!-- Node2&#45;&gt;Node4 -->
<g id="edge4" class="edge">
<title>Node2&#45;&gt;Node4</title>
<path fill="none" stroke="midnightblue" d="M343.05,-64.5C351.51,-64.5 360.15,-64.5 368.64,-64.5"/>
<polygon fill="midnightblue" stroke="midnightblue" points="368.91,-68 378.91,-64.5 368.91,-61 368.91,-68"/>
</g>
<!-- Node7 -->
<g id="node7" class="node">
<title>Node7</title>
<g id="a_node7"><a xlink:href="classdenoptim_1_1graph_1_1_attachment_point.html#ac8551521d38644f5109800b665957ee9" target="_top" xlink:title=" ">
<polygon fill="white" stroke="black" points="379,-0.5 379,-30.5 514,-30.5 514,-0.5 379,-0.5"/>
<text text-anchor="start" x="387" y="-18.5" font-family="Helvetica,sans-Serif" font-size="10.00">denoptim.graph.Attachment</text>
<text text-anchor="middle" x="446.5" y="-7.5" font-family="Helvetica,sans-Serif" font-size="10.00">Point.getOwner</text>
</a>
</g>
</g>
<!-- Node2&#45;&gt;Node7 -->
<g id="edge7" class="edge">
<title>Node2&#45;&gt;Node7</title>
<path fill="none" stroke="midnightblue" d="M323.05,-49.4C341.47,-44.3 362.21,-38.56 381.31,-33.27"/>
<polygon fill="midnightblue" stroke="midnightblue" points="382.43,-36.59 391.13,-30.55 380.56,-29.85 382.43,-36.59"/>
</g>
<!-- Node5 -->
<g id="node5" class="node">
<title>Node5</title>
<g id="a_node5"><a xlink:href="classdenoptim_1_1graph_1_1_edge.html#a658e275a18a50f12474777f5f28c35e9" target="_top" xlink:title=" ">
<polygon fill="white" stroke="black" points="550,-74 550,-93 701,-93 701,-74 550,-74"/>
<text text-anchor="middle" x="625.5" y="-81" font-family="Helvetica,sans-Serif" font-size="10.00">denoptim.graph.Edge.getSrcAP</text>
</a>
</g>
</g>
<!-- Node4&#45;&gt;Node5 -->
<g id="edge5" class="edge">
<title>Node4&#45;&gt;Node5</title>
<path fill="none" stroke="midnightblue" d="M514.16,-71.66C522.55,-72.56 531.21,-73.49 539.82,-74.41"/>
<polygon fill="midnightblue" stroke="midnightblue" points="539.57,-77.9 549.89,-75.49 540.32,-70.94 539.57,-77.9"/>
</g>
<!-- Node6 -->
<g id="node6" class="node">
<title>Node6</title>
<g id="a_node6"><a xlink:href="classdenoptim_1_1graph_1_1_edge.html#a44521a3ad1a83e5d0a6be227e35ceffa" target="_top" xlink:title=" ">
<polygon fill="white" stroke="black" points="550.5,-36 550.5,-55 700.5,-55 700.5,-36 550.5,-36"/>
<text text-anchor="middle" x="625.5" y="-43" font-family="Helvetica,sans-Serif" font-size="10.00">denoptim.graph.Edge.getTrgAP</text>
</a>
</g>
</g>
<!-- Node4&#45;&gt;Node6 -->
<g id="edge6" class="edge">
<title>Node4&#45;&gt;Node6</title>
<path fill="none" stroke="midnightblue" d="M514.16,-57.34C522.78,-56.42 531.69,-55.46 540.54,-54.51"/>
<polygon fill="midnightblue" stroke="midnightblue" points="540.91,-57.99 550.48,-53.45 540.17,-51.03 540.91,-57.99"/>
</g>
</g>
</svg>
        <g id="navigator" transform="translate(0 0)" fill="#404254">
                <rect fill="#f2f5e9" fill-opacity="0.5" stroke="#606060" stroke-width=".5" x="0" y="0" width="60" height="60"/>
                <use id="zoomplus" xlink:href="#zoomPlus" x="17" y="9" onmousedown="handleZoom(evt,'in')"/>
                <use id="zoomminus" xlink:href="#zoomMin" x="42" y="9" onmousedown="handleZoom(evt,'out')"/>
                <use id="reset" xlink:href="#resetDef" x="30" y="36" onmousedown="handleReset()"/>
                <g id="arrowUp" xlink:href="#dirArrow" transform="translate(30 24)" onmousedown="handlePan(0,-1)">
                  <use xlink:href="#rim" fill="#404040">
                        <set attributeName="fill" to="#808080" begin="arrowUp.mouseover" end="arrowUp.mouseout"/>
                  </use>
                  <path fill="none" stroke="white" stroke-width="1.5" d="M0,-3.0v7 M-2.5,-0.5L0,-3.0L2.5,-0.5"/>
                </g>
                <g id="arrowRight" xlink:href="#dirArrow" transform="rotate(90) translate(36 -43)" onmousedown="handlePan(1,0)">
                  <use xlink:href="#rim" fill="#404040">
                        <set attributeName="fill" to="#808080" begin="arrowRight.mouseover" end="arrowRight.mouseout"/>
                  </use>
                  <path fill="none" stroke="white" stroke-width="1.5" d="M0,-3.0v7 M-2.5,-0.5L0,-3.0L2.5,-0.5"/>
                </g>
                <g id="arrowDown" xlink:href="#dirArrow" transform="rotate(180) translate(-30 -48)" onmousedown="handlePan(0,1)">
                  <use xlink:href="#rim" fill="#404040">
                        <set attributeName="fill" to="#808080" begin="arrowDown.mouseover" end="arrowDown.mouseout"/>
                  </use>
                  <path fill="none" stroke="white" stroke-width="1.5" d="M0,-3.0v7 M-2.5,-0.5L0,-3.0L2.5,-0.5"/>
                </g>
                <g id="arrowLeft" xlink:href="#dirArrow" transform="rotate(270) translate(-36 17)" onmousedown="handlePan(-1,0)">
                  <use xlink:href="#rim" fill="#404040">
                        <set attributeName="fill" to="#808080" begin="arrowLeft.mouseover" end="arrowLeft.mouseout"/>
                  </use>
                  <path fill="none" stroke="white" stroke-width="1.5" d="M0,-3.0v7 M-2.5,-0.5L0,-3.0L2.5,-0.5"/>
                </g>
        </g>
        <svg viewBox="0 0 15 15" width="100%" height="30px" preserveAspectRatio="xMaxYMin meet">
         <g id="arrow_out" transform="scale(0.3 0.3)">
          <a xlink:href="classdenoptim_1_1graph_1_1_d_graph_test_a7927c89dd820a91154a86c5073bf791e_cgraph_org.svg" target="_base">
           <rect id="button" ry="5" rx="5" y="6" x="6" height="38" width="38"
                fill="#f2f5e9" fill-opacity="0.5" stroke="#606060" stroke-width="1.0"/>
           <path id="arrow"
             d="M 11.500037,31.436501 C 11.940474,20.09759 22.043105,11.32322 32.158766,21.979434 L 37.068811,17.246167 C 37.068811,17.246167 37.088388,32 37.088388,32 L 22.160133,31.978069 C 22.160133,31.978069 26.997745,27.140456 26.997745,27.140456 C 18.528582,18.264221 13.291696,25.230495 11.500037,31.436501 z"
             style="fill:#404040;"/>
          </a>
         </g>
        </svg>
</svg>
