<?xml version="1.0" encoding="UTF-8" standalone="no"?>
<!DOCTYPE svg PUBLIC "-//W3C//DTD SVG 1.1//EN"
 "http://www.w3.org/Graphics/SVG/1.1/DTD/svg11.dtd">
<!-- Generated by graphviz version 3.0.0 (20221109.1736)
 -->
<!-- Title: denoptim.gui.GAParametersForm.createMolSzProbGraph Pages: 1 -->
<svg width="544pt" height="118pt"
 viewBox="0.00 0.00 544.00 117.50" xmlns="http://www.w3.org/2000/svg" xmlns:xlink="http://www.w3.org/1999/xlink">
<g id="graph0" class="graph" transform="scale(1 1) rotate(0) translate(4 113.5)">
<title>denoptim.gui.GAParametersForm.createMolSzProbGraph</title>
<polygon fill="white" stroke="transparent" points="-4,4 -4,-113.5 540,-113.5 540,4 -4,4"/>
<!-- Node1 -->
<g id="node1" class="node">
<title>Node1</title>
<g id="a_node1"><a xlink:title=" ">
<polygon fill="#bfbfbf" stroke="black" points="0,-24.5 0,-54.5 142,-54.5 142,-24.5 0,-24.5"/>
<text text-anchor="start" x="8" y="-42.5" font-family="Helvetica,sans-Serif" font-size="10.00">denoptim.gui.GAParameters</text>
<text text-anchor="middle" x="71" y="-31.5" font-family="Helvetica,sans-Serif" font-size="10.00">Form.createMolSzProbGraph</text>
</a>
</g>
</g>
<!-- Node2 -->
<g id="node2" class="node">
<title>Node2</title>
<g id="a_node2"><a xlink:href="classdenoptim_1_1gui_1_1_g_a_parameters_form.html#a5f0013b279214ea7c6226849afe8333d" target="_top" xlink:title=" ">
<polygon fill="white" stroke="black" points="178,-49.5 178,-79.5 335,-79.5 335,-49.5 178,-49.5"/>
<text text-anchor="start" x="186" y="-67.5" font-family="Helvetica,sans-Serif" font-size="10.00">denoptim.gui.GAParameters</text>
<text text-anchor="middle" x="256.5" y="-56.5" font-family="Helvetica,sans-Serif" font-size="10.00">Form.createMolSizeProbDataset</text>
</a>
</g>
</g>
<!-- Node1&#45;&gt;Node2 -->
<g id="edge1" class="edge">
<title>Node1&#45;&gt;Node2</title>
<path fill="none" stroke="midnightblue" d="M142.16,-49.06C150.52,-50.2 159.14,-51.37 167.71,-52.54"/>
<polygon fill="midnightblue" stroke="midnightblue" points="167.35,-56.02 177.73,-53.9 168.29,-49.09 167.35,-56.02"/>
</g>
<!-- Node5 -->
<g id="node5" class="node">
<title>Node5</title>
<g id="a_node5"><a xlink:href="classdenoptim_1_1gui_1_1_g_a_parameters_form.html#aff8428585508824c0cd2a1f3d006ff79" target="_top" xlink:title=" ">
<polygon fill="white" stroke="black" points="187,-0.5 187,-30.5 326,-30.5 326,-0.5 187,-0.5"/>
<text text-anchor="start" x="195" y="-18.5" font-family="Helvetica,sans-Serif" font-size="10.00">denoptim.gui.GAParameters</text>
<text text-anchor="middle" x="256.5" y="-7.5" font-family="Helvetica,sans-Serif" font-size="10.00">Form.createMolSzProbChart</text>
</a>
</g>
</g>
<!-- Node1&#45;&gt;Node5 -->
<g id="edge4" class="edge">
<title>Node1&#45;&gt;Node5</title>
<path fill="none" stroke="midnightblue" d="M142.16,-30.32C153.51,-28.84 165.32,-27.29 176.85,-25.79"/>
<polygon fill="midnightblue" stroke="midnightblue" points="177.43,-29.24 186.89,-24.47 176.53,-22.3 177.43,-29.24"/>
</g>
<!-- Node3 -->
<g id="node3" class="node">
<title>Node3</title>
<g id="a_node3"><a xlink:href="classdenoptim_1_1programs_1_1denovo_1_1_g_a_parameters.html#a4488a01992b7a7f2cda6f3aa7baa25ab" target="_top" xlink:title=" ">
<polygon fill="white" stroke="black" points="373,-68 373,-109 534,-109 534,-68 373,-68"/>
<text text-anchor="start" x="381" y="-97" font-family="Helvetica,sans-Serif" font-size="10.00">denoptim.programs.denovo.</text>
<text text-anchor="start" x="381" y="-86" font-family="Helvetica,sans-Serif" font-size="10.00">GAParameters.convertProbability</text>
<text text-anchor="middle" x="453.5" y="-75" font-family="Helvetica,sans-Serif" font-size="10.00">Scheme</text>
</a>
</g>
</g>
<!-- Node2&#45;&gt;Node3 -->
<g id="edge2" class="edge">
<title>Node2&#45;&gt;Node3</title>
<path fill="none" stroke="midnightblue" d="M335.13,-74.05C344.26,-75.18 353.62,-76.33 362.9,-77.47"/>
<polygon fill="midnightblue" stroke="midnightblue" points="362.55,-80.96 372.9,-78.7 363.41,-74.01 362.55,-80.96"/>
</g>
<!-- Node4 -->
<g id="node4" class="node">
<title>Node4</title>
<g id="a_node4"><a xlink:href="classdenoptim_1_1ga_1_1_e_a_utils.html#a41e3b62363bfa04f372d094483eee83f" target="_top" xlink:title="Calculated a probability given parameters defining the shape of the probability function and a single...">
<polygon fill="white" stroke="black" points="371,-30 371,-49 536,-49 536,-30 371,-30"/>
<text text-anchor="middle" x="453.5" y="-37" font-family="Helvetica,sans-Serif" font-size="10.00">denoptim.ga.EAUtils.getProbability</text>
</a>
</g>
</g>
<!-- Node2&#45;&gt;Node4 -->
<g id="edge3" class="edge">
<title>Node2&#45;&gt;Node4</title>
<path fill="none" stroke="midnightblue" d="M335.13,-54.55C346.03,-53.15 357.27,-51.71 368.28,-50.3"/>
<polygon fill="midnightblue" stroke="midnightblue" points="368.84,-53.75 378.31,-49.01 367.95,-46.81 368.84,-53.75"/>
</g>
</g>
</svg>
