<?xml version="1.0" encoding="UTF-8" standalone="no"?>
<!DOCTYPE svg PUBLIC "-//W3C//DTD SVG 1.1//EN"
 "http://www.w3.org/Graphics/SVG/1.1/DTD/svg11.dtd">
<!-- Generated by graphviz version 3.0.0 (20221109.1736)
 -->
<!-- Title: denoptim.fragspace.FragmentSpace.getAPsCompatibleWithThese Pages: 1 -->
<svg width="1047pt" height="39pt"
 viewBox="0.00 0.00 1047.00 39.00" xmlns="http://www.w3.org/2000/svg" xmlns:xlink="http://www.w3.org/1999/xlink">
<g id="graph0" class="graph" transform="scale(1 1) rotate(0) translate(4 35)">
<title>denoptim.fragspace.FragmentSpace.getAPsCompatibleWithThese</title>
<polygon fill="white" stroke="transparent" points="-4,4 -4,-35 1043,-35 1043,4 -4,4"/>
<!-- Node1 -->
<g id="node1" class="node">
<title>Node1</title>
<g id="a_node1"><a xlink:title="Searches for all attachment points that are compatible with the given list of attachment points.">
<polygon fill="#bfbfbf" stroke="black" points="865,-0.5 865,-30.5 1039,-30.5 1039,-0.5 865,-0.5"/>
<text text-anchor="start" x="873" y="-18.5" font-family="Helvetica,sans-Serif" font-size="10.00">denoptim.fragspace.Fragment</text>
<text text-anchor="middle" x="952" y="-7.5" font-family="Helvetica,sans-Serif" font-size="10.00">Space.getAPsCompatibleWithThese</text>
</a>
</g>
</g>
<!-- Node2 -->
<g id="node2" class="node">
<title>Node2</title>
<g id="a_node2"><a xlink:href="classdenoptim_1_1gui_1_1_g_u_i_graph_handler.html#aa7b55edfa43892851d9e21b870daa2bb" target="_top" xlink:title=" ">
<polygon fill="white" stroke="black" points="632,-0.5 632,-30.5 829,-30.5 829,-0.5 632,-0.5"/>
<text text-anchor="start" x="640" y="-18.5" font-family="Helvetica,sans-Serif" font-size="10.00">denoptim.gui.GUIGraphHandler.collect</text>
<text text-anchor="middle" x="730.5" y="-7.5" font-family="Helvetica,sans-Serif" font-size="10.00">FragAndAPsCompatibleWithSelectedAPs</text>
</a>
</g>
</g>
<!-- Node1&#45;&gt;Node2 -->
<g id="edge1" class="edge">
<title>Node1&#45;&gt;Node2</title>
<path fill="none" stroke="midnightblue" d="M854.87,-15.5C846.29,-15.5 837.59,-15.5 829,-15.5"/>
<polygon fill="midnightblue" stroke="midnightblue" points="854.88,-19 864.88,-15.5 854.88,-12 854.88,-19"/>
</g>
<!-- Node3 -->
<g id="node3" class="node">
<title>Node3</title>
<g id="a_node3"><a xlink:href="classdenoptim_1_1gui_1_1_g_u_i_graph_handler.html#a44e2ff798d22b73f966cb8393ceb4f18" target="_top" xlink:title="Extends the current graph by appending a node to a specific free AP on the growing graph.">
<polygon fill="white" stroke="black" points="414,-0.5 414,-30.5 596,-30.5 596,-0.5 414,-0.5"/>
<text text-anchor="start" x="422" y="-18.5" font-family="Helvetica,sans-Serif" font-size="10.00">denoptim.gui.GUIGraphHandler.extend</text>
<text text-anchor="middle" x="505" y="-7.5" font-family="Helvetica,sans-Serif" font-size="10.00">GraphFromFragSpace</text>
</a>
</g>
</g>
<!-- Node2&#45;&gt;Node3 -->
<g id="edge2" class="edge">
<title>Node2&#45;&gt;Node3</title>
<path fill="none" stroke="midnightblue" d="M621.75,-15.5C613.16,-15.5 604.55,-15.5 596.11,-15.5"/>
<polygon fill="midnightblue" stroke="midnightblue" points="621.79,-19 631.79,-15.5 621.79,-12 621.79,-19"/>
</g>
<!-- Node4 -->
<g id="node4" class="node">
<title>Node4</title>
<g id="a_node4"><a xlink:href="classdenoptim_1_1gui_1_1_g_u_i_graph_handler.html#af5b000c105018cbd7c262b34f9750044" target="_top" xlink:title="Initialize the panel and add buttons.">
<polygon fill="white" stroke="black" points="190,-6 190,-25 378,-25 378,-6 190,-6"/>
<text text-anchor="middle" x="284" y="-13" font-family="Helvetica,sans-Serif" font-size="10.00">denoptim.gui.GUIGraphHandler.initialize</text>
</a>
</g>
</g>
<!-- Node3&#45;&gt;Node4 -->
<g id="edge3" class="edge">
<title>Node3&#45;&gt;Node4</title>
<path fill="none" stroke="midnightblue" d="M403.96,-15.5C395.39,-15.5 386.74,-15.5 378.22,-15.5"/>
<polygon fill="midnightblue" stroke="midnightblue" points="403.98,-19 413.98,-15.5 403.98,-12 403.98,-19"/>
</g>
<!-- Node5 -->
<g id="node5" class="node">
<title>Node5</title>
<g id="a_node5"><a xlink:href="classdenoptim_1_1gui_1_1_g_u_i_graph_handler.html#ab7d010d9a384f6b85edce47c95d6723b" target="_top" xlink:title="Constructor.">
<polygon fill="white" stroke="black" points="0,-0.5 0,-30.5 154,-30.5 154,-0.5 0,-0.5"/>
<text text-anchor="start" x="8" y="-18.5" font-family="Helvetica,sans-Serif" font-size="10.00">denoptim.gui.GUIGraphHandler.</text>
<text text-anchor="middle" x="77" y="-7.5" font-family="Helvetica,sans-Serif" font-size="10.00">GUIGraphHandler</text>
</a>
</g>
</g>
<!-- Node4&#45;&gt;Node5 -->
<g id="edge4" class="edge">
<title>Node4&#45;&gt;Node5</title>
<path fill="none" stroke="midnightblue" d="M179.69,-15.5C171.07,-15.5 162.45,-15.5 154.09,-15.5"/>
<polygon fill="midnightblue" stroke="midnightblue" points="179.8,-19 189.8,-15.5 179.8,-12 179.8,-19"/>
</g>
</g>
</svg>
