<?xml version="1.0" encoding="UTF-8" standalone="no"?>
<!DOCTYPE svg PUBLIC "-//W3C//DTD SVG 1.1//EN"
 "http://www.w3.org/Graphics/SVG/1.1/DTD/svg11.dtd">
<!-- Generated by graphviz version 3.0.0 (20221109.1736)
 -->
<!-- Title: denoptim.programs.mol2graph.Mol2GraphParameters.checkParameters Pages: 1 -->
<svg width="407pt" height="88pt"
 viewBox="0.00 0.00 407.00 88.00" xmlns="http://www.w3.org/2000/svg" xmlns:xlink="http://www.w3.org/1999/xlink">
<g id="graph0" class="graph" transform="scale(1 1) rotate(0) translate(4 84)">
<title>denoptim.programs.mol2graph.Mol2GraphParameters.checkParameters</title>
<polygon fill="white" stroke="transparent" points="-4,4 -4,-84 403,-84 403,4 -4,4"/>
<!-- Node1 -->
<g id="node1" class="node">
<title>Node1</title>
<g id="a_node1"><a xlink:title="Evaluate consistency of input parameters.">
<polygon fill="#bfbfbf" stroke="black" points="0,-24.5 0,-54.5 193,-54.5 193,-24.5 0,-24.5"/>
<text text-anchor="start" x="8" y="-42.5" font-family="Helvetica,sans-Serif" font-size="10.00">denoptim.programs.mol2graph.</text>
<text text-anchor="middle" x="96.5" y="-31.5" font-family="Helvetica,sans-Serif" font-size="10.00">Mol2GraphParameters.checkParameters</text>
</a>
</g>
</g>
<!-- Node2 -->
<g id="node2" class="node">
<title>Node2</title>
<g id="a_node2"><a xlink:href="classdenoptim_1_1files_1_1_file_utils.html#a16bc762b79f5033f2323fb8728593334" target="_top" xlink:title=" ">
<polygon fill="white" stroke="black" points="242.5,-49.5 242.5,-79.5 385.5,-79.5 385.5,-49.5 242.5,-49.5"/>
<text text-anchor="start" x="250.5" y="-67.5" font-family="Helvetica,sans-Serif" font-size="10.00">denoptim.files.FileUtils.check</text>
<text text-anchor="middle" x="314" y="-56.5" font-family="Helvetica,sans-Serif" font-size="10.00">Exists</text>
</a>
</g>
</g>
<!-- Node1&#45;&gt;Node2 -->
<g id="edge1" class="edge">
<title>Node1&#45;&gt;Node2</title>
<path fill="none" stroke="midnightblue" d="M193.28,-50.61C206.32,-52.12 219.59,-53.66 232.33,-55.14"/>
<polygon fill="midnightblue" stroke="midnightblue" points="232.07,-58.64 242.41,-56.31 232.88,-51.68 232.07,-58.64"/>
</g>
<!-- Node3 -->
<g id="node3" class="node">
<title>Node3</title>
<g id="a_node3"><a xlink:href="classdenoptim_1_1programs_1_1_run_time_parameters.html#aaeaf94275f1b63439850a68a244a74c2" target="_top" xlink:title="Checks any of the parameter collections contained in this instance.">
<polygon fill="white" stroke="black" points="229,-0.5 229,-30.5 399,-30.5 399,-0.5 229,-0.5"/>
<text text-anchor="start" x="237" y="-18.5" font-family="Helvetica,sans-Serif" font-size="10.00">denoptim.programs.RunTime</text>
<text text-anchor="middle" x="314" y="-7.5" font-family="Helvetica,sans-Serif" font-size="10.00">Parameters.checkOtherParameters</text>
</a>
</g>
</g>
<!-- Node1&#45;&gt;Node3 -->
<g id="edge2" class="edge">
<title>Node1&#45;&gt;Node3</title>
<path fill="none" stroke="midnightblue" d="M193.28,-28.83C201.67,-27.9 210.16,-26.95 218.54,-26.02"/>
<polygon fill="midnightblue" stroke="midnightblue" points="219.14,-29.47 228.69,-24.89 218.37,-22.52 219.14,-29.47"/>
</g>
</g>
</svg>
