<?xml version="1.0" encoding="UTF-8" standalone="no"?>
<!DOCTYPE svg PUBLIC "-//W3C//DTD SVG 1.1//EN"
 "http://www.w3.org/Graphics/SVG/1.1/DTD/svg11.dtd">
<!-- Generated by graphviz version 3.0.0 (20221109.1736)
 -->
<!-- Title: denoptim.gui.GraphViewerPanel.loadGraphToViewer Pages: 1 -->
<svg width="525pt" height="137pt"
 viewBox="0.00 0.00 525.00 137.00" xmlns="http://www.w3.org/2000/svg" xmlns:xlink="http://www.w3.org/1999/xlink">
<g id="graph0" class="graph" transform="scale(1 1) rotate(0) translate(4 133)">
<title>denoptim.gui.GraphViewerPanel.loadGraphToViewer</title>
<polygon fill="white" stroke="transparent" points="-4,4 -4,-133 521,-133 521,4 -4,4"/>
<!-- Node1 -->
<g id="node1" class="node">
<title>Node1</title>
<g id="a_node1"><a xlink:title="Load the given graph to the graph viewer.">
<polygon fill="#bfbfbf" stroke="black" points="0,-73.5 0,-103.5 130,-103.5 130,-73.5 0,-73.5"/>
<text text-anchor="start" x="8" y="-91.5" font-family="Helvetica,sans-Serif" font-size="10.00">denoptim.gui.GraphViewer</text>
<text text-anchor="middle" x="65" y="-80.5" font-family="Helvetica,sans-Serif" font-size="10.00">Panel.loadGraphToViewer</text>
</a>
</g>
</g>
<!-- Node2 -->
<g id="node2" class="node">
<title>Node2</title>
<g id="a_node2"><a xlink:href="classdenoptim_1_1gui_1_1_graph_viewer_panel.html#a5d141993a4e2544320e3905fd2ef5df9" target="_top" xlink:title=" ">
<polygon fill="white" stroke="black" points="166,-98.5 166,-128.5 296,-128.5 296,-98.5 166,-98.5"/>
<text text-anchor="start" x="174" y="-116.5" font-family="Helvetica,sans-Serif" font-size="10.00">denoptim.gui.GraphViewer</text>
<text text-anchor="middle" x="231" y="-105.5" font-family="Helvetica,sans-Serif" font-size="10.00">Panel.centerGraphLayout</text>
</a>
</g>
</g>
<!-- Node1&#45;&gt;Node2 -->
<g id="edge1" class="edge">
<title>Node1&#45;&gt;Node2</title>
<path fill="none" stroke="midnightblue" d="M130.35,-98.31C138.73,-99.59 147.37,-100.9 155.9,-102.2"/>
<polygon fill="midnightblue" stroke="midnightblue" points="155.43,-105.67 165.84,-103.72 156.48,-98.75 155.43,-105.67"/>
</g>
<!-- Node4 -->
<g id="node4" class="node">
<title>Node4</title>
<g id="a_node4"><a xlink:href="classdenoptim_1_1gui_1_1_graph_viewer_panel.html#a183c7b0ef1cd998011e73519a8de10d8" target="_top" xlink:title=" ">
<polygon fill="white" stroke="black" points="166,-49.5 166,-79.5 296,-79.5 296,-49.5 166,-49.5"/>
<text text-anchor="start" x="174" y="-67.5" font-family="Helvetica,sans-Serif" font-size="10.00">denoptim.gui.GraphViewer</text>
<text text-anchor="middle" x="231" y="-56.5" font-family="Helvetica,sans-Serif" font-size="10.00">Panel.inheritFeatures</text>
</a>
</g>
</g>
<!-- Node1&#45;&gt;Node4 -->
<g id="edge3" class="edge">
<title>Node1&#45;&gt;Node4</title>
<path fill="none" stroke="midnightblue" d="M130.35,-79.08C138.73,-77.86 147.37,-76.59 155.9,-75.34"/>
<polygon fill="midnightblue" stroke="midnightblue" points="156.45,-78.8 165.84,-73.89 155.44,-71.87 156.45,-78.8"/>
</g>
<!-- Node3 -->
<g id="node3" class="node">
<title>Node3</title>
<g id="a_node3"><a xlink:href="classdenoptim_1_1gui_1_1_graph_viewer_panel.html#ad5c23dcbf1dcf069a53ab6da2e1d1049" target="_top" xlink:title=" ">
<polygon fill="white" stroke="black" points="359.5,-98.5 359.5,-128.5 489.5,-128.5 489.5,-98.5 359.5,-98.5"/>
<text text-anchor="start" x="367.5" y="-116.5" font-family="Helvetica,sans-Serif" font-size="10.00">denoptim.gui.GraphViewer</text>
<text text-anchor="middle" x="424.5" y="-105.5" font-family="Helvetica,sans-Serif" font-size="10.00">Panel.getLayoutCenter</text>
</a>
</g>
</g>
<!-- Node2&#45;&gt;Node3 -->
<g id="edge2" class="edge">
<title>Node2&#45;&gt;Node3</title>
<path fill="none" stroke="midnightblue" d="M296.03,-113.5C313.03,-113.5 331.53,-113.5 349.03,-113.5"/>
<polygon fill="midnightblue" stroke="midnightblue" points="349.2,-117 359.2,-113.5 349.2,-110 349.2,-117"/>
</g>
<!-- Node5 -->
<g id="node5" class="node">
<title>Node5</title>
<g id="a_node5"><a xlink:href="classdenoptim_1_1gui_1_1_j_u_n_g_graph_snapshot.html#a645af5804ba66bd2254611bc45e9d4fc" target="_top" xlink:title=" ">
<polygon fill="white" stroke="black" points="332,-49.5 332,-79.5 517,-79.5 517,-49.5 332,-49.5"/>
<text text-anchor="start" x="340" y="-67.5" font-family="Helvetica,sans-Serif" font-size="10.00">denoptim.gui.JUNGGraphSnapshot.get</text>
<text text-anchor="middle" x="424.5" y="-56.5" font-family="Helvetica,sans-Serif" font-size="10.00">EdgeIDsWithLabel</text>
</a>
</g>
</g>
<!-- Node4&#45;&gt;Node5 -->
<g id="edge4" class="edge">
<title>Node4&#45;&gt;Node5</title>
<path fill="none" stroke="midnightblue" d="M296.03,-64.5C304.32,-64.5 312.96,-64.5 321.67,-64.5"/>
<polygon fill="midnightblue" stroke="midnightblue" points="321.9,-68 331.9,-64.5 321.9,-61 321.9,-68"/>
</g>
<!-- Node6 -->
<g id="node6" class="node">
<title>Node6</title>
<g id="a_node6"><a xlink:href="classdenoptim_1_1gui_1_1_j_u_n_g_graph_snapshot.html#acb38b8ce035bc084bae800b68e0a529b" target="_top" xlink:title=" ">
<polygon fill="white" stroke="black" points="332,-0.5 332,-30.5 517,-30.5 517,-0.5 332,-0.5"/>
<text text-anchor="start" x="340" y="-18.5" font-family="Helvetica,sans-Serif" font-size="10.00">denoptim.gui.JUNGGraphSnapshot.get</text>
<text text-anchor="middle" x="424.5" y="-7.5" font-family="Helvetica,sans-Serif" font-size="10.00">VertexeIDsWithLabel</text>
</a>
</g>
</g>
<!-- Node4&#45;&gt;Node6 -->
<g id="edge5" class="edge">
<title>Node4&#45;&gt;Node6</title>
<path fill="none" stroke="midnightblue" d="M290.76,-49.47C311.07,-44.27 334.01,-38.4 355.03,-33.02"/>
<polygon fill="midnightblue" stroke="midnightblue" points="356.03,-36.38 364.85,-30.51 354.3,-29.59 356.03,-36.38"/>
</g>
</g>
</svg>
