<?xml version="1.0" encoding="UTF-8" standalone="no"?>
<!DOCTYPE svg PUBLIC "-//W3C//DTD SVG 1.1//EN"
 "http://www.w3.org/Graphics/SVG/1.1/DTD/svg11.dtd">
<!-- Generated by graphviz version 3.0.0 (20221109.1736)
 -->
<!-- Title: denoptim.graph.DGraph.fromJson Pages: 1 -->
<svg width="962pt" height="71pt"
 viewBox="0.00 0.00 962.00 70.50" xmlns="http://www.w3.org/2000/svg" xmlns:xlink="http://www.w3.org/1999/xlink">
<g id="graph0" class="graph" transform="scale(1 1) rotate(0) translate(4 66.5)">
<title>denoptim.graph.DGraph.fromJson</title>
<polygon fill="white" stroke="transparent" points="-4,4 -4,-66.5 958,-66.5 958,4 -4,4"/>
<!-- Node1 -->
<g id="node1" class="node">
<title>Node1</title>
<g id="a_node1"><a xlink:title="Reads a JSON string and returns an instance of this class.">
<polygon fill="#bfbfbf" stroke="black" points="0,-6 0,-25 161,-25 161,-6 0,-6"/>
<text text-anchor="middle" x="80.5" y="-13" font-family="Helvetica,sans-Serif" font-size="10.00">denoptim.graph.DGraph.fromJson</text>
</a>
</g>
</g>
<!-- Node2 -->
<g id="node2" class="node">
<title>Node2</title>
<g id="a_node2"><a xlink:href="classdenoptim_1_1graph_1_1_d_graph.html#aa5f803143b57df02989af878b098798f" target="_top" xlink:title="Reads a JSON string and returns an instance of this class.">
<polygon fill="white" stroke="black" points="197,-25 197,-44 358,-44 358,-25 197,-25"/>
<text text-anchor="middle" x="277.5" y="-32" font-family="Helvetica,sans-Serif" font-size="10.00">denoptim.graph.DGraph.fromJson</text>
</a>
</g>
</g>
<!-- Node1&#45;&gt;Node2 -->
<g id="edge1" class="edge">
<title>Node1&#45;&gt;Node2</title>
<path fill="none" stroke="midnightblue" d="M161.1,-23.26C169.57,-24.08 178.24,-24.93 186.82,-25.76"/>
<polygon fill="midnightblue" stroke="midnightblue" points="186.55,-29.25 196.84,-26.74 187.23,-22.29 186.55,-29.25"/>
</g>
<!-- Node3 -->
<g id="node3" class="node">
<title>Node3</title>
<g id="a_node3"><a xlink:href="classdenoptim_1_1json_1_1_d_e_n_o_p_t_i_mgson.html#a3e85cb26bb2f36407e309e41880ef191" target="_top" xlink:title=" ">
<polygon fill="white" stroke="black" points="394,-0.5 394,-30.5 561,-30.5 561,-0.5 394,-0.5"/>
<text text-anchor="start" x="402" y="-18.5" font-family="Helvetica,sans-Serif" font-size="10.00">denoptim.json.DENOPTIMgson.get</text>
<text text-anchor="middle" x="477.5" y="-7.5" font-family="Helvetica,sans-Serif" font-size="10.00">Reader</text>
</a>
</g>
</g>
<!-- Node1&#45;&gt;Node3 -->
<g id="edge6" class="edge">
<title>Node1&#45;&gt;Node3</title>
<path fill="none" stroke="midnightblue" d="M161.43,-15.5C225.76,-15.5 316.25,-15.5 383.76,-15.5"/>
<polygon fill="midnightblue" stroke="midnightblue" points="383.97,-19 393.97,-15.5 383.97,-12 383.97,-19"/>
</g>
<!-- Node2&#45;&gt;Node2 -->
<g id="edge2" class="edge">
<title>Node2&#45;&gt;Node2</title>
<path fill="none" stroke="midnightblue" d="M247.29,-44.26C232.59,-53.07 242.66,-62.5 277.5,-62.5 301.99,-62.5 314.24,-57.84 314.25,-52"/>
<polygon fill="midnightblue" stroke="midnightblue" points="316.83,-49.64 307.71,-44.26 311.49,-54.16 316.83,-49.64"/>
</g>
<!-- Node2&#45;&gt;Node3 -->
<g id="edge3" class="edge">
<title>Node2&#45;&gt;Node3</title>
<path fill="none" stroke="midnightblue" d="M358.18,-26.85C366.6,-26.05 375.21,-25.22 383.76,-24.4"/>
<polygon fill="midnightblue" stroke="midnightblue" points="384.13,-27.88 393.75,-23.44 383.46,-20.91 384.13,-27.88"/>
</g>
<!-- Node4 -->
<g id="node4" class="node">
<title>Node4</title>
<g id="a_node4"><a xlink:href="classdenoptim_1_1json_1_1_d_e_n_o_p_t_i_mgson.html#aa14de224ae5d1ae5156f11d5715d360c" target="_top" xlink:title=" ">
<polygon fill="white" stroke="black" points="597,-0.5 597,-30.5 764,-30.5 764,-0.5 597,-0.5"/>
<text text-anchor="start" x="605" y="-18.5" font-family="Helvetica,sans-Serif" font-size="10.00">denoptim.json.DENOPTIMgson.get</text>
<text text-anchor="middle" x="680.5" y="-7.5" font-family="Helvetica,sans-Serif" font-size="10.00">Instance</text>
</a>
</g>
</g>
<!-- Node3&#45;&gt;Node4 -->
<g id="edge4" class="edge">
<title>Node3&#45;&gt;Node4</title>
<path fill="none" stroke="midnightblue" d="M561.12,-15.5C569.61,-15.5 578.27,-15.5 586.85,-15.5"/>
<polygon fill="midnightblue" stroke="midnightblue" points="586.87,-19 596.87,-15.5 586.87,-12 586.87,-19"/>
</g>
<!-- Node5 -->
<g id="node5" class="node">
<title>Node5</title>
<g id="a_node5"><a xlink:href="classdenoptim_1_1json_1_1_d_e_n_o_p_t_i_mgson.html#a4aafec42bd09225870fdf330db93b84c" target="_top" xlink:title=" ">
<polygon fill="white" stroke="black" points="800,-0.5 800,-30.5 954,-30.5 954,-0.5 800,-0.5"/>
<text text-anchor="start" x="808" y="-18.5" font-family="Helvetica,sans-Serif" font-size="10.00">denoptim.json.DENOPTIMgson.</text>
<text text-anchor="middle" x="877" y="-7.5" font-family="Helvetica,sans-Serif" font-size="10.00">DENOPTIMgson</text>
</a>
</g>
</g>
<!-- Node4&#45;&gt;Node5 -->
<g id="edge5" class="edge">
<title>Node4&#45;&gt;Node5</title>
<path fill="none" stroke="midnightblue" d="M764.27,-15.5C772.65,-15.5 781.17,-15.5 789.59,-15.5"/>
<polygon fill="midnightblue" stroke="midnightblue" points="789.79,-19 799.79,-15.5 789.79,-12 789.79,-19"/>
</g>
</g>
</svg>
