<?xml version="1.0" encoding="UTF-8" standalone="no"?>
<!DOCTYPE svg PUBLIC "-//W3C//DTD SVG 1.1//EN"
 "http://www.w3.org/Graphics/SVG/1.1/DTD/svg11.dtd">
<!-- Generated by graphviz version 3.0.0 (20221109.1736)
 -->
<!-- Title: denoptim.molecularmodeling.zmatrix.ZMatrix.usesProperDihedral Pages: 1 -->
<!--zoomable 178 -->
<svg id="main" version="1.1" xmlns="http://www.w3.org/2000/svg" xmlns:xlink="http://www.w3.org/1999/xlink" xml:space="preserve" onload="init(evt)">
<style type="text/css"><![CDATA[
.edge:hover path { stroke: red; }
.edge:hover polygon { stroke: red; fill: red; }
]]></style>
<script type="text/javascript"><![CDATA[
var edges = document.getElementsByTagName('g');
if (edges && edges.length) {
  for (var i=0;i<edges.length;i++) {
    if (edges[i].id.substr(0,4)=='edge') {
      edges[i].setAttribute('class','edge');
    }
  }
}
]]></script>
        <defs>
                <circle id="rim" cx="0" cy="0" r="7"/>
                <circle id="rim2" cx="0" cy="0" r="3.5"/>
                <g id="zoomPlus">
                        <use xlink:href="#rim" fill="#404040">
                                <set attributeName="fill" to="#808080" begin="zoomplus.mouseover" end="zoomplus.mouseout"/>
                        </use>
                        <path d="M-4,0h8M0,-4v8" fill="none" stroke="white" stroke-width="1.5" pointer-events="none"/>
                </g>
                <g id="zoomMin">
                        <use xlink:href="#rim" fill="#404040">
                                <set attributeName="fill" to="#808080" begin="zoomminus.mouseover" end="zoomminus.mouseout"/>
                        </use>
                        <path d="M-4,0h8" fill="none" stroke="white" stroke-width="1.5" pointer-events="none"/>
                </g>
                <g id="dirArrow">
                        <path fill="none" stroke="white" stroke-width="1.5" d="M0,-3.0v7 M-2.5,-0.5L0,-3.0L2.5,-0.5"/>
                </g>
               <g id="resetDef">
                       <use xlink:href="#rim2" fill="#404040">
                               <set attributeName="fill" to="#808080" begin="reset.mouseover" end="reset.mouseout"/>
                       </use>
               </g>
        </defs>

<script type="text/javascript">
var viewWidth = 816;
var viewHeight = 178;
var sectionId = 'dynsection-54';
</script>
<script xlink:href="svgpan.js"/>
<svg id="graph" class="graph">
<g id="viewport">
<title>denoptim.molecularmodeling.zmatrix.ZMatrix.usesProperDihedral</title>
<polygon fill="white" stroke="transparent" points="-4,4 -4,-174 812,-174 812,4 -4,4"/>
<!-- Node1 -->
<g id="node1" class="node">
<title>Node1</title>
<g id="a_node1"><a xlink:title="Check if the dihedral between the two atoms at the given indices uses proper torsion.">
<polygon fill="#bfbfbf" stroke="black" points="0,-59.5 0,-89.5 175,-89.5 175,-59.5 0,-59.5"/>
<text text-anchor="start" x="8" y="-77.5" font-family="Helvetica,sans-Serif" font-size="10.00">denoptim.molecularmodeling.zmatrix.</text>
<text text-anchor="middle" x="87.5" y="-66.5" font-family="Helvetica,sans-Serif" font-size="10.00">ZMatrix.usesProperDihedral</text>
</a>
</g>
</g>
<!-- Node2 -->
<g id="node2" class="node">
<title>Node2</title>
<g id="a_node2"><a xlink:href="classdenoptim_1_1molecularmodeling_1_1zmatrix_1_1_z_matrix.html#afdcc04b2f8a9fe8f0eeabe867b6ff9e2" target="_top" xlink:title="Get the index of the angle reference atom for the atom at the given index.">
<polygon fill="white" stroke="black" points="211,-127.5 211,-157.5 386,-157.5 386,-127.5 211,-127.5"/>
<text text-anchor="start" x="219" y="-145.5" font-family="Helvetica,sans-Serif" font-size="10.00">denoptim.molecularmodeling.zmatrix.</text>
<text text-anchor="middle" x="298.5" y="-134.5" font-family="Helvetica,sans-Serif" font-size="10.00">ZMatrix.getAngleRefAtomIndex</text>
</a>
</g>
</g>
<!-- Node1&#45;&gt;Node2 -->
<g id="edge1" class="edge">
<title>Node1&#45;&gt;Node2</title>
<path fill="none" stroke="midnightblue" d="M134.62,-89.51C166.14,-99.76 208.07,-113.4 241.5,-124.28"/>
<polygon fill="midnightblue" stroke="midnightblue" points="240.54,-127.65 251.13,-127.41 242.71,-120.99 240.54,-127.65"/>
</g>
<!-- Node6 -->
<g id="node6" class="node">
<title>Node6</title>
<g id="a_node6"><a xlink:href="classdenoptim_1_1molecularmodeling_1_1zmatrix_1_1_z_matrix.html#a4c06388161962480e83acac036d6aa68" target="_top" xlink:title="Get the index of the bond reference atom for the atom at the given index.">
<polygon fill="white" stroke="black" points="211,-10.5 211,-40.5 386,-40.5 386,-10.5 211,-10.5"/>
<text text-anchor="start" x="219" y="-28.5" font-family="Helvetica,sans-Serif" font-size="10.00">denoptim.molecularmodeling.zmatrix.</text>
<text text-anchor="middle" x="298.5" y="-17.5" font-family="Helvetica,sans-Serif" font-size="10.00">ZMatrix.getBondRefAtomIndex</text>
</a>
</g>
</g>
<!-- Node1&#45;&gt;Node6 -->
<g id="edge5" class="edge">
<title>Node1&#45;&gt;Node6</title>
<path fill="none" stroke="midnightblue" d="M152.63,-59.47C175.1,-54.2 200.51,-48.24 223.7,-42.8"/>
<polygon fill="midnightblue" stroke="midnightblue" points="224.56,-46.2 233.49,-40.51 222.96,-39.38 224.56,-46.2"/>
</g>
<!-- Node9 -->
<g id="node9" class="node">
<title>Node9</title>
<g id="a_node9"><a xlink:href="classdenoptim_1_1molecularmodeling_1_1zmatrix_1_1_z_matrix.html#a2b48b01815de175fe998f9f28ff22ea7" target="_top" xlink:title="Get the chiral flag for the atom at the given index.">
<polygon fill="white" stroke="black" points="211,-59.5 211,-89.5 386,-89.5 386,-59.5 211,-59.5"/>
<text text-anchor="start" x="219" y="-77.5" font-family="Helvetica,sans-Serif" font-size="10.00">denoptim.molecularmodeling.zmatrix.</text>
<text text-anchor="middle" x="298.5" y="-66.5" font-family="Helvetica,sans-Serif" font-size="10.00">ZMatrix.getChiralFlag</text>
</a>
</g>
</g>
<!-- Node1&#45;&gt;Node9 -->
<g id="edge9" class="edge">
<title>Node1&#45;&gt;Node9</title>
<path fill="none" stroke="midnightblue" d="M175.02,-74.5C183.49,-74.5 192.13,-74.5 200.7,-74.5"/>
<polygon fill="midnightblue" stroke="midnightblue" points="200.71,-78 210.71,-74.5 200.71,-71 200.71,-78"/>
</g>
<!-- Node3 -->
<g id="node3" class="node">
<title>Node3</title>
<g id="a_node3"><a xlink:href="classdenoptim_1_1molecularmodeling_1_1zmatrix_1_1_z_matrix.html#a4ac6b31dc0dbed6e2b53bb659f7d60d5" target="_top" xlink:title="Get the angle reference atom for the atom at the given index.">
<polygon fill="white" stroke="black" points="422,-137.5 422,-167.5 597,-167.5 597,-137.5 422,-137.5"/>
<text text-anchor="start" x="430" y="-155.5" font-family="Helvetica,sans-Serif" font-size="10.00">denoptim.molecularmodeling.zmatrix.</text>
<text text-anchor="middle" x="509.5" y="-144.5" font-family="Helvetica,sans-Serif" font-size="10.00">ZMatrix.getAngleRefAtom</text>
</a>
</g>
</g>
<!-- Node2&#45;&gt;Node3 -->
<g id="edge2" class="edge">
<title>Node2&#45;&gt;Node3</title>
<path fill="none" stroke="midnightblue" d="M386.02,-146.64C394.49,-147.05 403.13,-147.46 411.7,-147.87"/>
<polygon fill="midnightblue" stroke="midnightblue" points="411.56,-151.37 421.71,-148.35 411.89,-144.37 411.56,-151.37"/>
</g>
<!-- Node4 -->
<g id="node4" class="node">
<title>Node4</title>
<g id="a_node4"><a xlink:href="classdenoptim_1_1molecularmodeling_1_1zmatrix_1_1_z_matrix_atom.html#af58205f6fbb21f9df38755ee8cd17e89" target="_top" xlink:title="Get the angle reference atom.">
<polygon fill="white" stroke="black" points="633,-139.5 633,-169.5 808,-169.5 808,-139.5 633,-139.5"/>
<text text-anchor="start" x="641" y="-157.5" font-family="Helvetica,sans-Serif" font-size="10.00">denoptim.molecularmodeling.zmatrix.</text>
<text text-anchor="middle" x="720.5" y="-146.5" font-family="Helvetica,sans-Serif" font-size="10.00">ZMatrixAtom.getAngleRefAtom</text>
</a>
</g>
</g>
<!-- Node3&#45;&gt;Node4 -->
<g id="edge3" class="edge">
<title>Node3&#45;&gt;Node4</title>
<path fill="none" stroke="midnightblue" d="M597.02,-153.33C605.49,-153.41 614.13,-153.49 622.7,-153.57"/>
<polygon fill="midnightblue" stroke="midnightblue" points="622.68,-157.07 632.71,-153.67 622.74,-150.07 622.68,-157.07"/>
</g>
<!-- Node5 -->
<g id="node5" class="node">
<title>Node5</title>
<g id="a_node5"><a xlink:href="classdenoptim_1_1molecularmodeling_1_1zmatrix_1_1_z_matrix.html#ad0f695527ee91cd88d95d381e55f73cc" target="_top" xlink:title="Get the atom at the given index.">
<polygon fill="white" stroke="black" points="633,-90.5 633,-120.5 808,-120.5 808,-90.5 633,-90.5"/>
<text text-anchor="start" x="641" y="-108.5" font-family="Helvetica,sans-Serif" font-size="10.00">denoptim.molecularmodeling.zmatrix.</text>
<text text-anchor="middle" x="720.5" y="-97.5" font-family="Helvetica,sans-Serif" font-size="10.00">ZMatrix.getAtom</text>
</a>
</g>
</g>
<!-- Node3&#45;&gt;Node5 -->
<g id="edge4" class="edge">
<title>Node3&#45;&gt;Node5</title>
<path fill="none" stroke="midnightblue" d="M577.2,-137.5C598.13,-132.79 621.39,-127.56 642.95,-122.72"/>
<polygon fill="midnightblue" stroke="midnightblue" points="643.72,-126.13 652.71,-120.52 642.19,-119.3 643.72,-126.13"/>
</g>
<!-- Node7 -->
<g id="node7" class="node">
<title>Node7</title>
<g id="a_node7"><a xlink:href="classdenoptim_1_1molecularmodeling_1_1zmatrix_1_1_z_matrix.html#a97816fa27c0cc136b67f1dd92f8e3c31" target="_top" xlink:title="Get the bond reference atom for the atom at the given index.">
<polygon fill="white" stroke="black" points="422,-0.5 422,-30.5 597,-30.5 597,-0.5 422,-0.5"/>
<text text-anchor="start" x="430" y="-18.5" font-family="Helvetica,sans-Serif" font-size="10.00">denoptim.molecularmodeling.zmatrix.</text>
<text text-anchor="middle" x="509.5" y="-7.5" font-family="Helvetica,sans-Serif" font-size="10.00">ZMatrix.getBondRefAtom</text>
</a>
</g>
</g>
<!-- Node6&#45;&gt;Node7 -->
<g id="edge6" class="edge">
<title>Node6&#45;&gt;Node7</title>
<path fill="none" stroke="midnightblue" d="M386.02,-21.36C394.49,-20.95 403.13,-20.54 411.7,-20.13"/>
<polygon fill="midnightblue" stroke="midnightblue" points="411.89,-23.63 421.71,-19.65 411.56,-16.63 411.89,-23.63"/>
</g>
<!-- Node7&#45;&gt;Node5 -->
<g id="edge7" class="edge">
<title>Node7&#45;&gt;Node5</title>
<path fill="none" stroke="midnightblue" d="M571.57,-30.59C580.21,-33.26 588.9,-36.24 597,-39.5 628.6,-52.21 662.55,-70.94 686.67,-85.2"/>
<polygon fill="midnightblue" stroke="midnightblue" points="685.04,-88.3 695.41,-90.43 688.63,-82.29 685.04,-88.3"/>
</g>
<!-- Node8 -->
<g id="node8" class="node">
<title>Node8</title>
<g id="a_node8"><a xlink:href="classdenoptim_1_1molecularmodeling_1_1zmatrix_1_1_z_matrix_atom.html#a70fef3e9cafe930bc1fa43a5e8729fcd" target="_top" xlink:title="Get the bond reference atom.">
<polygon fill="white" stroke="black" points="633,-0.5 633,-30.5 808,-30.5 808,-0.5 633,-0.5"/>
<text text-anchor="start" x="641" y="-18.5" font-family="Helvetica,sans-Serif" font-size="10.00">denoptim.molecularmodeling.zmatrix.</text>
<text text-anchor="middle" x="720.5" y="-7.5" font-family="Helvetica,sans-Serif" font-size="10.00">ZMatrixAtom.getBondRefAtom</text>
</a>
</g>
</g>
<!-- Node7&#45;&gt;Node8 -->
<g id="edge8" class="edge">
<title>Node7&#45;&gt;Node8</title>
<path fill="none" stroke="midnightblue" d="M597.02,-15.5C605.49,-15.5 614.13,-15.5 622.7,-15.5"/>
<polygon fill="midnightblue" stroke="midnightblue" points="622.71,-19 632.71,-15.5 622.71,-12 622.71,-19"/>
</g>
<!-- Node9&#45;&gt;Node5 -->
<g id="edge10" class="edge">
<title>Node9&#45;&gt;Node5</title>
<path fill="none" stroke="midnightblue" d="M386.09,-85.85C398.14,-87.21 410.37,-88.48 422,-89.5 488.83,-95.38 564.32,-99.41 622.53,-101.95"/>
<polygon fill="midnightblue" stroke="midnightblue" points="622.68,-105.46 632.82,-102.4 622.98,-98.47 622.68,-105.46"/>
</g>
<!-- Node10 -->
<g id="node10" class="node">
<title>Node10</title>
<g id="a_node10"><a xlink:href="classdenoptim_1_1molecularmodeling_1_1zmatrix_1_1_z_matrix_atom.html#a348f17c35781a2d5a15bd53022b5af24" target="_top" xlink:title="Get the chiral flag.">
<polygon fill="white" stroke="black" points="422,-49.5 422,-79.5 597,-79.5 597,-49.5 422,-49.5"/>
<text text-anchor="start" x="430" y="-67.5" font-family="Helvetica,sans-Serif" font-size="10.00">denoptim.molecularmodeling.zmatrix.</text>
<text text-anchor="middle" x="509.5" y="-56.5" font-family="Helvetica,sans-Serif" font-size="10.00">ZMatrixAtom.getChiralFlag</text>
</a>
</g>
</g>
<!-- Node9&#45;&gt;Node10 -->
<g id="edge11" class="edge">
<title>Node9&#45;&gt;Node10</title>
<path fill="none" stroke="midnightblue" d="M386.02,-70.36C394.49,-69.95 403.13,-69.54 411.7,-69.13"/>
<polygon fill="midnightblue" stroke="midnightblue" points="411.89,-72.63 421.71,-68.65 411.56,-65.63 411.89,-72.63"/>
</g>
</g>
</svg>
        <g id="navigator" transform="translate(0 0)" fill="#404254">
                <rect fill="#f2f5e9" fill-opacity="0.5" stroke="#606060" stroke-width=".5" x="0" y="0" width="60" height="60"/>
                <use id="zoomplus" xlink:href="#zoomPlus" x="17" y="9" onmousedown="handleZoom(evt,'in')"/>
                <use id="zoomminus" xlink:href="#zoomMin" x="42" y="9" onmousedown="handleZoom(evt,'out')"/>
                <use id="reset" xlink:href="#resetDef" x="30" y="36" onmousedown="handleReset()"/>
                <g id="arrowUp" xlink:href="#dirArrow" transform="translate(30 24)" onmousedown="handlePan(0,-1)">
                  <use xlink:href="#rim" fill="#404040">
                        <set attributeName="fill" to="#808080" begin="arrowUp.mouseover" end="arrowUp.mouseout"/>
                  </use>
                  <path fill="none" stroke="white" stroke-width="1.5" d="M0,-3.0v7 M-2.5,-0.5L0,-3.0L2.5,-0.5"/>
                </g>
                <g id="arrowRight" xlink:href="#dirArrow" transform="rotate(90) translate(36 -43)" onmousedown="handlePan(1,0)">
                  <use xlink:href="#rim" fill="#404040">
                        <set attributeName="fill" to="#808080" begin="arrowRight.mouseover" end="arrowRight.mouseout"/>
                  </use>
                  <path fill="none" stroke="white" stroke-width="1.5" d="M0,-3.0v7 M-2.5,-0.5L0,-3.0L2.5,-0.5"/>
                </g>
                <g id="arrowDown" xlink:href="#dirArrow" transform="rotate(180) translate(-30 -48)" onmousedown="handlePan(0,1)">
                  <use xlink:href="#rim" fill="#404040">
                        <set attributeName="fill" to="#808080" begin="arrowDown.mouseover" end="arrowDown.mouseout"/>
                  </use>
                  <path fill="none" stroke="white" stroke-width="1.5" d="M0,-3.0v7 M-2.5,-0.5L0,-3.0L2.5,-0.5"/>
                </g>
                <g id="arrowLeft" xlink:href="#dirArrow" transform="rotate(270) translate(-36 17)" onmousedown="handlePan(-1,0)">
                  <use xlink:href="#rim" fill="#404040">
                        <set attributeName="fill" to="#808080" begin="arrowLeft.mouseover" end="arrowLeft.mouseout"/>
                  </use>
                  <path fill="none" stroke="white" stroke-width="1.5" d="M0,-3.0v7 M-2.5,-0.5L0,-3.0L2.5,-0.5"/>
                </g>
        </g>
        <svg viewBox="0 0 15 15" width="100%" height="30px" preserveAspectRatio="xMaxYMin meet">
         <g id="arrow_out" transform="scale(0.3 0.3)">
          <a xlink:href="classdenoptim_1_1molecularmodeling_1_1zmatrix_1_1_z_matrix_a666cb8dd3165b5b3eb7e29323107b781_cgraph_org.svg" target="_base">
           <rect id="button" ry="5" rx="5" y="6" x="6" height="38" width="38"
                fill="#f2f5e9" fill-opacity="0.5" stroke="#606060" stroke-width="1.0"/>
           <path id="arrow"
             d="M 11.500037,31.436501 C 11.940474,20.09759 22.043105,11.32322 32.158766,21.979434 L 37.068811,17.246167 C 37.068811,17.246167 37.088388,32 37.088388,32 L 22.160133,31.978069 C 22.160133,31.978069 26.997745,27.140456 26.997745,27.140456 C 18.528582,18.264221 13.291696,25.230495 11.500037,31.436501 z"
             style="fill:#404040;"/>
          </a>
         </g>
        </svg>
</svg>
