<?xml version="1.0" encoding="UTF-8" standalone="no"?>
<!DOCTYPE svg PUBLIC "-//W3C//DTD SVG 1.1//EN"
 "http://www.w3.org/Graphics/SVG/1.1/DTD/svg11.dtd">
<!-- Generated by graphviz version 3.0.0 (20221109.1736)
 -->
<!-- Title: denoptim.programs.graphlisthandler.GraphListsHandler Pages: 1 -->
<svg width="180pt" height="207pt"
 viewBox="0.00 0.00 180.00 207.00" xmlns="http://www.w3.org/2000/svg" xmlns:xlink="http://www.w3.org/1999/xlink">
<g id="graph0" class="graph" transform="scale(1 1) rotate(0) translate(4 203)">
<title>denoptim.programs.graphlisthandler.GraphListsHandler</title>
<polygon fill="white" stroke="transparent" points="-4,4 -4,-203 176,-203 176,4 -4,4"/>
<!-- Node1 -->
<g id="node1" class="node">
<title>Node1</title>
<g id="a_node1"><a xlink:title="Tool for handling lists of graphs.">
<polygon fill="#bfbfbf" stroke="black" points="0,-0.5 0,-30.5 172,-30.5 172,-0.5 0,-0.5"/>
<text text-anchor="start" x="8" y="-18.5" font-family="Helvetica,sans-Serif" font-size="10.00">denoptim.programs.graphlisthandler.</text>
<text text-anchor="middle" x="86" y="-7.5" font-family="Helvetica,sans-Serif" font-size="10.00">GraphListsHandler</text>
</a>
</g>
</g>
<!-- Node2 -->
<g id="node2" class="node">
<title>Node2</title>
<g id="a_node2"><a xlink:href="classdenoptim_1_1task_1_1_program_task.html" target="_top" xlink:title="Task structure for any of the main programs in the denoptim project, such as genetic algorithm and co...">
<polygon fill="white" stroke="black" points="17,-67.5 17,-86.5 155,-86.5 155,-67.5 17,-67.5"/>
<text text-anchor="middle" x="86" y="-74.5" font-family="Helvetica,sans-Serif" font-size="10.00">denoptim.task.ProgramTask</text>
</a>
</g>
</g>
<!-- Node2&#45;&gt;Node1 -->
<g id="edge1" class="edge">
<title>Node2&#45;&gt;Node1</title>
<path fill="none" stroke="midnightblue" d="M86,-57.23C86,-48.59 86,-38.5 86,-30.52"/>
<polygon fill="midnightblue" stroke="midnightblue" points="82.5,-57.48 86,-67.48 89.5,-57.48 82.5,-57.48"/>
</g>
<!-- Node3 -->
<g id="node3" class="node">
<title>Node3</title>
<g id="a_node3"><a xlink:href="classdenoptim_1_1task_1_1_task.html" target="_top" xlink:title="A task that can throw exceptions.">
<polygon fill="white" stroke="black" points="35.5,-123.5 35.5,-142.5 136.5,-142.5 136.5,-123.5 35.5,-123.5"/>
<text text-anchor="middle" x="86" y="-130.5" font-family="Helvetica,sans-Serif" font-size="10.00">denoptim.task.Task</text>
</a>
</g>
</g>
<!-- Node3&#45;&gt;Node2 -->
<g id="edge2" class="edge">
<title>Node3&#45;&gt;Node2</title>
<path fill="none" stroke="midnightblue" d="M86,-112.8C86,-103.91 86,-93.78 86,-86.75"/>
<polygon fill="midnightblue" stroke="midnightblue" points="82.5,-113.08 86,-123.08 89.5,-113.08 82.5,-113.08"/>
</g>
<!-- Node4 -->
<g id="node4" class="node">
<title>Node4</title>
<g id="a_node4"><a xlink:title=" ">
<polygon fill="white" stroke="black" points="38,-179.5 38,-198.5 134,-198.5 134,-179.5 38,-179.5"/>
<text text-anchor="middle" x="86" y="-186.5" font-family="Helvetica,sans-Serif" font-size="10.00">Callable&lt; Object &gt;</text>
</a>
</g>
</g>
<!-- Node4&#45;&gt;Node3 -->
<g id="edge3" class="edge">
<title>Node4&#45;&gt;Node3</title>
<path fill="none" stroke="midnightblue" d="M86,-168.8C86,-159.91 86,-149.78 86,-142.75"/>
<polygon fill="midnightblue" stroke="midnightblue" points="82.5,-169.08 86,-179.08 89.5,-169.08 82.5,-169.08"/>
</g>
</g>
</svg>
