<?xml version="1.0" encoding="UTF-8" standalone="no"?>
<!DOCTYPE svg PUBLIC "-//W3C//DTD SVG 1.1//EN"
 "http://www.w3.org/Graphics/SVG/1.1/DTD/svg11.dtd">
<!-- Generated by graphviz version 3.0.0 (20221109.1736)
 -->
<!-- Title: denoptim.integration.tinker.TinkerUtils.readTinkerINT Pages: 1 -->
<svg width="364pt" height="99pt"
 viewBox="0.00 0.00 364.00 98.50" xmlns="http://www.w3.org/2000/svg" xmlns:xlink="http://www.w3.org/1999/xlink">
<g id="graph0" class="graph" transform="scale(1 1) rotate(0) translate(4 94.5)">
<title>denoptim.integration.tinker.TinkerUtils.readTinkerINT</title>
<polygon fill="white" stroke="transparent" points="-4,4 -4,-94.5 360,-94.5 360,4 -4,4"/>
<!-- Node1 -->
<g id="node1" class="node">
<title>Node1</title>
<g id="a_node1"><a xlink:title="Reads a Tinker INT file.">
<polygon fill="#bfbfbf" stroke="black" points="224,-27.5 224,-57.5 356,-57.5 356,-27.5 224,-27.5"/>
<text text-anchor="start" x="232" y="-45.5" font-family="Helvetica,sans-Serif" font-size="10.00">denoptim.integration.tinker.</text>
<text text-anchor="middle" x="290" y="-34.5" font-family="Helvetica,sans-Serif" font-size="10.00">TinkerUtils.readTinkerINT</text>
</a>
</g>
</g>
<!-- Node2 -->
<g id="node2" class="node">
<title>Node2</title>
<g id="a_node2"><a xlink:href="classdenoptim_1_1integration_1_1tinker_1_1_conformational_search_p_s_s_r_o_t.html#a40d8eeb17fa0eb16f0a92d3a35408c26" target="_top" xlink:title="Performs PSSROT conformational search on the given chemical object.">
<polygon fill="white" stroke="black" points="0,-49 0,-90 188,-90 188,-49 0,-49"/>
<text text-anchor="start" x="8" y="-78" font-family="Helvetica,sans-Serif" font-size="10.00">denoptim.integration.tinker.</text>
<text text-anchor="start" x="8" y="-67" font-family="Helvetica,sans-Serif" font-size="10.00">ConformationalSearchPSSROT.perform</text>
<text text-anchor="middle" x="94" y="-56" font-family="Helvetica,sans-Serif" font-size="10.00">PSSROT</text>
</a>
</g>
</g>
<!-- Node1&#45;&gt;Node2 -->
<g id="edge1" class="edge">
<title>Node1&#45;&gt;Node2</title>
<path fill="none" stroke="midnightblue" d="M213.78,-52.97C205.42,-54.13 196.82,-55.33 188.26,-56.52"/>
<polygon fill="midnightblue" stroke="midnightblue" points="214.44,-56.41 223.86,-51.57 213.47,-49.48 214.44,-56.41"/>
</g>
<!-- Node3 -->
<g id="node3" class="node">
<title>Node3</title>
<g id="a_node3"><a xlink:href="classdenoptim_1_1integration_1_1tinker_1_1_tinker_utils_test.html#a106bc19f7f8be0561f16100c61840627" target="_top" xlink:title=" ">
<polygon fill="white" stroke="black" points="12.5,-0.5 12.5,-30.5 175.5,-30.5 175.5,-0.5 12.5,-0.5"/>
<text text-anchor="start" x="20.5" y="-18.5" font-family="Helvetica,sans-Serif" font-size="10.00">denoptim.integration.tinker.</text>
<text text-anchor="middle" x="94" y="-7.5" font-family="Helvetica,sans-Serif" font-size="10.00">TinkerUtilsTest.testINTRoundTrip</text>
</a>
</g>
</g>
<!-- Node1&#45;&gt;Node3 -->
<g id="edge2" class="edge">
<title>Node1&#45;&gt;Node3</title>
<path fill="none" stroke="midnightblue" d="M213.59,-32.01C201.21,-30.28 188.33,-28.49 175.82,-26.75"/>
<polygon fill="midnightblue" stroke="midnightblue" points="213.47,-35.52 223.86,-33.43 214.44,-28.59 213.47,-35.52"/>
</g>
</g>
</svg>
