<?xml version="1.0" encoding="UTF-8" standalone="no"?>
<!DOCTYPE svg PUBLIC "-//W3C//DTD SVG 1.1//EN"
 "http://www.w3.org/Graphics/SVG/1.1/DTD/svg11.dtd">
<!-- Generated by graphviz version 3.0.0 (20221109.1736)
 -->
<!-- Title: denoptim.fragmenter.ConformerExtractorTask.extractClusterableFragments Pages: 1 -->
<svg width="1168pt" height="162pt"
 viewBox="0.00 0.00 1168.00 162.00" xmlns="http://www.w3.org/2000/svg" xmlns:xlink="http://www.w3.org/1999/xlink">
<g id="graph0" class="graph" transform="scale(1 1) rotate(0) translate(4 158)">
<title>denoptim.fragmenter.ConformerExtractorTask.extractClusterableFragments</title>
<polygon fill="white" stroke="transparent" points="-4,4 -4,-158 1164,-158 1164,4 -4,4"/>
<!-- Node1 -->
<g id="node1" class="node">
<title>Node1</title>
<g id="a_node1"><a xlink:title="Analyzes all the entries provided by the iterator and extracts those that pertain the specified isomo...">
<polygon fill="#bfbfbf" stroke="black" points="0,-44 0,-85 157,-85 157,-44 0,-44"/>
<text text-anchor="start" x="8" y="-73" font-family="Helvetica,sans-Serif" font-size="10.00">denoptim.fragmenter.Conformer</text>
<text text-anchor="start" x="8" y="-62" font-family="Helvetica,sans-Serif" font-size="10.00">ExtractorTask.extractClusterable</text>
<text text-anchor="middle" x="78.5" y="-51" font-family="Helvetica,sans-Serif" font-size="10.00">Fragments</text>
</a>
</g>
</g>
<!-- Node2 -->
<g id="node2" class="node">
<title>Node2</title>
<g id="a_node2"><a xlink:href="classdenoptim_1_1fragmenter_1_1_conformer_extractor_task.html#a97f49c2de9c019c32f4e828b1fb2dc69" target="_top" xlink:title="Tries to add a fragment into a sample of isomorphic fragments.">
<polygon fill="white" stroke="black" points="193,-44 193,-85 391,-85 391,-44 193,-44"/>
<text text-anchor="start" x="201" y="-73" font-family="Helvetica,sans-Serif" font-size="10.00">denoptim.fragmenter.Conformer</text>
<text text-anchor="start" x="201" y="-62" font-family="Helvetica,sans-Serif" font-size="10.00">ExtractorTask.populateListOfClusterizable</text>
<text text-anchor="middle" x="292" y="-51" font-family="Helvetica,sans-Serif" font-size="10.00">Fragments</text>
</a>
</g>
</g>
<!-- Node1&#45;&gt;Node2 -->
<g id="edge1" class="edge">
<title>Node1&#45;&gt;Node2</title>
<path fill="none" stroke="midnightblue" d="M157.05,-64.5C165.44,-64.5 174.09,-64.5 182.75,-64.5"/>
<polygon fill="midnightblue" stroke="midnightblue" points="182.92,-68 192.92,-64.5 182.92,-61 182.92,-68"/>
</g>
<!-- Node3 -->
<g id="node3" class="node">
<title>Node3</title>
<g id="a_node3"><a xlink:href="classdenoptim_1_1fragmenter_1_1_clusterable_fragment.html#add663e71e20399ddad63276ebda60034" target="_top" xlink:title=" ">
<polygon fill="white" stroke="black" points="427,-98.5 427,-128.5 608,-128.5 608,-98.5 427,-98.5"/>
<text text-anchor="start" x="435" y="-116.5" font-family="Helvetica,sans-Serif" font-size="10.00">denoptim.fragmenter.Clusterable</text>
<text text-anchor="middle" x="517.5" y="-105.5" font-family="Helvetica,sans-Serif" font-size="10.00">Fragment.getJGraphFragIsomorphism</text>
</a>
</g>
</g>
<!-- Node2&#45;&gt;Node3 -->
<g id="edge2" class="edge">
<title>Node2&#45;&gt;Node3</title>
<path fill="none" stroke="midnightblue" d="M386.81,-85.07C403.83,-88.8 421.41,-92.65 437.93,-96.28"/>
<polygon fill="midnightblue" stroke="midnightblue" points="437.55,-99.77 448.07,-98.5 439.05,-92.94 437.55,-99.77"/>
</g>
<!-- Node8 -->
<g id="node8" class="node">
<title>Node8</title>
<g id="a_node8"><a xlink:href="classdenoptim_1_1fragmenter_1_1_fragment_alignement.html#a8767911dd2054fa0a8e8c7f3f0cc002e" target="_top" xlink:title="Returns the mapping leading to the lowest RMSD that could be found among all isomorphic mappings.">
<polygon fill="white" stroke="black" points="428,-49.5 428,-79.5 607,-79.5 607,-49.5 428,-49.5"/>
<text text-anchor="start" x="436" y="-67.5" font-family="Helvetica,sans-Serif" font-size="10.00">denoptim.fragmenter.Fragment</text>
<text text-anchor="middle" x="517.5" y="-56.5" font-family="Helvetica,sans-Serif" font-size="10.00">Alignement.getLowestRMSDMapping</text>
</a>
</g>
</g>
<!-- Node2&#45;&gt;Node8 -->
<g id="edge8" class="edge">
<title>Node2&#45;&gt;Node8</title>
<path fill="none" stroke="midnightblue" d="M391.03,-64.5C399.8,-64.5 408.68,-64.5 417.46,-64.5"/>
<polygon fill="midnightblue" stroke="midnightblue" points="417.7,-68 427.7,-64.5 417.7,-61 417.7,-68"/>
</g>
<!-- Node9 -->
<g id="node9" class="node">
<title>Node9</title>
<g id="a_node9"><a xlink:href="classdenoptim_1_1fragmenter_1_1_clusterable_fragment.html#ac969b7cb43cdd23507e67c5141766997" target="_top" xlink:title="Sets the order of nodes (i.e., atoms/APs) to use for geometric comparison with other fragments,...">
<polygon fill="white" stroke="black" points="439.5,-0.5 439.5,-30.5 595.5,-30.5 595.5,-0.5 439.5,-0.5"/>
<text text-anchor="start" x="447.5" y="-18.5" font-family="Helvetica,sans-Serif" font-size="10.00">denoptim.fragmenter.Clusterable</text>
<text text-anchor="middle" x="517.5" y="-7.5" font-family="Helvetica,sans-Serif" font-size="10.00">Fragment.setOrderOfNodes</text>
</a>
</g>
</g>
<!-- Node2&#45;&gt;Node9 -->
<g id="edge9" class="edge">
<title>Node2&#45;&gt;Node9</title>
<path fill="none" stroke="midnightblue" d="M386.81,-43.93C403.83,-40.2 421.41,-36.35 437.93,-32.72"/>
<polygon fill="midnightblue" stroke="midnightblue" points="439.05,-36.06 448.07,-30.5 437.55,-29.23 439.05,-36.06"/>
</g>
<!-- Node4 -->
<g id="node4" class="node">
<title>Node4</title>
<g id="a_node4"><a xlink:href="classdenoptim_1_1graph_1_1_fragment.html#a860d31c5334438764f9d7ace863c7ed0" target="_top" xlink:title="Creates a graph representation of this fragment where both atoms and AttachmentPoints are represented...">
<polygon fill="white" stroke="black" points="644,-98.5 644,-128.5 786,-128.5 786,-98.5 644,-98.5"/>
<text text-anchor="start" x="652" y="-116.5" font-family="Helvetica,sans-Serif" font-size="10.00">denoptim.graph.Fragment.get</text>
<text text-anchor="middle" x="715" y="-105.5" font-family="Helvetica,sans-Serif" font-size="10.00">JGraphFragIsomorphism</text>
</a>
</g>
</g>
<!-- Node3&#45;&gt;Node4 -->
<g id="edge3" class="edge">
<title>Node3&#45;&gt;Node4</title>
<path fill="none" stroke="midnightblue" d="M608.24,-113.5C616.73,-113.5 625.3,-113.5 633.7,-113.5"/>
<polygon fill="midnightblue" stroke="midnightblue" points="633.84,-117 643.84,-113.5 633.84,-110 633.84,-117"/>
</g>
<!-- Node5 -->
<g id="node5" class="node">
<title>Node5</title>
<g id="a_node5"><a xlink:href="classdenoptim_1_1graph_1_1_fragment.html#a366dfaf65191c724b8e393b9d9dc899f" target="_top" xlink:title=" ">
<polygon fill="white" stroke="black" points="828,-123.5 828,-153.5 970,-153.5 970,-123.5 828,-123.5"/>
<text text-anchor="start" x="836" y="-141.5" font-family="Helvetica,sans-Serif" font-size="10.00">denoptim.graph.Fragment.get</text>
<text text-anchor="middle" x="899" y="-130.5" font-family="Helvetica,sans-Serif" font-size="10.00">AttachmentPoints</text>
</a>
</g>
</g>
<!-- Node4&#45;&gt;Node5 -->
<g id="edge4" class="edge">
<title>Node4&#45;&gt;Node5</title>
<path fill="none" stroke="midnightblue" d="M786.11,-123.13C796.5,-124.56 807.28,-126.04 817.86,-127.49"/>
<polygon fill="midnightblue" stroke="midnightblue" points="817.55,-130.98 827.93,-128.88 818.5,-124.05 817.55,-130.98"/>
</g>
<!-- Node6 -->
<g id="node6" class="node">
<title>Node6</title>
<g id="a_node6"><a xlink:href="classdenoptim_1_1utils_1_1_molecule_utils.html#a8bca186632882f9399b9511020a43211" target="_top" xlink:title="Gets either the elemental symbol (for standard atoms) of the label (for pseudo&#45;atoms).">
<polygon fill="white" stroke="black" points="822,-74.5 822,-104.5 976,-104.5 976,-74.5 822,-74.5"/>
<text text-anchor="start" x="830" y="-92.5" font-family="Helvetica,sans-Serif" font-size="10.00">denoptim.utils.MoleculeUtils.get</text>
<text text-anchor="middle" x="899" y="-81.5" font-family="Helvetica,sans-Serif" font-size="10.00">SymbolOrLabel</text>
</a>
</g>
</g>
<!-- Node4&#45;&gt;Node6 -->
<g id="edge5" class="edge">
<title>Node4&#45;&gt;Node6</title>
<path fill="none" stroke="midnightblue" d="M786.11,-104.26C794.53,-103.14 803.2,-102 811.82,-100.87"/>
<polygon fill="midnightblue" stroke="midnightblue" points="812.43,-104.31 821.88,-99.54 811.51,-97.37 812.43,-104.31"/>
</g>
<!-- Node7 -->
<g id="node7" class="node">
<title>Node7</title>
<g id="a_node7"><a xlink:href="classdenoptim_1_1utils_1_1_molecule_utils.html#af975649c8225c4653efb1135d8360c2d" target="_top" xlink:title="Check element symbol corresponds to real element of Periodic Table.">
<polygon fill="white" stroke="black" points="1012,-74.5 1012,-104.5 1160,-104.5 1160,-74.5 1012,-74.5"/>
<text text-anchor="start" x="1020" y="-92.5" font-family="Helvetica,sans-Serif" font-size="10.00">denoptim.utils.MoleculeUtils.is</text>
<text text-anchor="middle" x="1086" y="-81.5" font-family="Helvetica,sans-Serif" font-size="10.00">Element</text>
</a>
</g>
</g>
<!-- Node6&#45;&gt;Node7 -->
<g id="edge6" class="edge">
<title>Node6&#45;&gt;Node7</title>
<path fill="none" stroke="midnightblue" d="M976.05,-89.5C984.57,-89.5 993.29,-89.5 1001.89,-89.5"/>
<polygon fill="midnightblue" stroke="midnightblue" points="1001.93,-93 1011.93,-89.5 1001.93,-86 1001.93,-93"/>
</g>
<!-- Node7&#45;&gt;Node7 -->
<g id="edge7" class="edge">
<title>Node7&#45;&gt;Node7</title>
<path fill="none" stroke="midnightblue" d="M1053.59,-104.66C1045.77,-114.06 1056.57,-123 1086,-123 1103.93,-123 1114.95,-119.68 1119.05,-114.96"/>
<polygon fill="midnightblue" stroke="midnightblue" points="1122.52,-114.42 1118.41,-104.66 1115.54,-114.86 1122.52,-114.42"/>
</g>
</g>
</svg>
