<?xml version="1.0" encoding="UTF-8" standalone="no"?>
<!DOCTYPE svg PUBLIC "-//W3C//DTD SVG 1.1//EN"
 "http://www.w3.org/Graphics/SVG/1.1/DTD/svg11.dtd">
<!-- Generated by graphviz version 3.0.0 (20221109.1736)
 -->
<!-- Title: denoptim.utils.SizeControlledSet.addNewUniqueEntry Pages: 1 -->
<svg width="349pt" height="78pt"
 viewBox="0.00 0.00 349.00 77.50" xmlns="http://www.w3.org/2000/svg" xmlns:xlink="http://www.w3.org/1999/xlink">
<g id="graph0" class="graph" transform="scale(1 1) rotate(0) translate(4 73.5)">
<title>denoptim.utils.SizeControlledSet.addNewUniqueEntry</title>
<polygon fill="white" stroke="transparent" points="-4,4 -4,-73.5 345,-73.5 345,4 -4,4"/>
<!-- Node1 -->
<g id="node1" class="node">
<title>Node1</title>
<g id="a_node1"><a xlink:title="Checks if the given entry is already container in the set of known entries and, if not,...">
<polygon fill="#bfbfbf" stroke="black" points="0,-17 0,-47 141,-47 141,-17 0,-17"/>
<text text-anchor="start" x="8" y="-35" font-family="Helvetica,sans-Serif" font-size="10.00">denoptim.utils.SizeControlled</text>
<text text-anchor="middle" x="70.5" y="-24" font-family="Helvetica,sans-Serif" font-size="10.00">Set.addNewUniqueEntry</text>
</a>
</g>
</g>
<!-- Node2 -->
<g id="node2" class="node">
<title>Node2</title>
<g id="a_node2"><a xlink:href="classdenoptim_1_1files_1_1_file_utils.html#a67d99e2b559128d91c93886ba80fa392" target="_top" xlink:title="Search in a file for a line matching the given string query.">
<polygon fill="white" stroke="black" points="197,-39 197,-69 321,-69 321,-39 197,-39"/>
<text text-anchor="start" x="205" y="-57" font-family="Helvetica,sans-Serif" font-size="10.00">denoptim.files.FileUtils.is</text>
<text text-anchor="middle" x="259" y="-46" font-family="Helvetica,sans-Serif" font-size="10.00">LineInTxtFile</text>
</a>
</g>
</g>
<!-- Node1&#45;&gt;Node2 -->
<g id="edge1" class="edge">
<title>Node1&#45;&gt;Node2</title>
<path fill="none" stroke="midnightblue" d="M141.21,-40.22C156.09,-41.98 171.82,-43.83 186.76,-45.6"/>
<polygon fill="midnightblue" stroke="midnightblue" points="186.61,-49.1 196.95,-46.8 187.43,-42.15 186.61,-49.1"/>
</g>
<!-- Node3 -->
<g id="node3" class="node">
<title>Node3</title>
<g id="a_node3"><a xlink:href="classdenoptim_1_1io_1_1_denoptim_i_o.html#adc7de175de66792f4f37f1661c10e7f8" target="_top" xlink:title="Write text&#45;like data file.">
<polygon fill="white" stroke="black" points="177,-0.5 177,-19.5 341,-19.5 341,-0.5 177,-0.5"/>
<text text-anchor="middle" x="259" y="-7.5" font-family="Helvetica,sans-Serif" font-size="10.00">denoptim.io.DenoptimIO.writeData</text>
</a>
</g>
</g>
<!-- Node1&#45;&gt;Node3 -->
<g id="edge2" class="edge">
<title>Node1&#45;&gt;Node3</title>
<path fill="none" stroke="midnightblue" d="M141.21,-23.78C149.69,-22.78 158.44,-21.74 167.17,-20.71"/>
<polygon fill="midnightblue" stroke="midnightblue" points="167.86,-24.16 177.38,-19.51 167.04,-17.21 167.86,-24.16"/>
</g>
</g>
</svg>
