<?xml version="1.0" encoding="UTF-8" standalone="no"?>
<!DOCTYPE svg PUBLIC "-//W3C//DTD SVG 1.1//EN"
 "http://www.w3.org/Graphics/SVG/1.1/DTD/svg11.dtd">
<!-- Generated by graphviz version 3.0.0 (20221109.1736)
 -->
<!-- Title: denoptim.graph.VertexQuery.matches Pages: 1 -->
<svg width="1351pt" height="629pt"
 viewBox="0.00 0.00 1351.00 629.39" xmlns="http://www.w3.org/2000/svg" xmlns:xlink="http://www.w3.org/1999/xlink">
<g id="graph0" class="graph" transform="scale(1 1) rotate(0) translate(4 625.39)">
<title>denoptim.graph.VertexQuery.matches</title>
<polygon fill="white" stroke="transparent" points="-4,4 -4,-625.39 1347,-625.39 1347,4 -4,4"/>
<!-- Node1 -->
<g id="node1" class="node">
<title>Node1</title>
<g id="a_node1"><a xlink:title="Tests whether the given vertex satisfies all non&#45;null criteria in this query.">
<polygon fill="#bfbfbf" stroke="black" points="0,-387 0,-406 178,-406 178,-387 0,-387"/>
<text text-anchor="middle" x="89" y="-394" font-family="Helvetica,sans-Serif" font-size="10.00">denoptim.graph.VertexQuery.matches</text>
</a>
</g>
</g>
<!-- Node1&#45;&gt;Node1 -->
<g id="edge16" class="edge">
<title>Node1&#45;&gt;Node1</title>
<path fill="none" stroke="midnightblue" d="M56.28,-406.11C39.85,-414.96 50.76,-424.5 89,-424.5 117.09,-424.5 130.43,-419.36 129.02,-413.12"/>
<polygon fill="midnightblue" stroke="midnightblue" points="131.36,-410.51 121.72,-406.11 126.51,-415.56 131.36,-410.51"/>
</g>
<!-- Node2 -->
<g id="node2" class="node">
<title>Node2</title>
<g id="a_node2"><a xlink:href="classdenoptim_1_1graph_1_1_vertex.html#a85aa901ec3fff8e566c0cc32d9c9f84e" target="_top" xlink:title=" ">
<polygon fill="white" stroke="black" points="1215,-448.5 1215,-478.5 1343,-478.5 1343,-448.5 1215,-448.5"/>
<text text-anchor="start" x="1223" y="-466.5" font-family="Helvetica,sans-Serif" font-size="10.00">denoptim.graph.Vertex.get</text>
<text text-anchor="middle" x="1279" y="-455.5" font-family="Helvetica,sans-Serif" font-size="10.00">AttachmentPoints</text>
</a>
</g>
</g>
<!-- Node1&#45;&gt;Node2 -->
<g id="edge1" class="edge">
<title>Node1&#45;&gt;Node2</title>
<path fill="none" stroke="midnightblue" d="M92.91,-406.23C103.18,-438.6 141.06,-543.08 214,-585.5 329.1,-652.45 379.84,-604.5 513,-604.5 513,-604.5 513,-604.5 916,-604.5 1046.87,-604.5 1187.32,-523.49 1247.65,-484.28"/>
<polygon fill="midnightblue" stroke="midnightblue" points="1249.86,-487.01 1256.29,-478.59 1246.01,-481.17 1249.86,-487.01"/>
</g>
<!-- Node3 -->
<g id="node3" class="node">
<title>Node3</title>
<g id="a_node3"><a xlink:href="classdenoptim_1_1graph_1_1_vertex.html#a200f775296c4c9804e3a2b59e065be8a" target="_top" xlink:title="Returns the index of the building block that should correspond to the position of the building block ...">
<polygon fill="white" stroke="black" points="239,-545.5 239,-575.5 367,-575.5 367,-545.5 239,-545.5"/>
<text text-anchor="start" x="247" y="-563.5" font-family="Helvetica,sans-Serif" font-size="10.00">denoptim.graph.Vertex.get</text>
<text text-anchor="middle" x="303" y="-552.5" font-family="Helvetica,sans-Serif" font-size="10.00">BuildingBlockId</text>
</a>
</g>
</g>
<!-- Node1&#45;&gt;Node3 -->
<g id="edge2" class="edge">
<title>Node1&#45;&gt;Node3</title>
<path fill="none" stroke="midnightblue" d="M95.62,-406.02C111.07,-431.38 156.92,-501.02 214,-536.5 218.71,-539.43 223.77,-542 229.01,-544.26"/>
<polygon fill="midnightblue" stroke="midnightblue" points="227.99,-547.63 238.58,-548.01 230.55,-541.11 227.99,-547.63"/>
</g>
<!-- Node4 -->
<g id="node4" class="node">
<title>Node4</title>
<g id="a_node4"><a xlink:href="classdenoptim_1_1graph_1_1_vertex.html#a46dadb5fd30f1877db91e97ae55c2dd8" target="_top" xlink:title=" ">
<polygon fill="white" stroke="black" points="239,-496.5 239,-526.5 367,-526.5 367,-496.5 239,-496.5"/>
<text text-anchor="start" x="247" y="-514.5" font-family="Helvetica,sans-Serif" font-size="10.00">denoptim.graph.Vertex.get</text>
<text text-anchor="middle" x="303" y="-503.5" font-family="Helvetica,sans-Serif" font-size="10.00">BuildingBlockType</text>
</a>
</g>
</g>
<!-- Node1&#45;&gt;Node4 -->
<g id="edge3" class="edge">
<title>Node1&#45;&gt;Node4</title>
<path fill="none" stroke="midnightblue" d="M100.4,-406.25C120.68,-424.75 167.59,-465.1 214,-487.5 218.9,-489.87 224.07,-492.03 229.36,-494"/>
<polygon fill="midnightblue" stroke="midnightblue" points="228.35,-497.36 238.95,-497.35 230.66,-490.75 228.35,-497.36"/>
</g>
<!-- Node5 -->
<g id="node5" class="node">
<title>Node5</title>
<g id="a_node5"><a xlink:href="classdenoptim_1_1graph_1_1_vertex.html#a6615f1c869173b8bd6d730c6683b9de4" target="_top" xlink:title="Returns the graph this vertex belongs to or null.">
<polygon fill="white" stroke="black" points="450,-396.5 450,-426.5 578,-426.5 578,-396.5 450,-396.5"/>
<text text-anchor="start" x="458" y="-414.5" font-family="Helvetica,sans-Serif" font-size="10.00">denoptim.graph.Vertex.get</text>
<text text-anchor="middle" x="514" y="-403.5" font-family="Helvetica,sans-Serif" font-size="10.00">GraphOwner</text>
</a>
</g>
</g>
<!-- Node1&#45;&gt;Node5 -->
<g id="edge4" class="edge">
<title>Node1&#45;&gt;Node5</title>
<path fill="none" stroke="midnightblue" d="M178.16,-399.63C255.47,-402.37 366.58,-406.31 439.26,-408.89"/>
<polygon fill="midnightblue" stroke="midnightblue" points="439.58,-412.4 449.7,-409.26 439.83,-405.4 439.58,-412.4"/>
</g>
<!-- Node6 -->
<g id="node6" class="node">
<title>Node6</title>
<g id="a_node6"><a xlink:href="classdenoptim_1_1graph_1_1_d_graph.html#a9677d31ec5986be0e1694dfd1a184f5f" target="_top" xlink:title="Calculates the level of a vertex in this graph.">
<polygon fill="white" stroke="black" points="236,-447.5 236,-477.5 370,-477.5 370,-447.5 236,-447.5"/>
<text text-anchor="start" x="244" y="-465.5" font-family="Helvetica,sans-Serif" font-size="10.00">denoptim.graph.DGraph.get</text>
<text text-anchor="middle" x="303" y="-454.5" font-family="Helvetica,sans-Serif" font-size="10.00">Level</text>
</a>
</g>
</g>
<!-- Node1&#45;&gt;Node6 -->
<g id="edge5" class="edge">
<title>Node1&#45;&gt;Node6</title>
<path fill="none" stroke="midnightblue" d="M120.83,-406.1C152.97,-416.1 204.12,-432.03 243.89,-444.41"/>
<polygon fill="midnightblue" stroke="midnightblue" points="242.89,-447.76 253.47,-447.39 244.97,-441.08 242.89,-447.76"/>
</g>
<!-- Node13 -->
<g id="node13" class="node">
<title>Node13</title>
<g id="a_node13"><a xlink:href="classdenoptim_1_1graph_1_1_vertex.html#a9493346ca1480edfcfa00cb78a52adf5" target="_top" xlink:title=" ">
<polygon fill="white" stroke="black" points="239,-359.5 239,-389.5 367,-389.5 367,-359.5 239,-359.5"/>
<text text-anchor="start" x="247" y="-377.5" font-family="Helvetica,sans-Serif" font-size="10.00">denoptim.graph.Vertex.get</text>
<text text-anchor="middle" x="303" y="-366.5" font-family="Helvetica,sans-Serif" font-size="10.00">VertexId</text>
</a>
</g>
</g>
<!-- Node1&#45;&gt;Node13 -->
<g id="edge14" class="edge">
<title>Node1&#45;&gt;Node13</title>
<path fill="none" stroke="midnightblue" d="M178.07,-387.36C194.93,-385.61 212.42,-383.8 228.75,-382.1"/>
<polygon fill="midnightblue" stroke="midnightblue" points="229.17,-385.58 238.76,-381.06 228.45,-378.61 229.17,-385.58"/>
</g>
<!-- Node14 -->
<g id="node14" class="node">
<title>Node14</title>
<g id="a_node14"><a xlink:href="classdenoptim_1_1graph_1_1_vertex.html#a49b2e2a2fe0fa6e22e63ff0071f79ee9" target="_top" xlink:title="Returns the value of the vertex type.">
<polygon fill="white" stroke="black" points="239,-310.5 239,-340.5 367,-340.5 367,-310.5 239,-310.5"/>
<text text-anchor="start" x="247" y="-328.5" font-family="Helvetica,sans-Serif" font-size="10.00">denoptim.graph.Vertex.get</text>
<text text-anchor="middle" x="303" y="-317.5" font-family="Helvetica,sans-Serif" font-size="10.00">VertexType</text>
</a>
</g>
</g>
<!-- Node1&#45;&gt;Node14 -->
<g id="edge15" class="edge">
<title>Node1&#45;&gt;Node14</title>
<path fill="none" stroke="midnightblue" d="M114.04,-386.94C138.88,-377.22 178.86,-361.99 214,-350.5 221.32,-348.11 229.03,-345.72 236.72,-343.43"/>
<polygon fill="midnightblue" stroke="midnightblue" points="237.8,-346.76 246.41,-340.58 235.83,-340.04 237.8,-346.76"/>
</g>
<!-- Node15 -->
<g id="node15" class="node">
<title>Node15</title>
<g id="a_node15"><a xlink:href="classdenoptim_1_1graph_1_1_vertex_query.html#af23dd64a35938660e9be863c60b5b47d" target="_top" xlink:title=" ">
<polygon fill="white" stroke="black" points="214,-261.5 214,-291.5 392,-291.5 392,-261.5 214,-261.5"/>
<text text-anchor="start" x="222" y="-279.5" font-family="Helvetica,sans-Serif" font-size="10.00">denoptim.graph.VertexQuery.matches</text>
<text text-anchor="middle" x="303" y="-268.5" font-family="Helvetica,sans-Serif" font-size="10.00">AnyEdge</text>
</a>
</g>
</g>
<!-- Node1&#45;&gt;Node15 -->
<g id="edge17" class="edge">
<title>Node1&#45;&gt;Node15</title>
<path fill="none" stroke="midnightblue" d="M99.72,-386.93C119.53,-367.93 166.74,-325.23 214,-301.5 218.58,-299.2 223.41,-297.08 228.35,-295.13"/>
<polygon fill="midnightblue" stroke="midnightblue" points="229.77,-298.34 237.94,-291.6 227.35,-291.77 229.77,-298.34"/>
</g>
<!-- Node7 -->
<g id="node7" class="node">
<title>Node7</title>
<g id="a_node7"><a xlink:href="classdenoptim_1_1graph_1_1_d_graph.html#aaf3eb72074f66c853ea40c06ac9bea0e" target="_top" xlink:title="Traverse the graph until it identifies the source of the directed path reachable from the given verte...">
<polygon fill="white" stroke="black" points="447,-447.5 447,-477.5 581,-477.5 581,-447.5 447,-447.5"/>
<text text-anchor="start" x="455" y="-465.5" font-family="Helvetica,sans-Serif" font-size="10.00">denoptim.graph.DGraph.get</text>
<text text-anchor="middle" x="514" y="-454.5" font-family="Helvetica,sans-Serif" font-size="10.00">ParentTree</text>
</a>
</g>
</g>
<!-- Node6&#45;&gt;Node7 -->
<g id="edge6" class="edge">
<title>Node6&#45;&gt;Node7</title>
<path fill="none" stroke="midnightblue" d="M370.13,-462.5C391.29,-462.5 414.9,-462.5 436.72,-462.5"/>
<polygon fill="midnightblue" stroke="midnightblue" points="436.94,-466 446.94,-462.5 436.94,-459 436.94,-466"/>
</g>
<!-- Node7&#45;&gt;Node7 -->
<g id="edge13" class="edge">
<title>Node7&#45;&gt;Node7</title>
<path fill="none" stroke="midnightblue" d="M478.45,-477.66C469.88,-487.06 481.73,-496 514,-496 533.67,-496 545.75,-492.68 550.25,-487.96"/>
<polygon fill="midnightblue" stroke="midnightblue" points="553.72,-487.4 549.55,-477.66 546.73,-487.87 553.72,-487.4"/>
</g>
<!-- Node8 -->
<g id="node8" class="node">
<title>Node8</title>
<g id="a_node8"><a xlink:href="classdenoptim_1_1graph_1_1_d_graph.html#a978d4b9f0c7e555fa1db7ed5a6af5a6c" target="_top" xlink:title=" ">
<polygon fill="white" stroke="black" points="652,-447.5 652,-477.5 786,-477.5 786,-447.5 652,-447.5"/>
<text text-anchor="start" x="660" y="-465.5" font-family="Helvetica,sans-Serif" font-size="10.00">denoptim.graph.DGraph.get</text>
<text text-anchor="middle" x="719" y="-454.5" font-family="Helvetica,sans-Serif" font-size="10.00">Parent</text>
</a>
</g>
</g>
<!-- Node7&#45;&gt;Node8 -->
<g id="edge7" class="edge">
<title>Node7&#45;&gt;Node8</title>
<path fill="none" stroke="midnightblue" d="M581.19,-462.5C600.5,-462.5 621.76,-462.5 641.65,-462.5"/>
<polygon fill="midnightblue" stroke="midnightblue" points="641.9,-466 651.9,-462.5 641.9,-459 641.9,-466"/>
</g>
<!-- Node9 -->
<g id="node9" class="node">
<title>Node9</title>
<g id="a_node9"><a xlink:href="classdenoptim_1_1graph_1_1_vertex.html#a2937a75fd3652481c84235742b94736b" target="_top" xlink:title="Looks into the edges that use any of the APs that belong to this vertex and returns the edge that has...">
<polygon fill="white" stroke="black" points="851,-448.5 851,-478.5 979,-478.5 979,-448.5 851,-448.5"/>
<text text-anchor="start" x="859" y="-466.5" font-family="Helvetica,sans-Serif" font-size="10.00">denoptim.graph.Vertex.get</text>
<text text-anchor="middle" x="915" y="-455.5" font-family="Helvetica,sans-Serif" font-size="10.00">EdgeToParent</text>
</a>
</g>
</g>
<!-- Node8&#45;&gt;Node9 -->
<g id="edge8" class="edge">
<title>Node8&#45;&gt;Node9</title>
<path fill="none" stroke="midnightblue" d="M786.22,-462.84C803.66,-462.93 822.57,-463.03 840.37,-463.12"/>
<polygon fill="midnightblue" stroke="midnightblue" points="840.68,-466.62 850.7,-463.17 840.72,-459.62 840.68,-466.62"/>
</g>
<!-- Node11 -->
<g id="node11" class="node">
<title>Node11</title>
<g id="a_node11"><a xlink:href="classdenoptim_1_1graph_1_1_attachment_point.html#ac8551521d38644f5109800b665957ee9" target="_top" xlink:title=" ">
<polygon fill="white" stroke="black" points="847.5,-360.5 847.5,-390.5 982.5,-390.5 982.5,-360.5 847.5,-360.5"/>
<text text-anchor="start" x="855.5" y="-378.5" font-family="Helvetica,sans-Serif" font-size="10.00">denoptim.graph.Attachment</text>
<text text-anchor="middle" x="915" y="-367.5" font-family="Helvetica,sans-Serif" font-size="10.00">Point.getOwner</text>
</a>
</g>
</g>
<!-- Node8&#45;&gt;Node11 -->
<g id="edge11" class="edge">
<title>Node8&#45;&gt;Node11</title>
<path fill="none" stroke="midnightblue" d="M782.58,-447.48C789.32,-444.9 795.93,-441.92 802,-438.5 820.91,-427.84 819.6,-417.01 838,-405.5 844.28,-401.57 851.17,-397.99 858.15,-394.79"/>
<polygon fill="midnightblue" stroke="midnightblue" points="859.89,-397.85 867.67,-390.66 857.11,-391.43 859.89,-397.85"/>
</g>
<!-- Node12 -->
<g id="node12" class="node">
<title>Node12</title>
<g id="a_node12"><a xlink:href="classdenoptim_1_1graph_1_1_edge.html#a658e275a18a50f12474777f5f28c35e9" target="_top" xlink:title=" ">
<polygon fill="white" stroke="black" points="1028,-284 1028,-303 1179,-303 1179,-284 1028,-284"/>
<text text-anchor="middle" x="1103.5" y="-291" font-family="Helvetica,sans-Serif" font-size="10.00">denoptim.graph.Edge.getSrcAP</text>
</a>
</g>
</g>
<!-- Node8&#45;&gt;Node12 -->
<g id="edge12" class="edge">
<title>Node8&#45;&gt;Node12</title>
<path fill="none" stroke="midnightblue" d="M786.07,-449.03C864,-432.91 984.06,-407.23 992,-400.5 1024.23,-373.17 996.12,-340.24 1028,-312.5 1029.94,-310.81 1032.01,-309.27 1034.17,-307.87"/>
<polygon fill="midnightblue" stroke="midnightblue" points="1035.86,-310.94 1042.96,-303.08 1032.51,-304.79 1035.86,-310.94"/>
</g>
<!-- Node9&#45;&gt;Node2 -->
<g id="edge9" class="edge">
<title>Node9&#45;&gt;Node2</title>
<path fill="none" stroke="midnightblue" d="M979.06,-463.5C1041.84,-463.5 1138.15,-463.5 1204.39,-463.5"/>
<polygon fill="midnightblue" stroke="midnightblue" points="1204.76,-467 1214.76,-463.5 1204.76,-460 1204.76,-467"/>
</g>
<!-- Node10 -->
<g id="node10" class="node">
<title>Node10</title>
<g id="a_node10"><a xlink:href="classdenoptim_1_1graph_1_1_edge.html#a44521a3ad1a83e5d0a6be227e35ceffa" target="_top" xlink:title=" ">
<polygon fill="white" stroke="black" points="1028.5,-322 1028.5,-341 1178.5,-341 1178.5,-322 1028.5,-322"/>
<text text-anchor="middle" x="1103.5" y="-329" font-family="Helvetica,sans-Serif" font-size="10.00">denoptim.graph.Edge.getTrgAP</text>
</a>
</g>
</g>
<!-- Node9&#45;&gt;Node10 -->
<g id="edge10" class="edge">
<title>Node9&#45;&gt;Node10</title>
<path fill="none" stroke="midnightblue" d="M962.34,-448.36C972.46,-444.21 982.87,-439.23 992,-433.5 1030.43,-409.37 1067.61,-370.99 1087.52,-348.83"/>
<polygon fill="midnightblue" stroke="midnightblue" points="1090.27,-351.01 1094.28,-341.2 1085.03,-346.37 1090.27,-351.01"/>
</g>
<!-- Node15&#45;&gt;Node5 -->
<g id="edge22" class="edge">
<title>Node15&#45;&gt;Node5</title>
<path fill="none" stroke="midnightblue" d="M377.29,-291.61C382.58,-294.37 387.57,-297.64 392,-301.5 422,-327.65 398.54,-356.73 428,-383.5 431.85,-387 436.16,-390.07 440.72,-392.75"/>
<polygon fill="midnightblue" stroke="midnightblue" points="439.29,-395.95 449.78,-397.45 442.52,-389.74 439.29,-395.95"/>
</g>
<!-- Node16 -->
<g id="node16" class="node">
<title>Node16</title>
<g id="a_node16"><a xlink:href="classdenoptim_1_1graph_1_1_d_graph.html#aa85798ddde2da9314ff4621fe089ccf2" target="_top" xlink:title="Returns the list of edges that depart from the given vertex, i.e., edges where the srcAP is owned by ...">
<polygon fill="white" stroke="black" points="447,-343.5 447,-373.5 581,-373.5 581,-343.5 447,-343.5"/>
<text text-anchor="start" x="455" y="-361.5" font-family="Helvetica,sans-Serif" font-size="10.00">denoptim.graph.DGraph.get</text>
<text text-anchor="middle" x="514" y="-350.5" font-family="Helvetica,sans-Serif" font-size="10.00">EdgesWithSrc</text>
</a>
</g>
</g>
<!-- Node15&#45;&gt;Node16 -->
<g id="edge18" class="edge">
<title>Node15&#45;&gt;Node16</title>
<path fill="none" stroke="midnightblue" d="M366.96,-291.63C375.54,-294.48 384.1,-297.76 392,-301.5 409.61,-309.83 410.75,-317.44 428,-326.5 437.2,-331.33 447.31,-335.8 457.23,-339.77"/>
<polygon fill="midnightblue" stroke="midnightblue" points="456.07,-343.07 466.66,-343.41 458.59,-336.54 456.07,-343.07"/>
</g>
<!-- Node18 -->
<g id="node18" class="node">
<title>Node18</title>
<g id="a_node18"><a xlink:href="classdenoptim_1_1graph_1_1_d_graph.html#a597808bffc1ce454c22c4c2522d7aa3a" target="_top" xlink:title="Returns the list of edges that arrive from the given vertex, i.e., edges where the trgAP is owned by ...">
<polygon fill="white" stroke="black" points="447,-286.5 447,-316.5 581,-316.5 581,-286.5 447,-286.5"/>
<text text-anchor="start" x="455" y="-304.5" font-family="Helvetica,sans-Serif" font-size="10.00">denoptim.graph.DGraph.get</text>
<text text-anchor="middle" x="514" y="-293.5" font-family="Helvetica,sans-Serif" font-size="10.00">EdgesWithTrg</text>
</a>
</g>
</g>
<!-- Node15&#45;&gt;Node18 -->
<g id="edge20" class="edge">
<title>Node15&#45;&gt;Node18</title>
<path fill="none" stroke="midnightblue" d="M392.03,-287.03C406.98,-288.82 422.4,-290.66 437.01,-292.41"/>
<polygon fill="midnightblue" stroke="midnightblue" points="436.64,-295.89 446.99,-293.6 437.47,-288.94 436.64,-295.89"/>
</g>
<!-- Node19 -->
<g id="node19" class="node">
<title>Node19</title>
<g id="a_node19"><a xlink:href="classdenoptim_1_1graph_1_1_edge_query.html#a348b003646180ab98f25eb1d2dcd1a01" target="_top" xlink:title="Tests whether the given edge satisfies this query.">
<polygon fill="white" stroke="black" points="428,-247 428,-266 600,-266 600,-247 428,-247"/>
<text text-anchor="middle" x="514" y="-254" font-family="Helvetica,sans-Serif" font-size="10.00">denoptim.graph.EdgeQuery.matches</text>
</a>
</g>
</g>
<!-- Node15&#45;&gt;Node19 -->
<g id="edge23" class="edge">
<title>Node15&#45;&gt;Node19</title>
<path fill="none" stroke="midnightblue" d="M392.03,-268.08C400.53,-267.26 409.18,-266.44 417.74,-265.62"/>
<polygon fill="midnightblue" stroke="midnightblue" points="418.12,-269.1 427.74,-264.66 417.46,-262.13 418.12,-269.1"/>
</g>
<!-- Node17 -->
<g id="node17" class="node">
<title>Node17</title>
<g id="a_node17"><a xlink:href="classdenoptim_1_1graph_1_1_d_graph.html#ab5d3641bcfd0c8dd76d5de6159d6b8c8" target="_top" xlink:title=" ">
<polygon fill="white" stroke="black" points="652,-398.5 652,-428.5 786,-428.5 786,-398.5 652,-398.5"/>
<text text-anchor="start" x="660" y="-416.5" font-family="Helvetica,sans-Serif" font-size="10.00">denoptim.graph.DGraph.get</text>
<text text-anchor="middle" x="719" y="-405.5" font-family="Helvetica,sans-Serif" font-size="10.00">EdgeList</text>
</a>
</g>
</g>
<!-- Node16&#45;&gt;Node17 -->
<g id="edge19" class="edge">
<title>Node16&#45;&gt;Node17</title>
<path fill="none" stroke="midnightblue" d="M570.47,-373.53C595.87,-380.41 626.15,-388.61 652.64,-395.79"/>
<polygon fill="midnightblue" stroke="midnightblue" points="652.03,-399.25 662.6,-398.49 653.86,-392.5 652.03,-399.25"/>
</g>
<!-- Node18&#45;&gt;Node17 -->
<g id="edge21" class="edge">
<title>Node18&#45;&gt;Node17</title>
<path fill="none" stroke="midnightblue" d="M567.81,-316.65C579.08,-321.3 590.45,-327.18 600,-334.5 621.45,-350.93 614.39,-367.28 636,-383.5 641.38,-387.54 647.35,-391.07 653.55,-394.16"/>
<polygon fill="midnightblue" stroke="midnightblue" points="652.21,-397.4 662.76,-398.38 655.13,-391.04 652.21,-397.4"/>
</g>
<!-- Node19&#45;&gt;Node1 -->
<g id="edge43" class="edge">
<title>Node19&#45;&gt;Node1</title>
<path fill="none" stroke="midnightblue" d="M479.68,-246.99C422.35,-232.5 302.65,-210.67 214,-251.5 156.74,-277.87 116.09,-345.17 98.99,-377.97"/>
<polygon fill="midnightblue" stroke="midnightblue" points="95.84,-376.45 94.45,-386.96 102.09,-379.61 95.84,-376.45"/>
</g>
<!-- Node19&#45;&gt;Node10 -->
<g id="edge27" class="edge">
<title>Node19&#45;&gt;Node10</title>
<path fill="none" stroke="midnightblue" d="M559.98,-266.05C573.03,-269.24 587.2,-273.11 600,-277.5 616.56,-283.18 619.03,-289.17 636,-293.5 766.48,-326.78 923.5,-332.9 1018.04,-333.07"/>
<polygon fill="midnightblue" stroke="midnightblue" points="1018.12,-336.57 1028.12,-333.07 1018.12,-329.57 1018.12,-336.57"/>
</g>
<!-- Node19&#45;&gt;Node11 -->
<g id="edge25" class="edge">
<title>Node19&#45;&gt;Node11</title>
<path fill="none" stroke="midnightblue" d="M579.47,-266.15C586.84,-269.02 593.89,-272.73 600,-277.5 626.95,-298.55 607.69,-326.31 636,-345.5 694.88,-385.41 777.43,-389.46 837.26,-385.63"/>
<polygon fill="midnightblue" stroke="midnightblue" points="837.69,-389.11 847.41,-384.89 837.18,-382.13 837.69,-389.11"/>
</g>
<!-- Node19&#45;&gt;Node12 -->
<g id="edge26" class="edge">
<title>Node19&#45;&gt;Node12</title>
<path fill="none" stroke="midnightblue" d="M570.57,-266.04C591.07,-269.22 614.54,-272.47 636,-274.5 768.81,-287.05 923.67,-291.31 1017.33,-292.76"/>
<polygon fill="midnightblue" stroke="midnightblue" points="1017.55,-296.27 1027.6,-292.91 1017.65,-289.27 1017.55,-296.27"/>
</g>
<!-- Node20 -->
<g id="node20" class="node">
<title>Node20</title>
<g id="a_node20"><a xlink:href="classdenoptim_1_1graph_1_1_edge.html#aadec63c8f1ce93b0c82ae1f2a409acf1" target="_top" xlink:title=" ">
<polygon fill="white" stroke="black" points="636,-246 636,-265 802,-265 802,-246 636,-246"/>
<text text-anchor="middle" x="719" y="-253" font-family="Helvetica,sans-Serif" font-size="10.00">denoptim.graph.Edge.getBondType</text>
</a>
</g>
</g>
<!-- Node19&#45;&gt;Node20 -->
<g id="edge24" class="edge">
<title>Node19&#45;&gt;Node20</title>
<path fill="none" stroke="midnightblue" d="M600.21,-256.08C608.71,-256.04 617.37,-256 625.93,-255.95"/>
<polygon fill="midnightblue" stroke="midnightblue" points="625.95,-259.45 635.93,-255.9 625.92,-252.45 625.95,-259.45"/>
</g>
<!-- Node21 -->
<g id="node21" class="node">
<title>Node21</title>
<g id="a_node21"><a xlink:href="classdenoptim_1_1graph_1_1_attachment_point_query.html#ae479b571d3b26271e8caa535fb26fd97" target="_top" xlink:title="Tests whether the given attachment point satisfies all non&#45;null criteria in this query.">
<polygon fill="white" stroke="black" points="651.5,-178.5 651.5,-208.5 786.5,-208.5 786.5,-178.5 651.5,-178.5"/>
<text text-anchor="start" x="659.5" y="-196.5" font-family="Helvetica,sans-Serif" font-size="10.00">denoptim.graph.Attachment</text>
<text text-anchor="middle" x="719" y="-185.5" font-family="Helvetica,sans-Serif" font-size="10.00">PointQuery.matches</text>
</a>
</g>
</g>
<!-- Node19&#45;&gt;Node21 -->
<g id="edge28" class="edge">
<title>Node19&#45;&gt;Node21</title>
<path fill="none" stroke="midnightblue" d="M533.01,-246.86C557.26,-237.07 601.88,-222.38 641.23,-210.76"/>
<polygon fill="midnightblue" stroke="midnightblue" points="642.49,-214.04 651.11,-207.87 640.53,-207.32 642.49,-214.04"/>
</g>
<!-- Node21&#45;&gt;Node1 -->
<g id="edge42" class="edge">
<title>Node21&#45;&gt;Node1</title>
<path fill="none" stroke="midnightblue" d="M651.45,-180.53C550.06,-164.35 353.92,-147.37 214,-224.5 151.5,-258.95 112.55,-339.86 97.32,-377.11"/>
<polygon fill="midnightblue" stroke="midnightblue" points="93.92,-376.19 93.51,-386.78 100.43,-378.76 93.92,-376.19"/>
</g>
<!-- Node21&#45;&gt;Node11 -->
<g id="edge39" class="edge">
<title>Node21&#45;&gt;Node11</title>
<path fill="none" stroke="midnightblue" d="M756.26,-208.55C771.28,-215.76 788.34,-225.28 802,-236.5 823.85,-254.45 871.48,-317.47 897.02,-352.16"/>
<polygon fill="midnightblue" stroke="midnightblue" points="894.27,-354.33 903.01,-360.33 899.92,-350.19 894.27,-354.33"/>
</g>
<!-- Node21&#45;&gt;Node19 -->
<g id="edge41" class="edge">
<title>Node21&#45;&gt;Node19</title>
<path fill="none" stroke="midnightblue" d="M685.94,-208.53C656.16,-219.52 611.07,-233.89 574.67,-244.19"/>
<polygon fill="midnightblue" stroke="midnightblue" points="573.35,-240.93 564.66,-246.99 575.23,-247.67 573.35,-240.93"/>
</g>
<!-- Node21&#45;&gt;Node21 -->
<g id="edge40" class="edge">
<title>Node21&#45;&gt;Node21</title>
<path fill="none" stroke="midnightblue" d="M684.84,-208.66C676.61,-218.06 687.99,-227 719,-227 737.9,-227 749.5,-223.68 753.83,-218.96"/>
<polygon fill="midnightblue" stroke="midnightblue" points="757.3,-218.41 753.16,-208.66 750.31,-218.87 757.3,-218.41"/>
</g>
<!-- Node22 -->
<g id="node22" class="node">
<title>Node22</title>
<g id="a_node22"><a xlink:href="classdenoptim_1_1graph_1_1_a_p_class.html#a45fa1cc43d2915d4674fd544890b7019" target="_top" xlink:title=" ">
<polygon fill="white" stroke="black" points="838,-246 838,-265 992,-265 992,-246 838,-246"/>
<text text-anchor="middle" x="915" y="-253" font-family="Helvetica,sans-Serif" font-size="10.00">denoptim.graph.APClass.equals</text>
</a>
</g>
</g>
<!-- Node21&#45;&gt;Node22 -->
<g id="edge29" class="edge">
<title>Node21&#45;&gt;Node22</title>
<path fill="none" stroke="midnightblue" d="M759.59,-208.54C782.37,-216.95 811.61,-227.35 838,-235.5 846.81,-238.22 856.26,-240.9 865.4,-243.37"/>
<polygon fill="midnightblue" stroke="midnightblue" points="864.59,-246.77 875.16,-245.95 866.39,-240.01 864.59,-246.77"/>
</g>
<!-- Node23 -->
<g id="node23" class="node">
<title>Node23</title>
<g id="a_node23"><a xlink:href="classdenoptim_1_1graph_1_1_attachment_point.html#a31bed4cb29f6437bf8a888a1dda3fd95" target="_top" xlink:title="Returns the Attachment Point class.">
<polygon fill="white" stroke="black" points="847.5,-196.5 847.5,-226.5 982.5,-226.5 982.5,-196.5 847.5,-196.5"/>
<text text-anchor="start" x="855.5" y="-214.5" font-family="Helvetica,sans-Serif" font-size="10.00">denoptim.graph.Attachment</text>
<text text-anchor="middle" x="915" y="-203.5" font-family="Helvetica,sans-Serif" font-size="10.00">Point.getAPClass</text>
</a>
</g>
</g>
<!-- Node21&#45;&gt;Node23 -->
<g id="edge30" class="edge">
<title>Node21&#45;&gt;Node23</title>
<path fill="none" stroke="midnightblue" d="M786.76,-199.69C803.01,-201.2 820.52,-202.83 837.19,-204.37"/>
<polygon fill="midnightblue" stroke="midnightblue" points="837.16,-207.89 847.44,-205.32 837.81,-200.92 837.16,-207.89"/>
</g>
<!-- Node24 -->
<g id="node24" class="node">
<title>Node24</title>
<g id="a_node24"><a xlink:href="classdenoptim_1_1graph_1_1_attachment_point.html#af8040db3f56d75da29132079df2b25cb" target="_top" xlink:title="Gets the edge that is using this AP, or null if no edge is using this AP.">
<polygon fill="white" stroke="black" points="847.5,-147.5 847.5,-177.5 982.5,-177.5 982.5,-147.5 847.5,-147.5"/>
<text text-anchor="start" x="855.5" y="-165.5" font-family="Helvetica,sans-Serif" font-size="10.00">denoptim.graph.Attachment</text>
<text text-anchor="middle" x="915" y="-154.5" font-family="Helvetica,sans-Serif" font-size="10.00">Point.getEdgeUser</text>
</a>
</g>
</g>
<!-- Node21&#45;&gt;Node24 -->
<g id="edge31" class="edge">
<title>Node21&#45;&gt;Node24</title>
<path fill="none" stroke="midnightblue" d="M786.76,-182.83C803.01,-180.24 820.52,-177.44 837.19,-174.77"/>
<polygon fill="midnightblue" stroke="midnightblue" points="838.12,-178.17 847.44,-173.14 837.01,-171.26 838.12,-178.17"/>
</g>
<!-- Node25 -->
<g id="node25" class="node">
<title>Node25</title>
<g id="a_node25"><a xlink:href="classdenoptim_1_1graph_1_1_attachment_point.html#a72dd6bd75a701cabb65832778da6e574" target="_top" xlink:title="Returns a unique integer that is used to sort list of attachment points.">
<polygon fill="white" stroke="black" points="847.5,-98.5 847.5,-128.5 982.5,-128.5 982.5,-98.5 847.5,-98.5"/>
<text text-anchor="start" x="855.5" y="-116.5" font-family="Helvetica,sans-Serif" font-size="10.00">denoptim.graph.Attachment</text>
<text text-anchor="middle" x="915" y="-105.5" font-family="Helvetica,sans-Serif" font-size="10.00">Point.getID</text>
</a>
</g>
</g>
<!-- Node21&#45;&gt;Node25 -->
<g id="edge32" class="edge">
<title>Node21&#45;&gt;Node25</title>
<path fill="none" stroke="midnightblue" d="M749.09,-178.32C772.67,-166.35 806.98,-149.69 838,-137.5 842.99,-135.54 848.21,-133.62 853.48,-131.78"/>
<polygon fill="midnightblue" stroke="midnightblue" points="854.63,-135.09 862.97,-128.55 852.38,-128.46 854.63,-135.09"/>
</g>
<!-- Node26 -->
<g id="node26" class="node">
<title>Node26</title>
<g id="a_node26"><a xlink:href="classdenoptim_1_1graph_1_1_attachment_point.html#acd666767475f39f0d7f17550d2b47651" target="_top" xlink:title=" ">
<polygon fill="white" stroke="black" points="847.5,-0.5 847.5,-30.5 982.5,-30.5 982.5,-0.5 847.5,-0.5"/>
<text text-anchor="start" x="855.5" y="-18.5" font-family="Helvetica,sans-Serif" font-size="10.00">denoptim.graph.Attachment</text>
<text text-anchor="middle" x="915" y="-7.5" font-family="Helvetica,sans-Serif" font-size="10.00">Point.getIndexInOwner</text>
</a>
</g>
</g>
<!-- Node21&#45;&gt;Node26 -->
<g id="edge33" class="edge">
<title>Node21&#45;&gt;Node26</title>
<path fill="none" stroke="midnightblue" d="M727.5,-178.33C743.49,-147.54 783.94,-77.4 838,-39.5 840.13,-38.01 842.36,-36.6 844.66,-35.28"/>
<polygon fill="midnightblue" stroke="midnightblue" points="846.51,-38.27 853.83,-30.6 843.33,-32.03 846.51,-38.27"/>
</g>
<!-- Node28 -->
<g id="node28" class="node">
<title>Node28</title>
<g id="a_node28"><a xlink:href="classdenoptim_1_1graph_1_1_attachment_point.html#a05ecc9dd632f58f95e7613f8aa4ece97" target="_top" xlink:title="Gets the attachment point (AP) that is connected to this AP via the edge user.">
<polygon fill="white" stroke="black" points="847.5,-49.5 847.5,-79.5 982.5,-79.5 982.5,-49.5 847.5,-49.5"/>
<text text-anchor="start" x="855.5" y="-67.5" font-family="Helvetica,sans-Serif" font-size="10.00">denoptim.graph.Attachment</text>
<text text-anchor="middle" x="915" y="-56.5" font-family="Helvetica,sans-Serif" font-size="10.00">Point.getLinkedAP</text>
</a>
</g>
</g>
<!-- Node21&#45;&gt;Node28 -->
<g id="edge36" class="edge">
<title>Node21&#45;&gt;Node28</title>
<path fill="none" stroke="midnightblue" d="M733,-178.43C753.27,-155.82 794.6,-113.15 838,-88.5 841.04,-86.77 844.22,-85.15 847.48,-83.64"/>
<polygon fill="midnightblue" stroke="midnightblue" points="849.03,-86.78 856.85,-79.63 846.28,-80.35 849.03,-86.78"/>
</g>
<!-- Node27 -->
<g id="node27" class="node">
<title>Node27</title>
<g id="a_node27"><a xlink:href="classdenoptim_1_1graph_1_1_vertex.html#a367c9d31e4bb13c16e865389c154a767" target="_top" xlink:title="Returns the position of the given AP in the list of APs of this vertex.">
<polygon fill="white" stroke="black" points="1039.5,-117.5 1039.5,-147.5 1167.5,-147.5 1167.5,-117.5 1039.5,-117.5"/>
<text text-anchor="start" x="1047.5" y="-135.5" font-family="Helvetica,sans-Serif" font-size="10.00">denoptim.graph.Vertex.get</text>
<text text-anchor="middle" x="1103.5" y="-124.5" font-family="Helvetica,sans-Serif" font-size="10.00">IndexOfAP</text>
</a>
</g>
</g>
<!-- Node26&#45;&gt;Node27 -->
<g id="edge34" class="edge">
<title>Node26&#45;&gt;Node27</title>
<path fill="none" stroke="midnightblue" d="M972.66,-30.64C979.34,-33.22 985.94,-36.17 992,-39.5 1026.44,-58.44 1060.13,-89.05 1081.08,-109.94"/>
<polygon fill="midnightblue" stroke="midnightblue" points="1078.69,-112.5 1088.2,-117.16 1083.67,-107.58 1078.69,-112.5"/>
</g>
<!-- Node27&#45;&gt;Node2 -->
<g id="edge35" class="edge">
<title>Node27&#45;&gt;Node2</title>
<path fill="none" stroke="midnightblue" d="M1112.55,-147.84C1126.22,-173.88 1154.83,-228.39 1179,-274.5 1209.97,-333.58 1246.35,-403.06 1265.21,-439.07"/>
<polygon fill="midnightblue" stroke="midnightblue" points="1262.31,-441.07 1270.05,-448.31 1268.51,-437.83 1262.31,-441.07"/>
</g>
<!-- Node28&#45;&gt;Node10 -->
<g id="edge38" class="edge">
<title>Node28&#45;&gt;Node10</title>
<path fill="none" stroke="midnightblue" d="M981.74,-79.54C985.54,-82.08 989.02,-85.04 992,-88.5 1057.89,-164.83 959.99,-238.05 1028,-312.5 1029.21,-313.82 1030.49,-315.06 1031.84,-316.21"/>
<polygon fill="midnightblue" stroke="midnightblue" points="1030,-319.19 1040.23,-321.97 1033.97,-313.42 1030,-319.19"/>
</g>
<!-- Node28&#45;&gt;Node12 -->
<g id="edge37" class="edge">
<title>Node28&#45;&gt;Node12</title>
<path fill="none" stroke="midnightblue" d="M978.31,-79.55C983.21,-82.09 987.85,-85.04 992,-88.5 1018.27,-110.4 1011.83,-126.37 1028,-156.5 1050.82,-199.02 1077.97,-248.74 1092.37,-275.02"/>
<polygon fill="midnightblue" stroke="midnightblue" points="1089.35,-276.8 1097.22,-283.89 1095.49,-273.43 1089.35,-276.8"/>
</g>
</g>
</svg>
