<?xml version="1.0" encoding="UTF-8" standalone="no"?>
<!DOCTYPE svg PUBLIC "-//W3C//DTD SVG 1.1//EN"
 "http://www.w3.org/Graphics/SVG/1.1/DTD/svg11.dtd">
<!-- Generated by graphviz version 3.0.0 (20221109.1736)
 -->
<!-- Title: denoptim.fragspace.FragmentSpace.FragmentSpace Pages: 1 -->
<!--zoomable 645 -->
<svg id="main" version="1.1" xmlns="http://www.w3.org/2000/svg" xmlns:xlink="http://www.w3.org/1999/xlink" xml:space="preserve" onload="init(evt)">
<style type="text/css"><![CDATA[
.edge:hover path { stroke: red; }
.edge:hover polygon { stroke: red; fill: red; }
]]></style>
<script type="text/javascript"><![CDATA[
var edges = document.getElementsByTagName('g');
if (edges && edges.length) {
  for (var i=0;i<edges.length;i++) {
    if (edges[i].id.substr(0,4)=='edge') {
      edges[i].setAttribute('class','edge');
    }
  }
}
]]></script>
        <defs>
                <circle id="rim" cx="0" cy="0" r="7"/>
                <circle id="rim2" cx="0" cy="0" r="3.5"/>
                <g id="zoomPlus">
                        <use xlink:href="#rim" fill="#404040">
                                <set attributeName="fill" to="#808080" begin="zoomplus.mouseover" end="zoomplus.mouseout"/>
                        </use>
                        <path d="M-4,0h8M0,-4v8" fill="none" stroke="white" stroke-width="1.5" pointer-events="none"/>
                </g>
                <g id="zoomMin">
                        <use xlink:href="#rim" fill="#404040">
                                <set attributeName="fill" to="#808080" begin="zoomminus.mouseover" end="zoomminus.mouseout"/>
                        </use>
                        <path d="M-4,0h8" fill="none" stroke="white" stroke-width="1.5" pointer-events="none"/>
                </g>
                <g id="dirArrow">
                        <path fill="none" stroke="white" stroke-width="1.5" d="M0,-3.0v7 M-2.5,-0.5L0,-3.0L2.5,-0.5"/>
                </g>
               <g id="resetDef">
                       <use xlink:href="#rim2" fill="#404040">
                               <set attributeName="fill" to="#808080" begin="reset.mouseover" end="reset.mouseout"/>
                       </use>
               </g>
        </defs>

<script type="text/javascript">
var viewWidth = 1471;
var viewHeight = 645;
var sectionId = 'dynsection-2';
</script>
<script xlink:href="svgpan.js"/>
<svg id="graph" class="graph">
<g id="viewport">
<title>denoptim.fragspace.FragmentSpace.FragmentSpace</title>
<polygon fill="white" stroke="transparent" points="-4,4 -4,-641 1467,-641 1467,4 -4,4"/>
<!-- Node1 -->
<g id="node1" class="node">
<title>Node1</title>
<g id="a_node1"><a xlink:title="Define all components of a fragment space that implements the attachment point class&#45;approach.">
<polygon fill="#bfbfbf" stroke="black" points="0,-220.5 0,-250.5 145,-250.5 145,-220.5 0,-220.5"/>
<text text-anchor="start" x="8" y="-238.5" font-family="Helvetica,sans-Serif" font-size="10.00">denoptim.fragspace.Fragment</text>
<text text-anchor="middle" x="72.5" y="-227.5" font-family="Helvetica,sans-Serif" font-size="10.00">Space.FragmentSpace</text>
</a>
</g>
</g>
<!-- Node2 -->
<g id="node2" class="node">
<title>Node2</title>
<g id="a_node2"><a xlink:href="classdenoptim_1_1fragspace_1_1_fragment_space.html#a4792b534137a7989aab4ab2237d12438" target="_top" xlink:title="Define all components of this fragment space.">
<polygon fill="white" stroke="black" points="181,-220.5 181,-250.5 326,-250.5 326,-220.5 181,-220.5"/>
<text text-anchor="start" x="189" y="-238.5" font-family="Helvetica,sans-Serif" font-size="10.00">denoptim.fragspace.Fragment</text>
<text text-anchor="middle" x="253.5" y="-227.5" font-family="Helvetica,sans-Serif" font-size="10.00">Space.define</text>
</a>
</g>
</g>
<!-- Node1&#45;&gt;Node2 -->
<g id="edge1" class="edge">
<title>Node1&#45;&gt;Node2</title>
<path fill="none" stroke="midnightblue" d="M145.02,-235.5C153.49,-235.5 162.18,-235.5 170.78,-235.5"/>
<polygon fill="midnightblue" stroke="midnightblue" points="170.8,-239 180.8,-235.5 170.8,-232 170.8,-239"/>
</g>
<!-- Node3 -->
<g id="node3" class="node">
<title>Node3</title>
<g id="a_node3"><a xlink:href="classdenoptim_1_1fragspace_1_1_fragment_space.html#a500eaadf61dbb4a0d9c1105f907212c7" target="_top" xlink:title="Performs grouping and classification operations on the library of building blocks of BBType#FRAGMENT.">
<polygon fill="white" stroke="black" points="367,-441.5 367,-471.5 536,-471.5 536,-441.5 367,-441.5"/>
<text text-anchor="start" x="375" y="-459.5" font-family="Helvetica,sans-Serif" font-size="10.00">denoptim.fragspace.Fragment</text>
<text text-anchor="middle" x="451.5" y="-448.5" font-family="Helvetica,sans-Serif" font-size="10.00">Space.groupAndClassifyFragments</text>
</a>
</g>
</g>
<!-- Node2&#45;&gt;Node3 -->
<g id="edge2" class="edge">
<title>Node2&#45;&gt;Node3</title>
<path fill="none" stroke="midnightblue" d="M258.36,-250.76C268.54,-287.87 299.76,-383.38 362,-432.5 363.78,-433.9 365.63,-435.22 367.54,-436.47"/>
<polygon fill="midnightblue" stroke="midnightblue" points="365.87,-439.54 376.29,-441.44 369.33,-433.45 365.87,-439.54"/>
</g>
<!-- Node15 -->
<g id="node15" class="node">
<title>Node15</title>
<g id="a_node15"><a xlink:href="classdenoptim_1_1fragspace_1_1_fragment_space.html#abbd24a68393f1849c2d742f944c1c348" target="_top" xlink:title=" ">
<polygon fill="white" stroke="black" points="379,-392.5 379,-422.5 524,-422.5 524,-392.5 379,-392.5"/>
<text text-anchor="start" x="387" y="-410.5" font-family="Helvetica,sans-Serif" font-size="10.00">denoptim.fragspace.Fragment</text>
<text text-anchor="middle" x="451.5" y="-399.5" font-family="Helvetica,sans-Serif" font-size="10.00">Space.setCappingLibrary</text>
</a>
</g>
</g>
<!-- Node2&#45;&gt;Node15 -->
<g id="edge16" class="edge">
<title>Node2&#45;&gt;Node15</title>
<path fill="none" stroke="midnightblue" d="M261.22,-250.72C275.33,-280.87 311.02,-348.34 362,-383.5 364.4,-385.15 366.9,-386.69 369.49,-388.12"/>
<polygon fill="midnightblue" stroke="midnightblue" points="368.04,-391.31 378.55,-392.6 371.14,-385.03 368.04,-391.31"/>
</g>
<!-- Node20 -->
<g id="node20" class="node">
<title>Node20</title>
<g id="a_node20"><a xlink:href="classdenoptim_1_1fragspace_1_1_fragment_space.html#a8d1502cdc46db8fe67ddc594ae1cb180" target="_top" xlink:title=" ">
<polygon fill="white" stroke="black" points="379,-343.5 379,-373.5 524,-373.5 524,-343.5 379,-343.5"/>
<text text-anchor="start" x="387" y="-361.5" font-family="Helvetica,sans-Serif" font-size="10.00">denoptim.fragspace.Fragment</text>
<text text-anchor="middle" x="451.5" y="-350.5" font-family="Helvetica,sans-Serif" font-size="10.00">Space.setCappingMap</text>
</a>
</g>
</g>
<!-- Node2&#45;&gt;Node20 -->
<g id="edge22" class="edge">
<title>Node2&#45;&gt;Node20</title>
<path fill="none" stroke="midnightblue" d="M267.1,-250.8C285.67,-272.38 322.49,-311.54 362,-333.5 365.95,-335.7 370.12,-337.71 374.39,-339.56"/>
<polygon fill="midnightblue" stroke="midnightblue" points="373.31,-342.9 383.9,-343.35 375.9,-336.4 373.31,-342.9"/>
</g>
<!-- Node21 -->
<g id="node21" class="node">
<title>Node21</title>
<g id="a_node21"><a xlink:href="classdenoptim_1_1fragspace_1_1_fragment_space.html#a2f5afb31f605b8d3b6908ac2c7683545" target="_top" xlink:title=" ">
<polygon fill="white" stroke="black" points="379,-294.5 379,-324.5 524,-324.5 524,-294.5 379,-294.5"/>
<text text-anchor="start" x="387" y="-312.5" font-family="Helvetica,sans-Serif" font-size="10.00">denoptim.fragspace.Fragment</text>
<text text-anchor="middle" x="451.5" y="-301.5" font-family="Helvetica,sans-Serif" font-size="10.00">Space.setCompatibilityMatrix</text>
</a>
</g>
</g>
<!-- Node2&#45;&gt;Node21 -->
<g id="edge23" class="edge">
<title>Node2&#45;&gt;Node21</title>
<path fill="none" stroke="midnightblue" d="M284.57,-250.7C305.84,-261.08 335.23,-274.68 362,-284.5 368.7,-286.96 375.76,-289.32 382.84,-291.54"/>
<polygon fill="midnightblue" stroke="midnightblue" points="381.9,-294.91 392.49,-294.48 383.95,-288.22 381.9,-294.91"/>
</g>
<!-- Node22 -->
<g id="node22" class="node">
<title>Node22</title>
<g id="a_node22"><a xlink:href="classdenoptim_1_1fragspace_1_1_fragment_space.html#a5d0471e0761aebff87d894c0bf39ecd7" target="_top" xlink:title=" ">
<polygon fill="white" stroke="black" points="379,-245.5 379,-275.5 524,-275.5 524,-245.5 379,-245.5"/>
<text text-anchor="start" x="387" y="-263.5" font-family="Helvetica,sans-Serif" font-size="10.00">denoptim.fragspace.Fragment</text>
<text text-anchor="middle" x="451.5" y="-252.5" font-family="Helvetica,sans-Serif" font-size="10.00">Space.setForbiddenEndList</text>
</a>
</g>
</g>
<!-- Node2&#45;&gt;Node22 -->
<g id="edge24" class="edge">
<title>Node2&#45;&gt;Node22</title>
<path fill="none" stroke="midnightblue" d="M326.09,-244.63C339.91,-246.39 354.48,-248.25 368.59,-250.05"/>
<polygon fill="midnightblue" stroke="midnightblue" points="368.41,-253.56 378.77,-251.35 369.3,-246.61 368.41,-253.56"/>
</g>
<!-- Node23 -->
<g id="node23" class="node">
<title>Node23</title>
<g id="a_node23"><a xlink:href="classdenoptim_1_1fragspace_1_1_fragment_space.html#a5f1ddd58bd4295a9d9d0cf867f3f6914" target="_top" xlink:title=" ">
<polygon fill="white" stroke="black" points="379,-196.5 379,-226.5 524,-226.5 524,-196.5 379,-196.5"/>
<text text-anchor="start" x="387" y="-214.5" font-family="Helvetica,sans-Serif" font-size="10.00">denoptim.fragspace.Fragment</text>
<text text-anchor="middle" x="451.5" y="-203.5" font-family="Helvetica,sans-Serif" font-size="10.00">Space.setFragmentLibrary</text>
</a>
</g>
</g>
<!-- Node2&#45;&gt;Node23 -->
<g id="edge25" class="edge">
<title>Node2&#45;&gt;Node23</title>
<path fill="none" stroke="midnightblue" d="M326.09,-226.73C339.91,-225.04 354.48,-223.26 368.59,-221.53"/>
<polygon fill="midnightblue" stroke="midnightblue" points="369.27,-224.97 378.77,-220.28 368.42,-218.02 369.27,-224.97"/>
</g>
<!-- Node24 -->
<g id="node24" class="node">
<title>Node24</title>
<g id="a_node24"><a xlink:href="classdenoptim_1_1fragspace_1_1_fragment_space_parameters.html#af140278c28ecf4c380d2b93d03ffbb41" target="_top" xlink:title="Sets the fragment space linked to these parameters.">
<polygon fill="white" stroke="black" points="362,-147.5 362,-177.5 541,-177.5 541,-147.5 362,-147.5"/>
<text text-anchor="start" x="370" y="-165.5" font-family="Helvetica,sans-Serif" font-size="10.00">denoptim.fragspace.Fragment</text>
<text text-anchor="middle" x="451.5" y="-154.5" font-family="Helvetica,sans-Serif" font-size="10.00">SpaceParameters.setFragmentSpace</text>
</a>
</g>
</g>
<!-- Node2&#45;&gt;Node24 -->
<g id="edge27" class="edge">
<title>Node2&#45;&gt;Node24</title>
<path fill="none" stroke="midnightblue" d="M284.08,-220.44C305.37,-209.99 334.99,-196.24 362,-186.5 367.8,-184.41 373.87,-182.4 379.99,-180.5"/>
<polygon fill="midnightblue" stroke="midnightblue" points="381.06,-183.83 389.63,-177.6 379.05,-177.13 381.06,-183.83"/>
</g>
<!-- Node25 -->
<g id="node25" class="node">
<title>Node25</title>
<g id="a_node25"><a xlink:href="classdenoptim_1_1fragspace_1_1_fragment_space.html#ae9f3a26c3e08408196f58254b6cd6a2e" target="_top" xlink:title=" ">
<polygon fill="white" stroke="black" points="374,-98.5 374,-128.5 529,-128.5 529,-98.5 374,-98.5"/>
<text text-anchor="start" x="382" y="-116.5" font-family="Helvetica,sans-Serif" font-size="10.00">denoptim.fragspace.Fragment</text>
<text text-anchor="middle" x="451.5" y="-105.5" font-family="Helvetica,sans-Serif" font-size="10.00">Space.setRCCompatibilityMatrix</text>
</a>
</g>
</g>
<!-- Node2&#45;&gt;Node25 -->
<g id="edge28" class="edge">
<title>Node2&#45;&gt;Node25</title>
<path fill="none" stroke="midnightblue" d="M267.07,-220.14C285.6,-198.5 322.37,-159.25 362,-137.5 365.43,-135.61 369.03,-133.87 372.71,-132.26"/>
<polygon fill="midnightblue" stroke="midnightblue" points="374.07,-135.49 382.04,-128.51 371.46,-128.99 374.07,-135.49"/>
</g>
<!-- Node26 -->
<g id="node26" class="node">
<title>Node26</title>
<g id="a_node26"><a xlink:href="classdenoptim_1_1fragspace_1_1_fragment_space.html#a26482f3889e4ad9b334784687df2fa18" target="_top" xlink:title=" ">
<polygon fill="white" stroke="black" points="379,-49.5 379,-79.5 524,-79.5 524,-49.5 379,-49.5"/>
<text text-anchor="start" x="387" y="-67.5" font-family="Helvetica,sans-Serif" font-size="10.00">denoptim.fragspace.Fragment</text>
<text text-anchor="middle" x="451.5" y="-56.5" font-family="Helvetica,sans-Serif" font-size="10.00">Space.setScaffoldLibrary</text>
</a>
</g>
</g>
<!-- Node2&#45;&gt;Node26 -->
<g id="edge29" class="edge">
<title>Node2&#45;&gt;Node26</title>
<path fill="none" stroke="midnightblue" d="M261.25,-220.39C275.41,-190.43 311.19,-123.42 362,-88.5 364.4,-86.85 366.91,-85.32 369.49,-83.89"/>
<polygon fill="midnightblue" stroke="midnightblue" points="371.14,-86.98 378.57,-79.42 368.05,-80.7 371.14,-86.98"/>
</g>
<!-- Node27 -->
<g id="node27" class="node">
<title>Node27</title>
<g id="a_node27"><a xlink:href="classdenoptim_1_1fragspace_1_1_fragment_space.html#ae0caec2ab73dfa1b2772b23b7266f846" target="_top" xlink:title=" ">
<polygon fill="white" stroke="black" points="379,-0.5 379,-30.5 524,-30.5 524,-0.5 379,-0.5"/>
<text text-anchor="start" x="387" y="-18.5" font-family="Helvetica,sans-Serif" font-size="10.00">denoptim.fragspace.Fragment</text>
<text text-anchor="middle" x="451.5" y="-7.5" font-family="Helvetica,sans-Serif" font-size="10.00">Space.setSymmConstraints</text>
</a>
</g>
</g>
<!-- Node2&#45;&gt;Node27 -->
<g id="edge31" class="edge">
<title>Node2&#45;&gt;Node27</title>
<path fill="none" stroke="midnightblue" d="M258.38,-220.32C268.62,-183.39 299.95,-88.36 362,-39.5 364.48,-37.54 367.12,-35.75 369.86,-34.1"/>
<polygon fill="midnightblue" stroke="midnightblue" points="371.72,-37.07 378.93,-29.31 368.46,-30.88 371.72,-37.07"/>
</g>
<!-- Node4 -->
<g id="node4" class="node">
<title>Node4</title>
<g id="a_node4"><a xlink:href="classdenoptim_1_1fragspace_1_1_fragment_space.html#a13df4c55db0679bb62fb833a91ef38b2" target="_top" xlink:title="Classify a fragment in terms of the number of APs and possibly their type (AP&#45;Class).">
<polygon fill="white" stroke="black" points="950,-420.5 950,-450.5 1095,-450.5 1095,-420.5 950,-420.5"/>
<text text-anchor="start" x="958" y="-438.5" font-family="Helvetica,sans-Serif" font-size="10.00">denoptim.fragspace.Fragment</text>
<text text-anchor="middle" x="1022.5" y="-427.5" font-family="Helvetica,sans-Serif" font-size="10.00">Space.classifyFragment</text>
</a>
</g>
</g>
<!-- Node3&#45;&gt;Node4 -->
<g id="edge3" class="edge">
<title>Node3&#45;&gt;Node4</title>
<path fill="none" stroke="midnightblue" d="M536.15,-453.41C644.48,-449.41 832.11,-442.49 939.58,-438.52"/>
<polygon fill="midnightblue" stroke="midnightblue" points="939.87,-442.02 949.73,-438.15 939.61,-435.02 939.87,-442.02"/>
</g>
<!-- Node14 -->
<g id="node14" class="node">
<title>Node14</title>
<g id="a_node14"><a xlink:href="classdenoptim_1_1fragspace_1_1_fragment_space.html#aed02226a5695be948ae2c33e787e22c3" target="_top" xlink:title=" ">
<polygon fill="white" stroke="black" points="582,-397.5 582,-427.5 727,-427.5 727,-397.5 582,-397.5"/>
<text text-anchor="start" x="590" y="-415.5" font-family="Helvetica,sans-Serif" font-size="10.00">denoptim.fragspace.Fragment</text>
<text text-anchor="middle" x="654.5" y="-404.5" font-family="Helvetica,sans-Serif" font-size="10.00">Space.getFragmentLibrary</text>
</a>
</g>
</g>
<!-- Node3&#45;&gt;Node14 -->
<g id="edge15" class="edge">
<title>Node3&#45;&gt;Node14</title>
<path fill="none" stroke="midnightblue" d="M521.11,-441.48C538.48,-437.68 557.26,-433.57 575.08,-429.67"/>
<polygon fill="midnightblue" stroke="midnightblue" points="575.84,-433.08 584.86,-427.53 574.34,-426.25 575.84,-433.08"/>
</g>
<!-- Node5 -->
<g id="node5" class="node">
<title>Node5</title>
<g id="a_node5"><a xlink:href="classdenoptim_1_1graph_1_1_vertex.html#a274e9253fa2a75073e7fc14918e54eef" target="_top" xlink:title="Returns the list of all APClasses present on this vertex.">
<polygon fill="white" stroke="black" points="1151,-606.5 1151,-636.5 1279,-636.5 1279,-606.5 1151,-606.5"/>
<text text-anchor="start" x="1159" y="-624.5" font-family="Helvetica,sans-Serif" font-size="10.00">denoptim.graph.Vertex.get</text>
<text text-anchor="middle" x="1215" y="-613.5" font-family="Helvetica,sans-Serif" font-size="10.00">AllAPClasses</text>
</a>
</g>
</g>
<!-- Node4&#45;&gt;Node5 -->
<g id="edge4" class="edge">
<title>Node4&#45;&gt;Node5</title>
<path fill="none" stroke="midnightblue" d="M1030.04,-450.7C1044.06,-481.6 1079.96,-552.12 1131,-591.5 1136.3,-595.59 1142.2,-599.15 1148.36,-602.26"/>
<polygon fill="midnightblue" stroke="midnightblue" points="1146.96,-605.47 1157.5,-606.48 1149.89,-599.11 1146.96,-605.47"/>
</g>
<!-- Node6 -->
<g id="node6" class="node">
<title>Node6</title>
<g id="a_node6"><a xlink:href="classdenoptim_1_1graph_1_1_vertex.html#a85aa901ec3fff8e566c0cc32d9c9f84e" target="_top" xlink:title=" ">
<polygon fill="white" stroke="black" points="1335,-562.5 1335,-592.5 1463,-592.5 1463,-562.5 1335,-562.5"/>
<text text-anchor="start" x="1343" y="-580.5" font-family="Helvetica,sans-Serif" font-size="10.00">denoptim.graph.Vertex.get</text>
<text text-anchor="middle" x="1399" y="-569.5" font-family="Helvetica,sans-Serif" font-size="10.00">AttachmentPoints</text>
</a>
</g>
</g>
<!-- Node4&#45;&gt;Node6 -->
<g id="edge7" class="edge">
<title>Node4&#45;&gt;Node6</title>
<path fill="none" stroke="midnightblue" d="M1031.39,-450.59C1046.53,-477.78 1082.51,-534.37 1131,-558.5 1191.22,-588.47 1268.69,-590.62 1324.66,-586.84"/>
<polygon fill="midnightblue" stroke="midnightblue" points="1325.15,-590.31 1334.85,-586.06 1324.62,-583.33 1325.15,-590.31"/>
</g>
<!-- Node7 -->
<g id="node7" class="node">
<title>Node7</title>
<g id="a_node7"><a xlink:href="classdenoptim_1_1graph_1_1_attachment_point.html#a31bed4cb29f6437bf8a888a1dda3fd95" target="_top" xlink:title="Returns the Attachment Point class.">
<polygon fill="white" stroke="black" points="1147.5,-518.5 1147.5,-548.5 1282.5,-548.5 1282.5,-518.5 1147.5,-518.5"/>
<text text-anchor="start" x="1155.5" y="-536.5" font-family="Helvetica,sans-Serif" font-size="10.00">denoptim.graph.Attachment</text>
<text text-anchor="middle" x="1215" y="-525.5" font-family="Helvetica,sans-Serif" font-size="10.00">Point.getAPClass</text>
</a>
</g>
</g>
<!-- Node4&#45;&gt;Node7 -->
<g id="edge6" class="edge">
<title>Node4&#45;&gt;Node7</title>
<path fill="none" stroke="midnightblue" d="M1041.41,-450.54C1061.9,-467.07 1097.01,-493.41 1131,-509.5 1135.08,-511.43 1139.34,-513.24 1143.69,-514.92"/>
<polygon fill="midnightblue" stroke="midnightblue" points="1142.72,-518.3 1153.31,-518.43 1145.11,-511.72 1142.72,-518.3"/>
</g>
<!-- Node8 -->
<g id="node8" class="node">
<title>Node8</title>
<g id="a_node8"><a xlink:href="classdenoptim_1_1fragspace_1_1_fragment_space.html#ae9d431ee87c4285c7d49d78b90ebe3a6" target="_top" xlink:title="Returns the list of fragments with given number of APs.">
<polygon fill="white" stroke="black" points="1142.5,-469.5 1142.5,-499.5 1287.5,-499.5 1287.5,-469.5 1142.5,-469.5"/>
<text text-anchor="start" x="1150.5" y="-487.5" font-family="Helvetica,sans-Serif" font-size="10.00">denoptim.fragspace.Fragment</text>
<text text-anchor="middle" x="1215" y="-476.5" font-family="Helvetica,sans-Serif" font-size="10.00">Space.getFragsWithNumAps</text>
</a>
</g>
</g>
<!-- Node4&#45;&gt;Node8 -->
<g id="edge8" class="edge">
<title>Node4&#45;&gt;Node8</title>
<path fill="none" stroke="midnightblue" d="M1081.95,-450.53C1102.16,-455.73 1124.97,-461.6 1145.89,-466.98"/>
<polygon fill="midnightblue" stroke="midnightblue" points="1145.1,-470.39 1155.66,-469.49 1146.85,-463.61 1145.1,-470.39"/>
</g>
<!-- Node9 -->
<g id="node9" class="node">
<title>Node9</title>
<g id="a_node9"><a xlink:href="classdenoptim_1_1graph_1_1_vertex.html#ac578a57700de26b2f0ba1fc7470129d0" target="_top" xlink:title=" ">
<polygon fill="white" stroke="black" points="1151,-420.5 1151,-450.5 1279,-450.5 1279,-420.5 1151,-420.5"/>
<text text-anchor="start" x="1159" y="-438.5" font-family="Helvetica,sans-Serif" font-size="10.00">denoptim.graph.Vertex.get</text>
<text text-anchor="middle" x="1215" y="-427.5" font-family="Helvetica,sans-Serif" font-size="10.00">FreeAPCount</text>
</a>
</g>
</g>
<!-- Node4&#45;&gt;Node9 -->
<g id="edge9" class="edge">
<title>Node4&#45;&gt;Node9</title>
<path fill="none" stroke="midnightblue" d="M1095.25,-435.5C1110.07,-435.5 1125.71,-435.5 1140.59,-435.5"/>
<polygon fill="midnightblue" stroke="midnightblue" points="1140.76,-439 1150.76,-435.5 1140.76,-432 1140.76,-439"/>
</g>
<!-- Node10 -->
<g id="node10" class="node">
<title>Node10</title>
<g id="a_node10"><a xlink:href="classdenoptim_1_1fragspace_1_1_fragment_space.html#a3aad125a846731307d56e68cd69b8ae5" target="_top" xlink:title=" ">
<polygon fill="white" stroke="black" points="1131.5,-371.5 1131.5,-401.5 1298.5,-401.5 1298.5,-371.5 1131.5,-371.5"/>
<text text-anchor="start" x="1139.5" y="-389.5" font-family="Helvetica,sans-Serif" font-size="10.00">denoptim.fragspace.Fragment</text>
<text text-anchor="middle" x="1215" y="-378.5" font-family="Helvetica,sans-Serif" font-size="10.00">Space.getMapOfFragsPerNumAps</text>
</a>
</g>
</g>
<!-- Node4&#45;&gt;Node10 -->
<g id="edge11" class="edge">
<title>Node4&#45;&gt;Node10</title>
<path fill="none" stroke="midnightblue" d="M1081.95,-420.47C1102.16,-415.27 1124.97,-409.4 1145.89,-404.02"/>
<polygon fill="midnightblue" stroke="midnightblue" points="1146.85,-407.39 1155.66,-401.51 1145.1,-400.61 1146.85,-407.39"/>
</g>
<!-- Node11 -->
<g id="node11" class="node">
<title>Node11</title>
<g id="a_node11"><a xlink:href="classdenoptim_1_1graph_1_1_attachment_point.html#a77887ce020d49c189b89e049f12b70ba" target="_top" xlink:title="Check availability of this attachment point.">
<polygon fill="white" stroke="black" points="1147.5,-322.5 1147.5,-352.5 1282.5,-352.5 1282.5,-322.5 1147.5,-322.5"/>
<text text-anchor="start" x="1155.5" y="-340.5" font-family="Helvetica,sans-Serif" font-size="10.00">denoptim.graph.Attachment</text>
<text text-anchor="middle" x="1215" y="-329.5" font-family="Helvetica,sans-Serif" font-size="10.00">Point.isAvailable</text>
</a>
</g>
</g>
<!-- Node4&#45;&gt;Node11 -->
<g id="edge12" class="edge">
<title>Node4&#45;&gt;Node11</title>
<path fill="none" stroke="midnightblue" d="M1041.85,-420.45C1062.45,-404.21 1097.39,-378.51 1131,-362.5 1135.84,-360.19 1140.94,-358.05 1146.14,-356.06"/>
<polygon fill="midnightblue" stroke="midnightblue" points="1147.34,-359.34 1155.55,-352.65 1144.96,-352.76 1147.34,-359.34"/>
</g>
<!-- Node12 -->
<g id="node12" class="node">
<title>Node12</title>
<g id="a_node12"><a xlink:href="classdenoptim_1_1fragspace_1_1_fragment_space.html#a1746f750aa65cefd1ed92ab55e750e63" target="_top" xlink:title="Adds the reference to a ring&#45;closing vertex (RCV) to the quick&#45;access list of RCVs known in this buil...">
<polygon fill="white" stroke="black" points="1142.5,-273.5 1142.5,-303.5 1287.5,-303.5 1287.5,-273.5 1142.5,-273.5"/>
<text text-anchor="start" x="1150.5" y="-291.5" font-family="Helvetica,sans-Serif" font-size="10.00">denoptim.fragspace.Fragment</text>
<text text-anchor="middle" x="1215" y="-280.5" font-family="Helvetica,sans-Serif" font-size="10.00">Space.registerRCV</text>
</a>
</g>
</g>
<!-- Node4&#45;&gt;Node12 -->
<g id="edge13" class="edge">
<title>Node4&#45;&gt;Node12</title>
<path fill="none" stroke="midnightblue" d="M1032.71,-420.14C1049.13,-394.05 1086.03,-341.14 1131,-312.5 1133.64,-310.82 1136.39,-309.26 1139.23,-307.8"/>
<polygon fill="midnightblue" stroke="midnightblue" points="1140.93,-310.87 1148.54,-303.5 1137.99,-304.52 1140.93,-310.87"/>
</g>
<!-- Node13 -->
<g id="node13" class="node">
<title>Node13</title>
<g id="a_node13"><a xlink:href="classdenoptim_1_1fragspace_1_1_fragment_space.html#a47b278f84db073b1f06809f9c42cfae5" target="_top" xlink:title="Check usage of APClass&#45;based approach, i.e., uses attachment points with annotated data (i....">
<polygon fill="white" stroke="black" points="1131,-224.5 1131,-254.5 1299,-254.5 1299,-224.5 1131,-224.5"/>
<text text-anchor="start" x="1139" y="-242.5" font-family="Helvetica,sans-Serif" font-size="10.00">denoptim.fragspace.Fragment</text>
<text text-anchor="middle" x="1215" y="-231.5" font-family="Helvetica,sans-Serif" font-size="10.00">Space.useAPclassBasedApproach</text>
</a>
</g>
</g>
<!-- Node4&#45;&gt;Node13 -->
<g id="edge14" class="edge">
<title>Node4&#45;&gt;Node13</title>
<path fill="none" stroke="midnightblue" d="M1033.69,-420.35C1047.79,-399.28 1073.89,-359.84 1095,-325.5 1111.69,-298.36 1105.89,-283.11 1131,-263.5 1132.78,-262.11 1134.63,-260.8 1136.55,-259.57"/>
<polygon fill="midnightblue" stroke="midnightblue" points="1138.31,-262.6 1145.3,-254.64 1134.87,-256.5 1138.31,-262.6"/>
</g>
<!-- Node5&#45;&gt;Node6 -->
<g id="edge5" class="edge">
<title>Node5&#45;&gt;Node6</title>
<path fill="none" stroke="midnightblue" d="M1278.13,-606.48C1293.56,-602.75 1310.23,-598.72 1326.09,-594.88"/>
<polygon fill="midnightblue" stroke="midnightblue" points="1326.95,-598.28 1335.85,-592.53 1325.3,-591.47 1326.95,-598.28"/>
</g>
<!-- Node9&#45;&gt;Node6 -->
<g id="edge10" class="edge">
<title>Node9&#45;&gt;Node6</title>
<path fill="none" stroke="midnightblue" d="M1279.38,-450.35C1286.27,-453.18 1292.96,-456.54 1299,-460.5 1336.02,-484.78 1366.74,-526.92 1383.71,-553.45"/>
<polygon fill="midnightblue" stroke="midnightblue" points="1380.86,-555.5 1389.12,-562.13 1386.8,-551.79 1380.86,-555.5"/>
</g>
<!-- Node16 -->
<g id="node16" class="node">
<title>Node16</title>
<g id="a_node16"><a xlink:href="classdenoptim_1_1fragspace_1_1_fragment_space.html#a595ddccfe052fff28e9d79f721d816b9" target="_top" xlink:title="Takes a list of vertices and add them to a given library.">
<polygon fill="white" stroke="black" points="577,-239.5 577,-269.5 732,-269.5 732,-239.5 577,-239.5"/>
<text text-anchor="start" x="585" y="-257.5" font-family="Helvetica,sans-Serif" font-size="10.00">denoptim.fragspace.Fragment</text>
<text text-anchor="middle" x="654.5" y="-246.5" font-family="Helvetica,sans-Serif" font-size="10.00">Space.appendVerticesToLibrary</text>
</a>
</g>
</g>
<!-- Node15&#45;&gt;Node16 -->
<g id="edge17" class="edge">
<title>Node15&#45;&gt;Node16</title>
<path fill="none" stroke="midnightblue" d="M523.21,-392.48C529.44,-389.93 535.47,-386.96 541,-383.5 584.19,-356.47 619.99,-307.79 638.92,-278.58"/>
<polygon fill="midnightblue" stroke="midnightblue" points="642.07,-280.15 644.47,-269.83 636.16,-276.4 642.07,-280.15"/>
</g>
<!-- Node17 -->
<g id="node17" class="node">
<title>Node17</title>
<g id="a_node17"><a xlink:href="classdenoptim_1_1fragspace_1_1_fragment_space.html#a29a9f624b749868d8afd6aa5a987543d" target="_top" xlink:title="Takes a vertex and add it to a given library.">
<polygon fill="white" stroke="black" points="768,-261.5 768,-291.5 914,-291.5 914,-261.5 768,-261.5"/>
<text text-anchor="start" x="776" y="-279.5" font-family="Helvetica,sans-Serif" font-size="10.00">denoptim.fragspace.Fragment</text>
<text text-anchor="middle" x="841" y="-268.5" font-family="Helvetica,sans-Serif" font-size="10.00">Space.appendVertexToLibrary</text>
</a>
</g>
</g>
<!-- Node16&#45;&gt;Node17 -->
<g id="edge18" class="edge">
<title>Node16&#45;&gt;Node17</title>
<path fill="none" stroke="midnightblue" d="M732.14,-263.64C740.61,-264.65 749.26,-265.68 757.79,-266.7"/>
<polygon fill="midnightblue" stroke="midnightblue" points="757.39,-270.17 767.74,-267.88 758.22,-263.22 757.39,-270.17"/>
</g>
<!-- Node17&#45;&gt;Node4 -->
<g id="edge19" class="edge">
<title>Node17&#45;&gt;Node4</title>
<path fill="none" stroke="midnightblue" d="M859.21,-291.75C891.11,-320 959.52,-380.6 996.51,-413.37"/>
<polygon fill="midnightblue" stroke="midnightblue" points="994.53,-416.29 1004.34,-420.3 999.18,-411.05 994.53,-416.29"/>
</g>
<!-- Node18 -->
<g id="node18" class="node">
<title>Node18</title>
<g id="a_node18"><a xlink:href="classdenoptim_1_1graph_1_1_vertex.html#a867032399d8aad0a894cbf5b51406ac4" target="_top" xlink:title=" ">
<polygon fill="white" stroke="black" points="958.5,-286.5 958.5,-316.5 1086.5,-316.5 1086.5,-286.5 958.5,-286.5"/>
<text text-anchor="start" x="966.5" y="-304.5" font-family="Helvetica,sans-Serif" font-size="10.00">denoptim.graph.Vertex.set</text>
<text text-anchor="middle" x="1022.5" y="-293.5" font-family="Helvetica,sans-Serif" font-size="10.00">BuildingBlockId</text>
</a>
</g>
</g>
<!-- Node17&#45;&gt;Node18 -->
<g id="edge20" class="edge">
<title>Node17&#45;&gt;Node18</title>
<path fill="none" stroke="midnightblue" d="M914.23,-286.56C925.42,-288.12 936.99,-289.73 948.2,-291.29"/>
<polygon fill="midnightblue" stroke="midnightblue" points="947.99,-294.8 958.37,-292.71 948.95,-287.86 947.99,-294.8"/>
</g>
<!-- Node19 -->
<g id="node19" class="node">
<title>Node19</title>
<g id="a_node19"><a xlink:href="classdenoptim_1_1graph_1_1_vertex.html#ab8088bc1c894c7c916ca8d8a151fa905" target="_top" xlink:title=" ">
<polygon fill="white" stroke="black" points="958.5,-237.5 958.5,-267.5 1086.5,-267.5 1086.5,-237.5 958.5,-237.5"/>
<text text-anchor="start" x="966.5" y="-255.5" font-family="Helvetica,sans-Serif" font-size="10.00">denoptim.graph.Vertex.set</text>
<text text-anchor="middle" x="1022.5" y="-244.5" font-family="Helvetica,sans-Serif" font-size="10.00">BuildingBlockType</text>
</a>
</g>
</g>
<!-- Node17&#45;&gt;Node19 -->
<g id="edge21" class="edge">
<title>Node17&#45;&gt;Node19</title>
<path fill="none" stroke="midnightblue" d="M914.23,-266.84C925.42,-265.35 936.99,-263.8 948.2,-262.3"/>
<polygon fill="midnightblue" stroke="midnightblue" points="948.93,-265.73 958.37,-260.94 948,-258.8 948.93,-265.73"/>
</g>
<!-- Node23&#45;&gt;Node16 -->
<g id="edge26" class="edge">
<title>Node23&#45;&gt;Node16</title>
<path fill="none" stroke="midnightblue" d="M522.8,-226.54C539.02,-230.01 556.39,-233.73 573.01,-237.28"/>
<polygon fill="midnightblue" stroke="midnightblue" points="572.73,-240.8 583.24,-239.47 574.19,-233.95 572.73,-240.8"/>
</g>
<!-- Node26&#45;&gt;Node16 -->
<g id="edge30" class="edge">
<title>Node26&#45;&gt;Node16</title>
<path fill="none" stroke="midnightblue" d="M524.12,-79.02C530.09,-81.67 535.82,-84.8 541,-88.5 592.54,-125.3 627.64,-193.61 643.63,-230.07"/>
<polygon fill="midnightblue" stroke="midnightblue" points="640.5,-231.64 647.64,-239.46 646.93,-228.89 640.5,-231.64"/>
</g>
</g>
</svg>
        <g id="navigator" transform="translate(0 0)" fill="#404254">
                <rect fill="#f2f5e9" fill-opacity="0.5" stroke="#606060" stroke-width=".5" x="0" y="0" width="60" height="60"/>
                <use id="zoomplus" xlink:href="#zoomPlus" x="17" y="9" onmousedown="handleZoom(evt,'in')"/>
                <use id="zoomminus" xlink:href="#zoomMin" x="42" y="9" onmousedown="handleZoom(evt,'out')"/>
                <use id="reset" xlink:href="#resetDef" x="30" y="36" onmousedown="handleReset()"/>
                <g id="arrowUp" xlink:href="#dirArrow" transform="translate(30 24)" onmousedown="handlePan(0,-1)">
                  <use xlink:href="#rim" fill="#404040">
                        <set attributeName="fill" to="#808080" begin="arrowUp.mouseover" end="arrowUp.mouseout"/>
                  </use>
                  <path fill="none" stroke="white" stroke-width="1.5" d="M0,-3.0v7 M-2.5,-0.5L0,-3.0L2.5,-0.5"/>
                </g>
                <g id="arrowRight" xlink:href="#dirArrow" transform="rotate(90) translate(36 -43)" onmousedown="handlePan(1,0)">
                  <use xlink:href="#rim" fill="#404040">
                        <set attributeName="fill" to="#808080" begin="arrowRight.mouseover" end="arrowRight.mouseout"/>
                  </use>
                  <path fill="none" stroke="white" stroke-width="1.5" d="M0,-3.0v7 M-2.5,-0.5L0,-3.0L2.5,-0.5"/>
                </g>
                <g id="arrowDown" xlink:href="#dirArrow" transform="rotate(180) translate(-30 -48)" onmousedown="handlePan(0,1)">
                  <use xlink:href="#rim" fill="#404040">
                        <set attributeName="fill" to="#808080" begin="arrowDown.mouseover" end="arrowDown.mouseout"/>
                  </use>
                  <path fill="none" stroke="white" stroke-width="1.5" d="M0,-3.0v7 M-2.5,-0.5L0,-3.0L2.5,-0.5"/>
                </g>
                <g id="arrowLeft" xlink:href="#dirArrow" transform="rotate(270) translate(-36 17)" onmousedown="handlePan(-1,0)">
                  <use xlink:href="#rim" fill="#404040">
                        <set attributeName="fill" to="#808080" begin="arrowLeft.mouseover" end="arrowLeft.mouseout"/>
                  </use>
                  <path fill="none" stroke="white" stroke-width="1.5" d="M0,-3.0v7 M-2.5,-0.5L0,-3.0L2.5,-0.5"/>
                </g>
        </g>
        <svg viewBox="0 0 15 15" width="100%" height="30px" preserveAspectRatio="xMaxYMin meet">
         <g id="arrow_out" transform="scale(0.3 0.3)">
          <a xlink:href="classdenoptim_1_1fragspace_1_1_fragment_space_a214f8f0ed7961f48e36ff23f9b8c4c5b_cgraph_org.svg" target="_base">
           <rect id="button" ry="5" rx="5" y="6" x="6" height="38" width="38"
                fill="#f2f5e9" fill-opacity="0.5" stroke="#606060" stroke-width="1.0"/>
           <path id="arrow"
             d="M 11.500037,31.436501 C 11.940474,20.09759 22.043105,11.32322 32.158766,21.979434 L 37.068811,17.246167 C 37.068811,17.246167 37.088388,32 37.088388,32 L 22.160133,31.978069 C 22.160133,31.978069 26.997745,27.140456 26.997745,27.140456 C 18.528582,18.264221 13.291696,25.230495 11.500037,31.436501 z"
             style="fill:#404040;"/>
          </a>
         </g>
        </svg>
</svg>
