<?xml version="1.0" encoding="UTF-8" standalone="no"?>
<!DOCTYPE svg PUBLIC "-//W3C//DTD SVG 1.1//EN"
 "http://www.w3.org/Graphics/SVG/1.1/DTD/svg11.dtd">
<!-- Generated by graphviz version 3.0.0 (20221109.1736)
 -->
<!-- Title: denoptim.programs.RunTimeParameters.readParameterFile Pages: 1 -->
<svg width="399pt" height="431pt"
 viewBox="0.00 0.00 399.00 431.00" xmlns="http://www.w3.org/2000/svg" xmlns:xlink="http://www.w3.org/1999/xlink">
<g id="graph0" class="graph" transform="scale(1 1) rotate(0) translate(4 427)">
<title>denoptim.programs.RunTimeParameters.readParameterFile</title>
<polygon fill="white" stroke="transparent" points="-4,4 -4,-427 395,-427 395,4 -4,4"/>
<!-- Node1 -->
<g id="node1" class="node">
<title>Node1</title>
<g id="a_node1"><a xlink:title="Read the parameter TXT file line by line and interpret its content.">
<polygon fill="#bfbfbf" stroke="black" points="242,-196.5 242,-226.5 391,-226.5 391,-196.5 242,-196.5"/>
<text text-anchor="start" x="250" y="-214.5" font-family="Helvetica,sans-Serif" font-size="10.00">denoptim.programs.RunTime</text>
<text text-anchor="middle" x="316.5" y="-203.5" font-family="Helvetica,sans-Serif" font-size="10.00">Parameters.readParameterFile</text>
</a>
</g>
</g>
<!-- Node2 -->
<g id="node2" class="node">
<title>Node2</title>
<g id="a_node2"><a xlink:href="classdenoptim_1_1programs_1_1combinatorial_1_1_frag_space_explorer.html#a1c6a2aae9ab686d5c7c0fc6246f7aa61" target="_top" xlink:title=" ">
<polygon fill="white" stroke="black" points="22.5,-392.5 22.5,-422.5 183.5,-422.5 183.5,-392.5 22.5,-392.5"/>
<text text-anchor="start" x="30.5" y="-410.5" font-family="Helvetica,sans-Serif" font-size="10.00">denoptim.programs.combinatorial.</text>
<text text-anchor="middle" x="103" y="-399.5" font-family="Helvetica,sans-Serif" font-size="10.00">FragSpaceExplorer.runProgram</text>
</a>
</g>
</g>
<!-- Node1&#45;&gt;Node2 -->
<g id="edge1" class="edge">
<title>Node1&#45;&gt;Node2</title>
<path fill="none" stroke="midnightblue" d="M306.71,-236.45C292.01,-274.36 258.76,-346.03 206,-383.5 199.18,-388.35 191.51,-392.22 183.53,-395.33"/>
<polygon fill="midnightblue" stroke="midnightblue" points="310.12,-237.3 310.36,-226.71 303.57,-234.84 310.12,-237.3"/>
</g>
<!-- Node3 -->
<g id="node3" class="node">
<title>Node3</title>
<g id="a_node3"><a xlink:href="classdenoptim_1_1programs_1_1denovo_1_1_g_a_runner.html#a7cafd6d78727b89dce3e2c8d06f0dd7c" target="_top" xlink:title=" ">
<polygon fill="white" stroke="black" points="35.5,-343.5 35.5,-373.5 170.5,-373.5 170.5,-343.5 35.5,-343.5"/>
<text text-anchor="start" x="43.5" y="-361.5" font-family="Helvetica,sans-Serif" font-size="10.00">denoptim.programs.denovo.</text>
<text text-anchor="middle" x="103" y="-350.5" font-family="Helvetica,sans-Serif" font-size="10.00">GARunner.runProgram</text>
</a>
</g>
</g>
<!-- Node1&#45;&gt;Node3 -->
<g id="edge2" class="edge">
<title>Node1&#45;&gt;Node3</title>
<path fill="none" stroke="midnightblue" d="M301.04,-235.13C282.56,-263.25 247.89,-309.55 206,-334.5 195.22,-340.92 182.84,-345.63 170.5,-349.07"/>
<polygon fill="midnightblue" stroke="midnightblue" points="304.01,-236.99 306.46,-226.68 298.12,-233.21 304.01,-236.99"/>
</g>
<!-- Node4 -->
<g id="node4" class="node">
<title>Node4</title>
<g id="a_node4"><a xlink:href="classdenoptim_1_1programs_1_1fitnessevaluator_1_1_fitness_runner.html#a557845da14612ff98352debd815ef557" target="_top" xlink:title=" ">
<polygon fill="white" stroke="black" points="17,-294.5 17,-324.5 189,-324.5 189,-294.5 17,-294.5"/>
<text text-anchor="start" x="25" y="-312.5" font-family="Helvetica,sans-Serif" font-size="10.00">denoptim.programs.fitnessevaluator.</text>
<text text-anchor="middle" x="103" y="-301.5" font-family="Helvetica,sans-Serif" font-size="10.00">FitnessRunner.runProgram</text>
</a>
</g>
</g>
<!-- Node1&#45;&gt;Node4 -->
<g id="edge3" class="edge">
<title>Node1&#45;&gt;Node4</title>
<path fill="none" stroke="midnightblue" d="M289.84,-232.82C268.6,-249.45 236.99,-271.93 206,-285.5 198.17,-288.93 189.77,-291.91 181.29,-294.49"/>
<polygon fill="midnightblue" stroke="midnightblue" points="292.08,-235.51 297.73,-226.54 287.72,-230.03 292.08,-235.51"/>
</g>
<!-- Node5 -->
<g id="node5" class="node">
<title>Node5</title>
<g id="a_node5"><a xlink:href="classdenoptim_1_1programs_1_1fragmenter_1_1_fragmenter.html#aa27df9705e3aed34cc8cb8bc05e6ce85" target="_top" xlink:title=" ">
<polygon fill="white" stroke="black" points="28,-245.5 28,-275.5 178,-275.5 178,-245.5 28,-245.5"/>
<text text-anchor="start" x="36" y="-263.5" font-family="Helvetica,sans-Serif" font-size="10.00">denoptim.programs.fragmenter.</text>
<text text-anchor="middle" x="103" y="-252.5" font-family="Helvetica,sans-Serif" font-size="10.00">Fragmenter.runProgram</text>
</a>
</g>
</g>
<!-- Node1&#45;&gt;Node5 -->
<g id="edge4" class="edge">
<title>Node1&#45;&gt;Node5</title>
<path fill="none" stroke="midnightblue" d="M240.69,-228.83C217.21,-234.27 191.5,-240.23 168.77,-245.49"/>
<polygon fill="midnightblue" stroke="midnightblue" points="241.65,-232.2 250.61,-226.53 240.07,-225.38 241.65,-232.2"/>
</g>
<!-- Node6 -->
<g id="node6" class="node">
<title>Node6</title>
<g id="a_node6"><a xlink:href="classdenoptim_1_1programs_1_1genetweeker_1_1_gene_ops_runner.html#a3c2407eb1204a7b25600d3d347d98447" target="_top" xlink:title=" ">
<polygon fill="white" stroke="black" points="23.5,-196.5 23.5,-226.5 182.5,-226.5 182.5,-196.5 23.5,-196.5"/>
<text text-anchor="start" x="31.5" y="-214.5" font-family="Helvetica,sans-Serif" font-size="10.00">denoptim.programs.genetweeker.</text>
<text text-anchor="middle" x="103" y="-203.5" font-family="Helvetica,sans-Serif" font-size="10.00">GeneOpsRunner.runProgram</text>
</a>
</g>
</g>
<!-- Node1&#45;&gt;Node6 -->
<g id="edge5" class="edge">
<title>Node1&#45;&gt;Node6</title>
<path fill="none" stroke="midnightblue" d="M231.41,-211.5C215.38,-211.5 198.66,-211.5 182.81,-211.5"/>
<polygon fill="midnightblue" stroke="midnightblue" points="231.82,-215 241.82,-211.5 231.82,-208 231.82,-215"/>
</g>
<!-- Node7 -->
<g id="node7" class="node">
<title>Node7</title>
<g id="a_node7"><a xlink:href="classdenoptim_1_1programs_1_1grapheditor_1_1_graph_editor.html#a649a62e3d4635ef4c19424fa49e6dcd4" target="_top" xlink:title=" ">
<polygon fill="white" stroke="black" points="27,-147.5 27,-177.5 179,-177.5 179,-147.5 27,-147.5"/>
<text text-anchor="start" x="35" y="-165.5" font-family="Helvetica,sans-Serif" font-size="10.00">denoptim.programs.grapheditor.</text>
<text text-anchor="middle" x="103" y="-154.5" font-family="Helvetica,sans-Serif" font-size="10.00">GraphEditor.runProgram</text>
</a>
</g>
</g>
<!-- Node1&#45;&gt;Node7 -->
<g id="edge6" class="edge">
<title>Node1&#45;&gt;Node7</title>
<path fill="none" stroke="midnightblue" d="M240.69,-194.17C217.21,-188.73 191.5,-182.77 168.77,-177.51"/>
<polygon fill="midnightblue" stroke="midnightblue" points="240.07,-197.62 250.61,-196.47 241.65,-190.8 240.07,-197.62"/>
</g>
<!-- Node8 -->
<g id="node8" class="node">
<title>Node8</title>
<g id="a_node8"><a xlink:href="classdenoptim_1_1programs_1_1graphlisthandler_1_1_graph_lists_handler.html#a82e75728262a789cc27189d910b5c74a" target="_top" xlink:title=" ">
<polygon fill="white" stroke="black" points="17,-98.5 17,-128.5 189,-128.5 189,-98.5 17,-98.5"/>
<text text-anchor="start" x="25" y="-116.5" font-family="Helvetica,sans-Serif" font-size="10.00">denoptim.programs.graphlisthandler.</text>
<text text-anchor="middle" x="103" y="-105.5" font-family="Helvetica,sans-Serif" font-size="10.00">GraphListsHandler.runProgram</text>
</a>
</g>
</g>
<!-- Node1&#45;&gt;Node8 -->
<g id="edge7" class="edge">
<title>Node1&#45;&gt;Node8</title>
<path fill="none" stroke="midnightblue" d="M289.38,-190.27C268.09,-173.94 236.65,-151.97 206,-138.5 197.32,-134.68 187.96,-131.39 178.55,-128.56"/>
<polygon fill="midnightblue" stroke="midnightblue" points="287.25,-193.05 297.29,-196.44 291.55,-187.53 287.25,-193.05"/>
</g>
<!-- Node9 -->
<g id="node9" class="node">
<title>Node9</title>
<g id="a_node9"><a xlink:href="classdenoptim_1_1programs_1_1isomorphism_1_1_isomorphism.html#a558ff128682d8685e2c95b8eeea85461" target="_top" xlink:title=" ">
<polygon fill="white" stroke="black" points="23.5,-49.5 23.5,-79.5 182.5,-79.5 182.5,-49.5 23.5,-49.5"/>
<text text-anchor="start" x="31.5" y="-67.5" font-family="Helvetica,sans-Serif" font-size="10.00">denoptim.programs.isomorphism.</text>
<text text-anchor="middle" x="103" y="-56.5" font-family="Helvetica,sans-Serif" font-size="10.00">Isomorphism.runProgram</text>
</a>
</g>
</g>
<!-- Node1&#45;&gt;Node9 -->
<g id="edge8" class="edge">
<title>Node1&#45;&gt;Node9</title>
<path fill="none" stroke="midnightblue" d="M300.72,-187.77C282.09,-159.9 247.45,-114.34 206,-89.5 198.73,-85.14 190.73,-81.54 182.52,-78.57"/>
<polygon fill="midnightblue" stroke="midnightblue" points="298.01,-190.02 306.41,-196.49 303.87,-186.2 298.01,-190.02"/>
</g>
<!-- Node10 -->
<g id="node10" class="node">
<title>Node10</title>
<g id="a_node10"><a xlink:href="classdenoptim_1_1programs_1_1moldecularmodelbuilder_1_1_molecular_model_builder.html#ad2e44290de6a861274def677044e9754" target="_top" xlink:title=" ">
<polygon fill="white" stroke="black" points="0,-0.5 0,-30.5 206,-30.5 206,-0.5 0,-0.5"/>
<text text-anchor="start" x="8" y="-18.5" font-family="Helvetica,sans-Serif" font-size="10.00">denoptim.programs.moldecularmodelbuilder.</text>
<text text-anchor="middle" x="103" y="-7.5" font-family="Helvetica,sans-Serif" font-size="10.00">MolecularModelBuilder.runProgram</text>
</a>
</g>
</g>
<!-- Node1&#45;&gt;Node10 -->
<g id="edge9" class="edge">
<title>Node1&#45;&gt;Node10</title>
<path fill="none" stroke="midnightblue" d="M306.62,-186.75C291.81,-149.14 258.42,-77.99 206,-40.5 200.59,-36.63 194.64,-33.35 188.43,-30.58"/>
<polygon fill="midnightblue" stroke="midnightblue" points="303.47,-188.32 310.31,-196.42 310.01,-185.83 303.47,-188.32"/>
</g>
</g>
</svg>
