<?xml version="1.0" encoding="UTF-8" standalone="no"?>
<!DOCTYPE svg PUBLIC "-//W3C//DTD SVG 1.1//EN"
 "http://www.w3.org/Graphics/SVG/1.1/DTD/svg11.dtd">
<!-- Generated by graphviz version 3.0.0 (20221109.1736)
 -->
<!-- Title: denoptim.graph.Vertex.convertIACToVertex Pages: 1 -->
<svg width="483pt" height="110pt"
 viewBox="0.00 0.00 483.00 110.00" xmlns="http://www.w3.org/2000/svg" xmlns:xlink="http://www.w3.org/1999/xlink">
<g id="graph0" class="graph" transform="scale(1 1) rotate(0) translate(4 106)">
<title>denoptim.graph.Vertex.convertIACToVertex</title>
<polygon fill="white" stroke="transparent" points="-4,4 -4,-106 479,-106 479,4 -4,4"/>
<!-- Node1 -->
<g id="node1" class="node">
<title>Node1</title>
<g id="a_node1"><a xlink:title="Processes an IAtomContainer and builds a Vertex that is an instance of Fragment.">
<polygon fill="#bfbfbf" stroke="black" points="0,-49.5 0,-79.5 147,-79.5 147,-49.5 0,-49.5"/>
<text text-anchor="start" x="8" y="-67.5" font-family="Helvetica,sans-Serif" font-size="10.00">denoptim.graph.Vertex.convert</text>
<text text-anchor="middle" x="73.5" y="-56.5" font-family="Helvetica,sans-Serif" font-size="10.00">IACToVertex</text>
</a>
</g>
</g>
<!-- Node2 -->
<g id="node2" class="node">
<title>Node2</title>
<g id="a_node2"><a xlink:href="classdenoptim_1_1graph_1_1_vertex.html#a85aa901ec3fff8e566c0cc32d9c9f84e" target="_top" xlink:title=" ">
<polygon fill="white" stroke="black" points="347,-71.5 347,-101.5 475,-101.5 475,-71.5 347,-71.5"/>
<text text-anchor="start" x="355" y="-89.5" font-family="Helvetica,sans-Serif" font-size="10.00">denoptim.graph.Vertex.get</text>
<text text-anchor="middle" x="411" y="-78.5" font-family="Helvetica,sans-Serif" font-size="10.00">AttachmentPoints</text>
</a>
</g>
</g>
<!-- Node1&#45;&gt;Node2 -->
<g id="edge1" class="edge">
<title>Node1&#45;&gt;Node2</title>
<path fill="none" stroke="midnightblue" d="M128.72,-79.53C145.93,-83.61 165.14,-87.47 183,-89.5 239.52,-95.93 254.12,-90.36 311,-89.5 319.34,-89.37 328.08,-89.19 336.76,-88.97"/>
<polygon fill="midnightblue" stroke="midnightblue" points="336.99,-92.46 346.9,-88.7 336.81,-85.47 336.99,-92.46"/>
</g>
<!-- Node3 -->
<g id="node3" class="node">
<title>Node3</title>
<g id="a_node3"><a xlink:href="classdenoptim_1_1graph_1_1_vertex.html#a514b89b11dff8939e74e5b95e749b703" target="_top" xlink:title=" ">
<polygon fill="white" stroke="black" points="183,-49.5 183,-79.5 311,-79.5 311,-49.5 183,-49.5"/>
<text text-anchor="start" x="191" y="-67.5" font-family="Helvetica,sans-Serif" font-size="10.00">denoptim.graph.Vertex.get</text>
<text text-anchor="middle" x="247" y="-56.5" font-family="Helvetica,sans-Serif" font-size="10.00">NumberOfAPs</text>
</a>
</g>
</g>
<!-- Node1&#45;&gt;Node3 -->
<g id="edge2" class="edge">
<title>Node1&#45;&gt;Node3</title>
<path fill="none" stroke="midnightblue" d="M147.23,-64.5C155.67,-64.5 164.28,-64.5 172.72,-64.5"/>
<polygon fill="midnightblue" stroke="midnightblue" points="172.92,-68 182.92,-64.5 172.92,-61 172.92,-68"/>
</g>
<!-- Node4 -->
<g id="node4" class="node">
<title>Node4</title>
<g id="a_node4"><a xlink:href="classdenoptim_1_1graph_1_1_vertex.html#a5dbac662f4102558f3cf874c55174c5e" target="_top" xlink:title=" ">
<polygon fill="white" stroke="black" points="183,-0.5 183,-30.5 311,-30.5 311,-0.5 183,-0.5"/>
<text text-anchor="start" x="191" y="-18.5" font-family="Helvetica,sans-Serif" font-size="10.00">denoptim.graph.Vertex.set</text>
<text text-anchor="middle" x="247" y="-7.5" font-family="Helvetica,sans-Serif" font-size="10.00">AsRCV</text>
</a>
</g>
</g>
<!-- Node1&#45;&gt;Node4 -->
<g id="edge4" class="edge">
<title>Node1&#45;&gt;Node4</title>
<path fill="none" stroke="midnightblue" d="M127.36,-49.4C145.12,-44.32 165.12,-38.61 183.55,-33.34"/>
<polygon fill="midnightblue" stroke="midnightblue" points="184.67,-36.66 193.32,-30.55 182.74,-29.93 184.67,-36.66"/>
</g>
<!-- Node3&#45;&gt;Node2 -->
<g id="edge3" class="edge">
<title>Node3&#45;&gt;Node2</title>
<path fill="none" stroke="midnightblue" d="M311.1,-73.07C319.53,-74.21 328.23,-75.4 336.81,-76.56"/>
<polygon fill="midnightblue" stroke="midnightblue" points="336.43,-80.04 346.81,-77.92 337.37,-73.1 336.43,-80.04"/>
</g>
</g>
</svg>
