<?xml version="1.0" encoding="UTF-8" standalone="no"?>
<!DOCTYPE svg PUBLIC "-//W3C//DTD SVG 1.1//EN"
 "http://www.w3.org/Graphics/SVG/1.1/DTD/svg11.dtd">
<!-- Generated by graphviz version 3.0.0 (20221109.1736)
 -->
<!-- Title: denoptim.graph.AttachmentPoint.getBondType Pages: 1 -->
<svg width="318pt" height="39pt"
 viewBox="0.00 0.00 318.00 39.00" xmlns="http://www.w3.org/2000/svg" xmlns:xlink="http://www.w3.org/1999/xlink">
<g id="graph0" class="graph" transform="scale(1 1) rotate(0) translate(4 35)">
<title>denoptim.graph.AttachmentPoint.getBondType</title>
<polygon fill="white" stroke="transparent" points="-4,4 -4,-35 314,-35 314,4 -4,4"/>
<!-- Node1 -->
<g id="node1" class="node">
<title>Node1</title>
<g id="a_node1"><a xlink:title="Returns the bond type preferred by this attachment point as defined by the APClass,...">
<polygon fill="#bfbfbf" stroke="black" points="0,-0.5 0,-30.5 135,-30.5 135,-0.5 0,-0.5"/>
<text text-anchor="start" x="8" y="-18.5" font-family="Helvetica,sans-Serif" font-size="10.00">denoptim.graph.Attachment</text>
<text text-anchor="middle" x="67.5" y="-7.5" font-family="Helvetica,sans-Serif" font-size="10.00">Point.getBondType</text>
</a>
</g>
</g>
<!-- Node2 -->
<g id="node2" class="node">
<title>Node2</title>
<g id="a_node2"><a xlink:href="classdenoptim_1_1graph_1_1_a_p_class.html#a7ecbfcc68b17ef630d0f46ccb6bb763b" target="_top" xlink:title=" ">
<polygon fill="white" stroke="black" points="171,-0.5 171,-30.5 310,-30.5 310,-0.5 171,-0.5"/>
<text text-anchor="start" x="179" y="-18.5" font-family="Helvetica,sans-Serif" font-size="10.00">denoptim.graph.APClass.get</text>
<text text-anchor="middle" x="240.5" y="-7.5" font-family="Helvetica,sans-Serif" font-size="10.00">BondType</text>
</a>
</g>
</g>
<!-- Node1&#45;&gt;Node2 -->
<g id="edge1" class="edge">
<title>Node1&#45;&gt;Node2</title>
<path fill="none" stroke="midnightblue" d="M135.1,-15.5C143.53,-15.5 152.21,-15.5 160.8,-15.5"/>
<polygon fill="midnightblue" stroke="midnightblue" points="160.82,-19 170.82,-15.5 160.82,-12 160.82,-19"/>
</g>
</g>
</svg>
