<?xml version="1.0" encoding="UTF-8" standalone="no"?>
<!DOCTYPE svg PUBLIC "-//W3C//DTD SVG 1.1//EN"
 "http://www.w3.org/Graphics/SVG/1.1/DTD/svg11.dtd">
<!-- Generated by graphviz version 3.0.0 (20221109.1736)
 -->
<!-- Title: denoptim.fragmenter.ConformerExtractorTask Pages: 1 -->
<!--zoomable 897 -->
<svg id="main" version="1.1" xmlns="http://www.w3.org/2000/svg" xmlns:xlink="http://www.w3.org/1999/xlink" xml:space="preserve" onload="init(evt)">
<style type="text/css"><![CDATA[
.edge:hover path { stroke: red; }
.edge:hover polygon { stroke: red; fill: red; }
]]></style>
<script type="text/javascript"><![CDATA[
var edges = document.getElementsByTagName('g');
if (edges && edges.length) {
  for (var i=0;i<edges.length;i++) {
    if (edges[i].id.substr(0,4)=='edge') {
      edges[i].setAttribute('class','edge');
    }
  }
}
]]></script>
        <defs>
                <circle id="rim" cx="0" cy="0" r="7"/>
                <circle id="rim2" cx="0" cy="0" r="3.5"/>
                <g id="zoomPlus">
                        <use xlink:href="#rim" fill="#404040">
                                <set attributeName="fill" to="#808080" begin="zoomplus.mouseover" end="zoomplus.mouseout"/>
                        </use>
                        <path d="M-4,0h8M0,-4v8" fill="none" stroke="white" stroke-width="1.5" pointer-events="none"/>
                </g>
                <g id="zoomMin">
                        <use xlink:href="#rim" fill="#404040">
                                <set attributeName="fill" to="#808080" begin="zoomminus.mouseover" end="zoomminus.mouseout"/>
                        </use>
                        <path d="M-4,0h8" fill="none" stroke="white" stroke-width="1.5" pointer-events="none"/>
                </g>
                <g id="dirArrow">
                        <path fill="none" stroke="white" stroke-width="1.5" d="M0,-3.0v7 M-2.5,-0.5L0,-3.0L2.5,-0.5"/>
                </g>
               <g id="resetDef">
                       <use xlink:href="#rim2" fill="#404040">
                               <set attributeName="fill" to="#808080" begin="reset.mouseover" end="reset.mouseout"/>
                       </use>
               </g>
        </defs>

<script type="text/javascript">
var viewWidth = 1183;
var viewHeight = 897;
var sectionId = 'dynsection-1';
</script>
<script xlink:href="svgpan.js"/>
<svg id="graph" class="graph">
<g id="viewport">
<title>denoptim.fragmenter.ConformerExtractorTask</title>
<polygon fill="white" stroke="transparent" points="-4,4 -4,-892.5 1179,-892.5 1179,4 -4,4"/>
<!-- Node1 -->
<g id="node1" class="node">
<title>Node1</title>
<g id="a_node1"><a xlink:title="Task that analyzes an isomorphic family of fragments to identify the most representative fragment (i....">
<polygon fill="#bfbfbf" stroke="black" points="1023,-706.5 1023,-736.5 1175,-736.5 1175,-706.5 1023,-706.5"/>
<text text-anchor="start" x="1031" y="-724.5" font-family="Helvetica,sans-Serif" font-size="10.00">denoptim.fragmenter.Conformer</text>
<text text-anchor="middle" x="1099" y="-713.5" font-family="Helvetica,sans-Serif" font-size="10.00">ExtractorTask</text>
</a>
</g>
</g>
<!-- Node2 -->
<g id="node2" class="node">
<title>Node2</title>
<g id="a_node2"><a xlink:href="classdenoptim_1_1task_1_1_task.html" target="_top" xlink:title="A task that can throw exceptions.">
<polygon fill="white" stroke="black" points="824.5,-817 824.5,-836 925.5,-836 925.5,-817 824.5,-817"/>
<text text-anchor="middle" x="875" y="-824" font-family="Helvetica,sans-Serif" font-size="10.00">denoptim.task.Task</text>
</a>
</g>
</g>
<!-- Node2&#45;&gt;Node1 -->
<g id="edge1" class="edge">
<title>Node2&#45;&gt;Node1</title>
<path fill="none" stroke="midnightblue" d="M929.91,-814.38C953.62,-808 981.37,-799.07 1005,-787.5 1033.45,-773.57 1062.67,-751.27 1080.58,-736.51"/>
<polygon fill="midnightblue" stroke="midnightblue" points="928.82,-811.04 920.03,-816.95 930.59,-817.82 928.82,-811.04"/>
</g>
<!-- Node3 -->
<g id="node3" class="node">
<title>Node3</title>
<g id="a_node3"><a xlink:title=" ">
<polygon fill="white" stroke="black" points="493.5,-869 493.5,-888 589.5,-888 589.5,-869 493.5,-869"/>
<text text-anchor="middle" x="541.5" y="-876" font-family="Helvetica,sans-Serif" font-size="10.00">Callable&lt; Object &gt;</text>
</a>
</g>
</g>
<!-- Node3&#45;&gt;Node2 -->
<g id="edge2" class="edge">
<title>Node3&#45;&gt;Node2</title>
<path fill="none" stroke="midnightblue" d="M599.64,-874.07C648.37,-869.75 720.16,-862.12 782,-850.5 802.12,-846.72 824.33,-840.97 841.89,-836.05"/>
<polygon fill="midnightblue" stroke="midnightblue" points="599.26,-870.59 589.6,-874.94 599.87,-877.56 599.26,-870.59"/>
</g>
<!-- Node4 -->
<g id="node4" class="node">
<title>Node4</title>
<g id="a_node4"><a xlink:href="classdenoptim_1_1task_1_1_process_handler.html" target="_top" xlink:title=" ">
<polygon fill="white" stroke="black" points="467,-831 467,-850 616,-850 616,-831 467,-831"/>
<text text-anchor="middle" x="541.5" y="-838" font-family="Helvetica,sans-Serif" font-size="10.00">denoptim.task.ProcessHandler</text>
</a>
</g>
</g>
<!-- Node4&#45;&gt;Node2 -->
<g id="edge3" class="edge">
<title>Node4&#45;&gt;Node2</title>
<path fill="none" stroke="#9a32cd" stroke-dasharray="5,2" d="M626.3,-836.96C688.76,-834.32 771.96,-830.81 824.26,-828.6"/>
<polygon fill="#9a32cd" stroke="#9a32cd" points="625.91,-833.47 616.07,-837.39 626.21,-840.47 625.91,-833.47"/>
<text text-anchor="middle" x="714.5" y="-838.5" font-family="Helvetica,sans-Serif" font-size="10.00"> processHandler</text>
</g>
<!-- Node5 -->
<g id="node5" class="node">
<title>Node5</title>
<g id="a_node5"><a xlink:title=" ">
<polygon fill="white" stroke="black" points="525.5,-779 525.5,-798 557.5,-798 557.5,-779 525.5,-779"/>
<text text-anchor="middle" x="541.5" y="-786" font-family="Helvetica,sans-Serif" font-size="10.00">File</text>
</a>
</g>
</g>
<!-- Node5&#45;&gt;Node1 -->
<g id="edge5" class="edge">
<title>Node5&#45;&gt;Node1</title>
<path fill="none" stroke="#9a32cd" stroke-dasharray="5,2" d="M567.69,-786.47C631.71,-781.2 805.77,-766.09 950,-746.5 973.76,-743.27 999.55,-739.14 1022.85,-735.16"/>
<polygon fill="#9a32cd" stroke="#9a32cd" points="567.4,-782.99 557.71,-787.29 567.97,-789.96 567.4,-782.99"/>
<text text-anchor="middle" x="875" y="-766.5" font-family="Helvetica,sans-Serif" font-size="10.00"> isoFamMembersFile</text>
</g>
<!-- Node5&#45;&gt;Node2 -->
<g id="edge4" class="edge">
<title>Node5&#45;&gt;Node2</title>
<path fill="none" stroke="#9a32cd" stroke-dasharray="5,2" d="M567.63,-791.28C611.26,-796.11 703.83,-806.42 782,-815.5 795.74,-817.1 810.63,-818.86 824.35,-820.5"/>
<polygon fill="#9a32cd" stroke="#9a32cd" points="567.96,-787.79 557.64,-790.17 567.19,-794.75 567.96,-787.79"/>
<text text-anchor="middle" x="714.5" y="-818.5" font-family="Helvetica,sans-Serif" font-size="10.00"> workDir</text>
</g>
<!-- Node6 -->
<g id="node6" class="node">
<title>Node6</title>
<g id="a_node6"><a xlink:title=" ">
<polygon fill="white" stroke="black" points="809,-706.5 809,-736.5 941,-736.5 941,-706.5 809,-706.5"/>
<text text-anchor="start" x="817" y="-724.5" font-family="Helvetica,sans-Serif" font-size="10.00">List&lt; denoptim.fragmenter.</text>
<text text-anchor="middle" x="875" y="-713.5" font-family="Helvetica,sans-Serif" font-size="10.00">ClusterableFragment &gt;</text>
</a>
</g>
</g>
<!-- Node6&#45;&gt;Node1 -->
<g id="edge6" class="edge">
<title>Node6&#45;&gt;Node1</title>
<path fill="none" stroke="#9a32cd" stroke-dasharray="5,2" d="M951.18,-721.5C974.26,-721.5 999.65,-721.5 1022.73,-721.5"/>
<polygon fill="#9a32cd" stroke="#9a32cd" points="951.11,-718 941.11,-721.5 951.11,-725 951.11,-718"/>
<text text-anchor="middle" x="986.5" y="-724.5" font-family="Helvetica,sans-Serif" font-size="10.00"> sample</text>
</g>
<!-- Node7 -->
<g id="node7" class="node">
<title>Node7</title>
<g id="a_node7"><a xlink:href="classdenoptim_1_1programs_1_1fragmenter_1_1_fragmenter_parameters.html" target="_top" xlink:title="Parameters controlling execution of the fragmenter.">
<polygon fill="white" stroke="black" points="800,-331.5 800,-361.5 950,-361.5 950,-331.5 800,-331.5"/>
<text text-anchor="start" x="808" y="-349.5" font-family="Helvetica,sans-Serif" font-size="10.00">denoptim.programs.fragmenter.</text>
<text text-anchor="middle" x="875" y="-338.5" font-family="Helvetica,sans-Serif" font-size="10.00">FragmenterParameters</text>
</a>
</g>
</g>
<!-- Node7&#45;&gt;Node1 -->
<g id="edge7" class="edge">
<title>Node7&#45;&gt;Node1</title>
<path fill="none" stroke="#9a32cd" stroke-dasharray="5,2" d="M890.11,-370.33C931.93,-440.98 1054.48,-647.99 1088.91,-706.15"/>
<polygon fill="#9a32cd" stroke="#9a32cd" points="893.08,-368.49 884.98,-361.66 887.06,-372.05 893.08,-368.49"/>
<text text-anchor="middle" x="986.5" y="-558.5" font-family="Helvetica,sans-Serif" font-size="10.00"> settings</text>
</g>
<!-- Node8 -->
<g id="node8" class="node">
<title>Node8</title>
<g id="a_node8"><a xlink:href="classdenoptim_1_1programs_1_1_run_time_parameters.html" target="_top" xlink:title="Collection of parameters controlling the behavior of the software.">
<polygon fill="white" stroke="black" points="471.5,-602.5 471.5,-632.5 611.5,-632.5 611.5,-602.5 471.5,-602.5"/>
<text text-anchor="start" x="479.5" y="-620.5" font-family="Helvetica,sans-Serif" font-size="10.00">denoptim.programs.RunTime</text>
<text text-anchor="middle" x="541.5" y="-609.5" font-family="Helvetica,sans-Serif" font-size="10.00">Parameters</text>
</a>
</g>
</g>
<!-- Node8&#45;&gt;Node7 -->
<g id="edge8" class="edge">
<title>Node8&#45;&gt;Node7</title>
<path fill="none" stroke="midnightblue" d="M622.05,-629.14C672.8,-632.13 737.22,-627.14 782,-592.5 857.74,-533.91 871.13,-405.91 873.49,-361.8"/>
<polygon fill="midnightblue" stroke="midnightblue" points="621.98,-625.63 611.76,-628.42 621.49,-632.61 621.98,-625.63"/>
</g>
<!-- Node9 -->
<g id="node9" class="node">
<title>Node9</title>
<g id="a_node9"><a xlink:title=" ">
<polygon fill="white" stroke="black" points="219,-665 219,-684 266,-684 266,-665 219,-665"/>
<text text-anchor="middle" x="242.5" y="-672" font-family="Helvetica,sans-Serif" font-size="10.00">Logger</text>
</a>
</g>
</g>
<!-- Node9&#45;&gt;Node1 -->
<g id="edge28" class="edge">
<title>Node9&#45;&gt;Node1</title>
<path fill="none" stroke="#9a32cd" stroke-dasharray="5,2" d="M276.3,-674.08C377.12,-673.09 691.31,-672.42 950,-697.5 973.84,-699.81 999.65,-703.56 1022.95,-707.42"/>
<polygon fill="#9a32cd" stroke="#9a32cd" points="276.1,-670.58 266.14,-674.18 276.18,-677.58 276.1,-670.58"/>
<text text-anchor="middle" x="714.5" y="-687.5" font-family="Helvetica,sans-Serif" font-size="10.00"> logger</text>
</g>
<!-- Node9&#45;&gt;Node8 -->
<g id="edge9" class="edge">
<title>Node9&#45;&gt;Node8</title>
<path fill="none" stroke="#9a32cd" stroke-dasharray="5,2" d="M276.2,-668.22C322.96,-659.25 410.06,-642.53 471.46,-630.75"/>
<polygon fill="#9a32cd" stroke="#9a32cd" points="275.47,-664.8 266.31,-670.12 276.79,-671.67 275.47,-664.8"/>
<text text-anchor="middle" x="398.5" y="-653.5" font-family="Helvetica,sans-Serif" font-size="10.00"> logger</text>
</g>
<!-- Node10 -->
<g id="node10" class="node">
<title>Node10</title>
<g id="a_node10"><a xlink:href="classdenoptim_1_1utils_1_1_randomizer.html" target="_top" xlink:title="Tool to generate random numbers and random decisions.">
<polygon fill="white" stroke="black" points="177.5,-623 177.5,-642 307.5,-642 307.5,-623 177.5,-623"/>
<text text-anchor="middle" x="242.5" y="-630" font-family="Helvetica,sans-Serif" font-size="10.00">denoptim.utils.Randomizer</text>
</a>
</g>
</g>
<!-- Node10&#45;&gt;Node8 -->
<g id="edge10" class="edge">
<title>Node10&#45;&gt;Node8</title>
<path fill="none" stroke="#9a32cd" stroke-dasharray="5,2" d="M317.98,-622.34C332.23,-620.76 347.06,-619.37 361,-618.5 397.39,-616.24 438.01,-615.83 471.4,-616.06"/>
<polygon fill="#9a32cd" stroke="#9a32cd" points="317.25,-618.9 307.72,-623.52 318.05,-625.85 317.25,-618.9"/>
<text text-anchor="middle" x="398.5" y="-621.5" font-family="Helvetica,sans-Serif" font-size="10.00"> rng</text>
</g>
<!-- Node11 -->
<g id="node11" class="node">
<title>Node11</title>
<g id="a_node11"><a xlink:title=" ">
<polygon fill="white" stroke="black" points="0,-623 0,-642 92,-642 92,-623 0,-623"/>
<text text-anchor="middle" x="46" y="-630" font-family="Helvetica,sans-Serif" font-size="10.00">MersenneTwister</text>
</a>
</g>
</g>
<!-- Node11&#45;&gt;Node10 -->
<g id="edge11" class="edge">
<title>Node11&#45;&gt;Node10</title>
<path fill="none" stroke="#9a32cd" stroke-dasharray="5,2" d="M102.23,-632.5C125.67,-632.5 153.15,-632.5 177.48,-632.5"/>
<polygon fill="#9a32cd" stroke="#9a32cd" points="102.11,-629 92.11,-632.5 102.11,-636 102.11,-629"/>
<text text-anchor="middle" x="117" y="-635.5" font-family="Helvetica,sans-Serif" font-size="10.00"> mt</text>
</g>
<!-- Node12 -->
<g id="node12" class="node">
<title>Node12</title>
<g id="a_node12"><a xlink:title=" ">
<polygon fill="white" stroke="black" points="142,-563 142,-604 343,-604 343,-563 142,-563"/>
<text text-anchor="start" x="150" y="-592" font-family="Helvetica,sans-Serif" font-size="10.00">Map&lt; denoptim.programs.Run</text>
<text text-anchor="start" x="150" y="-581" font-family="Helvetica,sans-Serif" font-size="10.00">TimeParameters.ParametersType,</text>
<text text-anchor="middle" x="242.5" y="-570" font-family="Helvetica,sans-Serif" font-size="10.00"> denoptim.programs.RunTimeParameters &gt;</text>
</a>
</g>
</g>
<!-- Node12&#45;&gt;Node8 -->
<g id="edge12" class="edge">
<title>Node12&#45;&gt;Node8</title>
<path fill="none" stroke="#9a32cd" stroke-dasharray="5,2" d="M353.34,-591.8C380.4,-594.23 409.29,-597.15 436,-600.5 447.49,-601.94 459.65,-603.7 471.46,-605.54"/>
<polygon fill="#9a32cd" stroke="#9a32cd" points="353.33,-588.29 343.06,-590.89 352.72,-595.26 353.33,-588.29"/>
<text text-anchor="middle" x="398.5" y="-603.5" font-family="Helvetica,sans-Serif" font-size="10.00"> otherParameters</text>
</g>
<!-- Node13 -->
<g id="node13" class="node">
<title>Node13</title>
<g id="a_node13"><a xlink:href="enumdenoptim_1_1programs_1_1_run_time_parameters_1_1_parameters_type.html" target="_top" xlink:title="Identifier of the type of parameters.">
<polygon fill="white" stroke="black" points="172.5,-514.5 172.5,-544.5 312.5,-544.5 312.5,-514.5 172.5,-514.5"/>
<text text-anchor="start" x="180.5" y="-532.5" font-family="Helvetica,sans-Serif" font-size="10.00">denoptim.programs.RunTime</text>
<text text-anchor="middle" x="242.5" y="-521.5" font-family="Helvetica,sans-Serif" font-size="10.00">Parameters.ParametersType</text>
</a>
</g>
</g>
<!-- Node13&#45;&gt;Node8 -->
<g id="edge13" class="edge">
<title>Node13&#45;&gt;Node8</title>
<path fill="none" stroke="#9a32cd" stroke-dasharray="5,2" d="M316.19,-546.89C325.22,-549.09 334.33,-551.34 343,-553.5 384.42,-563.84 398.33,-557.43 436,-577.5 445.45,-582.53 444.6,-588.38 454,-593.5 460.3,-596.93 467.12,-599.9 474.08,-602.47"/>
<polygon fill="#9a32cd" stroke="#9a32cd" points="316.98,-543.48 306.43,-544.52 315.32,-550.28 316.98,-543.48"/>
<text text-anchor="middle" x="398.5" y="-580.5" font-family="Helvetica,sans-Serif" font-size="10.00"> paramType</text>
</g>
<!-- Node14 -->
<g id="node14" class="node">
<title>Node14</title>
<g id="a_node14"><a xlink:title=" ">
<polygon fill="white" stroke="black" points="479,-553.5 479,-583.5 604,-583.5 604,-553.5 479,-553.5"/>
<text text-anchor="start" x="487" y="-571.5" font-family="Helvetica,sans-Serif" font-size="10.00">LinkedHashMap&lt; String,</text>
<text text-anchor="middle" x="541.5" y="-560.5" font-family="Helvetica,sans-Serif" font-size="10.00"> String &gt;</text>
</a>
</g>
</g>
<!-- Node14&#45;&gt;Node7 -->
<g id="edge14" class="edge">
<title>Node14&#45;&gt;Node7</title>
<path fill="none" stroke="#9a32cd" stroke-dasharray="5,2" d="M614.1,-579.68C665.39,-583.75 733.66,-580.69 782,-546.5 845.97,-501.25 866.48,-400.22 872.12,-361.76"/>
<polygon fill="#9a32cd" stroke="#9a32cd" points="614.36,-576.19 604.08,-578.78 613.73,-583.17 614.36,-576.19"/>
<text text-anchor="middle" x="714.5" y="-583.5" font-family="Helvetica,sans-Serif" font-size="10.00"> formulae</text>
</g>
<!-- Node15 -->
<g id="node15" class="node">
<title>Node15</title>
<g id="a_node15"><a xlink:title=" ">
<polygon fill="white" stroke="black" points="454,-504.5 454,-534.5 629,-534.5 629,-504.5 454,-504.5"/>
<text text-anchor="start" x="462" y="-522.5" font-family="Helvetica,sans-Serif" font-size="10.00">List&lt; denoptim.programs.fragmenter.</text>
<text text-anchor="middle" x="541.5" y="-511.5" font-family="Helvetica,sans-Serif" font-size="10.00">CuttingRule &gt;</text>
</a>
</g>
</g>
<!-- Node15&#45;&gt;Node7 -->
<g id="edge15" class="edge">
<title>Node15&#45;&gt;Node7</title>
<path fill="none" stroke="#9a32cd" stroke-dasharray="5,2" d="M639.14,-533.61C685.51,-535.57 739.97,-530.44 782,-504.5 835.75,-471.32 861.53,-394.25 870.34,-361.58"/>
<polygon fill="#9a32cd" stroke="#9a32cd" points="639.24,-530.11 629.07,-533.06 638.87,-537.1 639.24,-530.11"/>
<text text-anchor="middle" x="714.5" y="-536.5" font-family="Helvetica,sans-Serif" font-size="10.00"> cuttingRules</text>
</g>
<!-- Node16 -->
<g id="node16" class="node">
<title>Node16</title>
<g id="a_node16"><a xlink:title=" ">
<polygon fill="white" stroke="black" points="504.5,-466 504.5,-485 578.5,-485 578.5,-466 504.5,-466"/>
<text text-anchor="middle" x="541.5" y="-473" font-family="Helvetica,sans-Serif" font-size="10.00">Set&lt; String &gt;</text>
</a>
</g>
</g>
<!-- Node16&#45;&gt;Node7 -->
<g id="edge16" class="edge">
<title>Node16&#45;&gt;Node7</title>
<path fill="none" stroke="#9a32cd" stroke-dasharray="5,2" d="M588.99,-473.91C648.93,-471.21 749.32,-464.27 782,-447.5 820.62,-427.68 851.04,-384.59 865.24,-361.62"/>
<polygon fill="#9a32cd" stroke="#9a32cd" points="588.5,-470.43 578.66,-474.35 588.8,-477.42 588.5,-470.43"/>
<text text-anchor="middle" x="714.5" y="-494.5" font-family="Helvetica,sans-Serif" font-size="10.00"> preFilterSMARTS</text>
<text text-anchor="middle" x="714.5" y="-483.5" font-family="Helvetica,sans-Serif" font-size="10.00">rejectedAPClasses</text>
<text text-anchor="middle" x="714.5" y="-472.5" font-family="Helvetica,sans-Serif" font-size="10.00">rejectedElements</text>
</g>
<!-- Node17 -->
<g id="node17" class="node">
<title>Node17</title>
<g id="a_node17"><a xlink:title=" ">
<polygon fill="white" stroke="black" points="485,-428 485,-447 598,-447 598,-428 485,-428"/>
<text text-anchor="middle" x="541.5" y="-435" font-family="Helvetica,sans-Serif" font-size="10.00">Map&lt; String, Double &gt;</text>
</a>
</g>
</g>
<!-- Node17&#45;&gt;Node7 -->
<g id="edge17" class="edge">
<title>Node17&#45;&gt;Node7</title>
<path fill="none" stroke="#9a32cd" stroke-dasharray="5,2" d="M608.5,-435.9C657.64,-432.93 725.68,-425.04 782,-404.5 809.67,-394.41 837.78,-375.08 855.52,-361.52"/>
<polygon fill="#9a32cd" stroke="#9a32cd" points="608.11,-432.41 598.31,-436.46 608.49,-439.4 608.11,-432.41"/>
<text text-anchor="middle" x="714.5" y="-435.5" font-family="Helvetica,sans-Serif" font-size="10.00"> formulaCriteriaLessThan</text>
</g>
<!-- Node18 -->
<g id="node18" class="node">
<title>Node18</title>
<g id="a_node18"><a xlink:title=" ">
<polygon fill="white" stroke="black" points="469.5,-390 469.5,-409 613.5,-409 613.5,-390 469.5,-390"/>
<text text-anchor="middle" x="541.5" y="-397" font-family="Helvetica,sans-Serif" font-size="10.00">Set&lt; Map&lt; String, Double &gt; &gt;</text>
</a>
</g>
</g>
<!-- Node18&#45;&gt;Node7 -->
<g id="edge18" class="edge">
<title>Node18&#45;&gt;Node7</title>
<path fill="none" stroke="#9a32cd" stroke-dasharray="5,2" d="M623.7,-393.04C670.29,-388.57 729.73,-381.6 782,-371.5 795.65,-368.86 810.25,-365.26 823.7,-361.62"/>
<polygon fill="#9a32cd" stroke="#9a32cd" points="623.29,-389.56 613.66,-393.98 623.95,-396.53 623.29,-389.56"/>
<text text-anchor="middle" x="714.5" y="-392.5" font-family="Helvetica,sans-Serif" font-size="10.00"> formulaCriteriaMoreThan</text>
</g>
<!-- Node19 -->
<g id="node19" class="node">
<title>Node19</title>
<g id="a_node19"><a xlink:title=" ">
<polygon fill="white" stroke="black" points="503,-352 503,-371 580,-371 580,-352 503,-352"/>
<text text-anchor="middle" x="541.5" y="-359" font-family="Helvetica,sans-Serif" font-size="10.00">Set&lt; String[]&gt;</text>
</a>
</g>
</g>
<!-- Node19&#45;&gt;Node7 -->
<g id="edge19" class="edge">
<title>Node19&#45;&gt;Node7</title>
<path fill="none" stroke="#9a32cd" stroke-dasharray="5,2" d="M590.35,-359.34C645.19,-356.85 735.73,-352.76 799.75,-349.86"/>
<polygon fill="#9a32cd" stroke="#9a32cd" points="590.04,-355.85 580.2,-359.79 590.35,-362.84 590.04,-355.85"/>
<text text-anchor="middle" x="714.5" y="-359.5" font-family="Helvetica,sans-Serif" font-size="10.00"> rejectedAPClassCombinations</text>
</g>
<!-- Node20 -->
<g id="node20" class="node">
<title>Node20</title>
<g id="a_node20"><a xlink:title=" ">
<polygon fill="white" stroke="black" points="487.5,-314 487.5,-333 595.5,-333 595.5,-314 487.5,-314"/>
<text text-anchor="middle" x="541.5" y="-321" font-family="Helvetica,sans-Serif" font-size="10.00">Map&lt; String, String &gt;</text>
</a>
</g>
</g>
<!-- Node20&#45;&gt;Node7 -->
<g id="edge20" class="edge">
<title>Node20&#45;&gt;Node7</title>
<path fill="none" stroke="#9a32cd" stroke-dasharray="5,2" d="M605.53,-319.82C653.97,-317.94 722.45,-317.35 782,-324.5 794.56,-326.01 807.88,-328.6 820.38,-331.48"/>
<polygon fill="#9a32cd" stroke="#9a32cd" points="605.36,-316.32 595.51,-320.24 605.65,-323.32 605.36,-316.32"/>
<text text-anchor="middle" x="714.5" y="-338.5" font-family="Helvetica,sans-Serif" font-size="10.00"> fragRejectionSMARTS</text>
<text text-anchor="middle" x="714.5" y="-327.5" font-family="Helvetica,sans-Serif" font-size="10.00">fragRetentionSMARTS</text>
</g>
<!-- Node21 -->
<g id="node21" class="node">
<title>Node21</title>
<g id="a_node21"><a xlink:title=" ">
<polygon fill="white" stroke="black" points="475.5,-264.5 475.5,-294.5 607.5,-294.5 607.5,-264.5 475.5,-264.5"/>
<text text-anchor="start" x="483.5" y="-282.5" font-family="Helvetica,sans-Serif" font-size="10.00">ArrayList&lt; denoptim.graph.</text>
<text text-anchor="middle" x="541.5" y="-271.5" font-family="Helvetica,sans-Serif" font-size="10.00">Vertex &gt;</text>
</a>
</g>
</g>
<!-- Node21&#45;&gt;Node7 -->
<g id="edge21" class="edge">
<title>Node21&#45;&gt;Node7</title>
<path fill="none" stroke="#9a32cd" stroke-dasharray="5,2" d="M617.72,-274.58C665.7,-273.61 728.68,-276.44 782,-292.5 809.13,-300.67 836.69,-318.36 854.48,-331.28"/>
<polygon fill="#9a32cd" stroke="#9a32cd" points="617.62,-271.08 607.71,-274.83 617.8,-278.07 617.62,-271.08"/>
<text text-anchor="middle" x="714.5" y="-306.5" font-family="Helvetica,sans-Serif" font-size="10.00"> ignorableFragments</text>
<text text-anchor="middle" x="714.5" y="-295.5" font-family="Helvetica,sans-Serif" font-size="10.00">targetFragments</text>
</g>
<!-- Node22 -->
<g id="node22" class="node">
<title>Node22</title>
<g id="a_node22"><a xlink:title=" ">
<polygon fill="white" stroke="black" points="492.5,-226 492.5,-245 590.5,-245 590.5,-226 492.5,-226"/>
<text text-anchor="middle" x="541.5" y="-233" font-family="Helvetica,sans-Serif" font-size="10.00">Map&lt; String, File &gt;</text>
</a>
</g>
</g>
<!-- Node22&#45;&gt;Node7 -->
<g id="edge22" class="edge">
<title>Node22&#45;&gt;Node7</title>
<path fill="none" stroke="#9a32cd" stroke-dasharray="5,2" d="M600.99,-226.93C651.37,-222.22 724.78,-221.87 782,-248.5 820.51,-266.42 850.76,-308.39 865.03,-331.16"/>
<polygon fill="#9a32cd" stroke="#9a32cd" points="600.51,-223.46 590.92,-227.96 601.23,-230.42 600.51,-223.46"/>
<text text-anchor="middle" x="714.5" y="-262.5" font-family="Helvetica,sans-Serif" font-size="10.00"> mwSlotToAllFragsFile</text>
<text text-anchor="middle" x="714.5" y="-251.5" font-family="Helvetica,sans-Serif" font-size="10.00">mwSlotToUnqFragsFile</text>
</g>
<!-- Node23 -->
<g id="node23" class="node">
<title>Node23</title>
<g id="a_node23"><a xlink:title=" ">
<polygon fill="white" stroke="black" points="485,-188 485,-207 598,-207 598,-188 485,-188"/>
<text text-anchor="middle" x="541.5" y="-195" font-family="Helvetica,sans-Serif" font-size="10.00">Map&lt; String, Integer &gt;</text>
</a>
</g>
</g>
<!-- Node23&#45;&gt;Node7 -->
<g id="edge23" class="edge">
<title>Node23&#45;&gt;Node7</title>
<path fill="none" stroke="#9a32cd" stroke-dasharray="5,2" d="M598.54,-186.49C649.73,-179.43 725.77,-176.73 782,-208.5 830.88,-236.12 858.68,-301.73 869.15,-331.43"/>
<polygon fill="#9a32cd" stroke="#9a32cd" points="598.03,-183.02 588.65,-187.95 599.05,-189.95 598.03,-183.02"/>
<text text-anchor="middle" x="714.5" y="-211.5" font-family="Helvetica,sans-Serif" font-size="10.00"> isomorphsCount</text>
</g>
<!-- Node24 -->
<g id="node24" class="node">
<title>Node24</title>
<g id="a_node24"><a xlink:title=" ">
<polygon fill="white" stroke="black" points="503,-150 503,-169 580,-169 580,-150 503,-150"/>
<text text-anchor="middle" x="541.5" y="-157" font-family="Helvetica,sans-Serif" font-size="10.00">AtomicInteger</text>
</a>
</g>
</g>
<!-- Node24&#45;&gt;Node7 -->
<g id="edge24" class="edge">
<title>Node24&#45;&gt;Node7</title>
<path fill="none" stroke="#9a32cd" stroke-dasharray="5,2" d="M588.47,-147.88C639.85,-137.65 723.49,-129.51 782,-166.5 842.22,-204.57 864.78,-295.45 871.55,-331.44"/>
<polygon fill="#9a32cd" stroke="#9a32cd" points="587.71,-144.46 578.64,-149.94 589.15,-151.31 587.71,-144.46"/>
<text text-anchor="middle" x="714.5" y="-169.5" font-family="Helvetica,sans-Serif" font-size="10.00"> unqIsomorphicFamilyId</text>
</g>
<!-- Node25 -->
<g id="node25" class="node">
<title>Node25</title>
<g id="a_node25"><a xlink:href="enumdenoptim_1_1fragmenter_1_1_scaffolding_policy.html" target="_top" xlink:title="Defines how to define the scaffold vertex of a graph.">
<polygon fill="white" stroke="black" points="464,-100.5 464,-130.5 619,-130.5 619,-100.5 464,-100.5"/>
<text text-anchor="start" x="472" y="-118.5" font-family="Helvetica,sans-Serif" font-size="10.00">denoptim.fragmenter.Scaffolding</text>
<text text-anchor="middle" x="541.5" y="-107.5" font-family="Helvetica,sans-Serif" font-size="10.00">Policy</text>
</a>
</g>
</g>
<!-- Node25&#45;&gt;Node7 -->
<g id="edge25" class="edge">
<title>Node25&#45;&gt;Node7</title>
<path fill="none" stroke="#9a32cd" stroke-dasharray="5,2" d="M613.52,-98.86C664.82,-91.06 733.37,-89.77 782,-123.5 853.75,-173.27 869.65,-289.89 873.08,-331.46"/>
<polygon fill="#9a32cd" stroke="#9a32cd" points="612.8,-95.43 603.5,-100.5 613.93,-102.34 612.8,-95.43"/>
<text text-anchor="middle" x="714.5" y="-126.5" font-family="Helvetica,sans-Serif" font-size="10.00"> scaffoldingPolicy</text>
</g>
<!-- Node26 -->
<g id="node26" class="node">
<title>Node26</title>
<g id="a_node26"><a xlink:href="enumdenoptim_1_1graph_1_1_template_1_1_contract_level.html" target="_top" xlink:title="Enum specifying to what extent the template&#39;s inner graph can be changed.">
<polygon fill="white" stroke="black" points="477.5,-51.5 477.5,-81.5 605.5,-81.5 605.5,-51.5 477.5,-51.5"/>
<text text-anchor="start" x="485.5" y="-69.5" font-family="Helvetica,sans-Serif" font-size="10.00">denoptim.graph.Template.</text>
<text text-anchor="middle" x="541.5" y="-58.5" font-family="Helvetica,sans-Serif" font-size="10.00">ContractLevel</text>
</a>
</g>
</g>
<!-- Node26&#45;&gt;Node7 -->
<g id="edge26" class="edge">
<title>Node26&#45;&gt;Node7</title>
<path fill="none" stroke="#9a32cd" stroke-dasharray="5,2" d="M615.83,-50.2C667.34,-43.15 735.14,-43.24 782,-78.5 865.53,-141.35 873.78,-284.52 874.17,-331.36"/>
<polygon fill="#9a32cd" stroke="#9a32cd" points="615.13,-46.77 605.75,-51.7 616.16,-53.69 615.13,-46.77"/>
<text text-anchor="middle" x="714.5" y="-81.5" font-family="Helvetica,sans-Serif" font-size="10.00"> embeddedRingsContract</text>
</g>
<!-- Node27 -->
<g id="node27" class="node">
<title>Node27</title>
<g id="a_node27"><a xlink:title=" ">
<polygon fill="white" stroke="black" points="466,-13 466,-32 617,-32 617,-13 466,-13"/>
<text text-anchor="middle" x="541.5" y="-20" font-family="Helvetica,sans-Serif" font-size="10.00">List&lt; denoptim.graph.DGraph &gt;</text>
</a>
</g>
</g>
<!-- Node27&#45;&gt;Node7 -->
<g id="edge27" class="edge">
<title>Node27&#45;&gt;Node7</title>
<path fill="none" stroke="#9a32cd" stroke-dasharray="5,2" d="M585.55,-10.59C637.82,1.06 725.91,11.37 782,-32.5 831,-70.82 863.49,-273.37 871.86,-331.12"/>
<polygon fill="#9a32cd" stroke="#9a32cd" points="584.53,-7.24 575.6,-12.93 586.13,-14.05 584.53,-7.24"/>
<text text-anchor="middle" x="714.5" y="-35.5" font-family="Helvetica,sans-Serif" font-size="10.00"> fragmentationTmpls</text>
</g>
</g>
</svg>
        <g id="navigator" transform="translate(0 0)" fill="#404254">
                <rect fill="#f2f5e9" fill-opacity="0.5" stroke="#606060" stroke-width=".5" x="0" y="0" width="60" height="60"/>
                <use id="zoomplus" xlink:href="#zoomPlus" x="17" y="9" onmousedown="handleZoom(evt,'in')"/>
                <use id="zoomminus" xlink:href="#zoomMin" x="42" y="9" onmousedown="handleZoom(evt,'out')"/>
                <use id="reset" xlink:href="#resetDef" x="30" y="36" onmousedown="handleReset()"/>
                <g id="arrowUp" xlink:href="#dirArrow" transform="translate(30 24)" onmousedown="handlePan(0,-1)">
                  <use xlink:href="#rim" fill="#404040">
                        <set attributeName="fill" to="#808080" begin="arrowUp.mouseover" end="arrowUp.mouseout"/>
                  </use>
                  <path fill="none" stroke="white" stroke-width="1.5" d="M0,-3.0v7 M-2.5,-0.5L0,-3.0L2.5,-0.5"/>
                </g>
                <g id="arrowRight" xlink:href="#dirArrow" transform="rotate(90) translate(36 -43)" onmousedown="handlePan(1,0)">
                  <use xlink:href="#rim" fill="#404040">
                        <set attributeName="fill" to="#808080" begin="arrowRight.mouseover" end="arrowRight.mouseout"/>
                  </use>
                  <path fill="none" stroke="white" stroke-width="1.5" d="M0,-3.0v7 M-2.5,-0.5L0,-3.0L2.5,-0.5"/>
                </g>
                <g id="arrowDown" xlink:href="#dirArrow" transform="rotate(180) translate(-30 -48)" onmousedown="handlePan(0,1)">
                  <use xlink:href="#rim" fill="#404040">
                        <set attributeName="fill" to="#808080" begin="arrowDown.mouseover" end="arrowDown.mouseout"/>
                  </use>
                  <path fill="none" stroke="white" stroke-width="1.5" d="M0,-3.0v7 M-2.5,-0.5L0,-3.0L2.5,-0.5"/>
                </g>
                <g id="arrowLeft" xlink:href="#dirArrow" transform="rotate(270) translate(-36 17)" onmousedown="handlePan(-1,0)">
                  <use xlink:href="#rim" fill="#404040">
                        <set attributeName="fill" to="#808080" begin="arrowLeft.mouseover" end="arrowLeft.mouseout"/>
                  </use>
                  <path fill="none" stroke="white" stroke-width="1.5" d="M0,-3.0v7 M-2.5,-0.5L0,-3.0L2.5,-0.5"/>
                </g>
        </g>
        <svg viewBox="0 0 15 15" width="100%" height="30px" preserveAspectRatio="xMaxYMin meet">
         <g id="arrow_out" transform="scale(0.3 0.3)">
          <a xlink:href="classdenoptim_1_1fragmenter_1_1_conformer_extractor_task__coll__graph_org.svg" target="_base">
           <rect id="button" ry="5" rx="5" y="6" x="6" height="38" width="38"
                fill="#f2f5e9" fill-opacity="0.5" stroke="#606060" stroke-width="1.0"/>
           <path id="arrow"
             d="M 11.500037,31.436501 C 11.940474,20.09759 22.043105,11.32322 32.158766,21.979434 L 37.068811,17.246167 C 37.068811,17.246167 37.088388,32 37.088388,32 L 22.160133,31.978069 C 22.160133,31.978069 26.997745,27.140456 26.997745,27.140456 C 18.528582,18.264221 13.291696,25.230495 11.500037,31.436501 z"
             style="fill:#404040;"/>
          </a>
         </g>
        </svg>
</svg>
