<?xml version="1.0" encoding="UTF-8" standalone="no"?>
<!DOCTYPE svg PUBLIC "-//W3C//DTD SVG 1.1//EN"
 "http://www.w3.org/Graphics/SVG/1.1/DTD/svg11.dtd">
<!-- Generated by graphviz version 3.0.0 (20221109.1736)
 -->
<!-- Title: denoptim.gui.FragmentViewPanel.getAtomsSelectedFromJMol Pages: 1 -->
<svg width="376pt" height="78pt"
 viewBox="0.00 0.00 376.00 77.50" xmlns="http://www.w3.org/2000/svg" xmlns:xlink="http://www.w3.org/1999/xlink">
<g id="graph0" class="graph" transform="scale(1 1) rotate(0) translate(4 73.5)">
<title>denoptim.gui.FragmentViewPanel.getAtomsSelectedFromJMol</title>
<polygon fill="white" stroke="transparent" points="-4,4 -4,-73.5 372,-73.5 372,4 -4,4"/>
<!-- Node1 -->
<g id="node1" class="node">
<title>Node1</title>
<g id="a_node1"><a xlink:title="Identifies the atoms that are selected in the Jmol viewer.">
<polygon fill="#bfbfbf" stroke="black" points="0,-22.5 0,-52.5 167,-52.5 167,-22.5 0,-22.5"/>
<text text-anchor="start" x="8" y="-40.5" font-family="Helvetica,sans-Serif" font-size="10.00">denoptim.gui.FragmentView</text>
<text text-anchor="middle" x="83.5" y="-29.5" font-family="Helvetica,sans-Serif" font-size="10.00">Panel.getAtomsSelectedFromJMol</text>
</a>
</g>
</g>
<!-- Node2 -->
<g id="node2" class="node">
<title>Node2</title>
<g id="a_node2"><a xlink:href="classdenoptim_1_1graph_1_1_fragment.html#a66ef044fb958d43d820bd05c71a2bfb2" target="_top" xlink:title=" ">
<polygon fill="white" stroke="black" points="203,-50 203,-69 368,-69 368,-50 203,-50"/>
<text text-anchor="middle" x="285.5" y="-57" font-family="Helvetica,sans-Serif" font-size="10.00">denoptim.graph.Fragment.getAtom</text>
</a>
</g>
</g>
<!-- Node1&#45;&gt;Node2 -->
<g id="edge1" class="edge">
<title>Node1&#45;&gt;Node2</title>
<path fill="none" stroke="midnightblue" d="M167,-46.58C175.51,-47.51 184.19,-48.47 192.79,-49.41"/>
<polygon fill="midnightblue" stroke="midnightblue" points="192.51,-52.9 202.83,-50.52 193.28,-45.94 192.51,-52.9"/>
</g>
<!-- Node3 -->
<g id="node3" class="node">
<title>Node3</title>
<g id="a_node3"><a xlink:href="classdenoptim_1_1graph_1_1_fragment.html#abc17b26de8be2c51acd434f914c76b83" target="_top" xlink:title=" ">
<polygon fill="white" stroke="black" points="214.5,-0.5 214.5,-30.5 356.5,-30.5 356.5,-0.5 214.5,-0.5"/>
<text text-anchor="start" x="222.5" y="-18.5" font-family="Helvetica,sans-Serif" font-size="10.00">denoptim.graph.Fragment.get</text>
<text text-anchor="middle" x="285.5" y="-7.5" font-family="Helvetica,sans-Serif" font-size="10.00">AtomCount</text>
</a>
</g>
</g>
<!-- Node1&#45;&gt;Node3 -->
<g id="edge2" class="edge">
<title>Node1&#45;&gt;Node3</title>
<path fill="none" stroke="midnightblue" d="M167,-28.42C179.28,-27.07 191.91,-25.68 204.14,-24.34"/>
<polygon fill="midnightblue" stroke="midnightblue" points="204.74,-27.79 214.3,-23.22 203.98,-20.84 204.74,-27.79"/>
</g>
</g>
</svg>
