<?xml version="1.0" encoding="UTF-8" standalone="no"?>
<!DOCTYPE svg PUBLIC "-//W3C//DTD SVG 1.1//EN"
 "http://www.w3.org/Graphics/SVG/1.1/DTD/svg11.dtd">
<!-- Generated by graphviz version 3.0.0 (20221109.1736)
 -->
<!-- Title: denoptim.programs.RunTimeParameters.setParameters Pages: 1 -->
<svg width="648pt" height="774pt"
 viewBox="0.00 0.00 648.00 774.00" xmlns="http://www.w3.org/2000/svg" xmlns:xlink="http://www.w3.org/1999/xlink">
<g id="graph0" class="graph" transform="scale(1 1) rotate(0) translate(4 770)">
<title>denoptim.programs.RunTimeParameters.setParameters</title>
<polygon fill="white" stroke="transparent" points="-4,4 -4,-770 644,-770 644,4 -4,4"/>
<!-- Node1 -->
<g id="node1" class="node">
<title>Node1</title>
<g id="a_node1"><a xlink:title=" ">
<polygon fill="#bfbfbf" stroke="black" points="500,-171.5 500,-201.5 640,-201.5 640,-171.5 500,-171.5"/>
<text text-anchor="start" x="508" y="-189.5" font-family="Helvetica,sans-Serif" font-size="10.00">denoptim.programs.RunTime</text>
<text text-anchor="middle" x="570" y="-178.5" font-family="Helvetica,sans-Serif" font-size="10.00">Parameters.setParameters</text>
</a>
</g>
</g>
<!-- Node2 -->
<g id="node2" class="node">
<title>Node2</title>
<g id="a_node2"><a xlink:href="classdenoptim_1_1ga_1_1_population_test.html#a2ef43616462d84e8adced384182ca92c" target="_top" xlink:title=" ">
<polygon fill="white" stroke="black" points="265.5,-496 265.5,-515 436.5,-515 436.5,-496 265.5,-496"/>
<text text-anchor="middle" x="351" y="-503" font-family="Helvetica,sans-Serif" font-size="10.00">denoptim.ga.PopulationTest.prepare</text>
</a>
</g>
</g>
<!-- Node1&#45;&gt;Node2 -->
<g id="edge1" class="edge">
<title>Node1&#45;&gt;Node2</title>
<path fill="none" stroke="midnightblue" d="M552.84,-210.25C508.77,-275.04 387.8,-452.87 358.47,-495.99"/>
<polygon fill="midnightblue" stroke="midnightblue" points="555.8,-212.12 558.53,-201.89 550.02,-208.19 555.8,-212.12"/>
</g>
<!-- Node13 -->
<g id="node13" class="node">
<title>Node13</title>
<g id="a_node13"><a xlink:href="classdenoptim_1_1programs_1_1genetweeker_1_1_gene_ops_runner_parameters.html#a98b6c6b389e456945a968edc31086451" target="_top" xlink:title="Processes all parameters and initialize related objects.">
<polygon fill="white" stroke="black" points="238,-294.5 238,-324.5 464,-324.5 464,-294.5 238,-294.5"/>
<text text-anchor="start" x="246" y="-312.5" font-family="Helvetica,sans-Serif" font-size="10.00">denoptim.programs.genetweeker.</text>
<text text-anchor="middle" x="351" y="-301.5" font-family="Helvetica,sans-Serif" font-size="10.00">GeneOpsRunnerParameters.processParameters</text>
</a>
</g>
</g>
<!-- Node1&#45;&gt;Node13 -->
<g id="edge12" class="edge">
<title>Node1&#45;&gt;Node13</title>
<path fill="none" stroke="midnightblue" d="M550.78,-209.52C531.61,-232.13 499.36,-265.85 464,-284.5 456.6,-288.4 448.61,-291.7 440.43,-294.48"/>
<polygon fill="midnightblue" stroke="midnightblue" points="553.54,-211.68 557.23,-201.75 548.15,-207.21 553.54,-211.68"/>
</g>
<!-- Node15 -->
<g id="node15" class="node">
<title>Node15</title>
<g id="a_node15"><a xlink:href="classdenoptim_1_1programs_1_1genetweeker_1_1_gene_ops_runner.html#adb60b4cb2cda6a912a831974c5303df4" target="_top" xlink:title=" ">
<polygon fill="white" stroke="black" points="271.5,-245.5 271.5,-275.5 430.5,-275.5 430.5,-245.5 271.5,-245.5"/>
<text text-anchor="start" x="279.5" y="-263.5" font-family="Helvetica,sans-Serif" font-size="10.00">denoptim.programs.genetweeker.</text>
<text text-anchor="middle" x="351" y="-252.5" font-family="Helvetica,sans-Serif" font-size="10.00">GeneOpsRunner.runMutation</text>
</a>
</g>
</g>
<!-- Node1&#45;&gt;Node15 -->
<g id="edge14" class="edge">
<title>Node1&#45;&gt;Node15</title>
<path fill="none" stroke="midnightblue" d="M532.19,-206.08C512.41,-215.98 487.34,-227.55 464,-235.5 453.06,-239.22 441.33,-242.54 429.73,-245.45"/>
<polygon fill="midnightblue" stroke="midnightblue" points="533.84,-209.17 541.17,-201.52 530.67,-202.93 533.84,-209.17"/>
</g>
<!-- Node16 -->
<g id="node16" class="node">
<title>Node16</title>
<g id="a_node16"><a xlink:href="classdenoptim_1_1ga_1_1_graph_operations_test.html#af86b79061d15a4d2e3d7ccdf0d758f44" target="_top" xlink:title=" ">
<polygon fill="white" stroke="black" points="278.5,-196.5 278.5,-226.5 423.5,-226.5 423.5,-196.5 278.5,-196.5"/>
<text text-anchor="start" x="286.5" y="-214.5" font-family="Helvetica,sans-Serif" font-size="10.00">denoptim.ga.GraphOperations</text>
<text text-anchor="middle" x="351" y="-203.5" font-family="Helvetica,sans-Serif" font-size="10.00">Test.testAddRing</text>
</a>
</g>
</g>
<!-- Node1&#45;&gt;Node16 -->
<g id="edge16" class="edge">
<title>Node1&#45;&gt;Node16</title>
<path fill="none" stroke="midnightblue" d="M489.62,-195.65C468.01,-198.14 444.73,-200.82 423.58,-203.25"/>
<polygon fill="midnightblue" stroke="midnightblue" points="490.21,-199.1 499.74,-194.48 489.41,-192.15 490.21,-199.1"/>
</g>
<!-- Node17 -->
<g id="node17" class="node">
<title>Node17</title>
<g id="a_node17"><a xlink:href="classdenoptim_1_1ga_1_1_e_a_utils_test.html#a9aa17c44bb5d48c83e350c36cd68af68" target="_top" xlink:title=" ">
<polygon fill="white" stroke="black" points="279.5,-147.5 279.5,-177.5 422.5,-177.5 422.5,-147.5 279.5,-147.5"/>
<text text-anchor="start" x="287.5" y="-165.5" font-family="Helvetica,sans-Serif" font-size="10.00">denoptim.ga.EAUtilsTest.test</text>
<text text-anchor="middle" x="351" y="-154.5" font-family="Helvetica,sans-Serif" font-size="10.00">AvoidRedundantXOver</text>
</a>
</g>
</g>
<!-- Node1&#45;&gt;Node17 -->
<g id="edge17" class="edge">
<title>Node1&#45;&gt;Node17</title>
<path fill="none" stroke="midnightblue" d="M489.51,-177.71C467.68,-175.29 444.15,-172.69 422.84,-170.33"/>
<polygon fill="midnightblue" stroke="midnightblue" points="489.42,-181.22 499.74,-178.84 490.19,-174.26 489.42,-181.22"/>
</g>
<!-- Node18 -->
<g id="node18" class="node">
<title>Node18</title>
<g id="a_node18"><a xlink:href="classdenoptim_1_1ga_1_1_e_a_utils_test.html#ab7a37d3340d35ab586332ce2122e7bb0" target="_top" xlink:title=" ">
<polygon fill="white" stroke="black" points="269.5,-98.5 269.5,-128.5 432.5,-128.5 432.5,-98.5 269.5,-98.5"/>
<text text-anchor="start" x="277.5" y="-116.5" font-family="Helvetica,sans-Serif" font-size="10.00">denoptim.ga.EAUtilsTest.test</text>
<text text-anchor="middle" x="351" y="-105.5" font-family="Helvetica,sans-Serif" font-size="10.00">BuildGraphFromTemplateScaffold</text>
</a>
</g>
</g>
<!-- Node1&#45;&gt;Node18 -->
<g id="edge18" class="edge">
<title>Node1&#45;&gt;Node18</title>
<path fill="none" stroke="midnightblue" d="M532.22,-166.84C512.44,-156.92 487.38,-145.35 464,-137.5 454.01,-134.15 443.35,-131.15 432.74,-128.51"/>
<polygon fill="midnightblue" stroke="midnightblue" points="530.69,-169.99 541.19,-171.41 533.87,-163.75 530.69,-169.99"/>
</g>
<!-- Node19 -->
<g id="node19" class="node">
<title>Node19</title>
<g id="a_node19"><a xlink:href="classdenoptim_1_1ga_1_1_graph_operations_test.html#a2b8d6293663bce9a9da1d35efe31911b" target="_top" xlink:title=" ">
<polygon fill="white" stroke="black" points="278.5,-49.5 278.5,-79.5 423.5,-79.5 423.5,-49.5 278.5,-49.5"/>
<text text-anchor="start" x="286.5" y="-67.5" font-family="Helvetica,sans-Serif" font-size="10.00">denoptim.ga.GraphOperations</text>
<text text-anchor="middle" x="351" y="-56.5" font-family="Helvetica,sans-Serif" font-size="10.00">Test.testExtendGraph</text>
</a>
</g>
</g>
<!-- Node1&#45;&gt;Node19 -->
<g id="edge19" class="edge">
<title>Node1&#45;&gt;Node19</title>
<path fill="none" stroke="midnightblue" d="M550.81,-163.41C531.67,-140.76 499.44,-107 464,-88.5 451.57,-82.01 437.49,-77.28 423.62,-73.82"/>
<polygon fill="midnightblue" stroke="midnightblue" points="548.18,-165.73 557.25,-171.21 553.58,-161.27 548.18,-165.73"/>
</g>
<!-- Node20 -->
<g id="node20" class="node">
<title>Node20</title>
<g id="a_node20"><a xlink:href="classdenoptim_1_1io_1_1_denoptim_i_o_test.html#af5c2f9114881ebde82a83f922c0c23fe" target="_top" xlink:title=" ">
<polygon fill="white" stroke="black" points="272,-0.5 272,-30.5 430,-30.5 430,-0.5 272,-0.5"/>
<text text-anchor="start" x="280" y="-18.5" font-family="Helvetica,sans-Serif" font-size="10.00">denoptim.io.DenoptimIOTest.test</text>
<text text-anchor="middle" x="351" y="-7.5" font-family="Helvetica,sans-Serif" font-size="10.00">ReadGenerationFromSummary</text>
</a>
</g>
</g>
<!-- Node1&#45;&gt;Node20 -->
<g id="edge20" class="edge">
<title>Node1&#45;&gt;Node20</title>
<path fill="none" stroke="midnightblue" d="M558.36,-161.69C542.73,-128.39 510.33,-69.91 464,-39.5 453.78,-32.79 442,-27.92 430.01,-24.39"/>
<polygon fill="midnightblue" stroke="midnightblue" points="555.34,-163.5 562.66,-171.15 561.71,-160.6 555.34,-163.5"/>
</g>
<!-- Node3 -->
<g id="node3" class="node">
<title>Node3</title>
<g id="a_node3"><a xlink:href="classdenoptim_1_1ga_1_1_e_a_utils_test.html#ae0baa3684be9b8a4af611083649a9e6d" target="_top" xlink:title=" ">
<polygon fill="white" stroke="black" points="2.5,-735.5 2.5,-765.5 199.5,-765.5 199.5,-735.5 2.5,-735.5"/>
<text text-anchor="start" x="10.5" y="-753.5" font-family="Helvetica,sans-Serif" font-size="10.00">denoptim.ga.EAUtilsTest.test</text>
<text text-anchor="middle" x="101" y="-742.5" font-family="Helvetica,sans-Serif" font-size="10.00">BuildByXOver_Embedded_FixedStructure</text>
</a>
</g>
</g>
<!-- Node2&#45;&gt;Node3 -->
<g id="edge2" class="edge">
<title>Node2&#45;&gt;Node3</title>
<path fill="none" stroke="midnightblue" d="M342.85,-524.72C325.72,-568.03 277.98,-673.61 202,-726.5 197.02,-729.97 191.6,-732.94 185.94,-735.48"/>
<polygon fill="midnightblue" stroke="midnightblue" points="346.14,-525.93 346.47,-515.34 339.61,-523.41 346.14,-525.93"/>
</g>
<!-- Node4 -->
<g id="node4" class="node">
<title>Node4</title>
<g id="a_node4"><a xlink:href="classdenoptim_1_1ga_1_1_e_a_utils_test.html#ad4662f1a3a989020f953f7034d7c1beb" target="_top" xlink:title="NB: the graphs from methods getPairOfTestGraphsB() and getPairOfTestGraphsBxo() and &#160;&#160;getPairOfTestGr...">
<polygon fill="white" stroke="black" points="24.5,-686.5 24.5,-716.5 177.5,-716.5 177.5,-686.5 24.5,-686.5"/>
<text text-anchor="start" x="32.5" y="-704.5" font-family="Helvetica,sans-Serif" font-size="10.00">denoptim.ga.EAUtilsTest.test</text>
<text text-anchor="middle" x="101" y="-693.5" font-family="Helvetica,sans-Serif" font-size="10.00">BuildByXOver_Embedded_Free</text>
</a>
</g>
</g>
<!-- Node2&#45;&gt;Node4 -->
<g id="edge3" class="edge">
<title>Node2&#45;&gt;Node4</title>
<path fill="none" stroke="midnightblue" d="M339.57,-523.99C318.48,-559.62 267.16,-637.74 202,-677.5 194.46,-682.1 186.09,-685.82 177.5,-688.83"/>
<polygon fill="midnightblue" stroke="midnightblue" points="342.72,-525.55 344.7,-515.14 336.66,-522.04 342.72,-525.55"/>
</g>
<!-- Node5 -->
<g id="node5" class="node">
<title>Node5</title>
<g id="a_node5"><a xlink:href="classdenoptim_1_1ga_1_1_e_a_utils_test.html#af8cfc323dd7d12090ddf4b836a3349cf" target="_top" xlink:title="NB: the graphs from methods getPairOfTestGraphsB() and getPairOfTestGraphsBxo() and &#160;&#160;getPairOfTestGr...">
<polygon fill="white" stroke="black" points="0,-637.5 0,-667.5 202,-667.5 202,-637.5 0,-637.5"/>
<text text-anchor="start" x="8" y="-655.5" font-family="Helvetica,sans-Serif" font-size="10.00">denoptim.ga.EAUtilsTest.test</text>
<text text-anchor="middle" x="101" y="-644.5" font-family="Helvetica,sans-Serif" font-size="10.00">BuildByXOver_Embedded_FreeBackwards</text>
</a>
</g>
</g>
<!-- Node2&#45;&gt;Node5 -->
<g id="edge4" class="edge">
<title>Node2&#45;&gt;Node5</title>
<path fill="none" stroke="midnightblue" d="M334.49,-522.69C309.35,-549.49 256.95,-600.97 202,-628.5 195.14,-631.94 187.76,-634.9 180.23,-637.45"/>
<polygon fill="midnightblue" stroke="midnightblue" points="337.18,-524.95 341.39,-515.23 332.04,-520.2 337.18,-524.95"/>
</g>
<!-- Node6 -->
<g id="node6" class="node">
<title>Node6</title>
<g id="a_node6"><a xlink:href="classdenoptim_1_1ga_1_1_e_a_utils_test.html#a52682a0cc73283eafd36d345b6929ea8" target="_top" xlink:title=" ">
<polygon fill="white" stroke="black" points="29.5,-588.5 29.5,-618.5 172.5,-618.5 172.5,-588.5 29.5,-588.5"/>
<text text-anchor="start" x="37.5" y="-606.5" font-family="Helvetica,sans-Serif" font-size="10.00">denoptim.ga.EAUtilsTest.test</text>
<text text-anchor="middle" x="101" y="-595.5" font-family="Helvetica,sans-Serif" font-size="10.00">BuildByXOver_SubGraph</text>
</a>
</g>
</g>
<!-- Node2&#45;&gt;Node6 -->
<g id="edge5" class="edge">
<title>Node2&#45;&gt;Node6</title>
<path fill="none" stroke="midnightblue" d="M324.71,-520.39C295.86,-536.83 246.86,-563.15 202,-579.5 192.61,-582.92 182.54,-586 172.54,-588.71"/>
<polygon fill="midnightblue" stroke="midnightblue" points="326.77,-523.24 333.68,-515.22 323.27,-517.18 326.77,-523.24"/>
</g>
<!-- Node7 -->
<g id="node7" class="node">
<title>Node7</title>
<g id="a_node7"><a xlink:href="classdenoptim_1_1ga_1_1_population_test.html#a5db0672054a9fc1dbc923310732fdb3a" target="_top" xlink:title=" ">
<polygon fill="white" stroke="black" points="23.5,-539.5 23.5,-569.5 178.5,-569.5 178.5,-539.5 23.5,-539.5"/>
<text text-anchor="start" x="31.5" y="-557.5" font-family="Helvetica,sans-Serif" font-size="10.00">denoptim.ga.PopulationTest.test</text>
<text text-anchor="middle" x="101" y="-546.5" font-family="Helvetica,sans-Serif" font-size="10.00">Clone</text>
</a>
</g>
</g>
<!-- Node2&#45;&gt;Node7 -->
<g id="edge6" class="edge">
<title>Node2&#45;&gt;Node7</title>
<path fill="none" stroke="midnightblue" d="M291.69,-517.02C257.84,-523.71 214.8,-532.21 178.28,-539.43"/>
<polygon fill="midnightblue" stroke="midnightblue" points="292.76,-520.38 301.89,-515.01 291.4,-513.51 292.76,-520.38"/>
</g>
<!-- Node8 -->
<g id="node8" class="node">
<title>Node8</title>
<g id="a_node8"><a xlink:href="classdenoptim_1_1utils_1_1_graph_conversion_tool_test.html#a9cf6fcaba3bac28b528db1eb73c21c62" target="_top" xlink:title=" ">
<polygon fill="white" stroke="black" points="2.5,-490.5 2.5,-520.5 199.5,-520.5 199.5,-490.5 2.5,-490.5"/>
<text text-anchor="start" x="10.5" y="-508.5" font-family="Helvetica,sans-Serif" font-size="10.00">denoptim.utils.GraphConversion</text>
<text text-anchor="middle" x="101" y="-497.5" font-family="Helvetica,sans-Serif" font-size="10.00">ToolTest.testGetJGraphKernelFromGraph</text>
</a>
</g>
</g>
<!-- Node2&#45;&gt;Node8 -->
<g id="edge7" class="edge">
<title>Node2&#45;&gt;Node8</title>
<path fill="none" stroke="midnightblue" d="M255.3,-505.5C237.03,-505.5 217.86,-505.5 199.5,-505.5"/>
<polygon fill="midnightblue" stroke="midnightblue" points="255.35,-509 265.35,-505.5 255.35,-502 255.35,-509"/>
</g>
<!-- Node9 -->
<g id="node9" class="node">
<title>Node9</title>
<g id="a_node9"><a xlink:href="classdenoptim_1_1ga_1_1_population_test.html#aa40d0bedbf2ca22b34267aa8491d7ec3" target="_top" xlink:title=" ">
<polygon fill="white" stroke="black" points="23.5,-441.5 23.5,-471.5 178.5,-471.5 178.5,-441.5 23.5,-441.5"/>
<text text-anchor="start" x="31.5" y="-459.5" font-family="Helvetica,sans-Serif" font-size="10.00">denoptim.ga.PopulationTest.test</text>
<text text-anchor="middle" x="101" y="-448.5" font-family="Helvetica,sans-Serif" font-size="10.00">GetMinMax</text>
</a>
</g>
</g>
<!-- Node2&#45;&gt;Node9 -->
<g id="edge8" class="edge">
<title>Node2&#45;&gt;Node9</title>
<path fill="none" stroke="midnightblue" d="M291.69,-493.98C257.84,-487.29 214.8,-478.79 178.28,-471.57"/>
<polygon fill="midnightblue" stroke="midnightblue" points="291.4,-497.49 301.89,-495.99 292.76,-490.62 291.4,-497.49"/>
</g>
<!-- Node10 -->
<g id="node10" class="node">
<title>Node10</title>
<g id="a_node10"><a xlink:href="classdenoptim_1_1ga_1_1_population_test.html#a6725ae8dc980dd79466800b489fc9620" target="_top" xlink:title=" ">
<polygon fill="white" stroke="black" points="23.5,-392.5 23.5,-422.5 178.5,-422.5 178.5,-392.5 23.5,-392.5"/>
<text text-anchor="start" x="31.5" y="-410.5" font-family="Helvetica,sans-Serif" font-size="10.00">denoptim.ga.PopulationTest.test</text>
<text text-anchor="middle" x="101" y="-399.5" font-family="Helvetica,sans-Serif" font-size="10.00">IsInPercentile</text>
</a>
</g>
</g>
<!-- Node2&#45;&gt;Node10 -->
<g id="edge9" class="edge">
<title>Node2&#45;&gt;Node10</title>
<path fill="none" stroke="midnightblue" d="M324.65,-490.91C295.75,-474.78 246.71,-448.9 202,-432.5 191.92,-428.8 181.07,-425.46 170.37,-422.52"/>
<polygon fill="midnightblue" stroke="midnightblue" points="323.21,-494.12 333.64,-495.98 326.65,-488.02 323.21,-494.12"/>
</g>
<!-- Node11 -->
<g id="node11" class="node">
<title>Node11</title>
<g id="a_node11"><a xlink:href="classdenoptim_1_1ga_1_1_population_test.html#a94541e70343daaeaf733289dab8f2dee" target="_top" xlink:title=" ">
<polygon fill="white" stroke="black" points="23.5,-343.5 23.5,-373.5 178.5,-373.5 178.5,-343.5 23.5,-343.5"/>
<text text-anchor="start" x="31.5" y="-361.5" font-family="Helvetica,sans-Serif" font-size="10.00">denoptim.ga.PopulationTest.test</text>
<text text-anchor="middle" x="101" y="-350.5" font-family="Helvetica,sans-Serif" font-size="10.00">PopulationVersion</text>
</a>
</g>
</g>
<!-- Node2&#45;&gt;Node11 -->
<g id="edge10" class="edge">
<title>Node2&#45;&gt;Node11</title>
<path fill="none" stroke="midnightblue" d="M334.43,-488.51C309.21,-462.03 256.69,-411.09 202,-383.5 194.33,-379.63 186.02,-376.33 177.58,-373.53"/>
<polygon fill="midnightblue" stroke="midnightblue" points="331.96,-490.99 341.36,-495.89 337.07,-486.2 331.96,-490.99"/>
</g>
<!-- Node12 -->
<g id="node12" class="node">
<title>Node12</title>
<g id="a_node12"><a xlink:href="classdenoptim_1_1ga_1_1_population_test.html#a278212ebff2501b7071d342f9a027599" target="_top" xlink:title=" ">
<polygon fill="white" stroke="black" points="23.5,-294.5 23.5,-324.5 178.5,-324.5 178.5,-294.5 23.5,-294.5"/>
<text text-anchor="start" x="31.5" y="-312.5" font-family="Helvetica,sans-Serif" font-size="10.00">denoptim.ga.PopulationTest.test</text>
<text text-anchor="middle" x="101" y="-301.5" font-family="Helvetica,sans-Serif" font-size="10.00">XOverCompatibility</text>
</a>
</g>
</g>
<!-- Node2&#45;&gt;Node12 -->
<g id="edge11" class="edge">
<title>Node2&#45;&gt;Node12</title>
<path fill="none" stroke="midnightblue" d="M339.51,-487.17C318.31,-451.85 266.82,-374.34 202,-334.5 194.76,-330.05 186.76,-326.39 178.54,-323.38"/>
<polygon fill="midnightblue" stroke="midnightblue" points="336.58,-489.1 344.67,-495.95 342.62,-485.55 336.58,-489.1"/>
</g>
<!-- Node14 -->
<g id="node14" class="node">
<title>Node14</title>
<g id="a_node14"><a xlink:href="classdenoptim_1_1programs_1_1genetweeker_1_1_gene_ops_runner.html#a3c2407eb1204a7b25600d3d347d98447" target="_top" xlink:title=" ">
<polygon fill="white" stroke="black" points="21.5,-245.5 21.5,-275.5 180.5,-275.5 180.5,-245.5 21.5,-245.5"/>
<text text-anchor="start" x="29.5" y="-263.5" font-family="Helvetica,sans-Serif" font-size="10.00">denoptim.programs.genetweeker.</text>
<text text-anchor="middle" x="101" y="-252.5" font-family="Helvetica,sans-Serif" font-size="10.00">GeneOpsRunner.runProgram</text>
</a>
</g>
</g>
<!-- Node13&#45;&gt;Node14 -->
<g id="edge13" class="edge">
<title>Node13&#45;&gt;Node14</title>
<path fill="none" stroke="midnightblue" d="M263.76,-292.46C235.83,-286.94 205.07,-280.87 177.95,-275.51"/>
<polygon fill="midnightblue" stroke="midnightblue" points="263.42,-295.96 273.91,-294.47 264.77,-289.09 263.42,-295.96"/>
</g>
<!-- Node15&#45;&gt;Node14 -->
<g id="edge15" class="edge">
<title>Node15&#45;&gt;Node14</title>
<path fill="none" stroke="midnightblue" d="M260.87,-260.5C234.64,-260.5 206.13,-260.5 180.6,-260.5"/>
<polygon fill="midnightblue" stroke="midnightblue" points="261.19,-264 271.19,-260.5 261.19,-257 261.19,-264"/>
</g>
</g>
</svg>
