<?xml version="1.0" encoding="UTF-8" standalone="no"?>
<!DOCTYPE svg PUBLIC "-//W3C//DTD SVG 1.1//EN"
 "http://www.w3.org/Graphics/SVG/1.1/DTD/svg11.dtd">
<!-- Generated by graphviz version 3.0.0 (20221109.1736)
 -->
<!-- Title: denoptim.utils.StatUtils.var Pages: 1 -->
<svg width="494pt" height="47pt"
 viewBox="0.00 0.00 494.00 47.00" xmlns="http://www.w3.org/2000/svg" xmlns:xlink="http://www.w3.org/1999/xlink">
<g id="graph0" class="graph" transform="scale(1 1) rotate(0) translate(4 43)">
<title>denoptim.utils.StatUtils.var</title>
<polygon fill="white" stroke="transparent" points="-4,4 -4,-43 490,-43 490,4 -4,4"/>
<!-- Node1 -->
<g id="node1" class="node">
<title>Node1</title>
<g id="a_node1"><a xlink:title="Computes the variance of the available values.">
<polygon fill="#bfbfbf" stroke="black" points="0,-0.5 0,-19.5 133,-19.5 133,-0.5 0,-0.5"/>
<text text-anchor="middle" x="66.5" y="-7.5" font-family="Helvetica,sans-Serif" font-size="10.00">denoptim.utils.StatUtils.var</text>
</a>
</g>
</g>
<!-- Node2 -->
<g id="node2" class="node">
<title>Node2</title>
<g id="a_node2"><a xlink:href="classdenoptim_1_1utils_1_1_stat_utils.html#a12ae258bebe1f3568dabdd606edd3d56" target="_top" xlink:title="Returns the mean number in the numbers list.">
<polygon fill="white" stroke="black" points="169,-19.5 169,-38.5 312,-38.5 312,-19.5 169,-19.5"/>
<text text-anchor="middle" x="240.5" y="-26.5" font-family="Helvetica,sans-Serif" font-size="10.00">denoptim.utils.StatUtils.mean</text>
</a>
</g>
</g>
<!-- Node1&#45;&gt;Node2 -->
<g id="edge1" class="edge">
<title>Node1&#45;&gt;Node2</title>
<path fill="none" stroke="midnightblue" d="M133.02,-17.24C141.41,-18.16 150.08,-19.12 158.68,-20.07"/>
<polygon fill="midnightblue" stroke="midnightblue" points="158.4,-23.56 168.72,-21.18 159.17,-16.6 158.4,-23.56"/>
</g>
<!-- Node3 -->
<g id="node3" class="node">
<title>Node3</title>
<g id="a_node3"><a xlink:href="classdenoptim_1_1utils_1_1_stat_utils.html#a181673167433cb8ad256d0295d76c29f" target="_top" xlink:title="Returns the sum number in the numbers list.">
<polygon fill="white" stroke="black" points="348,-0.5 348,-19.5 486,-19.5 486,-0.5 348,-0.5"/>
<text text-anchor="middle" x="417" y="-7.5" font-family="Helvetica,sans-Serif" font-size="10.00">denoptim.utils.StatUtils.sum</text>
</a>
</g>
</g>
<!-- Node1&#45;&gt;Node3 -->
<g id="edge4" class="edge">
<title>Node1&#45;&gt;Node3</title>
<path fill="none" stroke="midnightblue" d="M133.05,-10C191.14,-10 276.06,-10 337.7,-10"/>
<polygon fill="midnightblue" stroke="midnightblue" points="337.77,-13.5 347.77,-10 337.77,-6.5 337.77,-13.5"/>
</g>
<!-- Node2&#45;&gt;Node3 -->
<g id="edge2" class="edge">
<title>Node2&#45;&gt;Node3</title>
<path fill="none" stroke="midnightblue" d="M312.22,-21.3C320.55,-20.39 329.09,-19.46 337.52,-18.55"/>
<polygon fill="midnightblue" stroke="midnightblue" points="338.16,-22 347.72,-17.43 337.4,-15.04 338.16,-22"/>
</g>
<!-- Node3&#45;&gt;Node3 -->
<g id="edge3" class="edge">
<title>Node3&#45;&gt;Node3</title>
<path fill="none" stroke="midnightblue" d="M389.87,-19.76C376.68,-28.57 385.72,-38 417,-38 438.51,-38 449.5,-33.54 449.98,-27.89"/>
<polygon fill="midnightblue" stroke="midnightblue" points="452.81,-25.83 444.13,-19.76 447.13,-29.92 452.81,-25.83"/>
</g>
</g>
</svg>
