<?xml version="1.0" encoding="UTF-8" standalone="no"?>
<!DOCTYPE svg PUBLIC "-//W3C//DTD SVG 1.1//EN"
 "http://www.w3.org/Graphics/SVG/1.1/DTD/svg11.dtd">
<!-- Generated by graphviz version 3.0.0 (20221109.1736)
 -->
<!-- Title: denoptim.graph.Fragment.isIsomorphicTo Pages: 1 -->
<svg width="929pt" height="183pt"
 viewBox="0.00 0.00 929.00 183.00" xmlns="http://www.w3.org/2000/svg" xmlns:xlink="http://www.w3.org/1999/xlink">
<g id="graph0" class="graph" transform="scale(1 1) rotate(0) translate(4 179)">
<title>denoptim.graph.Fragment.isIsomorphicTo</title>
<polygon fill="white" stroke="transparent" points="-4,4 -4,-179 925,-179 925,4 -4,4"/>
<!-- Node1 -->
<g id="node1" class="node">
<title>Node1</title>
<g id="a_node1"><a xlink:title="Checks for isomorphism of the graph representation of this and another fragment.">
<polygon fill="#bfbfbf" stroke="black" points="785,-49.5 785,-79.5 921,-79.5 921,-49.5 785,-49.5"/>
<text text-anchor="start" x="793" y="-67.5" font-family="Helvetica,sans-Serif" font-size="10.00">denoptim.graph.Fragment.is</text>
<text text-anchor="middle" x="853" y="-56.5" font-family="Helvetica,sans-Serif" font-size="10.00">IsomorphicTo</text>
</a>
</g>
</g>
<!-- Node2 -->
<g id="node2" class="node">
<title>Node2</title>
<g id="a_node2"><a xlink:href="classdenoptim_1_1graph_1_1_d_graph.html#ad38e8849839cb63835e727530ca124d9" target="_top" xlink:title="Checks if the Vertexs that are attached to two given AttachmentPoints apA and apB satisfy these condi...">
<polygon fill="white" stroke="black" points="596.5,-98.5 596.5,-128.5 737.5,-128.5 737.5,-98.5 596.5,-98.5"/>
<text text-anchor="start" x="604.5" y="-116.5" font-family="Helvetica,sans-Serif" font-size="10.00">denoptim.graph.DGraph.are</text>
<text text-anchor="middle" x="667" y="-105.5" font-family="Helvetica,sans-Serif" font-size="10.00">ApsUsedBySymmetricUsers</text>
</a>
</g>
</g>
<!-- Node1&#45;&gt;Node2 -->
<g id="edge1" class="edge">
<title>Node1&#45;&gt;Node2</title>
<path fill="none" stroke="midnightblue" d="M785.82,-82.12C765.69,-87.48 743.77,-93.32 724.35,-98.49"/>
<polygon fill="midnightblue" stroke="midnightblue" points="786.78,-85.49 795.54,-79.53 784.98,-78.73 786.78,-85.49"/>
</g>
<!-- Node8 -->
<g id="node8" class="node">
<title>Node8</title>
<g id="a_node8"><a xlink:href="classdenoptim_1_1graph_1_1_fragment_test.html#aa17f42b21847b022c3d7a87876e17717" target="_top" xlink:title=" ">
<polygon fill="white" stroke="black" points="585,-49.5 585,-79.5 749,-79.5 749,-49.5 585,-49.5"/>
<text text-anchor="start" x="593" y="-67.5" font-family="Helvetica,sans-Serif" font-size="10.00">denoptim.graph.FragmentTest.test</text>
<text text-anchor="middle" x="667" y="-56.5" font-family="Helvetica,sans-Serif" font-size="10.00">IsomorphicInLinear</text>
</a>
</g>
</g>
<!-- Node1&#45;&gt;Node8 -->
<g id="edge8" class="edge">
<title>Node1&#45;&gt;Node8</title>
<path fill="none" stroke="midnightblue" d="M774.61,-64.5C766.18,-64.5 757.58,-64.5 749.1,-64.5"/>
<polygon fill="midnightblue" stroke="midnightblue" points="774.79,-68 784.79,-64.5 774.79,-61 774.79,-68"/>
</g>
<!-- Node9 -->
<g id="node9" class="node">
<title>Node9</title>
<g id="a_node9"><a xlink:href="classdenoptim_1_1graph_1_1_fragment_test.html#af49cc0e35c38f683bfc3d332210d1124" target="_top" xlink:title=" ">
<polygon fill="white" stroke="black" points="585,-0.5 585,-30.5 749,-30.5 749,-0.5 585,-0.5"/>
<text text-anchor="start" x="593" y="-18.5" font-family="Helvetica,sans-Serif" font-size="10.00">denoptim.graph.FragmentTest.test</text>
<text text-anchor="middle" x="667" y="-7.5" font-family="Helvetica,sans-Serif" font-size="10.00">IsomorphicTo</text>
</a>
</g>
</g>
<!-- Node1&#45;&gt;Node9 -->
<g id="edge9" class="edge">
<title>Node1&#45;&gt;Node9</title>
<path fill="none" stroke="midnightblue" d="M785.82,-46.88C765.69,-41.52 743.77,-35.68 724.35,-30.51"/>
<polygon fill="midnightblue" stroke="midnightblue" points="784.98,-50.27 795.54,-49.47 786.78,-43.51 784.98,-50.27"/>
</g>
<!-- Node3 -->
<g id="node3" class="node">
<title>Node3</title>
<g id="a_node3"><a xlink:href="classdenoptim_1_1graph_1_1_d_graph.html#aff06be9fc2508e591352e7ae46260721" target="_top" xlink:title="Tries to determine the set of symmetric vertices in this graph based on finding compatible Vertexes t...">
<polygon fill="white" stroke="black" points="203.5,-120.5 203.5,-150.5 350.5,-150.5 350.5,-120.5 203.5,-120.5"/>
<text text-anchor="start" x="211.5" y="-138.5" font-family="Helvetica,sans-Serif" font-size="10.00">denoptim.graph.DGraph.detect</text>
<text text-anchor="middle" x="277" y="-127.5" font-family="Helvetica,sans-Serif" font-size="10.00">SymVertexSets</text>
</a>
</g>
</g>
<!-- Node2&#45;&gt;Node3 -->
<g id="edge2" class="edge">
<title>Node2&#45;&gt;Node3</title>
<path fill="none" stroke="midnightblue" d="M586.2,-118.03C516.95,-121.95 417.57,-127.59 350.54,-131.39"/>
<polygon fill="midnightblue" stroke="midnightblue" points="586.4,-121.52 596.19,-117.46 586,-114.53 586.4,-121.52"/>
</g>
<!-- Node6 -->
<g id="node6" class="node">
<title>Node6</title>
<g id="a_node6"><a xlink:href="classdenoptim_1_1graph_1_1_d_graph.html#aa46fb7d3a38e4c4401723a75f7c8d764" target="_top" xlink:title=" ">
<polygon fill="white" stroke="black" points="398,-76.5 398,-106.5 549,-106.5 549,-76.5 398,-76.5"/>
<text text-anchor="start" x="406" y="-94.5" font-family="Helvetica,sans-Serif" font-size="10.00">denoptim.graph.DGraph.find</text>
<text text-anchor="middle" x="473.5" y="-83.5" font-family="Helvetica,sans-Serif" font-size="10.00">SymmetrySetsOfChildVertexes</text>
</a>
</g>
</g>
<!-- Node2&#45;&gt;Node6 -->
<g id="edge5" class="edge">
<title>Node2&#45;&gt;Node6</title>
<path fill="none" stroke="midnightblue" d="M586.17,-104.33C573.96,-102.93 561.39,-101.48 549.29,-100.09"/>
<polygon fill="midnightblue" stroke="midnightblue" points="585.99,-107.83 596.32,-105.5 586.79,-100.88 585.99,-107.83"/>
</g>
<!-- Node4 -->
<g id="node4" class="node">
<title>Node4</title>
<g id="a_node4"><a xlink:href="classdenoptim_1_1ga_1_1_e_a_utils.html#a18eb5d0ba6772e9116176ef6ca9f84fc" target="_top" xlink:title="Converts a molecule into a DGraph by fragmentation and re&#45;assembling of the fragments.">
<polygon fill="white" stroke="black" points="1,-144.5 1,-174.5 155,-174.5 155,-144.5 1,-144.5"/>
<text text-anchor="start" x="9" y="-162.5" font-family="Helvetica,sans-Serif" font-size="10.00">denoptim.ga.EAUtils.make</text>
<text text-anchor="middle" x="78" y="-151.5" font-family="Helvetica,sans-Serif" font-size="10.00">GraphFromFragmentationOfMol</text>
</a>
</g>
</g>
<!-- Node3&#45;&gt;Node4 -->
<g id="edge3" class="edge">
<title>Node3&#45;&gt;Node4</title>
<path fill="none" stroke="midnightblue" d="M193.45,-145.56C180.81,-147.1 167.82,-148.68 155.33,-150.2"/>
<polygon fill="midnightblue" stroke="midnightblue" points="193.98,-149.02 203.48,-144.33 193.13,-142.07 193.98,-149.02"/>
</g>
<!-- Node5 -->
<g id="node5" class="node">
<title>Node5</title>
<g id="a_node5"><a xlink:href="classdenoptim_1_1graph_1_1_d_graph_test.html#a05b87ffb43b9710fcea83b0777654e27" target="_top" xlink:title=" ">
<polygon fill="white" stroke="black" points="0,-95.5 0,-125.5 156,-125.5 156,-95.5 0,-95.5"/>
<text text-anchor="start" x="8" y="-113.5" font-family="Helvetica,sans-Serif" font-size="10.00">denoptim.graph.DGraphTest.test</text>
<text text-anchor="middle" x="78" y="-102.5" font-family="Helvetica,sans-Serif" font-size="10.00">DetectSymVertexSets</text>
</a>
</g>
</g>
<!-- Node3&#45;&gt;Node5 -->
<g id="edge4" class="edge">
<title>Node3&#45;&gt;Node5</title>
<path fill="none" stroke="midnightblue" d="M193.29,-125C181.04,-123.45 168.46,-121.85 156.33,-120.31"/>
<polygon fill="midnightblue" stroke="midnightblue" points="193.12,-128.51 203.48,-126.3 194,-121.57 193.12,-128.51"/>
</g>
<!-- Node6&#45;&gt;Node3 -->
<g id="edge6" class="edge">
<title>Node6&#45;&gt;Node3</title>
<path fill="none" stroke="midnightblue" d="M396.17,-108.77C379.07,-112.64 361.08,-116.71 344.42,-120.47"/>
<polygon fill="midnightblue" stroke="midnightblue" points="397.13,-112.14 406.11,-106.52 395.58,-105.31 397.13,-112.14"/>
</g>
<!-- Node7 -->
<g id="node7" class="node">
<title>Node7</title>
<g id="a_node7"><a xlink:href="classdenoptim_1_1graph_1_1_d_graph_test.html#ac02ab6b199aee9280e88a14d0026a175" target="_top" xlink:title=" ">
<polygon fill="white" stroke="black" points="192,-71.5 192,-101.5 362,-101.5 362,-71.5 192,-71.5"/>
<text text-anchor="start" x="200" y="-89.5" font-family="Helvetica,sans-Serif" font-size="10.00">denoptim.graph.DGraphTest.test</text>
<text text-anchor="middle" x="277" y="-78.5" font-family="Helvetica,sans-Serif" font-size="10.00">FindSymmetrySetsOfChildVertexes</text>
</a>
</g>
</g>
<!-- Node6&#45;&gt;Node7 -->
<g id="edge7" class="edge">
<title>Node6&#45;&gt;Node7</title>
<path fill="none" stroke="midnightblue" d="M387.63,-89.32C379.19,-89.1 370.61,-88.88 362.17,-88.66"/>
<polygon fill="midnightblue" stroke="midnightblue" points="387.77,-92.82 397.86,-89.58 387.95,-85.83 387.77,-92.82"/>
</g>
</g>
</svg>
