<?xml version="1.0" encoding="UTF-8" standalone="no"?>
<!DOCTYPE svg PUBLIC "-//W3C//DTD SVG 1.1//EN"
 "http://www.w3.org/Graphics/SVG/1.1/DTD/svg11.dtd">
<!-- Generated by graphviz version 3.0.0 (20221109.1736)
 -->
<!-- Title: denoptim.gui.GraphVertexMolViewerPanel.resetFragViewerCardDeck Pages: 1 -->
<svg width="836pt" height="158pt"
 viewBox="0.00 0.00 836.00 158.00" xmlns="http://www.w3.org/2000/svg" xmlns:xlink="http://www.w3.org/1999/xlink">
<g id="graph0" class="graph" transform="scale(1 1) rotate(0) translate(4 154)">
<title>denoptim.gui.GraphVertexMolViewerPanel.resetFragViewerCardDeck</title>
<polygon fill="white" stroke="transparent" points="-4,4 -4,-154 832,-154 832,4 -4,4"/>
<!-- Node1 -->
<g id="node1" class="node">
<title>Node1</title>
<g id="a_node1"><a xlink:title="Changes the appearance of the vertex visualisation panel to an empty card that is consistent with the...">
<polygon fill="#bfbfbf" stroke="black" points="667,-54.5 667,-95.5 828,-95.5 828,-54.5 667,-54.5"/>
<text text-anchor="start" x="675" y="-83.5" font-family="Helvetica,sans-Serif" font-size="10.00">denoptim.gui.GraphVertex</text>
<text text-anchor="start" x="675" y="-72.5" font-family="Helvetica,sans-Serif" font-size="10.00">MolViewerPanel.resetFragViewer</text>
<text text-anchor="middle" x="747.5" y="-61.5" font-family="Helvetica,sans-Serif" font-size="10.00">CardDeck</text>
</a>
</g>
</g>
<!-- Node2 -->
<g id="node2" class="node">
<title>Node2</title>
<g id="a_node2"><a xlink:href="classdenoptim_1_1gui_1_1_graph_vertex_mol_viewer_panel.html#abab3007ca39f050b3b9916c4bcc994ca" target="_top" xlink:title="Loads the given graph into the graph viewer.">
<polygon fill="white" stroke="black" points="444,-108.5 444,-149.5 601,-149.5 601,-108.5 444,-108.5"/>
<text text-anchor="start" x="452" y="-137.5" font-family="Helvetica,sans-Serif" font-size="10.00">denoptim.gui.GraphVertex</text>
<text text-anchor="start" x="452" y="-126.5" font-family="Helvetica,sans-Serif" font-size="10.00">MolViewerPanel.loadDnGraphTo</text>
<text text-anchor="middle" x="522.5" y="-115.5" font-family="Helvetica,sans-Serif" font-size="10.00">Viewer</text>
</a>
</g>
</g>
<!-- Node1&#45;&gt;Node2 -->
<g id="edge1" class="edge">
<title>Node1&#45;&gt;Node2</title>
<path fill="none" stroke="midnightblue" d="M657.05,-96.66C638.55,-101.14 619.2,-105.83 601.16,-110.19"/>
<polygon fill="midnightblue" stroke="midnightblue" points="658.04,-100.02 666.94,-94.27 656.39,-93.22 658.04,-100.02"/>
</g>
<!-- Node3 -->
<g id="node3" class="node">
<title>Node3</title>
<g id="a_node3"><a xlink:href="classdenoptim_1_1gui_1_1_g_u_i_graph_handler.html#a67ce3e03e9d13d3f312652296d25c0a5" target="_top" xlink:title=" ">
<polygon fill="white" stroke="black" points="436.5,-60 436.5,-90 608.5,-90 608.5,-60 436.5,-60"/>
<text text-anchor="start" x="444.5" y="-78" font-family="Helvetica,sans-Serif" font-size="10.00">denoptim.gui.GUIGraphHandler.load</text>
<text text-anchor="middle" x="522.5" y="-67" font-family="Helvetica,sans-Serif" font-size="10.00">FragmentSpace</text>
</a>
</g>
</g>
<!-- Node1&#45;&gt;Node3 -->
<g id="edge2" class="edge">
<title>Node1&#45;&gt;Node3</title>
<path fill="none" stroke="midnightblue" d="M656.64,-75C640.82,-75 624.39,-75 608.7,-75"/>
<polygon fill="midnightblue" stroke="midnightblue" points="656.94,-78.5 666.94,-75 656.94,-71.5 656.94,-78.5"/>
</g>
<!-- Node6 -->
<g id="node6" class="node">
<title>Node6</title>
<g id="a_node6"><a xlink:href="classdenoptim_1_1gui_1_1_graph_vertex_mol_viewer_panel_1_1_node_clicked_listener.html#a4c7c2b6e03029c1850296cda96c5d6bc" target="_top" xlink:title=" ">
<polygon fill="white" stroke="black" points="414,-0.5 414,-41.5 631,-41.5 631,-0.5 414,-0.5"/>
<text text-anchor="start" x="422" y="-29.5" font-family="Helvetica,sans-Serif" font-size="10.00">denoptim.gui.GraphVertex</text>
<text text-anchor="start" x="422" y="-18.5" font-family="Helvetica,sans-Serif" font-size="10.00">MolViewerPanel.NodeClickedListener.property</text>
<text text-anchor="middle" x="522.5" y="-7.5" font-family="Helvetica,sans-Serif" font-size="10.00">Change</text>
</a>
</g>
</g>
<!-- Node1&#45;&gt;Node6 -->
<g id="edge5" class="edge">
<title>Node1&#45;&gt;Node6</title>
<path fill="none" stroke="midnightblue" d="M657.03,-53.33C640.96,-49.44 624.25,-45.4 608.32,-41.54"/>
<polygon fill="midnightblue" stroke="midnightblue" points="656.39,-56.78 666.94,-55.73 658.04,-49.98 656.39,-56.78"/>
</g>
<!-- Node4 -->
<g id="node4" class="node">
<title>Node4</title>
<g id="a_node4"><a xlink:href="classdenoptim_1_1gui_1_1_g_u_i_graph_handler.html#af5b000c105018cbd7c262b34f9750044" target="_top" xlink:title="Initialize the panel and add buttons.">
<polygon fill="white" stroke="black" points="190,-65.5 190,-84.5 378,-84.5 378,-65.5 190,-65.5"/>
<text text-anchor="middle" x="284" y="-72.5" font-family="Helvetica,sans-Serif" font-size="10.00">denoptim.gui.GUIGraphHandler.initialize</text>
</a>
</g>
</g>
<!-- Node3&#45;&gt;Node4 -->
<g id="edge3" class="edge">
<title>Node3&#45;&gt;Node4</title>
<path fill="none" stroke="midnightblue" d="M426.14,-75C410.3,-75 393.88,-75 378.1,-75"/>
<polygon fill="midnightblue" stroke="midnightblue" points="426.45,-78.5 436.45,-75 426.45,-71.5 426.45,-78.5"/>
</g>
<!-- Node5 -->
<g id="node5" class="node">
<title>Node5</title>
<g id="a_node5"><a xlink:href="classdenoptim_1_1gui_1_1_g_u_i_graph_handler.html#ab7d010d9a384f6b85edce47c95d6723b" target="_top" xlink:title="Constructor.">
<polygon fill="white" stroke="black" points="0,-60 0,-90 154,-90 154,-60 0,-60"/>
<text text-anchor="start" x="8" y="-78" font-family="Helvetica,sans-Serif" font-size="10.00">denoptim.gui.GUIGraphHandler.</text>
<text text-anchor="middle" x="77" y="-67" font-family="Helvetica,sans-Serif" font-size="10.00">GUIGraphHandler</text>
</a>
</g>
</g>
<!-- Node4&#45;&gt;Node5 -->
<g id="edge4" class="edge">
<title>Node4&#45;&gt;Node5</title>
<path fill="none" stroke="midnightblue" d="M179.69,-75C171.07,-75 162.45,-75 154.09,-75"/>
<polygon fill="midnightblue" stroke="midnightblue" points="179.8,-78.5 189.8,-75 179.8,-71.5 179.8,-78.5"/>
</g>
</g>
</svg>
