<?xml version="1.0" encoding="UTF-8" standalone="no"?>
<!DOCTYPE svg PUBLIC "-//W3C//DTD SVG 1.1//EN"
 "http://www.w3.org/Graphics/SVG/1.1/DTD/svg11.dtd">
<!-- Generated by graphviz version 3.0.0 (20221109.1736)
 -->
<!-- Title: denoptim.programs.denovo.GAParameters.checkParameters Pages: 1 -->
<svg width="374pt" height="39pt"
 viewBox="0.00 0.00 374.00 39.00" xmlns="http://www.w3.org/2000/svg" xmlns:xlink="http://www.w3.org/1999/xlink">
<g id="graph0" class="graph" transform="scale(1 1) rotate(0) translate(4 35)">
<title>denoptim.programs.denovo.GAParameters.checkParameters</title>
<polygon fill="white" stroke="transparent" points="-4,4 -4,-35 370,-35 370,4 -4,4"/>
<!-- Node1 -->
<g id="node1" class="node">
<title>Node1</title>
<g id="a_node1"><a xlink:title="Evaluate consistency of input parameters.">
<polygon fill="#bfbfbf" stroke="black" points="0,-0.5 0,-30.5 160,-30.5 160,-0.5 0,-0.5"/>
<text text-anchor="start" x="8" y="-18.5" font-family="Helvetica,sans-Serif" font-size="10.00">denoptim.programs.denovo.</text>
<text text-anchor="middle" x="80" y="-7.5" font-family="Helvetica,sans-Serif" font-size="10.00">GAParameters.checkParameters</text>
</a>
</g>
</g>
<!-- Node2 -->
<g id="node2" class="node">
<title>Node2</title>
<g id="a_node2"><a xlink:href="classdenoptim_1_1programs_1_1_run_time_parameters.html#aaeaf94275f1b63439850a68a244a74c2" target="_top" xlink:title="Checks any of the parameter collections contained in this instance.">
<polygon fill="white" stroke="black" points="196,-0.5 196,-30.5 366,-30.5 366,-0.5 196,-0.5"/>
<text text-anchor="start" x="204" y="-18.5" font-family="Helvetica,sans-Serif" font-size="10.00">denoptim.programs.RunTime</text>
<text text-anchor="middle" x="281" y="-7.5" font-family="Helvetica,sans-Serif" font-size="10.00">Parameters.checkOtherParameters</text>
</a>
</g>
</g>
<!-- Node1&#45;&gt;Node2 -->
<g id="edge1" class="edge">
<title>Node1&#45;&gt;Node2</title>
<path fill="none" stroke="midnightblue" d="M160.22,-15.5C168.64,-15.5 177.25,-15.5 185.81,-15.5"/>
<polygon fill="midnightblue" stroke="midnightblue" points="185.83,-19 195.83,-15.5 185.83,-12 185.83,-19"/>
</g>
</g>
</svg>
