<?xml version="1.0" encoding="UTF-8" standalone="no"?>
<!DOCTYPE svg PUBLIC "-//W3C//DTD SVG 1.1//EN"
 "http://www.w3.org/Graphics/SVG/1.1/DTD/svg11.dtd">
<!-- Generated by graphviz version 3.0.0 (20221109.1736)
 -->
<!-- Title: denoptim.utils.AtomOrganizer.prioritizeAtomList Pages: 1 -->
<!--zoomable 104 -->
<svg id="main" version="1.1" xmlns="http://www.w3.org/2000/svg" xmlns:xlink="http://www.w3.org/1999/xlink" xml:space="preserve" onload="init(evt)">
<style type="text/css"><![CDATA[
.edge:hover path { stroke: red; }
.edge:hover polygon { stroke: red; fill: red; }
]]></style>
<script type="text/javascript"><![CDATA[
var edges = document.getElementsByTagName('g');
if (edges && edges.length) {
  for (var i=0;i<edges.length;i++) {
    if (edges[i].id.substr(0,4)=='edge') {
      edges[i].setAttribute('class','edge');
    }
  }
}
]]></script>
        <defs>
                <circle id="rim" cx="0" cy="0" r="7"/>
                <circle id="rim2" cx="0" cy="0" r="3.5"/>
                <g id="zoomPlus">
                        <use xlink:href="#rim" fill="#404040">
                                <set attributeName="fill" to="#808080" begin="zoomplus.mouseover" end="zoomplus.mouseout"/>
                        </use>
                        <path d="M-4,0h8M0,-4v8" fill="none" stroke="white" stroke-width="1.5" pointer-events="none"/>
                </g>
                <g id="zoomMin">
                        <use xlink:href="#rim" fill="#404040">
                                <set attributeName="fill" to="#808080" begin="zoomminus.mouseover" end="zoomminus.mouseout"/>
                        </use>
                        <path d="M-4,0h8" fill="none" stroke="white" stroke-width="1.5" pointer-events="none"/>
                </g>
                <g id="dirArrow">
                        <path fill="none" stroke="white" stroke-width="1.5" d="M0,-3.0v7 M-2.5,-0.5L0,-3.0L2.5,-0.5"/>
                </g>
               <g id="resetDef">
                       <use xlink:href="#rim2" fill="#404040">
                               <set attributeName="fill" to="#808080" begin="reset.mouseover" end="reset.mouseout"/>
                       </use>
               </g>
        </defs>

<script type="text/javascript">
var viewWidth = 1487;
var viewHeight = 104;
var sectionId = 'dynsection-14';
</script>
<script xlink:href="svgpan.js"/>
<svg id="graph" class="graph">
<g id="viewport">
<title>denoptim.utils.AtomOrganizer.prioritizeAtomList</title>
<polygon fill="white" stroke="transparent" points="-4,4 -4,-100 1483,-100 1483,4 -4,4"/>
<!-- Node1 -->
<g id="node1" class="node">
<title>Node1</title>
<g id="a_node1"><a xlink:title="Change the order of atoms in a list according to the priority rules defined in the comparator Connect...">
<polygon fill="#bfbfbf" stroke="black" points="1297,-24.5 1297,-54.5 1479,-54.5 1479,-24.5 1297,-24.5"/>
<text text-anchor="start" x="1305" y="-42.5" font-family="Helvetica,sans-Serif" font-size="10.00">denoptim.utils.AtomOrganizer.prioritize</text>
<text text-anchor="middle" x="1388" y="-31.5" font-family="Helvetica,sans-Serif" font-size="10.00">AtomList</text>
</a>
</g>
</g>
<!-- Node2 -->
<g id="node2" class="node">
<title>Node2</title>
<g id="a_node2"><a xlink:href="classdenoptim_1_1utils_1_1_atom_organizer.html#af107340bb330f98b9b7f899ff08c80ad" target="_top" xlink:title="Method meant for recursion on all atoms connected to a starting point.">
<polygon fill="white" stroke="black" points="1085,-47.5 1085,-77.5 1261,-77.5 1261,-47.5 1085,-47.5"/>
<text text-anchor="start" x="1093" y="-65.5" font-family="Helvetica,sans-Serif" font-size="10.00">denoptim.utils.AtomOrganizer.explore</text>
<text text-anchor="middle" x="1173" y="-54.5" font-family="Helvetica,sans-Serif" font-size="10.00">Molecule</text>
</a>
</g>
</g>
<!-- Node1&#45;&gt;Node2 -->
<g id="edge1" class="edge">
<title>Node1&#45;&gt;Node2</title>
<path fill="none" stroke="midnightblue" d="M1286.96,-50.3C1278.4,-51.23 1269.78,-52.16 1261.32,-53.07"/>
<polygon fill="midnightblue" stroke="midnightblue" points="1287.41,-53.77 1296.98,-49.22 1286.66,-46.81 1287.41,-53.77"/>
</g>
<!-- Node8 -->
<g id="node8" class="node">
<title>Node8</title>
<g id="a_node8"><a xlink:href="classdenoptim_1_1utils_1_1_atom_organizer.html#ac9be639b72c847d5875a12250a94bebe" target="_top" xlink:title="Reorders atoms according to the layer&#45;oriented scheme.">
<polygon fill="white" stroke="black" points="878.5,-0.5 878.5,-30.5 1044.5,-30.5 1044.5,-0.5 878.5,-0.5"/>
<text text-anchor="start" x="886.5" y="-18.5" font-family="Helvetica,sans-Serif" font-size="10.00">denoptim.utils.AtomOrganizer.layer</text>
<text text-anchor="middle" x="961.5" y="-7.5" font-family="Helvetica,sans-Serif" font-size="10.00">OrientedReordering</text>
</a>
</g>
</g>
<!-- Node1&#45;&gt;Node8 -->
<g id="edge8" class="edge">
<title>Node1&#45;&gt;Node8</title>
<path fill="none" stroke="midnightblue" d="M1286.74,-33.83C1213,-29.66 1113.98,-24.06 1044.84,-20.16"/>
<polygon fill="midnightblue" stroke="midnightblue" points="1286.79,-37.34 1296.97,-34.41 1287.19,-30.35 1286.79,-37.34"/>
</g>
<!-- Node2&#45;&gt;Node2 -->
<g id="edge7" class="edge">
<title>Node2&#45;&gt;Node2</title>
<path fill="none" stroke="midnightblue" d="M1210.31,-87.96C1205.68,-92.68 1193.25,-96 1173,-96 1139.78,-96 1127.58,-87.06 1136.4,-77.66"/>
<polygon fill="midnightblue" stroke="midnightblue" points="1213.78,-87.39 1209.6,-77.66 1206.8,-87.88 1213.78,-87.39"/>
</g>
<!-- Node3 -->
<g id="node3" class="node">
<title>Node3</title>
<g id="a_node3"><a xlink:href="classdenoptim_1_1utils_1_1_atom_organizer.html#a2970c029fa822f5597969bda9adabdaf" target="_top" xlink:title="Reorders atoms according to the branch&#45;oriented scheme.">
<polygon fill="white" stroke="black" points="874,-49.5 874,-79.5 1049,-79.5 1049,-49.5 874,-49.5"/>
<text text-anchor="start" x="882" y="-67.5" font-family="Helvetica,sans-Serif" font-size="10.00">denoptim.utils.AtomOrganizer.branch</text>
<text text-anchor="middle" x="961.5" y="-56.5" font-family="Helvetica,sans-Serif" font-size="10.00">OrienterReordering</text>
</a>
</g>
</g>
<!-- Node2&#45;&gt;Node3 -->
<g id="edge2" class="edge">
<title>Node2&#45;&gt;Node3</title>
<path fill="none" stroke="midnightblue" d="M1074.95,-63.43C1066.38,-63.51 1057.74,-63.59 1049.26,-63.67"/>
<polygon fill="midnightblue" stroke="midnightblue" points="1075.01,-66.93 1084.97,-63.33 1074.94,-59.93 1075.01,-66.93"/>
</g>
<!-- Node4 -->
<g id="node4" class="node">
<title>Node4</title>
<g id="a_node4"><a xlink:href="classdenoptim_1_1utils_1_1_atom_organizer.html#ac679b2a45c111736e81e8dd2604b5a77" target="_top" xlink:title="Reorder the atoms in mol starting with atom seed">
<polygon fill="white" stroke="black" points="662,-24.5 662,-54.5 838,-54.5 838,-24.5 662,-24.5"/>
<text text-anchor="start" x="670" y="-42.5" font-family="Helvetica,sans-Serif" font-size="10.00">denoptim.utils.AtomOrganizer.reorder</text>
<text text-anchor="middle" x="750" y="-31.5" font-family="Helvetica,sans-Serif" font-size="10.00">StartingFrom</text>
</a>
</g>
</g>
<!-- Node3&#45;&gt;Node4 -->
<g id="edge3" class="edge">
<title>Node3&#45;&gt;Node4</title>
<path fill="none" stroke="midnightblue" d="M863.84,-52.97C855.33,-51.95 846.76,-50.93 838.33,-49.92"/>
<polygon fill="midnightblue" stroke="midnightblue" points="863.43,-56.44 873.78,-54.15 864.26,-49.49 863.43,-56.44"/>
</g>
<!-- Node5 -->
<g id="node5" class="node">
<title>Node5</title>
<g id="a_node5"><a xlink:href="classdenoptim_1_1molecularmodeling_1_1_multi_molecular_model_builder.html#a1cd879265bf12e9c2980efae1e8e74aa" target="_top" xlink:title="Generate 3D structure by assembling 3D fragments according to attachment point vector and following t...">
<polygon fill="white" stroke="black" points="436,-24.5 436,-54.5 626,-54.5 626,-24.5 436,-24.5"/>
<text text-anchor="start" x="444" y="-42.5" font-family="Helvetica,sans-Serif" font-size="10.00">denoptim.molecularmodeling.</text>
<text text-anchor="middle" x="531" y="-31.5" font-family="Helvetica,sans-Serif" font-size="10.00">MultiMolecularModelBuilder.build3DTree</text>
</a>
</g>
</g>
<!-- Node4&#45;&gt;Node5 -->
<g id="edge4" class="edge">
<title>Node4&#45;&gt;Node5</title>
<path fill="none" stroke="midnightblue" d="M651.97,-39.5C643.38,-39.5 634.7,-39.5 626.14,-39.5"/>
<polygon fill="midnightblue" stroke="midnightblue" points="651.99,-43 661.99,-39.5 651.99,-36 651.99,-43"/>
</g>
<!-- Node6 -->
<g id="node6" class="node">
<title>Node6</title>
<g id="a_node6"><a xlink:href="classdenoptim_1_1molecularmodeling_1_1_multi_molecular_model_builder.html#a6a8e314f3fb37f66c32c8c4d5695b8a4" target="_top" xlink:title="Given the graph representation of the molecular constitution, along with the 3D coordinates of the fr...">
<polygon fill="white" stroke="black" points="242,-19 242,-60 400,-60 400,-19 242,-19"/>
<text text-anchor="start" x="250" y="-48" font-family="Helvetica,sans-Serif" font-size="10.00">denoptim.molecularmodeling.</text>
<text text-anchor="start" x="250" y="-37" font-family="Helvetica,sans-Serif" font-size="10.00">MultiMolecularModelBuilder.build</text>
<text text-anchor="middle" x="321" y="-26" font-family="Helvetica,sans-Serif" font-size="10.00">Multi3DStructure</text>
</a>
</g>
</g>
<!-- Node5&#45;&gt;Node6 -->
<g id="edge5" class="edge">
<title>Node5&#45;&gt;Node6</title>
<path fill="none" stroke="midnightblue" d="M425.64,-39.5C417.03,-39.5 408.43,-39.5 400.06,-39.5"/>
<polygon fill="midnightblue" stroke="midnightblue" points="425.74,-43 435.74,-39.5 425.74,-36 425.74,-43"/>
</g>
<!-- Node7 -->
<g id="node7" class="node">
<title>Node7</title>
<g id="a_node7"><a xlink:href="classdenoptim_1_1programs_1_1moldecularmodelbuilder_1_1_molecular_model_builder.html#ad2e44290de6a861274def677044e9754" target="_top" xlink:title=" ">
<polygon fill="white" stroke="black" points="0,-24.5 0,-54.5 206,-54.5 206,-24.5 0,-24.5"/>
<text text-anchor="start" x="8" y="-42.5" font-family="Helvetica,sans-Serif" font-size="10.00">denoptim.programs.moldecularmodelbuilder.</text>
<text text-anchor="middle" x="103" y="-31.5" font-family="Helvetica,sans-Serif" font-size="10.00">MolecularModelBuilder.runProgram</text>
</a>
</g>
</g>
<!-- Node6&#45;&gt;Node7 -->
<g id="edge6" class="edge">
<title>Node6&#45;&gt;Node7</title>
<path fill="none" stroke="midnightblue" d="M231.55,-39.5C223.14,-39.5 214.57,-39.5 206.05,-39.5"/>
<polygon fill="midnightblue" stroke="midnightblue" points="231.71,-43 241.71,-39.5 231.71,-36 231.71,-43"/>
</g>
<!-- Node8&#45;&gt;Node4 -->
<g id="edge9" class="edge">
<title>Node8&#45;&gt;Node4</title>
<path fill="none" stroke="midnightblue" d="M868.33,-26.06C858.3,-27.21 848.11,-28.38 838.14,-29.52"/>
<polygon fill="midnightblue" stroke="midnightblue" points="868.76,-29.53 878.3,-24.92 867.97,-22.58 868.76,-29.53"/>
</g>
</g>
</svg>
        <g id="navigator" transform="translate(0 0)" fill="#404254">
                <rect fill="#f2f5e9" fill-opacity="0.5" stroke="#606060" stroke-width=".5" x="0" y="0" width="60" height="60"/>
                <use id="zoomplus" xlink:href="#zoomPlus" x="17" y="9" onmousedown="handleZoom(evt,'in')"/>
                <use id="zoomminus" xlink:href="#zoomMin" x="42" y="9" onmousedown="handleZoom(evt,'out')"/>
                <use id="reset" xlink:href="#resetDef" x="30" y="36" onmousedown="handleReset()"/>
                <g id="arrowUp" xlink:href="#dirArrow" transform="translate(30 24)" onmousedown="handlePan(0,-1)">
                  <use xlink:href="#rim" fill="#404040">
                        <set attributeName="fill" to="#808080" begin="arrowUp.mouseover" end="arrowUp.mouseout"/>
                  </use>
                  <path fill="none" stroke="white" stroke-width="1.5" d="M0,-3.0v7 M-2.5,-0.5L0,-3.0L2.5,-0.5"/>
                </g>
                <g id="arrowRight" xlink:href="#dirArrow" transform="rotate(90) translate(36 -43)" onmousedown="handlePan(1,0)">
                  <use xlink:href="#rim" fill="#404040">
                        <set attributeName="fill" to="#808080" begin="arrowRight.mouseover" end="arrowRight.mouseout"/>
                  </use>
                  <path fill="none" stroke="white" stroke-width="1.5" d="M0,-3.0v7 M-2.5,-0.5L0,-3.0L2.5,-0.5"/>
                </g>
                <g id="arrowDown" xlink:href="#dirArrow" transform="rotate(180) translate(-30 -48)" onmousedown="handlePan(0,1)">
                  <use xlink:href="#rim" fill="#404040">
                        <set attributeName="fill" to="#808080" begin="arrowDown.mouseover" end="arrowDown.mouseout"/>
                  </use>
                  <path fill="none" stroke="white" stroke-width="1.5" d="M0,-3.0v7 M-2.5,-0.5L0,-3.0L2.5,-0.5"/>
                </g>
                <g id="arrowLeft" xlink:href="#dirArrow" transform="rotate(270) translate(-36 17)" onmousedown="handlePan(-1,0)">
                  <use xlink:href="#rim" fill="#404040">
                        <set attributeName="fill" to="#808080" begin="arrowLeft.mouseover" end="arrowLeft.mouseout"/>
                  </use>
                  <path fill="none" stroke="white" stroke-width="1.5" d="M0,-3.0v7 M-2.5,-0.5L0,-3.0L2.5,-0.5"/>
                </g>
        </g>
        <svg viewBox="0 0 15 15" width="100%" height="30px" preserveAspectRatio="xMaxYMin meet">
         <g id="arrow_out" transform="scale(0.3 0.3)">
          <a xlink:href="classdenoptim_1_1utils_1_1_atom_organizer_a32438216f863d45940768576a05178f5_icgraph_org.svg" target="_base">
           <rect id="button" ry="5" rx="5" y="6" x="6" height="38" width="38"
                fill="#f2f5e9" fill-opacity="0.5" stroke="#606060" stroke-width="1.0"/>
           <path id="arrow"
             d="M 11.500037,31.436501 C 11.940474,20.09759 22.043105,11.32322 32.158766,21.979434 L 37.068811,17.246167 C 37.068811,17.246167 37.088388,32 37.088388,32 L 22.160133,31.978069 C 22.160133,31.978069 26.997745,27.140456 26.997745,27.140456 C 18.528582,18.264221 13.291696,25.230495 11.500037,31.436501 z"
             style="fill:#404040;"/>
          </a>
         </g>
        </svg>
</svg>
