<?xml version="1.0" encoding="UTF-8" standalone="no"?>
<!DOCTYPE svg PUBLIC "-//W3C//DTD SVG 1.1//EN"
 "http://www.w3.org/Graphics/SVG/1.1/DTD/svg11.dtd">
<!-- Generated by graphviz version 3.0.0 (20221109.1736)
 -->
<!-- Title: denoptim.gui.GUI.closeIfAllSaved Pages: 1 -->
<svg width="499pt" height="72pt"
 viewBox="0.00 0.00 499.00 71.50" xmlns="http://www.w3.org/2000/svg" xmlns:xlink="http://www.w3.org/1999/xlink">
<g id="graph0" class="graph" transform="scale(1 1) rotate(0) translate(4 67.5)">
<title>denoptim.gui.GUI.closeIfAllSaved</title>
<polygon fill="white" stroke="transparent" points="-4,4 -4,-67.5 495,-67.5 495,4 -4,4"/>
<!-- Node1 -->
<g id="node1" class="node">
<title>Node1</title>
<g id="a_node1"><a xlink:title="Close GUI is there are no unsaved changes to the open components.">
<polygon fill="#bfbfbf" stroke="black" points="368,-14 368,-44 491,-44 491,-14 368,-14"/>
<text text-anchor="start" x="376" y="-32" font-family="Helvetica,sans-Serif" font-size="10.00">denoptim.gui.GUI.closeIf</text>
<text text-anchor="middle" x="429.5" y="-21" font-family="Helvetica,sans-Serif" font-size="10.00">AllSaved</text>
</a>
</g>
</g>
<!-- Node2 -->
<g id="node2" class="node">
<title>Node2</title>
<g id="a_node2"><a xlink:href="classdenoptim_1_1gui_1_1_main_tool_bar.html#a0df9ca063352fbc50f9476f3b2820926" target="_top" xlink:title="Initialize the contents of the tool bar.">
<polygon fill="white" stroke="black" points="167,-38.5 167,-57.5 332,-57.5 332,-38.5 167,-38.5"/>
<text text-anchor="middle" x="249.5" y="-45.5" font-family="Helvetica,sans-Serif" font-size="10.00">denoptim.gui.MainToolBar.initialize</text>
</a>
</g>
</g>
<!-- Node1&#45;&gt;Node2 -->
<g id="edge1" class="edge">
<title>Node1&#45;&gt;Node2</title>
<path fill="none" stroke="midnightblue" d="M357.63,-36.56C349.23,-37.46 340.61,-38.38 332.08,-39.29"/>
<polygon fill="midnightblue" stroke="midnightblue" points="358.17,-40.03 367.74,-35.49 357.43,-33.07 358.17,-40.03"/>
</g>
<!-- Node4 -->
<g id="node4" class="node">
<title>Node4</title>
<g id="a_node4"><a xlink:href="classdenoptim_1_1gui_1_1_g_u_i.html#a460fa99497f04de06d2adf8671a92441" target="_top" xlink:title="Launch the application.">
<polygon fill="white" stroke="black" points="196,-0.5 196,-19.5 303,-19.5 303,-0.5 196,-0.5"/>
<text text-anchor="middle" x="249.5" y="-7.5" font-family="Helvetica,sans-Serif" font-size="10.00">denoptim.gui.GUI.run</text>
</a>
</g>
</g>
<!-- Node1&#45;&gt;Node4 -->
<g id="edge3" class="edge">
<title>Node1&#45;&gt;Node4</title>
<path fill="none" stroke="midnightblue" d="M357.77,-21.45C339.59,-19.51 320.35,-17.46 303.26,-15.63"/>
<polygon fill="midnightblue" stroke="midnightblue" points="357.43,-24.93 367.74,-22.51 358.17,-17.97 357.43,-24.93"/>
</g>
<!-- Node3 -->
<g id="node3" class="node">
<title>Node3</title>
<g id="a_node3"><a xlink:href="classdenoptim_1_1gui_1_1_main_tool_bar.html#a36f4409849998e032342f49b19e6c5b5" target="_top" xlink:title="Constructor that build the tool bar.">
<polygon fill="white" stroke="black" points="0,-33 0,-63 131,-63 131,-33 0,-33"/>
<text text-anchor="start" x="8" y="-51" font-family="Helvetica,sans-Serif" font-size="10.00">denoptim.gui.MainToolBar.</text>
<text text-anchor="middle" x="65.5" y="-40" font-family="Helvetica,sans-Serif" font-size="10.00">MainToolBar</text>
</a>
</g>
</g>
<!-- Node2&#45;&gt;Node3 -->
<g id="edge2" class="edge">
<title>Node2&#45;&gt;Node3</title>
<path fill="none" stroke="midnightblue" d="M156.66,-48C147.99,-48 139.34,-48 131,-48"/>
<polygon fill="midnightblue" stroke="midnightblue" points="156.82,-51.5 166.82,-48 156.82,-44.5 156.82,-51.5"/>
</g>
</g>
</svg>
