<?xml version="1.0" encoding="UTF-8" standalone="no"?>
<!DOCTYPE svg PUBLIC "-//W3C//DTD SVG 1.1//EN"
 "http://www.w3.org/Graphics/SVG/1.1/DTD/svg11.dtd">
<!-- Generated by graphviz version 3.0.0 (20221109.1736)
 -->
<!-- Title: denoptim.gui.GUIInspectFSERun.resetViewInPlotByLevel Pages: 1 -->
<svg width="1233pt" height="214pt"
 viewBox="0.00 0.00 1233.00 214.00" xmlns="http://www.w3.org/2000/svg" xmlns:xlink="http://www.w3.org/1999/xlink">
<g id="graph0" class="graph" transform="scale(1 1) rotate(0) translate(4 210)">
<title>denoptim.gui.GUIInspectFSERun.resetViewInPlotByLevel</title>
<polygon fill="white" stroke="transparent" points="-4,4 -4,-210 1229,-210 1229,4 -4,4"/>
<!-- Node1 -->
<g id="node1" class="node">
<title>Node1</title>
<g id="a_node1"><a xlink:title=" ">
<polygon fill="#bfbfbf" stroke="black" points="1041,-59.5 1041,-89.5 1225,-89.5 1225,-59.5 1041,-59.5"/>
<text text-anchor="start" x="1049" y="-77.5" font-family="Helvetica,sans-Serif" font-size="10.00">denoptim.gui.GUIInspectFSERun.reset</text>
<text text-anchor="middle" x="1133" y="-66.5" font-family="Helvetica,sans-Serif" font-size="10.00">ViewInPlotByLevel</text>
</a>
</g>
</g>
<!-- Node2 -->
<g id="node2" class="node">
<title>Node2</title>
<g id="a_node2"><a xlink:href="classdenoptim_1_1gui_1_1_g_u_i_inspect_f_s_e_run.html#ad4dab9aade0d84507879d53780a88199" target="_top" xlink:title=" ">
<polygon fill="white" stroke="black" points="807.5,-93.5 807.5,-123.5 996.5,-123.5 996.5,-93.5 807.5,-93.5"/>
<text text-anchor="start" x="815.5" y="-111.5" font-family="Helvetica,sans-Serif" font-size="10.00">denoptim.gui.GUIInspectFSERun.import</text>
<text text-anchor="middle" x="902" y="-100.5" font-family="Helvetica,sans-Serif" font-size="10.00">FSERunData</text>
</a>
</g>
</g>
<!-- Node1&#45;&gt;Node2 -->
<g id="edge1" class="edge">
<title>Node1&#45;&gt;Node2</title>
<path fill="none" stroke="midnightblue" d="M1030.93,-89.51C1019.6,-91.19 1008.09,-92.9 996.85,-94.57"/>
<polygon fill="midnightblue" stroke="midnightblue" points="1031.46,-92.97 1040.84,-88.04 1030.43,-86.04 1031.46,-92.97"/>
</g>
<!-- Node10 -->
<g id="node10" class="node">
<title>Node10</title>
<g id="a_node10"><a xlink:href="classdenoptim_1_1gui_1_1_g_u_i_inspect_f_s_e_run.html#addf55cc59e54efc8d027d0d993c3935f" target="_top" xlink:title=" ">
<polygon fill="white" stroke="black" points="799,-43 799,-62 1005,-62 1005,-43 799,-43"/>
<text text-anchor="middle" x="902" y="-50" font-family="Helvetica,sans-Serif" font-size="10.00">denoptim.gui.GUIInspectFSERun.resetView</text>
</a>
</g>
</g>
<!-- Node1&#45;&gt;Node10 -->
<g id="edge10" class="edge">
<title>Node1&#45;&gt;Node10</title>
<path fill="none" stroke="midnightblue" d="M1030.62,-64.76C1021.16,-63.85 1011.57,-62.93 1002.13,-62.02"/>
<polygon fill="midnightblue" stroke="midnightblue" points="1030.55,-68.27 1040.84,-65.74 1031.22,-61.3 1030.55,-68.27"/>
</g>
<!-- Node3 -->
<g id="node3" class="node">
<title>Node3</title>
<g id="a_node3"><a xlink:href="classdenoptim_1_1gui_1_1_home_panel.html#a316e6bb38c2eb0edcead31424e3ed3fe" target="_top" xlink:title="Initialize the panel with figure and shortcuts and credit panels.">
<polygon fill="white" stroke="black" points="584,-159 584,-178 745,-178 745,-159 584,-159"/>
<text text-anchor="middle" x="664.5" y="-166" font-family="Helvetica,sans-Serif" font-size="10.00">denoptim.gui.HomePanel.initialize</text>
</a>
</g>
</g>
<!-- Node2&#45;&gt;Node3 -->
<g id="edge2" class="edge">
<title>Node2&#45;&gt;Node3</title>
<path fill="none" stroke="midnightblue" d="M831.95,-126.09C789.78,-136.84 737.51,-150.15 702.91,-158.97"/>
<polygon fill="midnightblue" stroke="midnightblue" points="833.05,-129.42 841.88,-123.56 831.32,-122.64 833.05,-129.42"/>
</g>
<!-- Node5 -->
<g id="node5" class="node">
<title>Node5</title>
<g id="a_node5"><a xlink:href="classdenoptim_1_1gui_1_1_main_tool_bar.html#a1a2e06a2647032587d42155302b8c0a6" target="_top" xlink:title="Process a file that has a recognized file format and loads a suitable GUI card to visualize the file ...">
<polygon fill="white" stroke="black" points="581,-99 581,-118 748,-118 748,-99 581,-99"/>
<text text-anchor="middle" x="664.5" y="-106" font-family="Helvetica,sans-Serif" font-size="10.00">denoptim.gui.MainToolBar.openFile</text>
</a>
</g>
</g>
<!-- Node2&#45;&gt;Node5 -->
<g id="edge4" class="edge">
<title>Node2&#45;&gt;Node5</title>
<path fill="none" stroke="midnightblue" d="M797.12,-108.5C780.77,-108.5 764.06,-108.5 748.27,-108.5"/>
<polygon fill="midnightblue" stroke="midnightblue" points="797.25,-112 807.25,-108.5 797.25,-105 797.25,-112"/>
</g>
<!-- Node4 -->
<g id="node4" class="node">
<title>Node4</title>
<g id="a_node4"><a xlink:href="classdenoptim_1_1gui_1_1_home_panel.html#a4d968e0669527cf2bc90d334a66b35ad" target="_top" xlink:title="Constructor.">
<polygon fill="white" stroke="black" points="372.5,-175.5 372.5,-205.5 525.5,-205.5 525.5,-175.5 372.5,-175.5"/>
<text text-anchor="start" x="380.5" y="-193.5" font-family="Helvetica,sans-Serif" font-size="10.00">denoptim.gui.HomePanel.Home</text>
<text text-anchor="middle" x="449" y="-182.5" font-family="Helvetica,sans-Serif" font-size="10.00">Panel</text>
</a>
</g>
</g>
<!-- Node3&#45;&gt;Node4 -->
<g id="edge3" class="edge">
<title>Node3&#45;&gt;Node4</title>
<path fill="none" stroke="midnightblue" d="M573.38,-177.79C557.55,-179.42 541.21,-181.1 525.82,-182.69"/>
<polygon fill="midnightblue" stroke="midnightblue" points="574.11,-181.23 583.7,-176.72 573.39,-174.27 574.11,-181.23"/>
</g>
<!-- Node6 -->
<g id="node6" class="node">
<title>Node6</title>
<g id="a_node6"><a xlink:href="classdenoptim_1_1gui_1_1_main_tool_bar.html#a0df9ca063352fbc50f9476f3b2820926" target="_top" xlink:title="Initialize the contents of the tool bar.">
<polygon fill="white" stroke="black" points="167,-96 167,-115 332,-115 332,-96 167,-96"/>
<text text-anchor="middle" x="249.5" y="-103" font-family="Helvetica,sans-Serif" font-size="10.00">denoptim.gui.MainToolBar.initialize</text>
</a>
</g>
</g>
<!-- Node5&#45;&gt;Node6 -->
<g id="edge5" class="edge">
<title>Node5&#45;&gt;Node6</title>
<path fill="none" stroke="midnightblue" d="M598.98,-119.56C577.15,-122.8 552.58,-125.9 530,-127.5 458.18,-132.59 439.69,-134.15 368,-127.5 342.17,-125.1 313.55,-119.8 291.02,-115"/>
<polygon fill="midnightblue" stroke="midnightblue" points="599.77,-122.98 609.13,-118.01 598.71,-116.06 599.77,-122.98"/>
</g>
<!-- Node8 -->
<g id="node8" class="node">
<title>Node8</title>
<g id="a_node8"><a xlink:href="classdenoptim_1_1gui_1_1_g_u_i.html#a460fa99497f04de06d2adf8671a92441" target="_top" xlink:title="Launch the application.">
<polygon fill="white" stroke="black" points="395.5,-99 395.5,-118 502.5,-118 502.5,-99 395.5,-99"/>
<text text-anchor="middle" x="449" y="-106" font-family="Helvetica,sans-Serif" font-size="10.00">denoptim.gui.GUI.run</text>
</a>
</g>
</g>
<!-- Node5&#45;&gt;Node8 -->
<g id="edge7" class="edge">
<title>Node5&#45;&gt;Node8</title>
<path fill="none" stroke="midnightblue" d="M570.7,-108.5C547.44,-108.5 523.28,-108.5 502.74,-108.5"/>
<polygon fill="midnightblue" stroke="midnightblue" points="570.96,-112 580.96,-108.5 570.96,-105 570.96,-112"/>
</g>
<!-- Node9 -->
<g id="node9" class="node">
<title>Node9</title>
<g id="a_node9"><a xlink:href="classdenoptim_1_1gui_1_1_main_tool_bar.html#a94df24e485081c9b9d7441387f409e26" target="_top" xlink:title="Updated the the list of recent files in the &quot;open Recent&quot; menu.">
<polygon fill="white" stroke="black" points="369,-49.5 369,-79.5 529,-79.5 529,-49.5 369,-49.5"/>
<text text-anchor="start" x="377" y="-67.5" font-family="Helvetica,sans-Serif" font-size="10.00">denoptim.gui.MainToolBar.update</text>
<text text-anchor="middle" x="449" y="-56.5" font-family="Helvetica,sans-Serif" font-size="10.00">OpenRecentMenu</text>
</a>
</g>
</g>
<!-- Node5&#45;&gt;Node9 -->
<g id="edge8" class="edge">
<title>Node5&#45;&gt;Node9</title>
<path fill="none" stroke="midnightblue" d="M607.21,-96.9C581.46,-91.59 550.62,-85.24 523.1,-79.57"/>
<polygon fill="midnightblue" stroke="midnightblue" points="606.67,-100.36 617.17,-98.95 608.09,-93.51 606.67,-100.36"/>
</g>
<!-- Node7 -->
<g id="node7" class="node">
<title>Node7</title>
<g id="a_node7"><a xlink:href="classdenoptim_1_1gui_1_1_main_tool_bar.html#a36f4409849998e032342f49b19e6c5b5" target="_top" xlink:title="Constructor that build the tool bar.">
<polygon fill="white" stroke="black" points="0,-90.5 0,-120.5 131,-120.5 131,-90.5 0,-90.5"/>
<text text-anchor="start" x="8" y="-108.5" font-family="Helvetica,sans-Serif" font-size="10.00">denoptim.gui.MainToolBar.</text>
<text text-anchor="middle" x="65.5" y="-97.5" font-family="Helvetica,sans-Serif" font-size="10.00">MainToolBar</text>
</a>
</g>
</g>
<!-- Node6&#45;&gt;Node7 -->
<g id="edge6" class="edge">
<title>Node6&#45;&gt;Node7</title>
<path fill="none" stroke="midnightblue" d="M156.66,-105.5C147.99,-105.5 139.34,-105.5 131,-105.5"/>
<polygon fill="midnightblue" stroke="midnightblue" points="156.82,-109 166.82,-105.5 156.82,-102 156.82,-109"/>
</g>
<!-- Node9&#45;&gt;Node6 -->
<g id="edge9" class="edge">
<title>Node9&#45;&gt;Node6</title>
<path fill="none" stroke="midnightblue" d="M365.56,-81.61C341.96,-86.51 317.09,-91.68 296.52,-95.95"/>
<polygon fill="midnightblue" stroke="midnightblue" points="366.5,-84.99 375.58,-79.53 365.08,-78.14 366.5,-84.99"/>
</g>
<!-- Node11 -->
<g id="node11" class="node">
<title>Node11</title>
<g id="a_node11"><a xlink:href="classdenoptim_1_1gui_1_1_g_u_i_inspect_f_s_e_run.html#aa30815ac9aa8f815fd24c115afaabd62" target="_top" xlink:title="Initialize the panel and add buttons.">
<polygon fill="white" stroke="black" points="566,-19 566,-38 763,-38 763,-19 566,-19"/>
<text text-anchor="middle" x="664.5" y="-26" font-family="Helvetica,sans-Serif" font-size="10.00">denoptim.gui.GUIInspectFSERun.initialize</text>
</a>
</g>
</g>
<!-- Node10&#45;&gt;Node11 -->
<g id="edge11" class="edge">
<title>Node10&#45;&gt;Node11</title>
<path fill="none" stroke="midnightblue" d="M797.36,-41.94C784.52,-40.63 771.47,-39.3 758.8,-38.01"/>
<polygon fill="midnightblue" stroke="midnightblue" points="797.28,-45.45 807.59,-42.98 797.99,-38.48 797.28,-45.45"/>
</g>
<!-- Node12 -->
<g id="node12" class="node">
<title>Node12</title>
<g id="a_node12"><a xlink:href="classdenoptim_1_1gui_1_1_g_u_i_inspect_f_s_e_run.html#aa4cc9386cd3e91865c486ba914af789d" target="_top" xlink:title="Constructor.">
<polygon fill="white" stroke="black" points="368,-0.5 368,-30.5 530,-30.5 530,-0.5 368,-0.5"/>
<text text-anchor="start" x="376" y="-18.5" font-family="Helvetica,sans-Serif" font-size="10.00">denoptim.gui.GUIInspectFSERun.</text>
<text text-anchor="middle" x="449" y="-7.5" font-family="Helvetica,sans-Serif" font-size="10.00">GUIInspectFSERun</text>
</a>
</g>
</g>
<!-- Node11&#45;&gt;Node12 -->
<g id="edge12" class="edge">
<title>Node11&#45;&gt;Node12</title>
<path fill="none" stroke="midnightblue" d="M555.69,-21.94C547.06,-21.41 538.44,-20.89 530.05,-20.37"/>
<polygon fill="midnightblue" stroke="midnightblue" points="555.62,-25.44 565.81,-22.55 556.04,-18.45 555.62,-25.44"/>
</g>
</g>
</svg>
