<?xml version="1.0" encoding="UTF-8" standalone="no"?>
<!DOCTYPE svg PUBLIC "-//W3C//DTD SVG 1.1//EN"
 "http://www.w3.org/Graphics/SVG/1.1/DTD/svg11.dtd">
<!-- Generated by graphviz version 3.0.0 (20221109.1736)
 -->
<!-- Title: denoptim.gui.VertexAsGraphViewPanel.clearAll Pages: 1 -->
<svg width="776pt" height="50pt"
 viewBox="0.00 0.00 776.00 50.00" xmlns="http://www.w3.org/2000/svg" xmlns:xlink="http://www.w3.org/1999/xlink">
<g id="graph0" class="graph" transform="scale(1 1) rotate(0) translate(4 46)">
<title>denoptim.gui.VertexAsGraphViewPanel.clearAll</title>
<polygon fill="white" stroke="transparent" points="-4,4 -4,-46 772,-46 772,4 -4,4"/>
<!-- Node1 -->
<g id="node1" class="node">
<title>Node1</title>
<g id="a_node1"><a xlink:title="Removes the currently visualized molecule and AP table.">
<polygon fill="#bfbfbf" stroke="black" points="0,-6 0,-36 140,-36 140,-6 0,-6"/>
<text text-anchor="start" x="8" y="-24" font-family="Helvetica,sans-Serif" font-size="10.00">denoptim.gui.VertexAsGraph</text>
<text text-anchor="middle" x="70" y="-13" font-family="Helvetica,sans-Serif" font-size="10.00">ViewPanel.clearAll</text>
</a>
</g>
</g>
<!-- Node2 -->
<g id="node2" class="node">
<title>Node2</title>
<g id="a_node2"><a xlink:href="classdenoptim_1_1gui_1_1_vertex_as_graph_view_panel.html#af9187da422f4f24b56b63c8e225b9c13" target="_top" xlink:title="Clears the table of attachment points.">
<polygon fill="white" stroke="black" points="176,-6 176,-36 316,-36 316,-6 176,-6"/>
<text text-anchor="start" x="184" y="-24" font-family="Helvetica,sans-Serif" font-size="10.00">denoptim.gui.VertexAsGraph</text>
<text text-anchor="middle" x="246" y="-13" font-family="Helvetica,sans-Serif" font-size="10.00">ViewPanel.clearAPTable</text>
</a>
</g>
</g>
<!-- Node1&#45;&gt;Node2 -->
<g id="edge1" class="edge">
<title>Node1&#45;&gt;Node2</title>
<path fill="none" stroke="midnightblue" d="M140.02,-21C148.48,-21 157.17,-21 165.76,-21"/>
<polygon fill="midnightblue" stroke="midnightblue" points="165.78,-24.5 175.78,-21 165.78,-17.5 165.78,-24.5"/>
</g>
<!-- Node3 -->
<g id="node3" class="node">
<title>Node3</title>
<g id="a_node3"><a xlink:href="classdenoptim_1_1gui_1_1_vertex_as_graph_view_panel.html#a87f08fd10d2e9ce079c42619f52317e3" target="_top" xlink:title="Allows to activate and deactivate the listener.">
<polygon fill="white" stroke="black" points="352,-6 352,-36 525,-36 525,-6 352,-6"/>
<text text-anchor="start" x="360" y="-24" font-family="Helvetica,sans-Serif" font-size="10.00">denoptim.gui.VertexAsGraph</text>
<text text-anchor="middle" x="438.5" y="-13" font-family="Helvetica,sans-Serif" font-size="10.00">ViewPanel.activateTabEditsListener</text>
</a>
</g>
</g>
<!-- Node2&#45;&gt;Node3 -->
<g id="edge2" class="edge">
<title>Node2&#45;&gt;Node3</title>
<path fill="none" stroke="midnightblue" d="M316.04,-21C324.39,-21 333.02,-21 341.66,-21"/>
<polygon fill="midnightblue" stroke="midnightblue" points="341.79,-24.5 351.79,-21 341.79,-17.5 341.79,-24.5"/>
</g>
<!-- Node4 -->
<g id="node4" class="node">
<title>Node4</title>
<g id="a_node4"><a xlink:href="classdenoptim_1_1gui_1_1_vertex_as_graph_view_panel_1_1_pausable_table_model_listener.html#a37b99134be224897be59444fca4734bf" target="_top" xlink:title=" ">
<polygon fill="white" stroke="black" points="561,-0.5 561,-41.5 768,-41.5 768,-0.5 561,-0.5"/>
<text text-anchor="start" x="569" y="-29.5" font-family="Helvetica,sans-Serif" font-size="10.00">denoptim.gui.VertexAsGraph</text>
<text text-anchor="start" x="569" y="-18.5" font-family="Helvetica,sans-Serif" font-size="10.00">ViewPanel.PausableTableModelListener.set</text>
<text text-anchor="middle" x="664.5" y="-7.5" font-family="Helvetica,sans-Serif" font-size="10.00">Active</text>
</a>
</g>
</g>
<!-- Node3&#45;&gt;Node4 -->
<g id="edge3" class="edge">
<title>Node3&#45;&gt;Node4</title>
<path fill="none" stroke="midnightblue" d="M525.14,-21C533.49,-21 542.04,-21 550.6,-21"/>
<polygon fill="midnightblue" stroke="midnightblue" points="550.64,-24.5 560.64,-21 550.64,-17.5 550.64,-24.5"/>
</g>
</g>
</svg>
