<?xml version="1.0" encoding="UTF-8" standalone="no"?>
<!DOCTYPE svg PUBLIC "-//W3C//DTD SVG 1.1//EN"
 "http://www.w3.org/Graphics/SVG/1.1/DTD/svg11.dtd">
<!-- Generated by graphviz version 3.0.0 (20221109.1736)
 -->
<!-- Title: denoptim.gui.FSEParametersForm.putParametersToString Pages: 1 -->
<svg width="577pt" height="185pt"
 viewBox="0.00 0.00 577.00 185.00" xmlns="http://www.w3.org/2000/svg" xmlns:xlink="http://www.w3.org/1999/xlink">
<g id="graph0" class="graph" transform="scale(1 1) rotate(0) translate(4 181)">
<title>denoptim.gui.FSEParametersForm.putParametersToString</title>
<polygon fill="white" stroke="transparent" points="-4,4 -4,-181 573,-181 573,4 -4,4"/>
<!-- Node1 -->
<g id="node1" class="node">
<title>Node1</title>
<g id="a_node1"><a xlink:title=" ">
<polygon fill="#bfbfbf" stroke="black" points="0,-97.5 0,-127.5 143,-127.5 143,-97.5 0,-97.5"/>
<text text-anchor="start" x="8" y="-115.5" font-family="Helvetica,sans-Serif" font-size="10.00">denoptim.gui.FSEParameters</text>
<text text-anchor="middle" x="71.5" y="-104.5" font-family="Helvetica,sans-Serif" font-size="10.00">Form.putParametersToString</text>
</a>
</g>
</g>
<!-- Node2 -->
<g id="node2" class="node">
<title>Node2</title>
<g id="a_node2"><a xlink:href="classdenoptim_1_1gui_1_1_parameters_form.html#adba801c985eb2aa293c9dc1ce455fb63" target="_top" xlink:title="Produced the KEY:VALUE string for a general text field.">
<polygon fill="white" stroke="black" points="189,-146.5 189,-176.5 351,-176.5 351,-146.5 189,-146.5"/>
<text text-anchor="start" x="197" y="-164.5" font-family="Helvetica,sans-Serif" font-size="10.00">denoptim.gui.ParametersForm.get</text>
<text text-anchor="middle" x="270" y="-153.5" font-family="Helvetica,sans-Serif" font-size="10.00">StringIfNotEmpty</text>
</a>
</g>
</g>
<!-- Node1&#45;&gt;Node2 -->
<g id="edge1" class="edge">
<title>Node1&#45;&gt;Node2</title>
<path fill="none" stroke="midnightblue" d="M132.79,-127.53C153.73,-132.76 177.38,-138.65 199.03,-144.05"/>
<polygon fill="midnightblue" stroke="midnightblue" points="198.27,-147.47 208.82,-146.49 199.97,-140.68 198.27,-147.47"/>
</g>
<!-- Node3 -->
<g id="node3" class="node">
<title>Node3</title>
<g id="a_node3"><a xlink:href="classdenoptim_1_1gui_1_1_parameters_form.html#a1879098dd089c42923a2ced5c837bbdf" target="_top" xlink:title=" ">
<polygon fill="white" stroke="black" points="189,-97.5 189,-127.5 351,-127.5 351,-97.5 189,-97.5"/>
<text text-anchor="start" x="197" y="-115.5" font-family="Helvetica,sans-Serif" font-size="10.00">denoptim.gui.ParametersForm.get</text>
<text text-anchor="middle" x="270" y="-104.5" font-family="Helvetica,sans-Serif" font-size="10.00">TextForUnformattedSettings</text>
</a>
</g>
</g>
<!-- Node1&#45;&gt;Node3 -->
<g id="edge2" class="edge">
<title>Node1&#45;&gt;Node3</title>
<path fill="none" stroke="midnightblue" d="M143.16,-112.5C154.77,-112.5 166.93,-112.5 178.93,-112.5"/>
<polygon fill="midnightblue" stroke="midnightblue" points="178.96,-116 188.96,-112.5 178.96,-109 178.96,-116"/>
</g>
<!-- Node4 -->
<g id="node4" class="node">
<title>Node4</title>
<g id="a_node4"><a xlink:href="classdenoptim_1_1gui_1_1_f_s_e_parameters_form.html#a1234cecc07c0e1f8f33a1adbd42b26be" target="_top" xlink:title="Imports parameters from a properly formatted parameters file.">
<polygon fill="white" stroke="black" points="179,-19 179,-60 361,-60 361,-19 179,-19"/>
<text text-anchor="start" x="187" y="-48" font-family="Helvetica,sans-Serif" font-size="10.00">denoptim.gui.FSEParameters</text>
<text text-anchor="start" x="187" y="-37" font-family="Helvetica,sans-Serif" font-size="10.00">Form.importParametersFromDenoptim</text>
<text text-anchor="middle" x="270" y="-26" font-family="Helvetica,sans-Serif" font-size="10.00">ParamsFile</text>
</a>
</g>
</g>
<!-- Node1&#45;&gt;Node4 -->
<g id="edge3" class="edge">
<title>Node1&#45;&gt;Node4</title>
<path fill="none" stroke="midnightblue" d="M113.21,-97.37C139.49,-87.61 174.23,-74.71 204.24,-63.56"/>
<polygon fill="midnightblue" stroke="midnightblue" points="205.65,-66.77 213.8,-60.01 203.21,-60.21 205.65,-66.77"/>
</g>
<!-- Node4&#45;&gt;Node4 -->
<g id="edge5" class="edge">
<title>Node4&#45;&gt;Node4</title>
<path fill="none" stroke="midnightblue" d="M233.61,-60.36C229.64,-70.04 241.77,-78.5 270,-78.5 287.64,-78.5 299,-75.2 304.06,-70.36"/>
<polygon fill="midnightblue" stroke="midnightblue" points="307.53,-70.9 306.39,-60.36 300.71,-69.31 307.53,-70.9"/>
</g>
<!-- Node5 -->
<g id="node5" class="node">
<title>Node5</title>
<g id="a_node5"><a xlink:href="classdenoptim_1_1gui_1_1_parameters_form.html#a32d73057266a7b76fdf463cbf4400547" target="_top" xlink:title=" ">
<polygon fill="white" stroke="black" points="398,-49.5 398,-79.5 568,-79.5 568,-49.5 398,-49.5"/>
<text text-anchor="start" x="406" y="-67.5" font-family="Helvetica,sans-Serif" font-size="10.00">denoptim.gui.ParametersForm.clear</text>
<text text-anchor="middle" x="483" y="-56.5" font-family="Helvetica,sans-Serif" font-size="10.00">UnformattedTxtArea</text>
</a>
</g>
</g>
<!-- Node4&#45;&gt;Node5 -->
<g id="edge4" class="edge">
<title>Node4&#45;&gt;Node5</title>
<path fill="none" stroke="midnightblue" d="M361.1,-50.17C369.97,-51.23 378.98,-52.29 387.89,-53.35"/>
<polygon fill="midnightblue" stroke="midnightblue" points="387.55,-56.83 397.89,-54.53 388.37,-49.88 387.55,-56.83"/>
</g>
<!-- Node6 -->
<g id="node6" class="node">
<title>Node6</title>
<g id="a_node6"><a xlink:href="classdenoptim_1_1gui_1_1_parameters_form.html#aa73e9df9398e76e8f146f8b70e4a468c" target="_top" xlink:title="Shown a warning dialog that informs the user about having found text that is not present in the Param...">
<polygon fill="white" stroke="black" points="397,-0.5 397,-30.5 569,-30.5 569,-0.5 397,-0.5"/>
<text text-anchor="start" x="405" y="-18.5" font-family="Helvetica,sans-Serif" font-size="10.00">denoptim.gui.ParametersForm.show</text>
<text text-anchor="middle" x="483" y="-7.5" font-family="Helvetica,sans-Serif" font-size="10.00">UnknownKeyWarning</text>
</a>
</g>
</g>
<!-- Node4&#45;&gt;Node6 -->
<g id="edge6" class="edge">
<title>Node4&#45;&gt;Node6</title>
<path fill="none" stroke="midnightblue" d="M361.1,-29.25C369.63,-28.28 378.3,-27.3 386.88,-26.32"/>
<polygon fill="midnightblue" stroke="midnightblue" points="387.35,-29.79 396.89,-25.18 386.56,-22.83 387.35,-29.79"/>
</g>
</g>
</svg>
