<?xml version="1.0" encoding="UTF-8" standalone="no"?>
<!DOCTYPE svg PUBLIC "-//W3C//DTD SVG 1.1//EN"
 "http://www.w3.org/Graphics/SVG/1.1/DTD/svg11.dtd">
<!-- Generated by graphviz version 3.0.0 (20221109.1736)
 -->
<!-- Title: denoptim.graph.DGraph.containsAtoms Pages: 1 -->
<svg width="2311pt" height="364pt"
 viewBox="0.00 0.00 2311.00 363.62" xmlns="http://www.w3.org/2000/svg" xmlns:xlink="http://www.w3.org/1999/xlink">
<g id="graph0" class="graph" transform="scale(1 1) rotate(0) translate(4 359.62)">
<title>denoptim.graph.DGraph.containsAtoms</title>
<polygon fill="white" stroke="transparent" points="-4,4 -4,-359.62 2307,-359.62 2307,4 -4,4"/>
<!-- Node1 -->
<g id="node1" class="node">
<title>Node1</title>
<g id="a_node1"><a xlink:title="Returns true if this graph has any vertex that contains atoms.">
<polygon fill="#bfbfbf" stroke="black" points="2146,-259.42 2146,-289.42 2303,-289.42 2303,-259.42 2146,-259.42"/>
<text text-anchor="start" x="2154" y="-277.42" font-family="Helvetica,sans-Serif" font-size="10.00">denoptim.graph.DGraph.contains</text>
<text text-anchor="middle" x="2224.5" y="-266.42" font-family="Helvetica,sans-Serif" font-size="10.00">Atoms</text>
</a>
</g>
</g>
<!-- Node2 -->
<g id="node2" class="node">
<title>Node2</title>
<g id="a_node2"><a xlink:href="classdenoptim_1_1graph_1_1_template.html#a3ce90b32843fd429b54ef474154fe4da" target="_top" xlink:title=" ">
<polygon fill="white" stroke="black" points="1946,-232.42 1946,-262.42 2110,-262.42 2110,-232.42 1946,-232.42"/>
<text text-anchor="start" x="1954" y="-250.42" font-family="Helvetica,sans-Serif" font-size="10.00">denoptim.graph.Template.contains</text>
<text text-anchor="middle" x="2028" y="-239.42" font-family="Helvetica,sans-Serif" font-size="10.00">Atoms</text>
</a>
</g>
</g>
<!-- Node1&#45;&gt;Node2 -->
<g id="edge1" class="edge">
<title>Node1&#45;&gt;Node2</title>
<path fill="none" stroke="midnightblue" d="M2135.8,-262.25C2127.24,-261.06 2118.58,-259.86 2110.09,-258.68"/>
<polygon fill="midnightblue" stroke="midnightblue" points="2135.4,-265.73 2145.79,-263.63 2136.37,-258.79 2135.4,-265.73"/>
</g>
<!-- Node26 -->
<g id="node26" class="node">
<title>Node26</title>
<g id="a_node26"><a xlink:href="classdenoptim_1_1gui_1_1_graph_vertex_mol_viewer_panel.html#afb0f2245fdfc8158581b4cbcf2b239d1" target="_top" xlink:title="Updates the molecular representation of the loaded graph.">
<polygon fill="white" stroke="black" points="1947.5,-296.92 1947.5,-337.92 2108.5,-337.92 2108.5,-296.92 1947.5,-296.92"/>
<text text-anchor="start" x="1955.5" y="-325.92" font-family="Helvetica,sans-Serif" font-size="10.00">denoptim.gui.GraphVertex</text>
<text text-anchor="start" x="1955.5" y="-314.92" font-family="Helvetica,sans-Serif" font-size="10.00">MolViewerPanel.updateMolevular</text>
<text text-anchor="middle" x="2028" y="-303.92" font-family="Helvetica,sans-Serif" font-size="10.00">Viewer</text>
</a>
</g>
</g>
<!-- Node1&#45;&gt;Node26 -->
<g id="edge33" class="edge">
<title>Node1&#45;&gt;Node26</title>
<path fill="none" stroke="midnightblue" d="M2145.42,-291.68C2133.32,-294.36 2120.8,-297.13 2108.66,-299.81"/>
<polygon fill="midnightblue" stroke="midnightblue" points="2146.46,-295.04 2155.47,-289.46 2144.95,-288.2 2146.46,-295.04"/>
</g>
<!-- Node3 -->
<g id="node3" class="node">
<title>Node3</title>
<g id="a_node3"><a xlink:href="classdenoptim_1_1gui_1_1_vertex_view_panel.html#a23695fc49f5ff660a828bddbf74a5006" target="_top" xlink:title="Loads the given template to this viewer.">
<polygon fill="white" stroke="black" points="1742,-199.42 1742,-229.42 1910,-229.42 1910,-199.42 1742,-199.42"/>
<text text-anchor="start" x="1750" y="-217.42" font-family="Helvetica,sans-Serif" font-size="10.00">denoptim.gui.VertexViewPanel.load</text>
<text text-anchor="middle" x="1826" y="-206.42" font-family="Helvetica,sans-Serif" font-size="10.00">TemplateToViewer</text>
</a>
</g>
</g>
<!-- Node2&#45;&gt;Node3 -->
<g id="edge2" class="edge">
<title>Node2&#45;&gt;Node3</title>
<path fill="none" stroke="midnightblue" d="M1935.91,-232.39C1927.32,-230.97 1918.64,-229.54 1910.13,-228.14"/>
<polygon fill="midnightblue" stroke="midnightblue" points="1935.5,-235.87 1945.94,-234.05 1936.64,-228.97 1935.5,-235.87"/>
</g>
<!-- Node4 -->
<g id="node4" class="node">
<title>Node4</title>
<g id="a_node4"><a xlink:href="classdenoptim_1_1gui_1_1_vertex_view_panel.html#a697ecc5ef3352a5860a6a6a355d87d1b" target="_top" xlink:title="Loads the given vertex to this viewer.">
<polygon fill="white" stroke="black" points="1534.5,-133.42 1534.5,-163.42 1702.5,-163.42 1702.5,-133.42 1534.5,-133.42"/>
<text text-anchor="start" x="1542.5" y="-151.42" font-family="Helvetica,sans-Serif" font-size="10.00">denoptim.gui.VertexViewPanel.load</text>
<text text-anchor="middle" x="1618.5" y="-140.42" font-family="Helvetica,sans-Serif" font-size="10.00">VertexToViewer</text>
</a>
</g>
</g>
<!-- Node3&#45;&gt;Node4 -->
<g id="edge3" class="edge">
<title>Node3&#45;&gt;Node4</title>
<path fill="none" stroke="midnightblue" d="M1768.44,-196.26C1736.42,-185.97 1696.85,-173.26 1666.54,-163.53"/>
<polygon fill="midnightblue" stroke="midnightblue" points="1767.52,-199.64 1778.11,-199.36 1769.66,-192.97 1767.52,-199.64"/>
</g>
<!-- Node5 -->
<g id="node5" class="node">
<title>Node5</title>
<g id="a_node5"><a xlink:href="classdenoptim_1_1gui_1_1_g_u_i_vertex_inspector.html#acadecc92299a7ea46113c06382a1f333" target="_top" xlink:title="Initialize the panel and add buttons.">
<polygon fill="white" stroke="black" points="852,-85.92 852,-104.92 1049,-104.92 1049,-85.92 852,-85.92"/>
<text text-anchor="middle" x="950.5" y="-92.92" font-family="Helvetica,sans-Serif" font-size="10.00">denoptim.gui.GUIVertexInspector.initialize</text>
</a>
</g>
</g>
<!-- Node4&#45;&gt;Node5 -->
<g id="edge4" class="edge">
<title>Node4&#45;&gt;Node5</title>
<path fill="none" stroke="midnightblue" d="M1578.87,-128.67C1517.35,-98.43 1392.44,-42 1279,-21.42 1194.16,-6.03 1161.93,17.52 1085,-21.42 1060.89,-33.63 1071.39,-55.3 1049,-70.42 1038.86,-77.27 1026.98,-82.24 1015.06,-85.85"/>
<polygon fill="midnightblue" stroke="midnightblue" points="1577.68,-131.98 1588.19,-133.28 1580.79,-125.71 1577.68,-131.98"/>
</g>
<!-- Node7 -->
<g id="node7" class="node">
<title>Node7</title>
<g id="a_node7"><a xlink:href="classdenoptim_1_1gui_1_1_g_u_i_vertex_inspector.html#ad9676f2418e5c4221fd7927d68cedad5" target="_top" xlink:title="Loads the fragments corresponding to the field index.">
<polygon fill="white" stroke="black" points="1315,-129.42 1315,-159.42 1495,-159.42 1495,-129.42 1315,-129.42"/>
<text text-anchor="start" x="1323" y="-147.42" font-family="Helvetica,sans-Serif" font-size="10.00">denoptim.gui.GUIVertexInspector.load</text>
<text text-anchor="middle" x="1405" y="-136.42" font-family="Helvetica,sans-Serif" font-size="10.00">CurrentVrtxIdxToViewer</text>
</a>
</g>
</g>
<!-- Node4&#45;&gt;Node7 -->
<g id="edge6" class="edge">
<title>Node4&#45;&gt;Node7</title>
<path fill="none" stroke="midnightblue" d="M1524.21,-146.66C1514.55,-146.47 1504.75,-146.29 1495.14,-146.11"/>
<polygon fill="midnightblue" stroke="midnightblue" points="1524.15,-150.16 1534.21,-146.85 1524.28,-143.16 1524.15,-150.16"/>
</g>
<!-- Node18 -->
<g id="node18" class="node">
<title>Node18</title>
<g id="a_node18"><a xlink:href="classdenoptim_1_1gui_1_1_g_u_i_vertex_selector.html#a9a6057c6f67098a32bd84f4f7bffe4a8" target="_top" xlink:title="Loads the vertices corresponding to the field index.">
<polygon fill="white" stroke="black" points="1317,-227.42 1317,-257.42 1493,-257.42 1493,-227.42 1317,-227.42"/>
<text text-anchor="start" x="1325" y="-245.42" font-family="Helvetica,sans-Serif" font-size="10.00">denoptim.gui.GUIVertexSelector.load</text>
<text text-anchor="middle" x="1405" y="-234.42" font-family="Helvetica,sans-Serif" font-size="10.00">CurrentVrtxIdxToViewer</text>
</a>
</g>
</g>
<!-- Node4&#45;&gt;Node18 -->
<g id="edge21" class="edge">
<title>Node4&#45;&gt;Node18</title>
<path fill="none" stroke="midnightblue" d="M1574.33,-167.61C1534.58,-185.27 1476.4,-211.13 1439.9,-227.36"/>
<polygon fill="midnightblue" stroke="midnightblue" points="1575.8,-170.78 1583.52,-163.52 1572.96,-164.39 1575.8,-170.78"/>
</g>
<!-- Node6 -->
<g id="node6" class="node">
<title>Node6</title>
<g id="a_node6"><a xlink:href="classdenoptim_1_1gui_1_1_g_u_i_vertex_inspector.html#abc5d3c33ad9b2b114ce43e9b2cd577bb" target="_top" xlink:title="Constructor.">
<polygon fill="white" stroke="black" points="623,-80.42 623,-110.42 785,-110.42 785,-80.42 623,-80.42"/>
<text text-anchor="start" x="631" y="-98.42" font-family="Helvetica,sans-Serif" font-size="10.00">denoptim.gui.GUIVertexInspector.</text>
<text text-anchor="middle" x="704" y="-87.42" font-family="Helvetica,sans-Serif" font-size="10.00">GUIVertexInspector</text>
</a>
</g>
</g>
<!-- Node5&#45;&gt;Node6 -->
<g id="edge5" class="edge">
<title>Node5&#45;&gt;Node6</title>
<path fill="none" stroke="midnightblue" d="M841.65,-95.42C822.71,-95.42 803.3,-95.42 785.27,-95.42"/>
<polygon fill="midnightblue" stroke="midnightblue" points="841.81,-98.92 851.81,-95.42 841.81,-91.92 841.81,-98.92"/>
</g>
<!-- Node8 -->
<g id="node8" class="node">
<title>Node8</title>
<g id="a_node8"><a xlink:href="classdenoptim_1_1gui_1_1_g_u_i_vertex_inspector.html#a69d3deb57097286f9a01cdf256ec8d65" target="_top" xlink:title="Imports vertices.">
<polygon fill="white" stroke="black" points="1087.5,-31.42 1087.5,-61.42 1276.5,-61.42 1276.5,-31.42 1087.5,-31.42"/>
<text text-anchor="start" x="1095.5" y="-49.42" font-family="Helvetica,sans-Serif" font-size="10.00">denoptim.gui.GUIVertexInspector.import</text>
<text text-anchor="middle" x="1182" y="-38.42" font-family="Helvetica,sans-Serif" font-size="10.00">Vertices</text>
</a>
</g>
</g>
<!-- Node7&#45;&gt;Node8 -->
<g id="edge7" class="edge">
<title>Node7&#45;&gt;Node8</title>
<path fill="none" stroke="midnightblue" d="M1374.39,-123.54C1349.83,-107.07 1313.49,-84.59 1279,-70.42 1270.82,-67.06 1262.04,-64.08 1253.24,-61.46"/>
<polygon fill="midnightblue" stroke="midnightblue" points="1372.63,-126.58 1382.87,-129.31 1376.57,-120.8 1372.63,-126.58"/>
</g>
<!-- Node15 -->
<g id="node15" class="node">
<title>Node15</title>
<g id="a_node15"><a xlink:href="classdenoptim_1_1gui_1_1_g_u_i_vertex_inspector.html#a6e5cc3cb1cd2f98bf03934b3b2defa22" target="_top" xlink:title=" ">
<polygon fill="white" stroke="black" points="1085,-80.42 1085,-110.42 1279,-110.42 1279,-80.42 1085,-80.42"/>
<text text-anchor="start" x="1093" y="-98.42" font-family="Helvetica,sans-Serif" font-size="10.00">denoptim.gui.GUIVertexInspector.remove</text>
<text text-anchor="middle" x="1182" y="-87.42" font-family="Helvetica,sans-Serif" font-size="10.00">CurrentVrtx</text>
</a>
</g>
</g>
<!-- Node7&#45;&gt;Node15 -->
<g id="edge16" class="edge">
<title>Node7&#45;&gt;Node15</title>
<path fill="none" stroke="midnightblue" d="M1326.16,-127.16C1301.54,-121.7 1274.53,-115.72 1250.68,-110.43"/>
<polygon fill="midnightblue" stroke="midnightblue" points="1325.67,-130.64 1336.19,-129.39 1327.19,-123.81 1325.67,-130.64"/>
</g>
<!-- Node16 -->
<g id="node16" class="node">
<title>Node16</title>
<g id="a_node16"><a xlink:href="classdenoptim_1_1gui_1_1_g_u_i_vertex_inspector.html#a09363e21a5254efe8f128a99e82acbf0" target="_top" xlink:title=" ">
<polygon fill="white" stroke="black" points="1090.5,-178.42 1090.5,-208.42 1273.5,-208.42 1273.5,-178.42 1090.5,-178.42"/>
<text text-anchor="start" x="1098.5" y="-196.42" font-family="Helvetica,sans-Serif" font-size="10.00">denoptim.gui.GUIVertexInspector.save</text>
<text text-anchor="middle" x="1182" y="-185.42" font-family="Helvetica,sans-Serif" font-size="10.00">UnsavedChanges</text>
</a>
</g>
</g>
<!-- Node7&#45;&gt;Node16 -->
<g id="edge18" class="edge">
<title>Node7&#45;&gt;Node16</title>
<path fill="none" stroke="midnightblue" d="M1326.16,-161.68C1301.54,-167.14 1274.53,-173.13 1250.68,-178.42"/>
<polygon fill="midnightblue" stroke="midnightblue" points="1327.19,-165.04 1336.19,-159.46 1325.67,-158.2 1327.19,-165.04"/>
</g>
<!-- Node17 -->
<g id="node17" class="node">
<title>Node17</title>
<g id="a_node17"><a xlink:href="classdenoptim_1_1gui_1_1_g_u_i_vertex_inspector_1_1_vrtx_spinner_change_event.html#aca98b170c98a615d12f199d1ccdd26dd" target="_top" xlink:title=" ">
<polygon fill="white" stroke="black" points="1088.5,-129.42 1088.5,-159.42 1275.5,-159.42 1275.5,-129.42 1088.5,-129.42"/>
<text text-anchor="start" x="1096.5" y="-147.42" font-family="Helvetica,sans-Serif" font-size="10.00">denoptim.gui.GUIVertexInspector.</text>
<text text-anchor="middle" x="1182" y="-136.42" font-family="Helvetica,sans-Serif" font-size="10.00">VrtxSpinnerChangeEvent.stateChanged</text>
</a>
</g>
</g>
<!-- Node7&#45;&gt;Node17 -->
<g id="edge20" class="edge">
<title>Node7&#45;&gt;Node17</title>
<path fill="none" stroke="midnightblue" d="M1304.46,-144.42C1294.93,-144.42 1285.29,-144.42 1275.83,-144.42"/>
<polygon fill="midnightblue" stroke="midnightblue" points="1304.75,-147.92 1314.75,-144.42 1304.75,-140.92 1304.75,-147.92"/>
</g>
<!-- Node8&#45;&gt;Node5 -->
<g id="edge15" class="edge">
<title>Node8&#45;&gt;Node5</title>
<path fill="none" stroke="midnightblue" d="M1100.37,-63.64C1065.37,-71.11 1025.7,-79.58 996.13,-85.89"/>
<polygon fill="midnightblue" stroke="midnightblue" points="1101.53,-66.97 1110.58,-61.46 1100.07,-60.12 1101.53,-66.97"/>
</g>
<!-- Node9 -->
<g id="node9" class="node">
<title>Node9</title>
<g id="a_node9"><a xlink:href="classdenoptim_1_1gui_1_1_g_u_i_vertex_inspector.html#a6698fa37bf04503e58c61f0543946834" target="_top" xlink:title="Imports fragments from a file.">
<polygon fill="white" stroke="black" points="856,-31.42 856,-61.42 1045,-61.42 1045,-31.42 856,-31.42"/>
<text text-anchor="start" x="864" y="-49.42" font-family="Helvetica,sans-Serif" font-size="10.00">denoptim.gui.GUIVertexInspector.import</text>
<text text-anchor="middle" x="950.5" y="-38.42" font-family="Helvetica,sans-Serif" font-size="10.00">VerticesFromFile</text>
</a>
</g>
</g>
<!-- Node8&#45;&gt;Node9 -->
<g id="edge8" class="edge">
<title>Node8&#45;&gt;Node9</title>
<path fill="none" stroke="midnightblue" d="M1077.17,-46.42C1066.54,-46.42 1055.77,-46.42 1045.25,-46.42"/>
<polygon fill="midnightblue" stroke="midnightblue" points="1077.32,-49.92 1087.32,-46.42 1077.32,-42.92 1077.32,-49.92"/>
</g>
<!-- Node10 -->
<g id="node10" class="node">
<title>Node10</title>
<g id="a_node10"><a xlink:href="classdenoptim_1_1gui_1_1_main_tool_bar.html#a1a2e06a2647032587d42155302b8c0a6" target="_top" xlink:title="Process a file that has a recognized file format and loads a suitable GUI card to visualize the file ...">
<polygon fill="white" stroke="black" points="620.5,-36.92 620.5,-55.92 787.5,-55.92 787.5,-36.92 620.5,-36.92"/>
<text text-anchor="middle" x="704" y="-43.92" font-family="Helvetica,sans-Serif" font-size="10.00">denoptim.gui.MainToolBar.openFile</text>
</a>
</g>
</g>
<!-- Node9&#45;&gt;Node10 -->
<g id="edge9" class="edge">
<title>Node9&#45;&gt;Node10</title>
<path fill="none" stroke="midnightblue" d="M845.64,-46.42C826.32,-46.42 806.38,-46.42 787.8,-46.42"/>
<polygon fill="midnightblue" stroke="midnightblue" points="845.67,-49.92 855.67,-46.42 845.67,-42.92 845.67,-49.92"/>
</g>
<!-- Node11 -->
<g id="node11" class="node">
<title>Node11</title>
<g id="a_node11"><a xlink:href="classdenoptim_1_1gui_1_1_main_tool_bar.html#a0df9ca063352fbc50f9476f3b2820926" target="_top" xlink:title="Initialize the contents of the tool bar.">
<polygon fill="white" stroke="black" points="167,-39.92 167,-58.92 332,-58.92 332,-39.92 167,-39.92"/>
<text text-anchor="middle" x="249.5" y="-46.92" font-family="Helvetica,sans-Serif" font-size="10.00">denoptim.gui.MainToolBar.initialize</text>
</a>
</g>
</g>
<!-- Node10&#45;&gt;Node11 -->
<g id="edge10" class="edge">
<title>Node10&#45;&gt;Node11</title>
<path fill="none" stroke="midnightblue" d="M632.89,-35.49C608.61,-32.21 581.17,-29.04 556,-27.42 472.62,-22.06 451.2,-19.7 368,-27.42 342.17,-29.82 313.55,-35.12 291.02,-39.92"/>
<polygon fill="midnightblue" stroke="midnightblue" points="632.71,-39 643.09,-36.91 633.67,-32.07 632.71,-39"/>
</g>
<!-- Node13 -->
<g id="node13" class="node">
<title>Node13</title>
<g id="a_node13"><a xlink:href="classdenoptim_1_1gui_1_1_g_u_i.html#a460fa99497f04de06d2adf8671a92441" target="_top" xlink:title="Launch the application.">
<polygon fill="white" stroke="black" points="408.5,-36.92 408.5,-55.92 515.5,-55.92 515.5,-36.92 408.5,-36.92"/>
<text text-anchor="middle" x="462" y="-43.92" font-family="Helvetica,sans-Serif" font-size="10.00">denoptim.gui.GUI.run</text>
</a>
</g>
</g>
<!-- Node10&#45;&gt;Node13 -->
<g id="edge12" class="edge">
<title>Node10&#45;&gt;Node13</title>
<path fill="none" stroke="midnightblue" d="M610.12,-46.42C578.09,-46.42 543.35,-46.42 515.67,-46.42"/>
<polygon fill="midnightblue" stroke="midnightblue" points="610.41,-49.92 620.41,-46.42 610.41,-42.92 610.41,-49.92"/>
</g>
<!-- Node14 -->
<g id="node14" class="node">
<title>Node14</title>
<g id="a_node14"><a xlink:href="classdenoptim_1_1gui_1_1_main_tool_bar.html#a94df24e485081c9b9d7441387f409e26" target="_top" xlink:title="Updated the the list of recent files in the &quot;open Recent&quot; menu.">
<polygon fill="white" stroke="black" points="382,-75.42 382,-105.42 542,-105.42 542,-75.42 382,-75.42"/>
<text text-anchor="start" x="390" y="-93.42" font-family="Helvetica,sans-Serif" font-size="10.00">denoptim.gui.MainToolBar.update</text>
<text text-anchor="middle" x="462" y="-82.42" font-family="Helvetica,sans-Serif" font-size="10.00">OpenRecentMenu</text>
</a>
</g>
</g>
<!-- Node10&#45;&gt;Node14 -->
<g id="edge13" class="edge">
<title>Node10&#45;&gt;Node14</title>
<path fill="none" stroke="midnightblue" d="M640.99,-57.79C610.91,-63.3 574.45,-69.99 542.37,-75.87"/>
<polygon fill="midnightblue" stroke="midnightblue" points="641.72,-61.21 650.92,-55.97 640.46,-54.33 641.72,-61.21"/>
</g>
<!-- Node12 -->
<g id="node12" class="node">
<title>Node12</title>
<g id="a_node12"><a xlink:href="classdenoptim_1_1gui_1_1_main_tool_bar.html#a36f4409849998e032342f49b19e6c5b5" target="_top" xlink:title="Constructor that build the tool bar.">
<polygon fill="white" stroke="black" points="0,-34.42 0,-64.42 131,-64.42 131,-34.42 0,-34.42"/>
<text text-anchor="start" x="8" y="-52.42" font-family="Helvetica,sans-Serif" font-size="10.00">denoptim.gui.MainToolBar.</text>
<text text-anchor="middle" x="65.5" y="-41.42" font-family="Helvetica,sans-Serif" font-size="10.00">MainToolBar</text>
</a>
</g>
</g>
<!-- Node11&#45;&gt;Node12 -->
<g id="edge11" class="edge">
<title>Node11&#45;&gt;Node12</title>
<path fill="none" stroke="midnightblue" d="M156.66,-49.42C147.99,-49.42 139.34,-49.42 131,-49.42"/>
<polygon fill="midnightblue" stroke="midnightblue" points="156.82,-52.92 166.82,-49.42 156.82,-45.92 156.82,-52.92"/>
</g>
<!-- Node14&#45;&gt;Node11 -->
<g id="edge14" class="edge">
<title>Node14&#45;&gt;Node11</title>
<path fill="none" stroke="midnightblue" d="M373.81,-73.44C348.46,-68.5 321.66,-63.28 299.55,-58.98"/>
<polygon fill="midnightblue" stroke="midnightblue" points="373.33,-76.91 383.81,-75.39 374.67,-70.04 373.33,-76.91"/>
</g>
<!-- Node15&#45;&gt;Node5 -->
<g id="edge17" class="edge">
<title>Node15&#45;&gt;Node5</title>
<path fill="none" stroke="midnightblue" d="M1074.4,-95.42C1065.95,-95.42 1057.44,-95.42 1049.06,-95.42"/>
<polygon fill="midnightblue" stroke="midnightblue" points="1074.67,-98.92 1084.67,-95.42 1074.67,-91.92 1074.67,-98.92"/>
</g>
<!-- Node16&#45;&gt;Node5 -->
<g id="edge19" class="edge">
<title>Node16&#45;&gt;Node5</title>
<path fill="none" stroke="midnightblue" d="M1104.62,-175.37C1097.92,-173.24 1091.29,-170.92 1085,-168.42 1039.57,-150.4 990.08,-120.3 966.13,-104.99"/>
<polygon fill="midnightblue" stroke="midnightblue" points="1103.88,-178.81 1114.47,-178.37 1105.92,-172.11 1103.88,-178.81"/>
</g>
<!-- Node19 -->
<g id="node19" class="node">
<title>Node19</title>
<g id="a_node19"><a xlink:href="classdenoptim_1_1gui_1_1_g_u_i_vertex_selector.html#a15c6a5de34e54f74d33c7c82f2a3125d" target="_top" xlink:title="Load the list of vertexes to choose from.">
<polygon fill="white" stroke="black" points="1094,-276.92 1094,-295.92 1270,-295.92 1270,-276.92 1094,-276.92"/>
<text text-anchor="middle" x="1182" y="-283.92" font-family="Helvetica,sans-Serif" font-size="10.00">denoptim.gui.GUIVertexSelector.load</text>
</a>
</g>
</g>
<!-- Node18&#45;&gt;Node19 -->
<g id="edge22" class="edge">
<title>Node18&#45;&gt;Node19</title>
<path fill="none" stroke="midnightblue" d="M1318.86,-259.47C1305.52,-262.14 1291.89,-264.86 1279,-267.42 1263.5,-270.5 1246.6,-273.86 1231.35,-276.87"/>
<polygon fill="midnightblue" stroke="midnightblue" points="1319.86,-262.84 1328.98,-257.45 1318.49,-255.98 1319.86,-262.84"/>
</g>
<!-- Node25 -->
<g id="node25" class="node">
<title>Node25</title>
<g id="a_node25"><a xlink:href="classdenoptim_1_1gui_1_1_g_u_i_vertex_selector_1_1_vrtx_spinner_change_event.html#aa4094444bbbf29fde85df9440ab5c0e7" target="_top" xlink:title=" ">
<polygon fill="white" stroke="black" points="1088.5,-227.42 1088.5,-257.42 1275.5,-257.42 1275.5,-227.42 1088.5,-227.42"/>
<text text-anchor="start" x="1096.5" y="-245.42" font-family="Helvetica,sans-Serif" font-size="10.00">denoptim.gui.GUIVertexSelector.</text>
<text text-anchor="middle" x="1182" y="-234.42" font-family="Helvetica,sans-Serif" font-size="10.00">VrtxSpinnerChangeEvent.stateChanged</text>
</a>
</g>
</g>
<!-- Node18&#45;&gt;Node25 -->
<g id="edge32" class="edge">
<title>Node18&#45;&gt;Node25</title>
<path fill="none" stroke="midnightblue" d="M1306.75,-242.42C1296.46,-242.42 1286.01,-242.42 1275.77,-242.42"/>
<polygon fill="midnightblue" stroke="midnightblue" points="1306.97,-245.92 1316.97,-242.42 1306.97,-238.92 1306.97,-245.92"/>
</g>
<!-- Node19&#45;&gt;Node5 -->
<g id="edge30" class="edge">
<title>Node19&#45;&gt;Node5</title>
<path fill="none" stroke="midnightblue" d="M1093.51,-272.64C1090.55,-271.07 1087.7,-269.34 1085,-267.42 1059.32,-249.22 1067.47,-231.91 1049,-206.42 1019.96,-166.33 979.29,-123.6 961.03,-105"/>
<polygon fill="midnightblue" stroke="midnightblue" points="1092.11,-275.85 1102.66,-276.87 1095.05,-269.5 1092.11,-275.85"/>
</g>
<!-- Node20 -->
<g id="node20" class="node">
<title>Node20</title>
<g id="a_node20"><a xlink:href="classdenoptim_1_1gui_1_1_g_u_i_graph_handler.html#af7024886a4203aa93d8cf7975f7c2e72" target="_top" xlink:title=" ">
<polygon fill="white" stroke="black" points="860,-249.42 860,-279.42 1041,-279.42 1041,-249.42 860,-249.42"/>
<text text-anchor="start" x="868" y="-267.42" font-family="Helvetica,sans-Serif" font-size="10.00">denoptim.gui.GUIGraphHandler.create</text>
<text text-anchor="middle" x="950.5" y="-256.42" font-family="Helvetica,sans-Serif" font-size="10.00">EmptyVertexAndPlaceItInGraph</text>
</a>
</g>
</g>
<!-- Node19&#45;&gt;Node20 -->
<g id="edge23" class="edge">
<title>Node19&#45;&gt;Node20</title>
<path fill="none" stroke="midnightblue" d="M1083.72,-277.1C1069.61,-275.74 1055.15,-274.36 1041.2,-273.02"/>
<polygon fill="midnightblue" stroke="midnightblue" points="1083.62,-280.6 1093.91,-278.07 1084.29,-273.63 1083.62,-280.6"/>
</g>
<!-- Node23 -->
<g id="node23" class="node">
<title>Node23</title>
<g id="a_node23"><a xlink:href="classdenoptim_1_1gui_1_1_g_u_i_graph_handler.html#a857bfe6291322daccf2af3fd9a28a356" target="_top" xlink:title="Start the construction of a new graph from scratch.">
<polygon fill="white" stroke="black" points="592,-293.42 592,-323.42 816,-323.42 816,-293.42 592,-293.42"/>
<text text-anchor="start" x="600" y="-311.42" font-family="Helvetica,sans-Serif" font-size="10.00">denoptim.gui.GUIGraphHandler.start</text>
<text text-anchor="middle" x="704" y="-300.42" font-family="Helvetica,sans-Serif" font-size="10.00">GraphFromFragSpaceOrCreationOfEmptyVertex</text>
</a>
</g>
</g>
<!-- Node19&#45;&gt;Node23 -->
<g id="edge31" class="edge">
<title>Node19&#45;&gt;Node23</title>
<path fill="none" stroke="midnightblue" d="M1083.71,-290.92C1006.08,-294.51 897.29,-299.53 816.21,-303.28"/>
<polygon fill="midnightblue" stroke="midnightblue" points="1084.14,-294.4 1093.97,-290.44 1083.82,-287.41 1084.14,-294.4"/>
</g>
<!-- Node24 -->
<g id="node24" class="node">
<title>Node24</title>
<g id="a_node24"><a xlink:href="classdenoptim_1_1gui_1_1_g_u_i_graph_handler.html#a44e2ff798d22b73f966cb8393ceb4f18" target="_top" xlink:title="Extends the current graph by appending a node to a specific free AP on the growing graph.">
<polygon fill="white" stroke="black" points="613,-205.42 613,-235.42 795,-235.42 795,-205.42 613,-205.42"/>
<text text-anchor="start" x="621" y="-223.42" font-family="Helvetica,sans-Serif" font-size="10.00">denoptim.gui.GUIGraphHandler.extend</text>
<text text-anchor="middle" x="704" y="-212.42" font-family="Helvetica,sans-Serif" font-size="10.00">GraphFromFragSpace</text>
</a>
</g>
</g>
<!-- Node19&#45;&gt;Node24 -->
<g id="edge28" class="edge">
<title>Node19&#45;&gt;Node24</title>
<path fill="none" stroke="midnightblue" d="M1103.08,-274.13C1096.85,-272.21 1090.75,-269.99 1085,-267.42 1066.73,-259.28 1067.78,-247.29 1049,-240.42 966.84,-210.36 866.28,-208.12 795.16,-211.72"/>
<polygon fill="midnightblue" stroke="midnightblue" points="1102.36,-277.56 1112.94,-276.91 1104.26,-270.83 1102.36,-277.56"/>
</g>
<!-- Node21 -->
<g id="node21" class="node">
<title>Node21</title>
<g id="a_node21"><a xlink:href="classdenoptim_1_1gui_1_1_g_u_i_graph_handler.html#af5b000c105018cbd7c262b34f9750044" target="_top" xlink:title="Initialize the panel and add buttons.">
<polygon fill="white" stroke="black" points="368,-276.92 368,-295.92 556,-295.92 556,-276.92 368,-276.92"/>
<text text-anchor="middle" x="462" y="-283.92" font-family="Helvetica,sans-Serif" font-size="10.00">denoptim.gui.GUIGraphHandler.initialize</text>
</a>
</g>
</g>
<!-- Node20&#45;&gt;Node21 -->
<g id="edge24" class="edge">
<title>Node20&#45;&gt;Node21</title>
<path fill="none" stroke="midnightblue" d="M849.94,-268.92C763.83,-272.82 640.28,-278.4 556.11,-282.21"/>
<polygon fill="midnightblue" stroke="midnightblue" points="850.15,-272.42 859.99,-268.47 849.84,-265.42 850.15,-272.42"/>
</g>
<!-- Node20&#45;&gt;Node23 -->
<g id="edge26" class="edge">
<title>Node20&#45;&gt;Node23</title>
<path fill="none" stroke="midnightblue" d="M855.95,-281.26C833.75,-285.25 810.21,-289.49 788.5,-293.4"/>
<polygon fill="midnightblue" stroke="midnightblue" points="856.82,-284.66 866.04,-279.44 855.58,-277.77 856.82,-284.66"/>
</g>
<!-- Node22 -->
<g id="node22" class="node">
<title>Node22</title>
<g id="a_node22"><a xlink:href="classdenoptim_1_1gui_1_1_g_u_i_graph_handler.html#ab7d010d9a384f6b85edce47c95d6723b" target="_top" xlink:title="Constructor.">
<polygon fill="white" stroke="black" points="172.5,-271.42 172.5,-301.42 326.5,-301.42 326.5,-271.42 172.5,-271.42"/>
<text text-anchor="start" x="180.5" y="-289.42" font-family="Helvetica,sans-Serif" font-size="10.00">denoptim.gui.GUIGraphHandler.</text>
<text text-anchor="middle" x="249.5" y="-278.42" font-family="Helvetica,sans-Serif" font-size="10.00">GUIGraphHandler</text>
</a>
</g>
</g>
<!-- Node21&#45;&gt;Node22 -->
<g id="edge25" class="edge">
<title>Node21&#45;&gt;Node22</title>
<path fill="none" stroke="midnightblue" d="M357.73,-286.42C347.25,-286.42 336.75,-286.42 326.64,-286.42"/>
<polygon fill="midnightblue" stroke="midnightblue" points="357.75,-289.92 367.75,-286.42 357.75,-282.92 357.75,-289.92"/>
</g>
<!-- Node23&#45;&gt;Node21 -->
<g id="edge27" class="edge">
<title>Node23&#45;&gt;Node21</title>
<path fill="none" stroke="midnightblue" d="M581.73,-297.3C573.16,-296.52 564.6,-295.73 556.22,-294.97"/>
<polygon fill="midnightblue" stroke="midnightblue" points="581.5,-300.8 591.78,-298.23 582.14,-293.83 581.5,-300.8"/>
</g>
<!-- Node24&#45;&gt;Node21 -->
<g id="edge29" class="edge">
<title>Node24&#45;&gt;Node21</title>
<path fill="none" stroke="midnightblue" d="M637.41,-238.05C622.48,-242.09 606.69,-246.39 592,-250.42 559.71,-259.29 522.93,-269.57 496.93,-276.87"/>
<polygon fill="midnightblue" stroke="midnightblue" points="638.34,-241.43 647.08,-235.44 636.51,-234.67 638.34,-241.43"/>
</g>
<!-- Node27 -->
<g id="node27" class="node">
<title>Node27</title>
<g id="a_node27"><a xlink:href="classdenoptim_1_1gui_1_1_g_u_i_graph_handler.html#ad54901fb2a09953591c971ffc48f3de1" target="_top" xlink:title=" ">
<polygon fill="white" stroke="black" points="1531,-323.42 1531,-353.42 1706,-353.42 1706,-323.42 1531,-323.42"/>
<text text-anchor="start" x="1539" y="-341.42" font-family="Helvetica,sans-Serif" font-size="10.00">denoptim.gui.GUIGraphHandler.save</text>
<text text-anchor="middle" x="1618.5" y="-330.42" font-family="Helvetica,sans-Serif" font-size="10.00">UnsavedChanges</text>
</a>
</g>
</g>
<!-- Node26&#45;&gt;Node27 -->
<g id="edge34" class="edge">
<title>Node26&#45;&gt;Node27</title>
<path fill="none" stroke="midnightblue" d="M1937.09,-322.06C1868.35,-325.6 1774.17,-330.45 1706.24,-333.95"/>
<polygon fill="midnightblue" stroke="midnightblue" points="1937.66,-325.53 1947.46,-321.52 1937.3,-318.54 1937.66,-325.53"/>
</g>
<!-- Node27&#45;&gt;Node21 -->
<g id="edge35" class="edge">
<title>Node27&#45;&gt;Node21</title>
<path fill="none" stroke="midnightblue" d="M1520.73,-343.33C1432.69,-347.36 1299.16,-352.42 1183,-352.42 1183,-352.42 1183,-352.42 949.5,-352.42 790.39,-352.42 747.9,-365.23 592,-333.42 552.3,-325.32 508.44,-307.25 483.45,-296.03"/>
<polygon fill="midnightblue" stroke="midnightblue" points="1521.14,-346.81 1530.97,-342.85 1520.81,-339.82 1521.14,-346.81"/>
</g>
</g>
</svg>
