<?xml version="1.0" encoding="UTF-8" standalone="no"?>
<!DOCTYPE svg PUBLIC "-//W3C//DTD SVG 1.1//EN"
 "http://www.w3.org/Graphics/SVG/1.1/DTD/svg11.dtd">
<!-- Generated by graphviz version 3.0.0 (20221109.1736)
 -->
<!-- Title: denoptim.gui.GUIGraphHandler.loadFragmentSpace Pages: 1 -->
<!--zoomable 779 -->
<svg id="main" version="1.1" xmlns="http://www.w3.org/2000/svg" xmlns:xlink="http://www.w3.org/1999/xlink" xml:space="preserve" onload="init(evt)">
<style type="text/css"><![CDATA[
.edge:hover path { stroke: red; }
.edge:hover polygon { stroke: red; fill: red; }
]]></style>
<script type="text/javascript"><![CDATA[
var edges = document.getElementsByTagName('g');
if (edges && edges.length) {
  for (var i=0;i<edges.length;i++) {
    if (edges[i].id.substr(0,4)=='edge') {
      edges[i].setAttribute('class','edge');
    }
  }
}
]]></script>
        <defs>
                <circle id="rim" cx="0" cy="0" r="7"/>
                <circle id="rim2" cx="0" cy="0" r="3.5"/>
                <g id="zoomPlus">
                        <use xlink:href="#rim" fill="#404040">
                                <set attributeName="fill" to="#808080" begin="zoomplus.mouseover" end="zoomplus.mouseout"/>
                        </use>
                        <path d="M-4,0h8M0,-4v8" fill="none" stroke="white" stroke-width="1.5" pointer-events="none"/>
                </g>
                <g id="zoomMin">
                        <use xlink:href="#rim" fill="#404040">
                                <set attributeName="fill" to="#808080" begin="zoomminus.mouseover" end="zoomminus.mouseout"/>
                        </use>
                        <path d="M-4,0h8" fill="none" stroke="white" stroke-width="1.5" pointer-events="none"/>
                </g>
                <g id="dirArrow">
                        <path fill="none" stroke="white" stroke-width="1.5" d="M0,-3.0v7 M-2.5,-0.5L0,-3.0L2.5,-0.5"/>
                </g>
               <g id="resetDef">
                       <use xlink:href="#rim2" fill="#404040">
                               <set attributeName="fill" to="#808080" begin="reset.mouseover" end="reset.mouseout"/>
                       </use>
               </g>
        </defs>

<script type="text/javascript">
var viewWidth = 1322;
var viewHeight = 779;
var sectionId = 'dynsection-31';
</script>
<script xlink:href="svgpan.js"/>
<svg id="graph" class="graph">
<g id="viewport">
<title>denoptim.gui.GUIGraphHandler.loadFragmentSpace</title>
<polygon fill="white" stroke="transparent" points="-4,4 -4,-775 1318,-775 1318,4 -4,4"/>
<!-- Node1 -->
<g id="node1" class="node">
<title>Node1</title>
<g id="a_node1"><a xlink:title=" ">
<polygon fill="#bfbfbf" stroke="black" points="0,-281.5 0,-311.5 172,-311.5 172,-281.5 0,-281.5"/>
<text text-anchor="start" x="8" y="-299.5" font-family="Helvetica,sans-Serif" font-size="10.00">denoptim.gui.GUIGraphHandler.load</text>
<text text-anchor="middle" x="86" y="-288.5" font-family="Helvetica,sans-Serif" font-size="10.00">FragmentSpace</text>
</a>
</g>
</g>
<!-- Node2 -->
<g id="node2" class="node">
<title>Node2</title>
<g id="a_node2"><a xlink:href="classdenoptim_1_1gui_1_1_f_s_params_dialog.html#ae39602275c1287e6916f7693a0824b08" target="_top" xlink:title="Reads all the parameters, calls the interpreters, and eventually creates the static FragmentSpace obj...">
<polygon fill="white" stroke="black" points="208,-452.5 208,-482.5 381,-482.5 381,-452.5 208,-452.5"/>
<text text-anchor="start" x="216" y="-470.5" font-family="Helvetica,sans-Serif" font-size="10.00">denoptim.gui.FSParamsDialog.make</text>
<text text-anchor="middle" x="294.5" y="-459.5" font-family="Helvetica,sans-Serif" font-size="10.00">FragSpace</text>
</a>
</g>
</g>
<!-- Node1&#45;&gt;Node2 -->
<g id="edge1" class="edge">
<title>Node1&#45;&gt;Node2</title>
<path fill="none" stroke="midnightblue" d="M105.33,-311.68C142.06,-342.1 224.83,-410.63 267.29,-445.79"/>
<polygon fill="midnightblue" stroke="midnightblue" points="265.28,-448.68 275.22,-452.36 269.75,-443.29 265.28,-448.68"/>
</g>
<!-- Node24 -->
<g id="node24" class="node">
<title>Node24</title>
<g id="a_node24"><a xlink:href="classdenoptim_1_1gui_1_1_graph_vertex_mol_viewer_panel.html#abeb355ac694f9f3278a3b5aeb9342de4" target="_top" xlink:title="Changes the appearance of the vertex visualisation panel to an empty card that is consistent with the...">
<polygon fill="white" stroke="black" points="214,-172 214,-213 375,-213 375,-172 214,-172"/>
<text text-anchor="start" x="222" y="-201" font-family="Helvetica,sans-Serif" font-size="10.00">denoptim.gui.GraphVertex</text>
<text text-anchor="start" x="222" y="-190" font-family="Helvetica,sans-Serif" font-size="10.00">MolViewerPanel.resetFragViewer</text>
<text text-anchor="middle" x="294.5" y="-179" font-family="Helvetica,sans-Serif" font-size="10.00">CardDeck</text>
</a>
</g>
</g>
<!-- Node1&#45;&gt;Node24 -->
<g id="edge26" class="edge">
<title>Node1&#45;&gt;Node24</title>
<path fill="none" stroke="midnightblue" d="M117.03,-281.38C150.17,-264.69 204.04,-237.56 243.55,-217.65"/>
<polygon fill="midnightblue" stroke="midnightblue" points="245.41,-220.64 252.76,-213.02 242.26,-214.39 245.41,-220.64"/>
</g>
<!-- Node3 -->
<g id="node3" class="node">
<title>Node3</title>
<g id="a_node3"><a xlink:href="classdenoptim_1_1fragspace_1_1_fragment_space_parameters.html#a7ba47e20c9b69f190c09c791e9caeca1" target="_top" xlink:title="Evaluate consistency of input parameters.">
<polygon fill="white" stroke="black" points="421.5,-666.5 421.5,-696.5 594.5,-696.5 594.5,-666.5 421.5,-666.5"/>
<text text-anchor="start" x="429.5" y="-684.5" font-family="Helvetica,sans-Serif" font-size="10.00">denoptim.fragspace.Fragment</text>
<text text-anchor="middle" x="508" y="-673.5" font-family="Helvetica,sans-Serif" font-size="10.00">SpaceParameters.checkParameters</text>
</a>
</g>
</g>
<!-- Node2&#45;&gt;Node3 -->
<g id="edge2" class="edge">
<title>Node2&#45;&gt;Node3</title>
<path fill="none" stroke="midnightblue" d="M310.37,-482.55C347.01,-519.61 441.74,-615.47 484.94,-659.18"/>
<polygon fill="midnightblue" stroke="midnightblue" points="482.63,-661.82 492.14,-666.47 487.6,-656.9 482.63,-661.82"/>
</g>
<!-- Node7 -->
<g id="node7" class="node">
<title>Node7</title>
<g id="a_node7"><a xlink:href="classdenoptim_1_1fragspace_1_1_fragment_space_parameters.html#a93693af51412000689dc7517151b9a05" target="_top" xlink:title=" ">
<polygon fill="white" stroke="black" points="418.5,-526.5 418.5,-556.5 597.5,-556.5 597.5,-526.5 418.5,-526.5"/>
<text text-anchor="start" x="426.5" y="-544.5" font-family="Helvetica,sans-Serif" font-size="10.00">denoptim.fragspace.Fragment</text>
<text text-anchor="middle" x="508" y="-533.5" font-family="Helvetica,sans-Serif" font-size="10.00">SpaceParameters.getFragmentSpace</text>
</a>
</g>
</g>
<!-- Node2&#45;&gt;Node7 -->
<g id="edge6" class="edge">
<title>Node2&#45;&gt;Node7</title>
<path fill="none" stroke="midnightblue" d="M328.84,-482.59C353,-493.19 386.63,-507.25 417,-517.5 423.28,-519.62 429.86,-521.68 436.47,-523.63"/>
<polygon fill="midnightblue" stroke="midnightblue" points="435.59,-527.02 446.16,-526.43 437.53,-520.3 435.59,-527.02"/>
</g>
<!-- Node8 -->
<g id="node8" class="node">
<title>Node8</title>
<g id="a_node8"><a xlink:href="classdenoptim_1_1fragspace_1_1_fragment_space_parameters.html#a09e9320a769de9b184bfc12195db88df" target="_top" xlink:title="Read the information collected in the parameters stored in this class and create the fragment space a...">
<polygon fill="white" stroke="black" points="417,-477.5 417,-507.5 599,-507.5 599,-477.5 417,-477.5"/>
<text text-anchor="start" x="425" y="-495.5" font-family="Helvetica,sans-Serif" font-size="10.00">denoptim.fragspace.Fragment</text>
<text text-anchor="middle" x="508" y="-484.5" font-family="Helvetica,sans-Serif" font-size="10.00">SpaceParameters.processParameters</text>
</a>
</g>
</g>
<!-- Node2&#45;&gt;Node8 -->
<g id="edge7" class="edge">
<title>Node2&#45;&gt;Node8</title>
<path fill="none" stroke="midnightblue" d="M381.22,-477.63C389.61,-478.62 398.18,-479.64 406.71,-480.64"/>
<polygon fill="midnightblue" stroke="midnightblue" points="406.33,-484.13 416.68,-481.82 407.16,-477.17 406.33,-484.13"/>
</g>
<!-- Node10 -->
<g id="node10" class="node">
<title>Node10</title>
<g id="a_node10"><a xlink:href="classdenoptim_1_1gui_1_1_f_s_parameters_form.html#a06262c2710006e31961d2eeaa8df061e" target="_top" xlink:title=" ">
<polygon fill="white" stroke="black" points="437,-428.5 437,-458.5 579,-458.5 579,-428.5 437,-428.5"/>
<text text-anchor="start" x="445" y="-446.5" font-family="Helvetica,sans-Serif" font-size="10.00">denoptim.gui.FSParameters</text>
<text text-anchor="middle" x="508" y="-435.5" font-family="Helvetica,sans-Serif" font-size="10.00">Form.putParametersToString</text>
</a>
</g>
</g>
<!-- Node2&#45;&gt;Node10 -->
<g id="edge9" class="edge">
<title>Node2&#45;&gt;Node10</title>
<path fill="none" stroke="midnightblue" d="M381.22,-457.77C396.2,-456.07 411.73,-454.31 426.56,-452.63"/>
<polygon fill="midnightblue" stroke="midnightblue" points="427.16,-456.08 436.7,-451.48 426.37,-449.13 427.16,-456.08"/>
</g>
<!-- Node19 -->
<g id="node19" class="node">
<title>Node19</title>
<g id="a_node19"><a xlink:href="classdenoptim_1_1programs_1_1_run_time_parameters.html#a890aaf1919e171a9c3f9206c9a93aa3b" target="_top" xlink:title=" ">
<polygon fill="white" stroke="black" points="432,-281.5 432,-311.5 584,-311.5 584,-281.5 432,-281.5"/>
<text text-anchor="start" x="440" y="-299.5" font-family="Helvetica,sans-Serif" font-size="10.00">denoptim.programs.RunTime</text>
<text text-anchor="middle" x="508" y="-288.5" font-family="Helvetica,sans-Serif" font-size="10.00">Parameters.readParameterLine</text>
</a>
</g>
</g>
<!-- Node2&#45;&gt;Node19 -->
<g id="edge20" class="edge">
<title>Node2&#45;&gt;Node19</title>
<path fill="none" stroke="midnightblue" d="M314.27,-452.32C351.97,-421.84 437.02,-353.08 480.42,-317.99"/>
<polygon fill="midnightblue" stroke="midnightblue" points="482.7,-320.65 488.27,-311.64 478.3,-315.21 482.7,-320.65"/>
</g>
<!-- Node4 -->
<g id="node4" class="node">
<title>Node4</title>
<g id="a_node4"><a xlink:href="classdenoptim_1_1files_1_1_file_utils.html#a16bc762b79f5033f2323fb8728593334" target="_top" xlink:title=" ">
<polygon fill="white" stroke="black" points="663,-740.5 663,-770.5 806,-770.5 806,-740.5 663,-740.5"/>
<text text-anchor="start" x="671" y="-758.5" font-family="Helvetica,sans-Serif" font-size="10.00">denoptim.files.FileUtils.check</text>
<text text-anchor="middle" x="734.5" y="-747.5" font-family="Helvetica,sans-Serif" font-size="10.00">Exists</text>
</a>
</g>
</g>
<!-- Node3&#45;&gt;Node4 -->
<g id="edge3" class="edge">
<title>Node3&#45;&gt;Node4</title>
<path fill="none" stroke="midnightblue" d="M543.29,-696.61C568.37,-707.28 603.38,-721.43 635,-731.5 641.92,-733.7 649.16,-735.82 656.45,-737.82"/>
<polygon fill="midnightblue" stroke="midnightblue" points="655.83,-741.28 666.39,-740.47 657.63,-734.51 655.83,-741.28"/>
</g>
<!-- Node5 -->
<g id="node5" class="node">
<title>Node5</title>
<g id="a_node5"><a xlink:href="classdenoptim_1_1programs_1_1_run_time_parameters.html#aaeaf94275f1b63439850a68a244a74c2" target="_top" xlink:title="Checks any of the parameter collections contained in this instance.">
<polygon fill="white" stroke="black" points="649.5,-691.5 649.5,-721.5 819.5,-721.5 819.5,-691.5 649.5,-691.5"/>
<text text-anchor="start" x="657.5" y="-709.5" font-family="Helvetica,sans-Serif" font-size="10.00">denoptim.programs.RunTime</text>
<text text-anchor="middle" x="734.5" y="-698.5" font-family="Helvetica,sans-Serif" font-size="10.00">Parameters.checkOtherParameters</text>
</a>
</g>
</g>
<!-- Node3&#45;&gt;Node5 -->
<g id="edge4" class="edge">
<title>Node3&#45;&gt;Node5</title>
<path fill="none" stroke="midnightblue" d="M594.51,-691.02C609.11,-692.65 624.35,-694.35 639.16,-695.99"/>
<polygon fill="midnightblue" stroke="midnightblue" points="639.01,-699.5 649.34,-697.13 639.79,-692.54 639.01,-699.5"/>
</g>
<!-- Node6 -->
<g id="node6" class="node">
<title>Node6</title>
<g id="a_node6"><a xlink:href="classdenoptim_1_1programs_1_1_run_time_parameters.html#a5d529ee791990d15bde012d8dcd6b5c1" target="_top" xlink:title="Get the name of the program specific logger.">
<polygon fill="white" stroke="black" points="664.5,-642.5 664.5,-672.5 804.5,-672.5 804.5,-642.5 664.5,-642.5"/>
<text text-anchor="start" x="672.5" y="-660.5" font-family="Helvetica,sans-Serif" font-size="10.00">denoptim.programs.RunTime</text>
<text text-anchor="middle" x="734.5" y="-649.5" font-family="Helvetica,sans-Serif" font-size="10.00">Parameters.getLogger</text>
</a>
</g>
</g>
<!-- Node3&#45;&gt;Node6 -->
<g id="edge5" class="edge">
<title>Node3&#45;&gt;Node6</title>
<path fill="none" stroke="midnightblue" d="M594.51,-672.36C614.14,-670.26 634.93,-668.04 654.27,-665.97"/>
<polygon fill="midnightblue" stroke="midnightblue" points="654.67,-669.45 664.25,-664.9 653.93,-662.49 654.67,-669.45"/>
</g>
<!-- Node9 -->
<g id="node9" class="node">
<title>Node9</title>
<g id="a_node9"><a xlink:href="classdenoptim_1_1programs_1_1_run_time_parameters.html#abcdf563c6c95b9a293cb0e71738355ff" target="_top" xlink:title="Processes any of the parameter collections contained in this instance.">
<polygon fill="white" stroke="black" points="645.5,-593.5 645.5,-623.5 823.5,-623.5 823.5,-593.5 645.5,-593.5"/>
<text text-anchor="start" x="653.5" y="-611.5" font-family="Helvetica,sans-Serif" font-size="10.00">denoptim.programs.RunTime</text>
<text text-anchor="middle" x="734.5" y="-600.5" font-family="Helvetica,sans-Serif" font-size="10.00">Parameters.processOtherParameters</text>
</a>
</g>
</g>
<!-- Node8&#45;&gt;Node9 -->
<g id="edge8" class="edge">
<title>Node8&#45;&gt;Node9</title>
<path fill="none" stroke="midnightblue" d="M583.17,-507.64C588.82,-510.4 594.19,-513.65 599,-517.5 625.4,-538.61 608.26,-563.82 635,-584.5 636.81,-585.9 638.69,-587.22 640.63,-588.46"/>
<polygon fill="midnightblue" stroke="midnightblue" points="639.04,-591.58 649.47,-593.45 642.47,-585.49 639.04,-591.58"/>
</g>
<!-- Node11 -->
<g id="node11" class="node">
<title>Node11</title>
<g id="a_node11"><a xlink:href="classdenoptim_1_1gui_1_1_parameters_form.html#a625c868bd274a682e1c81eaaefce8f5d" target="_top" xlink:title="Produced an overall string including one or more KEY:VALUE strings taken from a table.">
<polygon fill="white" stroke="black" points="653.5,-526.5 653.5,-556.5 815.5,-556.5 815.5,-526.5 653.5,-526.5"/>
<text text-anchor="start" x="661.5" y="-544.5" font-family="Helvetica,sans-Serif" font-size="10.00">denoptim.gui.ParametersForm.get</text>
<text text-anchor="middle" x="734.5" y="-533.5" font-family="Helvetica,sans-Serif" font-size="10.00">StringFromTable</text>
</a>
</g>
</g>
<!-- Node10&#45;&gt;Node11 -->
<g id="edge10" class="edge">
<title>Node10&#45;&gt;Node11</title>
<path fill="none" stroke="midnightblue" d="M579.39,-458.01C586.32,-460.89 592.99,-464.36 599,-468.5 621.24,-483.85 612.52,-502.51 635,-517.5 637.94,-519.46 641.03,-521.27 644.23,-522.92"/>
<polygon fill="midnightblue" stroke="midnightblue" points="642.93,-526.18 653.47,-527.21 645.87,-519.83 642.93,-526.18"/>
</g>
<!-- Node12 -->
<g id="node12" class="node">
<title>Node12</title>
<g id="a_node12"><a xlink:href="classdenoptim_1_1gui_1_1_parameters_form.html#adba801c985eb2aa293c9dc1ce455fb63" target="_top" xlink:title="Produced the KEY:VALUE string for a general text field.">
<polygon fill="white" stroke="black" points="653.5,-477.5 653.5,-507.5 815.5,-507.5 815.5,-477.5 653.5,-477.5"/>
<text text-anchor="start" x="661.5" y="-495.5" font-family="Helvetica,sans-Serif" font-size="10.00">denoptim.gui.ParametersForm.get</text>
<text text-anchor="middle" x="734.5" y="-484.5" font-family="Helvetica,sans-Serif" font-size="10.00">StringIfNotEmpty</text>
</a>
</g>
</g>
<!-- Node10&#45;&gt;Node12 -->
<g id="edge12" class="edge">
<title>Node10&#45;&gt;Node12</title>
<path fill="none" stroke="midnightblue" d="M577.88,-458.53C602.23,-463.85 629.8,-469.87 654.9,-475.34"/>
<polygon fill="midnightblue" stroke="midnightblue" points="654.23,-478.78 664.75,-477.49 655.72,-471.94 654.23,-478.78"/>
</g>
<!-- Node13 -->
<g id="node13" class="node">
<title>Node13</title>
<g id="a_node13"><a xlink:href="classdenoptim_1_1gui_1_1_parameters_form.html#a8fe7e5b6db435de65b2629b0e175cc82" target="_top" xlink:title="Produced the KEY:VALUE string for a on/off button.">
<polygon fill="white" stroke="black" points="653.5,-428.5 653.5,-458.5 815.5,-458.5 815.5,-428.5 653.5,-428.5"/>
<text text-anchor="start" x="661.5" y="-446.5" font-family="Helvetica,sans-Serif" font-size="10.00">denoptim.gui.ParametersForm.get</text>
<text text-anchor="middle" x="734.5" y="-435.5" font-family="Helvetica,sans-Serif" font-size="10.00">StringIfSelected</text>
</a>
</g>
</g>
<!-- Node10&#45;&gt;Node13 -->
<g id="edge13" class="edge">
<title>Node10&#45;&gt;Node13</title>
<path fill="none" stroke="midnightblue" d="M579.11,-443.5C599.43,-443.5 621.92,-443.5 643.29,-443.5"/>
<polygon fill="midnightblue" stroke="midnightblue" points="643.34,-447 653.34,-443.5 643.34,-440 643.34,-447"/>
</g>
<!-- Node14 -->
<g id="node14" class="node">
<title>Node14</title>
<g id="a_node14"><a xlink:href="classdenoptim_1_1gui_1_1_parameters_form.html#a1879098dd089c42923a2ced5c837bbdf" target="_top" xlink:title=" ">
<polygon fill="white" stroke="black" points="653.5,-379.5 653.5,-409.5 815.5,-409.5 815.5,-379.5 653.5,-379.5"/>
<text text-anchor="start" x="661.5" y="-397.5" font-family="Helvetica,sans-Serif" font-size="10.00">denoptim.gui.ParametersForm.get</text>
<text text-anchor="middle" x="734.5" y="-386.5" font-family="Helvetica,sans-Serif" font-size="10.00">TextForUnformattedSettings</text>
</a>
</g>
</g>
<!-- Node10&#45;&gt;Node14 -->
<g id="edge14" class="edge">
<title>Node10&#45;&gt;Node14</title>
<path fill="none" stroke="midnightblue" d="M577.88,-428.47C602.23,-423.15 629.8,-417.13 654.9,-411.66"/>
<polygon fill="midnightblue" stroke="midnightblue" points="655.72,-415.06 664.75,-409.51 654.23,-408.22 655.72,-415.06"/>
</g>
<!-- Node15 -->
<g id="node15" class="node">
<title>Node15</title>
<g id="a_node15"><a xlink:href="classdenoptim_1_1gui_1_1_f_s_parameters_form.html#acf9f63e43965c7723e5b577212de9ecf" target="_top" xlink:title=" ">
<polygon fill="white" stroke="black" points="635,-330.5 635,-360.5 834,-360.5 834,-330.5 635,-330.5"/>
<text text-anchor="start" x="643" y="-348.5" font-family="Helvetica,sans-Serif" font-size="10.00">denoptim.gui.FSParameters</text>
<text text-anchor="middle" x="734.5" y="-337.5" font-family="Helvetica,sans-Serif" font-size="10.00">Form.possiblyReadParamsFromFSParFile</text>
</a>
</g>
</g>
<!-- Node10&#45;&gt;Node15 -->
<g id="edge15" class="edge">
<title>Node10&#45;&gt;Node15</title>
<path fill="none" stroke="midnightblue" d="M530.8,-428.35C555.19,-412.01 596.37,-386.24 635,-370.5 641.2,-367.97 647.73,-365.65 654.35,-363.52"/>
<polygon fill="midnightblue" stroke="midnightblue" points="655.56,-366.81 664.1,-360.53 653.51,-360.11 655.56,-366.81"/>
</g>
<!-- Node11&#45;&gt;Node11 -->
<g id="edge11" class="edge">
<title>Node11&#45;&gt;Node11</title>
<path fill="none" stroke="midnightblue" d="M695.11,-556.66C685.62,-566.06 698.75,-575 734.5,-575 756.29,-575 769.67,-571.68 774.66,-566.96"/>
<polygon fill="midnightblue" stroke="midnightblue" points="778.12,-566.37 773.89,-556.66 771.14,-566.89 778.12,-566.37"/>
</g>
<!-- Node16 -->
<g id="node16" class="node">
<title>Node16</title>
<g id="a_node16"><a xlink:href="classdenoptim_1_1gui_1_1_f_s_parameters_form.html#a3efd797a6bfa6106f3134ead85fcab5e" target="_top" xlink:title="Imports parameters from a properly formatted parameters file.">
<polygon fill="white" stroke="black" points="890.5,-330 890.5,-371 1072.5,-371 1072.5,-330 890.5,-330"/>
<text text-anchor="start" x="898.5" y="-359" font-family="Helvetica,sans-Serif" font-size="10.00">denoptim.gui.FSParameters</text>
<text text-anchor="start" x="898.5" y="-348" font-family="Helvetica,sans-Serif" font-size="10.00">Form.importParametersFromDenoptim</text>
<text text-anchor="middle" x="981.5" y="-337" font-family="Helvetica,sans-Serif" font-size="10.00">ParamsFile</text>
</a>
</g>
</g>
<!-- Node15&#45;&gt;Node16 -->
<g id="edge16" class="edge">
<title>Node15&#45;&gt;Node16</title>
<path fill="none" stroke="midnightblue" d="M834.09,-347.51C849.22,-347.82 864.85,-348.14 880.01,-348.45"/>
<polygon fill="midnightblue" stroke="midnightblue" points="880.36,-351.96 890.43,-348.66 880.5,-344.96 880.36,-351.96"/>
</g>
<!-- Node16&#45;&gt;Node16 -->
<g id="edge18" class="edge">
<title>Node16&#45;&gt;Node16</title>
<path fill="none" stroke="midnightblue" d="M937.76,-371.36C932.99,-381.04 947.57,-389.5 981.5,-389.5 1002.71,-389.5 1016.36,-386.2 1022.45,-381.36"/>
<polygon fill="midnightblue" stroke="midnightblue" points="1025.92,-381.94 1025.24,-371.36 1019.18,-380.05 1025.92,-381.94"/>
</g>
<!-- Node17 -->
<g id="node17" class="node">
<title>Node17</title>
<g id="a_node17"><a xlink:href="classdenoptim_1_1gui_1_1_parameters_form.html#a32d73057266a7b76fdf463cbf4400547" target="_top" xlink:title=" ">
<polygon fill="white" stroke="black" points="1136.5,-359.5 1136.5,-389.5 1306.5,-389.5 1306.5,-359.5 1136.5,-359.5"/>
<text text-anchor="start" x="1144.5" y="-377.5" font-family="Helvetica,sans-Serif" font-size="10.00">denoptim.gui.ParametersForm.clear</text>
<text text-anchor="middle" x="1221.5" y="-366.5" font-family="Helvetica,sans-Serif" font-size="10.00">UnformattedTxtArea</text>
</a>
</g>
</g>
<!-- Node16&#45;&gt;Node17 -->
<g id="edge17" class="edge">
<title>Node16&#45;&gt;Node17</title>
<path fill="none" stroke="midnightblue" d="M1072.82,-359.61C1090.19,-361.36 1108.42,-363.2 1125.92,-364.96"/>
<polygon fill="midnightblue" stroke="midnightblue" points="1125.82,-368.47 1136.13,-365.99 1126.53,-361.51 1125.82,-368.47"/>
</g>
<!-- Node18 -->
<g id="node18" class="node">
<title>Node18</title>
<g id="a_node18"><a xlink:href="classdenoptim_1_1gui_1_1_parameters_form.html#aa73e9df9398e76e8f146f8b70e4a468c" target="_top" xlink:title="Shown a warning dialog that informs the user about having found text that is not present in the Param...">
<polygon fill="white" stroke="black" points="1135.5,-310.5 1135.5,-340.5 1307.5,-340.5 1307.5,-310.5 1135.5,-310.5"/>
<text text-anchor="start" x="1143.5" y="-328.5" font-family="Helvetica,sans-Serif" font-size="10.00">denoptim.gui.ParametersForm.show</text>
<text text-anchor="middle" x="1221.5" y="-317.5" font-family="Helvetica,sans-Serif" font-size="10.00">UnknownKeyWarning</text>
</a>
</g>
</g>
<!-- Node16&#45;&gt;Node18 -->
<g id="edge19" class="edge">
<title>Node16&#45;&gt;Node18</title>
<path fill="none" stroke="midnightblue" d="M1072.82,-341.01C1089.97,-339.21 1107.96,-337.32 1125.25,-335.5"/>
<polygon fill="midnightblue" stroke="midnightblue" points="1125.77,-338.97 1135.35,-334.44 1125.03,-332.01 1125.77,-338.97"/>
</g>
<!-- Node20 -->
<g id="node20" class="node">
<title>Node20</title>
<g id="a_node20"><a xlink:href="classdenoptim_1_1programs_1_1_run_time_parameters.html#a38d652dfc85081f78687a61b32f9a283" target="_top" xlink:title="Builds the implementation of this class suitable to allocate parameters of the given type.">
<polygon fill="white" stroke="black" points="664.5,-281.5 664.5,-311.5 804.5,-311.5 804.5,-281.5 664.5,-281.5"/>
<text text-anchor="start" x="672.5" y="-299.5" font-family="Helvetica,sans-Serif" font-size="10.00">denoptim.programs.RunTime</text>
<text text-anchor="middle" x="734.5" y="-288.5" font-family="Helvetica,sans-Serif" font-size="10.00">Parameters.getInstanceFor</text>
</a>
</g>
</g>
<!-- Node19&#45;&gt;Node20 -->
<g id="edge21" class="edge">
<title>Node19&#45;&gt;Node20</title>
<path fill="none" stroke="midnightblue" d="M584.07,-296.5C606.51,-296.5 631.18,-296.5 653.9,-296.5"/>
<polygon fill="midnightblue" stroke="midnightblue" points="654.19,-300 664.19,-296.5 654.19,-293 654.19,-300"/>
</g>
<!-- Node23 -->
<g id="node23" class="node">
<title>Node23</title>
<g id="a_node23"><a xlink:href="classdenoptim_1_1programs_1_1_run_time_parameters.html#a4cf7f93ac962a8979be6426b5b576384" target="_top" xlink:title="Processes a string looking for keyword and a possibly associated value.">
<polygon fill="white" stroke="black" points="663.5,-214.5 663.5,-244.5 805.5,-244.5 805.5,-214.5 663.5,-214.5"/>
<text text-anchor="start" x="671.5" y="-232.5" font-family="Helvetica,sans-Serif" font-size="10.00">denoptim.programs.RunTime</text>
<text text-anchor="middle" x="734.5" y="-221.5" font-family="Helvetica,sans-Serif" font-size="10.00">Parameters.interpretKeyword</text>
</a>
</g>
</g>
<!-- Node19&#45;&gt;Node23 -->
<g id="edge24" class="edge">
<title>Node19&#45;&gt;Node23</title>
<path fill="none" stroke="midnightblue" d="M559.38,-281.46C593.06,-271.41 637.54,-258.14 673.12,-247.52"/>
<polygon fill="midnightblue" stroke="midnightblue" points="674.32,-250.82 682.9,-244.6 672.31,-244.11 674.32,-250.82"/>
</g>
<!-- Node21 -->
<g id="node21" class="node">
<title>Node21</title>
<g id="a_node21"><a xlink:href="enumdenoptim_1_1programs_1_1_run_time_parameters_1_1_parameters_type.html#af225a4d21c1a04771222f81fe5622b2d" target="_top" xlink:title=" ">
<polygon fill="white" stroke="black" points="870,-281.5 870,-311.5 1093,-311.5 1093,-281.5 870,-281.5"/>
<text text-anchor="start" x="878" y="-299.5" font-family="Helvetica,sans-Serif" font-size="10.00">denoptim.programs.RunTime</text>
<text text-anchor="middle" x="981.5" y="-288.5" font-family="Helvetica,sans-Serif" font-size="10.00">Parameters.ParametersType.getImplementation</text>
</a>
</g>
</g>
<!-- Node20&#45;&gt;Node21 -->
<g id="edge22" class="edge">
<title>Node20&#45;&gt;Node21</title>
<path fill="none" stroke="midnightblue" d="M804.72,-296.5C821.88,-296.5 840.76,-296.5 859.59,-296.5"/>
<polygon fill="midnightblue" stroke="midnightblue" points="859.73,-300 869.73,-296.5 859.73,-293 859.73,-300"/>
</g>
<!-- Node22 -->
<g id="node22" class="node">
<title>Node22</title>
<g id="a_node22"><a xlink:href="classdenoptim_1_1programs_1_1_run_time_parameters.html#a0ff947a81c127a3460907c7cffb9843b" target="_top" xlink:title="Constructor.">
<polygon fill="white" stroke="black" points="902.5,-232.5 902.5,-262.5 1060.5,-262.5 1060.5,-232.5 902.5,-232.5"/>
<text text-anchor="start" x="910.5" y="-250.5" font-family="Helvetica,sans-Serif" font-size="10.00">denoptim.programs.RunTime</text>
<text text-anchor="middle" x="981.5" y="-239.5" font-family="Helvetica,sans-Serif" font-size="10.00">Parameters.RunTimeParameters</text>
</a>
</g>
</g>
<!-- Node20&#45;&gt;Node22 -->
<g id="edge23" class="edge">
<title>Node20&#45;&gt;Node22</title>
<path fill="none" stroke="midnightblue" d="M804.72,-282.66C832.95,-277.01 865.86,-270.43 895.52,-264.5"/>
<polygon fill="midnightblue" stroke="midnightblue" points="896.32,-267.91 905.44,-262.51 894.95,-261.04 896.32,-267.91"/>
</g>
<!-- Node23&#45;&gt;Node23 -->
<g id="edge25" class="edge">
<title>Node23&#45;&gt;Node23</title>
<path fill="none" stroke="midnightblue" d="M695.11,-244.66C685.62,-254.06 698.75,-263 734.5,-263 756.29,-263 769.67,-259.68 774.66,-254.96"/>
<polygon fill="midnightblue" stroke="midnightblue" points="778.12,-254.37 773.89,-244.66 771.14,-254.89 778.12,-254.37"/>
</g>
<!-- Node25 -->
<g id="node25" class="node">
<title>Node25</title>
<g id="a_node25"><a xlink:href="classdenoptim_1_1gui_1_1_graph_vertex_mol_viewer_panel.html#a161579a33a00d54d8cc3610cacd3d98e" target="_top" xlink:title="Allows to show the given card in the vertex viewer panel.">
<polygon fill="white" stroke="black" points="429,-199 429,-240 587,-240 587,-199 429,-199"/>
<text text-anchor="start" x="437" y="-228" font-family="Helvetica,sans-Serif" font-size="10.00">denoptim.gui.GraphVertex</text>
<text text-anchor="start" x="437" y="-217" font-family="Helvetica,sans-Serif" font-size="10.00">MolViewerPanel.bringCardToTop</text>
<text text-anchor="middle" x="508" y="-206" font-family="Helvetica,sans-Serif" font-size="10.00">OfVertexViewer</text>
</a>
</g>
</g>
<!-- Node24&#45;&gt;Node25 -->
<g id="edge27" class="edge">
<title>Node24&#45;&gt;Node25</title>
<path fill="none" stroke="midnightblue" d="M375.16,-202.67C389.43,-204.49 404.38,-206.4 418.87,-208.25"/>
<polygon fill="midnightblue" stroke="midnightblue" points="418.45,-211.72 428.82,-209.52 419.34,-204.78 418.45,-211.72"/>
</g>
<!-- Node26 -->
<g id="node26" class="node">
<title>Node26</title>
<g id="a_node26"><a xlink:href="classdenoptim_1_1gui_1_1_fragment_view_panel.html#a5b02a7e511de2c6dd4aa18420d5f76f8" target="_top" xlink:title="Removes the currently visualized molecule and AP table.">
<polygon fill="white" stroke="black" points="439.5,-150.5 439.5,-180.5 576.5,-180.5 576.5,-150.5 439.5,-150.5"/>
<text text-anchor="start" x="447.5" y="-168.5" font-family="Helvetica,sans-Serif" font-size="10.00">denoptim.gui.FragmentView</text>
<text text-anchor="middle" x="508" y="-157.5" font-family="Helvetica,sans-Serif" font-size="10.00">Panel.clearAll</text>
</a>
</g>
</g>
<!-- Node24&#45;&gt;Node26 -->
<g id="edge28" class="edge">
<title>Node24&#45;&gt;Node26</title>
<path fill="none" stroke="midnightblue" d="M375.16,-182.33C392.78,-180.08 411.43,-177.7 428.98,-175.46"/>
<polygon fill="midnightblue" stroke="midnightblue" points="429.7,-178.9 439.17,-174.16 428.81,-171.95 429.7,-178.9"/>
</g>
<!-- Node31 -->
<g id="node31" class="node">
<title>Node31</title>
<g id="a_node31"><a xlink:href="classdenoptim_1_1gui_1_1_graph_vertex_mol_viewer_panel.html#a3cf222c297371678ddd971e9857188b0" target="_top" xlink:title=" ">
<polygon fill="white" stroke="black" points="418.5,-60 418.5,-101 597.5,-101 597.5,-60 418.5,-60"/>
<text text-anchor="start" x="426.5" y="-89" font-family="Helvetica,sans-Serif" font-size="10.00">denoptim.gui.GraphVertex</text>
<text text-anchor="start" x="426.5" y="-78" font-family="Helvetica,sans-Serif" font-size="10.00">MolViewerPanel.removeNestedGraph</text>
<text text-anchor="middle" x="508" y="-67" font-family="Helvetica,sans-Serif" font-size="10.00">Viewer</text>
</a>
</g>
</g>
<!-- Node24&#45;&gt;Node31 -->
<g id="edge33" class="edge">
<title>Node24&#45;&gt;Node31</title>
<path fill="none" stroke="midnightblue" d="M334.29,-171.96C369.36,-153.39 421.12,-125.98 458.83,-106.01"/>
<polygon fill="midnightblue" stroke="midnightblue" points="460.9,-108.87 468.1,-101.1 457.62,-102.69 460.9,-108.87"/>
</g>
<!-- Node27 -->
<g id="node27" class="node">
<title>Node27</title>
<g id="a_node27"><a xlink:href="classdenoptim_1_1gui_1_1_fragment_view_panel.html#a65e5473c03b2075c97fbfa9b587b8949" target="_top" xlink:title="Clears the table of attachment points.">
<polygon fill="white" stroke="black" points="666,-165.5 666,-195.5 803,-195.5 803,-165.5 666,-165.5"/>
<text text-anchor="start" x="674" y="-183.5" font-family="Helvetica,sans-Serif" font-size="10.00">denoptim.gui.FragmentView</text>
<text text-anchor="middle" x="734.5" y="-172.5" font-family="Helvetica,sans-Serif" font-size="10.00">Panel.clearAPTable</text>
</a>
</g>
</g>
<!-- Node26&#45;&gt;Node27 -->
<g id="edge29" class="edge">
<title>Node26&#45;&gt;Node27</title>
<path fill="none" stroke="midnightblue" d="M576.66,-170.02C601.62,-171.69 630.1,-173.59 655.87,-175.31"/>
<polygon fill="midnightblue" stroke="midnightblue" points="655.77,-178.81 665.98,-175.99 656.23,-171.83 655.77,-178.81"/>
</g>
<!-- Node30 -->
<g id="node30" class="node">
<title>Node30</title>
<g id="a_node30"><a xlink:href="classdenoptim_1_1gui_1_1_fragment_view_panel.html#ad2fc717c7c33817e4178031130d46f6d" target="_top" xlink:title="Clears the molecular viewer.">
<polygon fill="white" stroke="black" points="666,-116.5 666,-146.5 803,-146.5 803,-116.5 666,-116.5"/>
<text text-anchor="start" x="674" y="-134.5" font-family="Helvetica,sans-Serif" font-size="10.00">denoptim.gui.FragmentView</text>
<text text-anchor="middle" x="734.5" y="-123.5" font-family="Helvetica,sans-Serif" font-size="10.00">Panel.clearMolecularViewer</text>
</a>
</g>
</g>
<!-- Node26&#45;&gt;Node30 -->
<g id="edge32" class="edge">
<title>Node26&#45;&gt;Node30</title>
<path fill="none" stroke="midnightblue" d="M576.66,-155.25C601.62,-151.47 630.1,-147.16 655.87,-143.26"/>
<polygon fill="midnightblue" stroke="midnightblue" points="656.61,-146.68 665.98,-141.73 655.57,-139.76 656.61,-146.68"/>
</g>
<!-- Node28 -->
<g id="node28" class="node">
<title>Node28</title>
<g id="a_node28"><a xlink:href="classdenoptim_1_1gui_1_1_fragment_view_panel.html#ad1564e5c67234495668c68f02ab04ed4" target="_top" xlink:title="Allows to activate and deactivate the listener.">
<polygon fill="white" stroke="black" points="905.5,-165.5 905.5,-195.5 1057.5,-195.5 1057.5,-165.5 905.5,-165.5"/>
<text text-anchor="start" x="913.5" y="-183.5" font-family="Helvetica,sans-Serif" font-size="10.00">denoptim.gui.FragmentView</text>
<text text-anchor="middle" x="981.5" y="-172.5" font-family="Helvetica,sans-Serif" font-size="10.00">Panel.activateTabEditsListener</text>
</a>
</g>
</g>
<!-- Node27&#45;&gt;Node28 -->
<g id="edge30" class="edge">
<title>Node27&#45;&gt;Node28</title>
<path fill="none" stroke="midnightblue" d="M803.1,-180.5C831.6,-180.5 865.11,-180.5 895.28,-180.5"/>
<polygon fill="midnightblue" stroke="midnightblue" points="895.37,-184 905.37,-180.5 895.37,-177 895.37,-184"/>
</g>
<!-- Node29 -->
<g id="node29" class="node">
<title>Node29</title>
<g id="a_node29"><a xlink:href="classdenoptim_1_1gui_1_1_fragment_view_panel_1_1_pausable_table_model_listener.html#ab8f315a71d317424e2647c160fc3fdfb" target="_top" xlink:title=" ">
<polygon fill="white" stroke="black" points="1129,-160 1129,-201 1314,-201 1314,-160 1129,-160"/>
<text text-anchor="start" x="1137" y="-189" font-family="Helvetica,sans-Serif" font-size="10.00">denoptim.gui.FragmentView</text>
<text text-anchor="start" x="1137" y="-178" font-family="Helvetica,sans-Serif" font-size="10.00">Panel.PausableTableModelListener.set</text>
<text text-anchor="middle" x="1221.5" y="-167" font-family="Helvetica,sans-Serif" font-size="10.00">Active</text>
</a>
</g>
</g>
<!-- Node28&#45;&gt;Node29 -->
<g id="edge31" class="edge">
<title>Node28&#45;&gt;Node29</title>
<path fill="none" stroke="midnightblue" d="M1057.8,-180.5C1077.23,-180.5 1098.46,-180.5 1118.99,-180.5"/>
<polygon fill="midnightblue" stroke="midnightblue" points="1118.99,-184 1128.99,-180.5 1118.99,-177 1118.99,-184"/>
</g>
<!-- Node32 -->
<g id="node32" class="node">
<title>Node32</title>
<g id="a_node32"><a xlink:href="classdenoptim_1_1gui_1_1_graph_vertex_mol_viewer_panel.html#af9c75e107b2b7c1b90956962737313ad" target="_top" xlink:title=" ">
<polygon fill="white" stroke="black" points="670.5,-49.5 670.5,-79.5 798.5,-79.5 798.5,-49.5 670.5,-49.5"/>
<text text-anchor="start" x="678.5" y="-67.5" font-family="Helvetica,sans-Serif" font-size="10.00">denoptim.gui.GraphVertex</text>
<text text-anchor="middle" x="734.5" y="-56.5" font-family="Helvetica,sans-Serif" font-size="10.00">MolViewerPanel.dispose</text>
</a>
</g>
</g>
<!-- Node31&#45;&gt;Node32 -->
<g id="edge34" class="edge">
<title>Node31&#45;&gt;Node32</title>
<path fill="none" stroke="midnightblue" d="M597.73,-74.18C618.39,-72.7 640.17,-71.15 660.09,-69.73"/>
<polygon fill="midnightblue" stroke="midnightblue" points="660.59,-73.2 670.32,-69 660.1,-66.22 660.59,-73.2"/>
</g>
<!-- Node32&#45;&gt;Node32 -->
<g id="edge37" class="edge">
<title>Node32&#45;&gt;Node32</title>
<path fill="none" stroke="midnightblue" d="M695.11,-79.66C685.62,-89.06 698.75,-98 734.5,-98 756.29,-98 769.67,-94.68 774.66,-89.96"/>
<polygon fill="midnightblue" stroke="midnightblue" points="778.12,-89.37 773.89,-79.66 771.14,-89.89 778.12,-89.37"/>
</g>
<!-- Node33 -->
<g id="node33" class="node">
<title>Node33</title>
<g id="a_node33"><a xlink:href="classdenoptim_1_1gui_1_1_fragment_view_panel.html#a9ca37c0606b3e1f5dee183b405b07d2d" target="_top" xlink:title=" ">
<polygon fill="white" stroke="black" points="913,-98.5 913,-128.5 1050,-128.5 1050,-98.5 913,-98.5"/>
<text text-anchor="start" x="921" y="-116.5" font-family="Helvetica,sans-Serif" font-size="10.00">denoptim.gui.FragmentView</text>
<text text-anchor="middle" x="981.5" y="-105.5" font-family="Helvetica,sans-Serif" font-size="10.00">Panel.dispose</text>
</a>
</g>
</g>
<!-- Node32&#45;&gt;Node33 -->
<g id="edge35" class="edge">
<title>Node32&#45;&gt;Node33</title>
<path fill="none" stroke="midnightblue" d="M798.59,-77.12C830.33,-83.47 869.09,-91.22 902.66,-97.93"/>
<polygon fill="midnightblue" stroke="midnightblue" points="902.4,-101.45 912.9,-99.98 903.78,-94.59 902.4,-101.45"/>
</g>
<!-- Node35 -->
<g id="node35" class="node">
<title>Node35</title>
<g id="a_node35"><a xlink:href="classdenoptim_1_1gui_1_1_graph_viewer_panel.html#a99d4a461e15c4fb9f9132a41181825bd" target="_top" xlink:title=" ">
<polygon fill="white" stroke="black" points="916.5,-0.5 916.5,-30.5 1046.5,-30.5 1046.5,-0.5 916.5,-0.5"/>
<text text-anchor="start" x="924.5" y="-18.5" font-family="Helvetica,sans-Serif" font-size="10.00">denoptim.gui.GraphViewer</text>
<text text-anchor="middle" x="981.5" y="-7.5" font-family="Helvetica,sans-Serif" font-size="10.00">Panel.dispose</text>
</a>
</g>
</g>
<!-- Node32&#45;&gt;Node35 -->
<g id="edge38" class="edge">
<title>Node32&#45;&gt;Node35</title>
<path fill="none" stroke="midnightblue" d="M798.59,-51.88C831.5,-45.3 871.95,-37.21 906.35,-30.33"/>
<polygon fill="midnightblue" stroke="midnightblue" points="907.22,-33.72 916.34,-28.33 905.85,-26.86 907.22,-33.72"/>
</g>
<!-- Node37 -->
<g id="node37" class="node">
<title>Node37</title>
<g id="a_node37"><a xlink:href="classdenoptim_1_1gui_1_1_molecule_view_panel.html#aa3eb9fa70c64b518c4797cb1d1675ff9" target="_top" xlink:title=" ">
<polygon fill="white" stroke="black" points="914.5,-49.5 914.5,-79.5 1048.5,-79.5 1048.5,-49.5 914.5,-49.5"/>
<text text-anchor="start" x="922.5" y="-67.5" font-family="Helvetica,sans-Serif" font-size="10.00">denoptim.gui.MoleculeView</text>
<text text-anchor="middle" x="981.5" y="-56.5" font-family="Helvetica,sans-Serif" font-size="10.00">Panel.dispose</text>
</a>
</g>
</g>
<!-- Node32&#45;&gt;Node37 -->
<g id="edge40" class="edge">
<title>Node32&#45;&gt;Node37</title>
<path fill="none" stroke="midnightblue" d="M798.59,-64.5C830.72,-64.5 870.03,-64.5 903.88,-64.5"/>
<polygon fill="midnightblue" stroke="midnightblue" points="904.19,-68 914.19,-64.5 904.19,-61 904.19,-68"/>
</g>
<!-- Node34 -->
<g id="node34" class="node">
<title>Node34</title>
<g id="a_node34"><a xlink:href="classdenoptim_1_1gui_1_1_jmol_panel.html#a83ab608f9724a6305640ad8722ad6c3e" target="_top" xlink:title=" ">
<polygon fill="white" stroke="black" points="1144,-79 1144,-98 1299,-98 1299,-79 1144,-79"/>
<text text-anchor="middle" x="1221.5" y="-86" font-family="Helvetica,sans-Serif" font-size="10.00">denoptim.gui.JmolPanel.dispose</text>
</a>
</g>
</g>
<!-- Node33&#45;&gt;Node34 -->
<g id="edge36" class="edge">
<title>Node33&#45;&gt;Node34</title>
<path fill="none" stroke="midnightblue" d="M1050.06,-106.4C1076.14,-103.66 1106.28,-100.5 1133.91,-97.6"/>
<polygon fill="midnightblue" stroke="midnightblue" points="1134.38,-101.07 1143.96,-96.54 1133.65,-94.1 1134.38,-101.07"/>
</g>
<!-- Node36 -->
<g id="node36" class="node">
<title>Node36</title>
<g id="a_node36"><a xlink:href="classdenoptim_1_1gui_1_1_graph_viewer_panel.html#a581e856de9d7b202a219773b3d9bef2a" target="_top" xlink:title="Removes the currently loaded graph viewer.">
<polygon fill="white" stroke="black" points="1156.5,-0.5 1156.5,-30.5 1286.5,-30.5 1286.5,-0.5 1156.5,-0.5"/>
<text text-anchor="start" x="1164.5" y="-18.5" font-family="Helvetica,sans-Serif" font-size="10.00">denoptim.gui.GraphViewer</text>
<text text-anchor="middle" x="1221.5" y="-7.5" font-family="Helvetica,sans-Serif" font-size="10.00">Panel.cleanup</text>
</a>
</g>
</g>
<!-- Node35&#45;&gt;Node36 -->
<g id="edge39" class="edge">
<title>Node35&#45;&gt;Node36</title>
<path fill="none" stroke="midnightblue" d="M1046.59,-15.5C1077.28,-15.5 1114.2,-15.5 1146.12,-15.5"/>
<polygon fill="midnightblue" stroke="midnightblue" points="1146.29,-19 1156.29,-15.5 1146.29,-12 1146.29,-19"/>
</g>
<!-- Node37&#45;&gt;Node34 -->
<g id="edge41" class="edge">
<title>Node37&#45;&gt;Node34</title>
<path fill="none" stroke="midnightblue" d="M1048.8,-71.19C1075.01,-73.83 1105.5,-76.9 1133.45,-79.72"/>
<polygon fill="midnightblue" stroke="midnightblue" points="1133.32,-83.23 1143.62,-80.75 1134.03,-76.26 1133.32,-83.23"/>
</g>
</g>
</svg>
        <g id="navigator" transform="translate(0 0)" fill="#404254">
                <rect fill="#f2f5e9" fill-opacity="0.5" stroke="#606060" stroke-width=".5" x="0" y="0" width="60" height="60"/>
                <use id="zoomplus" xlink:href="#zoomPlus" x="17" y="9" onmousedown="handleZoom(evt,'in')"/>
                <use id="zoomminus" xlink:href="#zoomMin" x="42" y="9" onmousedown="handleZoom(evt,'out')"/>
                <use id="reset" xlink:href="#resetDef" x="30" y="36" onmousedown="handleReset()"/>
                <g id="arrowUp" xlink:href="#dirArrow" transform="translate(30 24)" onmousedown="handlePan(0,-1)">
                  <use xlink:href="#rim" fill="#404040">
                        <set attributeName="fill" to="#808080" begin="arrowUp.mouseover" end="arrowUp.mouseout"/>
                  </use>
                  <path fill="none" stroke="white" stroke-width="1.5" d="M0,-3.0v7 M-2.5,-0.5L0,-3.0L2.5,-0.5"/>
                </g>
                <g id="arrowRight" xlink:href="#dirArrow" transform="rotate(90) translate(36 -43)" onmousedown="handlePan(1,0)">
                  <use xlink:href="#rim" fill="#404040">
                        <set attributeName="fill" to="#808080" begin="arrowRight.mouseover" end="arrowRight.mouseout"/>
                  </use>
                  <path fill="none" stroke="white" stroke-width="1.5" d="M0,-3.0v7 M-2.5,-0.5L0,-3.0L2.5,-0.5"/>
                </g>
                <g id="arrowDown" xlink:href="#dirArrow" transform="rotate(180) translate(-30 -48)" onmousedown="handlePan(0,1)">
                  <use xlink:href="#rim" fill="#404040">
                        <set attributeName="fill" to="#808080" begin="arrowDown.mouseover" end="arrowDown.mouseout"/>
                  </use>
                  <path fill="none" stroke="white" stroke-width="1.5" d="M0,-3.0v7 M-2.5,-0.5L0,-3.0L2.5,-0.5"/>
                </g>
                <g id="arrowLeft" xlink:href="#dirArrow" transform="rotate(270) translate(-36 17)" onmousedown="handlePan(-1,0)">
                  <use xlink:href="#rim" fill="#404040">
                        <set attributeName="fill" to="#808080" begin="arrowLeft.mouseover" end="arrowLeft.mouseout"/>
                  </use>
                  <path fill="none" stroke="white" stroke-width="1.5" d="M0,-3.0v7 M-2.5,-0.5L0,-3.0L2.5,-0.5"/>
                </g>
        </g>
        <svg viewBox="0 0 15 15" width="100%" height="30px" preserveAspectRatio="xMaxYMin meet">
         <g id="arrow_out" transform="scale(0.3 0.3)">
          <a xlink:href="classdenoptim_1_1gui_1_1_g_u_i_graph_handler_a67ce3e03e9d13d3f312652296d25c0a5_cgraph_org.svg" target="_base">
           <rect id="button" ry="5" rx="5" y="6" x="6" height="38" width="38"
                fill="#f2f5e9" fill-opacity="0.5" stroke="#606060" stroke-width="1.0"/>
           <path id="arrow"
             d="M 11.500037,31.436501 C 11.940474,20.09759 22.043105,11.32322 32.158766,21.979434 L 37.068811,17.246167 C 37.068811,17.246167 37.088388,32 37.088388,32 L 22.160133,31.978069 C 22.160133,31.978069 26.997745,27.140456 26.997745,27.140456 C 18.528582,18.264221 13.291696,25.230495 11.500037,31.436501 z"
             style="fill:#404040;"/>
          </a>
         </g>
        </svg>
</svg>
