<?xml version="1.0" encoding="UTF-8" standalone="no"?>
<!DOCTYPE svg PUBLIC "-//W3C//DTD SVG 1.1//EN"
 "http://www.w3.org/Graphics/SVG/1.1/DTD/svg11.dtd">
<!-- Generated by graphviz version 3.0.0 (20221109.1736)
 -->
<!-- Title: denoptim.gui.VertexAsTwoDimStructureViewPanel.loadVertexToViewer Pages: 1 -->
<!--zoomable 272 -->
<svg id="main" version="1.1" xmlns="http://www.w3.org/2000/svg" xmlns:xlink="http://www.w3.org/1999/xlink" xml:space="preserve" onload="init(evt)">
<style type="text/css"><![CDATA[
.edge:hover path { stroke: red; }
.edge:hover polygon { stroke: red; fill: red; }
]]></style>
<script type="text/javascript"><![CDATA[
var edges = document.getElementsByTagName('g');
if (edges && edges.length) {
  for (var i=0;i<edges.length;i++) {
    if (edges[i].id.substr(0,4)=='edge') {
      edges[i].setAttribute('class','edge');
    }
  }
}
]]></script>
        <defs>
                <circle id="rim" cx="0" cy="0" r="7"/>
                <circle id="rim2" cx="0" cy="0" r="3.5"/>
                <g id="zoomPlus">
                        <use xlink:href="#rim" fill="#404040">
                                <set attributeName="fill" to="#808080" begin="zoomplus.mouseover" end="zoomplus.mouseout"/>
                        </use>
                        <path d="M-4,0h8M0,-4v8" fill="none" stroke="white" stroke-width="1.5" pointer-events="none"/>
                </g>
                <g id="zoomMin">
                        <use xlink:href="#rim" fill="#404040">
                                <set attributeName="fill" to="#808080" begin="zoomminus.mouseover" end="zoomminus.mouseout"/>
                        </use>
                        <path d="M-4,0h8" fill="none" stroke="white" stroke-width="1.5" pointer-events="none"/>
                </g>
                <g id="dirArrow">
                        <path fill="none" stroke="white" stroke-width="1.5" d="M0,-3.0v7 M-2.5,-0.5L0,-3.0L2.5,-0.5"/>
                </g>
               <g id="resetDef">
                       <use xlink:href="#rim2" fill="#404040">
                               <set attributeName="fill" to="#808080" begin="reset.mouseover" end="reset.mouseout"/>
                       </use>
               </g>
        </defs>

<script type="text/javascript">
var viewWidth = 1003;
var viewHeight = 272;
var sectionId = 'dynsection-13';
</script>
<script xlink:href="svgpan.js"/>
<svg id="graph" class="graph">
<g id="viewport">
<title>denoptim.gui.VertexAsTwoDimStructureViewPanel.loadVertexToViewer</title>
<polygon fill="white" stroke="transparent" points="-4,4 -4,-267.5 999,-267.5 999,4 -4,4"/>
<!-- Node1 -->
<g id="node1" class="node">
<title>Node1</title>
<g id="a_node1"><a xlink:title=" ">
<polygon fill="#bfbfbf" stroke="black" points="0,-124 0,-165 168,-165 168,-124 0,-124"/>
<text text-anchor="start" x="8" y="-153" font-family="Helvetica,sans-Serif" font-size="10.00">denoptim.gui.VertexAsTwo</text>
<text text-anchor="start" x="8" y="-142" font-family="Helvetica,sans-Serif" font-size="10.00">DimStructureViewPanel.loadVertex</text>
<text text-anchor="middle" x="84" y="-131" font-family="Helvetica,sans-Serif" font-size="10.00">ToViewer</text>
</a>
</g>
</g>
<!-- Node2 -->
<g id="node2" class="node">
<title>Node2</title>
<g id="a_node2"><a xlink:href="classdenoptim_1_1gui_1_1_vertex_as_two_dim_structure_view_panel.html#a96588a21ab72f01a72c846d3d1dc08c6" target="_top" xlink:title="Clears the table of attachment points.">
<polygon fill="white" stroke="black" points="422,-88.5 422,-118.5 603,-118.5 603,-88.5 422,-88.5"/>
<text text-anchor="start" x="430" y="-106.5" font-family="Helvetica,sans-Serif" font-size="10.00">denoptim.gui.VertexAsTwo</text>
<text text-anchor="middle" x="512.5" y="-95.5" font-family="Helvetica,sans-Serif" font-size="10.00">DimStructureViewPanel.clearAPTable</text>
</a>
</g>
</g>
<!-- Node1&#45;&gt;Node2 -->
<g id="edge1" class="edge">
<title>Node1&#45;&gt;Node2</title>
<path fill="none" stroke="midnightblue" d="M168.27,-141.72C228.82,-139.09 312.69,-134.21 386,-125.5 398.22,-124.05 411.05,-122.19 423.66,-120.17"/>
<polygon fill="midnightblue" stroke="midnightblue" points="424.4,-123.59 433.7,-118.51 423.27,-116.68 424.4,-123.59"/>
</g>
<!-- Node5 -->
<g id="node5" class="node">
<title>Node5</title>
<g id="a_node5"><a xlink:href="classdenoptim_1_1gui_1_1_vertex_as_two_dim_structure_view_panel.html#aea1a1a4a407b6886148f398f09fe78b3" target="_top" xlink:title=" ">
<polygon fill="white" stroke="black" points="211,-222 211,-263 379,-263 379,-222 211,-222"/>
<text text-anchor="start" x="219" y="-251" font-family="Helvetica,sans-Serif" font-size="10.00">denoptim.gui.VertexAsTwo</text>
<text text-anchor="start" x="219" y="-240" font-family="Helvetica,sans-Serif" font-size="10.00">DimStructureViewPanel.loadVertex</text>
<text text-anchor="middle" x="295" y="-229" font-family="Helvetica,sans-Serif" font-size="10.00">Structure</text>
</a>
</g>
</g>
<!-- Node1&#45;&gt;Node5 -->
<g id="edge4" class="edge">
<title>Node1&#45;&gt;Node5</title>
<path fill="none" stroke="midnightblue" d="M116.34,-165.16C139.79,-179.99 173.02,-199.72 204,-213.5 207.8,-215.19 211.72,-216.83 215.71,-218.41"/>
<polygon fill="midnightblue" stroke="midnightblue" points="214.53,-221.7 225.12,-221.99 217.02,-215.16 214.53,-221.7"/>
</g>
<!-- Node7 -->
<g id="node7" class="node">
<title>Node7</title>
<g id="a_node7"><a xlink:href="classdenoptim_1_1gui_1_1_vertex_as_two_dim_structure_view_panel.html#a0ce8a719faec963fb57855c12a8ddb4d" target="_top" xlink:title=" ">
<polygon fill="white" stroke="black" points="204,-173.5 204,-203.5 386,-203.5 386,-173.5 204,-173.5"/>
<text text-anchor="start" x="212" y="-191.5" font-family="Helvetica,sans-Serif" font-size="10.00">denoptim.gui.VertexAsTwo</text>
<text text-anchor="middle" x="295" y="-180.5" font-family="Helvetica,sans-Serif" font-size="10.00">DimStructureViewPanel.preSelectAPs</text>
</a>
</g>
</g>
<!-- Node1&#45;&gt;Node7 -->
<g id="edge6" class="edge">
<title>Node1&#45;&gt;Node7</title>
<path fill="none" stroke="midnightblue" d="M168.2,-162.02C182.82,-165.09 198.01,-168.29 212.57,-171.36"/>
<polygon fill="midnightblue" stroke="midnightblue" points="212.04,-174.82 222.54,-173.46 213.48,-167.97 212.04,-174.82"/>
</g>
<!-- Node9 -->
<g id="node9" class="node">
<title>Node9</title>
<g id="a_node9"><a xlink:href="classdenoptim_1_1gui_1_1_vertex_as_two_dim_structure_view_panel.html#a27bd1b9426bdc53468cbfd8afea54f7d" target="_top" xlink:title=" ">
<polygon fill="white" stroke="black" points="213,-75 213,-116 377,-116 377,-75 213,-75"/>
<text text-anchor="start" x="221" y="-104" font-family="Helvetica,sans-Serif" font-size="10.00">denoptim.gui.VertexAsTwo</text>
<text text-anchor="start" x="221" y="-93" font-family="Helvetica,sans-Serif" font-size="10.00">DimStructureViewPanel.setVertex</text>
<text text-anchor="middle" x="295" y="-82" font-family="Helvetica,sans-Serif" font-size="10.00">SpecificEditableAPTable</text>
</a>
</g>
</g>
<!-- Node1&#45;&gt;Node9 -->
<g id="edge9" class="edge">
<title>Node1&#45;&gt;Node9</title>
<path fill="none" stroke="midnightblue" d="M168.2,-124.99C179.56,-122.33 191.27,-119.59 202.76,-116.89"/>
<polygon fill="midnightblue" stroke="midnightblue" points="203.85,-120.23 212.79,-114.54 202.25,-113.42 203.85,-120.23"/>
</g>
<!-- Node10 -->
<g id="node10" class="node">
<title>Node10</title>
<g id="a_node10"><a xlink:href="classdenoptim_1_1gui_1_1_vertex_as_two_dim_structure_view_panel.html#af05043aa9732bea8f31603a41e3c1dea" target="_top" xlink:title="Uses the AP of the Fragment to create a new map and table of APs.">
<polygon fill="white" stroke="black" points="219,-15 219,-56 371,-56 371,-15 219,-15"/>
<text text-anchor="start" x="227" y="-44" font-family="Helvetica,sans-Serif" font-size="10.00">denoptim.gui.VertexAsTwo</text>
<text text-anchor="start" x="227" y="-33" font-family="Helvetica,sans-Serif" font-size="10.00">DimStructureViewPanel.update</text>
<text text-anchor="middle" x="295" y="-22" font-family="Helvetica,sans-Serif" font-size="10.00">APsMapAndTable</text>
</a>
</g>
</g>
<!-- Node1&#45;&gt;Node10 -->
<g id="edge10" class="edge">
<title>Node1&#45;&gt;Node10</title>
<path fill="none" stroke="midnightblue" d="M111.65,-123.82C134.99,-106.45 170.35,-81.92 204,-65.5 208.02,-63.54 212.2,-61.65 216.47,-59.85"/>
<polygon fill="midnightblue" stroke="midnightblue" points="217.93,-63.04 225.9,-56.05 215.31,-56.55 217.93,-63.04"/>
</g>
<!-- Node3 -->
<g id="node3" class="node">
<title>Node3</title>
<g id="a_node3"><a xlink:href="classdenoptim_1_1gui_1_1_vertex_as_two_dim_structure_view_panel.html#a69ceb353f2391f1e5b25dc6e6bc88492" target="_top" xlink:title="Allows to activate and deactivate the listener.">
<polygon fill="white" stroke="black" points="639,-83 639,-124 796,-124 796,-83 639,-83"/>
<text text-anchor="start" x="647" y="-112" font-family="Helvetica,sans-Serif" font-size="10.00">denoptim.gui.VertexAsTwo</text>
<text text-anchor="start" x="647" y="-101" font-family="Helvetica,sans-Serif" font-size="10.00">DimStructureViewPanel.activate</text>
<text text-anchor="middle" x="717.5" y="-90" font-family="Helvetica,sans-Serif" font-size="10.00">TabEditsListener</text>
</a>
</g>
</g>
<!-- Node2&#45;&gt;Node3 -->
<g id="edge2" class="edge">
<title>Node2&#45;&gt;Node3</title>
<path fill="none" stroke="midnightblue" d="M603.13,-103.5C611.59,-103.5 620.16,-103.5 628.6,-103.5"/>
<polygon fill="midnightblue" stroke="midnightblue" points="628.81,-107 638.81,-103.5 628.81,-100 628.81,-107"/>
</g>
<!-- Node4 -->
<g id="node4" class="node">
<title>Node4</title>
<g id="a_node4"><a xlink:href="classdenoptim_1_1gui_1_1_vertex_as_two_dim_structure_view_panel_1_1_pausable_table_model_listener.html#a326ffbf277447d4c06bcb4fbf85f20cb" target="_top" xlink:title=" ">
<polygon fill="white" stroke="black" points="832,-83 832,-124 995,-124 995,-83 832,-83"/>
<text text-anchor="start" x="840" y="-112" font-family="Helvetica,sans-Serif" font-size="10.00">denoptim.gui.VertexAsTwo</text>
<text text-anchor="start" x="840" y="-101" font-family="Helvetica,sans-Serif" font-size="10.00">DimStructureViewPanel.Pausable</text>
<text text-anchor="middle" x="913.5" y="-90" font-family="Helvetica,sans-Serif" font-size="10.00">TableModelListener.setActive</text>
</a>
</g>
</g>
<!-- Node3&#45;&gt;Node4 -->
<g id="edge3" class="edge">
<title>Node3&#45;&gt;Node4</title>
<path fill="none" stroke="midnightblue" d="M796.01,-103.5C804.51,-103.5 813.21,-103.5 821.85,-103.5"/>
<polygon fill="midnightblue" stroke="midnightblue" points="821.94,-107 831.94,-103.5 821.94,-100 821.94,-107"/>
</g>
<!-- Node6 -->
<g id="node6" class="node">
<title>Node6</title>
<g id="a_node6"><a xlink:href="classdenoptim_1_1gui_1_1_vertex_as_two_dim_structure_view_panel.html#a2caf56ade915a499efa13013f71e0cba" target="_top" xlink:title="trashed the current panel displaying any 2D structure and replaces it with a new empty panel.">
<polygon fill="white" stroke="black" points="428.5,-227.5 428.5,-257.5 596.5,-257.5 596.5,-227.5 428.5,-227.5"/>
<text text-anchor="start" x="436.5" y="-245.5" font-family="Helvetica,sans-Serif" font-size="10.00">denoptim.gui.VertexAsTwo</text>
<text text-anchor="middle" x="512.5" y="-234.5" font-family="Helvetica,sans-Serif" font-size="10.00">DimStructureViewPanel.clearPanel</text>
</a>
</g>
</g>
<!-- Node5&#45;&gt;Node6 -->
<g id="edge5" class="edge">
<title>Node5&#45;&gt;Node6</title>
<path fill="none" stroke="midnightblue" d="M379.01,-242.5C391.73,-242.5 404.94,-242.5 417.88,-242.5"/>
<polygon fill="midnightblue" stroke="midnightblue" points="418.18,-246 428.18,-242.5 418.18,-239 418.18,-246"/>
</g>
<!-- Node7&#45;&gt;Node3 -->
<g id="edge7" class="edge">
<title>Node7&#45;&gt;Node3</title>
<path fill="none" stroke="midnightblue" d="M375.62,-173.48C437.65,-161.64 525.9,-144.52 603,-128.5 611.4,-126.75 620.13,-124.9 628.87,-123.02"/>
<polygon fill="midnightblue" stroke="midnightblue" points="629.67,-126.43 638.71,-120.89 628.19,-119.59 629.67,-126.43"/>
</g>
<!-- Node8 -->
<g id="node8" class="node">
<title>Node8</title>
<g id="a_node8"><a xlink:href="classdenoptim_1_1graph_1_1_vertex.html#a9ad275adf822019ad803cb3c95e9a6d2" target="_top" xlink:title=" ">
<polygon fill="white" stroke="black" points="448.5,-176.5 448.5,-206.5 576.5,-206.5 576.5,-176.5 448.5,-176.5"/>
<text text-anchor="start" x="456.5" y="-194.5" font-family="Helvetica,sans-Serif" font-size="10.00">denoptim.graph.Vertex.get</text>
<text text-anchor="middle" x="512.5" y="-183.5" font-family="Helvetica,sans-Serif" font-size="10.00">Property</text>
</a>
</g>
</g>
<!-- Node7&#45;&gt;Node8 -->
<g id="edge8" class="edge">
<title>Node7&#45;&gt;Node8</title>
<path fill="none" stroke="midnightblue" d="M386.14,-189.75C403.43,-190 421.34,-190.24 438.03,-190.48"/>
<polygon fill="midnightblue" stroke="midnightblue" points="438.19,-193.98 448.24,-190.62 438.29,-186.98 438.19,-193.98"/>
</g>
<!-- Node10&#45;&gt;Node2 -->
<g id="edge12" class="edge">
<title>Node10&#45;&gt;Node2</title>
<path fill="none" stroke="midnightblue" d="M361.24,-56.09C390.83,-65.42 425.51,-76.37 454.09,-85.39"/>
<polygon fill="midnightblue" stroke="midnightblue" points="453.34,-88.82 463.93,-88.49 455.45,-82.14 453.34,-88.82"/>
</g>
<!-- Node10&#45;&gt;Node3 -->
<g id="edge11" class="edge">
<title>Node10&#45;&gt;Node3</title>
<path fill="none" stroke="midnightblue" d="M371.29,-44.88C433.58,-52.98 524.27,-65.55 603,-79.5 611.43,-80.99 620.19,-82.65 628.94,-84.38"/>
<polygon fill="midnightblue" stroke="midnightblue" points="628.29,-87.82 638.79,-86.36 629.67,-80.96 628.29,-87.82"/>
</g>
<!-- Node11 -->
<g id="node11" class="node">
<title>Node11</title>
<g id="a_node11"><a xlink:href="classdenoptim_1_1graph_1_1_vertex.html#a85aa901ec3fff8e566c0cc32d9c9f84e" target="_top" xlink:title=" ">
<polygon fill="white" stroke="black" points="448.5,-0.5 448.5,-30.5 576.5,-30.5 576.5,-0.5 448.5,-0.5"/>
<text text-anchor="start" x="456.5" y="-18.5" font-family="Helvetica,sans-Serif" font-size="10.00">denoptim.graph.Vertex.get</text>
<text text-anchor="middle" x="512.5" y="-7.5" font-family="Helvetica,sans-Serif" font-size="10.00">AttachmentPoints</text>
</a>
</g>
</g>
<!-- Node10&#45;&gt;Node11 -->
<g id="edge13" class="edge">
<title>Node10&#45;&gt;Node11</title>
<path fill="none" stroke="midnightblue" d="M371.07,-28.53C392.88,-26.51 416.67,-24.3 438.36,-22.29"/>
<polygon fill="midnightblue" stroke="midnightblue" points="438.86,-25.76 448.49,-21.35 438.21,-18.79 438.86,-25.76"/>
</g>
</g>
</svg>
        <g id="navigator" transform="translate(0 0)" fill="#404254">
                <rect fill="#f2f5e9" fill-opacity="0.5" stroke="#606060" stroke-width=".5" x="0" y="0" width="60" height="60"/>
                <use id="zoomplus" xlink:href="#zoomPlus" x="17" y="9" onmousedown="handleZoom(evt,'in')"/>
                <use id="zoomminus" xlink:href="#zoomMin" x="42" y="9" onmousedown="handleZoom(evt,'out')"/>
                <use id="reset" xlink:href="#resetDef" x="30" y="36" onmousedown="handleReset()"/>
                <g id="arrowUp" xlink:href="#dirArrow" transform="translate(30 24)" onmousedown="handlePan(0,-1)">
                  <use xlink:href="#rim" fill="#404040">
                        <set attributeName="fill" to="#808080" begin="arrowUp.mouseover" end="arrowUp.mouseout"/>
                  </use>
                  <path fill="none" stroke="white" stroke-width="1.5" d="M0,-3.0v7 M-2.5,-0.5L0,-3.0L2.5,-0.5"/>
                </g>
                <g id="arrowRight" xlink:href="#dirArrow" transform="rotate(90) translate(36 -43)" onmousedown="handlePan(1,0)">
                  <use xlink:href="#rim" fill="#404040">
                        <set attributeName="fill" to="#808080" begin="arrowRight.mouseover" end="arrowRight.mouseout"/>
                  </use>
                  <path fill="none" stroke="white" stroke-width="1.5" d="M0,-3.0v7 M-2.5,-0.5L0,-3.0L2.5,-0.5"/>
                </g>
                <g id="arrowDown" xlink:href="#dirArrow" transform="rotate(180) translate(-30 -48)" onmousedown="handlePan(0,1)">
                  <use xlink:href="#rim" fill="#404040">
                        <set attributeName="fill" to="#808080" begin="arrowDown.mouseover" end="arrowDown.mouseout"/>
                  </use>
                  <path fill="none" stroke="white" stroke-width="1.5" d="M0,-3.0v7 M-2.5,-0.5L0,-3.0L2.5,-0.5"/>
                </g>
                <g id="arrowLeft" xlink:href="#dirArrow" transform="rotate(270) translate(-36 17)" onmousedown="handlePan(-1,0)">
                  <use xlink:href="#rim" fill="#404040">
                        <set attributeName="fill" to="#808080" begin="arrowLeft.mouseover" end="arrowLeft.mouseout"/>
                  </use>
                  <path fill="none" stroke="white" stroke-width="1.5" d="M0,-3.0v7 M-2.5,-0.5L0,-3.0L2.5,-0.5"/>
                </g>
        </g>
        <svg viewBox="0 0 15 15" width="100%" height="30px" preserveAspectRatio="xMaxYMin meet">
         <g id="arrow_out" transform="scale(0.3 0.3)">
          <a xlink:href="classdenoptim_1_1gui_1_1_vertex_as_two_dim_structure_view_panel_ab86329c1976609bf004a1b4345213bf5_cgraph_org.svg" target="_base">
           <rect id="button" ry="5" rx="5" y="6" x="6" height="38" width="38"
                fill="#f2f5e9" fill-opacity="0.5" stroke="#606060" stroke-width="1.0"/>
           <path id="arrow"
             d="M 11.500037,31.436501 C 11.940474,20.09759 22.043105,11.32322 32.158766,21.979434 L 37.068811,17.246167 C 37.068811,17.246167 37.088388,32 37.088388,32 L 22.160133,31.978069 C 22.160133,31.978069 26.997745,27.140456 26.997745,27.140456 C 18.528582,18.264221 13.291696,25.230495 11.500037,31.436501 z"
             style="fill:#404040;"/>
          </a>
         </g>
        </svg>
</svg>
