<?xml version="1.0" encoding="UTF-8" standalone="no"?>
<!DOCTYPE svg PUBLIC "-//W3C//DTD SVG 1.1//EN"
 "http://www.w3.org/Graphics/SVG/1.1/DTD/svg11.dtd">
<!-- Generated by graphviz version 3.0.0 (20221109.1736)
 -->
<!-- Title: denoptim.gui.GraphVertexMolViewerPanel.clearVertexViewer Pages: 1 -->
<svg width="952pt" height="123pt"
 viewBox="0.00 0.00 952.00 122.50" xmlns="http://www.w3.org/2000/svg" xmlns:xlink="http://www.w3.org/1999/xlink">
<g id="graph0" class="graph" transform="scale(1 1) rotate(0) translate(4 118.5)">
<title>denoptim.gui.GraphVertexMolViewerPanel.clearVertexViewer</title>
<polygon fill="white" stroke="transparent" points="-4,4 -4,-118.5 948,-118.5 948,4 -4,4"/>
<!-- Node1 -->
<g id="node1" class="node">
<title>Node1</title>
<g id="a_node1"><a xlink:title="Clears the molecular viewer and hides it behind the empty card.">
<polygon fill="#bfbfbf" stroke="black" points="0,-51.5 0,-81.5 168,-81.5 168,-51.5 0,-51.5"/>
<text text-anchor="start" x="8" y="-69.5" font-family="Helvetica,sans-Serif" font-size="10.00">denoptim.gui.GraphVertex</text>
<text text-anchor="middle" x="84" y="-58.5" font-family="Helvetica,sans-Serif" font-size="10.00">MolViewerPanel.clearVertexViewer</text>
</a>
</g>
</g>
<!-- Node2 -->
<g id="node2" class="node">
<title>Node2</title>
<g id="a_node2"><a xlink:href="classdenoptim_1_1gui_1_1_graph_vertex_mol_viewer_panel.html#a161579a33a00d54d8cc3610cacd3d98e" target="_top" xlink:title="Allows to show the given card in the vertex viewer panel.">
<polygon fill="white" stroke="black" points="204,-73 204,-114 362,-114 362,-73 204,-73"/>
<text text-anchor="start" x="212" y="-102" font-family="Helvetica,sans-Serif" font-size="10.00">denoptim.gui.GraphVertex</text>
<text text-anchor="start" x="212" y="-91" font-family="Helvetica,sans-Serif" font-size="10.00">MolViewerPanel.bringCardToTop</text>
<text text-anchor="middle" x="283" y="-80" font-family="Helvetica,sans-Serif" font-size="10.00">OfVertexViewer</text>
</a>
</g>
</g>
<!-- Node1&#45;&gt;Node2 -->
<g id="edge1" class="edge">
<title>Node1&#45;&gt;Node2</title>
<path fill="none" stroke="midnightblue" d="M168.26,-77.91C176.71,-79.07 185.32,-80.25 193.82,-81.41"/>
<polygon fill="midnightblue" stroke="midnightblue" points="193.36,-84.88 203.74,-82.77 194.31,-77.95 193.36,-84.88"/>
</g>
<!-- Node3 -->
<g id="node3" class="node">
<title>Node3</title>
<g id="a_node3"><a xlink:href="classdenoptim_1_1gui_1_1_fragment_view_panel.html#a5b02a7e511de2c6dd4aa18420d5f76f8" target="_top" xlink:title="Removes the currently visualized molecule and AP table.">
<polygon fill="white" stroke="black" points="214.5,-24.5 214.5,-54.5 351.5,-54.5 351.5,-24.5 214.5,-24.5"/>
<text text-anchor="start" x="222.5" y="-42.5" font-family="Helvetica,sans-Serif" font-size="10.00">denoptim.gui.FragmentView</text>
<text text-anchor="middle" x="283" y="-31.5" font-family="Helvetica,sans-Serif" font-size="10.00">Panel.clearAll</text>
</a>
</g>
</g>
<!-- Node1&#45;&gt;Node3 -->
<g id="edge2" class="edge">
<title>Node1&#45;&gt;Node3</title>
<path fill="none" stroke="midnightblue" d="M168.26,-55.09C180.12,-53.46 192.28,-51.8 204.03,-50.19"/>
<polygon fill="midnightblue" stroke="midnightblue" points="204.8,-53.61 214.24,-48.79 203.85,-46.68 204.8,-53.61"/>
</g>
<!-- Node4 -->
<g id="node4" class="node">
<title>Node4</title>
<g id="a_node4"><a xlink:href="classdenoptim_1_1gui_1_1_fragment_view_panel.html#a65e5473c03b2075c97fbfa9b587b8949" target="_top" xlink:title="Clears the table of attachment points.">
<polygon fill="white" stroke="black" points="398,-49.5 398,-79.5 535,-79.5 535,-49.5 398,-49.5"/>
<text text-anchor="start" x="406" y="-67.5" font-family="Helvetica,sans-Serif" font-size="10.00">denoptim.gui.FragmentView</text>
<text text-anchor="middle" x="466.5" y="-56.5" font-family="Helvetica,sans-Serif" font-size="10.00">Panel.clearAPTable</text>
</a>
</g>
</g>
<!-- Node3&#45;&gt;Node4 -->
<g id="edge3" class="edge">
<title>Node3&#45;&gt;Node4</title>
<path fill="none" stroke="midnightblue" d="M351.58,-48.81C363.39,-50.44 375.77,-52.14 387.82,-53.8"/>
<polygon fill="midnightblue" stroke="midnightblue" points="387.48,-57.29 397.86,-55.18 388.43,-50.35 387.48,-57.29"/>
</g>
<!-- Node7 -->
<g id="node7" class="node">
<title>Node7</title>
<g id="a_node7"><a xlink:href="classdenoptim_1_1gui_1_1_fragment_view_panel.html#ad2fc717c7c33817e4178031130d46f6d" target="_top" xlink:title="Clears the molecular viewer.">
<polygon fill="white" stroke="black" points="398,-0.5 398,-30.5 535,-30.5 535,-0.5 398,-0.5"/>
<text text-anchor="start" x="406" y="-18.5" font-family="Helvetica,sans-Serif" font-size="10.00">denoptim.gui.FragmentView</text>
<text text-anchor="middle" x="466.5" y="-7.5" font-family="Helvetica,sans-Serif" font-size="10.00">Panel.clearMolecularViewer</text>
</a>
</g>
</g>
<!-- Node3&#45;&gt;Node7 -->
<g id="edge6" class="edge">
<title>Node3&#45;&gt;Node7</title>
<path fill="none" stroke="midnightblue" d="M351.58,-30.56C363.39,-29 375.77,-27.37 387.82,-25.77"/>
<polygon fill="midnightblue" stroke="midnightblue" points="388.4,-29.22 397.86,-24.44 387.49,-22.29 388.4,-29.22"/>
</g>
<!-- Node5 -->
<g id="node5" class="node">
<title>Node5</title>
<g id="a_node5"><a xlink:href="classdenoptim_1_1gui_1_1_fragment_view_panel.html#ad1564e5c67234495668c68f02ab04ed4" target="_top" xlink:title="Allows to activate and deactivate the listener.">
<polygon fill="white" stroke="black" points="571,-49.5 571,-79.5 723,-79.5 723,-49.5 571,-49.5"/>
<text text-anchor="start" x="579" y="-67.5" font-family="Helvetica,sans-Serif" font-size="10.00">denoptim.gui.FragmentView</text>
<text text-anchor="middle" x="647" y="-56.5" font-family="Helvetica,sans-Serif" font-size="10.00">Panel.activateTabEditsListener</text>
</a>
</g>
</g>
<!-- Node4&#45;&gt;Node5 -->
<g id="edge4" class="edge">
<title>Node4&#45;&gt;Node5</title>
<path fill="none" stroke="midnightblue" d="M535.24,-64.5C543.6,-64.5 552.24,-64.5 560.82,-64.5"/>
<polygon fill="midnightblue" stroke="midnightblue" points="560.85,-68 570.85,-64.5 560.85,-61 560.85,-68"/>
</g>
<!-- Node6 -->
<g id="node6" class="node">
<title>Node6</title>
<g id="a_node6"><a xlink:href="classdenoptim_1_1gui_1_1_fragment_view_panel_1_1_pausable_table_model_listener.html#ab8f315a71d317424e2647c160fc3fdfb" target="_top" xlink:title=" ">
<polygon fill="white" stroke="black" points="759,-44 759,-85 944,-85 944,-44 759,-44"/>
<text text-anchor="start" x="767" y="-73" font-family="Helvetica,sans-Serif" font-size="10.00">denoptim.gui.FragmentView</text>
<text text-anchor="start" x="767" y="-62" font-family="Helvetica,sans-Serif" font-size="10.00">Panel.PausableTableModelListener.set</text>
<text text-anchor="middle" x="851.5" y="-51" font-family="Helvetica,sans-Serif" font-size="10.00">Active</text>
</a>
</g>
</g>
<!-- Node5&#45;&gt;Node6 -->
<g id="edge5" class="edge">
<title>Node5&#45;&gt;Node6</title>
<path fill="none" stroke="midnightblue" d="M723.12,-64.5C731.45,-64.5 740.03,-64.5 748.63,-64.5"/>
<polygon fill="midnightblue" stroke="midnightblue" points="748.7,-68 758.7,-64.5 748.7,-61 748.7,-68"/>
</g>
</g>
</svg>
