<?xml version="1.0" encoding="UTF-8" standalone="no"?>
<!DOCTYPE svg PUBLIC "-//W3C//DTD SVG 1.1//EN"
 "http://www.w3.org/Graphics/SVG/1.1/DTD/svg11.dtd">
<!-- Generated by graphviz version 3.0.0 (20221109.1736)
 -->
<!-- Title: denoptim.graph.Ring.getCloserTo Pages: 1 -->
<svg width="530pt" height="127pt"
 viewBox="0.00 0.00 530.00 127.00" xmlns="http://www.w3.org/2000/svg" xmlns:xlink="http://www.w3.org/1999/xlink">
<g id="graph0" class="graph" transform="scale(1 1) rotate(0) translate(4 123)">
<title>denoptim.graph.Ring.getCloserTo</title>
<polygon fill="white" stroke="transparent" points="-4,4 -4,-123 526,-123 526,4 -4,4"/>
<!-- Node1 -->
<g id="node1" class="node">
<title>Node1</title>
<g id="a_node1"><a xlink:title="Chooses among the two given vertices the one that is closer to the target vertex.">
<polygon fill="#bfbfbf" stroke="black" points="363,-50 363,-69 522,-69 522,-50 363,-50"/>
<text text-anchor="middle" x="442.5" y="-57" font-family="Helvetica,sans-Serif" font-size="10.00">denoptim.graph.Ring.getCloserTo</text>
</a>
</g>
</g>
<!-- Node2 -->
<g id="node2" class="node">
<title>Node2</title>
<g id="a_node2"><a xlink:href="classdenoptim_1_1graph_1_1_ring.html#a2662f3078f277d97eebf88adc2d53742" target="_top" xlink:title="Chooses among the two given vertices the one that is closer to the head vertex.">
<polygon fill="white" stroke="black" points="179,-88.5 179,-118.5 327,-118.5 327,-88.5 179,-88.5"/>
<text text-anchor="start" x="187" y="-106.5" font-family="Helvetica,sans-Serif" font-size="10.00">denoptim.graph.Ring.getCloser</text>
<text text-anchor="middle" x="253" y="-95.5" font-family="Helvetica,sans-Serif" font-size="10.00">ToHead</text>
</a>
</g>
</g>
<!-- Node1&#45;&gt;Node2 -->
<g id="edge1" class="edge">
<title>Node1&#45;&gt;Node2</title>
<path fill="none" stroke="midnightblue" d="M390.86,-71.38C368.49,-76.63 341.94,-82.86 318.2,-88.43"/>
<polygon fill="midnightblue" stroke="midnightblue" points="391.88,-74.74 400.82,-69.05 390.28,-67.92 391.88,-74.74"/>
</g>
<!-- Node3 -->
<g id="node3" class="node">
<title>Node3</title>
<g id="a_node3"><a xlink:href="classdenoptim_1_1graph_1_1_ring_test.html#a239900f3f4e759fb8178a3a6de3d1a6e" target="_top" xlink:title=" ">
<polygon fill="white" stroke="black" points="0,-44.5 0,-74.5 143,-74.5 143,-44.5 0,-44.5"/>
<text text-anchor="start" x="8" y="-62.5" font-family="Helvetica,sans-Serif" font-size="10.00">denoptim.graph.RingTest.test</text>
<text text-anchor="middle" x="71.5" y="-51.5" font-family="Helvetica,sans-Serif" font-size="10.00">GetCloserVertex</text>
</a>
</g>
</g>
<!-- Node1&#45;&gt;Node3 -->
<g id="edge5" class="edge">
<title>Node1&#45;&gt;Node3</title>
<path fill="none" stroke="midnightblue" d="M352.68,-59.5C288.48,-59.5 202.9,-59.5 143.29,-59.5"/>
<polygon fill="midnightblue" stroke="midnightblue" points="352.79,-63 362.79,-59.5 352.79,-56 352.79,-63"/>
</g>
<!-- Node4 -->
<g id="node4" class="node">
<title>Node4</title>
<g id="a_node4"><a xlink:href="classdenoptim_1_1graph_1_1_ring.html#af177de24d64e641f9895af5dcfe647d4" target="_top" xlink:title="Chooses among the two given vertices the one that is closer to the tail vertex.">
<polygon fill="white" stroke="black" points="179,-0.5 179,-30.5 327,-30.5 327,-0.5 179,-0.5"/>
<text text-anchor="start" x="187" y="-18.5" font-family="Helvetica,sans-Serif" font-size="10.00">denoptim.graph.Ring.getCloser</text>
<text text-anchor="middle" x="253" y="-7.5" font-family="Helvetica,sans-Serif" font-size="10.00">ToTail</text>
</a>
</g>
</g>
<!-- Node1&#45;&gt;Node4 -->
<g id="edge3" class="edge">
<title>Node1&#45;&gt;Node4</title>
<path fill="none" stroke="midnightblue" d="M390.86,-47.62C368.49,-42.37 341.94,-36.14 318.2,-30.57"/>
<polygon fill="midnightblue" stroke="midnightblue" points="390.28,-51.08 400.82,-49.95 391.88,-44.26 390.28,-51.08"/>
</g>
<!-- Node2&#45;&gt;Node3 -->
<g id="edge2" class="edge">
<title>Node2&#45;&gt;Node3</title>
<path fill="none" stroke="midnightblue" d="M180.67,-86.01C165.16,-82.21 148.88,-78.22 133.8,-74.53"/>
<polygon fill="midnightblue" stroke="midnightblue" points="180.18,-89.5 190.73,-88.48 181.85,-82.7 180.18,-89.5"/>
</g>
<!-- Node4&#45;&gt;Node3 -->
<g id="edge4" class="edge">
<title>Node4&#45;&gt;Node3</title>
<path fill="none" stroke="midnightblue" d="M180.67,-32.99C165.16,-36.79 148.88,-40.78 133.8,-44.47"/>
<polygon fill="midnightblue" stroke="midnightblue" points="181.85,-36.3 190.73,-30.52 180.18,-29.5 181.85,-36.3"/>
</g>
</g>
</svg>
