<?xml version="1.0" encoding="UTF-8" standalone="no"?>
<!DOCTYPE svg PUBLIC "-//W3C//DTD SVG 1.1//EN"
 "http://www.w3.org/Graphics/SVG/1.1/DTD/svg11.dtd">
<!-- Generated by graphviz version 3.0.0 (20221109.1736)
 -->
<!-- Title: denoptim.graph.DGraph.getParentTree Pages: 1 -->
<svg width="1963pt" height="653pt"
 viewBox="0.00 0.00 1963.00 653.00" xmlns="http://www.w3.org/2000/svg" xmlns:xlink="http://www.w3.org/1999/xlink">
<g id="graph0" class="graph" transform="scale(1 1) rotate(0) translate(4 649)">
<title>denoptim.graph.DGraph.getParentTree</title>
<polygon fill="white" stroke="transparent" points="-4,4 -4,-649 1959,-649 1959,4 -4,4"/>
<!-- Node1 -->
<g id="node1" class="node">
<title>Node1</title>
<g id="a_node1"><a xlink:title="Traverse the graph until it identifies the source of the directed path reachable from the given verte...">
<polygon fill="#bfbfbf" stroke="black" points="1821,-202.5 1821,-232.5 1955,-232.5 1955,-202.5 1821,-202.5"/>
<text text-anchor="start" x="1829" y="-220.5" font-family="Helvetica,sans-Serif" font-size="10.00">denoptim.graph.DGraph.get</text>
<text text-anchor="middle" x="1888" y="-209.5" font-family="Helvetica,sans-Serif" font-size="10.00">ParentTree</text>
</a>
</g>
</g>
<!-- Node1&#45;&gt;Node1 -->
<g id="edge41" class="edge">
<title>Node1&#45;&gt;Node1</title>
<path fill="none" stroke="midnightblue" d="M1918.21,-242.96C1914.46,-247.68 1904.39,-251 1888,-251 1861.11,-251 1851.23,-242.06 1858.37,-232.66"/>
<polygon fill="midnightblue" stroke="midnightblue" points="1921.68,-242.45 1917.63,-232.66 1914.69,-242.84 1921.68,-242.45"/>
</g>
<!-- Node2 -->
<g id="node2" class="node">
<title>Node2</title>
<g id="a_node2"><a xlink:href="classdenoptim_1_1graph_1_1_d_graph.html#a5e4be036a7fd8299fd15e1ffb0d3e42f" target="_top" xlink:title="Identify the oldest ancestor (i.e., most great grandparent) in the given collection.">
<polygon fill="white" stroke="black" points="1651,-423.5 1651,-453.5 1785,-453.5 1785,-423.5 1651,-423.5"/>
<text text-anchor="start" x="1659" y="-441.5" font-family="Helvetica,sans-Serif" font-size="10.00">denoptim.graph.DGraph.get</text>
<text text-anchor="middle" x="1718" y="-430.5" font-family="Helvetica,sans-Serif" font-size="10.00">DeepestAmongThese</text>
</a>
</g>
</g>
<!-- Node1&#45;&gt;Node2 -->
<g id="edge1" class="edge">
<title>Node1&#45;&gt;Node2</title>
<path fill="none" stroke="midnightblue" d="M1869.31,-240.78C1834.75,-286.23 1759.16,-385.68 1730.41,-423.5"/>
<polygon fill="midnightblue" stroke="midnightblue" points="1872.19,-242.77 1875.45,-232.69 1866.61,-238.53 1872.19,-242.77"/>
</g>
<!-- Node15 -->
<g id="node15" class="node">
<title>Node15</title>
<g id="a_node15"><a xlink:href="classdenoptim_1_1graph_1_1_d_graph.html#a9677d31ec5986be0e1694dfd1a184f5f" target="_top" xlink:title="Calculates the level of a vertex in this graph.">
<polygon fill="white" stroke="black" points="1461.5,-330.5 1461.5,-360.5 1595.5,-360.5 1595.5,-330.5 1461.5,-330.5"/>
<text text-anchor="start" x="1469.5" y="-348.5" font-family="Helvetica,sans-Serif" font-size="10.00">denoptim.graph.DGraph.get</text>
<text text-anchor="middle" x="1528.5" y="-337.5" font-family="Helvetica,sans-Serif" font-size="10.00">Level</text>
</a>
</g>
</g>
<!-- Node1&#45;&gt;Node15 -->
<g id="edge16" class="edge">
<title>Node1&#45;&gt;Node15</title>
<path fill="none" stroke="midnightblue" d="M1840.32,-236.44C1786.46,-258 1695.01,-293.7 1615,-320.5 1604.88,-323.89 1594.01,-327.27 1583.52,-330.4"/>
<polygon fill="midnightblue" stroke="midnightblue" points="1841.95,-239.56 1849.93,-232.58 1839.35,-233.06 1841.95,-239.56"/>
</g>
<!-- Node35 -->
<g id="node35" class="node">
<title>Node35</title>
<g id="a_node35"><a xlink:href="classdenoptim_1_1graph_1_1_d_graph.html#a1aa43ea09d59d14420ae0b647578df52" target="_top" xlink:title="Identifies and return the vertex from which the spanning tree originates.">
<polygon fill="white" stroke="black" points="1651,-180.5 1651,-210.5 1785,-210.5 1785,-180.5 1651,-180.5"/>
<text text-anchor="start" x="1659" y="-198.5" font-family="Helvetica,sans-Serif" font-size="10.00">denoptim.graph.DGraph.get</text>
<text text-anchor="middle" x="1718" y="-187.5" font-family="Helvetica,sans-Serif" font-size="10.00">SourceVertex</text>
</a>
</g>
</g>
<!-- Node1&#45;&gt;Node35 -->
<g id="edge42" class="edge">
<title>Node1&#45;&gt;Node35</title>
<path fill="none" stroke="midnightblue" d="M1810.68,-207.51C1802.17,-206.39 1793.56,-205.26 1785.19,-204.17"/>
<polygon fill="midnightblue" stroke="midnightblue" points="1810.23,-210.98 1820.6,-208.81 1811.14,-204.04 1810.23,-210.98"/>
</g>
<!-- Node45 -->
<g id="node45" class="node">
<title>Node45</title>
<g id="a_node45"><a xlink:href="classdenoptim_1_1graph_1_1rings_1_1_path_sub_graph.html#a5c018cc9952d2cac46a5d44f8bf06d8c" target="_top" xlink:title="Constructs a new PathSubGraph specifying the first and last vertex of the path.">
<polygon fill="white" stroke="black" points="1654,-131.5 1654,-161.5 1782,-161.5 1782,-131.5 1654,-131.5"/>
<text text-anchor="start" x="1662" y="-149.5" font-family="Helvetica,sans-Serif" font-size="10.00">denoptim.graph.rings.Path</text>
<text text-anchor="middle" x="1718" y="-138.5" font-family="Helvetica,sans-Serif" font-size="10.00">SubGraph.PathSubGraph</text>
</a>
</g>
</g>
<!-- Node1&#45;&gt;Node45 -->
<g id="edge56" class="edge">
<title>Node1&#45;&gt;Node45</title>
<path fill="none" stroke="midnightblue" d="M1846.95,-198.11C1828.28,-189.32 1805.67,-179 1785,-170.5 1777.67,-167.48 1769.81,-164.45 1762.16,-161.61"/>
<polygon fill="midnightblue" stroke="midnightblue" points="1845.51,-201.3 1856.05,-202.42 1848.51,-194.98 1845.51,-201.3"/>
</g>
<!-- Node3 -->
<g id="node3" class="node">
<title>Node3</title>
<g id="a_node3"><a xlink:href="classdenoptim_1_1ga_1_1_graph_operations.html#a27ba99409e7aaa6b6f6f3d40737863ca" target="_top" xlink:title="Here we check that the given subgraphs have a mapping that allows to swap them, and full fill any oth...">
<polygon fill="white" stroke="black" points="1442,-477.5 1442,-507.5 1615,-507.5 1615,-477.5 1442,-477.5"/>
<text text-anchor="start" x="1450" y="-495.5" font-family="Helvetica,sans-Serif" font-size="10.00">denoptim.ga.GraphOperations.check</text>
<text text-anchor="middle" x="1528.5" y="-484.5" font-family="Helvetica,sans-Serif" font-size="10.00">AndAddXoverSites</text>
</a>
</g>
</g>
<!-- Node2&#45;&gt;Node3 -->
<g id="edge2" class="edge">
<title>Node2&#45;&gt;Node3</title>
<path fill="none" stroke="midnightblue" d="M1655.15,-456.31C1631.4,-463.15 1604.54,-470.89 1581.77,-477.45"/>
<polygon fill="midnightblue" stroke="midnightblue" points="1656.13,-459.67 1664.77,-453.54 1654.19,-452.95 1656.13,-459.67"/>
</g>
<!-- Node4 -->
<g id="node4" class="node">
<title>Node4</title>
<g id="a_node4"><a xlink:href="classdenoptim_1_1ga_1_1_graph_operations.html#a2396c23acf24d07f255b94eb3a2105b7" target="_top" xlink:title="Identify crossover sites, i.e., subgraphs that can be swapped between two graphs (i....">
<polygon fill="white" stroke="black" points="783.5,-519.5 783.5,-549.5 956.5,-549.5 956.5,-519.5 783.5,-519.5"/>
<text text-anchor="start" x="791.5" y="-537.5" font-family="Helvetica,sans-Serif" font-size="10.00">denoptim.ga.GraphOperations.locate</text>
<text text-anchor="middle" x="870" y="-526.5" font-family="Helvetica,sans-Serif" font-size="10.00">CompatibleXOverPoints</text>
</a>
</g>
</g>
<!-- Node3&#45;&gt;Node4 -->
<g id="edge3" class="edge">
<title>Node3&#45;&gt;Node4</title>
<path fill="none" stroke="midnightblue" d="M1454.93,-509.54C1438.9,-512.72 1421.94,-515.62 1406,-517.5 1248.18,-536.1 1062.49,-537.44 956.58,-536.28"/>
<polygon fill="midnightblue" stroke="midnightblue" points="1455.67,-512.96 1464.77,-507.54 1454.28,-506.11 1455.67,-512.96"/>
</g>
<!-- Node13 -->
<g id="node13" class="node">
<title>Node13</title>
<g id="a_node13"><a xlink:href="classdenoptim_1_1ga_1_1_graph_operations.html#a65b1468961ba53b217848640d8fd5232" target="_top" xlink:title="Given a pair of seed vertexes that define where a pair of subgraphs stars in the corresponding origin...">
<polygon fill="white" stroke="black" points="1224,-477.5 1224,-507.5 1406,-507.5 1406,-477.5 1224,-477.5"/>
<text text-anchor="start" x="1232" y="-495.5" font-family="Helvetica,sans-Serif" font-size="10.00">denoptim.ga.GraphOperations.process</text>
<text text-anchor="middle" x="1315" y="-484.5" font-family="Helvetica,sans-Serif" font-size="10.00">PermutationOfEndPoints</text>
</a>
</g>
</g>
<!-- Node3&#45;&gt;Node13 -->
<g id="edge13" class="edge">
<title>Node3&#45;&gt;Node13</title>
<path fill="none" stroke="midnightblue" d="M1431.58,-492.5C1423.17,-492.5 1414.68,-492.5 1406.32,-492.5"/>
<polygon fill="midnightblue" stroke="midnightblue" points="1431.78,-496 1441.78,-492.5 1431.78,-489 1431.78,-496"/>
</g>
<!-- Node4&#45;&gt;Node4 -->
<g id="edge9" class="edge">
<title>Node4&#45;&gt;Node4</title>
<path fill="none" stroke="midnightblue" d="M909.09,-559.96C904.24,-564.68 891.21,-568 870,-568 835.2,-568 822.42,-559.06 831.66,-549.66"/>
<polygon fill="midnightblue" stroke="midnightblue" points="912.56,-559.38 908.34,-549.66 905.58,-559.89 912.56,-559.38"/>
</g>
<!-- Node5 -->
<g id="node5" class="node">
<title>Node5</title>
<g id="a_node5"><a xlink:href="classdenoptim_1_1ga_1_1_population.html#a31b74cc5407c42fa3a4214029fb08190" target="_top" xlink:title="Returns a list of population members that can do crossover with the specified member.">
<polygon fill="white" stroke="black" points="583,-568.5 583,-598.5 716,-598.5 716,-568.5 583,-568.5"/>
<text text-anchor="start" x="591" y="-586.5" font-family="Helvetica,sans-Serif" font-size="10.00">denoptim.ga.Population.get</text>
<text text-anchor="middle" x="649.5" y="-575.5" font-family="Helvetica,sans-Serif" font-size="10.00">XoverPartners</text>
</a>
</g>
</g>
<!-- Node4&#45;&gt;Node5 -->
<g id="edge4" class="edge">
<title>Node4&#45;&gt;Node5</title>
<path fill="none" stroke="midnightblue" d="M791.9,-551.79C767.2,-557.33 740.1,-563.41 716.29,-568.75"/>
<polygon fill="midnightblue" stroke="midnightblue" points="792.97,-555.14 801.96,-549.53 791.43,-548.31 792.97,-555.14"/>
</g>
<!-- Node10 -->
<g id="node10" class="node">
<title>Node10</title>
<g id="a_node10"><a xlink:href="classdenoptim_1_1programs_1_1genetweeker_1_1_gene_ops_runner.html#ab0f92a94c4fb2334e7d3813e73fc4247" target="_top" xlink:title=" ">
<polygon fill="white" stroke="black" points="570,-470.5 570,-500.5 729,-500.5 729,-470.5 570,-470.5"/>
<text text-anchor="start" x="578" y="-488.5" font-family="Helvetica,sans-Serif" font-size="10.00">denoptim.programs.genetweeker.</text>
<text text-anchor="middle" x="649.5" y="-477.5" font-family="Helvetica,sans-Serif" font-size="10.00">GeneOpsRunner.runXOver</text>
</a>
</g>
</g>
<!-- Node4&#45;&gt;Node10 -->
<g id="edge10" class="edge">
<title>Node4&#45;&gt;Node10</title>
<path fill="none" stroke="midnightblue" d="M792.04,-517.24C767.7,-511.78 741,-505.79 717.42,-500.51"/>
<polygon fill="midnightblue" stroke="midnightblue" points="791.43,-520.69 801.96,-519.47 792.97,-513.86 791.43,-520.69"/>
</g>
<!-- Node12 -->
<g id="node12" class="node">
<title>Node12</title>
<g id="a_node12"><a xlink:href="classdenoptim_1_1ga_1_1_graph_operations_test.html#a9fcf8fffef10a59df722c92e94da2815" target="_top" xlink:title=" ">
<polygon fill="white" stroke="black" points="555,-519.5 555,-549.5 744,-549.5 744,-519.5 555,-519.5"/>
<text text-anchor="start" x="563" y="-537.5" font-family="Helvetica,sans-Serif" font-size="10.00">denoptim.ga.GraphOperations</text>
<text text-anchor="middle" x="649.5" y="-526.5" font-family="Helvetica,sans-Serif" font-size="10.00">Test.testLocateCompatibleXOverPoints</text>
</a>
</g>
</g>
<!-- Node4&#45;&gt;Node12 -->
<g id="edge12" class="edge">
<title>Node4&#45;&gt;Node12</title>
<path fill="none" stroke="midnightblue" d="M772.99,-534.5C763.46,-534.5 753.79,-534.5 744.28,-534.5"/>
<polygon fill="midnightblue" stroke="midnightblue" points="773.27,-538 783.27,-534.5 773.27,-531 773.27,-538"/>
</g>
<!-- Node6 -->
<g id="node6" class="node">
<title>Node6</title>
<g id="a_node6"><a xlink:href="classdenoptim_1_1ga_1_1_e_a_utils.html#a45d4e9ec6a308aa73891efa1d501dd5e" target="_top" xlink:title="Perform fitness&#45;based, class&#45;compatible selection of parents that can do crossover operations.">
<polygon fill="white" stroke="black" points="353,-525 353,-544 519,-544 519,-525 353,-525"/>
<text text-anchor="middle" x="436" y="-532" font-family="Helvetica,sans-Serif" font-size="10.00">denoptim.ga.EAUtils.performFBCC</text>
</a>
</g>
</g>
<!-- Node5&#45;&gt;Node6 -->
<g id="edge5" class="edge">
<title>Node5&#45;&gt;Node6</title>
<path fill="none" stroke="midnightblue" d="M573.78,-566.19C541.62,-558.74 505.27,-550.32 478.13,-544.03"/>
<polygon fill="midnightblue" stroke="midnightblue" points="573.07,-569.62 583.61,-568.47 574.65,-562.8 573.07,-569.62"/>
</g>
<!-- Node8 -->
<g id="node8" class="node">
<title>Node8</title>
<g id="a_node8"><a xlink:href="classdenoptim_1_1ga_1_1_population_test.html#a5db0672054a9fc1dbc923310732fdb3a" target="_top" xlink:title=" ">
<polygon fill="white" stroke="black" points="358.5,-565.5 358.5,-595.5 513.5,-595.5 513.5,-565.5 358.5,-565.5"/>
<text text-anchor="start" x="366.5" y="-583.5" font-family="Helvetica,sans-Serif" font-size="10.00">denoptim.ga.PopulationTest.test</text>
<text text-anchor="middle" x="436" y="-572.5" font-family="Helvetica,sans-Serif" font-size="10.00">Clone</text>
</a>
</g>
</g>
<!-- Node5&#45;&gt;Node8 -->
<g id="edge7" class="edge">
<title>Node5&#45;&gt;Node8</title>
<path fill="none" stroke="midnightblue" d="M572.59,-582.42C553.49,-582.15 532.98,-581.86 513.83,-581.59"/>
<polygon fill="midnightblue" stroke="midnightblue" points="572.69,-585.92 582.74,-582.57 572.79,-578.93 572.69,-585.92"/>
</g>
<!-- Node9 -->
<g id="node9" class="node">
<title>Node9</title>
<g id="a_node9"><a xlink:href="classdenoptim_1_1ga_1_1_population_test.html#a278212ebff2501b7071d342f9a027599" target="_top" xlink:title=" ">
<polygon fill="white" stroke="black" points="358.5,-614.5 358.5,-644.5 513.5,-644.5 513.5,-614.5 358.5,-614.5"/>
<text text-anchor="start" x="366.5" y="-632.5" font-family="Helvetica,sans-Serif" font-size="10.00">denoptim.ga.PopulationTest.test</text>
<text text-anchor="middle" x="436" y="-621.5" font-family="Helvetica,sans-Serif" font-size="10.00">XOverCompatibility</text>
</a>
</g>
</g>
<!-- Node5&#45;&gt;Node9 -->
<g id="edge8" class="edge">
<title>Node5&#45;&gt;Node9</title>
<path fill="none" stroke="midnightblue" d="M572.87,-599.95C551.06,-604.69 527.39,-609.84 506.01,-614.49"/>
<polygon fill="midnightblue" stroke="midnightblue" points="573.71,-603.35 582.74,-597.8 572.22,-596.51 573.71,-603.35"/>
</g>
<!-- Node7 -->
<g id="node7" class="node">
<title>Node7</title>
<g id="a_node7"><a xlink:href="classdenoptim_1_1ga_1_1_e_a_utils.html#a0b958439d79fae30f14530213ad22e3a" target="_top" xlink:title="Generates up to a pair of new offspring by performing a crossover operation.">
<polygon fill="white" stroke="black" points="190,-472.5 190,-502.5 317,-502.5 317,-472.5 190,-472.5"/>
<text text-anchor="start" x="198" y="-490.5" font-family="Helvetica,sans-Serif" font-size="10.00">denoptim.ga.EAUtils.build</text>
<text text-anchor="middle" x="253.5" y="-479.5" font-family="Helvetica,sans-Serif" font-size="10.00">CandidatesByXOver</text>
</a>
</g>
</g>
<!-- Node6&#45;&gt;Node7 -->
<g id="edge6" class="edge">
<title>Node6&#45;&gt;Node7</title>
<path fill="none" stroke="midnightblue" d="M388.52,-522.4C365.28,-516.35 336.93,-508.96 312.29,-502.55"/>
<polygon fill="midnightblue" stroke="midnightblue" points="387.91,-525.86 398.47,-524.99 389.68,-519.08 387.91,-525.86"/>
</g>
<!-- Node11 -->
<g id="node11" class="node">
<title>Node11</title>
<g id="a_node11"><a xlink:href="classdenoptim_1_1programs_1_1genetweeker_1_1_gene_ops_runner.html#a3c2407eb1204a7b25600d3d347d98447" target="_top" xlink:title=" ">
<polygon fill="white" stroke="black" points="356.5,-470.5 356.5,-500.5 515.5,-500.5 515.5,-470.5 356.5,-470.5"/>
<text text-anchor="start" x="364.5" y="-488.5" font-family="Helvetica,sans-Serif" font-size="10.00">denoptim.programs.genetweeker.</text>
<text text-anchor="middle" x="436" y="-477.5" font-family="Helvetica,sans-Serif" font-size="10.00">GeneOpsRunner.runProgram</text>
</a>
</g>
</g>
<!-- Node10&#45;&gt;Node11 -->
<g id="edge11" class="edge">
<title>Node10&#45;&gt;Node11</title>
<path fill="none" stroke="midnightblue" d="M559.74,-485.5C545.16,-485.5 530.14,-485.5 515.82,-485.5"/>
<polygon fill="midnightblue" stroke="midnightblue" points="559.75,-489 569.75,-485.5 559.75,-482 559.75,-489"/>
</g>
<!-- Node14 -->
<g id="node14" class="node">
<title>Node14</title>
<g id="a_node14"><a xlink:href="classdenoptim_1_1ga_1_1_graph_operations.html#a5d90c6e2fa30f287f8f69ed3367ccd0e" target="_top" xlink:title="Given a pair of seed vertexes that define where a pair of subgraphs stars in the corresponding origin...">
<polygon fill="white" stroke="black" points="1001,-477.5 1001,-507.5 1183,-507.5 1183,-477.5 1001,-477.5"/>
<text text-anchor="start" x="1009" y="-495.5" font-family="Helvetica,sans-Serif" font-size="10.00">denoptim.ga.GraphOperations.process</text>
<text text-anchor="middle" x="1092" y="-484.5" font-family="Helvetica,sans-Serif" font-size="10.00">CombinationOfEndPoints</text>
</a>
</g>
</g>
<!-- Node13&#45;&gt;Node14 -->
<g id="edge14" class="edge">
<title>Node13&#45;&gt;Node14</title>
<path fill="none" stroke="midnightblue" d="M1213.7,-492.5C1203.56,-492.5 1193.3,-492.5 1183.28,-492.5"/>
<polygon fill="midnightblue" stroke="midnightblue" points="1213.79,-496 1223.79,-492.5 1213.79,-489 1213.79,-496"/>
</g>
<!-- Node14&#45;&gt;Node4 -->
<g id="edge15" class="edge">
<title>Node14&#45;&gt;Node4</title>
<path fill="none" stroke="midnightblue" d="M1002.07,-509.48C984.71,-512.79 966.62,-516.25 949.62,-519.49"/>
<polygon fill="midnightblue" stroke="midnightblue" points="1003.03,-512.86 1012.2,-507.54 1001.72,-505.98 1003.03,-512.86"/>
</g>
<!-- Node16 -->
<g id="node16" class="node">
<title>Node16</title>
<g id="a_node16"><a xlink:href="classdenoptim_1_1graph_1_1rings_1_1_cyclic_graph_handler.html#a3608d608f5dc3f2e3cebb95929681410" target="_top" xlink:title="Evaluates the combination of a DENOPTIMGraph and a set of DENOPTIMRings and decides whether it&#39;s a pr...">
<polygon fill="white" stroke="black" points="1230,-379.5 1230,-409.5 1400,-409.5 1400,-379.5 1230,-379.5"/>
<text text-anchor="start" x="1238" y="-397.5" font-family="Helvetica,sans-Serif" font-size="10.00">denoptim.graph.rings.Cyclic</text>
<text text-anchor="middle" x="1315" y="-386.5" font-family="Helvetica,sans-Serif" font-size="10.00">GraphHandler.checkChelatesGraph</text>
</a>
</g>
</g>
<!-- Node15&#45;&gt;Node16 -->
<g id="edge17" class="edge">
<title>Node15&#45;&gt;Node16</title>
<path fill="none" stroke="midnightblue" d="M1452.69,-362.83C1429.21,-368.27 1403.5,-374.23 1380.77,-379.49"/>
<polygon fill="midnightblue" stroke="midnightblue" points="1453.65,-366.2 1462.61,-360.53 1452.07,-359.38 1453.65,-366.2"/>
</g>
<!-- Node29 -->
<g id="node29" class="node">
<title>Node29</title>
<g id="a_node29"><a xlink:href="classdenoptim_1_1ga_1_1_graph_operations.html#a104e82aba7242a457da09540ff0400da" target="_top" xlink:title="function that will keep extending the graph.">
<polygon fill="white" stroke="black" points="1227,-330.5 1227,-360.5 1403,-360.5 1403,-330.5 1227,-330.5"/>
<text text-anchor="start" x="1235" y="-348.5" font-family="Helvetica,sans-Serif" font-size="10.00">denoptim.ga.GraphOperations.extend</text>
<text text-anchor="middle" x="1315" y="-337.5" font-family="Helvetica,sans-Serif" font-size="10.00">Graph</text>
</a>
</g>
</g>
<!-- Node15&#45;&gt;Node29 -->
<g id="edge35" class="edge">
<title>Node15&#45;&gt;Node29</title>
<path fill="none" stroke="midnightblue" d="M1451.35,-345.5C1435.76,-345.5 1419.23,-345.5 1403.28,-345.5"/>
<polygon fill="midnightblue" stroke="midnightblue" points="1451.45,-349 1461.45,-345.5 1451.45,-342 1451.45,-349"/>
</g>
<!-- Node30 -->
<g id="node30" class="node">
<title>Node30</title>
<g id="a_node30"><a xlink:href="classdenoptim_1_1graph_1_1_d_graph.html#ac950db68259da0226f3d7eb549ba792c" target="_top" xlink:title="Filters a list of vertices according to a query.">
<polygon fill="white" stroke="black" points="1247.5,-281.5 1247.5,-311.5 1382.5,-311.5 1382.5,-281.5 1247.5,-281.5"/>
<text text-anchor="start" x="1255.5" y="-299.5" font-family="Helvetica,sans-Serif" font-size="10.00">denoptim.graph.DGraph.find</text>
<text text-anchor="middle" x="1315" y="-288.5" font-family="Helvetica,sans-Serif" font-size="10.00">Vertices</text>
</a>
</g>
</g>
<!-- Node15&#45;&gt;Node30 -->
<g id="edge36" class="edge">
<title>Node15&#45;&gt;Node30</title>
<path fill="none" stroke="midnightblue" d="M1452.69,-328.17C1429.21,-322.73 1403.5,-316.77 1380.77,-311.51"/>
<polygon fill="midnightblue" stroke="midnightblue" points="1452.07,-331.62 1462.61,-330.47 1453.65,-324.8 1452.07,-331.62"/>
</g>
<!-- Node31 -->
<g id="node31" class="node">
<title>Node31</title>
<g id="a_node31"><a xlink:href="classdenoptim_1_1graph_1_1_d_graph.html#af404e25092eabcdfbe69b5d7204e9483" target="_top" xlink:title="Mutates the graph by removing the chain where a given vertex is located up to the first branching (i....">
<polygon fill="white" stroke="black" points="1239,-232.5 1239,-262.5 1391,-262.5 1391,-232.5 1239,-232.5"/>
<text text-anchor="start" x="1247" y="-250.5" font-family="Helvetica,sans-Serif" font-size="10.00">denoptim.graph.DGraph.remove</text>
<text text-anchor="middle" x="1315" y="-239.5" font-family="Helvetica,sans-Serif" font-size="10.00">ChainUpToBranching</text>
</a>
</g>
</g>
<!-- Node15&#45;&gt;Node31 -->
<g id="edge37" class="edge">
<title>Node15&#45;&gt;Node31</title>
<path fill="none" stroke="midnightblue" d="M1452.32,-326.74C1448.72,-324.85 1445.26,-322.78 1442,-320.5 1419.86,-305 1428.32,-286.73 1406,-271.5 1400.92,-268.04 1395.37,-265.07 1389.6,-262.53"/>
<polygon fill="midnightblue" stroke="midnightblue" points="1450.95,-329.97 1461.49,-331.05 1453.93,-323.63 1450.95,-329.97"/>
</g>
<!-- Node34 -->
<g id="node34" class="node">
<title>Node34</title>
<g id="a_node34"><a xlink:href="classdenoptim_1_1graph_1_1_d_graph_test.html#a7a211a2f8477d88f90d85d6ab26c25e3" target="_top" xlink:title=" ">
<polygon fill="white" stroke="black" points="1237,-428.5 1237,-458.5 1393,-458.5 1393,-428.5 1237,-428.5"/>
<text text-anchor="start" x="1245" y="-446.5" font-family="Helvetica,sans-Serif" font-size="10.00">denoptim.graph.DGraphTest.test</text>
<text text-anchor="middle" x="1315" y="-435.5" font-family="Helvetica,sans-Serif" font-size="10.00">GetLevel</text>
</a>
</g>
</g>
<!-- Node15&#45;&gt;Node34 -->
<g id="edge40" class="edge">
<title>Node15&#45;&gt;Node34</title>
<path fill="none" stroke="midnightblue" d="M1498.23,-366.18C1474.34,-382.28 1439.22,-404.22 1406,-418.5 1397.36,-422.21 1388.01,-425.53 1378.73,-428.43"/>
<polygon fill="midnightblue" stroke="midnightblue" points="1500.21,-369.06 1506.5,-360.54 1496.26,-363.28 1500.21,-369.06"/>
</g>
<!-- Node17 -->
<g id="node17" class="node">
<title>Node17</title>
<g id="a_node17"><a xlink:href="classdenoptim_1_1graph_1_1_d_graph.html#a7a4743d014e860237f4b20703ef9779b" target="_top" xlink:title="Evaluates the possibility of closing rings in this graph and generates all alternative graphs resulti...">
<polygon fill="white" stroke="black" points="1014.5,-307.5 1014.5,-337.5 1169.5,-337.5 1169.5,-307.5 1014.5,-307.5"/>
<text text-anchor="start" x="1022.5" y="-325.5" font-family="Helvetica,sans-Serif" font-size="10.00">denoptim.graph.DGraph.make</text>
<text text-anchor="middle" x="1092" y="-314.5" font-family="Helvetica,sans-Serif" font-size="10.00">AllGraphsWithDifferentRingSets</text>
</a>
</g>
</g>
<!-- Node16&#45;&gt;Node17 -->
<g id="edge18" class="edge">
<title>Node16&#45;&gt;Node17</title>
<path fill="none" stroke="midnightblue" d="M1247.51,-376.63C1239.56,-374.31 1231.58,-371.91 1224,-369.5 1193.03,-359.66 1158.44,-347.18 1132.59,-337.56"/>
<polygon fill="midnightblue" stroke="midnightblue" points="1246.58,-380 1257.16,-379.39 1248.51,-373.27 1246.58,-380"/>
</g>
<!-- Node19 -->
<g id="node19" class="node">
<title>Node19</title>
<g id="a_node19"><a xlink:href="classdenoptim_1_1ga_1_1_e_a_utils.html#a1ddb932d4618434d435e4f85ce5e5eb5" target="_top" xlink:title="Evaluates the possibility of closing rings in a given graph and if any ring can be closed,...">
<polygon fill="white" stroke="black" points="1026.5,-380.5 1026.5,-410.5 1157.5,-410.5 1157.5,-380.5 1026.5,-380.5"/>
<text text-anchor="start" x="1034.5" y="-398.5" font-family="Helvetica,sans-Serif" font-size="10.00">denoptim.ga.EAUtils.setup</text>
<text text-anchor="middle" x="1092" y="-387.5" font-family="Helvetica,sans-Serif" font-size="10.00">Rings</text>
</a>
</g>
</g>
<!-- Node16&#45;&gt;Node19 -->
<g id="edge20" class="edge">
<title>Node16&#45;&gt;Node19</title>
<path fill="none" stroke="midnightblue" d="M1219.64,-394.93C1198.76,-395.02 1177.08,-395.12 1157.7,-395.21"/>
<polygon fill="midnightblue" stroke="midnightblue" points="1219.83,-398.43 1229.82,-394.88 1219.8,-391.43 1219.83,-398.43"/>
</g>
<!-- Node18 -->
<g id="node18" class="node">
<title>Node18</title>
<g id="a_node18"><a xlink:href="classdenoptim_1_1combinatorial_1_1_graph_building_task.html#a3eaee724fc921194fa158714aafe182d" target="_top" xlink:title="Calls the task.">
<polygon fill="white" stroke="black" points="797.5,-284.5 797.5,-314.5 942.5,-314.5 942.5,-284.5 797.5,-284.5"/>
<text text-anchor="start" x="805.5" y="-302.5" font-family="Helvetica,sans-Serif" font-size="10.00">denoptim.combinatorial.Graph</text>
<text text-anchor="middle" x="870" y="-291.5" font-family="Helvetica,sans-Serif" font-size="10.00">BuildingTask.call</text>
</a>
</g>
</g>
<!-- Node17&#45;&gt;Node18 -->
<g id="edge19" class="edge">
<title>Node17&#45;&gt;Node18</title>
<path fill="none" stroke="midnightblue" d="M1004.41,-313.45C983.92,-311.31 962.3,-309.04 942.56,-306.98"/>
<polygon fill="midnightblue" stroke="midnightblue" points="1004.05,-316.93 1014.36,-314.49 1004.78,-309.97 1004.05,-316.93"/>
</g>
<!-- Node19&#45;&gt;Node7 -->
<g id="edge34" class="edge">
<title>Node19&#45;&gt;Node7</title>
<path fill="none" stroke="midnightblue" d="M1016.28,-412.09C997.95,-415.68 978.33,-419.1 960,-421.5 691.95,-456.56 619.62,-415.87 353,-460.5 336.04,-463.34 317.79,-467.9 301.66,-472.48"/>
<polygon fill="midnightblue" stroke="midnightblue" points="1017.19,-415.48 1026.31,-410.09 1015.82,-408.62 1017.19,-415.48"/>
</g>
<!-- Node20 -->
<g id="node20" class="node">
<title>Node20</title>
<g id="a_node20"><a xlink:href="classdenoptim_1_1ga_1_1_e_a_utils.html#a8122818f58919fce84dce75e7506025a" target="_top" xlink:title=" ">
<polygon fill="white" stroke="black" points="806.5,-382.5 806.5,-412.5 933.5,-412.5 933.5,-382.5 806.5,-382.5"/>
<text text-anchor="start" x="814.5" y="-400.5" font-family="Helvetica,sans-Serif" font-size="10.00">denoptim.ga.EAUtils.build</text>
<text text-anchor="middle" x="870" y="-389.5" font-family="Helvetica,sans-Serif" font-size="10.00">CandidateByMutation</text>
</a>
</g>
</g>
<!-- Node19&#45;&gt;Node20 -->
<g id="edge21" class="edge">
<title>Node19&#45;&gt;Node20</title>
<path fill="none" stroke="midnightblue" d="M1016.34,-396.18C989.44,-396.42 959.39,-396.7 933.63,-396.93"/>
<polygon fill="midnightblue" stroke="midnightblue" points="1016.51,-399.68 1026.48,-396.09 1016.45,-392.68 1016.51,-399.68"/>
</g>
<!-- Node27 -->
<g id="node27" class="node">
<title>Node27</title>
<g id="a_node27"><a xlink:href="classdenoptim_1_1ga_1_1_e_a_utils.html#ad3d2daeb11e68a356e971ca1846596b5" target="_top" xlink:title=" ">
<polygon fill="white" stroke="black" points="806.5,-333.5 806.5,-363.5 933.5,-363.5 933.5,-333.5 806.5,-333.5"/>
<text text-anchor="start" x="814.5" y="-351.5" font-family="Helvetica,sans-Serif" font-size="10.00">denoptim.ga.EAUtils.build</text>
<text text-anchor="middle" x="870" y="-340.5" font-family="Helvetica,sans-Serif" font-size="10.00">CandidateFromScratch</text>
</a>
</g>
</g>
<!-- Node19&#45;&gt;Node27 -->
<g id="edge29" class="edge">
<title>Node19&#45;&gt;Node27</title>
<path fill="none" stroke="midnightblue" d="M1016.7,-379.63C989.71,-373.86 959.5,-367.41 933.63,-361.88"/>
<polygon fill="midnightblue" stroke="midnightblue" points="1015.97,-383.05 1026.48,-381.72 1017.43,-376.2 1015.97,-383.05"/>
</g>
<!-- Node21 -->
<g id="node21" class="node">
<title>Node21</title>
<g id="a_node21"><a xlink:href="classdenoptim_1_1ga_1_1_evolutionary_algorithm.html#a0c2e353b243250b4959a3f86608f1020" target="_top" xlink:title="Generates one offspring according to the method where crossover and mutation are decoupled,...">
<polygon fill="white" stroke="black" points="584.5,-382.5 584.5,-412.5 714.5,-412.5 714.5,-382.5 584.5,-382.5"/>
<text text-anchor="start" x="592.5" y="-400.5" font-family="Helvetica,sans-Serif" font-size="10.00">denoptim.ga.Evolutionary</text>
<text text-anchor="middle" x="649.5" y="-389.5" font-family="Helvetica,sans-Serif" font-size="10.00">Algorithm.makeOffspringA</text>
</a>
</g>
</g>
<!-- Node20&#45;&gt;Node21 -->
<g id="edge22" class="edge">
<title>Node20&#45;&gt;Node21</title>
<path fill="none" stroke="midnightblue" d="M796.08,-397.5C769.72,-397.5 740.19,-397.5 714.64,-397.5"/>
<polygon fill="midnightblue" stroke="midnightblue" points="796.39,-401 806.39,-397.5 796.39,-394 796.39,-401"/>
</g>
<!-- Node26 -->
<g id="node26" class="node">
<title>Node26</title>
<g id="a_node26"><a xlink:href="classdenoptim_1_1ga_1_1_evolutionary_algorithm.html#ae7a90a911b109ed47b3acf54193acc35" target="_top" xlink:title="Generates one offspring according to the method where crossover and mutation are coupled,...">
<polygon fill="white" stroke="black" points="584.5,-333.5 584.5,-363.5 714.5,-363.5 714.5,-333.5 584.5,-333.5"/>
<text text-anchor="start" x="592.5" y="-351.5" font-family="Helvetica,sans-Serif" font-size="10.00">denoptim.ga.Evolutionary</text>
<text text-anchor="middle" x="649.5" y="-340.5" font-family="Helvetica,sans-Serif" font-size="10.00">Algorithm.makeOffspringB</text>
</a>
</g>
</g>
<!-- Node20&#45;&gt;Node26 -->
<g id="edge27" class="edge">
<title>Node20&#45;&gt;Node26</title>
<path fill="none" stroke="midnightblue" d="M796.43,-381.22C769.98,-375.3 740.3,-368.64 714.64,-362.88"/>
<polygon fill="midnightblue" stroke="midnightblue" points="795.86,-384.69 806.39,-383.46 797.39,-377.86 795.86,-384.69"/>
</g>
<!-- Node22 -->
<g id="node22" class="node">
<title>Node22</title>
<g id="a_node22"><a xlink:href="classdenoptim_1_1ga_1_1_evolutionary_algorithm.html#a596b2f5f0b097c5b67a6e5163bd6fe66" target="_top" xlink:title="Generates a given number of new candidate items and adds them to the current population.">
<polygon fill="white" stroke="black" points="369,-338.5 369,-368.5 503,-368.5 503,-338.5 369,-338.5"/>
<text text-anchor="start" x="377" y="-356.5" font-family="Helvetica,sans-Serif" font-size="10.00">denoptim.ga.Evolutionary</text>
<text text-anchor="middle" x="436" y="-345.5" font-family="Helvetica,sans-Serif" font-size="10.00">Algorithm.evolvePopulation</text>
</a>
</g>
</g>
<!-- Node21&#45;&gt;Node22 -->
<g id="edge23" class="edge">
<title>Node21&#45;&gt;Node22</title>
<path fill="none" stroke="midnightblue" d="M574.63,-382.13C551.32,-377.28 525.73,-371.96 503.01,-367.23"/>
<polygon fill="midnightblue" stroke="midnightblue" points="573.97,-385.57 584.47,-384.18 575.39,-378.72 573.97,-385.57"/>
</g>
<!-- Node23 -->
<g id="node23" class="node">
<title>Node23</title>
<g id="a_node23"><a xlink:href="classdenoptim_1_1ga_1_1_evolutionary_algorithm.html#a6bfc2fa59b199da6259b5b6bad3d6de7" target="_top" xlink:title=" ">
<polygon fill="white" stroke="black" points="191.5,-314.5 191.5,-344.5 315.5,-344.5 315.5,-314.5 191.5,-314.5"/>
<text text-anchor="start" x="199.5" y="-332.5" font-family="Helvetica,sans-Serif" font-size="10.00">denoptim.ga.Evolutionary</text>
<text text-anchor="middle" x="253.5" y="-321.5" font-family="Helvetica,sans-Serif" font-size="10.00">Algorithm.run</text>
</a>
</g>
</g>
<!-- Node22&#45;&gt;Node23 -->
<g id="edge24" class="edge">
<title>Node22&#45;&gt;Node23</title>
<path fill="none" stroke="midnightblue" d="M358.49,-343.33C344.16,-341.42 329.37,-339.45 315.59,-337.62"/>
<polygon fill="midnightblue" stroke="midnightblue" points="358.44,-346.85 368.81,-344.7 359.36,-339.91 358.44,-346.85"/>
</g>
<!-- Node24 -->
<g id="node24" class="node">
<title>Node24</title>
<g id="a_node24"><a xlink:href="classdenoptim_1_1ga_1_1_evolutionary_algorithm.html#a0f2063b722b7291daf83d62acaa683d3" target="_top" xlink:title=" ">
<polygon fill="white" stroke="black" points="0,-339.5 0,-369.5 154,-369.5 154,-339.5 0,-339.5"/>
<text text-anchor="start" x="8" y="-357.5" font-family="Helvetica,sans-Serif" font-size="10.00">denoptim.ga.Evolutionary</text>
<text text-anchor="middle" x="77" y="-346.5" font-family="Helvetica,sans-Serif" font-size="10.00">Algorithm.EvolutionaryAlgorithm</text>
</a>
</g>
</g>
<!-- Node23&#45;&gt;Node24 -->
<g id="edge25" class="edge">
<title>Node23&#45;&gt;Node24</title>
<path fill="none" stroke="midnightblue" d="M181.41,-339.69C172.39,-340.98 163.13,-342.3 154.03,-343.61"/>
<polygon fill="midnightblue" stroke="midnightblue" points="182.07,-343.13 191.47,-338.24 181.07,-336.2 182.07,-343.13"/>
</g>
<!-- Node25 -->
<g id="node25" class="node">
<title>Node25</title>
<g id="a_node25"><a xlink:href="classdenoptim_1_1programs_1_1denovo_1_1_g_a_runner.html#a7cafd6d78727b89dce3e2c8d06f0dd7c" target="_top" xlink:title=" ">
<polygon fill="white" stroke="black" points="9.5,-290.5 9.5,-320.5 144.5,-320.5 144.5,-290.5 9.5,-290.5"/>
<text text-anchor="start" x="17.5" y="-308.5" font-family="Helvetica,sans-Serif" font-size="10.00">denoptim.programs.denovo.</text>
<text text-anchor="middle" x="77" y="-297.5" font-family="Helvetica,sans-Serif" font-size="10.00">GARunner.runProgram</text>
</a>
</g>
</g>
<!-- Node23&#45;&gt;Node25 -->
<g id="edge26" class="edge">
<title>Node23&#45;&gt;Node25</title>
<path fill="none" stroke="midnightblue" d="M181.39,-319.72C169.25,-318.05 156.67,-316.32 144.65,-314.67"/>
<polygon fill="midnightblue" stroke="midnightblue" points="181.08,-323.21 191.47,-321.11 182.04,-316.28 181.08,-323.21"/>
</g>
<!-- Node26&#45;&gt;Node22 -->
<g id="edge28" class="edge">
<title>Node26&#45;&gt;Node22</title>
<path fill="none" stroke="midnightblue" d="M574.32,-350.25C551.1,-350.8 525.63,-351.4 503.01,-351.94"/>
<polygon fill="midnightblue" stroke="midnightblue" points="574.55,-353.75 584.47,-350.01 574.39,-346.75 574.55,-353.75"/>
</g>
<!-- Node27&#45;&gt;Node21 -->
<g id="edge32" class="edge">
<title>Node27&#45;&gt;Node21</title>
<path fill="none" stroke="midnightblue" d="M796.43,-364.78C769.98,-370.7 740.3,-377.36 714.64,-383.12"/>
<polygon fill="midnightblue" stroke="midnightblue" points="797.39,-368.14 806.39,-362.54 795.86,-361.31 797.39,-368.14"/>
</g>
<!-- Node27&#45;&gt;Node26 -->
<g id="edge33" class="edge">
<title>Node27&#45;&gt;Node26</title>
<path fill="none" stroke="midnightblue" d="M796.08,-348.5C769.72,-348.5 740.19,-348.5 714.64,-348.5"/>
<polygon fill="midnightblue" stroke="midnightblue" points="796.39,-352 806.39,-348.5 796.39,-345 796.39,-352"/>
</g>
<!-- Node28 -->
<g id="node28" class="node">
<title>Node28</title>
<g id="a_node28"><a xlink:href="classdenoptim_1_1ga_1_1_evolutionary_algorithm.html#ad43588620dab3340e0d8b0042ec73618" target="_top" xlink:title="Fills up the population with candidates build from scratch.">
<polygon fill="white" stroke="black" points="366,-289.5 366,-319.5 506,-319.5 506,-289.5 366,-289.5"/>
<text text-anchor="start" x="374" y="-307.5" font-family="Helvetica,sans-Serif" font-size="10.00">denoptim.ga.Evolutionary</text>
<text text-anchor="middle" x="436" y="-296.5" font-family="Helvetica,sans-Serif" font-size="10.00">Algorithm.initializePopulation</text>
</a>
</g>
</g>
<!-- Node27&#45;&gt;Node28 -->
<g id="edge30" class="edge">
<title>Node27&#45;&gt;Node28</title>
<path fill="none" stroke="midnightblue" d="M796.4,-332.25C779.29,-328.9 761.06,-325.72 744,-323.5 662.72,-312.91 568.53,-308.19 506.14,-306.1"/>
<polygon fill="midnightblue" stroke="midnightblue" points="795.83,-335.71 806.33,-334.24 797.21,-328.84 795.83,-335.71"/>
</g>
<!-- Node28&#45;&gt;Node23 -->
<g id="edge31" class="edge">
<title>Node28&#45;&gt;Node23</title>
<path fill="none" stroke="midnightblue" d="M355.75,-315.48C342.26,-317.34 328.43,-319.26 315.5,-321.05"/>
<polygon fill="midnightblue" stroke="midnightblue" points="356.56,-318.9 365.99,-314.06 355.6,-311.96 356.56,-318.9"/>
</g>
<!-- Node32 -->
<g id="node32" class="node">
<title>Node32</title>
<g id="a_node32"><a xlink:href="classdenoptim_1_1ga_1_1_graph_operations.html#afd659e74a056d1a6ae6f52513fee0be3" target="_top" xlink:title="Deletes the given vertex and all other vertexes that are not connected to more than 2 non&#45;capping gro...">
<polygon fill="white" stroke="black" points="1005.5,-230.5 1005.5,-260.5 1178.5,-260.5 1178.5,-230.5 1005.5,-230.5"/>
<text text-anchor="start" x="1013.5" y="-248.5" font-family="Helvetica,sans-Serif" font-size="10.00">denoptim.ga.GraphOperations.delete</text>
<text text-anchor="middle" x="1092" y="-237.5" font-family="Helvetica,sans-Serif" font-size="10.00">Chain</text>
</a>
</g>
</g>
<!-- Node31&#45;&gt;Node32 -->
<g id="edge38" class="edge">
<title>Node31&#45;&gt;Node32</title>
<path fill="none" stroke="midnightblue" d="M1228.74,-246.73C1212.28,-246.58 1195.04,-246.42 1178.57,-246.27"/>
<polygon fill="midnightblue" stroke="midnightblue" points="1228.84,-250.23 1238.87,-246.82 1228.9,-243.23 1228.84,-250.23"/>
</g>
<!-- Node33 -->
<g id="node33" class="node">
<title>Node33</title>
<g id="a_node33"><a xlink:href="classdenoptim_1_1ga_1_1_graph_operations.html#a0c851972015fbb4b2a317b053b8b81d9" target="_top" xlink:title="Mutates the given vertex according to the given mutation type, if possible.">
<polygon fill="white" stroke="black" points="780,-207.5 780,-237.5 960,-237.5 960,-207.5 780,-207.5"/>
<text text-anchor="start" x="788" y="-225.5" font-family="Helvetica,sans-Serif" font-size="10.00">denoptim.ga.GraphOperations.perform</text>
<text text-anchor="middle" x="870" y="-214.5" font-family="Helvetica,sans-Serif" font-size="10.00">Mutation</text>
</a>
</g>
</g>
<!-- Node32&#45;&gt;Node33 -->
<g id="edge39" class="edge">
<title>Node32&#45;&gt;Node33</title>
<path fill="none" stroke="midnightblue" d="M995.14,-235.48C983.49,-234.26 971.63,-233.02 960.08,-231.81"/>
<polygon fill="midnightblue" stroke="midnightblue" points="995,-238.98 1005.31,-236.54 995.73,-232.02 995,-238.98"/>
</g>
<!-- Node36 -->
<g id="node36" class="node">
<title>Node36</title>
<g id="a_node36"><a xlink:href="classdenoptim_1_1graph_1_1_d_graph.html#a9f63f3990784eee06842737c42bfc08d" target="_top" xlink:title="Flips edges in the graph so that the scaffold is the only source vertex.">
<polygon fill="white" stroke="black" points="1464,-147.5 1464,-177.5 1593,-177.5 1593,-147.5 1464,-147.5"/>
<text text-anchor="start" x="1472" y="-165.5" font-family="Helvetica,sans-Serif" font-size="10.00">denoptim.graph.DGraph.fix</text>
<text text-anchor="middle" x="1528.5" y="-154.5" font-family="Helvetica,sans-Serif" font-size="10.00">EdgeDirections</text>
</a>
</g>
</g>
<!-- Node35&#45;&gt;Node36 -->
<g id="edge43" class="edge">
<title>Node35&#45;&gt;Node36</title>
<path fill="none" stroke="midnightblue" d="M1640.64,-182.06C1624.86,-179.28 1608.39,-176.38 1593.12,-173.7"/>
<polygon fill="midnightblue" stroke="midnightblue" points="1640.44,-185.58 1650.89,-183.87 1641.65,-178.68 1640.44,-185.58"/>
</g>
<!-- Node37 -->
<g id="node37" class="node">
<title>Node37</title>
<g id="a_node37"><a xlink:href="classdenoptim_1_1graph_1_1_d_graph.html#a45b3ec4b3b4d6384e49093e9b9449537" target="_top" xlink:title="Sets the vertex at the lowest level as the scaffold, changes the &#160;&#160;directions of edges so that the sc...">
<polygon fill="white" stroke="black" points="1240,-89.5 1240,-119.5 1390,-119.5 1390,-89.5 1240,-89.5"/>
<text text-anchor="start" x="1248" y="-107.5" font-family="Helvetica,sans-Serif" font-size="10.00">denoptim.graph.DGraph.reorder</text>
<text text-anchor="middle" x="1315" y="-96.5" font-family="Helvetica,sans-Serif" font-size="10.00">VertexList</text>
</a>
</g>
</g>
<!-- Node35&#45;&gt;Node37 -->
<g id="edge52" class="edge">
<title>Node35&#45;&gt;Node37</title>
<path fill="none" stroke="midnightblue" d="M1655.67,-174.62C1654.03,-173.33 1652.47,-171.95 1651,-170.5 1619.78,-139.62 1651.27,-103.25 1615,-78.5 1532.8,-22.4 1406.82,-64.48 1348.14,-89.47"/>
<polygon fill="midnightblue" stroke="midnightblue" points="1654.13,-177.8 1664.39,-180.45 1658.02,-171.98 1654.13,-177.8"/>
</g>
<!-- Node39 -->
<g id="node39" class="node">
<title>Node39</title>
<g id="a_node39"><a xlink:href="classdenoptim_1_1graph_1_1_d_graph.html#a357b4099599e47ae47102123550771f8" target="_top" xlink:title="Remove a given vertex belonging to this graph and re&#45;connects the resulting graph branches as much as...">
<polygon fill="white" stroke="black" points="1452.5,-214.5 1452.5,-244.5 1604.5,-244.5 1604.5,-214.5 1452.5,-214.5"/>
<text text-anchor="start" x="1460.5" y="-232.5" font-family="Helvetica,sans-Serif" font-size="10.00">denoptim.graph.DGraph.remove</text>
<text text-anchor="middle" x="1528.5" y="-221.5" font-family="Helvetica,sans-Serif" font-size="10.00">SingleVertexAndWeld</text>
</a>
</g>
</g>
<!-- Node35&#45;&gt;Node39 -->
<g id="edge47" class="edge">
<title>Node35&#45;&gt;Node39</title>
<path fill="none" stroke="midnightblue" d="M1640.94,-209.29C1628.95,-211.47 1616.57,-213.71 1604.61,-215.88"/>
<polygon fill="midnightblue" stroke="midnightblue" points="1641.68,-212.72 1650.89,-207.49 1640.43,-205.83 1641.68,-212.72"/>
</g>
<!-- Node42 -->
<g id="node42" class="node">
<title>Node42</title>
<g id="a_node42"><a xlink:href="classdenoptim_1_1ga_1_1_graph_operations_test.html#a161540d22b2ad17c44fc3e1a911a1367" target="_top" xlink:title=" ">
<polygon fill="white" stroke="black" points="1456,-88 1456,-129 1601,-129 1601,-88 1456,-88"/>
<text text-anchor="start" x="1464" y="-117" font-family="Helvetica,sans-Serif" font-size="10.00">denoptim.ga.GraphOperations</text>
<text text-anchor="start" x="1464" y="-106" font-family="Helvetica,sans-Serif" font-size="10.00">Test.testExtractPattern</text>
<text text-anchor="middle" x="1528.5" y="-95" font-family="Helvetica,sans-Serif" font-size="10.00">_singleRingSystem</text>
</a>
</g>
</g>
<!-- Node35&#45;&gt;Node42 -->
<g id="edge53" class="edge">
<title>Node35&#45;&gt;Node42</title>
<path fill="none" stroke="midnightblue" d="M1661.41,-176.25C1657.81,-174.45 1654.31,-172.54 1651,-170.5 1632.52,-159.12 1633.68,-148.56 1615,-137.5 1609.87,-134.47 1604.39,-131.69 1598.76,-129.17"/>
<polygon fill="midnightblue" stroke="midnightblue" points="1659.94,-179.43 1670.49,-180.46 1662.89,-173.08 1659.94,-179.43"/>
</g>
<!-- Node43 -->
<g id="node43" class="node">
<title>Node43</title>
<g id="a_node43"><a xlink:href="classdenoptim_1_1graph_1_1_d_graph_test.html#a428fb92fa7fcf1312fc2eb81cf7fac4f" target="_top" xlink:title=" ">
<polygon fill="white" stroke="black" points="1450.5,-0.5 1450.5,-30.5 1606.5,-30.5 1606.5,-0.5 1450.5,-0.5"/>
<text text-anchor="start" x="1458.5" y="-18.5" font-family="Helvetica,sans-Serif" font-size="10.00">denoptim.graph.DGraphTest.test</text>
<text text-anchor="middle" x="1528.5" y="-7.5" font-family="Helvetica,sans-Serif" font-size="10.00">GetSourceVertex</text>
</a>
</g>
</g>
<!-- Node35&#45;&gt;Node43 -->
<g id="edge54" class="edge">
<title>Node35&#45;&gt;Node43</title>
<path fill="none" stroke="midnightblue" d="M1654.9,-174.29C1653.53,-173.09 1652.23,-171.83 1651,-170.5 1611.82,-127.98 1654.7,-87.53 1615,-45.5 1609.17,-39.32 1601.99,-34.42 1594.3,-30.52"/>
<polygon fill="midnightblue" stroke="midnightblue" points="1653.22,-177.39 1663.38,-180.43 1657.33,-171.72 1653.22,-177.39"/>
</g>
<!-- Node44 -->
<g id="node44" class="node">
<title>Node44</title>
<g id="a_node44"><a xlink:href="classdenoptim_1_1graph_1_1_d_graph_test.html#a83a9624ea5dc6a2c515407b865b62611" target="_top" xlink:title=" ">
<polygon fill="white" stroke="black" points="1450.5,-281.5 1450.5,-311.5 1606.5,-311.5 1606.5,-281.5 1450.5,-281.5"/>
<text text-anchor="start" x="1458.5" y="-299.5" font-family="Helvetica,sans-Serif" font-size="10.00">denoptim.graph.DGraphTest.test</text>
<text text-anchor="middle" x="1528.5" y="-288.5" font-family="Helvetica,sans-Serif" font-size="10.00">ReplaceSubGraph</text>
</a>
</g>
</g>
<!-- Node35&#45;&gt;Node44 -->
<g id="edge55" class="edge">
<title>Node35&#45;&gt;Node44</title>
<path fill="none" stroke="midnightblue" d="M1692.98,-217.3C1673.28,-234.18 1644.01,-257.04 1615,-271.5 1607.39,-275.29 1599.1,-278.61 1590.78,-281.48"/>
<polygon fill="midnightblue" stroke="midnightblue" points="1695.31,-219.91 1700.56,-210.7 1690.72,-214.64 1695.31,-219.91"/>
</g>
<!-- Node36&#45;&gt;Node36 -->
<g id="edge44" class="edge">
<title>Node36&#45;&gt;Node36</title>
<path fill="none" stroke="midnightblue" d="M1561.91,-187.96C1557.76,-192.68 1546.62,-196 1528.5,-196 1498.76,-196 1487.84,-187.06 1495.74,-177.66"/>
<polygon fill="midnightblue" stroke="midnightblue" points="1565.38,-187.42 1561.26,-177.66 1558.39,-187.86 1565.38,-187.42"/>
</g>
<!-- Node36&#45;&gt;Node37 -->
<g id="edge45" class="edge">
<title>Node36&#45;&gt;Node37</title>
<path fill="none" stroke="midnightblue" d="M1462.98,-144.81C1433.55,-136.73 1399.05,-127.28 1370.88,-119.55"/>
<polygon fill="midnightblue" stroke="midnightblue" points="1462.19,-148.22 1472.76,-147.49 1464.04,-141.47 1462.19,-148.22"/>
</g>
<!-- Node38 -->
<g id="node38" class="node">
<title>Node38</title>
<g id="a_node38"><a xlink:href="classdenoptim_1_1graph_1_1_d_graph.html#a5f9a8cd2ab45c226c2e1ec714c19724b" target="_top" xlink:title="Extracts subgraphs that match the provided pattern.">
<polygon fill="white" stroke="black" points="1017.5,-89.5 1017.5,-119.5 1166.5,-119.5 1166.5,-89.5 1017.5,-89.5"/>
<text text-anchor="start" x="1025.5" y="-107.5" font-family="Helvetica,sans-Serif" font-size="10.00">denoptim.graph.DGraph.extract</text>
<text text-anchor="middle" x="1092" y="-96.5" font-family="Helvetica,sans-Serif" font-size="10.00">Pattern</text>
</a>
</g>
</g>
<!-- Node37&#45;&gt;Node38 -->
<g id="edge46" class="edge">
<title>Node37&#45;&gt;Node38</title>
<path fill="none" stroke="midnightblue" d="M1229.72,-104.5C1208.94,-104.5 1186.86,-104.5 1166.63,-104.5"/>
<polygon fill="midnightblue" stroke="midnightblue" points="1229.8,-108 1239.8,-104.5 1229.8,-101 1229.8,-108"/>
</g>
<!-- Node39&#45;&gt;Node39 -->
<g id="edge48" class="edge">
<title>Node39&#45;&gt;Node39</title>
<path fill="none" stroke="midnightblue" d="M1561.91,-254.96C1557.76,-259.68 1546.62,-263 1528.5,-263 1498.76,-263 1487.84,-254.06 1495.74,-244.66"/>
<polygon fill="midnightblue" stroke="midnightblue" points="1565.38,-254.42 1561.26,-244.66 1558.39,-254.86 1565.38,-254.42"/>
</g>
<!-- Node40 -->
<g id="node40" class="node">
<title>Node40</title>
<g id="a_node40"><a xlink:href="classdenoptim_1_1graph_1_1_d_graph.html#a00209ca8b4a9623b41e7d9e1e62f69ec" target="_top" xlink:title="Remove a given vertex belonging to this graph and re&#45;connects the resulting graph branches as much as...">
<polygon fill="white" stroke="black" points="1239,-183.5 1239,-213.5 1391,-213.5 1391,-183.5 1239,-183.5"/>
<text text-anchor="start" x="1247" y="-201.5" font-family="Helvetica,sans-Serif" font-size="10.00">denoptim.graph.DGraph.remove</text>
<text text-anchor="middle" x="1315" y="-190.5" font-family="Helvetica,sans-Serif" font-size="10.00">VertexAndWeld</text>
</a>
</g>
</g>
<!-- Node39&#45;&gt;Node40 -->
<g id="edge49" class="edge">
<title>Node39&#45;&gt;Node40</title>
<path fill="none" stroke="midnightblue" d="M1441.99,-216.97C1425.2,-214.51 1407.7,-211.94 1391.28,-209.53"/>
<polygon fill="midnightblue" stroke="midnightblue" points="1441.94,-220.5 1452.34,-218.48 1442.95,-213.57 1441.94,-220.5"/>
</g>
<!-- Node41 -->
<g id="node41" class="node">
<title>Node41</title>
<g id="a_node41"><a xlink:href="classdenoptim_1_1ga_1_1_graph_operations.html#ab3adb5141a8941bf23916bb516faee63" target="_top" xlink:title="Removes a vertex while merging as many of the child branches into the parent vertex.">
<polygon fill="white" stroke="black" points="996,-190 996,-209 1188,-209 1188,-190 996,-190"/>
<text text-anchor="middle" x="1092" y="-197" font-family="Helvetica,sans-Serif" font-size="10.00">denoptim.ga.GraphOperations.deleteLink</text>
</a>
</g>
</g>
<!-- Node40&#45;&gt;Node41 -->
<g id="edge50" class="edge">
<title>Node40&#45;&gt;Node41</title>
<path fill="none" stroke="midnightblue" d="M1228.83,-198.89C1215.55,-198.95 1201.76,-199.01 1188.27,-199.07"/>
<polygon fill="midnightblue" stroke="midnightblue" points="1228.89,-202.39 1238.87,-198.84 1228.86,-195.39 1228.89,-202.39"/>
</g>
<!-- Node41&#45;&gt;Node33 -->
<g id="edge51" class="edge">
<title>Node41&#45;&gt;Node33</title>
<path fill="none" stroke="midnightblue" d="M989.72,-210.09C979.88,-211.12 969.94,-212.16 960.23,-213.17"/>
<polygon fill="midnightblue" stroke="midnightblue" points="990.35,-213.54 999.93,-209.02 989.62,-206.58 990.35,-213.54"/>
</g>
</g>
</svg>
