<?xml version="1.0" encoding="UTF-8" standalone="no"?>
<!DOCTYPE svg PUBLIC "-//W3C//DTD SVG 1.1//EN"
 "http://www.w3.org/Graphics/SVG/1.1/DTD/svg11.dtd">
<!-- Generated by graphviz version 3.0.0 (20221109.1736)
 -->
<!-- Title: denoptim.graph.DGraph.fixEdgeDirections Pages: 1 -->
<svg width="1202pt" height="529pt"
 viewBox="0.00 0.00 1202.00 528.50" xmlns="http://www.w3.org/2000/svg" xmlns:xlink="http://www.w3.org/1999/xlink">
<g id="graph0" class="graph" transform="scale(1 1) rotate(0) translate(4 524.5)">
<title>denoptim.graph.DGraph.fixEdgeDirections</title>
<polygon fill="white" stroke="transparent" points="-4,4 -4,-524.5 1198,-524.5 1198,4 -4,4"/>
<!-- Node1 -->
<g id="node1" class="node">
<title>Node1</title>
<g id="a_node1"><a xlink:title="Recursive utility method for fixEdgeDirections(graph).">
<polygon fill="#bfbfbf" stroke="black" points="0,-203.5 0,-233.5 129,-233.5 129,-203.5 0,-203.5"/>
<text text-anchor="start" x="8" y="-221.5" font-family="Helvetica,sans-Serif" font-size="10.00">denoptim.graph.DGraph.fix</text>
<text text-anchor="middle" x="64.5" y="-210.5" font-family="Helvetica,sans-Serif" font-size="10.00">EdgeDirections</text>
</a>
</g>
</g>
<!-- Node2 -->
<g id="node2" class="node">
<title>Node2</title>
<g id="a_node2"><a xlink:href="classdenoptim_1_1graph_1_1_d_graph.html#a9f63f3990784eee06842737c42bfc08d" target="_top" xlink:title="Flips edges in the graph so that the scaffold is the only source vertex.">
<polygon fill="white" stroke="black" points="169,-320.5 169,-350.5 298,-350.5 298,-320.5 169,-320.5"/>
<text text-anchor="start" x="177" y="-338.5" font-family="Helvetica,sans-Serif" font-size="10.00">denoptim.graph.DGraph.fix</text>
<text text-anchor="middle" x="233.5" y="-327.5" font-family="Helvetica,sans-Serif" font-size="10.00">EdgeDirections</text>
</a>
</g>
</g>
<!-- Node1&#45;&gt;Node2 -->
<g id="edge1" class="edge">
<title>Node1&#45;&gt;Node2</title>
<path fill="none" stroke="midnightblue" d="M85.02,-233.67C104.86,-248.94 136.64,-272.96 165,-292.5 176.01,-300.09 188.29,-308.05 199.32,-315.03"/>
<polygon fill="midnightblue" stroke="midnightblue" points="197.52,-318.04 207.85,-320.4 201.25,-312.11 197.52,-318.04"/>
</g>
<!-- Node9 -->
<g id="node9" class="node">
<title>Node9</title>
<g id="a_node9"><a xlink:href="classdenoptim_1_1graph_1_1_edge.html#a44521a3ad1a83e5d0a6be227e35ceffa" target="_top" xlink:title=" ">
<polygon fill="white" stroke="black" points="1044,-465 1044,-484 1194,-484 1194,-465 1044,-465"/>
<text text-anchor="middle" x="1119" y="-472" font-family="Helvetica,sans-Serif" font-size="10.00">denoptim.graph.Edge.getTrgAP</text>
</a>
</g>
</g>
<!-- Node1&#45;&gt;Node9 -->
<g id="edge26" class="edge">
<title>Node1&#45;&gt;Node9</title>
<path fill="none" stroke="midnightblue" d="M68.72,-233.51C77.51,-271.03 105.37,-369.89 165,-425.5 248.59,-503.46 289.69,-520.5 404,-520.5 404,-520.5 404,-520.5 750.5,-520.5 861.43,-520.5 989.74,-499.61 1061.63,-485.99"/>
<polygon fill="midnightblue" stroke="midnightblue" points="1062.66,-489.35 1071.82,-484.03 1061.34,-482.48 1062.66,-489.35"/>
</g>
<!-- Node10 -->
<g id="node10" class="node">
<title>Node10</title>
<g id="a_node10"><a xlink:href="classdenoptim_1_1graph_1_1_attachment_point.html#ac8551521d38644f5109800b665957ee9" target="_top" xlink:title=" ">
<polygon fill="white" stroke="black" points="865,-189.5 865,-219.5 1000,-219.5 1000,-189.5 865,-189.5"/>
<text text-anchor="start" x="873" y="-207.5" font-family="Helvetica,sans-Serif" font-size="10.00">denoptim.graph.Attachment</text>
<text text-anchor="middle" x="932.5" y="-196.5" font-family="Helvetica,sans-Serif" font-size="10.00">Point.getOwner</text>
</a>
</g>
</g>
<!-- Node1&#45;&gt;Node10 -->
<g id="edge22" class="edge">
<title>Node1&#45;&gt;Node10</title>
<path fill="none" stroke="midnightblue" d="M129.06,-225.1C197.02,-231.58 308.01,-240.5 404,-240.5 404,-240.5 404,-240.5 576,-240.5 672.38,-240.5 782.7,-227.24 854.56,-216.82"/>
<polygon fill="midnightblue" stroke="midnightblue" points="855.49,-220.22 864.87,-215.3 854.47,-213.29 855.49,-220.22"/>
</g>
<!-- Node13 -->
<g id="node13" class="node">
<title>Node13</title>
<g id="a_node13"><a xlink:href="classdenoptim_1_1graph_1_1_edge.html#a459c1fc3b1192f96fd235609498cbe0b" target="_top" xlink:title="Exchanges source and target vertices and respective APs of this edge.">
<polygon fill="white" stroke="black" points="678,-465 678,-484 821,-484 821,-465 678,-465"/>
<text text-anchor="middle" x="749.5" y="-472" font-family="Helvetica,sans-Serif" font-size="10.00">denoptim.graph.Edge.flipEdge</text>
</a>
</g>
</g>
<!-- Node1&#45;&gt;Node13 -->
<g id="edge14" class="edge">
<title>Node1&#45;&gt;Node13</title>
<path fill="none" stroke="midnightblue" d="M70.44,-233.55C81.74,-265.53 112.62,-340.41 165,-378.5 315.68,-488.06 545.92,-490.53 667.22,-482.69"/>
<polygon fill="midnightblue" stroke="midnightblue" points="667.81,-486.16 677.55,-481.98 667.33,-479.17 667.81,-486.16"/>
</g>
<!-- Node14 -->
<g id="node14" class="node">
<title>Node14</title>
<g id="a_node14"><a xlink:href="classdenoptim_1_1graph_1_1_vertex.html#aee39019987712f9784138e97917ac97f" target="_top" xlink:title="Get attachment point i on this vertex.">
<polygon fill="white" stroke="black" points="678.5,-269 678.5,-288 820.5,-288 820.5,-269 678.5,-269"/>
<text text-anchor="middle" x="749.5" y="-276" font-family="Helvetica,sans-Serif" font-size="10.00">denoptim.graph.Vertex.getAP</text>
</a>
</g>
</g>
<!-- Node1&#45;&gt;Node14 -->
<g id="edge17" class="edge">
<title>Node1&#45;&gt;Node14</title>
<path fill="none" stroke="midnightblue" d="M99.3,-233.65C118.22,-241.38 142.47,-250.07 165,-254.5 341.78,-289.26 554.29,-287.33 667.75,-282.89"/>
<polygon fill="midnightblue" stroke="midnightblue" points="668.23,-286.38 678.08,-282.47 667.95,-279.38 668.23,-286.38"/>
</g>
<!-- Node15 -->
<g id="node15" class="node">
<title>Node15</title>
<g id="a_node15"><a xlink:href="classdenoptim_1_1graph_1_1_attachment_point.html#af8040db3f56d75da29132079df2b25cb" target="_top" xlink:title="Gets the edge that is using this AP, or null if no edge is using this AP.">
<polygon fill="white" stroke="black" points="166,-181.5 166,-211.5 301,-211.5 301,-181.5 166,-181.5"/>
<text text-anchor="start" x="174" y="-199.5" font-family="Helvetica,sans-Serif" font-size="10.00">denoptim.graph.Attachment</text>
<text text-anchor="middle" x="233.5" y="-188.5" font-family="Helvetica,sans-Serif" font-size="10.00">Point.getEdgeUser</text>
</a>
</g>
</g>
<!-- Node1&#45;&gt;Node15 -->
<g id="edge19" class="edge">
<title>Node1&#45;&gt;Node15</title>
<path fill="none" stroke="midnightblue" d="M129.11,-210.12C137.82,-208.97 146.83,-207.79 155.74,-206.61"/>
<polygon fill="midnightblue" stroke="midnightblue" points="156.28,-210.07 165.73,-205.3 155.36,-203.13 156.28,-210.07"/>
</g>
<!-- Node16 -->
<g id="node16" class="node">
<title>Node16</title>
<g id="a_node16"><a xlink:href="classdenoptim_1_1graph_1_1_vertex.html#a514b89b11dff8939e74e5b95e749b703" target="_top" xlink:title=" ">
<polygon fill="white" stroke="black" points="341,-0.5 341,-30.5 469,-30.5 469,-0.5 341,-0.5"/>
<text text-anchor="start" x="349" y="-18.5" font-family="Helvetica,sans-Serif" font-size="10.00">denoptim.graph.Vertex.get</text>
<text text-anchor="middle" x="405" y="-7.5" font-family="Helvetica,sans-Serif" font-size="10.00">NumberOfAPs</text>
</a>
</g>
</g>
<!-- Node1&#45;&gt;Node16 -->
<g id="edge20" class="edge">
<title>Node1&#45;&gt;Node16</title>
<path fill="none" stroke="midnightblue" d="M68.58,-203.28C76.85,-166.86 103.22,-74.73 165,-34.5 213.62,-2.84 280.16,-0.02 330.68,-4.03"/>
<polygon fill="midnightblue" stroke="midnightblue" points="330.61,-7.54 340.88,-4.95 331.24,-0.56 330.61,-7.54"/>
</g>
<!-- Node17 -->
<g id="node17" class="node">
<title>Node17</title>
<g id="a_node17"><a xlink:href="classdenoptim_1_1graph_1_1_edge.html#a6331fb41fb8390b908ca7d737cc13602" target="_top" xlink:title=" ">
<polygon fill="white" stroke="black" points="165,-132.5 165,-162.5 302,-162.5 302,-132.5 165,-132.5"/>
<text text-anchor="start" x="173" y="-150.5" font-family="Helvetica,sans-Serif" font-size="10.00">denoptim.graph.Edge.getSrc</text>
<text text-anchor="middle" x="233.5" y="-139.5" font-family="Helvetica,sans-Serif" font-size="10.00">Vertex</text>
</a>
</g>
</g>
<!-- Node1&#45;&gt;Node17 -->
<g id="edge23" class="edge">
<title>Node1&#45;&gt;Node17</title>
<path fill="none" stroke="midnightblue" d="M96.59,-203.36C116.07,-194.07 141.8,-182.14 165,-172.5 170.05,-170.4 175.34,-168.29 180.65,-166.23"/>
<polygon fill="midnightblue" stroke="midnightblue" points="182.08,-169.43 190.17,-162.6 179.58,-162.89 182.08,-169.43"/>
</g>
<!-- Node18 -->
<g id="node18" class="node">
<title>Node18</title>
<g id="a_node18"><a xlink:href="classdenoptim_1_1graph_1_1_vertex.html#a9493346ca1480edfcfa00cb78a52adf5" target="_top" xlink:title=" ">
<polygon fill="white" stroke="black" points="341,-88.5 341,-118.5 469,-118.5 469,-88.5 341,-88.5"/>
<text text-anchor="start" x="349" y="-106.5" font-family="Helvetica,sans-Serif" font-size="10.00">denoptim.graph.Vertex.get</text>
<text text-anchor="middle" x="405" y="-95.5" font-family="Helvetica,sans-Serif" font-size="10.00">VertexId</text>
</a>
</g>
</g>
<!-- Node1&#45;&gt;Node18 -->
<g id="edge30" class="edge">
<title>Node1&#45;&gt;Node18</title>
<path fill="none" stroke="midnightblue" d="M75.97,-203.38C92.16,-181.38 125.58,-141.24 165,-123.5 216.93,-100.13 281.59,-96.02 330.56,-97.27"/>
<polygon fill="midnightblue" stroke="midnightblue" points="330.65,-100.77 340.76,-97.61 330.88,-93.77 330.65,-100.77"/>
</g>
<!-- Node19 -->
<g id="node19" class="node">
<title>Node19</title>
<g id="a_node19"><a xlink:href="classdenoptim_1_1graph_1_1_edge.html#a9a569de09e30a53338e1983f2a07e105" target="_top" xlink:title=" ">
<polygon fill="white" stroke="black" points="165,-44.5 165,-74.5 302,-74.5 302,-44.5 165,-44.5"/>
<text text-anchor="start" x="173" y="-62.5" font-family="Helvetica,sans-Serif" font-size="10.00">denoptim.graph.Edge.getTrg</text>
<text text-anchor="middle" x="233.5" y="-51.5" font-family="Helvetica,sans-Serif" font-size="10.00">Vertex</text>
</a>
</g>
</g>
<!-- Node1&#45;&gt;Node19 -->
<g id="edge27" class="edge">
<title>Node1&#45;&gt;Node19</title>
<path fill="none" stroke="midnightblue" d="M73.74,-203.4C88.77,-177.1 122.97,-122.53 165,-89.5 169.9,-85.65 175.36,-82.18 181.01,-79.09"/>
<polygon fill="midnightblue" stroke="midnightblue" points="182.64,-82.19 189.97,-74.54 179.47,-75.95 182.64,-82.19"/>
</g>
<!-- Node2&#45;&gt;Node2 -->
<g id="edge2" class="edge">
<title>Node2&#45;&gt;Node2</title>
<path fill="none" stroke="midnightblue" d="M204.22,-350.66C197.16,-360.06 206.92,-369 233.5,-369 249.7,-369 259.65,-365.68 263.35,-360.96"/>
<polygon fill="midnightblue" stroke="midnightblue" points="266.83,-360.45 262.78,-350.66 259.84,-360.84 266.83,-360.45"/>
</g>
<!-- Node3 -->
<g id="node3" class="node">
<title>Node3</title>
<g id="a_node3"><a xlink:href="classdenoptim_1_1graph_1_1_d_graph.html#a1aa43ea09d59d14420ae0b647578df52" target="_top" xlink:title="Identifies and return the vertex from which the spanning tree originates.">
<polygon fill="white" stroke="black" points="338,-344.5 338,-374.5 472,-374.5 472,-344.5 338,-344.5"/>
<text text-anchor="start" x="346" y="-362.5" font-family="Helvetica,sans-Serif" font-size="10.00">denoptim.graph.DGraph.get</text>
<text text-anchor="middle" x="405" y="-351.5" font-family="Helvetica,sans-Serif" font-size="10.00">SourceVertex</text>
</a>
</g>
</g>
<!-- Node2&#45;&gt;Node3 -->
<g id="edge3" class="edge">
<title>Node2&#45;&gt;Node3</title>
<path fill="none" stroke="midnightblue" d="M298.1,-344.5C307.72,-345.87 317.73,-347.28 327.59,-348.68"/>
<polygon fill="midnightblue" stroke="midnightblue" points="327.39,-352.19 337.78,-350.12 328.37,-345.26 327.39,-352.19"/>
</g>
<!-- Node4 -->
<g id="node4" class="node">
<title>Node4</title>
<g id="a_node4"><a xlink:href="classdenoptim_1_1graph_1_1_d_graph.html#ab5d3641bcfd0c8dd76d5de6159d6b8c8" target="_top" xlink:title=" ">
<polygon fill="white" stroke="black" points="508,-423.5 508,-453.5 642,-453.5 642,-423.5 508,-423.5"/>
<text text-anchor="start" x="516" y="-441.5" font-family="Helvetica,sans-Serif" font-size="10.00">denoptim.graph.DGraph.get</text>
<text text-anchor="middle" x="575" y="-430.5" font-family="Helvetica,sans-Serif" font-size="10.00">EdgeList</text>
</a>
</g>
</g>
<!-- Node3&#45;&gt;Node4 -->
<g id="edge4" class="edge">
<title>Node3&#45;&gt;Node4</title>
<path fill="none" stroke="midnightblue" d="M431.47,-374.58C451.79,-386.28 481.2,-402.48 508,-414.5 511.88,-416.24 515.93,-417.95 520.02,-419.61"/>
<polygon fill="midnightblue" stroke="midnightblue" points="519.03,-422.98 529.62,-423.37 521.59,-416.46 519.03,-422.98"/>
</g>
<!-- Node5 -->
<g id="node5" class="node">
<title>Node5</title>
<g id="a_node5"><a xlink:href="classdenoptim_1_1graph_1_1_d_graph.html#aaf3eb72074f66c853ea40c06ac9bea0e" target="_top" xlink:title="Traverse the graph until it identifies the source of the directed path reachable from the given verte...">
<polygon fill="white" stroke="black" points="508,-356.5 508,-386.5 642,-386.5 642,-356.5 508,-356.5"/>
<text text-anchor="start" x="516" y="-374.5" font-family="Helvetica,sans-Serif" font-size="10.00">denoptim.graph.DGraph.get</text>
<text text-anchor="middle" x="575" y="-363.5" font-family="Helvetica,sans-Serif" font-size="10.00">ParentTree</text>
</a>
</g>
</g>
<!-- Node3&#45;&gt;Node5 -->
<g id="edge5" class="edge">
<title>Node3&#45;&gt;Node5</title>
<path fill="none" stroke="midnightblue" d="M472.4,-364.24C480.68,-364.83 489.2,-365.44 497.62,-366.04"/>
<polygon fill="midnightblue" stroke="midnightblue" points="497.59,-369.55 507.81,-366.77 498.08,-362.57 497.59,-369.55"/>
</g>
<!-- Node12 -->
<g id="node12" class="node">
<title>Node12</title>
<g id="a_node12"><a xlink:href="classdenoptim_1_1graph_1_1_d_graph.html#a58811a9ea75a26abffc1a9c7c2b22741" target="_top" xlink:title="Returns the vertex that is in the given position of the list of vertices belonging to this graph.">
<polygon fill="white" stroke="black" points="508,-307.5 508,-337.5 642,-337.5 642,-307.5 508,-307.5"/>
<text text-anchor="start" x="516" y="-325.5" font-family="Helvetica,sans-Serif" font-size="10.00">denoptim.graph.DGraph.get</text>
<text text-anchor="middle" x="575" y="-314.5" font-family="Helvetica,sans-Serif" font-size="10.00">VertexAtPosition</text>
</a>
</g>
</g>
<!-- Node3&#45;&gt;Node12 -->
<g id="edge13" class="edge">
<title>Node3&#45;&gt;Node12</title>
<path fill="none" stroke="midnightblue" d="M472.4,-344.88C480.77,-343.03 489.39,-341.14 497.89,-339.26"/>
<polygon fill="midnightblue" stroke="midnightblue" points="498.8,-342.65 507.81,-337.08 497.29,-335.81 498.8,-342.65"/>
</g>
<!-- Node5&#45;&gt;Node5 -->
<g id="edge12" class="edge">
<title>Node5&#45;&gt;Node5</title>
<path fill="none" stroke="midnightblue" d="M545.37,-386.66C538.23,-396.06 548.11,-405 575,-405 591.39,-405 601.46,-401.68 605.21,-396.96"/>
<polygon fill="midnightblue" stroke="midnightblue" points="608.68,-396.45 604.63,-386.66 601.69,-396.84 608.68,-396.45"/>
</g>
<!-- Node6 -->
<g id="node6" class="node">
<title>Node6</title>
<g id="a_node6"><a xlink:href="classdenoptim_1_1graph_1_1_d_graph.html#a978d4b9f0c7e555fa1db7ed5a6af5a6c" target="_top" xlink:title=" ">
<polygon fill="white" stroke="black" points="682.5,-356.5 682.5,-386.5 816.5,-386.5 816.5,-356.5 682.5,-356.5"/>
<text text-anchor="start" x="690.5" y="-374.5" font-family="Helvetica,sans-Serif" font-size="10.00">denoptim.graph.DGraph.get</text>
<text text-anchor="middle" x="749.5" y="-363.5" font-family="Helvetica,sans-Serif" font-size="10.00">Parent</text>
</a>
</g>
</g>
<!-- Node5&#45;&gt;Node6 -->
<g id="edge6" class="edge">
<title>Node5&#45;&gt;Node6</title>
<path fill="none" stroke="midnightblue" d="M642.2,-371.5C652.1,-371.5 662.38,-371.5 672.47,-371.5"/>
<polygon fill="midnightblue" stroke="midnightblue" points="672.48,-375 682.48,-371.5 672.48,-368 672.48,-375"/>
</g>
<!-- Node7 -->
<g id="node7" class="node">
<title>Node7</title>
<g id="a_node7"><a xlink:href="classdenoptim_1_1graph_1_1_vertex.html#a2937a75fd3652481c84235742b94736b" target="_top" xlink:title="Looks into the edges that use any of the APs that belong to this vertex and returns the edge that has...">
<polygon fill="white" stroke="black" points="868.5,-356.5 868.5,-386.5 996.5,-386.5 996.5,-356.5 868.5,-356.5"/>
<text text-anchor="start" x="876.5" y="-374.5" font-family="Helvetica,sans-Serif" font-size="10.00">denoptim.graph.Vertex.get</text>
<text text-anchor="middle" x="932.5" y="-363.5" font-family="Helvetica,sans-Serif" font-size="10.00">EdgeToParent</text>
</a>
</g>
</g>
<!-- Node6&#45;&gt;Node7 -->
<g id="edge7" class="edge">
<title>Node6&#45;&gt;Node7</title>
<path fill="none" stroke="midnightblue" d="M816.61,-371.5C830.05,-371.5 844.27,-371.5 857.95,-371.5"/>
<polygon fill="midnightblue" stroke="midnightblue" points="858.28,-375 868.28,-371.5 858.28,-368 858.28,-375"/>
</g>
<!-- Node6&#45;&gt;Node10 -->
<g id="edge10" class="edge">
<title>Node6&#45;&gt;Node10</title>
<path fill="none" stroke="midnightblue" d="M766.88,-356.39C798.97,-326.78 870.23,-261.03 907.59,-226.56"/>
<polygon fill="midnightblue" stroke="midnightblue" points="910.05,-229.05 915.02,-219.7 905.3,-223.91 910.05,-229.05"/>
</g>
<!-- Node11 -->
<g id="node11" class="node">
<title>Node11</title>
<g id="a_node11"><a xlink:href="classdenoptim_1_1graph_1_1_edge.html#a658e275a18a50f12474777f5f28c35e9" target="_top" xlink:title=" ">
<polygon fill="white" stroke="black" points="857,-420 857,-439 1008,-439 1008,-420 857,-420"/>
<text text-anchor="middle" x="932.5" y="-427" font-family="Helvetica,sans-Serif" font-size="10.00">denoptim.graph.Edge.getSrcAP</text>
</a>
</g>
</g>
<!-- Node6&#45;&gt;Node11 -->
<g id="edge11" class="edge">
<title>Node6&#45;&gt;Node11</title>
<path fill="none" stroke="midnightblue" d="M797.58,-386.59C826.88,-395.97 864.12,-407.91 891.89,-416.81"/>
<polygon fill="midnightblue" stroke="midnightblue" points="891.07,-420.22 901.66,-419.94 893.21,-413.55 891.07,-420.22"/>
</g>
<!-- Node8 -->
<g id="node8" class="node">
<title>Node8</title>
<g id="a_node8"><a xlink:href="classdenoptim_1_1graph_1_1_vertex.html#a85aa901ec3fff8e566c0cc32d9c9f84e" target="_top" xlink:title=" ">
<polygon fill="white" stroke="black" points="1055,-263.5 1055,-293.5 1183,-293.5 1183,-263.5 1055,-263.5"/>
<text text-anchor="start" x="1063" y="-281.5" font-family="Helvetica,sans-Serif" font-size="10.00">denoptim.graph.Vertex.get</text>
<text text-anchor="middle" x="1119" y="-270.5" font-family="Helvetica,sans-Serif" font-size="10.00">AttachmentPoints</text>
</a>
</g>
</g>
<!-- Node7&#45;&gt;Node8 -->
<g id="edge8" class="edge">
<title>Node7&#45;&gt;Node8</title>
<path fill="none" stroke="midnightblue" d="M963.55,-356.35C994.91,-340.54 1044.22,-315.69 1078.67,-298.33"/>
<polygon fill="midnightblue" stroke="midnightblue" points="1080.6,-301.27 1087.96,-293.64 1077.45,-295.02 1080.6,-301.27"/>
</g>
<!-- Node7&#45;&gt;Node9 -->
<g id="edge9" class="edge">
<title>Node7&#45;&gt;Node9</title>
<path fill="none" stroke="midnightblue" d="M963.03,-386.57C976.78,-393.69 993.3,-402.38 1008,-410.5 1037.62,-426.86 1071.16,-446.54 1093.33,-459.72"/>
<polygon fill="midnightblue" stroke="midnightblue" points="1091.71,-462.83 1102.1,-464.95 1095.3,-456.82 1091.71,-462.83"/>
</g>
<!-- Node13&#45;&gt;Node9 -->
<g id="edge16" class="edge">
<title>Node13&#45;&gt;Node9</title>
<path fill="none" stroke="midnightblue" d="M821.36,-474.5C882.04,-474.5 969.54,-474.5 1033.79,-474.5"/>
<polygon fill="midnightblue" stroke="midnightblue" points="1033.89,-478 1043.89,-474.5 1033.89,-471 1033.89,-478"/>
</g>
<!-- Node13&#45;&gt;Node11 -->
<g id="edge15" class="edge">
<title>Node13&#45;&gt;Node11</title>
<path fill="none" stroke="midnightblue" d="M788.89,-464.96C816.48,-458.1 853.89,-448.8 883.46,-441.44"/>
<polygon fill="midnightblue" stroke="midnightblue" points="884.31,-444.84 893.17,-439.03 882.62,-438.05 884.31,-444.84"/>
</g>
<!-- Node14&#45;&gt;Node8 -->
<g id="edge18" class="edge">
<title>Node14&#45;&gt;Node8</title>
<path fill="none" stroke="midnightblue" d="M820.92,-278.5C885.12,-278.5 979.6,-278.5 1044.68,-278.5"/>
<polygon fill="midnightblue" stroke="midnightblue" points="1044.87,-282 1054.87,-278.5 1044.87,-275 1044.87,-282"/>
</g>
<!-- Node16&#45;&gt;Node8 -->
<g id="edge21" class="edge">
<title>Node16&#45;&gt;Node8</title>
<path fill="none" stroke="midnightblue" d="M469.16,-22.58C583.19,-37.5 828.25,-79.52 1008,-180.5 1043.55,-200.47 1077.48,-233.57 1098.02,-255.71"/>
<polygon fill="midnightblue" stroke="midnightblue" points="1095.64,-258.29 1104.97,-263.32 1100.81,-253.57 1095.64,-258.29"/>
</g>
<!-- Node17&#45;&gt;Node10 -->
<g id="edge24" class="edge">
<title>Node17&#45;&gt;Node10</title>
<path fill="none" stroke="midnightblue" d="M302.28,-153.04C432.69,-163.71 717.72,-187.02 854.83,-198.23"/>
<polygon fill="midnightblue" stroke="midnightblue" points="854.59,-201.72 864.84,-199.05 855.16,-194.75 854.59,-201.72"/>
</g>
<!-- Node17&#45;&gt;Node18 -->
<g id="edge25" class="edge">
<title>Node17&#45;&gt;Node18</title>
<path fill="none" stroke="midnightblue" d="M292.36,-132.48C306.46,-128.82 321.67,-124.87 336.19,-121.1"/>
<polygon fill="midnightblue" stroke="midnightblue" points="337.32,-124.43 346.11,-118.53 335.56,-117.65 337.32,-124.43"/>
</g>
<!-- Node19&#45;&gt;Node10 -->
<g id="edge28" class="edge">
<title>Node19&#45;&gt;Node10</title>
<path fill="none" stroke="midnightblue" d="M302.23,-61.93C349.97,-64.44 415.26,-69.48 472,-79.5 620.99,-105.81 791.78,-158.38 877.07,-186.22"/>
<polygon fill="midnightblue" stroke="midnightblue" points="876.2,-189.62 886.79,-189.41 878.38,-182.97 876.2,-189.62"/>
</g>
<!-- Node19&#45;&gt;Node18 -->
<g id="edge29" class="edge">
<title>Node19&#45;&gt;Node18</title>
<path fill="none" stroke="midnightblue" d="M292.36,-74.52C306.46,-78.18 321.67,-82.13 336.19,-85.9"/>
<polygon fill="midnightblue" stroke="midnightblue" points="335.56,-89.35 346.11,-88.47 337.32,-82.57 335.56,-89.35"/>
</g>
</g>
</svg>
