<?xml version="1.0" encoding="UTF-8" standalone="no"?>
<!DOCTYPE svg PUBLIC "-//W3C//DTD SVG 1.1//EN"
 "http://www.w3.org/Graphics/SVG/1.1/DTD/svg11.dtd">
<!-- Generated by graphviz version 3.0.0 (20221109.1736)
 -->
<!-- Title: denoptim.gui.GraphVertexMolViewerPanel.renderMolVieverToNeedUpdate Pages: 1 -->
<svg width="535pt" height="123pt"
 viewBox="0.00 0.00 535.00 122.50" xmlns="http://www.w3.org/2000/svg" xmlns:xlink="http://www.w3.org/1999/xlink">
<g id="graph0" class="graph" transform="scale(1 1) rotate(0) translate(4 118.5)">
<title>denoptim.gui.GraphVertexMolViewerPanel.renderMolVieverToNeedUpdate</title>
<polygon fill="white" stroke="transparent" points="-4,4 -4,-118.5 531,-118.5 531,4 -4,4"/>
<!-- Node1 -->
<g id="node1" class="node">
<title>Node1</title>
<g id="a_node1"><a xlink:title="Triggers the generation of the molecular representation of the loaded graph.">
<polygon fill="#bfbfbf" stroke="black" points="0,-46 0,-87 160,-87 160,-46 0,-46"/>
<text text-anchor="start" x="8" y="-75" font-family="Helvetica,sans-Serif" font-size="10.00">denoptim.gui.GraphVertex</text>
<text text-anchor="start" x="8" y="-64" font-family="Helvetica,sans-Serif" font-size="10.00">MolViewerPanel.renderMolViever</text>
<text text-anchor="middle" x="80" y="-53" font-family="Helvetica,sans-Serif" font-size="10.00">ToNeedUpdate</text>
</a>
</g>
</g>
<!-- Node2 -->
<g id="node2" class="node">
<title>Node2</title>
<g id="a_node2"><a xlink:href="classdenoptim_1_1gui_1_1_graph_vertex_mol_viewer_panel.html#a71ebb2645638b3512d2f4bb137c7d77d" target="_top" xlink:title="Allows to show the given card in the molecular structure viewer.">
<polygon fill="white" stroke="black" points="196,-73 196,-114 354,-114 354,-73 196,-73"/>
<text text-anchor="start" x="204" y="-102" font-family="Helvetica,sans-Serif" font-size="10.00">denoptim.gui.GraphVertex</text>
<text text-anchor="start" x="204" y="-91" font-family="Helvetica,sans-Serif" font-size="10.00">MolViewerPanel.bringCardToTop</text>
<text text-anchor="middle" x="275" y="-80" font-family="Helvetica,sans-Serif" font-size="10.00">OfMolViewer</text>
</a>
</g>
</g>
<!-- Node1&#45;&gt;Node2 -->
<g id="edge1" class="edge">
<title>Node1&#45;&gt;Node2</title>
<path fill="none" stroke="midnightblue" d="M160.06,-77.56C168.51,-78.74 177.15,-79.95 185.71,-81.15"/>
<polygon fill="midnightblue" stroke="midnightblue" points="185.3,-84.63 195.69,-82.54 186.27,-77.69 185.3,-84.63"/>
</g>
<!-- Node3 -->
<g id="node3" class="node">
<title>Node3</title>
<g id="a_node3"><a xlink:href="classdenoptim_1_1gui_1_1_molecule_view_panel.html#a700b2ae92d1de1c0be3e1bbde5cae71d" target="_top" xlink:title="Removes the currently visualized molecule and AP table.">
<polygon fill="white" stroke="black" points="208,-24.5 208,-54.5 342,-54.5 342,-24.5 208,-24.5"/>
<text text-anchor="start" x="216" y="-42.5" font-family="Helvetica,sans-Serif" font-size="10.00">denoptim.gui.MoleculeView</text>
<text text-anchor="middle" x="275" y="-31.5" font-family="Helvetica,sans-Serif" font-size="10.00">Panel.clearAll</text>
</a>
</g>
</g>
<!-- Node1&#45;&gt;Node3 -->
<g id="edge2" class="edge">
<title>Node1&#45;&gt;Node3</title>
<path fill="none" stroke="midnightblue" d="M160.06,-55.44C172.5,-53.7 185.34,-51.9 197.72,-50.17"/>
<polygon fill="midnightblue" stroke="midnightblue" points="198.57,-53.59 207.99,-48.73 197.6,-46.65 198.57,-53.59"/>
</g>
<!-- Node4 -->
<g id="node4" class="node">
<title>Node4</title>
<g id="a_node4"><a xlink:href="classdenoptim_1_1gui_1_1_molecule_view_panel.html#a0917c33381934f156d4196b46819276b" target="_top" xlink:title="Clears the table of attachment points.">
<polygon fill="white" stroke="black" points="391.5,-49.5 391.5,-79.5 525.5,-79.5 525.5,-49.5 391.5,-49.5"/>
<text text-anchor="start" x="399.5" y="-67.5" font-family="Helvetica,sans-Serif" font-size="10.00">denoptim.gui.MoleculeView</text>
<text text-anchor="middle" x="458.5" y="-56.5" font-family="Helvetica,sans-Serif" font-size="10.00">Panel.cleardataTable</text>
</a>
</g>
</g>
<!-- Node3&#45;&gt;Node4 -->
<g id="edge3" class="edge">
<title>Node3&#45;&gt;Node4</title>
<path fill="none" stroke="midnightblue" d="M342.04,-48.6C354.68,-50.34 368,-52.17 380.94,-53.95"/>
<polygon fill="midnightblue" stroke="midnightblue" points="380.82,-57.47 391.21,-55.37 381.78,-50.54 380.82,-57.47"/>
</g>
<!-- Node5 -->
<g id="node5" class="node">
<title>Node5</title>
<g id="a_node5"><a xlink:href="classdenoptim_1_1gui_1_1_molecule_view_panel.html#a20eef80a872503d11d3253d5557e0876" target="_top" xlink:title="Clears the molecular viewer.">
<polygon fill="white" stroke="black" points="390,-0.5 390,-30.5 527,-30.5 527,-0.5 390,-0.5"/>
<text text-anchor="start" x="398" y="-18.5" font-family="Helvetica,sans-Serif" font-size="10.00">denoptim.gui.MoleculeView</text>
<text text-anchor="middle" x="458.5" y="-7.5" font-family="Helvetica,sans-Serif" font-size="10.00">Panel.clearMolecularViewer</text>
</a>
</g>
</g>
<!-- Node3&#45;&gt;Node5 -->
<g id="edge4" class="edge">
<title>Node3&#45;&gt;Node5</title>
<path fill="none" stroke="midnightblue" d="M342.04,-30.77C354.36,-29.14 367.33,-27.42 379.96,-25.75"/>
<polygon fill="midnightblue" stroke="midnightblue" points="380.53,-29.21 389.99,-24.43 379.61,-22.27 380.53,-29.21"/>
</g>
</g>
</svg>
