<?xml version="1.0" encoding="UTF-8" standalone="no"?>
<!DOCTYPE svg PUBLIC "-//W3C//DTD SVG 1.1//EN"
 "http://www.w3.org/Graphics/SVG/1.1/DTD/svg11.dtd">
<!-- Generated by graphviz version 3.0.0 (20221109.1736)
 -->
<!-- Title: denoptim.fragspace.FragmentSpaceUtils.recursiveCombiner Pages: 1 -->
<svg width="526pt" height="57pt"
 viewBox="0.00 0.00 526.00 57.00" xmlns="http://www.w3.org/2000/svg" xmlns:xlink="http://www.w3.org/1999/xlink">
<g id="graph0" class="graph" transform="scale(1 1) rotate(0) translate(4 53)">
<title>denoptim.fragspace.FragmentSpaceUtils.recursiveCombiner</title>
<polygon fill="white" stroke="transparent" points="-4,4 -4,-53 522,-53 522,4 -4,4"/>
<!-- Node1 -->
<g id="node1" class="node">
<title>Node1</title>
<g id="a_node1"><a xlink:title="Search for all possible combinations of compatible APs.">
<polygon fill="#bfbfbf" stroke="black" points="0,-0.5 0,-30.5 148,-30.5 148,-0.5 0,-0.5"/>
<text text-anchor="start" x="8" y="-18.5" font-family="Helvetica,sans-Serif" font-size="10.00">denoptim.fragspace.Fragment</text>
<text text-anchor="middle" x="74" y="-7.5" font-family="Helvetica,sans-Serif" font-size="10.00">SpaceUtils.recursiveCombiner</text>
</a>
</g>
</g>
<!-- Node1&#45;&gt;Node1 -->
<g id="edge3" class="edge">
<title>Node1&#45;&gt;Node1</title>
<path fill="none" stroke="midnightblue" d="M40.89,-30.66C32.9,-40.06 43.94,-49 74,-49 92.32,-49 103.57,-45.68 107.76,-40.96"/>
<polygon fill="midnightblue" stroke="midnightblue" points="111.23,-40.42 107.11,-30.66 104.25,-40.86 111.23,-40.42"/>
</g>
<!-- Node2 -->
<g id="node2" class="node">
<title>Node2</title>
<g id="a_node2"><a xlink:href="classdenoptim_1_1graph_1_1_a_p_mapping.html#a9b9fdac59130cd95e89edd7a74e2b7c5" target="_top" xlink:title="Shallow cloning.">
<polygon fill="white" stroke="black" points="184,-6 184,-25 345,-25 345,-6 184,-6"/>
<text text-anchor="middle" x="264.5" y="-13" font-family="Helvetica,sans-Serif" font-size="10.00">denoptim.graph.APMapping.clone</text>
</a>
</g>
</g>
<!-- Node1&#45;&gt;Node2 -->
<g id="edge1" class="edge">
<title>Node1&#45;&gt;Node2</title>
<path fill="none" stroke="midnightblue" d="M148.15,-15.5C156.55,-15.5 165.2,-15.5 173.79,-15.5"/>
<polygon fill="midnightblue" stroke="midnightblue" points="173.83,-19 183.83,-15.5 173.83,-12 173.83,-19"/>
</g>
<!-- Node3 -->
<g id="node3" class="node">
<title>Node3</title>
<g id="a_node3"><a xlink:href="classdenoptim_1_1graph_1_1_a_p_mapping.html#a32d3ef2e53f9b39cfeb5661d43b39592" target="_top" xlink:title="Creates a mapping that links no pair of APs.">
<polygon fill="white" stroke="black" points="381,-0.5 381,-30.5 518,-30.5 518,-0.5 381,-0.5"/>
<text text-anchor="start" x="389" y="-18.5" font-family="Helvetica,sans-Serif" font-size="10.00">denoptim.graph.APMapping.</text>
<text text-anchor="middle" x="449.5" y="-7.5" font-family="Helvetica,sans-Serif" font-size="10.00">APMapping</text>
</a>
</g>
</g>
<!-- Node2&#45;&gt;Node3 -->
<g id="edge2" class="edge">
<title>Node2&#45;&gt;Node3</title>
<path fill="none" stroke="midnightblue" d="M345.23,-15.5C353.66,-15.5 362.21,-15.5 370.62,-15.5"/>
<polygon fill="midnightblue" stroke="midnightblue" points="370.77,-19 380.77,-15.5 370.77,-12 370.77,-19"/>
</g>
</g>
</svg>
