<?xml version="1.0" encoding="UTF-8" standalone="no"?>
<!DOCTYPE svg PUBLIC "-//W3C//DTD SVG 1.1//EN"
 "http://www.w3.org/Graphics/SVG/1.1/DTD/svg11.dtd">
<!-- Generated by graphviz version 3.0.0 (20221109.1736)
 -->
<!-- Title: denoptim.io.DenoptimIO.writeGraphsToJSON Pages: 1 -->
<svg width="747pt" height="78pt"
 viewBox="0.00 0.00 747.00 77.50" xmlns="http://www.w3.org/2000/svg" xmlns:xlink="http://www.w3.org/1999/xlink">
<g id="graph0" class="graph" transform="scale(1 1) rotate(0) translate(4 73.5)">
<title>denoptim.io.DenoptimIO.writeGraphsToJSON</title>
<polygon fill="white" stroke="transparent" points="-4,4 -4,-73.5 743,-73.5 743,4 -4,4"/>
<!-- Node1 -->
<g id="node1" class="node">
<title>Node1</title>
<g id="a_node1"><a xlink:title="Writes the graphs to JSON file.">
<polygon fill="#bfbfbf" stroke="black" points="0,-17 0,-47 143,-47 143,-17 0,-17"/>
<text text-anchor="start" x="8" y="-35" font-family="Helvetica,sans-Serif" font-size="10.00">denoptim.io.DenoptimIO.write</text>
<text text-anchor="middle" x="71.5" y="-24" font-family="Helvetica,sans-Serif" font-size="10.00">GraphsToJSON</text>
</a>
</g>
</g>
<!-- Node2 -->
<g id="node2" class="node">
<title>Node2</title>
<g id="a_node2"><a xlink:href="classdenoptim_1_1json_1_1_d_e_n_o_p_t_i_mgson.html#aa8cbbc7dcd366e9f1053c4b2b676e0d7" target="_top" xlink:title=" ">
<polygon fill="white" stroke="black" points="179,-39 179,-69 346,-69 346,-39 179,-39"/>
<text text-anchor="start" x="187" y="-57" font-family="Helvetica,sans-Serif" font-size="10.00">denoptim.json.DENOPTIMgson.get</text>
<text text-anchor="middle" x="262.5" y="-46" font-family="Helvetica,sans-Serif" font-size="10.00">Writer</text>
</a>
</g>
</g>
<!-- Node1&#45;&gt;Node2 -->
<g id="edge1" class="edge">
<title>Node1&#45;&gt;Node2</title>
<path fill="none" stroke="midnightblue" d="M143.15,-40.22C151.51,-41.2 160.14,-42.2 168.75,-43.2"/>
<polygon fill="midnightblue" stroke="midnightblue" points="168.5,-46.7 178.84,-44.38 169.31,-39.75 168.5,-46.7"/>
</g>
<!-- Node5 -->
<g id="node5" class="node">
<title>Node5</title>
<g id="a_node5"><a xlink:href="classdenoptim_1_1io_1_1_denoptim_i_o.html#adc7de175de66792f4f37f1661c10e7f8" target="_top" xlink:title="Write text&#45;like data file.">
<polygon fill="white" stroke="black" points="180.5,-0.5 180.5,-19.5 344.5,-19.5 344.5,-0.5 180.5,-0.5"/>
<text text-anchor="middle" x="262.5" y="-7.5" font-family="Helvetica,sans-Serif" font-size="10.00">denoptim.io.DenoptimIO.writeData</text>
</a>
</g>
</g>
<!-- Node1&#45;&gt;Node5 -->
<g id="edge4" class="edge">
<title>Node1&#45;&gt;Node5</title>
<path fill="none" stroke="midnightblue" d="M143.15,-23.78C152.08,-22.74 161.31,-21.66 170.51,-20.59"/>
<polygon fill="midnightblue" stroke="midnightblue" points="170.92,-24.07 180.45,-19.43 170.11,-17.11 170.92,-24.07"/>
</g>
<!-- Node3 -->
<g id="node3" class="node">
<title>Node3</title>
<g id="a_node3"><a xlink:href="classdenoptim_1_1json_1_1_d_e_n_o_p_t_i_mgson.html#aa14de224ae5d1ae5156f11d5715d360c" target="_top" xlink:title=" ">
<polygon fill="white" stroke="black" points="382,-39 382,-69 549,-69 549,-39 382,-39"/>
<text text-anchor="start" x="390" y="-57" font-family="Helvetica,sans-Serif" font-size="10.00">denoptim.json.DENOPTIMgson.get</text>
<text text-anchor="middle" x="465.5" y="-46" font-family="Helvetica,sans-Serif" font-size="10.00">Instance</text>
</a>
</g>
</g>
<!-- Node2&#45;&gt;Node3 -->
<g id="edge2" class="edge">
<title>Node2&#45;&gt;Node3</title>
<path fill="none" stroke="midnightblue" d="M346.12,-54C354.61,-54 363.27,-54 371.85,-54"/>
<polygon fill="midnightblue" stroke="midnightblue" points="371.87,-57.5 381.87,-54 371.87,-50.5 371.87,-57.5"/>
</g>
<!-- Node4 -->
<g id="node4" class="node">
<title>Node4</title>
<g id="a_node4"><a xlink:href="classdenoptim_1_1json_1_1_d_e_n_o_p_t_i_mgson.html#a4aafec42bd09225870fdf330db93b84c" target="_top" xlink:title=" ">
<polygon fill="white" stroke="black" points="585,-39 585,-69 739,-69 739,-39 585,-39"/>
<text text-anchor="start" x="593" y="-57" font-family="Helvetica,sans-Serif" font-size="10.00">denoptim.json.DENOPTIMgson.</text>
<text text-anchor="middle" x="662" y="-46" font-family="Helvetica,sans-Serif" font-size="10.00">DENOPTIMgson</text>
</a>
</g>
</g>
<!-- Node3&#45;&gt;Node4 -->
<g id="edge3" class="edge">
<title>Node3&#45;&gt;Node4</title>
<path fill="none" stroke="midnightblue" d="M549.27,-54C557.65,-54 566.17,-54 574.59,-54"/>
<polygon fill="midnightblue" stroke="midnightblue" points="574.79,-57.5 584.79,-54 574.79,-50.5 574.79,-57.5"/>
</g>
</g>
</svg>
