<?xml version="1.0" encoding="UTF-8" standalone="no"?>
<!DOCTYPE svg PUBLIC "-//W3C//DTD SVG 1.1//EN"
 "http://www.w3.org/Graphics/SVG/1.1/DTD/svg11.dtd">
<!-- Generated by graphviz version 3.0.0 (20221109.1736)
 -->
<!-- Title: denoptim.fragmenter.TopoTemplateProducer.TopoTemplateProducer Pages: 1 -->
<svg width="713pt" height="88pt"
 viewBox="0.00 0.00 713.00 88.00" xmlns="http://www.w3.org/2000/svg" xmlns:xlink="http://www.w3.org/1999/xlink">
<g id="graph0" class="graph" transform="scale(1 1) rotate(0) translate(4 84)">
<title>denoptim.fragmenter.TopoTemplateProducer.TopoTemplateProducer</title>
<polygon fill="white" stroke="transparent" points="-4,4 -4,-84 709,-84 709,4 -4,4"/>
<!-- Node1 -->
<g id="node1" class="node">
<title>Node1</title>
<g id="a_node1"><a xlink:title="Constructor.">
<polygon fill="#bfbfbf" stroke="black" points="0,-19 0,-60 161,-60 161,-19 0,-19"/>
<text text-anchor="start" x="8" y="-48" font-family="Helvetica,sans-Serif" font-size="10.00">denoptim.fragmenter.Topo</text>
<text text-anchor="start" x="8" y="-37" font-family="Helvetica,sans-Serif" font-size="10.00">TemplateProducer.TopoTemplate</text>
<text text-anchor="middle" x="80.5" y="-26" font-family="Helvetica,sans-Serif" font-size="10.00">Producer</text>
</a>
</g>
</g>
<!-- Node2 -->
<g id="node2" class="node">
<title>Node2</title>
<g id="a_node2"><a xlink:href="classdenoptim_1_1fragmenter_1_1_topo_template_producer.html#a6f3c923d504d0e15ae6a607fa49ce995" target="_top" xlink:title=" ">
<polygon fill="white" stroke="black" points="197,-24.5 197,-54.5 330,-54.5 330,-24.5 197,-24.5"/>
<text text-anchor="start" x="205" y="-42.5" font-family="Helvetica,sans-Serif" font-size="10.00">denoptim.fragmenter.Topo</text>
<text text-anchor="middle" x="263.5" y="-31.5" font-family="Helvetica,sans-Serif" font-size="10.00">TemplateProducer.initialize</text>
</a>
</g>
</g>
<!-- Node1&#45;&gt;Node2 -->
<g id="edge1" class="edge">
<title>Node1&#45;&gt;Node2</title>
<path fill="none" stroke="midnightblue" d="M161.15,-39.5C169.65,-39.5 178.27,-39.5 186.72,-39.5"/>
<polygon fill="midnightblue" stroke="midnightblue" points="186.92,-43 196.92,-39.5 186.92,-36 186.92,-43"/>
</g>
<!-- Node3 -->
<g id="node3" class="node">
<title>Node3</title>
<g id="a_node3"><a xlink:href="classdenoptim_1_1utils_1_1_molecule_utils.html#ac6be8c4af5dd51783eae0899abba91ff" target="_top" xlink:title="Finds the shortest path between two atoms in a molecule using BFS.">
<polygon fill="white" stroke="black" points="366,-49.5 366,-79.5 521,-79.5 521,-49.5 366,-49.5"/>
<text text-anchor="start" x="374" y="-67.5" font-family="Helvetica,sans-Serif" font-size="10.00">denoptim.utils.MoleculeUtils.find</text>
<text text-anchor="middle" x="443.5" y="-56.5" font-family="Helvetica,sans-Serif" font-size="10.00">ShortestPath</text>
</a>
</g>
</g>
<!-- Node2&#45;&gt;Node3 -->
<g id="edge2" class="edge">
<title>Node2&#45;&gt;Node3</title>
<path fill="none" stroke="midnightblue" d="M330.02,-48.7C338.43,-49.88 347.14,-51.11 355.82,-52.33"/>
<polygon fill="midnightblue" stroke="midnightblue" points="355.58,-55.83 365.97,-53.75 356.56,-48.89 355.58,-55.83"/>
</g>
<!-- Node4 -->
<g id="node4" class="node">
<title>Node4</title>
<g id="a_node4"><a xlink:href="classdenoptim_1_1utils_1_1_molecule_utils.html#a8bca186632882f9399b9511020a43211" target="_top" xlink:title="Gets either the elemental symbol (for standard atoms) of the label (for pseudo&#45;atoms).">
<polygon fill="white" stroke="black" points="366.5,-0.5 366.5,-30.5 520.5,-30.5 520.5,-0.5 366.5,-0.5"/>
<text text-anchor="start" x="374.5" y="-18.5" font-family="Helvetica,sans-Serif" font-size="10.00">denoptim.utils.MoleculeUtils.get</text>
<text text-anchor="middle" x="443.5" y="-7.5" font-family="Helvetica,sans-Serif" font-size="10.00">SymbolOrLabel</text>
</a>
</g>
</g>
<!-- Node2&#45;&gt;Node4 -->
<g id="edge3" class="edge">
<title>Node2&#45;&gt;Node4</title>
<path fill="none" stroke="midnightblue" d="M330.02,-30.67C338.59,-29.51 347.48,-28.31 356.32,-27.12"/>
<polygon fill="midnightblue" stroke="midnightblue" points="356.83,-30.58 366.28,-25.78 355.9,-23.65 356.83,-30.58"/>
</g>
<!-- Node5 -->
<g id="node5" class="node">
<title>Node5</title>
<g id="a_node5"><a xlink:href="classdenoptim_1_1utils_1_1_molecule_utils.html#af975649c8225c4653efb1135d8360c2d" target="_top" xlink:title="Check element symbol corresponds to real element of Periodic Table.">
<polygon fill="white" stroke="black" points="557,-0.5 557,-30.5 705,-30.5 705,-0.5 557,-0.5"/>
<text text-anchor="start" x="565" y="-18.5" font-family="Helvetica,sans-Serif" font-size="10.00">denoptim.utils.MoleculeUtils.is</text>
<text text-anchor="middle" x="631" y="-7.5" font-family="Helvetica,sans-Serif" font-size="10.00">Element</text>
</a>
</g>
</g>
<!-- Node4&#45;&gt;Node5 -->
<g id="edge4" class="edge">
<title>Node4&#45;&gt;Node5</title>
<path fill="none" stroke="midnightblue" d="M520.75,-15.5C529.3,-15.5 538.04,-15.5 546.67,-15.5"/>
<polygon fill="midnightblue" stroke="midnightblue" points="546.73,-19 556.73,-15.5 546.73,-12 546.73,-19"/>
</g>
<!-- Node5&#45;&gt;Node5 -->
<g id="edge5" class="edge">
<title>Node5&#45;&gt;Node5</title>
<path fill="none" stroke="midnightblue" d="M598.59,-30.66C590.77,-40.06 601.57,-49 631,-49 648.93,-49 659.95,-45.68 664.05,-40.96"/>
<polygon fill="midnightblue" stroke="midnightblue" points="667.52,-40.42 663.41,-30.66 660.54,-40.86 667.52,-40.42"/>
</g>
</g>
</svg>
