<?xml version="1.0" encoding="UTF-8" standalone="no"?>
<!DOCTYPE svg PUBLIC "-//W3C//DTD SVG 1.1//EN"
 "http://www.w3.org/Graphics/SVG/1.1/DTD/svg11.dtd">
<!-- Generated by graphviz version 3.0.0 (20221109.1736)
 -->
<!-- Title: denoptim.programs.fitnessevaluator.FitnessRunner.handleThrowable Pages: 1 -->
<svg width="596pt" height="39pt"
 viewBox="0.00 0.00 596.00 39.00" xmlns="http://www.w3.org/2000/svg" xmlns:xlink="http://www.w3.org/1999/xlink">
<g id="graph0" class="graph" transform="scale(1 1) rotate(0) translate(4 35)">
<title>denoptim.programs.fitnessevaluator.FitnessRunner.handleThrowable</title>
<polygon fill="white" stroke="transparent" points="-4,4 -4,-35 592,-35 592,4 -4,4"/>
<!-- Node1 -->
<g id="node1" class="node">
<title>Node1</title>
<g id="a_node1"><a xlink:title="Method to handle any Throwable originated from the runProgram() method.">
<polygon fill="#bfbfbf" stroke="black" points="0,-0.5 0,-30.5 172,-30.5 172,-0.5 0,-0.5"/>
<text text-anchor="start" x="8" y="-18.5" font-family="Helvetica,sans-Serif" font-size="10.00">denoptim.programs.fitnessevaluator.</text>
<text text-anchor="middle" x="86" y="-7.5" font-family="Helvetica,sans-Serif" font-size="10.00">FitnessRunner.handleThrowable</text>
</a>
</g>
</g>
<!-- Node2 -->
<g id="node2" class="node">
<title>Node2</title>
<g id="a_node2"><a xlink:href="classdenoptim_1_1programs_1_1fitnessevaluator_1_1_f_p_runner.html#ac75c866228ee066fdfb7ecf6d35b5c30" target="_top" xlink:title="Stops all subtasks and shutdown executor.">
<polygon fill="white" stroke="black" points="208,-0.5 208,-30.5 380,-30.5 380,-0.5 208,-0.5"/>
<text text-anchor="start" x="216" y="-18.5" font-family="Helvetica,sans-Serif" font-size="10.00">denoptim.programs.fitnessevaluator.</text>
<text text-anchor="middle" x="294" y="-7.5" font-family="Helvetica,sans-Serif" font-size="10.00">FPRunner.stopRun</text>
</a>
</g>
</g>
<!-- Node1&#45;&gt;Node2 -->
<g id="edge1" class="edge">
<title>Node1&#45;&gt;Node2</title>
<path fill="none" stroke="midnightblue" d="M172.28,-15.5C180.62,-15.5 189.12,-15.5 197.55,-15.5"/>
<polygon fill="midnightblue" stroke="midnightblue" points="197.79,-19 207.79,-15.5 197.79,-12 197.79,-19"/>
</g>
<!-- Node3 -->
<g id="node3" class="node">
<title>Node3</title>
<g id="a_node3"><a xlink:href="classdenoptim_1_1programs_1_1fitnessevaluator_1_1_f_p_runner.html#a0f302f505dfa91115b098f94ea44d9cf" target="_top" xlink:title="clean all reference to submitted tasks">
<polygon fill="white" stroke="black" points="416,-0.5 416,-30.5 588,-30.5 588,-0.5 416,-0.5"/>
<text text-anchor="start" x="424" y="-18.5" font-family="Helvetica,sans-Serif" font-size="10.00">denoptim.programs.fitnessevaluator.</text>
<text text-anchor="middle" x="502" y="-7.5" font-family="Helvetica,sans-Serif" font-size="10.00">FPRunner.cleanup</text>
</a>
</g>
</g>
<!-- Node2&#45;&gt;Node3 -->
<g id="edge2" class="edge">
<title>Node2&#45;&gt;Node3</title>
<path fill="none" stroke="midnightblue" d="M380.28,-15.5C388.62,-15.5 397.12,-15.5 405.55,-15.5"/>
<polygon fill="midnightblue" stroke="midnightblue" points="405.79,-19 415.79,-15.5 405.79,-12 405.79,-19"/>
</g>
</g>
</svg>
