<?xml version="1.0" encoding="UTF-8" standalone="no"?>
<!DOCTYPE svg PUBLIC "-//W3C//DTD SVG 1.1//EN"
 "http://www.w3.org/Graphics/SVG/1.1/DTD/svg11.dtd">
<!-- Generated by graphviz version 3.0.0 (20221109.1736)
 -->
<!-- Title: denoptim.graph.DGraph.toString Pages: 1 -->
<svg width="593pt" height="295pt"
 viewBox="0.00 0.00 593.00 294.50" xmlns="http://www.w3.org/2000/svg" xmlns:xlink="http://www.w3.org/1999/xlink">
<g id="graph0" class="graph" transform="scale(1 1) rotate(0) translate(4 290.5)">
<title>denoptim.graph.DGraph.toString</title>
<polygon fill="white" stroke="transparent" points="-4,4 -4,-290.5 589,-290.5 589,4 -4,4"/>
<!-- Node1 -->
<g id="node1" class="node">
<title>Node1</title>
<g id="a_node1"><a xlink:title=" ">
<polygon fill="#bfbfbf" stroke="black" points="457,-122.5 457,-152.5 585,-152.5 585,-122.5 457,-122.5"/>
<text text-anchor="start" x="465" y="-140.5" font-family="Helvetica,sans-Serif" font-size="10.00">denoptim.graph.DGraph.to</text>
<text text-anchor="middle" x="521" y="-129.5" font-family="Helvetica,sans-Serif" font-size="10.00">String</text>
</a>
</g>
</g>
<!-- Node2 -->
<g id="node2" class="node">
<title>Node2</title>
<g id="a_node2"><a xlink:href="classdenoptim_1_1molecularmodeling_1_1_multi_molecular_model_builder.html#a6a8e314f3fb37f66c32c8c4d5695b8a4" target="_top" xlink:title="Given the graph representation of the molecular constitution, along with the 3D coordinates of the fr...">
<polygon fill="white" stroke="black" points="252.5,-245 252.5,-286 410.5,-286 410.5,-245 252.5,-245"/>
<text text-anchor="start" x="260.5" y="-274" font-family="Helvetica,sans-Serif" font-size="10.00">denoptim.molecularmodeling.</text>
<text text-anchor="start" x="260.5" y="-263" font-family="Helvetica,sans-Serif" font-size="10.00">MultiMolecularModelBuilder.build</text>
<text text-anchor="middle" x="331.5" y="-252" font-family="Helvetica,sans-Serif" font-size="10.00">Multi3DStructure</text>
</a>
</g>
</g>
<!-- Node1&#45;&gt;Node2 -->
<g id="edge1" class="edge">
<title>Node1&#45;&gt;Node2</title>
<path fill="none" stroke="midnightblue" d="M502.22,-160.77C484.04,-183.09 453.87,-216.3 421,-236.5 416.04,-239.55 410.73,-242.31 405.25,-244.81"/>
<polygon fill="midnightblue" stroke="midnightblue" points="505.08,-162.8 508.58,-152.8 499.61,-158.43 505.08,-162.8"/>
</g>
<!-- Node4 -->
<g id="node4" class="node">
<title>Node4</title>
<g id="a_node4"><a xlink:href="classdenoptim_1_1ga_1_1_offspring_evaluation_task.html#aab5b9c0b8a88922460f5c28ae161d1fa" target="_top" xlink:title=" ">
<polygon fill="white" stroke="black" points="254,-196.5 254,-226.5 409,-226.5 409,-196.5 254,-196.5"/>
<text text-anchor="start" x="262" y="-214.5" font-family="Helvetica,sans-Serif" font-size="10.00">denoptim.ga.OffspringEvaluation</text>
<text text-anchor="middle" x="331.5" y="-203.5" font-family="Helvetica,sans-Serif" font-size="10.00">Task.call</text>
</a>
</g>
</g>
<!-- Node1&#45;&gt;Node4 -->
<g id="edge3" class="edge">
<title>Node1&#45;&gt;Node4</title>
<path fill="none" stroke="midnightblue" d="M484.81,-157.47C466.24,-167.44 442.84,-179.12 421,-187.5 412.53,-190.75 403.44,-193.74 394.43,-196.43"/>
<polygon fill="midnightblue" stroke="midnightblue" points="486.67,-160.45 493.78,-152.59 483.32,-154.3 486.67,-160.45"/>
</g>
<!-- Node5 -->
<g id="node5" class="node">
<title>Node5</title>
<g id="a_node5"><a xlink:href="classdenoptim_1_1graph_1_1_d_graph.html#ac1e5c9703afc6f29fe11cca08ddb1a1c" target="_top" xlink:title="Peeks into this graph to derive a preliminary chemical representation with SMILES and InChIKey.">
<polygon fill="white" stroke="black" points="258.5,-147.5 258.5,-177.5 404.5,-177.5 404.5,-147.5 258.5,-147.5"/>
<text text-anchor="start" x="266.5" y="-165.5" font-family="Helvetica,sans-Serif" font-size="10.00">denoptim.graph.DGraph.check</text>
<text text-anchor="middle" x="331.5" y="-154.5" font-family="Helvetica,sans-Serif" font-size="10.00">Consistency</text>
</a>
</g>
</g>
<!-- Node1&#45;&gt;Node5 -->
<g id="edge4" class="edge">
<title>Node1&#45;&gt;Node5</title>
<path fill="none" stroke="midnightblue" d="M446.85,-147.25C433.04,-149.09 418.6,-151.02 404.82,-152.86"/>
<polygon fill="midnightblue" stroke="midnightblue" points="447.33,-150.72 456.78,-145.93 446.41,-143.78 447.33,-150.72"/>
</g>
<!-- Node6 -->
<g id="node6" class="node">
<title>Node6</title>
<g id="a_node6"><a xlink:href="classdenoptim_1_1graph_1_1_candidate.html#ace97fc2021ebb11463e062dddbec6aac" target="_top" xlink:title="Returns an atom container representing this item in a way that is compatible for writing this item to...">
<polygon fill="white" stroke="black" points="242,-98.5 242,-128.5 421,-128.5 421,-98.5 242,-98.5"/>
<text text-anchor="start" x="250" y="-116.5" font-family="Helvetica,sans-Serif" font-size="10.00">denoptim.graph.Candidate.get</text>
<text text-anchor="middle" x="331.5" y="-105.5" font-family="Helvetica,sans-Serif" font-size="10.00">FitnessProviderOutputRepresentation</text>
</a>
</g>
</g>
<!-- Node1&#45;&gt;Node6 -->
<g id="edge5" class="edge">
<title>Node1&#45;&gt;Node6</title>
<path fill="none" stroke="midnightblue" d="M446.67,-128.11C438.28,-127.04 429.65,-125.93 421.08,-124.84"/>
<polygon fill="midnightblue" stroke="midnightblue" points="446.42,-131.61 456.78,-129.41 447.31,-124.67 446.42,-131.61"/>
</g>
<!-- Node7 -->
<g id="node7" class="node">
<title>Node7</title>
<g id="a_node7"><a xlink:href="classdenoptim_1_1programs_1_1genetweeker_1_1_gene_ops_runner.html#adb60b4cb2cda6a912a831974c5303df4" target="_top" xlink:title=" ">
<polygon fill="white" stroke="black" points="252,-49.5 252,-79.5 411,-79.5 411,-49.5 252,-49.5"/>
<text text-anchor="start" x="260" y="-67.5" font-family="Helvetica,sans-Serif" font-size="10.00">denoptim.programs.genetweeker.</text>
<text text-anchor="middle" x="331.5" y="-56.5" font-family="Helvetica,sans-Serif" font-size="10.00">GeneOpsRunner.runMutation</text>
</a>
</g>
</g>
<!-- Node1&#45;&gt;Node7 -->
<g id="edge6" class="edge">
<title>Node1&#45;&gt;Node7</title>
<path fill="none" stroke="midnightblue" d="M483.5,-117.89C465.1,-108.5 442.23,-97.57 421,-89.5 411.6,-85.92 401.46,-82.6 391.53,-79.61"/>
<polygon fill="midnightblue" stroke="midnightblue" points="481.93,-121.02 492.42,-122.5 485.14,-114.8 481.93,-121.02"/>
</g>
<!-- Node9 -->
<g id="node9" class="node">
<title>Node9</title>
<g id="a_node9"><a xlink:href="classdenoptim_1_1programs_1_1graphlisthandler_1_1_graph_lists_handler.html#a82e75728262a789cc27189d910b5c74a" target="_top" xlink:title=" ">
<polygon fill="white" stroke="black" points="245.5,-0.5 245.5,-30.5 417.5,-30.5 417.5,-0.5 245.5,-0.5"/>
<text text-anchor="start" x="253.5" y="-18.5" font-family="Helvetica,sans-Serif" font-size="10.00">denoptim.programs.graphlisthandler.</text>
<text text-anchor="middle" x="331.5" y="-7.5" font-family="Helvetica,sans-Serif" font-size="10.00">GraphListsHandler.runProgram</text>
</a>
</g>
</g>
<!-- Node1&#45;&gt;Node9 -->
<g id="edge8" class="edge">
<title>Node1&#45;&gt;Node9</title>
<path fill="none" stroke="midnightblue" d="M502.29,-114.42C484.17,-92.34 454.04,-59.65 421,-40.5 414.37,-36.66 407.11,-33.38 399.7,-30.58"/>
<polygon fill="midnightblue" stroke="midnightblue" points="499.64,-116.71 508.63,-122.31 505.1,-112.33 499.64,-116.71"/>
</g>
<!-- Node3 -->
<g id="node3" class="node">
<title>Node3</title>
<g id="a_node3"><a xlink:href="classdenoptim_1_1programs_1_1moldecularmodelbuilder_1_1_molecular_model_builder.html#ad2e44290de6a861274def677044e9754" target="_top" xlink:title=" ">
<polygon fill="white" stroke="black" points="0,-250.5 0,-280.5 206,-280.5 206,-250.5 0,-250.5"/>
<text text-anchor="start" x="8" y="-268.5" font-family="Helvetica,sans-Serif" font-size="10.00">denoptim.programs.moldecularmodelbuilder.</text>
<text text-anchor="middle" x="103" y="-257.5" font-family="Helvetica,sans-Serif" font-size="10.00">MolecularModelBuilder.runProgram</text>
</a>
</g>
</g>
<!-- Node2&#45;&gt;Node3 -->
<g id="edge2" class="edge">
<title>Node2&#45;&gt;Node3</title>
<path fill="none" stroke="midnightblue" d="M242.03,-265.5C230.29,-265.5 218.18,-265.5 206.24,-265.5"/>
<polygon fill="midnightblue" stroke="midnightblue" points="242.23,-269 252.23,-265.5 242.23,-262 242.23,-269"/>
</g>
<!-- Node8 -->
<g id="node8" class="node">
<title>Node8</title>
<g id="a_node8"><a xlink:href="classdenoptim_1_1programs_1_1genetweeker_1_1_gene_ops_runner.html#a3c2407eb1204a7b25600d3d347d98447" target="_top" xlink:title=" ">
<polygon fill="white" stroke="black" points="23.5,-49.5 23.5,-79.5 182.5,-79.5 182.5,-49.5 23.5,-49.5"/>
<text text-anchor="start" x="31.5" y="-67.5" font-family="Helvetica,sans-Serif" font-size="10.00">denoptim.programs.genetweeker.</text>
<text text-anchor="middle" x="103" y="-56.5" font-family="Helvetica,sans-Serif" font-size="10.00">GeneOpsRunner.runProgram</text>
</a>
</g>
</g>
<!-- Node7&#45;&gt;Node8 -->
<g id="edge7" class="edge">
<title>Node7&#45;&gt;Node8</title>
<path fill="none" stroke="midnightblue" d="M241.84,-64.5C222.37,-64.5 201.88,-64.5 182.83,-64.5"/>
<polygon fill="midnightblue" stroke="midnightblue" points="241.92,-68 251.92,-64.5 241.92,-61 241.92,-68"/>
</g>
</g>
</svg>
