<?xml version="1.0" encoding="UTF-8" standalone="no"?>
<!DOCTYPE svg PUBLIC "-//W3C//DTD SVG 1.1//EN"
 "http://www.w3.org/Graphics/SVG/1.1/DTD/svg11.dtd">
<!-- Generated by graphviz version 3.0.0 (20221109.1736)
 -->
<!-- Title: denoptim.combinatorial.CEBLUtils.getNameOfStorageDir Pages: 1 -->
<!--zoomable 167 -->
<svg id="main" version="1.1" xmlns="http://www.w3.org/2000/svg" xmlns:xlink="http://www.w3.org/1999/xlink" xml:space="preserve" onload="init(evt)">
<style type="text/css"><![CDATA[
.edge:hover path { stroke: red; }
.edge:hover polygon { stroke: red; fill: red; }
]]></style>
<script type="text/javascript"><![CDATA[
var edges = document.getElementsByTagName('g');
if (edges && edges.length) {
  for (var i=0;i<edges.length;i++) {
    if (edges[i].id.substr(0,4)=='edge') {
      edges[i].setAttribute('class','edge');
    }
  }
}
]]></script>
        <defs>
                <circle id="rim" cx="0" cy="0" r="7"/>
                <circle id="rim2" cx="0" cy="0" r="3.5"/>
                <g id="zoomPlus">
                        <use xlink:href="#rim" fill="#404040">
                                <set attributeName="fill" to="#808080" begin="zoomplus.mouseover" end="zoomplus.mouseout"/>
                        </use>
                        <path d="M-4,0h8M0,-4v8" fill="none" stroke="white" stroke-width="1.5" pointer-events="none"/>
                </g>
                <g id="zoomMin">
                        <use xlink:href="#rim" fill="#404040">
                                <set attributeName="fill" to="#808080" begin="zoomminus.mouseover" end="zoomminus.mouseout"/>
                        </use>
                        <path d="M-4,0h8" fill="none" stroke="white" stroke-width="1.5" pointer-events="none"/>
                </g>
                <g id="dirArrow">
                        <path fill="none" stroke="white" stroke-width="1.5" d="M0,-3.0v7 M-2.5,-0.5L0,-3.0L2.5,-0.5"/>
                </g>
               <g id="resetDef">
                       <use xlink:href="#rim2" fill="#404040">
                               <set attributeName="fill" to="#808080" begin="reset.mouseover" end="reset.mouseout"/>
                       </use>
               </g>
        </defs>

<script type="text/javascript">
var viewWidth = 1292;
var viewHeight = 167;
var sectionId = 'dynsection-4';
</script>
<script xlink:href="svgpan.js"/>
<svg id="graph" class="graph">
<g id="viewport">
<title>denoptim.combinatorial.CEBLUtils.getNameOfStorageDir</title>
<polygon fill="white" stroke="transparent" points="-4,4 -4,-162.65 1288,-162.65 1288,4 -4,4"/>
<!-- Node1 -->
<g id="node1" class="node">
<title>Node1</title>
<g id="a_node1"><a xlink:title=" ">
<polygon fill="#bfbfbf" stroke="black" points="1104,-51.65 1104,-81.65 1284,-81.65 1284,-51.65 1104,-51.65"/>
<text text-anchor="start" x="1112" y="-69.65" font-family="Helvetica,sans-Serif" font-size="10.00">denoptim.combinatorial.CEBLUtils.get</text>
<text text-anchor="middle" x="1194" y="-58.65" font-family="Helvetica,sans-Serif" font-size="10.00">NameOfStorageDir</text>
</a>
</g>
</g>
<!-- Node2 -->
<g id="node2" class="node">
<title>Node2</title>
<g id="a_node2"><a xlink:href="classdenoptim_1_1combinatorial_1_1_combinatorial_explorer_by_layer.html#adcd462866e3f9d6a2a6ef0385807807e" target="_top" xlink:title="Generate graphs by exploring all combination of fragments at a given level of a growing graph.">
<polygon fill="white" stroke="black" points="432,-66.15 432,-107.15 620,-107.15 620,-66.15 432,-66.15"/>
<text text-anchor="start" x="440" y="-95.15" font-family="Helvetica,sans-Serif" font-size="10.00">denoptim.combinatorial.Combinatorial</text>
<text text-anchor="start" x="440" y="-84.15" font-family="Helvetica,sans-Serif" font-size="10.00">ExplorerByLayer.exploreCombinationsAt</text>
<text text-anchor="middle" x="526" y="-73.15" font-family="Helvetica,sans-Serif" font-size="10.00">GivenLevel</text>
</a>
</g>
</g>
<!-- Node1&#45;&gt;Node2 -->
<g id="edge1" class="edge">
<title>Node1&#45;&gt;Node2</title>
<path fill="none" stroke="midnightblue" d="M1134.51,-48.76C1034.78,-21.01 826.1,24.98 656,-17.65 618.8,-26.98 580.6,-49.31 555.53,-66.06"/>
<polygon fill="midnightblue" stroke="midnightblue" points="1133.82,-52.2 1144.39,-51.55 1135.72,-45.46 1133.82,-52.2"/>
</g>
<!-- Node3 -->
<g id="node3" class="node">
<title>Node3</title>
<g id="a_node3"><a xlink:href="classdenoptim_1_1combinatorial_1_1_combinatorial_explorer_by_layer.html#af9327fa81f9e2a617cdff353848ad6e1" target="_top" xlink:title="Run the combinatorial exploration.">
<polygon fill="white" stroke="black" points="218,-95.65 218,-125.65 396,-125.65 396,-95.65 218,-95.65"/>
<text text-anchor="start" x="226" y="-113.65" font-family="Helvetica,sans-Serif" font-size="10.00">denoptim.combinatorial.Combinatorial</text>
<text text-anchor="middle" x="307" y="-102.65" font-family="Helvetica,sans-Serif" font-size="10.00">ExplorerByLayer.run</text>
</a>
</g>
</g>
<!-- Node1&#45;&gt;Node3 -->
<g id="edge5" class="edge">
<title>Node1&#45;&gt;Node3</title>
<path fill="none" stroke="midnightblue" d="M1113.62,-83.6C1098.51,-86.52 1082.8,-89.35 1068,-91.65 788.47,-135.12 714.8,-123.49 432,-116.65 420.36,-116.37 408.12,-115.94 396.04,-115.44"/>
<polygon fill="midnightblue" stroke="midnightblue" points="1114.3,-87.03 1123.44,-81.67 1112.95,-80.16 1114.3,-87.03"/>
</g>
<!-- Node6 -->
<g id="node6" class="node">
<title>Node6</title>
<g id="a_node6"><a xlink:href="classdenoptim_1_1combinatorial_1_1_c_e_b_l_utils.html#ad12e9fc00e6e4286f4b3320591053f30" target="_top" xlink:title="Serialize a DENOPTIMGraph to a file.">
<polygon fill="white" stroke="black" points="880,-51.65 880,-81.65 1068,-81.65 1068,-51.65 880,-51.65"/>
<text text-anchor="start" x="888" y="-69.65" font-family="Helvetica,sans-Serif" font-size="10.00">denoptim.combinatorial.CEBLUtils.store</text>
<text text-anchor="middle" x="974" y="-58.65" font-family="Helvetica,sans-Serif" font-size="10.00">GraphOfLevel</text>
</a>
</g>
</g>
<!-- Node1&#45;&gt;Node6 -->
<g id="edge6" class="edge">
<title>Node1&#45;&gt;Node6</title>
<path fill="none" stroke="midnightblue" d="M1093.44,-66.65C1084.98,-66.65 1076.45,-66.65 1068.05,-66.65"/>
<polygon fill="midnightblue" stroke="midnightblue" points="1093.7,-70.15 1103.7,-66.65 1093.7,-63.15 1093.7,-70.15"/>
</g>
<!-- Node2&#45;&gt;Node3 -->
<g id="edge2" class="edge">
<title>Node2&#45;&gt;Node3</title>
<path fill="none" stroke="midnightblue" d="M421.68,-98.08C413.11,-99.03 404.5,-99.98 396.06,-100.91"/>
<polygon fill="midnightblue" stroke="midnightblue" points="422.16,-101.55 431.71,-96.97 421.39,-94.59 422.16,-101.55"/>
</g>
<!-- Node4 -->
<g id="node4" class="node">
<title>Node4</title>
<g id="a_node4"><a xlink:href="classdenoptim_1_1combinatorial_1_1_combinatorial_explorer_by_layer.html#a8f359a45038dc604a5e437d63a35e1a2" target="_top" xlink:title="Constructor.">
<polygon fill="white" stroke="black" points="0,-117.15 0,-158.15 182,-158.15 182,-117.15 0,-117.15"/>
<text text-anchor="start" x="8" y="-146.15" font-family="Helvetica,sans-Serif" font-size="10.00">denoptim.combinatorial.Combinatorial</text>
<text text-anchor="start" x="8" y="-135.15" font-family="Helvetica,sans-Serif" font-size="10.00">ExplorerByLayer.CombinatorialExplorer</text>
<text text-anchor="middle" x="91" y="-124.15" font-family="Helvetica,sans-Serif" font-size="10.00">ByLayer</text>
</a>
</g>
</g>
<!-- Node3&#45;&gt;Node4 -->
<g id="edge3" class="edge">
<title>Node3&#45;&gt;Node4</title>
<path fill="none" stroke="midnightblue" d="M207.75,-123.05C199.22,-124.13 190.61,-125.21 182.15,-126.28"/>
<polygon fill="midnightblue" stroke="midnightblue" points="208.24,-126.52 217.72,-121.79 207.36,-119.57 208.24,-126.52"/>
</g>
<!-- Node5 -->
<g id="node5" class="node">
<title>Node5</title>
<g id="a_node5"><a xlink:href="classdenoptim_1_1programs_1_1combinatorial_1_1_frag_space_explorer.html#a1c6a2aae9ab686d5c7c0fc6246f7aa61" target="_top" xlink:title=" ">
<polygon fill="white" stroke="black" points="10.5,-68.65 10.5,-98.65 171.5,-98.65 171.5,-68.65 10.5,-68.65"/>
<text text-anchor="start" x="18.5" y="-86.65" font-family="Helvetica,sans-Serif" font-size="10.00">denoptim.programs.combinatorial.</text>
<text text-anchor="middle" x="91" y="-75.65" font-family="Helvetica,sans-Serif" font-size="10.00">FragSpaceExplorer.runProgram</text>
</a>
</g>
</g>
<!-- Node3&#45;&gt;Node5 -->
<g id="edge4" class="edge">
<title>Node3&#45;&gt;Node5</title>
<path fill="none" stroke="midnightblue" d="M207.61,-98.24C195.52,-96.71 183.27,-95.17 171.51,-93.68"/>
<polygon fill="midnightblue" stroke="midnightblue" points="207.36,-101.74 217.72,-99.52 208.24,-94.79 207.36,-101.74"/>
</g>
<!-- Node7 -->
<g id="node7" class="node">
<title>Node7</title>
<g id="a_node7"><a xlink:href="classdenoptim_1_1combinatorial_1_1_graph_building_task.html#a3eaee724fc921194fa158714aafe182d" target="_top" xlink:title="Calls the task.">
<polygon fill="white" stroke="black" points="677.5,-27.65 677.5,-57.65 822.5,-57.65 822.5,-27.65 677.5,-27.65"/>
<text text-anchor="start" x="685.5" y="-45.65" font-family="Helvetica,sans-Serif" font-size="10.00">denoptim.combinatorial.Graph</text>
<text text-anchor="middle" x="750" y="-34.65" font-family="Helvetica,sans-Serif" font-size="10.00">BuildingTask.call</text>
</a>
</g>
</g>
<!-- Node6&#45;&gt;Node7 -->
<g id="edge7" class="edge">
<title>Node6&#45;&gt;Node7</title>
<path fill="none" stroke="midnightblue" d="M869.46,-55.46C853.64,-53.75 837.61,-52.02 822.68,-50.4"/>
<polygon fill="midnightblue" stroke="midnightblue" points="869.5,-58.98 879.82,-56.58 870.25,-52.02 869.5,-58.98"/>
</g>
<!-- Node8 -->
<g id="node8" class="node">
<title>Node8</title>
<g id="a_node8"><a xlink:href="classdenoptim_1_1combinatorial_1_1_c_e_b_l_utils.html#a78098828adbf6277a04188e6f82f39cf" target="_top" xlink:title="Serialize all DENOPTIMGraphs to file.">
<polygon fill="white" stroke="black" points="656,-76.65 656,-106.65 844,-106.65 844,-76.65 656,-76.65"/>
<text text-anchor="start" x="664" y="-94.65" font-family="Helvetica,sans-Serif" font-size="10.00">denoptim.combinatorial.CEBLUtils.store</text>
<text text-anchor="middle" x="750" y="-83.65" font-family="Helvetica,sans-Serif" font-size="10.00">AllGraphsOfLevel</text>
</a>
</g>
</g>
<!-- Node6&#45;&gt;Node8 -->
<g id="edge8" class="edge">
<title>Node6&#45;&gt;Node8</title>
<path fill="none" stroke="midnightblue" d="M869.85,-78.27C861.33,-79.23 852.74,-80.2 844.3,-81.15"/>
<polygon fill="midnightblue" stroke="midnightblue" points="870.27,-81.74 879.82,-77.15 869.49,-74.79 870.27,-81.74"/>
</g>
<!-- Node8&#45;&gt;Node2 -->
<g id="edge9" class="edge">
<title>Node8&#45;&gt;Node2</title>
<path fill="none" stroke="midnightblue" d="M645.57,-89.32C637.14,-89.13 628.65,-88.94 620.3,-88.75"/>
<polygon fill="midnightblue" stroke="midnightblue" points="645.74,-92.83 655.82,-89.55 645.9,-85.83 645.74,-92.83"/>
</g>
</g>
</svg>
        <g id="navigator" transform="translate(0 0)" fill="#404254">
                <rect fill="#f2f5e9" fill-opacity="0.5" stroke="#606060" stroke-width=".5" x="0" y="0" width="60" height="60"/>
                <use id="zoomplus" xlink:href="#zoomPlus" x="17" y="9" onmousedown="handleZoom(evt,'in')"/>
                <use id="zoomminus" xlink:href="#zoomMin" x="42" y="9" onmousedown="handleZoom(evt,'out')"/>
                <use id="reset" xlink:href="#resetDef" x="30" y="36" onmousedown="handleReset()"/>
                <g id="arrowUp" xlink:href="#dirArrow" transform="translate(30 24)" onmousedown="handlePan(0,-1)">
                  <use xlink:href="#rim" fill="#404040">
                        <set attributeName="fill" to="#808080" begin="arrowUp.mouseover" end="arrowUp.mouseout"/>
                  </use>
                  <path fill="none" stroke="white" stroke-width="1.5" d="M0,-3.0v7 M-2.5,-0.5L0,-3.0L2.5,-0.5"/>
                </g>
                <g id="arrowRight" xlink:href="#dirArrow" transform="rotate(90) translate(36 -43)" onmousedown="handlePan(1,0)">
                  <use xlink:href="#rim" fill="#404040">
                        <set attributeName="fill" to="#808080" begin="arrowRight.mouseover" end="arrowRight.mouseout"/>
                  </use>
                  <path fill="none" stroke="white" stroke-width="1.5" d="M0,-3.0v7 M-2.5,-0.5L0,-3.0L2.5,-0.5"/>
                </g>
                <g id="arrowDown" xlink:href="#dirArrow" transform="rotate(180) translate(-30 -48)" onmousedown="handlePan(0,1)">
                  <use xlink:href="#rim" fill="#404040">
                        <set attributeName="fill" to="#808080" begin="arrowDown.mouseover" end="arrowDown.mouseout"/>
                  </use>
                  <path fill="none" stroke="white" stroke-width="1.5" d="M0,-3.0v7 M-2.5,-0.5L0,-3.0L2.5,-0.5"/>
                </g>
                <g id="arrowLeft" xlink:href="#dirArrow" transform="rotate(270) translate(-36 17)" onmousedown="handlePan(-1,0)">
                  <use xlink:href="#rim" fill="#404040">
                        <set attributeName="fill" to="#808080" begin="arrowLeft.mouseover" end="arrowLeft.mouseout"/>
                  </use>
                  <path fill="none" stroke="white" stroke-width="1.5" d="M0,-3.0v7 M-2.5,-0.5L0,-3.0L2.5,-0.5"/>
                </g>
        </g>
        <svg viewBox="0 0 15 15" width="100%" height="30px" preserveAspectRatio="xMaxYMin meet">
         <g id="arrow_out" transform="scale(0.3 0.3)">
          <a xlink:href="classdenoptim_1_1combinatorial_1_1_c_e_b_l_utils_ab3c17463c9705fb6bf49302dbf804922_icgraph_org.svg" target="_base">
           <rect id="button" ry="5" rx="5" y="6" x="6" height="38" width="38"
                fill="#f2f5e9" fill-opacity="0.5" stroke="#606060" stroke-width="1.0"/>
           <path id="arrow"
             d="M 11.500037,31.436501 C 11.940474,20.09759 22.043105,11.32322 32.158766,21.979434 L 37.068811,17.246167 C 37.068811,17.246167 37.088388,32 37.088388,32 L 22.160133,31.978069 C 22.160133,31.978069 26.997745,27.140456 26.997745,27.140456 C 18.528582,18.264221 13.291696,25.230495 11.500037,31.436501 z"
             style="fill:#404040;"/>
          </a>
         </g>
        </svg>
</svg>
