<?xml version="1.0" encoding="UTF-8" standalone="no"?>
<!DOCTYPE svg PUBLIC "-//W3C//DTD SVG 1.1//EN"
 "http://www.w3.org/Graphics/SVG/1.1/DTD/svg11.dtd">
<!-- Generated by graphviz version 3.0.0 (20221109.1736)
 -->
<!-- Title: denoptim.gui.FragmentViewPanel.preSelectAPs Pages: 1 -->
<!--zoomable 394 -->
<svg id="main" version="1.1" xmlns="http://www.w3.org/2000/svg" xmlns:xlink="http://www.w3.org/1999/xlink" xml:space="preserve" onload="init(evt)">
<style type="text/css"><![CDATA[
.edge:hover path { stroke: red; }
.edge:hover polygon { stroke: red; fill: red; }
]]></style>
<script type="text/javascript"><![CDATA[
var edges = document.getElementsByTagName('g');
if (edges && edges.length) {
  for (var i=0;i<edges.length;i++) {
    if (edges[i].id.substr(0,4)=='edge') {
      edges[i].setAttribute('class','edge');
    }
  }
}
]]></script>
        <defs>
                <circle id="rim" cx="0" cy="0" r="7"/>
                <circle id="rim2" cx="0" cy="0" r="3.5"/>
                <g id="zoomPlus">
                        <use xlink:href="#rim" fill="#404040">
                                <set attributeName="fill" to="#808080" begin="zoomplus.mouseover" end="zoomplus.mouseout"/>
                        </use>
                        <path d="M-4,0h8M0,-4v8" fill="none" stroke="white" stroke-width="1.5" pointer-events="none"/>
                </g>
                <g id="zoomMin">
                        <use xlink:href="#rim" fill="#404040">
                                <set attributeName="fill" to="#808080" begin="zoomminus.mouseover" end="zoomminus.mouseout"/>
                        </use>
                        <path d="M-4,0h8" fill="none" stroke="white" stroke-width="1.5" pointer-events="none"/>
                </g>
                <g id="dirArrow">
                        <path fill="none" stroke="white" stroke-width="1.5" d="M0,-3.0v7 M-2.5,-0.5L0,-3.0L2.5,-0.5"/>
                </g>
               <g id="resetDef">
                       <use xlink:href="#rim2" fill="#404040">
                               <set attributeName="fill" to="#808080" begin="reset.mouseover" end="reset.mouseout"/>
                       </use>
               </g>
        </defs>

<script type="text/javascript">
var viewWidth = 2517;
var viewHeight = 394;
var sectionId = 'dynsection-34';
</script>
<script xlink:href="svgpan.js"/>
<svg id="graph" class="graph">
<g id="viewport">
<title>denoptim.gui.FragmentViewPanel.preSelectAPs</title>
<polygon fill="white" stroke="transparent" points="-4,4 -4,-389.5 2513,-389.5 2513,4 -4,4"/>
<!-- Node1 -->
<g id="node1" class="node">
<title>Node1</title>
<g id="a_node1"><a xlink:title=" ">
<polygon fill="#bfbfbf" stroke="black" points="2372,-93 2372,-123 2509,-123 2509,-93 2372,-93"/>
<text text-anchor="start" x="2380" y="-111" font-family="Helvetica,sans-Serif" font-size="10.00">denoptim.gui.FragmentView</text>
<text text-anchor="middle" x="2440.5" y="-100" font-family="Helvetica,sans-Serif" font-size="10.00">Panel.preSelectAPs</text>
</a>
</g>
</g>
<!-- Node2 -->
<g id="node2" class="node">
<title>Node2</title>
<g id="a_node2"><a xlink:href="classdenoptim_1_1gui_1_1_fragment_view_panel.html#ace0d1e97a4f3899a40c6bc9430be7aef" target="_top" xlink:title="Loads the given fragments to this viewer.">
<polygon fill="white" stroke="black" points="2192,-93 2192,-123 2336,-123 2336,-93 2192,-93"/>
<text text-anchor="start" x="2200" y="-111" font-family="Helvetica,sans-Serif" font-size="10.00">denoptim.gui.FragmentView</text>
<text text-anchor="middle" x="2264" y="-100" font-family="Helvetica,sans-Serif" font-size="10.00">Panel.loadFragmentToViewer</text>
</a>
</g>
</g>
<!-- Node1&#45;&gt;Node2 -->
<g id="edge1" class="edge">
<title>Node1&#45;&gt;Node2</title>
<path fill="none" stroke="midnightblue" d="M2361.39,-108C2353.02,-108 2344.53,-108 2336.24,-108"/>
<polygon fill="midnightblue" stroke="midnightblue" points="2361.53,-111.5 2371.53,-108 2361.53,-104.5 2361.53,-111.5"/>
</g>
<!-- Node3 -->
<g id="node3" class="node">
<title>Node3</title>
<g id="a_node3"><a xlink:href="classdenoptim_1_1gui_1_1_vertex_view_panel.html#a5de255e134fc5c4eea74c6b653ddb913" target="_top" xlink:title="Loads the given fragments to this viewer.">
<polygon fill="white" stroke="black" points="1988,-120 1988,-150 2156,-150 2156,-120 1988,-120"/>
<text text-anchor="start" x="1996" y="-138" font-family="Helvetica,sans-Serif" font-size="10.00">denoptim.gui.VertexViewPanel.load</text>
<text text-anchor="middle" x="2072" y="-127" font-family="Helvetica,sans-Serif" font-size="10.00">FragmentToViewer</text>
</a>
</g>
</g>
<!-- Node2&#45;&gt;Node3 -->
<g id="edge2" class="edge">
<title>Node2&#45;&gt;Node3</title>
<path fill="none" stroke="midnightblue" d="M2182,-119.51C2173.43,-120.73 2164.7,-121.97 2156.1,-123.19"/>
<polygon fill="midnightblue" stroke="midnightblue" points="2182.57,-122.96 2191.98,-118.09 2181.59,-116.03 2182.57,-122.96"/>
</g>
<!-- Node27 -->
<g id="node27" class="node">
<title>Node27</title>
<g id="a_node27"><a xlink:href="classdenoptim_1_1gui_1_1_graph_vertex_mol_viewer_panel.html#a5edf6f6270bf3d180455295bffb57df0" target="_top" xlink:title="Makes a clone of the given vertex and loads that clone into the nested visualization frame.">
<polygon fill="white" stroke="black" points="1994.5,-60.5 1994.5,-101.5 2149.5,-101.5 2149.5,-60.5 1994.5,-60.5"/>
<text text-anchor="start" x="2002.5" y="-89.5" font-family="Helvetica,sans-Serif" font-size="10.00">denoptim.gui.GraphVertex</text>
<text text-anchor="start" x="2002.5" y="-78.5" font-family="Helvetica,sans-Serif" font-size="10.00">MolViewerPanel.visualizeVertex</text>
<text text-anchor="middle" x="2072" y="-67.5" font-family="Helvetica,sans-Serif" font-size="10.00">InNestedViewer</text>
</a>
</g>
</g>
<!-- Node2&#45;&gt;Node27 -->
<g id="edge35" class="edge">
<title>Node2&#45;&gt;Node27</title>
<path fill="none" stroke="midnightblue" d="M2181.84,-96.47C2171.17,-94.95 2160.26,-93.4 2149.66,-91.89"/>
<polygon fill="midnightblue" stroke="midnightblue" points="2181.59,-99.97 2191.98,-97.91 2182.57,-93.04 2181.59,-99.97"/>
</g>
<!-- Node4 -->
<g id="node4" class="node">
<title>Node4</title>
<g id="a_node4"><a xlink:href="classdenoptim_1_1gui_1_1_vertex_view_panel.html#a23695fc49f5ff660a828bddbf74a5006" target="_top" xlink:title="Loads the given template to this viewer.">
<polygon fill="white" stroke="black" points="1759.5,-120 1759.5,-150 1927.5,-150 1927.5,-120 1759.5,-120"/>
<text text-anchor="start" x="1767.5" y="-138" font-family="Helvetica,sans-Serif" font-size="10.00">denoptim.gui.VertexViewPanel.load</text>
<text text-anchor="middle" x="1843.5" y="-127" font-family="Helvetica,sans-Serif" font-size="10.00">TemplateToViewer</text>
</a>
</g>
</g>
<!-- Node3&#45;&gt;Node4 -->
<g id="edge3" class="edge">
<title>Node3&#45;&gt;Node4</title>
<path fill="none" stroke="midnightblue" d="M1977.69,-135C1961.07,-135 1943.85,-135 1927.54,-135"/>
<polygon fill="midnightblue" stroke="midnightblue" points="1977.95,-138.5 1987.95,-135 1977.95,-131.5 1977.95,-138.5"/>
</g>
<!-- Node5 -->
<g id="node5" class="node">
<title>Node5</title>
<g id="a_node5"><a xlink:href="classdenoptim_1_1gui_1_1_vertex_view_panel.html#a697ecc5ef3352a5860a6a6a355d87d1b" target="_top" xlink:title="Loads the given vertex to this viewer.">
<polygon fill="white" stroke="black" points="1531,-142 1531,-172 1699,-172 1699,-142 1531,-142"/>
<text text-anchor="start" x="1539" y="-160" font-family="Helvetica,sans-Serif" font-size="10.00">denoptim.gui.VertexViewPanel.load</text>
<text text-anchor="middle" x="1615" y="-149" font-family="Helvetica,sans-Serif" font-size="10.00">VertexToViewer</text>
</a>
</g>
</g>
<!-- Node3&#45;&gt;Node5 -->
<g id="edge34" class="edge">
<title>Node3&#45;&gt;Node5</title>
<path fill="none" stroke="midnightblue" d="M2001.55,-152.11C1985.38,-155.39 1968.17,-158.32 1952,-160 1866.13,-168.92 1767.24,-166.53 1699.09,-162.92"/>
<polygon fill="midnightblue" stroke="midnightblue" points="2002.39,-155.51 2011.45,-150.03 2000.95,-148.66 2002.39,-155.51"/>
</g>
<!-- Node4&#45;&gt;Node5 -->
<g id="edge4" class="edge">
<title>Node4&#45;&gt;Node5</title>
<path fill="none" stroke="midnightblue" d="M1749.19,-144.06C1732.57,-145.68 1715.35,-147.35 1699.04,-148.93"/>
<polygon fill="midnightblue" stroke="midnightblue" points="1749.83,-147.52 1759.45,-143.07 1749.15,-140.55 1749.83,-147.52"/>
</g>
<!-- Node6 -->
<g id="node6" class="node">
<title>Node6</title>
<g id="a_node6"><a xlink:href="classdenoptim_1_1gui_1_1_g_u_i_vertex_inspector.html#acadecc92299a7ea46113c06382a1f333" target="_top" xlink:title="Initialize the panel and add buttons.">
<polygon fill="white" stroke="black" points="852,-191.5 852,-210.5 1049,-210.5 1049,-191.5 852,-191.5"/>
<text text-anchor="middle" x="950.5" y="-198.5" font-family="Helvetica,sans-Serif" font-size="10.00">denoptim.gui.GUIVertexInspector.initialize</text>
</a>
</g>
</g>
<!-- Node5&#45;&gt;Node6 -->
<g id="edge5" class="edge">
<title>Node5&#45;&gt;Node6</title>
<path fill="none" stroke="midnightblue" d="M1520.8,-156.59C1414.9,-157.03 1237.03,-160.54 1085,-177 1054.92,-180.26 1021.4,-186.29 995.47,-191.49"/>
<polygon fill="midnightblue" stroke="midnightblue" points="1520.83,-160.09 1530.82,-156.55 1520.81,-153.09 1520.83,-160.09"/>
</g>
<!-- Node8 -->
<g id="node8" class="node">
<title>Node8</title>
<g id="a_node8"><a xlink:href="classdenoptim_1_1gui_1_1_g_u_i_vertex_inspector.html#ad9676f2418e5c4221fd7927d68cedad5" target="_top" xlink:title="Loads the fragments corresponding to the field index.">
<polygon fill="white" stroke="black" points="1315,-235 1315,-265 1495,-265 1495,-235 1315,-235"/>
<text text-anchor="start" x="1323" y="-253" font-family="Helvetica,sans-Serif" font-size="10.00">denoptim.gui.GUIVertexInspector.load</text>
<text text-anchor="middle" x="1405" y="-242" font-family="Helvetica,sans-Serif" font-size="10.00">CurrentVrtxIdxToViewer</text>
</a>
</g>
</g>
<!-- Node5&#45;&gt;Node8 -->
<g id="edge7" class="edge">
<title>Node5&#45;&gt;Node8</title>
<path fill="none" stroke="midnightblue" d="M1570.63,-176.39C1531.76,-193.77 1475.52,-218.92 1439.87,-234.86"/>
<polygon fill="midnightblue" stroke="midnightblue" points="1572.42,-179.43 1580.12,-172.15 1569.56,-173.04 1572.42,-179.43"/>
</g>
<!-- Node19 -->
<g id="node19" class="node">
<title>Node19</title>
<g id="a_node19"><a xlink:href="classdenoptim_1_1gui_1_1_g_u_i_vertex_selector.html#a9a6057c6f67098a32bd84f4f7bffe4a8" target="_top" xlink:title="Loads the vertices corresponding to the field index.">
<polygon fill="white" stroke="black" points="1317,-98 1317,-128 1493,-128 1493,-98 1317,-98"/>
<text text-anchor="start" x="1325" y="-116" font-family="Helvetica,sans-Serif" font-size="10.00">denoptim.gui.GUIVertexSelector.load</text>
<text text-anchor="middle" x="1405" y="-105" font-family="Helvetica,sans-Serif" font-size="10.00">CurrentVrtxIdxToViewer</text>
</a>
</g>
</g>
<!-- Node5&#45;&gt;Node19 -->
<g id="edge22" class="edge">
<title>Node5&#45;&gt;Node19</title>
<path fill="none" stroke="midnightblue" d="M1533.14,-139.89C1514.63,-135.98 1495.09,-131.85 1477.03,-128.03"/>
<polygon fill="midnightblue" stroke="midnightblue" points="1532.49,-143.34 1543,-141.98 1533.94,-136.49 1532.49,-143.34"/>
</g>
<!-- Node7 -->
<g id="node7" class="node">
<title>Node7</title>
<g id="a_node7"><a xlink:href="classdenoptim_1_1gui_1_1_g_u_i_vertex_inspector.html#abc5d3c33ad9b2b114ce43e9b2cd577bb" target="_top" xlink:title="Constructor.">
<polygon fill="white" stroke="black" points="623,-186 623,-216 785,-216 785,-186 623,-186"/>
<text text-anchor="start" x="631" y="-204" font-family="Helvetica,sans-Serif" font-size="10.00">denoptim.gui.GUIVertexInspector.</text>
<text text-anchor="middle" x="704" y="-193" font-family="Helvetica,sans-Serif" font-size="10.00">GUIVertexInspector</text>
</a>
</g>
</g>
<!-- Node6&#45;&gt;Node7 -->
<g id="edge6" class="edge">
<title>Node6&#45;&gt;Node7</title>
<path fill="none" stroke="midnightblue" d="M841.65,-201C822.71,-201 803.3,-201 785.27,-201"/>
<polygon fill="midnightblue" stroke="midnightblue" points="841.81,-204.5 851.81,-201 841.81,-197.5 841.81,-204.5"/>
</g>
<!-- Node9 -->
<g id="node9" class="node">
<title>Node9</title>
<g id="a_node9"><a xlink:href="classdenoptim_1_1gui_1_1_g_u_i_vertex_inspector.html#a69d3deb57097286f9a01cdf256ec8d65" target="_top" xlink:title="Imports vertices.">
<polygon fill="white" stroke="black" points="1087.5,-333 1087.5,-363 1276.5,-363 1276.5,-333 1087.5,-333"/>
<text text-anchor="start" x="1095.5" y="-351" font-family="Helvetica,sans-Serif" font-size="10.00">denoptim.gui.GUIVertexInspector.import</text>
<text text-anchor="middle" x="1182" y="-340" font-family="Helvetica,sans-Serif" font-size="10.00">Vertices</text>
</a>
</g>
</g>
<!-- Node8&#45;&gt;Node9 -->
<g id="edge8" class="edge">
<title>Node8&#45;&gt;Node9</title>
<path fill="none" stroke="midnightblue" d="M1374.39,-270.88C1349.83,-287.35 1313.49,-309.83 1279,-324 1270.82,-327.36 1262.04,-330.34 1253.24,-332.96"/>
<polygon fill="midnightblue" stroke="midnightblue" points="1376.57,-273.63 1382.87,-265.11 1372.63,-267.84 1376.57,-273.63"/>
</g>
<!-- Node16 -->
<g id="node16" class="node">
<title>Node16</title>
<g id="a_node16"><a xlink:href="classdenoptim_1_1gui_1_1_g_u_i_vertex_inspector.html#a6e5cc3cb1cd2f98bf03934b3b2defa22" target="_top" xlink:title=" ">
<polygon fill="white" stroke="black" points="1085,-186 1085,-216 1279,-216 1279,-186 1085,-186"/>
<text text-anchor="start" x="1093" y="-204" font-family="Helvetica,sans-Serif" font-size="10.00">denoptim.gui.GUIVertexInspector.remove</text>
<text text-anchor="middle" x="1182" y="-193" font-family="Helvetica,sans-Serif" font-size="10.00">CurrentVrtx</text>
</a>
</g>
</g>
<!-- Node8&#45;&gt;Node16 -->
<g id="edge17" class="edge">
<title>Node8&#45;&gt;Node16</title>
<path fill="none" stroke="midnightblue" d="M1326.16,-232.74C1301.54,-227.28 1274.53,-221.29 1250.68,-216.01"/>
<polygon fill="midnightblue" stroke="midnightblue" points="1325.67,-236.22 1336.19,-234.97 1327.19,-229.38 1325.67,-236.22"/>
</g>
<!-- Node17 -->
<g id="node17" class="node">
<title>Node17</title>
<g id="a_node17"><a xlink:href="classdenoptim_1_1gui_1_1_g_u_i_vertex_inspector.html#a09363e21a5254efe8f128a99e82acbf0" target="_top" xlink:title=" ">
<polygon fill="white" stroke="black" points="1090.5,-235 1090.5,-265 1273.5,-265 1273.5,-235 1090.5,-235"/>
<text text-anchor="start" x="1098.5" y="-253" font-family="Helvetica,sans-Serif" font-size="10.00">denoptim.gui.GUIVertexInspector.save</text>
<text text-anchor="middle" x="1182" y="-242" font-family="Helvetica,sans-Serif" font-size="10.00">UnsavedChanges</text>
</a>
</g>
</g>
<!-- Node8&#45;&gt;Node17 -->
<g id="edge19" class="edge">
<title>Node8&#45;&gt;Node17</title>
<path fill="none" stroke="midnightblue" d="M1304.53,-250C1294.25,-250 1283.84,-250 1273.67,-250"/>
<polygon fill="midnightblue" stroke="midnightblue" points="1304.75,-253.5 1314.75,-250 1304.75,-246.5 1304.75,-253.5"/>
</g>
<!-- Node18 -->
<g id="node18" class="node">
<title>Node18</title>
<g id="a_node18"><a xlink:href="classdenoptim_1_1gui_1_1_g_u_i_vertex_inspector_1_1_vrtx_spinner_change_event.html#aca98b170c98a615d12f199d1ccdd26dd" target="_top" xlink:title=" ">
<polygon fill="white" stroke="black" points="1088.5,-284 1088.5,-314 1275.5,-314 1275.5,-284 1088.5,-284"/>
<text text-anchor="start" x="1096.5" y="-302" font-family="Helvetica,sans-Serif" font-size="10.00">denoptim.gui.GUIVertexInspector.</text>
<text text-anchor="middle" x="1182" y="-291" font-family="Helvetica,sans-Serif" font-size="10.00">VrtxSpinnerChangeEvent.stateChanged</text>
</a>
</g>
</g>
<!-- Node8&#45;&gt;Node18 -->
<g id="edge21" class="edge">
<title>Node8&#45;&gt;Node18</title>
<path fill="none" stroke="midnightblue" d="M1326.16,-267.26C1301.54,-272.72 1274.53,-278.71 1250.68,-283.99"/>
<polygon fill="midnightblue" stroke="midnightblue" points="1327.19,-270.62 1336.19,-265.03 1325.67,-263.78 1327.19,-270.62"/>
</g>
<!-- Node9&#45;&gt;Node6 -->
<g id="edge16" class="edge">
<title>Node9&#45;&gt;Node6</title>
<path fill="none" stroke="midnightblue" d="M1095.95,-329.26C1092.18,-327.65 1088.51,-325.9 1085,-324 1028.7,-293.62 977.74,-234.08 959.06,-210.73"/>
<polygon fill="midnightblue" stroke="midnightblue" points="1094.88,-332.6 1105.47,-333 1097.44,-326.09 1094.88,-332.6"/>
</g>
<!-- Node10 -->
<g id="node10" class="node">
<title>Node10</title>
<g id="a_node10"><a xlink:href="classdenoptim_1_1gui_1_1_g_u_i_vertex_inspector.html#a6698fa37bf04503e58c61f0543946834" target="_top" xlink:title="Imports fragments from a file.">
<polygon fill="white" stroke="black" points="856,-333 856,-363 1045,-363 1045,-333 856,-333"/>
<text text-anchor="start" x="864" y="-351" font-family="Helvetica,sans-Serif" font-size="10.00">denoptim.gui.GUIVertexInspector.import</text>
<text text-anchor="middle" x="950.5" y="-340" font-family="Helvetica,sans-Serif" font-size="10.00">VerticesFromFile</text>
</a>
</g>
</g>
<!-- Node9&#45;&gt;Node10 -->
<g id="edge9" class="edge">
<title>Node9&#45;&gt;Node10</title>
<path fill="none" stroke="midnightblue" d="M1077.17,-348C1066.54,-348 1055.77,-348 1045.25,-348"/>
<polygon fill="midnightblue" stroke="midnightblue" points="1077.32,-351.5 1087.32,-348 1077.32,-344.5 1077.32,-351.5"/>
</g>
<!-- Node11 -->
<g id="node11" class="node">
<title>Node11</title>
<g id="a_node11"><a xlink:href="classdenoptim_1_1gui_1_1_main_tool_bar.html#a1a2e06a2647032587d42155302b8c0a6" target="_top" xlink:title="Process a file that has a recognized file format and loads a suitable GUI card to visualize the file ...">
<polygon fill="white" stroke="black" points="620.5,-338.5 620.5,-357.5 787.5,-357.5 787.5,-338.5 620.5,-338.5"/>
<text text-anchor="middle" x="704" y="-345.5" font-family="Helvetica,sans-Serif" font-size="10.00">denoptim.gui.MainToolBar.openFile</text>
</a>
</g>
</g>
<!-- Node10&#45;&gt;Node11 -->
<g id="edge10" class="edge">
<title>Node10&#45;&gt;Node11</title>
<path fill="none" stroke="midnightblue" d="M845.64,-348C826.32,-348 806.38,-348 787.8,-348"/>
<polygon fill="midnightblue" stroke="midnightblue" points="845.67,-351.5 855.67,-348 845.67,-344.5 845.67,-351.5"/>
</g>
<!-- Node12 -->
<g id="node12" class="node">
<title>Node12</title>
<g id="a_node12"><a xlink:href="classdenoptim_1_1gui_1_1_main_tool_bar.html#a0df9ca063352fbc50f9476f3b2820926" target="_top" xlink:title="Initialize the contents of the tool bar.">
<polygon fill="white" stroke="black" points="167,-360.5 167,-379.5 332,-379.5 332,-360.5 167,-360.5"/>
<text text-anchor="middle" x="249.5" y="-367.5" font-family="Helvetica,sans-Serif" font-size="10.00">denoptim.gui.MainToolBar.initialize</text>
</a>
</g>
</g>
<!-- Node11&#45;&gt;Node12 -->
<g id="edge11" class="edge">
<title>Node11&#45;&gt;Node12</title>
<path fill="none" stroke="midnightblue" d="M648.99,-359.43C621.32,-364.71 587.02,-370.38 556,-373 472.74,-380.03 451.55,-374.07 368,-373 356.37,-372.85 344.09,-372.62 332.03,-372.35"/>
<polygon fill="midnightblue" stroke="midnightblue" points="649.72,-362.85 658.86,-357.51 648.38,-355.98 649.72,-362.85"/>
</g>
<!-- Node14 -->
<g id="node14" class="node">
<title>Node14</title>
<g id="a_node14"><a xlink:href="classdenoptim_1_1gui_1_1_g_u_i.html#a460fa99497f04de06d2adf8671a92441" target="_top" xlink:title="Launch the application.">
<polygon fill="white" stroke="black" points="408.5,-294.5 408.5,-313.5 515.5,-313.5 515.5,-294.5 408.5,-294.5"/>
<text text-anchor="middle" x="462" y="-301.5" font-family="Helvetica,sans-Serif" font-size="10.00">denoptim.gui.GUI.run</text>
</a>
</g>
</g>
<!-- Node11&#45;&gt;Node14 -->
<g id="edge13" class="edge">
<title>Node11&#45;&gt;Node14</title>
<path fill="none" stroke="midnightblue" d="M640.73,-336.58C601.67,-329.42 551.91,-320.3 514.97,-313.53"/>
<polygon fill="midnightblue" stroke="midnightblue" points="640.46,-340.09 650.92,-338.45 641.72,-333.21 640.46,-340.09"/>
</g>
<!-- Node15 -->
<g id="node15" class="node">
<title>Node15</title>
<g id="a_node15"><a xlink:href="classdenoptim_1_1gui_1_1_main_tool_bar.html#a94df24e485081c9b9d7441387f409e26" target="_top" xlink:title="Updated the the list of recent files in the &quot;open Recent&quot; menu.">
<polygon fill="white" stroke="black" points="382,-333 382,-363 542,-363 542,-333 382,-333"/>
<text text-anchor="start" x="390" y="-351" font-family="Helvetica,sans-Serif" font-size="10.00">denoptim.gui.MainToolBar.update</text>
<text text-anchor="middle" x="462" y="-340" font-family="Helvetica,sans-Serif" font-size="10.00">OpenRecentMenu</text>
</a>
</g>
</g>
<!-- Node11&#45;&gt;Node15 -->
<g id="edge14" class="edge">
<title>Node11&#45;&gt;Node15</title>
<path fill="none" stroke="midnightblue" d="M610.18,-348C587.7,-348 563.88,-348 542.1,-348"/>
<polygon fill="midnightblue" stroke="midnightblue" points="610.41,-351.5 620.41,-348 610.41,-344.5 610.41,-351.5"/>
</g>
<!-- Node13 -->
<g id="node13" class="node">
<title>Node13</title>
<g id="a_node13"><a xlink:href="classdenoptim_1_1gui_1_1_main_tool_bar.html#a36f4409849998e032342f49b19e6c5b5" target="_top" xlink:title="Constructor that build the tool bar.">
<polygon fill="white" stroke="black" points="0,-355 0,-385 131,-385 131,-355 0,-355"/>
<text text-anchor="start" x="8" y="-373" font-family="Helvetica,sans-Serif" font-size="10.00">denoptim.gui.MainToolBar.</text>
<text text-anchor="middle" x="65.5" y="-362" font-family="Helvetica,sans-Serif" font-size="10.00">MainToolBar</text>
</a>
</g>
</g>
<!-- Node12&#45;&gt;Node13 -->
<g id="edge12" class="edge">
<title>Node12&#45;&gt;Node13</title>
<path fill="none" stroke="midnightblue" d="M156.66,-370C147.99,-370 139.34,-370 131,-370"/>
<polygon fill="midnightblue" stroke="midnightblue" points="156.82,-373.5 166.82,-370 156.82,-366.5 156.82,-373.5"/>
</g>
<!-- Node15&#45;&gt;Node12 -->
<g id="edge15" class="edge">
<title>Node15&#45;&gt;Node12</title>
<path fill="none" stroke="midnightblue" d="M371.75,-357.33C358.62,-358.7 345.14,-360.11 332.16,-361.47"/>
<polygon fill="midnightblue" stroke="midnightblue" points="372.14,-360.81 381.72,-356.29 371.41,-353.84 372.14,-360.81"/>
</g>
<!-- Node16&#45;&gt;Node6 -->
<g id="edge18" class="edge">
<title>Node16&#45;&gt;Node6</title>
<path fill="none" stroke="midnightblue" d="M1074.4,-201C1065.95,-201 1057.44,-201 1049.06,-201"/>
<polygon fill="midnightblue" stroke="midnightblue" points="1074.67,-204.5 1084.67,-201 1074.67,-197.5 1074.67,-204.5"/>
</g>
<!-- Node17&#45;&gt;Node6 -->
<g id="edge20" class="edge">
<title>Node17&#45;&gt;Node6</title>
<path fill="none" stroke="midnightblue" d="M1100.37,-232.78C1065.37,-225.31 1025.7,-216.84 996.13,-210.53"/>
<polygon fill="midnightblue" stroke="midnightblue" points="1100.07,-236.3 1110.58,-234.97 1101.53,-229.45 1100.07,-236.3"/>
</g>
<!-- Node20 -->
<g id="node20" class="node">
<title>Node20</title>
<g id="a_node20"><a xlink:href="classdenoptim_1_1gui_1_1_g_u_i_vertex_selector.html#a15c6a5de34e54f74d33c7c82f2a3125d" target="_top" xlink:title="Load the list of vertexes to choose from.">
<polygon fill="white" stroke="black" points="1094,-59.5 1094,-78.5 1270,-78.5 1270,-59.5 1094,-59.5"/>
<text text-anchor="middle" x="1182" y="-66.5" font-family="Helvetica,sans-Serif" font-size="10.00">denoptim.gui.GUIVertexSelector.load</text>
</a>
</g>
</g>
<!-- Node19&#45;&gt;Node20 -->
<g id="edge23" class="edge">
<title>Node19&#45;&gt;Node20</title>
<path fill="none" stroke="midnightblue" d="M1318.86,-95.95C1305.52,-93.28 1291.89,-90.56 1279,-88 1263.5,-84.92 1246.6,-81.57 1231.35,-78.55"/>
<polygon fill="midnightblue" stroke="midnightblue" points="1318.49,-99.44 1328.98,-97.97 1319.86,-92.58 1318.49,-99.44"/>
</g>
<!-- Node26 -->
<g id="node26" class="node">
<title>Node26</title>
<g id="a_node26"><a xlink:href="classdenoptim_1_1gui_1_1_g_u_i_vertex_selector_1_1_vrtx_spinner_change_event.html#aa4094444bbbf29fde85df9440ab5c0e7" target="_top" xlink:title=" ">
<polygon fill="white" stroke="black" points="1088.5,-98 1088.5,-128 1275.5,-128 1275.5,-98 1088.5,-98"/>
<text text-anchor="start" x="1096.5" y="-116" font-family="Helvetica,sans-Serif" font-size="10.00">denoptim.gui.GUIVertexSelector.</text>
<text text-anchor="middle" x="1182" y="-105" font-family="Helvetica,sans-Serif" font-size="10.00">VrtxSpinnerChangeEvent.stateChanged</text>
</a>
</g>
</g>
<!-- Node19&#45;&gt;Node26 -->
<g id="edge33" class="edge">
<title>Node19&#45;&gt;Node26</title>
<path fill="none" stroke="midnightblue" d="M1306.75,-113C1296.46,-113 1286.01,-113 1275.77,-113"/>
<polygon fill="midnightblue" stroke="midnightblue" points="1306.97,-116.5 1316.97,-113 1306.97,-109.5 1306.97,-116.5"/>
</g>
<!-- Node20&#45;&gt;Node6 -->
<g id="edge31" class="edge">
<title>Node20&#45;&gt;Node6</title>
<path fill="none" stroke="midnightblue" d="M1098.03,-81.86C1093.51,-83.65 1089.14,-85.68 1085,-88 1064.42,-99.52 1066.46,-111.14 1049,-127 1021.16,-152.29 985.21,-177.98 965.67,-191.43"/>
<polygon fill="midnightblue" stroke="midnightblue" points="1099.2,-85.15 1107.45,-78.51 1096.86,-78.56 1099.2,-85.15"/>
</g>
<!-- Node21 -->
<g id="node21" class="node">
<title>Node21</title>
<g id="a_node21"><a xlink:href="classdenoptim_1_1gui_1_1_g_u_i_graph_handler.html#af7024886a4203aa93d8cf7975f7c2e72" target="_top" xlink:title=" ">
<polygon fill="white" stroke="black" points="860,-54 860,-84 1041,-84 1041,-54 860,-54"/>
<text text-anchor="start" x="868" y="-72" font-family="Helvetica,sans-Serif" font-size="10.00">denoptim.gui.GUIGraphHandler.create</text>
<text text-anchor="middle" x="950.5" y="-61" font-family="Helvetica,sans-Serif" font-size="10.00">EmptyVertexAndPlaceItInGraph</text>
</a>
</g>
</g>
<!-- Node20&#45;&gt;Node21 -->
<g id="edge24" class="edge">
<title>Node20&#45;&gt;Node21</title>
<path fill="none" stroke="midnightblue" d="M1083.72,-69C1069.61,-69 1055.15,-69 1041.2,-69"/>
<polygon fill="midnightblue" stroke="midnightblue" points="1083.91,-72.5 1093.91,-69 1083.91,-65.5 1083.91,-72.5"/>
</g>
<!-- Node24 -->
<g id="node24" class="node">
<title>Node24</title>
<g id="a_node24"><a xlink:href="classdenoptim_1_1gui_1_1_g_u_i_graph_handler.html#a857bfe6291322daccf2af3fd9a28a356" target="_top" xlink:title="Start the construction of a new graph from scratch.">
<polygon fill="white" stroke="black" points="592,-98 592,-128 816,-128 816,-98 592,-98"/>
<text text-anchor="start" x="600" y="-116" font-family="Helvetica,sans-Serif" font-size="10.00">denoptim.gui.GUIGraphHandler.start</text>
<text text-anchor="middle" x="704" y="-105" font-family="Helvetica,sans-Serif" font-size="10.00">GraphFromFragSpaceOrCreationOfEmptyVertex</text>
</a>
</g>
</g>
<!-- Node20&#45;&gt;Node24 -->
<g id="edge32" class="edge">
<title>Node20&#45;&gt;Node24</title>
<path fill="none" stroke="midnightblue" d="M1126.44,-80.46C1102.74,-85.04 1074.6,-89.94 1049,-93 971.48,-102.27 883.6,-107.28 816.07,-109.97"/>
<polygon fill="midnightblue" stroke="midnightblue" points="1127.16,-83.89 1136.3,-78.53 1125.81,-77.02 1127.16,-83.89"/>
</g>
<!-- Node25 -->
<g id="node25" class="node">
<title>Node25</title>
<g id="a_node25"><a xlink:href="classdenoptim_1_1gui_1_1_g_u_i_graph_handler.html#a44e2ff798d22b73f966cb8393ceb4f18" target="_top" xlink:title="Extends the current graph by appending a node to a specific free AP on the growing graph.">
<polygon fill="white" stroke="black" points="613,-10 613,-40 795,-40 795,-10 613,-10"/>
<text text-anchor="start" x="621" y="-28" font-family="Helvetica,sans-Serif" font-size="10.00">denoptim.gui.GUIGraphHandler.extend</text>
<text text-anchor="middle" x="704" y="-17" font-family="Helvetica,sans-Serif" font-size="10.00">GraphFromFragSpace</text>
</a>
</g>
</g>
<!-- Node20&#45;&gt;Node25 -->
<g id="edge29" class="edge">
<title>Node20&#45;&gt;Node25</title>
<path fill="none" stroke="midnightblue" d="M1128.42,-57.39C1104.33,-52.5 1075.34,-47.21 1049,-44 963.2,-33.55 864.66,-28.85 795.1,-26.73"/>
<polygon fill="midnightblue" stroke="midnightblue" points="1127.92,-60.86 1138.42,-59.46 1129.34,-54.01 1127.92,-60.86"/>
</g>
<!-- Node22 -->
<g id="node22" class="node">
<title>Node22</title>
<g id="a_node22"><a xlink:href="classdenoptim_1_1gui_1_1_g_u_i_graph_handler.html#af5b000c105018cbd7c262b34f9750044" target="_top" xlink:title="Initialize the panel and add buttons.">
<polygon fill="white" stroke="black" points="368,-59.5 368,-78.5 556,-78.5 556,-59.5 368,-59.5"/>
<text text-anchor="middle" x="462" y="-66.5" font-family="Helvetica,sans-Serif" font-size="10.00">denoptim.gui.GUIGraphHandler.initialize</text>
</a>
</g>
</g>
<!-- Node21&#45;&gt;Node22 -->
<g id="edge25" class="edge">
<title>Node21&#45;&gt;Node22</title>
<path fill="none" stroke="midnightblue" d="M849.94,-69C763.83,-69 640.28,-69 556.11,-69"/>
<polygon fill="midnightblue" stroke="midnightblue" points="849.99,-72.5 859.99,-69 849.99,-65.5 849.99,-72.5"/>
</g>
<!-- Node21&#45;&gt;Node24 -->
<g id="edge27" class="edge">
<title>Node21&#45;&gt;Node24</title>
<path fill="none" stroke="midnightblue" d="M855.95,-85.84C833.75,-89.83 810.21,-94.07 788.5,-97.97"/>
<polygon fill="midnightblue" stroke="midnightblue" points="856.82,-89.24 866.04,-84.02 855.58,-82.35 856.82,-89.24"/>
</g>
<!-- Node23 -->
<g id="node23" class="node">
<title>Node23</title>
<g id="a_node23"><a xlink:href="classdenoptim_1_1gui_1_1_g_u_i_graph_handler.html#ab7d010d9a384f6b85edce47c95d6723b" target="_top" xlink:title="Constructor.">
<polygon fill="white" stroke="black" points="172.5,-54 172.5,-84 326.5,-84 326.5,-54 172.5,-54"/>
<text text-anchor="start" x="180.5" y="-72" font-family="Helvetica,sans-Serif" font-size="10.00">denoptim.gui.GUIGraphHandler.</text>
<text text-anchor="middle" x="249.5" y="-61" font-family="Helvetica,sans-Serif" font-size="10.00">GUIGraphHandler</text>
</a>
</g>
</g>
<!-- Node22&#45;&gt;Node23 -->
<g id="edge26" class="edge">
<title>Node22&#45;&gt;Node23</title>
<path fill="none" stroke="midnightblue" d="M357.73,-69C347.25,-69 336.75,-69 326.64,-69"/>
<polygon fill="midnightblue" stroke="midnightblue" points="357.75,-72.5 367.75,-69 357.75,-65.5 357.75,-72.5"/>
</g>
<!-- Node24&#45;&gt;Node22 -->
<g id="edge28" class="edge">
<title>Node24&#45;&gt;Node22</title>
<path fill="none" stroke="midnightblue" d="M611.07,-96.15C578.48,-90.17 542.96,-83.66 514.89,-78.51"/>
<polygon fill="midnightblue" stroke="midnightblue" points="610.61,-99.62 621.08,-97.98 611.87,-92.73 610.61,-99.62"/>
</g>
<!-- Node25&#45;&gt;Node22 -->
<g id="edge30" class="edge">
<title>Node25&#45;&gt;Node22</title>
<path fill="none" stroke="midnightblue" d="M611.07,-41.85C578.48,-47.83 542.96,-54.34 514.89,-59.49"/>
<polygon fill="midnightblue" stroke="midnightblue" points="611.87,-45.27 621.08,-40.02 610.61,-38.38 611.87,-45.27"/>
</g>
<!-- Node28 -->
<g id="node28" class="node">
<title>Node28</title>
<g id="a_node28"><a xlink:href="classdenoptim_1_1gui_1_1_graph_vertex_mol_viewer_panel.html#abab3007ca39f050b3b9916c4bcc994ca" target="_top" xlink:title="Loads the given graph into the graph viewer.">
<polygon fill="white" stroke="black" points="1765,-60.5 1765,-101.5 1922,-101.5 1922,-60.5 1765,-60.5"/>
<text text-anchor="start" x="1773" y="-89.5" font-family="Helvetica,sans-Serif" font-size="10.00">denoptim.gui.GraphVertex</text>
<text text-anchor="start" x="1773" y="-78.5" font-family="Helvetica,sans-Serif" font-size="10.00">MolViewerPanel.loadDnGraphTo</text>
<text text-anchor="middle" x="1843.5" y="-67.5" font-family="Helvetica,sans-Serif" font-size="10.00">Viewer</text>
</a>
</g>
</g>
<!-- Node27&#45;&gt;Node28 -->
<g id="edge36" class="edge">
<title>Node27&#45;&gt;Node28</title>
<path fill="none" stroke="midnightblue" d="M1984.11,-81C1963.76,-81 1942.19,-81 1922.26,-81"/>
<polygon fill="midnightblue" stroke="midnightblue" points="1984.32,-84.5 1994.32,-81 1984.32,-77.5 1984.32,-84.5"/>
</g>
<!-- Node29 -->
<g id="node29" class="node">
<title>Node29</title>
<g id="a_node29"><a xlink:href="classdenoptim_1_1gui_1_1_graph_vertex_mol_viewer_panel_1_1_node_clicked_listener.html#a4c7c2b6e03029c1850296cda96c5d6bc" target="_top" xlink:title=" ">
<polygon fill="white" stroke="black" points="1735,-0.5 1735,-41.5 1952,-41.5 1952,-0.5 1735,-0.5"/>
<text text-anchor="start" x="1743" y="-29.5" font-family="Helvetica,sans-Serif" font-size="10.00">denoptim.gui.GraphVertex</text>
<text text-anchor="start" x="1743" y="-18.5" font-family="Helvetica,sans-Serif" font-size="10.00">MolViewerPanel.NodeClickedListener.property</text>
<text text-anchor="middle" x="1843.5" y="-7.5" font-family="Helvetica,sans-Serif" font-size="10.00">Change</text>
</a>
</g>
</g>
<!-- Node27&#45;&gt;Node29 -->
<g id="edge37" class="edge">
<title>Node27&#45;&gt;Node29</title>
<path fill="none" stroke="midnightblue" d="M1984.39,-58.06C1963.95,-52.64 1942.28,-46.9 1922.26,-41.6"/>
<polygon fill="midnightblue" stroke="midnightblue" points="1983.75,-61.51 1994.32,-60.69 1985.55,-54.74 1983.75,-61.51"/>
</g>
</g>
</svg>
        <g id="navigator" transform="translate(0 0)" fill="#404254">
                <rect fill="#f2f5e9" fill-opacity="0.5" stroke="#606060" stroke-width=".5" x="0" y="0" width="60" height="60"/>
                <use id="zoomplus" xlink:href="#zoomPlus" x="17" y="9" onmousedown="handleZoom(evt,'in')"/>
                <use id="zoomminus" xlink:href="#zoomMin" x="42" y="9" onmousedown="handleZoom(evt,'out')"/>
                <use id="reset" xlink:href="#resetDef" x="30" y="36" onmousedown="handleReset()"/>
                <g id="arrowUp" xlink:href="#dirArrow" transform="translate(30 24)" onmousedown="handlePan(0,-1)">
                  <use xlink:href="#rim" fill="#404040">
                        <set attributeName="fill" to="#808080" begin="arrowUp.mouseover" end="arrowUp.mouseout"/>
                  </use>
                  <path fill="none" stroke="white" stroke-width="1.5" d="M0,-3.0v7 M-2.5,-0.5L0,-3.0L2.5,-0.5"/>
                </g>
                <g id="arrowRight" xlink:href="#dirArrow" transform="rotate(90) translate(36 -43)" onmousedown="handlePan(1,0)">
                  <use xlink:href="#rim" fill="#404040">
                        <set attributeName="fill" to="#808080" begin="arrowRight.mouseover" end="arrowRight.mouseout"/>
                  </use>
                  <path fill="none" stroke="white" stroke-width="1.5" d="M0,-3.0v7 M-2.5,-0.5L0,-3.0L2.5,-0.5"/>
                </g>
                <g id="arrowDown" xlink:href="#dirArrow" transform="rotate(180) translate(-30 -48)" onmousedown="handlePan(0,1)">
                  <use xlink:href="#rim" fill="#404040">
                        <set attributeName="fill" to="#808080" begin="arrowDown.mouseover" end="arrowDown.mouseout"/>
                  </use>
                  <path fill="none" stroke="white" stroke-width="1.5" d="M0,-3.0v7 M-2.5,-0.5L0,-3.0L2.5,-0.5"/>
                </g>
                <g id="arrowLeft" xlink:href="#dirArrow" transform="rotate(270) translate(-36 17)" onmousedown="handlePan(-1,0)">
                  <use xlink:href="#rim" fill="#404040">
                        <set attributeName="fill" to="#808080" begin="arrowLeft.mouseover" end="arrowLeft.mouseout"/>
                  </use>
                  <path fill="none" stroke="white" stroke-width="1.5" d="M0,-3.0v7 M-2.5,-0.5L0,-3.0L2.5,-0.5"/>
                </g>
        </g>
        <svg viewBox="0 0 15 15" width="100%" height="30px" preserveAspectRatio="xMaxYMin meet">
         <g id="arrow_out" transform="scale(0.3 0.3)">
          <a xlink:href="classdenoptim_1_1gui_1_1_fragment_view_panel_ab6094e7c8cb846552c93a55915bd4d88_icgraph_org.svg" target="_base">
           <rect id="button" ry="5" rx="5" y="6" x="6" height="38" width="38"
                fill="#f2f5e9" fill-opacity="0.5" stroke="#606060" stroke-width="1.0"/>
           <path id="arrow"
             d="M 11.500037,31.436501 C 11.940474,20.09759 22.043105,11.32322 32.158766,21.979434 L 37.068811,17.246167 C 37.068811,17.246167 37.088388,32 37.088388,32 L 22.160133,31.978069 C 22.160133,31.978069 26.997745,27.140456 26.997745,27.140456 C 18.528582,18.264221 13.291696,25.230495 11.500037,31.436501 z"
             style="fill:#404040;"/>
          </a>
         </g>
        </svg>
</svg>
