<?xml version="1.0" encoding="UTF-8" standalone="no"?>
<!DOCTYPE svg PUBLIC "-//W3C//DTD SVG 1.1//EN"
 "http://www.w3.org/Graphics/SVG/1.1/DTD/svg11.dtd">
<!-- Generated by graphviz version 3.0.0 (20221109.1736)
 -->
<!-- Title: denoptim.graph.Template.addInnerToOuterAPMapping Pages: 1 -->
<svg width="524pt" height="242pt"
 viewBox="0.00 0.00 524.00 242.00" xmlns="http://www.w3.org/2000/svg" xmlns:xlink="http://www.w3.org/1999/xlink">
<g id="graph0" class="graph" transform="scale(1 1) rotate(0) translate(4 238)">
<title>denoptim.graph.Template.addInnerToOuterAPMapping</title>
<polygon fill="white" stroke="transparent" points="-4,4 -4,-238 520,-238 520,4 -4,4"/>
<!-- Node1 -->
<g id="node1" class="node">
<title>Node1</title>
<g id="a_node1"><a xlink:title="Adds the projection of an AP in the template&#39;s inner graph (i.e., innerAP) to the list of APs visible...">
<polygon fill="#bfbfbf" stroke="black" points="0,-66.5 0,-96.5 143,-96.5 143,-66.5 0,-66.5"/>
<text text-anchor="start" x="8" y="-84.5" font-family="Helvetica,sans-Serif" font-size="10.00">denoptim.graph.Template.add</text>
<text text-anchor="middle" x="71.5" y="-73.5" font-family="Helvetica,sans-Serif" font-size="10.00">InnerToOuterAPMapping</text>
</a>
</g>
</g>
<!-- Node1&#45;&gt;Node1 -->
<g id="edge1" class="edge">
<title>Node1&#45;&gt;Node1</title>
<path fill="none" stroke="midnightblue" d="M39.78,-96.66C32.13,-106.06 42.71,-115 71.5,-115 89.05,-115 99.83,-111.68 103.84,-106.96"/>
<polygon fill="midnightblue" stroke="midnightblue" points="107.31,-106.43 103.22,-96.66 100.33,-106.85 107.31,-106.43"/>
</g>
<!-- Node2 -->
<g id="node2" class="node">
<title>Node2</title>
<g id="a_node2"><a xlink:href="classdenoptim_1_1graph_1_1_attachment_point.html#a8dc9e31a8d2fb5ef6a9705cbf2ec22c9" target="_top" xlink:title="Returns a deep clone of this attachment point.">
<polygon fill="white" stroke="black" points="187.5,-137.5 187.5,-167.5 322.5,-167.5 322.5,-137.5 187.5,-137.5"/>
<text text-anchor="start" x="195.5" y="-155.5" font-family="Helvetica,sans-Serif" font-size="10.00">denoptim.graph.Attachment</text>
<text text-anchor="middle" x="255" y="-144.5" font-family="Helvetica,sans-Serif" font-size="10.00">Point.clone</text>
</a>
</g>
</g>
<!-- Node1&#45;&gt;Node2 -->
<g id="edge2" class="edge">
<title>Node1&#45;&gt;Node2</title>
<path fill="none" stroke="midnightblue" d="M105.3,-96.54C126.21,-105.9 153.98,-117.95 179,-127.5 184.81,-129.72 190.9,-131.93 197.01,-134.08"/>
<polygon fill="midnightblue" stroke="midnightblue" points="195.98,-137.42 206.57,-137.38 198.26,-130.8 195.98,-137.42"/>
</g>
<!-- Node7 -->
<g id="node7" class="node">
<title>Node7</title>
<g id="a_node7"><a xlink:href="classdenoptim_1_1graph_1_1_vertex.html#a6615f1c869173b8bd6d730c6683b9de4" target="_top" xlink:title="Returns the graph this vertex belongs to or null.">
<polygon fill="white" stroke="black" points="191,-88.5 191,-118.5 319,-118.5 319,-88.5 191,-88.5"/>
<text text-anchor="start" x="199" y="-106.5" font-family="Helvetica,sans-Serif" font-size="10.00">denoptim.graph.Vertex.get</text>
<text text-anchor="middle" x="255" y="-95.5" font-family="Helvetica,sans-Serif" font-size="10.00">GraphOwner</text>
</a>
</g>
</g>
<!-- Node1&#45;&gt;Node7 -->
<g id="edge7" class="edge">
<title>Node1&#45;&gt;Node7</title>
<path fill="none" stroke="midnightblue" d="M143.19,-90.07C155.48,-91.56 168.28,-93.11 180.64,-94.61"/>
<polygon fill="midnightblue" stroke="midnightblue" points="180.54,-98.12 190.89,-95.85 181.38,-91.17 180.54,-98.12"/>
</g>
<!-- Node8 -->
<g id="node8" class="node">
<title>Node8</title>
<g id="a_node8"><a xlink:href="classdenoptim_1_1graph_1_1_a_p_tree_map.html#a9e1e1c1dd87ebfb469b6c705c00038b6" target="_top" xlink:title=" ">
<polygon fill="white" stroke="black" points="179,-50 179,-69 331,-69 331,-50 179,-50"/>
<text text-anchor="middle" x="255" y="-57" font-family="Helvetica,sans-Serif" font-size="10.00">denoptim.graph.APTreeMap.put</text>
</a>
</g>
</g>
<!-- Node1&#45;&gt;Node8 -->
<g id="edge8" class="edge">
<title>Node1&#45;&gt;Node8</title>
<path fill="none" stroke="midnightblue" d="M143.19,-72.93C151.56,-71.92 160.17,-70.87 168.72,-69.84"/>
<polygon fill="midnightblue" stroke="midnightblue" points="169.19,-73.31 178.7,-68.63 168.35,-66.36 169.19,-73.31"/>
</g>
<!-- Node9 -->
<g id="node9" class="node">
<title>Node9</title>
<g id="a_node9"><a xlink:href="classdenoptim_1_1graph_1_1_attachment_point.html#a76bfbe6cc3918c114c73974b2fe4e59d" target="_top" xlink:title="Sets the reference to the vertex that owns this attachment point.">
<polygon fill="white" stroke="black" points="187.5,-0.5 187.5,-30.5 322.5,-30.5 322.5,-0.5 187.5,-0.5"/>
<text text-anchor="start" x="195.5" y="-18.5" font-family="Helvetica,sans-Serif" font-size="10.00">denoptim.graph.Attachment</text>
<text text-anchor="middle" x="255" y="-7.5" font-family="Helvetica,sans-Serif" font-size="10.00">Point.setOwner</text>
</a>
</g>
</g>
<!-- Node1&#45;&gt;Node9 -->
<g id="edge9" class="edge">
<title>Node1&#45;&gt;Node9</title>
<path fill="none" stroke="midnightblue" d="M110.3,-66.47C130.58,-58.52 156.06,-48.73 179,-40.5 185.25,-38.26 191.81,-35.97 198.35,-33.73"/>
<polygon fill="midnightblue" stroke="midnightblue" points="199.53,-37.03 207.88,-30.51 197.28,-30.4 199.53,-37.03"/>
</g>
<!-- Node3 -->
<g id="node3" class="node">
<title>Node3</title>
<g id="a_node3"><a xlink:href="classdenoptim_1_1graph_1_1_attachment_point.html#a087f6102f1c542587ec2ec3c2240041f" target="_top" xlink:title="Constructor for undefined DENOPTIMAttachmentPoint.">
<polygon fill="white" stroke="black" points="374,-203.5 374,-233.5 509,-233.5 509,-203.5 374,-203.5"/>
<text text-anchor="start" x="382" y="-221.5" font-family="Helvetica,sans-Serif" font-size="10.00">denoptim.graph.Attachment</text>
<text text-anchor="middle" x="441.5" y="-210.5" font-family="Helvetica,sans-Serif" font-size="10.00">Point.AttachmentPoint</text>
</a>
</g>
</g>
<!-- Node2&#45;&gt;Node3 -->
<g id="edge3" class="edge">
<title>Node2&#45;&gt;Node3</title>
<path fill="none" stroke="midnightblue" d="M295.98,-167.55C317.06,-175.42 343.38,-185.12 367,-193.5 373.23,-195.71 379.77,-197.99 386.28,-200.23"/>
<polygon fill="midnightblue" stroke="midnightblue" points="385.14,-203.55 395.74,-203.48 387.41,-196.92 385.14,-203.55"/>
</g>
<!-- Node4 -->
<g id="node4" class="node">
<title>Node4</title>
<g id="a_node4"><a xlink:href="classdenoptim_1_1graph_1_1_a_p_class.html#a1781af804ce3ff7b7ed2d681fd1eeae3" target="_top" xlink:title="WARNING: this method does NOT clone! It just returns the reference to this.">
<polygon fill="white" stroke="black" points="367,-165 367,-184 516,-184 516,-165 367,-165"/>
<text text-anchor="middle" x="441.5" y="-172" font-family="Helvetica,sans-Serif" font-size="10.00">denoptim.graph.APClass.clone</text>
</a>
</g>
</g>
<!-- Node2&#45;&gt;Node4 -->
<g id="edge4" class="edge">
<title>Node2&#45;&gt;Node4</title>
<path fill="none" stroke="midnightblue" d="M322.61,-160.44C333.71,-161.77 345.34,-163.15 356.8,-164.52"/>
<polygon fill="midnightblue" stroke="midnightblue" points="356.46,-168 366.8,-165.71 357.29,-161.05 356.46,-168"/>
</g>
<!-- Node5 -->
<g id="node5" class="node">
<title>Node5</title>
<g id="a_node5"><a xlink:href="classdenoptim_1_1graph_1_1_attachment_point.html#ac8551521d38644f5109800b665957ee9" target="_top" xlink:title=" ">
<polygon fill="white" stroke="black" points="374,-115.5 374,-145.5 509,-145.5 509,-115.5 374,-115.5"/>
<text text-anchor="start" x="382" y="-133.5" font-family="Helvetica,sans-Serif" font-size="10.00">denoptim.graph.Attachment</text>
<text text-anchor="middle" x="441.5" y="-122.5" font-family="Helvetica,sans-Serif" font-size="10.00">Point.getOwner</text>
</a>
</g>
</g>
<!-- Node2&#45;&gt;Node5 -->
<g id="edge5" class="edge">
<title>Node2&#45;&gt;Node5</title>
<path fill="none" stroke="midnightblue" d="M322.61,-144.56C335.93,-142.97 350.03,-141.29 363.67,-139.66"/>
<polygon fill="midnightblue" stroke="midnightblue" points="364.47,-143.09 373.99,-138.43 363.64,-136.14 364.47,-143.09"/>
</g>
<!-- Node6 -->
<g id="node6" class="node">
<title>Node6</title>
<g id="a_node6"><a xlink:href="classdenoptim_1_1graph_1_1_attachment_point.html#af58c1eca18c36403992fc01d2e08fc03" target="_top" xlink:title=" ">
<polygon fill="white" stroke="black" points="374,-66.5 374,-96.5 509,-96.5 509,-66.5 374,-66.5"/>
<text text-anchor="start" x="382" y="-84.5" font-family="Helvetica,sans-Serif" font-size="10.00">denoptim.graph.Attachment</text>
<text text-anchor="middle" x="441.5" y="-73.5" font-family="Helvetica,sans-Serif" font-size="10.00">Point.setProperty</text>
</a>
</g>
</g>
<!-- Node2&#45;&gt;Node6 -->
<g id="edge6" class="edge">
<title>Node2&#45;&gt;Node6</title>
<path fill="none" stroke="midnightblue" d="M306.64,-137.37C314.91,-134.4 323.28,-131.09 331,-127.5 348,-119.6 349.97,-113.35 367,-105.5 371.09,-103.62 375.37,-101.81 379.71,-100.1"/>
<polygon fill="midnightblue" stroke="midnightblue" points="381.16,-103.3 389.3,-96.51 378.7,-96.74 381.16,-103.3"/>
</g>
</g>
</svg>
