<?xml version="1.0" encoding="UTF-8" standalone="no"?>
<!DOCTYPE svg PUBLIC "-//W3C//DTD SVG 1.1//EN"
 "http://www.w3.org/Graphics/SVG/1.1/DTD/svg11.dtd">
<!-- Generated by graphviz version 3.0.0 (20221109.1736)
 -->
<!-- Title: denoptim.ga.Population.XoverSitesAmongCandidates.put Pages: 1 -->
<svg width="527pt" height="39pt"
 viewBox="0.00 0.00 527.00 39.00" xmlns="http://www.w3.org/2000/svg" xmlns:xlink="http://www.w3.org/1999/xlink">
<g id="graph0" class="graph" transform="scale(1 1) rotate(0) translate(4 35)">
<title>denoptim.ga.Population.XoverSitesAmongCandidates.put</title>
<polygon fill="white" stroke="transparent" points="-4,4 -4,-35 523,-35 523,4 -4,4"/>
<!-- Node1 -->
<g id="node1" class="node">
<title>Node1</title>
<g id="a_node1"><a xlink:title="Creates the entry corresponding to the pair of given candidates.">
<polygon fill="#bfbfbf" stroke="black" points="0,-0.5 0,-30.5 145,-30.5 145,-0.5 0,-0.5"/>
<text text-anchor="start" x="8" y="-18.5" font-family="Helvetica,sans-Serif" font-size="10.00">denoptim.ga.Population.Xover</text>
<text text-anchor="middle" x="72.5" y="-7.5" font-family="Helvetica,sans-Serif" font-size="10.00">SitesAmongCandidates.put</text>
</a>
</g>
</g>
<!-- Node2 -->
<g id="node2" class="node">
<title>Node2</title>
<g id="a_node2"><a xlink:href="classdenoptim_1_1ga_1_1_xover_site.html#a91d470661642274184e6ef634e899720" target="_top" xlink:title="Creates a new XoverSite that considers the opposite order of candidates of this one.">
<polygon fill="white" stroke="black" points="181,-0.5 181,-30.5 324,-30.5 324,-0.5 181,-0.5"/>
<text text-anchor="start" x="189" y="-18.5" font-family="Helvetica,sans-Serif" font-size="10.00">denoptim.ga.XoverSite.create</text>
<text text-anchor="middle" x="252.5" y="-7.5" font-family="Helvetica,sans-Serif" font-size="10.00">Mirror</text>
</a>
</g>
</g>
<!-- Node1&#45;&gt;Node2 -->
<g id="edge1" class="edge">
<title>Node1&#45;&gt;Node2</title>
<path fill="none" stroke="midnightblue" d="M145.13,-15.5C153.6,-15.5 162.29,-15.5 170.88,-15.5"/>
<polygon fill="midnightblue" stroke="midnightblue" points="170.89,-19 180.89,-15.5 170.89,-12 170.89,-19"/>
</g>
<!-- Node3 -->
<g id="node3" class="node">
<title>Node3</title>
<g id="a_node3"><a xlink:href="classdenoptim_1_1ga_1_1_xover_site.html#a27acc7df9dde2a24dacdcef15339e133" target="_top" xlink:title="Initiate an empty data structure.">
<polygon fill="white" stroke="black" points="360,-6 360,-25 519,-25 519,-6 360,-6"/>
<text text-anchor="middle" x="439.5" y="-13" font-family="Helvetica,sans-Serif" font-size="10.00">denoptim.ga.XoverSite.XoverSite</text>
</a>
</g>
</g>
<!-- Node2&#45;&gt;Node3 -->
<g id="edge2" class="edge">
<title>Node2&#45;&gt;Node3</title>
<path fill="none" stroke="midnightblue" d="M324.23,-15.5C332.59,-15.5 341.2,-15.5 349.77,-15.5"/>
<polygon fill="midnightblue" stroke="midnightblue" points="349.78,-19 359.78,-15.5 349.78,-12 349.78,-19"/>
</g>
</g>
</svg>
