<?xml version="1.0" encoding="UTF-8" standalone="no"?>
<!DOCTYPE svg PUBLIC "-//W3C//DTD SVG 1.1//EN"
 "http://www.w3.org/Graphics/SVG/1.1/DTD/svg11.dtd">
<!-- Generated by graphviz version 3.0.0 (20221109.1736)
 -->
<!-- Title: denoptim.programs.denovo.GAParameters.getDataDirectory Pages: 1 -->
<!--zoomable 312 -->
<svg id="main" version="1.1" xmlns="http://www.w3.org/2000/svg" xmlns:xlink="http://www.w3.org/1999/xlink" xml:space="preserve" onload="init(evt)">
<style type="text/css"><![CDATA[
.edge:hover path { stroke: red; }
.edge:hover polygon { stroke: red; fill: red; }
]]></style>
<script type="text/javascript"><![CDATA[
var edges = document.getElementsByTagName('g');
if (edges && edges.length) {
  for (var i=0;i<edges.length;i++) {
    if (edges[i].id.substr(0,4)=='edge') {
      edges[i].setAttribute('class','edge');
    }
  }
}
]]></script>
        <defs>
                <circle id="rim" cx="0" cy="0" r="7"/>
                <circle id="rim2" cx="0" cy="0" r="3.5"/>
                <g id="zoomPlus">
                        <use xlink:href="#rim" fill="#404040">
                                <set attributeName="fill" to="#808080" begin="zoomplus.mouseover" end="zoomplus.mouseout"/>
                        </use>
                        <path d="M-4,0h8M0,-4v8" fill="none" stroke="white" stroke-width="1.5" pointer-events="none"/>
                </g>
                <g id="zoomMin">
                        <use xlink:href="#rim" fill="#404040">
                                <set attributeName="fill" to="#808080" begin="zoomminus.mouseover" end="zoomminus.mouseout"/>
                        </use>
                        <path d="M-4,0h8" fill="none" stroke="white" stroke-width="1.5" pointer-events="none"/>
                </g>
                <g id="dirArrow">
                        <path fill="none" stroke="white" stroke-width="1.5" d="M0,-3.0v7 M-2.5,-0.5L0,-3.0L2.5,-0.5"/>
                </g>
               <g id="resetDef">
                       <use xlink:href="#rim2" fill="#404040">
                               <set attributeName="fill" to="#808080" begin="reset.mouseover" end="reset.mouseout"/>
                       </use>
               </g>
        </defs>

<script type="text/javascript">
var viewWidth = 1107;
var viewHeight = 312;
var sectionId = 'dynsection-13';
</script>
<script xlink:href="svgpan.js"/>
<svg id="graph" class="graph">
<g id="viewport">
<title>denoptim.programs.denovo.GAParameters.getDataDirectory</title>
<polygon fill="white" stroke="transparent" points="-4,4 -4,-308 1103,-308 1103,4 -4,4"/>
<!-- Node1 -->
<g id="node1" class="node">
<title>Node1</title>
<g id="a_node1"><a xlink:title=" ">
<polygon fill="#bfbfbf" stroke="black" points="944,-175.5 944,-205.5 1099,-205.5 1099,-175.5 944,-175.5"/>
<text text-anchor="start" x="952" y="-193.5" font-family="Helvetica,sans-Serif" font-size="10.00">denoptim.programs.denovo.</text>
<text text-anchor="middle" x="1021.5" y="-182.5" font-family="Helvetica,sans-Serif" font-size="10.00">GAParameters.getDataDirectory</text>
</a>
</g>
</g>
<!-- Node2 -->
<g id="node2" class="node">
<title>Node2</title>
<g id="a_node2"><a xlink:href="classdenoptim_1_1ga_1_1_e_a_utils.html#ad39481eb0dbcd086533e464e7a5215c2" target="_top" xlink:title=" ">
<polygon fill="white" stroke="black" points="741,-273.5 741,-303.5 908,-303.5 908,-273.5 741,-273.5"/>
<text text-anchor="start" x="749" y="-291.5" font-family="Helvetica,sans-Serif" font-size="10.00">denoptim.ga.EAUtils.getPath</text>
<text text-anchor="middle" x="824.5" y="-280.5" font-family="Helvetica,sans-Serif" font-size="10.00">NameToFinalPopulationDetailsFile</text>
</a>
</g>
</g>
<!-- Node1&#45;&gt;Node2 -->
<g id="edge1" class="edge">
<title>Node1&#45;&gt;Node2</title>
<path fill="none" stroke="midnightblue" d="M993.05,-211.94C971.07,-228.24 938.92,-250.23 908,-264.5 900.82,-267.81 893.08,-270.78 885.32,-273.41"/>
<polygon fill="midnightblue" stroke="midnightblue" points="995.35,-214.59 1001.24,-205.78 991.14,-208.99 995.35,-214.59"/>
</g>
<!-- Node7 -->
<g id="node7" class="node">
<title>Node7</title>
<g id="a_node7"><a xlink:href="classdenoptim_1_1ga_1_1_e_a_utils.html#a49c400fc7999f4db03f824bce500c5f1" target="_top" xlink:title=" ">
<polygon fill="white" stroke="black" points="750.5,-224.5 750.5,-254.5 898.5,-254.5 898.5,-224.5 750.5,-224.5"/>
<text text-anchor="start" x="758.5" y="-242.5" font-family="Helvetica,sans-Serif" font-size="10.00">denoptim.ga.EAUtils.getPath</text>
<text text-anchor="middle" x="824.5" y="-231.5" font-family="Helvetica,sans-Serif" font-size="10.00">NameToFinalPopulationFolder</text>
</a>
</g>
</g>
<!-- Node1&#45;&gt;Node7 -->
<g id="edge6" class="edge">
<title>Node1&#45;&gt;Node7</title>
<path fill="none" stroke="midnightblue" d="M950.95,-207.98C929.46,-213.38 905.99,-219.28 885.22,-224.49"/>
<polygon fill="midnightblue" stroke="midnightblue" points="951.82,-211.37 960.67,-205.53 950.12,-204.58 951.82,-211.37"/>
</g>
<!-- Node8 -->
<g id="node8" class="node">
<title>Node8</title>
<g id="a_node8"><a xlink:href="classdenoptim_1_1ga_1_1_e_a_utils.html#aeb642f3a46a239c05e36bf385e7f5243" target="_top" xlink:title=" ">
<polygon fill="white" stroke="black" points="751,-175.5 751,-205.5 898,-205.5 898,-175.5 751,-175.5"/>
<text text-anchor="start" x="759" y="-193.5" font-family="Helvetica,sans-Serif" font-size="10.00">denoptim.ga.EAUtils.getPath</text>
<text text-anchor="middle" x="824.5" y="-182.5" font-family="Helvetica,sans-Serif" font-size="10.00">NameToGenerationDetailsFile</text>
</a>
</g>
</g>
<!-- Node1&#45;&gt;Node8 -->
<g id="edge8" class="edge">
<title>Node1&#45;&gt;Node8</title>
<path fill="none" stroke="midnightblue" d="M933.67,-190.5C921.85,-190.5 909.82,-190.5 898.28,-190.5"/>
<polygon fill="midnightblue" stroke="midnightblue" points="933.99,-194 943.99,-190.5 933.99,-187 933.99,-194"/>
</g>
<!-- Node10 -->
<g id="node10" class="node">
<title>Node10</title>
<g id="a_node10"><a xlink:href="classdenoptim_1_1ga_1_1_e_a_utils.html#ad094b30fa7e429418af3f5ba26addfa4" target="_top" xlink:title=" ">
<polygon fill="white" stroke="black" points="754.5,-126.5 754.5,-156.5 894.5,-156.5 894.5,-126.5 754.5,-126.5"/>
<text text-anchor="start" x="762.5" y="-144.5" font-family="Helvetica,sans-Serif" font-size="10.00">denoptim.ga.EAUtils.getPath</text>
<text text-anchor="middle" x="824.5" y="-133.5" font-family="Helvetica,sans-Serif" font-size="10.00">NameToGenerationFolder</text>
</a>
</g>
</g>
<!-- Node1&#45;&gt;Node10 -->
<g id="edge11" class="edge">
<title>Node1&#45;&gt;Node10</title>
<path fill="none" stroke="midnightblue" d="M950.95,-173.02C929.46,-167.62 905.99,-161.72 885.22,-156.51"/>
<polygon fill="midnightblue" stroke="midnightblue" points="950.12,-176.42 960.67,-175.47 951.82,-169.63 950.12,-176.42"/>
</g>
<!-- Node16 -->
<g id="node16" class="node">
<title>Node16</title>
<g id="a_node16"><a xlink:href="classdenoptim_1_1programs_1_1denovo_1_1_g_a_parameters_test.html#a5f81adfed5156347b58d54172f7618d8" target="_top" xlink:title=" ">
<polygon fill="white" stroke="black" points="747.5,-77.5 747.5,-107.5 901.5,-107.5 901.5,-77.5 747.5,-77.5"/>
<text text-anchor="start" x="755.5" y="-95.5" font-family="Helvetica,sans-Serif" font-size="10.00">denoptim.programs.denovo.</text>
<text text-anchor="middle" x="824.5" y="-84.5" font-family="Helvetica,sans-Serif" font-size="10.00">GAParametersTest.testLogging</text>
</a>
</g>
</g>
<!-- Node1&#45;&gt;Node16 -->
<g id="edge23" class="edge">
<title>Node1&#45;&gt;Node16</title>
<path fill="none" stroke="midnightblue" d="M992.56,-169.18C970.55,-153.19 938.57,-131.7 908,-117.5 899.99,-113.78 891.29,-110.45 882.65,-107.52"/>
<polygon fill="midnightblue" stroke="midnightblue" points="990.64,-172.12 1000.77,-175.23 994.79,-166.48 990.64,-172.12"/>
</g>
<!-- Node3 -->
<g id="node3" class="node">
<title>Node3</title>
<g id="a_node3"><a xlink:href="classdenoptim_1_1ga_1_1_e_a_utils.html#a01ee989f992e0cff04e3498b63d6c0b0" target="_top" xlink:title="Saves the final results to disk.">
<polygon fill="white" stroke="black" points="548.5,-263.5 548.5,-293.5 682.5,-293.5 682.5,-263.5 548.5,-263.5"/>
<text text-anchor="start" x="556.5" y="-281.5" font-family="Helvetica,sans-Serif" font-size="10.00">denoptim.ga.EAUtils.output</text>
<text text-anchor="middle" x="615.5" y="-270.5" font-family="Helvetica,sans-Serif" font-size="10.00">FinalResults</text>
</a>
</g>
</g>
<!-- Node2&#45;&gt;Node3 -->
<g id="edge2" class="edge">
<title>Node2&#45;&gt;Node3</title>
<path fill="none" stroke="midnightblue" d="M730.73,-284.02C714.47,-283.23 697.86,-282.43 682.51,-281.69"/>
<polygon fill="midnightblue" stroke="midnightblue" points="730.64,-287.52 740.8,-284.5 730.98,-280.53 730.64,-287.52"/>
</g>
<!-- Node4 -->
<g id="node4" class="node">
<title>Node4</title>
<g id="a_node4"><a xlink:href="classdenoptim_1_1ga_1_1_evolutionary_algorithm.html#a6bfc2fa59b199da6259b5b6bad3d6de7" target="_top" xlink:title=" ">
<polygon fill="white" stroke="black" points="190,-120.5 190,-150.5 314,-150.5 314,-120.5 190,-120.5"/>
<text text-anchor="start" x="198" y="-138.5" font-family="Helvetica,sans-Serif" font-size="10.00">denoptim.ga.Evolutionary</text>
<text text-anchor="middle" x="252" y="-127.5" font-family="Helvetica,sans-Serif" font-size="10.00">Algorithm.run</text>
</a>
</g>
</g>
<!-- Node3&#45;&gt;Node4 -->
<g id="edge3" class="edge">
<title>Node3&#45;&gt;Node4</title>
<path fill="none" stroke="midnightblue" d="M538.26,-284.23C482.94,-285.09 407.96,-279.2 350,-248.5 307.28,-225.87 275.21,-176 261.03,-150.77"/>
<polygon fill="midnightblue" stroke="midnightblue" points="538.44,-287.73 548.35,-284 538.28,-280.73 538.44,-287.73"/>
</g>
<!-- Node5 -->
<g id="node5" class="node">
<title>Node5</title>
<g id="a_node5"><a xlink:href="classdenoptim_1_1ga_1_1_evolutionary_algorithm.html#a0f2063b722b7291daf83d62acaa683d3" target="_top" xlink:title=" ">
<polygon fill="white" stroke="black" points="0,-145.5 0,-175.5 154,-175.5 154,-145.5 0,-145.5"/>
<text text-anchor="start" x="8" y="-163.5" font-family="Helvetica,sans-Serif" font-size="10.00">denoptim.ga.Evolutionary</text>
<text text-anchor="middle" x="77" y="-152.5" font-family="Helvetica,sans-Serif" font-size="10.00">Algorithm.EvolutionaryAlgorithm</text>
</a>
</g>
</g>
<!-- Node4&#45;&gt;Node5 -->
<g id="edge4" class="edge">
<title>Node4&#45;&gt;Node5</title>
<path fill="none" stroke="midnightblue" d="M179.44,-145.84C171.09,-147.05 162.54,-148.28 154.12,-149.5"/>
<polygon fill="midnightblue" stroke="midnightblue" points="180.12,-149.28 189.52,-144.38 179.12,-142.35 180.12,-149.28"/>
</g>
<!-- Node6 -->
<g id="node6" class="node">
<title>Node6</title>
<g id="a_node6"><a xlink:href="classdenoptim_1_1programs_1_1denovo_1_1_g_a_runner.html#a7cafd6d78727b89dce3e2c8d06f0dd7c" target="_top" xlink:title=" ">
<polygon fill="white" stroke="black" points="9.5,-96.5 9.5,-126.5 144.5,-126.5 144.5,-96.5 9.5,-96.5"/>
<text text-anchor="start" x="17.5" y="-114.5" font-family="Helvetica,sans-Serif" font-size="10.00">denoptim.programs.denovo.</text>
<text text-anchor="middle" x="77" y="-103.5" font-family="Helvetica,sans-Serif" font-size="10.00">GARunner.runProgram</text>
</a>
</g>
</g>
<!-- Node4&#45;&gt;Node6 -->
<g id="edge5" class="edge">
<title>Node4&#45;&gt;Node6</title>
<path fill="none" stroke="midnightblue" d="M179.48,-125.58C167.92,-123.97 156,-122.32 144.57,-120.73"/>
<polygon fill="midnightblue" stroke="midnightblue" points="179.13,-129.06 189.52,-126.97 180.1,-122.13 179.13,-129.06"/>
</g>
<!-- Node7&#45;&gt;Node3 -->
<g id="edge7" class="edge">
<title>Node7&#45;&gt;Node3</title>
<path fill="none" stroke="midnightblue" d="M740.32,-255.17C721.18,-258.78 701.08,-262.56 682.77,-266.01"/>
<polygon fill="midnightblue" stroke="midnightblue" points="741.05,-258.6 750.23,-253.3 739.75,-251.72 741.05,-258.6"/>
</g>
<!-- Node8&#45;&gt;Node4 -->
<g id="edge9" class="edge">
<title>Node8&#45;&gt;Node4</title>
<path fill="none" stroke="midnightblue" d="M754.34,-207.61C738.25,-210.89 721.11,-213.82 705,-215.5 625.87,-223.76 604.75,-226.8 526,-215.5 440.2,-203.19 343.74,-170.16 291.55,-150.6"/>
<polygon fill="midnightblue" stroke="midnightblue" points="755.14,-211.02 764.21,-205.53 753.7,-204.17 755.14,-211.02"/>
</g>
<!-- Node9 -->
<g id="node9" class="node">
<title>Node9</title>
<g id="a_node9"><a xlink:href="classdenoptim_1_1io_1_1_denoptim_i_o_test.html#af5c2f9114881ebde82a83f922c0c23fe" target="_top" xlink:title=" ">
<polygon fill="white" stroke="black" points="536.5,-175.5 536.5,-205.5 694.5,-205.5 694.5,-175.5 536.5,-175.5"/>
<text text-anchor="start" x="544.5" y="-193.5" font-family="Helvetica,sans-Serif" font-size="10.00">denoptim.io.DenoptimIOTest.test</text>
<text text-anchor="middle" x="615.5" y="-182.5" font-family="Helvetica,sans-Serif" font-size="10.00">ReadGenerationFromSummary</text>
</a>
</g>
</g>
<!-- Node8&#45;&gt;Node9 -->
<g id="edge10" class="edge">
<title>Node8&#45;&gt;Node9</title>
<path fill="none" stroke="midnightblue" d="M740.46,-190.5C725.34,-190.5 709.62,-190.5 694.64,-190.5"/>
<polygon fill="midnightblue" stroke="midnightblue" points="740.81,-194 750.81,-190.5 740.81,-187 740.81,-194"/>
</g>
<!-- Node10&#45;&gt;Node9 -->
<g id="edge22" class="edge">
<title>Node10&#45;&gt;Node9</title>
<path fill="none" stroke="midnightblue" d="M749.98,-158.9C727.08,-164.32 702.04,-170.25 679.89,-175.49"/>
<polygon fill="midnightblue" stroke="midnightblue" points="751.06,-162.24 759.99,-156.53 749.45,-155.43 751.06,-162.24"/>
</g>
<!-- Node11 -->
<g id="node11" class="node">
<title>Node11</title>
<g id="a_node11"><a xlink:href="classdenoptim_1_1ga_1_1_e_a_utils.html#aab14b898988cd607e9d08f09f2ba10cb" target="_top" xlink:title="Creates a folder meant to hold all the data generated during a generation.">
<polygon fill="white" stroke="black" points="548.5,-126.5 548.5,-156.5 682.5,-156.5 682.5,-126.5 548.5,-126.5"/>
<text text-anchor="start" x="556.5" y="-144.5" font-family="Helvetica,sans-Serif" font-size="10.00">denoptim.ga.EAUtils.create</text>
<text text-anchor="middle" x="615.5" y="-133.5" font-family="Helvetica,sans-Serif" font-size="10.00">FolderForGeneration</text>
</a>
</g>
</g>
<!-- Node10&#45;&gt;Node11 -->
<g id="edge12" class="edge">
<title>Node10&#45;&gt;Node11</title>
<path fill="none" stroke="midnightblue" d="M744.15,-141.5C723.91,-141.5 702.36,-141.5 682.84,-141.5"/>
<polygon fill="midnightblue" stroke="midnightblue" points="744.28,-145 754.28,-141.5 744.28,-138 744.28,-145"/>
</g>
<!-- Node12 -->
<g id="node12" class="node">
<title>Node12</title>
<g id="a_node12"><a xlink:href="classdenoptim_1_1ga_1_1_evolutionary_algorithm.html#a596b2f5f0b097c5b67a6e5163bd6fe66" target="_top" xlink:title="Generates a given number of new candidate items and adds them to the current population.">
<polygon fill="white" stroke="black" points="353,-98.5 353,-128.5 487,-128.5 487,-98.5 353,-98.5"/>
<text text-anchor="start" x="361" y="-116.5" font-family="Helvetica,sans-Serif" font-size="10.00">denoptim.ga.Evolutionary</text>
<text text-anchor="middle" x="420" y="-105.5" font-family="Helvetica,sans-Serif" font-size="10.00">Algorithm.evolvePopulation</text>
</a>
</g>
</g>
<!-- Node10&#45;&gt;Node12 -->
<g id="edge16" class="edge">
<title>Node10&#45;&gt;Node12</title>
<path fill="none" stroke="midnightblue" d="M750.31,-124.47C735.39,-121.62 719.75,-119.08 705,-117.5 630.72,-109.53 544.9,-109.59 487.2,-110.97"/>
<polygon fill="midnightblue" stroke="midnightblue" points="750.01,-127.98 760.5,-126.48 751.36,-121.11 750.01,-127.98"/>
</g>
<!-- Node13 -->
<g id="node13" class="node">
<title>Node13</title>
<g id="a_node13"><a xlink:href="classdenoptim_1_1ga_1_1_e_a_utils.html#aecbe9af608218e129a006ddae17ac66b" target="_top" xlink:title="Reads unique identifiers and initial population file according to the GAParameters.">
<polygon fill="white" stroke="black" points="353,-49.5 353,-79.5 487,-79.5 487,-49.5 353,-49.5"/>
<text text-anchor="start" x="361" y="-67.5" font-family="Helvetica,sans-Serif" font-size="10.00">denoptim.ga.EAUtils.import</text>
<text text-anchor="middle" x="420" y="-56.5" font-family="Helvetica,sans-Serif" font-size="10.00">InitialPopulation</text>
</a>
</g>
</g>
<!-- Node10&#45;&gt;Node13 -->
<g id="edge17" class="edge">
<title>Node10&#45;&gt;Node13</title>
<path fill="none" stroke="midnightblue" d="M760.82,-123.54C754.12,-121.54 747.41,-119.5 741,-117.5 724.9,-112.48 721.41,-109.39 705,-105.5 631.32,-88.05 545.01,-76.87 487.05,-70.66"/>
<polygon fill="midnightblue" stroke="midnightblue" points="760.01,-126.95 770.6,-126.44 762,-120.24 760.01,-126.95"/>
</g>
<!-- Node14 -->
<g id="node14" class="node">
<title>Node14</title>
<g id="a_node14"><a xlink:href="classdenoptim_1_1ga_1_1_evolutionary_algorithm.html#a5288db1eb3c645ed5b3cb33430c62bdf" target="_top" xlink:title=" ">
<polygon fill="white" stroke="black" points="526,-0.5 526,-30.5 705,-30.5 705,-0.5 526,-0.5"/>
<text text-anchor="start" x="534" y="-18.5" font-family="Helvetica,sans-Serif" font-size="10.00">denoptim.ga.Evolutionary</text>
<text text-anchor="middle" x="615.5" y="-7.5" font-family="Helvetica,sans-Serif" font-size="10.00">Algorithm.processInitialPopCandidate</text>
</a>
</g>
</g>
<!-- Node10&#45;&gt;Node14 -->
<g id="edge19" class="edge">
<title>Node10&#45;&gt;Node14</title>
<path fill="none" stroke="midnightblue" d="M745.83,-121.17C744.16,-120.01 742.55,-118.79 741,-117.5 713.52,-94.59 731.97,-69.01 705,-45.5 698.03,-39.42 689.78,-34.57 681.16,-30.68"/>
<polygon fill="midnightblue" stroke="midnightblue" points="744.2,-124.27 754.57,-126.41 747.8,-118.27 744.2,-124.27"/>
</g>
<!-- Node11&#45;&gt;Node4 -->
<g id="edge15" class="edge">
<title>Node11&#45;&gt;Node4</title>
<path fill="none" stroke="midnightblue" d="M538.16,-141.03C485.32,-140.61 413.38,-139.84 350,-138.5 338.38,-138.25 325.97,-137.92 314.05,-137.57"/>
<polygon fill="midnightblue" stroke="midnightblue" points="538.43,-144.53 548.46,-141.11 538.49,-137.53 538.43,-144.53"/>
</g>
<!-- Node11&#45;&gt;Node12 -->
<g id="edge13" class="edge">
<title>Node11&#45;&gt;Node12</title>
<path fill="none" stroke="midnightblue" d="M538.08,-130.44C521.22,-128 503.49,-125.44 487.08,-123.06"/>
<polygon fill="midnightblue" stroke="midnightblue" points="538.05,-133.97 548.45,-131.94 539.05,-127.05 538.05,-133.97"/>
</g>
<!-- Node12&#45;&gt;Node4 -->
<g id="edge14" class="edge">
<title>Node12&#45;&gt;Node4</title>
<path fill="none" stroke="midnightblue" d="M342.9,-123.59C333.21,-124.87 323.41,-126.17 314.01,-127.41"/>
<polygon fill="midnightblue" stroke="midnightblue" points="343.46,-127.04 352.92,-122.26 342.54,-120.1 343.46,-127.04"/>
</g>
<!-- Node13&#45;&gt;Node4 -->
<g id="edge18" class="edge">
<title>Node13&#45;&gt;Node4</title>
<path fill="none" stroke="midnightblue" d="M365.73,-83.22C360.39,-85.27 355.07,-87.38 350,-89.5 327.12,-99.04 301.83,-111.09 282.82,-120.46"/>
<polygon fill="midnightblue" stroke="midnightblue" points="367.2,-86.41 375.32,-79.61 364.73,-79.86 367.2,-86.41"/>
</g>
<!-- Node15 -->
<g id="node15" class="node">
<title>Node15</title>
<g id="a_node15"><a xlink:href="classdenoptim_1_1ga_1_1_evolutionary_algorithm.html#ad43588620dab3340e0d8b0042ec73618" target="_top" xlink:title="Fills up the population with candidates build from scratch.">
<polygon fill="white" stroke="black" points="350,-0.5 350,-30.5 490,-30.5 490,-0.5 350,-0.5"/>
<text text-anchor="start" x="358" y="-18.5" font-family="Helvetica,sans-Serif" font-size="10.00">denoptim.ga.Evolutionary</text>
<text text-anchor="middle" x="420" y="-7.5" font-family="Helvetica,sans-Serif" font-size="10.00">Algorithm.initializePopulation</text>
</a>
</g>
</g>
<!-- Node14&#45;&gt;Node15 -->
<g id="edge20" class="edge">
<title>Node14&#45;&gt;Node15</title>
<path fill="none" stroke="midnightblue" d="M515.78,-15.5C507.1,-15.5 498.44,-15.5 490.08,-15.5"/>
<polygon fill="midnightblue" stroke="midnightblue" points="515.96,-19 525.96,-15.5 515.96,-12 515.96,-19"/>
</g>
<!-- Node15&#45;&gt;Node4 -->
<g id="edge21" class="edge">
<title>Node15&#45;&gt;Node4</title>
<path fill="none" stroke="midnightblue" d="M358.15,-34.9C355.34,-36.34 352.61,-37.87 350,-39.5 314.21,-61.81 281.3,-99.51 264.56,-120.41"/>
<polygon fill="midnightblue" stroke="midnightblue" points="359.76,-38.01 367.32,-30.59 356.78,-31.67 359.76,-38.01"/>
</g>
</g>
</svg>
        <g id="navigator" transform="translate(0 0)" fill="#404254">
                <rect fill="#f2f5e9" fill-opacity="0.5" stroke="#606060" stroke-width=".5" x="0" y="0" width="60" height="60"/>
                <use id="zoomplus" xlink:href="#zoomPlus" x="17" y="9" onmousedown="handleZoom(evt,'in')"/>
                <use id="zoomminus" xlink:href="#zoomMin" x="42" y="9" onmousedown="handleZoom(evt,'out')"/>
                <use id="reset" xlink:href="#resetDef" x="30" y="36" onmousedown="handleReset()"/>
                <g id="arrowUp" xlink:href="#dirArrow" transform="translate(30 24)" onmousedown="handlePan(0,-1)">
                  <use xlink:href="#rim" fill="#404040">
                        <set attributeName="fill" to="#808080" begin="arrowUp.mouseover" end="arrowUp.mouseout"/>
                  </use>
                  <path fill="none" stroke="white" stroke-width="1.5" d="M0,-3.0v7 M-2.5,-0.5L0,-3.0L2.5,-0.5"/>
                </g>
                <g id="arrowRight" xlink:href="#dirArrow" transform="rotate(90) translate(36 -43)" onmousedown="handlePan(1,0)">
                  <use xlink:href="#rim" fill="#404040">
                        <set attributeName="fill" to="#808080" begin="arrowRight.mouseover" end="arrowRight.mouseout"/>
                  </use>
                  <path fill="none" stroke="white" stroke-width="1.5" d="M0,-3.0v7 M-2.5,-0.5L0,-3.0L2.5,-0.5"/>
                </g>
                <g id="arrowDown" xlink:href="#dirArrow" transform="rotate(180) translate(-30 -48)" onmousedown="handlePan(0,1)">
                  <use xlink:href="#rim" fill="#404040">
                        <set attributeName="fill" to="#808080" begin="arrowDown.mouseover" end="arrowDown.mouseout"/>
                  </use>
                  <path fill="none" stroke="white" stroke-width="1.5" d="M0,-3.0v7 M-2.5,-0.5L0,-3.0L2.5,-0.5"/>
                </g>
                <g id="arrowLeft" xlink:href="#dirArrow" transform="rotate(270) translate(-36 17)" onmousedown="handlePan(-1,0)">
                  <use xlink:href="#rim" fill="#404040">
                        <set attributeName="fill" to="#808080" begin="arrowLeft.mouseover" end="arrowLeft.mouseout"/>
                  </use>
                  <path fill="none" stroke="white" stroke-width="1.5" d="M0,-3.0v7 M-2.5,-0.5L0,-3.0L2.5,-0.5"/>
                </g>
        </g>
        <svg viewBox="0 0 15 15" width="100%" height="30px" preserveAspectRatio="xMaxYMin meet">
         <g id="arrow_out" transform="scale(0.3 0.3)">
          <a xlink:href="classdenoptim_1_1programs_1_1denovo_1_1_g_a_parameters_a2cbfb524deabf9890bd1bd12b87c6bac_icgraph_org.svg" target="_base">
           <rect id="button" ry="5" rx="5" y="6" x="6" height="38" width="38"
                fill="#f2f5e9" fill-opacity="0.5" stroke="#606060" stroke-width="1.0"/>
           <path id="arrow"
             d="M 11.500037,31.436501 C 11.940474,20.09759 22.043105,11.32322 32.158766,21.979434 L 37.068811,17.246167 C 37.068811,17.246167 37.088388,32 37.088388,32 L 22.160133,31.978069 C 22.160133,31.978069 26.997745,27.140456 26.997745,27.140456 C 18.528582,18.264221 13.291696,25.230495 11.500037,31.436501 z"
             style="fill:#404040;"/>
          </a>
         </g>
        </svg>
</svg>
