<?xml version="1.0" encoding="UTF-8" standalone="no"?>
<!DOCTYPE svg PUBLIC "-//W3C//DTD SVG 1.1//EN"
 "http://www.w3.org/Graphics/SVG/1.1/DTD/svg11.dtd">
<!-- Generated by graphviz version 3.0.0 (20221109.1736)
 -->
<!-- Title: denoptim.fitness.DescriptorForFitness.addDependentVariable Pages: 1 -->
<!--zoomable 240 -->
<svg id="main" version="1.1" xmlns="http://www.w3.org/2000/svg" xmlns:xlink="http://www.w3.org/1999/xlink" xml:space="preserve" onload="init(evt)">
<style type="text/css"><![CDATA[
.edge:hover path { stroke: red; }
.edge:hover polygon { stroke: red; fill: red; }
]]></style>
<script type="text/javascript"><![CDATA[
var edges = document.getElementsByTagName('g');
if (edges && edges.length) {
  for (var i=0;i<edges.length;i++) {
    if (edges[i].id.substr(0,4)=='edge') {
      edges[i].setAttribute('class','edge');
    }
  }
}
]]></script>
        <defs>
                <circle id="rim" cx="0" cy="0" r="7"/>
                <circle id="rim2" cx="0" cy="0" r="3.5"/>
                <g id="zoomPlus">
                        <use xlink:href="#rim" fill="#404040">
                                <set attributeName="fill" to="#808080" begin="zoomplus.mouseover" end="zoomplus.mouseout"/>
                        </use>
                        <path d="M-4,0h8M0,-4v8" fill="none" stroke="white" stroke-width="1.5" pointer-events="none"/>
                </g>
                <g id="zoomMin">
                        <use xlink:href="#rim" fill="#404040">
                                <set attributeName="fill" to="#808080" begin="zoomminus.mouseover" end="zoomminus.mouseout"/>
                        </use>
                        <path d="M-4,0h8" fill="none" stroke="white" stroke-width="1.5" pointer-events="none"/>
                </g>
                <g id="dirArrow">
                        <path fill="none" stroke="white" stroke-width="1.5" d="M0,-3.0v7 M-2.5,-0.5L0,-3.0L2.5,-0.5"/>
                </g>
               <g id="resetDef">
                       <use xlink:href="#rim2" fill="#404040">
                               <set attributeName="fill" to="#808080" begin="reset.mouseover" end="reset.mouseout"/>
                       </use>
               </g>
        </defs>

<script type="text/javascript">
var viewWidth = 758;
var viewHeight = 240;
var sectionId = 'dynsection-2';
</script>
<script xlink:href="svgpan.js"/>
<svg id="graph" class="graph">
<g id="viewport">
<title>denoptim.fitness.DescriptorForFitness.addDependentVariable</title>
<polygon fill="white" stroke="transparent" points="-4,4 -4,-236 754,-236 754,4 -4,4"/>
<!-- Node1 -->
<g id="node1" class="node">
<title>Node1</title>
<g id="a_node1"><a xlink:title="Append the reference to a variable that used data produced by the calculation of this descriptor.">
<polygon fill="#bfbfbf" stroke="black" points="587,-60 587,-90 750,-90 750,-60 587,-60"/>
<text text-anchor="start" x="595" y="-78" font-family="Helvetica,sans-Serif" font-size="10.00">denoptim.fitness.Descriptor</text>
<text text-anchor="middle" x="668.5" y="-67" font-family="Helvetica,sans-Serif" font-size="10.00">ForFitness.addDependentVariable</text>
</a>
</g>
</g>
<!-- Node2 -->
<g id="node2" class="node">
<title>Node2</title>
<g id="a_node2"><a xlink:href="classdenoptim_1_1fitness_1_1_fitness_expression_parser.html#a761cd46875eff5864f29dbb7f353bde7" target="_top" xlink:title="Parses the given expressions.">
<polygon fill="white" stroke="black" points="411,-109 411,-139 533,-139 533,-109 411,-109"/>
<text text-anchor="start" x="419" y="-127" font-family="Helvetica,sans-Serif" font-size="10.00">denoptim.fitness.Fitness</text>
<text text-anchor="middle" x="472" y="-116" font-family="Helvetica,sans-Serif" font-size="10.00">ExpressionParser.parse</text>
</a>
</g>
</g>
<!-- Node1&#45;&gt;Node2 -->
<g id="edge1" class="edge">
<title>Node1&#45;&gt;Node2</title>
<path fill="none" stroke="midnightblue" d="M597.84,-92.55C576.48,-97.93 553.19,-103.8 532.57,-108.99"/>
<polygon fill="midnightblue" stroke="midnightblue" points="598.98,-95.87 607.82,-90.03 597.27,-89.08 598.98,-95.87"/>
</g>
<!-- Node8 -->
<g id="node8" class="node">
<title>Node8</title>
<g id="a_node8"><a xlink:href="classdenoptim_1_1fitness_1_1_fitness_provider_test.html#a797d2bef11fed4d885baa11089538b23" target="_top" xlink:title=" ">
<polygon fill="white" stroke="black" points="402.5,-60 402.5,-90 541.5,-90 541.5,-60 402.5,-60"/>
<text text-anchor="start" x="410.5" y="-78" font-family="Helvetica,sans-Serif" font-size="10.00">denoptim.fitness.Fitness</text>
<text text-anchor="middle" x="472" y="-67" font-family="Helvetica,sans-Serif" font-size="10.00">ProviderTest.testGetFitness</text>
</a>
</g>
</g>
<!-- Node1&#45;&gt;Node8 -->
<g id="edge7" class="edge">
<title>Node1&#45;&gt;Node8</title>
<path fill="none" stroke="midnightblue" d="M576.69,-75C564.92,-75 553.02,-75 541.68,-75"/>
<polygon fill="midnightblue" stroke="midnightblue" points="576.99,-78.5 586.99,-75 576.99,-71.5 576.99,-78.5"/>
</g>
<!-- Node9 -->
<g id="node9" class="node">
<title>Node9</title>
<g id="a_node9"><a xlink:href="classdenoptim_1_1fitness_1_1_fitness_provider_test.html#a49819c248ea4d3acf19689f8d6fcec2c" target="_top" xlink:title=" ">
<polygon fill="white" stroke="black" points="393,-0.5 393,-41.5 551,-41.5 551,-0.5 393,-0.5"/>
<text text-anchor="start" x="401" y="-29.5" font-family="Helvetica,sans-Serif" font-size="10.00">denoptim.fitness.Fitness</text>
<text text-anchor="start" x="401" y="-18.5" font-family="Helvetica,sans-Serif" font-size="10.00">ProviderTest.testGetFitnessWith</text>
<text text-anchor="middle" x="472" y="-7.5" font-family="Helvetica,sans-Serif" font-size="10.00">CustomDescriptors</text>
</a>
</g>
</g>
<!-- Node1&#45;&gt;Node9 -->
<g id="edge8" class="edge">
<title>Node1&#45;&gt;Node9</title>
<path fill="none" stroke="midnightblue" d="M603.46,-57.22C585.36,-52.19 565.51,-46.68 546.88,-41.51"/>
<polygon fill="midnightblue" stroke="midnightblue" points="602.75,-60.66 613.32,-59.96 604.62,-53.91 602.75,-60.66"/>
</g>
<!-- Node3 -->
<g id="node3" class="node">
<title>Node3</title>
<g id="a_node3"><a xlink:href="classdenoptim_1_1fitness_1_1_fitness_parameters.html#a2ab06430e0d6c35625d03557520cf505" target="_top" xlink:title="Processes all parameters and initialize related objects.">
<polygon fill="white" stroke="black" points="203,-109 203,-139 357,-139 357,-109 203,-109"/>
<text text-anchor="start" x="211" y="-127" font-family="Helvetica,sans-Serif" font-size="10.00">denoptim.fitness.Fitness</text>
<text text-anchor="middle" x="280" y="-116" font-family="Helvetica,sans-Serif" font-size="10.00">Parameters.processParameters</text>
</a>
</g>
</g>
<!-- Node2&#45;&gt;Node3 -->
<g id="edge2" class="edge">
<title>Node2&#45;&gt;Node3</title>
<path fill="none" stroke="midnightblue" d="M400.7,-124C386.5,-124 371.51,-124 357.12,-124"/>
<polygon fill="midnightblue" stroke="midnightblue" points="400.88,-127.5 410.88,-124 400.88,-120.5 400.88,-127.5"/>
</g>
<!-- Node4 -->
<g id="node4" class="node">
<title>Node4</title>
<g id="a_node4"><a xlink:href="classdenoptim_1_1fitness_1_1_fitness_provider_test.html#a2272dbcf72c993b4544719ddf64c98b6" target="_top" xlink:title=" ">
<polygon fill="white" stroke="black" points="10.5,-190.5 10.5,-231.5 156.5,-231.5 156.5,-190.5 10.5,-190.5"/>
<text text-anchor="start" x="18.5" y="-219.5" font-family="Helvetica,sans-Serif" font-size="10.00">denoptim.fitness.Fitness</text>
<text text-anchor="start" x="18.5" y="-208.5" font-family="Helvetica,sans-Serif" font-size="10.00">ProviderTest.testGetConstant</text>
<text text-anchor="middle" x="83.5" y="-197.5" font-family="Helvetica,sans-Serif" font-size="10.00">Fitness</text>
</a>
</g>
</g>
<!-- Node3&#45;&gt;Node4 -->
<g id="edge3" class="edge">
<title>Node3&#45;&gt;Node4</title>
<path fill="none" stroke="midnightblue" d="M242.97,-143.75C221.27,-155.29 192.91,-169.74 167,-181 159.59,-184.22 151.71,-187.39 143.88,-190.4"/>
<polygon fill="midnightblue" stroke="midnightblue" points="244.67,-146.81 251.83,-139.01 241.36,-140.64 244.67,-146.81"/>
</g>
<!-- Node5 -->
<g id="node5" class="node">
<title>Node5</title>
<g id="a_node5"><a xlink:href="classdenoptim_1_1fitness_1_1_fitness_provider_test.html#ac3684e1e2969ee1c883ab279d4d5c048" target="_top" xlink:title="This test is reproducing most of what done in FitnessParametersTest#testProcessExpressions() so if bo...">
<polygon fill="white" stroke="black" points="4.5,-130.5 4.5,-171.5 162.5,-171.5 162.5,-130.5 4.5,-130.5"/>
<text text-anchor="start" x="12.5" y="-159.5" font-family="Helvetica,sans-Serif" font-size="10.00">denoptim.fitness.Fitness</text>
<text text-anchor="start" x="12.5" y="-148.5" font-family="Helvetica,sans-Serif" font-size="10.00">ProviderTest.testGetFitnessWith</text>
<text text-anchor="middle" x="83.5" y="-137.5" font-family="Helvetica,sans-Serif" font-size="10.00">ParametrizedDescriptors</text>
</a>
</g>
</g>
<!-- Node3&#45;&gt;Node5 -->
<g id="edge4" class="edge">
<title>Node3&#45;&gt;Node5</title>
<path fill="none" stroke="midnightblue" d="M192.97,-135.94C182.9,-137.34 172.68,-138.76 162.72,-140.14"/>
<polygon fill="midnightblue" stroke="midnightblue" points="193.54,-139.4 202.97,-134.55 192.58,-132.46 193.54,-139.4"/>
</g>
<!-- Node6 -->
<g id="node6" class="node">
<title>Node6</title>
<g id="a_node6"><a xlink:href="classdenoptim_1_1fitness_1_1_fitness_provider_test.html#a81954dc756c3f22356f01bdc0037e9f5" target="_top" xlink:title=" ">
<polygon fill="white" stroke="black" points="12,-82 12,-112 155,-112 155,-82 12,-82"/>
<text text-anchor="start" x="20" y="-100" font-family="Helvetica,sans-Serif" font-size="10.00">denoptim.fitness.Fitness</text>
<text text-anchor="middle" x="83.5" y="-89" font-family="Helvetica,sans-Serif" font-size="10.00">ProviderTest.testNaNFitness</text>
</a>
</g>
</g>
<!-- Node3&#45;&gt;Node6 -->
<g id="edge5" class="edge">
<title>Node3&#45;&gt;Node6</title>
<path fill="none" stroke="midnightblue" d="M192.9,-112.05C180.26,-110.29 167.36,-108.5 155.08,-106.8"/>
<polygon fill="midnightblue" stroke="midnightblue" points="192.58,-115.54 202.97,-113.45 193.54,-108.6 192.58,-115.54"/>
</g>
<!-- Node7 -->
<g id="node7" class="node">
<title>Node7</title>
<g id="a_node7"><a xlink:href="classdenoptim_1_1fitness_1_1_fitness_expression_parser_test.html#ad8c3056173f2ab17ebb7c12133ea03a8" target="_top" xlink:title=" ">
<polygon fill="white" stroke="black" points="0,-22.5 0,-63.5 167,-63.5 167,-22.5 0,-22.5"/>
<text text-anchor="start" x="8" y="-51.5" font-family="Helvetica,sans-Serif" font-size="10.00">denoptim.fitness.Fitness</text>
<text text-anchor="start" x="8" y="-40.5" font-family="Helvetica,sans-Serif" font-size="10.00">ExpressionParserTest.testProcess</text>
<text text-anchor="middle" x="83.5" y="-29.5" font-family="Helvetica,sans-Serif" font-size="10.00">Expressions</text>
</a>
</g>
</g>
<!-- Node3&#45;&gt;Node7 -->
<g id="edge6" class="edge">
<title>Node3&#45;&gt;Node7</title>
<path fill="none" stroke="midnightblue" d="M238.13,-104.46C217.06,-94.62 190.84,-82.74 167,-73 159.24,-69.83 151.01,-66.63 142.86,-63.58"/>
<polygon fill="midnightblue" stroke="midnightblue" points="236.89,-107.74 247.43,-108.82 239.86,-101.4 236.89,-107.74"/>
</g>
</g>
</svg>
        <g id="navigator" transform="translate(0 0)" fill="#404254">
                <rect fill="#f2f5e9" fill-opacity="0.5" stroke="#606060" stroke-width=".5" x="0" y="0" width="60" height="60"/>
                <use id="zoomplus" xlink:href="#zoomPlus" x="17" y="9" onmousedown="handleZoom(evt,'in')"/>
                <use id="zoomminus" xlink:href="#zoomMin" x="42" y="9" onmousedown="handleZoom(evt,'out')"/>
                <use id="reset" xlink:href="#resetDef" x="30" y="36" onmousedown="handleReset()"/>
                <g id="arrowUp" xlink:href="#dirArrow" transform="translate(30 24)" onmousedown="handlePan(0,-1)">
                  <use xlink:href="#rim" fill="#404040">
                        <set attributeName="fill" to="#808080" begin="arrowUp.mouseover" end="arrowUp.mouseout"/>
                  </use>
                  <path fill="none" stroke="white" stroke-width="1.5" d="M0,-3.0v7 M-2.5,-0.5L0,-3.0L2.5,-0.5"/>
                </g>
                <g id="arrowRight" xlink:href="#dirArrow" transform="rotate(90) translate(36 -43)" onmousedown="handlePan(1,0)">
                  <use xlink:href="#rim" fill="#404040">
                        <set attributeName="fill" to="#808080" begin="arrowRight.mouseover" end="arrowRight.mouseout"/>
                  </use>
                  <path fill="none" stroke="white" stroke-width="1.5" d="M0,-3.0v7 M-2.5,-0.5L0,-3.0L2.5,-0.5"/>
                </g>
                <g id="arrowDown" xlink:href="#dirArrow" transform="rotate(180) translate(-30 -48)" onmousedown="handlePan(0,1)">
                  <use xlink:href="#rim" fill="#404040">
                        <set attributeName="fill" to="#808080" begin="arrowDown.mouseover" end="arrowDown.mouseout"/>
                  </use>
                  <path fill="none" stroke="white" stroke-width="1.5" d="M0,-3.0v7 M-2.5,-0.5L0,-3.0L2.5,-0.5"/>
                </g>
                <g id="arrowLeft" xlink:href="#dirArrow" transform="rotate(270) translate(-36 17)" onmousedown="handlePan(-1,0)">
                  <use xlink:href="#rim" fill="#404040">
                        <set attributeName="fill" to="#808080" begin="arrowLeft.mouseover" end="arrowLeft.mouseout"/>
                  </use>
                  <path fill="none" stroke="white" stroke-width="1.5" d="M0,-3.0v7 M-2.5,-0.5L0,-3.0L2.5,-0.5"/>
                </g>
        </g>
        <svg viewBox="0 0 15 15" width="100%" height="30px" preserveAspectRatio="xMaxYMin meet">
         <g id="arrow_out" transform="scale(0.3 0.3)">
          <a xlink:href="classdenoptim_1_1fitness_1_1_descriptor_for_fitness_ae2e434070538ba8fc8a3fc05460db34a_icgraph_org.svg" target="_base">
           <rect id="button" ry="5" rx="5" y="6" x="6" height="38" width="38"
                fill="#f2f5e9" fill-opacity="0.5" stroke="#606060" stroke-width="1.0"/>
           <path id="arrow"
             d="M 11.500037,31.436501 C 11.940474,20.09759 22.043105,11.32322 32.158766,21.979434 L 37.068811,17.246167 C 37.068811,17.246167 37.088388,32 37.088388,32 L 22.160133,31.978069 C 22.160133,31.978069 26.997745,27.140456 26.997745,27.140456 C 18.528582,18.264221 13.291696,25.230495 11.500037,31.436501 z"
             style="fill:#404040;"/>
          </a>
         </g>
        </svg>
</svg>
