<?xml version="1.0" encoding="UTF-8" standalone="no"?>
<!DOCTYPE svg PUBLIC "-//W3C//DTD SVG 1.1//EN"
 "http://www.w3.org/Graphics/SVG/1.1/DTD/svg11.dtd">
<!-- Generated by graphviz version 3.0.0 (20221109.1736)
 -->
<!-- Title: denoptim.fitness.FitnessParameters Pages: 1 -->
<!--zoomable 188 -->
<svg id="main" version="1.1" xmlns="http://www.w3.org/2000/svg" xmlns:xlink="http://www.w3.org/1999/xlink" xml:space="preserve" onload="init(evt)">
<style type="text/css"><![CDATA[
.edge:hover path { stroke: red; }
.edge:hover polygon { stroke: red; fill: red; }
]]></style>
<script type="text/javascript"><![CDATA[
var edges = document.getElementsByTagName('g');
if (edges && edges.length) {
  for (var i=0;i<edges.length;i++) {
    if (edges[i].id.substr(0,4)=='edge') {
      edges[i].setAttribute('class','edge');
    }
  }
}
]]></script>
        <defs>
                <circle id="rim" cx="0" cy="0" r="7"/>
                <circle id="rim2" cx="0" cy="0" r="3.5"/>
                <g id="zoomPlus">
                        <use xlink:href="#rim" fill="#404040">
                                <set attributeName="fill" to="#808080" begin="zoomplus.mouseover" end="zoomplus.mouseout"/>
                        </use>
                        <path d="M-4,0h8M0,-4v8" fill="none" stroke="white" stroke-width="1.5" pointer-events="none"/>
                </g>
                <g id="zoomMin">
                        <use xlink:href="#rim" fill="#404040">
                                <set attributeName="fill" to="#808080" begin="zoomminus.mouseover" end="zoomminus.mouseout"/>
                        </use>
                        <path d="M-4,0h8" fill="none" stroke="white" stroke-width="1.5" pointer-events="none"/>
                </g>
                <g id="dirArrow">
                        <path fill="none" stroke="white" stroke-width="1.5" d="M0,-3.0v7 M-2.5,-0.5L0,-3.0L2.5,-0.5"/>
                </g>
               <g id="resetDef">
                       <use xlink:href="#rim2" fill="#404040">
                               <set attributeName="fill" to="#808080" begin="reset.mouseover" end="reset.mouseout"/>
                       </use>
               </g>
        </defs>

<script type="text/javascript">
var viewWidth = 903;
var viewHeight = 188;
var sectionId = 'dynsection-1';
</script>
<script xlink:href="svgpan.js"/>
<svg id="graph" class="graph">
<g id="viewport">
<title>denoptim.fitness.FitnessParameters</title>
<polygon fill="white" stroke="transparent" points="-4,4 -4,-183.5 899,-183.5 899,4 -4,4"/>
<!-- Node1 -->
<g id="node1" class="node">
<title>Node1</title>
<g id="a_node1"><a xlink:title="Settings defining the calculation of fitness.">
<polygon fill="#bfbfbf" stroke="black" points="773,-44.5 773,-74.5 895,-74.5 895,-44.5 773,-44.5"/>
<text text-anchor="start" x="781" y="-62.5" font-family="Helvetica,sans-Serif" font-size="10.00">denoptim.fitness.Fitness</text>
<text text-anchor="middle" x="834" y="-51.5" font-family="Helvetica,sans-Serif" font-size="10.00">Parameters</text>
</a>
</g>
</g>
<!-- Node2 -->
<g id="node2" class="node">
<title>Node2</title>
<g id="a_node2"><a xlink:href="classdenoptim_1_1programs_1_1_run_time_parameters.html" target="_top" xlink:title="Collection of parameters controlling the behavior of the software.">
<polygon fill="white" stroke="black" points="463,-88.5 463,-118.5 603,-118.5 603,-88.5 463,-88.5"/>
<text text-anchor="start" x="471" y="-106.5" font-family="Helvetica,sans-Serif" font-size="10.00">denoptim.programs.RunTime</text>
<text text-anchor="middle" x="533" y="-95.5" font-family="Helvetica,sans-Serif" font-size="10.00">Parameters</text>
</a>
</g>
</g>
<!-- Node2&#45;&gt;Node1 -->
<g id="edge1" class="edge">
<title>Node2&#45;&gt;Node1</title>
<path fill="none" stroke="midnightblue" d="M613.27,-94.26C655.45,-89.05 708.14,-82.07 755,-74.5 760.72,-73.58 766.66,-72.55 772.6,-71.48"/>
<polygon fill="midnightblue" stroke="midnightblue" points="612.83,-90.78 603.34,-95.48 613.69,-97.73 612.83,-90.78"/>
</g>
<!-- Node3 -->
<g id="node3" class="node">
<title>Node3</title>
<g id="a_node3"><a xlink:title=" ">
<polygon fill="white" stroke="black" points="219,-160 219,-179 266,-179 266,-160 219,-160"/>
<text text-anchor="middle" x="242.5" y="-167" font-family="Helvetica,sans-Serif" font-size="10.00">Logger</text>
</a>
</g>
</g>
<!-- Node3&#45;&gt;Node2 -->
<g id="edge2" class="edge">
<title>Node3&#45;&gt;Node2</title>
<path fill="none" stroke="#9a32cd" stroke-dasharray="5,2" d="M276.35,-164.88C314.9,-159.16 380.59,-148.42 436,-134.5 453.67,-130.06 472.82,-124.11 489.34,-118.62"/>
<polygon fill="#9a32cd" stroke="#9a32cd" points="275.62,-161.45 266.23,-166.37 276.63,-168.38 275.62,-161.45"/>
<text text-anchor="middle" x="398.5" y="-152.5" font-family="Helvetica,sans-Serif" font-size="10.00"> logger</text>
</g>
<!-- Node4 -->
<g id="node4" class="node">
<title>Node4</title>
<g id="a_node4"><a xlink:href="classdenoptim_1_1utils_1_1_randomizer.html" target="_top" xlink:title="Tool to generate random numbers and random decisions.">
<polygon fill="white" stroke="black" points="177.5,-122 177.5,-141 307.5,-141 307.5,-122 177.5,-122"/>
<text text-anchor="middle" x="242.5" y="-129" font-family="Helvetica,sans-Serif" font-size="10.00">denoptim.utils.Randomizer</text>
</a>
</g>
</g>
<!-- Node4&#45;&gt;Node2 -->
<g id="edge3" class="edge">
<title>Node4&#45;&gt;Node2</title>
<path fill="none" stroke="#9a32cd" stroke-dasharray="5,2" d="M317.75,-124.29C362.49,-119.95 419.08,-114.46 462.86,-110.21"/>
<polygon fill="#9a32cd" stroke="#9a32cd" points="317.14,-120.84 307.53,-125.29 317.82,-127.8 317.14,-120.84"/>
<text text-anchor="middle" x="398.5" y="-122.5" font-family="Helvetica,sans-Serif" font-size="10.00"> rng</text>
</g>
<!-- Node5 -->
<g id="node5" class="node">
<title>Node5</title>
<g id="a_node5"><a xlink:title=" ">
<polygon fill="white" stroke="black" points="0,-122 0,-141 92,-141 92,-122 0,-122"/>
<text text-anchor="middle" x="46" y="-129" font-family="Helvetica,sans-Serif" font-size="10.00">MersenneTwister</text>
</a>
</g>
</g>
<!-- Node5&#45;&gt;Node4 -->
<g id="edge4" class="edge">
<title>Node5&#45;&gt;Node4</title>
<path fill="none" stroke="#9a32cd" stroke-dasharray="5,2" d="M102.23,-131.5C125.67,-131.5 153.15,-131.5 177.48,-131.5"/>
<polygon fill="#9a32cd" stroke="#9a32cd" points="102.11,-128 92.11,-131.5 102.11,-135 102.11,-128"/>
<text text-anchor="middle" x="117" y="-134.5" font-family="Helvetica,sans-Serif" font-size="10.00"> mt</text>
</g>
<!-- Node6 -->
<g id="node6" class="node">
<title>Node6</title>
<g id="a_node6"><a xlink:title=" ">
<polygon fill="white" stroke="black" points="142,-62 142,-103 343,-103 343,-62 142,-62"/>
<text text-anchor="start" x="150" y="-91" font-family="Helvetica,sans-Serif" font-size="10.00">Map&lt; denoptim.programs.Run</text>
<text text-anchor="start" x="150" y="-80" font-family="Helvetica,sans-Serif" font-size="10.00">TimeParameters.ParametersType,</text>
<text text-anchor="middle" x="242.5" y="-69" font-family="Helvetica,sans-Serif" font-size="10.00"> denoptim.programs.RunTimeParameters &gt;</text>
</a>
</g>
</g>
<!-- Node6&#45;&gt;Node2 -->
<g id="edge5" class="edge">
<title>Node6&#45;&gt;Node2</title>
<path fill="none" stroke="#9a32cd" stroke-dasharray="5,2" d="M353.29,-86.16C380.35,-87.47 409.25,-89.21 436,-91.5 444.7,-92.25 453.83,-93.18 462.85,-94.21"/>
<polygon fill="#9a32cd" stroke="#9a32cd" points="353.16,-82.65 343.01,-85.68 352.84,-89.64 353.16,-82.65"/>
<text text-anchor="middle" x="398.5" y="-94.5" font-family="Helvetica,sans-Serif" font-size="10.00"> otherParameters</text>
</g>
<!-- Node7 -->
<g id="node7" class="node">
<title>Node7</title>
<g id="a_node7"><a xlink:href="enumdenoptim_1_1programs_1_1_run_time_parameters_1_1_parameters_type.html" target="_top" xlink:title="Identifier of the type of parameters.">
<polygon fill="white" stroke="black" points="172.5,-13.5 172.5,-43.5 312.5,-43.5 312.5,-13.5 172.5,-13.5"/>
<text text-anchor="start" x="180.5" y="-31.5" font-family="Helvetica,sans-Serif" font-size="10.00">denoptim.programs.RunTime</text>
<text text-anchor="middle" x="242.5" y="-20.5" font-family="Helvetica,sans-Serif" font-size="10.00">Parameters.ParametersType</text>
</a>
</g>
</g>
<!-- Node7&#45;&gt;Node2 -->
<g id="edge6" class="edge">
<title>Node7&#45;&gt;Node2</title>
<path fill="none" stroke="#9a32cd" stroke-dasharray="5,2" d="M322.92,-43.42C357.91,-50.72 399.32,-60.34 436,-71.5 444.21,-74 445.91,-75.63 454,-78.5 463.52,-81.87 473.75,-85.3 483.58,-88.49"/>
<polygon fill="#9a32cd" stroke="#9a32cd" points="323.26,-39.92 312.76,-41.33 321.85,-46.78 323.26,-39.92"/>
<text text-anchor="middle" x="398.5" y="-74.5" font-family="Helvetica,sans-Serif" font-size="10.00"> paramType</text>
</g>
<!-- Node8 -->
<g id="node8" class="node">
<title>Node8</title>
<g id="a_node8"><a xlink:title=" ">
<polygon fill="white" stroke="black" points="495.5,-50 495.5,-69 570.5,-69 570.5,-50 495.5,-50"/>
<text text-anchor="middle" x="533" y="-57" font-family="Helvetica,sans-Serif" font-size="10.00">List&lt; String &gt;</text>
</a>
</g>
</g>
<!-- Node8&#45;&gt;Node1 -->
<g id="edge7" class="edge">
<title>Node8&#45;&gt;Node1</title>
<path fill="none" stroke="#9a32cd" stroke-dasharray="5,2" d="M580.89,-59.5C632.66,-59.5 716.15,-59.5 772.74,-59.5"/>
<polygon fill="#9a32cd" stroke="#9a32cd" points="580.66,-56 570.66,-59.5 580.66,-63 580.66,-56"/>
<text text-anchor="middle" x="692.5" y="-62.5" font-family="Helvetica,sans-Serif" font-size="10.00"> customVarDescExpressions</text>
</g>
<!-- Node9 -->
<g id="node9" class="node">
<title>Node9</title>
<g id="a_node9"><a xlink:title=" ">
<polygon fill="white" stroke="black" points="454,-0.5 454,-30.5 612,-30.5 612,-0.5 454,-0.5"/>
<text text-anchor="start" x="462" y="-18.5" font-family="Helvetica,sans-Serif" font-size="10.00">List&lt; denoptim.fitness.Descriptor</text>
<text text-anchor="middle" x="533" y="-7.5" font-family="Helvetica,sans-Serif" font-size="10.00">ForFitness &gt;</text>
</a>
</g>
</g>
<!-- Node9&#45;&gt;Node1 -->
<g id="edge8" class="edge">
<title>Node9&#45;&gt;Node1</title>
<path fill="none" stroke="#9a32cd" stroke-dasharray="5,2" d="M622.27,-25.86C662.79,-30.93 711.42,-37.46 755,-44.5 760.72,-45.42 766.66,-46.45 772.6,-47.52"/>
<polygon fill="#9a32cd" stroke="#9a32cd" points="622.51,-22.36 612.15,-24.6 621.64,-29.31 622.51,-22.36"/>
<text text-anchor="middle" x="692.5" y="-47.5" font-family="Helvetica,sans-Serif" font-size="10.00"> descriptors</text>
</g>
</g>
</svg>
        <g id="navigator" transform="translate(0 0)" fill="#404254">
                <rect fill="#f2f5e9" fill-opacity="0.5" stroke="#606060" stroke-width=".5" x="0" y="0" width="60" height="60"/>
                <use id="zoomplus" xlink:href="#zoomPlus" x="17" y="9" onmousedown="handleZoom(evt,'in')"/>
                <use id="zoomminus" xlink:href="#zoomMin" x="42" y="9" onmousedown="handleZoom(evt,'out')"/>
                <use id="reset" xlink:href="#resetDef" x="30" y="36" onmousedown="handleReset()"/>
                <g id="arrowUp" xlink:href="#dirArrow" transform="translate(30 24)" onmousedown="handlePan(0,-1)">
                  <use xlink:href="#rim" fill="#404040">
                        <set attributeName="fill" to="#808080" begin="arrowUp.mouseover" end="arrowUp.mouseout"/>
                  </use>
                  <path fill="none" stroke="white" stroke-width="1.5" d="M0,-3.0v7 M-2.5,-0.5L0,-3.0L2.5,-0.5"/>
                </g>
                <g id="arrowRight" xlink:href="#dirArrow" transform="rotate(90) translate(36 -43)" onmousedown="handlePan(1,0)">
                  <use xlink:href="#rim" fill="#404040">
                        <set attributeName="fill" to="#808080" begin="arrowRight.mouseover" end="arrowRight.mouseout"/>
                  </use>
                  <path fill="none" stroke="white" stroke-width="1.5" d="M0,-3.0v7 M-2.5,-0.5L0,-3.0L2.5,-0.5"/>
                </g>
                <g id="arrowDown" xlink:href="#dirArrow" transform="rotate(180) translate(-30 -48)" onmousedown="handlePan(0,1)">
                  <use xlink:href="#rim" fill="#404040">
                        <set attributeName="fill" to="#808080" begin="arrowDown.mouseover" end="arrowDown.mouseout"/>
                  </use>
                  <path fill="none" stroke="white" stroke-width="1.5" d="M0,-3.0v7 M-2.5,-0.5L0,-3.0L2.5,-0.5"/>
                </g>
                <g id="arrowLeft" xlink:href="#dirArrow" transform="rotate(270) translate(-36 17)" onmousedown="handlePan(-1,0)">
                  <use xlink:href="#rim" fill="#404040">
                        <set attributeName="fill" to="#808080" begin="arrowLeft.mouseover" end="arrowLeft.mouseout"/>
                  </use>
                  <path fill="none" stroke="white" stroke-width="1.5" d="M0,-3.0v7 M-2.5,-0.5L0,-3.0L2.5,-0.5"/>
                </g>
        </g>
        <svg viewBox="0 0 15 15" width="100%" height="30px" preserveAspectRatio="xMaxYMin meet">
         <g id="arrow_out" transform="scale(0.3 0.3)">
          <a xlink:href="classdenoptim_1_1fitness_1_1_fitness_parameters__coll__graph_org.svg" target="_base">
           <rect id="button" ry="5" rx="5" y="6" x="6" height="38" width="38"
                fill="#f2f5e9" fill-opacity="0.5" stroke="#606060" stroke-width="1.0"/>
           <path id="arrow"
             d="M 11.500037,31.436501 C 11.940474,20.09759 22.043105,11.32322 32.158766,21.979434 L 37.068811,17.246167 C 37.068811,17.246167 37.088388,32 37.088388,32 L 22.160133,31.978069 C 22.160133,31.978069 26.997745,27.140456 26.997745,27.140456 C 18.528582,18.264221 13.291696,25.230495 11.500037,31.436501 z"
             style="fill:#404040;"/>
          </a>
         </g>
        </svg>
</svg>
