<?xml version="1.0" encoding="UTF-8" standalone="no"?>
<!DOCTYPE svg PUBLIC "-//W3C//DTD SVG 1.1//EN"
 "http://www.w3.org/Graphics/SVG/1.1/DTD/svg11.dtd">
<!-- Generated by graphviz version 3.0.0 (20221109.1736)
 -->
<!-- Title: denoptim.graph.simplified.NodeConnection.compare Pages: 1 -->
<svg width="1768pt" height="266pt"
 viewBox="0.00 0.00 1768.00 266.00" xmlns="http://www.w3.org/2000/svg" xmlns:xlink="http://www.w3.org/1999/xlink">
<g id="graph0" class="graph" transform="scale(1 1) rotate(0) translate(4 262)">
<title>denoptim.graph.simplified.NodeConnection.compare</title>
<polygon fill="white" stroke="transparent" points="-4,4 -4,-262 1764,-262 1764,4 -4,4"/>
<!-- Node1 -->
<g id="node1" class="node">
<title>Node1</title>
<g id="a_node1"><a xlink:title=" ">
<polygon fill="#bfbfbf" stroke="black" points="1632,-49.5 1632,-79.5 1760,-79.5 1760,-49.5 1632,-49.5"/>
<text text-anchor="start" x="1640" y="-67.5" font-family="Helvetica,sans-Serif" font-size="10.00">denoptim.graph.simplified.</text>
<text text-anchor="middle" x="1696" y="-56.5" font-family="Helvetica,sans-Serif" font-size="10.00">NodeConnection.compare</text>
</a>
</g>
</g>
<!-- Node2 -->
<g id="node2" class="node">
<title>Node2</title>
<g id="a_node2"><a xlink:href="classdenoptim_1_1graph_1_1_d_graph.html#afb3a5b3a5e8d74babc82474f8458b91f" target="_top" xlink:title="Checks if this graph is &quot;DENOPTIM&#45;isostructural&quot; to the other one given.">
<polygon fill="white" stroke="black" points="1468,-49.5 1468,-79.5 1596,-79.5 1596,-49.5 1468,-49.5"/>
<text text-anchor="start" x="1476" y="-67.5" font-family="Helvetica,sans-Serif" font-size="10.00">denoptim.graph.DGraph.is</text>
<text text-anchor="middle" x="1532" y="-56.5" font-family="Helvetica,sans-Serif" font-size="10.00">IsostructuralTo</text>
</a>
</g>
</g>
<!-- Node1&#45;&gt;Node2 -->
<g id="edge1" class="edge">
<title>Node1&#45;&gt;Node2</title>
<path fill="none" stroke="midnightblue" d="M1621.63,-64.5C1613.14,-64.5 1604.53,-64.5 1596.19,-64.5"/>
<polygon fill="midnightblue" stroke="midnightblue" points="1621.9,-68 1631.9,-64.5 1621.9,-61 1621.9,-68"/>
</g>
<!-- Node3 -->
<g id="node3" class="node">
<title>Node3</title>
<g id="a_node3"><a xlink:href="classdenoptim_1_1ga_1_1_graph_operations.html#a27ba99409e7aaa6b6f6f3d40737863ca" target="_top" xlink:title="Here we check that the given subgraphs have a mapping that allows to swap them, and full fill any oth...">
<polygon fill="white" stroke="black" points="1247,-98.5 1247,-128.5 1420,-128.5 1420,-98.5 1247,-98.5"/>
<text text-anchor="start" x="1255" y="-116.5" font-family="Helvetica,sans-Serif" font-size="10.00">denoptim.ga.GraphOperations.check</text>
<text text-anchor="middle" x="1333.5" y="-105.5" font-family="Helvetica,sans-Serif" font-size="10.00">AndAddXoverSites</text>
</a>
</g>
</g>
<!-- Node2&#45;&gt;Node3 -->
<g id="edge2" class="edge">
<title>Node2&#45;&gt;Node3</title>
<path fill="none" stroke="midnightblue" d="M1460.91,-81.98C1439.26,-87.38 1415.6,-93.28 1394.68,-98.49"/>
<polygon fill="midnightblue" stroke="midnightblue" points="1461.85,-85.35 1470.71,-79.53 1460.16,-78.56 1461.85,-85.35"/>
</g>
<!-- Node15 -->
<g id="node15" class="node">
<title>Node15</title>
<g id="a_node15"><a xlink:href="classdenoptim_1_1ga_1_1_e_a_utils_test.html#ae0baa3684be9b8a4af611083649a9e6d" target="_top" xlink:title=" ">
<polygon fill="white" stroke="black" points="1235,-49.5 1235,-79.5 1432,-79.5 1432,-49.5 1235,-49.5"/>
<text text-anchor="start" x="1243" y="-67.5" font-family="Helvetica,sans-Serif" font-size="10.00">denoptim.ga.EAUtilsTest.test</text>
<text text-anchor="middle" x="1333.5" y="-56.5" font-family="Helvetica,sans-Serif" font-size="10.00">BuildByXOver_Embedded_FixedStructure</text>
</a>
</g>
</g>
<!-- Node2&#45;&gt;Node15 -->
<g id="edge16" class="edge">
<title>Node2&#45;&gt;Node15</title>
<path fill="none" stroke="midnightblue" d="M1457.48,-64.5C1449.26,-64.5 1440.79,-64.5 1432.33,-64.5"/>
<polygon fill="midnightblue" stroke="midnightblue" points="1457.74,-68 1467.74,-64.5 1457.74,-61 1457.74,-68"/>
</g>
<!-- Node16 -->
<g id="node16" class="node">
<title>Node16</title>
<g id="a_node16"><a xlink:href="classdenoptim_1_1graph_1_1_d_graph_test.html#aea227d615f6c2f3bac5839a8099a900d" target="_top" xlink:title=" ">
<polygon fill="white" stroke="black" points="1255.5,-0.5 1255.5,-30.5 1411.5,-30.5 1411.5,-0.5 1255.5,-0.5"/>
<text text-anchor="start" x="1263.5" y="-18.5" font-family="Helvetica,sans-Serif" font-size="10.00">denoptim.graph.DGraphTest.test</text>
<text text-anchor="middle" x="1333.5" y="-7.5" font-family="Helvetica,sans-Serif" font-size="10.00">IsIsostructuralTo</text>
</a>
</g>
</g>
<!-- Node2&#45;&gt;Node16 -->
<g id="edge17" class="edge">
<title>Node2&#45;&gt;Node16</title>
<path fill="none" stroke="midnightblue" d="M1461.71,-46.95C1451.74,-44.44 1441.61,-41.9 1432,-39.5 1420.33,-36.59 1407.87,-33.51 1395.89,-30.55"/>
<polygon fill="midnightblue" stroke="midnightblue" points="1461.04,-50.39 1471.6,-49.44 1462.76,-43.6 1461.04,-50.39"/>
</g>
<!-- Node4 -->
<g id="node4" class="node">
<title>Node4</title>
<g id="a_node4"><a xlink:href="classdenoptim_1_1ga_1_1_graph_operations.html#a2396c23acf24d07f255b94eb3a2105b7" target="_top" xlink:title="Identify crossover sites, i.e., subgraphs that can be swapped between two graphs (i....">
<polygon fill="white" stroke="black" points="590,-98.5 590,-128.5 763,-128.5 763,-98.5 590,-98.5"/>
<text text-anchor="start" x="598" y="-116.5" font-family="Helvetica,sans-Serif" font-size="10.00">denoptim.ga.GraphOperations.locate</text>
<text text-anchor="middle" x="676.5" y="-105.5" font-family="Helvetica,sans-Serif" font-size="10.00">CompatibleXOverPoints</text>
</a>
</g>
</g>
<!-- Node3&#45;&gt;Node4 -->
<g id="edge3" class="edge">
<title>Node3&#45;&gt;Node4</title>
<path fill="none" stroke="midnightblue" d="M1236.59,-115.91C1223.95,-116.16 1211.16,-116.36 1199,-116.5 1021.23,-118.5 976.76,-118.69 799,-116.5 787.4,-116.36 775.17,-116.14 763.12,-115.88"/>
<polygon fill="midnightblue" stroke="midnightblue" points="1236.76,-119.41 1246.69,-115.71 1236.62,-112.41 1236.76,-119.41"/>
</g>
<!-- Node13 -->
<g id="node13" class="node">
<title>Node13</title>
<g id="a_node13"><a xlink:href="classdenoptim_1_1ga_1_1_graph_operations.html#a65b1468961ba53b217848640d8fd5232" target="_top" xlink:title="Given a pair of seed vertexes that define where a pair of subgraphs stars in the corresponding origin...">
<polygon fill="white" stroke="black" points="1017,-76.5 1017,-106.5 1199,-106.5 1199,-76.5 1017,-76.5"/>
<text text-anchor="start" x="1025" y="-94.5" font-family="Helvetica,sans-Serif" font-size="10.00">denoptim.ga.GraphOperations.process</text>
<text text-anchor="middle" x="1108" y="-83.5" font-family="Helvetica,sans-Serif" font-size="10.00">PermutationOfEndPoints</text>
</a>
</g>
</g>
<!-- Node3&#45;&gt;Node13 -->
<g id="edge13" class="edge">
<title>Node3&#45;&gt;Node13</title>
<path fill="none" stroke="midnightblue" d="M1236.46,-104.05C1224.15,-102.83 1211.58,-101.6 1199.36,-100.39"/>
<polygon fill="midnightblue" stroke="midnightblue" points="1236.43,-107.56 1246.73,-105.06 1237.12,-100.59 1236.43,-107.56"/>
</g>
<!-- Node4&#45;&gt;Node4 -->
<g id="edge9" class="edge">
<title>Node4&#45;&gt;Node4</title>
<path fill="none" stroke="midnightblue" d="M714.17,-138.96C709.49,-143.68 696.94,-147 676.5,-147 642.96,-147 630.65,-138.06 639.55,-128.66"/>
<polygon fill="midnightblue" stroke="midnightblue" points="717.64,-138.39 713.45,-128.66 710.66,-138.88 717.64,-138.39"/>
</g>
<!-- Node5 -->
<g id="node5" class="node">
<title>Node5</title>
<g id="a_node5"><a xlink:href="classdenoptim_1_1ga_1_1_population.html#a31b74cc5407c42fa3a4214029fb08190" target="_top" xlink:title="Returns a list of population members that can do crossover with the specified member.">
<polygon fill="white" stroke="black" points="393,-171.5 393,-201.5 526,-201.5 526,-171.5 393,-171.5"/>
<text text-anchor="start" x="401" y="-189.5" font-family="Helvetica,sans-Serif" font-size="10.00">denoptim.ga.Population.get</text>
<text text-anchor="middle" x="459.5" y="-178.5" font-family="Helvetica,sans-Serif" font-size="10.00">XoverPartners</text>
</a>
</g>
</g>
<!-- Node4&#45;&gt;Node5 -->
<g id="edge4" class="edge">
<title>Node4&#45;&gt;Node5</title>
<path fill="none" stroke="midnightblue" d="M621.35,-131.89C585.3,-144.12 538.54,-160 504.73,-171.48"/>
<polygon fill="midnightblue" stroke="midnightblue" points="622.87,-135.07 631.21,-128.54 620.62,-128.44 622.87,-135.07"/>
</g>
<!-- Node10 -->
<g id="node10" class="node">
<title>Node10</title>
<g id="a_node10"><a xlink:href="classdenoptim_1_1programs_1_1genetweeker_1_1_gene_ops_runner.html#ab0f92a94c4fb2334e7d3813e73fc4247" target="_top" xlink:title=" ">
<polygon fill="white" stroke="black" points="380,-98.5 380,-128.5 539,-128.5 539,-98.5 380,-98.5"/>
<text text-anchor="start" x="388" y="-116.5" font-family="Helvetica,sans-Serif" font-size="10.00">denoptim.programs.genetweeker.</text>
<text text-anchor="middle" x="459.5" y="-105.5" font-family="Helvetica,sans-Serif" font-size="10.00">GeneOpsRunner.runXOver</text>
</a>
</g>
</g>
<!-- Node4&#45;&gt;Node10 -->
<g id="edge10" class="edge">
<title>Node4&#45;&gt;Node10</title>
<path fill="none" stroke="midnightblue" d="M579.63,-113.5C566.1,-113.5 552.32,-113.5 539.17,-113.5"/>
<polygon fill="midnightblue" stroke="midnightblue" points="579.91,-117 589.91,-113.5 579.91,-110 579.91,-117"/>
</g>
<!-- Node12 -->
<g id="node12" class="node">
<title>Node12</title>
<g id="a_node12"><a xlink:href="classdenoptim_1_1ga_1_1_graph_operations_test.html#a9fcf8fffef10a59df722c92e94da2815" target="_top" xlink:title=" ">
<polygon fill="white" stroke="black" points="365,-49.5 365,-79.5 554,-79.5 554,-49.5 365,-49.5"/>
<text text-anchor="start" x="373" y="-67.5" font-family="Helvetica,sans-Serif" font-size="10.00">denoptim.ga.GraphOperations</text>
<text text-anchor="middle" x="459.5" y="-56.5" font-family="Helvetica,sans-Serif" font-size="10.00">Test.testLocateCompatibleXOverPoints</text>
</a>
</g>
</g>
<!-- Node4&#45;&gt;Node12 -->
<g id="edge12" class="edge">
<title>Node4&#45;&gt;Node12</title>
<path fill="none" stroke="midnightblue" d="M599.78,-96.24C575.82,-90.78 549.55,-84.79 526.34,-79.51"/>
<polygon fill="midnightblue" stroke="midnightblue" points="599,-99.66 609.53,-98.47 600.56,-92.83 599,-99.66"/>
</g>
<!-- Node6 -->
<g id="node6" class="node">
<title>Node6</title>
<g id="a_node6"><a xlink:href="classdenoptim_1_1ga_1_1_e_a_utils.html#a45d4e9ec6a308aa73891efa1d501dd5e" target="_top" xlink:title="Perform fitness&#45;based, class&#45;compatible selection of parents that can do crossover operations.">
<polygon fill="white" stroke="black" points="163,-233 163,-252 329,-252 329,-233 163,-233"/>
<text text-anchor="middle" x="246" y="-240" font-family="Helvetica,sans-Serif" font-size="10.00">denoptim.ga.EAUtils.performFBCC</text>
</a>
</g>
</g>
<!-- Node5&#45;&gt;Node6 -->
<g id="edge5" class="edge">
<title>Node5&#45;&gt;Node6</title>
<path fill="none" stroke="midnightblue" d="M398.45,-204.34C376.64,-210.64 351.77,-217.61 329,-223.5 316.41,-226.76 302.66,-230.04 290.08,-232.95"/>
<polygon fill="midnightblue" stroke="midnightblue" points="399.6,-207.65 408.23,-201.5 397.65,-200.93 399.6,-207.65"/>
</g>
<!-- Node8 -->
<g id="node8" class="node">
<title>Node8</title>
<g id="a_node8"><a xlink:href="classdenoptim_1_1ga_1_1_population_test.html#a5db0672054a9fc1dbc923310732fdb3a" target="_top" xlink:title=" ">
<polygon fill="white" stroke="black" points="168.5,-183.5 168.5,-213.5 323.5,-213.5 323.5,-183.5 168.5,-183.5"/>
<text text-anchor="start" x="176.5" y="-201.5" font-family="Helvetica,sans-Serif" font-size="10.00">denoptim.ga.PopulationTest.test</text>
<text text-anchor="middle" x="246" y="-190.5" font-family="Helvetica,sans-Serif" font-size="10.00">Clone</text>
</a>
</g>
</g>
<!-- Node5&#45;&gt;Node8 -->
<g id="edge7" class="edge">
<title>Node5&#45;&gt;Node8</title>
<path fill="none" stroke="midnightblue" d="M382.59,-190.81C363.49,-191.89 342.98,-193.05 323.83,-194.14"/>
<polygon fill="midnightblue" stroke="midnightblue" points="382.95,-194.29 392.74,-190.23 382.56,-187.3 382.95,-194.29"/>
</g>
<!-- Node9 -->
<g id="node9" class="node">
<title>Node9</title>
<g id="a_node9"><a xlink:href="classdenoptim_1_1ga_1_1_population_test.html#a278212ebff2501b7071d342f9a027599" target="_top" xlink:title=" ">
<polygon fill="white" stroke="black" points="168.5,-134.5 168.5,-164.5 323.5,-164.5 323.5,-134.5 168.5,-134.5"/>
<text text-anchor="start" x="176.5" y="-152.5" font-family="Helvetica,sans-Serif" font-size="10.00">denoptim.ga.PopulationTest.test</text>
<text text-anchor="middle" x="246" y="-141.5" font-family="Helvetica,sans-Serif" font-size="10.00">XOverCompatibility</text>
</a>
</g>
</g>
<!-- Node5&#45;&gt;Node9 -->
<g id="edge8" class="edge">
<title>Node5&#45;&gt;Node9</title>
<path fill="none" stroke="midnightblue" d="M382.86,-173.27C363.68,-169.91 343.07,-166.31 323.83,-162.94"/>
<polygon fill="midnightblue" stroke="midnightblue" points="382.29,-176.72 392.74,-175 383.49,-169.82 382.29,-176.72"/>
</g>
<!-- Node7 -->
<g id="node7" class="node">
<title>Node7</title>
<g id="a_node7"><a xlink:href="classdenoptim_1_1ga_1_1_e_a_utils.html#a0b958439d79fae30f14530213ad22e3a" target="_top" xlink:title="Generates up to a pair of new offspring by performing a crossover operation.">
<polygon fill="white" stroke="black" points="0,-227.5 0,-257.5 127,-257.5 127,-227.5 0,-227.5"/>
<text text-anchor="start" x="8" y="-245.5" font-family="Helvetica,sans-Serif" font-size="10.00">denoptim.ga.EAUtils.build</text>
<text text-anchor="middle" x="63.5" y="-234.5" font-family="Helvetica,sans-Serif" font-size="10.00">CandidatesByXOver</text>
</a>
</g>
</g>
<!-- Node6&#45;&gt;Node7 -->
<g id="edge6" class="edge">
<title>Node6&#45;&gt;Node7</title>
<path fill="none" stroke="midnightblue" d="M152.77,-242.5C144.11,-242.5 135.47,-242.5 127.17,-242.5"/>
<polygon fill="midnightblue" stroke="midnightblue" points="152.94,-246 162.94,-242.5 152.94,-239 152.94,-246"/>
</g>
<!-- Node11 -->
<g id="node11" class="node">
<title>Node11</title>
<g id="a_node11"><a xlink:href="classdenoptim_1_1programs_1_1genetweeker_1_1_gene_ops_runner.html#a3c2407eb1204a7b25600d3d347d98447" target="_top" xlink:title=" ">
<polygon fill="white" stroke="black" points="166.5,-85.5 166.5,-115.5 325.5,-115.5 325.5,-85.5 166.5,-85.5"/>
<text text-anchor="start" x="174.5" y="-103.5" font-family="Helvetica,sans-Serif" font-size="10.00">denoptim.programs.genetweeker.</text>
<text text-anchor="middle" x="246" y="-92.5" font-family="Helvetica,sans-Serif" font-size="10.00">GeneOpsRunner.runProgram</text>
</a>
</g>
</g>
<!-- Node10&#45;&gt;Node11 -->
<g id="edge11" class="edge">
<title>Node10&#45;&gt;Node11</title>
<path fill="none" stroke="midnightblue" d="M369.74,-108.04C355.16,-107.15 340.14,-106.22 325.82,-105.34"/>
<polygon fill="midnightblue" stroke="midnightblue" points="369.55,-111.54 379.75,-108.66 369.98,-104.55 369.55,-111.54"/>
</g>
<!-- Node14 -->
<g id="node14" class="node">
<title>Node14</title>
<g id="a_node14"><a xlink:href="classdenoptim_1_1ga_1_1_graph_operations.html#a5d90c6e2fa30f287f8f69ed3367ccd0e" target="_top" xlink:title="Given a pair of seed vertexes that define where a pair of subgraphs stars in the corresponding origin...">
<polygon fill="white" stroke="black" points="799,-76.5 799,-106.5 981,-106.5 981,-76.5 799,-76.5"/>
<text text-anchor="start" x="807" y="-94.5" font-family="Helvetica,sans-Serif" font-size="10.00">denoptim.ga.GraphOperations.process</text>
<text text-anchor="middle" x="890" y="-83.5" font-family="Helvetica,sans-Serif" font-size="10.00">CombinationOfEndPoints</text>
</a>
</g>
</g>
<!-- Node13&#45;&gt;Node14 -->
<g id="edge14" class="edge">
<title>Node13&#45;&gt;Node14</title>
<path fill="none" stroke="midnightblue" d="M1006.94,-91.5C998.37,-91.5 989.73,-91.5 981.24,-91.5"/>
<polygon fill="midnightblue" stroke="midnightblue" points="1006.96,-95 1016.96,-91.5 1006.96,-88 1006.96,-95"/>
</g>
<!-- Node14&#45;&gt;Node4 -->
<g id="edge15" class="edge">
<title>Node14&#45;&gt;Node4</title>
<path fill="none" stroke="midnightblue" d="M788.89,-101.91C780.25,-102.81 771.56,-103.72 763.05,-104.6"/>
<polygon fill="midnightblue" stroke="midnightblue" points="789.41,-105.38 799,-100.86 788.69,-98.42 789.41,-105.38"/>
</g>
</g>
</svg>
