<?xml version="1.0" encoding="UTF-8" standalone="no"?>
<!DOCTYPE svg PUBLIC "-//W3C//DTD SVG 1.1//EN"
 "http://www.w3.org/Graphics/SVG/1.1/DTD/svg11.dtd">
<!-- Generated by graphviz version 3.0.0 (20221109.1736)
 -->
<!-- Title: denoptim.task.StaticTaskManager.stop Pages: 1 -->
<svg width="698pt" height="88pt"
 viewBox="0.00 0.00 698.00 88.00" xmlns="http://www.w3.org/2000/svg" xmlns:xlink="http://www.w3.org/1999/xlink">
<g id="graph0" class="graph" transform="scale(1 1) rotate(0) translate(4 84)">
<title>denoptim.task.StaticTaskManager.stop</title>
<polygon fill="white" stroke="transparent" points="-4,4 -4,-84 694,-84 694,4 -4,4"/>
<!-- Node1 -->
<g id="node1" class="node">
<title>Node1</title>
<g id="a_node1"><a xlink:title=" ">
<polygon fill="#bfbfbf" stroke="black" points="0,-24.5 0,-54.5 127,-54.5 127,-24.5 0,-24.5"/>
<text text-anchor="start" x="8" y="-42.5" font-family="Helvetica,sans-Serif" font-size="10.00">denoptim.task.StaticTask</text>
<text text-anchor="middle" x="63.5" y="-31.5" font-family="Helvetica,sans-Serif" font-size="10.00">Manager.stop</text>
</a>
</g>
</g>
<!-- Node2 -->
<g id="node2" class="node">
<title>Node2</title>
<g id="a_node2"><a xlink:href="classdenoptim_1_1task_1_1_task.html#abe8e96c65d147220af01e7cec04d3670" target="_top" xlink:title="Stop the task if not already completed.">
<polygon fill="white" stroke="black" points="163,-30 163,-49 307,-49 307,-30 163,-30"/>
<text text-anchor="middle" x="235" y="-37" font-family="Helvetica,sans-Serif" font-size="10.00">denoptim.task.Task.stopTask</text>
</a>
</g>
</g>
<!-- Node1&#45;&gt;Node2 -->
<g id="edge1" class="edge">
<title>Node1&#45;&gt;Node2</title>
<path fill="none" stroke="midnightblue" d="M127.13,-39.5C135.47,-39.5 144.12,-39.5 152.71,-39.5"/>
<polygon fill="midnightblue" stroke="midnightblue" points="152.76,-43 162.76,-39.5 152.76,-36 152.76,-43"/>
</g>
<!-- Node3 -->
<g id="node3" class="node">
<title>Node3</title>
<g id="a_node3"><a xlink:href="classdenoptim_1_1task_1_1_process_handler.html#abf2a0e6d6119b98dc028d69b1a0e7522" target="_top" xlink:title=" ">
<polygon fill="white" stroke="black" points="343,-49.5 343,-79.5 513,-79.5 513,-49.5 343,-49.5"/>
<text text-anchor="start" x="351" y="-67.5" font-family="Helvetica,sans-Serif" font-size="10.00">denoptim.task.ProcessHandler.stop</text>
<text text-anchor="middle" x="428" y="-56.5" font-family="Helvetica,sans-Serif" font-size="10.00">Process</text>
</a>
</g>
</g>
<!-- Node2&#45;&gt;Node3 -->
<g id="edge2" class="edge">
<title>Node2&#45;&gt;Node3</title>
<path fill="none" stroke="midnightblue" d="M307.12,-48.81C315.51,-49.91 324.16,-51.04 332.8,-52.17"/>
<polygon fill="midnightblue" stroke="midnightblue" points="332.55,-55.67 342.92,-53.49 333.46,-48.73 332.55,-55.67"/>
</g>
<!-- Node4 -->
<g id="node4" class="node">
<title>Node4</title>
<g id="a_node4"><a xlink:href="classdenoptim_1_1task_1_1_static_task_manager.html#a00dfeb1aebe14acd14a6a72f938b1f40" target="_top" xlink:title=" ">
<polygon fill="white" stroke="black" points="360,-0.5 360,-30.5 496,-30.5 496,-0.5 360,-0.5"/>
<text text-anchor="start" x="368" y="-18.5" font-family="Helvetica,sans-Serif" font-size="10.00">denoptim.task.StaticTask</text>
<text text-anchor="middle" x="428" y="-7.5" font-family="Helvetica,sans-Serif" font-size="10.00">Manager.subtractDoneTask</text>
</a>
</g>
</g>
<!-- Node2&#45;&gt;Node4 -->
<g id="edge3" class="edge">
<title>Node2&#45;&gt;Node4</title>
<path fill="none" stroke="midnightblue" d="M307.12,-30.56C321.03,-28.82 335.68,-26.97 349.78,-25.2"/>
<polygon fill="midnightblue" stroke="midnightblue" points="350.45,-28.65 359.93,-23.93 349.57,-21.7 350.45,-28.65"/>
</g>
<!-- Node5 -->
<g id="node5" class="node">
<title>Node5</title>
<g id="a_node5"><a xlink:href="classdenoptim_1_1task_1_1_static_task_manager.html#a35710993ed6901f26af2ee934897b658" target="_top" xlink:title=" ">
<polygon fill="white" stroke="black" points="549,-0.5 549,-30.5 690,-30.5 690,-0.5 549,-0.5"/>
<text text-anchor="start" x="557" y="-18.5" font-family="Helvetica,sans-Serif" font-size="10.00">denoptim.task.StaticTask</text>
<text text-anchor="middle" x="619.5" y="-7.5" font-family="Helvetica,sans-Serif" font-size="10.00">Manager.subtractDoneTasks</text>
</a>
</g>
</g>
<!-- Node4&#45;&gt;Node5 -->
<g id="edge4" class="edge">
<title>Node4&#45;&gt;Node5</title>
<path fill="none" stroke="midnightblue" d="M496.08,-15.5C509.87,-15.5 524.52,-15.5 538.71,-15.5"/>
<polygon fill="midnightblue" stroke="midnightblue" points="538.95,-19 548.95,-15.5 538.95,-12 538.95,-19"/>
</g>
</g>
</svg>
