<?xml version="1.0" encoding="UTF-8" standalone="no"?>
<!DOCTYPE svg PUBLIC "-//W3C//DTD SVG 1.1//EN"
 "http://www.w3.org/Graphics/SVG/1.1/DTD/svg11.dtd">
<!-- Generated by graphviz version 3.0.0 (20221109.1736)
 -->
<!-- Title: denoptim.gui.GraphViewerPanel.loadGraphToViewer Pages: 1 -->
<svg width="340pt" height="57pt"
 viewBox="0.00 0.00 340.00 57.00" xmlns="http://www.w3.org/2000/svg" xmlns:xlink="http://www.w3.org/1999/xlink">
<g id="graph0" class="graph" transform="scale(1 1) rotate(0) translate(4 53)">
<title>denoptim.gui.GraphViewerPanel.loadGraphToViewer</title>
<polygon fill="white" stroke="transparent" points="-4,4 -4,-53 336,-53 336,4 -4,4"/>
<!-- Node1 -->
<g id="node1" class="node">
<title>Node1</title>
<g id="a_node1"><a xlink:title="Load the given DGraph to this graph viewer.">
<polygon fill="#bfbfbf" stroke="black" points="0,-0.5 0,-30.5 130,-30.5 130,-0.5 0,-0.5"/>
<text text-anchor="start" x="8" y="-18.5" font-family="Helvetica,sans-Serif" font-size="10.00">denoptim.gui.GraphViewer</text>
<text text-anchor="middle" x="65" y="-7.5" font-family="Helvetica,sans-Serif" font-size="10.00">Panel.loadGraphToViewer</text>
</a>
</g>
</g>
<!-- Node1&#45;&gt;Node1 -->
<g id="edge3" class="edge">
<title>Node1&#45;&gt;Node1</title>
<path fill="none" stroke="midnightblue" d="M32.93,-30.66C25.2,-40.06 35.89,-49 65,-49 82.74,-49 93.64,-45.68 97.69,-40.96"/>
<polygon fill="midnightblue" stroke="midnightblue" points="101.17,-40.43 97.07,-30.66 94.18,-40.85 101.17,-40.43"/>
</g>
<!-- Node2 -->
<g id="node2" class="node">
<title>Node2</title>
<g id="a_node2"><a xlink:href="classdenoptim_1_1gui_1_1_graph_viewer_panel.html#abed87e5b88f44a20955b9e1bb2491156" target="_top" xlink:title="Created a JUNG graph object that represents a DGraph, and allows to load a graphical representation i...">
<polygon fill="white" stroke="black" points="166,-0.5 166,-30.5 332,-30.5 332,-0.5 166,-0.5"/>
<text text-anchor="start" x="174" y="-18.5" font-family="Helvetica,sans-Serif" font-size="10.00">denoptim.gui.GraphViewer</text>
<text text-anchor="middle" x="249" y="-7.5" font-family="Helvetica,sans-Serif" font-size="10.00">Panel.convertDnGraphToGSGraph</text>
</a>
</g>
</g>
<!-- Node1&#45;&gt;Node2 -->
<g id="edge1" class="edge">
<title>Node1&#45;&gt;Node2</title>
<path fill="none" stroke="midnightblue" d="M130.17,-15.5C138.48,-15.5 147.12,-15.5 155.77,-15.5"/>
<polygon fill="midnightblue" stroke="midnightblue" points="155.92,-19 165.92,-15.5 155.92,-12 155.92,-19"/>
</g>
<!-- Node2&#45;&gt;Node2 -->
<g id="edge2" class="edge">
<title>Node2&#45;&gt;Node2</title>
<path fill="none" stroke="midnightblue" d="M216.93,-30.66C209.2,-40.06 219.89,-49 249,-49 266.74,-49 277.64,-45.68 281.69,-40.96"/>
<polygon fill="midnightblue" stroke="midnightblue" points="285.17,-40.43 281.07,-30.66 278.18,-40.85 285.17,-40.43"/>
</g>
</g>
</svg>
