<?xml version="1.0" encoding="UTF-8" standalone="no"?>
<!DOCTYPE svg PUBLIC "-//W3C//DTD SVG 1.1//EN"
 "http://www.w3.org/Graphics/SVG/1.1/DTD/svg11.dtd">
<!-- Generated by graphviz version 3.0.0 (20221109.1736)
 -->
<!-- Title: denoptim.graph.VertexQuery Pages: 1 -->
<!--zoomable 157 -->
<svg id="main" version="1.1" xmlns="http://www.w3.org/2000/svg" xmlns:xlink="http://www.w3.org/1999/xlink" xml:space="preserve" onload="init(evt)">
<style type="text/css"><![CDATA[
.edge:hover path { stroke: red; }
.edge:hover polygon { stroke: red; fill: red; }
]]></style>
<script type="text/javascript"><![CDATA[
var edges = document.getElementsByTagName('g');
if (edges && edges.length) {
  for (var i=0;i<edges.length;i++) {
    if (edges[i].id.substr(0,4)=='edge') {
      edges[i].setAttribute('class','edge');
    }
  }
}
]]></script>
        <defs>
                <circle id="rim" cx="0" cy="0" r="7"/>
                <circle id="rim2" cx="0" cy="0" r="3.5"/>
                <g id="zoomPlus">
                        <use xlink:href="#rim" fill="#404040">
                                <set attributeName="fill" to="#808080" begin="zoomplus.mouseover" end="zoomplus.mouseout"/>
                        </use>
                        <path d="M-4,0h8M0,-4v8" fill="none" stroke="white" stroke-width="1.5" pointer-events="none"/>
                </g>
                <g id="zoomMin">
                        <use xlink:href="#rim" fill="#404040">
                                <set attributeName="fill" to="#808080" begin="zoomminus.mouseover" end="zoomminus.mouseout"/>
                        </use>
                        <path d="M-4,0h8" fill="none" stroke="white" stroke-width="1.5" pointer-events="none"/>
                </g>
                <g id="dirArrow">
                        <path fill="none" stroke="white" stroke-width="1.5" d="M0,-3.0v7 M-2.5,-0.5L0,-3.0L2.5,-0.5"/>
                </g>
               <g id="resetDef">
                       <use xlink:href="#rim2" fill="#404040">
                               <set attributeName="fill" to="#808080" begin="reset.mouseover" end="reset.mouseout"/>
                       </use>
               </g>
        </defs>

<script type="text/javascript">
var viewWidth = 993;
var viewHeight = 157;
var sectionId = 'dynsection-0';
</script>
<script xlink:href="svgpan.js"/>
<svg id="graph" class="graph">
<g id="viewport">
<title>denoptim.graph.VertexQuery</title>
<polygon fill="white" stroke="transparent" points="-4,4 -4,-153 989,-153 989,4 -4,4"/>
<!-- Node1 -->
<g id="node1" class="node">
<title>Node1</title>
<g id="a_node1"><a xlink:title="Query for searching vertices.">
<polygon fill="#bfbfbf" stroke="black" points="847,-46.5 847,-65.5 985,-65.5 985,-46.5 847,-46.5"/>
<text text-anchor="middle" x="916" y="-53.5" font-family="Helvetica,sans-Serif" font-size="10.00">denoptim.graph.VertexQuery</text>
</a>
</g>
</g>
<!-- Node2 -->
<g id="node2" class="node">
<title>Node2</title>
<g id="a_node2"><a xlink:href="enumdenoptim_1_1graph_1_1_vertex_1_1_b_b_type.html" target="_top" xlink:title="The type of building block.">
<polygon fill="white" stroke="black" points="565.5,-84.5 565.5,-103.5 714.5,-103.5 714.5,-84.5 565.5,-84.5"/>
<text text-anchor="middle" x="640" y="-91.5" font-family="Helvetica,sans-Serif" font-size="10.00">denoptim.graph.Vertex.BBType</text>
</a>
</g>
</g>
<!-- Node2&#45;&gt;Node1 -->
<g id="edge1" class="edge">
<title>Node2&#45;&gt;Node1</title>
<path fill="none" stroke="#9a32cd" stroke-dasharray="5,2" d="M724.72,-84.68C757.32,-80.81 794.95,-76.05 829,-71 839.94,-69.38 851.64,-67.46 862.77,-65.55"/>
<polygon fill="#9a32cd" stroke="#9a32cd" points="724.3,-81.21 714.78,-85.85 725.12,-88.16 724.3,-81.21"/>
<text text-anchor="middle" x="784.5" y="-85" font-family="Helvetica,sans-Serif" font-size="10.00"> buildingBlockType</text>
</g>
<!-- Node3 -->
<g id="node3" class="node">
<title>Node3</title>
<g id="a_node3"><a xlink:href="enumdenoptim_1_1graph_1_1_vertex_1_1_vertex_type.html" target="_top" xlink:title="Flag declaring the type of Vertex implementation.">
<polygon fill="white" stroke="black" points="558,-46.5 558,-65.5 722,-65.5 722,-46.5 558,-46.5"/>
<text text-anchor="middle" x="640" y="-53.5" font-family="Helvetica,sans-Serif" font-size="10.00">denoptim.graph.Vertex.VertexType</text>
</a>
</g>
</g>
<!-- Node3&#45;&gt;Node1 -->
<g id="edge2" class="edge">
<title>Node3&#45;&gt;Node1</title>
<path fill="none" stroke="#9a32cd" stroke-dasharray="5,2" d="M732.46,-56C769.74,-56 812.08,-56 846.6,-56"/>
<polygon fill="#9a32cd" stroke="#9a32cd" points="732.1,-52.5 722.1,-56 732.1,-59.5 732.1,-52.5"/>
<text text-anchor="middle" x="784.5" y="-59" font-family="Helvetica,sans-Serif" font-size="10.00"> vertexType</text>
</g>
<!-- Node4 -->
<g id="node4" class="node">
<title>Node4</title>
<g id="a_node4"><a xlink:href="classdenoptim_1_1graph_1_1_edge_query.html" target="_top" xlink:title="A query for edges: a list of properties that target edges should possess in order to match this query...">
<polygon fill="white" stroke="black" points="574,-1.5 574,-20.5 706,-20.5 706,-1.5 574,-1.5"/>
<text text-anchor="middle" x="640" y="-8.5" font-family="Helvetica,sans-Serif" font-size="10.00">denoptim.graph.EdgeQuery</text>
</a>
</g>
</g>
<!-- Node4&#45;&gt;Node1 -->
<g id="edge3" class="edge">
<title>Node4&#45;&gt;Node1</title>
<path fill="none" stroke="#9a32cd" stroke-dasharray="5,2" d="M716.31,-15.27C750.87,-18.09 792.25,-22.66 829,-30 849.19,-34.03 871.42,-40.82 888.23,-46.45"/>
<polygon fill="#9a32cd" stroke="#9a32cd" points="716.52,-11.78 706.28,-14.49 715.98,-18.76 716.52,-11.78"/>
<text text-anchor="middle" x="784.5" y="-44" font-family="Helvetica,sans-Serif" font-size="10.00"> incomingEdgeQuery</text>
<text text-anchor="middle" x="784.5" y="-33" font-family="Helvetica,sans-Serif" font-size="10.00">outgoingEdgeQuery</text>
</g>
<!-- Node5 -->
<g id="node5" class="node">
<title>Node5</title>
<g id="a_node5"><a xlink:href="enumdenoptim_1_1graph_1_1_edge_1_1_bond_type.html" target="_top" xlink:title="Possible chemical bond types an edge can represent.">
<polygon fill="white" stroke="black" points="92.5,-0.5 92.5,-19.5 244.5,-19.5 244.5,-0.5 92.5,-0.5"/>
<text text-anchor="middle" x="168.5" y="-7.5" font-family="Helvetica,sans-Serif" font-size="10.00">denoptim.graph.Edge.BondType</text>
</a>
</g>
</g>
<!-- Node5&#45;&gt;Node4 -->
<g id="edge4" class="edge">
<title>Node5&#45;&gt;Node4</title>
<path fill="none" stroke="#9a32cd" stroke-dasharray="5,2" d="M254.78,-10.18C346.62,-10.38 490.73,-10.68 573.89,-10.86"/>
<polygon fill="#9a32cd" stroke="#9a32cd" points="254.68,-6.68 244.67,-10.16 254.67,-13.68 254.68,-6.68"/>
<text text-anchor="middle" x="423.5" y="-13" font-family="Helvetica,sans-Serif" font-size="10.00"> bondType</text>
</g>
<!-- Node7 -->
<g id="node7" class="node">
<title>Node7</title>
<g id="a_node7"><a xlink:href="classdenoptim_1_1graph_1_1_a_p_class.html" target="_top" xlink:title=" ">
<polygon fill="white" stroke="black" points="362,-63.5 362,-82.5 485,-82.5 485,-63.5 362,-63.5"/>
<text text-anchor="middle" x="423.5" y="-70.5" font-family="Helvetica,sans-Serif" font-size="10.00">denoptim.graph.APClass</text>
</a>
</g>
</g>
<!-- Node5&#45;&gt;Node7 -->
<g id="edge11" class="edge">
<title>Node5&#45;&gt;Node7</title>
<path fill="none" stroke="#9a32cd" stroke-dasharray="5,2" d="M254.65,-20.66C283.36,-25.3 315.36,-31.64 344,-40 364.86,-46.09 387.65,-56.07 403.27,-63.46"/>
<polygon fill="#9a32cd" stroke="#9a32cd" points="255.07,-17.19 244.65,-19.09 253.98,-24.1 255.07,-17.19"/>
<text text-anchor="middle" x="304" y="-54" font-family="Helvetica,sans-Serif" font-size="10.00"> DEFAULTBT</text>
<text text-anchor="middle" x="304" y="-43" font-family="Helvetica,sans-Serif" font-size="10.00">bndTyp</text>
</g>
<!-- Node6 -->
<g id="node6" class="node">
<title>Node6</title>
<g id="a_node6"><a xlink:title=" ">
<polygon fill="white" stroke="black" points="0,-0.5 0,-19.5 42,-19.5 42,-0.5 0,-0.5"/>
<text text-anchor="middle" x="21" y="-7.5" font-family="Helvetica,sans-Serif" font-size="10.00">IBond</text>
</a>
</g>
</g>
<!-- Node6&#45;&gt;Node5 -->
<g id="edge5" class="edge">
<title>Node6&#45;&gt;Node5</title>
<path fill="none" stroke="#9a32cd" stroke-dasharray="5,2" d="M52.33,-10C64.08,-10 78.11,-10 92.26,-10"/>
<polygon fill="#9a32cd" stroke="#9a32cd" points="52.23,-6.5 42.23,-10 52.23,-13.5 52.23,-6.5"/>
<text text-anchor="middle" x="66.5" y="-13" font-family="Helvetica,sans-Serif" font-size="10.00"> bo</text>
</g>
<!-- Node7&#45;&gt;Node4 -->
<g id="edge6" class="edge">
<title>Node7&#45;&gt;Node4</title>
<path fill="none" stroke="#9a32cd" stroke-dasharray="5,2" d="M467.21,-60.65C508.01,-48.86 568.66,-31.33 605.92,-20.56"/>
<polygon fill="#9a32cd" stroke="#9a32cd" points="466.18,-57.31 457.55,-63.45 468.12,-64.03 466.18,-57.31"/>
<text text-anchor="middle" x="521.5" y="-63" font-family="Helvetica,sans-Serif" font-size="10.00"> srcAPC</text>
<text text-anchor="middle" x="521.5" y="-52" font-family="Helvetica,sans-Serif" font-size="10.00">trgAPC</text>
</g>
<!-- Node7&#45;&gt;Node7 -->
<g id="edge10" class="edge">
<title>Node7&#45;&gt;Node7</title>
<path fill="none" stroke="#9a32cd" stroke-dasharray="5,2" d="M405.35,-92.4C406.56,-97.31 412.61,-101 423.5,-101 440.92,-101 445.95,-91.57 438.6,-82.76"/>
<polygon fill="#9a32cd" stroke="#9a32cd" points="408.72,-93.35 408.4,-82.76 402.05,-91.24 408.72,-93.35"/>
<text text-anchor="middle" x="423.5" y="-126" font-family="Helvetica,sans-Serif" font-size="10.00"> RCACLASSMINUS</text>
<text text-anchor="middle" x="423.5" y="-115" font-family="Helvetica,sans-Serif" font-size="10.00">RCACLASSNEUTRAL</text>
<text text-anchor="middle" x="423.5" y="-104" font-family="Helvetica,sans-Serif" font-size="10.00">RCACLASSPLUS</text>
</g>
<!-- Node8 -->
<g id="node8" class="node">
<title>Node8</title>
<g id="a_node8"><a xlink:title=" ">
<polygon fill="white" stroke="black" points="139,-129.5 139,-148.5 198,-148.5 198,-129.5 139,-129.5"/>
<text text-anchor="middle" x="168.5" y="-136.5" font-family="Helvetica,sans-Serif" font-size="10.00">Cloneable</text>
</a>
</g>
</g>
<!-- Node8&#45;&gt;Node7 -->
<g id="edge7" class="edge">
<title>Node8&#45;&gt;Node7</title>
<path fill="none" stroke="midnightblue" d="M208.21,-132.46C243.83,-126.04 297.97,-115.31 344,-102 362.98,-96.51 383.95,-88.67 399.44,-82.53"/>
<polygon fill="midnightblue" stroke="midnightblue" points="207.46,-129.04 198.22,-134.23 208.68,-135.93 207.46,-129.04"/>
</g>
<!-- Node9 -->
<g id="node9" class="node">
<title>Node9</title>
<g id="a_node9"><a xlink:title=" ">
<polygon fill="white" stroke="black" points="107,-91.5 107,-110.5 230,-110.5 230,-91.5 107,-91.5"/>
<text text-anchor="middle" x="168.5" y="-98.5" font-family="Helvetica,sans-Serif" font-size="10.00">Comparable&lt; APClass &gt;</text>
</a>
</g>
</g>
<!-- Node9&#45;&gt;Node7 -->
<g id="edge8" class="edge">
<title>Node9&#45;&gt;Node7</title>
<path fill="none" stroke="midnightblue" d="M240.22,-94.79C271.98,-91.83 309.91,-88.05 344,-84 349.74,-83.32 355.71,-82.56 361.68,-81.78"/>
<polygon fill="midnightblue" stroke="midnightblue" points="239.77,-91.32 230.14,-95.72 240.42,-98.29 239.77,-91.32"/>
</g>
<!-- Node10 -->
<g id="node10" class="node">
<title>Node10</title>
<g id="a_node10"><a xlink:title=" ">
<polygon fill="white" stroke="black" points="91,-53.5 91,-72.5 246,-72.5 246,-53.5 91,-53.5"/>
<text text-anchor="middle" x="168.5" y="-60.5" font-family="Helvetica,sans-Serif" font-size="10.00">Set&lt; denoptim.graph.APClass &gt;</text>
</a>
</g>
</g>
<!-- Node10&#45;&gt;Node7 -->
<g id="edge9" class="edge">
<title>Node10&#45;&gt;Node7</title>
<path fill="none" stroke="#9a32cd" stroke-dasharray="5,2" d="M256.24,-66.43C291,-67.8 330.2,-69.35 361.81,-70.6"/>
<polygon fill="#9a32cd" stroke="#9a32cd" points="256.23,-62.93 246.09,-66.03 255.95,-69.92 256.23,-62.93"/>
<text text-anchor="middle" x="304" y="-72" font-family="Helvetica,sans-Serif" font-size="10.00"> uniqueAPClasses</text>
</g>
</g>
</svg>
        <g id="navigator" transform="translate(0 0)" fill="#404254">
                <rect fill="#f2f5e9" fill-opacity="0.5" stroke="#606060" stroke-width=".5" x="0" y="0" width="60" height="60"/>
                <use id="zoomplus" xlink:href="#zoomPlus" x="17" y="9" onmousedown="handleZoom(evt,'in')"/>
                <use id="zoomminus" xlink:href="#zoomMin" x="42" y="9" onmousedown="handleZoom(evt,'out')"/>
                <use id="reset" xlink:href="#resetDef" x="30" y="36" onmousedown="handleReset()"/>
                <g id="arrowUp" xlink:href="#dirArrow" transform="translate(30 24)" onmousedown="handlePan(0,-1)">
                  <use xlink:href="#rim" fill="#404040">
                        <set attributeName="fill" to="#808080" begin="arrowUp.mouseover" end="arrowUp.mouseout"/>
                  </use>
                  <path fill="none" stroke="white" stroke-width="1.5" d="M0,-3.0v7 M-2.5,-0.5L0,-3.0L2.5,-0.5"/>
                </g>
                <g id="arrowRight" xlink:href="#dirArrow" transform="rotate(90) translate(36 -43)" onmousedown="handlePan(1,0)">
                  <use xlink:href="#rim" fill="#404040">
                        <set attributeName="fill" to="#808080" begin="arrowRight.mouseover" end="arrowRight.mouseout"/>
                  </use>
                  <path fill="none" stroke="white" stroke-width="1.5" d="M0,-3.0v7 M-2.5,-0.5L0,-3.0L2.5,-0.5"/>
                </g>
                <g id="arrowDown" xlink:href="#dirArrow" transform="rotate(180) translate(-30 -48)" onmousedown="handlePan(0,1)">
                  <use xlink:href="#rim" fill="#404040">
                        <set attributeName="fill" to="#808080" begin="arrowDown.mouseover" end="arrowDown.mouseout"/>
                  </use>
                  <path fill="none" stroke="white" stroke-width="1.5" d="M0,-3.0v7 M-2.5,-0.5L0,-3.0L2.5,-0.5"/>
                </g>
                <g id="arrowLeft" xlink:href="#dirArrow" transform="rotate(270) translate(-36 17)" onmousedown="handlePan(-1,0)">
                  <use xlink:href="#rim" fill="#404040">
                        <set attributeName="fill" to="#808080" begin="arrowLeft.mouseover" end="arrowLeft.mouseout"/>
                  </use>
                  <path fill="none" stroke="white" stroke-width="1.5" d="M0,-3.0v7 M-2.5,-0.5L0,-3.0L2.5,-0.5"/>
                </g>
        </g>
        <svg viewBox="0 0 15 15" width="100%" height="30px" preserveAspectRatio="xMaxYMin meet">
         <g id="arrow_out" transform="scale(0.3 0.3)">
          <a xlink:href="classdenoptim_1_1graph_1_1_vertex_query__coll__graph_org.svg" target="_base">
           <rect id="button" ry="5" rx="5" y="6" x="6" height="38" width="38"
                fill="#f2f5e9" fill-opacity="0.5" stroke="#606060" stroke-width="1.0"/>
           <path id="arrow"
             d="M 11.500037,31.436501 C 11.940474,20.09759 22.043105,11.32322 32.158766,21.979434 L 37.068811,17.246167 C 37.068811,17.246167 37.088388,32 37.088388,32 L 22.160133,31.978069 C 22.160133,31.978069 26.997745,27.140456 26.997745,27.140456 C 18.528582,18.264221 13.291696,25.230495 11.500037,31.436501 z"
             style="fill:#404040;"/>
          </a>
         </g>
        </svg>
</svg>
