<?xml version="1.0" encoding="UTF-8" standalone="no"?>
<!DOCTYPE svg PUBLIC "-//W3C//DTD SVG 1.1//EN"
 "http://www.w3.org/Graphics/SVG/1.1/DTD/svg11.dtd">
<!-- Generated by graphviz version 3.0.0 (20221109.1736)
 -->
<!-- Title: denoptim.graph.Template.fromJson Pages: 1 -->
<svg width="406pt" height="52pt"
 viewBox="0.00 0.00 406.00 51.50" xmlns="http://www.w3.org/2000/svg" xmlns:xlink="http://www.w3.org/1999/xlink">
<g id="graph0" class="graph" transform="scale(1 1) rotate(0) translate(4 47.5)">
<title>denoptim.graph.Template.fromJson</title>
<polygon fill="white" stroke="transparent" points="-4,4 -4,-47.5 402,-47.5 402,4 -4,4"/>
<!-- Node1 -->
<g id="node1" class="node">
<title>Node1</title>
<g id="a_node1"><a xlink:title="Reads a JSON string and returns an instance of this class.">
<polygon fill="#bfbfbf" stroke="black" points="230,-6 230,-25 398,-25 398,-6 230,-6"/>
<text text-anchor="middle" x="314" y="-13" font-family="Helvetica,sans-Serif" font-size="10.00">denoptim.graph.Template.fromJson</text>
</a>
</g>
</g>
<!-- Node1&#45;&gt;Node1 -->
<g id="edge2" class="edge">
<title>Node1&#45;&gt;Node1</title>
<path fill="none" stroke="midnightblue" d="M354.4,-32.12C355.81,-38.36 342.35,-43.5 314,-43.5 275.4,-43.5 264.39,-33.96 280.98,-25.11"/>
<polygon fill="midnightblue" stroke="midnightblue" points="356.68,-29.46 347.02,-25.11 351.86,-34.54 356.68,-29.46"/>
</g>
<!-- Node2 -->
<g id="node2" class="node">
<title>Node2</title>
<g id="a_node2"><a xlink:href="classdenoptim_1_1graph_1_1_vertex_1_1_d_e_n_o_p_t_i_m_vertex_deserializer.html#a281fc89776bbb6dbb93813fbb6eb2f70" target="_top" xlink:title=" ">
<polygon fill="white" stroke="black" points="0,-0.5 0,-30.5 194,-30.5 194,-0.5 0,-0.5"/>
<text text-anchor="start" x="8" y="-18.5" font-family="Helvetica,sans-Serif" font-size="10.00">denoptim.graph.Vertex.DENOPTIMVertex</text>
<text text-anchor="middle" x="97" y="-7.5" font-family="Helvetica,sans-Serif" font-size="10.00">Deserializer.deserialize</text>
</a>
</g>
</g>
<!-- Node1&#45;&gt;Node2 -->
<g id="edge1" class="edge">
<title>Node1&#45;&gt;Node2</title>
<path fill="none" stroke="midnightblue" d="M219.64,-15.5C211.19,-15.5 202.63,-15.5 194.16,-15.5"/>
<polygon fill="midnightblue" stroke="midnightblue" points="219.88,-19 229.88,-15.5 219.88,-12 219.88,-19"/>
</g>
</g>
</svg>
