<?xml version="1.0" encoding="UTF-8" standalone="no"?>
<!DOCTYPE svg PUBLIC "-//W3C//DTD SVG 1.1//EN"
 "http://www.w3.org/Graphics/SVG/1.1/DTD/svg11.dtd">
<!-- Generated by graphviz version 3.0.0 (20221109.1736)
 -->
<!-- Title: denoptim.graph.DGraph.getChildrenTree Pages: 1 -->
<!--zoomable 398 -->
<svg id="main" version="1.1" xmlns="http://www.w3.org/2000/svg" xmlns:xlink="http://www.w3.org/1999/xlink" xml:space="preserve" onload="init(evt)">
<style type="text/css"><![CDATA[
.edge:hover path { stroke: red; }
.edge:hover polygon { stroke: red; fill: red; }
]]></style>
<script type="text/javascript"><![CDATA[
var edges = document.getElementsByTagName('g');
if (edges && edges.length) {
  for (var i=0;i<edges.length;i++) {
    if (edges[i].id.substr(0,4)=='edge') {
      edges[i].setAttribute('class','edge');
    }
  }
}
]]></script>
        <defs>
                <circle id="rim" cx="0" cy="0" r="7"/>
                <circle id="rim2" cx="0" cy="0" r="3.5"/>
                <g id="zoomPlus">
                        <use xlink:href="#rim" fill="#404040">
                                <set attributeName="fill" to="#808080" begin="zoomplus.mouseover" end="zoomplus.mouseout"/>
                        </use>
                        <path d="M-4,0h8M0,-4v8" fill="none" stroke="white" stroke-width="1.5" pointer-events="none"/>
                </g>
                <g id="zoomMin">
                        <use xlink:href="#rim" fill="#404040">
                                <set attributeName="fill" to="#808080" begin="zoomminus.mouseover" end="zoomminus.mouseout"/>
                        </use>
                        <path d="M-4,0h8" fill="none" stroke="white" stroke-width="1.5" pointer-events="none"/>
                </g>
                <g id="dirArrow">
                        <path fill="none" stroke="white" stroke-width="1.5" d="M0,-3.0v7 M-2.5,-0.5L0,-3.0L2.5,-0.5"/>
                </g>
               <g id="resetDef">
                       <use xlink:href="#rim2" fill="#404040">
                               <set attributeName="fill" to="#808080" begin="reset.mouseover" end="reset.mouseout"/>
                       </use>
               </g>
        </defs>

<script type="text/javascript">
var viewWidth = 1223;
var viewHeight = 398;
var sectionId = 'dynsection-87';
</script>
<script xlink:href="svgpan.js"/>
<svg id="graph" class="graph">
<g id="viewport">
<title>denoptim.graph.DGraph.getChildrenTree</title>
<polygon fill="white" stroke="transparent" points="-4,4 -4,-394.14 1219,-394.14 1219,4 -4,4"/>
<!-- Node1 -->
<g id="node1" class="node">
<title>Node1</title>
<g id="a_node1"><a xlink:title="Gets all the children of the current vertex recursively.">
<polygon fill="#bfbfbf" stroke="black" points="1081,-147.5 1081,-177.5 1215,-177.5 1215,-147.5 1081,-147.5"/>
<text text-anchor="start" x="1089" y="-165.5" font-family="Helvetica,sans-Serif" font-size="10.00">denoptim.graph.DGraph.get</text>
<text text-anchor="middle" x="1148" y="-154.5" font-family="Helvetica,sans-Serif" font-size="10.00">ChildrenTree</text>
</a>
</g>
</g>
<!-- Node1&#45;&gt;Node1 -->
<g id="edge3" class="edge">
<title>Node1&#45;&gt;Node1</title>
<path fill="none" stroke="midnightblue" d="M1181.76,-187.96C1177.57,-192.68 1166.32,-196 1148,-196 1117.94,-196 1106.9,-187.06 1114.89,-177.66"/>
<polygon fill="midnightblue" stroke="midnightblue" points="1185.23,-187.42 1181.11,-177.66 1178.25,-187.86 1185.23,-187.42"/>
</g>
<!-- Node2 -->
<g id="node2" class="node">
<title>Node2</title>
<g id="a_node2"><a xlink:href="classdenoptim_1_1ga_1_1_e_a_utils.html#a0b958439d79fae30f14530213ad22e3a" target="_top" xlink:title="Generates up to a pair of new offspring by performing a crossover operation.">
<polygon fill="white" stroke="black" points="248.5,-333.5 248.5,-363.5 375.5,-363.5 375.5,-333.5 248.5,-333.5"/>
<text text-anchor="start" x="256.5" y="-351.5" font-family="Helvetica,sans-Serif" font-size="10.00">denoptim.ga.EAUtils.build</text>
<text text-anchor="middle" x="312" y="-340.5" font-family="Helvetica,sans-Serif" font-size="10.00">CandidatesByXOver</text>
</a>
</g>
</g>
<!-- Node1&#45;&gt;Node2 -->
<g id="edge1" class="edge">
<title>Node1&#45;&gt;Node2</title>
<path fill="none" stroke="midnightblue" d="M1137.01,-187.01C1122.24,-219.77 1091.23,-276.79 1045,-303.5 826.98,-429.44 509,-387.66 375.59,-362.13"/>
<polygon fill="midnightblue" stroke="midnightblue" points="1140.29,-188.25 1141.08,-177.68 1133.87,-185.45 1140.29,-188.25"/>
</g>
<!-- Node3 -->
<g id="node3" class="node">
<title>Node3</title>
<g id="a_node3"><a xlink:href="classdenoptim_1_1graph_1_1_d_graph.html#a4c897937d4e30c60a8a0c02a0c971262" target="_top" xlink:title="Creates a new graph that corresponds to the subgraph of this graph when exploring the spanning tree f...">
<polygon fill="white" stroke="black" points="883.5,-263.5 883.5,-293.5 1032.5,-293.5 1032.5,-263.5 883.5,-263.5"/>
<text text-anchor="start" x="891.5" y="-281.5" font-family="Helvetica,sans-Serif" font-size="10.00">denoptim.graph.DGraph.extract</text>
<text text-anchor="middle" x="958" y="-270.5" font-family="Helvetica,sans-Serif" font-size="10.00">Subgraph</text>
</a>
</g>
</g>
<!-- Node1&#45;&gt;Node3 -->
<g id="edge2" class="edge">
<title>Node1&#45;&gt;Node3</title>
<path fill="none" stroke="midnightblue" d="M1127.73,-185.06C1108.71,-205.96 1077.79,-236.46 1045,-254.5 1038.75,-257.94 1031.97,-260.91 1025.06,-263.49"/>
<polygon fill="midnightblue" stroke="midnightblue" points="1130.37,-187.36 1134.42,-177.56 1125.15,-182.7 1130.37,-187.36"/>
</g>
<!-- Node4 -->
<g id="node4" class="node">
<title>Node4</title>
<g id="a_node4"><a xlink:href="classdenoptim_1_1ga_1_1_graph_operations.html#a2396c23acf24d07f255b94eb3a2105b7" target="_top" xlink:title="Identify crossover sites, i.e., subgraphs that can be swapped between two graphs (i....">
<polygon fill="white" stroke="black" points="871.5,-196.5 871.5,-226.5 1044.5,-226.5 1044.5,-196.5 871.5,-196.5"/>
<text text-anchor="start" x="879.5" y="-214.5" font-family="Helvetica,sans-Serif" font-size="10.00">denoptim.ga.GraphOperations.locate</text>
<text text-anchor="middle" x="958" y="-203.5" font-family="Helvetica,sans-Serif" font-size="10.00">CompatibleXOverPoints</text>
</a>
</g>
</g>
<!-- Node1&#45;&gt;Node4 -->
<g id="edge4" class="edge">
<title>Node1&#45;&gt;Node4</title>
<path fill="none" stroke="midnightblue" d="M1079.39,-180.12C1058.82,-185.48 1036.42,-191.32 1016.57,-196.49"/>
<polygon fill="midnightblue" stroke="midnightblue" points="1080.52,-183.44 1089.32,-177.53 1078.76,-176.67 1080.52,-183.44"/>
</g>
<!-- Node12 -->
<g id="node12" class="node">
<title>Node12</title>
<g id="a_node12"><a xlink:href="classdenoptim_1_1graph_1_1_d_graph.html#aea560f1323c57e1264ac3192b4d294d1" target="_top" xlink:title="Deletes the branch, i.e., the specified vertex and its children.">
<polygon fill="white" stroke="black" points="882,-147.5 882,-177.5 1034,-177.5 1034,-147.5 882,-147.5"/>
<text text-anchor="start" x="890" y="-165.5" font-family="Helvetica,sans-Serif" font-size="10.00">denoptim.graph.DGraph.remove</text>
<text text-anchor="middle" x="958" y="-154.5" font-family="Helvetica,sans-Serif" font-size="10.00">OrphanBranchStartingAt</text>
</a>
</g>
</g>
<!-- Node1&#45;&gt;Node12 -->
<g id="edge14" class="edge">
<title>Node1&#45;&gt;Node12</title>
<path fill="none" stroke="midnightblue" d="M1070.92,-162.5C1058.8,-162.5 1046.27,-162.5 1034.18,-162.5"/>
<polygon fill="midnightblue" stroke="midnightblue" points="1070.98,-166 1080.98,-162.5 1070.98,-159 1070.98,-166"/>
</g>
<!-- Node18 -->
<g id="node18" class="node">
<title>Node18</title>
<g id="a_node18"><a xlink:href="classdenoptim_1_1ga_1_1_e_a_utils_test.html#a52682a0cc73283eafd36d345b6929ea8" target="_top" xlink:title=" ">
<polygon fill="white" stroke="black" points="886.5,-98.5 886.5,-128.5 1029.5,-128.5 1029.5,-98.5 886.5,-98.5"/>
<text text-anchor="start" x="894.5" y="-116.5" font-family="Helvetica,sans-Serif" font-size="10.00">denoptim.ga.EAUtilsTest.test</text>
<text text-anchor="middle" x="958" y="-105.5" font-family="Helvetica,sans-Serif" font-size="10.00">BuildByXOver_SubGraph</text>
</a>
</g>
</g>
<!-- Node1&#45;&gt;Node18 -->
<g id="edge21" class="edge">
<title>Node1&#45;&gt;Node18</title>
<path fill="none" stroke="midnightblue" d="M1079.39,-144.88C1058.82,-139.52 1036.42,-133.68 1016.57,-128.51"/>
<polygon fill="midnightblue" stroke="midnightblue" points="1078.76,-148.33 1089.32,-147.47 1080.52,-141.56 1078.76,-148.33"/>
</g>
<!-- Node19 -->
<g id="node19" class="node">
<title>Node19</title>
<g id="a_node19"><a xlink:href="classdenoptim_1_1graph_1_1_d_graph_test.html#a58da23a0d5e884652fecf95eac4995ad" target="_top" xlink:title=" ">
<polygon fill="white" stroke="black" points="880,-49.5 880,-79.5 1036,-79.5 1036,-49.5 880,-49.5"/>
<text text-anchor="start" x="888" y="-67.5" font-family="Helvetica,sans-Serif" font-size="10.00">denoptim.graph.DGraphTest.test</text>
<text text-anchor="middle" x="958" y="-56.5" font-family="Helvetica,sans-Serif" font-size="10.00">GetChildrenTree</text>
</a>
</g>
</g>
<!-- Node1&#45;&gt;Node19 -->
<g id="edge22" class="edge">
<title>Node1&#45;&gt;Node19</title>
<path fill="none" stroke="midnightblue" d="M1122.31,-140.69C1102.6,-124.28 1073.62,-102.32 1045,-88.5 1038.02,-85.13 1030.49,-82.16 1022.88,-79.56"/>
<polygon fill="midnightblue" stroke="midnightblue" points="1120.28,-143.55 1130.17,-147.35 1124.8,-138.21 1120.28,-143.55"/>
</g>
<!-- Node20 -->
<g id="node20" class="node">
<title>Node20</title>
<g id="a_node20"><a xlink:href="classdenoptim_1_1graph_1_1_d_graph_test.html#abfaf918deddf6407a4b1916c06a8c412" target="_top" xlink:title=" ">
<polygon fill="white" stroke="black" points="871,-0.5 871,-30.5 1045,-30.5 1045,-0.5 871,-0.5"/>
<text text-anchor="start" x="879" y="-18.5" font-family="Helvetica,sans-Serif" font-size="10.00">denoptim.graph.DGraphTest.test</text>
<text text-anchor="middle" x="958" y="-7.5" font-family="Helvetica,sans-Serif" font-size="10.00">GetChildrenTreeWithBranchIdentifier</text>
</a>
</g>
</g>
<!-- Node1&#45;&gt;Node20 -->
<g id="edge23" class="edge">
<title>Node1&#45;&gt;Node20</title>
<path fill="none" stroke="midnightblue" d="M1133.54,-138.77C1116.49,-110.88 1084.52,-65.13 1045,-39.5 1039.67,-36.04 1033.84,-33.08 1027.81,-30.53"/>
<polygon fill="midnightblue" stroke="midnightblue" points="1130.61,-140.7 1138.74,-147.5 1136.62,-137.11 1130.61,-140.7"/>
</g>
<!-- Node4&#45;&gt;Node4 -->
<g id="edge10" class="edge">
<title>Node4&#45;&gt;Node4</title>
<path fill="none" stroke="midnightblue" d="M991.76,-236.96C987.57,-241.68 976.32,-245 958,-245 927.94,-245 916.9,-236.06 924.89,-226.66"/>
<polygon fill="midnightblue" stroke="midnightblue" points="995.23,-236.42 991.11,-226.66 988.25,-236.86 995.23,-236.42"/>
</g>
<!-- Node5 -->
<g id="node5" class="node">
<title>Node5</title>
<g id="a_node5"><a xlink:href="classdenoptim_1_1ga_1_1_population.html#a31b74cc5407c42fa3a4214029fb08190" target="_top" xlink:title="Returns a list of population members that can do crossover with the specified member.">
<polygon fill="white" stroke="black" points="674,-270.5 674,-300.5 807,-300.5 807,-270.5 674,-270.5"/>
<text text-anchor="start" x="682" y="-288.5" font-family="Helvetica,sans-Serif" font-size="10.00">denoptim.ga.Population.get</text>
<text text-anchor="middle" x="740.5" y="-277.5" font-family="Helvetica,sans-Serif" font-size="10.00">XoverPartners</text>
</a>
</g>
</g>
<!-- Node4&#45;&gt;Node5 -->
<g id="edge5" class="edge">
<title>Node4&#45;&gt;Node5</title>
<path fill="none" stroke="midnightblue" d="M914.59,-230.57C891.37,-240.57 861.93,-252.57 835,-261.5 825.38,-264.69 815.08,-267.71 804.96,-270.47"/>
<polygon fill="midnightblue" stroke="midnightblue" points="916.03,-233.75 923.81,-226.56 913.24,-227.34 916.03,-233.75"/>
</g>
<!-- Node9 -->
<g id="node9" class="node">
<title>Node9</title>
<g id="a_node9"><a xlink:href="classdenoptim_1_1programs_1_1genetweeker_1_1_gene_ops_runner.html#ab0f92a94c4fb2334e7d3813e73fc4247" target="_top" xlink:title=" ">
<polygon fill="white" stroke="black" points="661,-221.5 661,-251.5 820,-251.5 820,-221.5 661,-221.5"/>
<text text-anchor="start" x="669" y="-239.5" font-family="Helvetica,sans-Serif" font-size="10.00">denoptim.programs.genetweeker.</text>
<text text-anchor="middle" x="740.5" y="-228.5" font-family="Helvetica,sans-Serif" font-size="10.00">GeneOpsRunner.runXOver</text>
</a>
</g>
</g>
<!-- Node4&#45;&gt;Node9 -->
<g id="edge11" class="edge">
<title>Node4&#45;&gt;Node9</title>
<path fill="none" stroke="midnightblue" d="M861.23,-222.61C847.45,-224.21 833.4,-225.84 820.01,-227.39"/>
<polygon fill="midnightblue" stroke="midnightblue" points="861.68,-226.08 871.21,-221.45 860.87,-219.13 861.68,-226.08"/>
</g>
<!-- Node11 -->
<g id="node11" class="node">
<title>Node11</title>
<g id="a_node11"><a xlink:href="classdenoptim_1_1ga_1_1_graph_operations_test.html#a9fcf8fffef10a59df722c92e94da2815" target="_top" xlink:title=" ">
<polygon fill="white" stroke="black" points="646,-172.5 646,-202.5 835,-202.5 835,-172.5 646,-172.5"/>
<text text-anchor="start" x="654" y="-190.5" font-family="Helvetica,sans-Serif" font-size="10.00">denoptim.ga.GraphOperations</text>
<text text-anchor="middle" x="740.5" y="-179.5" font-family="Helvetica,sans-Serif" font-size="10.00">Test.testLocateCompatibleXOverPoints</text>
</a>
</g>
</g>
<!-- Node4&#45;&gt;Node11 -->
<g id="edge13" class="edge">
<title>Node4&#45;&gt;Node11</title>
<path fill="none" stroke="midnightblue" d="M861.13,-200.82C852.5,-199.86 843.76,-198.89 835.14,-197.93"/>
<polygon fill="midnightblue" stroke="midnightblue" points="860.88,-204.32 871.21,-201.95 861.66,-197.36 860.88,-204.32"/>
</g>
<!-- Node6 -->
<g id="node6" class="node">
<title>Node6</title>
<g id="a_node6"><a xlink:href="classdenoptim_1_1ga_1_1_e_a_utils.html#a45d4e9ec6a308aa73891efa1d501dd5e" target="_top" xlink:title="Perform fitness&#45;based, class&#45;compatible selection of parents that can do crossover operations.">
<polygon fill="white" stroke="black" points="444,-320 444,-339 610,-339 610,-320 444,-320"/>
<text text-anchor="middle" x="527" y="-327" font-family="Helvetica,sans-Serif" font-size="10.00">denoptim.ga.EAUtils.performFBCC</text>
</a>
</g>
</g>
<!-- Node5&#45;&gt;Node6 -->
<g id="edge6" class="edge">
<title>Node5&#45;&gt;Node6</title>
<path fill="none" stroke="midnightblue" d="M663.71,-301.27C633.69,-307.51 600.16,-314.49 573.94,-319.94"/>
<polygon fill="midnightblue" stroke="midnightblue" points="664.66,-304.64 673.74,-299.18 663.24,-297.79 664.66,-304.64"/>
</g>
<!-- Node7 -->
<g id="node7" class="node">
<title>Node7</title>
<g id="a_node7"><a xlink:href="classdenoptim_1_1ga_1_1_population_test.html#a5db0672054a9fc1dbc923310732fdb3a" target="_top" xlink:title=" ">
<polygon fill="white" stroke="black" points="449.5,-270.5 449.5,-300.5 604.5,-300.5 604.5,-270.5 449.5,-270.5"/>
<text text-anchor="start" x="457.5" y="-288.5" font-family="Helvetica,sans-Serif" font-size="10.00">denoptim.ga.PopulationTest.test</text>
<text text-anchor="middle" x="527" y="-277.5" font-family="Helvetica,sans-Serif" font-size="10.00">Clone</text>
</a>
</g>
</g>
<!-- Node5&#45;&gt;Node7 -->
<g id="edge8" class="edge">
<title>Node5&#45;&gt;Node7</title>
<path fill="none" stroke="midnightblue" d="M663.59,-285.5C644.49,-285.5 623.98,-285.5 604.83,-285.5"/>
<polygon fill="midnightblue" stroke="midnightblue" points="663.74,-289 673.74,-285.5 663.74,-282 663.74,-289"/>
</g>
<!-- Node8 -->
<g id="node8" class="node">
<title>Node8</title>
<g id="a_node8"><a xlink:href="classdenoptim_1_1ga_1_1_population_test.html#a278212ebff2501b7071d342f9a027599" target="_top" xlink:title=" ">
<polygon fill="white" stroke="black" points="449.5,-221.5 449.5,-251.5 604.5,-251.5 604.5,-221.5 449.5,-221.5"/>
<text text-anchor="start" x="457.5" y="-239.5" font-family="Helvetica,sans-Serif" font-size="10.00">denoptim.ga.PopulationTest.test</text>
<text text-anchor="middle" x="527" y="-228.5" font-family="Helvetica,sans-Serif" font-size="10.00">XOverCompatibility</text>
</a>
</g>
</g>
<!-- Node5&#45;&gt;Node8 -->
<g id="edge9" class="edge">
<title>Node5&#45;&gt;Node8</title>
<path fill="none" stroke="midnightblue" d="M664.69,-268.17C641.21,-262.73 615.5,-256.77 592.77,-251.51"/>
<polygon fill="midnightblue" stroke="midnightblue" points="664.07,-271.62 674.61,-270.47 665.65,-264.8 664.07,-271.62"/>
</g>
<!-- Node6&#45;&gt;Node2 -->
<g id="edge7" class="edge">
<title>Node6&#45;&gt;Node2</title>
<path fill="none" stroke="midnightblue" d="M433.79,-337.73C414.22,-339.47 393.99,-341.28 375.82,-342.9"/>
<polygon fill="midnightblue" stroke="midnightblue" points="434.3,-341.19 443.95,-336.82 433.68,-334.22 434.3,-341.19"/>
</g>
<!-- Node10 -->
<g id="node10" class="node">
<title>Node10</title>
<g id="a_node10"><a xlink:href="classdenoptim_1_1programs_1_1genetweeker_1_1_gene_ops_runner.html#a3c2407eb1204a7b25600d3d347d98447" target="_top" xlink:title=" ">
<polygon fill="white" stroke="black" points="447.5,-172.5 447.5,-202.5 606.5,-202.5 606.5,-172.5 447.5,-172.5"/>
<text text-anchor="start" x="455.5" y="-190.5" font-family="Helvetica,sans-Serif" font-size="10.00">denoptim.programs.genetweeker.</text>
<text text-anchor="middle" x="527" y="-179.5" font-family="Helvetica,sans-Serif" font-size="10.00">GeneOpsRunner.runProgram</text>
</a>
</g>
</g>
<!-- Node9&#45;&gt;Node10 -->
<g id="edge12" class="edge">
<title>Node9&#45;&gt;Node10</title>
<path fill="none" stroke="midnightblue" d="M664.69,-219.17C641.21,-213.73 615.5,-207.77 592.77,-202.51"/>
<polygon fill="midnightblue" stroke="midnightblue" points="664.07,-222.62 674.61,-221.47 665.65,-215.8 664.07,-222.62"/>
</g>
<!-- Node13 -->
<g id="node13" class="node">
<title>Node13</title>
<g id="a_node13"><a xlink:href="classdenoptim_1_1graph_1_1_d_graph.html#a65f0577c098508ced9925878e94ead82" target="_top" xlink:title="Deletes the branch, i.e., the specified vertex and its children.">
<polygon fill="white" stroke="black" points="664.5,-123.5 664.5,-153.5 816.5,-153.5 816.5,-123.5 664.5,-123.5"/>
<text text-anchor="start" x="672.5" y="-141.5" font-family="Helvetica,sans-Serif" font-size="10.00">denoptim.graph.DGraph.remove</text>
<text text-anchor="middle" x="740.5" y="-130.5" font-family="Helvetica,sans-Serif" font-size="10.00">BranchStartingAt</text>
</a>
</g>
</g>
<!-- Node12&#45;&gt;Node13 -->
<g id="edge15" class="edge">
<title>Node12&#45;&gt;Node13</title>
<path fill="none" stroke="midnightblue" d="M871.9,-153.02C853.66,-150.99 834.5,-148.86 816.66,-146.87"/>
<polygon fill="midnightblue" stroke="midnightblue" points="871.61,-156.51 881.93,-154.14 872.38,-149.55 871.61,-156.51"/>
</g>
<!-- Node14 -->
<g id="node14" class="node">
<title>Node14</title>
<g id="a_node14"><a xlink:href="classdenoptim_1_1graph_1_1_d_graph.html#a357b4099599e47ae47102123550771f8" target="_top" xlink:title="Remove a given vertex belonging to this graph and re&#45;connects the resulting graph branches as much as...">
<polygon fill="white" stroke="black" points="664.5,-56.5 664.5,-86.5 816.5,-86.5 816.5,-56.5 664.5,-56.5"/>
<text text-anchor="start" x="672.5" y="-74.5" font-family="Helvetica,sans-Serif" font-size="10.00">denoptim.graph.DGraph.remove</text>
<text text-anchor="middle" x="740.5" y="-63.5" font-family="Helvetica,sans-Serif" font-size="10.00">SingleVertexAndWeld</text>
</a>
</g>
</g>
<!-- Node12&#45;&gt;Node14 -->
<g id="edge16" class="edge">
<title>Node12&#45;&gt;Node14</title>
<path fill="none" stroke="midnightblue" d="M886.7,-144.01C881.31,-142.01 876.02,-139.84 871,-137.5 853.56,-129.39 851.83,-122.81 835,-113.5 817.09,-103.6 796.4,-94.12 779.05,-86.68"/>
<polygon fill="midnightblue" stroke="midnightblue" points="885.86,-147.43 896.46,-147.44 888.19,-140.83 885.86,-147.43"/>
</g>
<!-- Node14&#45;&gt;Node14 -->
<g id="edge17" class="edge">
<title>Node14&#45;&gt;Node14</title>
<path fill="none" stroke="midnightblue" d="M778.17,-96.96C773.49,-101.68 760.94,-105 740.5,-105 706.96,-105 694.65,-96.06 703.55,-86.66"/>
<polygon fill="midnightblue" stroke="midnightblue" points="781.64,-96.39 777.45,-86.66 774.66,-96.88 781.64,-96.39"/>
</g>
<!-- Node15 -->
<g id="node15" class="node">
<title>Node15</title>
<g id="a_node15"><a xlink:href="classdenoptim_1_1graph_1_1_d_graph.html#a00209ca8b4a9623b41e7d9e1e62f69ec" target="_top" xlink:title="Remove a given vertex belonging to this graph and re&#45;connects the resulting graph branches as much as...">
<polygon fill="white" stroke="black" points="451,-56.5 451,-86.5 603,-86.5 603,-56.5 451,-56.5"/>
<text text-anchor="start" x="459" y="-74.5" font-family="Helvetica,sans-Serif" font-size="10.00">denoptim.graph.DGraph.remove</text>
<text text-anchor="middle" x="527" y="-63.5" font-family="Helvetica,sans-Serif" font-size="10.00">VertexAndWeld</text>
</a>
</g>
</g>
<!-- Node14&#45;&gt;Node15 -->
<g id="edge18" class="edge">
<title>Node14&#45;&gt;Node15</title>
<path fill="none" stroke="midnightblue" d="M653.99,-71.5C637.2,-71.5 619.7,-71.5 603.28,-71.5"/>
<polygon fill="midnightblue" stroke="midnightblue" points="654.34,-75 664.34,-71.5 654.34,-68 654.34,-75"/>
</g>
<!-- Node16 -->
<g id="node16" class="node">
<title>Node16</title>
<g id="a_node16"><a xlink:href="classdenoptim_1_1ga_1_1_graph_operations.html#ab3adb5141a8941bf23916bb516faee63" target="_top" xlink:title="Removes a vertex while merging as many of the child branches into the parent vertex.">
<polygon fill="white" stroke="black" points="216,-62 216,-81 408,-81 408,-62 216,-62"/>
<text text-anchor="middle" x="312" y="-69" font-family="Helvetica,sans-Serif" font-size="10.00">denoptim.ga.GraphOperations.deleteLink</text>
</a>
</g>
</g>
<!-- Node15&#45;&gt;Node16 -->
<g id="edge19" class="edge">
<title>Node15&#45;&gt;Node16</title>
<path fill="none" stroke="midnightblue" d="M440.78,-71.5C430.1,-71.5 419.13,-71.5 408.31,-71.5"/>
<polygon fill="midnightblue" stroke="midnightblue" points="440.9,-75 450.9,-71.5 440.9,-68 440.9,-75"/>
</g>
<!-- Node17 -->
<g id="node17" class="node">
<title>Node17</title>
<g id="a_node17"><a xlink:href="classdenoptim_1_1ga_1_1_graph_operations.html#a0c851972015fbb4b2a317b053b8b81d9" target="_top" xlink:title="Mutates the given vertex according to the given mutation type, if possible.">
<polygon fill="white" stroke="black" points="0,-56.5 0,-86.5 180,-86.5 180,-56.5 0,-56.5"/>
<text text-anchor="start" x="8" y="-74.5" font-family="Helvetica,sans-Serif" font-size="10.00">denoptim.ga.GraphOperations.perform</text>
<text text-anchor="middle" x="90" y="-63.5" font-family="Helvetica,sans-Serif" font-size="10.00">Mutation</text>
</a>
</g>
</g>
<!-- Node16&#45;&gt;Node17 -->
<g id="edge20" class="edge">
<title>Node16&#45;&gt;Node17</title>
<path fill="none" stroke="midnightblue" d="M205.75,-71.5C197.17,-71.5 188.56,-71.5 180.11,-71.5"/>
<polygon fill="midnightblue" stroke="midnightblue" points="205.78,-75 215.78,-71.5 205.78,-68 205.78,-75"/>
</g>
</g>
</svg>
        <g id="navigator" transform="translate(0 0)" fill="#404254">
                <rect fill="#f2f5e9" fill-opacity="0.5" stroke="#606060" stroke-width=".5" x="0" y="0" width="60" height="60"/>
                <use id="zoomplus" xlink:href="#zoomPlus" x="17" y="9" onmousedown="handleZoom(evt,'in')"/>
                <use id="zoomminus" xlink:href="#zoomMin" x="42" y="9" onmousedown="handleZoom(evt,'out')"/>
                <use id="reset" xlink:href="#resetDef" x="30" y="36" onmousedown="handleReset()"/>
                <g id="arrowUp" xlink:href="#dirArrow" transform="translate(30 24)" onmousedown="handlePan(0,-1)">
                  <use xlink:href="#rim" fill="#404040">
                        <set attributeName="fill" to="#808080" begin="arrowUp.mouseover" end="arrowUp.mouseout"/>
                  </use>
                  <path fill="none" stroke="white" stroke-width="1.5" d="M0,-3.0v7 M-2.5,-0.5L0,-3.0L2.5,-0.5"/>
                </g>
                <g id="arrowRight" xlink:href="#dirArrow" transform="rotate(90) translate(36 -43)" onmousedown="handlePan(1,0)">
                  <use xlink:href="#rim" fill="#404040">
                        <set attributeName="fill" to="#808080" begin="arrowRight.mouseover" end="arrowRight.mouseout"/>
                  </use>
                  <path fill="none" stroke="white" stroke-width="1.5" d="M0,-3.0v7 M-2.5,-0.5L0,-3.0L2.5,-0.5"/>
                </g>
                <g id="arrowDown" xlink:href="#dirArrow" transform="rotate(180) translate(-30 -48)" onmousedown="handlePan(0,1)">
                  <use xlink:href="#rim" fill="#404040">
                        <set attributeName="fill" to="#808080" begin="arrowDown.mouseover" end="arrowDown.mouseout"/>
                  </use>
                  <path fill="none" stroke="white" stroke-width="1.5" d="M0,-3.0v7 M-2.5,-0.5L0,-3.0L2.5,-0.5"/>
                </g>
                <g id="arrowLeft" xlink:href="#dirArrow" transform="rotate(270) translate(-36 17)" onmousedown="handlePan(-1,0)">
                  <use xlink:href="#rim" fill="#404040">
                        <set attributeName="fill" to="#808080" begin="arrowLeft.mouseover" end="arrowLeft.mouseout"/>
                  </use>
                  <path fill="none" stroke="white" stroke-width="1.5" d="M0,-3.0v7 M-2.5,-0.5L0,-3.0L2.5,-0.5"/>
                </g>
        </g>
        <svg viewBox="0 0 15 15" width="100%" height="30px" preserveAspectRatio="xMaxYMin meet">
         <g id="arrow_out" transform="scale(0.3 0.3)">
          <a xlink:href="classdenoptim_1_1graph_1_1_d_graph_a3a184063c09f54ff6798aea4dd504302_icgraph_org.svg" target="_base">
           <rect id="button" ry="5" rx="5" y="6" x="6" height="38" width="38"
                fill="#f2f5e9" fill-opacity="0.5" stroke="#606060" stroke-width="1.0"/>
           <path id="arrow"
             d="M 11.500037,31.436501 C 11.940474,20.09759 22.043105,11.32322 32.158766,21.979434 L 37.068811,17.246167 C 37.068811,17.246167 37.088388,32 37.088388,32 L 22.160133,31.978069 C 22.160133,31.978069 26.997745,27.140456 26.997745,27.140456 C 18.528582,18.264221 13.291696,25.230495 11.500037,31.436501 z"
             style="fill:#404040;"/>
          </a>
         </g>
        </svg>
</svg>
