<?xml version="1.0" encoding="UTF-8" standalone="no"?>
<!DOCTYPE svg PUBLIC "-//W3C//DTD SVG 1.1//EN"
 "http://www.w3.org/Graphics/SVG/1.1/DTD/svg11.dtd">
<!-- Generated by graphviz version 3.0.0 (20221109.1736)
 -->
<!-- Title: denoptim.gui.GUIVertexSelector.clearCurrentSystem Pages: 1 -->
<svg width="1061pt" height="148pt"
 viewBox="0.00 0.00 1061.00 147.50" xmlns="http://www.w3.org/2000/svg" xmlns:xlink="http://www.w3.org/1999/xlink">
<g id="graph0" class="graph" transform="scale(1 1) rotate(0) translate(4 143.5)">
<title>denoptim.gui.GUIVertexSelector.clearCurrentSystem</title>
<polygon fill="white" stroke="transparent" points="-4,4 -4,-143.5 1057,-143.5 1057,4 -4,4"/>
<!-- Node1 -->
<g id="node1" class="node">
<title>Node1</title>
<g id="a_node1"><a xlink:title=" ">
<polygon fill="#bfbfbf" stroke="black" points="0,-49.5 0,-79.5 179,-79.5 179,-49.5 0,-49.5"/>
<text text-anchor="start" x="8" y="-67.5" font-family="Helvetica,sans-Serif" font-size="10.00">denoptim.gui.GUIVertexSelector.clear</text>
<text text-anchor="middle" x="89.5" y="-56.5" font-family="Helvetica,sans-Serif" font-size="10.00">CurrentSystem</text>
</a>
</g>
</g>
<!-- Node2 -->
<g id="node2" class="node">
<title>Node2</title>
<g id="a_node2"><a xlink:href="classdenoptim_1_1gui_1_1_vertex_view_panel.html#a04374b744146d399fb0403bf9d95b132" target="_top" xlink:title="Removes the currently visualized molecule and AP table.">
<polygon fill="white" stroke="black" points="215,-49.5 215,-79.5 386,-79.5 386,-49.5 215,-49.5"/>
<text text-anchor="start" x="223" y="-67.5" font-family="Helvetica,sans-Serif" font-size="10.00">denoptim.gui.VertexViewPanel.clear</text>
<text text-anchor="middle" x="300.5" y="-56.5" font-family="Helvetica,sans-Serif" font-size="10.00">CurrentSystem</text>
</a>
</g>
</g>
<!-- Node1&#45;&gt;Node2 -->
<g id="edge1" class="edge">
<title>Node1&#45;&gt;Node2</title>
<path fill="none" stroke="midnightblue" d="M179.13,-64.5C187.52,-64.5 196.04,-64.5 204.48,-64.5"/>
<polygon fill="midnightblue" stroke="midnightblue" points="204.72,-68 214.72,-64.5 204.72,-61 204.72,-68"/>
</g>
<!-- Node3 -->
<g id="node3" class="node">
<title>Node3</title>
<g id="a_node3"><a xlink:href="classdenoptim_1_1gui_1_1_fragment_view_panel.html#a65e5473c03b2075c97fbfa9b587b8949" target="_top" xlink:title="Clears the table of attachment points.">
<polygon fill="white" stroke="black" points="443,-99.5 443,-129.5 580,-129.5 580,-99.5 443,-99.5"/>
<text text-anchor="start" x="451" y="-117.5" font-family="Helvetica,sans-Serif" font-size="10.00">denoptim.gui.FragmentView</text>
<text text-anchor="middle" x="511.5" y="-106.5" font-family="Helvetica,sans-Serif" font-size="10.00">Panel.clearAPTable</text>
</a>
</g>
</g>
<!-- Node2&#45;&gt;Node3 -->
<g id="edge2" class="edge">
<title>Node2&#45;&gt;Node3</title>
<path fill="none" stroke="midnightblue" d="M364.21,-79.5C387.35,-85.04 413.77,-91.36 437.73,-97.09"/>
<polygon fill="midnightblue" stroke="midnightblue" points="436.94,-100.5 447.48,-99.42 438.57,-93.69 436.94,-100.5"/>
</g>
<!-- Node6 -->
<g id="node6" class="node">
<title>Node6</title>
<g id="a_node6"><a xlink:href="classdenoptim_1_1gui_1_1_vertex_as_graph_view_panel.html#af9187da422f4f24b56b63c8e225b9c13" target="_top" xlink:title="Clears the table of attachment points.">
<polygon fill="white" stroke="black" points="441.5,-49.5 441.5,-79.5 581.5,-79.5 581.5,-49.5 441.5,-49.5"/>
<text text-anchor="start" x="449.5" y="-67.5" font-family="Helvetica,sans-Serif" font-size="10.00">denoptim.gui.VertexAsGraph</text>
<text text-anchor="middle" x="511.5" y="-56.5" font-family="Helvetica,sans-Serif" font-size="10.00">ViewPanel.clearAPTable</text>
</a>
</g>
</g>
<!-- Node2&#45;&gt;Node6 -->
<g id="edge5" class="edge">
<title>Node2&#45;&gt;Node6</title>
<path fill="none" stroke="midnightblue" d="M386.21,-64.5C401.1,-64.5 416.55,-64.5 431.29,-64.5"/>
<polygon fill="midnightblue" stroke="midnightblue" points="431.36,-68 441.36,-64.5 431.36,-61 431.36,-68"/>
</g>
<!-- Node9 -->
<g id="node9" class="node">
<title>Node9</title>
<g id="a_node9"><a xlink:href="classdenoptim_1_1gui_1_1_vertex_view_panel.html#a9bcc749971b5bff83b5c94c419509567" target="_top" xlink:title=" ">
<polygon fill="white" stroke="black" points="422,-0.5 422,-30.5 601,-30.5 601,-0.5 422,-0.5"/>
<text text-anchor="start" x="430" y="-18.5" font-family="Helvetica,sans-Serif" font-size="10.00">denoptim.gui.VertexViewPanel.switch</text>
<text text-anchor="middle" x="511.5" y="-7.5" font-family="Helvetica,sans-Serif" font-size="10.00">ToEmptyCard</text>
</a>
</g>
</g>
<!-- Node2&#45;&gt;Node9 -->
<g id="edge8" class="edge">
<title>Node2&#45;&gt;Node9</title>
<path fill="none" stroke="midnightblue" d="M365.63,-49.47C388.1,-44.2 413.51,-38.24 436.7,-32.8"/>
<polygon fill="midnightblue" stroke="midnightblue" points="437.56,-36.2 446.49,-30.51 435.96,-29.38 437.56,-36.2"/>
</g>
<!-- Node4 -->
<g id="node4" class="node">
<title>Node4</title>
<g id="a_node4"><a xlink:href="classdenoptim_1_1gui_1_1_fragment_view_panel.html#ad1564e5c67234495668c68f02ab04ed4" target="_top" xlink:title="Allows to activate and deactivate the listener.">
<polygon fill="white" stroke="black" points="647.5,-100.5 647.5,-130.5 799.5,-130.5 799.5,-100.5 647.5,-100.5"/>
<text text-anchor="start" x="655.5" y="-118.5" font-family="Helvetica,sans-Serif" font-size="10.00">denoptim.gui.FragmentView</text>
<text text-anchor="middle" x="723.5" y="-107.5" font-family="Helvetica,sans-Serif" font-size="10.00">Panel.activateTabEditsListener</text>
</a>
</g>
</g>
<!-- Node3&#45;&gt;Node4 -->
<g id="edge3" class="edge">
<title>Node3&#45;&gt;Node4</title>
<path fill="none" stroke="midnightblue" d="M580.1,-114.82C598.29,-114.91 618.21,-115 637.23,-115.09"/>
<polygon fill="midnightblue" stroke="midnightblue" points="637.37,-118.59 647.38,-115.14 637.4,-111.59 637.37,-118.59"/>
</g>
<!-- Node5 -->
<g id="node5" class="node">
<title>Node5</title>
<g id="a_node5"><a xlink:href="classdenoptim_1_1gui_1_1_fragment_view_panel_1_1_pausable_table_model_listener.html#ab8f315a71d317424e2647c160fc3fdfb" target="_top" xlink:title=" ">
<polygon fill="white" stroke="black" points="857,-98 857,-139 1042,-139 1042,-98 857,-98"/>
<text text-anchor="start" x="865" y="-127" font-family="Helvetica,sans-Serif" font-size="10.00">denoptim.gui.FragmentView</text>
<text text-anchor="start" x="865" y="-116" font-family="Helvetica,sans-Serif" font-size="10.00">Panel.PausableTableModelListener.set</text>
<text text-anchor="middle" x="949.5" y="-105" font-family="Helvetica,sans-Serif" font-size="10.00">Active</text>
</a>
</g>
</g>
<!-- Node4&#45;&gt;Node5 -->
<g id="edge4" class="edge">
<title>Node4&#45;&gt;Node5</title>
<path fill="none" stroke="midnightblue" d="M799.71,-116.51C814.73,-116.71 830.73,-116.92 846.47,-117.13"/>
<polygon fill="midnightblue" stroke="midnightblue" points="846.72,-120.64 856.76,-117.27 846.81,-113.64 846.72,-120.64"/>
</g>
<!-- Node7 -->
<g id="node7" class="node">
<title>Node7</title>
<g id="a_node7"><a xlink:href="classdenoptim_1_1gui_1_1_vertex_as_graph_view_panel.html#a87f08fd10d2e9ce079c42619f52317e3" target="_top" xlink:title="Allows to activate and deactivate the listener.">
<polygon fill="white" stroke="black" points="637,-48.5 637,-78.5 810,-78.5 810,-48.5 637,-48.5"/>
<text text-anchor="start" x="645" y="-66.5" font-family="Helvetica,sans-Serif" font-size="10.00">denoptim.gui.VertexAsGraph</text>
<text text-anchor="middle" x="723.5" y="-55.5" font-family="Helvetica,sans-Serif" font-size="10.00">ViewPanel.activateTabEditsListener</text>
</a>
</g>
</g>
<!-- Node6&#45;&gt;Node7 -->
<g id="edge6" class="edge">
<title>Node6&#45;&gt;Node7</title>
<path fill="none" stroke="midnightblue" d="M581.55,-64.17C595.93,-64.1 611.33,-64.03 626.47,-63.96"/>
<polygon fill="midnightblue" stroke="midnightblue" points="626.92,-67.46 636.9,-63.91 626.89,-60.46 626.92,-67.46"/>
</g>
<!-- Node8 -->
<g id="node8" class="node">
<title>Node8</title>
<g id="a_node8"><a xlink:href="classdenoptim_1_1gui_1_1_vertex_as_graph_view_panel_1_1_pausable_table_model_listener.html#a37b99134be224897be59444fca4734bf" target="_top" xlink:title=" ">
<polygon fill="white" stroke="black" points="846,-38 846,-79 1053,-79 1053,-38 846,-38"/>
<text text-anchor="start" x="854" y="-67" font-family="Helvetica,sans-Serif" font-size="10.00">denoptim.gui.VertexAsGraph</text>
<text text-anchor="start" x="854" y="-56" font-family="Helvetica,sans-Serif" font-size="10.00">ViewPanel.PausableTableModelListener.set</text>
<text text-anchor="middle" x="949.5" y="-45" font-family="Helvetica,sans-Serif" font-size="10.00">Active</text>
</a>
</g>
</g>
<!-- Node7&#45;&gt;Node8 -->
<g id="edge7" class="edge">
<title>Node7&#45;&gt;Node8</title>
<path fill="none" stroke="midnightblue" d="M810.14,-61.59C818.49,-61.4 827.04,-61.21 835.6,-61.02"/>
<polygon fill="midnightblue" stroke="midnightblue" points="835.72,-64.52 845.64,-60.8 835.56,-57.52 835.72,-64.52"/>
</g>
</g>
</svg>
