<?xml version="1.0" encoding="UTF-8" standalone="no"?>
<!DOCTYPE svg PUBLIC "-//W3C//DTD SVG 1.1//EN"
 "http://www.w3.org/Graphics/SVG/1.1/DTD/svg11.dtd">
<!-- Generated by graphviz version 3.0.0 (20221109.1736)
 -->
<!-- Title: denoptim.molecularmodeling.zmatrix.ZMatrix.equals Pages: 1 -->
<svg width="394pt" height="186pt"
 viewBox="0.00 0.00 394.00 186.00" xmlns="http://www.w3.org/2000/svg" xmlns:xlink="http://www.w3.org/1999/xlink">
<g id="graph0" class="graph" transform="scale(1 1) rotate(0) translate(4 182)">
<title>denoptim.molecularmodeling.zmatrix.ZMatrix.equals</title>
<polygon fill="white" stroke="transparent" points="-4,4 -4,-182 390,-182 390,4 -4,4"/>
<!-- Node1 -->
<g id="node1" class="node">
<title>Node1</title>
<g id="a_node1"><a xlink:title=" ">
<polygon fill="#bfbfbf" stroke="black" points="0,-73.5 0,-103.5 175,-103.5 175,-73.5 0,-73.5"/>
<text text-anchor="start" x="8" y="-91.5" font-family="Helvetica,sans-Serif" font-size="10.00">denoptim.molecularmodeling.zmatrix.</text>
<text text-anchor="middle" x="87.5" y="-80.5" font-family="Helvetica,sans-Serif" font-size="10.00">ZMatrix.equals</text>
</a>
</g>
</g>
<!-- Node2 -->
<g id="node2" class="node">
<title>Node2</title>
<g id="a_node2"><a xlink:href="classdenoptim_1_1molecularmodeling_1_1zmatrix_1_1_z_matrix_bond.html#a6c29c716ac7741ba240fc227a8d9a79b" target="_top" xlink:title="Get the first atom in the bond.">
<polygon fill="white" stroke="black" points="211,-147.5 211,-177.5 386,-177.5 386,-147.5 211,-147.5"/>
<text text-anchor="start" x="219" y="-165.5" font-family="Helvetica,sans-Serif" font-size="10.00">denoptim.molecularmodeling.zmatrix.</text>
<text text-anchor="middle" x="298.5" y="-154.5" font-family="Helvetica,sans-Serif" font-size="10.00">ZMatrixBond.getAtm1</text>
</a>
</g>
</g>
<!-- Node1&#45;&gt;Node2 -->
<g id="edge1" class="edge">
<title>Node1&#45;&gt;Node2</title>
<path fill="none" stroke="midnightblue" d="M122.42,-103.59C146.78,-114.13 180.57,-128.11 211,-138.5 217,-140.55 223.28,-142.55 229.6,-144.47"/>
<polygon fill="midnightblue" stroke="midnightblue" points="228.93,-147.93 239.52,-147.42 230.93,-141.22 228.93,-147.93"/>
</g>
<!-- Node3 -->
<g id="node3" class="node">
<title>Node3</title>
<g id="a_node3"><a xlink:href="classdenoptim_1_1molecularmodeling_1_1zmatrix_1_1_z_matrix_bond.html#a2d7764f322e7dba876116bc432c38d84" target="_top" xlink:title="Get the second atom in the bond.">
<polygon fill="white" stroke="black" points="211,-98.5 211,-128.5 386,-128.5 386,-98.5 211,-98.5"/>
<text text-anchor="start" x="219" y="-116.5" font-family="Helvetica,sans-Serif" font-size="10.00">denoptim.molecularmodeling.zmatrix.</text>
<text text-anchor="middle" x="298.5" y="-105.5" font-family="Helvetica,sans-Serif" font-size="10.00">ZMatrixBond.getAtm2</text>
</a>
</g>
</g>
<!-- Node1&#45;&gt;Node3 -->
<g id="edge2" class="edge">
<title>Node1&#45;&gt;Node3</title>
<path fill="none" stroke="midnightblue" d="M175.02,-98.85C183.49,-99.86 192.13,-100.9 200.7,-101.92"/>
<polygon fill="midnightblue" stroke="midnightblue" points="200.37,-105.41 210.71,-103.12 201.2,-98.46 200.37,-105.41"/>
</g>
<!-- Node4 -->
<g id="node4" class="node">
<title>Node4</title>
<g id="a_node4"><a xlink:href="classdenoptim_1_1molecularmodeling_1_1zmatrix_1_1_z_matrix_atom.html#a501ef1f2a8fddf72585f7776f0b90f73" target="_top" xlink:title="Get the id of the atom.">
<polygon fill="white" stroke="black" points="211,-49.5 211,-79.5 386,-79.5 386,-49.5 211,-49.5"/>
<text text-anchor="start" x="219" y="-67.5" font-family="Helvetica,sans-Serif" font-size="10.00">denoptim.molecularmodeling.zmatrix.</text>
<text text-anchor="middle" x="298.5" y="-56.5" font-family="Helvetica,sans-Serif" font-size="10.00">ZMatrixAtom.getId</text>
</a>
</g>
</g>
<!-- Node1&#45;&gt;Node4 -->
<g id="edge3" class="edge">
<title>Node1&#45;&gt;Node4</title>
<path fill="none" stroke="midnightblue" d="M175.02,-78.57C183.49,-77.59 192.13,-76.6 200.7,-75.62"/>
<polygon fill="midnightblue" stroke="midnightblue" points="201.18,-79.08 210.71,-74.47 200.38,-72.13 201.18,-79.08"/>
</g>
<!-- Node5 -->
<g id="node5" class="node">
<title>Node5</title>
<g id="a_node5"><a xlink:href="classdenoptim_1_1molecularmodeling_1_1zmatrix_1_1_z_matrix.html#ab3814ca6929883135e97eca28175407e" target="_top" xlink:title="Constructor for ZMatrix.">
<polygon fill="white" stroke="black" points="211,-0.5 211,-30.5 386,-30.5 386,-0.5 211,-0.5"/>
<text text-anchor="start" x="219" y="-18.5" font-family="Helvetica,sans-Serif" font-size="10.00">denoptim.molecularmodeling.zmatrix.</text>
<text text-anchor="middle" x="298.5" y="-7.5" font-family="Helvetica,sans-Serif" font-size="10.00">ZMatrix.ZMatrix</text>
</a>
</g>
</g>
<!-- Node1&#45;&gt;Node5 -->
<g id="edge4" class="edge">
<title>Node1&#45;&gt;Node5</title>
<path fill="none" stroke="midnightblue" d="M124.36,-73.44C148.61,-63.51 181.48,-50.53 211,-40.5 217.92,-38.15 225.2,-35.82 232.47,-33.59"/>
<polygon fill="midnightblue" stroke="midnightblue" points="233.79,-36.85 242.35,-30.61 231.77,-30.15 233.79,-36.85"/>
</g>
</g>
</svg>
