<?xml version="1.0" encoding="UTF-8" standalone="no"?>
<!DOCTYPE svg PUBLIC "-//W3C//DTD SVG 1.1//EN"
 "http://www.w3.org/Graphics/SVG/1.1/DTD/svg11.dtd">
<!-- Generated by graphviz version 3.0.0 (20221109.1736)
 -->
<!-- Title: denoptim.utils.AtomOrganizer.deleteAtomsFlag Pages: 1 -->
<svg width="1256pt" height="67pt"
 viewBox="0.00 0.00 1256.00 66.50" xmlns="http://www.w3.org/2000/svg" xmlns:xlink="http://www.w3.org/1999/xlink">
<g id="graph0" class="graph" transform="scale(1 1) rotate(0) translate(4 62.5)">
<title>denoptim.utils.AtomOrganizer.deleteAtomsFlag</title>
<polygon fill="white" stroke="transparent" points="-4,4 -4,-62.5 1252,-62.5 1252,4 -4,4"/>
<!-- Node1 -->
<g id="node1" class="node">
<title>Node1</title>
<g id="a_node1"><a xlink:title="Destroy a vector of flags.">
<polygon fill="#bfbfbf" stroke="black" points="1076,-6 1076,-36 1248,-36 1248,-6 1076,-6"/>
<text text-anchor="start" x="1084" y="-24" font-family="Helvetica,sans-Serif" font-size="10.00">denoptim.utils.AtomOrganizer.delete</text>
<text text-anchor="middle" x="1162" y="-13" font-family="Helvetica,sans-Serif" font-size="10.00">AtomsFlag</text>
</a>
</g>
</g>
<!-- Node2 -->
<g id="node2" class="node">
<title>Node2</title>
<g id="a_node2"><a xlink:href="classdenoptim_1_1utils_1_1_atom_organizer.html#ac9be639b72c847d5875a12250a94bebe" target="_top" xlink:title="Reorders atoms according to the layer&#45;oriented scheme.">
<polygon fill="white" stroke="black" points="874,-28 874,-58 1040,-58 1040,-28 874,-28"/>
<text text-anchor="start" x="882" y="-46" font-family="Helvetica,sans-Serif" font-size="10.00">denoptim.utils.AtomOrganizer.layer</text>
<text text-anchor="middle" x="957" y="-35" font-family="Helvetica,sans-Serif" font-size="10.00">OrientedReordering</text>
</a>
</g>
</g>
<!-- Node1&#45;&gt;Node2 -->
<g id="edge1" class="edge">
<title>Node1&#45;&gt;Node2</title>
<path fill="none" stroke="midnightblue" d="M1065.76,-31.32C1057.17,-32.25 1048.53,-33.19 1040.07,-34.11"/>
<polygon fill="midnightblue" stroke="midnightblue" points="1066.23,-34.79 1075.79,-30.23 1065.47,-27.83 1066.23,-34.79"/>
</g>
<!-- Node3 -->
<g id="node3" class="node">
<title>Node3</title>
<g id="a_node3"><a xlink:href="classdenoptim_1_1utils_1_1_atom_organizer.html#ac679b2a45c111736e81e8dd2604b5a77" target="_top" xlink:title="Reorder the atoms in mol starting with atom seed">
<polygon fill="white" stroke="black" points="662,-6 662,-36 838,-36 838,-6 662,-6"/>
<text text-anchor="start" x="670" y="-24" font-family="Helvetica,sans-Serif" font-size="10.00">denoptim.utils.AtomOrganizer.reorder</text>
<text text-anchor="middle" x="750" y="-13" font-family="Helvetica,sans-Serif" font-size="10.00">StartingFrom</text>
</a>
</g>
</g>
<!-- Node1&#45;&gt;Node3 -->
<g id="edge6" class="edge">
<title>Node1&#45;&gt;Node3</title>
<path fill="none" stroke="midnightblue" d="M1065.58,-19.28C1056.93,-19.16 1048.31,-19.07 1040,-19 966.22,-18.39 947.78,-18.4 874,-19 862.36,-19.09 850.1,-19.24 838.02,-19.41"/>
<polygon fill="midnightblue" stroke="midnightblue" points="1065.68,-22.78 1075.73,-19.41 1065.77,-15.78 1065.68,-22.78"/>
</g>
<!-- Node2&#45;&gt;Node3 -->
<g id="edge2" class="edge">
<title>Node2&#45;&gt;Node3</title>
<path fill="none" stroke="midnightblue" d="M863.58,-33.08C855.15,-32.18 846.63,-31.26 838.25,-30.36"/>
<polygon fill="midnightblue" stroke="midnightblue" points="863.48,-36.59 873.8,-34.18 864.23,-29.63 863.48,-36.59"/>
</g>
<!-- Node4 -->
<g id="node4" class="node">
<title>Node4</title>
<g id="a_node4"><a xlink:href="classdenoptim_1_1molecularmodeling_1_1_multi_molecular_model_builder.html#a1cd879265bf12e9c2980efae1e8e74aa" target="_top" xlink:title="Generate 3D structure by assembling 3D fragments according to attachment point vector and following t...">
<polygon fill="white" stroke="black" points="436,-6 436,-36 626,-36 626,-6 436,-6"/>
<text text-anchor="start" x="444" y="-24" font-family="Helvetica,sans-Serif" font-size="10.00">denoptim.molecularmodeling.</text>
<text text-anchor="middle" x="531" y="-13" font-family="Helvetica,sans-Serif" font-size="10.00">MultiMolecularModelBuilder.build3DTree</text>
</a>
</g>
</g>
<!-- Node3&#45;&gt;Node4 -->
<g id="edge3" class="edge">
<title>Node3&#45;&gt;Node4</title>
<path fill="none" stroke="midnightblue" d="M651.97,-21C643.38,-21 634.7,-21 626.14,-21"/>
<polygon fill="midnightblue" stroke="midnightblue" points="651.99,-24.5 661.99,-21 651.99,-17.5 651.99,-24.5"/>
</g>
<!-- Node5 -->
<g id="node5" class="node">
<title>Node5</title>
<g id="a_node5"><a xlink:href="classdenoptim_1_1molecularmodeling_1_1_multi_molecular_model_builder.html#a6a8e314f3fb37f66c32c8c4d5695b8a4" target="_top" xlink:title="Given the graph representation of the molecular constitution, along with the 3D coordinates of the fr...">
<polygon fill="white" stroke="black" points="242,-0.5 242,-41.5 400,-41.5 400,-0.5 242,-0.5"/>
<text text-anchor="start" x="250" y="-29.5" font-family="Helvetica,sans-Serif" font-size="10.00">denoptim.molecularmodeling.</text>
<text text-anchor="start" x="250" y="-18.5" font-family="Helvetica,sans-Serif" font-size="10.00">MultiMolecularModelBuilder.build</text>
<text text-anchor="middle" x="321" y="-7.5" font-family="Helvetica,sans-Serif" font-size="10.00">Multi3DStructure</text>
</a>
</g>
</g>
<!-- Node4&#45;&gt;Node5 -->
<g id="edge4" class="edge">
<title>Node4&#45;&gt;Node5</title>
<path fill="none" stroke="midnightblue" d="M425.64,-21C417.03,-21 408.43,-21 400.06,-21"/>
<polygon fill="midnightblue" stroke="midnightblue" points="425.74,-24.5 435.74,-21 425.74,-17.5 425.74,-24.5"/>
</g>
<!-- Node6 -->
<g id="node6" class="node">
<title>Node6</title>
<g id="a_node6"><a xlink:href="classdenoptim_1_1programs_1_1moldecularmodelbuilder_1_1_molecular_model_builder.html#ad2e44290de6a861274def677044e9754" target="_top" xlink:title=" ">
<polygon fill="white" stroke="black" points="0,-6 0,-36 206,-36 206,-6 0,-6"/>
<text text-anchor="start" x="8" y="-24" font-family="Helvetica,sans-Serif" font-size="10.00">denoptim.programs.moldecularmodelbuilder.</text>
<text text-anchor="middle" x="103" y="-13" font-family="Helvetica,sans-Serif" font-size="10.00">MolecularModelBuilder.runProgram</text>
</a>
</g>
</g>
<!-- Node5&#45;&gt;Node6 -->
<g id="edge5" class="edge">
<title>Node5&#45;&gt;Node6</title>
<path fill="none" stroke="midnightblue" d="M231.55,-21C223.14,-21 214.57,-21 206.05,-21"/>
<polygon fill="midnightblue" stroke="midnightblue" points="231.71,-24.5 241.71,-21 231.71,-17.5 231.71,-24.5"/>
</g>
</g>
</svg>
