<?xml version="1.0" encoding="UTF-8" standalone="no"?>
<!DOCTYPE svg PUBLIC "-//W3C//DTD SVG 1.1//EN"
 "http://www.w3.org/Graphics/SVG/1.1/DTD/svg11.dtd">
<!-- Generated by graphviz version 3.0.0 (20221109.1736)
 -->
<!-- Title: denoptim.gui.FitnessParametersForm.AtomSpecExpressionDefinition Pages: 1 -->
<svg width="182pt" height="151pt"
 viewBox="0.00 0.00 182.00 151.00" xmlns="http://www.w3.org/2000/svg" xmlns:xlink="http://www.w3.org/1999/xlink">
<g id="graph0" class="graph" transform="scale(1 1) rotate(0) translate(4 147)">
<title>denoptim.gui.FitnessParametersForm.AtomSpecExpressionDefinition</title>
<polygon fill="white" stroke="transparent" points="-4,4 -4,-147 178,-147 178,4 -4,4"/>
<!-- Node1 -->
<g id="node1" class="node">
<title>Node1</title>
<g id="a_node1"><a xlink:title=" ">
<polygon fill="#bfbfbf" stroke="black" points="0,-0.5 0,-30.5 174,-30.5 174,-0.5 0,-0.5"/>
<text text-anchor="start" x="8" y="-18.5" font-family="Helvetica,sans-Serif" font-size="10.00">denoptim.gui.FitnessParameters</text>
<text text-anchor="middle" x="87" y="-7.5" font-family="Helvetica,sans-Serif" font-size="10.00">Form.AtomSpecExpressionDefinition</text>
</a>
</g>
</g>
<!-- Node2 -->
<g id="node2" class="node">
<title>Node2</title>
<g id="a_node2"><a xlink:href="classdenoptim_1_1gui_1_1_g_u_i_modal_dialog.html" target="_top" xlink:title=" ">
<polygon fill="white" stroke="black" points="14.5,-67.5 14.5,-86.5 159.5,-86.5 159.5,-67.5 14.5,-67.5"/>
<text text-anchor="middle" x="87" y="-74.5" font-family="Helvetica,sans-Serif" font-size="10.00">denoptim.gui.GUIModalDialog</text>
</a>
</g>
</g>
<!-- Node2&#45;&gt;Node1 -->
<g id="edge1" class="edge">
<title>Node2&#45;&gt;Node1</title>
<path fill="none" stroke="midnightblue" d="M87,-57.23C87,-48.59 87,-38.5 87,-30.52"/>
<polygon fill="midnightblue" stroke="midnightblue" points="83.5,-57.48 87,-67.48 90.5,-57.48 83.5,-57.48"/>
</g>
<!-- Node3 -->
<g id="node3" class="node">
<title>Node3</title>
<g id="a_node3"><a xlink:title=" ">
<polygon fill="white" stroke="black" points="62.5,-123.5 62.5,-142.5 111.5,-142.5 111.5,-123.5 62.5,-123.5"/>
<text text-anchor="middle" x="87" y="-130.5" font-family="Helvetica,sans-Serif" font-size="10.00">JDialog</text>
</a>
</g>
</g>
<!-- Node3&#45;&gt;Node2 -->
<g id="edge2" class="edge">
<title>Node3&#45;&gt;Node2</title>
<path fill="none" stroke="midnightblue" d="M87,-112.8C87,-103.91 87,-93.78 87,-86.75"/>
<polygon fill="midnightblue" stroke="midnightblue" points="83.5,-113.08 87,-123.08 90.5,-113.08 83.5,-113.08"/>
</g>
</g>
</svg>
