<?xml version="1.0" encoding="UTF-8" standalone="no"?>
<!DOCTYPE svg PUBLIC "-//W3C//DTD SVG 1.1//EN"
 "http://www.w3.org/Graphics/SVG/1.1/DTD/svg11.dtd">
<!-- Generated by graphviz version 3.0.0 (20221109.1736)
 -->
<!-- Title: denoptim.ga.EAUtils.makeGraphFromFragmentationOfMol Pages: 1 -->
<svg width="404pt" height="334pt"
 viewBox="0.00 0.00 404.00 333.50" xmlns="http://www.w3.org/2000/svg" xmlns:xlink="http://www.w3.org/1999/xlink">
<g id="graph0" class="graph" transform="scale(1 1) rotate(0) translate(4 329.5)">
<title>denoptim.ga.EAUtils.makeGraphFromFragmentationOfMol</title>
<polygon fill="white" stroke="transparent" points="-4,4 -4,-329.5 400,-329.5 400,4 -4,4"/>
<!-- Node1 -->
<g id="node1" class="node">
<title>Node1</title>
<g id="a_node1"><a xlink:title="Converts a molecule into a DGraph by fragmentation and re&#45;assembling of the fragments.">
<polygon fill="#bfbfbf" stroke="black" points="0,-144 0,-174 154,-174 154,-144 0,-144"/>
<text text-anchor="start" x="8" y="-162" font-family="Helvetica,sans-Serif" font-size="10.00">denoptim.ga.EAUtils.make</text>
<text text-anchor="middle" x="77" y="-151" font-family="Helvetica,sans-Serif" font-size="10.00">GraphFromFragmentationOfMol</text>
</a>
</g>
</g>
<!-- Node2 -->
<g id="node2" class="node">
<title>Node2</title>
<g id="a_node2"><a xlink:href="classdenoptim_1_1ga_1_1_e_a_utils.html#a3f0b2b1a484099897d6170de95dff33a" target="_top" xlink:title="Converts a molecule into a DGraph by fragmentation and re&#45;assembling of the fragments.">
<polygon fill="white" stroke="black" points="216,-277 216,-307 370,-307 370,-277 216,-277"/>
<text text-anchor="start" x="224" y="-295" font-family="Helvetica,sans-Serif" font-size="10.00">denoptim.ga.EAUtils.make</text>
<text text-anchor="middle" x="293" y="-284" font-family="Helvetica,sans-Serif" font-size="10.00">GraphFromFragmentationOfMol</text>
</a>
</g>
</g>
<!-- Node1&#45;&gt;Node2 -->
<g id="edge1" class="edge">
<title>Node1&#45;&gt;Node2</title>
<path fill="none" stroke="midnightblue" d="M89.21,-174.32C107.52,-198.19 146.22,-244 190,-268 195.16,-270.83 200.65,-273.33 206.29,-275.53"/>
<polygon fill="midnightblue" stroke="midnightblue" points="205.32,-278.9 215.91,-278.97 207.68,-272.31 205.32,-278.9"/>
</g>
<!-- Node3 -->
<g id="node3" class="node">
<title>Node3</title>
<g id="a_node3"><a xlink:href="classdenoptim_1_1programs_1_1fragmenter_1_1_fragmenter_parameters.html#a1034fe19336c370259104a649a252706" target="_top" xlink:title="Assigns the cutting rules loaded from the input.">
<polygon fill="white" stroke="black" points="199,-228 199,-258 387,-258 387,-228 199,-228"/>
<text text-anchor="start" x="207" y="-246" font-family="Helvetica,sans-Serif" font-size="10.00">denoptim.programs.fragmenter.</text>
<text text-anchor="middle" x="293" y="-235" font-family="Helvetica,sans-Serif" font-size="10.00">FragmenterParameters.setCuttingRules</text>
</a>
</g>
</g>
<!-- Node1&#45;&gt;Node3 -->
<g id="edge3" class="edge">
<title>Node1&#45;&gt;Node3</title>
<path fill="none" stroke="midnightblue" d="M101.61,-174C123.71,-187.46 158.02,-206.91 190,-219 195.81,-221.2 201.88,-223.23 208.04,-225.11"/>
<polygon fill="midnightblue" stroke="midnightblue" points="207.19,-228.51 217.77,-227.94 209.15,-221.79 207.19,-228.51"/>
</g>
<!-- Node4 -->
<g id="node4" class="node">
<title>Node4</title>
<g id="a_node4"><a xlink:href="classdenoptim_1_1programs_1_1fragmenter_1_1_fragmenter_parameters.html#a037e44f0fb89f40986c79e1a1ca758ed" target="_top" xlink:title=" ">
<polygon fill="white" stroke="black" points="204,-168.5 204,-209.5 382,-209.5 382,-168.5 204,-168.5"/>
<text text-anchor="start" x="212" y="-197.5" font-family="Helvetica,sans-Serif" font-size="10.00">denoptim.programs.fragmenter.</text>
<text text-anchor="start" x="212" y="-186.5" font-family="Helvetica,sans-Serif" font-size="10.00">FragmenterParameters.setEmbedded</text>
<text text-anchor="middle" x="293" y="-175.5" font-family="Helvetica,sans-Serif" font-size="10.00">RingsContract</text>
</a>
</g>
</g>
<!-- Node1&#45;&gt;Node4 -->
<g id="edge4" class="edge">
<title>Node1&#45;&gt;Node4</title>
<path fill="none" stroke="midnightblue" d="M154.05,-169.66C166.88,-171.46 180.36,-173.35 193.66,-175.21"/>
<polygon fill="midnightblue" stroke="midnightblue" points="193.39,-178.71 203.78,-176.63 194.36,-171.78 193.39,-178.71"/>
</g>
<!-- Node5 -->
<g id="node5" class="node">
<title>Node5</title>
<g id="a_node5"><a xlink:href="classdenoptim_1_1programs_1_1fragmenter_1_1_fragmenter_parameters.html#ab8899d106da30b775c2d9d99693032f5" target="_top" xlink:title=" ">
<polygon fill="white" stroke="black" points="199.5,-108.5 199.5,-149.5 386.5,-149.5 386.5,-108.5 199.5,-108.5"/>
<text text-anchor="start" x="207.5" y="-137.5" font-family="Helvetica,sans-Serif" font-size="10.00">denoptim.programs.fragmenter.</text>
<text text-anchor="start" x="207.5" y="-126.5" font-family="Helvetica,sans-Serif" font-size="10.00">FragmenterParameters.setEmbedRings</text>
<text text-anchor="middle" x="293" y="-115.5" font-family="Helvetica,sans-Serif" font-size="10.00">InTemplate</text>
</a>
</g>
</g>
<!-- Node1&#45;&gt;Node5 -->
<g id="edge5" class="edge">
<title>Node1&#45;&gt;Node5</title>
<path fill="none" stroke="midnightblue" d="M154.05,-148.34C165.5,-146.73 177.47,-145.06 189.37,-143.39"/>
<polygon fill="midnightblue" stroke="midnightblue" points="189.91,-146.85 199.33,-141.99 188.94,-139.91 189.91,-146.85"/>
</g>
<!-- Node6 -->
<g id="node6" class="node">
<title>Node6</title>
<g id="a_node6"><a xlink:href="classdenoptim_1_1programs_1_1fragmenter_1_1_fragmenter_parameters.html#a72d88ffdc022d4252517adb00e143135" target="_top" xlink:title="Sets the upper limit for an angle before it is treated as &quot;flat&quot; angle, i.e., close enough to 180 DEG...">
<polygon fill="white" stroke="black" points="190,-60 190,-90 396,-90 396,-60 190,-60"/>
<text text-anchor="start" x="198" y="-78" font-family="Helvetica,sans-Serif" font-size="10.00">denoptim.programs.fragmenter.</text>
<text text-anchor="middle" x="293" y="-67" font-family="Helvetica,sans-Serif" font-size="10.00">FragmenterParameters.setLinearAngleLimit</text>
</a>
</g>
</g>
<!-- Node1&#45;&gt;Node6 -->
<g id="edge6" class="edge">
<title>Node1&#45;&gt;Node6</title>
<path fill="none" stroke="midnightblue" d="M101.61,-144C123.71,-130.54 158.02,-111.09 190,-99 195.81,-96.8 201.88,-94.77 208.04,-92.89"/>
<polygon fill="midnightblue" stroke="midnightblue" points="209.15,-96.21 217.77,-90.06 207.19,-89.49 209.15,-96.21"/>
</g>
<!-- Node7 -->
<g id="node7" class="node">
<title>Node7</title>
<g id="a_node7"><a xlink:href="classdenoptim_1_1programs_1_1fragmenter_1_1_fragmenter_parameters.html#ad30a03d7cc6143dcc7c094e598346fb7" target="_top" xlink:title=" ">
<polygon fill="white" stroke="black" points="203,-0.5 203,-41.5 383,-41.5 383,-0.5 203,-0.5"/>
<text text-anchor="start" x="211" y="-29.5" font-family="Helvetica,sans-Serif" font-size="10.00">denoptim.programs.fragmenter.</text>
<text text-anchor="start" x="211" y="-18.5" font-family="Helvetica,sans-Serif" font-size="10.00">FragmenterParameters.setScaffolding</text>
<text text-anchor="middle" x="293" y="-7.5" font-family="Helvetica,sans-Serif" font-size="10.00">Policy</text>
</a>
</g>
</g>
<!-- Node1&#45;&gt;Node7 -->
<g id="edge7" class="edge">
<title>Node1&#45;&gt;Node7</title>
<path fill="none" stroke="midnightblue" d="M89.7,-143.72C108.4,-120.36 147.27,-75.85 190,-51 193.22,-49.13 196.57,-47.36 200,-45.7"/>
<polygon fill="midnightblue" stroke="midnightblue" points="201.58,-48.83 209.27,-41.54 198.71,-42.45 201.58,-48.83"/>
</g>
<!-- Node2&#45;&gt;Node2 -->
<g id="edge2" class="edge">
<title>Node2&#45;&gt;Node2</title>
<path fill="none" stroke="midnightblue" d="M255.36,-307.16C246.28,-316.56 258.83,-325.5 293,-325.5 313.82,-325.5 326.62,-322.18 331.38,-317.46"/>
<polygon fill="midnightblue" stroke="midnightblue" points="334.85,-316.88 330.64,-307.16 327.87,-317.38 334.85,-316.88"/>
</g>
</g>
</svg>
