<?xml version="1.0" encoding="UTF-8" standalone="no"?>
<!DOCTYPE svg PUBLIC "-//W3C//DTD SVG 1.1//EN"
 "http://www.w3.org/Graphics/SVG/1.1/DTD/svg11.dtd">
<!-- Generated by graphviz version 3.0.0 (20221109.1736)
 -->
<!-- Title: denoptim.fitness.DescriptorForFitness.getShortName Pages: 1 -->
<svg width="746pt" height="218pt"
 viewBox="0.00 0.00 746.00 218.00" xmlns="http://www.w3.org/2000/svg" xmlns:xlink="http://www.w3.org/1999/xlink">
<g id="graph0" class="graph" transform="scale(1 1) rotate(0) translate(4 214)">
<title>denoptim.fitness.DescriptorForFitness.getShortName</title>
<polygon fill="white" stroke="transparent" points="-4,4 -4,-214 742,-214 742,4 -4,4"/>
<!-- Node1 -->
<g id="node1" class="node">
<title>Node1</title>
<g id="a_node1"><a xlink:title=" ">
<polygon fill="#bfbfbf" stroke="black" points="604,-79 604,-109 738,-109 738,-79 604,-79"/>
<text text-anchor="start" x="612" y="-97" font-family="Helvetica,sans-Serif" font-size="10.00">denoptim.fitness.Descriptor</text>
<text text-anchor="middle" x="671" y="-86" font-family="Helvetica,sans-Serif" font-size="10.00">ForFitness.getShortName</text>
</a>
</g>
</g>
<!-- Node2 -->
<g id="node2" class="node">
<title>Node2</title>
<g id="a_node2"><a xlink:href="classdenoptim_1_1gui_1_1_fitness_parameters_form_1_1_descriptor_tree_node.html#a220f9ec738ec6f7abe9ed855e33dbce9" target="_top" xlink:title="Constructor meant for nodes representing an actual descriptor value.">
<polygon fill="white" stroke="black" points="393,-152.5 393,-193.5 568,-193.5 568,-152.5 393,-152.5"/>
<text text-anchor="start" x="401" y="-181.5" font-family="Helvetica,sans-Serif" font-size="10.00">denoptim.gui.FitnessParameters</text>
<text text-anchor="start" x="401" y="-170.5" font-family="Helvetica,sans-Serif" font-size="10.00">Form.DescriptorTreeNode.Descriptor</text>
<text text-anchor="middle" x="480.5" y="-159.5" font-family="Helvetica,sans-Serif" font-size="10.00">TreeNode</text>
</a>
</g>
</g>
<!-- Node1&#45;&gt;Node2 -->
<g id="edge1" class="edge">
<title>Node1&#45;&gt;Node2</title>
<path fill="none" stroke="midnightblue" d="M632.91,-113.65C613.8,-123.4 589.95,-134.99 568,-144 560.97,-146.89 553.53,-149.71 546.09,-152.4"/>
<polygon fill="midnightblue" stroke="midnightblue" points="634.59,-116.72 641.88,-109.03 631.39,-110.5 634.59,-116.72"/>
</g>
<!-- Node3 -->
<g id="node3" class="node">
<title>Node3</title>
<g id="a_node3"><a xlink:href="classdenoptim_1_1gui_1_1_fitness_parameters_form.html#a989880b9075bcb6124c36a444731b6a9" target="_top" xlink:title=" ">
<polygon fill="white" stroke="black" points="402.5,-104 402.5,-134 558.5,-134 558.5,-104 402.5,-104"/>
<text text-anchor="start" x="410.5" y="-122" font-family="Helvetica,sans-Serif" font-size="10.00">denoptim.gui.FitnessParameters</text>
<text text-anchor="middle" x="480.5" y="-111" font-family="Helvetica,sans-Serif" font-size="10.00">Form.FitnessParametersForm</text>
</a>
</g>
</g>
<!-- Node1&#45;&gt;Node3 -->
<g id="edge2" class="edge">
<title>Node1&#45;&gt;Node3</title>
<path fill="none" stroke="midnightblue" d="M593.72,-104.12C582.11,-105.66 570.13,-107.25 558.51,-108.79"/>
<polygon fill="midnightblue" stroke="midnightblue" points="594.35,-107.56 603.81,-102.78 593.43,-100.62 594.35,-107.56"/>
</g>
<!-- Node4 -->
<g id="node4" class="node">
<title>Node4</title>
<g id="a_node4"><a xlink:href="classdenoptim_1_1fitness_1_1_fitness_expression_parser.html#a761cd46875eff5864f29dbb7f353bde7" target="_top" xlink:title="Parses the given expressions.">
<polygon fill="white" stroke="black" points="419.5,-55 419.5,-85 541.5,-85 541.5,-55 419.5,-55"/>
<text text-anchor="start" x="427.5" y="-73" font-family="Helvetica,sans-Serif" font-size="10.00">denoptim.fitness.Fitness</text>
<text text-anchor="middle" x="480.5" y="-62" font-family="Helvetica,sans-Serif" font-size="10.00">ExpressionParser.parse</text>
</a>
</g>
</g>
<!-- Node1&#45;&gt;Node4 -->
<g id="edge3" class="edge">
<title>Node1&#45;&gt;Node4</title>
<path fill="none" stroke="midnightblue" d="M593.7,-84.29C576.34,-82.07 558.13,-79.76 541.55,-77.65"/>
<polygon fill="midnightblue" stroke="midnightblue" points="593.45,-87.78 603.81,-85.57 594.33,-80.84 593.45,-87.78"/>
</g>
<!-- Node9 -->
<g id="node9" class="node">
<title>Node9</title>
<g id="a_node9"><a xlink:href="classdenoptim_1_1fitness_1_1_fitness_expression_parser_test.html#ad8c3056173f2ab17ebb7c12133ea03a8" target="_top" xlink:title=" ">
<polygon fill="white" stroke="black" points="0,-0.5 0,-41.5 167,-41.5 167,-0.5 0,-0.5"/>
<text text-anchor="start" x="8" y="-29.5" font-family="Helvetica,sans-Serif" font-size="10.00">denoptim.fitness.Fitness</text>
<text text-anchor="start" x="8" y="-18.5" font-family="Helvetica,sans-Serif" font-size="10.00">ExpressionParserTest.testProcess</text>
<text text-anchor="middle" x="83.5" y="-7.5" font-family="Helvetica,sans-Serif" font-size="10.00">Expressions</text>
</a>
</g>
</g>
<!-- Node1&#45;&gt;Node9 -->
<g id="edge9" class="edge">
<title>Node1&#45;&gt;Node9</title>
<path fill="none" stroke="midnightblue" d="M636.78,-73.87C617.44,-63.23 592.16,-51.14 568,-45 430.74,-10.14 264.7,-10.77 167.24,-15.28"/>
<polygon fill="midnightblue" stroke="midnightblue" points="635.07,-76.92 645.5,-78.78 638.5,-70.82 635.07,-76.92"/>
</g>
<!-- Node5 -->
<g id="node5" class="node">
<title>Node5</title>
<g id="a_node5"><a xlink:href="classdenoptim_1_1fitness_1_1_fitness_parameters.html#a2ab06430e0d6c35625d03557520cf505" target="_top" xlink:title="Processes all parameters and initialize related objects.">
<polygon fill="white" stroke="black" points="203,-60 203,-90 357,-90 357,-60 203,-60"/>
<text text-anchor="start" x="211" y="-78" font-family="Helvetica,sans-Serif" font-size="10.00">denoptim.fitness.Fitness</text>
<text text-anchor="middle" x="280" y="-67" font-family="Helvetica,sans-Serif" font-size="10.00">Parameters.processParameters</text>
</a>
</g>
</g>
<!-- Node4&#45;&gt;Node5 -->
<g id="edge4" class="edge">
<title>Node4&#45;&gt;Node5</title>
<path fill="none" stroke="midnightblue" d="M409.09,-71.77C392.24,-72.2 374.17,-72.65 357.08,-73.08"/>
<polygon fill="midnightblue" stroke="midnightblue" points="409.5,-75.26 419.4,-71.51 409.32,-68.27 409.5,-75.26"/>
</g>
<!-- Node6 -->
<g id="node6" class="node">
<title>Node6</title>
<g id="a_node6"><a xlink:href="classdenoptim_1_1fitness_1_1_fitness_provider_test.html#a2272dbcf72c993b4544719ddf64c98b6" target="_top" xlink:title=" ">
<polygon fill="white" stroke="black" points="10.5,-168.5 10.5,-209.5 156.5,-209.5 156.5,-168.5 10.5,-168.5"/>
<text text-anchor="start" x="18.5" y="-197.5" font-family="Helvetica,sans-Serif" font-size="10.00">denoptim.fitness.Fitness</text>
<text text-anchor="start" x="18.5" y="-186.5" font-family="Helvetica,sans-Serif" font-size="10.00">ProviderTest.testGetConstant</text>
<text text-anchor="middle" x="83.5" y="-175.5" font-family="Helvetica,sans-Serif" font-size="10.00">Fitness</text>
</a>
</g>
</g>
<!-- Node5&#45;&gt;Node6 -->
<g id="edge5" class="edge">
<title>Node5&#45;&gt;Node6</title>
<path fill="none" stroke="midnightblue" d="M254.49,-96.75C232.72,-115.23 199.41,-141.46 167,-159 160.7,-162.41 153.93,-165.58 147.08,-168.48"/>
<polygon fill="midnightblue" stroke="midnightblue" points="256.94,-99.26 262.25,-90.09 252.38,-93.95 256.94,-99.26"/>
</g>
<!-- Node7 -->
<g id="node7" class="node">
<title>Node7</title>
<g id="a_node7"><a xlink:href="classdenoptim_1_1fitness_1_1_fitness_provider_test.html#ac3684e1e2969ee1c883ab279d4d5c048" target="_top" xlink:title="This test is reproducing most of what done in FitnessParametersTest#testProcessExpressions() so if bo...">
<polygon fill="white" stroke="black" points="4.5,-108.5 4.5,-149.5 162.5,-149.5 162.5,-108.5 4.5,-108.5"/>
<text text-anchor="start" x="12.5" y="-137.5" font-family="Helvetica,sans-Serif" font-size="10.00">denoptim.fitness.Fitness</text>
<text text-anchor="start" x="12.5" y="-126.5" font-family="Helvetica,sans-Serif" font-size="10.00">ProviderTest.testGetFitnessWith</text>
<text text-anchor="middle" x="83.5" y="-115.5" font-family="Helvetica,sans-Serif" font-size="10.00">ParametrizedDescriptors</text>
</a>
</g>
</g>
<!-- Node5&#45;&gt;Node7 -->
<g id="edge6" class="edge">
<title>Node5&#45;&gt;Node7</title>
<path fill="none" stroke="midnightblue" d="M214.96,-92.78C196.86,-97.81 177.01,-103.32 158.38,-108.49"/>
<polygon fill="midnightblue" stroke="midnightblue" points="216.12,-96.09 224.82,-90.04 214.25,-89.34 216.12,-96.09"/>
</g>
<!-- Node8 -->
<g id="node8" class="node">
<title>Node8</title>
<g id="a_node8"><a xlink:href="classdenoptim_1_1fitness_1_1_fitness_provider_test.html#a81954dc756c3f22356f01bdc0037e9f5" target="_top" xlink:title=" ">
<polygon fill="white" stroke="black" points="12,-60 12,-90 155,-90 155,-60 12,-60"/>
<text text-anchor="start" x="20" y="-78" font-family="Helvetica,sans-Serif" font-size="10.00">denoptim.fitness.Fitness</text>
<text text-anchor="middle" x="83.5" y="-67" font-family="Helvetica,sans-Serif" font-size="10.00">ProviderTest.testNaNFitness</text>
</a>
</g>
</g>
<!-- Node5&#45;&gt;Node8 -->
<g id="edge7" class="edge">
<title>Node5&#45;&gt;Node8</title>
<path fill="none" stroke="midnightblue" d="M192.9,-75C180.26,-75 167.36,-75 155.08,-75"/>
<polygon fill="midnightblue" stroke="midnightblue" points="192.97,-78.5 202.97,-75 192.97,-71.5 192.97,-78.5"/>
</g>
<!-- Node5&#45;&gt;Node9 -->
<g id="edge8" class="edge">
<title>Node5&#45;&gt;Node9</title>
<path fill="none" stroke="midnightblue" d="M214.96,-57.22C196.86,-52.19 177.01,-46.68 158.38,-41.51"/>
<polygon fill="midnightblue" stroke="midnightblue" points="214.25,-60.66 224.82,-59.96 216.12,-53.91 214.25,-60.66"/>
</g>
</g>
</svg>
