<?xml version="1.0" encoding="UTF-8" standalone="no"?>
<!DOCTYPE svg PUBLIC "-//W3C//DTD SVG 1.1//EN"
 "http://www.w3.org/Graphics/SVG/1.1/DTD/svg11.dtd">
<!-- Generated by graphviz version 3.0.0 (20221109.1736)
 -->
<!-- Title: denoptim.graph.DGraph.containsOrEmbedsVertex Pages: 1 -->
<svg width="342pt" height="57pt"
 viewBox="0.00 0.00 342.00 57.00" xmlns="http://www.w3.org/2000/svg" xmlns:xlink="http://www.w3.org/1999/xlink">
<g id="graph0" class="graph" transform="scale(1 1) rotate(0) translate(4 53)">
<title>denoptim.graph.DGraph.containsOrEmbedsVertex</title>
<polygon fill="white" stroke="transparent" points="-4,4 -4,-53 338,-53 338,4 -4,4"/>
<!-- Node1 -->
<g id="node1" class="node">
<title>Node1</title>
<g id="a_node1"><a xlink:title="Check if the specified vertex is contained in this graph as a node or in any inner graphs that may be...">
<polygon fill="#bfbfbf" stroke="black" points="0,-0.5 0,-30.5 157,-30.5 157,-0.5 0,-0.5"/>
<text text-anchor="start" x="8" y="-18.5" font-family="Helvetica,sans-Serif" font-size="10.00">denoptim.graph.DGraph.contains</text>
<text text-anchor="middle" x="78.5" y="-7.5" font-family="Helvetica,sans-Serif" font-size="10.00">OrEmbedsVertex</text>
</a>
</g>
</g>
<!-- Node1&#45;&gt;Node1 -->
<g id="edge1" class="edge">
<title>Node1&#45;&gt;Node1</title>
<path fill="none" stroke="midnightblue" d="M46.43,-30.66C38.7,-40.06 49.39,-49 78.5,-49 96.24,-49 107.14,-45.68 111.19,-40.96"/>
<polygon fill="midnightblue" stroke="midnightblue" points="114.67,-40.43 110.57,-30.66 107.68,-40.85 114.67,-40.43"/>
</g>
<!-- Node2 -->
<g id="node2" class="node">
<title>Node2</title>
<g id="a_node2"><a xlink:href="classdenoptim_1_1graph_1_1_template.html#a7869ba705f5898855fe68dd443721f8e" target="_top" xlink:title=" ">
<polygon fill="white" stroke="black" points="193,-0.5 193,-30.5 334,-30.5 334,-0.5 193,-0.5"/>
<text text-anchor="start" x="201" y="-18.5" font-family="Helvetica,sans-Serif" font-size="10.00">denoptim.graph.Template.get</text>
<text text-anchor="middle" x="263.5" y="-7.5" font-family="Helvetica,sans-Serif" font-size="10.00">InnerGraph</text>
</a>
</g>
</g>
<!-- Node1&#45;&gt;Node2 -->
<g id="edge2" class="edge">
<title>Node1&#45;&gt;Node2</title>
<path fill="none" stroke="midnightblue" d="M157.11,-15.5C165.56,-15.5 174.17,-15.5 182.64,-15.5"/>
<polygon fill="midnightblue" stroke="midnightblue" points="182.9,-19 192.9,-15.5 182.9,-12 182.9,-19"/>
</g>
</g>
</svg>
