<?xml version="1.0" encoding="UTF-8" standalone="no"?>
<!DOCTYPE svg PUBLIC "-//W3C//DTD SVG 1.1//EN"
 "http://www.w3.org/Graphics/SVG/1.1/DTD/svg11.dtd">
<!-- Generated by graphviz version 3.0.0 (20221109.1736)
 -->
<!-- Title: denoptim.fitness.descriptors.TanimotoMolSimilarity Pages: 1 -->
<svg width="413pt" height="230pt"
 viewBox="0.00 0.00 413.00 230.00" xmlns="http://www.w3.org/2000/svg" xmlns:xlink="http://www.w3.org/1999/xlink">
<g id="graph0" class="graph" transform="scale(1 1) rotate(0) translate(4 226)">
<title>denoptim.fitness.descriptors.TanimotoMolSimilarity</title>
<polygon fill="white" stroke="transparent" points="-4,4 -4,-226 409,-226 409,4 -4,4"/>
<!-- Node1 -->
<g id="node1" class="node">
<title>Node1</title>
<g id="a_node1"><a xlink:title="Calculates the molecular similarity against a target compound the fingerprint of which is given as pa...">
<polygon fill="#bfbfbf" stroke="black" points="265,-93 265,-123 405,-123 405,-93 265,-93"/>
<text text-anchor="start" x="273" y="-111" font-family="Helvetica,sans-Serif" font-size="10.00">denoptim.fitness.descriptors.</text>
<text text-anchor="middle" x="335" y="-100" font-family="Helvetica,sans-Serif" font-size="10.00">TanimotoMolSimilarity</text>
</a>
</g>
</g>
<!-- Node2 -->
<g id="node2" class="node">
<title>Node2</title>
<g id="a_node2"><a xlink:title=" ">
<polygon fill="white" stroke="black" points="0,-202.5 0,-221.5 140,-221.5 140,-202.5 0,-202.5"/>
<text text-anchor="middle" x="70" y="-209.5" font-family="Helvetica,sans-Serif" font-size="10.00">AbstractMolecularDescriptor</text>
</a>
</g>
</g>
<!-- Node2&#45;&gt;Node1 -->
<g id="edge1" class="edge">
<title>Node2&#45;&gt;Node1</title>
<path fill="none" stroke="midnightblue" d="M117.17,-199.67C124.82,-197.52 132.65,-195.25 140,-193 187.98,-178.33 201.16,-177.4 247,-157 269.01,-147.2 292.77,-133.6 309.89,-123.21"/>
<polygon fill="midnightblue" stroke="midnightblue" points="115.98,-196.37 107.28,-202.42 117.85,-203.11 115.98,-196.37"/>
</g>
<!-- Node3 -->
<g id="node3" class="node">
<title>Node3</title>
<g id="a_node3"><a xlink:title=" ">
<polygon fill="white" stroke="black" points="17,-164.5 17,-183.5 123,-183.5 123,-164.5 17,-164.5"/>
<text text-anchor="middle" x="70" y="-171.5" font-family="Helvetica,sans-Serif" font-size="10.00">IMolecularDescriptor</text>
</a>
</g>
</g>
<!-- Node3&#45;&gt;Node1 -->
<g id="edge2" class="edge">
<title>Node3&#45;&gt;Node1</title>
<path fill="none" stroke="midnightblue" d="M124.9,-162.19C159.83,-154.36 206.24,-143.6 247,-133 258.71,-129.96 271.25,-126.48 283.06,-123.11"/>
<polygon fill="midnightblue" stroke="midnightblue" points="123.91,-158.83 114.91,-164.42 125.43,-165.66 123.91,-158.83"/>
</g>
<!-- Node4 -->
<g id="node4" class="node">
<title>Node4</title>
<g id="a_node4"><a xlink:href="interfacedenoptim_1_1fitness_1_1_i_denoptim_descriptor.html" target="_top" xlink:title="This interface forces descriptors that are not defined in the CDK ontology to provide information tha...">
<polygon fill="white" stroke="black" points="3,-115 3,-145 137,-145 137,-115 3,-115"/>
<text text-anchor="start" x="11" y="-133" font-family="Helvetica,sans-Serif" font-size="10.00">denoptim.fitness.IDenoptim</text>
<text text-anchor="middle" x="70" y="-122" font-family="Helvetica,sans-Serif" font-size="10.00">Descriptor</text>
</a>
</g>
</g>
<!-- Node4&#45;&gt;Node1 -->
<g id="edge3" class="edge">
<title>Node4&#45;&gt;Node1</title>
<path fill="none" stroke="midnightblue" d="M147.28,-123.62C184.37,-120.52 228.62,-116.82 264.73,-113.79"/>
<polygon fill="midnightblue" stroke="midnightblue" points="146.7,-120.16 137.03,-124.48 147.28,-127.13 146.7,-120.16"/>
</g>
<!-- Node5 -->
<g id="node5" class="node">
<title>Node5</title>
<g id="a_node5"><a xlink:title=" ">
<polygon fill="white" stroke="black" points="31.5,-76.5 31.5,-95.5 108.5,-95.5 108.5,-76.5 31.5,-76.5"/>
<text text-anchor="middle" x="70" y="-83.5" font-family="Helvetica,sans-Serif" font-size="10.00">IBitFingerprint</text>
</a>
</g>
</g>
<!-- Node5&#45;&gt;Node1 -->
<g id="edge4" class="edge">
<title>Node5&#45;&gt;Node1</title>
<path fill="none" stroke="#9a32cd" stroke-dasharray="5,2" d="M118.83,-89.64C154.24,-92.38 203.64,-96.28 247,-100 252.74,-100.49 258.7,-101.01 264.67,-101.55"/>
<polygon fill="#9a32cd" stroke="#9a32cd" points="119.02,-86.15 108.78,-88.87 118.48,-93.13 119.02,-86.15"/>
<text text-anchor="middle" x="202.5" y="-103" font-family="Helvetica,sans-Serif" font-size="10.00"> referenceFingerprint</text>
</g>
<!-- Node6 -->
<g id="node6" class="node">
<title>Node6</title>
<g id="a_node6"><a xlink:title=" ">
<polygon fill="white" stroke="black" points="33,-38.5 33,-57.5 107,-57.5 107,-38.5 33,-38.5"/>
<text text-anchor="middle" x="70" y="-45.5" font-family="Helvetica,sans-Serif" font-size="10.00">IFingerprinter</text>
</a>
</g>
</g>
<!-- Node6&#45;&gt;Node1 -->
<g id="edge5" class="edge">
<title>Node6&#45;&gt;Node1</title>
<path fill="none" stroke="#9a32cd" stroke-dasharray="5,2" d="M117.26,-53.32C153.03,-57.99 203.61,-65.79 247,-77 263.46,-81.25 281.2,-87.3 296.34,-92.92"/>
<polygon fill="#9a32cd" stroke="#9a32cd" points="117.48,-49.82 107.12,-52.03 116.6,-56.77 117.48,-49.82"/>
<text text-anchor="middle" x="202.5" y="-80" font-family="Helvetica,sans-Serif" font-size="10.00"> fingerprinter</text>
</g>
<!-- Node7 -->
<g id="node7" class="node">
<title>Node7</title>
<g id="a_node7"><a xlink:title=" ">
<polygon fill="white" stroke="black" points="18,-0.5 18,-19.5 122,-19.5 122,-0.5 18,-0.5"/>
<text text-anchor="middle" x="70" y="-7.5" font-family="Helvetica,sans-Serif" font-size="10.00">IChemObjectBuilder</text>
</a>
</g>
</g>
<!-- Node7&#45;&gt;Node1 -->
<g id="edge6" class="edge">
<title>Node7&#45;&gt;Node1</title>
<path fill="none" stroke="#9a32cd" stroke-dasharray="5,2" d="M132.1,-15.08C166.9,-19.61 210.67,-28.1 247,-44 274.48,-56.03 301.6,-78.02 318.07,-92.82"/>
<polygon fill="#9a32cd" stroke="#9a32cd" points="132.43,-11.6 122.08,-13.86 131.58,-18.54 132.43,-11.6"/>
<text text-anchor="middle" x="202.5" y="-47" font-family="Helvetica,sans-Serif" font-size="10.00"> cdkBuilder</text>
</g>
</g>
</svg>
