<?xml version="1.0" encoding="UTF-8" standalone="no"?>
<!DOCTYPE svg PUBLIC "-//W3C//DTD SVG 1.1//EN"
 "http://www.w3.org/Graphics/SVG/1.1/DTD/svg11.dtd">
<!-- Generated by graphviz version 3.0.0 (20221109.1736)
 -->
<!-- Title: denoptim.graph.rings.PathSubGraph.setGraphAndChainIDs Pages: 1 -->
<!--zoomable 394 -->
<svg id="main" version="1.1" xmlns="http://www.w3.org/2000/svg" xmlns:xlink="http://www.w3.org/1999/xlink" xml:space="preserve" onload="init(evt)">
<style type="text/css"><![CDATA[
.edge:hover path { stroke: red; }
.edge:hover polygon { stroke: red; fill: red; }
]]></style>
<script type="text/javascript"><![CDATA[
var edges = document.getElementsByTagName('g');
if (edges && edges.length) {
  for (var i=0;i<edges.length;i++) {
    if (edges[i].id.substr(0,4)=='edge') {
      edges[i].setAttribute('class','edge');
    }
  }
}
]]></script>
        <defs>
                <circle id="rim" cx="0" cy="0" r="7"/>
                <circle id="rim2" cx="0" cy="0" r="3.5"/>
                <g id="zoomPlus">
                        <use xlink:href="#rim" fill="#404040">
                                <set attributeName="fill" to="#808080" begin="zoomplus.mouseover" end="zoomplus.mouseout"/>
                        </use>
                        <path d="M-4,0h8M0,-4v8" fill="none" stroke="white" stroke-width="1.5" pointer-events="none"/>
                </g>
                <g id="zoomMin">
                        <use xlink:href="#rim" fill="#404040">
                                <set attributeName="fill" to="#808080" begin="zoomminus.mouseover" end="zoomminus.mouseout"/>
                        </use>
                        <path d="M-4,0h8" fill="none" stroke="white" stroke-width="1.5" pointer-events="none"/>
                </g>
                <g id="dirArrow">
                        <path fill="none" stroke="white" stroke-width="1.5" d="M0,-3.0v7 M-2.5,-0.5L0,-3.0L2.5,-0.5"/>
                </g>
               <g id="resetDef">
                       <use xlink:href="#rim2" fill="#404040">
                               <set attributeName="fill" to="#808080" begin="reset.mouseover" end="reset.mouseout"/>
                       </use>
               </g>
        </defs>

<script type="text/javascript">
var viewWidth = 711;
var viewHeight = 394;
var sectionId = 'dynsection-26';
</script>
<script xlink:href="svgpan.js"/>
<svg id="graph" class="graph">
<g id="viewport">
<title>denoptim.graph.rings.PathSubGraph.setGraphAndChainIDs</title>
<polygon fill="white" stroke="transparent" points="-4,4 -4,-390 707,-390 707,4 -4,4"/>
<!-- Node1 -->
<g id="node1" class="node">
<title>Node1</title>
<g id="a_node1"><a xlink:title="Sets the graph and chain IDs for the path sub graph.">
<polygon fill="#bfbfbf" stroke="black" points="0,-178 0,-208 159,-208 159,-178 0,-178"/>
<text text-anchor="start" x="8" y="-196" font-family="Helvetica,sans-Serif" font-size="10.00">denoptim.graph.rings.Path</text>
<text text-anchor="middle" x="79.5" y="-185" font-family="Helvetica,sans-Serif" font-size="10.00">SubGraph.setGraphAndChainIDs</text>
</a>
</g>
</g>
<!-- Node2 -->
<g id="node2" class="node">
<title>Node2</title>
<g id="a_node2"><a xlink:href="classdenoptim_1_1graph_1_1_vertex.html#a05e1f8f3d4595534fb18c8d6b7e4a82d" target="_top" xlink:title="Returns a deep&#45;copy of this vertex.">
<polygon fill="white" stroke="black" points="209,-366.5 209,-385.5 347,-385.5 347,-366.5 209,-366.5"/>
<text text-anchor="middle" x="278" y="-373.5" font-family="Helvetica,sans-Serif" font-size="10.00">denoptim.graph.Vertex.clone</text>
</a>
</g>
</g>
<!-- Node1&#45;&gt;Node2 -->
<g id="edge1" class="edge">
<title>Node1&#45;&gt;Node2</title>
<path fill="none" stroke="midnightblue" d="M87.22,-208.28C101.98,-240 140.29,-313.3 195,-352 201.16,-356.36 208.11,-359.93 215.29,-362.86"/>
<polygon fill="midnightblue" stroke="midnightblue" points="214.59,-366.33 225.18,-366.47 216.99,-359.75 214.59,-366.33"/>
</g>
<!-- Node3 -->
<g id="node3" class="node">
<title>Node3</title>
<g id="a_node3"><a xlink:href="classdenoptim_1_1graph_1_1_vertex.html#aee39019987712f9784138e97917ac97f" target="_top" xlink:title="Get attachment point i on this vertex.">
<polygon fill="white" stroke="black" points="397,-328.5 397,-347.5 539,-347.5 539,-328.5 397,-328.5"/>
<text text-anchor="middle" x="468" y="-335.5" font-family="Helvetica,sans-Serif" font-size="10.00">denoptim.graph.Vertex.getAP</text>
</a>
</g>
</g>
<!-- Node1&#45;&gt;Node3 -->
<g id="edge2" class="edge">
<title>Node1&#45;&gt;Node3</title>
<path fill="none" stroke="midnightblue" d="M90.75,-208.12C108.63,-233.11 148.12,-282.5 195,-305 254.85,-333.73 330.28,-340.94 386.52,-341.56"/>
<polygon fill="midnightblue" stroke="midnightblue" points="386.78,-345.06 396.79,-341.6 386.81,-338.06 386.78,-345.06"/>
</g>
<!-- Node5 -->
<g id="node5" class="node">
<title>Node5</title>
<g id="a_node5"><a xlink:href="classdenoptim_1_1graph_1_1_edge.html#aadec63c8f1ce93b0c82ae1f2a409acf1" target="_top" xlink:title=" ">
<polygon fill="white" stroke="black" points="195,-126.5 195,-145.5 361,-145.5 361,-126.5 195,-126.5"/>
<text text-anchor="middle" x="278" y="-133.5" font-family="Helvetica,sans-Serif" font-size="10.00">denoptim.graph.Edge.getBondType</text>
</a>
</g>
</g>
<!-- Node1&#45;&gt;Node5 -->
<g id="edge4" class="edge">
<title>Node1&#45;&gt;Node5</title>
<path fill="none" stroke="midnightblue" d="M132.39,-177.95C164.16,-168.73 204.32,-157.08 234.25,-148.4"/>
<polygon fill="midnightblue" stroke="midnightblue" points="235.36,-151.72 243.99,-145.58 233.41,-145 235.36,-151.72"/>
</g>
<!-- Node6 -->
<g id="node6" class="node">
<title>Node6</title>
<g id="a_node6"><a xlink:href="classdenoptim_1_1graph_1_1_vertex.html#a200f775296c4c9804e3a2b59e065be8a" target="_top" xlink:title="Returns the index of the building block that should correspond to the position of the building block ...">
<polygon fill="white" stroke="black" points="404,-225 404,-255 532,-255 532,-225 404,-225"/>
<text text-anchor="start" x="412" y="-243" font-family="Helvetica,sans-Serif" font-size="10.00">denoptim.graph.Vertex.get</text>
<text text-anchor="middle" x="468" y="-232" font-family="Helvetica,sans-Serif" font-size="10.00">BuildingBlockId</text>
</a>
</g>
</g>
<!-- Node1&#45;&gt;Node6 -->
<g id="edge5" class="edge">
<title>Node1&#45;&gt;Node6</title>
<path fill="none" stroke="midnightblue" d="M159.18,-202.57C227.83,-210.92 326.67,-222.94 393.69,-231.08"/>
<polygon fill="midnightblue" stroke="midnightblue" points="393.4,-234.58 403.75,-232.31 394.24,-227.63 393.4,-234.58"/>
</g>
<!-- Node7 -->
<g id="node7" class="node">
<title>Node7</title>
<g id="a_node7"><a xlink:href="classdenoptim_1_1graph_1_1_vertex.html#a46dadb5fd30f1877db91e97ae55c2dd8" target="_top" xlink:title=" ">
<polygon fill="white" stroke="black" points="404,-165 404,-195 532,-195 532,-165 404,-165"/>
<text text-anchor="start" x="412" y="-183" font-family="Helvetica,sans-Serif" font-size="10.00">denoptim.graph.Vertex.get</text>
<text text-anchor="middle" x="468" y="-172" font-family="Helvetica,sans-Serif" font-size="10.00">BuildingBlockType</text>
</a>
</g>
</g>
<!-- Node1&#45;&gt;Node7 -->
<g id="edge6" class="edge">
<title>Node1&#45;&gt;Node7</title>
<path fill="none" stroke="midnightblue" d="M159.18,-190.35C227.83,-188.04 326.67,-184.72 393.69,-182.47"/>
<polygon fill="midnightblue" stroke="midnightblue" points="393.87,-185.96 403.75,-182.13 393.63,-178.97 393.87,-185.96"/>
</g>
<!-- Node8 -->
<g id="node8" class="node">
<title>Node8</title>
<g id="a_node8"><a xlink:href="classdenoptim_1_1graph_1_1_vertex.html#a367c9d31e4bb13c16e865389c154a767" target="_top" xlink:title="Returns the position of the given AP in the list of APs of this vertex.">
<polygon fill="white" stroke="black" points="404,-279 404,-309 532,-309 532,-279 404,-279"/>
<text text-anchor="start" x="412" y="-297" font-family="Helvetica,sans-Serif" font-size="10.00">denoptim.graph.Vertex.get</text>
<text text-anchor="middle" x="468" y="-286" font-family="Helvetica,sans-Serif" font-size="10.00">IndexOfAP</text>
</a>
</g>
</g>
<!-- Node1&#45;&gt;Node8 -->
<g id="edge7" class="edge">
<title>Node1&#45;&gt;Node8</title>
<path fill="none" stroke="midnightblue" d="M94.29,-208.06C114.21,-228.64 153.26,-264.74 195,-280 259.17,-303.47 337.57,-304.9 393.68,-301.7"/>
<polygon fill="midnightblue" stroke="midnightblue" points="394.13,-305.18 403.89,-301.05 393.69,-298.19 394.13,-305.18"/>
</g>
<!-- Node9 -->
<g id="node9" class="node">
<title>Node9</title>
<g id="a_node9"><a xlink:href="classdenoptim_1_1graph_1_1_attachment_point.html#ac8551521d38644f5109800b665957ee9" target="_top" xlink:title=" ">
<polygon fill="white" stroke="black" points="210.5,-77 210.5,-107 345.5,-107 345.5,-77 210.5,-77"/>
<text text-anchor="start" x="218.5" y="-95" font-family="Helvetica,sans-Serif" font-size="10.00">denoptim.graph.Attachment</text>
<text text-anchor="middle" x="278" y="-84" font-family="Helvetica,sans-Serif" font-size="10.00">Point.getOwner</text>
</a>
</g>
</g>
<!-- Node1&#45;&gt;Node9 -->
<g id="edge9" class="edge">
<title>Node1&#45;&gt;Node9</title>
<path fill="none" stroke="midnightblue" d="M99.33,-178C121.22,-161.17 158.97,-134.01 195,-117 199.88,-114.7 205.02,-112.55 210.25,-110.55"/>
<polygon fill="midnightblue" stroke="midnightblue" points="211.52,-113.81 219.73,-107.12 209.14,-107.23 211.52,-113.81"/>
</g>
<!-- Node10 -->
<g id="node10" class="node">
<title>Node10</title>
<g id="a_node10"><a xlink:href="classdenoptim_1_1graph_1_1_vertex.html#a3065859eaefc4c2f4f2374b11c1a8e08" target="_top" xlink:title="Produces a pair of strings that identify the &quot;path&quot; between two given attachment points.">
<polygon fill="white" stroke="black" points="214,-241 214,-271 342,-271 342,-241 214,-241"/>
<text text-anchor="start" x="222" y="-259" font-family="Helvetica,sans-Serif" font-size="10.00">denoptim.graph.Vertex.get</text>
<text text-anchor="middle" x="278" y="-248" font-family="Helvetica,sans-Serif" font-size="10.00">PathIDs</text>
</a>
</g>
</g>
<!-- Node1&#45;&gt;Node10 -->
<g id="edge10" class="edge">
<title>Node1&#45;&gt;Node10</title>
<path fill="none" stroke="midnightblue" d="M127.57,-208.09C155.42,-217.02 190.88,-228.39 220.26,-237.81"/>
<polygon fill="midnightblue" stroke="midnightblue" points="219.39,-241.2 229.98,-240.92 221.52,-234.54 219.39,-241.2"/>
</g>
<!-- Node11 -->
<g id="node11" class="node">
<title>Node11</title>
<g id="a_node11"><a xlink:href="classdenoptim_1_1graph_1_1_edge.html#a658e275a18a50f12474777f5f28c35e9" target="_top" xlink:title=" ">
<polygon fill="white" stroke="black" points="202.5,-38.5 202.5,-57.5 353.5,-57.5 353.5,-38.5 202.5,-38.5"/>
<text text-anchor="middle" x="278" y="-45.5" font-family="Helvetica,sans-Serif" font-size="10.00">denoptim.graph.Edge.getSrcAP</text>
</a>
</g>
</g>
<!-- Node1&#45;&gt;Node11 -->
<g id="edge14" class="edge">
<title>Node1&#45;&gt;Node11</title>
<path fill="none" stroke="midnightblue" d="M89.75,-177.86C106.95,-151.06 146.56,-95.41 195,-67 198.86,-64.73 202.97,-62.74 207.22,-60.98"/>
<polygon fill="midnightblue" stroke="midnightblue" points="208.51,-64.24 216.69,-57.5 206.1,-57.67 208.51,-64.24"/>
</g>
<!-- Node12 -->
<g id="node12" class="node">
<title>Node12</title>
<g id="a_node12"><a xlink:href="classdenoptim_1_1graph_1_1_edge.html#a44521a3ad1a83e5d0a6be227e35ceffa" target="_top" xlink:title=" ">
<polygon fill="white" stroke="black" points="203,-0.5 203,-19.5 353,-19.5 353,-0.5 203,-0.5"/>
<text text-anchor="middle" x="278" y="-7.5" font-family="Helvetica,sans-Serif" font-size="10.00">denoptim.graph.Edge.getTrgAP</text>
</a>
</g>
</g>
<!-- Node1&#45;&gt;Node12 -->
<g id="edge15" class="edge">
<title>Node1&#45;&gt;Node12</title>
<path fill="none" stroke="midnightblue" d="M86.49,-177.99C100.32,-145.33 137.75,-67.7 195,-29 197.93,-27.02 201.05,-25.24 204.28,-23.64"/>
<polygon fill="midnightblue" stroke="midnightblue" points="205.84,-26.78 213.65,-19.62 203.08,-20.35 205.84,-26.78"/>
</g>
<!-- Node4 -->
<g id="node4" class="node">
<title>Node4</title>
<g id="a_node4"><a xlink:href="classdenoptim_1_1graph_1_1_vertex.html#a85aa901ec3fff8e566c0cc32d9c9f84e" target="_top" xlink:title=" ">
<polygon fill="white" stroke="black" points="575,-301 575,-331 703,-331 703,-301 575,-301"/>
<text text-anchor="start" x="583" y="-319" font-family="Helvetica,sans-Serif" font-size="10.00">denoptim.graph.Vertex.get</text>
<text text-anchor="middle" x="639" y="-308" font-family="Helvetica,sans-Serif" font-size="10.00">AttachmentPoints</text>
</a>
</g>
</g>
<!-- Node3&#45;&gt;Node4 -->
<g id="edge3" class="edge">
<title>Node3&#45;&gt;Node4</title>
<path fill="none" stroke="midnightblue" d="M539.2,-328.86C547.58,-327.77 556.16,-326.65 564.58,-325.56"/>
<polygon fill="midnightblue" stroke="midnightblue" points="565.3,-328.99 574.76,-324.23 564.4,-322.05 565.3,-328.99"/>
</g>
<!-- Node8&#45;&gt;Node4 -->
<g id="edge8" class="edge">
<title>Node8&#45;&gt;Node4</title>
<path fill="none" stroke="midnightblue" d="M532.41,-302.25C542.91,-303.62 553.88,-305.05 564.61,-306.45"/>
<polygon fill="midnightblue" stroke="midnightblue" points="564.43,-309.95 574.8,-307.77 565.33,-303.01 564.43,-309.95"/>
</g>
<!-- Node10&#45;&gt;Node6 -->
<g id="edge11" class="edge">
<title>Node10&#45;&gt;Node6</title>
<path fill="none" stroke="midnightblue" d="M342.12,-250.63C358.56,-249.23 376.4,-247.71 393.33,-246.27"/>
<polygon fill="midnightblue" stroke="midnightblue" points="394.06,-249.72 403.72,-245.39 393.46,-242.75 394.06,-249.72"/>
</g>
<!-- Node10&#45;&gt;Node7 -->
<g id="edge12" class="edge">
<title>Node10&#45;&gt;Node7</title>
<path fill="none" stroke="midnightblue" d="M316.14,-240.98C345.91,-228.95 387.88,-211.99 419.99,-199"/>
<polygon fill="midnightblue" stroke="midnightblue" points="421.65,-202.11 429.61,-195.11 419.03,-195.62 421.65,-202.11"/>
</g>
<!-- Node10&#45;&gt;Node8 -->
<g id="edge13" class="edge">
<title>Node10&#45;&gt;Node8</title>
<path fill="none" stroke="midnightblue" d="M342.12,-268.76C358.71,-272.11 376.74,-275.76 393.8,-279.21"/>
<polygon fill="midnightblue" stroke="midnightblue" points="393.23,-282.66 403.72,-281.21 394.61,-275.8 393.23,-282.66"/>
</g>
</g>
</svg>
        <g id="navigator" transform="translate(0 0)" fill="#404254">
                <rect fill="#f2f5e9" fill-opacity="0.5" stroke="#606060" stroke-width=".5" x="0" y="0" width="60" height="60"/>
                <use id="zoomplus" xlink:href="#zoomPlus" x="17" y="9" onmousedown="handleZoom(evt,'in')"/>
                <use id="zoomminus" xlink:href="#zoomMin" x="42" y="9" onmousedown="handleZoom(evt,'out')"/>
                <use id="reset" xlink:href="#resetDef" x="30" y="36" onmousedown="handleReset()"/>
                <g id="arrowUp" xlink:href="#dirArrow" transform="translate(30 24)" onmousedown="handlePan(0,-1)">
                  <use xlink:href="#rim" fill="#404040">
                        <set attributeName="fill" to="#808080" begin="arrowUp.mouseover" end="arrowUp.mouseout"/>
                  </use>
                  <path fill="none" stroke="white" stroke-width="1.5" d="M0,-3.0v7 M-2.5,-0.5L0,-3.0L2.5,-0.5"/>
                </g>
                <g id="arrowRight" xlink:href="#dirArrow" transform="rotate(90) translate(36 -43)" onmousedown="handlePan(1,0)">
                  <use xlink:href="#rim" fill="#404040">
                        <set attributeName="fill" to="#808080" begin="arrowRight.mouseover" end="arrowRight.mouseout"/>
                  </use>
                  <path fill="none" stroke="white" stroke-width="1.5" d="M0,-3.0v7 M-2.5,-0.5L0,-3.0L2.5,-0.5"/>
                </g>
                <g id="arrowDown" xlink:href="#dirArrow" transform="rotate(180) translate(-30 -48)" onmousedown="handlePan(0,1)">
                  <use xlink:href="#rim" fill="#404040">
                        <set attributeName="fill" to="#808080" begin="arrowDown.mouseover" end="arrowDown.mouseout"/>
                  </use>
                  <path fill="none" stroke="white" stroke-width="1.5" d="M0,-3.0v7 M-2.5,-0.5L0,-3.0L2.5,-0.5"/>
                </g>
                <g id="arrowLeft" xlink:href="#dirArrow" transform="rotate(270) translate(-36 17)" onmousedown="handlePan(-1,0)">
                  <use xlink:href="#rim" fill="#404040">
                        <set attributeName="fill" to="#808080" begin="arrowLeft.mouseover" end="arrowLeft.mouseout"/>
                  </use>
                  <path fill="none" stroke="white" stroke-width="1.5" d="M0,-3.0v7 M-2.5,-0.5L0,-3.0L2.5,-0.5"/>
                </g>
        </g>
        <svg viewBox="0 0 15 15" width="100%" height="30px" preserveAspectRatio="xMaxYMin meet">
         <g id="arrow_out" transform="scale(0.3 0.3)">
          <a xlink:href="classdenoptim_1_1graph_1_1rings_1_1_path_sub_graph_aab14e095e0e0343fc1b132c740950041_cgraph_org.svg" target="_base">
           <rect id="button" ry="5" rx="5" y="6" x="6" height="38" width="38"
                fill="#f2f5e9" fill-opacity="0.5" stroke="#606060" stroke-width="1.0"/>
           <path id="arrow"
             d="M 11.500037,31.436501 C 11.940474,20.09759 22.043105,11.32322 32.158766,21.979434 L 37.068811,17.246167 C 37.068811,17.246167 37.088388,32 37.088388,32 L 22.160133,31.978069 C 22.160133,31.978069 26.997745,27.140456 26.997745,27.140456 C 18.528582,18.264221 13.291696,25.230495 11.500037,31.436501 z"
             style="fill:#404040;"/>
          </a>
         </g>
        </svg>
</svg>
