<?xml version="1.0" encoding="UTF-8" standalone="no"?>
<!DOCTYPE svg PUBLIC "-//W3C//DTD SVG 1.1//EN"
 "http://www.w3.org/Graphics/SVG/1.1/DTD/svg11.dtd">
<!-- Generated by graphviz version 3.0.0 (20221109.1736)
 -->
<!-- Title: denoptim.gui.MainToolBar Pages: 1 -->
<svg width="978pt" height="526pt"
 viewBox="0.00 0.00 978.00 526.00" xmlns="http://www.w3.org/2000/svg" xmlns:xlink="http://www.w3.org/1999/xlink">
<g id="graph0" class="graph" transform="scale(1 1) rotate(0) translate(4 522)">
<title>denoptim.gui.MainToolBar</title>
<polygon fill="white" stroke="transparent" points="-4,4 -4,-522 974,-522 974,4 -4,4"/>
<!-- Node1 -->
<g id="node1" class="node">
<title>Node1</title>
<g id="a_node1"><a xlink:title="Main tool bar of the DENOPTIM graphical user interface.">
<polygon fill="#bfbfbf" stroke="black" points="842,-180.5 842,-199.5 970,-199.5 970,-180.5 842,-180.5"/>
<text text-anchor="middle" x="906" y="-187.5" font-family="Helvetica,sans-Serif" font-size="10.00">denoptim.gui.MainToolBar</text>
</a>
</g>
</g>
<!-- Node2 -->
<g id="node2" class="node">
<title>Node2</title>
<g id="a_node2"><a xlink:title=" ">
<polygon fill="white" stroke="black" points="39,-350.5 39,-369.5 100,-369.5 100,-350.5 39,-350.5"/>
<text text-anchor="middle" x="69.5" y="-357.5" font-family="Helvetica,sans-Serif" font-size="10.00">JMenuBar</text>
</a>
</g>
</g>
<!-- Node2&#45;&gt;Node1 -->
<g id="edge1" class="edge">
<title>Node2&#45;&gt;Node1</title>
<path fill="none" stroke="midnightblue" d="M110.43,-365.58C160.64,-372.09 249.52,-382 326,-382 326,-382 326,-382 745,-382 841.11,-382 890.69,-238.26 902.3,-199.52"/>
<polygon fill="midnightblue" stroke="midnightblue" points="110.7,-362.08 100.32,-364.24 109.78,-369.02 110.7,-362.08"/>
</g>
<!-- Node11 -->
<g id="node11" class="node">
<title>Node11</title>
<g id="a_node11"><a xlink:href="classdenoptim_1_1gui_1_1_main_tool_bar.html" target="_top" xlink:title="Main tool bar of the DENOPTIM graphical user interface.">
<polygon fill="white" stroke="black" points="263,-207.5 263,-226.5 391,-226.5 391,-207.5 263,-207.5"/>
<text text-anchor="middle" x="327" y="-214.5" font-family="Helvetica,sans-Serif" font-size="10.00">denoptim.gui.MainToolBar</text>
</a>
</g>
</g>
<!-- Node2&#45;&gt;Node11 -->
<g id="edge12" class="edge">
<title>Node2&#45;&gt;Node11</title>
<path fill="none" stroke="midnightblue" d="M96.65,-345.36C148.95,-316.09 265.18,-251.04 308.91,-226.56"/>
<polygon fill="midnightblue" stroke="midnightblue" points="94.68,-342.46 87.66,-350.4 98.1,-348.57 94.68,-342.46"/>
</g>
<!-- Node3 -->
<g id="node3" class="node">
<title>Node3</title>
<g id="a_node3"><a xlink:title=" ">
<polygon fill="white" stroke="black" points="46.5,-426.5 46.5,-445.5 92.5,-445.5 92.5,-426.5 46.5,-426.5"/>
<text text-anchor="middle" x="69.5" y="-433.5" font-family="Helvetica,sans-Serif" font-size="10.00">JMenu</text>
</a>
</g>
</g>
<!-- Node3&#45;&gt;Node1 -->
<g id="edge2" class="edge">
<title>Node3&#45;&gt;Node1</title>
<path fill="none" stroke="#9a32cd" stroke-dasharray="5,2" d="M102.38,-443.84C150.5,-454.96 244.74,-474 326,-474 326,-474 326,-474 745,-474 873.75,-474 900.02,-249.71 904.28,-199.78"/>
<polygon fill="#9a32cd" stroke="#9a32cd" points="103.09,-440.41 92.55,-441.53 101.48,-447.22 103.09,-440.41"/>
<text text-anchor="middle" x="544.5" y="-510" font-family="Helvetica,sans-Serif" font-size="10.00"> activeTabsMenu</text>
<text text-anchor="middle" x="544.5" y="-499" font-family="Helvetica,sans-Serif" font-size="10.00">menuDenoptim</text>
<text text-anchor="middle" x="544.5" y="-488" font-family="Helvetica,sans-Serif" font-size="10.00">menuFile</text>
<text text-anchor="middle" x="544.5" y="-477" font-family="Helvetica,sans-Serif" font-size="10.00">openRecent</text>
</g>
<!-- Node3&#45;&gt;Node11 -->
<g id="edge13" class="edge">
<title>Node3&#45;&gt;Node11</title>
<path fill="none" stroke="#9a32cd" stroke-dasharray="5,2" d="M92.38,-420.43C126.19,-396.05 192.71,-346.78 245,-300 272.91,-275.03 303.02,-242.53 317.4,-226.62"/>
<polygon fill="#9a32cd" stroke="#9a32cd" points="90.21,-417.68 84.13,-426.35 94.29,-423.37 90.21,-417.68"/>
<text text-anchor="middle" x="201" y="-405" font-family="Helvetica,sans-Serif" font-size="10.00"> activeTabsMenu</text>
<text text-anchor="middle" x="201" y="-394" font-family="Helvetica,sans-Serif" font-size="10.00">menuDenoptim</text>
<text text-anchor="middle" x="201" y="-383" font-family="Helvetica,sans-Serif" font-size="10.00">menuFile</text>
<text text-anchor="middle" x="201" y="-372" font-family="Helvetica,sans-Serif" font-size="10.00">openRecent</text>
</g>
<!-- Node4 -->
<g id="node4" class="node">
<title>Node4</title>
<g id="a_node4"><a xlink:title=" ">
<polygon fill="white" stroke="black" points="31.5,-7.5 31.5,-26.5 107.5,-26.5 107.5,-7.5 31.5,-7.5"/>
<text text-anchor="middle" x="69.5" y="-14.5" font-family="Helvetica,sans-Serif" font-size="10.00">JProgressBar</text>
</a>
</g>
</g>
<!-- Node4&#45;&gt;Node1 -->
<g id="edge3" class="edge">
<title>Node4&#45;&gt;Node1</title>
<path fill="none" stroke="#9a32cd" stroke-dasharray="5,2" d="M117.79,-11.97C169.03,-6.95 253.22,0 326,0 326,0 326,0 745,0 840.3,0 890.3,-141.6 902.19,-180.32"/>
<polygon fill="#9a32cd" stroke="#9a32cd" points="117.29,-8.5 107.68,-12.97 117.98,-15.46 117.29,-8.5"/>
<text text-anchor="middle" x="544.5" y="-3" font-family="Helvetica,sans-Serif" font-size="10.00"> queueStatusBar</text>
</g>
<!-- Node4&#45;&gt;Node11 -->
<g id="edge14" class="edge">
<title>Node4&#45;&gt;Node11</title>
<path fill="none" stroke="#9a32cd" stroke-dasharray="5,2" d="M98.43,-31.21C134.32,-50.17 197.64,-86.03 245,-126 275.87,-152.05 305.77,-189.89 318.96,-207.42"/>
<polygon fill="#9a32cd" stroke="#9a32cd" points="99.98,-28.07 89.5,-26.54 96.74,-34.28 99.98,-28.07"/>
<text text-anchor="middle" x="201" y="-129" font-family="Helvetica,sans-Serif" font-size="10.00"> queueStatusBar</text>
</g>
<!-- Node5 -->
<g id="node5" class="node">
<title>Node5</title>
<g id="a_node5"><a xlink:title=" ">
<polygon fill="white" stroke="black" points="0,-85 0,-115 139,-115 139,-85 0,-85"/>
<text text-anchor="start" x="8" y="-103" font-family="Helvetica,sans-Serif" font-size="10.00">Map&lt; denoptim.gui.GUICard</text>
<text text-anchor="middle" x="69.5" y="-92" font-family="Helvetica,sans-Serif" font-size="10.00">Panel, JMenuItem &gt;</text>
</a>
</g>
</g>
<!-- Node5&#45;&gt;Node1 -->
<g id="edge4" class="edge">
<title>Node5&#45;&gt;Node1</title>
<path fill="none" stroke="#9a32cd" stroke-dasharray="5,2" d="M139.9,-82.75C191.01,-71.54 262.4,-59 326,-59 326,-59 326,-59 745,-59 821.47,-59 881.45,-149.69 899.45,-180.15"/>
<polygon fill="#9a32cd" stroke="#9a32cd" points="138.95,-79.37 129.95,-84.97 140.47,-86.2 138.95,-79.37"/>
<text text-anchor="middle" x="544.5" y="-62" font-family="Helvetica,sans-Serif" font-size="10.00"> activeTabsAndRefs</text>
</g>
<!-- Node5&#45;&gt;Node11 -->
<g id="edge15" class="edge">
<title>Node5&#45;&gt;Node11</title>
<path fill="none" stroke="#9a32cd" stroke-dasharray="5,2" d="M112.57,-119.27C167.95,-144.62 263.16,-188.23 305.12,-207.44"/>
<polygon fill="#9a32cd" stroke="#9a32cd" points="113.93,-116.04 103.38,-115.06 111.01,-122.4 113.93,-116.04"/>
<text text-anchor="middle" x="201" y="-182" font-family="Helvetica,sans-Serif" font-size="10.00"> activeTabsAndRefs</text>
</g>
<!-- Node6 -->
<g id="node6" class="node">
<title>Node6</title>
<g id="a_node6"><a xlink:href="classdenoptim_1_1gui_1_1_g_u_i.html" target="_top" xlink:title="Graphical User Interface of the DENOPTIM package.">
<polygon fill="white" stroke="black" points="698,-210.5 698,-229.5 790,-229.5 790,-210.5 698,-210.5"/>
<text text-anchor="middle" x="744" y="-217.5" font-family="Helvetica,sans-Serif" font-size="10.00">denoptim.gui.GUI</text>
</a>
</g>
</g>
<!-- Node6&#45;&gt;Node1 -->
<g id="edge5" class="edge">
<title>Node6&#45;&gt;Node1</title>
<path fill="none" stroke="#9a32cd" stroke-dasharray="5,2" d="M800.45,-209.6C817.88,-206.34 837.03,-202.75 854.12,-199.54"/>
<polygon fill="#9a32cd" stroke="#9a32cd" points="799.61,-206.2 790.42,-211.48 800.9,-213.08 799.61,-206.2"/>
<text text-anchor="middle" x="816" y="-210" font-family="Helvetica,sans-Serif" font-size="10.00"> gui</text>
</g>
<!-- Node6&#45;&gt;Node11 -->
<g id="edge16" class="edge">
<title>Node6&#45;&gt;Node11</title>
<path fill="none" stroke="#9a32cd" stroke-dasharray="5,2" d="M693.75,-231.58C689.12,-232.48 684.48,-233.3 680,-234 590.37,-247.91 566.44,-246.99 476,-240 442.69,-237.43 405.53,-231.64 376.78,-226.52"/>
<polygon fill="#9a32cd" stroke="#9a32cd" points="694.73,-234.95 703.83,-229.53 693.33,-228.1 694.73,-234.95"/>
<text text-anchor="middle" x="544.5" y="-247" font-family="Helvetica,sans-Serif" font-size="10.00"> gui</text>
</g>
<!-- Node7 -->
<g id="node7" class="node">
<title>Node7</title>
<g id="a_node7"><a xlink:title=" ">
<polygon fill="white" stroke="black" points="516,-211.5 516,-230.5 573,-230.5 573,-211.5 516,-211.5"/>
<text text-anchor="middle" x="544.5" y="-218.5" font-family="Helvetica,sans-Serif" font-size="10.00">Runnable</text>
</a>
</g>
</g>
<!-- Node7&#45;&gt;Node6 -->
<g id="edge6" class="edge">
<title>Node7&#45;&gt;Node6</title>
<path fill="none" stroke="midnightblue" d="M583.43,-220.81C616.05,-220.64 663.18,-220.4 697.77,-220.23"/>
<polygon fill="midnightblue" stroke="midnightblue" points="583.36,-217.31 573.38,-220.86 583.4,-224.31 583.36,-217.31"/>
</g>
<!-- Node8 -->
<g id="node8" class="node">
<title>Node8</title>
<g id="a_node8"><a xlink:title=" ">
<polygon fill="white" stroke="black" points="519.5,-135.5 519.5,-154.5 569.5,-154.5 569.5,-135.5 519.5,-135.5"/>
<text text-anchor="middle" x="544.5" y="-142.5" font-family="Helvetica,sans-Serif" font-size="10.00">JFrame</text>
</a>
</g>
</g>
<!-- Node8&#45;&gt;Node6 -->
<g id="edge7" class="edge">
<title>Node8&#45;&gt;Node6</title>
<path fill="none" stroke="#9a32cd" stroke-dasharray="5,2" d="M579.54,-151.23C607.29,-156.98 647.14,-166.8 680,-181 698.42,-188.96 717.79,-201.7 730.1,-210.44"/>
<polygon fill="#9a32cd" stroke="#9a32cd" points="580.02,-147.76 569.53,-149.22 578.65,-154.62 580.02,-147.76"/>
<text text-anchor="middle" x="655.5" y="-184" font-family="Helvetica,sans-Serif" font-size="10.00"> frame</text>
</g>
<!-- Node9 -->
<g id="node9" class="node">
<title>Node9</title>
<g id="a_node9"><a xlink:title=" ">
<polygon fill="white" stroke="black" points="303.5,-113.5 303.5,-132.5 350.5,-132.5 350.5,-113.5 303.5,-113.5"/>
<text text-anchor="middle" x="327" y="-120.5" font-family="Helvetica,sans-Serif" font-size="10.00">JPanel</text>
</a>
</g>
</g>
<!-- Node9&#45;&gt;Node6 -->
<g id="edge8" class="edge">
<title>Node9&#45;&gt;Node6</title>
<path fill="none" stroke="#9a32cd" stroke-dasharray="5,2" d="M360.85,-115.45C414.83,-104.48 525.11,-88.22 613,-115 647.31,-125.45 657.11,-132.38 680,-160 692.96,-175.64 683.47,-187.82 698,-202 701.49,-205.41 705.71,-208.2 710.15,-210.47"/>
<polygon fill="#9a32cd" stroke="#9a32cd" points="359.89,-112.07 350.82,-117.56 361.33,-118.92 359.89,-112.07"/>
<text text-anchor="middle" x="544.5" y="-118" font-family="Helvetica,sans-Serif" font-size="10.00"> framePane</text>
</g>
<!-- Node10 -->
<g id="node10" class="node">
<title>Node10</title>
<g id="a_node10"><a xlink:href="classdenoptim_1_1gui_1_1_g_u_i_main_panel.html" target="_top" xlink:title="The main panel is a deck of cards that occupies all the GUI frame.">
<polygon fill="white" stroke="black" points="476,-173.5 476,-192.5 613,-192.5 613,-173.5 476,-173.5"/>
<text text-anchor="middle" x="544.5" y="-180.5" font-family="Helvetica,sans-Serif" font-size="10.00">denoptim.gui.GUIMainPanel</text>
</a>
</g>
</g>
<!-- Node9&#45;&gt;Node10 -->
<g id="edge10" class="edge">
<title>Node9&#45;&gt;Node10</title>
<path fill="none" stroke="midnightblue" d="M360.44,-132.03C400.48,-143.18 468.27,-162.05 509.16,-173.44"/>
<polygon fill="midnightblue" stroke="midnightblue" points="361.23,-128.62 350.65,-129.31 359.35,-135.36 361.23,-128.62"/>
</g>
<!-- Node10&#45;&gt;Node1 -->
<g id="edge21" class="edge">
<title>Node10&#45;&gt;Node1</title>
<path fill="none" stroke="#9a32cd" stroke-dasharray="5,2" d="M623.38,-184.52C688.78,-185.79 781.04,-187.59 841.9,-188.77"/>
<polygon fill="#9a32cd" stroke="#9a32cd" points="623.19,-181.01 613.12,-184.32 623.05,-188.01 623.19,-181.01"/>
<text text-anchor="middle" x="744" y="-190" font-family="Helvetica,sans-Serif" font-size="10.00"> mainPanel</text>
</g>
<!-- Node10&#45;&gt;Node6 -->
<g id="edge9" class="edge">
<title>Node10&#45;&gt;Node6</title>
<path fill="none" stroke="#9a32cd" stroke-dasharray="5,2" d="M619.75,-194.17C639.39,-197.39 660.54,-201.1 680,-205 688.05,-206.61 696.63,-208.53 704.78,-210.44"/>
<polygon fill="#9a32cd" stroke="#9a32cd" points="620.07,-190.67 609.64,-192.53 618.95,-197.58 620.07,-190.67"/>
<text text-anchor="middle" x="655.5" y="-208" font-family="Helvetica,sans-Serif" font-size="10.00"> mainPanel</text>
</g>
<!-- Node10&#45;&gt;Node11 -->
<g id="edge17" class="edge">
<title>Node10&#45;&gt;Node11</title>
<path fill="none" stroke="#9a32cd" stroke-dasharray="5,2" d="M465.91,-176.87C447.13,-176.91 427.22,-178.23 409,-182 385.6,-186.84 360.64,-198.78 344.71,-207.37"/>
<polygon fill="#9a32cd" stroke="#9a32cd" points="465.88,-180.37 475.91,-176.96 465.94,-173.37 465.88,-180.37"/>
<text text-anchor="middle" x="433.5" y="-185" font-family="Helvetica,sans-Serif" font-size="10.00"> mainPanel</text>
</g>
<!-- Node11&#45;&gt;Node10 -->
<g id="edge11" class="edge">
<title>Node11&#45;&gt;Node10</title>
<path fill="none" stroke="#9a32cd" stroke-dasharray="5,2" d="M398.24,-205.92C425.67,-201.59 456.81,-196.68 483.2,-192.51"/>
<polygon fill="#9a32cd" stroke="#9a32cd" points="397.65,-202.47 388.32,-207.48 398.74,-209.38 397.65,-202.47"/>
<text text-anchor="middle" x="433.5" y="-207" font-family="Helvetica,sans-Serif" font-size="10.00"> toolBar</text>
</g>
<!-- Node12 -->
<g id="node12" class="node">
<title>Node12</title>
<g id="a_node12"><a xlink:title=" ">
<polygon fill="white" stroke="black" points="504.5,-296.5 504.5,-315.5 584.5,-315.5 584.5,-296.5 504.5,-296.5"/>
<text text-anchor="middle" x="544.5" y="-303.5" font-family="Helvetica,sans-Serif" font-size="10.00">CommandLine</text>
</a>
</g>
</g>
<!-- Node12&#45;&gt;Node6 -->
<g id="edge18" class="edge">
<title>Node12&#45;&gt;Node6</title>
<path fill="none" stroke="#9a32cd" stroke-dasharray="5,2" d="M594.72,-303.72C621.21,-300.84 653.73,-294.56 680,-281 704.35,-268.43 725.6,-243.38 736.08,-229.61"/>
<polygon fill="#9a32cd" stroke="#9a32cd" points="594.15,-300.26 584.53,-304.7 594.81,-307.23 594.15,-300.26"/>
<text text-anchor="middle" x="655.5" y="-300" font-family="Helvetica,sans-Serif" font-size="10.00"> cmd</text>
</g>
<!-- Node13 -->
<g id="node13" class="node">
<title>Node13</title>
<g id="a_node13"><a xlink:href="classdenoptim_1_1utils_1_1_randomizer.html" target="_top" xlink:title="Tool to generate random numbers and random decisions.">
<polygon fill="white" stroke="black" points="479.5,-334.5 479.5,-353.5 609.5,-353.5 609.5,-334.5 479.5,-334.5"/>
<text text-anchor="middle" x="544.5" y="-341.5" font-family="Helvetica,sans-Serif" font-size="10.00">denoptim.utils.Randomizer</text>
</a>
</g>
</g>
<!-- Node13&#45;&gt;Node6 -->
<g id="edge19" class="edge">
<title>Node13&#45;&gt;Node6</title>
<path fill="none" stroke="#9a32cd" stroke-dasharray="5,2" d="M619.51,-336.48C640.39,-331.78 662.24,-324.2 680,-312 711.11,-290.62 731.38,-248.43 739.27,-229.54"/>
<polygon fill="#9a32cd" stroke="#9a32cd" points="618.77,-333.06 609.68,-338.5 620.18,-339.92 618.77,-333.06"/>
<text text-anchor="middle" x="655.5" y="-336" font-family="Helvetica,sans-Serif" font-size="10.00"> PRNG</text>
</g>
<!-- Node14 -->
<g id="node14" class="node">
<title>Node14</title>
<g id="a_node14"><a xlink:title=" ">
<polygon fill="white" stroke="black" points="281,-334.5 281,-353.5 373,-353.5 373,-334.5 281,-334.5"/>
<text text-anchor="middle" x="327" y="-341.5" font-family="Helvetica,sans-Serif" font-size="10.00">MersenneTwister</text>
</a>
</g>
</g>
<!-- Node14&#45;&gt;Node13 -->
<g id="edge20" class="edge">
<title>Node14&#45;&gt;Node13</title>
<path fill="none" stroke="#9a32cd" stroke-dasharray="5,2" d="M383.23,-344C412.5,-344 448.63,-344 479.17,-344"/>
<polygon fill="#9a32cd" stroke="#9a32cd" points="383.18,-340.5 373.18,-344 383.18,-347.5 383.18,-340.5"/>
<text text-anchor="middle" x="433.5" y="-347" font-family="Helvetica,sans-Serif" font-size="10.00"> mt</text>
</g>
</g>
</svg>
