<?xml version="1.0" encoding="UTF-8" standalone="no"?>
<!DOCTYPE svg PUBLIC "-//W3C//DTD SVG 1.1//EN"
 "http://www.w3.org/Graphics/SVG/1.1/DTD/svg11.dtd">
<!-- Generated by graphviz version 3.0.0 (20221109.1736)
 -->
<!-- Title: denoptim.programs.denovo.GAParameters.getMolGrowthMultiplier Pages: 1 -->
<svg width="575pt" height="57pt"
 viewBox="0.00 0.00 575.00 57.00" xmlns="http://www.w3.org/2000/svg" xmlns:xlink="http://www.w3.org/1999/xlink">
<g id="graph0" class="graph" transform="scale(1 1) rotate(0) translate(4 53)">
<title>denoptim.programs.denovo.GAParameters.getMolGrowthMultiplier</title>
<polygon fill="white" stroke="transparent" points="-4,4 -4,-53 571,-53 571,4 -4,4"/>
<!-- Node1 -->
<g id="node1" class="node">
<title>Node1</title>
<g id="a_node1"><a xlink:title=" ">
<polygon fill="#bfbfbf" stroke="black" points="384,-0.5 384,-30.5 567,-30.5 567,-0.5 384,-0.5"/>
<text text-anchor="start" x="392" y="-18.5" font-family="Helvetica,sans-Serif" font-size="10.00">denoptim.programs.denovo.</text>
<text text-anchor="middle" x="475.5" y="-7.5" font-family="Helvetica,sans-Serif" font-size="10.00">GAParameters.getMolGrowthMultiplier</text>
</a>
</g>
</g>
<!-- Node2 -->
<g id="node2" class="node">
<title>Node2</title>
<g id="a_node2"><a xlink:href="classdenoptim_1_1ga_1_1_e_a_utils.html#aec4528b790625410efcb268566c03897" target="_top" xlink:title="Calculated the probability of extending a graph based on the current size of the molecular representa...">
<polygon fill="white" stroke="black" points="212,-0.5 212,-30.5 348,-30.5 348,-0.5 212,-0.5"/>
<text text-anchor="start" x="220" y="-18.5" font-family="Helvetica,sans-Serif" font-size="10.00">denoptim.ga.EAUtils.getMol</text>
<text text-anchor="middle" x="280" y="-7.5" font-family="Helvetica,sans-Serif" font-size="10.00">SizeProbability</text>
</a>
</g>
</g>
<!-- Node1&#45;&gt;Node2 -->
<g id="edge1" class="edge">
<title>Node1&#45;&gt;Node2</title>
<path fill="none" stroke="midnightblue" d="M373.76,-15.5C365.05,-15.5 356.39,-15.5 348.06,-15.5"/>
<polygon fill="midnightblue" stroke="midnightblue" points="373.98,-19 383.98,-15.5 373.98,-12 373.98,-19"/>
</g>
<!-- Node2&#45;&gt;Node2 -->
<g id="edge3" class="edge">
<title>Node2&#45;&gt;Node2</title>
<path fill="none" stroke="midnightblue" d="M314.12,-40.96C309.88,-45.68 298.51,-49 280,-49 249.62,-49 238.47,-40.06 246.54,-30.66"/>
<polygon fill="midnightblue" stroke="midnightblue" points="317.59,-40.42 313.46,-30.66 310.6,-40.86 317.59,-40.42"/>
</g>
<!-- Node3 -->
<g id="node3" class="node">
<title>Node3</title>
<g id="a_node3"><a xlink:href="classdenoptim_1_1ga_1_1_graph_operations.html#a104e82aba7242a457da09540ff0400da" target="_top" xlink:title="function that will keep extending the graph.">
<polygon fill="white" stroke="black" points="0,-0.5 0,-30.5 176,-30.5 176,-0.5 0,-0.5"/>
<text text-anchor="start" x="8" y="-18.5" font-family="Helvetica,sans-Serif" font-size="10.00">denoptim.ga.GraphOperations.extend</text>
<text text-anchor="middle" x="88" y="-7.5" font-family="Helvetica,sans-Serif" font-size="10.00">Graph</text>
</a>
</g>
</g>
<!-- Node2&#45;&gt;Node3 -->
<g id="edge2" class="edge">
<title>Node2&#45;&gt;Node3</title>
<path fill="none" stroke="midnightblue" d="M201.62,-15.5C193.22,-15.5 184.63,-15.5 176.13,-15.5"/>
<polygon fill="midnightblue" stroke="midnightblue" points="201.75,-19 211.75,-15.5 201.75,-12 201.75,-19"/>
</g>
</g>
</svg>
