<?xml version="1.0" encoding="UTF-8" standalone="no"?>
<!DOCTYPE svg PUBLIC "-//W3C//DTD SVG 1.1//EN"
 "http://www.w3.org/Graphics/SVG/1.1/DTD/svg11.dtd">
<!-- Generated by graphviz version 3.0.0 (20221109.1736)
 -->
<!-- Title: denoptim.ga.EAUtils.getSummaryStatistics Pages: 1 -->
<svg width="1076pt" height="335pt"
 viewBox="0.00 0.00 1076.00 335.39" xmlns="http://www.w3.org/2000/svg" xmlns:xlink="http://www.w3.org/1999/xlink">
<g id="graph0" class="graph" transform="scale(1 1) rotate(0) translate(4 331.39)">
<title>denoptim.ga.EAUtils.getSummaryStatistics</title>
<polygon fill="white" stroke="transparent" points="-4,4 -4,-331.39 1072,-331.39 1072,4 -4,4"/>
<!-- Node1 -->
<g id="node1" class="node">
<title>Node1</title>
<g id="a_node1"><a xlink:title=" ">
<polygon fill="#bfbfbf" stroke="black" points="0,-139.39 0,-169.39 161,-169.39 161,-139.39 0,-139.39"/>
<text text-anchor="start" x="8" y="-157.39" font-family="Helvetica,sans-Serif" font-size="10.00">denoptim.ga.EAUtils.getSummary</text>
<text text-anchor="middle" x="80.5" y="-146.39" font-family="Helvetica,sans-Serif" font-size="10.00">Statistics</text>
</a>
</g>
</g>
<!-- Node2 -->
<g id="node2" class="node">
<title>Node2</title>
<g id="a_node2"><a xlink:href="classdenoptim_1_1ga_1_1_e_a_utils.html#aa9960d143f0848577aec0e8ee65deb12" target="_top" xlink:title="Get the fitness values for the list of molecules.">
<polygon fill="white" stroke="black" points="197.5,-307.89 197.5,-326.89 360.5,-326.89 360.5,-307.89 197.5,-307.89"/>
<text text-anchor="middle" x="279" y="-314.89" font-family="Helvetica,sans-Serif" font-size="10.00">denoptim.ga.EAUtils.getFitnesses</text>
</a>
</g>
</g>
<!-- Node1&#45;&gt;Node2 -->
<g id="edge1" class="edge">
<title>Node1&#45;&gt;Node2</title>
<path fill="none" stroke="midnightblue" d="M89.29,-169.8C105.2,-199.63 144.41,-265.23 197,-298.39 200.34,-300.5 203.89,-302.37 207.57,-304.04"/>
<polygon fill="midnightblue" stroke="midnightblue" points="206.34,-307.32 216.93,-307.77 208.94,-300.81 206.34,-307.32"/>
</g>
<!-- Node3 -->
<g id="node3" class="node">
<title>Node3</title>
<g id="a_node3"><a xlink:href="classdenoptim_1_1programs_1_1denovo_1_1_g_a_parameters.html#a2e544172988f30a190ef37cceb09fbfc" target="_top" xlink:title=" ">
<polygon fill="white" stroke="black" points="198.5,-258.39 198.5,-288.39 359.5,-288.39 359.5,-258.39 198.5,-258.39"/>
<text text-anchor="start" x="206.5" y="-276.39" font-family="Helvetica,sans-Serif" font-size="10.00">denoptim.programs.denovo.</text>
<text text-anchor="middle" x="279" y="-265.39" font-family="Helvetica,sans-Serif" font-size="10.00">GAParameters.getPrecisionLevel</text>
</a>
</g>
</g>
<!-- Node1&#45;&gt;Node3 -->
<g id="edge2" class="edge">
<title>Node1&#45;&gt;Node3</title>
<path fill="none" stroke="midnightblue" d="M96.18,-169.55C116.88,-190.13 156.65,-226.8 197,-248.39 201.16,-250.62 205.55,-252.68 210.04,-254.58"/>
<polygon fill="midnightblue" stroke="midnightblue" points="208.79,-257.85 219.38,-258.26 211.36,-251.34 208.79,-257.85"/>
</g>
<!-- Node4 -->
<g id="node4" class="node">
<title>Node4</title>
<g id="a_node4"><a xlink:href="classdenoptim_1_1utils_1_1_stat_utils.html#abd3508ae7b87a92f819db91a0dd70dcb" target="_top" xlink:title="Returns the maximum value among the numbers .">
<polygon fill="white" stroke="black" points="210.5,-201.89 210.5,-220.89 347.5,-220.89 347.5,-201.89 210.5,-201.89"/>
<text text-anchor="middle" x="279" y="-208.89" font-family="Helvetica,sans-Serif" font-size="10.00">denoptim.utils.StatUtils.max</text>
</a>
</g>
</g>
<!-- Node1&#45;&gt;Node4 -->
<g id="edge3" class="edge">
<title>Node1&#45;&gt;Node4</title>
<path fill="none" stroke="midnightblue" d="M133.39,-169.44C165.16,-178.66 205.32,-190.31 235.25,-198.99"/>
<polygon fill="midnightblue" stroke="midnightblue" points="234.41,-202.39 244.99,-201.81 236.36,-195.67 234.41,-202.39"/>
</g>
<!-- Node5 -->
<g id="node5" class="node">
<title>Node5</title>
<g id="a_node5"><a xlink:href="classdenoptim_1_1utils_1_1_stat_utils.html#a12ae258bebe1f3568dabdd606edd3d56" target="_top" xlink:title="Returns the mean number in the numbers list.">
<polygon fill="white" stroke="black" points="751,-68.89 751,-87.89 894,-87.89 894,-68.89 751,-68.89"/>
<text text-anchor="middle" x="822.5" y="-75.89" font-family="Helvetica,sans-Serif" font-size="10.00">denoptim.utils.StatUtils.mean</text>
</a>
</g>
</g>
<!-- Node1&#45;&gt;Node5 -->
<g id="edge5" class="edge">
<title>Node1&#45;&gt;Node5</title>
<path fill="none" stroke="midnightblue" d="M161.16,-157.84C217.15,-159.43 293.78,-159.9 361,-154.39 509.81,-142.19 682.97,-108.18 768.34,-90.08"/>
<polygon fill="midnightblue" stroke="midnightblue" points="769.25,-93.46 778.3,-87.95 767.79,-86.61 769.25,-93.46"/>
</g>
<!-- Node7 -->
<g id="node7" class="node">
<title>Node7</title>
<g id="a_node7"><a xlink:href="classdenoptim_1_1utils_1_1_stat_utils.html#a68460a326762f6b16aca2c3380525c35" target="_top" xlink:title="Calculates median value of a sorted list.">
<polygon fill="white" stroke="black" points="203.5,-125.89 203.5,-144.89 354.5,-144.89 354.5,-125.89 203.5,-125.89"/>
<text text-anchor="middle" x="279" y="-132.89" font-family="Helvetica,sans-Serif" font-size="10.00">denoptim.utils.StatUtils.median</text>
</a>
</g>
</g>
<!-- Node1&#45;&gt;Node7 -->
<g id="edge8" class="edge">
<title>Node1&#45;&gt;Node7</title>
<path fill="none" stroke="midnightblue" d="M161.14,-146.69C171.7,-145.67 182.56,-144.62 193.21,-143.59"/>
<polygon fill="midnightblue" stroke="midnightblue" points="193.71,-147.06 203.33,-142.61 193.04,-140.09 193.71,-147.06"/>
</g>
<!-- Node8 -->
<g id="node8" class="node">
<title>Node8</title>
<g id="a_node8"><a xlink:href="classdenoptim_1_1utils_1_1_stat_utils.html#aad3c103a99a3c3110108f6dd7d1922ff" target="_top" xlink:title="Returns the minimum value among the numbers .">
<polygon fill="white" stroke="black" points="211.5,-69.89 211.5,-88.89 346.5,-88.89 346.5,-69.89 211.5,-69.89"/>
<text text-anchor="middle" x="279" y="-76.89" font-family="Helvetica,sans-Serif" font-size="10.00">denoptim.utils.StatUtils.min</text>
</a>
</g>
</g>
<!-- Node1&#45;&gt;Node8 -->
<g id="edge9" class="edge">
<title>Node1&#45;&gt;Node8</title>
<path fill="none" stroke="midnightblue" d="M121.26,-139.21C157.09,-125.54 209.23,-105.64 243.38,-92.61"/>
<polygon fill="midnightblue" stroke="midnightblue" points="244.83,-95.8 252.93,-88.96 242.34,-89.26 244.83,-95.8"/>
</g>
<!-- Node9 -->
<g id="node9" class="node">
<title>Node9</title>
<g id="a_node9"><a xlink:href="classdenoptim_1_1utils_1_1_stat_utils.html#a42a83457989ab54a4cbb808fbca8ee1f" target="_top" xlink:title="Computes the skewness of the available values.">
<polygon fill="white" stroke="black" points="197,-31.89 197,-50.89 361,-50.89 361,-31.89 197,-31.89"/>
<text text-anchor="middle" x="279" y="-38.89" font-family="Helvetica,sans-Serif" font-size="10.00">denoptim.utils.StatUtils.skewness</text>
</a>
</g>
</g>
<!-- Node1&#45;&gt;Node9 -->
<g id="edge11" class="edge">
<title>Node1&#45;&gt;Node9</title>
<path fill="none" stroke="midnightblue" d="M95.63,-139.18C115.99,-118.2 155.7,-80.69 197,-60.39 201.94,-57.96 207.21,-55.84 212.59,-53.97"/>
<polygon fill="midnightblue" stroke="midnightblue" points="213.88,-57.24 222.37,-50.9 211.78,-50.56 213.88,-57.24"/>
</g>
<!-- Node10 -->
<g id="node10" class="node">
<title>Node10</title>
<g id="a_node10"><a xlink:href="classdenoptim_1_1utils_1_1_stat_utils.html#a31cf5dc53af191a60dbcdba3b1f9da6b" target="_top" xlink:title="Returns the standard deviation of the numbers.">
<polygon fill="white" stroke="black" points="397,-12.89 397,-31.89 546,-31.89 546,-12.89 397,-12.89"/>
<text text-anchor="middle" x="471.5" y="-19.89" font-family="Helvetica,sans-Serif" font-size="10.00">denoptim.utils.StatUtils.stddev</text>
</a>
</g>
</g>
<!-- Node1&#45;&gt;Node10 -->
<g id="edge18" class="edge">
<title>Node1&#45;&gt;Node10</title>
<path fill="none" stroke="midnightblue" d="M89.08,-139.21C104.61,-110.02 143.2,-46.8 197,-22.39 269.86,10.67 365.31,0.21 422.03,-10.81"/>
<polygon fill="midnightblue" stroke="midnightblue" points="421.67,-14.3 432.16,-12.86 423.06,-7.44 421.67,-14.3"/>
</g>
<!-- Node4&#45;&gt;Node4 -->
<g id="edge4" class="edge">
<title>Node4&#45;&gt;Node4</title>
<path fill="none" stroke="midnightblue" d="M249.41,-221.15C235.01,-229.96 244.88,-239.39 279,-239.39 302.99,-239.39 314.99,-234.73 315,-228.9"/>
<polygon fill="midnightblue" stroke="midnightblue" points="317.66,-226.62 308.59,-221.15 312.27,-231.08 317.66,-226.62"/>
</g>
<!-- Node6 -->
<g id="node6" class="node">
<title>Node6</title>
<g id="a_node6"><a xlink:href="classdenoptim_1_1utils_1_1_stat_utils.html#a181673167433cb8ad256d0295d76c29f" target="_top" xlink:title="Returns the sum number in the numbers list.">
<polygon fill="white" stroke="black" points="930,-49.89 930,-68.89 1068,-68.89 1068,-49.89 930,-49.89"/>
<text text-anchor="middle" x="999" y="-56.89" font-family="Helvetica,sans-Serif" font-size="10.00">denoptim.utils.StatUtils.sum</text>
</a>
</g>
</g>
<!-- Node5&#45;&gt;Node6 -->
<g id="edge6" class="edge">
<title>Node5&#45;&gt;Node6</title>
<path fill="none" stroke="midnightblue" d="M894.22,-70.69C902.55,-69.78 911.09,-68.85 919.52,-67.94"/>
<polygon fill="midnightblue" stroke="midnightblue" points="920.16,-71.39 929.72,-66.83 919.4,-64.43 920.16,-71.39"/>
</g>
<!-- Node6&#45;&gt;Node6 -->
<g id="edge7" class="edge">
<title>Node6&#45;&gt;Node6</title>
<path fill="none" stroke="midnightblue" d="M971.87,-69.15C958.68,-77.96 967.72,-87.39 999,-87.39 1020.51,-87.39 1031.5,-82.93 1031.98,-77.28"/>
<polygon fill="midnightblue" stroke="midnightblue" points="1034.81,-75.22 1026.13,-69.15 1029.13,-79.31 1034.81,-75.22"/>
</g>
<!-- Node8&#45;&gt;Node8 -->
<g id="edge10" class="edge">
<title>Node8&#45;&gt;Node8</title>
<path fill="none" stroke="midnightblue" d="M249.41,-89.15C235.01,-97.96 244.88,-107.39 279,-107.39 302.99,-107.39 314.99,-102.73 315,-96.9"/>
<polygon fill="midnightblue" stroke="midnightblue" points="317.66,-94.62 308.59,-89.15 312.27,-99.08 317.66,-94.62"/>
</g>
<!-- Node9&#45;&gt;Node5 -->
<g id="edge12" class="edge">
<title>Node9&#45;&gt;Node5</title>
<path fill="none" stroke="midnightblue" d="M333.73,-50.9C353.55,-54.08 376.24,-57.34 397,-59.39 516.22,-71.2 655.01,-75.67 740.56,-77.36"/>
<polygon fill="midnightblue" stroke="midnightblue" points="740.66,-80.87 750.73,-77.56 740.8,-73.87 740.66,-80.87"/>
</g>
<!-- Node9&#45;&gt;Node10 -->
<g id="edge13" class="edge">
<title>Node9&#45;&gt;Node10</title>
<path fill="none" stroke="midnightblue" d="M361.07,-33.31C369.58,-32.46 378.25,-31.59 386.8,-30.74"/>
<polygon fill="midnightblue" stroke="midnightblue" points="387.15,-34.22 396.75,-29.75 386.46,-27.26 387.15,-34.22"/>
</g>
<!-- Node10&#45;&gt;Node10 -->
<g id="edge14" class="edge">
<title>Node10&#45;&gt;Node10</title>
<path fill="none" stroke="midnightblue" d="M444.37,-32.15C431.18,-40.96 440.22,-50.39 471.5,-50.39 493.01,-50.39 504,-45.93 504.48,-40.28"/>
<polygon fill="midnightblue" stroke="midnightblue" points="507.31,-38.22 498.63,-32.15 501.63,-42.31 507.31,-38.22"/>
</g>
<!-- Node11 -->
<g id="node11" class="node">
<title>Node11</title>
<g id="a_node11"><a xlink:href="classdenoptim_1_1utils_1_1_stat_utils.html#aac6cf70b1516266ef3e845d5ad4633f5" target="_top" xlink:title="Computes the variance of the available values.">
<polygon fill="white" stroke="black" points="582,-30.89 582,-49.89 715,-49.89 715,-30.89 582,-30.89"/>
<text text-anchor="middle" x="648.5" y="-37.89" font-family="Helvetica,sans-Serif" font-size="10.00">denoptim.utils.StatUtils.var</text>
</a>
</g>
</g>
<!-- Node10&#45;&gt;Node11 -->
<g id="edge15" class="edge">
<title>Node10&#45;&gt;Node11</title>
<path fill="none" stroke="midnightblue" d="M546.21,-29.97C554.64,-30.84 563.25,-31.73 571.71,-32.6"/>
<polygon fill="midnightblue" stroke="midnightblue" points="571.63,-36.11 581.94,-33.65 572.35,-29.14 571.63,-36.11"/>
</g>
<!-- Node11&#45;&gt;Node5 -->
<g id="edge16" class="edge">
<title>Node11&#45;&gt;Node5</title>
<path fill="none" stroke="midnightblue" d="M692.9,-49.98C715.91,-55.06 744.35,-61.35 768.63,-66.71"/>
<polygon fill="midnightblue" stroke="midnightblue" points="767.89,-70.13 778.41,-68.87 769.4,-63.3 767.89,-70.13"/>
</g>
<!-- Node11&#45;&gt;Node6 -->
<g id="edge17" class="edge">
<title>Node11&#45;&gt;Node6</title>
<path fill="none" stroke="midnightblue" d="M715.05,-43.96C773.14,-47.13 858.06,-51.76 919.7,-55.12"/>
<polygon fill="midnightblue" stroke="midnightblue" points="919.59,-58.62 929.77,-55.67 919.97,-51.63 919.59,-58.62"/>
</g>
</g>
</svg>
