<?xml version="1.0" encoding="UTF-8" standalone="no"?>
<!DOCTYPE svg PUBLIC "-//W3C//DTD SVG 1.1//EN"
 "http://www.w3.org/Graphics/SVG/1.1/DTD/svg11.dtd">
<!-- Generated by graphviz version 3.0.0 (20221109.1736)
 -->
<!-- Title: denoptim.ga.Population.getMinFitness Pages: 1 -->
<svg width="490pt" height="61pt"
 viewBox="0.00 0.00 490.00 61.00" xmlns="http://www.w3.org/2000/svg" xmlns:xlink="http://www.w3.org/1999/xlink">
<g id="graph0" class="graph" transform="scale(1 1) rotate(0) translate(4 57)">
<title>denoptim.ga.Population.getMinFitness</title>
<polygon fill="white" stroke="transparent" points="-4,4 -4,-57 486,-57 486,4 -4,4"/>
<!-- Node1 -->
<g id="node1" class="node">
<title>Node1</title>
<g id="a_node1"><a xlink:title="Gets the minimum value of the fitness in this population.">
<polygon fill="#bfbfbf" stroke="black" points="0,-22.5 0,-52.5 133,-52.5 133,-22.5 0,-22.5"/>
<text text-anchor="start" x="8" y="-40.5" font-family="Helvetica,sans-Serif" font-size="10.00">denoptim.ga.Population.get</text>
<text text-anchor="middle" x="66.5" y="-29.5" font-family="Helvetica,sans-Serif" font-size="10.00">MinFitness</text>
</a>
</g>
</g>
<!-- Node2 -->
<g id="node2" class="node">
<title>Node2</title>
<g id="a_node2"><a xlink:href="classdenoptim_1_1graph_1_1_candidate.html#a0738609a1a3bec92633440d449a62c67" target="_top" xlink:title=" ">
<polygon fill="white" stroke="black" points="338,-22.5 338,-52.5 482,-52.5 482,-22.5 338,-22.5"/>
<text text-anchor="start" x="346" y="-40.5" font-family="Helvetica,sans-Serif" font-size="10.00">denoptim.graph.Candidate.get</text>
<text text-anchor="middle" x="410" y="-29.5" font-family="Helvetica,sans-Serif" font-size="10.00">Fitness</text>
</a>
</g>
</g>
<!-- Node1&#45;&gt;Node2 -->
<g id="edge1" class="edge">
<title>Node1&#45;&gt;Node2</title>
<path fill="none" stroke="midnightblue" d="M133.01,-39.72C144.98,-40.05 157.37,-40.33 169,-40.5 228.1,-41.37 242.89,-41.33 302,-40.5 310.35,-40.38 319.06,-40.21 327.75,-40.02"/>
<polygon fill="midnightblue" stroke="midnightblue" points="328.01,-43.51 337.92,-39.77 327.84,-36.51 328.01,-43.51"/>
</g>
<!-- Node3 -->
<g id="node3" class="node">
<title>Node3</title>
<g id="a_node3"><a xlink:href="classdenoptim_1_1ga_1_1_population.html#a914f7bdf119e8a7b749d6e37eed3f0e4" target="_top" xlink:title="Gets the Candidate with minimum value of the fitness in this population.">
<polygon fill="white" stroke="black" points="169,-0.5 169,-30.5 302,-30.5 302,-0.5 169,-0.5"/>
<text text-anchor="start" x="177" y="-18.5" font-family="Helvetica,sans-Serif" font-size="10.00">denoptim.ga.Population.get</text>
<text text-anchor="middle" x="235.5" y="-7.5" font-family="Helvetica,sans-Serif" font-size="10.00">MinFitnessMember</text>
</a>
</g>
</g>
<!-- Node1&#45;&gt;Node3 -->
<g id="edge2" class="edge">
<title>Node1&#45;&gt;Node3</title>
<path fill="none" stroke="midnightblue" d="M133.02,-28.87C141.5,-27.75 150.23,-26.6 158.85,-25.47"/>
<polygon fill="midnightblue" stroke="midnightblue" points="159.43,-28.92 168.89,-24.14 158.52,-21.98 159.43,-28.92"/>
</g>
<!-- Node3&#45;&gt;Node2 -->
<g id="edge3" class="edge">
<title>Node3&#45;&gt;Node2</title>
<path fill="none" stroke="midnightblue" d="M302.21,-23.88C310.56,-24.94 319.18,-26.04 327.73,-27.14"/>
<polygon fill="midnightblue" stroke="midnightblue" points="327.36,-30.62 337.73,-28.41 328.25,-23.67 327.36,-30.62"/>
</g>
</g>
</svg>
