<?xml version="1.0" encoding="UTF-8" standalone="no"?>
<!DOCTYPE svg PUBLIC "-//W3C//DTD SVG 1.1//EN"
 "http://www.w3.org/Graphics/SVG/1.1/DTD/svg11.dtd">
<!-- Generated by graphviz version 3.0.0 (20221109.1736)
 -->
<!-- Title: denoptim.gui.GUIPreferencesDialog Pages: 1 -->
<!--zoomable 563 -->
<svg id="main" version="1.1" xmlns="http://www.w3.org/2000/svg" xmlns:xlink="http://www.w3.org/1999/xlink" xml:space="preserve" onload="init(evt)">
<style type="text/css"><![CDATA[
.edge:hover path { stroke: red; }
.edge:hover polygon { stroke: red; fill: red; }
]]></style>
<script type="text/javascript"><![CDATA[
var edges = document.getElementsByTagName('g');
if (edges && edges.length) {
  for (var i=0;i<edges.length;i++) {
    if (edges[i].id.substr(0,4)=='edge') {
      edges[i].setAttribute('class','edge');
    }
  }
}
]]></script>
        <defs>
                <circle id="rim" cx="0" cy="0" r="7"/>
                <circle id="rim2" cx="0" cy="0" r="3.5"/>
                <g id="zoomPlus">
                        <use xlink:href="#rim" fill="#404040">
                                <set attributeName="fill" to="#808080" begin="zoomplus.mouseover" end="zoomplus.mouseout"/>
                        </use>
                        <path d="M-4,0h8M0,-4v8" fill="none" stroke="white" stroke-width="1.5" pointer-events="none"/>
                </g>
                <g id="zoomMin">
                        <use xlink:href="#rim" fill="#404040">
                                <set attributeName="fill" to="#808080" begin="zoomminus.mouseover" end="zoomminus.mouseout"/>
                        </use>
                        <path d="M-4,0h8" fill="none" stroke="white" stroke-width="1.5" pointer-events="none"/>
                </g>
                <g id="dirArrow">
                        <path fill="none" stroke="white" stroke-width="1.5" d="M0,-3.0v7 M-2.5,-0.5L0,-3.0L2.5,-0.5"/>
                </g>
               <g id="resetDef">
                       <use xlink:href="#rim2" fill="#404040">
                               <set attributeName="fill" to="#808080" begin="reset.mouseover" end="reset.mouseout"/>
                       </use>
               </g>
        </defs>

<script type="text/javascript">
var viewWidth = 582;
var viewHeight = 563;
var sectionId = 'dynsection-1';
</script>
<script xlink:href="svgpan.js"/>
<svg id="graph" class="graph">
<g id="viewport">
<title>denoptim.gui.GUIPreferencesDialog</title>
<polygon fill="white" stroke="transparent" points="-4,4 -4,-558.5 578,-558.5 578,4 -4,4"/>
<!-- Node1 -->
<g id="node1" class="node">
<title>Node1</title>
<g id="a_node1"><a xlink:title=" ">
<polygon fill="#bfbfbf" stroke="black" points="430,-194.5 430,-224.5 574,-224.5 574,-194.5 430,-194.5"/>
<text text-anchor="start" x="438" y="-212.5" font-family="Helvetica,sans-Serif" font-size="10.00">denoptim.gui.GUIPreferences</text>
<text text-anchor="middle" x="502" y="-201.5" font-family="Helvetica,sans-Serif" font-size="10.00">Dialog</text>
</a>
</g>
</g>
<!-- Node2 -->
<g id="node2" class="node">
<title>Node2</title>
<g id="a_node2"><a xlink:href="classdenoptim_1_1gui_1_1_g_u_i_modal_dialog.html" target="_top" xlink:title=" ">
<polygon fill="white" stroke="black" points="149.5,-487 149.5,-506 294.5,-506 294.5,-487 149.5,-487"/>
<text text-anchor="middle" x="222" y="-494" font-family="Helvetica,sans-Serif" font-size="10.00">denoptim.gui.GUIModalDialog</text>
</a>
</g>
</g>
<!-- Node2&#45;&gt;Node1 -->
<g id="edge1" class="edge">
<title>Node2&#45;&gt;Node1</title>
<path fill="none" stroke="midnightblue" d="M278.49,-483.96C287.94,-480.84 297.45,-477.06 306,-472.5 360.28,-443.55 373.68,-431.62 412,-383.5 453.64,-331.21 483.9,-256.36 495.63,-224.63"/>
<polygon fill="midnightblue" stroke="midnightblue" points="277.23,-480.68 268.7,-486.96 279.29,-487.37 277.23,-480.68"/>
</g>
<!-- Node3 -->
<g id="node3" class="node">
<title>Node3</title>
<g id="a_node3"><a xlink:title=" ">
<polygon fill="white" stroke="black" points="0.5,-454 0.5,-473 49.5,-473 49.5,-454 0.5,-454"/>
<text text-anchor="middle" x="25" y="-461" font-family="Helvetica,sans-Serif" font-size="10.00">JDialog</text>
</a>
</g>
</g>
<!-- Node3&#45;&gt;Node2 -->
<g id="edge2" class="edge">
<title>Node3&#45;&gt;Node2</title>
<path fill="none" stroke="midnightblue" d="M59.52,-469.17C88.4,-474.06 130.69,-481.22 164.75,-486.98"/>
<polygon fill="midnightblue" stroke="midnightblue" points="59.97,-465.7 49.52,-467.48 58.8,-472.6 59.97,-465.7"/>
</g>
<!-- Node4 -->
<g id="node4" class="node">
<title>Node4</title>
<g id="a_node4"><a xlink:title=" ">
<polygon fill="white" stroke="black" points="0,-513 0,-532 50,-532 50,-513 0,-513"/>
<text text-anchor="middle" x="25" y="-520" font-family="Helvetica,sans-Serif" font-size="10.00">JButton</text>
</a>
</g>
</g>
<!-- Node4&#45;&gt;Node1 -->
<g id="edge12" class="edge">
<title>Node4&#45;&gt;Node1</title>
<path fill="none" stroke="#9a32cd" stroke-dasharray="5,2" d="M60.28,-529.58C62.88,-529.95 65.48,-530.26 68,-530.5 91.01,-532.67 96.91,-531.43 120,-530.5 202.87,-527.16 228.48,-544.99 306,-515.5 361.17,-494.52 376.29,-482.5 412,-435.5 464.3,-366.67 489.91,-263.15 498.04,-224.64"/>
<polygon fill="#9a32cd" stroke="#9a32cd" points="60.75,-526.11 50.32,-527.94 59.62,-533.01 60.75,-526.11"/>
<text text-anchor="middle" x="222" y="-546.5" font-family="Helvetica,sans-Serif" font-size="10.00"> btnPropTagsCleanup</text>
<text text-anchor="middle" x="222" y="-535.5" font-family="Helvetica,sans-Serif" font-size="10.00">btnPropTagsInsert</text>
</g>
<!-- Node4&#45;&gt;Node2 -->
<g id="edge3" class="edge">
<title>Node4&#45;&gt;Node2</title>
<path fill="none" stroke="#9a32cd" stroke-dasharray="5,2" d="M46.79,-507.19C53.26,-503.25 60.64,-499.55 68,-497.5 93.97,-490.26 123.4,-488.61 149.46,-489.25"/>
<polygon fill="#9a32cd" stroke="#9a32cd" points="44.47,-504.52 38.06,-512.96 48.33,-510.36 44.47,-504.52"/>
<text text-anchor="middle" x="94" y="-522.5" font-family="Helvetica,sans-Serif" font-size="10.00"> btnCanc</text>
<text text-anchor="middle" x="94" y="-511.5" font-family="Helvetica,sans-Serif" font-size="10.00">btnDone</text>
<text text-anchor="middle" x="94" y="-500.5" font-family="Helvetica,sans-Serif" font-size="10.00">btnExtra</text>
</g>
<!-- Node5 -->
<g id="node5" class="node">
<title>Node5</title>
<g id="a_node5"><a xlink:title=" ">
<polygon fill="white" stroke="black" points="1.5,-388 1.5,-407 48.5,-407 48.5,-388 1.5,-388"/>
<text text-anchor="middle" x="25" y="-395" font-family="Helvetica,sans-Serif" font-size="10.00">JPanel</text>
</a>
</g>
</g>
<!-- Node5&#45;&gt;Node1 -->
<g id="edge6" class="edge">
<title>Node5&#45;&gt;Node1</title>
<path fill="none" stroke="#9a32cd" stroke-dasharray="5,2" d="M58.62,-391.41C80.92,-387.39 111.18,-382.19 138,-378.5 198.66,-370.15 359.96,-381.76 412,-349.5 459.73,-319.91 486.39,-254.17 496.38,-224.52"/>
<polygon fill="#9a32cd" stroke="#9a32cd" points="57.88,-387.99 48.67,-393.22 59.14,-394.87 57.88,-387.99"/>
<text text-anchor="middle" x="222" y="-469.5" font-family="Helvetica,sans-Serif" font-size="10.00"> centralPanel</text>
<text text-anchor="middle" x="222" y="-458.5" font-family="Helvetica,sans-Serif" font-size="10.00">linePropTags</text>
<text text-anchor="middle" x="222" y="-447.5" font-family="Helvetica,sans-Serif" font-size="10.00">pnlChartPointSize</text>
<text text-anchor="middle" x="222" y="-436.5" font-family="Helvetica,sans-Serif" font-size="10.00">pnlEvoChartLegend</text>
<text text-anchor="middle" x="222" y="-425.5" font-family="Helvetica,sans-Serif" font-size="10.00">pnlGraphNodeSize</text>
<text text-anchor="middle" x="222" y="-414.5" font-family="Helvetica,sans-Serif" font-size="10.00">pnlGraphTxtSize</text>
<text text-anchor="middle" x="222" y="-403.5" font-family="Helvetica,sans-Serif" font-size="10.00">pnlMntChartLegend</text>
<text text-anchor="middle" x="222" y="-392.5" font-family="Helvetica,sans-Serif" font-size="10.00">pnlSMILESTo3D</text>
<text text-anchor="middle" x="222" y="-381.5" font-family="Helvetica,sans-Serif" font-size="10.00">pnlTmpSpace</text>
</g>
<!-- Node5&#45;&gt;Node2 -->
<g id="edge4" class="edge">
<title>Node5&#45;&gt;Node2</title>
<path fill="none" stroke="#9a32cd" stroke-dasharray="5,2" d="M52.91,-412.14C72.24,-423.12 98.56,-439.04 120,-455.5 128.73,-462.2 128.45,-467.04 138,-472.5 148.81,-478.68 161.33,-483.37 173.33,-486.9"/>
<polygon fill="#9a32cd" stroke="#9a32cd" points="54.46,-409 44.03,-407.17 51.04,-415.11 54.46,-409"/>
<text text-anchor="middle" x="94" y="-458.5" font-family="Helvetica,sans-Serif" font-size="10.00"> pnlControls</text>
</g>
<!-- Node6 -->
<g id="node6" class="node">
<title>Node6</title>
<g id="a_node6"><a xlink:title=" ">
<polygon fill="white" stroke="black" points="191,-314 191,-333 253,-333 253,-314 191,-314"/>
<text text-anchor="middle" x="222" y="-321" font-family="Helvetica,sans-Serif" font-size="10.00">Dimension</text>
</a>
</g>
</g>
<!-- Node6&#45;&gt;Node1 -->
<g id="edge5" class="edge">
<title>Node6&#45;&gt;Node1</title>
<path fill="none" stroke="#9a32cd" stroke-dasharray="5,2" d="M263.36,-326.43C303.2,-327.63 364.83,-324.81 412,-301.5 447.66,-283.88 476.97,-245.92 491.37,-224.68"/>
<polygon fill="#9a32cd" stroke="#9a32cd" points="263.36,-322.93 253.23,-326.03 263.08,-329.93 263.36,-322.93"/>
<text text-anchor="middle" x="368" y="-337.5" font-family="Helvetica,sans-Serif" font-size="10.00"> fileLabelSize</text>
<text text-anchor="middle" x="368" y="-326.5" font-family="Helvetica,sans-Serif" font-size="10.00">strFieldSize</text>
</g>
<!-- Node7 -->
<g id="node7" class="node">
<title>Node7</title>
<g id="a_node7"><a xlink:title=" ">
<polygon fill="white" stroke="black" points="199,-234 199,-253 245,-253 245,-234 199,-234"/>
<text text-anchor="middle" x="222" y="-241" font-family="Helvetica,sans-Serif" font-size="10.00">JLabel</text>
</a>
</g>
</g>
<!-- Node7&#45;&gt;Node1 -->
<g id="edge7" class="edge">
<title>Node7&#45;&gt;Node1</title>
<path fill="none" stroke="#9a32cd" stroke-dasharray="5,2" d="M255.48,-239.9C293.15,-235.68 357.11,-228.39 412,-221.5 417.72,-220.78 423.65,-220.02 429.61,-219.24"/>
<polygon fill="#9a32cd" stroke="#9a32cd" points="254.68,-236.47 245.13,-241.06 255.46,-243.42 254.68,-236.47"/>
<text text-anchor="middle" x="368" y="-289.5" font-family="Helvetica,sans-Serif" font-size="10.00"> lblChartPointSize</text>
<text text-anchor="middle" x="368" y="-278.5" font-family="Helvetica,sans-Serif" font-size="10.00">lblGraphNodeSize</text>
<text text-anchor="middle" x="368" y="-267.5" font-family="Helvetica,sans-Serif" font-size="10.00">lblGraphTxtSize</text>
<text text-anchor="middle" x="368" y="-256.5" font-family="Helvetica,sans-Serif" font-size="10.00">lblPropTags</text>
<text text-anchor="middle" x="368" y="-245.5" font-family="Helvetica,sans-Serif" font-size="10.00">lblSMILESTo3D</text>
<text text-anchor="middle" x="368" y="-234.5" font-family="Helvetica,sans-Serif" font-size="10.00">lblTmpSpace</text>
</g>
<!-- Node8 -->
<g id="node8" class="node">
<title>Node8</title>
<g id="a_node8"><a xlink:title=" ">
<polygon fill="white" stroke="black" points="191,-167 191,-186 253,-186 253,-167 191,-167"/>
<text text-anchor="middle" x="222" y="-174" font-family="Helvetica,sans-Serif" font-size="10.00">JTextField</text>
</a>
</g>
</g>
<!-- Node8&#45;&gt;Node1 -->
<g id="edge8" class="edge">
<title>Node8&#45;&gt;Node1</title>
<path fill="none" stroke="#9a32cd" stroke-dasharray="5,2" d="M263.35,-172.79C301.86,-170.17 361.35,-168.53 412,-177.5 430.92,-180.85 451.13,-187.82 467.51,-194.4"/>
<polygon fill="#9a32cd" stroke="#9a32cd" points="262.79,-169.32 253.07,-173.55 263.3,-176.3 262.79,-169.32"/>
<text text-anchor="middle" x="368" y="-213.5" font-family="Helvetica,sans-Serif" font-size="10.00"> txtChartPointSize</text>
<text text-anchor="middle" x="368" y="-202.5" font-family="Helvetica,sans-Serif" font-size="10.00">txtGraphNodeSize</text>
<text text-anchor="middle" x="368" y="-191.5" font-family="Helvetica,sans-Serif" font-size="10.00">txtGraphTxtSize</text>
<text text-anchor="middle" x="368" y="-180.5" font-family="Helvetica,sans-Serif" font-size="10.00">txtTmpSpace</text>
</g>
<!-- Node9 -->
<g id="node9" class="node">
<title>Node9</title>
<g id="a_node9"><a xlink:title=" ">
<polygon fill="white" stroke="black" points="184.5,-126 184.5,-145 259.5,-145 259.5,-126 184.5,-126"/>
<text text-anchor="middle" x="222" y="-133" font-family="Helvetica,sans-Serif" font-size="10.00">JRadioButton</text>
</a>
</g>
</g>
<!-- Node9&#45;&gt;Node1 -->
<g id="edge9" class="edge">
<title>Node9&#45;&gt;Node1</title>
<path fill="none" stroke="#9a32cd" stroke-dasharray="5,2" d="M269.77,-130.4C308.91,-127.83 365.65,-128.15 412,-144.5 441.59,-154.94 469.79,-178.68 486.24,-194.39"/>
<polygon fill="#9a32cd" stroke="#9a32cd" points="269.43,-126.92 259.71,-131.15 269.95,-133.9 269.43,-126.92"/>
<text text-anchor="middle" x="368" y="-158.5" font-family="Helvetica,sans-Serif" font-size="10.00"> rcbEvoChartLegend</text>
<text text-anchor="middle" x="368" y="-147.5" font-family="Helvetica,sans-Serif" font-size="10.00">rcbMntChartLegend</text>
</g>
<!-- Node10 -->
<g id="node10" class="node">
<title>Node10</title>
<g id="a_node10"><a xlink:title=" ">
<polygon fill="white" stroke="black" points="173,-88 173,-107 271,-107 271,-88 173,-88"/>
<text text-anchor="middle" x="222" y="-95" font-family="Helvetica,sans-Serif" font-size="10.00">DefaultTableModel</text>
</a>
</g>
</g>
<!-- Node10&#45;&gt;Node1 -->
<g id="edge10" class="edge">
<title>Node10&#45;&gt;Node1</title>
<path fill="none" stroke="#9a32cd" stroke-dasharray="5,2" d="M281.44,-92.27C320.33,-91.25 371.5,-94.74 412,-114.5 448.77,-132.43 478.03,-172.5 492.03,-194.43"/>
<polygon fill="#9a32cd" stroke="#9a32cd" points="281.19,-88.78 271.33,-92.65 281.45,-95.77 281.19,-88.78"/>
<text text-anchor="middle" x="368" y="-117.5" font-family="Helvetica,sans-Serif" font-size="10.00"> tabModPropTags</text>
</g>
<!-- Node11 -->
<g id="node11" class="node">
<title>Node11</title>
<g id="a_node11"><a xlink:title=" ">
<polygon fill="white" stroke="black" points="199,-50 199,-69 245,-69 245,-50 199,-50"/>
<text text-anchor="middle" x="222" y="-57" font-family="Helvetica,sans-Serif" font-size="10.00">JTable</text>
</a>
</g>
</g>
<!-- Node11&#45;&gt;Node1 -->
<g id="edge11" class="edge">
<title>Node11&#45;&gt;Node1</title>
<path fill="none" stroke="#9a32cd" stroke-dasharray="5,2" d="M255.19,-54.9C294.97,-50.87 363.36,-49.54 412,-78.5 457.36,-105.51 484.74,-165.69 495.6,-194.1"/>
<polygon fill="#9a32cd" stroke="#9a32cd" points="254.79,-51.42 245.24,-56.02 255.57,-58.38 254.79,-51.42"/>
<text text-anchor="middle" x="368" y="-81.5" font-family="Helvetica,sans-Serif" font-size="10.00"> tabPropTags</text>
</g>
<!-- Node12 -->
<g id="node12" class="node">
<title>Node12</title>
<g id="a_node12"><a xlink:title=" ">
<polygon fill="white" stroke="black" points="138,-0.5 138,-30.5 306,-30.5 306,-0.5 138,-0.5"/>
<text text-anchor="start" x="146" y="-18.5" font-family="Helvetica,sans-Serif" font-size="10.00">JComboBox&lt; denoptim.gui.</text>
<text text-anchor="middle" x="222" y="-7.5" font-family="Helvetica,sans-Serif" font-size="10.00">GUIPreferences.SMITo3DEngine &gt;</text>
</a>
</g>
</g>
<!-- Node12&#45;&gt;Node1 -->
<g id="edge13" class="edge">
<title>Node12&#45;&gt;Node1</title>
<path fill="none" stroke="#9a32cd" stroke-dasharray="5,2" d="M316.3,-9.64C349,-11.82 384.42,-19.39 412,-38.5 467.15,-76.72 490.51,-159.96 498.04,-194.26"/>
<polygon fill="#9a32cd" stroke="#9a32cd" points="316.41,-6.14 306.24,-9.13 316.05,-13.13 316.41,-6.14"/>
<text text-anchor="middle" x="368" y="-41.5" font-family="Helvetica,sans-Serif" font-size="10.00"> cmbSMILESTo3D</text>
</g>
</g>
</svg>
        <g id="navigator" transform="translate(0 0)" fill="#404254">
                <rect fill="#f2f5e9" fill-opacity="0.5" stroke="#606060" stroke-width=".5" x="0" y="0" width="60" height="60"/>
                <use id="zoomplus" xlink:href="#zoomPlus" x="17" y="9" onmousedown="handleZoom(evt,'in')"/>
                <use id="zoomminus" xlink:href="#zoomMin" x="42" y="9" onmousedown="handleZoom(evt,'out')"/>
                <use id="reset" xlink:href="#resetDef" x="30" y="36" onmousedown="handleReset()"/>
                <g id="arrowUp" xlink:href="#dirArrow" transform="translate(30 24)" onmousedown="handlePan(0,-1)">
                  <use xlink:href="#rim" fill="#404040">
                        <set attributeName="fill" to="#808080" begin="arrowUp.mouseover" end="arrowUp.mouseout"/>
                  </use>
                  <path fill="none" stroke="white" stroke-width="1.5" d="M0,-3.0v7 M-2.5,-0.5L0,-3.0L2.5,-0.5"/>
                </g>
                <g id="arrowRight" xlink:href="#dirArrow" transform="rotate(90) translate(36 -43)" onmousedown="handlePan(1,0)">
                  <use xlink:href="#rim" fill="#404040">
                        <set attributeName="fill" to="#808080" begin="arrowRight.mouseover" end="arrowRight.mouseout"/>
                  </use>
                  <path fill="none" stroke="white" stroke-width="1.5" d="M0,-3.0v7 M-2.5,-0.5L0,-3.0L2.5,-0.5"/>
                </g>
                <g id="arrowDown" xlink:href="#dirArrow" transform="rotate(180) translate(-30 -48)" onmousedown="handlePan(0,1)">
                  <use xlink:href="#rim" fill="#404040">
                        <set attributeName="fill" to="#808080" begin="arrowDown.mouseover" end="arrowDown.mouseout"/>
                  </use>
                  <path fill="none" stroke="white" stroke-width="1.5" d="M0,-3.0v7 M-2.5,-0.5L0,-3.0L2.5,-0.5"/>
                </g>
                <g id="arrowLeft" xlink:href="#dirArrow" transform="rotate(270) translate(-36 17)" onmousedown="handlePan(-1,0)">
                  <use xlink:href="#rim" fill="#404040">
                        <set attributeName="fill" to="#808080" begin="arrowLeft.mouseover" end="arrowLeft.mouseout"/>
                  </use>
                  <path fill="none" stroke="white" stroke-width="1.5" d="M0,-3.0v7 M-2.5,-0.5L0,-3.0L2.5,-0.5"/>
                </g>
        </g>
        <svg viewBox="0 0 15 15" width="100%" height="30px" preserveAspectRatio="xMaxYMin meet">
         <g id="arrow_out" transform="scale(0.3 0.3)">
          <a xlink:href="classdenoptim_1_1gui_1_1_g_u_i_preferences_dialog__coll__graph_org.svg" target="_base">
           <rect id="button" ry="5" rx="5" y="6" x="6" height="38" width="38"
                fill="#f2f5e9" fill-opacity="0.5" stroke="#606060" stroke-width="1.0"/>
           <path id="arrow"
             d="M 11.500037,31.436501 C 11.940474,20.09759 22.043105,11.32322 32.158766,21.979434 L 37.068811,17.246167 C 37.068811,17.246167 37.088388,32 37.088388,32 L 22.160133,31.978069 C 22.160133,31.978069 26.997745,27.140456 26.997745,27.140456 C 18.528582,18.264221 13.291696,25.230495 11.500037,31.436501 z"
             style="fill:#404040;"/>
          </a>
         </g>
        </svg>
</svg>
