<?xml version="1.0" encoding="UTF-8" standalone="no"?>
<!DOCTYPE svg PUBLIC "-//W3C//DTD SVG 1.1//EN"
 "http://www.w3.org/Graphics/SVG/1.1/DTD/svg11.dtd">
<!-- Generated by graphviz version 3.0.0 (20221109.1736)
 -->
<!-- Title: denoptim.gui.FragmentViewPanel.loadPlainStructure Pages: 1 -->
<svg width="1403pt" height="88pt"
 viewBox="0.00 0.00 1403.00 88.00" xmlns="http://www.w3.org/2000/svg" xmlns:xlink="http://www.w3.org/1999/xlink">
<g id="graph0" class="graph" transform="scale(1 1) rotate(0) translate(4 84)">
<title>denoptim.gui.FragmentViewPanel.loadPlainStructure</title>
<polygon fill="white" stroke="transparent" points="-4,4 -4,-84 1399,-84 1399,4 -4,4"/>
<!-- Node1 -->
<g id="node1" class="node">
<title>Node1</title>
<g id="a_node1"><a xlink:title="Loads a structure in the Jmol viewer.">
<polygon fill="#bfbfbf" stroke="black" points="1258,-24.5 1258,-54.5 1395,-54.5 1395,-24.5 1258,-24.5"/>
<text text-anchor="start" x="1266" y="-42.5" font-family="Helvetica,sans-Serif" font-size="10.00">denoptim.gui.FragmentView</text>
<text text-anchor="middle" x="1326.5" y="-31.5" font-family="Helvetica,sans-Serif" font-size="10.00">Panel.loadPlainStructure</text>
</a>
</g>
</g>
<!-- Node2 -->
<g id="node2" class="node">
<title>Node2</title>
<g id="a_node2"><a xlink:href="classdenoptim_1_1gui_1_1_vertex_view_panel.html#a7983febd6e01ce496325abd36203b3b0" target="_top" xlink:title="Loads a structure in the Jmol viewer.">
<polygon fill="white" stroke="black" points="1054,-49.5 1054,-79.5 1222,-79.5 1222,-49.5 1054,-49.5"/>
<text text-anchor="start" x="1062" y="-67.5" font-family="Helvetica,sans-Serif" font-size="10.00">denoptim.gui.VertexViewPanel.load</text>
<text text-anchor="middle" x="1138" y="-56.5" font-family="Helvetica,sans-Serif" font-size="10.00">PlainStructure</text>
</a>
</g>
</g>
<!-- Node1&#45;&gt;Node2 -->
<g id="edge1" class="edge">
<title>Node1&#45;&gt;Node2</title>
<path fill="none" stroke="midnightblue" d="M1247.75,-49.92C1239.33,-51.05 1230.75,-52.2 1222.27,-53.34"/>
<polygon fill="midnightblue" stroke="midnightblue" points="1248.46,-53.36 1257.91,-48.56 1247.53,-46.42 1248.46,-53.36"/>
</g>
<!-- Node6 -->
<g id="node6" class="node">
<title>Node6</title>
<g id="a_node6"><a xlink:href="classdenoptim_1_1gui_1_1_fragment_view_panel.html#a208bb82cc9e83c541c42345ba46c084b" target="_top" xlink:title=" ">
<polygon fill="white" stroke="black" points="1056,-0.5 1056,-30.5 1220,-30.5 1220,-0.5 1056,-0.5"/>
<text text-anchor="start" x="1064" y="-18.5" font-family="Helvetica,sans-Serif" font-size="10.00">denoptim.gui.FragmentView</text>
<text text-anchor="middle" x="1138" y="-7.5" font-family="Helvetica,sans-Serif" font-size="10.00">Panel.make3DusingCDKgenerator</text>
</a>
</g>
</g>
<!-- Node1&#45;&gt;Node6 -->
<g id="edge5" class="edge">
<title>Node1&#45;&gt;Node6</title>
<path fill="none" stroke="midnightblue" d="M1247.98,-29.52C1238.75,-28.34 1229.3,-27.12 1220.02,-25.93"/>
<polygon fill="midnightblue" stroke="midnightblue" points="1247.54,-33 1257.91,-30.8 1248.43,-26.05 1247.54,-33"/>
</g>
<!-- Node3 -->
<g id="node3" class="node">
<title>Node3</title>
<g id="a_node3"><a xlink:href="classdenoptim_1_1gui_1_1_g_u_i_vertex_inspector.html#a7e833ba52549966556cc1bd1852dcfa4" target="_top" xlink:title=" ">
<polygon fill="white" stroke="black" points="656,-49.5 656,-79.5 845,-79.5 845,-49.5 656,-49.5"/>
<text text-anchor="start" x="664" y="-67.5" font-family="Helvetica,sans-Serif" font-size="10.00">denoptim.gui.GUIVertexInspector.import</text>
<text text-anchor="middle" x="750.5" y="-56.5" font-family="Helvetica,sans-Serif" font-size="10.00">StructureFromFile</text>
</a>
</g>
</g>
<!-- Node2&#45;&gt;Node3 -->
<g id="edge2" class="edge">
<title>Node2&#45;&gt;Node3</title>
<path fill="none" stroke="midnightblue" d="M1043.56,-64.5C983.31,-64.5 905.27,-64.5 845.01,-64.5"/>
<polygon fill="midnightblue" stroke="midnightblue" points="1043.83,-68 1053.83,-64.5 1043.83,-61 1043.83,-68"/>
</g>
<!-- Node4 -->
<g id="node4" class="node">
<title>Node4</title>
<g id="a_node4"><a xlink:href="classdenoptim_1_1gui_1_1_g_u_i_vertex_inspector.html#acadecc92299a7ea46113c06382a1f333" target="_top" xlink:title="Initialize the panel and add buttons.">
<polygon fill="white" stroke="black" points="198,-30 198,-49 395,-49 395,-30 198,-30"/>
<text text-anchor="middle" x="296.5" y="-37" font-family="Helvetica,sans-Serif" font-size="10.00">denoptim.gui.GUIVertexInspector.initialize</text>
</a>
</g>
</g>
<!-- Node3&#45;&gt;Node4 -->
<g id="edge3" class="edge">
<title>Node3&#45;&gt;Node4</title>
<path fill="none" stroke="midnightblue" d="M645.4,-58.74C570.13,-54.58 469.12,-48.99 395.33,-44.91"/>
<polygon fill="midnightblue" stroke="midnightblue" points="645.67,-62.26 655.85,-59.32 646.05,-55.27 645.67,-62.26"/>
</g>
<!-- Node5 -->
<g id="node5" class="node">
<title>Node5</title>
<g id="a_node5"><a xlink:href="classdenoptim_1_1gui_1_1_g_u_i_vertex_inspector.html#abc5d3c33ad9b2b114ce43e9b2cd577bb" target="_top" xlink:title="Constructor.">
<polygon fill="white" stroke="black" points="0,-24.5 0,-54.5 162,-54.5 162,-24.5 0,-24.5"/>
<text text-anchor="start" x="8" y="-42.5" font-family="Helvetica,sans-Serif" font-size="10.00">denoptim.gui.GUIVertexInspector.</text>
<text text-anchor="middle" x="81" y="-31.5" font-family="Helvetica,sans-Serif" font-size="10.00">GUIVertexInspector</text>
</a>
</g>
</g>
<!-- Node4&#45;&gt;Node5 -->
<g id="edge4" class="edge">
<title>Node4&#45;&gt;Node5</title>
<path fill="none" stroke="midnightblue" d="M187.69,-39.5C179.06,-39.5 170.44,-39.5 162.05,-39.5"/>
<polygon fill="midnightblue" stroke="midnightblue" points="187.81,-43 197.81,-39.5 187.81,-36 187.81,-43"/>
</g>
<!-- Node7 -->
<g id="node7" class="node">
<title>Node7</title>
<g id="a_node7"><a xlink:href="classdenoptim_1_1gui_1_1_fragment_view_panel.html#a4e986670257e51a91dcf4aa090043427" target="_top" xlink:title="Loads a molecule build from a smiles string.">
<polygon fill="white" stroke="black" points="881,-0.5 881,-30.5 1018,-30.5 1018,-0.5 881,-0.5"/>
<text text-anchor="start" x="889" y="-18.5" font-family="Helvetica,sans-Serif" font-size="10.00">denoptim.gui.FragmentView</text>
<text text-anchor="middle" x="949.5" y="-7.5" font-family="Helvetica,sans-Serif" font-size="10.00">Panel.loadSMILES</text>
</a>
</g>
</g>
<!-- Node6&#45;&gt;Node7 -->
<g id="edge6" class="edge">
<title>Node6&#45;&gt;Node7</title>
<path fill="none" stroke="midnightblue" d="M1045.68,-15.5C1036.39,-15.5 1027.07,-15.5 1018.09,-15.5"/>
<polygon fill="midnightblue" stroke="midnightblue" points="1045.74,-19 1055.74,-15.5 1045.74,-12 1045.74,-19"/>
</g>
<!-- Node8 -->
<g id="node8" class="node">
<title>Node8</title>
<g id="a_node8"><a xlink:href="classdenoptim_1_1gui_1_1_vertex_view_panel.html#aa5e4bcd31e5652e33beb4c8b54908cda" target="_top" xlink:title="Loads a molecule build from a smiles string.">
<polygon fill="white" stroke="black" points="666.5,-0.5 666.5,-30.5 834.5,-30.5 834.5,-0.5 666.5,-0.5"/>
<text text-anchor="start" x="674.5" y="-18.5" font-family="Helvetica,sans-Serif" font-size="10.00">denoptim.gui.VertexViewPanel.load</text>
<text text-anchor="middle" x="750.5" y="-7.5" font-family="Helvetica,sans-Serif" font-size="10.00">SMILES</text>
</a>
</g>
</g>
<!-- Node7&#45;&gt;Node8 -->
<g id="edge7" class="edge">
<title>Node7&#45;&gt;Node8</title>
<path fill="none" stroke="midnightblue" d="M870.69,-15.5C858.84,-15.5 846.57,-15.5 834.61,-15.5"/>
<polygon fill="midnightblue" stroke="midnightblue" points="870.98,-19 880.98,-15.5 870.98,-12 870.98,-19"/>
</g>
<!-- Node9 -->
<g id="node9" class="node">
<title>Node9</title>
<g id="a_node9"><a xlink:href="classdenoptim_1_1gui_1_1_g_u_i_vertex_inspector.html#a530b2f509d3e15fd285526a34461cc9e" target="_top" xlink:title="Imports the given SMILES into the viewer.">
<polygon fill="white" stroke="black" points="431,-2.5 431,-32.5 620,-32.5 620,-2.5 431,-2.5"/>
<text text-anchor="start" x="439" y="-20.5" font-family="Helvetica,sans-Serif" font-size="10.00">denoptim.gui.GUIVertexInspector.import</text>
<text text-anchor="middle" x="525.5" y="-9.5" font-family="Helvetica,sans-Serif" font-size="10.00">StructureFromSMILES</text>
</a>
</g>
</g>
<!-- Node8&#45;&gt;Node9 -->
<g id="edge8" class="edge">
<title>Node8&#45;&gt;Node9</title>
<path fill="none" stroke="midnightblue" d="M656.45,-16.33C644.44,-16.44 632.13,-16.55 620.11,-16.66"/>
<polygon fill="midnightblue" stroke="midnightblue" points="656.49,-19.83 666.46,-16.24 656.43,-12.83 656.49,-19.83"/>
</g>
<!-- Node9&#45;&gt;Node4 -->
<g id="edge9" class="edge">
<title>Node9&#45;&gt;Node4</title>
<path fill="none" stroke="midnightblue" d="M420.63,-27.57C412.21,-28.38 403.71,-29.21 395.33,-30.02"/>
<polygon fill="midnightblue" stroke="midnightblue" points="421.24,-31.02 430.86,-26.58 420.57,-24.06 421.24,-31.02"/>
</g>
</g>
</svg>
