<?xml version="1.0" encoding="UTF-8" standalone="no"?>
<!DOCTYPE svg PUBLIC "-//W3C//DTD SVG 1.1//EN"
 "http://www.w3.org/Graphics/SVG/1.1/DTD/svg11.dtd">
<!-- Generated by graphviz version 3.0.0 (20221109.1736)
 -->
<!-- Title: denoptim.programs.RunTimeParameters.getVerbosity Pages: 1 -->
<svg width="804pt" height="99pt"
 viewBox="0.00 0.00 804.00 99.00" xmlns="http://www.w3.org/2000/svg" xmlns:xlink="http://www.w3.org/1999/xlink">
<g id="graph0" class="graph" transform="scale(1 1) rotate(0) translate(4 95)">
<title>denoptim.programs.RunTimeParameters.getVerbosity</title>
<polygon fill="white" stroke="transparent" points="-4,4 -4,-95 800,-95 800,4 -4,4"/>
<!-- Node1 -->
<g id="node1" class="node">
<title>Node1</title>
<g id="a_node1"><a xlink:title="Returns the level of verbosity, i.e., the amount of log that we want to print.">
<polygon fill="#bfbfbf" stroke="black" points="656,-30 656,-60 796,-60 796,-30 656,-30"/>
<text text-anchor="start" x="664" y="-48" font-family="Helvetica,sans-Serif" font-size="10.00">denoptim.programs.RunTime</text>
<text text-anchor="middle" x="726" y="-37" font-family="Helvetica,sans-Serif" font-size="10.00">Parameters.getVerbosity</text>
</a>
</g>
</g>
<!-- Node2 -->
<g id="node2" class="node">
<title>Node2</title>
<g id="a_node2"><a xlink:href="classdenoptim_1_1combinatorial_1_1_combinatorial_explorer_by_layer.html#a8f359a45038dc604a5e437d63a35e1a2" target="_top" xlink:title="Constructor.">
<polygon fill="white" stroke="black" points="0,-49.5 0,-90.5 182,-90.5 182,-49.5 0,-49.5"/>
<text text-anchor="start" x="8" y="-78.5" font-family="Helvetica,sans-Serif" font-size="10.00">denoptim.combinatorial.Combinatorial</text>
<text text-anchor="start" x="8" y="-67.5" font-family="Helvetica,sans-Serif" font-size="10.00">ExplorerByLayer.CombinatorialExplorer</text>
<text text-anchor="middle" x="91" y="-56.5" font-family="Helvetica,sans-Serif" font-size="10.00">ByLayer</text>
</a>
</g>
</g>
<!-- Node1&#45;&gt;Node2 -->
<g id="edge1" class="edge">
<title>Node1&#45;&gt;Node2</title>
<path fill="none" stroke="midnightblue" d="M645.68,-49.71C637.02,-50.17 628.32,-50.61 620,-51 466.3,-58.16 287.31,-64.09 182.18,-67.33"/>
<polygon fill="midnightblue" stroke="midnightblue" points="646.03,-53.2 655.82,-49.16 645.65,-46.21 646.03,-53.2"/>
</g>
<!-- Node3 -->
<g id="node3" class="node">
<title>Node3</title>
<g id="a_node3"><a xlink:href="classdenoptim_1_1combinatorial_1_1_combinatorial_explorer_by_layer.html#adcd462866e3f9d6a2a6ef0385807807e" target="_top" xlink:title="Generate graphs by exploring all combination of fragments at a given level of a growing graph.">
<polygon fill="white" stroke="black" points="432,-0.5 432,-41.5 620,-41.5 620,-0.5 432,-0.5"/>
<text text-anchor="start" x="440" y="-29.5" font-family="Helvetica,sans-Serif" font-size="10.00">denoptim.combinatorial.Combinatorial</text>
<text text-anchor="start" x="440" y="-18.5" font-family="Helvetica,sans-Serif" font-size="10.00">ExplorerByLayer.exploreCombinationsAt</text>
<text text-anchor="middle" x="526" y="-7.5" font-family="Helvetica,sans-Serif" font-size="10.00">GivenLevel</text>
</a>
</g>
</g>
<!-- Node1&#45;&gt;Node3 -->
<g id="edge2" class="edge">
<title>Node1&#45;&gt;Node3</title>
<path fill="none" stroke="midnightblue" d="M645.66,-35.38C637.29,-34.37 628.73,-33.33 620.22,-32.3"/>
<polygon fill="midnightblue" stroke="midnightblue" points="645.4,-38.88 655.75,-36.61 646.24,-31.93 645.4,-38.88"/>
</g>
<!-- Node4 -->
<g id="node4" class="node">
<title>Node4</title>
<g id="a_node4"><a xlink:href="classdenoptim_1_1combinatorial_1_1_combinatorial_explorer_by_layer.html#af9327fa81f9e2a617cdff353848ad6e1" target="_top" xlink:title="Run the combinatorial exploration.">
<polygon fill="white" stroke="black" points="218,-6 218,-36 396,-36 396,-6 218,-6"/>
<text text-anchor="start" x="226" y="-24" font-family="Helvetica,sans-Serif" font-size="10.00">denoptim.combinatorial.Combinatorial</text>
<text text-anchor="middle" x="307" y="-13" font-family="Helvetica,sans-Serif" font-size="10.00">ExplorerByLayer.run</text>
</a>
</g>
</g>
<!-- Node3&#45;&gt;Node4 -->
<g id="edge3" class="edge">
<title>Node3&#45;&gt;Node4</title>
<path fill="none" stroke="midnightblue" d="M421.68,-21C413.11,-21 404.5,-21 396.06,-21"/>
<polygon fill="midnightblue" stroke="midnightblue" points="421.71,-24.5 431.71,-21 421.71,-17.5 421.71,-24.5"/>
</g>
<!-- Node4&#45;&gt;Node2 -->
<g id="edge4" class="edge">
<title>Node4&#45;&gt;Node2</title>
<path fill="none" stroke="midnightblue" d="M230.16,-38.36C214.44,-41.96 197.73,-45.79 181.57,-49.49"/>
<polygon fill="midnightblue" stroke="midnightblue" points="231.37,-41.68 240.34,-36.03 229.81,-34.85 231.37,-41.68"/>
</g>
<!-- Node5 -->
<g id="node5" class="node">
<title>Node5</title>
<g id="a_node5"><a xlink:href="classdenoptim_1_1programs_1_1combinatorial_1_1_frag_space_explorer.html#a1c6a2aae9ab686d5c7c0fc6246f7aa61" target="_top" xlink:title=" ">
<polygon fill="white" stroke="black" points="10.5,-1 10.5,-31 171.5,-31 171.5,-1 10.5,-1"/>
<text text-anchor="start" x="18.5" y="-19" font-family="Helvetica,sans-Serif" font-size="10.00">denoptim.programs.combinatorial.</text>
<text text-anchor="middle" x="91" y="-8" font-family="Helvetica,sans-Serif" font-size="10.00">FragSpaceExplorer.runProgram</text>
</a>
</g>
</g>
<!-- Node4&#45;&gt;Node5 -->
<g id="edge5" class="edge">
<title>Node4&#45;&gt;Node5</title>
<path fill="none" stroke="midnightblue" d="M207.61,-18.7C195.52,-18.42 183.27,-18.13 171.51,-17.86"/>
<polygon fill="midnightblue" stroke="midnightblue" points="207.64,-22.2 217.72,-18.94 207.81,-15.2 207.64,-22.2"/>
</g>
</g>
</svg>
