<?xml version="1.0" encoding="UTF-8" standalone="no"?>
<!DOCTYPE svg PUBLIC "-//W3C//DTD SVG 1.1//EN"
 "http://www.w3.org/Graphics/SVG/1.1/DTD/svg11.dtd">
<!-- Generated by graphviz version 3.0.0 (20221109.1736)
 -->
<!-- Title: denoptim.fragmenter.DynamicCentroidCluster.getPoints Pages: 1 -->
<svg width="1358pt" height="261pt"
 viewBox="0.00 0.00 1358.00 261.00" xmlns="http://www.w3.org/2000/svg" xmlns:xlink="http://www.w3.org/1999/xlink">
<g id="graph0" class="graph" transform="scale(1 1) rotate(0) translate(4 257)">
<title>denoptim.fragmenter.DynamicCentroidCluster.getPoints</title>
<polygon fill="white" stroke="transparent" points="-4,4 -4,-257 1354,-257 1354,4 -4,4"/>
<!-- Node1 -->
<g id="node1" class="node">
<title>Node1</title>
<g id="a_node1"><a xlink:title="Get the points contained in the cluster.">
<polygon fill="#bfbfbf" stroke="black" points="1205,-148.5 1205,-178.5 1350,-178.5 1350,-148.5 1205,-148.5"/>
<text text-anchor="start" x="1213" y="-166.5" font-family="Helvetica,sans-Serif" font-size="10.00">denoptim.fragmenter.Dynamic</text>
<text text-anchor="middle" x="1277.5" y="-155.5" font-family="Helvetica,sans-Serif" font-size="10.00">CentroidCluster.getPoints</text>
</a>
</g>
</g>
<!-- Node2 -->
<g id="node2" class="node">
<title>Node2</title>
<g id="a_node2"><a xlink:href="classdenoptim_1_1fragmenter_1_1_dynamic_centroid_cluster.html#a02ff66aa7ed756b8272fd82694e01293" target="_top" xlink:title="Get the point chosen to be the centroid of this cluster.">
<polygon fill="white" stroke="black" points="1024,-171.5 1024,-201.5 1169,-201.5 1169,-171.5 1024,-171.5"/>
<text text-anchor="start" x="1032" y="-189.5" font-family="Helvetica,sans-Serif" font-size="10.00">denoptim.fragmenter.Dynamic</text>
<text text-anchor="middle" x="1096.5" y="-178.5" font-family="Helvetica,sans-Serif" font-size="10.00">CentroidCluster.getCentroid</text>
</a>
</g>
</g>
<!-- Node1&#45;&gt;Node2 -->
<g id="edge1" class="edge">
<title>Node1&#45;&gt;Node2</title>
<path fill="none" stroke="midnightblue" d="M1194.96,-173.98C1186.36,-175.08 1177.67,-176.2 1169.2,-177.29"/>
<polygon fill="midnightblue" stroke="midnightblue" points="1195.51,-177.44 1204.98,-172.69 1194.62,-170.49 1195.51,-177.44"/>
</g>
<!-- Node5 -->
<g id="node5" class="node">
<title>Node5</title>
<g id="a_node5"><a xlink:href="classdenoptim_1_1fragmenter_1_1_fragment_clusterer.html#a726885b85d9bce4b147f273a1f9e92f4" target="_top" xlink:title=" ">
<polygon fill="white" stroke="black" points="823,-124.5 823,-154.5 972,-154.5 972,-124.5 823,-124.5"/>
<text text-anchor="start" x="831" y="-142.5" font-family="Helvetica,sans-Serif" font-size="10.00">denoptim.fragmenter.Fragment</text>
<text text-anchor="middle" x="897.5" y="-131.5" font-family="Helvetica,sans-Serif" font-size="10.00">Clusterer.mergeClusters</text>
</a>
</g>
</g>
<!-- Node1&#45;&gt;Node5 -->
<g id="edge20" class="edge">
<title>Node1&#45;&gt;Node5</title>
<path fill="none" stroke="midnightblue" d="M1194.97,-158.32C1128.69,-154.12 1036.02,-148.23 972.01,-144.17"/>
<polygon fill="midnightblue" stroke="midnightblue" points="1194.75,-161.82 1204.96,-158.96 1195.2,-154.83 1194.75,-161.82"/>
</g>
<!-- Node3 -->
<g id="node3" class="node">
<title>Node3</title>
<g id="a_node3"><a xlink:href="classdenoptim_1_1fragmenter_1_1_dynamic_centroid_cluster.html#a3c880a07fe0dc88b2efbd1c97205acab" target="_top" xlink:title="Gets the original data that upon clustering is closest to the cluster centroid according to the given...">
<polygon fill="white" stroke="black" points="807,-173.5 807,-203.5 988,-203.5 988,-173.5 807,-173.5"/>
<text text-anchor="start" x="815" y="-191.5" font-family="Helvetica,sans-Serif" font-size="10.00">denoptim.fragmenter.Dynamic</text>
<text text-anchor="middle" x="897.5" y="-180.5" font-family="Helvetica,sans-Serif" font-size="10.00">CentroidCluster.getNearestToCentroid</text>
</a>
</g>
</g>
<!-- Node2&#45;&gt;Node3 -->
<g id="edge2" class="edge">
<title>Node2&#45;&gt;Node3</title>
<path fill="none" stroke="midnightblue" d="M1013.69,-187.33C1005.3,-187.42 996.74,-187.5 988.27,-187.59"/>
<polygon fill="midnightblue" stroke="midnightblue" points="1013.86,-190.83 1023.82,-187.23 1013.79,-183.83 1013.86,-190.83"/>
</g>
<!-- Node2&#45;&gt;Node5 -->
<g id="edge4" class="edge">
<title>Node2&#45;&gt;Node5</title>
<path fill="none" stroke="midnightblue" d="M1022.87,-169.17C1002.72,-164.36 981.01,-159.18 961.45,-154.52"/>
<polygon fill="midnightblue" stroke="midnightblue" points="1022.09,-172.58 1032.63,-171.5 1023.71,-165.77 1022.09,-172.58"/>
</g>
<!-- Node14 -->
<g id="node14" class="node">
<title>Node14</title>
<g id="a_node14"><a xlink:href="classdenoptim_1_1fragmenter_1_1_dynamic_centroid_cluster_test.html#aafed3e3048038cfe0a17feeb5d728a13" target="_top" xlink:title=" ">
<polygon fill="white" stroke="black" points="811,-222.5 811,-252.5 984,-252.5 984,-222.5 811,-222.5"/>
<text text-anchor="start" x="819" y="-240.5" font-family="Helvetica,sans-Serif" font-size="10.00">denoptim.fragmenter.Dynamic</text>
<text text-anchor="middle" x="897.5" y="-229.5" font-family="Helvetica,sans-Serif" font-size="10.00">CentroidClusterTest.testGetCentroid</text>
</a>
</g>
</g>
<!-- Node2&#45;&gt;Node14 -->
<g id="edge19" class="edge">
<title>Node2&#45;&gt;Node14</title>
<path fill="none" stroke="midnightblue" d="M1027.69,-204.05C1004.51,-210.06 978.8,-216.71 956.47,-222.49"/>
<polygon fill="midnightblue" stroke="midnightblue" points="1028.66,-207.42 1037.46,-201.53 1026.9,-200.64 1028.66,-207.42"/>
</g>
<!-- Node4 -->
<g id="node4" class="node">
<title>Node4</title>
<g id="a_node4"><a xlink:href="classdenoptim_1_1fragmenter_1_1_dynamic_centroid_cluster_test.html#a8e2fd50e0c8a9163b1a831baa3976935" target="_top" xlink:title=" ">
<polygon fill="white" stroke="black" points="599,-180 599,-221 771,-221 771,-180 599,-180"/>
<text text-anchor="start" x="607" y="-209" font-family="Helvetica,sans-Serif" font-size="10.00">denoptim.fragmenter.Dynamic</text>
<text text-anchor="start" x="607" y="-198" font-family="Helvetica,sans-Serif" font-size="10.00">CentroidClusterTest.testGetNearest</text>
<text text-anchor="middle" x="685" y="-187" font-family="Helvetica,sans-Serif" font-size="10.00">ToCentroid</text>
</a>
</g>
</g>
<!-- Node3&#45;&gt;Node4 -->
<g id="edge3" class="edge">
<title>Node3&#45;&gt;Node4</title>
<path fill="none" stroke="midnightblue" d="M796.87,-194.18C788.27,-194.67 779.62,-195.16 771.15,-195.65"/>
<polygon fill="midnightblue" stroke="midnightblue" points="797.14,-197.67 806.92,-193.61 796.74,-190.68 797.14,-197.67"/>
</g>
<!-- Node6 -->
<g id="node6" class="node">
<title>Node6</title>
<g id="a_node6"><a xlink:href="classdenoptim_1_1fragmenter_1_1_fragment_clusterer.html#a635a9135bdb762deafd03ff2913ca74c" target="_top" xlink:title="Runs the clustering algorithm:">
<polygon fill="white" stroke="black" points="610.5,-112.5 610.5,-142.5 759.5,-142.5 759.5,-112.5 610.5,-112.5"/>
<text text-anchor="start" x="618.5" y="-130.5" font-family="Helvetica,sans-Serif" font-size="10.00">denoptim.fragmenter.Fragment</text>
<text text-anchor="middle" x="685" y="-119.5" font-family="Helvetica,sans-Serif" font-size="10.00">Clusterer.cluster</text>
</a>
</g>
</g>
<!-- Node5&#45;&gt;Node6 -->
<g id="edge5" class="edge">
<title>Node5&#45;&gt;Node6</title>
<path fill="none" stroke="midnightblue" d="M812.66,-134.72C795.1,-133.72 776.72,-132.67 759.58,-131.69"/>
<polygon fill="midnightblue" stroke="midnightblue" points="812.69,-138.23 822.88,-135.3 813.09,-131.24 812.69,-138.23"/>
</g>
<!-- Node6&#45;&gt;Node6 -->
<g id="edge8" class="edge">
<title>Node6&#45;&gt;Node6</title>
<path fill="none" stroke="midnightblue" d="M722.67,-152.96C717.99,-157.68 705.44,-161 685,-161 651.46,-161 639.15,-152.06 648.05,-142.66"/>
<polygon fill="midnightblue" stroke="midnightblue" points="726.14,-152.39 721.95,-142.66 719.16,-152.88 726.14,-152.39"/>
</g>
<!-- Node7 -->
<g id="node7" class="node">
<title>Node7</title>
<g id="a_node7"><a xlink:href="classdenoptim_1_1fragmenter_1_1_conformer_extractor_task.html#aa21ebdf147f5bdb2685f9e775efd0b10" target="_top" xlink:title=" ">
<polygon fill="white" stroke="black" points="186,-161.5 186,-191.5 338,-191.5 338,-161.5 186,-161.5"/>
<text text-anchor="start" x="194" y="-179.5" font-family="Helvetica,sans-Serif" font-size="10.00">denoptim.fragmenter.Conformer</text>
<text text-anchor="middle" x="262" y="-168.5" font-family="Helvetica,sans-Serif" font-size="10.00">ExtractorTask.call</text>
</a>
</g>
</g>
<!-- Node6&#45;&gt;Node7 -->
<g id="edge6" class="edge">
<title>Node6&#45;&gt;Node7</title>
<path fill="none" stroke="midnightblue" d="M634.33,-147.18C621.97,-153.49 609.31,-161.27 599,-170.5 577.23,-189.98 588.7,-211.61 563,-225.5 472.24,-274.57 345.14,-220.11 290.14,-191.64"/>
<polygon fill="midnightblue" stroke="midnightblue" points="636.2,-150.16 643.68,-142.65 633.15,-143.86 636.2,-150.16"/>
</g>
<!-- Node9 -->
<g id="node9" class="node">
<title>Node9</title>
<g id="a_node9"><a xlink:href="classdenoptim_1_1fragmenter_1_1_fragment_clusterer.html#a1845241fead0bee7fd92feaf6d71e331" target="_top" xlink:title="Once the clustering is done, this method return the list of cluster centroids.">
<polygon fill="white" stroke="black" points="394,-137.5 394,-167.5 543,-167.5 543,-137.5 394,-137.5"/>
<text text-anchor="start" x="402" y="-155.5" font-family="Helvetica,sans-Serif" font-size="10.00">denoptim.fragmenter.Fragment</text>
<text text-anchor="middle" x="468.5" y="-144.5" font-family="Helvetica,sans-Serif" font-size="10.00">Clusterer.getClusterCentroids</text>
</a>
</g>
</g>
<!-- Node6&#45;&gt;Node9 -->
<g id="edge9" class="edge">
<title>Node6&#45;&gt;Node9</title>
<path fill="none" stroke="midnightblue" d="M600.43,-137.24C581.58,-139.44 561.7,-141.75 543.29,-143.9"/>
<polygon fill="midnightblue" stroke="midnightblue" points="600.95,-140.7 610.48,-136.07 600.14,-133.75 600.95,-140.7"/>
</g>
<!-- Node10 -->
<g id="node10" class="node">
<title>Node10</title>
<g id="a_node10"><a xlink:href="classdenoptim_1_1fragmenter_1_1_fragment_clusterer_test.html#aa17925160f3f03080e8680c7016fc1c4" target="_top" xlink:title=" ">
<polygon fill="white" stroke="black" points="187.5,-88.5 187.5,-118.5 336.5,-118.5 336.5,-88.5 187.5,-88.5"/>
<text text-anchor="start" x="195.5" y="-106.5" font-family="Helvetica,sans-Serif" font-size="10.00">denoptim.fragmenter.Fragment</text>
<text text-anchor="middle" x="262" y="-95.5" font-family="Helvetica,sans-Serif" font-size="10.00">ClustererTest.testCluster</text>
</a>
</g>
</g>
<!-- Node6&#45;&gt;Node10 -->
<g id="edge17" class="edge">
<title>Node6&#45;&gt;Node10</title>
<path fill="none" stroke="midnightblue" d="M646.45,-107.91C623.12,-96.87 592.13,-84.17 563,-78.5 480.55,-62.44 457.49,-69.21 374,-78.5 355.74,-80.53 336.1,-84.39 318.49,-88.47"/>
<polygon fill="midnightblue" stroke="midnightblue" points="645.1,-111.15 655.63,-112.36 648.15,-104.85 645.1,-111.15"/>
</g>
<!-- Node11 -->
<g id="node11" class="node">
<title>Node11</title>
<g id="a_node11"><a xlink:href="classdenoptim_1_1fragmenter_1_1_fragment_clusterer.html#aae37739ae959ab8a85bf01286c5a518e" target="_top" xlink:title="Once the clustering is done, this method return the list of fragments that are nearest to the respect...">
<polygon fill="white" stroke="black" points="374,-186.5 374,-216.5 563,-216.5 563,-186.5 374,-186.5"/>
<text text-anchor="start" x="382" y="-204.5" font-family="Helvetica,sans-Serif" font-size="10.00">denoptim.fragmenter.Fragment</text>
<text text-anchor="middle" x="468.5" y="-193.5" font-family="Helvetica,sans-Serif" font-size="10.00">Clusterer.getNearestToClusterCentroids</text>
</a>
</g>
</g>
<!-- Node6&#45;&gt;Node11 -->
<g id="edge12" class="edge">
<title>Node6&#45;&gt;Node11</title>
<path fill="none" stroke="midnightblue" d="M640.59,-146.6C617.75,-156.25 589.14,-167.75 563,-176.5 552.48,-180.02 541.18,-183.39 530.18,-186.45"/>
<polygon fill="midnightblue" stroke="midnightblue" points="642.17,-149.73 650,-142.58 639.43,-143.29 642.17,-149.73"/>
</g>
<!-- Node12 -->
<g id="node12" class="node">
<title>Node12</title>
<g id="a_node12"><a xlink:href="classdenoptim_1_1fragmenter_1_1_fragment_clusterer.html#afa43e74f7825a3f2cc22f11430bf5862" target="_top" xlink:title="Once the clustering is done, this method return the list of clusters.">
<polygon fill="white" stroke="black" points="387.5,-88.5 387.5,-118.5 549.5,-118.5 549.5,-88.5 387.5,-88.5"/>
<text text-anchor="start" x="395.5" y="-106.5" font-family="Helvetica,sans-Serif" font-size="10.00">denoptim.fragmenter.Fragment</text>
<text text-anchor="middle" x="468.5" y="-95.5" font-family="Helvetica,sans-Serif" font-size="10.00">Clusterer.getTransformedClusters</text>
</a>
</g>
</g>
<!-- Node6&#45;&gt;Node12 -->
<g id="edge14" class="edge">
<title>Node6&#45;&gt;Node12</title>
<path fill="none" stroke="midnightblue" d="M600.22,-118.13C583.54,-116.26 566.07,-114.31 549.53,-112.45"/>
<polygon fill="midnightblue" stroke="midnightblue" points="600.15,-121.64 610.48,-119.27 600.93,-114.68 600.15,-121.64"/>
</g>
<!-- Node13 -->
<g id="node13" class="node">
<title>Node13</title>
<g id="a_node13"><a xlink:href="classdenoptim_1_1fragmenter_1_1_fragment_clusterer_test.html#acb2fe702b9d02d39a38ca1cc732c9ee4" target="_top" xlink:title=" ">
<polygon fill="white" stroke="black" points="394,-0.5 394,-30.5 543,-30.5 543,-0.5 394,-0.5"/>
<text text-anchor="start" x="402" y="-18.5" font-family="Helvetica,sans-Serif" font-size="10.00">denoptim.fragmenter.Fragment</text>
<text text-anchor="middle" x="468.5" y="-7.5" font-family="Helvetica,sans-Serif" font-size="10.00">ClustererTest.testCluster2</text>
</a>
</g>
</g>
<!-- Node6&#45;&gt;Node13 -->
<g id="edge18" class="edge">
<title>Node6&#45;&gt;Node13</title>
<path fill="none" stroke="midnightblue" d="M657.21,-106.04C633.55,-87.92 597.55,-62.32 563,-45.5 551.2,-39.75 538.04,-34.75 525.4,-30.56"/>
<polygon fill="midnightblue" stroke="midnightblue" points="655.29,-108.99 665.34,-112.35 659.58,-103.45 655.29,-108.99"/>
</g>
<!-- Node8 -->
<g id="node8" class="node">
<title>Node8</title>
<g id="a_node8"><a xlink:href="classdenoptim_1_1programs_1_1fragmenter_1_1_fragmenter.html#aa27df9705e3aed34cc8cb8bc05e6ce85" target="_top" xlink:title=" ">
<polygon fill="white" stroke="black" points="0,-161.5 0,-191.5 150,-191.5 150,-161.5 0,-161.5"/>
<text text-anchor="start" x="8" y="-179.5" font-family="Helvetica,sans-Serif" font-size="10.00">denoptim.programs.fragmenter.</text>
<text text-anchor="middle" x="75" y="-168.5" font-family="Helvetica,sans-Serif" font-size="10.00">Fragmenter.runProgram</text>
</a>
</g>
</g>
<!-- Node7&#45;&gt;Node8 -->
<g id="edge7" class="edge">
<title>Node7&#45;&gt;Node8</title>
<path fill="none" stroke="midnightblue" d="M175.53,-176.5C167.1,-176.5 158.59,-176.5 150.28,-176.5"/>
<polygon fill="midnightblue" stroke="midnightblue" points="175.75,-180 185.75,-176.5 175.75,-173 175.75,-180"/>
</g>
<!-- Node9&#45;&gt;Node7 -->
<g id="edge10" class="edge">
<title>Node9&#45;&gt;Node7</title>
<path fill="none" stroke="midnightblue" d="M383.66,-162.34C368.64,-164.1 353.06,-165.93 338.3,-167.66"/>
<polygon fill="midnightblue" stroke="midnightblue" points="384.44,-165.77 393.96,-161.13 383.62,-158.82 384.44,-165.77"/>
</g>
<!-- Node9&#45;&gt;Node10 -->
<g id="edge11" class="edge">
<title>Node9&#45;&gt;Node10</title>
<path fill="none" stroke="midnightblue" d="M394.87,-135.1C372.24,-129.68 347.5,-123.75 325.63,-118.51"/>
<polygon fill="midnightblue" stroke="midnightblue" points="394.21,-138.54 404.75,-137.47 395.84,-131.73 394.21,-138.54"/>
</g>
<!-- Node11&#45;&gt;Node7 -->
<g id="edge13" class="edge">
<title>Node11&#45;&gt;Node7</title>
<path fill="none" stroke="midnightblue" d="M363.79,-188.82C355.14,-187.76 346.51,-186.71 338.14,-185.69"/>
<polygon fill="midnightblue" stroke="midnightblue" points="363.58,-192.32 373.93,-190.06 364.43,-185.37 363.58,-192.32"/>
</g>
<!-- Node12&#45;&gt;Node7 -->
<g id="edge15" class="edge">
<title>Node12&#45;&gt;Node7</title>
<path fill="none" stroke="midnightblue" d="M393.48,-121.29C386.85,-123.25 380.28,-125.33 374,-127.5 346.13,-137.15 315.55,-150.9 293.55,-161.38"/>
<polygon fill="midnightblue" stroke="midnightblue" points="394.55,-124.63 403.21,-118.51 392.63,-117.9 394.55,-124.63"/>
</g>
<!-- Node12&#45;&gt;Node10 -->
<g id="edge16" class="edge">
<title>Node12&#45;&gt;Node10</title>
<path fill="none" stroke="midnightblue" d="M377.02,-103.5C363.53,-103.5 349.76,-103.5 336.67,-103.5"/>
<polygon fill="midnightblue" stroke="midnightblue" points="377.26,-107 387.26,-103.5 377.26,-100 377.26,-107"/>
</g>
</g>
</svg>
