<?xml version="1.0" encoding="UTF-8" standalone="no"?>
<!DOCTYPE svg PUBLIC "-//W3C//DTD SVG 1.1//EN"
 "http://www.w3.org/Graphics/SVG/1.1/DTD/svg11.dtd">
<!-- Generated by graphviz version 3.0.0 (20221109.1736)
 -->
<!-- Title: denoptim.fragmenter.TopoTemplateProducer.initialize Pages: 1 -->
<svg width="516pt" height="88pt"
 viewBox="0.00 0.00 516.00 88.00" xmlns="http://www.w3.org/2000/svg" xmlns:xlink="http://www.w3.org/1999/xlink">
<g id="graph0" class="graph" transform="scale(1 1) rotate(0) translate(4 84)">
<title>denoptim.fragmenter.TopoTemplateProducer.initialize</title>
<polygon fill="white" stroke="transparent" points="-4,4 -4,-84 512,-84 512,4 -4,4"/>
<!-- Node1 -->
<g id="node1" class="node">
<title>Node1</title>
<g id="a_node1"><a xlink:title=" ">
<polygon fill="#bfbfbf" stroke="black" points="0,-24.5 0,-54.5 133,-54.5 133,-24.5 0,-24.5"/>
<text text-anchor="start" x="8" y="-42.5" font-family="Helvetica,sans-Serif" font-size="10.00">denoptim.fragmenter.Topo</text>
<text text-anchor="middle" x="66.5" y="-31.5" font-family="Helvetica,sans-Serif" font-size="10.00">TemplateProducer.initialize</text>
</a>
</g>
</g>
<!-- Node2 -->
<g id="node2" class="node">
<title>Node2</title>
<g id="a_node2"><a xlink:href="classdenoptim_1_1utils_1_1_molecule_utils.html#ac6be8c4af5dd51783eae0899abba91ff" target="_top" xlink:title="Finds the shortest path between two atoms in a molecule using BFS.">
<polygon fill="white" stroke="black" points="169,-49.5 169,-79.5 324,-79.5 324,-49.5 169,-49.5"/>
<text text-anchor="start" x="177" y="-67.5" font-family="Helvetica,sans-Serif" font-size="10.00">denoptim.utils.MoleculeUtils.find</text>
<text text-anchor="middle" x="246.5" y="-56.5" font-family="Helvetica,sans-Serif" font-size="10.00">ShortestPath</text>
</a>
</g>
</g>
<!-- Node1&#45;&gt;Node2 -->
<g id="edge1" class="edge">
<title>Node1&#45;&gt;Node2</title>
<path fill="none" stroke="midnightblue" d="M133.02,-48.7C141.43,-49.88 150.14,-51.11 158.82,-52.33"/>
<polygon fill="midnightblue" stroke="midnightblue" points="158.58,-55.83 168.97,-53.75 159.56,-48.89 158.58,-55.83"/>
</g>
<!-- Node3 -->
<g id="node3" class="node">
<title>Node3</title>
<g id="a_node3"><a xlink:href="classdenoptim_1_1utils_1_1_molecule_utils.html#a8bca186632882f9399b9511020a43211" target="_top" xlink:title="Gets either the elemental symbol (for standard atoms) of the label (for pseudo&#45;atoms).">
<polygon fill="white" stroke="black" points="169.5,-0.5 169.5,-30.5 323.5,-30.5 323.5,-0.5 169.5,-0.5"/>
<text text-anchor="start" x="177.5" y="-18.5" font-family="Helvetica,sans-Serif" font-size="10.00">denoptim.utils.MoleculeUtils.get</text>
<text text-anchor="middle" x="246.5" y="-7.5" font-family="Helvetica,sans-Serif" font-size="10.00">SymbolOrLabel</text>
</a>
</g>
</g>
<!-- Node1&#45;&gt;Node3 -->
<g id="edge2" class="edge">
<title>Node1&#45;&gt;Node3</title>
<path fill="none" stroke="midnightblue" d="M133.02,-30.67C141.59,-29.51 150.48,-28.31 159.32,-27.12"/>
<polygon fill="midnightblue" stroke="midnightblue" points="159.83,-30.58 169.28,-25.78 158.9,-23.65 159.83,-30.58"/>
</g>
<!-- Node4 -->
<g id="node4" class="node">
<title>Node4</title>
<g id="a_node4"><a xlink:href="classdenoptim_1_1utils_1_1_molecule_utils.html#af975649c8225c4653efb1135d8360c2d" target="_top" xlink:title="Check element symbol corresponds to real element of Periodic Table.">
<polygon fill="white" stroke="black" points="360,-0.5 360,-30.5 508,-30.5 508,-0.5 360,-0.5"/>
<text text-anchor="start" x="368" y="-18.5" font-family="Helvetica,sans-Serif" font-size="10.00">denoptim.utils.MoleculeUtils.is</text>
<text text-anchor="middle" x="434" y="-7.5" font-family="Helvetica,sans-Serif" font-size="10.00">Element</text>
</a>
</g>
</g>
<!-- Node3&#45;&gt;Node4 -->
<g id="edge3" class="edge">
<title>Node3&#45;&gt;Node4</title>
<path fill="none" stroke="midnightblue" d="M323.75,-15.5C332.3,-15.5 341.04,-15.5 349.67,-15.5"/>
<polygon fill="midnightblue" stroke="midnightblue" points="349.73,-19 359.73,-15.5 349.73,-12 349.73,-19"/>
</g>
<!-- Node4&#45;&gt;Node4 -->
<g id="edge4" class="edge">
<title>Node4&#45;&gt;Node4</title>
<path fill="none" stroke="midnightblue" d="M401.59,-30.66C393.77,-40.06 404.57,-49 434,-49 451.93,-49 462.95,-45.68 467.05,-40.96"/>
<polygon fill="midnightblue" stroke="midnightblue" points="470.52,-40.42 466.41,-30.66 463.54,-40.86 470.52,-40.42"/>
</g>
</g>
</svg>
