<?xml version="1.0" encoding="UTF-8" standalone="no"?>
<!DOCTYPE svg PUBLIC "-//W3C//DTD SVG 1.1//EN"
 "http://www.w3.org/Graphics/SVG/1.1/DTD/svg11.dtd">
<!-- Generated by graphviz version 3.0.0 (20221109.1736)
 -->
<!-- Title: denoptim.gui.VertexViewPanel.dispose Pages: 1 -->
<svg width="424pt" height="78pt"
 viewBox="0.00 0.00 424.00 77.50" xmlns="http://www.w3.org/2000/svg" xmlns:xlink="http://www.w3.org/1999/xlink">
<g id="graph0" class="graph" transform="scale(1 1) rotate(0) translate(4 73.5)">
<title>denoptim.gui.VertexViewPanel.dispose</title>
<polygon fill="white" stroke="transparent" points="-4,4 -4,-73.5 420,-73.5 420,4 -4,4"/>
<!-- Node1 -->
<g id="node1" class="node">
<title>Node1</title>
<g id="a_node1"><a xlink:title=" ">
<polygon fill="#bfbfbf" stroke="black" points="232,-28 232,-47 416,-47 416,-28 232,-28"/>
<text text-anchor="middle" x="324" y="-35" font-family="Helvetica,sans-Serif" font-size="10.00">denoptim.gui.VertexViewPanel.dispose</text>
</a>
</g>
</g>
<!-- Node2 -->
<g id="node2" class="node">
<title>Node2</title>
<g id="a_node2"><a xlink:href="classdenoptim_1_1gui_1_1_g_u_i_vertex_inspector.html#a08b5cd406c7f5c7c68b8a50cc12a009e" target="_top" xlink:title=" ">
<polygon fill="white" stroke="black" points="0,-50 0,-69 196,-69 196,-50 0,-50"/>
<text text-anchor="middle" x="98" y="-57" font-family="Helvetica,sans-Serif" font-size="10.00">denoptim.gui.GUIVertexInspector.dispose</text>
</a>
</g>
</g>
<!-- Node1&#45;&gt;Node2 -->
<g id="edge1" class="edge">
<title>Node1&#45;&gt;Node2</title>
<path fill="none" stroke="midnightblue" d="M221.81,-47.44C213.18,-48.29 204.46,-49.14 195.87,-49.99"/>
<polygon fill="midnightblue" stroke="midnightblue" points="222.28,-50.91 231.89,-46.45 221.6,-43.94 222.28,-50.91"/>
</g>
<!-- Node3 -->
<g id="node3" class="node">
<title>Node3</title>
<g id="a_node3"><a xlink:href="classdenoptim_1_1gui_1_1_g_u_i_vertex_selector.html#a9ddb1f2b12985b37138d9a43f1edb233" target="_top" xlink:title="Constructor for an empty modal panel meant for selection of vertexes.">
<polygon fill="white" stroke="black" points="19,-0.5 19,-30.5 177,-30.5 177,-0.5 19,-0.5"/>
<text text-anchor="start" x="27" y="-18.5" font-family="Helvetica,sans-Serif" font-size="10.00">denoptim.gui.GUIVertexSelector.</text>
<text text-anchor="middle" x="98" y="-7.5" font-family="Helvetica,sans-Serif" font-size="10.00">GUIVertexSelector</text>
</a>
</g>
</g>
<!-- Node1&#45;&gt;Node3 -->
<g id="edge2" class="edge">
<title>Node1&#45;&gt;Node3</title>
<path fill="none" stroke="midnightblue" d="M221.6,-27.54C206.67,-26.07 191.48,-24.58 177.11,-23.17"/>
<polygon fill="midnightblue" stroke="midnightblue" points="221.6,-31.06 231.89,-28.55 222.28,-24.09 221.6,-31.06"/>
</g>
</g>
</svg>
