<?xml version="1.0" encoding="UTF-8" standalone="no"?>
<!DOCTYPE svg PUBLIC "-//W3C//DTD SVG 1.1//EN"
 "http://www.w3.org/Graphics/SVG/1.1/DTD/svg11.dtd">
<!-- Generated by graphviz version 3.0.0 (20221109.1736)
 -->
<!-- Title: denoptim.gui.GraphVertexMolViewerPanel.dispose Pages: 1 -->
<svg width="1224pt" height="167pt"
 viewBox="0.00 0.00 1224.00 166.50" xmlns="http://www.w3.org/2000/svg" xmlns:xlink="http://www.w3.org/1999/xlink">
<g id="graph0" class="graph" transform="scale(1 1) rotate(0) translate(4 162.5)">
<title>denoptim.gui.GraphVertexMolViewerPanel.dispose</title>
<polygon fill="white" stroke="transparent" points="-4,4 -4,-162.5 1220,-162.5 1220,4 -4,4"/>
<!-- Node1 -->
<g id="node1" class="node">
<title>Node1</title>
<g id="a_node1"><a xlink:title=" ">
<polygon fill="#bfbfbf" stroke="black" points="1088,-108.5 1088,-138.5 1216,-138.5 1216,-108.5 1088,-108.5"/>
<text text-anchor="start" x="1096" y="-126.5" font-family="Helvetica,sans-Serif" font-size="10.00">denoptim.gui.GraphVertex</text>
<text text-anchor="middle" x="1152" y="-115.5" font-family="Helvetica,sans-Serif" font-size="10.00">MolViewerPanel.dispose</text>
</a>
</g>
</g>
<!-- Node1&#45;&gt;Node1 -->
<g id="edge1" class="edge">
<title>Node1&#45;&gt;Node1</title>
<path fill="none" stroke="midnightblue" d="M1186.47,-148.96C1182.19,-153.68 1170.7,-157 1152,-157 1121.31,-157 1110.04,-148.06 1118.19,-138.66"/>
<polygon fill="midnightblue" stroke="midnightblue" points="1189.94,-148.41 1185.81,-138.66 1182.96,-148.86 1189.94,-148.41"/>
</g>
<!-- Node2 -->
<g id="node2" class="node">
<title>Node2</title>
<g id="a_node2"><a xlink:href="classdenoptim_1_1gui_1_1_g_u_i_graph_handler.html#a46c924d960aab4ad6da4880961eca4af" target="_top" xlink:title=" ">
<polygon fill="white" stroke="black" points="864,-139 864,-158 1052,-158 1052,-139 864,-139"/>
<text text-anchor="middle" x="958" y="-146" font-family="Helvetica,sans-Serif" font-size="10.00">denoptim.gui.GUIGraphHandler.dispose</text>
</a>
</g>
</g>
<!-- Node1&#45;&gt;Node2 -->
<g id="edge2" class="edge">
<title>Node1&#45;&gt;Node2</title>
<path fill="none" stroke="midnightblue" d="M1077.68,-133.05C1062.77,-134.99 1047.08,-137.03 1032.17,-138.97"/>
<polygon fill="midnightblue" stroke="midnightblue" points="1078.4,-136.48 1087.87,-131.72 1077.5,-129.54 1078.4,-136.48"/>
</g>
<!-- Node3 -->
<g id="node3" class="node">
<title>Node3</title>
<g id="a_node3"><a xlink:href="classdenoptim_1_1gui_1_1_graph_vertex_mol_viewer_panel.html#a3cf222c297371678ddd971e9857188b0" target="_top" xlink:title=" ">
<polygon fill="white" stroke="black" points="868.5,-79 868.5,-120 1047.5,-120 1047.5,-79 868.5,-79"/>
<text text-anchor="start" x="876.5" y="-108" font-family="Helvetica,sans-Serif" font-size="10.00">denoptim.gui.GraphVertex</text>
<text text-anchor="start" x="876.5" y="-97" font-family="Helvetica,sans-Serif" font-size="10.00">MolViewerPanel.removeNestedGraph</text>
<text text-anchor="middle" x="958" y="-86" font-family="Helvetica,sans-Serif" font-size="10.00">Viewer</text>
</a>
</g>
</g>
<!-- Node1&#45;&gt;Node3 -->
<g id="edge3" class="edge">
<title>Node1&#45;&gt;Node3</title>
<path fill="none" stroke="midnightblue" d="M1077.73,-114.34C1067.87,-113.11 1057.67,-111.83 1047.57,-110.57"/>
<polygon fill="midnightblue" stroke="midnightblue" points="1077.51,-117.84 1087.87,-115.61 1078.38,-110.89 1077.51,-117.84"/>
</g>
<!-- Node4 -->
<g id="node4" class="node">
<title>Node4</title>
<g id="a_node4"><a xlink:href="classdenoptim_1_1gui_1_1_graph_vertex_mol_viewer_panel.html#abeb355ac694f9f3278a3b5aeb9342de4" target="_top" xlink:title="Changes the appearance of the vertex visualisation panel to an empty card that is consistent with the...">
<polygon fill="white" stroke="black" points="667,-49 667,-90 828,-90 828,-49 667,-49"/>
<text text-anchor="start" x="675" y="-78" font-family="Helvetica,sans-Serif" font-size="10.00">denoptim.gui.GraphVertex</text>
<text text-anchor="start" x="675" y="-67" font-family="Helvetica,sans-Serif" font-size="10.00">MolViewerPanel.resetFragViewer</text>
<text text-anchor="middle" x="747.5" y="-56" font-family="Helvetica,sans-Serif" font-size="10.00">CardDeck</text>
</a>
</g>
</g>
<!-- Node3&#45;&gt;Node4 -->
<g id="edge4" class="edge">
<title>Node3&#45;&gt;Node4</title>
<path fill="none" stroke="midnightblue" d="M858.25,-85.29C848.19,-83.84 838.05,-82.39 828.23,-80.97"/>
<polygon fill="midnightblue" stroke="midnightblue" points="857.88,-88.77 868.27,-86.73 858.88,-81.85 857.88,-88.77"/>
</g>
<!-- Node10 -->
<g id="node10" class="node">
<title>Node10</title>
<g id="a_node10"><a xlink:href="classdenoptim_1_1gui_1_1_graph_vertex_mol_viewer_panel.html#a5edf6f6270bf3d180455295bffb57df0" target="_top" xlink:title="Makes a clone of the given vertex and loads that clone into the nested visualization frame.">
<polygon fill="white" stroke="black" points="670,-109 670,-150 825,-150 825,-109 670,-109"/>
<text text-anchor="start" x="678" y="-138" font-family="Helvetica,sans-Serif" font-size="10.00">denoptim.gui.GraphVertex</text>
<text text-anchor="start" x="678" y="-127" font-family="Helvetica,sans-Serif" font-size="10.00">MolViewerPanel.visualizeVertex</text>
<text text-anchor="middle" x="747.5" y="-116" font-family="Helvetica,sans-Serif" font-size="10.00">InNestedViewer</text>
</a>
</g>
</g>
<!-- Node3&#45;&gt;Node10 -->
<g id="edge10" class="edge">
<title>Node3&#45;&gt;Node10</title>
<path fill="none" stroke="midnightblue" d="M858.17,-113.72C847.13,-115.31 836,-116.91 825.29,-118.45"/>
<polygon fill="midnightblue" stroke="midnightblue" points="858.88,-117.15 868.27,-112.27 857.88,-110.23 858.88,-117.15"/>
</g>
<!-- Node5 -->
<g id="node5" class="node">
<title>Node5</title>
<g id="a_node5"><a xlink:href="classdenoptim_1_1gui_1_1_graph_vertex_mol_viewer_panel.html#abab3007ca39f050b3b9916c4bcc994ca" target="_top" xlink:title="Loads the given graph into the graph viewer.">
<polygon fill="white" stroke="black" points="444,-49 444,-90 601,-90 601,-49 444,-49"/>
<text text-anchor="start" x="452" y="-78" font-family="Helvetica,sans-Serif" font-size="10.00">denoptim.gui.GraphVertex</text>
<text text-anchor="start" x="452" y="-67" font-family="Helvetica,sans-Serif" font-size="10.00">MolViewerPanel.loadDnGraphTo</text>
<text text-anchor="middle" x="522.5" y="-56" font-family="Helvetica,sans-Serif" font-size="10.00">Viewer</text>
</a>
</g>
</g>
<!-- Node4&#45;&gt;Node5 -->
<g id="edge5" class="edge">
<title>Node4&#45;&gt;Node5</title>
<path fill="none" stroke="midnightblue" d="M656.8,-69.5C638.37,-69.5 619.12,-69.5 601.16,-69.5"/>
<polygon fill="midnightblue" stroke="midnightblue" points="656.94,-73 666.94,-69.5 656.94,-66 656.94,-73"/>
</g>
<!-- Node6 -->
<g id="node6" class="node">
<title>Node6</title>
<g id="a_node6"><a xlink:href="classdenoptim_1_1gui_1_1_g_u_i_graph_handler.html#a67ce3e03e9d13d3f312652296d25c0a5" target="_top" xlink:title=" ">
<polygon fill="white" stroke="black" points="436.5,-0.5 436.5,-30.5 608.5,-30.5 608.5,-0.5 436.5,-0.5"/>
<text text-anchor="start" x="444.5" y="-18.5" font-family="Helvetica,sans-Serif" font-size="10.00">denoptim.gui.GUIGraphHandler.load</text>
<text text-anchor="middle" x="522.5" y="-7.5" font-family="Helvetica,sans-Serif" font-size="10.00">FragmentSpace</text>
</a>
</g>
</g>
<!-- Node4&#45;&gt;Node6 -->
<g id="edge6" class="edge">
<title>Node4&#45;&gt;Node6</title>
<path fill="none" stroke="midnightblue" d="M659.09,-46.46C649.62,-44.06 640.12,-41.7 631,-39.5 618.55,-36.49 605.25,-33.42 592.4,-30.51"/>
<polygon fill="midnightblue" stroke="midnightblue" points="658.38,-49.89 668.93,-48.96 660.1,-43.1 658.38,-49.89"/>
</g>
<!-- Node9 -->
<g id="node9" class="node">
<title>Node9</title>
<g id="a_node9"><a xlink:href="classdenoptim_1_1gui_1_1_graph_vertex_mol_viewer_panel_1_1_node_clicked_listener.html#a4c7c2b6e03029c1850296cda96c5d6bc" target="_top" xlink:title=" ">
<polygon fill="white" stroke="black" points="414,-109 414,-150 631,-150 631,-109 414,-109"/>
<text text-anchor="start" x="422" y="-138" font-family="Helvetica,sans-Serif" font-size="10.00">denoptim.gui.GraphVertex</text>
<text text-anchor="start" x="422" y="-127" font-family="Helvetica,sans-Serif" font-size="10.00">MolViewerPanel.NodeClickedListener.property</text>
<text text-anchor="middle" x="522.5" y="-116" font-family="Helvetica,sans-Serif" font-size="10.00">Change</text>
</a>
</g>
</g>
<!-- Node4&#45;&gt;Node9 -->
<g id="edge9" class="edge">
<title>Node4&#45;&gt;Node9</title>
<path fill="none" stroke="midnightblue" d="M660.38,-92.67C640.43,-98.04 619.33,-103.72 599.83,-108.96"/>
<polygon fill="midnightblue" stroke="midnightblue" points="661.32,-96.04 670.07,-90.06 659.5,-89.28 661.32,-96.04"/>
</g>
<!-- Node7 -->
<g id="node7" class="node">
<title>Node7</title>
<g id="a_node7"><a xlink:href="classdenoptim_1_1gui_1_1_g_u_i_graph_handler.html#af5b000c105018cbd7c262b34f9750044" target="_top" xlink:title="Initialize the panel and add buttons.">
<polygon fill="white" stroke="black" points="190,-6 190,-25 378,-25 378,-6 190,-6"/>
<text text-anchor="middle" x="284" y="-13" font-family="Helvetica,sans-Serif" font-size="10.00">denoptim.gui.GUIGraphHandler.initialize</text>
</a>
</g>
</g>
<!-- Node6&#45;&gt;Node7 -->
<g id="edge7" class="edge">
<title>Node6&#45;&gt;Node7</title>
<path fill="none" stroke="midnightblue" d="M426.14,-15.5C410.3,-15.5 393.88,-15.5 378.1,-15.5"/>
<polygon fill="midnightblue" stroke="midnightblue" points="426.45,-19 436.45,-15.5 426.45,-12 426.45,-19"/>
</g>
<!-- Node8 -->
<g id="node8" class="node">
<title>Node8</title>
<g id="a_node8"><a xlink:href="classdenoptim_1_1gui_1_1_g_u_i_graph_handler.html#ab7d010d9a384f6b85edce47c95d6723b" target="_top" xlink:title="Constructor.">
<polygon fill="white" stroke="black" points="0,-0.5 0,-30.5 154,-30.5 154,-0.5 0,-0.5"/>
<text text-anchor="start" x="8" y="-18.5" font-family="Helvetica,sans-Serif" font-size="10.00">denoptim.gui.GUIGraphHandler.</text>
<text text-anchor="middle" x="77" y="-7.5" font-family="Helvetica,sans-Serif" font-size="10.00">GUIGraphHandler</text>
</a>
</g>
</g>
<!-- Node7&#45;&gt;Node8 -->
<g id="edge8" class="edge">
<title>Node7&#45;&gt;Node8</title>
<path fill="none" stroke="midnightblue" d="M179.69,-15.5C171.07,-15.5 162.45,-15.5 154.09,-15.5"/>
<polygon fill="midnightblue" stroke="midnightblue" points="179.8,-19 189.8,-15.5 179.8,-12 179.8,-19"/>
</g>
<!-- Node10&#45;&gt;Node5 -->
<g id="edge11" class="edge">
<title>Node10&#45;&gt;Node5</title>
<path fill="none" stroke="midnightblue" d="M660.38,-106.33C640.43,-100.96 619.33,-95.28 599.83,-90.04"/>
<polygon fill="midnightblue" stroke="midnightblue" points="659.5,-109.72 670.07,-108.94 661.32,-102.96 659.5,-109.72"/>
</g>
<!-- Node10&#45;&gt;Node9 -->
<g id="edge12" class="edge">
<title>Node10&#45;&gt;Node9</title>
<path fill="none" stroke="midnightblue" d="M659.69,-129.5C650.32,-129.5 640.7,-129.5 631.12,-129.5"/>
<polygon fill="midnightblue" stroke="midnightblue" points="659.76,-133 669.76,-129.5 659.76,-126 659.76,-133"/>
</g>
</g>
</svg>
