<?xml version="1.0" encoding="UTF-8" standalone="no"?>
<!DOCTYPE svg PUBLIC "-//W3C//DTD SVG 1.1//EN"
 "http://www.w3.org/Graphics/SVG/1.1/DTD/svg11.dtd">
<!-- Generated by graphviz version 3.0.0 (20221109.1736)
 -->
<!-- Title: denoptim.fitness.DescriptorUtils.getClassNamesToDenoptimDescriptors Pages: 1 -->
<svg width="1028pt" height="170pt"
 viewBox="0.00 0.00 1028.00 170.00" xmlns="http://www.w3.org/2000/svg" xmlns:xlink="http://www.w3.org/1999/xlink">
<g id="graph0" class="graph" transform="scale(1 1) rotate(0) translate(4 166)">
<title>denoptim.fitness.DescriptorUtils.getClassNamesToDenoptimDescriptors</title>
<polygon fill="white" stroke="transparent" points="-4,4 -4,-166 1024,-166 1024,4 -4,4"/>
<!-- Node1 -->
<g id="node1" class="node">
<title>Node1</title>
<g id="a_node1"><a xlink:title=" ">
<polygon fill="#bfbfbf" stroke="black" points="809,-66 809,-96 1020,-96 1020,-66 809,-66"/>
<text text-anchor="start" x="817" y="-84" font-family="Helvetica,sans-Serif" font-size="10.00">denoptim.fitness.Descriptor</text>
<text text-anchor="middle" x="914.5" y="-73" font-family="Helvetica,sans-Serif" font-size="10.00">Utils.getClassNamesToDenoptimDescriptors</text>
</a>
</g>
</g>
<!-- Node2 -->
<g id="node2" class="node">
<title>Node2</title>
<g id="a_node2"><a xlink:href="classdenoptim_1_1fitness_1_1_descriptor_utils.html#aad0f6a48a1e75772f06cf70290ad8b45" target="_top" xlink:title="Searches for descriptor implementations in the DENOPTIM packages.">
<polygon fill="white" stroke="black" points="595.5,-115 595.5,-145 762.5,-145 762.5,-115 595.5,-115"/>
<text text-anchor="start" x="603.5" y="-133" font-family="Helvetica,sans-Serif" font-size="10.00">denoptim.fitness.Descriptor</text>
<text text-anchor="middle" x="679" y="-122" font-family="Helvetica,sans-Serif" font-size="10.00">Utils.findAllDENOPTIMDescriptors</text>
</a>
</g>
</g>
<!-- Node1&#45;&gt;Node2 -->
<g id="edge1" class="edge">
<title>Node1&#45;&gt;Node2</title>
<path fill="none" stroke="midnightblue" d="M831.95,-98.11C805.75,-103.61 776.94,-109.66 751.51,-114.99"/>
<polygon fill="midnightblue" stroke="midnightblue" points="832.79,-101.51 841.86,-96.03 831.35,-94.66 832.79,-101.51"/>
</g>
<!-- Node4 -->
<g id="node4" class="node">
<title>Node4</title>
<g id="a_node4"><a xlink:href="classdenoptim_1_1fitness_1_1_descriptor_utils.html#a8ba0703407e819bb2da20abf1d551641" target="_top" xlink:title="Searches for descriptor implementations.">
<polygon fill="white" stroke="black" points="588,-66 588,-96 770,-96 770,-66 588,-66"/>
<text text-anchor="start" x="596" y="-84" font-family="Helvetica,sans-Serif" font-size="10.00">denoptim.fitness.Descriptor</text>
<text text-anchor="middle" x="679" y="-73" font-family="Helvetica,sans-Serif" font-size="10.00">Utils.findAllDescriptorImplementations</text>
</a>
</g>
</g>
<!-- Node1&#45;&gt;Node4 -->
<g id="edge3" class="edge">
<title>Node1&#45;&gt;Node4</title>
<path fill="none" stroke="midnightblue" d="M798.43,-81C788.95,-81 779.46,-81 770.19,-81"/>
<polygon fill="midnightblue" stroke="midnightblue" points="798.7,-84.5 808.7,-81 798.7,-77.5 798.7,-84.5"/>
</g>
<!-- Node10 -->
<g id="node10" class="node">
<title>Node10</title>
<g id="a_node10"><a xlink:href="classdenoptim_1_1fitness_1_1_descriptor_utils_test.html#a4e6e8344bdb170eeeba008e39b2b85cc" target="_top" xlink:title=" ">
<polygon fill="white" stroke="black" points="585,-17 585,-47 773,-47 773,-17 585,-17"/>
<text text-anchor="start" x="593" y="-35" font-family="Helvetica,sans-Serif" font-size="10.00">denoptim.fitness.Descriptor</text>
<text text-anchor="middle" x="679" y="-24" font-family="Helvetica,sans-Serif" font-size="10.00">UtilsTest.testFindDemoptimDescriptors</text>
</a>
</g>
</g>
<!-- Node1&#45;&gt;Node10 -->
<g id="edge9" class="edge">
<title>Node1&#45;&gt;Node10</title>
<path fill="none" stroke="midnightblue" d="M831.95,-63.89C805.75,-58.39 776.94,-52.34 751.51,-47.01"/>
<polygon fill="midnightblue" stroke="midnightblue" points="831.35,-67.34 841.86,-65.97 832.79,-60.49 831.35,-67.34"/>
</g>
<!-- Node3 -->
<g id="node3" class="node">
<title>Node3</title>
<g id="a_node3"><a xlink:href="classdenoptim_1_1gui_1_1_fitness_parameters_form.html#a989880b9075bcb6124c36a444731b6a9" target="_top" xlink:title=" ">
<polygon fill="white" stroke="black" points="393,-115 393,-145 549,-145 549,-115 393,-115"/>
<text text-anchor="start" x="401" y="-133" font-family="Helvetica,sans-Serif" font-size="10.00">denoptim.gui.FitnessParameters</text>
<text text-anchor="middle" x="471" y="-122" font-family="Helvetica,sans-Serif" font-size="10.00">Form.FitnessParametersForm</text>
</a>
</g>
</g>
<!-- Node2&#45;&gt;Node3 -->
<g id="edge2" class="edge">
<title>Node2&#45;&gt;Node3</title>
<path fill="none" stroke="midnightblue" d="M585.33,-130C573.28,-130 561.04,-130 549.27,-130"/>
<polygon fill="midnightblue" stroke="midnightblue" points="585.4,-133.5 595.4,-130 585.4,-126.5 585.4,-133.5"/>
</g>
<!-- Node5 -->
<g id="node5" class="node">
<title>Node5</title>
<g id="a_node5"><a xlink:href="classdenoptim_1_1fitness_1_1_fitness_expression_parser.html#a761cd46875eff5864f29dbb7f353bde7" target="_top" xlink:title="Parses the given expressions.">
<polygon fill="white" stroke="black" points="410,-66 410,-96 532,-96 532,-66 410,-66"/>
<text text-anchor="start" x="418" y="-84" font-family="Helvetica,sans-Serif" font-size="10.00">denoptim.fitness.Fitness</text>
<text text-anchor="middle" x="471" y="-73" font-family="Helvetica,sans-Serif" font-size="10.00">ExpressionParser.parse</text>
</a>
</g>
</g>
<!-- Node4&#45;&gt;Node5 -->
<g id="edge4" class="edge">
<title>Node4&#45;&gt;Node5</title>
<path fill="none" stroke="midnightblue" d="M577.75,-81C562.19,-81 546.55,-81 532.24,-81"/>
<polygon fill="midnightblue" stroke="midnightblue" points="577.95,-84.5 587.95,-81 577.95,-77.5 577.95,-84.5"/>
</g>
<!-- Node6 -->
<g id="node6" class="node">
<title>Node6</title>
<g id="a_node6"><a xlink:href="classdenoptim_1_1fitness_1_1_fitness_parameters.html#a2ab06430e0d6c35625d03557520cf505" target="_top" xlink:title="Processes all parameters and initialize related objects.">
<polygon fill="white" stroke="black" points="203,-66 203,-96 357,-96 357,-66 203,-66"/>
<text text-anchor="start" x="211" y="-84" font-family="Helvetica,sans-Serif" font-size="10.00">denoptim.fitness.Fitness</text>
<text text-anchor="middle" x="280" y="-73" font-family="Helvetica,sans-Serif" font-size="10.00">Parameters.processParameters</text>
</a>
</g>
</g>
<!-- Node5&#45;&gt;Node6 -->
<g id="edge5" class="edge">
<title>Node5&#45;&gt;Node6</title>
<path fill="none" stroke="midnightblue" d="M399.54,-81C385.74,-81 371.19,-81 357.21,-81"/>
<polygon fill="midnightblue" stroke="midnightblue" points="399.94,-84.5 409.94,-81 399.94,-77.5 399.94,-84.5"/>
</g>
<!-- Node7 -->
<g id="node7" class="node">
<title>Node7</title>
<g id="a_node7"><a xlink:href="classdenoptim_1_1fitness_1_1_fitness_provider_test.html#a2272dbcf72c993b4544719ddf64c98b6" target="_top" xlink:title=" ">
<polygon fill="white" stroke="black" points="10.5,-120.5 10.5,-161.5 156.5,-161.5 156.5,-120.5 10.5,-120.5"/>
<text text-anchor="start" x="18.5" y="-149.5" font-family="Helvetica,sans-Serif" font-size="10.00">denoptim.fitness.Fitness</text>
<text text-anchor="start" x="18.5" y="-138.5" font-family="Helvetica,sans-Serif" font-size="10.00">ProviderTest.testGetConstant</text>
<text text-anchor="middle" x="83.5" y="-127.5" font-family="Helvetica,sans-Serif" font-size="10.00">Fitness</text>
</a>
</g>
</g>
<!-- Node6&#45;&gt;Node7 -->
<g id="edge6" class="edge">
<title>Node6&#45;&gt;Node7</title>
<path fill="none" stroke="midnightblue" d="M220.36,-99.09C198.49,-105.83 173.52,-113.54 150.99,-120.49"/>
<polygon fill="midnightblue" stroke="midnightblue" points="221.65,-102.36 230.17,-96.06 219.58,-95.67 221.65,-102.36"/>
</g>
<!-- Node8 -->
<g id="node8" class="node">
<title>Node8</title>
<g id="a_node8"><a xlink:href="classdenoptim_1_1fitness_1_1_fitness_provider_test.html#ac3684e1e2969ee1c883ab279d4d5c048" target="_top" xlink:title="This test is reproducing most of what done in FitnessParametersTest#testProcessExpressions() so if bo...">
<polygon fill="white" stroke="black" points="4.5,-60.5 4.5,-101.5 162.5,-101.5 162.5,-60.5 4.5,-60.5"/>
<text text-anchor="start" x="12.5" y="-89.5" font-family="Helvetica,sans-Serif" font-size="10.00">denoptim.fitness.Fitness</text>
<text text-anchor="start" x="12.5" y="-78.5" font-family="Helvetica,sans-Serif" font-size="10.00">ProviderTest.testGetFitnessWith</text>
<text text-anchor="middle" x="83.5" y="-67.5" font-family="Helvetica,sans-Serif" font-size="10.00">ParametrizedDescriptors</text>
</a>
</g>
</g>
<!-- Node6&#45;&gt;Node8 -->
<g id="edge7" class="edge">
<title>Node6&#45;&gt;Node8</title>
<path fill="none" stroke="midnightblue" d="M192.66,-81C182.69,-81 172.57,-81 162.72,-81"/>
<polygon fill="midnightblue" stroke="midnightblue" points="192.97,-84.5 202.97,-81 192.97,-77.5 192.97,-84.5"/>
</g>
<!-- Node9 -->
<g id="node9" class="node">
<title>Node9</title>
<g id="a_node9"><a xlink:href="classdenoptim_1_1fitness_1_1_fitness_expression_parser_test.html#ad8c3056173f2ab17ebb7c12133ea03a8" target="_top" xlink:title=" ">
<polygon fill="white" stroke="black" points="0,-0.5 0,-41.5 167,-41.5 167,-0.5 0,-0.5"/>
<text text-anchor="start" x="8" y="-29.5" font-family="Helvetica,sans-Serif" font-size="10.00">denoptim.fitness.Fitness</text>
<text text-anchor="start" x="8" y="-18.5" font-family="Helvetica,sans-Serif" font-size="10.00">ExpressionParserTest.testProcess</text>
<text text-anchor="middle" x="83.5" y="-7.5" font-family="Helvetica,sans-Serif" font-size="10.00">Expressions</text>
</a>
</g>
</g>
<!-- Node6&#45;&gt;Node9 -->
<g id="edge8" class="edge">
<title>Node6&#45;&gt;Node9</title>
<path fill="none" stroke="midnightblue" d="M220.36,-62.91C198.49,-56.17 173.52,-48.46 150.99,-41.51"/>
<polygon fill="midnightblue" stroke="midnightblue" points="219.58,-66.33 230.17,-65.94 221.65,-59.64 219.58,-66.33"/>
</g>
</g>
</svg>
