<?xml version="1.0" encoding="UTF-8" standalone="no"?>
<!DOCTYPE svg PUBLIC "-//W3C//DTD SVG 1.1//EN"
 "http://www.w3.org/Graphics/SVG/1.1/DTD/svg11.dtd">
<!-- Generated by graphviz version 3.0.0 (20221109.1736)
 -->
<!-- Title: denoptim.ga.Population.getMaxFitness Pages: 1 -->
<svg width="523pt" height="112pt"
 viewBox="0.00 0.00 523.00 112.00" xmlns="http://www.w3.org/2000/svg" xmlns:xlink="http://www.w3.org/1999/xlink">
<g id="graph0" class="graph" transform="scale(1 1) rotate(0) translate(4 108)">
<title>denoptim.ga.Population.getMaxFitness</title>
<polygon fill="white" stroke="transparent" points="-4,4 -4,-108 519,-108 519,4 -4,4"/>
<!-- Node1 -->
<g id="node1" class="node">
<title>Node1</title>
<g id="a_node1"><a xlink:title="Gets the maximum value of the fitness in this population.">
<polygon fill="#bfbfbf" stroke="black" points="382,-24.5 382,-54.5 515,-54.5 515,-24.5 382,-24.5"/>
<text text-anchor="start" x="390" y="-42.5" font-family="Helvetica,sans-Serif" font-size="10.00">denoptim.ga.Population.get</text>
<text text-anchor="middle" x="448.5" y="-31.5" font-family="Helvetica,sans-Serif" font-size="10.00">MaxFitness</text>
</a>
</g>
</g>
<!-- Node2 -->
<g id="node2" class="node">
<title>Node2</title>
<g id="a_node2"><a xlink:href="classdenoptim_1_1ga_1_1_population.html#a43092319305b5aaef2c335cabadc7d06" target="_top" xlink:title="Checks if a given fitness value if within the given percentile of best candidates.">
<polygon fill="white" stroke="black" points="205,-49.5 205,-79.5 332,-79.5 332,-49.5 205,-49.5"/>
<text text-anchor="start" x="213" y="-67.5" font-family="Helvetica,sans-Serif" font-size="10.00">denoptim.ga.Population.is</text>
<text text-anchor="middle" x="268.5" y="-56.5" font-family="Helvetica,sans-Serif" font-size="10.00">WithinPercentile</text>
</a>
</g>
</g>
<!-- Node1&#45;&gt;Node2 -->
<g id="edge1" class="edge">
<title>Node1&#45;&gt;Node2</title>
<path fill="none" stroke="midnightblue" d="M371.95,-50.11C358.71,-51.97 345.06,-53.89 332.22,-55.69"/>
<polygon fill="midnightblue" stroke="midnightblue" points="372.56,-53.56 381.98,-48.7 371.59,-46.63 372.56,-53.56"/>
</g>
<!-- Node5 -->
<g id="node5" class="node">
<title>Node5</title>
<g id="a_node5"><a xlink:href="classdenoptim_1_1ga_1_1_population_test.html#aa40d0bedbf2ca22b34267aa8491d7ec3" target="_top" xlink:title=" ">
<polygon fill="white" stroke="black" points="191,-0.5 191,-30.5 346,-30.5 346,-0.5 191,-0.5"/>
<text text-anchor="start" x="199" y="-18.5" font-family="Helvetica,sans-Serif" font-size="10.00">denoptim.ga.PopulationTest.test</text>
<text text-anchor="middle" x="268.5" y="-7.5" font-family="Helvetica,sans-Serif" font-size="10.00">GetMinMax</text>
</a>
</g>
</g>
<!-- Node1&#45;&gt;Node5 -->
<g id="edge4" class="edge">
<title>Node1&#45;&gt;Node5</title>
<path fill="none" stroke="midnightblue" d="M371.99,-29.32C363.4,-28.16 354.63,-26.98 346.03,-25.82"/>
<polygon fill="midnightblue" stroke="midnightblue" points="371.6,-32.8 381.98,-30.67 372.54,-25.86 371.6,-32.8"/>
</g>
<!-- Node3 -->
<g id="node3" class="node">
<title>Node3</title>
<g id="a_node3"><a xlink:href="classdenoptim_1_1ga_1_1_offspring_evaluation_task.html#aab5b9c0b8a88922460f5c28ae161d1fa" target="_top" xlink:title=" ">
<polygon fill="white" stroke="black" points="0,-73.5 0,-103.5 155,-103.5 155,-73.5 0,-73.5"/>
<text text-anchor="start" x="8" y="-91.5" font-family="Helvetica,sans-Serif" font-size="10.00">denoptim.ga.OffspringEvaluation</text>
<text text-anchor="middle" x="77.5" y="-80.5" font-family="Helvetica,sans-Serif" font-size="10.00">Task.call</text>
</a>
</g>
</g>
<!-- Node2&#45;&gt;Node3 -->
<g id="edge2" class="edge">
<title>Node2&#45;&gt;Node3</title>
<path fill="none" stroke="midnightblue" d="M194.6,-73.76C181.68,-75.4 168.18,-77.11 155.15,-78.77"/>
<polygon fill="midnightblue" stroke="midnightblue" points="195.35,-77.19 204.83,-72.46 194.47,-70.25 195.35,-77.19"/>
</g>
<!-- Node4 -->
<g id="node4" class="node">
<title>Node4</title>
<g id="a_node4"><a xlink:href="classdenoptim_1_1ga_1_1_population_test.html#a6725ae8dc980dd79466800b489fc9620" target="_top" xlink:title=" ">
<polygon fill="white" stroke="black" points="0,-24.5 0,-54.5 155,-54.5 155,-24.5 0,-24.5"/>
<text text-anchor="start" x="8" y="-42.5" font-family="Helvetica,sans-Serif" font-size="10.00">denoptim.ga.PopulationTest.test</text>
<text text-anchor="middle" x="77.5" y="-31.5" font-family="Helvetica,sans-Serif" font-size="10.00">IsInPercentile</text>
</a>
</g>
</g>
<!-- Node2&#45;&gt;Node4 -->
<g id="edge3" class="edge">
<title>Node2&#45;&gt;Node4</title>
<path fill="none" stroke="midnightblue" d="M194.6,-54.86C181.68,-53.15 168.18,-51.36 155.15,-49.64"/>
<polygon fill="midnightblue" stroke="midnightblue" points="194.46,-58.37 204.83,-56.21 195.37,-51.43 194.46,-58.37"/>
</g>
</g>
</svg>
