<?xml version="1.0" encoding="UTF-8" standalone="no"?>
<!DOCTYPE svg PUBLIC "-//W3C//DTD SVG 1.1//EN"
 "http://www.w3.org/Graphics/SVG/1.1/DTD/svg11.dtd">
<!-- Generated by graphviz version 3.0.0 (20221109.1736)
 -->
<!-- Title: denoptim.utils.MoleculeUtils.normalizeBondAngleScore Pages: 1 -->
<!--zoomable 197 -->
<svg id="main" version="1.1" xmlns="http://www.w3.org/2000/svg" xmlns:xlink="http://www.w3.org/1999/xlink" xml:space="preserve" onload="init(evt)">
<style type="text/css"><![CDATA[
.edge:hover path { stroke: red; }
.edge:hover polygon { stroke: red; fill: red; }
]]></style>
<script type="text/javascript"><![CDATA[
var edges = document.getElementsByTagName('g');
if (edges && edges.length) {
  for (var i=0;i<edges.length;i++) {
    if (edges[i].id.substr(0,4)=='edge') {
      edges[i].setAttribute('class','edge');
    }
  }
}
]]></script>
        <defs>
                <circle id="rim" cx="0" cy="0" r="7"/>
                <circle id="rim2" cx="0" cy="0" r="3.5"/>
                <g id="zoomPlus">
                        <use xlink:href="#rim" fill="#404040">
                                <set attributeName="fill" to="#808080" begin="zoomplus.mouseover" end="zoomplus.mouseout"/>
                        </use>
                        <path d="M-4,0h8M0,-4v8" fill="none" stroke="white" stroke-width="1.5" pointer-events="none"/>
                </g>
                <g id="zoomMin">
                        <use xlink:href="#rim" fill="#404040">
                                <set attributeName="fill" to="#808080" begin="zoomminus.mouseover" end="zoomminus.mouseout"/>
                        </use>
                        <path d="M-4,0h8" fill="none" stroke="white" stroke-width="1.5" pointer-events="none"/>
                </g>
                <g id="dirArrow">
                        <path fill="none" stroke="white" stroke-width="1.5" d="M0,-3.0v7 M-2.5,-0.5L0,-3.0L2.5,-0.5"/>
                </g>
               <g id="resetDef">
                       <use xlink:href="#rim2" fill="#404040">
                               <set attributeName="fill" to="#808080" begin="reset.mouseover" end="reset.mouseout"/>
                       </use>
               </g>
        </defs>

<script type="text/javascript">
var viewWidth = 845;
var viewHeight = 197;
var sectionId = 'dynsection-46';
</script>
<script xlink:href="svgpan.js"/>
<svg id="graph" class="graph">
<g id="viewport">
<title>denoptim.utils.MoleculeUtils.normalizeBondAngleScore</title>
<polygon fill="white" stroke="transparent" points="-4,4 -4,-192.5 841,-192.5 841,4 -4,4"/>
<!-- Node1 -->
<g id="node1" class="node">
<title>Node1</title>
<g id="a_node1"><a xlink:title="Normalizes the raw bond angle agreement data to a single score.">
<polygon fill="#bfbfbf" stroke="black" points="655,-87 655,-117 837,-117 837,-87 655,-87"/>
<text text-anchor="start" x="663" y="-105" font-family="Helvetica,sans-Serif" font-size="10.00">denoptim.utils.MoleculeUtils.normalize</text>
<text text-anchor="middle" x="746" y="-94" font-family="Helvetica,sans-Serif" font-size="10.00">BondAngleScore</text>
</a>
</g>
</g>
<!-- Node2 -->
<g id="node2" class="node">
<title>Node2</title>
<g id="a_node2"><a xlink:href="classdenoptim_1_1utils_1_1_molecule_utils.html#a696950b738bc2c4d0374ffb7323f8263" target="_top" xlink:title="Finds the maximum common substructure (MCS) between two molecules.">
<polygon fill="white" stroke="black" points="230.5,-109 230.5,-139 385.5,-139 385.5,-109 230.5,-109"/>
<text text-anchor="start" x="238.5" y="-127" font-family="Helvetica,sans-Serif" font-size="10.00">denoptim.utils.MoleculeUtils.find</text>
<text text-anchor="middle" x="308" y="-116" font-family="Helvetica,sans-Serif" font-size="10.00">BestAtomMapping</text>
</a>
</g>
</g>
<!-- Node1&#45;&gt;Node2 -->
<g id="edge1" class="edge">
<title>Node1&#45;&gt;Node2</title>
<path fill="none" stroke="midnightblue" d="M644.5,-107.07C565.74,-111.05 457.8,-116.49 385.85,-120.12"/>
<polygon fill="midnightblue" stroke="midnightblue" points="645.11,-110.54 654.92,-106.55 644.76,-103.55 645.11,-110.54"/>
</g>
<!-- Node4 -->
<g id="node4" class="node">
<title>Node4</title>
<g id="a_node4"><a xlink:href="classdenoptim_1_1utils_1_1_molecule_utils_test.html#accf229046c6a2cbbe4c666df334d9d48" target="_top" xlink:title=" ">
<polygon fill="white" stroke="black" points="14.5,-158 14.5,-188 172.5,-188 172.5,-158 14.5,-158"/>
<text text-anchor="start" x="22.5" y="-176" font-family="Helvetica,sans-Serif" font-size="10.00">denoptim.utils.MoleculeUtils</text>
<text text-anchor="middle" x="93.5" y="-165" font-family="Helvetica,sans-Serif" font-size="10.00">Test.testFindAtomMappingChiral</text>
</a>
</g>
</g>
<!-- Node1&#45;&gt;Node4 -->
<g id="edge11" class="edge">
<title>Node1&#45;&gt;Node4</title>
<path fill="none" stroke="midnightblue" d="M665.56,-119C650.16,-121.94 634.11,-124.77 619,-127 461.43,-150.24 275.36,-163.16 172.59,-169.03"/>
<polygon fill="midnightblue" stroke="midnightblue" points="666.42,-122.4 675.56,-117.05 665.08,-115.53 666.42,-122.4"/>
</g>
<!-- Node7 -->
<g id="node7" class="node">
<title>Node7</title>
<g id="a_node7"><a xlink:href="classdenoptim_1_1utils_1_1_molecule_utils.html#a8f4bc0f5aed8b6b13d69bd58b6a2c441" target="_top" xlink:title="Finds the maximum common substructure (MCS) between two molecules.">
<polygon fill="white" stroke="black" points="446.5,-65 446.5,-95 601.5,-95 601.5,-65 446.5,-65"/>
<text text-anchor="start" x="454.5" y="-83" font-family="Helvetica,sans-Serif" font-size="10.00">denoptim.utils.MoleculeUtils.find</text>
<text text-anchor="middle" x="524" y="-72" font-family="Helvetica,sans-Serif" font-size="10.00">UniqueAtomMappings</text>
</a>
</g>
</g>
<!-- Node1&#45;&gt;Node7 -->
<g id="edge6" class="edge">
<title>Node1&#45;&gt;Node7</title>
<path fill="none" stroke="midnightblue" d="M644.88,-91.99C630.35,-90.53 615.59,-89.06 601.62,-87.66"/>
<polygon fill="midnightblue" stroke="midnightblue" points="644.58,-95.48 654.88,-92.99 645.28,-88.51 644.58,-95.48"/>
</g>
<!-- Node10 -->
<g id="node10" class="node">
<title>Node10</title>
<g id="a_node10"><a xlink:href="classdenoptim_1_1utils_1_1_molecule_utils_test.html#a5969045ed8fee680a8f17e250f566a61" target="_top" xlink:title=" ">
<polygon fill="white" stroke="black" points="429,-16 429,-46 619,-46 619,-16 429,-16"/>
<text text-anchor="start" x="437" y="-34" font-family="Helvetica,sans-Serif" font-size="10.00">denoptim.utils.MoleculeUtils</text>
<text text-anchor="middle" x="524" y="-23" font-family="Helvetica,sans-Serif" font-size="10.00">Test.testCalculateBondAngleAgreement</text>
</a>
</g>
</g>
<!-- Node1&#45;&gt;Node10 -->
<g id="edge10" class="edge">
<title>Node1&#45;&gt;Node10</title>
<path fill="none" stroke="midnightblue" d="M696.77,-83.24C673.45,-74.46 644.95,-64.17 619,-56 608.05,-52.55 596.28,-49.17 584.91,-46.07"/>
<polygon fill="midnightblue" stroke="midnightblue" points="695.84,-86.62 706.43,-86.89 698.32,-80.08 695.84,-86.62"/>
</g>
<!-- Node3 -->
<g id="node3" class="node">
<title>Node3</title>
<g id="a_node3"><a xlink:href="classdenoptim_1_1utils_1_1_molecule_utils_test.html#af1090ba854a9e9d45025caef88fc8123" target="_top" xlink:title=" ">
<polygon fill="white" stroke="black" points="24.5,-109 24.5,-139 162.5,-139 162.5,-109 24.5,-109"/>
<text text-anchor="start" x="32.5" y="-127" font-family="Helvetica,sans-Serif" font-size="10.00">denoptim.utils.MoleculeUtils</text>
<text text-anchor="middle" x="93.5" y="-116" font-family="Helvetica,sans-Serif" font-size="10.00">Test.testFindAtomMapping</text>
</a>
</g>
</g>
<!-- Node2&#45;&gt;Node3 -->
<g id="edge2" class="edge">
<title>Node2&#45;&gt;Node3</title>
<path fill="none" stroke="midnightblue" d="M220.06,-124C200.92,-124 180.92,-124 162.65,-124"/>
<polygon fill="midnightblue" stroke="midnightblue" points="220.28,-127.5 230.28,-124 220.28,-120.5 220.28,-127.5"/>
</g>
<!-- Node2&#45;&gt;Node4 -->
<g id="edge3" class="edge">
<title>Node2&#45;&gt;Node4</title>
<path fill="none" stroke="midnightblue" d="M231.84,-141.33C208.25,-146.77 182.41,-152.73 159.58,-157.99"/>
<polygon fill="midnightblue" stroke="midnightblue" points="232.84,-144.69 241.8,-139.03 231.27,-137.87 232.84,-144.69"/>
</g>
<!-- Node5 -->
<g id="node5" class="node">
<title>Node5</title>
<g id="a_node5"><a xlink:href="classdenoptim_1_1utils_1_1_molecule_utils_test.html#af0d3ad21b92dea372bed6dc8f3499332" target="_top" xlink:title=" ">
<polygon fill="white" stroke="black" points="7,-60 7,-90 180,-90 180,-60 7,-60"/>
<text text-anchor="start" x="15" y="-78" font-family="Helvetica,sans-Serif" font-size="10.00">denoptim.utils.MoleculeUtils</text>
<text text-anchor="middle" x="93.5" y="-67" font-family="Helvetica,sans-Serif" font-size="10.00">Test.testFindAtomMappingNoMatch</text>
</a>
</g>
</g>
<!-- Node2&#45;&gt;Node5 -->
<g id="edge4" class="edge">
<title>Node2&#45;&gt;Node5</title>
<path fill="none" stroke="midnightblue" d="M231.84,-106.67C208.25,-101.23 182.41,-95.27 159.58,-90.01"/>
<polygon fill="midnightblue" stroke="midnightblue" points="231.27,-110.13 241.8,-108.97 232.84,-103.31 231.27,-110.13"/>
</g>
<!-- Node6 -->
<g id="node6" class="node">
<title>Node6</title>
<g id="a_node6"><a xlink:href="classdenoptim_1_1utils_1_1_molecule_utils_test.html#a7855947abc6f7080233f36fa13aba864" target="_top" xlink:title=" ">
<polygon fill="white" stroke="black" points="0,-0.5 0,-41.5 187,-41.5 187,-0.5 0,-0.5"/>
<text text-anchor="start" x="8" y="-29.5" font-family="Helvetica,sans-Serif" font-size="10.00">denoptim.utils.MoleculeUtils</text>
<text text-anchor="start" x="8" y="-18.5" font-family="Helvetica,sans-Serif" font-size="10.00">Test.testFindAtomMappingWithMultiple</text>
<text text-anchor="middle" x="93.5" y="-7.5" font-family="Helvetica,sans-Serif" font-size="10.00">Matches</text>
</a>
</g>
</g>
<!-- Node2&#45;&gt;Node6 -->
<g id="edge5" class="edge">
<title>Node2&#45;&gt;Node6</title>
<path fill="none" stroke="midnightblue" d="M230.05,-104.41C227.62,-103.04 225.26,-101.57 223,-100 200.82,-84.57 208.91,-66.82 187,-51 182.07,-47.44 176.7,-44.29 171.11,-41.5"/>
<polygon fill="midnightblue" stroke="midnightblue" points="228.64,-107.62 239.15,-108.97 231.78,-101.36 228.64,-107.62"/>
</g>
<!-- Node7&#45;&gt;Node2 -->
<g id="edge7" class="edge">
<title>Node7&#45;&gt;Node2</title>
<path fill="none" stroke="midnightblue" d="M440.07,-97.05C420.95,-100.98 400.75,-105.14 382.08,-108.97"/>
<polygon fill="midnightblue" stroke="midnightblue" points="440.86,-100.46 449.95,-95.02 439.45,-93.6 440.86,-100.46"/>
</g>
<!-- Node8 -->
<g id="node8" class="node">
<title>Node8</title>
<g id="a_node8"><a xlink:href="classdenoptim_1_1fragmenter_1_1_fragmenter_tools.html#a106372ea68c25ed99afb71e15bc0671c" target="_top" xlink:title="Chops one chemical structure by applying the given fragmentation templates.">
<polygon fill="white" stroke="black" points="229.5,-60 229.5,-90 386.5,-90 386.5,-60 229.5,-60"/>
<text text-anchor="start" x="237.5" y="-78" font-family="Helvetica,sans-Serif" font-size="10.00">denoptim.fragmenter.Fragmenter</text>
<text text-anchor="middle" x="308" y="-67" font-family="Helvetica,sans-Serif" font-size="10.00">Tools.fragmentation</text>
</a>
</g>
</g>
<!-- Node7&#45;&gt;Node8 -->
<g id="edge8" class="edge">
<title>Node7&#45;&gt;Node8</title>
<path fill="none" stroke="midnightblue" d="M436.21,-77.97C419.78,-77.59 402.69,-77.19 386.56,-76.81"/>
<polygon fill="midnightblue" stroke="midnightblue" points="436.27,-81.47 446.35,-78.21 436.43,-74.48 436.27,-81.47"/>
</g>
<!-- Node9 -->
<g id="node9" class="node">
<title>Node9</title>
<g id="a_node9"><a xlink:href="classdenoptim_1_1utils_1_1_molecule_utils_test.html#a6da9adc51a6398c68934fb16deeb9a97" target="_top" xlink:title=" ">
<polygon fill="white" stroke="black" points="223,-0.5 223,-41.5 393,-41.5 393,-0.5 223,-0.5"/>
<text text-anchor="start" x="231" y="-29.5" font-family="Helvetica,sans-Serif" font-size="10.00">denoptim.utils.MoleculeUtils</text>
<text text-anchor="start" x="231" y="-18.5" font-family="Helvetica,sans-Serif" font-size="10.00">Test.testFindUniqueAtomMappings</text>
<text text-anchor="middle" x="308" y="-7.5" font-family="Helvetica,sans-Serif" font-size="10.00">MultipleOccurrences</text>
</a>
</g>
</g>
<!-- Node7&#45;&gt;Node9 -->
<g id="edge9" class="edge">
<title>Node7&#45;&gt;Node9</title>
<path fill="none" stroke="midnightblue" d="M452.93,-62.39C444.85,-60.28 436.74,-58.12 429,-56 412.46,-51.48 394.7,-46.41 378.05,-41.57"/>
<polygon fill="midnightblue" stroke="midnightblue" points="452.19,-65.81 462.75,-64.94 453.95,-59.04 452.19,-65.81"/>
</g>
</g>
</svg>
        <g id="navigator" transform="translate(0 0)" fill="#404254">
                <rect fill="#f2f5e9" fill-opacity="0.5" stroke="#606060" stroke-width=".5" x="0" y="0" width="60" height="60"/>
                <use id="zoomplus" xlink:href="#zoomPlus" x="17" y="9" onmousedown="handleZoom(evt,'in')"/>
                <use id="zoomminus" xlink:href="#zoomMin" x="42" y="9" onmousedown="handleZoom(evt,'out')"/>
                <use id="reset" xlink:href="#resetDef" x="30" y="36" onmousedown="handleReset()"/>
                <g id="arrowUp" xlink:href="#dirArrow" transform="translate(30 24)" onmousedown="handlePan(0,-1)">
                  <use xlink:href="#rim" fill="#404040">
                        <set attributeName="fill" to="#808080" begin="arrowUp.mouseover" end="arrowUp.mouseout"/>
                  </use>
                  <path fill="none" stroke="white" stroke-width="1.5" d="M0,-3.0v7 M-2.5,-0.5L0,-3.0L2.5,-0.5"/>
                </g>
                <g id="arrowRight" xlink:href="#dirArrow" transform="rotate(90) translate(36 -43)" onmousedown="handlePan(1,0)">
                  <use xlink:href="#rim" fill="#404040">
                        <set attributeName="fill" to="#808080" begin="arrowRight.mouseover" end="arrowRight.mouseout"/>
                  </use>
                  <path fill="none" stroke="white" stroke-width="1.5" d="M0,-3.0v7 M-2.5,-0.5L0,-3.0L2.5,-0.5"/>
                </g>
                <g id="arrowDown" xlink:href="#dirArrow" transform="rotate(180) translate(-30 -48)" onmousedown="handlePan(0,1)">
                  <use xlink:href="#rim" fill="#404040">
                        <set attributeName="fill" to="#808080" begin="arrowDown.mouseover" end="arrowDown.mouseout"/>
                  </use>
                  <path fill="none" stroke="white" stroke-width="1.5" d="M0,-3.0v7 M-2.5,-0.5L0,-3.0L2.5,-0.5"/>
                </g>
                <g id="arrowLeft" xlink:href="#dirArrow" transform="rotate(270) translate(-36 17)" onmousedown="handlePan(-1,0)">
                  <use xlink:href="#rim" fill="#404040">
                        <set attributeName="fill" to="#808080" begin="arrowLeft.mouseover" end="arrowLeft.mouseout"/>
                  </use>
                  <path fill="none" stroke="white" stroke-width="1.5" d="M0,-3.0v7 M-2.5,-0.5L0,-3.0L2.5,-0.5"/>
                </g>
        </g>
        <svg viewBox="0 0 15 15" width="100%" height="30px" preserveAspectRatio="xMaxYMin meet">
         <g id="arrow_out" transform="scale(0.3 0.3)">
          <a xlink:href="classdenoptim_1_1utils_1_1_molecule_utils_a328ac35ce6ed2f5d61be7142fb8cf12c_icgraph_org.svg" target="_base">
           <rect id="button" ry="5" rx="5" y="6" x="6" height="38" width="38"
                fill="#f2f5e9" fill-opacity="0.5" stroke="#606060" stroke-width="1.0"/>
           <path id="arrow"
             d="M 11.500037,31.436501 C 11.940474,20.09759 22.043105,11.32322 32.158766,21.979434 L 37.068811,17.246167 C 37.068811,17.246167 37.088388,32 37.088388,32 L 22.160133,31.978069 C 22.160133,31.978069 26.997745,27.140456 26.997745,27.140456 C 18.528582,18.264221 13.291696,25.230495 11.500037,31.436501 z"
             style="fill:#404040;"/>
          </a>
         </g>
        </svg>
</svg>
