<?xml version="1.0" encoding="UTF-8" standalone="no"?>
<!DOCTYPE svg PUBLIC "-//W3C//DTD SVG 1.1//EN"
 "http://www.w3.org/Graphics/SVG/1.1/DTD/svg11.dtd">
<!-- Generated by graphviz version 3.0.0 (20221109.1736)
 -->
<!-- Title: denoptim.gui.GraphVertexMolViewerPanel.getSelectedNodesInViewer Pages: 1 -->
<svg width="592pt" height="50pt"
 viewBox="0.00 0.00 592.00 50.00" xmlns="http://www.w3.org/2000/svg" xmlns:xlink="http://www.w3.org/1999/xlink">
<g id="graph0" class="graph" transform="scale(1 1) rotate(0) translate(4 46)">
<title>denoptim.gui.GraphVertexMolViewerPanel.getSelectedNodesInViewer</title>
<polygon fill="white" stroke="transparent" points="-4,4 -4,-46 588,-46 588,4 -4,4"/>
<!-- Node1 -->
<g id="node1" class="node">
<title>Node1</title>
<g id="a_node1"><a xlink:title="Identifies which vertices are selected in the graph viewer.">
<polygon fill="#bfbfbf" stroke="black" points="414,-0.5 414,-41.5 584,-41.5 584,-0.5 414,-0.5"/>
<text text-anchor="start" x="422" y="-29.5" font-family="Helvetica,sans-Serif" font-size="10.00">denoptim.gui.GraphVertex</text>
<text text-anchor="start" x="422" y="-18.5" font-family="Helvetica,sans-Serif" font-size="10.00">MolViewerPanel.getSelectedNodes</text>
<text text-anchor="middle" x="499" y="-7.5" font-family="Helvetica,sans-Serif" font-size="10.00">InViewer</text>
</a>
</g>
</g>
<!-- Node2 -->
<g id="node2" class="node">
<title>Node2</title>
<g id="a_node2"><a xlink:href="classdenoptim_1_1gui_1_1_g_u_i_graph_handler.html#af5b000c105018cbd7c262b34f9750044" target="_top" xlink:title="Initialize the panel and add buttons.">
<polygon fill="white" stroke="black" points="190,-11.5 190,-30.5 378,-30.5 378,-11.5 190,-11.5"/>
<text text-anchor="middle" x="284" y="-18.5" font-family="Helvetica,sans-Serif" font-size="10.00">denoptim.gui.GUIGraphHandler.initialize</text>
</a>
</g>
</g>
<!-- Node1&#45;&gt;Node2 -->
<g id="edge1" class="edge">
<title>Node1&#45;&gt;Node2</title>
<path fill="none" stroke="midnightblue" d="M403.55,-21C395.08,-21 386.51,-21 378.05,-21"/>
<polygon fill="midnightblue" stroke="midnightblue" points="403.82,-24.5 413.82,-21 403.82,-17.5 403.82,-24.5"/>
</g>
<!-- Node3 -->
<g id="node3" class="node">
<title>Node3</title>
<g id="a_node3"><a xlink:href="classdenoptim_1_1gui_1_1_g_u_i_graph_handler.html#ab7d010d9a384f6b85edce47c95d6723b" target="_top" xlink:title="Constructor.">
<polygon fill="white" stroke="black" points="0,-6 0,-36 154,-36 154,-6 0,-6"/>
<text text-anchor="start" x="8" y="-24" font-family="Helvetica,sans-Serif" font-size="10.00">denoptim.gui.GUIGraphHandler.</text>
<text text-anchor="middle" x="77" y="-13" font-family="Helvetica,sans-Serif" font-size="10.00">GUIGraphHandler</text>
</a>
</g>
</g>
<!-- Node2&#45;&gt;Node3 -->
<g id="edge2" class="edge">
<title>Node2&#45;&gt;Node3</title>
<path fill="none" stroke="midnightblue" d="M179.69,-21C171.07,-21 162.45,-21 154.09,-21"/>
<polygon fill="midnightblue" stroke="midnightblue" points="179.8,-24.5 189.8,-21 179.8,-17.5 179.8,-24.5"/>
</g>
</g>
</svg>
