<?xml version="1.0" encoding="UTF-8" standalone="no"?>
<!DOCTYPE svg PUBLIC "-//W3C//DTD SVG 1.1//EN"
 "http://www.w3.org/Graphics/SVG/1.1/DTD/svg11.dtd">
<!-- Generated by graphviz version 3.0.0 (20221109.1736)
 -->
<!-- Title: denoptim.fragmenter.FragmenterTools.fragmentation Pages: 1 -->
<svg width="541pt" height="243pt"
 viewBox="0.00 0.00 541.00 243.00" xmlns="http://www.w3.org/2000/svg" xmlns:xlink="http://www.w3.org/1999/xlink">
<g id="graph0" class="graph" transform="scale(1 1) rotate(0) translate(4 239)">
<title>denoptim.fragmenter.FragmenterTools.fragmentation</title>
<polygon fill="white" stroke="transparent" points="-4,4 -4,-239 537,-239 537,4 -4,4"/>
<!-- Node1 -->
<g id="node1" class="node">
<title>Node1</title>
<g id="a_node1"><a xlink:title="Performs fragmentation according to the given cutting rules.">
<polygon fill="#bfbfbf" stroke="black" points="0,-88.5 0,-118.5 157,-118.5 157,-88.5 0,-88.5"/>
<text text-anchor="start" x="8" y="-106.5" font-family="Helvetica,sans-Serif" font-size="10.00">denoptim.fragmenter.Fragmenter</text>
<text text-anchor="middle" x="78.5" y="-95.5" font-family="Helvetica,sans-Serif" font-size="10.00">Tools.fragmentation</text>
</a>
</g>
</g>
<!-- Node1&#45;&gt;Node1 -->
<g id="edge2" class="edge">
<title>Node1&#45;&gt;Node1</title>
<path fill="none" stroke="midnightblue" d="M44.69,-118.66C36.54,-128.06 47.81,-137 78.5,-137 97.2,-137 108.69,-133.68 112.97,-128.96"/>
<polygon fill="midnightblue" stroke="midnightblue" points="116.44,-128.41 112.31,-118.66 109.46,-128.86 116.44,-128.41"/>
</g>
<!-- Node2 -->
<g id="node2" class="node">
<title>Node2</title>
<g id="a_node2"><a xlink:href="classdenoptim_1_1io_1_1_iterating_atom_container_reader.html#a79eaaa08cc9353e5ebc47066b7cc99eb" target="_top" xlink:title="Close the memory&#45;efficient iterator if any is open.">
<polygon fill="white" stroke="black" points="210,-204.5 210,-234.5 337,-234.5 337,-204.5 210,-204.5"/>
<text text-anchor="start" x="218" y="-222.5" font-family="Helvetica,sans-Serif" font-size="10.00">denoptim.io.IteratingAtom</text>
<text text-anchor="middle" x="273.5" y="-211.5" font-family="Helvetica,sans-Serif" font-size="10.00">ContainerReader.close</text>
</a>
</g>
</g>
<!-- Node1&#45;&gt;Node2 -->
<g id="edge1" class="edge">
<title>Node1&#45;&gt;Node2</title>
<path fill="none" stroke="midnightblue" d="M94.27,-118.72C114.7,-138.95 153.55,-174.6 193,-195.5 196.48,-197.35 200.13,-199.07 203.86,-200.68"/>
<polygon fill="midnightblue" stroke="midnightblue" points="202.7,-203.98 213.29,-204.44 205.3,-197.48 202.7,-203.98"/>
</g>
<!-- Node3 -->
<g id="node3" class="node">
<title>Node3</title>
<g id="a_node3"><a xlink:href="classdenoptim_1_1io_1_1_iterating_atom_container_reader.html#a9ed0aa4606b687bc3fdeb787fd5535b1" target="_top" xlink:title=" ">
<polygon fill="white" stroke="black" points="210,-155.5 210,-185.5 337,-185.5 337,-155.5 210,-155.5"/>
<text text-anchor="start" x="218" y="-173.5" font-family="Helvetica,sans-Serif" font-size="10.00">denoptim.io.IteratingAtom</text>
<text text-anchor="middle" x="273.5" y="-162.5" font-family="Helvetica,sans-Serif" font-size="10.00">ContainerReader.hasNext</text>
</a>
</g>
</g>
<!-- Node1&#45;&gt;Node3 -->
<g id="edge3" class="edge">
<title>Node1&#45;&gt;Node3</title>
<path fill="none" stroke="midnightblue" d="M117.36,-118.59C139.31,-127.15 167.56,-137.85 193,-146.5 198.82,-148.48 204.91,-150.47 211.02,-152.4"/>
<polygon fill="midnightblue" stroke="midnightblue" points="210,-155.75 220.59,-155.39 212.09,-149.07 210,-155.75"/>
</g>
<!-- Node4 -->
<g id="node4" class="node">
<title>Node4</title>
<g id="a_node4"><a xlink:href="classdenoptim_1_1fragmenter_1_1_fragmenter_tools.html#ad312193f52098cff1378a43050403fb8" target="_top" xlink:title="Management of fragments: includes application of fragment filters, rejection rules,...">
<polygon fill="white" stroke="black" points="193,-88.5 193,-118.5 354,-118.5 354,-88.5 193,-88.5"/>
<text text-anchor="start" x="201" y="-106.5" font-family="Helvetica,sans-Serif" font-size="10.00">denoptim.fragmenter.Fragmenter</text>
<text text-anchor="middle" x="273.5" y="-95.5" font-family="Helvetica,sans-Serif" font-size="10.00">Tools.manageFragmentCollection</text>
</a>
</g>
</g>
<!-- Node1&#45;&gt;Node4 -->
<g id="edge4" class="edge">
<title>Node1&#45;&gt;Node4</title>
<path fill="none" stroke="midnightblue" d="M157.17,-103.5C165.51,-103.5 174.04,-103.5 182.51,-103.5"/>
<polygon fill="midnightblue" stroke="midnightblue" points="182.79,-107 192.79,-103.5 182.79,-100 182.79,-107"/>
</g>
<!-- Node5 -->
<g id="node5" class="node">
<title>Node5</title>
<g id="a_node5"><a xlink:href="classdenoptim_1_1io_1_1_denoptim_i_o.html#a04cf8bea6e235a0adf12e95708d7f627" target="_top" xlink:title="Writes vertexes to file.">
<polygon fill="white" stroke="black" points="390,-66.5 390,-96.5 533,-96.5 533,-66.5 390,-66.5"/>
<text text-anchor="start" x="398" y="-84.5" font-family="Helvetica,sans-Serif" font-size="10.00">denoptim.io.DenoptimIO.write</text>
<text text-anchor="middle" x="461.5" y="-73.5" font-family="Helvetica,sans-Serif" font-size="10.00">VertexesToFile</text>
</a>
</g>
</g>
<!-- Node1&#45;&gt;Node5 -->
<g id="edge9" class="edge">
<title>Node1&#45;&gt;Node5</title>
<path fill="none" stroke="midnightblue" d="M139.21,-88.44C156.45,-84.76 175.37,-81.34 193,-79.5 255.49,-72.97 326.63,-73.9 379.84,-76.23"/>
<polygon fill="midnightblue" stroke="midnightblue" points="379.74,-79.73 389.89,-76.69 380.06,-72.73 379.74,-79.73"/>
</g>
<!-- Node6 -->
<g id="node6" class="node">
<title>Node6</title>
<g id="a_node6"><a xlink:href="classdenoptim_1_1io_1_1_iterating_atom_container_reader.html#af5ec56eba56e5fd3898d162206d78c34" target="_top" xlink:title=" ">
<polygon fill="white" stroke="black" points="210,-0.5 210,-30.5 337,-30.5 337,-0.5 210,-0.5"/>
<text text-anchor="start" x="218" y="-18.5" font-family="Helvetica,sans-Serif" font-size="10.00">denoptim.io.IteratingAtom</text>
<text text-anchor="middle" x="273.5" y="-7.5" font-family="Helvetica,sans-Serif" font-size="10.00">ContainerReader.next</text>
</a>
</g>
</g>
<!-- Node1&#45;&gt;Node6 -->
<g id="edge8" class="edge">
<title>Node1&#45;&gt;Node6</title>
<path fill="none" stroke="midnightblue" d="M107.07,-88.32C129.8,-76.07 163.05,-58.75 193,-45.5 201.81,-41.6 211.3,-37.74 220.55,-34.15"/>
<polygon fill="midnightblue" stroke="midnightblue" points="221.97,-37.35 230.06,-30.51 219.47,-30.81 221.97,-37.35"/>
</g>
<!-- Node4&#45;&gt;Node4 -->
<g id="edge5" class="edge">
<title>Node4&#45;&gt;Node4</title>
<path fill="none" stroke="midnightblue" d="M240.74,-118.66C232.84,-128.06 243.76,-137 273.5,-137 291.62,-137 302.76,-133.68 306.91,-128.96"/>
<polygon fill="midnightblue" stroke="midnightblue" points="310.38,-128.42 306.26,-118.66 303.39,-128.86 310.38,-128.42"/>
</g>
<!-- Node4&#45;&gt;Node5 -->
<g id="edge6" class="edge">
<title>Node4&#45;&gt;Node5</title>
<path fill="none" stroke="midnightblue" d="M354.19,-94.07C362.6,-93.08 371.16,-92.07 379.59,-91.07"/>
<polygon fill="midnightblue" stroke="midnightblue" points="380.26,-94.52 389.78,-89.86 379.44,-87.56 380.26,-94.52"/>
</g>
<!-- Node5&#45;&gt;Node5 -->
<g id="edge7" class="edge">
<title>Node5&#45;&gt;Node5</title>
<path fill="none" stroke="midnightblue" d="M428.74,-96.66C420.84,-106.06 431.76,-115 461.5,-115 479.62,-115 490.76,-111.68 494.91,-106.96"/>
<polygon fill="midnightblue" stroke="midnightblue" points="498.38,-106.42 494.26,-96.66 491.39,-106.86 498.38,-106.42"/>
</g>
</g>
</svg>
