<?xml version="1.0" encoding="UTF-8" standalone="no"?>
<!DOCTYPE svg PUBLIC "-//W3C//DTD SVG 1.1//EN"
 "http://www.w3.org/Graphics/SVG/1.1/DTD/svg11.dtd">
<!-- Generated by graphviz version 3.0.0 (20221109.1736)
 -->
<!-- Title: denoptim.fragspace.FragmentSpace.addFusedRingsToFragmentLibrary Pages: 1 -->
<svg width="436pt" height="57pt"
 viewBox="0.00 0.00 436.00 57.00" xmlns="http://www.w3.org/2000/svg" xmlns:xlink="http://www.w3.org/1999/xlink">
<g id="graph0" class="graph" transform="scale(1 1) rotate(0) translate(4 53)">
<title>denoptim.fragspace.FragmentSpace.addFusedRingsToFragmentLibrary</title>
<polygon fill="white" stroke="transparent" points="-4,4 -4,-53 432,-53 432,4 -4,4"/>
<!-- Node1 -->
<g id="node1" class="node">
<title>Node1</title>
<g id="a_node1"><a xlink:title="Extracts a system of one or more fused rings and adds them to the fragment space if not already prese...">
<polygon fill="#bfbfbf" stroke="black" points="0,-0.5 0,-30.5 196,-30.5 196,-0.5 0,-0.5"/>
<text text-anchor="start" x="8" y="-18.5" font-family="Helvetica,sans-Serif" font-size="10.00">denoptim.fragspace.Fragment</text>
<text text-anchor="middle" x="98" y="-7.5" font-family="Helvetica,sans-Serif" font-size="10.00">Space.addFusedRingsToFragmentLibrary</text>
</a>
</g>
</g>
<!-- Node2 -->
<g id="node2" class="node">
<title>Node2</title>
<g id="a_node2"><a xlink:href="classdenoptim_1_1fragspace_1_1_fragment_space.html#ad122ca1716c77c1f628596a723b5d63f" target="_top" xlink:title="Extracts a system of one or more fused rings and adds them to the fragment space if not already prese...">
<polygon fill="white" stroke="black" points="232,-0.5 232,-30.5 428,-30.5 428,-0.5 232,-0.5"/>
<text text-anchor="start" x="240" y="-18.5" font-family="Helvetica,sans-Serif" font-size="10.00">denoptim.fragspace.Fragment</text>
<text text-anchor="middle" x="330" y="-7.5" font-family="Helvetica,sans-Serif" font-size="10.00">Space.addFusedRingsToFragmentLibrary</text>
</a>
</g>
</g>
<!-- Node1&#45;&gt;Node2 -->
<g id="edge1" class="edge">
<title>Node1&#45;&gt;Node2</title>
<path fill="none" stroke="midnightblue" d="M196.21,-15.5C204.57,-15.5 213.07,-15.5 221.51,-15.5"/>
<polygon fill="midnightblue" stroke="midnightblue" points="221.77,-19 231.77,-15.5 221.77,-12 221.77,-19"/>
</g>
<!-- Node2&#45;&gt;Node2 -->
<g id="edge2" class="edge">
<title>Node2&#45;&gt;Node2</title>
<path fill="none" stroke="midnightblue" d="M289.92,-30.66C280.25,-40.06 293.61,-49 330,-49 352.74,-49 366.49,-45.51 371.24,-40.59"/>
<polygon fill="midnightblue" stroke="midnightblue" points="374.72,-40.19 370.08,-30.66 367.77,-41 374.72,-40.19"/>
</g>
</g>
</svg>
