<?xml version="1.0" encoding="UTF-8" standalone="no"?>
<!DOCTYPE svg PUBLIC "-//W3C//DTD SVG 1.1//EN"
 "http://www.w3.org/Graphics/SVG/1.1/DTD/svg11.dtd">
<!-- Generated by graphviz version 3.0.0 (20221109.1736)
 -->
<!-- Title: denoptim.graph.simplified.UndirectedEdge.makeInvariant Pages: 1 -->
<svg width="1766pt" height="641pt"
 viewBox="0.00 0.00 1766.00 641.00" xmlns="http://www.w3.org/2000/svg" xmlns:xlink="http://www.w3.org/1999/xlink">
<g id="graph0" class="graph" transform="scale(1 1) rotate(0) translate(4 637)">
<title>denoptim.graph.simplified.UndirectedEdge.makeInvariant</title>
<polygon fill="white" stroke="transparent" points="-4,4 -4,-637 1762,-637 1762,4 -4,4"/>
<!-- Node1 -->
<g id="node1" class="node">
<title>Node1</title>
<g id="a_node1"><a xlink:title=" ">
<polygon fill="#bfbfbf" stroke="black" points="1609,-228.5 1609,-258.5 1758,-258.5 1758,-228.5 1609,-228.5"/>
<text text-anchor="start" x="1617" y="-246.5" font-family="Helvetica,sans-Serif" font-size="10.00">denoptim.graph.simplified.</text>
<text text-anchor="middle" x="1683.5" y="-235.5" font-family="Helvetica,sans-Serif" font-size="10.00">UndirectedEdge.makeInvariant</text>
</a>
</g>
</g>
<!-- Node2 -->
<g id="node2" class="node">
<title>Node2</title>
<g id="a_node2"><a xlink:href="classdenoptim_1_1graph_1_1simplified_1_1_undirected_edge.html#ac7a25cc7fa015aee01be6566b4ba19f5" target="_top" xlink:title=" ">
<polygon fill="white" stroke="black" points="1445,-228.5 1445,-258.5 1573,-258.5 1573,-228.5 1445,-228.5"/>
<text text-anchor="start" x="1453" y="-246.5" font-family="Helvetica,sans-Serif" font-size="10.00">denoptim.graph.simplified.</text>
<text text-anchor="middle" x="1509" y="-235.5" font-family="Helvetica,sans-Serif" font-size="10.00">UndirectedEdge.compare</text>
</a>
</g>
</g>
<!-- Node1&#45;&gt;Node2 -->
<g id="edge1" class="edge">
<title>Node1&#45;&gt;Node2</title>
<path fill="none" stroke="midnightblue" d="M1598.74,-243.5C1590.11,-243.5 1581.44,-243.5 1573.08,-243.5"/>
<polygon fill="midnightblue" stroke="midnightblue" points="1598.84,-247 1608.84,-243.5 1598.84,-240 1598.84,-247"/>
</g>
<!-- Node3 -->
<g id="node3" class="node">
<title>Node3</title>
<g id="a_node3"><a xlink:href="classdenoptim_1_1graph_1_1_d_graph.html#a305c9a12afe5bb190894fcd730ef299a" target="_top" xlink:title="Checks if this graph is &quot;DENOPTIM&#45;isomorphic&quot; to the other one given.">
<polygon fill="white" stroke="black" points="1265.5,-255.5 1265.5,-285.5 1393.5,-285.5 1393.5,-255.5 1265.5,-255.5"/>
<text text-anchor="start" x="1273.5" y="-273.5" font-family="Helvetica,sans-Serif" font-size="10.00">denoptim.graph.DGraph.is</text>
<text text-anchor="middle" x="1329.5" y="-262.5" font-family="Helvetica,sans-Serif" font-size="10.00">IsomorphicTo</text>
</a>
</g>
</g>
<!-- Node2&#45;&gt;Node3 -->
<g id="edge2" class="edge">
<title>Node2&#45;&gt;Node3</title>
<path fill="none" stroke="midnightblue" d="M1434.64,-254.66C1421.04,-256.73 1406.94,-258.87 1393.68,-260.89"/>
<polygon fill="midnightblue" stroke="midnightblue" points="1435.56,-258.06 1444.92,-253.1 1434.51,-251.14 1435.56,-258.06"/>
</g>
<!-- Node24 -->
<g id="node24" class="node">
<title>Node24</title>
<g id="a_node24"><a xlink:href="classdenoptim_1_1graph_1_1_undirected_edge_relation_test.html#a5e8d7b8fd7f52918d3750434fc895bc5" target="_top" xlink:title=" ">
<polygon fill="white" stroke="black" points="1250,-196 1250,-237 1409,-237 1409,-196 1250,-196"/>
<text text-anchor="start" x="1258" y="-225" font-family="Helvetica,sans-Serif" font-size="10.00">denoptim.graph.Undirected</text>
<text text-anchor="start" x="1258" y="-214" font-family="Helvetica,sans-Serif" font-size="10.00">EdgeRelationTest.testUndirected</text>
<text text-anchor="middle" x="1329.5" y="-203" font-family="Helvetica,sans-Serif" font-size="10.00">Comparison</text>
</a>
</g>
</g>
<!-- Node2&#45;&gt;Node24 -->
<g id="edge25" class="edge">
<title>Node2&#45;&gt;Node24</title>
<path fill="none" stroke="midnightblue" d="M1434.76,-232.36C1426.33,-231.08 1417.71,-229.77 1409.22,-228.47"/>
<polygon fill="midnightblue" stroke="midnightblue" points="1434.51,-235.86 1444.92,-233.9 1435.56,-228.94 1434.51,-235.86"/>
</g>
<!-- Node4 -->
<g id="node4" class="node">
<title>Node4</title>
<g id="a_node4"><a xlink:href="classdenoptim_1_1ga_1_1_graph_operations.html#a2396c23acf24d07f255b94eb3a2105b7" target="_top" xlink:title="Identify crossover sites, i.e., subgraphs that can be swapped between two graphs (i....">
<polygon fill="white" stroke="black" points="590,-473.5 590,-503.5 763,-503.5 763,-473.5 590,-473.5"/>
<text text-anchor="start" x="598" y="-491.5" font-family="Helvetica,sans-Serif" font-size="10.00">denoptim.ga.GraphOperations.locate</text>
<text text-anchor="middle" x="676.5" y="-480.5" font-family="Helvetica,sans-Serif" font-size="10.00">CompatibleXOverPoints</text>
</a>
</g>
</g>
<!-- Node3&#45;&gt;Node4 -->
<g id="edge3" class="edge">
<title>Node3&#45;&gt;Node4</title>
<path fill="none" stroke="midnightblue" d="M1324.18,-295.56C1314.4,-343.66 1285.57,-447.98 1214,-491.5 1056.23,-587.45 821.07,-532.99 723,-503.54"/>
<polygon fill="midnightblue" stroke="midnightblue" points="1327.64,-296.15 1326.09,-285.67 1320.76,-294.83 1327.64,-296.15"/>
</g>
<!-- Node13 -->
<g id="node13" class="node">
<title>Node13</title>
<g id="a_node13"><a xlink:href="classdenoptim_1_1ga_1_1_graph_operations.html#a65b1468961ba53b217848640d8fd5232" target="_top" xlink:title="Given a pair of seed vertexes that define where a pair of subgraphs stars in the corresponding origin...">
<polygon fill="white" stroke="black" points="1024.5,-451.5 1024.5,-481.5 1206.5,-481.5 1206.5,-451.5 1024.5,-451.5"/>
<text text-anchor="start" x="1032.5" y="-469.5" font-family="Helvetica,sans-Serif" font-size="10.00">denoptim.ga.GraphOperations.process</text>
<text text-anchor="middle" x="1115.5" y="-458.5" font-family="Helvetica,sans-Serif" font-size="10.00">PermutationOfEndPoints</text>
</a>
</g>
</g>
<!-- Node3&#45;&gt;Node13 -->
<g id="edge13" class="edge">
<title>Node3&#45;&gt;Node13</title>
<path fill="none" stroke="midnightblue" d="M1318.85,-295.19C1302.87,-332.72 1267.31,-403.77 1214,-441.5 1208.58,-445.34 1202.62,-448.58 1196.4,-451.33"/>
<polygon fill="midnightblue" stroke="midnightblue" points="1322.25,-296.12 1322.83,-285.54 1315.78,-293.45 1322.25,-296.12"/>
</g>
<!-- Node15 -->
<g id="node15" class="node">
<title>Node15</title>
<g id="a_node15"><a xlink:href="classdenoptim_1_1programs_1_1graphlisthandler_1_1_graph_lists_handler.html#a82e75728262a789cc27189d910b5c74a" target="_top" xlink:title=" ">
<polygon fill="white" stroke="black" points="1029.5,-402.5 1029.5,-432.5 1201.5,-432.5 1201.5,-402.5 1029.5,-402.5"/>
<text text-anchor="start" x="1037.5" y="-420.5" font-family="Helvetica,sans-Serif" font-size="10.00">denoptim.programs.graphlisthandler.</text>
<text text-anchor="middle" x="1115.5" y="-409.5" font-family="Helvetica,sans-Serif" font-size="10.00">GraphListsHandler.runProgram</text>
</a>
</g>
</g>
<!-- Node3&#45;&gt;Node15 -->
<g id="edge16" class="edge">
<title>Node3&#45;&gt;Node15</title>
<path fill="none" stroke="midnightblue" d="M1312.68,-294.22C1292.9,-322 1256.42,-367.42 1214,-392.5 1207.46,-396.37 1200.32,-399.65 1192.99,-402.42"/>
<polygon fill="midnightblue" stroke="midnightblue" points="1315.66,-296.07 1318.51,-285.87 1309.92,-292.07 1315.66,-296.07"/>
</g>
<!-- Node16 -->
<g id="node16" class="node">
<title>Node16</title>
<g id="a_node16"><a xlink:href="classdenoptim_1_1programs_1_1isomorphism_1_1_isomorphism.html#a558ff128682d8685e2c95b8eeea85461" target="_top" xlink:title=" ">
<polygon fill="white" stroke="black" points="1036,-353.5 1036,-383.5 1195,-383.5 1195,-353.5 1036,-353.5"/>
<text text-anchor="start" x="1044" y="-371.5" font-family="Helvetica,sans-Serif" font-size="10.00">denoptim.programs.isomorphism.</text>
<text text-anchor="middle" x="1115.5" y="-360.5" font-family="Helvetica,sans-Serif" font-size="10.00">Isomorphism.runProgram</text>
</a>
</g>
</g>
<!-- Node3&#45;&gt;Node16 -->
<g id="edge17" class="edge">
<title>Node3&#45;&gt;Node16</title>
<path fill="none" stroke="midnightblue" d="M1300.58,-291.88C1278.23,-308.09 1245.5,-329.83 1214,-343.5 1205.26,-347.29 1195.83,-350.6 1186.39,-353.46"/>
<polygon fill="midnightblue" stroke="midnightblue" points="1302.93,-294.49 1308.91,-285.75 1298.78,-288.86 1302.93,-294.49"/>
</g>
<!-- Node17 -->
<g id="node17" class="node">
<title>Node17</title>
<g id="a_node17"><a xlink:href="classdenoptim_1_1ga_1_1_e_a_utils_test.html#ae0baa3684be9b8a4af611083649a9e6d" target="_top" xlink:title=" ">
<polygon fill="white" stroke="black" points="1017,-304.5 1017,-334.5 1214,-334.5 1214,-304.5 1017,-304.5"/>
<text text-anchor="start" x="1025" y="-322.5" font-family="Helvetica,sans-Serif" font-size="10.00">denoptim.ga.EAUtilsTest.test</text>
<text text-anchor="middle" x="1115.5" y="-311.5" font-family="Helvetica,sans-Serif" font-size="10.00">BuildByXOver_Embedded_FixedStructure</text>
</a>
</g>
</g>
<!-- Node3&#45;&gt;Node17 -->
<g id="edge18" class="edge">
<title>Node3&#45;&gt;Node17</title>
<path fill="none" stroke="midnightblue" d="M1255.67,-287.33C1231.58,-292.9 1204.95,-299.06 1181.49,-304.48"/>
<polygon fill="midnightblue" stroke="midnightblue" points="1256.51,-290.73 1265.47,-285.07 1254.94,-283.91 1256.51,-290.73"/>
</g>
<!-- Node18 -->
<g id="node18" class="node">
<title>Node18</title>
<g id="a_node18"><a xlink:href="classdenoptim_1_1graph_1_1_d_graph_test.html#a6b4a7a889a0e36c8b2dc97bcd8055c9e" target="_top" xlink:title=" ">
<polygon fill="white" stroke="black" points="1037.5,-255.5 1037.5,-285.5 1193.5,-285.5 1193.5,-255.5 1037.5,-255.5"/>
<text text-anchor="start" x="1045.5" y="-273.5" font-family="Helvetica,sans-Serif" font-size="10.00">denoptim.graph.DGraphTest.test</text>
<text text-anchor="middle" x="1115.5" y="-262.5" font-family="Helvetica,sans-Serif" font-size="10.00">ExtractSubgraph</text>
</a>
</g>
</g>
<!-- Node3&#45;&gt;Node18 -->
<g id="edge19" class="edge">
<title>Node3&#45;&gt;Node18</title>
<path fill="none" stroke="midnightblue" d="M1255.22,-270.5C1235.3,-270.5 1213.67,-270.5 1193.54,-270.5"/>
<polygon fill="midnightblue" stroke="midnightblue" points="1255.47,-274 1265.47,-270.5 1255.47,-267 1255.47,-274"/>
</g>
<!-- Node19 -->
<g id="node19" class="node">
<title>Node19</title>
<g id="a_node19"><a xlink:href="classdenoptim_1_1graph_1_1_d_graph_test.html#a02791a3f61db5dd584dec5c3995ec72c" target="_top" xlink:title=" ">
<polygon fill="white" stroke="black" points="1037.5,-206.5 1037.5,-236.5 1193.5,-236.5 1193.5,-206.5 1037.5,-206.5"/>
<text text-anchor="start" x="1045.5" y="-224.5" font-family="Helvetica,sans-Serif" font-size="10.00">denoptim.graph.DGraphTest.test</text>
<text text-anchor="middle" x="1115.5" y="-213.5" font-family="Helvetica,sans-Serif" font-size="10.00">GraphIsomorphism</text>
</a>
</g>
</g>
<!-- Node3&#45;&gt;Node19 -->
<g id="edge20" class="edge">
<title>Node3&#45;&gt;Node19</title>
<path fill="none" stroke="midnightblue" d="M1255.67,-253.67C1231.58,-248.1 1204.95,-241.94 1181.49,-236.52"/>
<polygon fill="midnightblue" stroke="midnightblue" points="1254.94,-257.09 1265.47,-255.93 1256.51,-250.27 1254.94,-257.09"/>
</g>
<!-- Node20 -->
<g id="node20" class="node">
<title>Node20</title>
<g id="a_node20"><a xlink:href="classdenoptim_1_1graph_1_1_d_graph_test.html#aea227d615f6c2f3bac5839a8099a900d" target="_top" xlink:title=" ">
<polygon fill="white" stroke="black" points="1037.5,-157.5 1037.5,-187.5 1193.5,-187.5 1193.5,-157.5 1037.5,-157.5"/>
<text text-anchor="start" x="1045.5" y="-175.5" font-family="Helvetica,sans-Serif" font-size="10.00">denoptim.graph.DGraphTest.test</text>
<text text-anchor="middle" x="1115.5" y="-164.5" font-family="Helvetica,sans-Serif" font-size="10.00">IsIsostructuralTo</text>
</a>
</g>
</g>
<!-- Node3&#45;&gt;Node20 -->
<g id="edge21" class="edge">
<title>Node3&#45;&gt;Node20</title>
<path fill="none" stroke="midnightblue" d="M1256.49,-250.7C1254.25,-249.39 1252.08,-247.99 1250,-246.5 1227.74,-230.55 1236.69,-211.83 1214,-196.5 1207.79,-192.3 1200.91,-188.84 1193.77,-185.98"/>
<polygon fill="midnightblue" stroke="midnightblue" points="1254.96,-253.85 1265.45,-255.35 1258.19,-247.63 1254.96,-253.85"/>
</g>
<!-- Node21 -->
<g id="node21" class="node">
<title>Node21</title>
<g id="a_node21"><a xlink:href="classdenoptim_1_1graph_1_1_d_graph_test.html#a75784f0e5c219c9bae7d4c84054de8fd" target="_top" xlink:title=" ">
<polygon fill="white" stroke="black" points="1037.5,-108.5 1037.5,-138.5 1193.5,-138.5 1193.5,-108.5 1037.5,-108.5"/>
<text text-anchor="start" x="1045.5" y="-126.5" font-family="Helvetica,sans-Serif" font-size="10.00">denoptim.graph.DGraphTest.test</text>
<text text-anchor="middle" x="1115.5" y="-115.5" font-family="Helvetica,sans-Serif" font-size="10.00">ReplaceSingleSubGraph</text>
</a>
</g>
</g>
<!-- Node3&#45;&gt;Node21 -->
<g id="edge22" class="edge">
<title>Node3&#45;&gt;Node21</title>
<path fill="none" stroke="midnightblue" d="M1256.22,-251.62C1254.03,-250.05 1251.94,-248.35 1250,-246.5 1216.04,-214.27 1248.84,-178.78 1214,-147.5 1208.03,-142.14 1201.06,-137.94 1193.64,-134.64"/>
<polygon fill="midnightblue" stroke="midnightblue" points="1254.77,-254.84 1265.13,-257.07 1258.42,-248.87 1254.77,-254.84"/>
</g>
<!-- Node22 -->
<g id="node22" class="node">
<title>Node22</title>
<g id="a_node22"><a xlink:href="classdenoptim_1_1graph_1_1_d_graph_test.html#af7f0715cf5fdabf96fa54678e6c18d74" target="_top" xlink:title=" ">
<polygon fill="white" stroke="black" points="1026,-49 1026,-90 1205,-90 1205,-49 1026,-49"/>
<text text-anchor="start" x="1034" y="-78" font-family="Helvetica,sans-Serif" font-size="10.00">denoptim.graph.DGraphTest.test</text>
<text text-anchor="start" x="1034" y="-67" font-family="Helvetica,sans-Serif" font-size="10.00">ReplaceSingleSubGraph_ScafToScaf</text>
<text text-anchor="middle" x="1115.5" y="-56" font-family="Helvetica,sans-Serif" font-size="10.00">_withAPClassViolation</text>
</a>
</g>
</g>
<!-- Node3&#45;&gt;Node22 -->
<g id="edge23" class="edge">
<title>Node3&#45;&gt;Node22</title>
<path fill="none" stroke="midnightblue" d="M1256.72,-252.49C1254.32,-250.68 1252.06,-248.69 1250,-246.5 1203.54,-197.26 1260.64,-147.56 1214,-98.5 1211.08,-95.43 1207.85,-92.68 1204.39,-90.21"/>
<polygon fill="midnightblue" stroke="midnightblue" points="1255.07,-255.58 1265.39,-257.97 1258.81,-249.67 1255.07,-255.58"/>
</g>
<!-- Node23 -->
<g id="node23" class="node">
<title>Node23</title>
<g id="a_node23"><a xlink:href="classdenoptim_1_1graph_1_1_d_graph_test.html#a0b946dc2730c68f796c37e5f5cea4e36" target="_top" xlink:title=" ">
<polygon fill="white" stroke="black" points="1037.5,-0.5 1037.5,-30.5 1193.5,-30.5 1193.5,-0.5 1037.5,-0.5"/>
<text text-anchor="start" x="1045.5" y="-18.5" font-family="Helvetica,sans-Serif" font-size="10.00">denoptim.graph.DGraphTest.test</text>
<text text-anchor="middle" x="1115.5" y="-7.5" font-family="Helvetica,sans-Serif" font-size="10.00">ReplaceVertex_inRing</text>
</a>
</g>
</g>
<!-- Node3&#45;&gt;Node23 -->
<g id="edge24" class="edge">
<title>Node3&#45;&gt;Node23</title>
<path fill="none" stroke="midnightblue" d="M1256.69,-252.78C1254.28,-250.89 1252.03,-248.8 1250,-246.5 1188.21,-176.49 1277.71,-107.77 1214,-39.5 1208.29,-33.38 1201.3,-28.71 1193.7,-25.17"/>
<polygon fill="midnightblue" stroke="midnightblue" points="1255.16,-255.95 1265.45,-258.47 1258.97,-250.08 1255.16,-255.95"/>
</g>
<!-- Node4&#45;&gt;Node4 -->
<g id="edge9" class="edge">
<title>Node4&#45;&gt;Node4</title>
<path fill="none" stroke="midnightblue" d="M714.17,-513.96C709.49,-518.68 696.94,-522 676.5,-522 642.96,-522 630.65,-513.06 639.55,-503.66"/>
<polygon fill="midnightblue" stroke="midnightblue" points="717.64,-513.39 713.45,-503.66 710.66,-513.88 717.64,-513.39"/>
</g>
<!-- Node5 -->
<g id="node5" class="node">
<title>Node5</title>
<g id="a_node5"><a xlink:href="classdenoptim_1_1ga_1_1_population.html#a31b74cc5407c42fa3a4214029fb08190" target="_top" xlink:title="Returns a list of population members that can do crossover with the specified member.">
<polygon fill="white" stroke="black" points="393,-546.5 393,-576.5 526,-576.5 526,-546.5 393,-546.5"/>
<text text-anchor="start" x="401" y="-564.5" font-family="Helvetica,sans-Serif" font-size="10.00">denoptim.ga.Population.get</text>
<text text-anchor="middle" x="459.5" y="-553.5" font-family="Helvetica,sans-Serif" font-size="10.00">XoverPartners</text>
</a>
</g>
</g>
<!-- Node4&#45;&gt;Node5 -->
<g id="edge4" class="edge">
<title>Node4&#45;&gt;Node5</title>
<path fill="none" stroke="midnightblue" d="M621.35,-506.89C585.3,-519.12 538.54,-535 504.73,-546.48"/>
<polygon fill="midnightblue" stroke="midnightblue" points="622.87,-510.07 631.21,-503.54 620.62,-503.44 622.87,-510.07"/>
</g>
<!-- Node10 -->
<g id="node10" class="node">
<title>Node10</title>
<g id="a_node10"><a xlink:href="classdenoptim_1_1programs_1_1genetweeker_1_1_gene_ops_runner.html#ab0f92a94c4fb2334e7d3813e73fc4247" target="_top" xlink:title=" ">
<polygon fill="white" stroke="black" points="380,-473.5 380,-503.5 539,-503.5 539,-473.5 380,-473.5"/>
<text text-anchor="start" x="388" y="-491.5" font-family="Helvetica,sans-Serif" font-size="10.00">denoptim.programs.genetweeker.</text>
<text text-anchor="middle" x="459.5" y="-480.5" font-family="Helvetica,sans-Serif" font-size="10.00">GeneOpsRunner.runXOver</text>
</a>
</g>
</g>
<!-- Node4&#45;&gt;Node10 -->
<g id="edge10" class="edge">
<title>Node4&#45;&gt;Node10</title>
<path fill="none" stroke="midnightblue" d="M579.63,-488.5C566.1,-488.5 552.32,-488.5 539.17,-488.5"/>
<polygon fill="midnightblue" stroke="midnightblue" points="579.91,-492 589.91,-488.5 579.91,-485 579.91,-492"/>
</g>
<!-- Node12 -->
<g id="node12" class="node">
<title>Node12</title>
<g id="a_node12"><a xlink:href="classdenoptim_1_1ga_1_1_graph_operations_test.html#a9fcf8fffef10a59df722c92e94da2815" target="_top" xlink:title=" ">
<polygon fill="white" stroke="black" points="365,-424.5 365,-454.5 554,-454.5 554,-424.5 365,-424.5"/>
<text text-anchor="start" x="373" y="-442.5" font-family="Helvetica,sans-Serif" font-size="10.00">denoptim.ga.GraphOperations</text>
<text text-anchor="middle" x="459.5" y="-431.5" font-family="Helvetica,sans-Serif" font-size="10.00">Test.testLocateCompatibleXOverPoints</text>
</a>
</g>
</g>
<!-- Node4&#45;&gt;Node12 -->
<g id="edge12" class="edge">
<title>Node4&#45;&gt;Node12</title>
<path fill="none" stroke="midnightblue" d="M599.78,-471.24C575.82,-465.78 549.55,-459.79 526.34,-454.51"/>
<polygon fill="midnightblue" stroke="midnightblue" points="599,-474.66 609.53,-473.47 600.56,-467.83 599,-474.66"/>
</g>
<!-- Node6 -->
<g id="node6" class="node">
<title>Node6</title>
<g id="a_node6"><a xlink:href="classdenoptim_1_1ga_1_1_e_a_utils.html#a45d4e9ec6a308aa73891efa1d501dd5e" target="_top" xlink:title="Perform fitness&#45;based, class&#45;compatible selection of parents that can do crossover operations.">
<polygon fill="white" stroke="black" points="163,-608 163,-627 329,-627 329,-608 163,-608"/>
<text text-anchor="middle" x="246" y="-615" font-family="Helvetica,sans-Serif" font-size="10.00">denoptim.ga.EAUtils.performFBCC</text>
</a>
</g>
</g>
<!-- Node5&#45;&gt;Node6 -->
<g id="edge5" class="edge">
<title>Node5&#45;&gt;Node6</title>
<path fill="none" stroke="midnightblue" d="M398.45,-579.34C376.64,-585.64 351.77,-592.61 329,-598.5 316.41,-601.76 302.66,-605.04 290.08,-607.95"/>
<polygon fill="midnightblue" stroke="midnightblue" points="399.6,-582.65 408.23,-576.5 397.65,-575.93 399.6,-582.65"/>
</g>
<!-- Node8 -->
<g id="node8" class="node">
<title>Node8</title>
<g id="a_node8"><a xlink:href="classdenoptim_1_1ga_1_1_population_test.html#a5db0672054a9fc1dbc923310732fdb3a" target="_top" xlink:title=" ">
<polygon fill="white" stroke="black" points="168.5,-558.5 168.5,-588.5 323.5,-588.5 323.5,-558.5 168.5,-558.5"/>
<text text-anchor="start" x="176.5" y="-576.5" font-family="Helvetica,sans-Serif" font-size="10.00">denoptim.ga.PopulationTest.test</text>
<text text-anchor="middle" x="246" y="-565.5" font-family="Helvetica,sans-Serif" font-size="10.00">Clone</text>
</a>
</g>
</g>
<!-- Node5&#45;&gt;Node8 -->
<g id="edge7" class="edge">
<title>Node5&#45;&gt;Node8</title>
<path fill="none" stroke="midnightblue" d="M382.59,-565.81C363.49,-566.89 342.98,-568.05 323.83,-569.14"/>
<polygon fill="midnightblue" stroke="midnightblue" points="382.95,-569.29 392.74,-565.23 382.56,-562.3 382.95,-569.29"/>
</g>
<!-- Node9 -->
<g id="node9" class="node">
<title>Node9</title>
<g id="a_node9"><a xlink:href="classdenoptim_1_1ga_1_1_population_test.html#a278212ebff2501b7071d342f9a027599" target="_top" xlink:title=" ">
<polygon fill="white" stroke="black" points="168.5,-509.5 168.5,-539.5 323.5,-539.5 323.5,-509.5 168.5,-509.5"/>
<text text-anchor="start" x="176.5" y="-527.5" font-family="Helvetica,sans-Serif" font-size="10.00">denoptim.ga.PopulationTest.test</text>
<text text-anchor="middle" x="246" y="-516.5" font-family="Helvetica,sans-Serif" font-size="10.00">XOverCompatibility</text>
</a>
</g>
</g>
<!-- Node5&#45;&gt;Node9 -->
<g id="edge8" class="edge">
<title>Node5&#45;&gt;Node9</title>
<path fill="none" stroke="midnightblue" d="M382.86,-548.27C363.68,-544.91 343.07,-541.31 323.83,-537.94"/>
<polygon fill="midnightblue" stroke="midnightblue" points="382.29,-551.72 392.74,-550 383.49,-544.82 382.29,-551.72"/>
</g>
<!-- Node7 -->
<g id="node7" class="node">
<title>Node7</title>
<g id="a_node7"><a xlink:href="classdenoptim_1_1ga_1_1_e_a_utils.html#a0b958439d79fae30f14530213ad22e3a" target="_top" xlink:title="Generates up to a pair of new offspring by performing a crossover operation.">
<polygon fill="white" stroke="black" points="0,-602.5 0,-632.5 127,-632.5 127,-602.5 0,-602.5"/>
<text text-anchor="start" x="8" y="-620.5" font-family="Helvetica,sans-Serif" font-size="10.00">denoptim.ga.EAUtils.build</text>
<text text-anchor="middle" x="63.5" y="-609.5" font-family="Helvetica,sans-Serif" font-size="10.00">CandidatesByXOver</text>
</a>
</g>
</g>
<!-- Node6&#45;&gt;Node7 -->
<g id="edge6" class="edge">
<title>Node6&#45;&gt;Node7</title>
<path fill="none" stroke="midnightblue" d="M152.77,-617.5C144.11,-617.5 135.47,-617.5 127.17,-617.5"/>
<polygon fill="midnightblue" stroke="midnightblue" points="152.94,-621 162.94,-617.5 152.94,-614 152.94,-621"/>
</g>
<!-- Node11 -->
<g id="node11" class="node">
<title>Node11</title>
<g id="a_node11"><a xlink:href="classdenoptim_1_1programs_1_1genetweeker_1_1_gene_ops_runner.html#a3c2407eb1204a7b25600d3d347d98447" target="_top" xlink:title=" ">
<polygon fill="white" stroke="black" points="166.5,-460.5 166.5,-490.5 325.5,-490.5 325.5,-460.5 166.5,-460.5"/>
<text text-anchor="start" x="174.5" y="-478.5" font-family="Helvetica,sans-Serif" font-size="10.00">denoptim.programs.genetweeker.</text>
<text text-anchor="middle" x="246" y="-467.5" font-family="Helvetica,sans-Serif" font-size="10.00">GeneOpsRunner.runProgram</text>
</a>
</g>
</g>
<!-- Node10&#45;&gt;Node11 -->
<g id="edge11" class="edge">
<title>Node10&#45;&gt;Node11</title>
<path fill="none" stroke="midnightblue" d="M369.74,-483.04C355.16,-482.15 340.14,-481.22 325.82,-480.34"/>
<polygon fill="midnightblue" stroke="midnightblue" points="369.55,-486.54 379.75,-483.66 369.98,-479.55 369.55,-486.54"/>
</g>
<!-- Node14 -->
<g id="node14" class="node">
<title>Node14</title>
<g id="a_node14"><a xlink:href="classdenoptim_1_1ga_1_1_graph_operations.html#a5d90c6e2fa30f287f8f69ed3367ccd0e" target="_top" xlink:title="Given a pair of seed vertexes that define where a pair of subgraphs stars in the corresponding origin...">
<polygon fill="white" stroke="black" points="799,-451.5 799,-481.5 981,-481.5 981,-451.5 799,-451.5"/>
<text text-anchor="start" x="807" y="-469.5" font-family="Helvetica,sans-Serif" font-size="10.00">denoptim.ga.GraphOperations.process</text>
<text text-anchor="middle" x="890" y="-458.5" font-family="Helvetica,sans-Serif" font-size="10.00">CombinationOfEndPoints</text>
</a>
</g>
</g>
<!-- Node13&#45;&gt;Node14 -->
<g id="edge14" class="edge">
<title>Node13&#45;&gt;Node14</title>
<path fill="none" stroke="midnightblue" d="M1014.2,-466.5C1003.22,-466.5 992.09,-466.5 981.24,-466.5"/>
<polygon fill="midnightblue" stroke="midnightblue" points="1014.24,-470 1024.24,-466.5 1014.24,-463 1014.24,-470"/>
</g>
<!-- Node14&#45;&gt;Node4 -->
<g id="edge15" class="edge">
<title>Node14&#45;&gt;Node4</title>
<path fill="none" stroke="midnightblue" d="M788.89,-476.91C780.25,-477.81 771.56,-478.72 763.05,-479.6"/>
<polygon fill="midnightblue" stroke="midnightblue" points="789.41,-480.38 799,-475.86 788.69,-473.42 789.41,-480.38"/>
</g>
</g>
</svg>
