<?xml version="1.0" encoding="UTF-8" standalone="no"?>
<!DOCTYPE svg PUBLIC "-//W3C//DTD SVG 1.1//EN"
 "http://www.w3.org/Graphics/SVG/1.1/DTD/svg11.dtd">
<!-- Generated by graphviz version 3.0.0 (20221109.1736)
 -->
<!-- Title: denoptim.utils.CartesianSpaceUtils.getVectorFromTo Pages: 1 -->
<svg width="987pt" height="181pt"
 viewBox="0.00 0.00 987.00 181.00" xmlns="http://www.w3.org/2000/svg" xmlns:xlink="http://www.w3.org/1999/xlink">
<g id="graph0" class="graph" transform="scale(1 1) rotate(0) translate(4 177)">
<title>denoptim.utils.CartesianSpaceUtils.getVectorFromTo</title>
<polygon fill="white" stroke="transparent" points="-4,4 -4,-177 983,-177 983,4 -4,4"/>
<!-- Node1 -->
<g id="node1" class="node">
<title>Node1</title>
<g id="a_node1"><a xlink:title="Creates an object Vector3d that originates from point a and goes to point b.">
<polygon fill="#bfbfbf" stroke="black" points="836,-73.5 836,-103.5 979,-103.5 979,-73.5 836,-73.5"/>
<text text-anchor="start" x="844" y="-91.5" font-family="Helvetica,sans-Serif" font-size="10.00">denoptim.utils.Cartesian</text>
<text text-anchor="middle" x="907.5" y="-80.5" font-family="Helvetica,sans-Serif" font-size="10.00">SpaceUtils.getVectorFromTo</text>
</a>
</g>
</g>
<!-- Node2 -->
<g id="node2" class="node">
<title>Node2</title>
<g id="a_node2"><a xlink:href="classdenoptim_1_1utils_1_1_dummy_atom_handler.html#a610946112e9e5c6a35fb025ecbcc1022" target="_top" xlink:title="Generates a dummy atom 0.1 nm from atom A in a place that is safe for a dummy atom.">
<polygon fill="white" stroke="black" points="634,-73.5 634,-103.5 800,-103.5 800,-73.5 634,-73.5"/>
<text text-anchor="start" x="642" y="-91.5" font-family="Helvetica,sans-Serif" font-size="10.00">denoptim.utils.DummyAtom</text>
<text text-anchor="middle" x="717" y="-80.5" font-family="Helvetica,sans-Serif" font-size="10.00">Handler.getDummyInSafeDirection</text>
</a>
</g>
</g>
<!-- Node1&#45;&gt;Node2 -->
<g id="edge1" class="edge">
<title>Node1&#45;&gt;Node2</title>
<path fill="none" stroke="midnightblue" d="M825.61,-88.5C817.2,-88.5 808.65,-88.5 800.23,-88.5"/>
<polygon fill="midnightblue" stroke="midnightblue" points="825.77,-92 835.77,-88.5 825.77,-85 825.77,-92"/>
</g>
<!-- Node3 -->
<g id="node3" class="node">
<title>Node3</title>
<g id="a_node3"><a xlink:href="classdenoptim_1_1utils_1_1_dummy_atom_handler.html#a100cd8246e61d933a6420fac5c22160a" target="_top" xlink:title="Append dummy atoms on otherwise linear arrangements of atoms.">
<polygon fill="white" stroke="black" points="431,-73.5 431,-103.5 598,-103.5 598,-73.5 431,-73.5"/>
<text text-anchor="start" x="439" y="-91.5" font-family="Helvetica,sans-Serif" font-size="10.00">denoptim.utils.DummyAtom</text>
<text text-anchor="middle" x="514.5" y="-80.5" font-family="Helvetica,sans-Serif" font-size="10.00">Handler.addDummiesOnLinearities</text>
</a>
</g>
</g>
<!-- Node2&#45;&gt;Node3 -->
<g id="edge2" class="edge">
<title>Node2&#45;&gt;Node3</title>
<path fill="none" stroke="midnightblue" d="M623.86,-88.5C615.28,-88.5 606.63,-88.5 598.15,-88.5"/>
<polygon fill="midnightblue" stroke="midnightblue" points="623.87,-92 633.87,-88.5 623.87,-85 623.87,-92"/>
</g>
<!-- Node4 -->
<g id="node4" class="node">
<title>Node4</title>
<g id="a_node4"><a xlink:href="classdenoptim_1_1gui_1_1_g_u_i_vertex_inspector.html#acadecc92299a7ea46113c06382a1f333" target="_top" xlink:title="Initialize the panel and add buttons.">
<polygon fill="white" stroke="black" points="198,-148 198,-167 395,-167 395,-148 198,-148"/>
<text text-anchor="middle" x="296.5" y="-155" font-family="Helvetica,sans-Serif" font-size="10.00">denoptim.gui.GUIVertexInspector.initialize</text>
</a>
</g>
</g>
<!-- Node3&#45;&gt;Node4 -->
<g id="edge3" class="edge">
<title>Node3&#45;&gt;Node4</title>
<path fill="none" stroke="midnightblue" d="M473.21,-107.95C450.63,-118.23 421.73,-130.35 395,-138.5 382.79,-142.22 369.5,-145.38 356.76,-147.99"/>
<polygon fill="midnightblue" stroke="midnightblue" points="474.86,-111.05 482.47,-103.68 471.92,-104.69 474.86,-111.05"/>
</g>
<!-- Node6 -->
<g id="node6" class="node">
<title>Node6</title>
<g id="a_node6"><a xlink:href="classdenoptim_1_1ga_1_1_e_a_utils.html#a18eb5d0ba6772e9116176ef6ca9f84fc" target="_top" xlink:title="Converts a molecule into a DGraph by fragmentation and re&#45;assembling of the fragments.">
<polygon fill="white" stroke="black" points="219.5,-98.5 219.5,-128.5 373.5,-128.5 373.5,-98.5 219.5,-98.5"/>
<text text-anchor="start" x="227.5" y="-116.5" font-family="Helvetica,sans-Serif" font-size="10.00">denoptim.ga.EAUtils.make</text>
<text text-anchor="middle" x="296.5" y="-105.5" font-family="Helvetica,sans-Serif" font-size="10.00">GraphFromFragmentationOfMol</text>
</a>
</g>
</g>
<!-- Node3&#45;&gt;Node6 -->
<g id="edge5" class="edge">
<title>Node3&#45;&gt;Node6</title>
<path fill="none" stroke="midnightblue" d="M420.68,-99.24C404.99,-101.06 388.86,-102.93 373.65,-104.69"/>
<polygon fill="midnightblue" stroke="midnightblue" points="421.38,-102.69 430.92,-98.06 420.58,-95.73 421.38,-102.69"/>
</g>
<!-- Node7 -->
<g id="node7" class="node">
<title>Node7</title>
<g id="a_node7"><a xlink:href="classdenoptim_1_1fragmenter_1_1_fragmenter_tools.html#a82c4a82da2a3283a870a8c8af94f0a4e" target="_top" xlink:title="Management of fragments: includes application of fragment filters, rejection rules,...">
<polygon fill="white" stroke="black" points="216,-49.5 216,-79.5 377,-79.5 377,-49.5 216,-49.5"/>
<text text-anchor="start" x="224" y="-67.5" font-family="Helvetica,sans-Serif" font-size="10.00">denoptim.fragmenter.Fragmenter</text>
<text text-anchor="middle" x="296.5" y="-56.5" font-family="Helvetica,sans-Serif" font-size="10.00">Tools.manageFragmentCollection</text>
</a>
</g>
</g>
<!-- Node3&#45;&gt;Node7 -->
<g id="edge6" class="edge">
<title>Node3&#45;&gt;Node7</title>
<path fill="none" stroke="midnightblue" d="M420.91,-78.21C406.36,-76.6 391.42,-74.94 377.19,-73.35"/>
<polygon fill="midnightblue" stroke="midnightblue" points="420.59,-81.7 430.92,-79.32 421.36,-74.74 420.59,-81.7"/>
</g>
<!-- Node8 -->
<g id="node8" class="node">
<title>Node8</title>
<g id="a_node8"><a xlink:href="classdenoptim_1_1graph_1_1_fragment_test.html#aa17f42b21847b022c3d7a87876e17717" target="_top" xlink:title=" ">
<polygon fill="white" stroke="black" points="214.5,-0.5 214.5,-30.5 378.5,-30.5 378.5,-0.5 214.5,-0.5"/>
<text text-anchor="start" x="222.5" y="-18.5" font-family="Helvetica,sans-Serif" font-size="10.00">denoptim.graph.FragmentTest.test</text>
<text text-anchor="middle" x="296.5" y="-7.5" font-family="Helvetica,sans-Serif" font-size="10.00">IsomorphicInLinear</text>
</a>
</g>
</g>
<!-- Node3&#45;&gt;Node8 -->
<g id="edge7" class="edge">
<title>Node3&#45;&gt;Node8</title>
<path fill="none" stroke="midnightblue" d="M470.24,-69.35C448.02,-59.93 420.35,-48.84 395,-40.5 384.21,-36.95 372.61,-33.59 361.32,-30.55"/>
<polygon fill="midnightblue" stroke="midnightblue" points="469.15,-72.69 479.72,-73.41 471.91,-66.26 469.15,-72.69"/>
</g>
<!-- Node5 -->
<g id="node5" class="node">
<title>Node5</title>
<g id="a_node5"><a xlink:href="classdenoptim_1_1gui_1_1_g_u_i_vertex_inspector.html#abc5d3c33ad9b2b114ce43e9b2cd577bb" target="_top" xlink:title="Constructor.">
<polygon fill="white" stroke="black" points="0,-142.5 0,-172.5 162,-172.5 162,-142.5 0,-142.5"/>
<text text-anchor="start" x="8" y="-160.5" font-family="Helvetica,sans-Serif" font-size="10.00">denoptim.gui.GUIVertexInspector.</text>
<text text-anchor="middle" x="81" y="-149.5" font-family="Helvetica,sans-Serif" font-size="10.00">GUIVertexInspector</text>
</a>
</g>
</g>
<!-- Node4&#45;&gt;Node5 -->
<g id="edge4" class="edge">
<title>Node4&#45;&gt;Node5</title>
<path fill="none" stroke="midnightblue" d="M187.69,-157.5C179.06,-157.5 170.44,-157.5 162.05,-157.5"/>
<polygon fill="midnightblue" stroke="midnightblue" points="187.81,-161 197.81,-157.5 187.81,-154 187.81,-161"/>
</g>
</g>
</svg>
