<?xml version="1.0" encoding="UTF-8" standalone="no"?>
<!DOCTYPE svg PUBLIC "-//W3C//DTD SVG 1.1//EN"
 "http://www.w3.org/Graphics/SVG/1.1/DTD/svg11.dtd">
<!-- Generated by graphviz version 3.0.0 (20221109.1736)
 -->
<!-- Title: denoptim.graph.Fragment.isIsomorphicTo Pages: 1 -->
<svg width="344pt" height="137pt"
 viewBox="0.00 0.00 344.00 137.00" xmlns="http://www.w3.org/2000/svg" xmlns:xlink="http://www.w3.org/1999/xlink">
<g id="graph0" class="graph" transform="scale(1 1) rotate(0) translate(4 133)">
<title>denoptim.graph.Fragment.isIsomorphicTo</title>
<polygon fill="white" stroke="transparent" points="-4,4 -4,-133 340,-133 340,4 -4,4"/>
<!-- Node1 -->
<g id="node1" class="node">
<title>Node1</title>
<g id="a_node1"><a xlink:title="Checks for isomorphism of the graph representation of this and another fragment.">
<polygon fill="#bfbfbf" stroke="black" points="200,-49.5 200,-79.5 336,-79.5 336,-49.5 200,-49.5"/>
<text text-anchor="start" x="208" y="-67.5" font-family="Helvetica,sans-Serif" font-size="10.00">denoptim.graph.Fragment.is</text>
<text text-anchor="middle" x="268" y="-56.5" font-family="Helvetica,sans-Serif" font-size="10.00">IsomorphicTo</text>
</a>
</g>
</g>
<!-- Node1&#45;&gt;Node1 -->
<g id="edge1" class="edge">
<title>Node1&#45;&gt;Node1</title>
<path fill="none" stroke="midnightblue" d="M301.05,-89.96C296.95,-94.68 285.93,-98 268,-98 238.57,-98 227.77,-89.06 235.59,-79.66"/>
<polygon fill="midnightblue" stroke="midnightblue" points="304.52,-89.42 300.41,-79.66 297.54,-89.86 304.52,-89.42"/>
</g>
<!-- Node2 -->
<g id="node2" class="node">
<title>Node2</title>
<g id="a_node2"><a xlink:href="classdenoptim_1_1ga_1_1_e_a_utils.html#a5e9b439608a02da3f5074f24a17d4b0a" target="_top" xlink:title="Converts a molecule into a DGraph by fragmentation and re&#45;assembling of the fragments.">
<polygon fill="white" stroke="black" points="5,-98.5 5,-128.5 159,-128.5 159,-98.5 5,-98.5"/>
<text text-anchor="start" x="13" y="-116.5" font-family="Helvetica,sans-Serif" font-size="10.00">denoptim.ga.EAUtils.make</text>
<text text-anchor="middle" x="82" y="-105.5" font-family="Helvetica,sans-Serif" font-size="10.00">GraphFromFragmentationOfMol</text>
</a>
</g>
</g>
<!-- Node1&#45;&gt;Node2 -->
<g id="edge2" class="edge">
<title>Node1&#45;&gt;Node2</title>
<path fill="none" stroke="midnightblue" d="M200.82,-82.12C180.69,-87.48 158.77,-93.32 139.35,-98.49"/>
<polygon fill="midnightblue" stroke="midnightblue" points="201.78,-85.49 210.54,-79.53 199.98,-78.73 201.78,-85.49"/>
</g>
<!-- Node3 -->
<g id="node3" class="node">
<title>Node3</title>
<g id="a_node3"><a xlink:href="classdenoptim_1_1graph_1_1_fragment_test.html#aa17f42b21847b022c3d7a87876e17717" target="_top" xlink:title=" ">
<polygon fill="white" stroke="black" points="0,-49.5 0,-79.5 164,-79.5 164,-49.5 0,-49.5"/>
<text text-anchor="start" x="8" y="-67.5" font-family="Helvetica,sans-Serif" font-size="10.00">denoptim.graph.FragmentTest.test</text>
<text text-anchor="middle" x="82" y="-56.5" font-family="Helvetica,sans-Serif" font-size="10.00">IsomorphicInLinear</text>
</a>
</g>
</g>
<!-- Node1&#45;&gt;Node3 -->
<g id="edge3" class="edge">
<title>Node1&#45;&gt;Node3</title>
<path fill="none" stroke="midnightblue" d="M189.61,-64.5C181.18,-64.5 172.58,-64.5 164.1,-64.5"/>
<polygon fill="midnightblue" stroke="midnightblue" points="189.79,-68 199.79,-64.5 189.79,-61 189.79,-68"/>
</g>
<!-- Node4 -->
<g id="node4" class="node">
<title>Node4</title>
<g id="a_node4"><a xlink:href="classdenoptim_1_1graph_1_1_fragment_test.html#af49cc0e35c38f683bfc3d332210d1124" target="_top" xlink:title=" ">
<polygon fill="white" stroke="black" points="0,-0.5 0,-30.5 164,-30.5 164,-0.5 0,-0.5"/>
<text text-anchor="start" x="8" y="-18.5" font-family="Helvetica,sans-Serif" font-size="10.00">denoptim.graph.FragmentTest.test</text>
<text text-anchor="middle" x="82" y="-7.5" font-family="Helvetica,sans-Serif" font-size="10.00">IsomorphicTo</text>
</a>
</g>
</g>
<!-- Node1&#45;&gt;Node4 -->
<g id="edge4" class="edge">
<title>Node1&#45;&gt;Node4</title>
<path fill="none" stroke="midnightblue" d="M200.82,-46.88C180.69,-41.52 158.77,-35.68 139.35,-30.51"/>
<polygon fill="midnightblue" stroke="midnightblue" points="199.98,-50.27 210.54,-49.47 201.78,-43.51 199.98,-50.27"/>
</g>
</g>
</svg>
