<?xml version="1.0" encoding="UTF-8" standalone="no"?>
<!DOCTYPE svg PUBLIC "-//W3C//DTD SVG 1.1//EN"
 "http://www.w3.org/Graphics/SVG/1.1/DTD/svg11.dtd">
<!-- Generated by graphviz version 3.0.0 (20221109.1736)
 -->
<!-- Title: denoptim.ga.Population.isWithinPercentile Pages: 1 -->
<svg width="653pt" height="127pt"
 viewBox="0.00 0.00 653.00 127.00" xmlns="http://www.w3.org/2000/svg" xmlns:xlink="http://www.w3.org/1999/xlink">
<g id="graph0" class="graph" transform="scale(1 1) rotate(0) translate(4 123)">
<title>denoptim.ga.Population.isWithinPercentile</title>
<polygon fill="white" stroke="transparent" points="-4,4 -4,-123 649,-123 649,4 -4,4"/>
<!-- Node1 -->
<g id="node1" class="node">
<title>Node1</title>
<g id="a_node1"><a xlink:title="Checks if a given fitness value if within the given percentile of best candidates.">
<polygon fill="#bfbfbf" stroke="black" points="0,-66.5 0,-96.5 127,-96.5 127,-66.5 0,-66.5"/>
<text text-anchor="start" x="8" y="-84.5" font-family="Helvetica,sans-Serif" font-size="10.00">denoptim.ga.Population.is</text>
<text text-anchor="middle" x="63.5" y="-73.5" font-family="Helvetica,sans-Serif" font-size="10.00">WithinPercentile</text>
</a>
</g>
</g>
<!-- Node2 -->
<g id="node2" class="node">
<title>Node2</title>
<g id="a_node2"><a xlink:href="classdenoptim_1_1ga_1_1_population.html#afa798c05fd795d3860b2d6e44c9791e5" target="_top" xlink:title="Gets the maximum value of the fitness in this population.">
<polygon fill="white" stroke="black" points="332,-88.5 332,-118.5 465,-118.5 465,-88.5 332,-88.5"/>
<text text-anchor="start" x="340" y="-106.5" font-family="Helvetica,sans-Serif" font-size="10.00">denoptim.ga.Population.get</text>
<text text-anchor="middle" x="398.5" y="-95.5" font-family="Helvetica,sans-Serif" font-size="10.00">MaxFitness</text>
</a>
</g>
</g>
<!-- Node1&#45;&gt;Node2 -->
<g id="edge1" class="edge">
<title>Node1&#45;&gt;Node2</title>
<path fill="none" stroke="midnightblue" d="M127.13,-85.64C182.35,-89.29 262.93,-94.61 321.75,-98.5"/>
<polygon fill="midnightblue" stroke="midnightblue" points="321.52,-101.99 331.73,-99.15 321.98,-95 321.52,-101.99"/>
</g>
<!-- Node4 -->
<g id="node4" class="node">
<title>Node4</title>
<g id="a_node4"><a xlink:href="classdenoptim_1_1ga_1_1_population.html#a0324ca75861e476b7f6480e740864ffb" target="_top" xlink:title="Gets the minimum value of the fitness in this population.">
<polygon fill="white" stroke="black" points="163,-44.5 163,-74.5 296,-74.5 296,-44.5 163,-44.5"/>
<text text-anchor="start" x="171" y="-62.5" font-family="Helvetica,sans-Serif" font-size="10.00">denoptim.ga.Population.get</text>
<text text-anchor="middle" x="229.5" y="-51.5" font-family="Helvetica,sans-Serif" font-size="10.00">MinFitness</text>
</a>
</g>
</g>
<!-- Node1&#45;&gt;Node4 -->
<g id="edge3" class="edge">
<title>Node1&#45;&gt;Node4</title>
<path fill="none" stroke="midnightblue" d="M127.44,-73.06C135.66,-71.95 144.15,-70.82 152.55,-69.69"/>
<polygon fill="midnightblue" stroke="midnightblue" points="153.29,-73.12 162.74,-68.32 152.36,-66.18 153.29,-73.12"/>
</g>
<!-- Node3 -->
<g id="node3" class="node">
<title>Node3</title>
<g id="a_node3"><a xlink:href="classdenoptim_1_1graph_1_1_candidate.html#a0738609a1a3bec92633440d449a62c67" target="_top" xlink:title=" ">
<polygon fill="white" stroke="black" points="501,-44.5 501,-74.5 645,-74.5 645,-44.5 501,-44.5"/>
<text text-anchor="start" x="509" y="-62.5" font-family="Helvetica,sans-Serif" font-size="10.00">denoptim.graph.Candidate.get</text>
<text text-anchor="middle" x="573" y="-51.5" font-family="Helvetica,sans-Serif" font-size="10.00">Fitness</text>
</a>
</g>
</g>
<!-- Node2&#45;&gt;Node3 -->
<g id="edge2" class="edge">
<title>Node2&#45;&gt;Node3</title>
<path fill="none" stroke="midnightblue" d="M458.38,-88.48C472.74,-84.82 488.22,-80.87 502.99,-77.1"/>
<polygon fill="midnightblue" stroke="midnightblue" points="504.27,-80.39 513.09,-74.53 502.54,-73.61 504.27,-80.39"/>
</g>
<!-- Node4&#45;&gt;Node3 -->
<g id="edge4" class="edge">
<title>Node4&#45;&gt;Node3</title>
<path fill="none" stroke="midnightblue" d="M296.34,-59.5C351.77,-59.5 431.27,-59.5 490.66,-59.5"/>
<polygon fill="midnightblue" stroke="midnightblue" points="490.76,-63 500.76,-59.5 490.76,-56 490.76,-63"/>
</g>
<!-- Node5 -->
<g id="node5" class="node">
<title>Node5</title>
<g id="a_node5"><a xlink:href="classdenoptim_1_1ga_1_1_population.html#a914f7bdf119e8a7b749d6e37eed3f0e4" target="_top" xlink:title="Gets the Candidate with minimum value of the fitness in this population.">
<polygon fill="white" stroke="black" points="332,-0.5 332,-30.5 465,-30.5 465,-0.5 332,-0.5"/>
<text text-anchor="start" x="340" y="-18.5" font-family="Helvetica,sans-Serif" font-size="10.00">denoptim.ga.Population.get</text>
<text text-anchor="middle" x="398.5" y="-7.5" font-family="Helvetica,sans-Serif" font-size="10.00">MinFitnessMember</text>
</a>
</g>
</g>
<!-- Node4&#45;&gt;Node5 -->
<g id="edge5" class="edge">
<title>Node4&#45;&gt;Node5</title>
<path fill="none" stroke="midnightblue" d="M287.5,-44.48C301.4,-40.82 316.39,-36.87 330.7,-33.1"/>
<polygon fill="midnightblue" stroke="midnightblue" points="331.69,-36.46 340.47,-30.53 329.91,-29.69 331.69,-36.46"/>
</g>
<!-- Node5&#45;&gt;Node3 -->
<g id="edge6" class="edge">
<title>Node5&#45;&gt;Node3</title>
<path fill="none" stroke="midnightblue" d="M458.38,-30.52C472.74,-34.18 488.22,-38.13 502.99,-41.9"/>
<polygon fill="midnightblue" stroke="midnightblue" points="502.54,-45.39 513.09,-44.47 504.27,-38.61 502.54,-45.39"/>
</g>
</g>
</svg>
