<?xml version="1.0" encoding="UTF-8" standalone="no"?>
<!DOCTYPE svg PUBLIC "-//W3C//DTD SVG 1.1//EN"
 "http://www.w3.org/Graphics/SVG/1.1/DTD/svg11.dtd">
<!-- Generated by graphviz version 3.0.0 (20221109.1736)
 -->
<!-- Title: denoptim.graph.rings.PathSubGraph.reconstructVertexPath Pages: 1 -->
<svg width="501pt" height="39pt"
 viewBox="0.00 0.00 501.00 39.00" xmlns="http://www.w3.org/2000/svg" xmlns:xlink="http://www.w3.org/1999/xlink">
<g id="graph0" class="graph" transform="scale(1 1) rotate(0) translate(4 35)">
<title>denoptim.graph.rings.PathSubGraph.reconstructVertexPath</title>
<polygon fill="white" stroke="transparent" points="-4,4 -4,-35 497,-35 497,4 -4,4"/>
<!-- Node1 -->
<g id="node1" class="node">
<title>Node1</title>
<g id="a_node1"><a xlink:title="Reconstructs the vertex path from the parent map.">
<polygon fill="#bfbfbf" stroke="black" points="334,-0.5 334,-30.5 493,-30.5 493,-0.5 334,-0.5"/>
<text text-anchor="start" x="342" y="-18.5" font-family="Helvetica,sans-Serif" font-size="10.00">denoptim.graph.rings.Path</text>
<text text-anchor="middle" x="413.5" y="-7.5" font-family="Helvetica,sans-Serif" font-size="10.00">SubGraph.reconstructVertexPath</text>
</a>
</g>
</g>
<!-- Node2 -->
<g id="node2" class="node">
<title>Node2</title>
<g id="a_node2"><a xlink:href="classdenoptim_1_1graph_1_1rings_1_1_path_sub_graph.html#a6f3bc1ce8225246b6e97d65ccaca488e" target="_top" xlink:title="Finds the shortest vertex path from vA to vB using BFS.">
<polygon fill="white" stroke="black" points="164,-0.5 164,-30.5 298,-30.5 298,-0.5 164,-0.5"/>
<text text-anchor="start" x="172" y="-18.5" font-family="Helvetica,sans-Serif" font-size="10.00">denoptim.graph.rings.Path</text>
<text text-anchor="middle" x="231" y="-7.5" font-family="Helvetica,sans-Serif" font-size="10.00">SubGraph.findShortestPath</text>
</a>
</g>
</g>
<!-- Node1&#45;&gt;Node2 -->
<g id="edge1" class="edge">
<title>Node1&#45;&gt;Node2</title>
<path fill="none" stroke="midnightblue" d="M323.79,-15.5C315.19,-15.5 306.58,-15.5 298.25,-15.5"/>
<polygon fill="midnightblue" stroke="midnightblue" points="323.86,-19 333.86,-15.5 323.86,-12 323.86,-19"/>
</g>
<!-- Node3 -->
<g id="node3" class="node">
<title>Node3</title>
<g id="a_node3"><a xlink:href="classdenoptim_1_1graph_1_1rings_1_1_path_sub_graph.html#a05724ec8582ec35d7bc9b059b68408bf" target="_top" xlink:title="Constructs a new path sub graph specifying the first and last vertex of the path.">
<polygon fill="white" stroke="black" points="0,-0.5 0,-30.5 128,-30.5 128,-0.5 0,-0.5"/>
<text text-anchor="start" x="8" y="-18.5" font-family="Helvetica,sans-Serif" font-size="10.00">denoptim.graph.rings.Path</text>
<text text-anchor="middle" x="64" y="-7.5" font-family="Helvetica,sans-Serif" font-size="10.00">SubGraph.PathSubGraph</text>
</a>
</g>
</g>
<!-- Node2&#45;&gt;Node3 -->
<g id="edge2" class="edge">
<title>Node2&#45;&gt;Node3</title>
<path fill="none" stroke="midnightblue" d="M153.56,-15.5C145.08,-15.5 136.52,-15.5 128.23,-15.5"/>
<polygon fill="midnightblue" stroke="midnightblue" points="153.84,-19 163.84,-15.5 153.84,-12 153.84,-19"/>
</g>
</g>
</svg>
