<?xml version="1.0" encoding="UTF-8" standalone="no"?>
<!DOCTYPE svg PUBLIC "-//W3C//DTD SVG 1.1//EN"
 "http://www.w3.org/Graphics/SVG/1.1/DTD/svg11.dtd">
<!-- Generated by graphviz version 3.0.0 (20221109.1736)
 -->
<!-- Title: denoptim.io.DenoptimIO.readDENOPTIMGraphsFromJSONFile Pages: 1 -->
<svg width="966pt" height="71pt"
 viewBox="0.00 0.00 966.00 70.50" xmlns="http://www.w3.org/2000/svg" xmlns:xlink="http://www.w3.org/1999/xlink">
<g id="graph0" class="graph" transform="scale(1 1) rotate(0) translate(4 66.5)">
<title>denoptim.io.DenoptimIO.readDENOPTIMGraphsFromJSONFile</title>
<polygon fill="white" stroke="transparent" points="-4,4 -4,-66.5 962,-66.5 962,4 -4,4"/>
<!-- Node1 -->
<g id="node1" class="node">
<title>Node1</title>
<g id="a_node1"><a xlink:title="Reads a list of DGraphs from a JSON file.">
<polygon fill="#bfbfbf" stroke="black" points="0,-0.5 0,-30.5 165,-30.5 165,-0.5 0,-0.5"/>
<text text-anchor="start" x="8" y="-18.5" font-family="Helvetica,sans-Serif" font-size="10.00">denoptim.io.DenoptimIO.read</text>
<text text-anchor="middle" x="82.5" y="-7.5" font-family="Helvetica,sans-Serif" font-size="10.00">DENOPTIMGraphsFromJSONFile</text>
</a>
</g>
</g>
<!-- Node2 -->
<g id="node2" class="node">
<title>Node2</title>
<g id="a_node2"><a xlink:href="classdenoptim_1_1graph_1_1_d_graph.html#aa5f803143b57df02989af878b098798f" target="_top" xlink:title="Reads a JSON string and returns an instance of this class.">
<polygon fill="white" stroke="black" points="201,-25 201,-44 362,-44 362,-25 201,-25"/>
<text text-anchor="middle" x="281.5" y="-32" font-family="Helvetica,sans-Serif" font-size="10.00">denoptim.graph.DGraph.fromJson</text>
</a>
</g>
</g>
<!-- Node1&#45;&gt;Node2 -->
<g id="edge1" class="edge">
<title>Node1&#45;&gt;Node2</title>
<path fill="none" stroke="midnightblue" d="M165.05,-23.37C173.57,-24.19 182.27,-25.03 190.87,-25.86"/>
<polygon fill="midnightblue" stroke="midnightblue" points="190.62,-29.35 200.91,-26.82 191.3,-22.38 190.62,-29.35"/>
</g>
<!-- Node3 -->
<g id="node3" class="node">
<title>Node3</title>
<g id="a_node3"><a xlink:href="classdenoptim_1_1json_1_1_d_e_n_o_p_t_i_mgson.html#a3e85cb26bb2f36407e309e41880ef191" target="_top" xlink:title=" ">
<polygon fill="white" stroke="black" points="398,-0.5 398,-30.5 565,-30.5 565,-0.5 398,-0.5"/>
<text text-anchor="start" x="406" y="-18.5" font-family="Helvetica,sans-Serif" font-size="10.00">denoptim.json.DENOPTIMgson.get</text>
<text text-anchor="middle" x="481.5" y="-7.5" font-family="Helvetica,sans-Serif" font-size="10.00">Reader</text>
</a>
</g>
</g>
<!-- Node1&#45;&gt;Node3 -->
<g id="edge6" class="edge">
<title>Node1&#45;&gt;Node3</title>
<path fill="none" stroke="midnightblue" d="M165.28,-15.5C229.94,-15.5 320.23,-15.5 387.62,-15.5"/>
<polygon fill="midnightblue" stroke="midnightblue" points="387.81,-19 397.81,-15.5 387.81,-12 387.81,-19"/>
</g>
<!-- Node2&#45;&gt;Node2 -->
<g id="edge2" class="edge">
<title>Node2&#45;&gt;Node2</title>
<path fill="none" stroke="midnightblue" d="M250.98,-44.26C236.14,-53.07 246.31,-62.5 281.5,-62.5 306.24,-62.5 318.62,-57.84 318.62,-52"/>
<polygon fill="midnightblue" stroke="midnightblue" points="321.17,-49.59 312.02,-44.26 315.84,-54.14 321.17,-49.59"/>
</g>
<!-- Node2&#45;&gt;Node3 -->
<g id="edge3" class="edge">
<title>Node2&#45;&gt;Node3</title>
<path fill="none" stroke="midnightblue" d="M362.18,-26.85C370.6,-26.05 379.21,-25.22 387.76,-24.4"/>
<polygon fill="midnightblue" stroke="midnightblue" points="388.13,-27.88 397.75,-23.44 387.46,-20.91 388.13,-27.88"/>
</g>
<!-- Node4 -->
<g id="node4" class="node">
<title>Node4</title>
<g id="a_node4"><a xlink:href="classdenoptim_1_1json_1_1_d_e_n_o_p_t_i_mgson.html#aa14de224ae5d1ae5156f11d5715d360c" target="_top" xlink:title=" ">
<polygon fill="white" stroke="black" points="601,-0.5 601,-30.5 768,-30.5 768,-0.5 601,-0.5"/>
<text text-anchor="start" x="609" y="-18.5" font-family="Helvetica,sans-Serif" font-size="10.00">denoptim.json.DENOPTIMgson.get</text>
<text text-anchor="middle" x="684.5" y="-7.5" font-family="Helvetica,sans-Serif" font-size="10.00">Instance</text>
</a>
</g>
</g>
<!-- Node3&#45;&gt;Node4 -->
<g id="edge4" class="edge">
<title>Node3&#45;&gt;Node4</title>
<path fill="none" stroke="midnightblue" d="M565.12,-15.5C573.61,-15.5 582.27,-15.5 590.85,-15.5"/>
<polygon fill="midnightblue" stroke="midnightblue" points="590.87,-19 600.87,-15.5 590.87,-12 590.87,-19"/>
</g>
<!-- Node5 -->
<g id="node5" class="node">
<title>Node5</title>
<g id="a_node5"><a xlink:href="classdenoptim_1_1json_1_1_d_e_n_o_p_t_i_mgson.html#a4aafec42bd09225870fdf330db93b84c" target="_top" xlink:title=" ">
<polygon fill="white" stroke="black" points="804,-0.5 804,-30.5 958,-30.5 958,-0.5 804,-0.5"/>
<text text-anchor="start" x="812" y="-18.5" font-family="Helvetica,sans-Serif" font-size="10.00">denoptim.json.DENOPTIMgson.</text>
<text text-anchor="middle" x="881" y="-7.5" font-family="Helvetica,sans-Serif" font-size="10.00">DENOPTIMgson</text>
</a>
</g>
</g>
<!-- Node4&#45;&gt;Node5 -->
<g id="edge5" class="edge">
<title>Node4&#45;&gt;Node5</title>
<path fill="none" stroke="midnightblue" d="M768.27,-15.5C776.65,-15.5 785.17,-15.5 793.59,-15.5"/>
<polygon fill="midnightblue" stroke="midnightblue" points="793.79,-19 803.79,-15.5 793.79,-12 793.79,-19"/>
</g>
</g>
</svg>
