<?xml version="1.0" encoding="UTF-8" standalone="no"?>
<!DOCTYPE svg PUBLIC "-//W3C//DTD SVG 1.1//EN"
 "http://www.w3.org/Graphics/SVG/1.1/DTD/svg11.dtd">
<!-- Generated by graphviz version 3.0.0 (20221109.1736)
 -->
<!-- Title: denoptim.graph.DGraph.renumberVerticesGetMap Pages: 1 -->
<svg width="346pt" height="284pt"
 viewBox="0.00 0.00 346.00 284.00" xmlns="http://www.w3.org/2000/svg" xmlns:xlink="http://www.w3.org/1999/xlink">
<g id="graph0" class="graph" transform="scale(1 1) rotate(0) translate(4 280)">
<title>denoptim.graph.DGraph.renumberVerticesGetMap</title>
<polygon fill="white" stroke="transparent" points="-4,4 -4,-280 342,-280 342,4 -4,4"/>
<!-- Node1 -->
<g id="node1" class="node">
<title>Node1</title>
<g id="a_node1"><a xlink:title="Reassign vertex IDs to a graph.">
<polygon fill="#bfbfbf" stroke="black" points="0,-122.5 0,-152.5 161,-152.5 161,-122.5 0,-122.5"/>
<text text-anchor="start" x="8" y="-140.5" font-family="Helvetica,sans-Serif" font-size="10.00">denoptim.graph.DGraph.renumber</text>
<text text-anchor="middle" x="80.5" y="-129.5" font-family="Helvetica,sans-Serif" font-size="10.00">VerticesGetMap</text>
</a>
</g>
</g>
<!-- Node2 -->
<g id="node2" class="node">
<title>Node2</title>
<g id="a_node2"><a xlink:href="classdenoptim_1_1utils_1_1_graph_utils.html#aad6245f297edf8a9f100b3949092f3c1" target="_top" xlink:title="Unique counter for the number of graph vertices generated.">
<polygon fill="white" stroke="black" points="197,-245.5 197,-275.5 338,-275.5 338,-245.5 197,-245.5"/>
<text text-anchor="start" x="205" y="-263.5" font-family="Helvetica,sans-Serif" font-size="10.00">denoptim.utils.GraphUtils.get</text>
<text text-anchor="middle" x="267.5" y="-252.5" font-family="Helvetica,sans-Serif" font-size="10.00">UniqueVertexIndex</text>
</a>
</g>
</g>
<!-- Node1&#45;&gt;Node2 -->
<g id="edge1" class="edge">
<title>Node1&#45;&gt;Node2</title>
<path fill="none" stroke="midnightblue" d="M95.43,-152.6C115.86,-173.95 155.99,-212.99 197,-236.5 199.88,-238.15 202.89,-239.71 205.98,-241.19"/>
<polygon fill="midnightblue" stroke="midnightblue" points="204.85,-244.52 215.41,-245.36 207.68,-238.11 204.85,-244.52"/>
</g>
<!-- Node3 -->
<g id="node3" class="node">
<title>Node3</title>
<g id="a_node3"><a xlink:href="classdenoptim_1_1graph_1_1_d_graph.html#a3b7c2feb2da30079318f06819e0e6761" target="_top" xlink:title=" ">
<polygon fill="white" stroke="black" points="200.5,-196.5 200.5,-226.5 334.5,-226.5 334.5,-196.5 200.5,-196.5"/>
<text text-anchor="start" x="208.5" y="-214.5" font-family="Helvetica,sans-Serif" font-size="10.00">denoptim.graph.DGraph.get</text>
<text text-anchor="middle" x="267.5" y="-203.5" font-family="Helvetica,sans-Serif" font-size="10.00">VertexCount</text>
</a>
</g>
</g>
<!-- Node1&#45;&gt;Node3 -->
<g id="edge2" class="edge">
<title>Node1&#45;&gt;Node3</title>
<path fill="none" stroke="midnightblue" d="M114.58,-152.62C137.53,-162.9 168.89,-176.58 197,-187.5 201.71,-189.33 206.63,-191.17 211.58,-192.97"/>
<polygon fill="midnightblue" stroke="midnightblue" points="210.49,-196.3 221.08,-196.37 212.85,-189.71 210.49,-196.3"/>
</g>
<!-- Node4 -->
<g id="node4" class="node">
<title>Node4</title>
<g id="a_node4"><a xlink:href="classdenoptim_1_1graph_1_1_vertex.html#a9493346ca1480edfcfa00cb78a52adf5" target="_top" xlink:title=" ">
<polygon fill="white" stroke="black" points="203.5,-147.5 203.5,-177.5 331.5,-177.5 331.5,-147.5 203.5,-147.5"/>
<text text-anchor="start" x="211.5" y="-165.5" font-family="Helvetica,sans-Serif" font-size="10.00">denoptim.graph.Vertex.get</text>
<text text-anchor="middle" x="267.5" y="-154.5" font-family="Helvetica,sans-Serif" font-size="10.00">VertexId</text>
</a>
</g>
</g>
<!-- Node1&#45;&gt;Node4 -->
<g id="edge3" class="edge">
<title>Node1&#45;&gt;Node4</title>
<path fill="none" stroke="midnightblue" d="M161.03,-148.25C171.72,-149.69 182.64,-151.17 193.21,-152.6"/>
<polygon fill="midnightblue" stroke="midnightblue" points="192.84,-156.08 203.22,-153.95 193.78,-149.14 192.84,-156.08"/>
</g>
<!-- Node5 -->
<g id="node5" class="node">
<title>Node5</title>
<g id="a_node5"><a xlink:href="classdenoptim_1_1graph_1_1_d_graph.html#a650a0f54382fb930bf57429dd616258a" target="_top" xlink:title=" ">
<polygon fill="white" stroke="black" points="200.5,-98.5 200.5,-128.5 334.5,-128.5 334.5,-98.5 200.5,-98.5"/>
<text text-anchor="start" x="208.5" y="-116.5" font-family="Helvetica,sans-Serif" font-size="10.00">denoptim.graph.DGraph.get</text>
<text text-anchor="middle" x="267.5" y="-105.5" font-family="Helvetica,sans-Serif" font-size="10.00">VertexList</text>
</a>
</g>
</g>
<!-- Node1&#45;&gt;Node5 -->
<g id="edge4" class="edge">
<title>Node1&#45;&gt;Node5</title>
<path fill="none" stroke="midnightblue" d="M161.03,-127.18C170.77,-125.92 180.71,-124.63 190.39,-123.37"/>
<polygon fill="midnightblue" stroke="midnightblue" points="190.91,-126.84 200.38,-122.08 190.01,-119.89 190.91,-126.84"/>
</g>
<!-- Node6 -->
<g id="node6" class="node">
<title>Node6</title>
<g id="a_node6"><a xlink:href="classdenoptim_1_1graph_1_1_vertex.html#ad26ecf426a5e415605df94be904e58d3" target="_top" xlink:title=" ">
<polygon fill="white" stroke="black" points="203.5,-49.5 203.5,-79.5 331.5,-79.5 331.5,-49.5 203.5,-49.5"/>
<text text-anchor="start" x="211.5" y="-67.5" font-family="Helvetica,sans-Serif" font-size="10.00">denoptim.graph.Vertex.set</text>
<text text-anchor="middle" x="267.5" y="-56.5" font-family="Helvetica,sans-Serif" font-size="10.00">Property</text>
</a>
</g>
</g>
<!-- Node1&#45;&gt;Node6 -->
<g id="edge5" class="edge">
<title>Node1&#45;&gt;Node6</title>
<path fill="none" stroke="midnightblue" d="M116.45,-122.46C139.27,-112.76 169.77,-100.05 197,-89.5 202.52,-87.36 208.3,-85.19 214.08,-83.05"/>
<polygon fill="midnightblue" stroke="midnightblue" points="215.56,-86.24 223.74,-79.51 213.15,-79.66 215.56,-86.24"/>
</g>
<!-- Node7 -->
<g id="node7" class="node">
<title>Node7</title>
<g id="a_node7"><a xlink:href="classdenoptim_1_1graph_1_1_vertex.html#a29e20c43a6110fbaac6cc86c216fe143" target="_top" xlink:title=" ">
<polygon fill="white" stroke="black" points="203.5,-0.5 203.5,-30.5 331.5,-30.5 331.5,-0.5 203.5,-0.5"/>
<text text-anchor="start" x="211.5" y="-18.5" font-family="Helvetica,sans-Serif" font-size="10.00">denoptim.graph.Vertex.set</text>
<text text-anchor="middle" x="267.5" y="-7.5" font-family="Helvetica,sans-Serif" font-size="10.00">VertexId</text>
</a>
</g>
</g>
<!-- Node1&#45;&gt;Node7 -->
<g id="edge6" class="edge">
<title>Node1&#45;&gt;Node7</title>
<path fill="none" stroke="midnightblue" d="M95.88,-122.44C116.54,-101.56 156.6,-63.74 197,-40.5 200.63,-38.41 204.46,-36.45 208.38,-34.62"/>
<polygon fill="midnightblue" stroke="midnightblue" points="209.89,-37.78 217.66,-30.58 207.09,-31.37 209.89,-37.78"/>
</g>
</g>
</svg>
