<?xml version="1.0" encoding="UTF-8" standalone="no"?>
<!DOCTYPE svg PUBLIC "-//W3C//DTD SVG 1.1//EN"
 "http://www.w3.org/Graphics/SVG/1.1/DTD/svg11.dtd">
<!-- Generated by graphviz version 3.0.0 (20221109.1736)
 -->
<!-- Title: denoptim.gui.FSParametersForm.putParametersToString Pages: 1 -->
<svg width="981pt" height="88pt"
 viewBox="0.00 0.00 981.00 88.00" xmlns="http://www.w3.org/2000/svg" xmlns:xlink="http://www.w3.org/1999/xlink">
<g id="graph0" class="graph" transform="scale(1 1) rotate(0) translate(4 84)">
<title>denoptim.gui.FSParametersForm.putParametersToString</title>
<polygon fill="white" stroke="transparent" points="-4,4 -4,-84 977,-84 977,4 -4,4"/>
<!-- Node1 -->
<g id="node1" class="node">
<title>Node1</title>
<g id="a_node1"><a xlink:title=" ">
<polygon fill="#bfbfbf" stroke="black" points="831,-24.5 831,-54.5 973,-54.5 973,-24.5 831,-24.5"/>
<text text-anchor="start" x="839" y="-42.5" font-family="Helvetica,sans-Serif" font-size="10.00">denoptim.gui.FSParameters</text>
<text text-anchor="middle" x="902" y="-31.5" font-family="Helvetica,sans-Serif" font-size="10.00">Form.putParametersToString</text>
</a>
</g>
</g>
<!-- Node2 -->
<g id="node2" class="node">
<title>Node2</title>
<g id="a_node2"><a xlink:href="classdenoptim_1_1gui_1_1_f_s_params_dialog.html#ae39602275c1287e6916f7693a0824b08" target="_top" xlink:title="Reads all the parameters, calls the interpreters, and eventually creates the static FragmentSpace obj...">
<polygon fill="white" stroke="black" points="622,-24.5 622,-54.5 795,-54.5 795,-24.5 622,-24.5"/>
<text text-anchor="start" x="630" y="-42.5" font-family="Helvetica,sans-Serif" font-size="10.00">denoptim.gui.FSParamsDialog.make</text>
<text text-anchor="middle" x="708.5" y="-31.5" font-family="Helvetica,sans-Serif" font-size="10.00">FragSpace</text>
</a>
</g>
</g>
<!-- Node1&#45;&gt;Node2 -->
<g id="edge1" class="edge">
<title>Node1&#45;&gt;Node2</title>
<path fill="none" stroke="midnightblue" d="M820.57,-39.5C812.12,-39.5 803.51,-39.5 795,-39.5"/>
<polygon fill="midnightblue" stroke="midnightblue" points="820.78,-43 830.78,-39.5 820.78,-36 820.78,-43"/>
</g>
<!-- Node3 -->
<g id="node3" class="node">
<title>Node3</title>
<g id="a_node3"><a xlink:href="classdenoptim_1_1gui_1_1_f_s_params_dialog.html#a5a9b51978e6cfce0b434a8d72c7c6107" target="_top" xlink:title="Constructor.">
<polygon fill="white" stroke="black" points="425.5,-49.5 425.5,-79.5 574.5,-79.5 574.5,-49.5 425.5,-49.5"/>
<text text-anchor="start" x="433.5" y="-67.5" font-family="Helvetica,sans-Serif" font-size="10.00">denoptim.gui.FSParamsDialog.</text>
<text text-anchor="middle" x="500" y="-56.5" font-family="Helvetica,sans-Serif" font-size="10.00">FSParamsDialog</text>
</a>
</g>
</g>
<!-- Node2&#45;&gt;Node3 -->
<g id="edge2" class="edge">
<title>Node2&#45;&gt;Node3</title>
<path fill="none" stroke="midnightblue" d="M611.77,-51.09C599.31,-52.6 586.71,-54.12 574.68,-55.58"/>
<polygon fill="midnightblue" stroke="midnightblue" points="612.21,-54.56 621.72,-49.89 611.37,-47.61 612.21,-54.56"/>
</g>
<!-- Node4 -->
<g id="node4" class="node">
<title>Node4</title>
<g id="a_node4"><a xlink:href="classdenoptim_1_1gui_1_1_g_u_i_graph_handler.html#a67ce3e03e9d13d3f312652296d25c0a5" target="_top" xlink:title=" ">
<polygon fill="white" stroke="black" points="414,-0.5 414,-30.5 586,-30.5 586,-0.5 414,-0.5"/>
<text text-anchor="start" x="422" y="-18.5" font-family="Helvetica,sans-Serif" font-size="10.00">denoptim.gui.GUIGraphHandler.load</text>
<text text-anchor="middle" x="500" y="-7.5" font-family="Helvetica,sans-Serif" font-size="10.00">FragmentSpace</text>
</a>
</g>
</g>
<!-- Node2&#45;&gt;Node4 -->
<g id="edge3" class="edge">
<title>Node2&#45;&gt;Node4</title>
<path fill="none" stroke="midnightblue" d="M611.75,-28.37C603.22,-27.38 594.62,-26.38 586.18,-25.4"/>
<polygon fill="midnightblue" stroke="midnightblue" points="611.38,-31.85 621.72,-29.53 612.19,-24.9 611.38,-31.85"/>
</g>
<!-- Node5 -->
<g id="node5" class="node">
<title>Node5</title>
<g id="a_node5"><a xlink:href="classdenoptim_1_1gui_1_1_g_u_i_graph_handler.html#af5b000c105018cbd7c262b34f9750044" target="_top" xlink:title="Initialize the panel and add buttons.">
<polygon fill="white" stroke="black" points="190,-6 190,-25 378,-25 378,-6 190,-6"/>
<text text-anchor="middle" x="284" y="-13" font-family="Helvetica,sans-Serif" font-size="10.00">denoptim.gui.GUIGraphHandler.initialize</text>
</a>
</g>
</g>
<!-- Node4&#45;&gt;Node5 -->
<g id="edge4" class="edge">
<title>Node4&#45;&gt;Node5</title>
<path fill="none" stroke="midnightblue" d="M403.62,-15.5C395.22,-15.5 386.73,-15.5 378.34,-15.5"/>
<polygon fill="midnightblue" stroke="midnightblue" points="403.81,-19 413.81,-15.5 403.81,-12 403.81,-19"/>
</g>
<!-- Node6 -->
<g id="node6" class="node">
<title>Node6</title>
<g id="a_node6"><a xlink:href="classdenoptim_1_1gui_1_1_g_u_i_graph_handler.html#ab7d010d9a384f6b85edce47c95d6723b" target="_top" xlink:title="Constructor.">
<polygon fill="white" stroke="black" points="0,-0.5 0,-30.5 154,-30.5 154,-0.5 0,-0.5"/>
<text text-anchor="start" x="8" y="-18.5" font-family="Helvetica,sans-Serif" font-size="10.00">denoptim.gui.GUIGraphHandler.</text>
<text text-anchor="middle" x="77" y="-7.5" font-family="Helvetica,sans-Serif" font-size="10.00">GUIGraphHandler</text>
</a>
</g>
</g>
<!-- Node5&#45;&gt;Node6 -->
<g id="edge5" class="edge">
<title>Node5&#45;&gt;Node6</title>
<path fill="none" stroke="midnightblue" d="M179.69,-15.5C171.07,-15.5 162.45,-15.5 154.09,-15.5"/>
<polygon fill="midnightblue" stroke="midnightblue" points="179.8,-19 189.8,-15.5 179.8,-12 179.8,-19"/>
</g>
</g>
</svg>
