<?xml version="1.0" encoding="UTF-8" standalone="no"?>
<!DOCTYPE svg PUBLIC "-//W3C//DTD SVG 1.1//EN"
 "http://www.w3.org/Graphics/SVG/1.1/DTD/svg11.dtd">
<!-- Generated by graphviz version 3.0.0 (20221109.1736)
 -->
<!-- Title: denoptim.combinatorial.CombinatorialExplorerByLayer.stopRun Pages: 1 -->
<svg width="400pt" height="39pt"
 viewBox="0.00 0.00 400.00 39.00" xmlns="http://www.w3.org/2000/svg" xmlns:xlink="http://www.w3.org/1999/xlink">
<g id="graph0" class="graph" transform="scale(1 1) rotate(0) translate(4 35)">
<title>denoptim.combinatorial.CombinatorialExplorerByLayer.stopRun</title>
<polygon fill="white" stroke="transparent" points="-4,4 -4,-35 396,-35 396,4 -4,4"/>
<!-- Node1 -->
<g id="node1" class="node">
<title>Node1</title>
<g id="a_node1"><a xlink:title="Stops all subtasks and shutdown executor.">
<polygon fill="#bfbfbf" stroke="black" points="0,-0.5 0,-30.5 178,-30.5 178,-0.5 0,-0.5"/>
<text text-anchor="start" x="8" y="-18.5" font-family="Helvetica,sans-Serif" font-size="10.00">denoptim.combinatorial.Combinatorial</text>
<text text-anchor="middle" x="89" y="-7.5" font-family="Helvetica,sans-Serif" font-size="10.00">ExplorerByLayer.stopRun</text>
</a>
</g>
</g>
<!-- Node2 -->
<g id="node2" class="node">
<title>Node2</title>
<g id="a_node2"><a xlink:href="classdenoptim_1_1combinatorial_1_1_combinatorial_explorer_by_layer.html#a471ee8aed24d5e6499dd4d747d6fea5b" target="_top" xlink:title="clean all reference to submitted tasks">
<polygon fill="white" stroke="black" points="214,-0.5 214,-30.5 392,-30.5 392,-0.5 214,-0.5"/>
<text text-anchor="start" x="222" y="-18.5" font-family="Helvetica,sans-Serif" font-size="10.00">denoptim.combinatorial.Combinatorial</text>
<text text-anchor="middle" x="303" y="-7.5" font-family="Helvetica,sans-Serif" font-size="10.00">ExplorerByLayer.cleanup</text>
</a>
</g>
</g>
<!-- Node1&#45;&gt;Node2 -->
<g id="edge1" class="edge">
<title>Node1&#45;&gt;Node2</title>
<path fill="none" stroke="midnightblue" d="M178.07,-15.5C186.57,-15.5 195.23,-15.5 203.82,-15.5"/>
<polygon fill="midnightblue" stroke="midnightblue" points="203.87,-19 213.87,-15.5 203.87,-12 203.87,-19"/>
</g>
</g>
</svg>
