<?xml version="1.0" encoding="UTF-8" standalone="no"?>
<!DOCTYPE svg PUBLIC "-//W3C//DTD SVG 1.1//EN"
 "http://www.w3.org/Graphics/SVG/1.1/DTD/svg11.dtd">
<!-- Generated by graphviz version 3.0.0 (20221109.1736)
 -->
<!-- Title: denoptim.gui.GAParametersForm.createLvlProbGraph Pages: 1 -->
<svg width="718pt" height="115pt"
 viewBox="0.00 0.00 718.00 115.00" xmlns="http://www.w3.org/2000/svg" xmlns:xlink="http://www.w3.org/1999/xlink">
<g id="graph0" class="graph" transform="scale(1 1) rotate(0) translate(4 111)">
<title>denoptim.gui.GAParametersForm.createLvlProbGraph</title>
<polygon fill="white" stroke="transparent" points="-4,4 -4,-111 714,-111 714,4 -4,4"/>
<!-- Node1 -->
<g id="node1" class="node">
<title>Node1</title>
<g id="a_node1"><a xlink:title=" ">
<polygon fill="#bfbfbf" stroke="black" points="0,-51.5 0,-81.5 138,-81.5 138,-51.5 0,-51.5"/>
<text text-anchor="start" x="8" y="-69.5" font-family="Helvetica,sans-Serif" font-size="10.00">denoptim.gui.GAParameters</text>
<text text-anchor="middle" x="69" y="-58.5" font-family="Helvetica,sans-Serif" font-size="10.00">Form.createLvlProbGraph</text>
</a>
</g>
</g>
<!-- Node2 -->
<g id="node2" class="node">
<title>Node2</title>
<g id="a_node2"><a xlink:href="classdenoptim_1_1gui_1_1_g_a_parameters_form.html#a75f6e299de906ce182f0eaef468312c2" target="_top" xlink:title=" ">
<polygon fill="white" stroke="black" points="174,-76.5 174,-106.5 312,-106.5 312,-76.5 174,-76.5"/>
<text text-anchor="start" x="182" y="-94.5" font-family="Helvetica,sans-Serif" font-size="10.00">denoptim.gui.GAParameters</text>
<text text-anchor="middle" x="243" y="-83.5" font-family="Helvetica,sans-Serif" font-size="10.00">Form.createLvlProbChart</text>
</a>
</g>
</g>
<!-- Node1&#45;&gt;Node2 -->
<g id="edge1" class="edge">
<title>Node1&#45;&gt;Node2</title>
<path fill="none" stroke="midnightblue" d="M138.47,-76.45C146.73,-77.65 155.22,-78.89 163.6,-80.1"/>
<polygon fill="midnightblue" stroke="midnightblue" points="163.36,-83.61 173.76,-81.58 164.37,-76.68 163.36,-83.61"/>
</g>
<!-- Node3 -->
<g id="node3" class="node">
<title>Node3</title>
<g id="a_node3"><a xlink:href="classdenoptim_1_1gui_1_1_g_a_parameters_form.html#a22386cab9dce09cbf6708158ebd38276" target="_top" xlink:title=" ">
<polygon fill="white" stroke="black" points="174,-27.5 174,-57.5 312,-57.5 312,-27.5 174,-27.5"/>
<text text-anchor="start" x="182" y="-45.5" font-family="Helvetica,sans-Serif" font-size="10.00">denoptim.gui.GAParameters</text>
<text text-anchor="middle" x="243" y="-34.5" font-family="Helvetica,sans-Serif" font-size="10.00">Form.createLvlProbDataset</text>
</a>
</g>
</g>
<!-- Node1&#45;&gt;Node3 -->
<g id="edge2" class="edge">
<title>Node1&#45;&gt;Node3</title>
<path fill="none" stroke="midnightblue" d="M138.47,-56.95C146.73,-55.79 155.22,-54.61 163.6,-53.44"/>
<polygon fill="midnightblue" stroke="midnightblue" points="164.34,-56.87 173.76,-52.02 163.37,-49.94 164.34,-56.87"/>
</g>
<!-- Node4 -->
<g id="node4" class="node">
<title>Node4</title>
<g id="a_node4"><a xlink:href="classdenoptim_1_1programs_1_1denovo_1_1_g_a_parameters.html#a4488a01992b7a7f2cda6f3aa7baa25ab" target="_top" xlink:title=" ">
<polygon fill="white" stroke="black" points="348,-49 348,-90 509,-90 509,-49 348,-49"/>
<text text-anchor="start" x="356" y="-78" font-family="Helvetica,sans-Serif" font-size="10.00">denoptim.programs.denovo.</text>
<text text-anchor="start" x="356" y="-67" font-family="Helvetica,sans-Serif" font-size="10.00">GAParameters.convertProbability</text>
<text text-anchor="middle" x="428.5" y="-56" font-family="Helvetica,sans-Serif" font-size="10.00">Scheme</text>
</a>
</g>
</g>
<!-- Node3&#45;&gt;Node4 -->
<g id="edge3" class="edge">
<title>Node3&#45;&gt;Node4</title>
<path fill="none" stroke="midnightblue" d="M312.07,-52.52C320.43,-53.75 329.06,-55.02 337.68,-56.28"/>
<polygon fill="midnightblue" stroke="midnightblue" points="337.36,-59.77 347.77,-57.77 338.38,-52.85 337.36,-59.77"/>
</g>
<!-- Node5 -->
<g id="node5" class="node">
<title>Node5</title>
<g id="a_node5"><a xlink:href="classdenoptim_1_1ga_1_1_e_a_utils.html#a3dc8bf41035f263b397e14655edc1db3" target="_top" xlink:title="Calculates the probability of adding a fragment to the given level.">
<polygon fill="white" stroke="black" points="352.5,-0.5 352.5,-30.5 504.5,-30.5 504.5,-0.5 352.5,-0.5"/>
<text text-anchor="start" x="360.5" y="-18.5" font-family="Helvetica,sans-Serif" font-size="10.00">denoptim.ga.EAUtils.getGrowth</text>
<text text-anchor="middle" x="428.5" y="-7.5" font-family="Helvetica,sans-Serif" font-size="10.00">ProbabilityAtLevel</text>
</a>
</g>
</g>
<!-- Node3&#45;&gt;Node5 -->
<g id="edge4" class="edge">
<title>Node3&#45;&gt;Node5</title>
<path fill="none" stroke="midnightblue" d="M312.07,-32.48C321.94,-31.03 332.2,-29.52 342.35,-28.03"/>
<polygon fill="midnightblue" stroke="midnightblue" points="343.06,-31.46 352.45,-26.54 342.04,-24.54 343.06,-31.46"/>
</g>
<!-- Node6 -->
<g id="node6" class="node">
<title>Node6</title>
<g id="a_node6"><a xlink:href="classdenoptim_1_1ga_1_1_e_a_utils.html#a41e3b62363bfa04f372d094483eee83f" target="_top" xlink:title="Calculated a probability given parameters defining the shape of the probability function and a single...">
<polygon fill="white" stroke="black" points="545,-6 545,-25 710,-25 710,-6 545,-6"/>
<text text-anchor="middle" x="627.5" y="-13" font-family="Helvetica,sans-Serif" font-size="10.00">denoptim.ga.EAUtils.getProbability</text>
</a>
</g>
</g>
<!-- Node5&#45;&gt;Node6 -->
<g id="edge5" class="edge">
<title>Node5&#45;&gt;Node6</title>
<path fill="none" stroke="midnightblue" d="M504.54,-15.5C514.41,-15.5 524.61,-15.5 534.71,-15.5"/>
<polygon fill="midnightblue" stroke="midnightblue" points="534.77,-19 544.77,-15.5 534.77,-12 534.77,-19"/>
</g>
</g>
</svg>
