<?xml version="1.0" encoding="UTF-8" standalone="no"?>
<!DOCTYPE svg PUBLIC "-//W3C//DTD SVG 1.1//EN"
 "http://www.w3.org/Graphics/SVG/1.1/DTD/svg11.dtd">
<!-- Generated by graphviz version 3.0.0 (20221109.1736)
 -->
<!-- Title: denoptim.fragmenter.FragmenterTools.manageFragmentCollection Pages: 1 -->
<svg width="555pt" height="106pt"
 viewBox="0.00 0.00 555.00 106.00" xmlns="http://www.w3.org/2000/svg" xmlns:xlink="http://www.w3.org/1999/xlink">
<g id="graph0" class="graph" transform="scale(1 1) rotate(0) translate(4 102)">
<title>denoptim.fragmenter.FragmenterTools.manageFragmentCollection</title>
<polygon fill="white" stroke="transparent" points="-4,4 -4,-102 551,-102 551,4 -4,4"/>
<!-- Node1 -->
<g id="node1" class="node">
<title>Node1</title>
<g id="a_node1"><a xlink:title="Management of fragments: includes application of fragment filters, rejection rules,...">
<polygon fill="#bfbfbf" stroke="black" points="386,-49.5 386,-79.5 547,-79.5 547,-49.5 386,-49.5"/>
<text text-anchor="start" x="394" y="-67.5" font-family="Helvetica,sans-Serif" font-size="10.00">denoptim.fragmenter.Fragmenter</text>
<text text-anchor="middle" x="466.5" y="-56.5" font-family="Helvetica,sans-Serif" font-size="10.00">Tools.manageFragmentCollection</text>
</a>
</g>
</g>
<!-- Node1&#45;&gt;Node1 -->
<g id="edge5" class="edge">
<title>Node1&#45;&gt;Node1</title>
<path fill="none" stroke="midnightblue" d="M500.97,-89.96C496.69,-94.68 485.2,-98 466.5,-98 435.81,-98 424.54,-89.06 432.69,-79.66"/>
<polygon fill="midnightblue" stroke="midnightblue" points="504.44,-89.41 500.31,-79.66 497.46,-89.86 504.44,-89.41"/>
</g>
<!-- Node2 -->
<g id="node2" class="node">
<title>Node2</title>
<g id="a_node2"><a xlink:href="classdenoptim_1_1fragmenter_1_1_fragmenter_task.html#ad73de82da7bcd76c0159c2d5080682c4" target="_top" xlink:title="Performs the whatever work has to be done by this task.">
<polygon fill="white" stroke="black" points="0,-46.5 0,-76.5 157,-76.5 157,-46.5 0,-46.5"/>
<text text-anchor="start" x="8" y="-64.5" font-family="Helvetica,sans-Serif" font-size="10.00">denoptim.fragmenter.Fragmenter</text>
<text text-anchor="middle" x="78.5" y="-53.5" font-family="Helvetica,sans-Serif" font-size="10.00">Task.call</text>
</a>
</g>
</g>
<!-- Node1&#45;&gt;Node2 -->
<g id="edge1" class="edge">
<title>Node1&#45;&gt;Node2</title>
<path fill="none" stroke="midnightblue" d="M397.67,-81.7C382.11,-84.94 365.56,-87.83 350,-89.5 280.62,-96.92 262.27,-97.92 193,-89.5 171.85,-86.93 148.95,-81.76 129.3,-76.55"/>
<polygon fill="midnightblue" stroke="midnightblue" points="398.69,-85.06 407.73,-79.53 397.21,-78.22 398.69,-85.06"/>
</g>
<!-- Node3 -->
<g id="node3" class="node">
<title>Node3</title>
<g id="a_node3"><a xlink:href="classdenoptim_1_1fragmenter_1_1_fragmenter_tools.html#afe25e249e1296a0a0d911a41e18bb2c2" target="_top" xlink:title="Performs fragmentation according to the given cutting rules.">
<polygon fill="white" stroke="black" points="193,-49.5 193,-79.5 350,-79.5 350,-49.5 193,-49.5"/>
<text text-anchor="start" x="201" y="-67.5" font-family="Helvetica,sans-Serif" font-size="10.00">denoptim.fragmenter.Fragmenter</text>
<text text-anchor="middle" x="271.5" y="-56.5" font-family="Helvetica,sans-Serif" font-size="10.00">Tools.fragmentation</text>
</a>
</g>
</g>
<!-- Node1&#45;&gt;Node3 -->
<g id="edge2" class="edge">
<title>Node1&#45;&gt;Node3</title>
<path fill="none" stroke="midnightblue" d="M375.83,-64.5C367.22,-64.5 358.54,-64.5 350.07,-64.5"/>
<polygon fill="midnightblue" stroke="midnightblue" points="375.89,-68 385.89,-64.5 375.89,-61 375.89,-68"/>
</g>
<!-- Node4 -->
<g id="node4" class="node">
<title>Node4</title>
<g id="a_node4"><a xlink:href="classdenoptim_1_1fragmenter_1_1_fragmenter_tools.html#adf20ca7e1ee86d06eef9d07501b47a4f" target="_top" xlink:title="Performs fragmentation from graphs, i.e., extracts existing fragments from graphs (stored in a file).">
<polygon fill="white" stroke="black" points="193,-0.5 193,-30.5 350,-30.5 350,-0.5 193,-0.5"/>
<text text-anchor="start" x="201" y="-18.5" font-family="Helvetica,sans-Serif" font-size="10.00">denoptim.fragmenter.Fragmenter</text>
<text text-anchor="middle" x="271.5" y="-7.5" font-family="Helvetica,sans-Serif" font-size="10.00">Tools.fragmentationFromGraphs</text>
</a>
</g>
</g>
<!-- Node1&#45;&gt;Node4 -->
<g id="edge3" class="edge">
<title>Node1&#45;&gt;Node4</title>
<path fill="none" stroke="midnightblue" d="M396.38,-46.95C375.18,-41.57 352.07,-35.7 331.61,-30.51"/>
<polygon fill="midnightblue" stroke="midnightblue" points="395.73,-50.4 406.28,-49.47 397.45,-43.61 395.73,-50.4"/>
</g>
<!-- Node4&#45;&gt;Node2 -->
<g id="edge4" class="edge">
<title>Node4&#45;&gt;Node2</title>
<path fill="none" stroke="midnightblue" d="M198.11,-32.93C179.58,-37.4 159.83,-42.15 141.85,-46.48"/>
<polygon fill="midnightblue" stroke="midnightblue" points="199.06,-36.31 207.96,-30.56 197.42,-29.5 199.06,-36.31"/>
</g>
</g>
</svg>
