<?xml version="1.0" encoding="UTF-8" standalone="no"?>
<!DOCTYPE svg PUBLIC "-//W3C//DTD SVG 1.1//EN"
 "http://www.w3.org/Graphics/SVG/1.1/DTD/svg11.dtd">
<!-- Generated by graphviz version 3.0.0 (20221109.1736)
 -->
<!-- Title: denoptim.graph.Vertex.setProperties Pages: 1 -->
<svg width="1166pt" height="1025pt"
 viewBox="0.00 0.00 1166.00 1025.00" xmlns="http://www.w3.org/2000/svg" xmlns:xlink="http://www.w3.org/1999/xlink">
<g id="graph0" class="graph" transform="scale(1 1) rotate(0) translate(4 1021)">
<title>denoptim.graph.Vertex.setProperties</title>
<polygon fill="white" stroke="transparent" points="-4,4 -4,-1021 1162,-1021 1162,4 -4,4"/>
<!-- Node1 -->
<g id="node1" class="node">
<title>Node1</title>
<g id="a_node1"><a xlink:title=" ">
<polygon fill="#bfbfbf" stroke="black" points="1030,-437.5 1030,-467.5 1158,-467.5 1158,-437.5 1030,-437.5"/>
<text text-anchor="start" x="1038" y="-455.5" font-family="Helvetica,sans-Serif" font-size="10.00">denoptim.graph.Vertex.set</text>
<text text-anchor="middle" x="1094" y="-444.5" font-family="Helvetica,sans-Serif" font-size="10.00">Properties</text>
</a>
</g>
</g>
<!-- Node2 -->
<g id="node2" class="node">
<title>Node2</title>
<g id="a_node2"><a xlink:href="classdenoptim_1_1graph_1_1_empty_vertex.html#a537720023ac6debd9f4663d61026a423" target="_top" xlink:title="Returns a deep&#45;copy of this vertex.">
<polygon fill="white" stroke="black" points="829,-845 829,-864 994,-864 994,-845 829,-845"/>
<text text-anchor="middle" x="911.5" y="-852" font-family="Helvetica,sans-Serif" font-size="10.00">denoptim.graph.EmptyVertex.clone</text>
</a>
</g>
</g>
<!-- Node1&#45;&gt;Node2 -->
<g id="edge1" class="edge">
<title>Node1&#45;&gt;Node2</title>
<path fill="none" stroke="midnightblue" d="M1081.88,-477.27C1046.88,-555.22 939.94,-793.38 916.9,-844.69"/>
<polygon fill="midnightblue" stroke="midnightblue" points="1085.24,-478.32 1086.14,-467.77 1078.86,-475.46 1085.24,-478.32"/>
</g>
<!-- Node10 -->
<g id="node10" class="node">
<title>Node10</title>
<g id="a_node10"><a xlink:href="classdenoptim_1_1graph_1_1_fragment.html#a3b476687a392e637d2bf2f3b6ccb09a4" target="_top" xlink:title="Returns a deep copy of this fragments.">
<polygon fill="white" stroke="black" points="835.5,-443 835.5,-462 987.5,-462 987.5,-443 835.5,-443"/>
<text text-anchor="middle" x="911.5" y="-450" font-family="Helvetica,sans-Serif" font-size="10.00">denoptim.graph.Fragment.clone</text>
</a>
</g>
</g>
<!-- Node1&#45;&gt;Node10 -->
<g id="edge9" class="edge">
<title>Node1&#45;&gt;Node10</title>
<path fill="none" stroke="midnightblue" d="M1019.83,-452.5C1009.24,-452.5 998.32,-452.5 987.68,-452.5"/>
<polygon fill="midnightblue" stroke="midnightblue" points="1019.87,-456 1029.87,-452.5 1019.87,-449 1019.87,-456"/>
</g>
<!-- Node30 -->
<g id="node30" class="node">
<title>Node30</title>
<g id="a_node30"><a xlink:href="classdenoptim_1_1graph_1_1_template.html#ac7d7400f47d4bad33f3755f1b3d19a3e" target="_top" xlink:title="Returns a deep copy of this template.">
<polygon fill="white" stroke="black" points="836,-80 836,-99 987,-99 987,-80 836,-80"/>
<text text-anchor="middle" x="911.5" y="-87" font-family="Helvetica,sans-Serif" font-size="10.00">denoptim.graph.Template.clone</text>
</a>
</g>
</g>
<!-- Node1&#45;&gt;Node30 -->
<g id="edge32" class="edge">
<title>Node1&#45;&gt;Node30</title>
<path fill="none" stroke="midnightblue" d="M1080.9,-428.16C1045.14,-356.25 941,-146.81 917.33,-99.2"/>
<polygon fill="midnightblue" stroke="midnightblue" points="1077.89,-429.97 1085.47,-437.36 1084.16,-426.85 1077.89,-429.97"/>
</g>
<!-- Node3 -->
<g id="node3" class="node">
<title>Node3</title>
<g id="a_node3"><a xlink:href="classdenoptim_1_1graph_1_1_d_graph_test.html#a0fd4c84840d3eb11b1838a627d9e6956" target="_top" xlink:title="Returns a graph with definition of symmetric vertexes and symmetric APs meant for testing purposes.">
<polygon fill="white" stroke="black" points="614,-962.5 614,-992.5 778,-992.5 778,-962.5 614,-962.5"/>
<text text-anchor="start" x="622" y="-980.5" font-family="Helvetica,sans-Serif" font-size="10.00">denoptim.graph.DGraphTest.make</text>
<text text-anchor="middle" x="696" y="-969.5" font-family="Helvetica,sans-Serif" font-size="10.00">TestGraphM</text>
</a>
</g>
</g>
<!-- Node2&#45;&gt;Node3 -->
<g id="edge2" class="edge">
<title>Node2&#45;&gt;Node3</title>
<path fill="none" stroke="midnightblue" d="M895.3,-871.41C874.42,-893.59 834.67,-932.2 793,-953.5 786.27,-956.94 779.02,-959.91 771.62,-962.46"/>
<polygon fill="midnightblue" stroke="midnightblue" points="897.89,-873.76 902.11,-864.04 892.75,-869.01 897.89,-873.76"/>
</g>
<!-- Node6 -->
<g id="node6" class="node">
<title>Node6</title>
<g id="a_node6"><a xlink:href="classdenoptim_1_1graph_1_1_d_graph_test.html#ade544f5bf2f66ccb7a4f179e84b33c1c" target="_top" xlink:title="Returns a graph with peculiar definition of symmetric vertexes and symmetric APs meant for testing pu...">
<polygon fill="white" stroke="black" points="614,-913.5 614,-943.5 778,-943.5 778,-913.5 614,-913.5"/>
<text text-anchor="start" x="622" y="-931.5" font-family="Helvetica,sans-Serif" font-size="10.00">denoptim.graph.DGraphTest.make</text>
<text text-anchor="middle" x="696" y="-920.5" font-family="Helvetica,sans-Serif" font-size="10.00">TestGraphN</text>
</a>
</g>
</g>
<!-- Node2&#45;&gt;Node6 -->
<g id="edge5" class="edge">
<title>Node2&#45;&gt;Node6</title>
<path fill="none" stroke="midnightblue" d="M881.43,-868.39C857.95,-879.23 823.85,-894.15 793,-904.5 783.39,-907.72 773.11,-910.74 762.98,-913.46"/>
<polygon fill="midnightblue" stroke="midnightblue" points="882.91,-871.56 890.5,-864.16 879.95,-865.21 882.91,-871.56"/>
</g>
<!-- Node7 -->
<g id="node7" class="node">
<title>Node7</title>
<g id="a_node7"><a xlink:href="classdenoptim_1_1graph_1_1_vertex_test.html#ab36c441c57e9852e2be6d810d80fbc87" target="_top" xlink:title=" ">
<polygon fill="white" stroke="black" points="620.5,-766.5 620.5,-796.5 771.5,-796.5 771.5,-766.5 620.5,-766.5"/>
<text text-anchor="start" x="628.5" y="-784.5" font-family="Helvetica,sans-Serif" font-size="10.00">denoptim.graph.VertexTest.test</text>
<text text-anchor="middle" x="696" y="-773.5" font-family="Helvetica,sans-Serif" font-size="10.00">Clone</text>
</a>
</g>
</g>
<!-- Node2&#45;&gt;Node7 -->
<g id="edge6" class="edge">
<title>Node2&#45;&gt;Node7</title>
<path fill="none" stroke="midnightblue" d="M880.18,-840.81C856.7,-830.53 823.19,-816.55 793,-806.5 782.3,-802.94 770.79,-799.56 759.58,-796.51"/>
<polygon fill="midnightblue" stroke="midnightblue" points="879.03,-844.13 889.59,-844.97 881.86,-837.73 879.03,-844.13"/>
</g>
<!-- Node8 -->
<g id="node8" class="node">
<title>Node8</title>
<g id="a_node8"><a xlink:href="classdenoptim_1_1graph_1_1_attachment_point_test.html#a309f26b0bad9acff15e95672089c2432" target="_top" xlink:title=" ">
<polygon fill="white" stroke="black" points="628.5,-864.5 628.5,-894.5 763.5,-894.5 763.5,-864.5 628.5,-864.5"/>
<text text-anchor="start" x="636.5" y="-882.5" font-family="Helvetica,sans-Serif" font-size="10.00">denoptim.graph.Attachment</text>
<text text-anchor="middle" x="696" y="-871.5" font-family="Helvetica,sans-Serif" font-size="10.00">PointTest.testSameAs</text>
</a>
</g>
</g>
<!-- Node2&#45;&gt;Node8 -->
<g id="edge7" class="edge">
<title>Node2&#45;&gt;Node8</title>
<path fill="none" stroke="midnightblue" d="M819.18,-865.19C800.49,-867.38 781.16,-869.65 763.54,-871.71"/>
<polygon fill="midnightblue" stroke="midnightblue" points="819.65,-868.66 829.18,-864.02 818.84,-861.71 819.65,-868.66"/>
</g>
<!-- Node9 -->
<g id="node9" class="node">
<title>Node9</title>
<g id="a_node9"><a xlink:href="classdenoptim_1_1graph_1_1_attachment_point_test.html#af2fc2503c300637c2369eb4347c990c1" target="_top" xlink:title=" ">
<polygon fill="white" stroke="black" points="609.5,-815.5 609.5,-845.5 782.5,-845.5 782.5,-815.5 609.5,-815.5"/>
<text text-anchor="start" x="617.5" y="-833.5" font-family="Helvetica,sans-Serif" font-size="10.00">denoptim.graph.Attachment</text>
<text text-anchor="middle" x="696" y="-822.5" font-family="Helvetica,sans-Serif" font-size="10.00">PointTest.testSameAs_DiffAPClass</text>
</a>
</g>
</g>
<!-- Node2&#45;&gt;Node9 -->
<g id="edge8" class="edge">
<title>Node2&#45;&gt;Node9</title>
<path fill="none" stroke="midnightblue" d="M818.89,-844.2C806.93,-842.86 794.7,-841.48 782.84,-840.15"/>
<polygon fill="midnightblue" stroke="midnightblue" points="818.54,-847.68 828.87,-845.32 819.32,-840.73 818.54,-847.68"/>
</g>
<!-- Node4 -->
<g id="node4" class="node">
<title>Node4</title>
<g id="a_node4"><a xlink:href="classdenoptim_1_1graph_1_1_d_graph_test.html#a05b87ffb43b9710fcea83b0777654e27" target="_top" xlink:title=" ">
<polygon fill="white" stroke="black" points="390.5,-986.5 390.5,-1016.5 546.5,-1016.5 546.5,-986.5 390.5,-986.5"/>
<text text-anchor="start" x="398.5" y="-1004.5" font-family="Helvetica,sans-Serif" font-size="10.00">denoptim.graph.DGraphTest.test</text>
<text text-anchor="middle" x="468.5" y="-993.5" font-family="Helvetica,sans-Serif" font-size="10.00">DetectSymVertexSets</text>
</a>
</g>
</g>
<!-- Node3&#45;&gt;Node4 -->
<g id="edge3" class="edge">
<title>Node3&#45;&gt;Node4</title>
<path fill="none" stroke="midnightblue" d="M603.82,-987.2C584.93,-989.22 565.2,-991.31 546.86,-993.27"/>
<polygon fill="midnightblue" stroke="midnightblue" points="604.33,-990.67 613.91,-986.13 603.59,-983.71 604.33,-990.67"/>
</g>
<!-- Node5 -->
<g id="node5" class="node">
<title>Node5</title>
<g id="a_node5"><a xlink:href="classdenoptim_1_1graph_1_1_d_graph_test.html#ac02ab6b199aee9280e88a14d0026a175" target="_top" xlink:title=" ">
<polygon fill="white" stroke="black" points="383.5,-937.5 383.5,-967.5 553.5,-967.5 553.5,-937.5 383.5,-937.5"/>
<text text-anchor="start" x="391.5" y="-955.5" font-family="Helvetica,sans-Serif" font-size="10.00">denoptim.graph.DGraphTest.test</text>
<text text-anchor="middle" x="468.5" y="-944.5" font-family="Helvetica,sans-Serif" font-size="10.00">FindSymmetrySetsOfChildVertexes</text>
</a>
</g>
</g>
<!-- Node3&#45;&gt;Node5 -->
<g id="edge4" class="edge">
<title>Node3&#45;&gt;Node5</title>
<path fill="none" stroke="midnightblue" d="M603.71,-967.38C587.17,-965.55 569.99,-963.64 553.67,-961.83"/>
<polygon fill="midnightblue" stroke="midnightblue" points="603.58,-970.89 613.91,-968.51 604.35,-963.93 603.58,-970.89"/>
</g>
<!-- Node10&#45;&gt;Node7 -->
<g id="edge23" class="edge">
<title>Node10&#45;&gt;Node7</title>
<path fill="none" stroke="midnightblue" d="M909,-472.25C903.77,-526.55 881.5,-679.24 793,-757.5 786.82,-762.96 779.59,-767.22 771.91,-770.53"/>
<polygon fill="midnightblue" stroke="midnightblue" points="912.49,-472.49 909.87,-462.22 905.52,-471.88 912.49,-472.49"/>
</g>
<!-- Node10&#45;&gt;Node10 -->
<g id="edge10" class="edge">
<title>Node10&#45;&gt;Node10</title>
<path fill="none" stroke="midnightblue" d="M945.61,-470.39C945.11,-476.04 933.74,-480.5 911.5,-480.5 879.15,-480.5 869.8,-471.07 883.45,-462.26"/>
<polygon fill="midnightblue" stroke="midnightblue" points="948.33,-468.19 939.55,-462.26 942.72,-472.37 948.33,-468.19"/>
</g>
<!-- Node11 -->
<g id="node11" class="node">
<title>Node11</title>
<g id="a_node11"><a xlink:href="classdenoptim_1_1fragmenter_1_1_fragmenter_tools.html#a37c0e44680ec1c54fcff98dae0832a50" target="_top" xlink:title="Chops one chemical structure by applying the given cutting rules.">
<polygon fill="white" stroke="black" points="617.5,-717.5 617.5,-747.5 774.5,-747.5 774.5,-717.5 617.5,-717.5"/>
<text text-anchor="start" x="625.5" y="-735.5" font-family="Helvetica,sans-Serif" font-size="10.00">denoptim.fragmenter.Fragmenter</text>
<text text-anchor="middle" x="696" y="-724.5" font-family="Helvetica,sans-Serif" font-size="10.00">Tools.fragmentation</text>
</a>
</g>
</g>
<!-- Node10&#45;&gt;Node11 -->
<g id="edge11" class="edge">
<title>Node10&#45;&gt;Node11</title>
<path fill="none" stroke="midnightblue" d="M907.39,-472.24C898.71,-520.46 869.64,-644.89 793,-708.5 787.58,-713 781.43,-716.67 774.93,-719.67"/>
<polygon fill="midnightblue" stroke="midnightblue" points="910.87,-472.63 909.09,-462.19 903.97,-471.46 910.87,-472.63"/>
</g>
<!-- Node12 -->
<g id="node12" class="node">
<title>Node12</title>
<g id="a_node12"><a xlink:href="classdenoptim_1_1fragmenter_1_1_clusterable_fragment.html#a1e02c5f6054d5764ff597bd12337345a" target="_top" xlink:title=" ">
<polygon fill="white" stroke="black" points="618,-668.5 618,-698.5 774,-698.5 774,-668.5 618,-668.5"/>
<text text-anchor="start" x="626" y="-686.5" font-family="Helvetica,sans-Serif" font-size="10.00">denoptim.fragmenter.Clusterable</text>
<text text-anchor="middle" x="696" y="-675.5" font-family="Helvetica,sans-Serif" font-size="10.00">Fragment.getTransformedCopy</text>
</a>
</g>
</g>
<!-- Node10&#45;&gt;Node12 -->
<g id="edge12" class="edge">
<title>Node10&#45;&gt;Node12</title>
<path fill="none" stroke="midnightblue" d="M905.22,-471.76C892.91,-512.97 858.24,-609.93 793,-659.5 787.25,-663.87 780.81,-667.44 774.05,-670.38"/>
<polygon fill="midnightblue" stroke="midnightblue" points="908.59,-472.7 908,-462.13 901.87,-470.77 908.59,-472.7"/>
</g>
<!-- Node19 -->
<g id="node19" class="node">
<title>Node19</title>
<g id="a_node19"><a xlink:href="classdenoptim_1_1graph_1_1rings_1_1_ring_size_manager_test.html#ac3efa7ffa90ffbdb876e8489054b02af" target="_top" xlink:title="Build a graph meant to be used in unit tests.">
<polygon fill="white" stroke="black" points="610.5,-619.5 610.5,-649.5 781.5,-649.5 781.5,-619.5 610.5,-619.5"/>
<text text-anchor="start" x="618.5" y="-637.5" font-family="Helvetica,sans-Serif" font-size="10.00">denoptim.graph.rings.Ring</text>
<text text-anchor="middle" x="696" y="-626.5" font-family="Helvetica,sans-Serif" font-size="10.00">SizeManagerTest.makeTestGraphA</text>
</a>
</g>
</g>
<!-- Node10&#45;&gt;Node19 -->
<g id="edge20" class="edge">
<title>Node10&#45;&gt;Node19</title>
<path fill="none" stroke="midnightblue" d="M901.95,-471.24C885.71,-504.66 847.12,-574.4 793,-610.5 787.85,-613.93 782.26,-616.87 776.44,-619.39"/>
<polygon fill="midnightblue" stroke="midnightblue" points="905.16,-472.65 906.27,-462.11 898.83,-469.66 905.16,-472.65"/>
</g>
<!-- Node20 -->
<g id="node20" class="node">
<title>Node20</title>
<g id="a_node20"><a xlink:href="classdenoptim_1_1ga_1_1_graph_operations_test.html#af86b79061d15a4d2e3d7ccdf0d758f44" target="_top" xlink:title=" ">
<polygon fill="white" stroke="black" points="623.5,-570.5 623.5,-600.5 768.5,-600.5 768.5,-570.5 623.5,-570.5"/>
<text text-anchor="start" x="631.5" y="-588.5" font-family="Helvetica,sans-Serif" font-size="10.00">denoptim.ga.GraphOperations</text>
<text text-anchor="middle" x="696" y="-577.5" font-family="Helvetica,sans-Serif" font-size="10.00">Test.testAddRing</text>
</a>
</g>
</g>
<!-- Node10&#45;&gt;Node20 -->
<g id="edge21" class="edge">
<title>Node10&#45;&gt;Node20</title>
<path fill="none" stroke="midnightblue" d="M896.22,-470.21C875.85,-494.27 836.12,-537 793,-560.5 785.36,-564.66 777,-568.16 768.5,-571.08"/>
<polygon fill="midnightblue" stroke="midnightblue" points="899.13,-472.18 902.82,-462.25 893.74,-467.71 899.13,-472.18"/>
</g>
<!-- Node21 -->
<g id="node21" class="node">
<title>Node21</title>
<g id="a_node21"><a xlink:href="classdenoptim_1_1graph_1_1_fragment_test.html#a0a98792d99861bb6673e66a76ff49d31" target="_top" xlink:title=" ">
<polygon fill="white" stroke="black" points="614,-521.5 614,-551.5 778,-551.5 778,-521.5 614,-521.5"/>
<text text-anchor="start" x="622" y="-539.5" font-family="Helvetica,sans-Serif" font-size="10.00">denoptim.graph.FragmentTest.test</text>
<text text-anchor="middle" x="696" y="-528.5" font-family="Helvetica,sans-Serif" font-size="10.00">Clone</text>
</a>
</g>
</g>
<!-- Node10&#45;&gt;Node21 -->
<g id="edge22" class="edge">
<title>Node10&#45;&gt;Node21</title>
<path fill="none" stroke="midnightblue" d="M885.84,-467.18C862.57,-480.53 826.37,-500 793,-512.5 784.15,-515.82 774.67,-518.81 765.25,-521.48"/>
<polygon fill="midnightblue" stroke="midnightblue" points="887.79,-470.1 894.68,-462.05 884.28,-464.05 887.79,-470.1"/>
</g>
<!-- Node22 -->
<g id="node22" class="node">
<title>Node22</title>
<g id="a_node22"><a xlink:href="classdenoptim_1_1graph_1_1rings_1_1_path_closability_tools_test.html#af991094bf8c17599150d2e43ea582cf9" target="_top" xlink:title=" ">
<polygon fill="white" stroke="black" points="615.5,-462 615.5,-503 776.5,-503 776.5,-462 615.5,-462"/>
<text text-anchor="start" x="623.5" y="-491" font-family="Helvetica,sans-Serif" font-size="10.00">denoptim.graph.rings.Path</text>
<text text-anchor="start" x="623.5" y="-480" font-family="Helvetica,sans-Serif" font-size="10.00">ClosabilityToolsTest.testEvaluate</text>
<text text-anchor="middle" x="696" y="-469" font-family="Helvetica,sans-Serif" font-size="10.00">ConstitutionalClosability</text>
</a>
</g>
</g>
<!-- Node10&#45;&gt;Node22 -->
<g id="edge24" class="edge">
<title>Node10&#45;&gt;Node22</title>
<path fill="none" stroke="midnightblue" d="M832.65,-463.44C814.4,-466 794.93,-468.74 776.6,-471.31"/>
<polygon fill="midnightblue" stroke="midnightblue" points="833.24,-466.89 842.65,-462.03 832.26,-459.96 833.24,-466.89"/>
</g>
<!-- Node23 -->
<g id="node23" class="node">
<title>Node23</title>
<g id="a_node23"><a xlink:href="classdenoptim_1_1graph_1_1rings_1_1_random_comb_of_ring_iterator_test.html#a4a178f479d08c120f5fea6ef60feac8b" target="_top" xlink:title=" ">
<polygon fill="white" stroke="black" points="606.5,-402 606.5,-443 785.5,-443 785.5,-402 606.5,-402"/>
<text text-anchor="start" x="614.5" y="-431" font-family="Helvetica,sans-Serif" font-size="10.00">denoptim.graph.rings.Random</text>
<text text-anchor="start" x="614.5" y="-420" font-family="Helvetica,sans-Serif" font-size="10.00">CombOfRingIteratorTest.testEvaluate</text>
<text text-anchor="middle" x="696" y="-409" font-family="Helvetica,sans-Serif" font-size="10.00">ConstitutionalClosability</text>
</a>
</g>
</g>
<!-- Node10&#45;&gt;Node23 -->
<g id="edge25" class="edge">
<title>Node10&#45;&gt;Node23</title>
<path fill="none" stroke="midnightblue" d="M832.32,-441.52C817.19,-439.39 801.22,-437.15 785.78,-434.97"/>
<polygon fill="midnightblue" stroke="midnightblue" points="832.26,-445.04 842.65,-442.97 833.24,-438.11 832.26,-445.04"/>
</g>
<!-- Node24 -->
<g id="node24" class="node">
<title>Node24</title>
<g id="a_node24"><a xlink:href="classdenoptim_1_1graph_1_1rings_1_1_ring_size_manager_test.html#a55d1482a18edbaabf15b090392a282f3" target="_top" xlink:title=" ">
<polygon fill="white" stroke="black" points="603,-353.5 603,-383.5 789,-383.5 789,-353.5 603,-353.5"/>
<text text-anchor="start" x="611" y="-371.5" font-family="Helvetica,sans-Serif" font-size="10.00">denoptim.graph.rings.Ring</text>
<text text-anchor="middle" x="696" y="-360.5" font-family="Helvetica,sans-Serif" font-size="10.00">SizeManagerTest.testEvaluateRCVPair</text>
</a>
</g>
</g>
<!-- Node10&#45;&gt;Node24 -->
<g id="edge26" class="edge">
<title>Node10&#45;&gt;Node24</title>
<path fill="none" stroke="midnightblue" d="M885.84,-437.82C862.57,-424.47 826.37,-405 793,-392.5 784.15,-389.18 774.67,-386.19 765.25,-383.52"/>
<polygon fill="midnightblue" stroke="midnightblue" points="884.28,-440.95 894.68,-442.95 887.79,-434.9 884.28,-440.95"/>
</g>
<!-- Node25 -->
<g id="node25" class="node">
<title>Node25</title>
<g id="a_node25"><a xlink:href="classdenoptim_1_1ga_1_1_graph_operations_test.html#a2b8d6293663bce9a9da1d35efe31911b" target="_top" xlink:title=" ">
<polygon fill="white" stroke="black" points="623.5,-304.5 623.5,-334.5 768.5,-334.5 768.5,-304.5 623.5,-304.5"/>
<text text-anchor="start" x="631.5" y="-322.5" font-family="Helvetica,sans-Serif" font-size="10.00">denoptim.ga.GraphOperations</text>
<text text-anchor="middle" x="696" y="-311.5" font-family="Helvetica,sans-Serif" font-size="10.00">Test.testExtendGraph</text>
</a>
</g>
</g>
<!-- Node10&#45;&gt;Node25 -->
<g id="edge27" class="edge">
<title>Node10&#45;&gt;Node25</title>
<path fill="none" stroke="midnightblue" d="M896.59,-434.93C876.4,-410.63 836.58,-367.11 793,-343.5 785.37,-339.37 777.02,-335.93 768.52,-333.08"/>
<polygon fill="midnightblue" stroke="midnightblue" points="894.09,-437.4 903.12,-442.94 899.52,-432.98 894.09,-437.4"/>
</g>
<!-- Node26 -->
<g id="node26" class="node">
<title>Node26</title>
<g id="a_node26"><a xlink:href="classdenoptim_1_1fragmenter_1_1_conformer_extractor_task_test.html#a2dc64f375774087fc0b4511384f50bc9" target="_top" xlink:title=" ">
<polygon fill="white" stroke="black" points="599,-245 599,-286 793,-286 793,-245 599,-245"/>
<text text-anchor="start" x="607" y="-274" font-family="Helvetica,sans-Serif" font-size="10.00">denoptim.fragmenter.Conformer</text>
<text text-anchor="start" x="607" y="-263" font-family="Helvetica,sans-Serif" font-size="10.00">ExtractorTaskTest.testExtractClusterable</text>
<text text-anchor="middle" x="696" y="-252" font-family="Helvetica,sans-Serif" font-size="10.00">Fragments</text>
</a>
</g>
</g>
<!-- Node10&#45;&gt;Node26 -->
<g id="edge28" class="edge">
<title>Node10&#45;&gt;Node26</title>
<path fill="none" stroke="midnightblue" d="M901.54,-433.54C884.88,-400.35 845.98,-331.72 793,-294.5 788.58,-291.4 783.83,-288.62 778.88,-286.14"/>
<polygon fill="midnightblue" stroke="midnightblue" points="898.45,-435.19 905.98,-442.63 904.73,-432.11 898.45,-435.19"/>
</g>
<!-- Node27 -->
<g id="node27" class="node">
<title>Node27</title>
<g id="a_node27"><a xlink:href="classdenoptim_1_1fragmenter_1_1_fragment_alignement_test.html#ad46b9a4324bb5b9bbfc08c73de0e1124" target="_top" xlink:title=" ">
<polygon fill="white" stroke="black" points="602,-196.5 602,-226.5 790,-226.5 790,-196.5 602,-196.5"/>
<text text-anchor="start" x="610" y="-214.5" font-family="Helvetica,sans-Serif" font-size="10.00">denoptim.fragmenter.Fragment</text>
<text text-anchor="middle" x="696" y="-203.5" font-family="Helvetica,sans-Serif" font-size="10.00">AlignementTest.testGetMinimumRMSD</text>
</a>
</g>
</g>
<!-- Node10&#45;&gt;Node27 -->
<g id="edge29" class="edge">
<title>Node10&#45;&gt;Node27</title>
<path fill="none" stroke="midnightblue" d="M905.75,-433.19C894.21,-390.53 860.58,-287.92 793,-235.5 788.66,-232.13 783.9,-229.23 778.9,-226.73"/>
<polygon fill="midnightblue" stroke="midnightblue" points="902.36,-434.09 908.26,-442.89 909.14,-432.33 902.36,-434.09"/>
</g>
<!-- Node28 -->
<g id="node28" class="node">
<title>Node28</title>
<g id="a_node28"><a xlink:href="classdenoptim_1_1graph_1_1_attachment_point_test.html#af88d30ce68477984fe6179325d1540b2" target="_top" xlink:title=" ">
<polygon fill="white" stroke="black" points="606,-98.5 606,-128.5 786,-128.5 786,-98.5 606,-98.5"/>
<text text-anchor="start" x="614" y="-116.5" font-family="Helvetica,sans-Serif" font-size="10.00">denoptim.graph.Attachment</text>
<text text-anchor="middle" x="696" y="-105.5" font-family="Helvetica,sans-Serif" font-size="10.00">PointTest.testHasConnectedSrcAtom</text>
</a>
</g>
</g>
<!-- Node10&#45;&gt;Node28 -->
<g id="edge30" class="edge">
<title>Node10&#45;&gt;Node28</title>
<path fill="none" stroke="midnightblue" d="M909.25,-432.49C904.65,-376.79 883.81,-218.66 793,-137.5 789.16,-134.07 784.9,-131.11 780.37,-128.56"/>
<polygon fill="midnightblue" stroke="midnightblue" points="905.78,-433.05 910,-442.76 912.76,-432.53 905.78,-433.05"/>
</g>
<!-- Node29 -->
<g id="node29" class="node">
<title>Node29</title>
<g id="a_node29"><a xlink:href="classdenoptim_1_1graph_1_1_attachment_point_test.html#a4889032266eb87d0f91af8b4e9869360" target="_top" xlink:title=" ">
<polygon fill="white" stroke="black" points="616.5,-147.5 616.5,-177.5 775.5,-177.5 775.5,-147.5 616.5,-147.5"/>
<text text-anchor="start" x="624.5" y="-165.5" font-family="Helvetica,sans-Serif" font-size="10.00">denoptim.graph.Attachment</text>
<text text-anchor="middle" x="696" y="-154.5" font-family="Helvetica,sans-Serif" font-size="10.00">PointTest.testHasSameSrcAtom</text>
</a>
</g>
</g>
<!-- Node10&#45;&gt;Node29 -->
<g id="edge31" class="edge">
<title>Node10&#45;&gt;Node29</title>
<path fill="none" stroke="midnightblue" d="M907.8,-432.99C899.9,-383.67 872.17,-253.18 793,-186.5 787.88,-182.18 782.08,-178.63 775.95,-175.7"/>
<polygon fill="midnightblue" stroke="midnightblue" points="904.35,-433.6 909.3,-442.97 911.27,-432.56 904.35,-433.6"/>
</g>
<!-- Node13 -->
<g id="node13" class="node">
<title>Node13</title>
<g id="a_node13"><a xlink:href="classdenoptim_1_1fragmenter_1_1_fragment_clusterer.html#a1845241fead0bee7fd92feaf6d71e331" target="_top" xlink:title="Once the clustering is done, this method return the list of cluster centroids.">
<polygon fill="white" stroke="black" points="394,-668.5 394,-698.5 543,-698.5 543,-668.5 394,-668.5"/>
<text text-anchor="start" x="402" y="-686.5" font-family="Helvetica,sans-Serif" font-size="10.00">denoptim.fragmenter.Fragment</text>
<text text-anchor="middle" x="468.5" y="-675.5" font-family="Helvetica,sans-Serif" font-size="10.00">Clusterer.getClusterCentroids</text>
</a>
</g>
</g>
<!-- Node12&#45;&gt;Node13 -->
<g id="edge13" class="edge">
<title>Node12&#45;&gt;Node13</title>
<path fill="none" stroke="midnightblue" d="M607.71,-683.5C586.42,-683.5 563.85,-683.5 543.26,-683.5"/>
<polygon fill="midnightblue" stroke="midnightblue" points="607.71,-687 617.71,-683.5 607.71,-680 607.71,-687"/>
</g>
<!-- Node17 -->
<g id="node17" class="node">
<title>Node17</title>
<g id="a_node17"><a xlink:href="classdenoptim_1_1fragmenter_1_1_fragment_clusterer.html#aae37739ae959ab8a85bf01286c5a518e" target="_top" xlink:title="Once the clustering is done, this method return the list of fragments that are nearest to the respect...">
<polygon fill="white" stroke="black" points="374,-717.5 374,-747.5 563,-747.5 563,-717.5 374,-717.5"/>
<text text-anchor="start" x="382" y="-735.5" font-family="Helvetica,sans-Serif" font-size="10.00">denoptim.fragmenter.Fragment</text>
<text text-anchor="middle" x="468.5" y="-724.5" font-family="Helvetica,sans-Serif" font-size="10.00">Clusterer.getNearestToClusterCentroids</text>
</a>
</g>
</g>
<!-- Node12&#45;&gt;Node17 -->
<g id="edge17" class="edge">
<title>Node12&#45;&gt;Node17</title>
<path fill="none" stroke="midnightblue" d="M615.91,-700.69C590.7,-706.16 563.01,-712.18 538.56,-717.49"/>
<polygon fill="midnightblue" stroke="midnightblue" points="616.78,-704.08 625.81,-698.53 615.29,-697.24 616.78,-704.08"/>
</g>
<!-- Node18 -->
<g id="node18" class="node">
<title>Node18</title>
<g id="a_node18"><a xlink:href="classdenoptim_1_1fragmenter_1_1_clusterable_fragment_test.html#a30be40702849bf4781129bf3dabf88e8" target="_top" xlink:title=" ">
<polygon fill="white" stroke="black" points="374.5,-619.5 374.5,-649.5 562.5,-649.5 562.5,-619.5 374.5,-619.5"/>
<text text-anchor="start" x="382.5" y="-637.5" font-family="Helvetica,sans-Serif" font-size="10.00">denoptim.fragmenter.Clusterable</text>
<text text-anchor="middle" x="468.5" y="-626.5" font-family="Helvetica,sans-Serif" font-size="10.00">FragmentTest.testGetTransformedCopy</text>
</a>
</g>
</g>
<!-- Node12&#45;&gt;Node18 -->
<g id="edge19" class="edge">
<title>Node12&#45;&gt;Node18</title>
<path fill="none" stroke="midnightblue" d="M615.91,-666.31C590.7,-660.84 563.01,-654.82 538.56,-649.51"/>
<polygon fill="midnightblue" stroke="midnightblue" points="615.29,-669.76 625.81,-668.47 616.78,-662.92 615.29,-669.76"/>
</g>
<!-- Node14 -->
<g id="node14" class="node">
<title>Node14</title>
<g id="a_node14"><a xlink:href="classdenoptim_1_1fragmenter_1_1_conformer_extractor_task.html#aa21ebdf147f5bdb2685f9e775efd0b10" target="_top" xlink:title=" ">
<polygon fill="white" stroke="black" points="186,-717.5 186,-747.5 338,-747.5 338,-717.5 186,-717.5"/>
<text text-anchor="start" x="194" y="-735.5" font-family="Helvetica,sans-Serif" font-size="10.00">denoptim.fragmenter.Conformer</text>
<text text-anchor="middle" x="262" y="-724.5" font-family="Helvetica,sans-Serif" font-size="10.00">ExtractorTask.call</text>
</a>
</g>
</g>
<!-- Node13&#45;&gt;Node14 -->
<g id="edge14" class="edge">
<title>Node13&#45;&gt;Node14</title>
<path fill="none" stroke="midnightblue" d="M394.87,-700.9C372.24,-706.32 347.5,-712.25 325.63,-717.49"/>
<polygon fill="midnightblue" stroke="midnightblue" points="395.84,-704.27 404.75,-698.53 394.21,-697.46 395.84,-704.27"/>
</g>
<!-- Node16 -->
<g id="node16" class="node">
<title>Node16</title>
<g id="a_node16"><a xlink:href="classdenoptim_1_1fragmenter_1_1_fragment_clusterer_test.html#aa17925160f3f03080e8680c7016fc1c4" target="_top" xlink:title=" ">
<polygon fill="white" stroke="black" points="187.5,-668.5 187.5,-698.5 336.5,-698.5 336.5,-668.5 187.5,-668.5"/>
<text text-anchor="start" x="195.5" y="-686.5" font-family="Helvetica,sans-Serif" font-size="10.00">denoptim.fragmenter.Fragment</text>
<text text-anchor="middle" x="262" y="-675.5" font-family="Helvetica,sans-Serif" font-size="10.00">ClustererTest.testCluster</text>
</a>
</g>
</g>
<!-- Node13&#45;&gt;Node16 -->
<g id="edge16" class="edge">
<title>Node13&#45;&gt;Node16</title>
<path fill="none" stroke="midnightblue" d="M383.78,-683.5C368.13,-683.5 351.89,-683.5 336.57,-683.5"/>
<polygon fill="midnightblue" stroke="midnightblue" points="383.96,-687 393.96,-683.5 383.96,-680 383.96,-687"/>
</g>
<!-- Node15 -->
<g id="node15" class="node">
<title>Node15</title>
<g id="a_node15"><a xlink:href="classdenoptim_1_1programs_1_1fragmenter_1_1_fragmenter.html#aa27df9705e3aed34cc8cb8bc05e6ce85" target="_top" xlink:title=" ">
<polygon fill="white" stroke="black" points="0,-717.5 0,-747.5 150,-747.5 150,-717.5 0,-717.5"/>
<text text-anchor="start" x="8" y="-735.5" font-family="Helvetica,sans-Serif" font-size="10.00">denoptim.programs.fragmenter.</text>
<text text-anchor="middle" x="75" y="-724.5" font-family="Helvetica,sans-Serif" font-size="10.00">Fragmenter.runProgram</text>
</a>
</g>
</g>
<!-- Node14&#45;&gt;Node15 -->
<g id="edge15" class="edge">
<title>Node14&#45;&gt;Node15</title>
<path fill="none" stroke="midnightblue" d="M175.53,-732.5C167.1,-732.5 158.59,-732.5 150.28,-732.5"/>
<polygon fill="midnightblue" stroke="midnightblue" points="175.75,-736 185.75,-732.5 175.75,-729 175.75,-736"/>
</g>
<!-- Node17&#45;&gt;Node14 -->
<g id="edge18" class="edge">
<title>Node17&#45;&gt;Node14</title>
<path fill="none" stroke="midnightblue" d="M363.79,-732.5C355.14,-732.5 346.51,-732.5 338.14,-732.5"/>
<polygon fill="midnightblue" stroke="midnightblue" points="363.93,-736 373.93,-732.5 363.93,-729 363.93,-736"/>
</g>
<!-- Node30&#45;&gt;Node28 -->
<g id="edge35" class="edge">
<title>Node30&#45;&gt;Node28</title>
<path fill="none" stroke="midnightblue" d="M825.58,-99.05C812.67,-100.5 799.31,-102 786.3,-103.46"/>
<polygon fill="midnightblue" stroke="midnightblue" points="826.28,-102.49 835.83,-97.89 825.5,-95.53 826.28,-102.49"/>
</g>
<!-- Node30&#45;&gt;Node30 -->
<g id="edge33" class="edge">
<title>Node30&#45;&gt;Node30</title>
<path fill="none" stroke="midnightblue" d="M945.61,-107.39C945.11,-113.04 933.74,-117.5 911.5,-117.5 879.15,-117.5 869.8,-108.07 883.45,-99.26"/>
<polygon fill="midnightblue" stroke="midnightblue" points="948.33,-105.19 939.55,-99.26 942.72,-109.37 948.33,-105.19"/>
</g>
<!-- Node31 -->
<g id="node31" class="node">
<title>Node31</title>
<g id="a_node31"><a xlink:href="classdenoptim_1_1graph_1_1_template_test.html#a72d37b4c24ad896838401b319b1d667e" target="_top" xlink:title=" ">
<polygon fill="white" stroke="black" points="614,-49.5 614,-79.5 778,-79.5 778,-49.5 614,-49.5"/>
<text text-anchor="start" x="622" y="-67.5" font-family="Helvetica,sans-Serif" font-size="10.00">denoptim.graph.TemplateTest.test</text>
<text text-anchor="middle" x="696" y="-56.5" font-family="Helvetica,sans-Serif" font-size="10.00">Clone</text>
</a>
</g>
</g>
<!-- Node30&#45;&gt;Node31 -->
<g id="edge34" class="edge">
<title>Node30&#45;&gt;Node31</title>
<path fill="none" stroke="midnightblue" d="M825.66,-79.57C810.01,-77.73 793.71,-75.82 778.18,-74.01"/>
<polygon fill="midnightblue" stroke="midnightblue" points="825.49,-83.07 835.83,-80.76 826.3,-76.12 825.49,-83.07"/>
</g>
<!-- Node32 -->
<g id="node32" class="node">
<title>Node32</title>
<g id="a_node32"><a xlink:href="classdenoptim_1_1graph_1_1_template_test.html#a50688358b5a557ee51683082427bdc14" target="_top" xlink:title=" ">
<polygon fill="white" stroke="black" points="614,-0.5 614,-30.5 778,-30.5 778,-0.5 614,-0.5"/>
<text text-anchor="start" x="622" y="-18.5" font-family="Helvetica,sans-Serif" font-size="10.00">denoptim.graph.TemplateTest.test</text>
<text text-anchor="middle" x="696" y="-7.5" font-family="Helvetica,sans-Serif" font-size="10.00">NestedTemplateCloning</text>
</a>
</g>
</g>
<!-- Node30&#45;&gt;Node32 -->
<g id="edge36" class="edge">
<title>Node30&#45;&gt;Node32</title>
<path fill="none" stroke="midnightblue" d="M881.43,-75.61C857.95,-64.77 823.85,-49.85 793,-39.5 783.39,-36.28 773.11,-33.26 762.98,-30.54"/>
<polygon fill="midnightblue" stroke="midnightblue" points="879.95,-78.79 890.5,-79.84 882.91,-72.44 879.95,-78.79"/>
</g>
</g>
</svg>
