<?xml version="1.0" encoding="UTF-8" standalone="no"?>
<!DOCTYPE svg PUBLIC "-//W3C//DTD SVG 1.1//EN"
 "http://www.w3.org/Graphics/SVG/1.1/DTD/svg11.dtd">
<!-- Generated by graphviz version 3.0.0 (20221109.1736)
 -->
<!-- Title: denoptim.gui.VertexAsTwoDimStructureViewPanel.VertexAsTwoDimStructureViewPanel Pages: 1 -->
<svg width="556pt" height="50pt"
 viewBox="0.00 0.00 556.00 50.00" xmlns="http://www.w3.org/2000/svg" xmlns:xlink="http://www.w3.org/1999/xlink">
<g id="graph0" class="graph" transform="scale(1 1) rotate(0) translate(4 46)">
<title>denoptim.gui.VertexAsTwoDimStructureViewPanel.VertexAsTwoDimStructureViewPanel</title>
<polygon fill="white" stroke="transparent" points="-4,4 -4,-46 552,-46 552,4 -4,4"/>
<!-- Node1 -->
<g id="node1" class="node">
<title>Node1</title>
<g id="a_node1"><a xlink:title="Constructor that allows to specify whether the AP table is editable or not.">
<polygon fill="#bfbfbf" stroke="black" points="0,-0.5 0,-41.5 151,-41.5 151,-0.5 0,-0.5"/>
<text text-anchor="start" x="8" y="-29.5" font-family="Helvetica,sans-Serif" font-size="10.00">denoptim.gui.VertexAsTwo</text>
<text text-anchor="start" x="8" y="-18.5" font-family="Helvetica,sans-Serif" font-size="10.00">DimStructureViewPanel.Vertex</text>
<text text-anchor="middle" x="75.5" y="-7.5" font-family="Helvetica,sans-Serif" font-size="10.00">AsTwoDimStructureViewPanel</text>
</a>
</g>
</g>
<!-- Node2 -->
<g id="node2" class="node">
<title>Node2</title>
<g id="a_node2"><a xlink:href="classdenoptim_1_1gui_1_1_vertex_as_two_dim_structure_view_panel.html#a3df44ee82f1ff2f1f8bfc4b594e94ca8" target="_top" xlink:title=" ">
<polygon fill="white" stroke="black" points="187,-6 187,-36 344,-36 344,-6 187,-6"/>
<text text-anchor="start" x="195" y="-24" font-family="Helvetica,sans-Serif" font-size="10.00">denoptim.gui.VertexAsTwo</text>
<text text-anchor="middle" x="265.5" y="-13" font-family="Helvetica,sans-Serif" font-size="10.00">DimStructureViewPanel.initialize</text>
</a>
</g>
</g>
<!-- Node1&#45;&gt;Node2 -->
<g id="edge1" class="edge">
<title>Node1&#45;&gt;Node2</title>
<path fill="none" stroke="midnightblue" d="M151.07,-21C159.55,-21 168.24,-21 176.86,-21"/>
<polygon fill="midnightblue" stroke="midnightblue" points="176.93,-24.5 186.93,-21 176.93,-17.5 176.93,-24.5"/>
</g>
<!-- Node3 -->
<g id="node3" class="node">
<title>Node3</title>
<g id="a_node3"><a xlink:href="classdenoptim_1_1gui_1_1_vertex_as_two_dim_structure_view_panel.html#a2caf56ade915a499efa13013f71e0cba" target="_top" xlink:title="trashed the current panel displaying any 2D structure and replaces it with a new empty panel.">
<polygon fill="white" stroke="black" points="380,-6 380,-36 548,-36 548,-6 380,-6"/>
<text text-anchor="start" x="388" y="-24" font-family="Helvetica,sans-Serif" font-size="10.00">denoptim.gui.VertexAsTwo</text>
<text text-anchor="middle" x="464" y="-13" font-family="Helvetica,sans-Serif" font-size="10.00">DimStructureViewPanel.clearPanel</text>
</a>
</g>
</g>
<!-- Node2&#45;&gt;Node3 -->
<g id="edge2" class="edge">
<title>Node2&#45;&gt;Node3</title>
<path fill="none" stroke="midnightblue" d="M344.16,-21C352.57,-21 361.18,-21 369.75,-21"/>
<polygon fill="midnightblue" stroke="midnightblue" points="369.76,-24.5 379.76,-21 369.76,-17.5 369.76,-24.5"/>
</g>
</g>
</svg>
