<?xml version="1.0" encoding="UTF-8" standalone="no"?>
<!DOCTYPE svg PUBLIC "-//W3C//DTD SVG 1.1//EN"
 "http://www.w3.org/Graphics/SVG/1.1/DTD/svg11.dtd">
<!-- Generated by graphviz version 3.0.0 (20221109.1736)
 -->
<!-- Title: denoptim.graph.VertexQueryTest.testMatchesVertexType Pages: 1 -->
<svg width="1528pt" height="637pt"
 viewBox="0.00 0.00 1528.00 637.49" xmlns="http://www.w3.org/2000/svg" xmlns:xlink="http://www.w3.org/1999/xlink">
<g id="graph0" class="graph" transform="scale(1 1) rotate(0) translate(4 633.49)">
<title>denoptim.graph.VertexQueryTest.testMatchesVertexType</title>
<polygon fill="white" stroke="transparent" points="-4,4 -4,-633.49 1524,-633.49 1524,4 -4,4"/>
<!-- Node1 -->
<g id="node1" class="node">
<title>Node1</title>
<g id="a_node1"><a xlink:title=" ">
<polygon fill="#bfbfbf" stroke="black" points="0,-412.5 0,-442.5 141,-442.5 141,-412.5 0,-412.5"/>
<text text-anchor="start" x="8" y="-430.5" font-family="Helvetica,sans-Serif" font-size="10.00">denoptim.graph.VertexQuery</text>
<text text-anchor="middle" x="70.5" y="-419.5" font-family="Helvetica,sans-Serif" font-size="10.00">Test.testMatchesVertexType</text>
</a>
</g>
</g>
<!-- Node2 -->
<g id="node2" class="node">
<title>Node2</title>
<g id="a_node2"><a xlink:href="classdenoptim_1_1graph_1_1_d_graph.html#a58811a9ea75a26abffc1a9c7c2b22741" target="_top" xlink:title="Returns the vertex that is in the given position of the list of vertices belonging to this graph.">
<polygon fill="white" stroke="black" points="199,-443.5 199,-473.5 333,-473.5 333,-443.5 199,-443.5"/>
<text text-anchor="start" x="207" y="-461.5" font-family="Helvetica,sans-Serif" font-size="10.00">denoptim.graph.DGraph.get</text>
<text text-anchor="middle" x="266" y="-450.5" font-family="Helvetica,sans-Serif" font-size="10.00">VertexAtPosition</text>
</a>
</g>
</g>
<!-- Node1&#45;&gt;Node2 -->
<g id="edge1" class="edge">
<title>Node1&#45;&gt;Node2</title>
<path fill="none" stroke="midnightblue" d="M141.08,-438.65C156.55,-441.13 173.02,-443.76 188.74,-446.28"/>
<polygon fill="midnightblue" stroke="midnightblue" points="188.51,-449.79 198.94,-447.92 189.62,-442.88 188.51,-449.79"/>
</g>
<!-- Node3 -->
<g id="node3" class="node">
<title>Node3</title>
<g id="a_node3"><a xlink:href="classdenoptim_1_1graph_1_1_vertex_query.html#aebc8904e5daf03d098e9d4ae06d1de3f" target="_top" xlink:title="Tests whether the given vertex satisfies all non&#45;null criteria in this query.">
<polygon fill="white" stroke="black" points="177,-387 177,-406 355,-406 355,-387 177,-387"/>
<text text-anchor="middle" x="266" y="-394" font-family="Helvetica,sans-Serif" font-size="10.00">denoptim.graph.VertexQuery.matches</text>
</a>
</g>
</g>
<!-- Node1&#45;&gt;Node3 -->
<g id="edge2" class="edge">
<title>Node1&#45;&gt;Node3</title>
<path fill="none" stroke="midnightblue" d="M141.08,-416.35C158.75,-413.52 177.72,-410.48 195.39,-407.65"/>
<polygon fill="midnightblue" stroke="midnightblue" points="196.29,-411.05 205.61,-406.01 195.19,-404.14 196.29,-411.05"/>
</g>
<!-- Node3&#45;&gt;Node3 -->
<g id="edge18" class="edge">
<title>Node3&#45;&gt;Node3</title>
<path fill="none" stroke="midnightblue" d="M236.1,-406.26C221.55,-415.07 231.52,-424.5 266,-424.5 290.24,-424.5 302.37,-419.84 302.37,-414"/>
<polygon fill="midnightblue" stroke="midnightblue" points="305,-411.69 295.9,-406.26 299.63,-416.17 305,-411.69"/>
</g>
<!-- Node4 -->
<g id="node4" class="node">
<title>Node4</title>
<g id="a_node4"><a xlink:href="classdenoptim_1_1graph_1_1_vertex.html#a85aa901ec3fff8e566c0cc32d9c9f84e" target="_top" xlink:title=" ">
<polygon fill="white" stroke="black" points="1392,-448.5 1392,-478.5 1520,-478.5 1520,-448.5 1392,-448.5"/>
<text text-anchor="start" x="1400" y="-466.5" font-family="Helvetica,sans-Serif" font-size="10.00">denoptim.graph.Vertex.get</text>
<text text-anchor="middle" x="1456" y="-455.5" font-family="Helvetica,sans-Serif" font-size="10.00">AttachmentPoints</text>
</a>
</g>
</g>
<!-- Node3&#45;&gt;Node4 -->
<g id="edge3" class="edge">
<title>Node3&#45;&gt;Node4</title>
<path fill="none" stroke="midnightblue" d="M309.64,-406.12C325.97,-411.82 343.44,-420.74 355,-434.5 399.37,-487.33 338.24,-541.05 391,-585.5 492.83,-671.29 556.84,-604.5 690,-604.5 690,-604.5 690,-604.5 1093,-604.5 1223.87,-604.5 1364.32,-523.49 1424.65,-484.28"/>
<polygon fill="midnightblue" stroke="midnightblue" points="1426.86,-487.01 1433.29,-478.59 1423.01,-481.17 1426.86,-487.01"/>
</g>
<!-- Node5 -->
<g id="node5" class="node">
<title>Node5</title>
<g id="a_node5"><a xlink:href="classdenoptim_1_1graph_1_1_vertex.html#a200f775296c4c9804e3a2b59e065be8a" target="_top" xlink:title="Returns the index of the building block that should correspond to the position of the building block ...">
<polygon fill="white" stroke="black" points="416,-545.5 416,-575.5 544,-575.5 544,-545.5 416,-545.5"/>
<text text-anchor="start" x="424" y="-563.5" font-family="Helvetica,sans-Serif" font-size="10.00">denoptim.graph.Vertex.get</text>
<text text-anchor="middle" x="480" y="-552.5" font-family="Helvetica,sans-Serif" font-size="10.00">BuildingBlockId</text>
</a>
</g>
</g>
<!-- Node3&#45;&gt;Node5 -->
<g id="edge4" class="edge">
<title>Node3&#45;&gt;Node5</title>
<path fill="none" stroke="midnightblue" d="M307.13,-406.11C323.84,-411.9 342.28,-420.88 355,-434.5 387.81,-469.63 355.79,-503.77 391,-536.5 395.64,-540.82 400.99,-544.37 406.7,-547.29"/>
<polygon fill="midnightblue" stroke="midnightblue" points="405.36,-550.53 415.92,-551.39 408.2,-544.13 405.36,-550.53"/>
</g>
<!-- Node6 -->
<g id="node6" class="node">
<title>Node6</title>
<g id="a_node6"><a xlink:href="classdenoptim_1_1graph_1_1_vertex.html#a46dadb5fd30f1877db91e97ae55c2dd8" target="_top" xlink:title=" ">
<polygon fill="white" stroke="black" points="416,-496.5 416,-526.5 544,-526.5 544,-496.5 416,-496.5"/>
<text text-anchor="start" x="424" y="-514.5" font-family="Helvetica,sans-Serif" font-size="10.00">denoptim.graph.Vertex.get</text>
<text text-anchor="middle" x="480" y="-503.5" font-family="Helvetica,sans-Serif" font-size="10.00">BuildingBlockType</text>
</a>
</g>
</g>
<!-- Node3&#45;&gt;Node6 -->
<g id="edge5" class="edge">
<title>Node3&#45;&gt;Node6</title>
<path fill="none" stroke="midnightblue" d="M300.8,-406.05C318.29,-412.18 339.23,-421.46 355,-434.5 376.95,-452.65 367.83,-470.95 391,-487.5 395.79,-490.92 401.04,-493.85 406.52,-496.37"/>
<polygon fill="midnightblue" stroke="midnightblue" points="405.34,-499.66 415.92,-500.22 407.99,-493.19 405.34,-499.66"/>
</g>
<!-- Node7 -->
<g id="node7" class="node">
<title>Node7</title>
<g id="a_node7"><a xlink:href="classdenoptim_1_1graph_1_1_vertex.html#a6615f1c869173b8bd6d730c6683b9de4" target="_top" xlink:title="Returns the graph this vertex belongs to or null.">
<polygon fill="white" stroke="black" points="627,-396.5 627,-426.5 755,-426.5 755,-396.5 627,-396.5"/>
<text text-anchor="start" x="635" y="-414.5" font-family="Helvetica,sans-Serif" font-size="10.00">denoptim.graph.Vertex.get</text>
<text text-anchor="middle" x="691" y="-403.5" font-family="Helvetica,sans-Serif" font-size="10.00">GraphOwner</text>
</a>
</g>
</g>
<!-- Node3&#45;&gt;Node7 -->
<g id="edge6" class="edge">
<title>Node3&#45;&gt;Node7</title>
<path fill="none" stroke="midnightblue" d="M355.16,-399.63C432.47,-402.37 543.58,-406.31 616.26,-408.89"/>
<polygon fill="midnightblue" stroke="midnightblue" points="616.58,-412.4 626.7,-409.26 616.83,-405.4 616.58,-412.4"/>
</g>
<!-- Node8 -->
<g id="node8" class="node">
<title>Node8</title>
<g id="a_node8"><a xlink:href="classdenoptim_1_1graph_1_1_d_graph.html#a9677d31ec5986be0e1694dfd1a184f5f" target="_top" xlink:title="Calculates the level of a vertex in this graph.">
<polygon fill="white" stroke="black" points="413,-447.5 413,-477.5 547,-477.5 547,-447.5 413,-447.5"/>
<text text-anchor="start" x="421" y="-465.5" font-family="Helvetica,sans-Serif" font-size="10.00">denoptim.graph.DGraph.get</text>
<text text-anchor="middle" x="480" y="-454.5" font-family="Helvetica,sans-Serif" font-size="10.00">Level</text>
</a>
</g>
</g>
<!-- Node3&#45;&gt;Node8 -->
<g id="edge7" class="edge">
<title>Node3&#45;&gt;Node8</title>
<path fill="none" stroke="midnightblue" d="M297.83,-406.1C329.97,-416.1 381.12,-432.03 420.89,-444.41"/>
<polygon fill="midnightblue" stroke="midnightblue" points="419.89,-447.76 430.47,-447.39 421.97,-441.08 419.89,-447.76"/>
</g>
<!-- Node15 -->
<g id="node15" class="node">
<title>Node15</title>
<g id="a_node15"><a xlink:href="classdenoptim_1_1graph_1_1_vertex.html#a9493346ca1480edfcfa00cb78a52adf5" target="_top" xlink:title=" ">
<polygon fill="white" stroke="black" points="416,-359.5 416,-389.5 544,-389.5 544,-359.5 416,-359.5"/>
<text text-anchor="start" x="424" y="-377.5" font-family="Helvetica,sans-Serif" font-size="10.00">denoptim.graph.Vertex.get</text>
<text text-anchor="middle" x="480" y="-366.5" font-family="Helvetica,sans-Serif" font-size="10.00">VertexId</text>
</a>
</g>
</g>
<!-- Node3&#45;&gt;Node15 -->
<g id="edge16" class="edge">
<title>Node3&#45;&gt;Node15</title>
<path fill="none" stroke="midnightblue" d="M355.07,-387.36C371.93,-385.61 389.42,-383.8 405.75,-382.1"/>
<polygon fill="midnightblue" stroke="midnightblue" points="406.17,-385.58 415.76,-381.06 405.45,-378.61 406.17,-385.58"/>
</g>
<!-- Node16 -->
<g id="node16" class="node">
<title>Node16</title>
<g id="a_node16"><a xlink:href="classdenoptim_1_1graph_1_1_vertex.html#a49b2e2a2fe0fa6e22e63ff0071f79ee9" target="_top" xlink:title="Returns the value of the vertex type.">
<polygon fill="white" stroke="black" points="416,-310.5 416,-340.5 544,-340.5 544,-310.5 416,-310.5"/>
<text text-anchor="start" x="424" y="-328.5" font-family="Helvetica,sans-Serif" font-size="10.00">denoptim.graph.Vertex.get</text>
<text text-anchor="middle" x="480" y="-317.5" font-family="Helvetica,sans-Serif" font-size="10.00">VertexType</text>
</a>
</g>
</g>
<!-- Node3&#45;&gt;Node16 -->
<g id="edge17" class="edge">
<title>Node3&#45;&gt;Node16</title>
<path fill="none" stroke="midnightblue" d="M291.04,-386.94C315.88,-377.22 355.86,-361.99 391,-350.5 398.32,-348.11 406.03,-345.72 413.72,-343.43"/>
<polygon fill="midnightblue" stroke="midnightblue" points="414.8,-346.76 423.41,-340.58 412.83,-340.04 414.8,-346.76"/>
</g>
<!-- Node17 -->
<g id="node17" class="node">
<title>Node17</title>
<g id="a_node17"><a xlink:href="classdenoptim_1_1graph_1_1_vertex_query.html#af23dd64a35938660e9be863c60b5b47d" target="_top" xlink:title=" ">
<polygon fill="white" stroke="black" points="391,-261.5 391,-291.5 569,-291.5 569,-261.5 391,-261.5"/>
<text text-anchor="start" x="399" y="-279.5" font-family="Helvetica,sans-Serif" font-size="10.00">denoptim.graph.VertexQuery.matches</text>
<text text-anchor="middle" x="480" y="-268.5" font-family="Helvetica,sans-Serif" font-size="10.00">AnyEdge</text>
</a>
</g>
</g>
<!-- Node3&#45;&gt;Node17 -->
<g id="edge19" class="edge">
<title>Node3&#45;&gt;Node17</title>
<path fill="none" stroke="midnightblue" d="M276.72,-386.93C296.53,-367.93 343.74,-325.23 391,-301.5 395.58,-299.2 400.41,-297.08 405.35,-295.13"/>
<polygon fill="midnightblue" stroke="midnightblue" points="406.77,-298.34 414.94,-291.6 404.35,-291.77 406.77,-298.34"/>
</g>
<!-- Node9 -->
<g id="node9" class="node">
<title>Node9</title>
<g id="a_node9"><a xlink:href="classdenoptim_1_1graph_1_1_d_graph.html#aaf3eb72074f66c853ea40c06ac9bea0e" target="_top" xlink:title="Traverse the graph until it identifies the source of the directed path reachable from the given verte...">
<polygon fill="white" stroke="black" points="624,-447.5 624,-477.5 758,-477.5 758,-447.5 624,-447.5"/>
<text text-anchor="start" x="632" y="-465.5" font-family="Helvetica,sans-Serif" font-size="10.00">denoptim.graph.DGraph.get</text>
<text text-anchor="middle" x="691" y="-454.5" font-family="Helvetica,sans-Serif" font-size="10.00">ParentTree</text>
</a>
</g>
</g>
<!-- Node8&#45;&gt;Node9 -->
<g id="edge8" class="edge">
<title>Node8&#45;&gt;Node9</title>
<path fill="none" stroke="midnightblue" d="M547.13,-462.5C568.29,-462.5 591.9,-462.5 613.72,-462.5"/>
<polygon fill="midnightblue" stroke="midnightblue" points="613.94,-466 623.94,-462.5 613.94,-459 613.94,-466"/>
</g>
<!-- Node9&#45;&gt;Node9 -->
<g id="edge15" class="edge">
<title>Node9&#45;&gt;Node9</title>
<path fill="none" stroke="midnightblue" d="M655.45,-477.66C646.88,-487.06 658.73,-496 691,-496 710.67,-496 722.75,-492.68 727.25,-487.96"/>
<polygon fill="midnightblue" stroke="midnightblue" points="730.72,-487.4 726.55,-477.66 723.73,-487.87 730.72,-487.4"/>
</g>
<!-- Node10 -->
<g id="node10" class="node">
<title>Node10</title>
<g id="a_node10"><a xlink:href="classdenoptim_1_1graph_1_1_d_graph.html#a978d4b9f0c7e555fa1db7ed5a6af5a6c" target="_top" xlink:title=" ">
<polygon fill="white" stroke="black" points="829,-447.5 829,-477.5 963,-477.5 963,-447.5 829,-447.5"/>
<text text-anchor="start" x="837" y="-465.5" font-family="Helvetica,sans-Serif" font-size="10.00">denoptim.graph.DGraph.get</text>
<text text-anchor="middle" x="896" y="-454.5" font-family="Helvetica,sans-Serif" font-size="10.00">Parent</text>
</a>
</g>
</g>
<!-- Node9&#45;&gt;Node10 -->
<g id="edge9" class="edge">
<title>Node9&#45;&gt;Node10</title>
<path fill="none" stroke="midnightblue" d="M758.19,-462.5C777.5,-462.5 798.76,-462.5 818.65,-462.5"/>
<polygon fill="midnightblue" stroke="midnightblue" points="818.9,-466 828.9,-462.5 818.9,-459 818.9,-466"/>
</g>
<!-- Node11 -->
<g id="node11" class="node">
<title>Node11</title>
<g id="a_node11"><a xlink:href="classdenoptim_1_1graph_1_1_vertex.html#a2937a75fd3652481c84235742b94736b" target="_top" xlink:title="Looks into the edges that use any of the APs that belong to this vertex and returns the edge that has...">
<polygon fill="white" stroke="black" points="1028,-448.5 1028,-478.5 1156,-478.5 1156,-448.5 1028,-448.5"/>
<text text-anchor="start" x="1036" y="-466.5" font-family="Helvetica,sans-Serif" font-size="10.00">denoptim.graph.Vertex.get</text>
<text text-anchor="middle" x="1092" y="-455.5" font-family="Helvetica,sans-Serif" font-size="10.00">EdgeToParent</text>
</a>
</g>
</g>
<!-- Node10&#45;&gt;Node11 -->
<g id="edge10" class="edge">
<title>Node10&#45;&gt;Node11</title>
<path fill="none" stroke="midnightblue" d="M963.22,-462.84C980.66,-462.93 999.57,-463.03 1017.37,-463.12"/>
<polygon fill="midnightblue" stroke="midnightblue" points="1017.68,-466.62 1027.7,-463.17 1017.72,-459.62 1017.68,-466.62"/>
</g>
<!-- Node13 -->
<g id="node13" class="node">
<title>Node13</title>
<g id="a_node13"><a xlink:href="classdenoptim_1_1graph_1_1_attachment_point.html#ac8551521d38644f5109800b665957ee9" target="_top" xlink:title=" ">
<polygon fill="white" stroke="black" points="1024.5,-360.5 1024.5,-390.5 1159.5,-390.5 1159.5,-360.5 1024.5,-360.5"/>
<text text-anchor="start" x="1032.5" y="-378.5" font-family="Helvetica,sans-Serif" font-size="10.00">denoptim.graph.Attachment</text>
<text text-anchor="middle" x="1092" y="-367.5" font-family="Helvetica,sans-Serif" font-size="10.00">Point.getOwner</text>
</a>
</g>
</g>
<!-- Node10&#45;&gt;Node13 -->
<g id="edge13" class="edge">
<title>Node10&#45;&gt;Node13</title>
<path fill="none" stroke="midnightblue" d="M959.58,-447.48C966.32,-444.9 972.93,-441.92 979,-438.5 997.91,-427.84 996.6,-417.01 1015,-405.5 1021.28,-401.57 1028.17,-397.99 1035.15,-394.79"/>
<polygon fill="midnightblue" stroke="midnightblue" points="1036.89,-397.85 1044.67,-390.66 1034.11,-391.43 1036.89,-397.85"/>
</g>
<!-- Node14 -->
<g id="node14" class="node">
<title>Node14</title>
<g id="a_node14"><a xlink:href="classdenoptim_1_1graph_1_1_edge.html#a658e275a18a50f12474777f5f28c35e9" target="_top" xlink:title=" ">
<polygon fill="white" stroke="black" points="1205,-284 1205,-303 1356,-303 1356,-284 1205,-284"/>
<text text-anchor="middle" x="1280.5" y="-291" font-family="Helvetica,sans-Serif" font-size="10.00">denoptim.graph.Edge.getSrcAP</text>
</a>
</g>
</g>
<!-- Node10&#45;&gt;Node14 -->
<g id="edge14" class="edge">
<title>Node10&#45;&gt;Node14</title>
<path fill="none" stroke="midnightblue" d="M963.07,-449.03C1041,-432.91 1161.06,-407.23 1169,-400.5 1201.23,-373.17 1173.12,-340.24 1205,-312.5 1206.94,-310.81 1209.01,-309.27 1211.17,-307.87"/>
<polygon fill="midnightblue" stroke="midnightblue" points="1212.86,-310.94 1219.96,-303.08 1209.51,-304.79 1212.86,-310.94"/>
</g>
<!-- Node11&#45;&gt;Node4 -->
<g id="edge11" class="edge">
<title>Node11&#45;&gt;Node4</title>
<path fill="none" stroke="midnightblue" d="M1156.06,-463.5C1218.84,-463.5 1315.15,-463.5 1381.39,-463.5"/>
<polygon fill="midnightblue" stroke="midnightblue" points="1381.76,-467 1391.76,-463.5 1381.76,-460 1381.76,-467"/>
</g>
<!-- Node12 -->
<g id="node12" class="node">
<title>Node12</title>
<g id="a_node12"><a xlink:href="classdenoptim_1_1graph_1_1_edge.html#a44521a3ad1a83e5d0a6be227e35ceffa" target="_top" xlink:title=" ">
<polygon fill="white" stroke="black" points="1205.5,-322 1205.5,-341 1355.5,-341 1355.5,-322 1205.5,-322"/>
<text text-anchor="middle" x="1280.5" y="-329" font-family="Helvetica,sans-Serif" font-size="10.00">denoptim.graph.Edge.getTrgAP</text>
</a>
</g>
</g>
<!-- Node11&#45;&gt;Node12 -->
<g id="edge12" class="edge">
<title>Node11&#45;&gt;Node12</title>
<path fill="none" stroke="midnightblue" d="M1139.34,-448.36C1149.46,-444.21 1159.87,-439.23 1169,-433.5 1207.43,-409.37 1244.61,-370.99 1264.52,-348.83"/>
<polygon fill="midnightblue" stroke="midnightblue" points="1267.27,-351.01 1271.28,-341.2 1262.03,-346.37 1267.27,-351.01"/>
</g>
<!-- Node17&#45;&gt;Node7 -->
<g id="edge24" class="edge">
<title>Node17&#45;&gt;Node7</title>
<path fill="none" stroke="midnightblue" d="M554.29,-291.61C559.58,-294.37 564.57,-297.64 569,-301.5 599,-327.65 575.54,-356.73 605,-383.5 608.85,-387 613.16,-390.07 617.72,-392.75"/>
<polygon fill="midnightblue" stroke="midnightblue" points="616.29,-395.95 626.78,-397.45 619.52,-389.74 616.29,-395.95"/>
</g>
<!-- Node18 -->
<g id="node18" class="node">
<title>Node18</title>
<g id="a_node18"><a xlink:href="classdenoptim_1_1graph_1_1_d_graph.html#aa85798ddde2da9314ff4621fe089ccf2" target="_top" xlink:title="Returns the list of edges that depart from the given vertex, i.e., edges where the srcAP is owned by ...">
<polygon fill="white" stroke="black" points="624,-343.5 624,-373.5 758,-373.5 758,-343.5 624,-343.5"/>
<text text-anchor="start" x="632" y="-361.5" font-family="Helvetica,sans-Serif" font-size="10.00">denoptim.graph.DGraph.get</text>
<text text-anchor="middle" x="691" y="-350.5" font-family="Helvetica,sans-Serif" font-size="10.00">EdgesWithSrc</text>
</a>
</g>
</g>
<!-- Node17&#45;&gt;Node18 -->
<g id="edge20" class="edge">
<title>Node17&#45;&gt;Node18</title>
<path fill="none" stroke="midnightblue" d="M543.96,-291.63C552.54,-294.48 561.1,-297.76 569,-301.5 586.61,-309.83 587.75,-317.44 605,-326.5 614.2,-331.33 624.31,-335.8 634.23,-339.77"/>
<polygon fill="midnightblue" stroke="midnightblue" points="633.07,-343.07 643.66,-343.41 635.59,-336.54 633.07,-343.07"/>
</g>
<!-- Node20 -->
<g id="node20" class="node">
<title>Node20</title>
<g id="a_node20"><a xlink:href="classdenoptim_1_1graph_1_1_d_graph.html#a597808bffc1ce454c22c4c2522d7aa3a" target="_top" xlink:title="Returns the list of edges that arrive from the given vertex, i.e., edges where the trgAP is owned by ...">
<polygon fill="white" stroke="black" points="624,-286.5 624,-316.5 758,-316.5 758,-286.5 624,-286.5"/>
<text text-anchor="start" x="632" y="-304.5" font-family="Helvetica,sans-Serif" font-size="10.00">denoptim.graph.DGraph.get</text>
<text text-anchor="middle" x="691" y="-293.5" font-family="Helvetica,sans-Serif" font-size="10.00">EdgesWithTrg</text>
</a>
</g>
</g>
<!-- Node17&#45;&gt;Node20 -->
<g id="edge22" class="edge">
<title>Node17&#45;&gt;Node20</title>
<path fill="none" stroke="midnightblue" d="M569.03,-287.03C583.98,-288.82 599.4,-290.66 614.01,-292.41"/>
<polygon fill="midnightblue" stroke="midnightblue" points="613.64,-295.89 623.99,-293.6 614.47,-288.94 613.64,-295.89"/>
</g>
<!-- Node21 -->
<g id="node21" class="node">
<title>Node21</title>
<g id="a_node21"><a xlink:href="classdenoptim_1_1graph_1_1_edge_query.html#a348b003646180ab98f25eb1d2dcd1a01" target="_top" xlink:title="Tests whether the given edge satisfies this query.">
<polygon fill="white" stroke="black" points="605,-247 605,-266 777,-266 777,-247 605,-247"/>
<text text-anchor="middle" x="691" y="-254" font-family="Helvetica,sans-Serif" font-size="10.00">denoptim.graph.EdgeQuery.matches</text>
</a>
</g>
</g>
<!-- Node17&#45;&gt;Node21 -->
<g id="edge25" class="edge">
<title>Node17&#45;&gt;Node21</title>
<path fill="none" stroke="midnightblue" d="M569.03,-268.08C577.53,-267.26 586.18,-266.44 594.74,-265.62"/>
<polygon fill="midnightblue" stroke="midnightblue" points="595.12,-269.1 604.74,-264.66 594.46,-262.13 595.12,-269.1"/>
</g>
<!-- Node19 -->
<g id="node19" class="node">
<title>Node19</title>
<g id="a_node19"><a xlink:href="classdenoptim_1_1graph_1_1_d_graph.html#ab5d3641bcfd0c8dd76d5de6159d6b8c8" target="_top" xlink:title=" ">
<polygon fill="white" stroke="black" points="829,-398.5 829,-428.5 963,-428.5 963,-398.5 829,-398.5"/>
<text text-anchor="start" x="837" y="-416.5" font-family="Helvetica,sans-Serif" font-size="10.00">denoptim.graph.DGraph.get</text>
<text text-anchor="middle" x="896" y="-405.5" font-family="Helvetica,sans-Serif" font-size="10.00">EdgeList</text>
</a>
</g>
</g>
<!-- Node18&#45;&gt;Node19 -->
<g id="edge21" class="edge">
<title>Node18&#45;&gt;Node19</title>
<path fill="none" stroke="midnightblue" d="M747.47,-373.53C772.87,-380.41 803.15,-388.61 829.64,-395.79"/>
<polygon fill="midnightblue" stroke="midnightblue" points="829.03,-399.25 839.6,-398.49 830.86,-392.5 829.03,-399.25"/>
</g>
<!-- Node20&#45;&gt;Node19 -->
<g id="edge23" class="edge">
<title>Node20&#45;&gt;Node19</title>
<path fill="none" stroke="midnightblue" d="M744.81,-316.65C756.08,-321.3 767.45,-327.18 777,-334.5 798.45,-350.93 791.39,-367.28 813,-383.5 818.38,-387.54 824.35,-391.07 830.55,-394.16"/>
<polygon fill="midnightblue" stroke="midnightblue" points="829.21,-397.4 839.76,-398.38 832.13,-391.04 829.21,-397.4"/>
</g>
<!-- Node21&#45;&gt;Node3 -->
<g id="edge45" class="edge">
<title>Node21&#45;&gt;Node3</title>
<path fill="none" stroke="midnightblue" d="M656.68,-246.99C599.35,-232.5 479.65,-210.67 391,-251.5 333.74,-277.87 293.09,-345.17 275.99,-377.97"/>
<polygon fill="midnightblue" stroke="midnightblue" points="272.84,-376.45 271.45,-386.96 279.09,-379.61 272.84,-376.45"/>
</g>
<!-- Node21&#45;&gt;Node12 -->
<g id="edge29" class="edge">
<title>Node21&#45;&gt;Node12</title>
<path fill="none" stroke="midnightblue" d="M736.98,-266.05C750.03,-269.24 764.2,-273.11 777,-277.5 793.56,-283.18 796.03,-289.17 813,-293.5 943.48,-326.78 1100.5,-332.9 1195.04,-333.07"/>
<polygon fill="midnightblue" stroke="midnightblue" points="1195.12,-336.57 1205.12,-333.07 1195.12,-329.57 1195.12,-336.57"/>
</g>
<!-- Node21&#45;&gt;Node13 -->
<g id="edge27" class="edge">
<title>Node21&#45;&gt;Node13</title>
<path fill="none" stroke="midnightblue" d="M756.47,-266.15C763.84,-269.02 770.89,-272.73 777,-277.5 803.95,-298.55 784.69,-326.31 813,-345.5 871.88,-385.41 954.43,-389.46 1014.26,-385.63"/>
<polygon fill="midnightblue" stroke="midnightblue" points="1014.69,-389.11 1024.41,-384.89 1014.18,-382.13 1014.69,-389.11"/>
</g>
<!-- Node21&#45;&gt;Node14 -->
<g id="edge28" class="edge">
<title>Node21&#45;&gt;Node14</title>
<path fill="none" stroke="midnightblue" d="M747.57,-266.04C768.07,-269.22 791.54,-272.47 813,-274.5 945.81,-287.05 1100.67,-291.31 1194.33,-292.76"/>
<polygon fill="midnightblue" stroke="midnightblue" points="1194.55,-296.27 1204.6,-292.91 1194.65,-289.27 1194.55,-296.27"/>
</g>
<!-- Node22 -->
<g id="node22" class="node">
<title>Node22</title>
<g id="a_node22"><a xlink:href="classdenoptim_1_1graph_1_1_edge.html#aadec63c8f1ce93b0c82ae1f2a409acf1" target="_top" xlink:title=" ">
<polygon fill="white" stroke="black" points="813,-246 813,-265 979,-265 979,-246 813,-246"/>
<text text-anchor="middle" x="896" y="-253" font-family="Helvetica,sans-Serif" font-size="10.00">denoptim.graph.Edge.getBondType</text>
</a>
</g>
</g>
<!-- Node21&#45;&gt;Node22 -->
<g id="edge26" class="edge">
<title>Node21&#45;&gt;Node22</title>
<path fill="none" stroke="midnightblue" d="M777.21,-256.08C785.71,-256.04 794.37,-256 802.93,-255.95"/>
<polygon fill="midnightblue" stroke="midnightblue" points="802.95,-259.45 812.93,-255.9 802.92,-252.45 802.95,-259.45"/>
</g>
<!-- Node23 -->
<g id="node23" class="node">
<title>Node23</title>
<g id="a_node23"><a xlink:href="classdenoptim_1_1graph_1_1_attachment_point_query.html#ae479b571d3b26271e8caa535fb26fd97" target="_top" xlink:title="Tests whether the given attachment point satisfies all non&#45;null criteria in this query.">
<polygon fill="white" stroke="black" points="828.5,-178.5 828.5,-208.5 963.5,-208.5 963.5,-178.5 828.5,-178.5"/>
<text text-anchor="start" x="836.5" y="-196.5" font-family="Helvetica,sans-Serif" font-size="10.00">denoptim.graph.Attachment</text>
<text text-anchor="middle" x="896" y="-185.5" font-family="Helvetica,sans-Serif" font-size="10.00">PointQuery.matches</text>
</a>
</g>
</g>
<!-- Node21&#45;&gt;Node23 -->
<g id="edge30" class="edge">
<title>Node21&#45;&gt;Node23</title>
<path fill="none" stroke="midnightblue" d="M710.01,-246.86C734.26,-237.07 778.88,-222.38 818.23,-210.76"/>
<polygon fill="midnightblue" stroke="midnightblue" points="819.49,-214.04 828.11,-207.87 817.53,-207.32 819.49,-214.04"/>
</g>
<!-- Node23&#45;&gt;Node3 -->
<g id="edge44" class="edge">
<title>Node23&#45;&gt;Node3</title>
<path fill="none" stroke="midnightblue" d="M828.45,-180.53C727.06,-164.35 530.92,-147.37 391,-224.5 328.5,-258.95 289.55,-339.86 274.32,-377.11"/>
<polygon fill="midnightblue" stroke="midnightblue" points="270.92,-376.19 270.51,-386.78 277.43,-378.76 270.92,-376.19"/>
</g>
<!-- Node23&#45;&gt;Node13 -->
<g id="edge41" class="edge">
<title>Node23&#45;&gt;Node13</title>
<path fill="none" stroke="midnightblue" d="M933.26,-208.55C948.28,-215.76 965.34,-225.28 979,-236.5 1000.85,-254.45 1048.48,-317.47 1074.02,-352.16"/>
<polygon fill="midnightblue" stroke="midnightblue" points="1071.27,-354.33 1080.01,-360.33 1076.92,-350.19 1071.27,-354.33"/>
</g>
<!-- Node23&#45;&gt;Node21 -->
<g id="edge43" class="edge">
<title>Node23&#45;&gt;Node21</title>
<path fill="none" stroke="midnightblue" d="M862.94,-208.53C833.16,-219.52 788.07,-233.89 751.67,-244.19"/>
<polygon fill="midnightblue" stroke="midnightblue" points="750.35,-240.93 741.66,-246.99 752.23,-247.67 750.35,-240.93"/>
</g>
<!-- Node23&#45;&gt;Node23 -->
<g id="edge42" class="edge">
<title>Node23&#45;&gt;Node23</title>
<path fill="none" stroke="midnightblue" d="M861.84,-208.66C853.61,-218.06 864.99,-227 896,-227 914.9,-227 926.5,-223.68 930.83,-218.96"/>
<polygon fill="midnightblue" stroke="midnightblue" points="934.3,-218.41 930.16,-208.66 927.31,-218.87 934.3,-218.41"/>
</g>
<!-- Node24 -->
<g id="node24" class="node">
<title>Node24</title>
<g id="a_node24"><a xlink:href="classdenoptim_1_1graph_1_1_a_p_class.html#a45fa1cc43d2915d4674fd544890b7019" target="_top" xlink:title=" ">
<polygon fill="white" stroke="black" points="1015,-246 1015,-265 1169,-265 1169,-246 1015,-246"/>
<text text-anchor="middle" x="1092" y="-253" font-family="Helvetica,sans-Serif" font-size="10.00">denoptim.graph.APClass.equals</text>
</a>
</g>
</g>
<!-- Node23&#45;&gt;Node24 -->
<g id="edge31" class="edge">
<title>Node23&#45;&gt;Node24</title>
<path fill="none" stroke="midnightblue" d="M936.59,-208.54C959.37,-216.95 988.61,-227.35 1015,-235.5 1023.81,-238.22 1033.26,-240.9 1042.4,-243.37"/>
<polygon fill="midnightblue" stroke="midnightblue" points="1041.59,-246.77 1052.16,-245.95 1043.39,-240.01 1041.59,-246.77"/>
</g>
<!-- Node25 -->
<g id="node25" class="node">
<title>Node25</title>
<g id="a_node25"><a xlink:href="classdenoptim_1_1graph_1_1_attachment_point.html#a31bed4cb29f6437bf8a888a1dda3fd95" target="_top" xlink:title="Returns the Attachment Point class.">
<polygon fill="white" stroke="black" points="1024.5,-196.5 1024.5,-226.5 1159.5,-226.5 1159.5,-196.5 1024.5,-196.5"/>
<text text-anchor="start" x="1032.5" y="-214.5" font-family="Helvetica,sans-Serif" font-size="10.00">denoptim.graph.Attachment</text>
<text text-anchor="middle" x="1092" y="-203.5" font-family="Helvetica,sans-Serif" font-size="10.00">Point.getAPClass</text>
</a>
</g>
</g>
<!-- Node23&#45;&gt;Node25 -->
<g id="edge32" class="edge">
<title>Node23&#45;&gt;Node25</title>
<path fill="none" stroke="midnightblue" d="M963.76,-199.69C980.01,-201.2 997.52,-202.83 1014.19,-204.37"/>
<polygon fill="midnightblue" stroke="midnightblue" points="1014.16,-207.89 1024.44,-205.32 1014.81,-200.92 1014.16,-207.89"/>
</g>
<!-- Node26 -->
<g id="node26" class="node">
<title>Node26</title>
<g id="a_node26"><a xlink:href="classdenoptim_1_1graph_1_1_attachment_point.html#af8040db3f56d75da29132079df2b25cb" target="_top" xlink:title="Gets the edge that is using this AP, or null if no edge is using this AP.">
<polygon fill="white" stroke="black" points="1024.5,-147.5 1024.5,-177.5 1159.5,-177.5 1159.5,-147.5 1024.5,-147.5"/>
<text text-anchor="start" x="1032.5" y="-165.5" font-family="Helvetica,sans-Serif" font-size="10.00">denoptim.graph.Attachment</text>
<text text-anchor="middle" x="1092" y="-154.5" font-family="Helvetica,sans-Serif" font-size="10.00">Point.getEdgeUser</text>
</a>
</g>
</g>
<!-- Node23&#45;&gt;Node26 -->
<g id="edge33" class="edge">
<title>Node23&#45;&gt;Node26</title>
<path fill="none" stroke="midnightblue" d="M963.76,-182.83C980.01,-180.24 997.52,-177.44 1014.19,-174.77"/>
<polygon fill="midnightblue" stroke="midnightblue" points="1015.12,-178.17 1024.44,-173.14 1014.01,-171.26 1015.12,-178.17"/>
</g>
<!-- Node27 -->
<g id="node27" class="node">
<title>Node27</title>
<g id="a_node27"><a xlink:href="classdenoptim_1_1graph_1_1_attachment_point.html#a72dd6bd75a701cabb65832778da6e574" target="_top" xlink:title="Returns a unique integer that is used to sort list of attachment points.">
<polygon fill="white" stroke="black" points="1024.5,-98.5 1024.5,-128.5 1159.5,-128.5 1159.5,-98.5 1024.5,-98.5"/>
<text text-anchor="start" x="1032.5" y="-116.5" font-family="Helvetica,sans-Serif" font-size="10.00">denoptim.graph.Attachment</text>
<text text-anchor="middle" x="1092" y="-105.5" font-family="Helvetica,sans-Serif" font-size="10.00">Point.getID</text>
</a>
</g>
</g>
<!-- Node23&#45;&gt;Node27 -->
<g id="edge34" class="edge">
<title>Node23&#45;&gt;Node27</title>
<path fill="none" stroke="midnightblue" d="M926.09,-178.32C949.67,-166.35 983.98,-149.69 1015,-137.5 1019.99,-135.54 1025.21,-133.62 1030.48,-131.78"/>
<polygon fill="midnightblue" stroke="midnightblue" points="1031.63,-135.09 1039.97,-128.55 1029.38,-128.46 1031.63,-135.09"/>
</g>
<!-- Node28 -->
<g id="node28" class="node">
<title>Node28</title>
<g id="a_node28"><a xlink:href="classdenoptim_1_1graph_1_1_attachment_point.html#acd666767475f39f0d7f17550d2b47651" target="_top" xlink:title=" ">
<polygon fill="white" stroke="black" points="1024.5,-0.5 1024.5,-30.5 1159.5,-30.5 1159.5,-0.5 1024.5,-0.5"/>
<text text-anchor="start" x="1032.5" y="-18.5" font-family="Helvetica,sans-Serif" font-size="10.00">denoptim.graph.Attachment</text>
<text text-anchor="middle" x="1092" y="-7.5" font-family="Helvetica,sans-Serif" font-size="10.00">Point.getIndexInOwner</text>
</a>
</g>
</g>
<!-- Node23&#45;&gt;Node28 -->
<g id="edge35" class="edge">
<title>Node23&#45;&gt;Node28</title>
<path fill="none" stroke="midnightblue" d="M904.5,-178.33C920.49,-147.54 960.94,-77.4 1015,-39.5 1017.13,-38.01 1019.36,-36.6 1021.66,-35.28"/>
<polygon fill="midnightblue" stroke="midnightblue" points="1023.51,-38.27 1030.83,-30.6 1020.33,-32.03 1023.51,-38.27"/>
</g>
<!-- Node30 -->
<g id="node30" class="node">
<title>Node30</title>
<g id="a_node30"><a xlink:href="classdenoptim_1_1graph_1_1_attachment_point.html#a05ecc9dd632f58f95e7613f8aa4ece97" target="_top" xlink:title="Gets the attachment point (AP) that is connected to this AP via the edge user.">
<polygon fill="white" stroke="black" points="1024.5,-49.5 1024.5,-79.5 1159.5,-79.5 1159.5,-49.5 1024.5,-49.5"/>
<text text-anchor="start" x="1032.5" y="-67.5" font-family="Helvetica,sans-Serif" font-size="10.00">denoptim.graph.Attachment</text>
<text text-anchor="middle" x="1092" y="-56.5" font-family="Helvetica,sans-Serif" font-size="10.00">Point.getLinkedAP</text>
</a>
</g>
</g>
<!-- Node23&#45;&gt;Node30 -->
<g id="edge38" class="edge">
<title>Node23&#45;&gt;Node30</title>
<path fill="none" stroke="midnightblue" d="M910,-178.43C930.27,-155.82 971.6,-113.15 1015,-88.5 1018.04,-86.77 1021.22,-85.15 1024.48,-83.64"/>
<polygon fill="midnightblue" stroke="midnightblue" points="1026.03,-86.78 1033.85,-79.63 1023.28,-80.35 1026.03,-86.78"/>
</g>
<!-- Node29 -->
<g id="node29" class="node">
<title>Node29</title>
<g id="a_node29"><a xlink:href="classdenoptim_1_1graph_1_1_vertex.html#a367c9d31e4bb13c16e865389c154a767" target="_top" xlink:title="Returns the position of the given AP in the list of APs of this vertex.">
<polygon fill="white" stroke="black" points="1216.5,-117.5 1216.5,-147.5 1344.5,-147.5 1344.5,-117.5 1216.5,-117.5"/>
<text text-anchor="start" x="1224.5" y="-135.5" font-family="Helvetica,sans-Serif" font-size="10.00">denoptim.graph.Vertex.get</text>
<text text-anchor="middle" x="1280.5" y="-124.5" font-family="Helvetica,sans-Serif" font-size="10.00">IndexOfAP</text>
</a>
</g>
</g>
<!-- Node28&#45;&gt;Node29 -->
<g id="edge36" class="edge">
<title>Node28&#45;&gt;Node29</title>
<path fill="none" stroke="midnightblue" d="M1149.66,-30.64C1156.34,-33.22 1162.94,-36.17 1169,-39.5 1203.44,-58.44 1237.13,-89.05 1258.08,-109.94"/>
<polygon fill="midnightblue" stroke="midnightblue" points="1255.69,-112.5 1265.2,-117.16 1260.67,-107.58 1255.69,-112.5"/>
</g>
<!-- Node29&#45;&gt;Node4 -->
<g id="edge37" class="edge">
<title>Node29&#45;&gt;Node4</title>
<path fill="none" stroke="midnightblue" d="M1289.55,-147.84C1303.22,-173.88 1331.83,-228.39 1356,-274.5 1386.97,-333.58 1423.35,-403.06 1442.21,-439.07"/>
<polygon fill="midnightblue" stroke="midnightblue" points="1439.31,-441.07 1447.05,-448.31 1445.51,-437.83 1439.31,-441.07"/>
</g>
<!-- Node30&#45;&gt;Node12 -->
<g id="edge40" class="edge">
<title>Node30&#45;&gt;Node12</title>
<path fill="none" stroke="midnightblue" d="M1158.74,-79.54C1162.54,-82.08 1166.02,-85.04 1169,-88.5 1234.89,-164.83 1136.99,-238.05 1205,-312.5 1206.21,-313.82 1207.49,-315.06 1208.84,-316.21"/>
<polygon fill="midnightblue" stroke="midnightblue" points="1207,-319.19 1217.23,-321.97 1210.97,-313.42 1207,-319.19"/>
</g>
<!-- Node30&#45;&gt;Node14 -->
<g id="edge39" class="edge">
<title>Node30&#45;&gt;Node14</title>
<path fill="none" stroke="midnightblue" d="M1155.31,-79.55C1160.21,-82.09 1164.85,-85.04 1169,-88.5 1195.27,-110.4 1188.83,-126.37 1205,-156.5 1227.82,-199.02 1254.97,-248.74 1269.37,-275.02"/>
<polygon fill="midnightblue" stroke="midnightblue" points="1266.35,-276.8 1274.22,-283.89 1272.49,-273.43 1266.35,-276.8"/>
</g>
</g>
</svg>
