<?xml version="1.0" encoding="UTF-8" standalone="no"?>
<!DOCTYPE svg PUBLIC "-//W3C//DTD SVG 1.1//EN"
 "http://www.w3.org/Graphics/SVG/1.1/DTD/svg11.dtd">
<!-- Generated by graphviz version 3.0.0 (20221109.1736)
 -->
<!-- Title: denoptim.gui.GUIVertexInspector.loadCurrentVrtxIdxToViewer Pages: 1 -->
<svg width="1418pt" height="194pt"
 viewBox="0.00 0.00 1418.00 194.20" xmlns="http://www.w3.org/2000/svg" xmlns:xlink="http://www.w3.org/1999/xlink">
<g id="graph0" class="graph" transform="scale(1 1) rotate(0) translate(4 190.2)">
<title>denoptim.gui.GUIVertexInspector.loadCurrentVrtxIdxToViewer</title>
<polygon fill="white" stroke="transparent" points="-4,4 -4,-190.2 1414,-190.2 1414,4 -4,4"/>
<!-- Node1 -->
<g id="node1" class="node">
<title>Node1</title>
<g id="a_node1"><a xlink:title="Loads the fragments corresponding to the field index.">
<polygon fill="#bfbfbf" stroke="black" points="1230,-73.5 1230,-103.5 1410,-103.5 1410,-73.5 1230,-73.5"/>
<text text-anchor="start" x="1238" y="-91.5" font-family="Helvetica,sans-Serif" font-size="10.00">denoptim.gui.GUIVertexInspector.load</text>
<text text-anchor="middle" x="1320" y="-80.5" font-family="Helvetica,sans-Serif" font-size="10.00">CurrentVrtxIdxToViewer</text>
</a>
</g>
</g>
<!-- Node2 -->
<g id="node2" class="node">
<title>Node2</title>
<g id="a_node2"><a xlink:href="classdenoptim_1_1gui_1_1_g_u_i_vertex_inspector.html#a69d3deb57097286f9a01cdf256ec8d65" target="_top" xlink:title="Imports vertices.">
<polygon fill="white" stroke="black" points="1002.5,-147.5 1002.5,-177.5 1191.5,-177.5 1191.5,-147.5 1002.5,-147.5"/>
<text text-anchor="start" x="1010.5" y="-165.5" font-family="Helvetica,sans-Serif" font-size="10.00">denoptim.gui.GUIVertexInspector.import</text>
<text text-anchor="middle" x="1097" y="-154.5" font-family="Helvetica,sans-Serif" font-size="10.00">Vertices</text>
</a>
</g>
</g>
<!-- Node1&#45;&gt;Node2 -->
<g id="edge1" class="edge">
<title>Node1&#45;&gt;Node2</title>
<path fill="none" stroke="midnightblue" d="M1275.52,-107.58C1251.73,-117.59 1221.56,-129.59 1194,-138.5 1184.11,-141.7 1173.53,-144.72 1163.15,-147.48"/>
<polygon fill="midnightblue" stroke="midnightblue" points="1277.14,-110.7 1284.97,-103.57 1274.4,-104.25 1277.14,-110.7"/>
</g>
<!-- Node11 -->
<g id="node11" class="node">
<title>Node11</title>
<g id="a_node11"><a xlink:href="classdenoptim_1_1gui_1_1_g_u_i_vertex_inspector.html#a6e5cc3cb1cd2f98bf03934b3b2defa22" target="_top" xlink:title=" ">
<polygon fill="white" stroke="black" points="1000,-98.5 1000,-128.5 1194,-128.5 1194,-98.5 1000,-98.5"/>
<text text-anchor="start" x="1008" y="-116.5" font-family="Helvetica,sans-Serif" font-size="10.00">denoptim.gui.GUIVertexInspector.remove</text>
<text text-anchor="middle" x="1097" y="-105.5" font-family="Helvetica,sans-Serif" font-size="10.00">CurrentVrtx</text>
</a>
</g>
</g>
<!-- Node1&#45;&gt;Node11 -->
<g id="edge11" class="edge">
<title>Node1&#45;&gt;Node11</title>
<path fill="none" stroke="midnightblue" d="M1219.78,-99.72C1211.23,-100.69 1202.6,-101.67 1194.09,-102.63"/>
<polygon fill="midnightblue" stroke="midnightblue" points="1220.2,-103.2 1229.75,-98.6 1219.42,-96.24 1220.2,-103.2"/>
</g>
<!-- Node12 -->
<g id="node12" class="node">
<title>Node12</title>
<g id="a_node12"><a xlink:href="classdenoptim_1_1gui_1_1_g_u_i_vertex_inspector.html#a09363e21a5254efe8f128a99e82acbf0" target="_top" xlink:title=" ">
<polygon fill="white" stroke="black" points="1005.5,-49.5 1005.5,-79.5 1188.5,-79.5 1188.5,-49.5 1005.5,-49.5"/>
<text text-anchor="start" x="1013.5" y="-67.5" font-family="Helvetica,sans-Serif" font-size="10.00">denoptim.gui.GUIVertexInspector.save</text>
<text text-anchor="middle" x="1097" y="-56.5" font-family="Helvetica,sans-Serif" font-size="10.00">UnsavedChanges</text>
</a>
</g>
</g>
<!-- Node1&#45;&gt;Node12 -->
<g id="edge13" class="edge">
<title>Node1&#45;&gt;Node12</title>
<path fill="none" stroke="midnightblue" d="M1219.53,-77.7C1209.25,-76.58 1198.84,-75.45 1188.67,-74.35"/>
<polygon fill="midnightblue" stroke="midnightblue" points="1219.43,-81.21 1229.75,-78.81 1220.18,-74.25 1219.43,-81.21"/>
</g>
<!-- Node13 -->
<g id="node13" class="node">
<title>Node13</title>
<g id="a_node13"><a xlink:href="classdenoptim_1_1gui_1_1_g_u_i_vertex_inspector_1_1_vrtx_spinner_change_event.html#aca98b170c98a615d12f199d1ccdd26dd" target="_top" xlink:title=" ">
<polygon fill="white" stroke="black" points="1003.5,-0.5 1003.5,-30.5 1190.5,-30.5 1190.5,-0.5 1003.5,-0.5"/>
<text text-anchor="start" x="1011.5" y="-18.5" font-family="Helvetica,sans-Serif" font-size="10.00">denoptim.gui.GUIVertexInspector.</text>
<text text-anchor="middle" x="1097" y="-7.5" font-family="Helvetica,sans-Serif" font-size="10.00">VrtxSpinnerChangeEvent.stateChanged</text>
</a>
</g>
</g>
<!-- Node1&#45;&gt;Node13 -->
<g id="edge15" class="edge">
<title>Node1&#45;&gt;Node13</title>
<path fill="none" stroke="midnightblue" d="M1274.73,-69.54C1251.04,-59.8 1221.22,-48.2 1194,-39.5 1184.02,-36.31 1173.34,-33.28 1162.87,-30.51"/>
<polygon fill="midnightblue" stroke="midnightblue" points="1273.57,-72.85 1284.14,-73.44 1276.25,-66.38 1273.57,-72.85"/>
</g>
<!-- Node3 -->
<g id="node3" class="node">
<title>Node3</title>
<g id="a_node3"><a xlink:href="classdenoptim_1_1gui_1_1_g_u_i_vertex_inspector.html#a6698fa37bf04503e58c61f0543946834" target="_top" xlink:title="Imports fragments from a file.">
<polygon fill="white" stroke="black" points="771,-147.5 771,-177.5 960,-177.5 960,-147.5 771,-147.5"/>
<text text-anchor="start" x="779" y="-165.5" font-family="Helvetica,sans-Serif" font-size="10.00">denoptim.gui.GUIVertexInspector.import</text>
<text text-anchor="middle" x="865.5" y="-154.5" font-family="Helvetica,sans-Serif" font-size="10.00">VerticesFromFile</text>
</a>
</g>
</g>
<!-- Node2&#45;&gt;Node3 -->
<g id="edge2" class="edge">
<title>Node2&#45;&gt;Node3</title>
<path fill="none" stroke="midnightblue" d="M992.17,-162.5C981.54,-162.5 970.77,-162.5 960.25,-162.5"/>
<polygon fill="midnightblue" stroke="midnightblue" points="992.32,-166 1002.32,-162.5 992.32,-159 992.32,-166"/>
</g>
<!-- Node9 -->
<g id="node9" class="node">
<title>Node9</title>
<g id="a_node9"><a xlink:href="classdenoptim_1_1gui_1_1_g_u_i_vertex_inspector.html#acadecc92299a7ea46113c06382a1f333" target="_top" xlink:title="Initialize the panel and add buttons.">
<polygon fill="white" stroke="black" points="767,-104 767,-123 964,-123 964,-104 767,-104"/>
<text text-anchor="middle" x="865.5" y="-111" font-family="Helvetica,sans-Serif" font-size="10.00">denoptim.gui.GUIVertexInspector.initialize</text>
</a>
</g>
</g>
<!-- Node2&#45;&gt;Node9 -->
<g id="edge9" class="edge">
<title>Node2&#45;&gt;Node9</title>
<path fill="none" stroke="midnightblue" d="M1015.37,-145.28C980.37,-137.81 940.7,-129.34 911.13,-123.03"/>
<polygon fill="midnightblue" stroke="midnightblue" points="1015.07,-148.8 1025.58,-147.47 1016.53,-141.95 1015.07,-148.8"/>
</g>
<!-- Node4 -->
<g id="node4" class="node">
<title>Node4</title>
<g id="a_node4"><a xlink:href="classdenoptim_1_1gui_1_1_main_tool_bar.html#a1a2e06a2647032587d42155302b8c0a6" target="_top" xlink:title="Process a file that has a recognized file format and loads a suitable GUI card to visualize the file ...">
<polygon fill="white" stroke="black" points="564,-153 564,-172 731,-172 731,-153 564,-153"/>
<text text-anchor="middle" x="647.5" y="-160" font-family="Helvetica,sans-Serif" font-size="10.00">denoptim.gui.MainToolBar.openFile</text>
</a>
</g>
</g>
<!-- Node3&#45;&gt;Node4 -->
<g id="edge3" class="edge">
<title>Node3&#45;&gt;Node4</title>
<path fill="none" stroke="midnightblue" d="M760.44,-162.5C750.57,-162.5 740.65,-162.5 731.02,-162.5"/>
<polygon fill="midnightblue" stroke="midnightblue" points="760.7,-166 770.7,-162.5 760.7,-159 760.7,-166"/>
</g>
<!-- Node5 -->
<g id="node5" class="node">
<title>Node5</title>
<g id="a_node5"><a xlink:href="classdenoptim_1_1gui_1_1_main_tool_bar.html#a0df9ca063352fbc50f9476f3b2820926" target="_top" xlink:title="Initialize the contents of the tool bar.">
<polygon fill="white" stroke="black" points="167,-150 167,-169 332,-169 332,-150 167,-150"/>
<text text-anchor="middle" x="249.5" y="-157" font-family="Helvetica,sans-Serif" font-size="10.00">denoptim.gui.MainToolBar.initialize</text>
</a>
</g>
</g>
<!-- Node4&#45;&gt;Node5 -->
<g id="edge4" class="edge">
<title>Node4&#45;&gt;Node5</title>
<path fill="none" stroke="midnightblue" d="M588.22,-173.73C569.11,-176.91 547.72,-179.93 528,-181.5 457.11,-187.15 438.81,-188.07 368,-181.5 342.17,-179.1 313.55,-173.8 291.02,-169"/>
<polygon fill="midnightblue" stroke="midnightblue" points="589.01,-177.15 598.28,-172.01 587.83,-170.25 589.01,-177.15"/>
</g>
<!-- Node7 -->
<g id="node7" class="node">
<title>Node7</title>
<g id="a_node7"><a xlink:href="classdenoptim_1_1gui_1_1_g_u_i.html#a460fa99497f04de06d2adf8671a92441" target="_top" xlink:title="Launch the application.">
<polygon fill="white" stroke="black" points="394.5,-153 394.5,-172 501.5,-172 501.5,-153 394.5,-153"/>
<text text-anchor="middle" x="448" y="-160" font-family="Helvetica,sans-Serif" font-size="10.00">denoptim.gui.GUI.run</text>
</a>
</g>
</g>
<!-- Node4&#45;&gt;Node7 -->
<g id="edge6" class="edge">
<title>Node4&#45;&gt;Node7</title>
<path fill="none" stroke="midnightblue" d="M553.47,-162.5C535.7,-162.5 517.68,-162.5 501.73,-162.5"/>
<polygon fill="midnightblue" stroke="midnightblue" points="553.89,-166 563.89,-162.5 553.89,-159 553.89,-166"/>
</g>
<!-- Node8 -->
<g id="node8" class="node">
<title>Node8</title>
<g id="a_node8"><a xlink:href="classdenoptim_1_1gui_1_1_main_tool_bar.html#a94df24e485081c9b9d7441387f409e26" target="_top" xlink:title="Updated the the list of recent files in the &quot;open Recent&quot; menu.">
<polygon fill="white" stroke="black" points="368,-103.5 368,-133.5 528,-133.5 528,-103.5 368,-103.5"/>
<text text-anchor="start" x="376" y="-121.5" font-family="Helvetica,sans-Serif" font-size="10.00">denoptim.gui.MainToolBar.update</text>
<text text-anchor="middle" x="448" y="-110.5" font-family="Helvetica,sans-Serif" font-size="10.00">OpenRecentMenu</text>
</a>
</g>
</g>
<!-- Node4&#45;&gt;Node8 -->
<g id="edge7" class="edge">
<title>Node4&#45;&gt;Node8</title>
<path fill="none" stroke="midnightblue" d="M593.79,-150.76C570.1,-145.48 541.85,-139.19 516.62,-133.57"/>
<polygon fill="midnightblue" stroke="midnightblue" points="593.12,-154.19 603.65,-152.95 594.65,-147.36 593.12,-154.19"/>
</g>
<!-- Node6 -->
<g id="node6" class="node">
<title>Node6</title>
<g id="a_node6"><a xlink:href="classdenoptim_1_1gui_1_1_main_tool_bar.html#a36f4409849998e032342f49b19e6c5b5" target="_top" xlink:title="Constructor that build the tool bar.">
<polygon fill="white" stroke="black" points="0,-144.5 0,-174.5 131,-174.5 131,-144.5 0,-144.5"/>
<text text-anchor="start" x="8" y="-162.5" font-family="Helvetica,sans-Serif" font-size="10.00">denoptim.gui.MainToolBar.</text>
<text text-anchor="middle" x="65.5" y="-151.5" font-family="Helvetica,sans-Serif" font-size="10.00">MainToolBar</text>
</a>
</g>
</g>
<!-- Node5&#45;&gt;Node6 -->
<g id="edge5" class="edge">
<title>Node5&#45;&gt;Node6</title>
<path fill="none" stroke="midnightblue" d="M156.66,-159.5C147.99,-159.5 139.34,-159.5 131,-159.5"/>
<polygon fill="midnightblue" stroke="midnightblue" points="156.82,-163 166.82,-159.5 156.82,-156 156.82,-163"/>
</g>
<!-- Node8&#45;&gt;Node5 -->
<g id="edge8" class="edge">
<title>Node8&#45;&gt;Node5</title>
<path fill="none" stroke="midnightblue" d="M364.98,-135.61C341.5,-140.51 316.75,-145.68 296.29,-149.95"/>
<polygon fill="midnightblue" stroke="midnightblue" points="365.87,-139 374.95,-133.53 364.44,-132.15 365.87,-139"/>
</g>
<!-- Node10 -->
<g id="node10" class="node">
<title>Node10</title>
<g id="a_node10"><a xlink:href="classdenoptim_1_1gui_1_1_g_u_i_vertex_inspector.html#abc5d3c33ad9b2b114ce43e9b2cd577bb" target="_top" xlink:title="Constructor.">
<polygon fill="white" stroke="black" points="566.5,-98.5 566.5,-128.5 728.5,-128.5 728.5,-98.5 566.5,-98.5"/>
<text text-anchor="start" x="574.5" y="-116.5" font-family="Helvetica,sans-Serif" font-size="10.00">denoptim.gui.GUIVertexInspector.</text>
<text text-anchor="middle" x="647.5" y="-105.5" font-family="Helvetica,sans-Serif" font-size="10.00">GUIVertexInspector</text>
</a>
</g>
</g>
<!-- Node9&#45;&gt;Node10 -->
<g id="edge10" class="edge">
<title>Node9&#45;&gt;Node10</title>
<path fill="none" stroke="midnightblue" d="M756.74,-113.5C747.34,-113.5 737.94,-113.5 728.82,-113.5"/>
<polygon fill="midnightblue" stroke="midnightblue" points="756.93,-117 766.93,-113.5 756.93,-110 756.93,-117"/>
</g>
<!-- Node11&#45;&gt;Node9 -->
<g id="edge12" class="edge">
<title>Node11&#45;&gt;Node9</title>
<path fill="none" stroke="midnightblue" d="M989.4,-113.5C980.95,-113.5 972.44,-113.5 964.06,-113.5"/>
<polygon fill="midnightblue" stroke="midnightblue" points="989.67,-117 999.67,-113.5 989.67,-110 989.67,-117"/>
</g>
<!-- Node12&#45;&gt;Node9 -->
<g id="edge14" class="edge">
<title>Node12&#45;&gt;Node9</title>
<path fill="none" stroke="midnightblue" d="M1015.37,-81.72C980.37,-89.19 940.7,-97.66 911.13,-103.97"/>
<polygon fill="midnightblue" stroke="midnightblue" points="1016.53,-85.05 1025.58,-79.53 1015.07,-78.2 1016.53,-85.05"/>
</g>
</g>
</svg>
