<?xml version="1.0" encoding="UTF-8" standalone="no"?>
<!DOCTYPE svg PUBLIC "-//W3C//DTD SVG 1.1//EN"
 "http://www.w3.org/Graphics/SVG/1.1/DTD/svg11.dtd">
<!-- Generated by graphviz version 3.0.0 (20221109.1736)
 -->
<!-- Title: denoptim.utils.GraphConversionTool.getGraphFromString Pages: 1 -->
<svg width="350pt" height="57pt"
 viewBox="0.00 0.00 350.00 57.00" xmlns="http://www.w3.org/2000/svg" xmlns:xlink="http://www.w3.org/1999/xlink">
<g id="graph0" class="graph" transform="scale(1 1) rotate(0) translate(4 53)">
<title>denoptim.utils.GraphConversionTool.getGraphFromString</title>
<polygon fill="white" stroke="transparent" points="-4,4 -4,-53 346,-53 346,4 -4,4"/>
<!-- Node1 -->
<g id="node1" class="node">
<title>Node1</title>
<g id="a_node1"><a xlink:title="Given a formatted string&#45;like representation of a DENOPTIM graph create the corresponding DENOPTIMGra...">
<polygon fill="#bfbfbf" stroke="black" points="188,-0.5 188,-30.5 342,-30.5 342,-0.5 188,-0.5"/>
<text text-anchor="start" x="196" y="-18.5" font-family="Helvetica,sans-Serif" font-size="10.00">denoptim.utils.GraphConversion</text>
<text text-anchor="middle" x="265" y="-7.5" font-family="Helvetica,sans-Serif" font-size="10.00">Tool.getGraphFromString</text>
</a>
</g>
</g>
<!-- Node1&#45;&gt;Node1 -->
<g id="edge1" class="edge">
<title>Node1&#45;&gt;Node1</title>
<path fill="none" stroke="midnightblue" d="M298.41,-40.96C294.26,-45.68 283.12,-49 265,-49 235.26,-49 224.34,-40.06 232.24,-30.66"/>
<polygon fill="midnightblue" stroke="midnightblue" points="301.88,-40.42 297.76,-30.66 294.89,-40.86 301.88,-40.42"/>
</g>
<!-- Node2 -->
<g id="node2" class="node">
<title>Node2</title>
<g id="a_node2"><a xlink:href="classdenoptim_1_1io_1_1_denoptim_i_o.html#a47fad73c741e8de2ec6e4593d5ad0a7c" target="_top" xlink:title="Reads a list of &lt;DGraphs from a text file.">
<polygon fill="white" stroke="black" points="0,-0.5 0,-30.5 152,-30.5 152,-0.5 0,-0.5"/>
<text text-anchor="start" x="8" y="-18.5" font-family="Helvetica,sans-Serif" font-size="10.00">denoptim.io.DenoptimIO.read</text>
<text text-anchor="middle" x="76" y="-7.5" font-family="Helvetica,sans-Serif" font-size="10.00">DENOPTIMGraphsFromTxtFile</text>
</a>
</g>
</g>
<!-- Node1&#45;&gt;Node2 -->
<g id="edge2" class="edge">
<title>Node1&#45;&gt;Node2</title>
<path fill="none" stroke="midnightblue" d="M177.88,-15.5C169.27,-15.5 160.57,-15.5 152.08,-15.5"/>
<polygon fill="midnightblue" stroke="midnightblue" points="177.94,-19 187.94,-15.5 177.94,-12 177.94,-19"/>
</g>
</g>
</svg>
