<?xml version="1.0" encoding="UTF-8" standalone="no"?>
<!DOCTYPE svg PUBLIC "-//W3C//DTD SVG 1.1//EN"
 "http://www.w3.org/Graphics/SVG/1.1/DTD/svg11.dtd">
<!-- Generated by graphviz version 3.0.0 (20221109.1736)
 -->
<!-- Title: denoptim.graph.DGraph.getBranchIdOfVertex Pages: 1 -->
<!--zoomable 206 -->
<svg id="main" version="1.1" xmlns="http://www.w3.org/2000/svg" xmlns:xlink="http://www.w3.org/1999/xlink" xml:space="preserve" onload="init(evt)">
<style type="text/css"><![CDATA[
.edge:hover path { stroke: red; }
.edge:hover polygon { stroke: red; fill: red; }
]]></style>
<script type="text/javascript"><![CDATA[
var edges = document.getElementsByTagName('g');
if (edges && edges.length) {
  for (var i=0;i<edges.length;i++) {
    if (edges[i].id.substr(0,4)=='edge') {
      edges[i].setAttribute('class','edge');
    }
  }
}
]]></script>
        <defs>
                <circle id="rim" cx="0" cy="0" r="7"/>
                <circle id="rim2" cx="0" cy="0" r="3.5"/>
                <g id="zoomPlus">
                        <use xlink:href="#rim" fill="#404040">
                                <set attributeName="fill" to="#808080" begin="zoomplus.mouseover" end="zoomplus.mouseout"/>
                        </use>
                        <path d="M-4,0h8M0,-4v8" fill="none" stroke="white" stroke-width="1.5" pointer-events="none"/>
                </g>
                <g id="zoomMin">
                        <use xlink:href="#rim" fill="#404040">
                                <set attributeName="fill" to="#808080" begin="zoomminus.mouseover" end="zoomminus.mouseout"/>
                        </use>
                        <path d="M-4,0h8" fill="none" stroke="white" stroke-width="1.5" pointer-events="none"/>
                </g>
                <g id="dirArrow">
                        <path fill="none" stroke="white" stroke-width="1.5" d="M0,-3.0v7 M-2.5,-0.5L0,-3.0L2.5,-0.5"/>
                </g>
               <g id="resetDef">
                       <use xlink:href="#rim2" fill="#404040">
                               <set attributeName="fill" to="#808080" begin="reset.mouseover" end="reset.mouseout"/>
                       </use>
               </g>
        </defs>

<script type="text/javascript">
var viewWidth = 1133;
var viewHeight = 206;
var sectionId = 'dynsection-80';
</script>
<script xlink:href="svgpan.js"/>
<svg id="graph" class="graph">
<g id="viewport">
<title>denoptim.graph.DGraph.getBranchIdOfVertex</title>
<polygon fill="white" stroke="transparent" points="-4,4 -4,-202 1129,-202 1129,4 -4,4"/>
<!-- Node1 -->
<g id="node1" class="node">
<title>Node1</title>
<g id="a_node1"><a xlink:title="Returns the branch identifier.">
<polygon fill="#bfbfbf" stroke="black" points="991,-98.5 991,-128.5 1125,-128.5 1125,-98.5 991,-98.5"/>
<text text-anchor="start" x="999" y="-116.5" font-family="Helvetica,sans-Serif" font-size="10.00">denoptim.graph.DGraph.get</text>
<text text-anchor="middle" x="1058" y="-105.5" font-family="Helvetica,sans-Serif" font-size="10.00">BranchIdOfVertex</text>
</a>
</g>
</g>
<!-- Node2 -->
<g id="node2" class="node">
<title>Node2</title>
<g id="a_node2"><a xlink:href="classdenoptim_1_1graph_1_1_d_graph.html#a6149eb0ba01e4d57b50b8c87a035847c" target="_top" xlink:title="Uses branch identifiers to define is two vertices are in such a relation that allows the drawing of a...">
<polygon fill="white" stroke="black" points="800,-147.5 800,-177.5 955,-177.5 955,-147.5 800,-147.5"/>
<text text-anchor="start" x="808" y="-165.5" font-family="Helvetica,sans-Serif" font-size="10.00">denoptim.graph.DGraph.directed</text>
<text text-anchor="middle" x="877.5" y="-154.5" font-family="Helvetica,sans-Serif" font-size="10.00">PathExists</text>
</a>
</g>
</g>
<!-- Node1&#45;&gt;Node2 -->
<g id="edge1" class="edge">
<title>Node1&#45;&gt;Node2</title>
<path fill="none" stroke="midnightblue" d="M992.08,-131.32C972.81,-136.61 951.9,-142.35 933.33,-147.45"/>
<polygon fill="midnightblue" stroke="midnightblue" points="993.27,-134.62 1001.99,-128.6 991.42,-127.87 993.27,-134.62"/>
</g>
<!-- Node4 -->
<g id="node4" class="node">
<title>Node4</title>
<g id="a_node4"><a xlink:href="classdenoptim_1_1graph_1_1_d_graph.html#a5fa7a00a2017c040659c1a4a65553c87" target="_top" xlink:title="Returns the branch identifier as a literal string.">
<polygon fill="white" stroke="black" points="810.5,-49.5 810.5,-79.5 944.5,-79.5 944.5,-49.5 810.5,-49.5"/>
<text text-anchor="start" x="818.5" y="-67.5" font-family="Helvetica,sans-Serif" font-size="10.00">denoptim.graph.DGraph.get</text>
<text text-anchor="middle" x="877.5" y="-56.5" font-family="Helvetica,sans-Serif" font-size="10.00">BranchIdOfVertexAsStr</text>
</a>
</g>
</g>
<!-- Node1&#45;&gt;Node4 -->
<g id="edge3" class="edge">
<title>Node1&#45;&gt;Node4</title>
<path fill="none" stroke="midnightblue" d="M992.08,-95.68C972.81,-90.39 951.9,-84.65 933.33,-79.55"/>
<polygon fill="midnightblue" stroke="midnightblue" points="991.42,-99.13 1001.99,-98.4 993.27,-92.38 991.42,-99.13"/>
</g>
<!-- Node14 -->
<g id="node14" class="node">
<title>Node14</title>
<g id="a_node14"><a xlink:href="classdenoptim_1_1graph_1_1_d_graph.html#af4d72a0ffa42dcafb183af2ebe1ec38d" target="_top" xlink:title="Returns the branch identifier.">
<polygon fill="white" stroke="black" points="808,-98.5 808,-128.5 947,-128.5 947,-98.5 808,-98.5"/>
<text text-anchor="start" x="816" y="-116.5" font-family="Helvetica,sans-Serif" font-size="10.00">denoptim.graph.DGraph.get</text>
<text text-anchor="middle" x="877.5" y="-105.5" font-family="Helvetica,sans-Serif" font-size="10.00">BranchIdOfVertexAtPosition</text>
</a>
</g>
</g>
<!-- Node1&#45;&gt;Node14 -->
<g id="edge14" class="edge">
<title>Node1&#45;&gt;Node14</title>
<path fill="none" stroke="midnightblue" d="M980.69,-113.5C969.6,-113.5 958.23,-113.5 947.29,-113.5"/>
<polygon fill="midnightblue" stroke="midnightblue" points="980.79,-117 990.79,-113.5 980.79,-110 980.79,-117"/>
</g>
<!-- Node3 -->
<g id="node3" class="node">
<title>Node3</title>
<g id="a_node3"><a xlink:href="classdenoptim_1_1graph_1_1_d_graph_test.html#abfaf918deddf6407a4b1916c06a8c412" target="_top" xlink:title=" ">
<polygon fill="white" stroke="black" points="590,-131.5 590,-161.5 764,-161.5 764,-131.5 590,-131.5"/>
<text text-anchor="start" x="598" y="-149.5" font-family="Helvetica,sans-Serif" font-size="10.00">denoptim.graph.DGraphTest.test</text>
<text text-anchor="middle" x="677" y="-138.5" font-family="Helvetica,sans-Serif" font-size="10.00">GetChildrenTreeWithBranchIdentifier</text>
</a>
</g>
</g>
<!-- Node2&#45;&gt;Node3 -->
<g id="edge2" class="edge">
<title>Node2&#45;&gt;Node3</title>
<path fill="none" stroke="midnightblue" d="M789.54,-155.49C781.1,-154.81 772.54,-154.12 764.11,-153.44"/>
<polygon fill="midnightblue" stroke="midnightblue" points="789.51,-159 799.75,-156.31 790.07,-152.02 789.51,-159"/>
</g>
<!-- Node5 -->
<g id="node5" class="node">
<title>Node5</title>
<g id="a_node5"><a xlink:href="classdenoptim_1_1ga_1_1_graph_operations.html#a2396c23acf24d07f255b94eb3a2105b7" target="_top" xlink:title="Identify crossover sites, i.e., subgraphs that can be swapped between two graphs (i....">
<polygon fill="white" stroke="black" points="590.5,-49.5 590.5,-79.5 763.5,-79.5 763.5,-49.5 590.5,-49.5"/>
<text text-anchor="start" x="598.5" y="-67.5" font-family="Helvetica,sans-Serif" font-size="10.00">denoptim.ga.GraphOperations.locate</text>
<text text-anchor="middle" x="677" y="-56.5" font-family="Helvetica,sans-Serif" font-size="10.00">CompatibleXOverPoints</text>
</a>
</g>
</g>
<!-- Node4&#45;&gt;Node5 -->
<g id="edge4" class="edge">
<title>Node4&#45;&gt;Node5</title>
<path fill="none" stroke="midnightblue" d="M800.05,-64.5C788.11,-64.5 775.71,-64.5 763.58,-64.5"/>
<polygon fill="midnightblue" stroke="midnightblue" points="800.4,-68 810.4,-64.5 800.4,-61 800.4,-68"/>
</g>
<!-- Node5&#45;&gt;Node5 -->
<g id="edge10" class="edge">
<title>Node5&#45;&gt;Node5</title>
<path fill="none" stroke="midnightblue" d="M712.54,-89.96C708.13,-94.68 696.28,-98 677,-98 645.36,-98 633.74,-89.06 642.15,-79.66"/>
<polygon fill="midnightblue" stroke="midnightblue" points="716.01,-89.41 711.85,-79.66 709.02,-89.87 716.01,-89.41"/>
</g>
<!-- Node6 -->
<g id="node6" class="node">
<title>Node6</title>
<g id="a_node6"><a xlink:href="classdenoptim_1_1ga_1_1_population.html#a31b74cc5407c42fa3a4214029fb08190" target="_top" xlink:title="Returns a list of population members that can do crossover with the specified member.">
<polygon fill="white" stroke="black" points="393,-98.5 393,-128.5 526,-128.5 526,-98.5 393,-98.5"/>
<text text-anchor="start" x="401" y="-116.5" font-family="Helvetica,sans-Serif" font-size="10.00">denoptim.ga.Population.get</text>
<text text-anchor="middle" x="459.5" y="-105.5" font-family="Helvetica,sans-Serif" font-size="10.00">XoverPartners</text>
</a>
</g>
</g>
<!-- Node5&#45;&gt;Node6 -->
<g id="edge5" class="edge">
<title>Node5&#45;&gt;Node6</title>
<path fill="none" stroke="midnightblue" d="M600.05,-81.77C575.93,-87.25 549.46,-93.27 526.13,-98.58"/>
<polygon fill="midnightblue" stroke="midnightblue" points="600.9,-85.16 609.88,-79.53 599.35,-78.34 600.9,-85.16"/>
</g>
<!-- Node11 -->
<g id="node11" class="node">
<title>Node11</title>
<g id="a_node11"><a xlink:href="classdenoptim_1_1programs_1_1genetweeker_1_1_gene_ops_runner.html#ab0f92a94c4fb2334e7d3813e73fc4247" target="_top" xlink:title=" ">
<polygon fill="white" stroke="black" points="380,-49.5 380,-79.5 539,-79.5 539,-49.5 380,-49.5"/>
<text text-anchor="start" x="388" y="-67.5" font-family="Helvetica,sans-Serif" font-size="10.00">denoptim.programs.genetweeker.</text>
<text text-anchor="middle" x="459.5" y="-56.5" font-family="Helvetica,sans-Serif" font-size="10.00">GeneOpsRunner.runXOver</text>
</a>
</g>
</g>
<!-- Node5&#45;&gt;Node11 -->
<g id="edge11" class="edge">
<title>Node5&#45;&gt;Node11</title>
<path fill="none" stroke="midnightblue" d="M579.83,-64.5C566.18,-64.5 552.27,-64.5 539.01,-64.5"/>
<polygon fill="midnightblue" stroke="midnightblue" points="580.21,-68 590.21,-64.5 580.21,-61 580.21,-68"/>
</g>
<!-- Node13 -->
<g id="node13" class="node">
<title>Node13</title>
<g id="a_node13"><a xlink:href="classdenoptim_1_1ga_1_1_graph_operations_test.html#a9fcf8fffef10a59df722c92e94da2815" target="_top" xlink:title=" ">
<polygon fill="white" stroke="black" points="365,-0.5 365,-30.5 554,-30.5 554,-0.5 365,-0.5"/>
<text text-anchor="start" x="373" y="-18.5" font-family="Helvetica,sans-Serif" font-size="10.00">denoptim.ga.GraphOperations</text>
<text text-anchor="middle" x="459.5" y="-7.5" font-family="Helvetica,sans-Serif" font-size="10.00">Test.testLocateCompatibleXOverPoints</text>
</a>
</g>
</g>
<!-- Node5&#45;&gt;Node13 -->
<g id="edge13" class="edge">
<title>Node5&#45;&gt;Node13</title>
<path fill="none" stroke="midnightblue" d="M600.1,-47.24C576.09,-41.78 549.76,-35.79 526.5,-30.51"/>
<polygon fill="midnightblue" stroke="midnightblue" points="599.35,-50.66 609.88,-49.47 600.9,-43.84 599.35,-50.66"/>
</g>
<!-- Node7 -->
<g id="node7" class="node">
<title>Node7</title>
<g id="a_node7"><a xlink:href="classdenoptim_1_1ga_1_1_e_a_utils.html#a45d4e9ec6a308aa73891efa1d501dd5e" target="_top" xlink:title="Perform fitness&#45;based, class&#45;compatible selection of parents that can do crossover operations.">
<polygon fill="white" stroke="black" points="163,-173 163,-192 329,-192 329,-173 163,-173"/>
<text text-anchor="middle" x="246" y="-180" font-family="Helvetica,sans-Serif" font-size="10.00">denoptim.ga.EAUtils.performFBCC</text>
</a>
</g>
</g>
<!-- Node6&#45;&gt;Node7 -->
<g id="edge6" class="edge">
<title>Node6&#45;&gt;Node7</title>
<path fill="none" stroke="midnightblue" d="M412.92,-132.31C388.32,-142.07 357.28,-153.74 329,-162.5 316.54,-166.36 302.84,-169.95 290.25,-173"/>
<polygon fill="midnightblue" stroke="midnightblue" points="414.37,-135.5 422.35,-128.54 411.77,-129 414.37,-135.5"/>
</g>
<!-- Node9 -->
<g id="node9" class="node">
<title>Node9</title>
<g id="a_node9"><a xlink:href="classdenoptim_1_1ga_1_1_population_test.html#a5db0672054a9fc1dbc923310732fdb3a" target="_top" xlink:title=" ">
<polygon fill="white" stroke="black" points="168.5,-123.5 168.5,-153.5 323.5,-153.5 323.5,-123.5 168.5,-123.5"/>
<text text-anchor="start" x="176.5" y="-141.5" font-family="Helvetica,sans-Serif" font-size="10.00">denoptim.ga.PopulationTest.test</text>
<text text-anchor="middle" x="246" y="-130.5" font-family="Helvetica,sans-Serif" font-size="10.00">Clone</text>
</a>
</g>
</g>
<!-- Node6&#45;&gt;Node9 -->
<g id="edge8" class="edge">
<title>Node6&#45;&gt;Node9</title>
<path fill="none" stroke="midnightblue" d="M382.59,-122.47C363.49,-124.73 342.98,-127.16 323.83,-129.42"/>
<polygon fill="midnightblue" stroke="midnightblue" points="383.22,-125.92 392.74,-121.27 382.4,-118.97 383.22,-125.92"/>
</g>
<!-- Node10 -->
<g id="node10" class="node">
<title>Node10</title>
<g id="a_node10"><a xlink:href="classdenoptim_1_1ga_1_1_population_test.html#a278212ebff2501b7071d342f9a027599" target="_top" xlink:title=" ">
<polygon fill="white" stroke="black" points="168.5,-74.5 168.5,-104.5 323.5,-104.5 323.5,-74.5 168.5,-74.5"/>
<text text-anchor="start" x="176.5" y="-92.5" font-family="Helvetica,sans-Serif" font-size="10.00">denoptim.ga.PopulationTest.test</text>
<text text-anchor="middle" x="246" y="-81.5" font-family="Helvetica,sans-Serif" font-size="10.00">XOverCompatibility</text>
</a>
</g>
</g>
<!-- Node6&#45;&gt;Node10 -->
<g id="edge9" class="edge">
<title>Node6&#45;&gt;Node10</title>
<path fill="none" stroke="midnightblue" d="M382.59,-104.89C363.49,-102.72 342.98,-100.39 323.83,-98.22"/>
<polygon fill="midnightblue" stroke="midnightblue" points="382.41,-108.39 392.74,-106.04 383.2,-101.43 382.41,-108.39"/>
</g>
<!-- Node8 -->
<g id="node8" class="node">
<title>Node8</title>
<g id="a_node8"><a xlink:href="classdenoptim_1_1ga_1_1_e_a_utils.html#a0b958439d79fae30f14530213ad22e3a" target="_top" xlink:title="Generates up to a pair of new offspring by performing a crossover operation.">
<polygon fill="white" stroke="black" points="0,-167.5 0,-197.5 127,-197.5 127,-167.5 0,-167.5"/>
<text text-anchor="start" x="8" y="-185.5" font-family="Helvetica,sans-Serif" font-size="10.00">denoptim.ga.EAUtils.build</text>
<text text-anchor="middle" x="63.5" y="-174.5" font-family="Helvetica,sans-Serif" font-size="10.00">CandidatesByXOver</text>
</a>
</g>
</g>
<!-- Node7&#45;&gt;Node8 -->
<g id="edge7" class="edge">
<title>Node7&#45;&gt;Node8</title>
<path fill="none" stroke="midnightblue" d="M152.77,-182.5C144.11,-182.5 135.47,-182.5 127.17,-182.5"/>
<polygon fill="midnightblue" stroke="midnightblue" points="152.94,-186 162.94,-182.5 152.94,-179 152.94,-186"/>
</g>
<!-- Node12 -->
<g id="node12" class="node">
<title>Node12</title>
<g id="a_node12"><a xlink:href="classdenoptim_1_1programs_1_1genetweeker_1_1_gene_ops_runner.html#a3c2407eb1204a7b25600d3d347d98447" target="_top" xlink:title=" ">
<polygon fill="white" stroke="black" points="166.5,-25.5 166.5,-55.5 325.5,-55.5 325.5,-25.5 166.5,-25.5"/>
<text text-anchor="start" x="174.5" y="-43.5" font-family="Helvetica,sans-Serif" font-size="10.00">denoptim.programs.genetweeker.</text>
<text text-anchor="middle" x="246" y="-32.5" font-family="Helvetica,sans-Serif" font-size="10.00">GeneOpsRunner.runProgram</text>
</a>
</g>
</g>
<!-- Node11&#45;&gt;Node12 -->
<g id="edge12" class="edge">
<title>Node11&#45;&gt;Node12</title>
<path fill="none" stroke="midnightblue" d="M369.74,-54.43C355.16,-52.77 340.14,-51.07 325.82,-49.44"/>
<polygon fill="midnightblue" stroke="midnightblue" points="369.41,-57.91 379.75,-55.56 370.2,-50.96 369.41,-57.91"/>
</g>
<!-- Node14&#45;&gt;Node3 -->
<g id="edge15" class="edge">
<title>Node14&#45;&gt;Node3</title>
<path fill="none" stroke="midnightblue" d="M797.85,-126.58C786.76,-128.42 775.32,-130.32 764.1,-132.19"/>
<polygon fill="midnightblue" stroke="midnightblue" points="798.62,-130 807.91,-124.9 797.47,-123.09 798.62,-130"/>
</g>
</g>
</svg>
        <g id="navigator" transform="translate(0 0)" fill="#404254">
                <rect fill="#f2f5e9" fill-opacity="0.5" stroke="#606060" stroke-width=".5" x="0" y="0" width="60" height="60"/>
                <use id="zoomplus" xlink:href="#zoomPlus" x="17" y="9" onmousedown="handleZoom(evt,'in')"/>
                <use id="zoomminus" xlink:href="#zoomMin" x="42" y="9" onmousedown="handleZoom(evt,'out')"/>
                <use id="reset" xlink:href="#resetDef" x="30" y="36" onmousedown="handleReset()"/>
                <g id="arrowUp" xlink:href="#dirArrow" transform="translate(30 24)" onmousedown="handlePan(0,-1)">
                  <use xlink:href="#rim" fill="#404040">
                        <set attributeName="fill" to="#808080" begin="arrowUp.mouseover" end="arrowUp.mouseout"/>
                  </use>
                  <path fill="none" stroke="white" stroke-width="1.5" d="M0,-3.0v7 M-2.5,-0.5L0,-3.0L2.5,-0.5"/>
                </g>
                <g id="arrowRight" xlink:href="#dirArrow" transform="rotate(90) translate(36 -43)" onmousedown="handlePan(1,0)">
                  <use xlink:href="#rim" fill="#404040">
                        <set attributeName="fill" to="#808080" begin="arrowRight.mouseover" end="arrowRight.mouseout"/>
                  </use>
                  <path fill="none" stroke="white" stroke-width="1.5" d="M0,-3.0v7 M-2.5,-0.5L0,-3.0L2.5,-0.5"/>
                </g>
                <g id="arrowDown" xlink:href="#dirArrow" transform="rotate(180) translate(-30 -48)" onmousedown="handlePan(0,1)">
                  <use xlink:href="#rim" fill="#404040">
                        <set attributeName="fill" to="#808080" begin="arrowDown.mouseover" end="arrowDown.mouseout"/>
                  </use>
                  <path fill="none" stroke="white" stroke-width="1.5" d="M0,-3.0v7 M-2.5,-0.5L0,-3.0L2.5,-0.5"/>
                </g>
                <g id="arrowLeft" xlink:href="#dirArrow" transform="rotate(270) translate(-36 17)" onmousedown="handlePan(-1,0)">
                  <use xlink:href="#rim" fill="#404040">
                        <set attributeName="fill" to="#808080" begin="arrowLeft.mouseover" end="arrowLeft.mouseout"/>
                  </use>
                  <path fill="none" stroke="white" stroke-width="1.5" d="M0,-3.0v7 M-2.5,-0.5L0,-3.0L2.5,-0.5"/>
                </g>
        </g>
        <svg viewBox="0 0 15 15" width="100%" height="30px" preserveAspectRatio="xMaxYMin meet">
         <g id="arrow_out" transform="scale(0.3 0.3)">
          <a xlink:href="classdenoptim_1_1graph_1_1_d_graph_a1b6ffe09345affdaf53651dfbdbb691b_icgraph_org.svg" target="_base">
           <rect id="button" ry="5" rx="5" y="6" x="6" height="38" width="38"
                fill="#f2f5e9" fill-opacity="0.5" stroke="#606060" stroke-width="1.0"/>
           <path id="arrow"
             d="M 11.500037,31.436501 C 11.940474,20.09759 22.043105,11.32322 32.158766,21.979434 L 37.068811,17.246167 C 37.068811,17.246167 37.088388,32 37.088388,32 L 22.160133,31.978069 C 22.160133,31.978069 26.997745,27.140456 26.997745,27.140456 C 18.528582,18.264221 13.291696,25.230495 11.500037,31.436501 z"
             style="fill:#404040;"/>
          </a>
         </g>
        </svg>
</svg>
