<?xml version="1.0" encoding="UTF-8" standalone="no"?>
<!DOCTYPE svg PUBLIC "-//W3C//DTD SVG 1.1//EN"
 "http://www.w3.org/Graphics/SVG/1.1/DTD/svg11.dtd">
<!-- Generated by graphviz version 3.0.0 (20221109.1736)
 -->
<!-- Title: denoptim.gui.GUIPrepareGARun Pages: 1 -->
<svg width="165pt" height="196pt"
 viewBox="0.00 0.00 165.00 196.00" xmlns="http://www.w3.org/2000/svg" xmlns:xlink="http://www.w3.org/1999/xlink">
<g id="graph0" class="graph" transform="scale(1 1) rotate(0) translate(4 192)">
<title>denoptim.gui.GUIPrepareGARun</title>
<polygon fill="white" stroke="transparent" points="-4,4 -4,-192 161,-192 161,4 -4,4"/>
<!-- Node1 -->
<g id="node1" class="node">
<title>Node1</title>
<g id="a_node1"><a xlink:title="Master form containing all sub&#45;forms that need to be filled to define the input parameters for Denopt...">
<polygon fill="#bfbfbf" stroke="black" points="0,-0.5 0,-19.5 157,-19.5 157,-0.5 0,-0.5"/>
<text text-anchor="middle" x="78.5" y="-7.5" font-family="Helvetica,sans-Serif" font-size="10.00">denoptim.gui.GUIPrepareGARun</text>
</a>
</g>
</g>
<!-- Node2 -->
<g id="node2" class="node">
<title>Node2</title>
<g id="a_node2"><a xlink:href="classdenoptim_1_1gui_1_1_g_u_i_prepare.html" target="_top" xlink:title="Class representing the general structure of a form including a specific set of parameter collections.">
<polygon fill="white" stroke="black" points="16,-56.5 16,-75.5 141,-75.5 141,-56.5 16,-56.5"/>
<text text-anchor="middle" x="78.5" y="-63.5" font-family="Helvetica,sans-Serif" font-size="10.00">denoptim.gui.GUIPrepare</text>
</a>
</g>
</g>
<!-- Node2&#45;&gt;Node1 -->
<g id="edge1" class="edge">
<title>Node2&#45;&gt;Node1</title>
<path fill="none" stroke="midnightblue" d="M78.5,-45.8C78.5,-36.91 78.5,-26.78 78.5,-19.75"/>
<polygon fill="midnightblue" stroke="midnightblue" points="75,-46.08 78.5,-56.08 82,-46.08 75,-46.08"/>
</g>
<!-- Node3 -->
<g id="node3" class="node">
<title>Node3</title>
<g id="a_node3"><a xlink:href="classdenoptim_1_1gui_1_1_g_u_i_card_panel.html" target="_top" xlink:title="Class of GUI panels meant to occupy one card in the deck&#45;of&#45;cards layout of the main panel.">
<polygon fill="white" stroke="black" points="10,-112.5 10,-131.5 147,-131.5 147,-112.5 10,-112.5"/>
<text text-anchor="middle" x="78.5" y="-119.5" font-family="Helvetica,sans-Serif" font-size="10.00">denoptim.gui.GUICardPanel</text>
</a>
</g>
</g>
<!-- Node3&#45;&gt;Node2 -->
<g id="edge2" class="edge">
<title>Node3&#45;&gt;Node2</title>
<path fill="none" stroke="midnightblue" d="M78.5,-101.8C78.5,-92.91 78.5,-82.78 78.5,-75.75"/>
<polygon fill="midnightblue" stroke="midnightblue" points="75,-102.08 78.5,-112.08 82,-102.08 75,-102.08"/>
</g>
<!-- Node4 -->
<g id="node4" class="node">
<title>Node4</title>
<g id="a_node4"><a xlink:title=" ">
<polygon fill="white" stroke="black" points="55,-168.5 55,-187.5 102,-187.5 102,-168.5 55,-168.5"/>
<text text-anchor="middle" x="78.5" y="-175.5" font-family="Helvetica,sans-Serif" font-size="10.00">JPanel</text>
</a>
</g>
</g>
<!-- Node4&#45;&gt;Node3 -->
<g id="edge3" class="edge">
<title>Node4&#45;&gt;Node3</title>
<path fill="none" stroke="midnightblue" d="M78.5,-157.8C78.5,-148.91 78.5,-138.78 78.5,-131.75"/>
<polygon fill="midnightblue" stroke="midnightblue" points="75,-158.08 78.5,-168.08 82,-158.08 75,-158.08"/>
</g>
</g>
</svg>
