<?xml version="1.0" encoding="UTF-8" standalone="no"?>
<!DOCTYPE svg PUBLIC "-//W3C//DTD SVG 1.1//EN"
 "http://www.w3.org/Graphics/SVG/1.1/DTD/svg11.dtd">
<!-- Generated by graphviz version 3.0.0 (20221109.1736)
 -->
<!-- Title: denoptim.fitness.FitnessProvider.getFitness Pages: 1 -->
<svg width="902pt" height="316pt"
 viewBox="0.00 0.00 902.00 315.50" xmlns="http://www.w3.org/2000/svg" xmlns:xlink="http://www.w3.org/1999/xlink">
<g id="graph0" class="graph" transform="scale(1 1) rotate(0) translate(4 311.5)">
<title>denoptim.fitness.FitnessProvider.getFitness</title>
<polygon fill="white" stroke="transparent" points="-4,4 -4,-311.5 898,-311.5 898,4 -4,4"/>
<!-- Node1 -->
<g id="node1" class="node">
<title>Node1</title>
<g id="a_node1"><a xlink:title="Calculated the fitness according to the current configuration.">
<polygon fill="#bfbfbf" stroke="black" points="772,-120 772,-150 894,-150 894,-120 772,-120"/>
<text text-anchor="start" x="780" y="-138" font-family="Helvetica,sans-Serif" font-size="10.00">denoptim.fitness.Fitness</text>
<text text-anchor="middle" x="833" y="-127" font-family="Helvetica,sans-Serif" font-size="10.00">Provider.getFitness</text>
</a>
</g>
</g>
<!-- Node2 -->
<g id="node2" class="node">
<title>Node2</title>
<g id="a_node2"><a xlink:href="classdenoptim_1_1task_1_1_fitness_task.html#aa35dd8ab897188899e5498f953b6939e" target="_top" xlink:title=" ">
<polygon fill="white" stroke="black" points="582.5,-228 582.5,-258 731.5,-258 731.5,-228 582.5,-228"/>
<text text-anchor="start" x="590.5" y="-246" font-family="Helvetica,sans-Serif" font-size="10.00">denoptim.task.FitnessTask.run</text>
<text text-anchor="middle" x="657" y="-235" font-family="Helvetica,sans-Serif" font-size="10.00">InternalFitness</text>
</a>
</g>
</g>
<!-- Node1&#45;&gt;Node2 -->
<g id="edge1" class="edge">
<title>Node1&#45;&gt;Node2</title>
<path fill="none" stroke="midnightblue" d="M811.36,-157.77C793.17,-176.59 765.11,-202.77 736,-219 729.94,-222.38 723.34,-225.35 716.63,-227.93"/>
<polygon fill="midnightblue" stroke="midnightblue" points="814.19,-159.87 818.52,-150.2 809.1,-155.06 814.19,-159.87"/>
</g>
<!-- Node8 -->
<g id="node8" class="node">
<title>Node8</title>
<g id="a_node8"><a xlink:href="classdenoptim_1_1fitness_1_1_fitness_provider_test.html#a2272dbcf72c993b4544719ddf64c98b6" target="_top" xlink:title=" ">
<polygon fill="white" stroke="black" points="584,-168.5 584,-209.5 730,-209.5 730,-168.5 584,-168.5"/>
<text text-anchor="start" x="592" y="-197.5" font-family="Helvetica,sans-Serif" font-size="10.00">denoptim.fitness.Fitness</text>
<text text-anchor="start" x="592" y="-186.5" font-family="Helvetica,sans-Serif" font-size="10.00">ProviderTest.testGetConstant</text>
<text text-anchor="middle" x="657" y="-175.5" font-family="Helvetica,sans-Serif" font-size="10.00">Fitness</text>
</a>
</g>
</g>
<!-- Node1&#45;&gt;Node8 -->
<g id="edge7" class="edge">
<title>Node1&#45;&gt;Node8</title>
<path fill="none" stroke="midnightblue" d="M773.81,-153.06C757.86,-158.01 740.45,-163.41 724.09,-168.49"/>
<polygon fill="midnightblue" stroke="midnightblue" points="775.02,-156.35 783.53,-150.04 772.94,-149.66 775.02,-156.35"/>
</g>
<!-- Node9 -->
<g id="node9" class="node">
<title>Node9</title>
<g id="a_node9"><a xlink:href="classdenoptim_1_1fitness_1_1_fitness_provider_test.html#a797d2bef11fed4d885baa11089538b23" target="_top" xlink:title=" ">
<polygon fill="white" stroke="black" points="587.5,-120 587.5,-150 726.5,-150 726.5,-120 587.5,-120"/>
<text text-anchor="start" x="595.5" y="-138" font-family="Helvetica,sans-Serif" font-size="10.00">denoptim.fitness.Fitness</text>
<text text-anchor="middle" x="657" y="-127" font-family="Helvetica,sans-Serif" font-size="10.00">ProviderTest.testGetFitness</text>
</a>
</g>
</g>
<!-- Node1&#45;&gt;Node9 -->
<g id="edge8" class="edge">
<title>Node1&#45;&gt;Node9</title>
<path fill="none" stroke="midnightblue" d="M761.61,-135C750.06,-135 738.11,-135 726.61,-135"/>
<polygon fill="midnightblue" stroke="midnightblue" points="761.63,-138.5 771.63,-135 761.63,-131.5 761.63,-138.5"/>
</g>
<!-- Node10 -->
<g id="node10" class="node">
<title>Node10</title>
<g id="a_node10"><a xlink:href="classdenoptim_1_1fitness_1_1_fitness_provider_test.html#a49819c248ea4d3acf19689f8d6fcec2c" target="_top" xlink:title=" ">
<polygon fill="white" stroke="black" points="578,-60.5 578,-101.5 736,-101.5 736,-60.5 578,-60.5"/>
<text text-anchor="start" x="586" y="-89.5" font-family="Helvetica,sans-Serif" font-size="10.00">denoptim.fitness.Fitness</text>
<text text-anchor="start" x="586" y="-78.5" font-family="Helvetica,sans-Serif" font-size="10.00">ProviderTest.testGetFitnessWith</text>
<text text-anchor="middle" x="657" y="-67.5" font-family="Helvetica,sans-Serif" font-size="10.00">CustomDescriptors</text>
</a>
</g>
</g>
<!-- Node1&#45;&gt;Node10 -->
<g id="edge9" class="edge">
<title>Node1&#45;&gt;Node10</title>
<path fill="none" stroke="midnightblue" d="M773.81,-116.94C757.86,-111.99 740.45,-106.59 724.09,-101.51"/>
<polygon fill="midnightblue" stroke="midnightblue" points="772.94,-120.34 783.53,-119.96 775.02,-113.65 772.94,-120.34"/>
</g>
<!-- Node11 -->
<g id="node11" class="node">
<title>Node11</title>
<g id="a_node11"><a xlink:href="classdenoptim_1_1fitness_1_1_fitness_provider_test.html#ac3684e1e2969ee1c883ab279d4d5c048" target="_top" xlink:title="This test is reproducing most of what done in FitnessParametersTest#testProcessExpressions() so if bo...">
<polygon fill="white" stroke="black" points="578,-0.5 578,-41.5 736,-41.5 736,-0.5 578,-0.5"/>
<text text-anchor="start" x="586" y="-29.5" font-family="Helvetica,sans-Serif" font-size="10.00">denoptim.fitness.Fitness</text>
<text text-anchor="start" x="586" y="-18.5" font-family="Helvetica,sans-Serif" font-size="10.00">ProviderTest.testGetFitnessWith</text>
<text text-anchor="middle" x="657" y="-7.5" font-family="Helvetica,sans-Serif" font-size="10.00">ParametrizedDescriptors</text>
</a>
</g>
</g>
<!-- Node1&#45;&gt;Node11 -->
<g id="edge10" class="edge">
<title>Node1&#45;&gt;Node11</title>
<path fill="none" stroke="midnightblue" d="M810.74,-112.41C792.37,-93.92 764.37,-68.12 736,-51 730.41,-47.63 724.38,-44.51 718.22,-41.67"/>
<polygon fill="midnightblue" stroke="midnightblue" points="808.51,-115.13 818,-119.84 813.52,-110.24 808.51,-115.13"/>
</g>
<!-- Node3 -->
<g id="node3" class="node">
<title>Node3</title>
<g id="a_node3"><a xlink:href="classdenoptim_1_1task_1_1_fitness_task.html#a39bac06427179a7d067d3eadee30ba79" target="_top" xlink:title="This method runs the actual evaluation of the fitness, whether that is run internally (i....">
<polygon fill="white" stroke="black" points="393,-228 393,-258 542,-258 542,-228 393,-228"/>
<text text-anchor="start" x="401" y="-246" font-family="Helvetica,sans-Serif" font-size="10.00">denoptim.task.FitnessTask.run</text>
<text text-anchor="middle" x="467.5" y="-235" font-family="Helvetica,sans-Serif" font-size="10.00">FitnessProvider</text>
</a>
</g>
</g>
<!-- Node2&#45;&gt;Node3 -->
<g id="edge2" class="edge">
<title>Node2&#45;&gt;Node3</title>
<path fill="none" stroke="midnightblue" d="M572.42,-243C562.33,-243 552.09,-243 542.16,-243"/>
<polygon fill="midnightblue" stroke="midnightblue" points="572.43,-246.5 582.43,-243 572.43,-239.5 572.43,-246.5"/>
</g>
<!-- Node4 -->
<g id="node4" class="node">
<title>Node4</title>
<g id="a_node4"><a xlink:href="classdenoptim_1_1ga_1_1_offspring_evaluation_task.html#aab5b9c0b8a88922460f5c28ae161d1fa" target="_top" xlink:title=" ">
<polygon fill="white" stroke="black" points="191.5,-277 191.5,-307 346.5,-307 346.5,-277 191.5,-277"/>
<text text-anchor="start" x="199.5" y="-295" font-family="Helvetica,sans-Serif" font-size="10.00">denoptim.ga.OffspringEvaluation</text>
<text text-anchor="middle" x="269" y="-284" font-family="Helvetica,sans-Serif" font-size="10.00">Task.call</text>
</a>
</g>
</g>
<!-- Node3&#45;&gt;Node4 -->
<g id="edge3" class="edge">
<title>Node3&#45;&gt;Node4</title>
<path fill="none" stroke="midnightblue" d="M396.41,-260.48C374.76,-265.88 351.1,-271.78 330.18,-276.99"/>
<polygon fill="midnightblue" stroke="midnightblue" points="397.35,-263.85 406.21,-258.03 395.66,-257.06 397.35,-263.85"/>
</g>
<!-- Node5 -->
<g id="node5" class="node">
<title>Node5</title>
<g id="a_node5"><a xlink:href="classdenoptim_1_1programs_1_1fitnessevaluator_1_1_fitness_evaluation_task.html#a498b4214d06fc161d92cf1a38635ece3" target="_top" xlink:title=" ">
<polygon fill="white" stroke="black" points="183,-228 183,-258 355,-258 355,-228 183,-228"/>
<text text-anchor="start" x="191" y="-246" font-family="Helvetica,sans-Serif" font-size="10.00">denoptim.programs.fitnessevaluator.</text>
<text text-anchor="middle" x="269" y="-235" font-family="Helvetica,sans-Serif" font-size="10.00">FitnessEvaluationTask.call</text>
</a>
</g>
</g>
<!-- Node3&#45;&gt;Node5 -->
<g id="edge4" class="edge">
<title>Node3&#45;&gt;Node5</title>
<path fill="none" stroke="midnightblue" d="M382.57,-243C373.46,-243 364.18,-243 355.05,-243"/>
<polygon fill="midnightblue" stroke="midnightblue" points="382.77,-246.5 392.77,-243 382.77,-239.5 382.77,-246.5"/>
</g>
<!-- Node6 -->
<g id="node6" class="node">
<title>Node6</title>
<g id="a_node6"><a xlink:href="classdenoptim_1_1combinatorial_1_1_graph_building_task.html#a6b74fb1e5678145e094259bfa2401bd4" target="_top" xlink:title=" ">
<polygon fill="white" stroke="black" points="181,-179 181,-209 357,-209 357,-179 181,-179"/>
<text text-anchor="start" x="189" y="-197" font-family="Helvetica,sans-Serif" font-size="10.00">denoptim.combinatorial.Graph</text>
<text text-anchor="middle" x="269" y="-186" font-family="Helvetica,sans-Serif" font-size="10.00">BuildingTask.sendToFitnessProvider</text>
</a>
</g>
</g>
<!-- Node3&#45;&gt;Node6 -->
<g id="edge5" class="edge">
<title>Node3&#45;&gt;Node6</title>
<path fill="none" stroke="midnightblue" d="M396.41,-225.52C374.76,-220.12 351.1,-214.22 330.18,-209.01"/>
<polygon fill="midnightblue" stroke="midnightblue" points="395.66,-228.94 406.21,-227.97 397.35,-222.15 395.66,-228.94"/>
</g>
<!-- Node7 -->
<g id="node7" class="node">
<title>Node7</title>
<g id="a_node7"><a xlink:href="classdenoptim_1_1combinatorial_1_1_graph_building_task.html#a3eaee724fc921194fa158714aafe182d" target="_top" xlink:title="Calls the task.">
<polygon fill="white" stroke="black" points="0,-179 0,-209 145,-209 145,-179 0,-179"/>
<text text-anchor="start" x="8" y="-197" font-family="Helvetica,sans-Serif" font-size="10.00">denoptim.combinatorial.Graph</text>
<text text-anchor="middle" x="72.5" y="-186" font-family="Helvetica,sans-Serif" font-size="10.00">BuildingTask.call</text>
</a>
</g>
</g>
<!-- Node6&#45;&gt;Node7 -->
<g id="edge6" class="edge">
<title>Node6&#45;&gt;Node7</title>
<path fill="none" stroke="midnightblue" d="M170.89,-194C162.27,-194 153.64,-194 145.29,-194"/>
<polygon fill="midnightblue" stroke="midnightblue" points="170.99,-197.5 180.99,-194 170.99,-190.5 170.99,-197.5"/>
</g>
</g>
</svg>
