<?xml version="1.0" encoding="UTF-8" standalone="no"?>
<!DOCTYPE svg PUBLIC "-//W3C//DTD SVG 1.1//EN"
 "http://www.w3.org/Graphics/SVG/1.1/DTD/svg11.dtd">
<!-- Generated by graphviz version 3.0.0 (20221109.1736)
 -->
<!-- Title: denoptim.graph.AttachmentPoint.getLinkedAPThroughout Pages: 1 -->
<!--zoomable 277 -->
<svg id="main" version="1.1" xmlns="http://www.w3.org/2000/svg" xmlns:xlink="http://www.w3.org/1999/xlink" xml:space="preserve" onload="init(evt)">
<style type="text/css"><![CDATA[
.edge:hover path { stroke: red; }
.edge:hover polygon { stroke: red; fill: red; }
]]></style>
<script type="text/javascript"><![CDATA[
var edges = document.getElementsByTagName('g');
if (edges && edges.length) {
  for (var i=0;i<edges.length;i++) {
    if (edges[i].id.substr(0,4)=='edge') {
      edges[i].setAttribute('class','edge');
    }
  }
}
]]></script>
        <defs>
                <circle id="rim" cx="0" cy="0" r="7"/>
                <circle id="rim2" cx="0" cy="0" r="3.5"/>
                <g id="zoomPlus">
                        <use xlink:href="#rim" fill="#404040">
                                <set attributeName="fill" to="#808080" begin="zoomplus.mouseover" end="zoomplus.mouseout"/>
                        </use>
                        <path d="M-4,0h8M0,-4v8" fill="none" stroke="white" stroke-width="1.5" pointer-events="none"/>
                </g>
                <g id="zoomMin">
                        <use xlink:href="#rim" fill="#404040">
                                <set attributeName="fill" to="#808080" begin="zoomminus.mouseover" end="zoomminus.mouseout"/>
                        </use>
                        <path d="M-4,0h8" fill="none" stroke="white" stroke-width="1.5" pointer-events="none"/>
                </g>
                <g id="dirArrow">
                        <path fill="none" stroke="white" stroke-width="1.5" d="M0,-3.0v7 M-2.5,-0.5L0,-3.0L2.5,-0.5"/>
                </g>
               <g id="resetDef">
                       <use xlink:href="#rim2" fill="#404040">
                               <set attributeName="fill" to="#808080" begin="reset.mouseover" end="reset.mouseout"/>
                       </use>
               </g>
        </defs>

<script type="text/javascript">
var viewWidth = 706;
var viewHeight = 277;
var sectionId = 'dynsection-28';
</script>
<script xlink:href="svgpan.js"/>
<svg id="graph" class="graph">
<g id="viewport">
<title>denoptim.graph.AttachmentPoint.getLinkedAPThroughout</title>
<polygon fill="white" stroke="transparent" points="-4,4 -4,-273 702,-273 702,4 -4,4"/>
<!-- Node1 -->
<g id="node1" class="node">
<title>Node1</title>
<g id="a_node1"><a xlink:title="Gets the attachment point (AP) that is connected to this AP via the edge user or in any edge user tha...">
<polygon fill="#bfbfbf" stroke="black" points="0,-110.5 0,-140.5 146,-140.5 146,-110.5 0,-110.5"/>
<text text-anchor="start" x="8" y="-128.5" font-family="Helvetica,sans-Serif" font-size="10.00">denoptim.graph.Attachment</text>
<text text-anchor="middle" x="73" y="-117.5" font-family="Helvetica,sans-Serif" font-size="10.00">Point.getLinkedAPThroughout</text>
</a>
</g>
</g>
<!-- Node2 -->
<g id="node2" class="node">
<title>Node2</title>
<g id="a_node2"><a xlink:href="classdenoptim_1_1graph_1_1_attachment_point.html#aa1ae3c328e8ea24ead206b822daca7f7" target="_top" xlink:title="Gets the edge that is using this AP, or null if no edge is using this AP.">
<polygon fill="white" stroke="black" points="184.5,-214.5 184.5,-244.5 330.5,-244.5 330.5,-214.5 184.5,-214.5"/>
<text text-anchor="start" x="192.5" y="-232.5" font-family="Helvetica,sans-Serif" font-size="10.00">denoptim.graph.Attachment</text>
<text text-anchor="middle" x="257.5" y="-221.5" font-family="Helvetica,sans-Serif" font-size="10.00">Point.getEdgeUserThroughout</text>
</a>
</g>
</g>
<!-- Node1&#45;&gt;Node2 -->
<g id="edge1" class="edge">
<title>Node1&#45;&gt;Node2</title>
<path fill="none" stroke="midnightblue" d="M93.47,-140.78C114.49,-156.79 149.34,-182.01 182,-199.5 189.25,-203.38 197.12,-207.07 204.93,-210.45"/>
<polygon fill="midnightblue" stroke="midnightblue" points="203.82,-213.77 214.39,-214.4 206.52,-207.32 203.82,-213.77"/>
</g>
<!-- Node6 -->
<g id="node6" class="node">
<title>Node6</title>
<g id="a_node6"><a xlink:href="classdenoptim_1_1graph_1_1_attachment_point.html#a0e96f6c954de060a628eb3de1b2f4554" target="_top" xlink:title="For vertices that are templates this method returns the attachment point that is embedded in the temp...">
<polygon fill="white" stroke="black" points="372,-88.5 372,-118.5 507,-118.5 507,-88.5 372,-88.5"/>
<text text-anchor="start" x="380" y="-106.5" font-family="Helvetica,sans-Serif" font-size="10.00">denoptim.graph.Attachment</text>
<text text-anchor="middle" x="439.5" y="-95.5" font-family="Helvetica,sans-Serif" font-size="10.00">Point.getEmbeddedAP</text>
</a>
</g>
</g>
<!-- Node1&#45;&gt;Node6 -->
<g id="edge6" class="edge">
<title>Node1&#45;&gt;Node6</title>
<path fill="none" stroke="midnightblue" d="M104.8,-140.63C125.94,-150.15 154.97,-161.54 182,-166.5 248.01,-178.61 268.31,-184.35 333,-166.5 362.33,-158.41 391.73,-139.78 412.01,-124.86"/>
<polygon fill="midnightblue" stroke="midnightblue" points="414.25,-127.56 420.12,-118.74 410.03,-121.97 414.25,-127.56"/>
</g>
<!-- Node7 -->
<g id="node7" class="node">
<title>Node7</title>
<g id="a_node7"><a xlink:href="classdenoptim_1_1graph_1_1_edge.html#a658e275a18a50f12474777f5f28c35e9" target="_top" xlink:title=" ">
<polygon fill="white" stroke="black" points="182,-138 182,-157 333,-157 333,-138 182,-138"/>
<text text-anchor="middle" x="257.5" y="-145" font-family="Helvetica,sans-Serif" font-size="10.00">denoptim.graph.Edge.getSrcAP</text>
</a>
</g>
</g>
<!-- Node1&#45;&gt;Node7 -->
<g id="edge8" class="edge">
<title>Node1&#45;&gt;Node7</title>
<path fill="none" stroke="midnightblue" d="M146.13,-134.19C154.58,-135.21 163.26,-136.26 171.86,-137.3"/>
<polygon fill="midnightblue" stroke="midnightblue" points="171.55,-140.79 181.9,-138.51 172.39,-133.84 171.55,-140.79"/>
</g>
<!-- Node8 -->
<g id="node8" class="node">
<title>Node8</title>
<g id="a_node8"><a xlink:href="classdenoptim_1_1graph_1_1_edge.html#a20a0c78541321532267b2fda0a6b634b" target="_top" xlink:title=" ">
<polygon fill="white" stroke="black" points="189,-88.5 189,-118.5 326,-118.5 326,-88.5 189,-88.5"/>
<text text-anchor="start" x="197" y="-106.5" font-family="Helvetica,sans-Serif" font-size="10.00">denoptim.graph.Edge.getSrc</text>
<text text-anchor="middle" x="257.5" y="-95.5" font-family="Helvetica,sans-Serif" font-size="10.00">APThroughout</text>
</a>
</g>
</g>
<!-- Node1&#45;&gt;Node8 -->
<g id="edge9" class="edge">
<title>Node1&#45;&gt;Node8</title>
<path fill="none" stroke="midnightblue" d="M146.13,-116.81C156.77,-115.52 167.78,-114.19 178.54,-112.9"/>
<polygon fill="midnightblue" stroke="midnightblue" points="179.25,-116.34 188.76,-111.67 178.41,-109.39 179.25,-116.34"/>
</g>
<!-- Node9 -->
<g id="node9" class="node">
<title>Node9</title>
<g id="a_node9"><a xlink:href="classdenoptim_1_1graph_1_1_edge.html#a44521a3ad1a83e5d0a6be227e35ceffa" target="_top" xlink:title=" ">
<polygon fill="white" stroke="black" points="182.5,-50 182.5,-69 332.5,-69 332.5,-50 182.5,-50"/>
<text text-anchor="middle" x="257.5" y="-57" font-family="Helvetica,sans-Serif" font-size="10.00">denoptim.graph.Edge.getTrgAP</text>
</a>
</g>
</g>
<!-- Node1&#45;&gt;Node9 -->
<g id="edge11" class="edge">
<title>Node1&#45;&gt;Node9</title>
<path fill="none" stroke="midnightblue" d="M106.15,-110.4C127.38,-100.78 155.99,-88.48 182,-79.5 190.01,-76.74 198.6,-74.12 207.01,-71.74"/>
<polygon fill="midnightblue" stroke="midnightblue" points="208.03,-75.09 216.75,-69.07 206.18,-68.34 208.03,-75.09"/>
</g>
<!-- Node10 -->
<g id="node10" class="node">
<title>Node10</title>
<g id="a_node10"><a xlink:href="classdenoptim_1_1graph_1_1_edge.html#ae5c20718860e84083e008b5bef44e1ae" target="_top" xlink:title=" ">
<polygon fill="white" stroke="black" points="189,-0.5 189,-30.5 326,-30.5 326,-0.5 189,-0.5"/>
<text text-anchor="start" x="197" y="-18.5" font-family="Helvetica,sans-Serif" font-size="10.00">denoptim.graph.Edge.getTrg</text>
<text text-anchor="middle" x="257.5" y="-7.5" font-family="Helvetica,sans-Serif" font-size="10.00">APThroughout</text>
</a>
</g>
</g>
<!-- Node1&#45;&gt;Node10 -->
<g id="edge12" class="edge">
<title>Node1&#45;&gt;Node10</title>
<path fill="none" stroke="midnightblue" d="M89.59,-110.35C109.55,-91.67 145.89,-60.01 182,-40.5 185.96,-38.36 190.13,-36.36 194.39,-34.5"/>
<polygon fill="midnightblue" stroke="midnightblue" points="195.91,-37.66 203.84,-30.63 193.26,-31.18 195.91,-37.66"/>
</g>
<!-- Node2&#45;&gt;Node2 -->
<g id="edge2" class="edge">
<title>Node2&#45;&gt;Node2</title>
<path fill="none" stroke="midnightblue" d="M225.78,-244.66C218.13,-254.06 228.71,-263 257.5,-263 275.05,-263 285.83,-259.68 289.84,-254.96"/>
<polygon fill="midnightblue" stroke="midnightblue" points="293.31,-254.43 289.22,-244.66 286.33,-254.85 293.31,-254.43"/>
</g>
<!-- Node3 -->
<g id="node3" class="node">
<title>Node3</title>
<g id="a_node3"><a xlink:href="classdenoptim_1_1graph_1_1_vertex.html#a6615f1c869173b8bd6d730c6683b9de4" target="_top" xlink:title="Returns the graph this vertex belongs to or null.">
<polygon fill="white" stroke="black" points="375.5,-238.5 375.5,-268.5 503.5,-268.5 503.5,-238.5 375.5,-238.5"/>
<text text-anchor="start" x="383.5" y="-256.5" font-family="Helvetica,sans-Serif" font-size="10.00">denoptim.graph.Vertex.get</text>
<text text-anchor="middle" x="439.5" y="-245.5" font-family="Helvetica,sans-Serif" font-size="10.00">GraphOwner</text>
</a>
</g>
</g>
<!-- Node2&#45;&gt;Node3 -->
<g id="edge3" class="edge">
<title>Node2&#45;&gt;Node3</title>
<path fill="none" stroke="midnightblue" d="M330.68,-239.12C342.1,-240.65 353.92,-242.22 365.36,-243.75"/>
<polygon fill="midnightblue" stroke="midnightblue" points="364.93,-247.22 375.31,-245.07 365.86,-240.28 364.93,-247.22"/>
</g>
<!-- Node4 -->
<g id="node4" class="node">
<title>Node4</title>
<g id="a_node4"><a xlink:href="classdenoptim_1_1graph_1_1_template.html#aca9a03a1d6e2fd5de8f859f18996ec62" target="_top" xlink:title=" ">
<polygon fill="white" stroke="black" points="369,-189.5 369,-219.5 510,-219.5 510,-189.5 369,-189.5"/>
<text text-anchor="start" x="377" y="-207.5" font-family="Helvetica,sans-Serif" font-size="10.00">denoptim.graph.Template.get</text>
<text text-anchor="middle" x="439.5" y="-196.5" font-family="Helvetica,sans-Serif" font-size="10.00">OuterAPFromInnerAP</text>
</a>
</g>
</g>
<!-- Node2&#45;&gt;Node4 -->
<g id="edge4" class="edge">
<title>Node2&#45;&gt;Node4</title>
<path fill="none" stroke="midnightblue" d="M330.68,-219.48C339.94,-218.19 349.47,-216.87 358.85,-215.56"/>
<polygon fill="midnightblue" stroke="midnightblue" points="359.52,-219 368.94,-214.16 358.56,-212.07 359.52,-219"/>
</g>
<!-- Node5 -->
<g id="node5" class="node">
<title>Node5</title>
<g id="a_node5"><a xlink:href="classdenoptim_1_1graph_1_1_a_p_tree_map.html#abb77efcfaa507592758e7fd4845bdd80" target="_top" xlink:title=" ">
<polygon fill="white" stroke="black" points="546,-195 546,-214 698,-214 698,-195 546,-195"/>
<text text-anchor="middle" x="622" y="-202" font-family="Helvetica,sans-Serif" font-size="10.00">denoptim.graph.APTreeMap.get</text>
</a>
</g>
</g>
<!-- Node4&#45;&gt;Node5 -->
<g id="edge5" class="edge">
<title>Node4&#45;&gt;Node5</title>
<path fill="none" stroke="midnightblue" d="M510.03,-204.5C518.45,-204.5 527.13,-204.5 535.74,-204.5"/>
<polygon fill="midnightblue" stroke="midnightblue" points="535.81,-208 545.81,-204.5 535.81,-201 535.81,-208"/>
</g>
<!-- Node6&#45;&gt;Node6 -->
<g id="edge7" class="edge">
<title>Node6&#45;&gt;Node6</title>
<path fill="none" stroke="midnightblue" d="M407.78,-118.66C400.13,-128.06 410.71,-137 439.5,-137 457.05,-137 467.83,-133.68 471.84,-128.96"/>
<polygon fill="midnightblue" stroke="midnightblue" points="475.31,-128.43 471.22,-118.66 468.33,-128.85 475.31,-128.43"/>
</g>
<!-- Node8&#45;&gt;Node6 -->
<g id="edge10" class="edge">
<title>Node8&#45;&gt;Node6</title>
<path fill="none" stroke="midnightblue" d="M326.04,-103.5C337.61,-103.5 349.71,-103.5 361.51,-103.5"/>
<polygon fill="midnightblue" stroke="midnightblue" points="361.78,-107 371.78,-103.5 361.78,-100 361.78,-107"/>
</g>
<!-- Node10&#45;&gt;Node6 -->
<g id="edge13" class="edge">
<title>Node10&#45;&gt;Node6</title>
<path fill="none" stroke="midnightblue" d="M308.37,-30.58C316.71,-33.57 325.19,-36.91 333,-40.5 359.17,-52.53 387.08,-69.4 407.62,-82.65"/>
<polygon fill="midnightblue" stroke="midnightblue" points="405.93,-85.73 416.22,-88.27 409.76,-79.87 405.93,-85.73"/>
</g>
</g>
</svg>
        <g id="navigator" transform="translate(0 0)" fill="#404254">
                <rect fill="#f2f5e9" fill-opacity="0.5" stroke="#606060" stroke-width=".5" x="0" y="0" width="60" height="60"/>
                <use id="zoomplus" xlink:href="#zoomPlus" x="17" y="9" onmousedown="handleZoom(evt,'in')"/>
                <use id="zoomminus" xlink:href="#zoomMin" x="42" y="9" onmousedown="handleZoom(evt,'out')"/>
                <use id="reset" xlink:href="#resetDef" x="30" y="36" onmousedown="handleReset()"/>
                <g id="arrowUp" xlink:href="#dirArrow" transform="translate(30 24)" onmousedown="handlePan(0,-1)">
                  <use xlink:href="#rim" fill="#404040">
                        <set attributeName="fill" to="#808080" begin="arrowUp.mouseover" end="arrowUp.mouseout"/>
                  </use>
                  <path fill="none" stroke="white" stroke-width="1.5" d="M0,-3.0v7 M-2.5,-0.5L0,-3.0L2.5,-0.5"/>
                </g>
                <g id="arrowRight" xlink:href="#dirArrow" transform="rotate(90) translate(36 -43)" onmousedown="handlePan(1,0)">
                  <use xlink:href="#rim" fill="#404040">
                        <set attributeName="fill" to="#808080" begin="arrowRight.mouseover" end="arrowRight.mouseout"/>
                  </use>
                  <path fill="none" stroke="white" stroke-width="1.5" d="M0,-3.0v7 M-2.5,-0.5L0,-3.0L2.5,-0.5"/>
                </g>
                <g id="arrowDown" xlink:href="#dirArrow" transform="rotate(180) translate(-30 -48)" onmousedown="handlePan(0,1)">
                  <use xlink:href="#rim" fill="#404040">
                        <set attributeName="fill" to="#808080" begin="arrowDown.mouseover" end="arrowDown.mouseout"/>
                  </use>
                  <path fill="none" stroke="white" stroke-width="1.5" d="M0,-3.0v7 M-2.5,-0.5L0,-3.0L2.5,-0.5"/>
                </g>
                <g id="arrowLeft" xlink:href="#dirArrow" transform="rotate(270) translate(-36 17)" onmousedown="handlePan(-1,0)">
                  <use xlink:href="#rim" fill="#404040">
                        <set attributeName="fill" to="#808080" begin="arrowLeft.mouseover" end="arrowLeft.mouseout"/>
                  </use>
                  <path fill="none" stroke="white" stroke-width="1.5" d="M0,-3.0v7 M-2.5,-0.5L0,-3.0L2.5,-0.5"/>
                </g>
        </g>
        <svg viewBox="0 0 15 15" width="100%" height="30px" preserveAspectRatio="xMaxYMin meet">
         <g id="arrow_out" transform="scale(0.3 0.3)">
          <a xlink:href="classdenoptim_1_1graph_1_1_attachment_point_adfc2840f3e5126d847c8d800082f8958_cgraph_org.svg" target="_base">
           <rect id="button" ry="5" rx="5" y="6" x="6" height="38" width="38"
                fill="#f2f5e9" fill-opacity="0.5" stroke="#606060" stroke-width="1.0"/>
           <path id="arrow"
             d="M 11.500037,31.436501 C 11.940474,20.09759 22.043105,11.32322 32.158766,21.979434 L 37.068811,17.246167 C 37.068811,17.246167 37.088388,32 37.088388,32 L 22.160133,31.978069 C 22.160133,31.978069 26.997745,27.140456 26.997745,27.140456 C 18.528582,18.264221 13.291696,25.230495 11.500037,31.436501 z"
             style="fill:#404040;"/>
          </a>
         </g>
        </svg>
</svg>
