<?xml version="1.0" encoding="UTF-8" standalone="no"?>
<!DOCTYPE svg PUBLIC "-//W3C//DTD SVG 1.1//EN"
 "http://www.w3.org/Graphics/SVG/1.1/DTD/svg11.dtd">
<!-- Generated by graphviz version 3.0.0 (20221109.1736)
 -->
<!-- Title: denoptim.graph.Fragment.toJson Pages: 1 -->
<svg width="602pt" height="186pt"
 viewBox="0.00 0.00 602.00 186.00" xmlns="http://www.w3.org/2000/svg" xmlns:xlink="http://www.w3.org/1999/xlink">
<g id="graph0" class="graph" transform="scale(1 1) rotate(0) translate(4 182)">
<title>denoptim.graph.Fragment.toJson</title>
<polygon fill="white" stroke="transparent" points="-4,4 -4,-182 598,-182 598,4 -4,4"/>
<!-- Node1 -->
<g id="node1" class="node">
<title>Node1</title>
<g id="a_node1"><a xlink:title="Produces a string that represents this vertex and that adheres to the JSON format.">
<polygon fill="#bfbfbf" stroke="black" points="436,-104 436,-123 594,-123 594,-104 436,-104"/>
<text text-anchor="middle" x="515" y="-111" font-family="Helvetica,sans-Serif" font-size="10.00">denoptim.graph.Fragment.toJson</text>
</a>
</g>
</g>
<!-- Node2 -->
<g id="node2" class="node">
<title>Node2</title>
<g id="a_node2"><a xlink:href="classdenoptim_1_1graph_1_1_fragment_isomorphism_inspector.html#adda9ae414e7bcde531d4c7914539791b" target="_top" xlink:title=" ">
<polygon fill="white" stroke="black" points="218,-147.5 218,-177.5 400,-177.5 400,-147.5 218,-147.5"/>
<text text-anchor="start" x="226" y="-165.5" font-family="Helvetica,sans-Serif" font-size="10.00">denoptim.graph.FragmentIsomorphism</text>
<text text-anchor="middle" x="309" y="-154.5" font-family="Helvetica,sans-Serif" font-size="10.00">Inspector.getMappings</text>
</a>
</g>
</g>
<!-- Node1&#45;&gt;Node2 -->
<g id="edge1" class="edge">
<title>Node1&#45;&gt;Node2</title>
<path fill="none" stroke="midnightblue" d="M464.35,-125.43C436.72,-132.06 402.07,-140.39 372.6,-147.46"/>
<polygon fill="midnightblue" stroke="midnightblue" points="465.28,-128.8 474.18,-123.06 463.64,-122 465.28,-128.8"/>
</g>
<!-- Node4 -->
<g id="node4" class="node">
<title>Node4</title>
<g id="a_node4"><a xlink:href="classdenoptim_1_1graph_1_1_fragment_isomorphism_inspector.html#a7170efe46e1730c48fe2dbf1d5a0aefc" target="_top" xlink:title="Checks if an isomorphism exists between the two fragments.">
<polygon fill="white" stroke="black" points="218,-98.5 218,-128.5 400,-128.5 400,-98.5 218,-98.5"/>
<text text-anchor="start" x="226" y="-116.5" font-family="Helvetica,sans-Serif" font-size="10.00">denoptim.graph.FragmentIsomorphism</text>
<text text-anchor="middle" x="309" y="-105.5" font-family="Helvetica,sans-Serif" font-size="10.00">Inspector.isomorphismExists</text>
</a>
</g>
</g>
<!-- Node1&#45;&gt;Node4 -->
<g id="edge3" class="edge">
<title>Node1&#45;&gt;Node4</title>
<path fill="none" stroke="midnightblue" d="M425.58,-113.5C417.22,-113.5 408.72,-113.5 400.34,-113.5"/>
<polygon fill="midnightblue" stroke="midnightblue" points="425.71,-117 435.71,-113.5 425.71,-110 425.71,-117"/>
</g>
<!-- Node8 -->
<g id="node8" class="node">
<title>Node8</title>
<g id="a_node8"><a xlink:href="classdenoptim_1_1graph_1_1_vertex_test.html#a903343147e9c65e098a01e6210426817" target="_top" xlink:title=" ">
<polygon fill="white" stroke="black" points="233.5,-49.5 233.5,-79.5 384.5,-79.5 384.5,-49.5 233.5,-49.5"/>
<text text-anchor="start" x="241.5" y="-67.5" font-family="Helvetica,sans-Serif" font-size="10.00">denoptim.graph.VertexTest.test</text>
<text text-anchor="middle" x="309" y="-56.5" font-family="Helvetica,sans-Serif" font-size="10.00">FromToJSON_minimal</text>
</a>
</g>
</g>
<!-- Node1&#45;&gt;Node8 -->
<g id="edge8" class="edge">
<title>Node1&#45;&gt;Node8</title>
<path fill="none" stroke="midnightblue" d="M464.35,-101.57C436.72,-94.94 402.07,-86.61 372.6,-79.54"/>
<polygon fill="midnightblue" stroke="midnightblue" points="463.64,-105 474.18,-103.94 465.28,-98.2 463.64,-105"/>
</g>
<!-- Node3 -->
<g id="node3" class="node">
<title>Node3</title>
<g id="a_node3"><a xlink:href="classdenoptim_1_1fragmenter_1_1_fragment_alignement.html#a544426b853510be7f33a7b794b225b04" target="_top" xlink:title="Constructor for an alignment of two fragments.">
<polygon fill="white" stroke="black" points="12,-147.5 12,-177.5 170,-177.5 170,-147.5 12,-147.5"/>
<text text-anchor="start" x="20" y="-165.5" font-family="Helvetica,sans-Serif" font-size="10.00">denoptim.fragmenter.Fragment</text>
<text text-anchor="middle" x="91" y="-154.5" font-family="Helvetica,sans-Serif" font-size="10.00">Alignement.FragmentAlignement</text>
</a>
</g>
</g>
<!-- Node2&#45;&gt;Node3 -->
<g id="edge2" class="edge">
<title>Node2&#45;&gt;Node3</title>
<path fill="none" stroke="midnightblue" d="M207.87,-162.5C195.23,-162.5 182.44,-162.5 170.21,-162.5"/>
<polygon fill="midnightblue" stroke="midnightblue" points="207.96,-166 217.96,-162.5 207.96,-159 207.96,-166"/>
</g>
<!-- Node4&#45;&gt;Node3 -->
<g id="edge4" class="edge">
<title>Node4&#45;&gt;Node3</title>
<path fill="none" stroke="midnightblue" d="M231.92,-130.76C207.86,-136.22 181.46,-142.21 158.15,-147.49"/>
<polygon fill="midnightblue" stroke="midnightblue" points="232.75,-134.16 241.72,-128.53 231.2,-127.33 232.75,-134.16"/>
</g>
<!-- Node5 -->
<g id="node5" class="node">
<title>Node5</title>
<g id="a_node5"><a xlink:href="classdenoptim_1_1graph_1_1_fragment.html#a58818a8ad99db167934420283484a5f7" target="_top" xlink:title="Checks for isomorphism of the graph representation of this and another fragment.">
<polygon fill="white" stroke="black" points="23,-98.5 23,-128.5 159,-128.5 159,-98.5 23,-98.5"/>
<text text-anchor="start" x="31" y="-116.5" font-family="Helvetica,sans-Serif" font-size="10.00">denoptim.graph.Fragment.is</text>
<text text-anchor="middle" x="91" y="-105.5" font-family="Helvetica,sans-Serif" font-size="10.00">IsomorphicTo</text>
</a>
</g>
</g>
<!-- Node4&#45;&gt;Node5 -->
<g id="edge5" class="edge">
<title>Node4&#45;&gt;Node5</title>
<path fill="none" stroke="midnightblue" d="M207.75,-113.5C191.29,-113.5 174.59,-113.5 159.18,-113.5"/>
<polygon fill="midnightblue" stroke="midnightblue" points="207.96,-117 217.96,-113.5 207.96,-110 207.96,-117"/>
</g>
<!-- Node6 -->
<g id="node6" class="node">
<title>Node6</title>
<g id="a_node6"><a xlink:href="classdenoptim_1_1graph_1_1_fragment_isomorphism_inspector_test.html#ac33b26784f254c873593368ccd717125" target="_top" xlink:title=" ">
<polygon fill="white" stroke="black" points="0,-49.5 0,-79.5 182,-79.5 182,-49.5 0,-49.5"/>
<text text-anchor="start" x="8" y="-67.5" font-family="Helvetica,sans-Serif" font-size="10.00">denoptim.graph.FragmentIsomorphism</text>
<text text-anchor="middle" x="91" y="-56.5" font-family="Helvetica,sans-Serif" font-size="10.00">InspectorTest.testIsomorphismExists</text>
</a>
</g>
</g>
<!-- Node4&#45;&gt;Node6 -->
<g id="edge6" class="edge">
<title>Node4&#45;&gt;Node6</title>
<path fill="none" stroke="midnightblue" d="M231.92,-96.24C207.86,-90.78 181.46,-84.79 158.15,-79.51"/>
<polygon fill="midnightblue" stroke="midnightblue" points="231.2,-99.67 241.72,-98.47 232.75,-92.84 231.2,-99.67"/>
</g>
<!-- Node7 -->
<g id="node7" class="node">
<title>Node7</title>
<g id="a_node7"><a xlink:href="classdenoptim_1_1graph_1_1_fragment_isomorphism_inspector_test.html#a06e7f03c86471b6a5b06ffcb5358d0cf" target="_top" xlink:title=" ">
<polygon fill="white" stroke="black" points="0,-0.5 0,-30.5 182,-30.5 182,-0.5 0,-0.5"/>
<text text-anchor="start" x="8" y="-18.5" font-family="Helvetica,sans-Serif" font-size="10.00">denoptim.graph.FragmentIsomorphism</text>
<text text-anchor="middle" x="91" y="-7.5" font-family="Helvetica,sans-Serif" font-size="10.00">InspectorTest.testTimeout</text>
</a>
</g>
</g>
<!-- Node4&#45;&gt;Node7 -->
<g id="edge7" class="edge">
<title>Node4&#45;&gt;Node7</title>
<path fill="none" stroke="midnightblue" d="M225.43,-94.05C222.86,-92.64 220.38,-91.12 218,-89.5 195.68,-74.27 204.24,-55.85 182,-40.5 176.39,-36.63 170.21,-33.36 163.78,-30.59"/>
<polygon fill="midnightblue" stroke="midnightblue" points="223.88,-97.19 234.4,-98.47 226.97,-90.91 223.88,-97.19"/>
</g>
</g>
</svg>
