<?xml version="1.0" encoding="UTF-8" standalone="no"?>
<!DOCTYPE svg PUBLIC "-//W3C//DTD SVG 1.1//EN"
 "http://www.w3.org/Graphics/SVG/1.1/DTD/svg11.dtd">
<!-- Generated by graphviz version 3.0.0 (20221109.1736)
 -->
<!-- Title: denoptim.graph.rings.RingClosureParameters.getMaxRingSize Pages: 1 -->
<!--zoomable 323 -->
<svg id="main" version="1.1" xmlns="http://www.w3.org/2000/svg" xmlns:xlink="http://www.w3.org/1999/xlink" xml:space="preserve" onload="init(evt)">
<style type="text/css"><![CDATA[
.edge:hover path { stroke: red; }
.edge:hover polygon { stroke: red; fill: red; }
]]></style>
<script type="text/javascript"><![CDATA[
var edges = document.getElementsByTagName('g');
if (edges && edges.length) {
  for (var i=0;i<edges.length;i++) {
    if (edges[i].id.substr(0,4)=='edge') {
      edges[i].setAttribute('class','edge');
    }
  }
}
]]></script>
        <defs>
                <circle id="rim" cx="0" cy="0" r="7"/>
                <circle id="rim2" cx="0" cy="0" r="3.5"/>
                <g id="zoomPlus">
                        <use xlink:href="#rim" fill="#404040">
                                <set attributeName="fill" to="#808080" begin="zoomplus.mouseover" end="zoomplus.mouseout"/>
                        </use>
                        <path d="M-4,0h8M0,-4v8" fill="none" stroke="white" stroke-width="1.5" pointer-events="none"/>
                </g>
                <g id="zoomMin">
                        <use xlink:href="#rim" fill="#404040">
                                <set attributeName="fill" to="#808080" begin="zoomminus.mouseover" end="zoomminus.mouseout"/>
                        </use>
                        <path d="M-4,0h8" fill="none" stroke="white" stroke-width="1.5" pointer-events="none"/>
                </g>
                <g id="dirArrow">
                        <path fill="none" stroke="white" stroke-width="1.5" d="M0,-3.0v7 M-2.5,-0.5L0,-3.0L2.5,-0.5"/>
                </g>
               <g id="resetDef">
                       <use xlink:href="#rim2" fill="#404040">
                               <set attributeName="fill" to="#808080" begin="reset.mouseover" end="reset.mouseout"/>
                       </use>
               </g>
        </defs>

<script type="text/javascript">
var viewWidth = 2136;
var viewHeight = 323;
var sectionId = 'dynsection-13';
</script>
<script xlink:href="svgpan.js"/>
<svg id="graph" class="graph">
<g id="viewport">
<title>denoptim.graph.rings.RingClosureParameters.getMaxRingSize</title>
<polygon fill="white" stroke="transparent" points="-4,4 -4,-319 2132,-319 2132,4 -4,4"/>
<!-- Node1 -->
<g id="node1" class="node">
<title>Node1</title>
<g id="a_node1"><a xlink:title=" ">
<polygon fill="#bfbfbf" stroke="black" points="1956,-44.5 1956,-74.5 2128,-74.5 2128,-44.5 1956,-44.5"/>
<text text-anchor="start" x="1964" y="-62.5" font-family="Helvetica,sans-Serif" font-size="10.00">denoptim.graph.rings.Ring</text>
<text text-anchor="middle" x="2042" y="-51.5" font-family="Helvetica,sans-Serif" font-size="10.00">ClosureParameters.getMaxRingSize</text>
</a>
</g>
</g>
<!-- Node2 -->
<g id="node2" class="node">
<title>Node2</title>
<g id="a_node2"><a xlink:href="classdenoptim_1_1graph_1_1rings_1_1_ring_size_manager.html#af6100504547bbc59d54692ed355ca5d8" target="_top" xlink:title=" ">
<polygon fill="white" stroke="black" points="1731,-140 1731,-181 1901,-181 1901,-140 1731,-140"/>
<text text-anchor="start" x="1739" y="-169" font-family="Helvetica,sans-Serif" font-size="10.00">denoptim.graph.rings.Ring</text>
<text text-anchor="start" x="1739" y="-158" font-family="Helvetica,sans-Serif" font-size="10.00">SizeManager.calculateCompatibility</text>
<text text-anchor="middle" x="1816" y="-147" font-family="Helvetica,sans-Serif" font-size="10.00">OfAllRCAPairs</text>
</a>
</g>
</g>
<!-- Node1&#45;&gt;Node2 -->
<g id="edge1" class="edge">
<title>Node1&#45;&gt;Node2</title>
<path fill="none" stroke="midnightblue" d="M1998.02,-78.88C1959.26,-96.35 1902.43,-121.98 1862.82,-139.84"/>
<polygon fill="midnightblue" stroke="midnightblue" points="1999.79,-81.92 2007.46,-74.62 1996.91,-75.54 1999.79,-81.92"/>
</g>
<!-- Node7 -->
<g id="node7" class="node">
<title>Node7</title>
<g id="a_node7"><a xlink:href="classdenoptim_1_1ga_1_1_graph_operations_test.html#af86b79061d15a4d2e3d7ccdf0d758f44" target="_top" xlink:title=" ">
<polygon fill="white" stroke="black" points="872.5,-44.5 872.5,-74.5 1017.5,-74.5 1017.5,-44.5 872.5,-44.5"/>
<text text-anchor="start" x="880.5" y="-62.5" font-family="Helvetica,sans-Serif" font-size="10.00">denoptim.ga.GraphOperations</text>
<text text-anchor="middle" x="945" y="-51.5" font-family="Helvetica,sans-Serif" font-size="10.00">Test.testAddRing</text>
</a>
</g>
</g>
<!-- Node1&#45;&gt;Node7 -->
<g id="edge32" class="edge">
<title>Node1&#45;&gt;Node7</title>
<path fill="none" stroke="midnightblue" d="M1945.59,-59.5C1855.19,-59.5 1715.6,-59.5 1594.5,-59.5 1594.5,-59.5 1594.5,-59.5 1381,-59.5 1252.99,-59.5 1103.8,-59.5 1017.59,-59.5"/>
<polygon fill="midnightblue" stroke="midnightblue" points="1945.82,-63 1955.82,-59.5 1945.82,-56 1945.82,-63"/>
</g>
<!-- Node26 -->
<g id="node26" class="node">
<title>Node26</title>
<g id="a_node26"><a xlink:href="classdenoptim_1_1graph_1_1rings_1_1_ring_size_manager.html#af7aecc4bb2da8acb30dcfa3b5cf9f23f" target="_top" xlink:title=" ">
<polygon fill="white" stroke="black" points="1712,-0.5 1712,-30.5 1920,-30.5 1920,-0.5 1712,-0.5"/>
<text text-anchor="start" x="1720" y="-18.5" font-family="Helvetica,sans-Serif" font-size="10.00">denoptim.graph.rings.Ring</text>
<text text-anchor="middle" x="1816" y="-7.5" font-family="Helvetica,sans-Serif" font-size="10.00">SizeManager.getRSBiasedListOfCandidates</text>
</a>
</g>
</g>
<!-- Node1&#45;&gt;Node26 -->
<g id="edge31" class="edge">
<title>Node1&#45;&gt;Node26</title>
<path fill="none" stroke="midnightblue" d="M1954.47,-42.5C1934.37,-38.56 1913.12,-34.38 1893.5,-30.53"/>
<polygon fill="midnightblue" stroke="midnightblue" points="1954.05,-45.99 1964.54,-44.48 1955.4,-39.12 1954.05,-45.99"/>
</g>
<!-- Node3 -->
<g id="node3" class="node">
<title>Node3</title>
<g id="a_node3"><a xlink:href="classdenoptim_1_1graph_1_1rings_1_1_ring_size_manager.html#a547c0ffdb4a260f249040aba0a941b6b" target="_top" xlink:title=" ">
<polygon fill="white" stroke="black" points="1511,-145.5 1511,-175.5 1676,-175.5 1676,-145.5 1511,-145.5"/>
<text text-anchor="start" x="1519" y="-163.5" font-family="Helvetica,sans-Serif" font-size="10.00">denoptim.graph.rings.Ring</text>
<text text-anchor="middle" x="1593.5" y="-152.5" font-family="Helvetica,sans-Serif" font-size="10.00">SizeManager.addRingClosingBond</text>
</a>
</g>
</g>
<!-- Node2&#45;&gt;Node3 -->
<g id="edge2" class="edge">
<title>Node2&#45;&gt;Node3</title>
<path fill="none" stroke="midnightblue" d="M1720.55,-160.5C1705.8,-160.5 1690.65,-160.5 1676.21,-160.5"/>
<polygon fill="midnightblue" stroke="midnightblue" points="1720.69,-164 1730.69,-160.5 1720.69,-157 1720.69,-164"/>
</g>
<!-- Node21 -->
<g id="node21" class="node">
<title>Node21</title>
<g id="a_node21"><a xlink:href="classdenoptim_1_1graph_1_1rings_1_1_ring_size_manager.html#a88079843bc382135c60bd1649cc84254" target="_top" xlink:title="Makes this ring size manager work on a specific system that has a molecular representation and a DENO...">
<polygon fill="white" stroke="black" points="1529.5,-210.5 1529.5,-240.5 1657.5,-240.5 1657.5,-210.5 1529.5,-210.5"/>
<text text-anchor="start" x="1537.5" y="-228.5" font-family="Helvetica,sans-Serif" font-size="10.00">denoptim.graph.rings.Ring</text>
<text text-anchor="middle" x="1593.5" y="-217.5" font-family="Helvetica,sans-Serif" font-size="10.00">SizeManager.initialize</text>
</a>
</g>
</g>
<!-- Node2&#45;&gt;Node21 -->
<g id="edge24" class="edge">
<title>Node2&#45;&gt;Node21</title>
<path fill="none" stroke="midnightblue" d="M1735.63,-183.9C1705.65,-192.73 1672.36,-202.55 1645.64,-210.42"/>
<polygon fill="midnightblue" stroke="midnightblue" points="1736.63,-187.25 1745.23,-181.07 1734.65,-180.54 1736.63,-187.25"/>
</g>
<!-- Node4 -->
<g id="node4" class="node">
<title>Node4</title>
<g id="a_node4"><a xlink:href="classdenoptim_1_1graph_1_1rings_1_1_random_comb_of_rings_iterator.html#a19576eb954cf002962af02f60a24c57e" target="_top" xlink:title=" ">
<polygon fill="white" stroke="black" points="1310,-145.5 1310,-175.5 1454,-175.5 1454,-145.5 1310,-145.5"/>
<text text-anchor="start" x="1318" y="-163.5" font-family="Helvetica,sans-Serif" font-size="10.00">denoptim.graph.rings.Random</text>
<text text-anchor="middle" x="1382" y="-152.5" font-family="Helvetica,sans-Serif" font-size="10.00">CombOfRingsIterator.next</text>
</a>
</g>
</g>
<!-- Node3&#45;&gt;Node4 -->
<g id="edge3" class="edge">
<title>Node3&#45;&gt;Node4</title>
<path fill="none" stroke="midnightblue" d="M1500.72,-160.5C1485.12,-160.5 1469.13,-160.5 1454.16,-160.5"/>
<polygon fill="midnightblue" stroke="midnightblue" points="1500.9,-164 1510.9,-160.5 1500.9,-157 1500.9,-164"/>
</g>
<!-- Node5 -->
<g id="node5" class="node">
<title>Node5</title>
<g id="a_node5"><a xlink:href="classdenoptim_1_1ga_1_1_graph_operations.html#add74b865c897144437bf30e3734edf01" target="_top" xlink:title="Tries to use any free AP of the given vertex to close ring in the graph by adding a chord.">
<polygon fill="white" stroke="black" points="1071,-88 1071,-107 1253,-107 1253,-88 1071,-88"/>
<text text-anchor="middle" x="1162" y="-95" font-family="Helvetica,sans-Serif" font-size="10.00">denoptim.ga.GraphOperations.addRing</text>
</a>
</g>
</g>
<!-- Node4&#45;&gt;Node5 -->
<g id="edge4" class="edge">
<title>Node4&#45;&gt;Node5</title>
<path fill="none" stroke="midnightblue" d="M1331.88,-142.03C1308.24,-133.55 1279.38,-123.79 1253,-116.5 1240.38,-113.01 1226.61,-109.81 1213.72,-107.07"/>
<polygon fill="midnightblue" stroke="midnightblue" points="1330.73,-145.34 1341.33,-145.45 1333.12,-138.75 1330.73,-145.34"/>
</g>
<!-- Node8 -->
<g id="node8" class="node">
<title>Node8</title>
<g id="a_node8"><a xlink:href="classdenoptim_1_1graph_1_1rings_1_1_cyclic_graph_handler.html#a08b02946eaac7c2cbbe6e71332d702e6" target="_top" xlink:title="Identifies a random combination of ring closing paths and returns it as list of DENOPTIMRings ready t...">
<polygon fill="white" stroke="black" points="1071,-186 1071,-227 1253,-227 1253,-186 1071,-186"/>
<text text-anchor="start" x="1079" y="-215" font-family="Helvetica,sans-Serif" font-size="10.00">denoptim.graph.rings.Cyclic</text>
<text text-anchor="start" x="1079" y="-204" font-family="Helvetica,sans-Serif" font-size="10.00">GraphHandler.getRandomCombination</text>
<text text-anchor="middle" x="1162" y="-193" font-family="Helvetica,sans-Serif" font-size="10.00">OfRings</text>
</a>
</g>
</g>
<!-- Node4&#45;&gt;Node8 -->
<g id="edge7" class="edge">
<title>Node4&#45;&gt;Node8</title>
<path fill="none" stroke="midnightblue" d="M1300,-177.59C1284.71,-180.82 1268.63,-184.21 1253.08,-187.49"/>
<polygon fill="midnightblue" stroke="midnightblue" points="1300.86,-180.99 1309.92,-175.5 1299.41,-174.14 1300.86,-180.99"/>
</g>
<!-- Node20 -->
<g id="node20" class="node">
<title>Node20</title>
<g id="a_node20"><a xlink:href="classdenoptim_1_1graph_1_1rings_1_1_random_comb_of_ring_iterator_test.html#a4a178f479d08c120f5fea6ef60feac8b" target="_top" xlink:title=" ">
<polygon fill="white" stroke="black" points="1072.5,-126 1072.5,-167 1251.5,-167 1251.5,-126 1072.5,-126"/>
<text text-anchor="start" x="1080.5" y="-155" font-family="Helvetica,sans-Serif" font-size="10.00">denoptim.graph.rings.Random</text>
<text text-anchor="start" x="1080.5" y="-144" font-family="Helvetica,sans-Serif" font-size="10.00">CombOfRingIteratorTest.testEvaluate</text>
<text text-anchor="middle" x="1162" y="-133" font-family="Helvetica,sans-Serif" font-size="10.00">ConstitutionalClosability</text>
</a>
</g>
</g>
<!-- Node4&#45;&gt;Node20 -->
<g id="edge23" class="edge">
<title>Node4&#45;&gt;Node20</title>
<path fill="none" stroke="midnightblue" d="M1299.72,-155.28C1284.01,-154.27 1267.46,-153.21 1251.53,-152.19"/>
<polygon fill="midnightblue" stroke="midnightblue" points="1299.72,-158.79 1309.92,-155.94 1300.17,-151.8 1299.72,-158.79"/>
</g>
<!-- Node6 -->
<g id="node6" class="node">
<title>Node6</title>
<g id="a_node6"><a xlink:href="classdenoptim_1_1ga_1_1_graph_operations.html#a0c851972015fbb4b2a317b053b8b81d9" target="_top" xlink:title="Mutates the given vertex according to the given mutation type, if possible.">
<polygon fill="white" stroke="black" points="855,-93.5 855,-123.5 1035,-123.5 1035,-93.5 855,-93.5"/>
<text text-anchor="start" x="863" y="-111.5" font-family="Helvetica,sans-Serif" font-size="10.00">denoptim.ga.GraphOperations.perform</text>
<text text-anchor="middle" x="945" y="-100.5" font-family="Helvetica,sans-Serif" font-size="10.00">Mutation</text>
</a>
</g>
</g>
<!-- Node5&#45;&gt;Node6 -->
<g id="edge5" class="edge">
<title>Node5&#45;&gt;Node6</title>
<path fill="none" stroke="midnightblue" d="M1060.53,-102.64C1052.12,-103.07 1043.65,-103.5 1035.32,-103.93"/>
<polygon fill="midnightblue" stroke="midnightblue" points="1060.95,-106.12 1070.76,-102.12 1060.59,-99.13 1060.95,-106.12"/>
</g>
<!-- Node5&#45;&gt;Node7 -->
<g id="edge6" class="edge">
<title>Node5&#45;&gt;Node7</title>
<path fill="none" stroke="midnightblue" d="M1096.97,-86.18C1072.09,-81.79 1043.47,-76.73 1017.89,-72.21"/>
<polygon fill="midnightblue" stroke="midnightblue" points="1096.57,-89.67 1107.02,-87.96 1097.79,-82.77 1096.57,-89.67"/>
</g>
<!-- Node9 -->
<g id="node9" class="node">
<title>Node9</title>
<g id="a_node9"><a xlink:href="classdenoptim_1_1ga_1_1_e_a_utils.html#a1ddb932d4618434d435e4f85ce5e5eb5" target="_top" xlink:title="Evaluates the possibility of closing rings in a given graph and if any ring can be closed,...">
<polygon fill="white" stroke="black" points="879.5,-213.5 879.5,-243.5 1010.5,-243.5 1010.5,-213.5 879.5,-213.5"/>
<text text-anchor="start" x="887.5" y="-231.5" font-family="Helvetica,sans-Serif" font-size="10.00">denoptim.ga.EAUtils.setup</text>
<text text-anchor="middle" x="945" y="-220.5" font-family="Helvetica,sans-Serif" font-size="10.00">Rings</text>
</a>
</g>
</g>
<!-- Node8&#45;&gt;Node9 -->
<g id="edge8" class="edge">
<title>Node8&#45;&gt;Node9</title>
<path fill="none" stroke="midnightblue" d="M1060.75,-216.76C1043.68,-218.51 1026.36,-220.28 1010.53,-221.9"/>
<polygon fill="midnightblue" stroke="midnightblue" points="1061.16,-220.23 1070.76,-215.73 1060.45,-213.27 1061.16,-220.23"/>
</g>
<!-- Node10 -->
<g id="node10" class="node">
<title>Node10</title>
<g id="a_node10"><a xlink:href="classdenoptim_1_1ga_1_1_e_a_utils.html#a8122818f58919fce84dce75e7506025a" target="_top" xlink:title=" ">
<polygon fill="white" stroke="black" points="692,-262.5 692,-292.5 819,-292.5 819,-262.5 692,-262.5"/>
<text text-anchor="start" x="700" y="-280.5" font-family="Helvetica,sans-Serif" font-size="10.00">denoptim.ga.EAUtils.build</text>
<text text-anchor="middle" x="755.5" y="-269.5" font-family="Helvetica,sans-Serif" font-size="10.00">CandidateByMutation</text>
</a>
</g>
</g>
<!-- Node9&#45;&gt;Node10 -->
<g id="edge9" class="edge">
<title>Node9&#45;&gt;Node10</title>
<path fill="none" stroke="midnightblue" d="M876.57,-246.12C856.05,-251.48 833.71,-257.32 813.92,-262.49"/>
<polygon fill="midnightblue" stroke="midnightblue" points="877.68,-249.45 886.47,-243.53 875.91,-242.68 877.68,-249.45"/>
</g>
<!-- Node17 -->
<g id="node17" class="node">
<title>Node17</title>
<g id="a_node17"><a xlink:href="classdenoptim_1_1ga_1_1_e_a_utils.html#ad3d2daeb11e68a356e971ca1846596b5" target="_top" xlink:title=" ">
<polygon fill="white" stroke="black" points="692,-213.5 692,-243.5 819,-243.5 819,-213.5 692,-213.5"/>
<text text-anchor="start" x="700" y="-231.5" font-family="Helvetica,sans-Serif" font-size="10.00">denoptim.ga.EAUtils.build</text>
<text text-anchor="middle" x="755.5" y="-220.5" font-family="Helvetica,sans-Serif" font-size="10.00">CandidateFromScratch</text>
</a>
</g>
</g>
<!-- Node9&#45;&gt;Node17 -->
<g id="edge17" class="edge">
<title>Node9&#45;&gt;Node17</title>
<path fill="none" stroke="midnightblue" d="M869.28,-228.5C852.7,-228.5 835.29,-228.5 819.24,-228.5"/>
<polygon fill="midnightblue" stroke="midnightblue" points="869.47,-232 879.47,-228.5 869.47,-225 869.47,-232"/>
</g>
<!-- Node19 -->
<g id="node19" class="node">
<title>Node19</title>
<g id="a_node19"><a xlink:href="classdenoptim_1_1ga_1_1_e_a_utils.html#a0b958439d79fae30f14530213ad22e3a" target="_top" xlink:title="Generates up to a pair of new offspring by performing a crossover operation.">
<polygon fill="white" stroke="black" points="692,-164.5 692,-194.5 819,-194.5 819,-164.5 692,-164.5"/>
<text text-anchor="start" x="700" y="-182.5" font-family="Helvetica,sans-Serif" font-size="10.00">denoptim.ga.EAUtils.build</text>
<text text-anchor="middle" x="755.5" y="-171.5" font-family="Helvetica,sans-Serif" font-size="10.00">CandidatesByXOver</text>
</a>
</g>
</g>
<!-- Node9&#45;&gt;Node19 -->
<g id="edge22" class="edge">
<title>Node9&#45;&gt;Node19</title>
<path fill="none" stroke="midnightblue" d="M876.57,-210.88C856.05,-205.52 833.71,-199.68 813.92,-194.51"/>
<polygon fill="midnightblue" stroke="midnightblue" points="875.91,-214.32 886.47,-213.47 877.68,-207.55 875.91,-214.32"/>
</g>
<!-- Node11 -->
<g id="node11" class="node">
<title>Node11</title>
<g id="a_node11"><a xlink:href="classdenoptim_1_1ga_1_1_evolutionary_algorithm.html#a0c2e353b243250b4959a3f86608f1020" target="_top" xlink:title="Generates one offspring according to the method where crossover and mutation are decoupled,...">
<polygon fill="white" stroke="black" points="526,-213.5 526,-243.5 656,-243.5 656,-213.5 526,-213.5"/>
<text text-anchor="start" x="534" y="-231.5" font-family="Helvetica,sans-Serif" font-size="10.00">denoptim.ga.Evolutionary</text>
<text text-anchor="middle" x="591" y="-220.5" font-family="Helvetica,sans-Serif" font-size="10.00">Algorithm.makeOffspringA</text>
</a>
</g>
</g>
<!-- Node10&#45;&gt;Node11 -->
<g id="edge10" class="edge">
<title>Node10&#45;&gt;Node11</title>
<path fill="none" stroke="midnightblue" d="M694.43,-259.39C677.16,-254.18 658.51,-248.55 641.92,-243.55"/>
<polygon fill="midnightblue" stroke="midnightblue" points="693.83,-262.86 704.42,-262.4 695.85,-256.16 693.83,-262.86"/>
</g>
<!-- Node16 -->
<g id="node16" class="node">
<title>Node16</title>
<g id="a_node16"><a xlink:href="classdenoptim_1_1ga_1_1_evolutionary_algorithm.html#ae7a90a911b109ed47b3acf54193acc35" target="_top" xlink:title="Generates one offspring according to the method where crossover and mutation are coupled,...">
<polygon fill="white" stroke="black" points="526,-262.5 526,-292.5 656,-292.5 656,-262.5 526,-262.5"/>
<text text-anchor="start" x="534" y="-280.5" font-family="Helvetica,sans-Serif" font-size="10.00">denoptim.ga.Evolutionary</text>
<text text-anchor="middle" x="591" y="-269.5" font-family="Helvetica,sans-Serif" font-size="10.00">Algorithm.makeOffspringB</text>
</a>
</g>
</g>
<!-- Node10&#45;&gt;Node16 -->
<g id="edge15" class="edge">
<title>Node10&#45;&gt;Node16</title>
<path fill="none" stroke="midnightblue" d="M681.42,-277.5C672.94,-277.5 664.34,-277.5 656,-277.5"/>
<polygon fill="midnightblue" stroke="midnightblue" points="681.67,-281 691.67,-277.5 681.67,-274 681.67,-281"/>
</g>
<!-- Node12 -->
<g id="node12" class="node">
<title>Node12</title>
<g id="a_node12"><a xlink:href="classdenoptim_1_1ga_1_1_evolutionary_algorithm.html#a596b2f5f0b097c5b67a6e5163bd6fe66" target="_top" xlink:title="Generates a given number of new candidate items and adds them to the current population.">
<polygon fill="white" stroke="black" points="353,-218.5 353,-248.5 487,-248.5 487,-218.5 353,-218.5"/>
<text text-anchor="start" x="361" y="-236.5" font-family="Helvetica,sans-Serif" font-size="10.00">denoptim.ga.Evolutionary</text>
<text text-anchor="middle" x="420" y="-225.5" font-family="Helvetica,sans-Serif" font-size="10.00">Algorithm.evolvePopulation</text>
</a>
</g>
</g>
<!-- Node11&#45;&gt;Node12 -->
<g id="edge11" class="edge">
<title>Node11&#45;&gt;Node12</title>
<path fill="none" stroke="midnightblue" d="M515.48,-230.7C506.05,-230.98 496.45,-231.27 487.16,-231.54"/>
<polygon fill="midnightblue" stroke="midnightblue" points="515.73,-234.2 525.63,-230.4 515.53,-227.2 515.73,-234.2"/>
</g>
<!-- Node13 -->
<g id="node13" class="node">
<title>Node13</title>
<g id="a_node13"><a xlink:href="classdenoptim_1_1ga_1_1_evolutionary_algorithm.html#a6bfc2fa59b199da6259b5b6bad3d6de7" target="_top" xlink:title=" ">
<polygon fill="white" stroke="black" points="190,-193.5 190,-223.5 314,-223.5 314,-193.5 190,-193.5"/>
<text text-anchor="start" x="198" y="-211.5" font-family="Helvetica,sans-Serif" font-size="10.00">denoptim.ga.Evolutionary</text>
<text text-anchor="middle" x="252" y="-200.5" font-family="Helvetica,sans-Serif" font-size="10.00">Algorithm.run</text>
</a>
</g>
</g>
<!-- Node12&#45;&gt;Node13 -->
<g id="edge12" class="edge">
<title>Node12&#45;&gt;Node13</title>
<path fill="none" stroke="midnightblue" d="M342.9,-222.04C333.21,-220.58 323.41,-219.1 314.01,-217.69"/>
<polygon fill="midnightblue" stroke="midnightblue" points="342.51,-225.52 352.92,-223.55 343.55,-218.6 342.51,-225.52"/>
</g>
<!-- Node14 -->
<g id="node14" class="node">
<title>Node14</title>
<g id="a_node14"><a xlink:href="classdenoptim_1_1ga_1_1_evolutionary_algorithm.html#a0f2063b722b7291daf83d62acaa683d3" target="_top" xlink:title=" ">
<polygon fill="white" stroke="black" points="0,-218.5 0,-248.5 154,-248.5 154,-218.5 0,-218.5"/>
<text text-anchor="start" x="8" y="-236.5" font-family="Helvetica,sans-Serif" font-size="10.00">denoptim.ga.Evolutionary</text>
<text text-anchor="middle" x="77" y="-225.5" font-family="Helvetica,sans-Serif" font-size="10.00">Algorithm.EvolutionaryAlgorithm</text>
</a>
</g>
</g>
<!-- Node13&#45;&gt;Node14 -->
<g id="edge13" class="edge">
<title>Node13&#45;&gt;Node14</title>
<path fill="none" stroke="midnightblue" d="M179.44,-218.84C171.09,-220.05 162.54,-221.28 154.12,-222.5"/>
<polygon fill="midnightblue" stroke="midnightblue" points="180.12,-222.28 189.52,-217.38 179.12,-215.35 180.12,-222.28"/>
</g>
<!-- Node15 -->
<g id="node15" class="node">
<title>Node15</title>
<g id="a_node15"><a xlink:href="classdenoptim_1_1programs_1_1denovo_1_1_g_a_runner.html#a7cafd6d78727b89dce3e2c8d06f0dd7c" target="_top" xlink:title=" ">
<polygon fill="white" stroke="black" points="9.5,-169.5 9.5,-199.5 144.5,-199.5 144.5,-169.5 9.5,-169.5"/>
<text text-anchor="start" x="17.5" y="-187.5" font-family="Helvetica,sans-Serif" font-size="10.00">denoptim.programs.denovo.</text>
<text text-anchor="middle" x="77" y="-176.5" font-family="Helvetica,sans-Serif" font-size="10.00">GARunner.runProgram</text>
</a>
</g>
</g>
<!-- Node13&#45;&gt;Node15 -->
<g id="edge14" class="edge">
<title>Node13&#45;&gt;Node15</title>
<path fill="none" stroke="midnightblue" d="M179.48,-198.58C167.92,-196.97 156,-195.32 144.57,-193.73"/>
<polygon fill="midnightblue" stroke="midnightblue" points="179.13,-202.06 189.52,-199.97 180.1,-195.13 179.13,-202.06"/>
</g>
<!-- Node16&#45;&gt;Node12 -->
<g id="edge16" class="edge">
<title>Node16&#45;&gt;Node12</title>
<path fill="none" stroke="midnightblue" d="M522.42,-259.91C507.95,-256.14 492.78,-252.19 478.71,-248.53"/>
<polygon fill="midnightblue" stroke="midnightblue" points="521.75,-263.35 532.31,-262.48 523.52,-256.57 521.75,-263.35"/>
</g>
<!-- Node17&#45;&gt;Node11 -->
<g id="edge20" class="edge">
<title>Node17&#45;&gt;Node11</title>
<path fill="none" stroke="midnightblue" d="M681.42,-228.5C672.94,-228.5 664.34,-228.5 656,-228.5"/>
<polygon fill="midnightblue" stroke="midnightblue" points="681.67,-232 691.67,-228.5 681.67,-225 681.67,-232"/>
</g>
<!-- Node17&#45;&gt;Node16 -->
<g id="edge21" class="edge">
<title>Node17&#45;&gt;Node16</title>
<path fill="none" stroke="midnightblue" d="M694.43,-246.61C677.16,-251.82 658.51,-257.45 641.92,-262.45"/>
<polygon fill="midnightblue" stroke="midnightblue" points="695.85,-249.84 704.42,-243.6 693.83,-243.14 695.85,-249.84"/>
</g>
<!-- Node18 -->
<g id="node18" class="node">
<title>Node18</title>
<g id="a_node18"><a xlink:href="classdenoptim_1_1ga_1_1_evolutionary_algorithm.html#ad43588620dab3340e0d8b0042ec73618" target="_top" xlink:title="Fills up the population with candidates build from scratch.">
<polygon fill="white" stroke="black" points="350,-169.5 350,-199.5 490,-199.5 490,-169.5 350,-169.5"/>
<text text-anchor="start" x="358" y="-187.5" font-family="Helvetica,sans-Serif" font-size="10.00">denoptim.ga.Evolutionary</text>
<text text-anchor="middle" x="420" y="-176.5" font-family="Helvetica,sans-Serif" font-size="10.00">Algorithm.initializePopulation</text>
</a>
</g>
</g>
<!-- Node17&#45;&gt;Node18 -->
<g id="edge18" class="edge">
<title>Node17&#45;&gt;Node18</title>
<path fill="none" stroke="midnightblue" d="M692.29,-211.03C680.32,-208.15 667.83,-205.47 656,-203.5 600.58,-194.29 537.04,-189.5 490.01,-187.03"/>
<polygon fill="midnightblue" stroke="midnightblue" points="691.64,-214.48 702.19,-213.49 693.33,-207.68 691.64,-214.48"/>
</g>
<!-- Node18&#45;&gt;Node13 -->
<g id="edge19" class="edge">
<title>Node18&#45;&gt;Node13</title>
<path fill="none" stroke="midnightblue" d="M339.6,-195.98C331.08,-197.21 322.5,-198.45 314.24,-199.65"/>
<polygon fill="midnightblue" stroke="midnightblue" points="340.17,-199.43 349.56,-194.54 339.16,-192.51 340.17,-199.43"/>
</g>
<!-- Node21&#45;&gt;Node4 -->
<g id="edge29" class="edge">
<title>Node21&#45;&gt;Node4</title>
<path fill="none" stroke="midnightblue" d="M1534.15,-207.4C1501.89,-197.39 1462.27,-185.09 1431.69,-175.61"/>
<polygon fill="midnightblue" stroke="midnightblue" points="1533.32,-210.8 1543.91,-210.42 1535.4,-204.12 1533.32,-210.8"/>
</g>
<!-- Node22 -->
<g id="node22" class="node">
<title>Node22</title>
<g id="a_node22"><a xlink:href="classdenoptim_1_1graph_1_1rings_1_1_cyclic_graph_handler.html#a3ce96322723f45d9285a248ebcef94d3" target="_top" xlink:title="Identifies all possible ring closing paths and returns them as list of DENOPTIMRings ready to be appe...">
<polygon fill="white" stroke="black" points="1290,-221 1290,-262 1474,-262 1474,-221 1290,-221"/>
<text text-anchor="start" x="1298" y="-250" font-family="Helvetica,sans-Serif" font-size="10.00">denoptim.graph.rings.Cyclic</text>
<text text-anchor="start" x="1298" y="-239" font-family="Helvetica,sans-Serif" font-size="10.00">GraphHandler.getPossibleCombination</text>
<text text-anchor="middle" x="1382" y="-228" font-family="Helvetica,sans-Serif" font-size="10.00">OfRings</text>
</a>
</g>
</g>
<!-- Node21&#45;&gt;Node22 -->
<g id="edge25" class="edge">
<title>Node21&#45;&gt;Node22</title>
<path fill="none" stroke="midnightblue" d="M1519,-231.11C1504.54,-232.22 1489.21,-233.39 1474.25,-234.53"/>
<polygon fill="midnightblue" stroke="midnightblue" points="1519.65,-234.57 1529.36,-230.32 1519.12,-227.59 1519.65,-234.57"/>
</g>
<!-- Node25 -->
<g id="node25" class="node">
<title>Node25</title>
<g id="a_node25"><a xlink:href="classdenoptim_1_1graph_1_1rings_1_1_ring_size_manager_test.html#a55d1482a18edbaabf15b090392a282f3" target="_top" xlink:title=" ">
<polygon fill="white" stroke="black" points="1289,-280.5 1289,-310.5 1475,-310.5 1475,-280.5 1289,-280.5"/>
<text text-anchor="start" x="1297" y="-298.5" font-family="Helvetica,sans-Serif" font-size="10.00">denoptim.graph.rings.Ring</text>
<text text-anchor="middle" x="1382" y="-287.5" font-family="Helvetica,sans-Serif" font-size="10.00">SizeManagerTest.testEvaluateRCVPair</text>
</a>
</g>
</g>
<!-- Node21&#45;&gt;Node25 -->
<g id="edge30" class="edge">
<title>Node21&#45;&gt;Node25</title>
<path fill="none" stroke="midnightblue" d="M1547.85,-244.42C1526.09,-253.26 1499.41,-263.57 1475,-271.5 1465.27,-274.66 1454.85,-277.7 1444.66,-280.49"/>
<polygon fill="midnightblue" stroke="midnightblue" points="1549.23,-247.63 1557.16,-240.6 1546.58,-241.15 1549.23,-247.63"/>
</g>
<!-- Node22&#45;&gt;Node9 -->
<g id="edge28" class="edge">
<title>Node22&#45;&gt;Node9</title>
<path fill="none" stroke="midnightblue" d="M1279.42,-241.08C1218.88,-240.53 1140.53,-239.28 1071,-236.5 1051.34,-235.71 1029.95,-234.48 1010.52,-233.22"/>
<polygon fill="midnightblue" stroke="midnightblue" points="1279.72,-244.59 1289.75,-241.17 1279.78,-237.59 1279.72,-244.59"/>
</g>
<!-- Node23 -->
<g id="node23" class="node">
<title>Node23</title>
<g id="a_node23"><a xlink:href="classdenoptim_1_1graph_1_1_d_graph.html#a7a4743d014e860237f4b20703ef9779b" target="_top" xlink:title="Evaluates the possibility of closing rings in this graph and generates all alternative graphs resulti...">
<polygon fill="white" stroke="black" points="1084.5,-284.5 1084.5,-314.5 1239.5,-314.5 1239.5,-284.5 1084.5,-284.5"/>
<text text-anchor="start" x="1092.5" y="-302.5" font-family="Helvetica,sans-Serif" font-size="10.00">denoptim.graph.DGraph.make</text>
<text text-anchor="middle" x="1162" y="-291.5" font-family="Helvetica,sans-Serif" font-size="10.00">AllGraphsWithDifferentRingSets</text>
</a>
</g>
</g>
<!-- Node22&#45;&gt;Node23 -->
<g id="edge26" class="edge">
<title>Node22&#45;&gt;Node23</title>
<path fill="none" stroke="midnightblue" d="M1293.95,-264.66C1268.87,-271.33 1242.18,-278.43 1219.49,-284.47"/>
<polygon fill="midnightblue" stroke="midnightblue" points="1295.07,-267.98 1303.83,-262.03 1293.27,-261.22 1295.07,-267.98"/>
</g>
<!-- Node24 -->
<g id="node24" class="node">
<title>Node24</title>
<g id="a_node24"><a xlink:href="classdenoptim_1_1combinatorial_1_1_graph_building_task.html#a3eaee724fc921194fa158714aafe182d" target="_top" xlink:title="Calls the task.">
<polygon fill="white" stroke="black" points="872.5,-284.5 872.5,-314.5 1017.5,-314.5 1017.5,-284.5 872.5,-284.5"/>
<text text-anchor="start" x="880.5" y="-302.5" font-family="Helvetica,sans-Serif" font-size="10.00">denoptim.combinatorial.Graph</text>
<text text-anchor="middle" x="945" y="-291.5" font-family="Helvetica,sans-Serif" font-size="10.00">BuildingTask.call</text>
</a>
</g>
</g>
<!-- Node23&#45;&gt;Node24 -->
<g id="edge27" class="edge">
<title>Node23&#45;&gt;Node24</title>
<path fill="none" stroke="midnightblue" d="M1074.26,-299.5C1055.46,-299.5 1035.79,-299.5 1017.65,-299.5"/>
<polygon fill="midnightblue" stroke="midnightblue" points="1074.29,-303 1084.29,-299.5 1074.29,-296 1074.29,-303"/>
</g>
</g>
</svg>
        <g id="navigator" transform="translate(0 0)" fill="#404254">
                <rect fill="#f2f5e9" fill-opacity="0.5" stroke="#606060" stroke-width=".5" x="0" y="0" width="60" height="60"/>
                <use id="zoomplus" xlink:href="#zoomPlus" x="17" y="9" onmousedown="handleZoom(evt,'in')"/>
                <use id="zoomminus" xlink:href="#zoomMin" x="42" y="9" onmousedown="handleZoom(evt,'out')"/>
                <use id="reset" xlink:href="#resetDef" x="30" y="36" onmousedown="handleReset()"/>
                <g id="arrowUp" xlink:href="#dirArrow" transform="translate(30 24)" onmousedown="handlePan(0,-1)">
                  <use xlink:href="#rim" fill="#404040">
                        <set attributeName="fill" to="#808080" begin="arrowUp.mouseover" end="arrowUp.mouseout"/>
                  </use>
                  <path fill="none" stroke="white" stroke-width="1.5" d="M0,-3.0v7 M-2.5,-0.5L0,-3.0L2.5,-0.5"/>
                </g>
                <g id="arrowRight" xlink:href="#dirArrow" transform="rotate(90) translate(36 -43)" onmousedown="handlePan(1,0)">
                  <use xlink:href="#rim" fill="#404040">
                        <set attributeName="fill" to="#808080" begin="arrowRight.mouseover" end="arrowRight.mouseout"/>
                  </use>
                  <path fill="none" stroke="white" stroke-width="1.5" d="M0,-3.0v7 M-2.5,-0.5L0,-3.0L2.5,-0.5"/>
                </g>
                <g id="arrowDown" xlink:href="#dirArrow" transform="rotate(180) translate(-30 -48)" onmousedown="handlePan(0,1)">
                  <use xlink:href="#rim" fill="#404040">
                        <set attributeName="fill" to="#808080" begin="arrowDown.mouseover" end="arrowDown.mouseout"/>
                  </use>
                  <path fill="none" stroke="white" stroke-width="1.5" d="M0,-3.0v7 M-2.5,-0.5L0,-3.0L2.5,-0.5"/>
                </g>
                <g id="arrowLeft" xlink:href="#dirArrow" transform="rotate(270) translate(-36 17)" onmousedown="handlePan(-1,0)">
                  <use xlink:href="#rim" fill="#404040">
                        <set attributeName="fill" to="#808080" begin="arrowLeft.mouseover" end="arrowLeft.mouseout"/>
                  </use>
                  <path fill="none" stroke="white" stroke-width="1.5" d="M0,-3.0v7 M-2.5,-0.5L0,-3.0L2.5,-0.5"/>
                </g>
        </g>
        <svg viewBox="0 0 15 15" width="100%" height="30px" preserveAspectRatio="xMaxYMin meet">
         <g id="arrow_out" transform="scale(0.3 0.3)">
          <a xlink:href="classdenoptim_1_1graph_1_1rings_1_1_ring_closure_parameters_a870b2456fe1fefeae6b8411d2febadf6_icgraph_org.svg" target="_base">
           <rect id="button" ry="5" rx="5" y="6" x="6" height="38" width="38"
                fill="#f2f5e9" fill-opacity="0.5" stroke="#606060" stroke-width="1.0"/>
           <path id="arrow"
             d="M 11.500037,31.436501 C 11.940474,20.09759 22.043105,11.32322 32.158766,21.979434 L 37.068811,17.246167 C 37.068811,17.246167 37.088388,32 37.088388,32 L 22.160133,31.978069 C 22.160133,31.978069 26.997745,27.140456 26.997745,27.140456 C 18.528582,18.264221 13.291696,25.230495 11.500037,31.436501 z"
             style="fill:#404040;"/>
          </a>
         </g>
        </svg>
</svg>
