<?xml version="1.0" encoding="UTF-8" standalone="no"?>
<!DOCTYPE svg PUBLIC "-//W3C//DTD SVG 1.1//EN"
 "http://www.w3.org/Graphics/SVG/1.1/DTD/svg11.dtd">
<!-- Generated by graphviz version 3.0.0 (20221109.1736)
 -->
<!-- Title: denoptim.graph.AttachmentPoint.getSingleAPStringSDF Pages: 1 -->
<svg width="509pt" height="88pt"
 viewBox="0.00 0.00 509.00 88.00" xmlns="http://www.w3.org/2000/svg" xmlns:xlink="http://www.w3.org/1999/xlink">
<g id="graph0" class="graph" transform="scale(1 1) rotate(0) translate(4 84)">
<title>denoptim.graph.AttachmentPoint.getSingleAPStringSDF</title>
<polygon fill="white" stroke="transparent" points="-4,4 -4,-84 505,-84 505,4 -4,4"/>
<!-- Node1 -->
<g id="node1" class="node">
<title>Node1</title>
<g id="a_node1"><a xlink:title="Prepare a string for writing this AP in a fragment SDF file.">
<polygon fill="#bfbfbf" stroke="black" points="0,-24.5 0,-54.5 140,-54.5 140,-24.5 0,-24.5"/>
<text text-anchor="start" x="8" y="-42.5" font-family="Helvetica,sans-Serif" font-size="10.00">denoptim.graph.Attachment</text>
<text text-anchor="middle" x="70" y="-31.5" font-family="Helvetica,sans-Serif" font-size="10.00">Point.getSingleAPStringSDF</text>
</a>
</g>
</g>
<!-- Node2 -->
<g id="node2" class="node">
<title>Node2</title>
<g id="a_node2"><a xlink:href="classdenoptim_1_1graph_1_1_attachment_point.html#ae529678561712f679be4b8d737f2ab83" target="_top" xlink:title="Prepare a string for writing this AP in a fragment SDF file.">
<polygon fill="white" stroke="black" points="176,-24.5 176,-54.5 316,-54.5 316,-24.5 176,-24.5"/>
<text text-anchor="start" x="184" y="-42.5" font-family="Helvetica,sans-Serif" font-size="10.00">denoptim.graph.Attachment</text>
<text text-anchor="middle" x="246" y="-31.5" font-family="Helvetica,sans-Serif" font-size="10.00">Point.getSingleAPStringSDF</text>
</a>
</g>
</g>
<!-- Node1&#45;&gt;Node2 -->
<g id="edge1" class="edge">
<title>Node1&#45;&gt;Node2</title>
<path fill="none" stroke="midnightblue" d="M140.02,-39.5C148.48,-39.5 157.17,-39.5 165.76,-39.5"/>
<polygon fill="midnightblue" stroke="midnightblue" points="165.78,-43 175.78,-39.5 165.78,-36 165.78,-43"/>
</g>
<!-- Node3 -->
<g id="node3" class="node">
<title>Node3</title>
<g id="a_node3"><a xlink:href="classdenoptim_1_1utils_1_1_general_utils.html#a05bc718161978283c7db11369386a934" target="_top" xlink:title="Formats a decimal number using the given pattern but with English format as for separators.">
<polygon fill="white" stroke="black" points="352,-49.5 352,-79.5 501,-79.5 501,-49.5 352,-49.5"/>
<text text-anchor="start" x="360" y="-67.5" font-family="Helvetica,sans-Serif" font-size="10.00">denoptim.utils.GeneralUtils.get</text>
<text text-anchor="middle" x="426.5" y="-56.5" font-family="Helvetica,sans-Serif" font-size="10.00">EnglishFormattedDecimal</text>
</a>
</g>
</g>
<!-- Node2&#45;&gt;Node3 -->
<g id="edge2" class="edge">
<title>Node2&#45;&gt;Node3</title>
<path fill="none" stroke="midnightblue" d="M316.01,-49.17C324.47,-50.35 333.19,-51.57 341.84,-52.78"/>
<polygon fill="midnightblue" stroke="midnightblue" points="341.55,-56.28 351.94,-54.2 342.52,-49.34 341.55,-56.28"/>
</g>
<!-- Node4 -->
<g id="node4" class="node">
<title>Node4</title>
<g id="a_node4"><a xlink:href="classdenoptim_1_1graph_1_1_a_p_class.html#ad771aba34950060ecbba81eb4b924445" target="_top" xlink:title=" ">
<polygon fill="white" stroke="black" points="359.5,-0.5 359.5,-30.5 493.5,-30.5 493.5,-0.5 359.5,-0.5"/>
<text text-anchor="start" x="367.5" y="-18.5" font-family="Helvetica,sans-Serif" font-size="10.00">denoptim.graph.APClass.to</text>
<text text-anchor="middle" x="426.5" y="-7.5" font-family="Helvetica,sans-Serif" font-size="10.00">SDFString</text>
</a>
</g>
</g>
<!-- Node2&#45;&gt;Node4 -->
<g id="edge3" class="edge">
<title>Node2&#45;&gt;Node4</title>
<path fill="none" stroke="midnightblue" d="M316.01,-30.22C326.9,-28.76 338.22,-27.24 349.26,-25.75"/>
<polygon fill="midnightblue" stroke="midnightblue" points="349.87,-29.2 359.31,-24.4 348.93,-22.26 349.87,-29.2"/>
</g>
</g>
</svg>
