<?xml version="1.0" encoding="UTF-8" standalone="no"?>
<!DOCTYPE svg PUBLIC "-//W3C//DTD SVG 1.1//EN"
 "http://www.w3.org/Graphics/SVG/1.1/DTD/svg11.dtd">
<!-- Generated by graphviz version 3.0.0 (20221109.1736)
 -->
<!-- Title: denoptim.ga.ExternalCmdsListener.processExternalCmdFile Pages: 1 -->
<svg width="521pt" height="194pt"
 viewBox="0.00 0.00 521.00 194.00" xmlns="http://www.w3.org/2000/svg" xmlns:xlink="http://www.w3.org/1999/xlink">
<g id="graph0" class="graph" transform="scale(1 1) rotate(0) translate(4 190)">
<title>denoptim.ga.ExternalCmdsListener.processExternalCmdFile</title>
<polygon fill="white" stroke="transparent" points="-4,4 -4,-190 517,-190 517,4 -4,4"/>
<!-- Node1 -->
<g id="node1" class="node">
<title>Node1</title>
<g id="a_node1"><a xlink:title=" ">
<polygon fill="#bfbfbf" stroke="black" points="0,-71.5 0,-101.5 159,-101.5 159,-71.5 0,-71.5"/>
<text text-anchor="start" x="8" y="-89.5" font-family="Helvetica,sans-Serif" font-size="10.00">denoptim.ga.ExternalCmds</text>
<text text-anchor="middle" x="79.5" y="-78.5" font-family="Helvetica,sans-Serif" font-size="10.00">Listener.processExternalCmdFile</text>
</a>
</g>
</g>
<!-- Node2 -->
<g id="node2" class="node">
<title>Node2</title>
<g id="a_node2"><a xlink:href="classdenoptim_1_1ga_1_1_evolutionary_algorithm.html#a64d75b20ef9ab8af80544e9981881631" target="_top" xlink:title="Adds candidate IDs to the list of &quot;to&#45;be&#45;included&quot; candidates.">
<polygon fill="white" stroke="black" points="211.5,-155.5 211.5,-185.5 336.5,-185.5 336.5,-155.5 211.5,-155.5"/>
<text text-anchor="start" x="219.5" y="-173.5" font-family="Helvetica,sans-Serif" font-size="10.00">denoptim.ga.Evolutionary</text>
<text text-anchor="middle" x="274" y="-162.5" font-family="Helvetica,sans-Serif" font-size="10.00">Algorithm.addCandidates</text>
</a>
</g>
</g>
<!-- Node1&#45;&gt;Node2 -->
<g id="edge1" class="edge">
<title>Node1&#45;&gt;Node2</title>
<path fill="none" stroke="midnightblue" d="M106.74,-101.61C129.58,-114.37 163.81,-132.57 195,-145.5 200.47,-147.77 206.22,-149.96 212.03,-152.04"/>
<polygon fill="midnightblue" stroke="midnightblue" points="211.2,-155.46 221.79,-155.43 213.49,-148.84 211.2,-155.46"/>
</g>
<!-- Node3 -->
<g id="node3" class="node">
<title>Node3</title>
<g id="a_node3"><a xlink:href="classdenoptim_1_1io_1_1_denoptim_i_o.html#ad5bee53baea572e1d76f8dd0bf3ddd76" target="_top" xlink:title="Read list of data as text.">
<polygon fill="white" stroke="black" points="195,-99 195,-118 353,-118 353,-99 195,-99"/>
<text text-anchor="middle" x="274" y="-106" font-family="Helvetica,sans-Serif" font-size="10.00">denoptim.io.DenoptimIO.readList</text>
</a>
</g>
</g>
<!-- Node1&#45;&gt;Node3 -->
<g id="edge2" class="edge">
<title>Node1&#45;&gt;Node3</title>
<path fill="none" stroke="midnightblue" d="M159.07,-95.48C167.59,-96.45 176.3,-97.45 184.92,-98.43"/>
<polygon fill="midnightblue" stroke="midnightblue" points="184.66,-101.93 194.99,-99.58 185.45,-94.97 184.66,-101.93"/>
</g>
<!-- Node4 -->
<g id="node4" class="node">
<title>Node4</title>
<g id="a_node4"><a xlink:href="classdenoptim_1_1ga_1_1_evolutionary_algorithm.html#ad3c60eba8bde5a804c840482acc829a6" target="_top" xlink:title="Adds candidate IDs to the list of &quot;to&#45;be&#45;removed&quot; candidates.">
<polygon fill="white" stroke="black" points="203.5,-49.5 203.5,-79.5 344.5,-79.5 344.5,-49.5 203.5,-49.5"/>
<text text-anchor="start" x="211.5" y="-67.5" font-family="Helvetica,sans-Serif" font-size="10.00">denoptim.ga.Evolutionary</text>
<text text-anchor="middle" x="274" y="-56.5" font-family="Helvetica,sans-Serif" font-size="10.00">Algorithm.removeCandidates</text>
</a>
</g>
</g>
<!-- Node1&#45;&gt;Node4 -->
<g id="edge4" class="edge">
<title>Node1&#45;&gt;Node4</title>
<path fill="none" stroke="midnightblue" d="M159.07,-77.52C170.3,-76.24 181.85,-74.92 193.1,-73.63"/>
<polygon fill="midnightblue" stroke="midnightblue" points="193.79,-77.08 203.33,-72.46 192.99,-70.12 193.79,-77.08"/>
</g>
<!-- Node5 -->
<g id="node5" class="node">
<title>Node5</title>
<g id="a_node5"><a xlink:href="classdenoptim_1_1ga_1_1_evolutionary_algorithm.html#a5d4c7ed4e7b8d2219c845f906e539408" target="_top" xlink:title=" ">
<polygon fill="white" stroke="black" points="212,-0.5 212,-30.5 336,-30.5 336,-0.5 212,-0.5"/>
<text text-anchor="start" x="220" y="-18.5" font-family="Helvetica,sans-Serif" font-size="10.00">denoptim.ga.Evolutionary</text>
<text text-anchor="middle" x="274" y="-7.5" font-family="Helvetica,sans-Serif" font-size="10.00">Algorithm.stopRun</text>
</a>
</g>
</g>
<!-- Node1&#45;&gt;Node5 -->
<g id="edge5" class="edge">
<title>Node1&#45;&gt;Node5</title>
<path fill="none" stroke="midnightblue" d="M116.09,-71.44C138.56,-62.11 168.3,-50.13 195,-40.5 201.29,-38.23 207.9,-35.95 214.51,-33.74"/>
<polygon fill="midnightblue" stroke="midnightblue" points="215.74,-37.02 224.14,-30.57 213.54,-30.38 215.74,-37.02"/>
</g>
<!-- Node3&#45;&gt;Node3 -->
<g id="edge3" class="edge">
<title>Node3&#45;&gt;Node3</title>
<path fill="none" stroke="midnightblue" d="M246.87,-118.26C233.68,-127.07 242.72,-136.5 274,-136.5 295.51,-136.5 306.5,-132.04 306.98,-126.39"/>
<polygon fill="midnightblue" stroke="midnightblue" points="309.81,-124.33 301.13,-118.26 304.13,-128.42 309.81,-124.33"/>
</g>
<!-- Node6 -->
<g id="node6" class="node">
<title>Node6</title>
<g id="a_node6"><a xlink:href="classdenoptim_1_1ga_1_1_evolutionary_algorithm.html#a2367e2b5713154c6d49905975fb852b0" target="_top" xlink:title="Removes all tasks whether they are completed or not.">
<polygon fill="white" stroke="black" points="389,-0.5 389,-30.5 513,-30.5 513,-0.5 389,-0.5"/>
<text text-anchor="start" x="397" y="-18.5" font-family="Helvetica,sans-Serif" font-size="10.00">denoptim.ga.Evolutionary</text>
<text text-anchor="middle" x="451" y="-7.5" font-family="Helvetica,sans-Serif" font-size="10.00">Algorithm.cleanupAsync</text>
</a>
</g>
</g>
<!-- Node5&#45;&gt;Node6 -->
<g id="edge6" class="edge">
<title>Node5&#45;&gt;Node6</title>
<path fill="none" stroke="midnightblue" d="M336.21,-15.5C349.93,-15.5 364.6,-15.5 378.69,-15.5"/>
<polygon fill="midnightblue" stroke="midnightblue" points="378.83,-19 388.83,-15.5 378.83,-12 378.83,-19"/>
</g>
</g>
</svg>
