<?xml version="1.0" encoding="UTF-8" standalone="no"?>
<!DOCTYPE svg PUBLIC "-//W3C//DTD SVG 1.1//EN"
 "http://www.w3.org/Graphics/SVG/1.1/DTD/svg11.dtd">
<!-- Generated by graphviz version 3.0.0 (20221109.1736)
 -->
<!-- Title: denoptim.gui.MolToGraphParametersDialog.saveResults Pages: 1 -->
<svg width="408pt" height="317pt"
 viewBox="0.00 0.00 408.00 316.50" xmlns="http://www.w3.org/2000/svg" xmlns:xlink="http://www.w3.org/1999/xlink">
<g id="graph0" class="graph" transform="scale(1 1) rotate(0) translate(4 312.5)">
<title>denoptim.gui.MolToGraphParametersDialog.saveResults</title>
<polygon fill="white" stroke="transparent" points="-4,4 -4,-312.5 404,-312.5 404,4 -4,4"/>
<!-- Node1 -->
<g id="node1" class="node">
<title>Node1</title>
<g id="a_node1"><a xlink:title=" ">
<polygon fill="#bfbfbf" stroke="black" points="0,-153 0,-183 177,-183 177,-153 0,-153"/>
<text text-anchor="start" x="8" y="-171" font-family="Helvetica,sans-Serif" font-size="10.00">denoptim.gui.MolToGraphParameters</text>
<text text-anchor="middle" x="88.5" y="-160" font-family="Helvetica,sans-Serif" font-size="10.00">Dialog.saveResults</text>
</a>
</g>
</g>
<!-- Node2 -->
<g id="node2" class="node">
<title>Node2</title>
<g id="a_node2"><a xlink:href="classdenoptim_1_1gui_1_1_mol_to_graph_parameters_dialog.html#ad40d2bfc59b13d5ffdf11010de6ab1b5" target="_top" xlink:title=" ">
<polygon fill="white" stroke="black" points="218,-278 218,-308 395,-308 395,-278 218,-278"/>
<text text-anchor="start" x="226" y="-296" font-family="Helvetica,sans-Serif" font-size="10.00">denoptim.gui.MolToGraphParameters</text>
<text text-anchor="middle" x="306.5" y="-285" font-family="Helvetica,sans-Serif" font-size="10.00">Dialog.getEmbeddedRingsContract</text>
</a>
</g>
</g>
<!-- Node1&#45;&gt;Node2 -->
<g id="edge1" class="edge">
<title>Node1&#45;&gt;Node2</title>
<path fill="none" stroke="midnightblue" d="M103.58,-183.08C125.07,-205.22 168.3,-246.31 213,-269 216.74,-270.9 220.65,-272.66 224.66,-274.29"/>
<polygon fill="midnightblue" stroke="midnightblue" points="223.55,-277.61 234.14,-277.85 226.01,-271.06 223.55,-277.61"/>
</g>
<!-- Node3 -->
<g id="node3" class="node">
<title>Node3</title>
<g id="a_node3"><a xlink:href="classdenoptim_1_1gui_1_1_mol_to_graph_parameters_dialog.html#a230914faa9231aece166d111bde9e5aa" target="_top" xlink:title=" ">
<polygon fill="white" stroke="black" points="218,-229 218,-259 395,-259 395,-229 218,-229"/>
<text text-anchor="start" x="226" y="-247" font-family="Helvetica,sans-Serif" font-size="10.00">denoptim.gui.MolToGraphParameters</text>
<text text-anchor="middle" x="306.5" y="-236" font-family="Helvetica,sans-Serif" font-size="10.00">Dialog.getEmbedRingsInTemplate</text>
</a>
</g>
</g>
<!-- Node1&#45;&gt;Node3 -->
<g id="edge2" class="edge">
<title>Node1&#45;&gt;Node3</title>
<path fill="none" stroke="midnightblue" d="M121.77,-183.1C146.4,-194.26 181.38,-209.3 213,-220 219.34,-222.14 225.97,-224.21 232.65,-226.16"/>
<polygon fill="midnightblue" stroke="midnightblue" points="231.87,-229.58 242.44,-228.95 233.78,-222.84 231.87,-229.58"/>
</g>
<!-- Node4 -->
<g id="node4" class="node">
<title>Node4</title>
<g id="a_node4"><a xlink:href="classdenoptim_1_1gui_1_1_mol_to_graph_parameters_dialog.html#aad75b090883c2eda1df3a740e40e2706" target="_top" xlink:title=" ">
<polygon fill="white" stroke="black" points="218,-180 218,-210 395,-210 395,-180 218,-180"/>
<text text-anchor="start" x="226" y="-198" font-family="Helvetica,sans-Serif" font-size="10.00">denoptim.gui.MolToGraphParameters</text>
<text text-anchor="middle" x="306.5" y="-187" font-family="Helvetica,sans-Serif" font-size="10.00">Dialog.getScaffoldingPolicy</text>
</a>
</g>
</g>
<!-- Node1&#45;&gt;Node4 -->
<g id="edge3" class="edge">
<title>Node1&#45;&gt;Node4</title>
<path fill="none" stroke="midnightblue" d="M177.04,-178.94C187.13,-180.2 197.46,-181.5 207.67,-182.77"/>
<polygon fill="midnightblue" stroke="midnightblue" points="207.47,-186.27 217.83,-184.04 208.34,-179.33 207.47,-186.27"/>
</g>
<!-- Node5 -->
<g id="node5" class="node">
<title>Node5</title>
<g id="a_node5"><a xlink:href="classdenoptim_1_1programs_1_1fragmenter_1_1_fragmenter_parameters.html#a037e44f0fb89f40986c79e1a1ca758ed" target="_top" xlink:title=" ">
<polygon fill="white" stroke="black" points="217.5,-120.5 217.5,-161.5 395.5,-161.5 395.5,-120.5 217.5,-120.5"/>
<text text-anchor="start" x="225.5" y="-149.5" font-family="Helvetica,sans-Serif" font-size="10.00">denoptim.programs.fragmenter.</text>
<text text-anchor="start" x="225.5" y="-138.5" font-family="Helvetica,sans-Serif" font-size="10.00">FragmenterParameters.setEmbedded</text>
<text text-anchor="middle" x="306.5" y="-127.5" font-family="Helvetica,sans-Serif" font-size="10.00">RingsContract</text>
</a>
</g>
</g>
<!-- Node1&#45;&gt;Node5 -->
<g id="edge4" class="edge">
<title>Node1&#45;&gt;Node5</title>
<path fill="none" stroke="midnightblue" d="M177.04,-157.06C187.04,-155.81 197.28,-154.53 207.41,-153.26"/>
<polygon fill="midnightblue" stroke="midnightblue" points="207.99,-156.72 217.48,-152 207.12,-149.77 207.99,-156.72"/>
</g>
<!-- Node6 -->
<g id="node6" class="node">
<title>Node6</title>
<g id="a_node6"><a xlink:href="classdenoptim_1_1programs_1_1fragmenter_1_1_fragmenter_parameters.html#ab8899d106da30b775c2d9d99693032f5" target="_top" xlink:title=" ">
<polygon fill="white" stroke="black" points="213,-60.5 213,-101.5 400,-101.5 400,-60.5 213,-60.5"/>
<text text-anchor="start" x="221" y="-89.5" font-family="Helvetica,sans-Serif" font-size="10.00">denoptim.programs.fragmenter.</text>
<text text-anchor="start" x="221" y="-78.5" font-family="Helvetica,sans-Serif" font-size="10.00">FragmenterParameters.setEmbedRings</text>
<text text-anchor="middle" x="306.5" y="-67.5" font-family="Helvetica,sans-Serif" font-size="10.00">InTemplate</text>
</a>
</g>
</g>
<!-- Node1&#45;&gt;Node6 -->
<g id="edge5" class="edge">
<title>Node1&#45;&gt;Node6</title>
<path fill="none" stroke="midnightblue" d="M119.52,-152.93C144.26,-140.8 180.45,-123.74 213,-111 218.34,-108.91 223.89,-106.85 229.5,-104.84"/>
<polygon fill="midnightblue" stroke="midnightblue" points="230.69,-108.13 238.97,-101.52 228.38,-101.53 230.69,-108.13"/>
</g>
<!-- Node7 -->
<g id="node7" class="node">
<title>Node7</title>
<g id="a_node7"><a xlink:href="classdenoptim_1_1programs_1_1fragmenter_1_1_fragmenter_parameters.html#ad30a03d7cc6143dcc7c094e598346fb7" target="_top" xlink:title=" ">
<polygon fill="white" stroke="black" points="216.5,-0.5 216.5,-41.5 396.5,-41.5 396.5,-0.5 216.5,-0.5"/>
<text text-anchor="start" x="224.5" y="-29.5" font-family="Helvetica,sans-Serif" font-size="10.00">denoptim.programs.fragmenter.</text>
<text text-anchor="start" x="224.5" y="-18.5" font-family="Helvetica,sans-Serif" font-size="10.00">FragmenterParameters.setScaffolding</text>
<text text-anchor="middle" x="306.5" y="-7.5" font-family="Helvetica,sans-Serif" font-size="10.00">Policy</text>
</a>
</g>
</g>
<!-- Node1&#45;&gt;Node7 -->
<g id="edge6" class="edge">
<title>Node1&#45;&gt;Node7</title>
<path fill="none" stroke="midnightblue" d="M101.56,-152.83C121.98,-128.11 165.77,-79.06 213,-51 215.99,-49.22 219.11,-47.54 222.3,-45.94"/>
<polygon fill="midnightblue" stroke="midnightblue" points="223.88,-49.06 231.47,-41.67 220.93,-42.71 223.88,-49.06"/>
</g>
</g>
</svg>
