<?xml version="1.0" encoding="UTF-8" standalone="no"?>
<!DOCTYPE svg PUBLIC "-//W3C//DTD SVG 1.1//EN"
 "http://www.w3.org/Graphics/SVG/1.1/DTD/svg11.dtd">
<!-- Generated by graphviz version 3.0.0 (20221109.1736)
 -->
<!-- Title: denoptim.graph.rings.RingClosingConformations Pages: 1 -->
<svg width="196pt" height="117pt"
 viewBox="0.00 0.00 195.50 117.00" xmlns="http://www.w3.org/2000/svg" xmlns:xlink="http://www.w3.org/1999/xlink">
<g id="graph0" class="graph" transform="scale(1 1) rotate(0) translate(4 113)">
<title>denoptim.graph.rings.RingClosingConformations</title>
<polygon fill="white" stroke="transparent" points="-4,4 -4,-113 191.5,-113 191.5,4 -4,4"/>
<!-- Node1 -->
<g id="node1" class="node">
<title>Node1</title>
<g id="a_node1"><a xlink:title="Serializable object to store/get a list of conformations that allow to close a ring from an open chai...">
<polygon fill="#bfbfbf" stroke="black" points="20,-0.5 20,-30.5 148,-30.5 148,-0.5 20,-0.5"/>
<text text-anchor="start" x="28" y="-18.5" font-family="Helvetica,sans-Serif" font-size="10.00">denoptim.graph.rings.Ring</text>
<text text-anchor="middle" x="84" y="-7.5" font-family="Helvetica,sans-Serif" font-size="10.00">ClosingConformations</text>
</a>
</g>
</g>
<!-- Node2 -->
<g id="node2" class="node">
<title>Node2</title>
<g id="a_node2"><a xlink:title=" ">
<polygon fill="white" stroke="black" points="0,-84 0,-103 66,-103 66,-84 0,-84"/>
<text text-anchor="middle" x="33" y="-91" font-family="Helvetica,sans-Serif" font-size="10.00">Serializable</text>
</a>
</g>
</g>
<!-- Node2&#45;&gt;Node1 -->
<g id="edge1" class="edge">
<title>Node2&#45;&gt;Node1</title>
<path fill="none" stroke="midnightblue" d="M44.5,-75.37C53.58,-61.83 66.1,-43.17 74.59,-30.52"/>
<polygon fill="midnightblue" stroke="midnightblue" points="41.52,-73.53 38.85,-83.78 47.33,-77.43 41.52,-73.53"/>
</g>
<!-- Node3 -->
<g id="node3" class="node">
<title>Node3</title>
<g id="a_node3"><a xlink:title=" ">
<polygon fill="white" stroke="black" points="84.5,-78.5 84.5,-108.5 187.5,-108.5 187.5,-78.5 84.5,-78.5"/>
<text text-anchor="start" x="92.5" y="-96.5" font-family="Helvetica,sans-Serif" font-size="10.00">ArrayList&lt; ArrayList</text>
<text text-anchor="middle" x="136" y="-85.5" font-family="Helvetica,sans-Serif" font-size="10.00">&lt; Double &gt; &gt;</text>
</a>
</g>
</g>
<!-- Node3&#45;&gt;Node1 -->
<g id="edge2" class="edge">
<title>Node3&#45;&gt;Node1</title>
<path fill="none" stroke="#9a32cd" stroke-dasharray="5,2" d="M120.56,-69.94C111.87,-57.23 101.28,-41.75 93.74,-30.73"/>
<polygon fill="#9a32cd" stroke="#9a32cd" points="117.68,-71.93 126.22,-78.2 123.46,-67.98 117.68,-71.93"/>
<text text-anchor="middle" x="132.5" y="-52" font-family="Helvetica,sans-Serif" font-size="10.00"> lstConfs</text>
</g>
</g>
</svg>
