<?xml version="1.0" encoding="UTF-8" standalone="no"?>
<!DOCTYPE svg PUBLIC "-//W3C//DTD SVG 1.1//EN"
 "http://www.w3.org/Graphics/SVG/1.1/DTD/svg11.dtd">
<!-- Generated by graphviz version 3.0.0 (20221109.1736)
 -->
<!-- Title: denoptim.graph.DGraph.getFreeRCVertices Pages: 1 -->
<svg width="312pt" height="88pt"
 viewBox="0.00 0.00 312.00 88.00" xmlns="http://www.w3.org/2000/svg" xmlns:xlink="http://www.w3.org/1999/xlink">
<g id="graph0" class="graph" transform="scale(1 1) rotate(0) translate(4 84)">
<title>denoptim.graph.DGraph.getFreeRCVertices</title>
<polygon fill="white" stroke="transparent" points="-4,4 -4,-84 308,-84 308,4 -4,4"/>
<!-- Node1 -->
<g id="node1" class="node">
<title>Node1</title>
<g id="a_node1"><a xlink:title="Search for unused ring closing vertices: vertices that contain only a RingClosingAttractor and are no...">
<polygon fill="#bfbfbf" stroke="black" points="0,-24.5 0,-54.5 134,-54.5 134,-24.5 0,-24.5"/>
<text text-anchor="start" x="8" y="-42.5" font-family="Helvetica,sans-Serif" font-size="10.00">denoptim.graph.DGraph.get</text>
<text text-anchor="middle" x="67" y="-31.5" font-family="Helvetica,sans-Serif" font-size="10.00">FreeRCVertices</text>
</a>
</g>
</g>
<!-- Node2 -->
<g id="node2" class="node">
<title>Node2</title>
<g id="a_node2"><a xlink:href="classdenoptim_1_1graph_1_1_d_graph.html#a46e5563a41c18adbcee9aa60b39094fa" target="_top" xlink:title="Search for ring closing vertices: vertices that contain only a RingClosingAttractor">
<polygon fill="white" stroke="black" points="170,-49.5 170,-79.5 304,-79.5 304,-49.5 170,-49.5"/>
<text text-anchor="start" x="178" y="-67.5" font-family="Helvetica,sans-Serif" font-size="10.00">denoptim.graph.DGraph.get</text>
<text text-anchor="middle" x="237" y="-56.5" font-family="Helvetica,sans-Serif" font-size="10.00">RCVertices</text>
</a>
</g>
</g>
<!-- Node1&#45;&gt;Node2 -->
<g id="edge1" class="edge">
<title>Node1&#45;&gt;Node2</title>
<path fill="none" stroke="midnightblue" d="M134.4,-49.38C142.77,-50.63 151.39,-51.91 159.89,-53.17"/>
<polygon fill="midnightblue" stroke="midnightblue" points="159.4,-56.64 169.81,-54.65 160.43,-49.72 159.4,-56.64"/>
</g>
<!-- Node3 -->
<g id="node3" class="node">
<title>Node3</title>
<g id="a_node3"><a xlink:href="classdenoptim_1_1graph_1_1_d_graph.html#aca10b3acbf66e3652cb9664179ed368f" target="_top" xlink:title=" ">
<polygon fill="white" stroke="black" points="173,-0.5 173,-30.5 301,-30.5 301,-0.5 173,-0.5"/>
<text text-anchor="start" x="181" y="-18.5" font-family="Helvetica,sans-Serif" font-size="10.00">denoptim.graph.DGraph.is</text>
<text text-anchor="middle" x="237" y="-7.5" font-family="Helvetica,sans-Serif" font-size="10.00">VertexInRing</text>
</a>
</g>
</g>
<!-- Node1&#45;&gt;Node3 -->
<g id="edge2" class="edge">
<title>Node1&#45;&gt;Node3</title>
<path fill="none" stroke="midnightblue" d="M134.4,-30.01C143.69,-28.69 153.29,-27.32 162.7,-25.97"/>
<polygon fill="midnightblue" stroke="midnightblue" points="163.42,-29.4 172.82,-24.53 162.43,-22.47 163.42,-29.4"/>
</g>
</g>
</svg>
