<?xml version="1.0" encoding="UTF-8" standalone="no"?>
<!DOCTYPE svg PUBLIC "-//W3C//DTD SVG 1.1//EN"
 "http://www.w3.org/Graphics/SVG/1.1/DTD/svg11.dtd">
<!-- Generated by graphviz version 3.0.0 (20221109.1736)
 -->
<!-- Title: denoptim.gui.GUIAPClassDefinitionDialog Pages: 1 -->
<svg width="559pt" height="316pt"
 viewBox="0.00 0.00 559.00 315.50" xmlns="http://www.w3.org/2000/svg" xmlns:xlink="http://www.w3.org/1999/xlink">
<g id="graph0" class="graph" transform="scale(1 1) rotate(0) translate(4 311.5)">
<title>denoptim.gui.GUIAPClassDefinitionDialog</title>
<polygon fill="white" stroke="transparent" points="-4,4 -4,-311.5 555,-311.5 555,4 -4,4"/>
<!-- Node1 -->
<g id="node1" class="node">
<title>Node1</title>
<g id="a_node1"><a xlink:title=" ">
<polygon fill="#bfbfbf" stroke="black" points="381,-102.5 381,-132.5 551,-132.5 551,-102.5 381,-102.5"/>
<text text-anchor="start" x="389" y="-120.5" font-family="Helvetica,sans-Serif" font-size="10.00">denoptim.gui.GUIAPClassDefinition</text>
<text text-anchor="middle" x="466" y="-109.5" font-family="Helvetica,sans-Serif" font-size="10.00">Dialog</text>
</a>
</g>
</g>
<!-- Node2 -->
<g id="node2" class="node">
<title>Node2</title>
<g id="a_node2"><a xlink:href="classdenoptim_1_1gui_1_1_g_u_i_modal_dialog.html" target="_top" xlink:title=" ">
<polygon fill="white" stroke="black" points="138.5,-237 138.5,-256 283.5,-256 283.5,-237 138.5,-237"/>
<text text-anchor="middle" x="211" y="-244" font-family="Helvetica,sans-Serif" font-size="10.00">denoptim.gui.GUIModalDialog</text>
</a>
</g>
</g>
<!-- Node2&#45;&gt;Node1 -->
<g id="edge1" class="edge">
<title>Node2&#45;&gt;Node1</title>
<path fill="none" stroke="midnightblue" d="M262.83,-234.32C292.97,-225.97 331.36,-213.35 363,-196.5 396.41,-178.71 430.16,-149.98 449.24,-132.51"/>
<polygon fill="midnightblue" stroke="midnightblue" points="261.68,-231 252.94,-236.98 263.5,-237.76 261.68,-231"/>
</g>
<!-- Node3 -->
<g id="node3" class="node">
<title>Node3</title>
<g id="a_node3"><a xlink:title=" ">
<polygon fill="white" stroke="black" points="0.5,-288 0.5,-307 49.5,-307 49.5,-288 0.5,-288"/>
<text text-anchor="middle" x="25" y="-295" font-family="Helvetica,sans-Serif" font-size="10.00">JDialog</text>
</a>
</g>
</g>
<!-- Node3&#45;&gt;Node2 -->
<g id="edge2" class="edge">
<title>Node3&#45;&gt;Node2</title>
<path fill="none" stroke="midnightblue" d="M59.59,-294.49C77.71,-292.38 100.32,-288.92 120,-283.5 145.08,-276.59 172.56,-264.6 190.47,-256.15"/>
<polygon fill="midnightblue" stroke="midnightblue" points="59.07,-291.03 49.5,-295.59 59.82,-297.99 59.07,-291.03"/>
</g>
<!-- Node4 -->
<g id="node4" class="node">
<title>Node4</title>
<g id="a_node4"><a xlink:title=" ">
<polygon fill="white" stroke="black" points="0,-240 0,-259 50,-259 50,-240 0,-240"/>
<text text-anchor="middle" x="25" y="-247" font-family="Helvetica,sans-Serif" font-size="10.00">JButton</text>
</a>
</g>
</g>
<!-- Node4&#45;&gt;Node2 -->
<g id="edge3" class="edge">
<title>Node4&#45;&gt;Node2</title>
<path fill="none" stroke="#9a32cd" stroke-dasharray="5,2" d="M60.18,-248.94C82.11,-248.59 111.41,-248.11 138.28,-247.67"/>
<polygon fill="#9a32cd" stroke="#9a32cd" points="60,-245.45 50.05,-249.11 60.11,-252.44 60,-245.45"/>
<text text-anchor="middle" x="94" y="-273.5" font-family="Helvetica,sans-Serif" font-size="10.00"> btnCanc</text>
<text text-anchor="middle" x="94" y="-262.5" font-family="Helvetica,sans-Serif" font-size="10.00">btnDone</text>
<text text-anchor="middle" x="94" y="-251.5" font-family="Helvetica,sans-Serif" font-size="10.00">btnExtra</text>
</g>
<!-- Node5 -->
<g id="node5" class="node">
<title>Node5</title>
<g id="a_node5"><a xlink:title=" ">
<polygon fill="white" stroke="black" points="1.5,-188 1.5,-207 48.5,-207 48.5,-188 1.5,-188"/>
<text text-anchor="middle" x="25" y="-195" font-family="Helvetica,sans-Serif" font-size="10.00">JPanel</text>
</a>
</g>
</g>
<!-- Node5&#45;&gt;Node1 -->
<g id="edge6" class="edge">
<title>Node5&#45;&gt;Node1</title>
<path fill="none" stroke="#9a32cd" stroke-dasharray="5,2" d="M58.94,-195.72C119.76,-191.9 253.49,-181 363,-154.5 385.52,-149.05 409.95,-140.3 429.25,-132.67"/>
<polygon fill="#9a32cd" stroke="#9a32cd" points="58.56,-192.23 48.79,-196.33 58.99,-199.22 58.56,-192.23"/>
<text text-anchor="middle" x="211" y="-213.5" font-family="Helvetica,sans-Serif" font-size="10.00"> centralPanel</text>
<text text-anchor="middle" x="211" y="-202.5" font-family="Helvetica,sans-Serif" font-size="10.00">pnlAPC2BO</text>
<text text-anchor="middle" x="211" y="-191.5" font-family="Helvetica,sans-Serif" font-size="10.00">pnlAPCName</text>
</g>
<!-- Node5&#45;&gt;Node2 -->
<g id="edge4" class="edge">
<title>Node5&#45;&gt;Node2</title>
<path fill="none" stroke="#9a32cd" stroke-dasharray="5,2" d="M58.45,-206.14C90.91,-214.79 140.72,-228.05 174.29,-236.99"/>
<polygon fill="#9a32cd" stroke="#9a32cd" points="59.13,-202.7 48.56,-203.51 57.32,-209.46 59.13,-202.7"/>
<text text-anchor="middle" x="94" y="-224.5" font-family="Helvetica,sans-Serif" font-size="10.00"> pnlControls</text>
</g>
<!-- Node6 -->
<g id="node6" class="node">
<title>Node6</title>
<g id="a_node6"><a xlink:title=" ">
<polygon fill="white" stroke="black" points="180,-127 180,-146 242,-146 242,-127 180,-127"/>
<text text-anchor="middle" x="211" y="-134" font-family="Helvetica,sans-Serif" font-size="10.00">Dimension</text>
</a>
</g>
</g>
<!-- Node6&#45;&gt;Node1 -->
<g id="edge5" class="edge">
<title>Node6&#45;&gt;Node1</title>
<path fill="none" stroke="#9a32cd" stroke-dasharray="5,2" d="M252.17,-133.48C286.65,-130.89 337.5,-127.07 380.85,-123.82"/>
<polygon fill="#9a32cd" stroke="#9a32cd" points="251.73,-130.01 242.02,-134.25 252.25,-136.99 251.73,-130.01"/>
<text text-anchor="middle" x="332.5" y="-142.5" font-family="Helvetica,sans-Serif" font-size="10.00"> fileLabelSize</text>
<text text-anchor="middle" x="332.5" y="-131.5" font-family="Helvetica,sans-Serif" font-size="10.00">strFieldSize</text>
</g>
<!-- Node7 -->
<g id="node7" class="node">
<title>Node7</title>
<g id="a_node7"><a xlink:title=" ">
<polygon fill="white" stroke="black" points="188,-88 188,-107 234,-107 234,-88 188,-88"/>
<text text-anchor="middle" x="211" y="-95" font-family="Helvetica,sans-Serif" font-size="10.00">JLabel</text>
</a>
</g>
</g>
<!-- Node7&#45;&gt;Node1 -->
<g id="edge7" class="edge">
<title>Node7&#45;&gt;Node1</title>
<path fill="none" stroke="#9a32cd" stroke-dasharray="5,2" d="M244.17,-96.07C274.79,-95.09 322.15,-94.59 363,-98.5 372.86,-99.44 383.19,-100.86 393.34,-102.5"/>
<polygon fill="#9a32cd" stroke="#9a32cd" points="243.94,-92.57 234.07,-96.42 244.19,-99.57 243.94,-92.57"/>
<text text-anchor="middle" x="332.5" y="-112.5" font-family="Helvetica,sans-Serif" font-size="10.00"> lblAPC2BO</text>
<text text-anchor="middle" x="332.5" y="-101.5" font-family="Helvetica,sans-Serif" font-size="10.00">lblAPCName</text>
</g>
<!-- Node8 -->
<g id="node8" class="node">
<title>Node8</title>
<g id="a_node8"><a xlink:title=" ">
<polygon fill="white" stroke="black" points="180,-50 180,-69 242,-69 242,-50 180,-50"/>
<text text-anchor="middle" x="211" y="-57" font-family="Helvetica,sans-Serif" font-size="10.00">JTextField</text>
</a>
</g>
</g>
<!-- Node8&#45;&gt;Node1 -->
<g id="edge8" class="edge">
<title>Node8&#45;&gt;Node1</title>
<path fill="none" stroke="#9a32cd" stroke-dasharray="5,2" d="M252.45,-62.8C283.11,-65.86 326.12,-71.35 363,-80.5 385.49,-86.08 409.91,-94.84 429.22,-102.43"/>
<polygon fill="#9a32cd" stroke="#9a32cd" points="252.44,-59.28 242.15,-61.82 251.77,-66.25 252.44,-59.28"/>
<text text-anchor="middle" x="332.5" y="-83.5" font-family="Helvetica,sans-Serif" font-size="10.00"> txtAPCName</text>
</g>
<!-- Node9 -->
<g id="node9" class="node">
<title>Node9</title>
<g id="a_node9"><a xlink:title=" ">
<polygon fill="white" stroke="black" points="138,-0.5 138,-30.5 284,-30.5 284,-0.5 138,-0.5"/>
<text text-anchor="start" x="146" y="-18.5" font-family="Helvetica,sans-Serif" font-size="10.00">JComboBox&lt; denoptim.graph.</text>
<text text-anchor="middle" x="211" y="-7.5" font-family="Helvetica,sans-Serif" font-size="10.00">Edge.BondType &gt;</text>
</a>
</g>
</g>
<!-- Node9&#45;&gt;Node1 -->
<g id="edge9" class="edge">
<title>Node9&#45;&gt;Node1</title>
<path fill="none" stroke="#9a32cd" stroke-dasharray="5,2" d="M294.17,-31.22C316.94,-36.9 341.34,-44.26 363,-53.5 393.38,-66.47 425.11,-87.81 444.96,-102.25"/>
<polygon fill="#9a32cd" stroke="#9a32cd" points="294.72,-27.76 284.18,-28.81 293.08,-34.56 294.72,-27.76"/>
<text text-anchor="middle" x="332.5" y="-56.5" font-family="Helvetica,sans-Serif" font-size="10.00"> cmbAPC2BO</text>
</g>
</g>
</svg>
