<?xml version="1.0" encoding="UTF-8" standalone="no"?>
<!DOCTYPE svg PUBLIC "-//W3C//DTD SVG 1.1//EN"
 "http://www.w3.org/Graphics/SVG/1.1/DTD/svg11.dtd">
<!-- Generated by graphviz version 3.0.0 (20221109.1736)
 -->
<!-- Title: denoptim.task.Task.getId Pages: 1 -->
<svg width="553pt" height="110pt"
 viewBox="0.00 0.00 553.00 110.00" xmlns="http://www.w3.org/2000/svg" xmlns:xlink="http://www.w3.org/1999/xlink">
<g id="graph0" class="graph" transform="scale(1 1) rotate(0) translate(4 106)">
<title>denoptim.task.Task.getId</title>
<polygon fill="white" stroke="transparent" points="-4,4 -4,-106 549,-106 549,4 -4,4"/>
<!-- Node1 -->
<g id="node1" class="node">
<title>Node1</title>
<g id="a_node1"><a xlink:title=" ">
<polygon fill="#bfbfbf" stroke="black" points="420,-41.5 420,-60.5 545,-60.5 545,-41.5 420,-41.5"/>
<text text-anchor="middle" x="482.5" y="-48.5" font-family="Helvetica,sans-Serif" font-size="10.00">denoptim.task.Task.getId</text>
</a>
</g>
</g>
<!-- Node2 -->
<g id="node2" class="node">
<title>Node2</title>
<g id="a_node2"><a xlink:href="classdenoptim_1_1task_1_1_parallel_asynchronous_task_executor.html#a2ac8a65c7e2ed87472c1744527c94b22" target="_top" xlink:title=" ">
<polygon fill="white" stroke="black" points="211,-36 211,-66 384,-66 384,-36 211,-36"/>
<text text-anchor="start" x="219" y="-54" font-family="Helvetica,sans-Serif" font-size="10.00">denoptim.task.ParallelAsynchronous</text>
<text text-anchor="middle" x="297.5" y="-43" font-family="Helvetica,sans-Serif" font-size="10.00">TaskExecutor.submitTask</text>
</a>
</g>
</g>
<!-- Node1&#45;&gt;Node2 -->
<g id="edge1" class="edge">
<title>Node1&#45;&gt;Node2</title>
<path fill="none" stroke="midnightblue" d="M409.75,-51C401.4,-51 392.81,-51 384.3,-51"/>
<polygon fill="midnightblue" stroke="midnightblue" points="409.8,-54.5 419.8,-51 409.8,-47.5 409.8,-54.5"/>
</g>
<!-- Node3 -->
<g id="node3" class="node">
<title>Node3</title>
<g id="a_node3"><a xlink:href="classdenoptim_1_1fragmenter_1_1_parallel_conformer_extraction_algorithm.html#accbc5c0326e13ccf00126143b0851369" target="_top" xlink:title="Implementations of this method must call the submitTask(Task, String) method to actually send the tas...">
<polygon fill="white" stroke="black" points="0,-60.5 0,-101.5 175,-101.5 175,-60.5 0,-60.5"/>
<text text-anchor="start" x="8" y="-89.5" font-family="Helvetica,sans-Serif" font-size="10.00">denoptim.fragmenter.Parallel</text>
<text text-anchor="start" x="8" y="-78.5" font-family="Helvetica,sans-Serif" font-size="10.00">ConformerExtractionAlgorithm.create</text>
<text text-anchor="middle" x="87.5" y="-67.5" font-family="Helvetica,sans-Serif" font-size="10.00">AndSubmitTasks</text>
</a>
</g>
</g>
<!-- Node2&#45;&gt;Node3 -->
<g id="edge2" class="edge">
<title>Node2&#45;&gt;Node3</title>
<path fill="none" stroke="midnightblue" d="M200.91,-64.79C192.28,-66.03 183.57,-67.29 175.02,-68.52"/>
<polygon fill="midnightblue" stroke="midnightblue" points="201.6,-68.22 211,-63.33 200.6,-61.3 201.6,-68.22"/>
</g>
<!-- Node4 -->
<g id="node4" class="node">
<title>Node4</title>
<g id="a_node4"><a xlink:href="classdenoptim_1_1fragmenter_1_1_parallel_fragmentation_algorithm.html#a273896db3251a14b4e43a7f2783a60af" target="_top" xlink:title="Implementations of this method must call the submitTask(Task, String) method to actually send the tas...">
<polygon fill="white" stroke="black" points="4,-0.5 4,-41.5 171,-41.5 171,-0.5 4,-0.5"/>
<text text-anchor="start" x="12" y="-29.5" font-family="Helvetica,sans-Serif" font-size="10.00">denoptim.fragmenter.Parallel</text>
<text text-anchor="start" x="12" y="-18.5" font-family="Helvetica,sans-Serif" font-size="10.00">FragmentationAlgorithm.createAnd</text>
<text text-anchor="middle" x="87.5" y="-7.5" font-family="Helvetica,sans-Serif" font-size="10.00">SubmitTasks</text>
</a>
</g>
</g>
<!-- Node2&#45;&gt;Node4 -->
<g id="edge3" class="edge">
<title>Node2&#45;&gt;Node4</title>
<path fill="none" stroke="midnightblue" d="M200.79,-37.2C190.95,-35.78 181.01,-34.34 171.32,-32.95"/>
<polygon fill="midnightblue" stroke="midnightblue" points="200.6,-40.7 211,-38.67 201.6,-33.78 200.6,-40.7"/>
</g>
</g>
</svg>
