<?xml version="1.0" encoding="UTF-8" standalone="no"?>
<!DOCTYPE svg PUBLIC "-//W3C//DTD SVG 1.1//EN"
 "http://www.w3.org/Graphics/SVG/1.1/DTD/svg11.dtd">
<!-- Generated by graphviz version 3.0.0 (20221109.1736)
 -->
<!-- Title: denoptim.utils.Randomizer.nextDouble Pages: 1 -->
<svg width="1505pt" height="406pt"
 viewBox="0.00 0.00 1505.00 406.00" xmlns="http://www.w3.org/2000/svg" xmlns:xlink="http://www.w3.org/1999/xlink">
<g id="graph0" class="graph" transform="scale(1 1) rotate(0) translate(4 402)">
<title>denoptim.utils.Randomizer.nextDouble</title>
<polygon fill="white" stroke="transparent" points="-4,4 -4,-402 1501,-402 1501,4 -4,4"/>
<!-- Node1 -->
<g id="node1" class="node">
<title>Node1</title>
<g id="a_node1"><a xlink:title="Returns the next pseudo&#45;random, uniformly distributed double value between 0.0 and 1....">
<polygon fill="#bfbfbf" stroke="black" points="1347,-207.5 1347,-237.5 1497,-237.5 1497,-207.5 1347,-207.5"/>
<text text-anchor="start" x="1355" y="-225.5" font-family="Helvetica,sans-Serif" font-size="10.00">denoptim.utils.Randomizer.next</text>
<text text-anchor="middle" x="1422" y="-214.5" font-family="Helvetica,sans-Serif" font-size="10.00">Double</text>
</a>
</g>
</g>
<!-- Node2 -->
<g id="node2" class="node">
<title>Node2</title>
<g id="a_node2"><a xlink:href="classdenoptim_1_1utils_1_1_randomizer.html#ac846a1f050f9ee65022492c84e4793fa" target="_top" xlink:title="Returns a point in three&#45;dimensional space with a random set of coordinates, the absolute value of wh...">
<polygon fill="white" stroke="black" points="1139,-319.5 1139,-349.5 1285,-349.5 1285,-319.5 1139,-319.5"/>
<text text-anchor="start" x="1147" y="-337.5" font-family="Helvetica,sans-Serif" font-size="10.00">denoptim.utils.Randomizer.get</text>
<text text-anchor="middle" x="1212" y="-326.5" font-family="Helvetica,sans-Serif" font-size="10.00">NoisyPoint</text>
</a>
</g>
</g>
<!-- Node1&#45;&gt;Node2 -->
<g id="edge1" class="edge">
<title>Node1&#45;&gt;Node2</title>
<path fill="none" stroke="midnightblue" d="M1399.1,-244.9C1378.24,-264.96 1345.05,-293.74 1311,-310.5 1302.91,-314.48 1294.1,-317.84 1285.2,-320.65"/>
<polygon fill="midnightblue" stroke="midnightblue" points="1401.77,-247.18 1406.46,-237.68 1396.87,-242.18 1401.77,-247.18"/>
</g>
<!-- Node7 -->
<g id="node7" class="node">
<title>Node7</title>
<g id="a_node7"><a xlink:href="classdenoptim_1_1utils_1_1_randomizer.html#a092f91406a0f1261369c2105d35d5f87" target="_top" xlink:title="Returns whether the next pseudo&#45;random, uniformly distributed double is lower than the specified valu...">
<polygon fill="white" stroke="black" points="1137,-270.5 1137,-300.5 1287,-300.5 1287,-270.5 1137,-270.5"/>
<text text-anchor="start" x="1145" y="-288.5" font-family="Helvetica,sans-Serif" font-size="10.00">denoptim.utils.Randomizer.next</text>
<text text-anchor="middle" x="1212" y="-277.5" font-family="Helvetica,sans-Serif" font-size="10.00">Boolean</text>
</a>
</g>
</g>
<!-- Node1&#45;&gt;Node7 -->
<g id="edge6" class="edge">
<title>Node1&#45;&gt;Node7</title>
<path fill="none" stroke="midnightblue" d="M1370.54,-240.91C1351.93,-247.44 1330.61,-254.62 1311,-260.5 1299.48,-263.95 1287.11,-267.35 1275.16,-270.47"/>
<polygon fill="midnightblue" stroke="midnightblue" points="1371.74,-244.2 1380,-237.57 1369.4,-237.6 1371.74,-244.2"/>
</g>
<!-- Node8 -->
<g id="node8" class="node">
<title>Node8</title>
<g id="a_node8"><a xlink:href="classdenoptim_1_1ga_1_1_selection_helper.html#a97c9e13b0a571dcc17a223d01a47cee4" target="_top" xlink:title="Roulette wheel selection is implemented as follows:">
<polygon fill="white" stroke="black" points="1113,-232 1113,-251 1311,-251 1311,-232 1113,-232"/>
<text text-anchor="middle" x="1212" y="-239" font-family="Helvetica,sans-Serif" font-size="10.00">denoptim.ga.SelectionHelper.performRWS</text>
</a>
</g>
</g>
<!-- Node1&#45;&gt;Node8 -->
<g id="edge7" class="edge">
<title>Node1&#45;&gt;Node8</title>
<path fill="none" stroke="midnightblue" d="M1336.65,-230.2C1328.26,-230.97 1319.69,-231.75 1311.17,-232.53"/>
<polygon fill="midnightblue" stroke="midnightblue" points="1337.15,-233.67 1346.79,-229.28 1336.51,-226.7 1337.15,-233.67"/>
</g>
<!-- Node19 -->
<g id="node19" class="node">
<title>Node19</title>
<g id="a_node19"><a xlink:href="classdenoptim_1_1ga_1_1_selection_helper.html#abd757f95a4bff442ce65e51e87e0baca" target="_top" xlink:title="Stochastic Uniform Sampling Note: this implementation is based on the WATCHMAKER framework http://wat...">
<polygon fill="white" stroke="black" points="1113.5,-194 1113.5,-213 1310.5,-213 1310.5,-194 1113.5,-194"/>
<text text-anchor="middle" x="1212" y="-201" font-family="Helvetica,sans-Serif" font-size="10.00">denoptim.ga.SelectionHelper.performSUS</text>
</a>
</g>
</g>
<!-- Node1&#45;&gt;Node19 -->
<g id="edge20" class="edge">
<title>Node1&#45;&gt;Node19</title>
<path fill="none" stroke="midnightblue" d="M1336.83,-214.81C1328.26,-214.03 1319.5,-213.23 1310.81,-212.43"/>
<polygon fill="midnightblue" stroke="midnightblue" points="1336.51,-218.3 1346.79,-215.72 1337.15,-211.33 1336.51,-218.3"/>
</g>
<!-- Node21 -->
<g id="node21" class="node">
<title>Node21</title>
<g id="a_node21"><a xlink:href="classdenoptim_1_1ga_1_1_e_a_utils.html#a0eaa0754c76b7a20702ae6de34424d13" target="_top" xlink:title="Takes a decision on which CandidateSource method to use for generating a new Candidate.">
<polygon fill="white" stroke="black" points="925,-98.5 925,-128.5 1077,-128.5 1077,-98.5 925,-98.5"/>
<text text-anchor="start" x="933" y="-116.5" font-family="Helvetica,sans-Serif" font-size="10.00">denoptim.ga.EAUtils.pick</text>
<text text-anchor="middle" x="1001" y="-105.5" font-family="Helvetica,sans-Serif" font-size="10.00">NewCandidateGenerationMode</text>
</a>
</g>
</g>
<!-- Node1&#45;&gt;Node21 -->
<g id="edge23" class="edge">
<title>Node1&#45;&gt;Node21</title>
<path fill="none" stroke="midnightblue" d="M1372.11,-203.99C1353.2,-197.26 1331.27,-189.97 1311,-184.5 1224.41,-161.13 1200.17,-166.61 1113,-145.5 1092.44,-140.52 1069.97,-134.21 1050.66,-128.51"/>
<polygon fill="midnightblue" stroke="midnightblue" points="1371.1,-207.34 1381.7,-207.44 1373.48,-200.76 1371.1,-207.34"/>
</g>
<!-- Node25 -->
<g id="node25" class="node">
<title>Node25</title>
<g id="a_node25"><a xlink:href="classdenoptim_1_1utils_1_1_randomizer_test.html#ad5d0acfecbfa655aad229d72b3c139e7" target="_top" xlink:title=" ">
<polygon fill="white" stroke="black" points="1127.5,-106.5 1127.5,-136.5 1296.5,-136.5 1296.5,-106.5 1127.5,-106.5"/>
<text text-anchor="start" x="1135.5" y="-124.5" font-family="Helvetica,sans-Serif" font-size="10.00">denoptim.utils.Randomizer</text>
<text text-anchor="middle" x="1212" y="-113.5" font-family="Helvetica,sans-Serif" font-size="10.00">Test.testRandomizerReproducibility</text>
</a>
</g>
</g>
<!-- Node1&#45;&gt;Node25 -->
<g id="edge29" class="edge">
<title>Node1&#45;&gt;Node25</title>
<path fill="none" stroke="midnightblue" d="M1392.97,-201.3C1371.46,-185.82 1340.53,-165.23 1311,-151.5 1298.58,-145.72 1284.76,-140.71 1271.51,-136.52"/>
<polygon fill="midnightblue" stroke="midnightblue" points="1391.16,-204.31 1401.3,-207.38 1395.28,-198.66 1391.16,-204.31"/>
</g>
<!-- Node3 -->
<g id="node3" class="node">
<title>Node3</title>
<g id="a_node3"><a xlink:href="classdenoptim_1_1fragmenter_1_1_fragment_clusterer_test.html#a6c81ab7e238aeed0006bc08ca584db62" target="_top" xlink:title="The noise magnitude is to be interpreted as half of the overall magnitude.">
<polygon fill="white" stroke="black" points="926.5,-318.5 926.5,-348.5 1075.5,-348.5 1075.5,-318.5 926.5,-318.5"/>
<text text-anchor="start" x="934.5" y="-336.5" font-family="Helvetica,sans-Serif" font-size="10.00">denoptim.fragmenter.Fragment</text>
<text text-anchor="middle" x="1001" y="-325.5" font-family="Helvetica,sans-Serif" font-size="10.00">ClustererTest.getNoisyPoint</text>
</a>
</g>
</g>
<!-- Node2&#45;&gt;Node3 -->
<g id="edge2" class="edge">
<title>Node2&#45;&gt;Node3</title>
<path fill="none" stroke="midnightblue" d="M1128.6,-334.11C1111.12,-334.02 1092.77,-333.93 1075.64,-333.85"/>
<polygon fill="midnightblue" stroke="midnightblue" points="1128.76,-337.61 1138.78,-334.15 1128.8,-330.61 1128.76,-337.61"/>
</g>
<!-- Node6 -->
<g id="node6" class="node">
<title>Node6</title>
<g id="a_node6"><a xlink:href="classdenoptim_1_1utils_1_1_randomizer_test.html#a668de9e8b868a6b84e8a781b1a1d317f" target="_top" xlink:title=" ">
<polygon fill="white" stroke="black" points="936,-367.5 936,-397.5 1066,-397.5 1066,-367.5 936,-367.5"/>
<text text-anchor="start" x="944" y="-385.5" font-family="Helvetica,sans-Serif" font-size="10.00">denoptim.utils.Randomizer</text>
<text text-anchor="middle" x="1001" y="-374.5" font-family="Helvetica,sans-Serif" font-size="10.00">Test.tesGetNoisyPoint</text>
</a>
</g>
</g>
<!-- Node2&#45;&gt;Node6 -->
<g id="edge5" class="edge">
<title>Node2&#45;&gt;Node6</title>
<path fill="none" stroke="midnightblue" d="M1135.52,-351.84C1112.82,-357.05 1088.14,-362.72 1066.25,-367.74"/>
<polygon fill="midnightblue" stroke="midnightblue" points="1136.48,-355.21 1145.44,-349.56 1134.91,-348.38 1136.48,-355.21"/>
</g>
<!-- Node4 -->
<g id="node4" class="node">
<title>Node4</title>
<g id="a_node4"><a xlink:href="classdenoptim_1_1fragmenter_1_1_fragment_clusterer_test.html#aa17925160f3f03080e8680c7016fc1c4" target="_top" xlink:title=" ">
<polygon fill="white" stroke="black" points="713,-317.5 713,-347.5 862,-347.5 862,-317.5 713,-317.5"/>
<text text-anchor="start" x="721" y="-335.5" font-family="Helvetica,sans-Serif" font-size="10.00">denoptim.fragmenter.Fragment</text>
<text text-anchor="middle" x="787.5" y="-324.5" font-family="Helvetica,sans-Serif" font-size="10.00">ClustererTest.testCluster</text>
</a>
</g>
</g>
<!-- Node3&#45;&gt;Node4 -->
<g id="edge3" class="edge">
<title>Node3&#45;&gt;Node4</title>
<path fill="none" stroke="midnightblue" d="M915.98,-333.1C898.23,-333.02 879.61,-332.93 862.27,-332.85"/>
<polygon fill="midnightblue" stroke="midnightblue" points="916.31,-336.6 926.32,-333.15 916.34,-329.6 916.31,-336.6"/>
</g>
<!-- Node5 -->
<g id="node5" class="node">
<title>Node5</title>
<g id="a_node5"><a xlink:href="classdenoptim_1_1fragmenter_1_1_fragment_clusterer_test.html#acb2fe702b9d02d39a38ca1cc732c9ee4" target="_top" xlink:title=" ">
<polygon fill="white" stroke="black" points="713,-366.5 713,-396.5 862,-396.5 862,-366.5 713,-366.5"/>
<text text-anchor="start" x="721" y="-384.5" font-family="Helvetica,sans-Serif" font-size="10.00">denoptim.fragmenter.Fragment</text>
<text text-anchor="middle" x="787.5" y="-373.5" font-family="Helvetica,sans-Serif" font-size="10.00">ClustererTest.testCluster2</text>
</a>
</g>
</g>
<!-- Node3&#45;&gt;Node5 -->
<g id="edge4" class="edge">
<title>Node3&#45;&gt;Node5</title>
<path fill="none" stroke="midnightblue" d="M923.76,-350.8C901.13,-355.94 876.54,-361.52 854.6,-366.5"/>
<polygon fill="midnightblue" stroke="midnightblue" points="924.68,-354.18 933.66,-348.56 923.13,-347.36 924.68,-354.18"/>
</g>
<!-- Node9 -->
<g id="node9" class="node">
<title>Node9</title>
<g id="a_node9"><a xlink:href="classdenoptim_1_1ga_1_1_e_a_utils.html#a17505cbf52d9203a1af793f07bcf27f9" target="_top" xlink:title="Selects a number of members from the given population.">
<polygon fill="white" stroke="black" points="934.5,-227.5 934.5,-257.5 1067.5,-257.5 1067.5,-227.5 934.5,-227.5"/>
<text text-anchor="start" x="942.5" y="-245.5" font-family="Helvetica,sans-Serif" font-size="10.00">denoptim.ga.EAUtils.select</text>
<text text-anchor="middle" x="1001" y="-234.5" font-family="Helvetica,sans-Serif" font-size="10.00">BasedOnFitness</text>
</a>
</g>
</g>
<!-- Node8&#45;&gt;Node9 -->
<g id="edge8" class="edge">
<title>Node8&#45;&gt;Node9</title>
<path fill="none" stroke="midnightblue" d="M1102.82,-242.02C1090.79,-242.08 1078.83,-242.13 1067.57,-242.19"/>
<polygon fill="midnightblue" stroke="midnightblue" points="1102.94,-245.52 1112.93,-241.97 1102.91,-238.52 1102.94,-245.52"/>
</g>
<!-- Node10 -->
<g id="node10" class="node">
<title>Node10</title>
<g id="a_node10"><a xlink:href="classdenoptim_1_1ga_1_1_e_a_utils.html#a8122818f58919fce84dce75e7506025a" target="_top" xlink:title=" ">
<polygon fill="white" stroke="black" points="724,-186.5 724,-216.5 851,-216.5 851,-186.5 724,-186.5"/>
<text text-anchor="start" x="732" y="-204.5" font-family="Helvetica,sans-Serif" font-size="10.00">denoptim.ga.EAUtils.build</text>
<text text-anchor="middle" x="787.5" y="-193.5" font-family="Helvetica,sans-Serif" font-size="10.00">CandidateByMutation</text>
</a>
</g>
</g>
<!-- Node9&#45;&gt;Node10 -->
<g id="edge9" class="edge">
<title>Node9&#45;&gt;Node10</title>
<path fill="none" stroke="midnightblue" d="M924.16,-227.8C900.28,-223.17 874.19,-218.11 851.33,-213.68"/>
<polygon fill="midnightblue" stroke="midnightblue" points="923.76,-231.28 934.24,-229.75 925.09,-224.41 923.76,-231.28"/>
</g>
<!-- Node17 -->
<g id="node17" class="node">
<title>Node17</title>
<g id="a_node17"><a xlink:href="classdenoptim_1_1ga_1_1_e_a_utils.html#a0b958439d79fae30f14530213ad22e3a" target="_top" xlink:title="Generates up to a pair of new offspring by performing a crossover operation.">
<polygon fill="white" stroke="black" points="521.5,-249.5 521.5,-279.5 648.5,-279.5 648.5,-249.5 521.5,-249.5"/>
<text text-anchor="start" x="529.5" y="-267.5" font-family="Helvetica,sans-Serif" font-size="10.00">denoptim.ga.EAUtils.build</text>
<text text-anchor="middle" x="585" y="-256.5" font-family="Helvetica,sans-Serif" font-size="10.00">CandidatesByXOver</text>
</a>
</g>
</g>
<!-- Node9&#45;&gt;Node17 -->
<g id="edge17" class="edge">
<title>Node9&#45;&gt;Node17</title>
<path fill="none" stroke="midnightblue" d="M924.01,-246.54C844.87,-250.74 722.34,-257.25 648.58,-261.17"/>
<polygon fill="midnightblue" stroke="midnightblue" points="924.6,-250.01 934.4,-245.99 924.23,-243.02 924.6,-250.01"/>
</g>
<!-- Node18 -->
<g id="node18" class="node">
<title>Node18</title>
<g id="a_node18"><a xlink:href="classdenoptim_1_1ga_1_1_e_a_utils.html#a45d4e9ec6a308aa73891efa1d501dd5e" target="_top" xlink:title="Perform fitness&#45;based, class&#45;compatible selection of parents that can do crossover operations.">
<polygon fill="white" stroke="black" points="704.5,-274 704.5,-293 870.5,-293 870.5,-274 704.5,-274"/>
<text text-anchor="middle" x="787.5" y="-281" font-family="Helvetica,sans-Serif" font-size="10.00">denoptim.ga.EAUtils.performFBCC</text>
</a>
</g>
</g>
<!-- Node9&#45;&gt;Node18 -->
<g id="edge18" class="edge">
<title>Node9&#45;&gt;Node18</title>
<path fill="none" stroke="midnightblue" d="M924.21,-257.19C895.44,-262.77 863.45,-268.97 837.75,-273.95"/>
<polygon fill="midnightblue" stroke="midnightblue" points="925.09,-260.59 934.24,-255.25 923.76,-253.72 925.09,-260.59"/>
</g>
<!-- Node11 -->
<g id="node11" class="node">
<title>Node11</title>
<g id="a_node11"><a xlink:href="classdenoptim_1_1ga_1_1_evolutionary_algorithm.html#a0c2e353b243250b4959a3f86608f1020" target="_top" xlink:title="Generates one offspring according to the method where crossover and mutation are decoupled,...">
<polygon fill="white" stroke="black" points="520,-112.5 520,-142.5 650,-142.5 650,-112.5 520,-112.5"/>
<text text-anchor="start" x="528" y="-130.5" font-family="Helvetica,sans-Serif" font-size="10.00">denoptim.ga.Evolutionary</text>
<text text-anchor="middle" x="585" y="-119.5" font-family="Helvetica,sans-Serif" font-size="10.00">Algorithm.makeOffspringA</text>
</a>
</g>
</g>
<!-- Node10&#45;&gt;Node11 -->
<g id="edge10" class="edge">
<title>Node10&#45;&gt;Node11</title>
<path fill="none" stroke="midnightblue" d="M735.75,-182.77C701.96,-170.3 658.15,-154.13 626.66,-142.51"/>
<polygon fill="midnightblue" stroke="midnightblue" points="734.85,-186.17 745.44,-186.35 737.27,-179.6 734.85,-186.17"/>
</g>
<!-- Node16 -->
<g id="node16" class="node">
<title>Node16</title>
<g id="a_node16"><a xlink:href="classdenoptim_1_1ga_1_1_evolutionary_algorithm.html#ae7a90a911b109ed47b3acf54193acc35" target="_top" xlink:title="Generates one offspring according to the method where crossover and mutation are coupled,...">
<polygon fill="white" stroke="black" points="520,-161.5 520,-191.5 650,-191.5 650,-161.5 520,-161.5"/>
<text text-anchor="start" x="528" y="-179.5" font-family="Helvetica,sans-Serif" font-size="10.00">denoptim.ga.Evolutionary</text>
<text text-anchor="middle" x="585" y="-168.5" font-family="Helvetica,sans-Serif" font-size="10.00">Algorithm.makeOffspringB</text>
</a>
</g>
</g>
<!-- Node10&#45;&gt;Node16 -->
<g id="edge15" class="edge">
<title>Node10&#45;&gt;Node16</title>
<path fill="none" stroke="midnightblue" d="M713.82,-192.44C693.01,-189.84 670.48,-187.03 650.21,-184.51"/>
<polygon fill="midnightblue" stroke="midnightblue" points="713.53,-195.93 723.89,-193.69 714.4,-188.98 713.53,-195.93"/>
</g>
<!-- Node12 -->
<g id="node12" class="node">
<title>Node12</title>
<g id="a_node12"><a xlink:href="classdenoptim_1_1ga_1_1_evolutionary_algorithm.html#a596b2f5f0b097c5b67a6e5163bd6fe66" target="_top" xlink:title="Generates a given number of new candidate items and adds them to the current population.">
<polygon fill="white" stroke="black" points="350,-136.5 350,-166.5 484,-166.5 484,-136.5 350,-136.5"/>
<text text-anchor="start" x="358" y="-154.5" font-family="Helvetica,sans-Serif" font-size="10.00">denoptim.ga.Evolutionary</text>
<text text-anchor="middle" x="417" y="-143.5" font-family="Helvetica,sans-Serif" font-size="10.00">Algorithm.evolvePopulation</text>
</a>
</g>
</g>
<!-- Node11&#45;&gt;Node12 -->
<g id="edge11" class="edge">
<title>Node11&#45;&gt;Node12</title>
<path fill="none" stroke="midnightblue" d="M509.86,-138.22C501.31,-139.45 492.64,-140.71 484.2,-141.93"/>
<polygon fill="midnightblue" stroke="midnightblue" points="510.42,-141.67 519.82,-136.78 509.42,-134.75 510.42,-141.67"/>
</g>
<!-- Node13 -->
<g id="node13" class="node">
<title>Node13</title>
<g id="a_node13"><a xlink:href="classdenoptim_1_1ga_1_1_evolutionary_algorithm.html#a6bfc2fa59b199da6259b5b6bad3d6de7" target="_top" xlink:title=" ">
<polygon fill="white" stroke="black" points="190,-136.5 190,-166.5 314,-166.5 314,-136.5 190,-136.5"/>
<text text-anchor="start" x="198" y="-154.5" font-family="Helvetica,sans-Serif" font-size="10.00">denoptim.ga.Evolutionary</text>
<text text-anchor="middle" x="252" y="-143.5" font-family="Helvetica,sans-Serif" font-size="10.00">Algorithm.run</text>
</a>
</g>
</g>
<!-- Node12&#45;&gt;Node13 -->
<g id="edge12" class="edge">
<title>Node12&#45;&gt;Node13</title>
<path fill="none" stroke="midnightblue" d="M339.45,-151.5C331,-151.5 322.48,-151.5 314.25,-151.5"/>
<polygon fill="midnightblue" stroke="midnightblue" points="339.7,-155 349.7,-151.5 339.7,-148 339.7,-155"/>
</g>
<!-- Node14 -->
<g id="node14" class="node">
<title>Node14</title>
<g id="a_node14"><a xlink:href="classdenoptim_1_1ga_1_1_evolutionary_algorithm.html#a0f2063b722b7291daf83d62acaa683d3" target="_top" xlink:title=" ">
<polygon fill="white" stroke="black" points="0,-161.5 0,-191.5 154,-191.5 154,-161.5 0,-161.5"/>
<text text-anchor="start" x="8" y="-179.5" font-family="Helvetica,sans-Serif" font-size="10.00">denoptim.ga.Evolutionary</text>
<text text-anchor="middle" x="77" y="-168.5" font-family="Helvetica,sans-Serif" font-size="10.00">Algorithm.EvolutionaryAlgorithm</text>
</a>
</g>
</g>
<!-- Node13&#45;&gt;Node14 -->
<g id="edge13" class="edge">
<title>Node13&#45;&gt;Node14</title>
<path fill="none" stroke="midnightblue" d="M179.44,-161.84C171.09,-163.05 162.54,-164.28 154.12,-165.5"/>
<polygon fill="midnightblue" stroke="midnightblue" points="180.12,-165.28 189.52,-160.38 179.12,-158.35 180.12,-165.28"/>
</g>
<!-- Node15 -->
<g id="node15" class="node">
<title>Node15</title>
<g id="a_node15"><a xlink:href="classdenoptim_1_1programs_1_1denovo_1_1_g_a_runner.html#a7cafd6d78727b89dce3e2c8d06f0dd7c" target="_top" xlink:title=" ">
<polygon fill="white" stroke="black" points="9.5,-112.5 9.5,-142.5 144.5,-142.5 144.5,-112.5 9.5,-112.5"/>
<text text-anchor="start" x="17.5" y="-130.5" font-family="Helvetica,sans-Serif" font-size="10.00">denoptim.programs.denovo.</text>
<text text-anchor="middle" x="77" y="-119.5" font-family="Helvetica,sans-Serif" font-size="10.00">GARunner.runProgram</text>
</a>
</g>
</g>
<!-- Node13&#45;&gt;Node15 -->
<g id="edge14" class="edge">
<title>Node13&#45;&gt;Node15</title>
<path fill="none" stroke="midnightblue" d="M179.48,-141.58C167.92,-139.97 156,-138.32 144.57,-136.73"/>
<polygon fill="midnightblue" stroke="midnightblue" points="179.13,-145.06 189.52,-142.97 180.1,-138.13 179.13,-145.06"/>
</g>
<!-- Node16&#45;&gt;Node12 -->
<g id="edge16" class="edge">
<title>Node16&#45;&gt;Node12</title>
<path fill="none" stroke="midnightblue" d="M509.86,-165.33C501.31,-164.05 492.64,-162.74 484.2,-161.47"/>
<polygon fill="midnightblue" stroke="midnightblue" points="509.41,-168.81 519.82,-166.83 510.45,-161.88 509.41,-168.81"/>
</g>
<!-- Node18&#45;&gt;Node17 -->
<g id="edge19" class="edge">
<title>Node18&#45;&gt;Node17</title>
<path fill="none" stroke="midnightblue" d="M694.28,-274.76C678.83,-273.3 663.14,-271.81 648.66,-270.44"/>
<polygon fill="midnightblue" stroke="midnightblue" points="694.08,-278.26 704.37,-275.72 694.75,-271.29 694.08,-278.26"/>
</g>
<!-- Node19&#45;&gt;Node9 -->
<g id="edge21" class="edge">
<title>Node19&#45;&gt;Node9</title>
<path fill="none" stroke="midnightblue" d="M1149.84,-214.91C1124.02,-219.73 1093.91,-225.35 1067.62,-230.25"/>
<polygon fill="midnightblue" stroke="midnightblue" points="1150.68,-218.32 1159.87,-213.04 1149.4,-211.43 1150.68,-218.32"/>
</g>
<!-- Node20 -->
<g id="node20" class="node">
<title>Node20</title>
<g id="a_node20"><a xlink:href="classdenoptim_1_1ga_1_1_seelction_helper_test.html#aafd5d3124aa2d4a523894cd96bdd9240" target="_top" xlink:title=" ">
<polygon fill="white" stroke="black" points="931,-178.5 931,-208.5 1071,-208.5 1071,-178.5 931,-178.5"/>
<text text-anchor="start" x="939" y="-196.5" font-family="Helvetica,sans-Serif" font-size="10.00">denoptim.ga.SeelctionHelper</text>
<text text-anchor="middle" x="1001" y="-185.5" font-family="Helvetica,sans-Serif" font-size="10.00">Test.testPerformSUS</text>
</a>
</g>
</g>
<!-- Node19&#45;&gt;Node20 -->
<g id="edge22" class="edge">
<title>Node19&#45;&gt;Node20</title>
<path fill="none" stroke="midnightblue" d="M1103.21,-198.34C1092.29,-197.82 1081.43,-197.3 1071.08,-196.81"/>
<polygon fill="midnightblue" stroke="midnightblue" points="1103.08,-201.84 1113.23,-198.82 1103.41,-194.85 1103.08,-201.84"/>
</g>
<!-- Node21&#45;&gt;Node16 -->
<g id="edge26" class="edge">
<title>Node21&#45;&gt;Node16</title>
<path fill="none" stroke="midnightblue" d="M925.03,-130.61C913.01,-133.1 900.69,-135.49 889,-137.5 806.94,-151.63 711.57,-163.09 650.08,-169.85"/>
<polygon fill="midnightblue" stroke="midnightblue" points="925.96,-133.99 935.03,-128.51 924.52,-127.14 925.96,-133.99"/>
</g>
<!-- Node22 -->
<g id="node22" class="node">
<title>Node22</title>
<g id="a_node22"><a xlink:href="classdenoptim_1_1ga_1_1_e_a_utils.html#a56acf2ee9e798fee88334db3cdaedb6b" target="_top" xlink:title="Choose one of the methods to make new Candidates.">
<polygon fill="white" stroke="black" points="718.5,-49.5 718.5,-79.5 856.5,-79.5 856.5,-49.5 718.5,-49.5"/>
<text text-anchor="start" x="726.5" y="-67.5" font-family="Helvetica,sans-Serif" font-size="10.00">denoptim.ga.EAUtils.choose</text>
<text text-anchor="middle" x="787.5" y="-56.5" font-family="Helvetica,sans-Serif" font-size="10.00">GenerationMethod</text>
</a>
</g>
</g>
<!-- Node21&#45;&gt;Node22 -->
<g id="edge24" class="edge">
<title>Node21&#45;&gt;Node22</title>
<path fill="none" stroke="midnightblue" d="M925.19,-96.17C901.71,-90.73 876,-84.77 853.27,-79.51"/>
<polygon fill="midnightblue" stroke="midnightblue" points="924.57,-99.62 935.11,-98.47 926.15,-92.8 924.57,-99.62"/>
</g>
<!-- Node23 -->
<g id="node23" class="node">
<title>Node23</title>
<g id="a_node23"><a xlink:href="classdenoptim_1_1ga_1_1_e_a_utils_test.html#a6adbad6b23ce0047c31b621b395b18e8" target="_top" xlink:title=" ">
<polygon fill="white" stroke="black" points="716,-0.5 716,-30.5 859,-30.5 859,-0.5 716,-0.5"/>
<text text-anchor="start" x="724" y="-18.5" font-family="Helvetica,sans-Serif" font-size="10.00">denoptim.ga.EAUtilsTest.test</text>
<text text-anchor="middle" x="787.5" y="-7.5" font-family="Helvetica,sans-Serif" font-size="10.00">CandidateGenerationMethod</text>
</a>
</g>
</g>
<!-- Node21&#45;&gt;Node23 -->
<g id="edge27" class="edge">
<title>Node21&#45;&gt;Node23</title>
<path fill="none" stroke="midnightblue" d="M973.93,-92.22C952.36,-75.62 920.3,-53.15 889,-39.5 879.55,-35.38 869.27,-31.9 859.01,-28.98"/>
<polygon fill="midnightblue" stroke="midnightblue" points="971.9,-95.08 981.94,-98.49 976.22,-89.57 971.9,-95.08"/>
</g>
<!-- Node24 -->
<g id="node24" class="node">
<title>Node24</title>
<g id="a_node24"><a xlink:href="classdenoptim_1_1ga_1_1_e_a_utils_test.html#a2ad2d5c42c363f37e49557ffdb45e33c" target="_top" xlink:title=" ">
<polygon fill="white" stroke="black" points="686,-98.5 686,-128.5 889,-128.5 889,-98.5 686,-98.5"/>
<text text-anchor="start" x="694" y="-116.5" font-family="Helvetica,sans-Serif" font-size="10.00">denoptim.ga.EAUtilsTest.test</text>
<text text-anchor="middle" x="787.5" y="-105.5" font-family="Helvetica,sans-Serif" font-size="10.00">CandidateGenerationMethodReproducibility</text>
</a>
</g>
</g>
<!-- Node21&#45;&gt;Node24 -->
<g id="edge28" class="edge">
<title>Node21&#45;&gt;Node24</title>
<path fill="none" stroke="midnightblue" d="M914.73,-113.5C906.36,-113.5 897.82,-113.5 889.31,-113.5"/>
<polygon fill="midnightblue" stroke="midnightblue" points="914.84,-117 924.84,-113.5 914.84,-110 914.84,-117"/>
</g>
<!-- Node22&#45;&gt;Node11 -->
<g id="edge25" class="edge">
<title>Node22&#45;&gt;Node11</title>
<path fill="none" stroke="midnightblue" d="M708.59,-81.98C700.92,-84.04 693.28,-86.22 686,-88.5 664.12,-95.34 640.18,-104.61 621.21,-112.4"/>
<polygon fill="midnightblue" stroke="midnightblue" points="709.52,-85.36 718.31,-79.44 707.75,-78.58 709.52,-85.36"/>
</g>
</g>
</svg>
