<?xml version="1.0" encoding="UTF-8" standalone="no"?>
<!DOCTYPE svg PUBLIC "-//W3C//DTD SVG 1.1//EN"
 "http://www.w3.org/Graphics/SVG/1.1/DTD/svg11.dtd">
<!-- Generated by graphviz version 3.0.0 (20221109.1736)
 -->
<!-- Title: denoptim.graph.Fragment.removeAtoms Pages: 1 -->
<svg width="768pt" height="269pt"
 viewBox="0.00 0.00 768.00 268.50" xmlns="http://www.w3.org/2000/svg" xmlns:xlink="http://www.w3.org/1999/xlink">
<g id="graph0" class="graph" transform="scale(1 1) rotate(0) translate(4 264.5)">
<title>denoptim.graph.Fragment.removeAtoms</title>
<polygon fill="white" stroke="transparent" points="-4,4 -4,-264.5 764,-264.5 764,4 -4,4"/>
<!-- Node1 -->
<g id="node1" class="node">
<title>Node1</title>
<g id="a_node1"><a xlink:title="Removes a list of atoms and updates the list of attachment points.">
<polygon fill="#bfbfbf" stroke="black" points="0,-166.5 0,-196.5 161,-196.5 161,-166.5 0,-166.5"/>
<text text-anchor="start" x="8" y="-184.5" font-family="Helvetica,sans-Serif" font-size="10.00">denoptim.graph.Fragment.remove</text>
<text text-anchor="middle" x="80.5" y="-173.5" font-family="Helvetica,sans-Serif" font-size="10.00">Atoms</text>
</a>
</g>
</g>
<!-- Node2 -->
<g id="node2" class="node">
<title>Node2</title>
<g id="a_node2"><a xlink:href="classdenoptim_1_1graph_1_1_fragment.html#a4babe43e60f32e990179be8dfe96e38e" target="_top" xlink:title=" ">
<polygon fill="white" stroke="black" points="198.5,-241 198.5,-260 353.5,-260 353.5,-241 198.5,-241"/>
<text text-anchor="middle" x="276" y="-248" font-family="Helvetica,sans-Serif" font-size="10.00">denoptim.graph.Fragment.atoms</text>
</a>
</g>
</g>
<!-- Node1&#45;&gt;Node2 -->
<g id="edge1" class="edge">
<title>Node1&#45;&gt;Node2</title>
<path fill="none" stroke="midnightblue" d="M112.31,-196.54C135.26,-207.33 167.58,-221.63 197,-231.5 204.43,-233.99 212.36,-236.31 220.22,-238.4"/>
<polygon fill="midnightblue" stroke="midnightblue" points="219.52,-241.84 230.08,-240.94 221.26,-235.06 219.52,-241.84"/>
</g>
<!-- Node3 -->
<g id="node3" class="node">
<title>Node3</title>
<g id="a_node3"><a xlink:href="classdenoptim_1_1graph_1_1_fragment.html#a551361a1155600e6e2fe4e37590c924f" target="_top" xlink:title=" ">
<polygon fill="white" stroke="black" points="205,-191.5 205,-221.5 347,-221.5 347,-191.5 205,-191.5"/>
<text text-anchor="start" x="213" y="-209.5" font-family="Helvetica,sans-Serif" font-size="10.00">denoptim.graph.Fragment.get</text>
<text text-anchor="middle" x="276" y="-198.5" font-family="Helvetica,sans-Serif" font-size="10.00">APsFromAtom</text>
</a>
</g>
</g>
<!-- Node1&#45;&gt;Node3 -->
<g id="edge2" class="edge">
<title>Node1&#45;&gt;Node3</title>
<path fill="none" stroke="midnightblue" d="M161.04,-191.78C172.13,-193.21 183.54,-194.68 194.65,-196.12"/>
<polygon fill="midnightblue" stroke="midnightblue" points="194.38,-199.61 204.75,-197.42 195.28,-192.67 194.38,-199.61"/>
</g>
<!-- Node4 -->
<g id="node4" class="node">
<title>Node4</title>
<g id="a_node4"><a xlink:href="classdenoptim_1_1graph_1_1_attachment_point.html#a54d64a8abc57153a64783ddb262f518c" target="_top" xlink:title="Set the index of the source atom in the list of atoms of the fragment.">
<polygon fill="white" stroke="black" points="202,-142.5 202,-172.5 350,-172.5 350,-142.5 202,-142.5"/>
<text text-anchor="start" x="210" y="-160.5" font-family="Helvetica,sans-Serif" font-size="10.00">denoptim.graph.Attachment</text>
<text text-anchor="middle" x="276" y="-149.5" font-family="Helvetica,sans-Serif" font-size="10.00">Point.setAtomPositionNumber</text>
</a>
</g>
</g>
<!-- Node1&#45;&gt;Node4 -->
<g id="edge3" class="edge">
<title>Node1&#45;&gt;Node4</title>
<path fill="none" stroke="midnightblue" d="M161.04,-171.63C171.2,-170.37 181.63,-169.08 191.85,-167.81"/>
<polygon fill="midnightblue" stroke="midnightblue" points="192.49,-171.26 201.98,-166.56 191.63,-164.31 192.49,-171.26"/>
</g>
<!-- Node5 -->
<g id="node5" class="node">
<title>Node5</title>
<g id="a_node5"><a xlink:href="classdenoptim_1_1graph_1_1_fragment.html#ab272daa0515a1ee2fb99a2eb6a81a4a0" target="_top" xlink:title="Depends on an healthy list of attachment points with properly set pointers to the source atoms.">
<polygon fill="white" stroke="black" points="197,-93.5 197,-123.5 355,-123.5 355,-93.5 197,-93.5"/>
<text text-anchor="start" x="205" y="-111.5" font-family="Helvetica,sans-Serif" font-size="10.00">denoptim.graph.Fragment.update</text>
<text text-anchor="middle" x="276" y="-100.5" font-family="Helvetica,sans-Serif" font-size="10.00">SymmetryRelations</text>
</a>
</g>
</g>
<!-- Node1&#45;&gt;Node5 -->
<g id="edge4" class="edge">
<title>Node1&#45;&gt;Node5</title>
<path fill="none" stroke="midnightblue" d="M115.57,-166.46C138.41,-156.59 169.28,-143.68 197,-133.5 203.19,-131.23 209.69,-128.96 216.2,-126.76"/>
<polygon fill="midnightblue" stroke="midnightblue" points="217.3,-130.09 225.69,-123.62 215.09,-123.44 217.3,-130.09"/>
</g>
<!-- Node6 -->
<g id="node6" class="node">
<title>Node6</title>
<g id="a_node6"><a xlink:href="classdenoptim_1_1graph_1_1_fragment.html#a366dfaf65191c724b8e393b9d9dc899f" target="_top" xlink:title=" ">
<polygon fill="white" stroke="black" points="399.5,-142.5 399.5,-172.5 541.5,-172.5 541.5,-142.5 399.5,-142.5"/>
<text text-anchor="start" x="407.5" y="-160.5" font-family="Helvetica,sans-Serif" font-size="10.00">denoptim.graph.Fragment.get</text>
<text text-anchor="middle" x="470.5" y="-149.5" font-family="Helvetica,sans-Serif" font-size="10.00">AttachmentPoints</text>
</a>
</g>
</g>
<!-- Node5&#45;&gt;Node6 -->
<g id="edge5" class="edge">
<title>Node5&#45;&gt;Node6</title>
<path fill="none" stroke="midnightblue" d="M336.06,-123.53C356.48,-128.73 379.54,-134.6 400.67,-139.98"/>
<polygon fill="midnightblue" stroke="midnightblue" points="399.99,-143.42 410.55,-142.49 401.72,-136.64 399.99,-143.42"/>
</g>
<!-- Node7 -->
<g id="node7" class="node">
<title>Node7</title>
<g id="a_node7"><a xlink:href="classdenoptim_1_1graph_1_1_fragment.html#ad87484692035efb425e352a5135aa3d9" target="_top" xlink:title=" ">
<polygon fill="white" stroke="black" points="391,-93.5 391,-123.5 550,-123.5 550,-93.5 391,-93.5"/>
<text text-anchor="start" x="399" y="-111.5" font-family="Helvetica,sans-Serif" font-size="10.00">denoptim.graph.Fragment.identify</text>
<text text-anchor="middle" x="470.5" y="-100.5" font-family="Helvetica,sans-Serif" font-size="10.00">SymmetryRelatedAPSets</text>
</a>
</g>
</g>
<!-- Node5&#45;&gt;Node7 -->
<g id="edge6" class="edge">
<title>Node5&#45;&gt;Node7</title>
<path fill="none" stroke="midnightblue" d="M355.02,-108.5C363.48,-108.5 372.14,-108.5 380.72,-108.5"/>
<polygon fill="midnightblue" stroke="midnightblue" points="380.74,-112 390.74,-108.5 380.74,-105 380.74,-112"/>
</g>
<!-- Node13 -->
<g id="node13" class="node">
<title>Node13</title>
<g id="a_node13"><a xlink:href="classdenoptim_1_1graph_1_1_fragment.html#a13fe376fd06c5aca7e4dfeba36e37b0e" target="_top" xlink:title=" ">
<polygon fill="white" stroke="black" points="399.5,-44.5 399.5,-74.5 541.5,-74.5 541.5,-44.5 399.5,-44.5"/>
<text text-anchor="start" x="407.5" y="-62.5" font-family="Helvetica,sans-Serif" font-size="10.00">denoptim.graph.Fragment.set</text>
<text text-anchor="middle" x="470.5" y="-51.5" font-family="Helvetica,sans-Serif" font-size="10.00">SymmetricAPSets</text>
</a>
</g>
</g>
<!-- Node5&#45;&gt;Node13 -->
<g id="edge12" class="edge">
<title>Node5&#45;&gt;Node13</title>
<path fill="none" stroke="midnightblue" d="M336.06,-93.47C356.48,-88.27 379.54,-82.4 400.67,-77.02"/>
<polygon fill="midnightblue" stroke="midnightblue" points="401.72,-80.36 410.55,-74.51 399.99,-73.58 401.72,-80.36"/>
</g>
<!-- Node8 -->
<g id="node8" class="node">
<title>Node8</title>
<g id="a_node8"><a xlink:href="classdenoptim_1_1graph_1_1_symmetric_set.html#aa3db3c29bdb4ed481b63257a2ffa1b14" target="_top" xlink:title="Adds an item to this list, if not already present.">
<polygon fill="white" stroke="black" points="607.5,-186.5 607.5,-216.5 738.5,-216.5 738.5,-186.5 607.5,-186.5"/>
<text text-anchor="start" x="615.5" y="-204.5" font-family="Helvetica,sans-Serif" font-size="10.00">denoptim.graph.Symmetric</text>
<text text-anchor="middle" x="673" y="-193.5" font-family="Helvetica,sans-Serif" font-size="10.00">Set.add</text>
</a>
</g>
</g>
<!-- Node7&#45;&gt;Node8 -->
<g id="edge7" class="edge">
<title>Node7&#45;&gt;Node8</title>
<path fill="none" stroke="midnightblue" d="M531.51,-123.55C538.01,-126.35 544.32,-129.64 550,-133.5 570.9,-147.7 564.85,-163.68 586,-177.5 589.75,-179.95 593.75,-182.15 597.9,-184.13"/>
<polygon fill="midnightblue" stroke="midnightblue" points="596.6,-187.38 607.17,-188.12 599.36,-180.95 596.6,-187.38"/>
</g>
<!-- Node9 -->
<g id="node9" class="node">
<title>Node9</title>
<g id="a_node9"><a xlink:href="classdenoptim_1_1graph_1_1_fragment.html#a90fc66d07e071376ee45a32ab8a76020" target="_top" xlink:title="Checks if the atoms at the given positions have similar environments i.e.">
<polygon fill="white" stroke="black" points="595.5,-137.5 595.5,-167.5 750.5,-167.5 750.5,-137.5 595.5,-137.5"/>
<text text-anchor="start" x="603.5" y="-155.5" font-family="Helvetica,sans-Serif" font-size="10.00">denoptim.graph.Fragment.atoms</text>
<text text-anchor="middle" x="673" y="-144.5" font-family="Helvetica,sans-Serif" font-size="10.00">AreCompatible</text>
</a>
</g>
</g>
<!-- Node7&#45;&gt;Node9 -->
<g id="edge8" class="edge">
<title>Node7&#45;&gt;Node9</title>
<path fill="none" stroke="midnightblue" d="M539.94,-123.52C557.1,-127.29 575.66,-131.36 593.28,-135.22"/>
<polygon fill="midnightblue" stroke="midnightblue" points="593.01,-138.75 603.53,-137.47 594.51,-131.91 593.01,-138.75"/>
</g>
<!-- Node10 -->
<g id="node10" class="node">
<title>Node10</title>
<g id="a_node10"><a xlink:href="classdenoptim_1_1graph_1_1_a_p_class.html#a5cac5d20b70a0eace014ce062a271fbf" target="_top" xlink:title=" ">
<polygon fill="white" stroke="black" points="586,-99 586,-118 760,-118 760,-99 586,-99"/>
<text text-anchor="middle" x="673" y="-106" font-family="Helvetica,sans-Serif" font-size="10.00">denoptim.graph.APClass.compareTo</text>
</a>
</g>
</g>
<!-- Node7&#45;&gt;Node10 -->
<g id="edge9" class="edge">
<title>Node7&#45;&gt;Node10</title>
<path fill="none" stroke="midnightblue" d="M550.17,-108.5C558.6,-108.5 567.26,-108.5 575.87,-108.5"/>
<polygon fill="midnightblue" stroke="midnightblue" points="575.94,-112 585.94,-108.5 575.94,-105 575.94,-112"/>
</g>
<!-- Node11 -->
<g id="node11" class="node">
<title>Node11</title>
<g id="a_node11"><a xlink:href="classdenoptim_1_1graph_1_1_attachment_point.html#a31bed4cb29f6437bf8a888a1dda3fd95" target="_top" xlink:title="Returns the Attachment Point class.">
<polygon fill="white" stroke="black" points="605.5,-49.5 605.5,-79.5 740.5,-79.5 740.5,-49.5 605.5,-49.5"/>
<text text-anchor="start" x="613.5" y="-67.5" font-family="Helvetica,sans-Serif" font-size="10.00">denoptim.graph.Attachment</text>
<text text-anchor="middle" x="673" y="-56.5" font-family="Helvetica,sans-Serif" font-size="10.00">Point.getAPClass</text>
</a>
</g>
</g>
<!-- Node7&#45;&gt;Node11 -->
<g id="edge10" class="edge">
<title>Node7&#45;&gt;Node11</title>
<path fill="none" stroke="midnightblue" d="M539.94,-93.48C557.74,-89.57 577.04,-85.34 595.24,-81.34"/>
<polygon fill="midnightblue" stroke="midnightblue" points="596.21,-84.72 605.23,-79.15 594.71,-77.88 596.21,-84.72"/>
</g>
<!-- Node12 -->
<g id="node12" class="node">
<title>Node12</title>
<g id="a_node12"><a xlink:href="classdenoptim_1_1graph_1_1_attachment_point.html#a7e45846280a63bd2bf36b85e502ffa49" target="_top" xlink:title="The index of the source atom in the atom list of the fragment.">
<polygon fill="white" stroke="black" points="599,-0.5 599,-30.5 747,-30.5 747,-0.5 599,-0.5"/>
<text text-anchor="start" x="607" y="-18.5" font-family="Helvetica,sans-Serif" font-size="10.00">denoptim.graph.Attachment</text>
<text text-anchor="middle" x="673" y="-7.5" font-family="Helvetica,sans-Serif" font-size="10.00">Point.getAtomPositionNumber</text>
</a>
</g>
</g>
<!-- Node7&#45;&gt;Node12 -->
<g id="edge11" class="edge">
<title>Node7&#45;&gt;Node12</title>
<path fill="none" stroke="midnightblue" d="M533.53,-93.39C539.32,-90.86 544.91,-87.91 550,-84.5 570.98,-70.42 564.92,-54.43 586,-40.5 589.1,-38.45 592.37,-36.57 595.76,-34.83"/>
<polygon fill="midnightblue" stroke="midnightblue" points="597.32,-37.96 604.93,-30.59 594.39,-31.61 597.32,-37.96"/>
</g>
</g>
</svg>
