<?xml version="1.0" encoding="UTF-8" standalone="no"?>
<!DOCTYPE svg PUBLIC "-//W3C//DTD SVG 1.1//EN"
 "http://www.w3.org/Graphics/SVG/1.1/DTD/svg11.dtd">
<!-- Generated by graphviz version 3.0.0 (20221109.1736)
 -->
<!-- Title: denoptim.ga.EAUtils.makeGraphFromFragmentationOfMol Pages: 1 -->
<svg width="987pt" height="486pt"
 viewBox="0.00 0.00 987.00 485.50" xmlns="http://www.w3.org/2000/svg" xmlns:xlink="http://www.w3.org/1999/xlink">
<g id="graph0" class="graph" transform="scale(1 1) rotate(0) translate(4 481.5)">
<title>denoptim.ga.EAUtils.makeGraphFromFragmentationOfMol</title>
<polygon fill="white" stroke="transparent" points="-4,4 -4,-481.5 983,-481.5 983,4 -4,4"/>
<!-- Node1 -->
<g id="node1" class="node">
<title>Node1</title>
<g id="a_node1"><a xlink:title="Converts a molecule into a DGraph by fragmentation and re&#45;assembling of the fragments.">
<polygon fill="#bfbfbf" stroke="black" points="825,-246 825,-276 979,-276 979,-246 825,-246"/>
<text text-anchor="start" x="833" y="-264" font-family="Helvetica,sans-Serif" font-size="10.00">denoptim.ga.EAUtils.make</text>
<text text-anchor="middle" x="902" y="-253" font-family="Helvetica,sans-Serif" font-size="10.00">GraphFromFragmentationOfMol</text>
</a>
</g>
</g>
<!-- Node1&#45;&gt;Node1 -->
<g id="edge9" class="edge">
<title>Node1&#45;&gt;Node1</title>
<path fill="none" stroke="midnightblue" d="M938.25,-286.46C933.75,-291.18 921.67,-294.5 902,-294.5 869.73,-294.5 857.88,-285.56 866.45,-276.16"/>
<polygon fill="midnightblue" stroke="midnightblue" points="941.72,-285.9 937.55,-276.16 934.73,-286.37 941.72,-285.9"/>
</g>
<!-- Node2 -->
<g id="node2" class="node">
<title>Node2</title>
<g id="a_node2"><a xlink:href="classdenoptim_1_1gui_1_1_g_u_i_graph_handler.html#a2546eaac0cf6becaf10b56a1c929953a" target="_top" xlink:title=" ">
<polygon fill="white" stroke="black" points="604,-447 604,-477 789,-477 789,-447 604,-447"/>
<text text-anchor="start" x="612" y="-465" font-family="Helvetica,sans-Serif" font-size="10.00">denoptim.gui.GUIGraphHandler.append</text>
<text text-anchor="middle" x="696.5" y="-454" font-family="Helvetica,sans-Serif" font-size="10.00">GraphsFromConvertingMolecule</text>
</a>
</g>
</g>
<!-- Node1&#45;&gt;Node2 -->
<g id="edge1" class="edge">
<title>Node1&#45;&gt;Node2</title>
<path fill="none" stroke="midnightblue" d="M892.15,-285.52C877.05,-323.79 842.65,-397.44 789,-437 783.7,-440.91 777.82,-444.21 771.67,-446.99"/>
<polygon fill="midnightblue" stroke="midnightblue" points="895.42,-286.74 895.73,-276.15 888.89,-284.24 895.42,-286.74"/>
</g>
<!-- Node5 -->
<g id="node5" class="node">
<title>Node5</title>
<g id="a_node5"><a xlink:href="classdenoptim_1_1ga_1_1_e_a_utils.html#a8357317053a9158e81f78ffe6bd65688" target="_top" xlink:title="Generates a candidate by fragmenting a molecule and generating the graph that reconnects all fragment...">
<polygon fill="white" stroke="black" points="614.5,-398 614.5,-428 778.5,-428 778.5,-398 614.5,-398"/>
<text text-anchor="start" x="622.5" y="-416" font-family="Helvetica,sans-Serif" font-size="10.00">denoptim.ga.EAUtils.build</text>
<text text-anchor="middle" x="696.5" y="-405" font-family="Helvetica,sans-Serif" font-size="10.00">CandidateByFragmentingMolecule</text>
</a>
</g>
</g>
<!-- Node1&#45;&gt;Node5 -->
<g id="edge4" class="edge">
<title>Node1&#45;&gt;Node5</title>
<path fill="none" stroke="midnightblue" d="M886.41,-284.69C867.49,-313.43 831.77,-361.34 789,-388 782.85,-391.83 776.11,-395.09 769.17,-397.85"/>
<polygon fill="midnightblue" stroke="midnightblue" points="889.49,-286.38 891.96,-276.08 883.6,-282.59 889.49,-286.38"/>
</g>
<!-- Node10 -->
<g id="node10" class="node">
<title>Node10</title>
<g id="a_node10"><a xlink:href="classdenoptim_1_1programs_1_1mol2graph_1_1_mol2_graph.html#a55924e2fcd5c0081af56b98766d74ee1" target="_top" xlink:title=" ">
<polygon fill="white" stroke="black" points="622,-349 622,-379 771,-379 771,-349 622,-349"/>
<text text-anchor="start" x="630" y="-367" font-family="Helvetica,sans-Serif" font-size="10.00">denoptim.programs.mol2graph.</text>
<text text-anchor="middle" x="696.5" y="-356" font-family="Helvetica,sans-Serif" font-size="10.00">Mol2Graph.runProgram</text>
</a>
</g>
</g>
<!-- Node1&#45;&gt;Node10 -->
<g id="edge10" class="edge">
<title>Node1&#45;&gt;Node10</title>
<path fill="none" stroke="midnightblue" d="M875.79,-282.35C854.05,-299.8 821.16,-323.96 789,-339 780.95,-342.77 772.22,-346.06 763.46,-348.91"/>
<polygon fill="midnightblue" stroke="midnightblue" points="878.01,-285.05 883.55,-276.02 873.59,-279.63 878.01,-285.05"/>
</g>
<!-- Node11 -->
<g id="node11" class="node">
<title>Node11</title>
<g id="a_node11"><a xlink:href="classdenoptim_1_1ga_1_1_e_a_utils_test.html#a24f7c5614809e179869e3ff7f0915067" target="_top" xlink:title=" ">
<polygon fill="white" stroke="black" points="607.5,-300 607.5,-330 785.5,-330 785.5,-300 607.5,-300"/>
<text text-anchor="start" x="615.5" y="-318" font-family="Helvetica,sans-Serif" font-size="10.00">denoptim.ga.EAUtilsTest.test</text>
<text text-anchor="middle" x="696.5" y="-307" font-family="Helvetica,sans-Serif" font-size="10.00">MakeGraphFromFragmentationOfMol</text>
</a>
</g>
</g>
<!-- Node1&#45;&gt;Node11 -->
<g id="edge11" class="edge">
<title>Node1&#45;&gt;Node11</title>
<path fill="none" stroke="midnightblue" d="M835.34,-278.65C820.13,-282.72 804,-287.02 789,-291 778.05,-293.9 766.35,-296.99 755.11,-299.94"/>
<polygon fill="midnightblue" stroke="midnightblue" points="836.43,-281.98 845.19,-276.01 834.62,-275.22 836.43,-281.98"/>
</g>
<!-- Node12 -->
<g id="node12" class="node">
<title>Node12</title>
<g id="a_node12"><a xlink:href="classdenoptim_1_1ga_1_1_e_a_utils_test.html#abb412832863e26da831215369148565b" target="_top" xlink:title=" ">
<polygon fill="white" stroke="black" points="607.5,-240.5 607.5,-281.5 785.5,-281.5 785.5,-240.5 607.5,-240.5"/>
<text text-anchor="start" x="615.5" y="-269.5" font-family="Helvetica,sans-Serif" font-size="10.00">denoptim.ga.EAUtilsTest.test</text>
<text text-anchor="start" x="615.5" y="-258.5" font-family="Helvetica,sans-Serif" font-size="10.00">MakeGraphFromFragmentationOfMol</text>
<text text-anchor="middle" x="696.5" y="-247.5" font-family="Helvetica,sans-Serif" font-size="10.00">_cappingGroups</text>
</a>
</g>
</g>
<!-- Node1&#45;&gt;Node12 -->
<g id="edge12" class="edge">
<title>Node1&#45;&gt;Node12</title>
<path fill="none" stroke="midnightblue" d="M814.66,-261C805.12,-261 795.38,-261 785.81,-261"/>
<polygon fill="midnightblue" stroke="midnightblue" points="814.93,-264.5 824.93,-261 814.93,-257.5 814.93,-264.5"/>
</g>
<!-- Node13 -->
<g id="node13" class="node">
<title>Node13</title>
<g id="a_node13"><a xlink:href="classdenoptim_1_1ga_1_1_e_a_utils_test.html#a7aacd3106f0bd9b473ad774341985f4f" target="_top" xlink:title=" ">
<polygon fill="white" stroke="black" points="607.5,-180.5 607.5,-221.5 785.5,-221.5 785.5,-180.5 607.5,-180.5"/>
<text text-anchor="start" x="615.5" y="-209.5" font-family="Helvetica,sans-Serif" font-size="10.00">denoptim.ga.EAUtilsTest.test</text>
<text text-anchor="start" x="615.5" y="-198.5" font-family="Helvetica,sans-Serif" font-size="10.00">MakeGraphFromFragmentationOfMol</text>
<text text-anchor="middle" x="696.5" y="-187.5" font-family="Helvetica,sans-Serif" font-size="10.00">_linearities</text>
</a>
</g>
</g>
<!-- Node1&#45;&gt;Node13 -->
<g id="edge13" class="edge">
<title>Node1&#45;&gt;Node13</title>
<path fill="none" stroke="midnightblue" d="M840.27,-243.09C817.24,-236.3 790.85,-228.52 767.07,-221.51"/>
<polygon fill="midnightblue" stroke="midnightblue" points="839.33,-246.47 849.91,-245.94 841.31,-239.75 839.33,-246.47"/>
</g>
<!-- Node14 -->
<g id="node14" class="node">
<title>Node14</title>
<g id="a_node14"><a xlink:href="classdenoptim_1_1ga_1_1_e_a_utils_test.html#abcbac685a05d95293f9ed0c994337f96" target="_top" xlink:title=" ">
<polygon fill="white" stroke="black" points="607.5,-120.5 607.5,-161.5 785.5,-161.5 785.5,-120.5 607.5,-120.5"/>
<text text-anchor="start" x="615.5" y="-149.5" font-family="Helvetica,sans-Serif" font-size="10.00">denoptim.ga.EAUtilsTest.test</text>
<text text-anchor="start" x="615.5" y="-138.5" font-family="Helvetica,sans-Serif" font-size="10.00">MakeGraphFromFragmentationOfMol</text>
<text text-anchor="middle" x="696.5" y="-127.5" font-family="Helvetica,sans-Serif" font-size="10.00">_ScaffoldingPolicy</text>
</a>
</g>
</g>
<!-- Node1&#45;&gt;Node14 -->
<g id="edge14" class="edge">
<title>Node1&#45;&gt;Node14</title>
<path fill="none" stroke="midnightblue" d="M878.68,-238.97C857.25,-218.86 823.18,-189.53 789,-171 782.68,-167.57 775.9,-164.45 769,-161.63"/>
<polygon fill="midnightblue" stroke="midnightblue" points="876.33,-241.56 885.98,-245.92 881.16,-236.49 876.33,-241.56"/>
</g>
<!-- Node15 -->
<g id="node15" class="node">
<title>Node15</title>
<g id="a_node15"><a xlink:href="classdenoptim_1_1ga_1_1_e_a_utils_test.html#a85f73c095ad2eb848d44d9cff6de5f5d" target="_top" xlink:title=" ">
<polygon fill="white" stroke="black" points="607.5,-60.5 607.5,-101.5 785.5,-101.5 785.5,-60.5 607.5,-60.5"/>
<text text-anchor="start" x="615.5" y="-89.5" font-family="Helvetica,sans-Serif" font-size="10.00">denoptim.ga.EAUtilsTest.test</text>
<text text-anchor="start" x="615.5" y="-78.5" font-family="Helvetica,sans-Serif" font-size="10.00">MakeGraphFromFragmentationOfMol</text>
<text text-anchor="middle" x="696.5" y="-67.5" font-family="Helvetica,sans-Serif" font-size="10.00">_Symmetry</text>
</a>
</g>
</g>
<!-- Node1&#45;&gt;Node15 -->
<g id="edge15" class="edge">
<title>Node1&#45;&gt;Node15</title>
<path fill="none" stroke="midnightblue" d="M889.07,-236.82C871.57,-203.75 835.84,-144.66 789,-111 784.11,-107.49 778.79,-104.37 773.25,-101.61"/>
<polygon fill="midnightblue" stroke="midnightblue" points="886.02,-238.53 893.72,-245.81 892.24,-235.32 886.02,-238.53"/>
</g>
<!-- Node16 -->
<g id="node16" class="node">
<title>Node16</title>
<g id="a_node16"><a xlink:href="classdenoptim_1_1ga_1_1_e_a_utils_test.html#a69668d1501ae274745b223d93feae166" target="_top" xlink:title="Test the detection of &quot;some&quot; symmetry.">
<polygon fill="white" stroke="black" points="607.5,-0.5 607.5,-41.5 785.5,-41.5 785.5,-0.5 607.5,-0.5"/>
<text text-anchor="start" x="615.5" y="-29.5" font-family="Helvetica,sans-Serif" font-size="10.00">denoptim.ga.EAUtilsTest.test</text>
<text text-anchor="start" x="615.5" y="-18.5" font-family="Helvetica,sans-Serif" font-size="10.00">MakeGraphFromFragmentationOfMol</text>
<text text-anchor="middle" x="696.5" y="-7.5" font-family="Helvetica,sans-Serif" font-size="10.00">_symmetry</text>
</a>
</g>
</g>
<!-- Node1&#45;&gt;Node16 -->
<g id="edge16" class="edge">
<title>Node1&#45;&gt;Node16</title>
<path fill="none" stroke="midnightblue" d="M894.37,-235.97C881.47,-192.13 848.91,-101.34 789,-51 784.78,-47.45 780.12,-44.32 775.22,-41.55"/>
<polygon fill="midnightblue" stroke="midnightblue" points="891.06,-237.14 897.16,-245.81 897.79,-235.23 891.06,-237.14"/>
</g>
<!-- Node3 -->
<g id="node3" class="node">
<title>Node3</title>
<g id="a_node3"><a xlink:href="classdenoptim_1_1gui_1_1_g_u_i_graph_handler.html#af5b000c105018cbd7c262b34f9750044" target="_top" xlink:title="Initialize the panel and add buttons.">
<polygon fill="white" stroke="black" points="380,-452.5 380,-471.5 568,-471.5 568,-452.5 380,-452.5"/>
<text text-anchor="middle" x="474" y="-459.5" font-family="Helvetica,sans-Serif" font-size="10.00">denoptim.gui.GUIGraphHandler.initialize</text>
</a>
</g>
</g>
<!-- Node2&#45;&gt;Node3 -->
<g id="edge2" class="edge">
<title>Node2&#45;&gt;Node3</title>
<path fill="none" stroke="midnightblue" d="M593.86,-462C585.27,-462 576.61,-462 568.09,-462"/>
<polygon fill="midnightblue" stroke="midnightblue" points="593.9,-465.5 603.9,-462 593.9,-458.5 593.9,-465.5"/>
</g>
<!-- Node4 -->
<g id="node4" class="node">
<title>Node4</title>
<g id="a_node4"><a xlink:href="classdenoptim_1_1gui_1_1_g_u_i_graph_handler.html#ab7d010d9a384f6b85edce47c95d6723b" target="_top" xlink:title="Constructor.">
<polygon fill="white" stroke="black" points="190,-447 190,-477 344,-477 344,-447 190,-447"/>
<text text-anchor="start" x="198" y="-465" font-family="Helvetica,sans-Serif" font-size="10.00">denoptim.gui.GUIGraphHandler.</text>
<text text-anchor="middle" x="267" y="-454" font-family="Helvetica,sans-Serif" font-size="10.00">GUIGraphHandler</text>
</a>
</g>
</g>
<!-- Node3&#45;&gt;Node4 -->
<g id="edge3" class="edge">
<title>Node3&#45;&gt;Node4</title>
<path fill="none" stroke="midnightblue" d="M369.69,-462C361.07,-462 352.45,-462 344.09,-462"/>
<polygon fill="midnightblue" stroke="midnightblue" points="369.8,-465.5 379.8,-462 369.8,-458.5 369.8,-465.5"/>
</g>
<!-- Node6 -->
<g id="node6" class="node">
<title>Node6</title>
<g id="a_node6"><a xlink:href="classdenoptim_1_1ga_1_1_evolutionary_algorithm.html#ad43588620dab3340e0d8b0042ec73618" target="_top" xlink:title="Fills up the population with candidates build from scratch.">
<polygon fill="white" stroke="black" points="404,-398 404,-428 544,-428 544,-398 404,-398"/>
<text text-anchor="start" x="412" y="-416" font-family="Helvetica,sans-Serif" font-size="10.00">denoptim.ga.Evolutionary</text>
<text text-anchor="middle" x="474" y="-405" font-family="Helvetica,sans-Serif" font-size="10.00">Algorithm.initializePopulation</text>
</a>
</g>
</g>
<!-- Node5&#45;&gt;Node6 -->
<g id="edge5" class="edge">
<title>Node5&#45;&gt;Node6</title>
<path fill="none" stroke="midnightblue" d="M604.22,-413C584.1,-413 563.11,-413 544.04,-413"/>
<polygon fill="midnightblue" stroke="midnightblue" points="604.33,-416.5 614.33,-413 604.33,-409.5 604.33,-416.5"/>
</g>
<!-- Node7 -->
<g id="node7" class="node">
<title>Node7</title>
<g id="a_node7"><a xlink:href="classdenoptim_1_1ga_1_1_evolutionary_algorithm.html#a6bfc2fa59b199da6259b5b6bad3d6de7" target="_top" xlink:title=" ">
<polygon fill="white" stroke="black" points="205,-398 205,-428 329,-428 329,-398 205,-398"/>
<text text-anchor="start" x="213" y="-416" font-family="Helvetica,sans-Serif" font-size="10.00">denoptim.ga.Evolutionary</text>
<text text-anchor="middle" x="267" y="-405" font-family="Helvetica,sans-Serif" font-size="10.00">Algorithm.run</text>
</a>
</g>
</g>
<!-- Node6&#45;&gt;Node7 -->
<g id="edge6" class="edge">
<title>Node6&#45;&gt;Node7</title>
<path fill="none" stroke="midnightblue" d="M393.83,-413C372.4,-413 349.53,-413 329.26,-413"/>
<polygon fill="midnightblue" stroke="midnightblue" points="393.88,-416.5 403.88,-413 393.88,-409.5 393.88,-416.5"/>
</g>
<!-- Node8 -->
<g id="node8" class="node">
<title>Node8</title>
<g id="a_node8"><a xlink:href="classdenoptim_1_1ga_1_1_evolutionary_algorithm.html#a0f2063b722b7291daf83d62acaa683d3" target="_top" xlink:title=" ">
<polygon fill="white" stroke="black" points="0,-423 0,-453 154,-453 154,-423 0,-423"/>
<text text-anchor="start" x="8" y="-441" font-family="Helvetica,sans-Serif" font-size="10.00">denoptim.ga.Evolutionary</text>
<text text-anchor="middle" x="77" y="-430" font-family="Helvetica,sans-Serif" font-size="10.00">Algorithm.EvolutionaryAlgorithm</text>
</a>
</g>
</g>
<!-- Node7&#45;&gt;Node8 -->
<g id="edge7" class="edge">
<title>Node7&#45;&gt;Node8</title>
<path fill="none" stroke="midnightblue" d="M194.93,-422.45C181.62,-424.22 167.66,-426.08 154.2,-427.87"/>
<polygon fill="midnightblue" stroke="midnightblue" points="195.51,-425.9 204.96,-421.12 194.59,-418.97 195.51,-425.9"/>
</g>
<!-- Node9 -->
<g id="node9" class="node">
<title>Node9</title>
<g id="a_node9"><a xlink:href="classdenoptim_1_1programs_1_1denovo_1_1_g_a_runner.html#a7cafd6d78727b89dce3e2c8d06f0dd7c" target="_top" xlink:title=" ">
<polygon fill="white" stroke="black" points="9.5,-374 9.5,-404 144.5,-404 144.5,-374 9.5,-374"/>
<text text-anchor="start" x="17.5" y="-392" font-family="Helvetica,sans-Serif" font-size="10.00">denoptim.programs.denovo.</text>
<text text-anchor="middle" x="77" y="-381" font-family="Helvetica,sans-Serif" font-size="10.00">GARunner.runProgram</text>
</a>
</g>
</g>
<!-- Node7&#45;&gt;Node9 -->
<g id="edge8" class="edge">
<title>Node7&#45;&gt;Node9</title>
<path fill="none" stroke="midnightblue" d="M194.84,-403.92C178.35,-401.81 160.86,-399.58 144.58,-397.5"/>
<polygon fill="midnightblue" stroke="midnightblue" points="194.6,-407.41 204.96,-405.21 195.49,-400.47 194.6,-407.41"/>
</g>
</g>
</svg>
