<?xml version="1.0" encoding="UTF-8" standalone="no"?>
<!DOCTYPE svg PUBLIC "-//W3C//DTD SVG 1.1//EN"
 "http://www.w3.org/Graphics/SVG/1.1/DTD/svg11.dtd">
<!-- Generated by graphviz version 3.0.0 (20221109.1736)
 -->
<!-- Title: denoptim.io.IteratingAtomContainerReader.close Pages: 1 -->
<svg width="764pt" height="247pt"
 viewBox="0.00 0.00 764.00 246.50" xmlns="http://www.w3.org/2000/svg" xmlns:xlink="http://www.w3.org/1999/xlink">
<g id="graph0" class="graph" transform="scale(1 1) rotate(0) translate(4 242.5)">
<title>denoptim.io.IteratingAtomContainerReader.close</title>
<polygon fill="white" stroke="transparent" points="-4,4 -4,-242.5 760,-242.5 760,4 -4,4"/>
<!-- Node1 -->
<g id="node1" class="node">
<title>Node1</title>
<g id="a_node1"><a xlink:title="Close the memory&#45;efficient iterator if any is open.">
<polygon fill="#bfbfbf" stroke="black" points="629,-93 629,-123 756,-123 756,-93 629,-93"/>
<text text-anchor="start" x="637" y="-111" font-family="Helvetica,sans-Serif" font-size="10.00">denoptim.io.IteratingAtom</text>
<text text-anchor="middle" x="692.5" y="-100" font-family="Helvetica,sans-Serif" font-size="10.00">ContainerReader.close</text>
</a>
</g>
</g>
<!-- Node2 -->
<g id="node2" class="node">
<title>Node2</title>
<g id="a_node2"><a xlink:href="classdenoptim_1_1fragmenter_1_1_fragmenter_tools.html#afe25e249e1296a0a0d911a41e18bb2c2" target="_top" xlink:title="Performs fragmentation according to the given cutting rules.">
<polygon fill="white" stroke="black" points="433.5,-142 433.5,-172 590.5,-172 590.5,-142 433.5,-142"/>
<text text-anchor="start" x="441.5" y="-160" font-family="Helvetica,sans-Serif" font-size="10.00">denoptim.fragmenter.Fragmenter</text>
<text text-anchor="middle" x="512" y="-149" font-family="Helvetica,sans-Serif" font-size="10.00">Tools.fragmentation</text>
</a>
</g>
</g>
<!-- Node1&#45;&gt;Node2 -->
<g id="edge1" class="edge">
<title>Node1&#45;&gt;Node2</title>
<path fill="none" stroke="midnightblue" d="M626.58,-125.82C607.31,-131.11 586.4,-136.85 567.83,-141.95"/>
<polygon fill="midnightblue" stroke="midnightblue" points="627.77,-129.12 636.49,-123.1 625.92,-122.37 627.77,-129.12"/>
</g>
<!-- Node7 -->
<g id="node7" class="node">
<title>Node7</title>
<g id="a_node7"><a xlink:href="classdenoptim_1_1fragmenter_1_1_parallel_fragmentation_algorithm.html#ab9c7a6f840388b48f51387ff8ea9b64b" target="_top" xlink:title="Splits the input data (from FragmenterParameters) into batches suitable for parallel batch processing...">
<polygon fill="white" stroke="black" points="431,-60.5 431,-101.5 593,-101.5 593,-60.5 431,-60.5"/>
<text text-anchor="start" x="439" y="-89.5" font-family="Helvetica,sans-Serif" font-size="10.00">denoptim.fragmenter.Parallel</text>
<text text-anchor="start" x="439" y="-78.5" font-family="Helvetica,sans-Serif" font-size="10.00">FragmentationAlgorithm.splitInput</text>
<text text-anchor="middle" x="512" y="-67.5" font-family="Helvetica,sans-Serif" font-size="10.00">ForThreads</text>
</a>
</g>
</g>
<!-- Node1&#45;&gt;Node7 -->
<g id="edge7" class="edge">
<title>Node1&#45;&gt;Node7</title>
<path fill="none" stroke="midnightblue" d="M618.66,-96.98C610.23,-95.71 601.6,-94.4 593.08,-93.11"/>
<polygon fill="midnightblue" stroke="midnightblue" points="618.41,-100.48 628.82,-98.52 619.45,-93.56 618.41,-100.48"/>
</g>
<!-- Node2&#45;&gt;Node2 -->
<g id="edge3" class="edge">
<title>Node2&#45;&gt;Node2</title>
<path fill="none" stroke="midnightblue" d="M543.98,-182.46C540.01,-187.18 529.35,-190.5 512,-190.5 483.52,-190.5 473.07,-181.56 480.63,-172.16"/>
<polygon fill="midnightblue" stroke="midnightblue" points="547.46,-181.93 543.37,-172.16 540.47,-182.35 547.46,-181.93"/>
</g>
<!-- Node3 -->
<g id="node3" class="node">
<title>Node3</title>
<g id="a_node3"><a xlink:href="classdenoptim_1_1fragmenter_1_1_fragmenter_task.html#ad73de82da7bcd76c0159c2d5080682c4" target="_top" xlink:title="Performs the whatever work has to be done by this task.">
<polygon fill="white" stroke="black" points="218,-208 218,-238 375,-238 375,-208 218,-208"/>
<text text-anchor="start" x="226" y="-226" font-family="Helvetica,sans-Serif" font-size="10.00">denoptim.fragmenter.Fragmenter</text>
<text text-anchor="middle" x="296.5" y="-215" font-family="Helvetica,sans-Serif" font-size="10.00">Task.call</text>
</a>
</g>
</g>
<!-- Node2&#45;&gt;Node3 -->
<g id="edge2" class="edge">
<title>Node2&#45;&gt;Node3</title>
<path fill="none" stroke="midnightblue" d="M461.84,-175.46C441.32,-182.89 417.14,-191.26 395,-198 383.63,-201.46 371.42,-204.84 359.62,-207.95"/>
<polygon fill="midnightblue" stroke="midnightblue" points="463.1,-178.73 471.29,-172.02 460.7,-172.15 463.1,-178.73"/>
</g>
<!-- Node4 -->
<g id="node4" class="node">
<title>Node4</title>
<g id="a_node4"><a xlink:href="classdenoptim_1_1gui_1_1_g_u_i_vertex_inspector.html#acadecc92299a7ea46113c06382a1f333" target="_top" xlink:title="Initialize the panel and add buttons.">
<polygon fill="white" stroke="black" points="198,-169.5 198,-188.5 395,-188.5 395,-169.5 198,-169.5"/>
<text text-anchor="middle" x="296.5" y="-176.5" font-family="Helvetica,sans-Serif" font-size="10.00">denoptim.gui.GUIVertexInspector.initialize</text>
</a>
</g>
</g>
<!-- Node2&#45;&gt;Node4 -->
<g id="edge4" class="edge">
<title>Node2&#45;&gt;Node4</title>
<path fill="none" stroke="midnightblue" d="M423.32,-166.04C412.33,-167.17 401.07,-168.33 390.01,-169.47"/>
<polygon fill="midnightblue" stroke="midnightblue" points="423.73,-169.51 433.32,-165 423.01,-162.55 423.73,-169.51"/>
</g>
<!-- Node6 -->
<g id="node6" class="node">
<title>Node6</title>
<g id="a_node6"><a xlink:href="classdenoptim_1_1ga_1_1_e_a_utils.html#a18eb5d0ba6772e9116176ef6ca9f84fc" target="_top" xlink:title="Converts a molecule into a DGraph by fragmentation and re&#45;assembling of the fragments.">
<polygon fill="white" stroke="black" points="219.5,-120 219.5,-150 373.5,-150 373.5,-120 219.5,-120"/>
<text text-anchor="start" x="227.5" y="-138" font-family="Helvetica,sans-Serif" font-size="10.00">denoptim.ga.EAUtils.make</text>
<text text-anchor="middle" x="296.5" y="-127" font-family="Helvetica,sans-Serif" font-size="10.00">GraphFromFragmentationOfMol</text>
</a>
</g>
</g>
<!-- Node2&#45;&gt;Node6 -->
<g id="edge6" class="edge">
<title>Node2&#45;&gt;Node6</title>
<path fill="none" stroke="midnightblue" d="M423.19,-147.95C406.77,-146.26 389.73,-144.5 373.7,-142.85"/>
<polygon fill="midnightblue" stroke="midnightblue" points="423.01,-151.45 433.32,-149 423.73,-144.49 423.01,-151.45"/>
</g>
<!-- Node5 -->
<g id="node5" class="node">
<title>Node5</title>
<g id="a_node5"><a xlink:href="classdenoptim_1_1gui_1_1_g_u_i_vertex_inspector.html#abc5d3c33ad9b2b114ce43e9b2cd577bb" target="_top" xlink:title="Constructor.">
<polygon fill="white" stroke="black" points="0,-164 0,-194 162,-194 162,-164 0,-164"/>
<text text-anchor="start" x="8" y="-182" font-family="Helvetica,sans-Serif" font-size="10.00">denoptim.gui.GUIVertexInspector.</text>
<text text-anchor="middle" x="81" y="-171" font-family="Helvetica,sans-Serif" font-size="10.00">GUIVertexInspector</text>
</a>
</g>
</g>
<!-- Node4&#45;&gt;Node5 -->
<g id="edge5" class="edge">
<title>Node4&#45;&gt;Node5</title>
<path fill="none" stroke="midnightblue" d="M187.69,-179C179.06,-179 170.44,-179 162.05,-179"/>
<polygon fill="midnightblue" stroke="midnightblue" points="187.81,-182.5 197.81,-179 187.81,-175.5 187.81,-182.5"/>
</g>
<!-- Node8 -->
<g id="node8" class="node">
<title>Node8</title>
<g id="a_node8"><a xlink:href="classdenoptim_1_1fragmenter_1_1_parallel_fragmentation_algorithm.html#a13ae260c713d9b901a9aa71152c615ad" target="_top" xlink:title=" ">
<polygon fill="white" stroke="black" points="210.5,-60.5 210.5,-101.5 382.5,-101.5 382.5,-60.5 210.5,-60.5"/>
<text text-anchor="start" x="218.5" y="-89.5" font-family="Helvetica,sans-Serif" font-size="10.00">denoptim.fragmenter.Parallel</text>
<text text-anchor="start" x="218.5" y="-78.5" font-family="Helvetica,sans-Serif" font-size="10.00">FragmentationAlgorithm.doPreFlight</text>
<text text-anchor="middle" x="296.5" y="-67.5" font-family="Helvetica,sans-Serif" font-size="10.00">Operations</text>
</a>
</g>
</g>
<!-- Node7&#45;&gt;Node8 -->
<g id="edge8" class="edge">
<title>Node7&#45;&gt;Node8</title>
<path fill="none" stroke="midnightblue" d="M420.84,-81C408.2,-81 395.24,-81 382.7,-81"/>
<polygon fill="midnightblue" stroke="midnightblue" points="420.89,-84.5 430.89,-81 420.89,-77.5 420.89,-84.5"/>
</g>
<!-- Node9 -->
<g id="node9" class="node">
<title>Node9</title>
<g id="a_node9"><a xlink:href="classdenoptim_1_1fragmenter_1_1_parallel_fragmentation_algorithm_test.html#a11b2178cd3d55ba7f1fe1e0e047dd684" target="_top" xlink:title=" ">
<polygon fill="white" stroke="black" points="217.5,-0.5 217.5,-41.5 375.5,-41.5 375.5,-0.5 217.5,-0.5"/>
<text text-anchor="start" x="225.5" y="-29.5" font-family="Helvetica,sans-Serif" font-size="10.00">denoptim.fragmenter.Parallel</text>
<text text-anchor="start" x="225.5" y="-18.5" font-family="Helvetica,sans-Serif" font-size="10.00">FragmentationAlgorithmTest.test</text>
<text text-anchor="middle" x="296.5" y="-7.5" font-family="Helvetica,sans-Serif" font-size="10.00">SplitInputForThreads</text>
</a>
</g>
</g>
<!-- Node7&#45;&gt;Node9 -->
<g id="edge9" class="edge">
<title>Node7&#45;&gt;Node9</title>
<path fill="none" stroke="midnightblue" d="M428.03,-57.68C409.08,-52.36 389.08,-46.74 370.58,-41.54"/>
<polygon fill="midnightblue" stroke="midnightblue" points="427.25,-61.1 437.82,-60.44 429.14,-54.36 427.25,-61.1"/>
</g>
</g>
</svg>
