<?xml version="1.0" encoding="UTF-8" standalone="no"?>
<!DOCTYPE svg PUBLIC "-//W3C//DTD SVG 1.1//EN"
 "http://www.w3.org/Graphics/SVG/1.1/DTD/svg11.dtd">
<!-- Generated by graphviz version 3.0.0 (20221109.1736)
 -->
<!-- Title: denoptim.fragspace.FragmentSpace.getCappingLibrary Pages: 1 -->
<!--zoomable 1585 -->
<svg id="main" version="1.1" xmlns="http://www.w3.org/2000/svg" xmlns:xlink="http://www.w3.org/1999/xlink" xml:space="preserve" onload="init(evt)">
<style type="text/css"><![CDATA[
.edge:hover path { stroke: red; }
.edge:hover polygon { stroke: red; fill: red; }
]]></style>
<script type="text/javascript"><![CDATA[
var edges = document.getElementsByTagName('g');
if (edges && edges.length) {
  for (var i=0;i<edges.length;i++) {
    if (edges[i].id.substr(0,4)=='edge') {
      edges[i].setAttribute('class','edge');
    }
  }
}
]]></script>
        <defs>
                <circle id="rim" cx="0" cy="0" r="7"/>
                <circle id="rim2" cx="0" cy="0" r="3.5"/>
                <g id="zoomPlus">
                        <use xlink:href="#rim" fill="#404040">
                                <set attributeName="fill" to="#808080" begin="zoomplus.mouseover" end="zoomplus.mouseout"/>
                        </use>
                        <path d="M-4,0h8M0,-4v8" fill="none" stroke="white" stroke-width="1.5" pointer-events="none"/>
                </g>
                <g id="zoomMin">
                        <use xlink:href="#rim" fill="#404040">
                                <set attributeName="fill" to="#808080" begin="zoomminus.mouseover" end="zoomminus.mouseout"/>
                        </use>
                        <path d="M-4,0h8" fill="none" stroke="white" stroke-width="1.5" pointer-events="none"/>
                </g>
                <g id="dirArrow">
                        <path fill="none" stroke="white" stroke-width="1.5" d="M0,-3.0v7 M-2.5,-0.5L0,-3.0L2.5,-0.5"/>
                </g>
               <g id="resetDef">
                       <use xlink:href="#rim2" fill="#404040">
                               <set attributeName="fill" to="#808080" begin="reset.mouseover" end="reset.mouseout"/>
                       </use>
               </g>
        </defs>

<script type="text/javascript">
var viewWidth = 810;
var viewHeight = 1585;
var sectionId = 'dynsection-27';
</script>
<script xlink:href="svgpan.js"/>
<svg id="graph" class="graph">
<g id="viewport">
<title>denoptim.fragspace.FragmentSpace.getCappingLibrary</title>
<polygon fill="white" stroke="transparent" points="-4,4 -4,-1581 806,-1581 806,4 -4,4"/>
<!-- Node1 -->
<g id="node1" class="node">
<title>Node1</title>
<g id="a_node1"><a xlink:title=" ">
<polygon fill="#bfbfbf" stroke="black" points="657,-1497.5 657,-1527.5 802,-1527.5 802,-1497.5 657,-1497.5"/>
<text text-anchor="start" x="665" y="-1515.5" font-family="Helvetica,sans-Serif" font-size="10.00">denoptim.fragspace.Fragment</text>
<text text-anchor="middle" x="729.5" y="-1504.5" font-family="Helvetica,sans-Serif" font-size="10.00">Space.getCappingLibrary</text>
</a>
</g>
</g>
<!-- Node2 -->
<g id="node2" class="node">
<title>Node2</title>
<g id="a_node2"><a xlink:href="classdenoptim_1_1gui_1_1_g_u_i_graph_handler.html#a44e2ff798d22b73f966cb8393ceb4f18" target="_top" xlink:title="Extends the current graph by appending a node to a specific free AP on the growing graph.">
<polygon fill="white" stroke="black" points="434.5,-1546.5 434.5,-1576.5 616.5,-1576.5 616.5,-1546.5 434.5,-1546.5"/>
<text text-anchor="start" x="442.5" y="-1564.5" font-family="Helvetica,sans-Serif" font-size="10.00">denoptim.gui.GUIGraphHandler.extend</text>
<text text-anchor="middle" x="525.5" y="-1553.5" font-family="Helvetica,sans-Serif" font-size="10.00">GraphFromFragSpace</text>
</a>
</g>
</g>
<!-- Node1&#45;&gt;Node2 -->
<g id="edge1" class="edge">
<title>Node1&#45;&gt;Node2</title>
<path fill="none" stroke="midnightblue" d="M656.75,-1529.9C634.41,-1535.32 609.97,-1541.25 588.36,-1546.49"/>
<polygon fill="midnightblue" stroke="midnightblue" points="657.63,-1533.29 666.52,-1527.53 655.98,-1526.49 657.63,-1533.29"/>
</g>
<!-- Node5 -->
<g id="node5" class="node">
<title>Node5</title>
<g id="a_node5"><a xlink:href="classdenoptim_1_1fragspace_1_1_fragment_space.html#a88b65f0fd82b0938e951ffd42450095b" target="_top" xlink:title="Retrieve a list of compatible capping groups.">
<polygon fill="white" stroke="black" points="430,-1497.5 430,-1527.5 621,-1527.5 621,-1497.5 430,-1497.5"/>
<text text-anchor="start" x="438" y="-1515.5" font-family="Helvetica,sans-Serif" font-size="10.00">denoptim.fragspace.Fragment</text>
<text text-anchor="middle" x="525.5" y="-1504.5" font-family="Helvetica,sans-Serif" font-size="10.00">Space.getCompatibleCappingFragments</text>
</a>
</g>
</g>
<!-- Node1&#45;&gt;Node5 -->
<g id="edge4" class="edge">
<title>Node1&#45;&gt;Node5</title>
<path fill="none" stroke="midnightblue" d="M646.83,-1512.5C638.41,-1512.5 629.8,-1512.5 621.25,-1512.5"/>
<polygon fill="midnightblue" stroke="midnightblue" points="647,-1516 657,-1512.5 647,-1509 647,-1516"/>
</g>
<!-- Node7 -->
<g id="node7" class="node">
<title>Node7</title>
<g id="a_node7"><a xlink:href="classdenoptim_1_1graph_1_1_d_graph_test.html#a973ecea761d5353163750c8c82f41ac2" target="_top" xlink:title=" ">
<polygon fill="white" stroke="black" points="439.5,-771 439.5,-790 611.5,-790 611.5,-771 439.5,-771"/>
<text text-anchor="middle" x="525.5" y="-778" font-family="Helvetica,sans-Serif" font-size="10.00">denoptim.graph.DGraphTest.prepare</text>
</a>
</g>
</g>
<!-- Node1&#45;&gt;Node7 -->
<g id="edge6" class="edge">
<title>Node1&#45;&gt;Node7</title>
<path fill="none" stroke="midnightblue" d="M721.62,-1487.56C688.94,-1369.15 550.15,-866.2 529.16,-790.15"/>
<polygon fill="midnightblue" stroke="midnightblue" points="718.25,-1488.5 724.28,-1497.21 724.99,-1486.64 718.25,-1488.5"/>
</g>
<!-- Node3 -->
<g id="node3" class="node">
<title>Node3</title>
<g id="a_node3"><a xlink:href="classdenoptim_1_1gui_1_1_g_u_i_graph_handler.html#af5b000c105018cbd7c262b34f9750044" target="_top" xlink:title="Initialize the panel and add buttons.">
<polygon fill="white" stroke="black" points="198,-1552 198,-1571 386,-1571 386,-1552 198,-1552"/>
<text text-anchor="middle" x="292" y="-1559" font-family="Helvetica,sans-Serif" font-size="10.00">denoptim.gui.GUIGraphHandler.initialize</text>
</a>
</g>
</g>
<!-- Node2&#45;&gt;Node3 -->
<g id="edge2" class="edge">
<title>Node2&#45;&gt;Node3</title>
<path fill="none" stroke="midnightblue" d="M424.29,-1561.5C411.69,-1561.5 398.85,-1561.5 386.36,-1561.5"/>
<polygon fill="midnightblue" stroke="midnightblue" points="424.33,-1565 434.33,-1561.5 424.33,-1558 424.33,-1565"/>
</g>
<!-- Node4 -->
<g id="node4" class="node">
<title>Node4</title>
<g id="a_node4"><a xlink:href="classdenoptim_1_1gui_1_1_g_u_i_graph_handler.html#ab7d010d9a384f6b85edce47c95d6723b" target="_top" xlink:title="Constructor.">
<polygon fill="white" stroke="black" points="0,-1546.5 0,-1576.5 154,-1576.5 154,-1546.5 0,-1546.5"/>
<text text-anchor="start" x="8" y="-1564.5" font-family="Helvetica,sans-Serif" font-size="10.00">denoptim.gui.GUIGraphHandler.</text>
<text text-anchor="middle" x="77" y="-1553.5" font-family="Helvetica,sans-Serif" font-size="10.00">GUIGraphHandler</text>
</a>
</g>
</g>
<!-- Node3&#45;&gt;Node4 -->
<g id="edge3" class="edge">
<title>Node3&#45;&gt;Node4</title>
<path fill="none" stroke="midnightblue" d="M187.61,-1561.5C176.39,-1561.5 165.13,-1561.5 154.32,-1561.5"/>
<polygon fill="midnightblue" stroke="midnightblue" points="187.88,-1565 197.88,-1561.5 187.88,-1558 187.88,-1565"/>
</g>
<!-- Node6 -->
<g id="node6" class="node">
<title>Node6</title>
<g id="a_node6"><a xlink:href="classdenoptim_1_1fragspace_1_1_fragment_space.html#af556efa5109b1a7edfe10bdfcfdfdd00" target="_top" xlink:title="Select a compatible capping group for the given APClass.">
<polygon fill="white" stroke="black" points="219.5,-1500.5 219.5,-1530.5 364.5,-1530.5 364.5,-1500.5 219.5,-1500.5"/>
<text text-anchor="start" x="227.5" y="-1518.5" font-family="Helvetica,sans-Serif" font-size="10.00">denoptim.fragspace.Fragment</text>
<text text-anchor="middle" x="292" y="-1507.5" font-family="Helvetica,sans-Serif" font-size="10.00">Space.getCappingFragment</text>
</a>
</g>
</g>
<!-- Node5&#45;&gt;Node6 -->
<g id="edge5" class="edge">
<title>Node5&#45;&gt;Node6</title>
<path fill="none" stroke="midnightblue" d="M419.43,-1513.86C400.89,-1514.1 381.99,-1514.35 364.64,-1514.57"/>
<polygon fill="midnightblue" stroke="midnightblue" points="419.72,-1517.36 429.67,-1513.73 419.63,-1510.36 419.72,-1517.36"/>
</g>
<!-- Node8 -->
<g id="node8" class="node">
<title>Node8</title>
<g id="a_node8"><a xlink:href="classdenoptim_1_1graph_1_1_d_graph_test.html#a88c2fd8a1b401d9aa25bf85869bc28c7" target="_top" xlink:title=" ">
<polygon fill="white" stroke="black" points="190,-1451.5 190,-1481.5 394,-1481.5 394,-1451.5 190,-1451.5"/>
<text text-anchor="start" x="198" y="-1469.5" font-family="Helvetica,sans-Serif" font-size="10.00">denoptim.graph.DGraphTest.test</text>
<text text-anchor="middle" x="292" y="-1458.5" font-family="Helvetica,sans-Serif" font-size="10.00">ConvertSymmetricLabelsToSymmetricSets</text>
</a>
</g>
</g>
<!-- Node7&#45;&gt;Node8 -->
<g id="edge7" class="edge">
<title>Node7&#45;&gt;Node8</title>
<path fill="none" stroke="midnightblue" d="M523.41,-800.36C517.5,-900.24 486.18,-1346.68 394,-1442.5 390.75,-1445.88 387.12,-1448.82 383.22,-1451.37"/>
<polygon fill="midnightblue" stroke="midnightblue" points="526.91,-800.35 523.99,-790.17 519.92,-799.95 526.91,-800.35"/>
</g>
<!-- Node9 -->
<g id="node9" class="node">
<title>Node9</title>
<g id="a_node9"><a xlink:href="classdenoptim_1_1graph_1_1_d_graph_test.html#a05b87ffb43b9710fcea83b0777654e27" target="_top" xlink:title=" ">
<polygon fill="white" stroke="black" points="214,-1402.5 214,-1432.5 370,-1432.5 370,-1402.5 214,-1402.5"/>
<text text-anchor="start" x="222" y="-1420.5" font-family="Helvetica,sans-Serif" font-size="10.00">denoptim.graph.DGraphTest.test</text>
<text text-anchor="middle" x="292" y="-1409.5" font-family="Helvetica,sans-Serif" font-size="10.00">DetectSymVertexSets</text>
</a>
</g>
</g>
<!-- Node7&#45;&gt;Node9 -->
<g id="edge8" class="edge">
<title>Node7&#45;&gt;Node9</title>
<path fill="none" stroke="midnightblue" d="M523.07,-800.39C515.78,-895.79 479.84,-1305.61 394,-1393.5 387.33,-1400.33 379.09,-1405.37 370.21,-1409.05"/>
<polygon fill="midnightblue" stroke="midnightblue" points="526.56,-800.58 523.81,-790.35 519.58,-800.06 526.56,-800.58"/>
</g>
<!-- Node10 -->
<g id="node10" class="node">
<title>Node10</title>
<g id="a_node10"><a xlink:href="classdenoptim_1_1graph_1_1_d_graph_test.html#aa9ebd151440fb02ddfa82c194ba5cf27" target="_top" xlink:title=" ">
<polygon fill="white" stroke="black" points="214,-1353.5 214,-1383.5 370,-1383.5 370,-1353.5 214,-1353.5"/>
<text text-anchor="start" x="222" y="-1371.5" font-family="Helvetica,sans-Serif" font-size="10.00">denoptim.graph.DGraphTest.test</text>
<text text-anchor="middle" x="292" y="-1360.5" font-family="Helvetica,sans-Serif" font-size="10.00">EmbedPatternsInTemplates</text>
</a>
</g>
</g>
<!-- Node7&#45;&gt;Node10 -->
<g id="edge9" class="edge">
<title>Node7&#45;&gt;Node10</title>
<path fill="none" stroke="midnightblue" d="M522.66,-800.5C513.9,-891.39 473.5,-1264.53 394,-1344.5 387.27,-1351.27 378.99,-1356.27 370.1,-1359.94"/>
<polygon fill="midnightblue" stroke="midnightblue" points="526.16,-800.72 523.61,-790.43 519.19,-800.06 526.16,-800.72"/>
</g>
<!-- Node11 -->
<g id="node11" class="node">
<title>Node11</title>
<g id="a_node11"><a xlink:href="classdenoptim_1_1graph_1_1_d_graph_test.html#a1096d97bec742c5855b75231ea7a9e7c" target="_top" xlink:title=" ">
<polygon fill="white" stroke="black" points="214,-1304.5 214,-1334.5 370,-1334.5 370,-1304.5 214,-1304.5"/>
<text text-anchor="start" x="222" y="-1322.5" font-family="Helvetica,sans-Serif" font-size="10.00">denoptim.graph.DGraphTest.test</text>
<text text-anchor="middle" x="292" y="-1311.5" font-family="Helvetica,sans-Serif" font-size="10.00">ExploreGraph_simpleGraph</text>
</a>
</g>
</g>
<!-- Node7&#45;&gt;Node11 -->
<g id="edge10" class="edge">
<title>Node7&#45;&gt;Node11</title>
<path fill="none" stroke="midnightblue" d="M522.2,-800.38C511.91,-886.14 467.26,-1223.33 394,-1295.5 387.26,-1302.14 379.04,-1307.07 370.22,-1310.7"/>
<polygon fill="midnightblue" stroke="midnightblue" points="525.69,-800.74 523.38,-790.4 518.73,-799.92 525.69,-800.74"/>
</g>
<!-- Node12 -->
<g id="node12" class="node">
<title>Node12</title>
<g id="a_node12"><a xlink:href="classdenoptim_1_1graph_1_1_d_graph_test.html#a6b4a7a889a0e36c8b2dc97bcd8055c9e" target="_top" xlink:title=" ">
<polygon fill="white" stroke="black" points="214,-1255.5 214,-1285.5 370,-1285.5 370,-1255.5 214,-1255.5"/>
<text text-anchor="start" x="222" y="-1273.5" font-family="Helvetica,sans-Serif" font-size="10.00">denoptim.graph.DGraphTest.test</text>
<text text-anchor="middle" x="292" y="-1262.5" font-family="Helvetica,sans-Serif" font-size="10.00">ExtractSubgraph</text>
</a>
</g>
</g>
<!-- Node7&#45;&gt;Node12 -->
<g id="edge11" class="edge">
<title>Node7&#45;&gt;Node12</title>
<path fill="none" stroke="midnightblue" d="M521.62,-800.51C509.61,-881.28 460.98,-1182.14 394,-1246.5 387.18,-1253.06 378.91,-1257.93 370.07,-1261.54"/>
<polygon fill="midnightblue" stroke="midnightblue" points="525.14,-800.64 523.13,-790.24 518.21,-799.63 525.14,-800.64"/>
</g>
<!-- Node13 -->
<g id="node13" class="node">
<title>Node13</title>
<g id="a_node13"><a xlink:href="classdenoptim_1_1graph_1_1_d_graph_test.html#a487a63ee35e943451ab84845de3982b1" target="_top" xlink:title=" ">
<polygon fill="white" stroke="black" points="214,-1206.5 214,-1236.5 370,-1236.5 370,-1206.5 214,-1206.5"/>
<text text-anchor="start" x="222" y="-1224.5" font-family="Helvetica,sans-Serif" font-size="10.00">denoptim.graph.DGraphTest.test</text>
<text text-anchor="middle" x="292" y="-1213.5" font-family="Helvetica,sans-Serif" font-size="10.00">ExtractSubgraphFromCollection</text>
</a>
</g>
</g>
<!-- Node7&#45;&gt;Node13 -->
<g id="edge12" class="edge">
<title>Node7&#45;&gt;Node13</title>
<path fill="none" stroke="midnightblue" d="M524.71,-800.52C524.27,-867.57 513.34,-1086.24 394,-1197.5 387.15,-1203.89 378.91,-1208.68 370.13,-1212.24"/>
<polygon fill="midnightblue" stroke="midnightblue" points="528.21,-800.14 524.7,-790.14 521.21,-800.15 528.21,-800.14"/>
</g>
<!-- Node14 -->
<g id="node14" class="node">
<title>Node14</title>
<g id="a_node14"><a xlink:href="classdenoptim_1_1graph_1_1_d_graph_test.html#a58da23a0d5e884652fecf95eac4995ad" target="_top" xlink:title=" ">
<polygon fill="white" stroke="black" points="214,-1157.5 214,-1187.5 370,-1187.5 370,-1157.5 214,-1157.5"/>
<text text-anchor="start" x="222" y="-1175.5" font-family="Helvetica,sans-Serif" font-size="10.00">denoptim.graph.DGraphTest.test</text>
<text text-anchor="middle" x="292" y="-1164.5" font-family="Helvetica,sans-Serif" font-size="10.00">GetChildrenTree</text>
</a>
</g>
</g>
<!-- Node7&#45;&gt;Node14 -->
<g id="edge13" class="edge">
<title>Node7&#45;&gt;Node14</title>
<path fill="none" stroke="midnightblue" d="M523.75,-800.59C520.31,-862.56 501.09,-1052.34 394,-1148.5 387.09,-1154.7 378.88,-1159.38 370.16,-1162.89"/>
<polygon fill="midnightblue" stroke="midnightblue" points="527.26,-800.41 524.24,-790.26 520.27,-800.08 527.26,-800.41"/>
</g>
<!-- Node15 -->
<g id="node15" class="node">
<title>Node15</title>
<g id="a_node15"><a xlink:href="classdenoptim_1_1graph_1_1_d_graph_test.html#abfaf918deddf6407a4b1916c06a8c412" target="_top" xlink:title=" ">
<polygon fill="white" stroke="black" points="205,-1108.5 205,-1138.5 379,-1138.5 379,-1108.5 205,-1108.5"/>
<text text-anchor="start" x="213" y="-1126.5" font-family="Helvetica,sans-Serif" font-size="10.00">denoptim.graph.DGraphTest.test</text>
<text text-anchor="middle" x="292" y="-1115.5" font-family="Helvetica,sans-Serif" font-size="10.00">GetChildrenTreeWithBranchIdentifier</text>
</a>
</g>
</g>
<!-- Node7&#45;&gt;Node15 -->
<g id="edge14" class="edge">
<title>Node7&#45;&gt;Node15</title>
<path fill="none" stroke="midnightblue" d="M522.58,-800.13C516.01,-856.15 489.27,-1017.96 394,-1099.5 389.48,-1103.37 384.45,-1106.64 379.11,-1109.4"/>
<polygon fill="midnightblue" stroke="midnightblue" points="526.07,-800.44 523.67,-790.12 519.11,-799.69 526.07,-800.44"/>
</g>
<!-- Node16 -->
<g id="node16" class="node">
<title>Node16</title>
<g id="a_node16"><a xlink:href="classdenoptim_1_1graph_1_1_d_graph_test.html#a3c2936a80e6e37238b4ce5c5e66f3351" target="_top" xlink:title=" ">
<polygon fill="white" stroke="black" points="214,-1059.5 214,-1089.5 370,-1089.5 370,-1059.5 214,-1059.5"/>
<text text-anchor="start" x="222" y="-1077.5" font-family="Helvetica,sans-Serif" font-size="10.00">denoptim.graph.DGraphTest.test</text>
<text text-anchor="middle" x="292" y="-1066.5" font-family="Helvetica,sans-Serif" font-size="10.00">GetEdgesWithSrcOrTrg</text>
</a>
</g>
</g>
<!-- Node7&#45;&gt;Node16 -->
<g id="edge15" class="edge">
<title>Node7&#45;&gt;Node16</title>
<path fill="none" stroke="midnightblue" d="M521,-800.08C510.98,-850.13 477.38,-983.49 394,-1050.5 386.91,-1056.2 378.68,-1060.59 370.04,-1063.95"/>
<polygon fill="midnightblue" stroke="midnightblue" points="524.44,-800.7 522.88,-790.22 517.57,-799.39 524.44,-800.7"/>
</g>
<!-- Node17 -->
<g id="node17" class="node">
<title>Node17</title>
<g id="a_node17"><a xlink:href="classdenoptim_1_1graph_1_1_d_graph_test.html#abbd9f77ca8e1f7b733ca74bce6ccad28" target="_top" xlink:title=" ">
<polygon fill="white" stroke="black" points="214,-1010.5 214,-1040.5 370,-1040.5 370,-1010.5 214,-1010.5"/>
<text text-anchor="start" x="222" y="-1028.5" font-family="Helvetica,sans-Serif" font-size="10.00">denoptim.graph.DGraphTest.test</text>
<text text-anchor="middle" x="292" y="-1017.5" font-family="Helvetica,sans-Serif" font-size="10.00">GetEmbeddedGraphInClone</text>
</a>
</g>
</g>
<!-- Node7&#45;&gt;Node17 -->
<g id="edge16" class="edge">
<title>Node7&#45;&gt;Node17</title>
<path fill="none" stroke="midnightblue" d="M518.8,-799.98C505.05,-843.43 465.74,-948.6 394,-1001.5 386.82,-1006.79 378.64,-1010.94 370.12,-1014.18"/>
<polygon fill="midnightblue" stroke="midnightblue" points="522.18,-800.92 521.76,-790.33 515.48,-798.87 522.18,-800.92"/>
</g>
<!-- Node18 -->
<g id="node18" class="node">
<title>Node18</title>
<g id="a_node18"><a xlink:href="classdenoptim_1_1graph_1_1_d_graph_test.html#a14c5ab7724f5d78b6c721b6e24e3a588" target="_top" xlink:title=" ">
<polygon fill="white" stroke="black" points="214,-961.5 214,-991.5 370,-991.5 370,-961.5 214,-961.5"/>
<text text-anchor="start" x="222" y="-979.5" font-family="Helvetica,sans-Serif" font-size="10.00">denoptim.graph.DGraphTest.test</text>
<text text-anchor="middle" x="292" y="-968.5" font-family="Helvetica,sans-Serif" font-size="10.00">GetEmbeddingPath</text>
</a>
</g>
</g>
<!-- Node7&#45;&gt;Node18 -->
<g id="edge17" class="edge">
<title>Node7&#45;&gt;Node18</title>
<path fill="none" stroke="midnightblue" d="M515.68,-799.47C497.98,-835.34 454.6,-913.01 394,-952.5 386.68,-957.27 378.5,-961.1 370.06,-964.16"/>
<polygon fill="midnightblue" stroke="midnightblue" points="518.98,-800.68 520.16,-790.15 512.67,-797.65 518.98,-800.68"/>
</g>
<!-- Node19 -->
<g id="node19" class="node">
<title>Node19</title>
<g id="a_node19"><a xlink:href="classdenoptim_1_1graph_1_1_d_graph_test.html#a67cac5083662b518183810d74bb901d6" target="_top" xlink:title=" ">
<polygon fill="white" stroke="black" points="214,-912.5 214,-942.5 370,-942.5 370,-912.5 214,-912.5"/>
<text text-anchor="start" x="222" y="-930.5" font-family="Helvetica,sans-Serif" font-size="10.00">denoptim.graph.DGraphTest.test</text>
<text text-anchor="middle" x="292" y="-919.5" font-family="Helvetica,sans-Serif" font-size="10.00">GetInterfaceAPs</text>
</a>
</g>
</g>
<!-- Node7&#45;&gt;Node19 -->
<g id="edge18" class="edge">
<title>Node7&#45;&gt;Node19</title>
<path fill="none" stroke="midnightblue" d="M510.73,-798.48C488.98,-825.57 443.98,-876.55 394,-903.5 386.54,-907.52 378.42,-910.87 370.13,-913.67"/>
<polygon fill="midnightblue" stroke="midnightblue" points="513.75,-800.3 517.19,-790.28 508.25,-795.97 513.75,-800.3"/>
</g>
<!-- Node20 -->
<g id="node20" class="node">
<title>Node20</title>
<g id="a_node20"><a xlink:href="classdenoptim_1_1graph_1_1_d_graph_test.html#a7a211a2f8477d88f90d85d6ab26c25e3" target="_top" xlink:title=" ">
<polygon fill="white" stroke="black" points="214,-863.5 214,-893.5 370,-893.5 370,-863.5 214,-863.5"/>
<text text-anchor="start" x="222" y="-881.5" font-family="Helvetica,sans-Serif" font-size="10.00">denoptim.graph.DGraphTest.test</text>
<text text-anchor="middle" x="292" y="-870.5" font-family="Helvetica,sans-Serif" font-size="10.00">GetLevel</text>
</a>
</g>
</g>
<!-- Node7&#45;&gt;Node20 -->
<g id="edge19" class="edge">
<title>Node7&#45;&gt;Node20</title>
<path fill="none" stroke="midnightblue" d="M502.22,-795.75C476.99,-812.37 434.15,-838.71 394,-854.5 385.45,-857.86 376.29,-860.84 367.12,-863.45"/>
<polygon fill="midnightblue" stroke="midnightblue" points="504.3,-798.56 510.68,-790.1 500.42,-792.74 504.3,-798.56"/>
</g>
<!-- Node21 -->
<g id="node21" class="node">
<title>Node21</title>
<g id="a_node21"><a xlink:href="classdenoptim_1_1graph_1_1_d_graph_test.html#a428fb92fa7fcf1312fc2eb81cf7fac4f" target="_top" xlink:title=" ">
<polygon fill="white" stroke="black" points="214,-814.5 214,-844.5 370,-844.5 370,-814.5 214,-814.5"/>
<text text-anchor="start" x="222" y="-832.5" font-family="Helvetica,sans-Serif" font-size="10.00">denoptim.graph.DGraphTest.test</text>
<text text-anchor="middle" x="292" y="-821.5" font-family="Helvetica,sans-Serif" font-size="10.00">GetSourceVertex</text>
</a>
</g>
</g>
<!-- Node7&#45;&gt;Node21 -->
<g id="edge20" class="edge">
<title>Node7&#45;&gt;Node21</title>
<path fill="none" stroke="midnightblue" d="M469.66,-792.11C438.13,-798.78 398.15,-807.24 364.2,-814.43"/>
<polygon fill="midnightblue" stroke="midnightblue" points="470.53,-795.5 479.59,-790.01 469.08,-788.65 470.53,-795.5"/>
</g>
<!-- Node22 -->
<g id="node22" class="node">
<title>Node22</title>
<g id="a_node22"><a xlink:href="classdenoptim_1_1graph_1_1_d_graph_test.html#afa69d04d566adebf5cf8873815074713" target="_top" xlink:title=" ">
<polygon fill="white" stroke="black" points="214,-765.5 214,-795.5 370,-795.5 370,-765.5 214,-765.5"/>
<text text-anchor="start" x="222" y="-783.5" font-family="Helvetica,sans-Serif" font-size="10.00">denoptim.graph.DGraphTest.test</text>
<text text-anchor="middle" x="292" y="-772.5" font-family="Helvetica,sans-Serif" font-size="10.00">GetSubgraphAPs</text>
</a>
</g>
</g>
<!-- Node7&#45;&gt;Node22 -->
<g id="edge21" class="edge">
<title>Node7&#45;&gt;Node22</title>
<path fill="none" stroke="midnightblue" d="M429.14,-780.5C409.58,-780.5 389.21,-780.5 370.37,-780.5"/>
<polygon fill="midnightblue" stroke="midnightblue" points="429.28,-784 439.28,-780.5 429.28,-777 429.28,-784"/>
</g>
<!-- Node23 -->
<g id="node23" class="node">
<title>Node23</title>
<g id="a_node23"><a xlink:href="classdenoptim_1_1graph_1_1_d_graph_test.html#ac09e961280beb2c61cc88ce1b4bccd3f" target="_top" xlink:title=" ">
<polygon fill="white" stroke="black" points="214,-716.5 214,-746.5 370,-746.5 370,-716.5 214,-716.5"/>
<text text-anchor="start" x="222" y="-734.5" font-family="Helvetica,sans-Serif" font-size="10.00">denoptim.graph.DGraphTest.test</text>
<text text-anchor="middle" x="292" y="-723.5" font-family="Helvetica,sans-Serif" font-size="10.00">GetSymmetricSubGraphs</text>
</a>
</g>
</g>
<!-- Node7&#45;&gt;Node23 -->
<g id="edge22" class="edge">
<title>Node7&#45;&gt;Node23</title>
<path fill="none" stroke="midnightblue" d="M469.66,-768.89C438.13,-762.22 398.15,-753.76 364.2,-746.57"/>
<polygon fill="midnightblue" stroke="midnightblue" points="469.08,-772.35 479.59,-770.99 470.53,-765.5 469.08,-772.35"/>
</g>
<!-- Node24 -->
<g id="node24" class="node">
<title>Node24</title>
<g id="a_node24"><a xlink:href="classdenoptim_1_1graph_1_1_d_graph_test.html#a4a6137bf8f53f09401af94a6bd93f4dc" target="_top" xlink:title=" ">
<polygon fill="white" stroke="black" points="214,-667.5 214,-697.5 370,-697.5 370,-667.5 214,-667.5"/>
<text text-anchor="start" x="222" y="-685.5" font-family="Helvetica,sans-Serif" font-size="10.00">denoptim.graph.DGraphTest.test</text>
<text text-anchor="middle" x="292" y="-674.5" font-family="Helvetica,sans-Serif" font-size="10.00">GetVertexAnyLevel</text>
</a>
</g>
</g>
<!-- Node7&#45;&gt;Node24 -->
<g id="edge23" class="edge">
<title>Node7&#45;&gt;Node24</title>
<path fill="none" stroke="midnightblue" d="M501.75,-765.28C476.41,-748.94 433.78,-723.22 394,-707.5 384.51,-703.75 374.29,-700.44 364.12,-697.55"/>
<polygon fill="midnightblue" stroke="midnightblue" points="499.97,-768.31 510.26,-770.84 503.8,-762.44 499.97,-768.31"/>
</g>
<!-- Node25 -->
<g id="node25" class="node">
<title>Node25</title>
<g id="a_node25"><a xlink:href="classdenoptim_1_1graph_1_1_d_graph_test.html#a02791a3f61db5dd584dec5c3995ec72c" target="_top" xlink:title=" ">
<polygon fill="white" stroke="black" points="214,-618.5 214,-648.5 370,-648.5 370,-618.5 214,-618.5"/>
<text text-anchor="start" x="222" y="-636.5" font-family="Helvetica,sans-Serif" font-size="10.00">denoptim.graph.DGraphTest.test</text>
<text text-anchor="middle" x="292" y="-625.5" font-family="Helvetica,sans-Serif" font-size="10.00">GraphIsomorphism</text>
</a>
</g>
</g>
<!-- Node7&#45;&gt;Node25 -->
<g id="edge24" class="edge">
<title>Node7&#45;&gt;Node25</title>
<path fill="none" stroke="midnightblue" d="M510.67,-762.73C488.83,-735.94 443.72,-685.48 394,-658.5 386.54,-654.45 378.41,-651.05 370.12,-648.18"/>
<polygon fill="midnightblue" stroke="midnightblue" points="508.17,-765.22 517.15,-770.84 513.64,-760.84 508.17,-765.22"/>
</g>
<!-- Node26 -->
<g id="node26" class="node">
<title>Node26</title>
<g id="a_node26"><a xlink:href="classdenoptim_1_1graph_1_1_d_graph_test.html#a2a0dc529e97e433ef5df472916def13e" target="_top" xlink:title=" ">
<polygon fill="white" stroke="black" points="214,-569.5 214,-599.5 370,-599.5 370,-569.5 214,-569.5"/>
<text text-anchor="start" x="222" y="-587.5" font-family="Helvetica,sans-Serif" font-size="10.00">denoptim.graph.DGraphTest.test</text>
<text text-anchor="middle" x="292" y="-576.5" font-family="Helvetica,sans-Serif" font-size="10.00">IsConnected</text>
</a>
</g>
</g>
<!-- Node7&#45;&gt;Node26 -->
<g id="edge25" class="edge">
<title>Node7&#45;&gt;Node26</title>
<path fill="none" stroke="midnightblue" d="M515.61,-761.69C497.81,-726.12 454.24,-649.04 394,-609.5 386.68,-604.69 378.5,-600.81 370.06,-597.67"/>
<polygon fill="midnightblue" stroke="midnightblue" points="512.59,-763.48 520.13,-770.93 518.89,-760.41 512.59,-763.48"/>
</g>
<!-- Node27 -->
<g id="node27" class="node">
<title>Node27</title>
<g id="a_node27"><a xlink:href="classdenoptim_1_1graph_1_1_d_graph_test.html#aea227d615f6c2f3bac5839a8099a900d" target="_top" xlink:title=" ">
<polygon fill="white" stroke="black" points="214,-520.5 214,-550.5 370,-550.5 370,-520.5 214,-520.5"/>
<text text-anchor="start" x="222" y="-538.5" font-family="Helvetica,sans-Serif" font-size="10.00">denoptim.graph.DGraphTest.test</text>
<text text-anchor="middle" x="292" y="-527.5" font-family="Helvetica,sans-Serif" font-size="10.00">IsIsostructuralTo</text>
</a>
</g>
</g>
<!-- Node7&#45;&gt;Node27 -->
<g id="edge26" class="edge">
<title>Node7&#45;&gt;Node27</title>
<path fill="none" stroke="midnightblue" d="M518.74,-761.16C504.86,-718 465.31,-613.48 394,-560.5 386.82,-555.17 378.64,-550.96 370.12,-547.65"/>
<polygon fill="midnightblue" stroke="midnightblue" points="515.41,-762.23 521.72,-770.74 522.09,-760.15 515.41,-762.23"/>
</g>
<!-- Node28 -->
<g id="node28" class="node">
<title>Node28</title>
<g id="a_node28"><a xlink:href="classdenoptim_1_1graph_1_1rings_1_1_path_sub_graph_test.html#ac0d95ed14aa60a9428a0e6ef73440c94" target="_top" xlink:title=" ">
<polygon fill="white" stroke="black" points="199,-461 199,-502 385,-502 385,-461 199,-461"/>
<text text-anchor="start" x="207" y="-490" font-family="Helvetica,sans-Serif" font-size="10.00">denoptim.graph.rings.Path</text>
<text text-anchor="start" x="207" y="-479" font-family="Helvetica,sans-Serif" font-size="10.00">SubGraphTest.testMakePathSubGraph</text>
<text text-anchor="middle" x="292" y="-468" font-family="Helvetica,sans-Serif" font-size="10.00">_differentBranch</text>
</a>
</g>
</g>
<!-- Node7&#45;&gt;Node28 -->
<g id="edge27" class="edge">
<title>Node7&#45;&gt;Node28</title>
<path fill="none" stroke="midnightblue" d="M520.69,-760.95C510.01,-711.47 475.13,-580.38 394,-511.5 389.82,-507.95 385.23,-504.82 380.38,-502.06"/>
<polygon fill="midnightblue" stroke="midnightblue" points="517.3,-761.87 522.75,-770.95 524.16,-760.45 517.3,-761.87"/>
</g>
<!-- Node29 -->
<g id="node29" class="node">
<title>Node29</title>
<g id="a_node29"><a xlink:href="classdenoptim_1_1ga_1_1_xover_site_test.html#a3936ca2cfc1bb9ace410f7f47ad2c1f2" target="_top" xlink:title=" ">
<polygon fill="white" stroke="black" points="216,-412.5 216,-442.5 368,-442.5 368,-412.5 216,-412.5"/>
<text text-anchor="start" x="224" y="-430.5" font-family="Helvetica,sans-Serif" font-size="10.00">denoptim.ga.XoverSiteTest.test</text>
<text text-anchor="middle" x="292" y="-419.5" font-family="Helvetica,sans-Serif" font-size="10.00">ProjectToClonedGraphs</text>
</a>
</g>
</g>
<!-- Node7&#45;&gt;Node29 -->
<g id="edge28" class="edge">
<title>Node7&#45;&gt;Node29</title>
<path fill="none" stroke="midnightblue" d="M522.83,-760.65C516.89,-703.28 491.6,-535.94 394,-451.5 386.5,-445.01 377.57,-440.21 368.15,-436.66"/>
<polygon fill="midnightblue" stroke="midnightblue" points="519.37,-761.26 523.8,-770.88 526.34,-760.6 519.37,-761.26"/>
</g>
<!-- Node30 -->
<g id="node30" class="node">
<title>Node30</title>
<g id="a_node30"><a xlink:href="classdenoptim_1_1graph_1_1_d_graph_test.html#a75784f0e5c219c9bae7d4c84054de8fd" target="_top" xlink:title=" ">
<polygon fill="white" stroke="black" points="214,-363.5 214,-393.5 370,-393.5 370,-363.5 214,-363.5"/>
<text text-anchor="start" x="222" y="-381.5" font-family="Helvetica,sans-Serif" font-size="10.00">denoptim.graph.DGraphTest.test</text>
<text text-anchor="middle" x="292" y="-370.5" font-family="Helvetica,sans-Serif" font-size="10.00">ReplaceSingleSubGraph</text>
</a>
</g>
</g>
<!-- Node7&#45;&gt;Node30 -->
<g id="edge29" class="edge">
<title>Node7&#45;&gt;Node30</title>
<path fill="none" stroke="midnightblue" d="M523.92,-760.79C520.98,-698.33 503.05,-503.09 394,-403.5 387.13,-397.23 378.94,-392.47 370.23,-388.86"/>
<polygon fill="midnightblue" stroke="midnightblue" points="520.43,-760.99 524.32,-770.85 527.42,-760.72 520.43,-760.99"/>
</g>
<!-- Node31 -->
<g id="node31" class="node">
<title>Node31</title>
<g id="a_node31"><a xlink:href="classdenoptim_1_1graph_1_1_d_graph_test.html#a75fad604a87ef9485e9180f7360ddc69" target="_top" xlink:title=" ">
<polygon fill="white" stroke="black" points="204,-314.5 204,-344.5 380,-344.5 380,-314.5 204,-314.5"/>
<text text-anchor="start" x="212" y="-332.5" font-family="Helvetica,sans-Serif" font-size="10.00">denoptim.graph.DGraphTest.test</text>
<text text-anchor="middle" x="292" y="-321.5" font-family="Helvetica,sans-Serif" font-size="10.00">ReplaceSingleSubGraph_inTemplate</text>
</a>
</g>
</g>
<!-- Node7&#45;&gt;Node31 -->
<g id="edge30" class="edge">
<title>Node7&#45;&gt;Node31</title>
<path fill="none" stroke="midnightblue" d="M524.82,-760.52C524.78,-692.7 515.06,-469.12 394,-354.5 389.8,-350.53 385.08,-347.15 380.02,-344.3"/>
<polygon fill="midnightblue" stroke="midnightblue" points="521.32,-760.65 524.75,-770.68 528.32,-760.7 521.32,-760.65"/>
</g>
<!-- Node32 -->
<g id="node32" class="node">
<title>Node32</title>
<g id="a_node32"><a xlink:href="classdenoptim_1_1graph_1_1_d_graph_test.html#a887c0d2f99c17c0c4659e84e4c52c61d" target="_top" xlink:title=" ">
<polygon fill="white" stroke="black" points="194.5,-255 194.5,-296 389.5,-296 389.5,-255 194.5,-255"/>
<text text-anchor="start" x="202.5" y="-284" font-family="Helvetica,sans-Serif" font-size="10.00">denoptim.graph.DGraphTest.test</text>
<text text-anchor="start" x="202.5" y="-273" font-family="Helvetica,sans-Serif" font-size="10.00">ReplaceSingleSubGraph_NonScafToNon</text>
<text text-anchor="middle" x="292" y="-262" font-family="Helvetica,sans-Serif" font-size="10.00">Scaf_withAPClassViolation</text>
</a>
</g>
</g>
<!-- Node7&#45;&gt;Node32 -->
<g id="edge31" class="edge">
<title>Node7&#45;&gt;Node32</title>
<path fill="none" stroke="midnightblue" d="M521.65,-760.72C509.6,-679.55 460.3,-373.18 394,-305.5 390.54,-301.97 386.69,-298.85 382.57,-296.1"/>
<polygon fill="midnightblue" stroke="midnightblue" points="518.19,-761.24 523.1,-770.63 525.12,-760.23 518.19,-761.24"/>
</g>
<!-- Node33 -->
<g id="node33" class="node">
<title>Node33</title>
<g id="a_node33"><a xlink:href="classdenoptim_1_1graph_1_1_d_graph_test.html#ac8c1cd307797507a5de5a37becb167d5" target="_top" xlink:title=" ">
<polygon fill="white" stroke="black" points="198.5,-206.5 198.5,-236.5 385.5,-236.5 385.5,-206.5 198.5,-206.5"/>
<text text-anchor="start" x="206.5" y="-224.5" font-family="Helvetica,sans-Serif" font-size="10.00">denoptim.graph.DGraphTest.test</text>
<text text-anchor="middle" x="292" y="-213.5" font-family="Helvetica,sans-Serif" font-size="10.00">ReplaceSingleSubGraph_ringFormation</text>
</a>
</g>
</g>
<!-- Node7&#45;&gt;Node33 -->
<g id="edge32" class="edge">
<title>Node7&#45;&gt;Node33</title>
<path fill="none" stroke="midnightblue" d="M522.41,-760.69C512.78,-673.02 469.84,-320.89 394,-245.5 390.55,-242.07 386.7,-239.1 382.58,-236.52"/>
<polygon fill="midnightblue" stroke="midnightblue" points="518.93,-761.08 523.49,-770.65 525.89,-760.33 518.93,-761.08"/>
</g>
<!-- Node34 -->
<g id="node34" class="node">
<title>Node34</title>
<g id="a_node34"><a xlink:href="classdenoptim_1_1graph_1_1_d_graph_test.html#af7f0715cf5fdabf96fa54678e6c18d74" target="_top" xlink:title=" ">
<polygon fill="white" stroke="black" points="202.5,-147 202.5,-188 381.5,-188 381.5,-147 202.5,-147"/>
<text text-anchor="start" x="210.5" y="-176" font-family="Helvetica,sans-Serif" font-size="10.00">denoptim.graph.DGraphTest.test</text>
<text text-anchor="start" x="210.5" y="-165" font-family="Helvetica,sans-Serif" font-size="10.00">ReplaceSingleSubGraph_ScafToScaf</text>
<text text-anchor="middle" x="292" y="-154" font-family="Helvetica,sans-Serif" font-size="10.00">_withAPClassViolation</text>
</a>
</g>
</g>
<!-- Node7&#45;&gt;Node34 -->
<g id="edge33" class="edge">
<title>Node7&#45;&gt;Node34</title>
<path fill="none" stroke="midnightblue" d="M522.71,-760.53C514.05,-668.1 473.59,-282.74 394,-197.5 390.38,-193.62 386.28,-190.24 381.87,-187.29"/>
<polygon fill="midnightblue" stroke="midnightblue" points="519.25,-761.1 523.65,-770.74 526.22,-760.46 519.25,-761.1"/>
</g>
<!-- Node35 -->
<g id="node35" class="node">
<title>Node35</title>
<g id="a_node35"><a xlink:href="classdenoptim_1_1graph_1_1_d_graph_test.html#a3b99d7012da487a88acf937e3c9f5ea4" target="_top" xlink:title=" ">
<polygon fill="white" stroke="black" points="214,-98.5 214,-128.5 370,-128.5 370,-98.5 214,-98.5"/>
<text text-anchor="start" x="222" y="-116.5" font-family="Helvetica,sans-Serif" font-size="10.00">denoptim.graph.DGraphTest.test</text>
<text text-anchor="middle" x="292" y="-105.5" font-family="Helvetica,sans-Serif" font-size="10.00">ReplaceVertex</text>
</a>
</g>
</g>
<!-- Node7&#45;&gt;Node35 -->
<g id="edge34" class="edge">
<title>Node7&#45;&gt;Node35</title>
<path fill="none" stroke="midnightblue" d="M523.28,-760.59C516.84,-662.33 483.71,-230.23 394,-137.5 387.3,-130.57 378.98,-125.49 370.03,-121.79"/>
<polygon fill="midnightblue" stroke="midnightblue" points="519.79,-760.89 523.92,-770.65 526.77,-760.44 519.79,-760.89"/>
</g>
<!-- Node36 -->
<g id="node36" class="node">
<title>Node36</title>
<g id="a_node36"><a xlink:href="classdenoptim_1_1graph_1_1_d_graph_test.html#a0b946dc2730c68f796c37e5f5cea4e36" target="_top" xlink:title=" ">
<polygon fill="white" stroke="black" points="214,-49.5 214,-79.5 370,-79.5 370,-49.5 214,-49.5"/>
<text text-anchor="start" x="222" y="-67.5" font-family="Helvetica,sans-Serif" font-size="10.00">denoptim.graph.DGraphTest.test</text>
<text text-anchor="middle" x="292" y="-56.5" font-family="Helvetica,sans-Serif" font-size="10.00">ReplaceVertex_inRing</text>
</a>
</g>
</g>
<!-- Node7&#45;&gt;Node36 -->
<g id="edge35" class="edge">
<title>Node7&#45;&gt;Node36</title>
<path fill="none" stroke="midnightblue" d="M523.57,-760.77C518.36,-658.6 489.5,-190.51 394,-89.5 387.36,-82.48 379.08,-77.3 370.15,-73.5"/>
<polygon fill="midnightblue" stroke="midnightblue" points="520.08,-761.09 524.07,-770.91 527.07,-760.75 520.08,-761.09"/>
</g>
<!-- Node37 -->
<g id="node37" class="node">
<title>Node37</title>
<g id="a_node37"><a xlink:href="classdenoptim_1_1graph_1_1_d_graph_test.html#a0250850e0ef186b2cf9617a5de3ff34d" target="_top" xlink:title=" ">
<polygon fill="white" stroke="black" points="214,-0.5 214,-30.5 370,-30.5 370,-0.5 214,-0.5"/>
<text text-anchor="start" x="222" y="-18.5" font-family="Helvetica,sans-Serif" font-size="10.00">denoptim.graph.DGraphTest.test</text>
<text text-anchor="middle" x="292" y="-7.5" font-family="Helvetica,sans-Serif" font-size="10.00">SymmetricSetLabels</text>
</a>
</g>
</g>
<!-- Node7&#45;&gt;Node37 -->
<g id="edge36" class="edge">
<title>Node7&#45;&gt;Node37</title>
<path fill="none" stroke="midnightblue" d="M523.86,-760.68C520,-653.92 496.45,-148.17 394,-39.5 387.39,-32.48 379.13,-27.35 370.19,-23.62"/>
<polygon fill="midnightblue" stroke="midnightblue" points="520.36,-760.85 524.2,-770.72 527.36,-760.61 520.36,-760.85"/>
</g>
</g>
</svg>
        <g id="navigator" transform="translate(0 0)" fill="#404254">
                <rect fill="#f2f5e9" fill-opacity="0.5" stroke="#606060" stroke-width=".5" x="0" y="0" width="60" height="60"/>
                <use id="zoomplus" xlink:href="#zoomPlus" x="17" y="9" onmousedown="handleZoom(evt,'in')"/>
                <use id="zoomminus" xlink:href="#zoomMin" x="42" y="9" onmousedown="handleZoom(evt,'out')"/>
                <use id="reset" xlink:href="#resetDef" x="30" y="36" onmousedown="handleReset()"/>
                <g id="arrowUp" xlink:href="#dirArrow" transform="translate(30 24)" onmousedown="handlePan(0,-1)">
                  <use xlink:href="#rim" fill="#404040">
                        <set attributeName="fill" to="#808080" begin="arrowUp.mouseover" end="arrowUp.mouseout"/>
                  </use>
                  <path fill="none" stroke="white" stroke-width="1.5" d="M0,-3.0v7 M-2.5,-0.5L0,-3.0L2.5,-0.5"/>
                </g>
                <g id="arrowRight" xlink:href="#dirArrow" transform="rotate(90) translate(36 -43)" onmousedown="handlePan(1,0)">
                  <use xlink:href="#rim" fill="#404040">
                        <set attributeName="fill" to="#808080" begin="arrowRight.mouseover" end="arrowRight.mouseout"/>
                  </use>
                  <path fill="none" stroke="white" stroke-width="1.5" d="M0,-3.0v7 M-2.5,-0.5L0,-3.0L2.5,-0.5"/>
                </g>
                <g id="arrowDown" xlink:href="#dirArrow" transform="rotate(180) translate(-30 -48)" onmousedown="handlePan(0,1)">
                  <use xlink:href="#rim" fill="#404040">
                        <set attributeName="fill" to="#808080" begin="arrowDown.mouseover" end="arrowDown.mouseout"/>
                  </use>
                  <path fill="none" stroke="white" stroke-width="1.5" d="M0,-3.0v7 M-2.5,-0.5L0,-3.0L2.5,-0.5"/>
                </g>
                <g id="arrowLeft" xlink:href="#dirArrow" transform="rotate(270) translate(-36 17)" onmousedown="handlePan(-1,0)">
                  <use xlink:href="#rim" fill="#404040">
                        <set attributeName="fill" to="#808080" begin="arrowLeft.mouseover" end="arrowLeft.mouseout"/>
                  </use>
                  <path fill="none" stroke="white" stroke-width="1.5" d="M0,-3.0v7 M-2.5,-0.5L0,-3.0L2.5,-0.5"/>
                </g>
        </g>
        <svg viewBox="0 0 15 15" width="100%" height="30px" preserveAspectRatio="xMaxYMin meet">
         <g id="arrow_out" transform="scale(0.3 0.3)">
          <a xlink:href="classdenoptim_1_1fragspace_1_1_fragment_space_ac3651ea11f0b3f14f5aeab474bd43191_icgraph_org.svg" target="_base">
           <rect id="button" ry="5" rx="5" y="6" x="6" height="38" width="38"
                fill="#f2f5e9" fill-opacity="0.5" stroke="#606060" stroke-width="1.0"/>
           <path id="arrow"
             d="M 11.500037,31.436501 C 11.940474,20.09759 22.043105,11.32322 32.158766,21.979434 L 37.068811,17.246167 C 37.068811,17.246167 37.088388,32 37.088388,32 L 22.160133,31.978069 C 22.160133,31.978069 26.997745,27.140456 26.997745,27.140456 C 18.528582,18.264221 13.291696,25.230495 11.500037,31.436501 z"
             style="fill:#404040;"/>
          </a>
         </g>
        </svg>
</svg>
