<?xml version="1.0" encoding="UTF-8" standalone="no"?>
<!DOCTYPE svg PUBLIC "-//W3C//DTD SVG 1.1//EN"
 "http://www.w3.org/Graphics/SVG/1.1/DTD/svg11.dtd">
<!-- Generated by graphviz version 3.0.0 (20221109.1736)
 -->
<!-- Title: denoptim.graph.Fragment.is3D Pages: 1 -->
<svg width="352pt" height="116pt"
 viewBox="0.00 0.00 352.00 115.50" xmlns="http://www.w3.org/2000/svg" xmlns:xlink="http://www.w3.org/1999/xlink">
<g id="graph0" class="graph" transform="scale(1 1) rotate(0) translate(4 111.5)">
<title>denoptim.graph.Fragment.is3D</title>
<polygon fill="white" stroke="transparent" points="-4,4 -4,-111.5 348,-111.5 348,4 -4,4"/>
<!-- Node1 -->
<g id="node1" class="node">
<title>Node1</title>
<g id="a_node1"><a xlink:title="Checks if atoms and APs contained in this fragment have non&#45;zero 3D coordinates.">
<polygon fill="#bfbfbf" stroke="black" points="0,-50 0,-69 148,-69 148,-50 0,-50"/>
<text text-anchor="middle" x="74" y="-57" font-family="Helvetica,sans-Serif" font-size="10.00">denoptim.graph.Fragment.is3D</text>
</a>
</g>
</g>
<!-- Node2 -->
<g id="node2" class="node">
<title>Node2</title>
<g id="a_node2"><a xlink:href="classdenoptim_1_1graph_1_1_fragment.html#a4babe43e60f32e990179be8dfe96e38e" target="_top" xlink:title=" ">
<polygon fill="white" stroke="black" points="186.5,-88 186.5,-107 341.5,-107 341.5,-88 186.5,-88"/>
<text text-anchor="middle" x="264" y="-95" font-family="Helvetica,sans-Serif" font-size="10.00">denoptim.graph.Fragment.atoms</text>
</a>
</g>
</g>
<!-- Node1&#45;&gt;Node2 -->
<g id="edge1" class="edge">
<title>Node1&#45;&gt;Node2</title>
<path fill="none" stroke="midnightblue" d="M122.44,-69.09C147.81,-74.22 179.23,-80.57 205.92,-85.96"/>
<polygon fill="midnightblue" stroke="midnightblue" points="205.41,-89.43 215.9,-87.98 206.79,-82.57 205.41,-89.43"/>
</g>
<!-- Node3 -->
<g id="node3" class="node">
<title>Node3</title>
<g id="a_node3"><a xlink:href="classdenoptim_1_1utils_1_1_math_utils.html#ad3885756312f8e602cc604f1b0ce62d9" target="_top" xlink:title="Calculates distance between point a and point b.">
<polygon fill="white" stroke="black" points="184,-50 184,-69 344,-69 344,-50 184,-50"/>
<text text-anchor="middle" x="264" y="-57" font-family="Helvetica,sans-Serif" font-size="10.00">denoptim.utils.MathUtils.distance</text>
</a>
</g>
</g>
<!-- Node1&#45;&gt;Node3 -->
<g id="edge2" class="edge">
<title>Node1&#45;&gt;Node3</title>
<path fill="none" stroke="midnightblue" d="M148.22,-59.5C156.51,-59.5 165.02,-59.5 173.48,-59.5"/>
<polygon fill="midnightblue" stroke="midnightblue" points="173.75,-63 183.75,-59.5 173.75,-56 173.75,-63"/>
</g>
<!-- Node4 -->
<g id="node4" class="node">
<title>Node4</title>
<g id="a_node4"><a xlink:href="classdenoptim_1_1graph_1_1_fragment.html#a366dfaf65191c724b8e393b9d9dc899f" target="_top" xlink:title=" ">
<polygon fill="white" stroke="black" points="193,-0.5 193,-30.5 335,-30.5 335,-0.5 193,-0.5"/>
<text text-anchor="start" x="201" y="-18.5" font-family="Helvetica,sans-Serif" font-size="10.00">denoptim.graph.Fragment.get</text>
<text text-anchor="middle" x="264" y="-7.5" font-family="Helvetica,sans-Serif" font-size="10.00">AttachmentPoints</text>
</a>
</g>
</g>
<!-- Node1&#45;&gt;Node4 -->
<g id="edge3" class="edge">
<title>Node1&#45;&gt;Node4</title>
<path fill="none" stroke="midnightblue" d="M115.79,-49.95C137.15,-44.95 163.97,-38.68 188.84,-32.86"/>
<polygon fill="midnightblue" stroke="midnightblue" points="189.69,-36.25 198.63,-30.57 188.1,-29.44 189.69,-36.25"/>
</g>
</g>
</svg>
