<?xml version="1.0" encoding="UTF-8" standalone="no"?>
<!DOCTYPE svg PUBLIC "-//W3C//DTD SVG 1.1//EN"
 "http://www.w3.org/Graphics/SVG/1.1/DTD/svg11.dtd">
<!-- Generated by graphviz version 3.0.0 (20221109.1736)
 -->
<!-- Title: denoptim.integration.tinker.TinkerUtils.readTinkerAtomTypes Pages: 1 -->
<svg width="653pt" height="39pt"
 viewBox="0.00 0.00 653.00 39.00" xmlns="http://www.w3.org/2000/svg" xmlns:xlink="http://www.w3.org/1999/xlink">
<g id="graph0" class="graph" transform="scale(1 1) rotate(0) translate(4 35)">
<title>denoptim.integration.tinker.TinkerUtils.readTinkerAtomTypes</title>
<polygon fill="white" stroke="transparent" points="-4,4 -4,-35 649,-35 649,4 -4,4"/>
<!-- Node1 -->
<g id="node1" class="node">
<title>Node1</title>
<g id="a_node1"><a xlink:title="Read the Tinker atom mapping from Tinker Force Field.">
<polygon fill="#bfbfbf" stroke="black" points="484,-0.5 484,-30.5 645,-30.5 645,-0.5 484,-0.5"/>
<text text-anchor="start" x="492" y="-18.5" font-family="Helvetica,sans-Serif" font-size="10.00">denoptim.integration.tinker.</text>
<text text-anchor="middle" x="564.5" y="-7.5" font-family="Helvetica,sans-Serif" font-size="10.00">TinkerUtils.readTinkerAtomTypes</text>
</a>
</g>
</g>
<!-- Node2 -->
<g id="node2" class="node">
<title>Node2</title>
<g id="a_node2"><a xlink:href="classdenoptim_1_1programs_1_1moldecularmodelbuilder_1_1_m_m_builder_parameters.html#a35d53f86ded8be1c4c64df3b115bdb91" target="_top" xlink:title="Processes all parameters and initialize related objects.">
<polygon fill="white" stroke="black" points="242,-0.5 242,-30.5 448,-30.5 448,-0.5 242,-0.5"/>
<text text-anchor="start" x="250" y="-18.5" font-family="Helvetica,sans-Serif" font-size="10.00">denoptim.programs.moldecularmodelbuilder.</text>
<text text-anchor="middle" x="345" y="-7.5" font-family="Helvetica,sans-Serif" font-size="10.00">MMBuilderParameters.processParameters</text>
</a>
</g>
</g>
<!-- Node1&#45;&gt;Node2 -->
<g id="edge1" class="edge">
<title>Node1&#45;&gt;Node2</title>
<path fill="none" stroke="midnightblue" d="M473.65,-15.5C465.31,-15.5 456.81,-15.5 448.36,-15.5"/>
<polygon fill="midnightblue" stroke="midnightblue" points="473.75,-19 483.75,-15.5 473.75,-12 473.75,-19"/>
</g>
<!-- Node3 -->
<g id="node3" class="node">
<title>Node3</title>
<g id="a_node3"><a xlink:href="classdenoptim_1_1programs_1_1moldecularmodelbuilder_1_1_molecular_model_builder.html#ad2e44290de6a861274def677044e9754" target="_top" xlink:title=" ">
<polygon fill="white" stroke="black" points="0,-0.5 0,-30.5 206,-30.5 206,-0.5 0,-0.5"/>
<text text-anchor="start" x="8" y="-18.5" font-family="Helvetica,sans-Serif" font-size="10.00">denoptim.programs.moldecularmodelbuilder.</text>
<text text-anchor="middle" x="103" y="-7.5" font-family="Helvetica,sans-Serif" font-size="10.00">MolecularModelBuilder.runProgram</text>
</a>
</g>
</g>
<!-- Node2&#45;&gt;Node3 -->
<g id="edge2" class="edge">
<title>Node2&#45;&gt;Node3</title>
<path fill="none" stroke="midnightblue" d="M231.81,-15.5C223.22,-15.5 214.57,-15.5 206.04,-15.5"/>
<polygon fill="midnightblue" stroke="midnightblue" points="231.87,-19 241.87,-15.5 231.87,-12 231.87,-19"/>
</g>
</g>
</svg>
