<?xml version="1.0" encoding="UTF-8" standalone="no"?>
<!DOCTYPE svg PUBLIC "-//W3C//DTD SVG 1.1//EN"
 "http://www.w3.org/Graphics/SVG/1.1/DTD/svg11.dtd">
<!-- Generated by graphviz version 3.0.0 (20221109.1736)
 -->
<!-- Title: denoptim.graph.rings.RingClosureParameters.RingClosureParameters Pages: 1 -->
<svg width="390pt" height="57pt"
 viewBox="0.00 0.00 390.00 57.00" xmlns="http://www.w3.org/2000/svg" xmlns:xlink="http://www.w3.org/1999/xlink">
<g id="graph0" class="graph" transform="scale(1 1) rotate(0) translate(4 53)">
<title>denoptim.graph.rings.RingClosureParameters.RingClosureParameters</title>
<polygon fill="white" stroke="transparent" points="-4,4 -4,-53 386,-53 386,4 -4,4"/>
<!-- Node1 -->
<g id="node1" class="node">
<title>Node1</title>
<g id="a_node1"><a xlink:title="Constructor.">
<polygon fill="#bfbfbf" stroke="black" points="0,-0.5 0,-30.5 205,-30.5 205,-0.5 0,-0.5"/>
<text text-anchor="start" x="8" y="-18.5" font-family="Helvetica,sans-Serif" font-size="10.00">denoptim.graph.rings.Ring</text>
<text text-anchor="middle" x="102.5" y="-7.5" font-family="Helvetica,sans-Serif" font-size="10.00">ClosureParameters.RingClosureParameters</text>
</a>
</g>
</g>
<!-- Node2 -->
<g id="node2" class="node">
<title>Node2</title>
<g id="a_node2"><a xlink:href="classdenoptim_1_1io_1_1_denoptim_i_o.html#ad447fd8ddb979d309b6be2f2f37655e6" target="_top" xlink:title="Reads a list of rules for identifying potential bridge&#45;head sites.">
<polygon fill="white" stroke="black" points="241,-0.5 241,-30.5 382,-30.5 382,-0.5 241,-0.5"/>
<text text-anchor="start" x="249" y="-18.5" font-family="Helvetica,sans-Serif" font-size="10.00">denoptim.io.DenoptimIO.read</text>
<text text-anchor="middle" x="311.5" y="-7.5" font-family="Helvetica,sans-Serif" font-size="10.00">BridgeHesFindingRules</text>
</a>
</g>
</g>
<!-- Node1&#45;&gt;Node2 -->
<g id="edge1" class="edge">
<title>Node1&#45;&gt;Node2</title>
<path fill="none" stroke="midnightblue" d="M205.18,-15.5C213.76,-15.5 222.35,-15.5 230.73,-15.5"/>
<polygon fill="midnightblue" stroke="midnightblue" points="230.82,-19 240.82,-15.5 230.82,-12 230.82,-19"/>
</g>
<!-- Node2&#45;&gt;Node2 -->
<g id="edge2" class="edge">
<title>Node2&#45;&gt;Node2</title>
<path fill="none" stroke="midnightblue" d="M275.25,-30.66C266.51,-40.06 278.59,-49 311.5,-49 331.55,-49 343.87,-45.68 348.46,-40.96"/>
<polygon fill="midnightblue" stroke="midnightblue" points="351.93,-40.39 347.75,-30.66 344.95,-40.88 351.93,-40.39"/>
</g>
</g>
</svg>
