<?xml version="1.0" encoding="UTF-8" standalone="no"?>
<!DOCTYPE svg PUBLIC "-//W3C//DTD SVG 1.1//EN"
 "http://www.w3.org/Graphics/SVG/1.1/DTD/svg11.dtd">
<!-- Generated by graphviz version 3.0.0 (20221109.1736)
 -->
<!-- Title: denoptim.ga.EAUtils.buildGraph Pages: 1 -->
<!--zoomable 1003 -->
<svg id="main" version="1.1" xmlns="http://www.w3.org/2000/svg" xmlns:xlink="http://www.w3.org/1999/xlink" xml:space="preserve" onload="init(evt)">
<style type="text/css"><![CDATA[
.edge:hover path { stroke: red; }
.edge:hover polygon { stroke: red; fill: red; }
]]></style>
<script type="text/javascript"><![CDATA[
var edges = document.getElementsByTagName('g');
if (edges && edges.length) {
  for (var i=0;i<edges.length;i++) {
    if (edges[i].id.substr(0,4)=='edge') {
      edges[i].setAttribute('class','edge');
    }
  }
}
]]></script>
        <defs>
                <circle id="rim" cx="0" cy="0" r="7"/>
                <circle id="rim2" cx="0" cy="0" r="3.5"/>
                <g id="zoomPlus">
                        <use xlink:href="#rim" fill="#404040">
                                <set attributeName="fill" to="#808080" begin="zoomplus.mouseover" end="zoomplus.mouseout"/>
                        </use>
                        <path d="M-4,0h8M0,-4v8" fill="none" stroke="white" stroke-width="1.5" pointer-events="none"/>
                </g>
                <g id="zoomMin">
                        <use xlink:href="#rim" fill="#404040">
                                <set attributeName="fill" to="#808080" begin="zoomminus.mouseover" end="zoomminus.mouseout"/>
                        </use>
                        <path d="M-4,0h8" fill="none" stroke="white" stroke-width="1.5" pointer-events="none"/>
                </g>
                <g id="dirArrow">
                        <path fill="none" stroke="white" stroke-width="1.5" d="M0,-3.0v7 M-2.5,-0.5L0,-3.0L2.5,-0.5"/>
                </g>
               <g id="resetDef">
                       <use xlink:href="#rim2" fill="#404040">
                               <set attributeName="fill" to="#808080" begin="reset.mouseover" end="reset.mouseout"/>
                       </use>
               </g>
        </defs>

<script type="text/javascript">
var viewWidth = 1210;
var viewHeight = 1003;
var sectionId = 'dynsection-15';
</script>
<script xlink:href="svgpan.js"/>
<svg id="graph" class="graph">
<g id="viewport">
<title>denoptim.ga.EAUtils.buildGraph</title>
<polygon fill="white" stroke="transparent" points="-4,4 -4,-999 1206,-999 1206,4 -4,4"/>
<!-- Node1 -->
<g id="node1" class="node">
<title>Node1</title>
<g id="a_node1"><a xlink:title="Graph construction starts with selecting a random core/scaffold.">
<polygon fill="#bfbfbf" stroke="black" points="0,-454.5 0,-484.5 127,-484.5 127,-454.5 0,-454.5"/>
<text text-anchor="start" x="8" y="-472.5" font-family="Helvetica,sans-Serif" font-size="10.00">denoptim.ga.EAUtils.build</text>
<text text-anchor="middle" x="63.5" y="-461.5" font-family="Helvetica,sans-Serif" font-size="10.00">Graph</text>
</a>
</g>
</g>
<!-- Node2 -->
<g id="node2" class="node">
<title>Node2</title>
<g id="a_node2"><a xlink:href="classdenoptim_1_1graph_1_1_d_graph.html#ab0ede6172563425e523bab9d949f30d4" target="_top" xlink:title="Add a capping groups on free unused attachment points.">
<polygon fill="white" stroke="black" points="185,-946.5 185,-976.5 321,-976.5 321,-946.5 185,-946.5"/>
<text text-anchor="start" x="193" y="-964.5" font-family="Helvetica,sans-Serif" font-size="10.00">denoptim.graph.DGraph.add</text>
<text text-anchor="middle" x="253" y="-953.5" font-family="Helvetica,sans-Serif" font-size="10.00">CappingGroups</text>
</a>
</g>
</g>
<!-- Node1&#45;&gt;Node2 -->
<g id="edge1" class="edge">
<title>Node1&#45;&gt;Node2</title>
<path fill="none" stroke="midnightblue" d="M65.62,-484.95C71.25,-558.16 98.68,-869.48 163,-937.5 166.69,-941.4 170.93,-944.69 175.53,-947.46"/>
<polygon fill="midnightblue" stroke="midnightblue" points="174.25,-950.73 184.74,-952.18 177.44,-944.5 174.25,-950.73"/>
</g>
<!-- Node3 -->
<g id="node3" class="node">
<title>Node3</title>
<g id="a_node3"><a xlink:href="classdenoptim_1_1graph_1_1_d_graph.html#a33a3299b77560786461345412d2fe193" target="_top" xlink:title="Appends a vertex to this graph without creating any edge.">
<polygon fill="white" stroke="black" points="185,-897.5 185,-927.5 321,-927.5 321,-897.5 185,-897.5"/>
<text text-anchor="start" x="193" y="-915.5" font-family="Helvetica,sans-Serif" font-size="10.00">denoptim.graph.DGraph.add</text>
<text text-anchor="middle" x="253" y="-904.5" font-family="Helvetica,sans-Serif" font-size="10.00">Vertex</text>
</a>
</g>
</g>
<!-- Node1&#45;&gt;Node3 -->
<g id="edge3" class="edge">
<title>Node1&#45;&gt;Node3</title>
<path fill="none" stroke="midnightblue" d="M66,-484.69C73.03,-552.67 104.79,-828.37 163,-888.5 166.73,-892.35 171.01,-895.61 175.63,-898.36"/>
<polygon fill="midnightblue" stroke="midnightblue" points="174.38,-901.65 184.88,-903.04 177.54,-895.4 174.38,-901.65"/>
</g>
<!-- Node6 -->
<g id="node6" class="node">
<title>Node6</title>
<g id="a_node6"><a xlink:href="classdenoptim_1_1graph_1_1_d_graph.html#a794f92aad57d3b08b512b22aac5323fd" target="_top" xlink:title="Check if the specified vertex is contained in this graph as a node or in any inner graphs that may be...">
<polygon fill="white" stroke="black" points="174.5,-830.5 174.5,-860.5 331.5,-860.5 331.5,-830.5 174.5,-830.5"/>
<text text-anchor="start" x="182.5" y="-848.5" font-family="Helvetica,sans-Serif" font-size="10.00">denoptim.graph.DGraph.contains</text>
<text text-anchor="middle" x="253" y="-837.5" font-family="Helvetica,sans-Serif" font-size="10.00">OrEmbedsVertex</text>
</a>
</g>
</g>
<!-- Node1&#45;&gt;Node6 -->
<g id="edge6" class="edge">
<title>Node1&#45;&gt;Node6</title>
<path fill="none" stroke="midnightblue" d="M63.85,-484.77C62.42,-539.05 65.17,-724.59 163,-821.5 163.96,-822.45 164.95,-823.36 165.97,-824.24"/>
<polygon fill="midnightblue" stroke="midnightblue" points="164.2,-827.28 174.35,-830.31 168.31,-821.61 164.2,-827.28"/>
</g>
<!-- Node8 -->
<g id="node8" class="node">
<title>Node8</title>
<g id="a_node8"><a xlink:href="classdenoptim_1_1ga_1_1_graph_operations.html#a6e398340d2f4e5569bb0eb0579819a39" target="_top" xlink:title="function that will keep extending the graph according to the growth/substitution probability.">
<polygon fill="white" stroke="black" points="165,-763.5 165,-793.5 341,-793.5 341,-763.5 165,-763.5"/>
<text text-anchor="start" x="173" y="-781.5" font-family="Helvetica,sans-Serif" font-size="10.00">denoptim.ga.GraphOperations.extend</text>
<text text-anchor="middle" x="253" y="-770.5" font-family="Helvetica,sans-Serif" font-size="10.00">Graph</text>
</a>
</g>
</g>
<!-- Node1&#45;&gt;Node8 -->
<g id="edge9" class="edge">
<title>Node1&#45;&gt;Node8</title>
<path fill="none" stroke="midnightblue" d="M65.02,-484.82C67.49,-532.34 81.66,-678.61 163,-754.5 164.13,-755.56 165.31,-756.57 166.52,-757.54"/>
<polygon fill="midnightblue" stroke="midnightblue" points="164.77,-760.58 175.01,-763.31 168.71,-754.79 164.77,-760.58"/>
</g>
<!-- Node9 -->
<g id="node9" class="node">
<title>Node9</title>
<g id="a_node9"><a xlink:href="classdenoptim_1_1graph_1_1_vertex.html#a200f775296c4c9804e3a2b59e065be8a" target="_top" xlink:title="Returns the index of the building block that should correspond to the position of the building block ...">
<polygon fill="white" stroke="black" points="189,-714.5 189,-744.5 317,-744.5 317,-714.5 189,-714.5"/>
<text text-anchor="start" x="197" y="-732.5" font-family="Helvetica,sans-Serif" font-size="10.00">denoptim.graph.Vertex.get</text>
<text text-anchor="middle" x="253" y="-721.5" font-family="Helvetica,sans-Serif" font-size="10.00">BuildingBlockId</text>
</a>
</g>
</g>
<!-- Node1&#45;&gt;Node9 -->
<g id="edge11" class="edge">
<title>Node1&#45;&gt;Node9</title>
<path fill="none" stroke="midnightblue" d="M66.22,-484.56C71.82,-526.32 93.37,-644.5 163,-705.5 167.9,-709.79 173.49,-713.32 179.42,-716.23"/>
<polygon fill="midnightblue" stroke="midnightblue" points="178.42,-719.61 188.99,-720.31 181.16,-713.17 178.42,-719.61"/>
</g>
<!-- Node10 -->
<g id="node10" class="node">
<title>Node10</title>
<g id="a_node10"><a xlink:href="classdenoptim_1_1graph_1_1rings_1_1_ring_closures_archive.html#aa13e869b2a1b0b8cab78d22dce53ba12" target="_top" xlink:title="Returns the library of closable chains having the given turning point (i.e., the fragments involved i...">
<polygon fill="white" stroke="black" points="167,-655 167,-696 339,-696 339,-655 167,-655"/>
<text text-anchor="start" x="175" y="-684" font-family="Helvetica,sans-Serif" font-size="10.00">denoptim.graph.rings.Ring</text>
<text text-anchor="start" x="175" y="-673" font-family="Helvetica,sans-Serif" font-size="10.00">ClosuresArchive.getCCFromTurning</text>
<text text-anchor="middle" x="253" y="-662" font-family="Helvetica,sans-Serif" font-size="10.00">PointId</text>
</a>
</g>
</g>
<!-- Node1&#45;&gt;Node10 -->
<g id="edge12" class="edge">
<title>Node1&#45;&gt;Node10</title>
<path fill="none" stroke="midnightblue" d="M68.71,-484.53C78.98,-518.49 108.57,-601.67 163,-646.5 164.18,-647.47 165.39,-648.41 166.62,-649.31"/>
<polygon fill="midnightblue" stroke="midnightblue" points="164.88,-652.35 175.18,-654.85 168.69,-646.48 164.88,-652.35"/>
</g>
<!-- Node11 -->
<g id="node11" class="node">
<title>Node11</title>
<g id="a_node11"><a xlink:href="classdenoptim_1_1fragspace_1_1_fragment_space_parameters.html#a93693af51412000689dc7517151b9a05" target="_top" xlink:title=" ">
<polygon fill="white" stroke="black" points="163.5,-606.5 163.5,-636.5 342.5,-636.5 342.5,-606.5 163.5,-606.5"/>
<text text-anchor="start" x="171.5" y="-624.5" font-family="Helvetica,sans-Serif" font-size="10.00">denoptim.fragspace.Fragment</text>
<text text-anchor="middle" x="253" y="-613.5" font-family="Helvetica,sans-Serif" font-size="10.00">SpaceParameters.getFragmentSpace</text>
</a>
</g>
</g>
<!-- Node1&#45;&gt;Node11 -->
<g id="edge13" class="edge">
<title>Node1&#45;&gt;Node11</title>
<path fill="none" stroke="midnightblue" d="M71.93,-484.73C85.9,-511.73 118.71,-567.9 163,-597.5 165.43,-599.13 167.97,-600.64 170.59,-602.05"/>
<polygon fill="midnightblue" stroke="midnightblue" points="169.23,-605.28 179.75,-606.48 172.27,-598.98 169.23,-605.28"/>
</g>
<!-- Node12 -->
<g id="node12" class="node">
<title>Node12</title>
<g id="a_node12"><a xlink:href="classdenoptim_1_1graph_1_1_d_graph.html#aec2e74f41db36c9cb72c916145cc1b14" target="_top" xlink:title="A list of mutation sites from within this graph.">
<polygon fill="white" stroke="black" points="186,-557.5 186,-587.5 320,-587.5 320,-557.5 186,-557.5"/>
<text text-anchor="start" x="194" y="-575.5" font-family="Helvetica,sans-Serif" font-size="10.00">denoptim.graph.DGraph.get</text>
<text text-anchor="middle" x="253" y="-564.5" font-family="Helvetica,sans-Serif" font-size="10.00">MutableSites</text>
</a>
</g>
</g>
<!-- Node1&#45;&gt;Node12 -->
<g id="edge14" class="edge">
<title>Node1&#45;&gt;Node12</title>
<path fill="none" stroke="midnightblue" d="M79.13,-484.55C97.24,-502.33 129.77,-531.63 163,-548.5 167.24,-550.65 171.69,-552.62 176.25,-554.43"/>
<polygon fill="midnightblue" stroke="midnightblue" points="175.13,-557.75 185.72,-557.92 177.55,-551.18 175.13,-557.75"/>
</g>
<!-- Node13 -->
<g id="node13" class="node">
<title>Node13</title>
<g id="a_node13"><a xlink:href="classdenoptim_1_1programs_1_1_run_time_parameters.html#a4da800dd8e739b91dbf8b4b960ee2e51" target="_top" xlink:title=" ">
<polygon fill="white" stroke="black" points="183,-508.5 183,-538.5 323,-538.5 323,-508.5 183,-508.5"/>
<text text-anchor="start" x="191" y="-526.5" font-family="Helvetica,sans-Serif" font-size="10.00">denoptim.programs.RunTime</text>
<text text-anchor="middle" x="253" y="-515.5" font-family="Helvetica,sans-Serif" font-size="10.00">Parameters.getParameters</text>
</a>
</g>
</g>
<!-- Node1&#45;&gt;Node13 -->
<g id="edge15" class="edge">
<title>Node1&#45;&gt;Node13</title>
<path fill="none" stroke="midnightblue" d="M112.75,-484.54C128.72,-489.42 146.59,-494.79 163,-499.5 170.17,-501.56 177.67,-503.66 185.15,-505.72"/>
<polygon fill="midnightblue" stroke="midnightblue" points="184.38,-509.14 194.95,-508.41 186.23,-502.39 184.38,-509.14"/>
</g>
<!-- Node14 -->
<g id="node14" class="node">
<title>Node14</title>
<g id="a_node14"><a xlink:href="classdenoptim_1_1graph_1_1rings_1_1_ring_closure_parameters.html#a71e219d0ee276883c9c450980b8d1154" target="_top" xlink:title=" ">
<polygon fill="white" stroke="black" points="166.5,-449 166.5,-490 339.5,-490 339.5,-449 166.5,-449"/>
<text text-anchor="start" x="174.5" y="-478" font-family="Helvetica,sans-Serif" font-size="10.00">denoptim.graph.rings.Ring</text>
<text text-anchor="start" x="174.5" y="-467" font-family="Helvetica,sans-Serif" font-size="10.00">ClosureParameters.getRingClosures</text>
<text text-anchor="middle" x="253" y="-456" font-family="Helvetica,sans-Serif" font-size="10.00">Archive</text>
</a>
</g>
</g>
<!-- Node1&#45;&gt;Node14 -->
<g id="edge16" class="edge">
<title>Node1&#45;&gt;Node14</title>
<path fill="none" stroke="midnightblue" d="M127.2,-469.5C136.52,-469.5 146.3,-469.5 156.12,-469.5"/>
<polygon fill="midnightblue" stroke="midnightblue" points="156.34,-473 166.34,-469.5 156.34,-466 156.34,-473"/>
</g>
<!-- Node15 -->
<g id="node15" class="node">
<title>Node15</title>
<g id="a_node15"><a xlink:href="classdenoptim_1_1utils_1_1_graph_utils.html#aec200d5d7fdb3bdd7139736499a679ae" target="_top" xlink:title="Unique counter for the number of graphs generated.">
<polygon fill="white" stroke="black" points="182.5,-400.5 182.5,-430.5 323.5,-430.5 323.5,-400.5 182.5,-400.5"/>
<text text-anchor="start" x="190.5" y="-418.5" font-family="Helvetica,sans-Serif" font-size="10.00">denoptim.utils.GraphUtils.get</text>
<text text-anchor="middle" x="253" y="-407.5" font-family="Helvetica,sans-Serif" font-size="10.00">UniqueGraphIndex</text>
</a>
</g>
</g>
<!-- Node1&#45;&gt;Node15 -->
<g id="edge17" class="edge">
<title>Node1&#45;&gt;Node15</title>
<path fill="none" stroke="midnightblue" d="M112.75,-454.46C128.72,-449.58 146.59,-444.21 163,-439.5 170.17,-437.44 177.67,-435.34 185.15,-433.28"/>
<polygon fill="midnightblue" stroke="midnightblue" points="186.23,-436.61 194.95,-430.59 184.38,-429.86 186.23,-436.61"/>
</g>
<!-- Node16 -->
<g id="node16" class="node">
<title>Node16</title>
<g id="a_node16"><a xlink:href="classdenoptim_1_1graph_1_1_d_graph.html#a3b7c2feb2da30079318f06819e0e6761" target="_top" xlink:title=" ">
<polygon fill="white" stroke="black" points="186,-351.5 186,-381.5 320,-381.5 320,-351.5 186,-351.5"/>
<text text-anchor="start" x="194" y="-369.5" font-family="Helvetica,sans-Serif" font-size="10.00">denoptim.graph.DGraph.get</text>
<text text-anchor="middle" x="253" y="-358.5" font-family="Helvetica,sans-Serif" font-size="10.00">VertexCount</text>
</a>
</g>
</g>
<!-- Node1&#45;&gt;Node16 -->
<g id="edge18" class="edge">
<title>Node1&#45;&gt;Node16</title>
<path fill="none" stroke="midnightblue" d="M79.52,-454.4C97.75,-436.88 130.16,-408.25 163,-391.5 167.53,-389.19 172.3,-387.07 177.19,-385.12"/>
<polygon fill="midnightblue" stroke="midnightblue" points="178.53,-388.36 186.69,-381.6 176.09,-381.79 178.53,-388.36"/>
</g>
<!-- Node17 -->
<g id="node17" class="node">
<title>Node17</title>
<g id="a_node17"><a xlink:href="classdenoptim_1_1graph_1_1_vertex.html#acd296dec0d2d5e50bc8c177bfa560459" target="_top" xlink:title=" ">
<polygon fill="white" stroke="black" points="187.5,-302.5 187.5,-332.5 318.5,-332.5 318.5,-302.5 187.5,-302.5"/>
<text text-anchor="start" x="195.5" y="-320.5" font-family="Helvetica,sans-Serif" font-size="10.00">denoptim.graph.Vertex.has</text>
<text text-anchor="middle" x="253" y="-309.5" font-family="Helvetica,sans-Serif" font-size="10.00">FreeAP</text>
</a>
</g>
</g>
<!-- Node1&#45;&gt;Node17 -->
<g id="edge19" class="edge">
<title>Node1&#45;&gt;Node17</title>
<path fill="none" stroke="midnightblue" d="M72,-454.43C86.07,-427.72 119.02,-372.1 163,-342.5 167.58,-339.42 172.53,-336.72 177.67,-334.34"/>
<polygon fill="midnightblue" stroke="midnightblue" points="179.21,-337.49 187.1,-330.42 176.52,-331.03 179.21,-337.49"/>
</g>
<!-- Node19 -->
<g id="node19" class="node">
<title>Node19</title>
<g id="a_node19"><a xlink:href="classdenoptim_1_1logging_1_1_monitor.html#a70e3e14ab63e7e39ed3ce7d895aa01cf" target="_top" xlink:title=" ">
<polygon fill="white" stroke="black" points="171.5,-264 171.5,-283 334.5,-283 334.5,-264 171.5,-264"/>
<text text-anchor="middle" x="253" y="-271" font-family="Helvetica,sans-Serif" font-size="10.00">denoptim.logging.Monitor.increase</text>
</a>
</g>
</g>
<!-- Node1&#45;&gt;Node19 -->
<g id="edge21" class="edge">
<title>Node1&#45;&gt;Node19</title>
<path fill="none" stroke="midnightblue" d="M68.37,-454.45C78.04,-420.08 106.58,-335.58 163,-293.5 166.19,-291.12 169.62,-289.01 173.2,-287.15"/>
<polygon fill="midnightblue" stroke="midnightblue" points="174.7,-290.31 182.38,-283 171.82,-283.93 174.7,-290.31"/>
</g>
<!-- Node24 -->
<g id="node24" class="node">
<title>Node24</title>
<g id="a_node24"><a xlink:href="classdenoptim_1_1fragspace_1_1_fragment_space.html#a95408f868832d8fac28eee1c1e793fab" target="_top" xlink:title="Randomly select a scaffold and return a fully configured clone of it.">
<polygon fill="white" stroke="black" points="180.5,-214.5 180.5,-244.5 325.5,-244.5 325.5,-214.5 180.5,-214.5"/>
<text text-anchor="start" x="188.5" y="-232.5" font-family="Helvetica,sans-Serif" font-size="10.00">denoptim.fragspace.Fragment</text>
<text text-anchor="middle" x="253" y="-221.5" font-family="Helvetica,sans-Serif" font-size="10.00">Space.makeRandomScaffold</text>
</a>
</g>
</g>
<!-- Node1&#45;&gt;Node24 -->
<g id="edge26" class="edge">
<title>Node1&#45;&gt;Node24</title>
<path fill="none" stroke="midnightblue" d="M66.95,-454.39C74.11,-415.19 98.72,-309.47 163,-254.5 165.56,-252.31 168.3,-250.31 171.17,-248.49"/>
<polygon fill="midnightblue" stroke="midnightblue" points="173.09,-251.43 180.14,-243.52 169.7,-245.3 173.09,-251.43"/>
</g>
<!-- Node33 -->
<g id="node33" class="node">
<title>Node33</title>
<g id="a_node33"><a xlink:href="classdenoptim_1_1ga_1_1_graph_operations.html#ad6ad588ae59fe0454cae046259b3f49d" target="_top" xlink:title="Tries to do mutate the given graph.">
<polygon fill="white" stroke="black" points="163,-147.5 163,-177.5 343,-177.5 343,-147.5 163,-147.5"/>
<text text-anchor="start" x="171" y="-165.5" font-family="Helvetica,sans-Serif" font-size="10.00">denoptim.ga.GraphOperations.perform</text>
<text text-anchor="middle" x="253" y="-154.5" font-family="Helvetica,sans-Serif" font-size="10.00">Mutation</text>
</a>
</g>
</g>
<!-- Node1&#45;&gt;Node33 -->
<g id="edge38" class="edge">
<title>Node1&#45;&gt;Node33</title>
<path fill="none" stroke="midnightblue" d="M66.2,-454.35C71.85,-410.44 93.81,-281.44 163,-205.5 171.84,-195.8 183.35,-188.05 195.13,-181.96"/>
<polygon fill="midnightblue" stroke="midnightblue" points="196.66,-185.11 204.16,-177.62 193.63,-178.8 196.66,-185.11"/>
</g>
<!-- Node35 -->
<g id="node35" class="node">
<title>Node35</title>
<g id="a_node35"><a xlink:href="classdenoptim_1_1graph_1_1_d_graph.html#a30bfc345b743b8859c842b3b4e3ca5fa" target="_top" xlink:title=" ">
<polygon fill="white" stroke="black" points="186,-98.5 186,-128.5 320,-128.5 320,-98.5 186,-98.5"/>
<text text-anchor="start" x="194" y="-116.5" font-family="Helvetica,sans-Serif" font-size="10.00">denoptim.graph.DGraph.set</text>
<text text-anchor="middle" x="253" y="-105.5" font-family="Helvetica,sans-Serif" font-size="10.00">CandidateClosableChains</text>
</a>
</g>
</g>
<!-- Node1&#45;&gt;Node35 -->
<g id="edge41" class="edge">
<title>Node1&#45;&gt;Node35</title>
<path fill="none" stroke="midnightblue" d="M64.15,-454.36C63.82,-402.19 70.03,-228.17 163,-137.5 167.01,-133.59 171.59,-130.3 176.5,-127.53"/>
<polygon fill="midnightblue" stroke="midnightblue" points="178.18,-130.61 185.66,-123.1 175.13,-124.31 178.18,-130.61"/>
</g>
<!-- Node36 -->
<g id="node36" class="node">
<title>Node36</title>
<g id="a_node36"><a xlink:href="classdenoptim_1_1graph_1_1_d_graph.html#a421ce3718c62761e49a4dd4d0f20682c" target="_top" xlink:title=" ">
<polygon fill="white" stroke="black" points="186,-49.5 186,-79.5 320,-79.5 320,-49.5 186,-49.5"/>
<text text-anchor="start" x="194" y="-67.5" font-family="Helvetica,sans-Serif" font-size="10.00">denoptim.graph.DGraph.set</text>
<text text-anchor="middle" x="253" y="-56.5" font-family="Helvetica,sans-Serif" font-size="10.00">GraphId</text>
</a>
</g>
</g>
<!-- Node1&#45;&gt;Node36 -->
<g id="edge42" class="edge">
<title>Node1&#45;&gt;Node36</title>
<path fill="none" stroke="midnightblue" d="M66.37,-454.41C74.6,-390.45 109.54,-142.52 163,-88.5 167.01,-84.45 171.63,-81.06 176.61,-78.23"/>
<polygon fill="midnightblue" stroke="midnightblue" points="178.44,-81.23 185.9,-73.71 175.38,-74.93 178.44,-81.23"/>
</g>
<!-- Node37 -->
<g id="node37" class="node">
<title>Node37</title>
<g id="a_node37"><a xlink:href="classdenoptim_1_1graph_1_1_d_graph.html#af5cb07ab0686739e6e1713da9d8959c1" target="_top" xlink:title=" ">
<polygon fill="white" stroke="black" points="186,-0.5 186,-30.5 320,-30.5 320,-0.5 186,-0.5"/>
<text text-anchor="start" x="194" y="-18.5" font-family="Helvetica,sans-Serif" font-size="10.00">denoptim.graph.DGraph.set</text>
<text text-anchor="middle" x="253" y="-7.5" font-family="Helvetica,sans-Serif" font-size="10.00">LocalMsg</text>
</a>
</g>
</g>
<!-- Node1&#45;&gt;Node37 -->
<g id="edge43" class="edge">
<title>Node1&#45;&gt;Node37</title>
<path fill="none" stroke="midnightblue" d="M65.9,-454.38C72.58,-385.43 103.38,-101.44 163,-39.5 166.95,-35.39 171.53,-31.96 176.48,-29.1"/>
<polygon fill="midnightblue" stroke="midnightblue" points="178.31,-32.1 185.74,-24.55 175.22,-25.82 178.31,-32.1"/>
</g>
<!-- Node2&#45;&gt;Node2 -->
<g id="edge2" class="edge">
<title>Node2&#45;&gt;Node2</title>
<path fill="none" stroke="midnightblue" d="M220.24,-976.66C212.34,-986.06 223.26,-995 253,-995 271.12,-995 282.26,-991.68 286.41,-986.96"/>
<polygon fill="midnightblue" stroke="midnightblue" points="289.88,-986.42 285.76,-976.66 282.89,-986.86 289.88,-986.42"/>
</g>
<!-- Node4 -->
<g id="node4" class="node">
<title>Node4</title>
<g id="a_node4"><a xlink:href="classdenoptim_1_1graph_1_1_d_graph.html#a28d94625c4fae66625b3061f0361e959" target="_top" xlink:title="Checks if a number is already used as VertexIDs within the graph.">
<polygon fill="white" stroke="black" points="385,-937.5 385,-967.5 542,-967.5 542,-937.5 385,-937.5"/>
<text text-anchor="start" x="393" y="-955.5" font-family="Helvetica,sans-Serif" font-size="10.00">denoptim.graph.DGraph.contains</text>
<text text-anchor="middle" x="463.5" y="-944.5" font-family="Helvetica,sans-Serif" font-size="10.00">VertexID</text>
</a>
</g>
</g>
<!-- Node3&#45;&gt;Node4 -->
<g id="edge4" class="edge">
<title>Node3&#45;&gt;Node4</title>
<path fill="none" stroke="midnightblue" d="M321.12,-925.38C338.29,-928.67 357.02,-932.26 375.05,-935.72"/>
<polygon fill="midnightblue" stroke="midnightblue" points="374.5,-939.18 384.99,-937.63 375.82,-932.31 374.5,-939.18"/>
</g>
<!-- Node5 -->
<g id="node5" class="node">
<title>Node5</title>
<g id="a_node5"><a xlink:href="classdenoptim_1_1graph_1_1_d_graph.html#abc9d9eae901e1e868183f8bdaca13aea" target="_top" xlink:title=" ">
<polygon fill="white" stroke="black" points="396.5,-888.5 396.5,-918.5 530.5,-918.5 530.5,-888.5 396.5,-888.5"/>
<text text-anchor="start" x="404.5" y="-906.5" font-family="Helvetica,sans-Serif" font-size="10.00">denoptim.graph.DGraph.get</text>
<text text-anchor="middle" x="463.5" y="-895.5" font-family="Helvetica,sans-Serif" font-size="10.00">GraphId</text>
</a>
</g>
</g>
<!-- Node3&#45;&gt;Node5 -->
<g id="edge5" class="edge">
<title>Node3&#45;&gt;Node5</title>
<path fill="none" stroke="midnightblue" d="M321.12,-909.6C341.88,-908.71 364.9,-907.71 386.23,-906.79"/>
<polygon fill="midnightblue" stroke="midnightblue" points="386.38,-910.29 396.22,-906.36 386.08,-903.3 386.38,-910.29"/>
</g>
<!-- Node6&#45;&gt;Node6 -->
<g id="edge7" class="edge">
<title>Node6&#45;&gt;Node6</title>
<path fill="none" stroke="midnightblue" d="M220.24,-860.66C212.34,-870.06 223.26,-879 253,-879 271.12,-879 282.26,-875.68 286.41,-870.96"/>
<polygon fill="midnightblue" stroke="midnightblue" points="289.88,-870.42 285.76,-860.66 282.89,-870.86 289.88,-870.42"/>
</g>
<!-- Node7 -->
<g id="node7" class="node">
<title>Node7</title>
<g id="a_node7"><a xlink:href="classdenoptim_1_1graph_1_1_template.html#a7869ba705f5898855fe68dd443721f8e" target="_top" xlink:title=" ">
<polygon fill="white" stroke="black" points="393,-830.5 393,-860.5 534,-860.5 534,-830.5 393,-830.5"/>
<text text-anchor="start" x="401" y="-848.5" font-family="Helvetica,sans-Serif" font-size="10.00">denoptim.graph.Template.get</text>
<text text-anchor="middle" x="463.5" y="-837.5" font-family="Helvetica,sans-Serif" font-size="10.00">InnerGraph</text>
</a>
</g>
</g>
<!-- Node6&#45;&gt;Node7 -->
<g id="edge8" class="edge">
<title>Node6&#45;&gt;Node7</title>
<path fill="none" stroke="midnightblue" d="M331.64,-845.5C348.23,-845.5 365.78,-845.5 382.45,-845.5"/>
<polygon fill="midnightblue" stroke="midnightblue" points="382.71,-849 392.71,-845.5 382.71,-842 382.71,-849"/>
</g>
<!-- Node8&#45;&gt;Node8 -->
<g id="edge10" class="edge">
<title>Node8&#45;&gt;Node8</title>
<path fill="none" stroke="midnightblue" d="M220.24,-793.66C212.34,-803.06 223.26,-812 253,-812 271.12,-812 282.26,-808.68 286.41,-803.96"/>
<polygon fill="midnightblue" stroke="midnightblue" points="289.88,-803.42 285.76,-793.66 282.89,-803.86 289.88,-803.42"/>
</g>
<!-- Node18 -->
<g id="node18" class="node">
<title>Node18</title>
<g id="a_node18"><a xlink:href="classdenoptim_1_1graph_1_1_vertex.html#a85aa901ec3fff8e566c0cc32d9c9f84e" target="_top" xlink:title=" ">
<polygon fill="white" stroke="black" points="399.5,-346.5 399.5,-376.5 527.5,-376.5 527.5,-346.5 399.5,-346.5"/>
<text text-anchor="start" x="407.5" y="-364.5" font-family="Helvetica,sans-Serif" font-size="10.00">denoptim.graph.Vertex.get</text>
<text text-anchor="middle" x="463.5" y="-353.5" font-family="Helvetica,sans-Serif" font-size="10.00">AttachmentPoints</text>
</a>
</g>
</g>
<!-- Node17&#45;&gt;Node18 -->
<g id="edge20" class="edge">
<title>Node17&#45;&gt;Node18</title>
<path fill="none" stroke="midnightblue" d="M318.54,-331.12C340.94,-335.85 366.22,-341.18 389.26,-346.05"/>
<polygon fill="midnightblue" stroke="midnightblue" points="388.83,-349.53 399.33,-348.17 390.27,-342.68 388.83,-349.53"/>
</g>
<!-- Node20 -->
<g id="node20" class="node">
<title>Node20</title>
<g id="a_node20"><a xlink:href="classdenoptim_1_1logging_1_1_monitor.html#ade26a9010bd7c28e7c2b215b76bc8e43" target="_top" xlink:title=" ">
<polygon fill="white" stroke="black" points="379,-308 379,-327 548,-327 548,-308 379,-308"/>
<text text-anchor="middle" x="463.5" y="-315" font-family="Helvetica,sans-Serif" font-size="10.00">denoptim.logging.Monitor.changeBy</text>
</a>
</g>
</g>
<!-- Node19&#45;&gt;Node20 -->
<g id="edge22" class="edge">
<title>Node19&#45;&gt;Node20</title>
<path fill="none" stroke="midnightblue" d="M299.24,-283.05C330.94,-289.74 373.48,-298.71 407.19,-305.83"/>
<polygon fill="midnightblue" stroke="midnightblue" points="406.84,-309.33 417.35,-307.97 408.29,-302.48 406.84,-309.33"/>
</g>
<!-- Node21 -->
<g id="node21" class="node">
<title>Node21</title>
<g id="a_node21"><a xlink:href="classdenoptim_1_1logging_1_1_monitor.html#abb3dc0b4444cb901fee1a6e7763cfff7" target="_top" xlink:title="Build a string with the value of all counters.">
<polygon fill="white" stroke="black" points="597.5,-302.5 597.5,-332.5 737.5,-332.5 737.5,-302.5 597.5,-302.5"/>
<text text-anchor="start" x="605.5" y="-320.5" font-family="Helvetica,sans-Serif" font-size="10.00">denoptim.logging.Monitor.get</text>
<text text-anchor="middle" x="667.5" y="-309.5" font-family="Helvetica,sans-Serif" font-size="10.00">MonitorDataLine</text>
</a>
</g>
</g>
<!-- Node20&#45;&gt;Node21 -->
<g id="edge23" class="edge">
<title>Node20&#45;&gt;Node21</title>
<path fill="none" stroke="midnightblue" d="M548.12,-317.5C561.05,-317.5 574.38,-317.5 587.21,-317.5"/>
<polygon fill="midnightblue" stroke="midnightblue" points="587.38,-321 597.38,-317.5 587.38,-314 587.38,-321"/>
</g>
<!-- Node22 -->
<g id="node22" class="node">
<title>Node22</title>
<g id="a_node22"><a xlink:href="classdenoptim_1_1logging_1_1_monitor.html#ab3d363b012ab07e57e53a50b56494ddb" target="_top" xlink:title=" ">
<polygon fill="white" stroke="black" points="595,-250.5 595,-280.5 740,-280.5 740,-250.5 595,-250.5"/>
<text text-anchor="start" x="603" y="-268.5" font-family="Helvetica,sans-Serif" font-size="10.00">denoptim.logging.Monitor.print</text>
<text text-anchor="middle" x="667.5" y="-257.5" font-family="Helvetica,sans-Serif" font-size="10.00">Snapshot</text>
</a>
</g>
</g>
<!-- Node20&#45;&gt;Node22 -->
<g id="edge24" class="edge">
<title>Node20&#45;&gt;Node22</title>
<path fill="none" stroke="midnightblue" d="M508.36,-307.93C521.17,-305.03 535.17,-301.74 548,-298.5 566.52,-293.82 586.56,-288.38 604.8,-283.29"/>
<polygon fill="midnightblue" stroke="midnightblue" points="605.75,-286.65 614.44,-280.58 603.86,-279.91 605.75,-286.65"/>
</g>
<!-- Node23 -->
<g id="node23" class="node">
<title>Node23</title>
<g id="a_node23"><a xlink:href="classdenoptim_1_1io_1_1_denoptim_i_o.html#adc7de175de66792f4f37f1661c10e7f8" target="_top" xlink:title="Write text&#45;like data file.">
<polygon fill="white" stroke="black" points="799.5,-154 799.5,-173 963.5,-173 963.5,-154 799.5,-154"/>
<text text-anchor="middle" x="881.5" y="-161" font-family="Helvetica,sans-Serif" font-size="10.00">denoptim.io.DenoptimIO.writeData</text>
</a>
</g>
</g>
<!-- Node22&#45;&gt;Node23 -->
<g id="edge25" class="edge">
<title>Node22&#45;&gt;Node23</title>
<path fill="none" stroke="midnightblue" d="M712.22,-250.39C724.88,-245.66 738.62,-240.18 751,-234.5 788.56,-217.25 830.17,-193.57 855.83,-178.4"/>
<polygon fill="midnightblue" stroke="midnightblue" points="857.72,-181.35 864.53,-173.22 854.14,-175.33 857.72,-181.35"/>
</g>
<!-- Node25 -->
<g id="node25" class="node">
<title>Node25</title>
<g id="a_node25"><a xlink:href="classdenoptim_1_1programs_1_1_run_time_parameters.html#ad9db6420b91ff13e0a8b2d02402c0242" target="_top" xlink:title="Returns the current program&#45;specific randomizer.">
<polygon fill="white" stroke="black" points="393.5,-258.5 393.5,-288.5 533.5,-288.5 533.5,-258.5 393.5,-258.5"/>
<text text-anchor="start" x="401.5" y="-276.5" font-family="Helvetica,sans-Serif" font-size="10.00">denoptim.programs.RunTime</text>
<text text-anchor="middle" x="463.5" y="-265.5" font-family="Helvetica,sans-Serif" font-size="10.00">Parameters.getRandomizer</text>
</a>
</g>
</g>
<!-- Node24&#45;&gt;Node25 -->
<g id="edge27" class="edge">
<title>Node24&#45;&gt;Node25</title>
<path fill="none" stroke="midnightblue" d="M325.17,-244.52C343.96,-248.48 364.34,-252.79 383.51,-256.83"/>
<polygon fill="midnightblue" stroke="midnightblue" points="382.91,-260.28 393.41,-258.92 384.35,-253.43 382.91,-260.28"/>
</g>
<!-- Node26 -->
<g id="node26" class="node">
<title>Node26</title>
<g id="a_node26"><a xlink:href="classdenoptim_1_1utils_1_1_graph_utils.html#aad6245f297edf8a9f100b3949092f3c1" target="_top" xlink:title="Unique counter for the number of graph vertices generated.">
<polygon fill="white" stroke="black" points="597,-194.5 597,-224.5 738,-224.5 738,-194.5 597,-194.5"/>
<text text-anchor="start" x="605" y="-212.5" font-family="Helvetica,sans-Serif" font-size="10.00">denoptim.utils.GraphUtils.get</text>
<text text-anchor="middle" x="667.5" y="-201.5" font-family="Helvetica,sans-Serif" font-size="10.00">UniqueVertexIndex</text>
</a>
</g>
</g>
<!-- Node24&#45;&gt;Node26 -->
<g id="edge28" class="edge">
<title>Node24&#45;&gt;Node26</title>
<path fill="none" stroke="midnightblue" d="M325.85,-226.02C398.6,-222.49 510.87,-217.05 586.43,-213.38"/>
<polygon fill="midnightblue" stroke="midnightblue" points="587.03,-216.86 596.85,-212.88 586.69,-209.87 587.03,-216.86"/>
</g>
<!-- Node27 -->
<g id="node27" class="node">
<title>Node27</title>
<g id="a_node27"><a xlink:href="classdenoptim_1_1graph_1_1_vertex.html#aeed71fb5a76a745190ea6f0e3e0b939d" target="_top" xlink:title="Builds a new molecular fragment kind of vertex.">
<polygon fill="white" stroke="black" points="397,-152.5 397,-182.5 530,-182.5 530,-152.5 397,-152.5"/>
<text text-anchor="start" x="405" y="-170.5" font-family="Helvetica,sans-Serif" font-size="10.00">denoptim.graph.Vertex.new</text>
<text text-anchor="middle" x="463.5" y="-159.5" font-family="Helvetica,sans-Serif" font-size="10.00">VertexFromLibrary</text>
</a>
</g>
</g>
<!-- Node24&#45;&gt;Node27 -->
<g id="edge29" class="edge">
<title>Node24&#45;&gt;Node27</title>
<path fill="none" stroke="midnightblue" d="M311.56,-214.38C322.04,-211.51 332.87,-208.48 343,-205.5 364.09,-199.31 387.14,-192.09 407.31,-185.61"/>
<polygon fill="midnightblue" stroke="midnightblue" points="408.52,-188.9 416.97,-182.5 406.37,-182.24 408.52,-188.9"/>
</g>
<!-- Node28 -->
<g id="node28" class="node">
<title>Node28</title>
<g id="a_node28"><a xlink:href="classdenoptim_1_1utils_1_1_randomizer.html#a6949bec32b63f1207da17e0c136a1d58" target="_top" xlink:title="Returns a pseudo&#45;random, uniformly distributed int value between 0 (inclusive) and the specified valu...">
<polygon fill="white" stroke="black" points="383,-114 383,-133 544,-133 544,-114 383,-114"/>
<text text-anchor="middle" x="463.5" y="-121" font-family="Helvetica,sans-Serif" font-size="10.00">denoptim.utils.Randomizer.nextInt</text>
</a>
</g>
</g>
<!-- Node24&#45;&gt;Node28 -->
<g id="edge32" class="edge">
<title>Node24&#45;&gt;Node28</title>
<path fill="none" stroke="midnightblue" d="M325.89,-215.63C331.99,-212.85 337.81,-209.51 343,-205.5 368.53,-185.79 353.09,-161.7 379,-142.5 381.49,-140.66 384.12,-138.99 386.87,-137.48"/>
<polygon fill="midnightblue" stroke="midnightblue" points="388.41,-140.62 395.94,-133.17 385.41,-134.29 388.41,-140.62"/>
</g>
<!-- Node27&#45;&gt;Node26 -->
<g id="edge30" class="edge">
<title>Node27&#45;&gt;Node26</title>
<path fill="none" stroke="midnightblue" d="M530.08,-181.14C548.15,-184.89 567.95,-189.01 586.72,-192.91"/>
<polygon fill="midnightblue" stroke="midnightblue" points="586.22,-196.38 596.72,-194.99 587.65,-189.53 586.22,-196.38"/>
</g>
<!-- Node27&#45;&gt;Node27 -->
<g id="edge31" class="edge">
<title>Node27&#45;&gt;Node27</title>
<path fill="none" stroke="midnightblue" d="M427.95,-182.66C419.38,-192.06 431.23,-201 463.5,-201 483.17,-201 495.25,-197.68 499.75,-192.96"/>
<polygon fill="midnightblue" stroke="midnightblue" points="503.22,-192.4 499.05,-182.66 496.23,-192.87 503.22,-192.4"/>
</g>
<!-- Node29 -->
<g id="node29" class="node">
<title>Node29</title>
<g id="a_node29"><a xlink:href="classdenoptim_1_1utils_1_1_randomizer.html#a6873dd710cc271ed81bfa45411a62359" target="_top" xlink:title="Returns the random number generator.">
<polygon fill="white" stroke="black" points="584,-114 584,-133 751,-133 751,-114 584,-114"/>
<text text-anchor="middle" x="667.5" y="-121" font-family="Helvetica,sans-Serif" font-size="10.00">denoptim.utils.Randomizer.getRNG</text>
</a>
</g>
</g>
<!-- Node28&#45;&gt;Node29 -->
<g id="edge33" class="edge">
<title>Node28&#45;&gt;Node29</title>
<path fill="none" stroke="midnightblue" d="M544.05,-123.5C553.71,-123.5 563.66,-123.5 573.5,-123.5"/>
<polygon fill="midnightblue" stroke="midnightblue" points="573.7,-127 583.7,-123.5 573.7,-120 573.7,-127"/>
</g>
<!-- Node32 -->
<g id="node32" class="node">
<title>Node32</title>
<g id="a_node32"><a xlink:href="classdenoptim_1_1utils_1_1_randomizer.html#acaa5e386da195d9454fae611ed554c48" target="_top" xlink:title="Utility to debug: writes some log in file &#39;/tmp/rng_debug_log&#39;.">
<polygon fill="white" stroke="black" points="592,-154 592,-173 743,-173 743,-154 592,-154"/>
<text text-anchor="middle" x="667.5" y="-161" font-family="Helvetica,sans-Serif" font-size="10.00">denoptim.utils.Randomizer.print</text>
</a>
</g>
</g>
<!-- Node28&#45;&gt;Node32 -->
<g id="edge36" class="edge">
<title>Node28&#45;&gt;Node32</title>
<path fill="none" stroke="midnightblue" d="M512.63,-133.03C541.35,-138.72 578.03,-145.98 608.37,-151.99"/>
<polygon fill="midnightblue" stroke="midnightblue" points="607.9,-155.46 618.39,-153.97 609.26,-148.6 607.9,-155.46"/>
</g>
<!-- Node30 -->
<g id="node30" class="node">
<title>Node30</title>
<g id="a_node30"><a xlink:href="classdenoptim_1_1utils_1_1_randomizer.html#aaaeda6dedda5664a47a2a9a68194162a" target="_top" xlink:title="Initializes this random number generator (RNG) using a random seed that is generated on&#45;the&#45;fly rando...">
<polygon fill="white" stroke="black" points="787,-114 787,-133 976,-133 976,-114 787,-114"/>
<text text-anchor="middle" x="881.5" y="-121" font-family="Helvetica,sans-Serif" font-size="10.00">denoptim.utils.Randomizer.initialiseRNG</text>
</a>
</g>
</g>
<!-- Node29&#45;&gt;Node30 -->
<g id="edge34" class="edge">
<title>Node29&#45;&gt;Node30</title>
<path fill="none" stroke="midnightblue" d="M751.07,-123.5C759.51,-123.5 768.16,-123.5 776.79,-123.5"/>
<polygon fill="midnightblue" stroke="midnightblue" points="776.89,-127 786.89,-123.5 776.89,-120 776.89,-127"/>
</g>
<!-- Node31 -->
<g id="node31" class="node">
<title>Node31</title>
<g id="a_node31"><a xlink:href="classdenoptim_1_1utils_1_1_randomizer.html#ad74f0608d3e2e10caa8873ae059367a7" target="_top" xlink:title=" ">
<polygon fill="white" stroke="black" points="1012,-114 1012,-133 1202,-133 1202,-114 1012,-114"/>
<text text-anchor="middle" x="1107" y="-121" font-family="Helvetica,sans-Serif" font-size="10.00">denoptim.utils.Randomizer.initialiseSeed</text>
</a>
</g>
</g>
<!-- Node30&#45;&gt;Node31 -->
<g id="edge35" class="edge">
<title>Node30&#45;&gt;Node31</title>
<path fill="none" stroke="midnightblue" d="M976.31,-123.5C984.64,-123.5 993.09,-123.5 1001.5,-123.5"/>
<polygon fill="midnightblue" stroke="midnightblue" points="1001.71,-127 1011.71,-123.5 1001.71,-120 1001.71,-127"/>
</g>
<!-- Node32&#45;&gt;Node23 -->
<g id="edge37" class="edge">
<title>Node32&#45;&gt;Node23</title>
<path fill="none" stroke="midnightblue" d="M743.24,-163.5C758.11,-163.5 773.87,-163.5 789.22,-163.5"/>
<polygon fill="midnightblue" stroke="midnightblue" points="789.23,-167 799.23,-163.5 789.23,-160 789.23,-167"/>
</g>
<!-- Node33&#45;&gt;Node33 -->
<g id="edge40" class="edge">
<title>Node33&#45;&gt;Node33</title>
<path fill="none" stroke="midnightblue" d="M220.24,-177.66C212.34,-187.06 223.26,-196 253,-196 271.12,-196 282.26,-192.68 286.41,-187.96"/>
<polygon fill="midnightblue" stroke="midnightblue" points="289.88,-187.42 285.76,-177.66 282.89,-187.86 289.88,-187.42"/>
</g>
<!-- Node34 -->
<g id="node34" class="node">
<title>Node34</title>
<g id="a_node34"><a xlink:href="classdenoptim_1_1ga_1_1_e_a_utils.html#a125819423e7790a4684dfb09ff87c4ae" target="_top" xlink:title="Takes a decision on how many sites to mutate on a candidate.">
<polygon fill="white" stroke="black" points="394.5,-64.5 394.5,-94.5 532.5,-94.5 532.5,-64.5 394.5,-64.5"/>
<text text-anchor="start" x="402.5" y="-82.5" font-family="Helvetica,sans-Serif" font-size="10.00">denoptim.ga.EAUtils.choose</text>
<text text-anchor="middle" x="463.5" y="-71.5" font-family="Helvetica,sans-Serif" font-size="10.00">NumberOfSitesToMutate</text>
</a>
</g>
</g>
<!-- Node33&#45;&gt;Node34 -->
<g id="edge39" class="edge">
<title>Node33&#45;&gt;Node34</title>
<path fill="none" stroke="midnightblue" d="M320.99,-147.4C328.63,-144.6 336.13,-141.32 343,-137.5 361.97,-126.94 360.13,-115.22 379,-104.5 382.88,-102.3 386.97,-100.27 391.18,-98.41"/>
<polygon fill="midnightblue" stroke="midnightblue" points="392.6,-101.61 400.53,-94.59 389.95,-95.13 392.6,-101.61"/>
</g>
</g>
</svg>
        <g id="navigator" transform="translate(0 0)" fill="#404254">
                <rect fill="#f2f5e9" fill-opacity="0.5" stroke="#606060" stroke-width=".5" x="0" y="0" width="60" height="60"/>
                <use id="zoomplus" xlink:href="#zoomPlus" x="17" y="9" onmousedown="handleZoom(evt,'in')"/>
                <use id="zoomminus" xlink:href="#zoomMin" x="42" y="9" onmousedown="handleZoom(evt,'out')"/>
                <use id="reset" xlink:href="#resetDef" x="30" y="36" onmousedown="handleReset()"/>
                <g id="arrowUp" xlink:href="#dirArrow" transform="translate(30 24)" onmousedown="handlePan(0,-1)">
                  <use xlink:href="#rim" fill="#404040">
                        <set attributeName="fill" to="#808080" begin="arrowUp.mouseover" end="arrowUp.mouseout"/>
                  </use>
                  <path fill="none" stroke="white" stroke-width="1.5" d="M0,-3.0v7 M-2.5,-0.5L0,-3.0L2.5,-0.5"/>
                </g>
                <g id="arrowRight" xlink:href="#dirArrow" transform="rotate(90) translate(36 -43)" onmousedown="handlePan(1,0)">
                  <use xlink:href="#rim" fill="#404040">
                        <set attributeName="fill" to="#808080" begin="arrowRight.mouseover" end="arrowRight.mouseout"/>
                  </use>
                  <path fill="none" stroke="white" stroke-width="1.5" d="M0,-3.0v7 M-2.5,-0.5L0,-3.0L2.5,-0.5"/>
                </g>
                <g id="arrowDown" xlink:href="#dirArrow" transform="rotate(180) translate(-30 -48)" onmousedown="handlePan(0,1)">
                  <use xlink:href="#rim" fill="#404040">
                        <set attributeName="fill" to="#808080" begin="arrowDown.mouseover" end="arrowDown.mouseout"/>
                  </use>
                  <path fill="none" stroke="white" stroke-width="1.5" d="M0,-3.0v7 M-2.5,-0.5L0,-3.0L2.5,-0.5"/>
                </g>
                <g id="arrowLeft" xlink:href="#dirArrow" transform="rotate(270) translate(-36 17)" onmousedown="handlePan(-1,0)">
                  <use xlink:href="#rim" fill="#404040">
                        <set attributeName="fill" to="#808080" begin="arrowLeft.mouseover" end="arrowLeft.mouseout"/>
                  </use>
                  <path fill="none" stroke="white" stroke-width="1.5" d="M0,-3.0v7 M-2.5,-0.5L0,-3.0L2.5,-0.5"/>
                </g>
        </g>
        <svg viewBox="0 0 15 15" width="100%" height="30px" preserveAspectRatio="xMaxYMin meet">
         <g id="arrow_out" transform="scale(0.3 0.3)">
          <a xlink:href="classdenoptim_1_1ga_1_1_e_a_utils_a87ea0ad600ad26e1a89a4947abcfef86_cgraph_org.svg" target="_base">
           <rect id="button" ry="5" rx="5" y="6" x="6" height="38" width="38"
                fill="#f2f5e9" fill-opacity="0.5" stroke="#606060" stroke-width="1.0"/>
           <path id="arrow"
             d="M 11.500037,31.436501 C 11.940474,20.09759 22.043105,11.32322 32.158766,21.979434 L 37.068811,17.246167 C 37.068811,17.246167 37.088388,32 37.088388,32 L 22.160133,31.978069 C 22.160133,31.978069 26.997745,27.140456 26.997745,27.140456 C 18.528582,18.264221 13.291696,25.230495 11.500037,31.436501 z"
             style="fill:#404040;"/>
          </a>
         </g>
        </svg>
</svg>
