<?xml version="1.0" encoding="UTF-8" standalone="no"?>
<!DOCTYPE svg PUBLIC "-//W3C//DTD SVG 1.1//EN"
 "http://www.w3.org/Graphics/SVG/1.1/DTD/svg11.dtd">
<!-- Generated by graphviz version 3.0.0 (20221109.1736)
 -->
<!-- Title: denoptim.graph.DGraph.changeSignOfVertexID Pages: 1 -->
<svg width="518pt" height="449pt"
 viewBox="0.00 0.00 518.00 449.00" xmlns="http://www.w3.org/2000/svg" xmlns:xlink="http://www.w3.org/1999/xlink">
<g id="graph0" class="graph" transform="scale(1 1) rotate(0) translate(4 445)">
<title>denoptim.graph.DGraph.changeSignOfVertexID</title>
<polygon fill="white" stroke="transparent" points="-4,4 -4,-445 514,-445 514,4 -4,4"/>
<!-- Node1 -->
<g id="node1" class="node">
<title>Node1</title>
<g id="a_node1"><a xlink:title="Change all vertex IDs to the corresponding negative value.">
<polygon fill="#bfbfbf" stroke="black" points="0,-202.5 0,-232.5 152,-232.5 152,-202.5 0,-202.5"/>
<text text-anchor="start" x="8" y="-220.5" font-family="Helvetica,sans-Serif" font-size="10.00">denoptim.graph.DGraph.change</text>
<text text-anchor="middle" x="76" y="-209.5" font-family="Helvetica,sans-Serif" font-size="10.00">SignOfVertexID</text>
</a>
</g>
</g>
<!-- Node2 -->
<g id="node2" class="node">
<title>Node2</title>
<g id="a_node2"><a xlink:href="classdenoptim_1_1graph_1_1_d_graph.html#a559b3bd2aa8849d8d58430afcb20b016" target="_top" xlink:title=" ">
<polygon fill="white" stroke="black" points="196.5,-410.5 196.5,-440.5 330.5,-440.5 330.5,-410.5 196.5,-410.5"/>
<text text-anchor="start" x="204.5" y="-428.5" font-family="Helvetica,sans-Serif" font-size="10.00">denoptim.graph.DGraph.get</text>
<text text-anchor="middle" x="263.5" y="-417.5" font-family="Helvetica,sans-Serif" font-size="10.00">EdgeCount</text>
</a>
</g>
</g>
<!-- Node1&#45;&gt;Node2 -->
<g id="edge1" class="edge">
<title>Node1&#45;&gt;Node2</title>
<path fill="none" stroke="midnightblue" d="M81.94,-232.62C94.14,-267.63 129.07,-354.83 188,-401.5 189.77,-402.91 191.63,-404.23 193.56,-405.48"/>
<polygon fill="midnightblue" stroke="midnightblue" points="191.94,-408.58 202.36,-410.47 195.39,-402.49 191.94,-408.58"/>
</g>
<!-- Node3 -->
<g id="node3" class="node">
<title>Node3</title>
<g id="a_node3"><a xlink:href="classdenoptim_1_1graph_1_1_d_graph.html#ab5d3641bcfd0c8dd76d5de6159d6b8c8" target="_top" xlink:title=" ">
<polygon fill="white" stroke="black" points="196.5,-361.5 196.5,-391.5 330.5,-391.5 330.5,-361.5 196.5,-361.5"/>
<text text-anchor="start" x="204.5" y="-379.5" font-family="Helvetica,sans-Serif" font-size="10.00">denoptim.graph.DGraph.get</text>
<text text-anchor="middle" x="263.5" y="-368.5" font-family="Helvetica,sans-Serif" font-size="10.00">EdgeList</text>
</a>
</g>
</g>
<!-- Node1&#45;&gt;Node3 -->
<g id="edge2" class="edge">
<title>Node1&#45;&gt;Node3</title>
<path fill="none" stroke="midnightblue" d="M86.5,-232.7C103.74,-259.17 142.6,-313.98 188,-346.5 193.48,-350.43 199.56,-353.94 205.8,-357.06"/>
<polygon fill="midnightblue" stroke="midnightblue" points="204.47,-360.3 215.01,-361.34 207.42,-353.95 204.47,-360.3"/>
</g>
<!-- Node4 -->
<g id="node4" class="node">
<title>Node4</title>
<g id="a_node4"><a xlink:href="classdenoptim_1_1graph_1_1_attachment_point.html#ac8551521d38644f5109800b665957ee9" target="_top" xlink:title=" ">
<polygon fill="white" stroke="black" points="375,-273.5 375,-303.5 510,-303.5 510,-273.5 375,-273.5"/>
<text text-anchor="start" x="383" y="-291.5" font-family="Helvetica,sans-Serif" font-size="10.00">denoptim.graph.Attachment</text>
<text text-anchor="middle" x="442.5" y="-280.5" font-family="Helvetica,sans-Serif" font-size="10.00">Point.getOwner</text>
</a>
</g>
</g>
<!-- Node1&#45;&gt;Node4 -->
<g id="edge3" class="edge">
<title>Node1&#45;&gt;Node4</title>
<path fill="none" stroke="midnightblue" d="M88.57,-232.87C106.77,-255.62 144.55,-297.32 188,-313.5 254.77,-338.37 337.91,-322.03 390.36,-306.51"/>
<polygon fill="midnightblue" stroke="midnightblue" points="391.57,-309.8 400.11,-303.53 389.52,-303.1 391.57,-309.8"/>
</g>
<!-- Node5 -->
<g id="node5" class="node">
<title>Node5</title>
<g id="a_node5"><a xlink:href="classdenoptim_1_1graph_1_1_edge.html#a658e275a18a50f12474777f5f28c35e9" target="_top" xlink:title=" ">
<polygon fill="white" stroke="black" points="188,-186 188,-205 339,-205 339,-186 188,-186"/>
<text text-anchor="middle" x="263.5" y="-193" font-family="Helvetica,sans-Serif" font-size="10.00">denoptim.graph.Edge.getSrcAP</text>
</a>
</g>
</g>
<!-- Node1&#45;&gt;Node5 -->
<g id="edge4" class="edge">
<title>Node1&#45;&gt;Node5</title>
<path fill="none" stroke="midnightblue" d="M152.18,-208.58C160.63,-207.58 169.28,-206.56 177.83,-205.54"/>
<polygon fill="midnightblue" stroke="midnightblue" points="178.29,-209.01 187.81,-204.36 177.47,-202.06 178.29,-209.01"/>
</g>
<!-- Node6 -->
<g id="node6" class="node">
<title>Node6</title>
<g id="a_node6"><a xlink:href="classdenoptim_1_1graph_1_1_edge.html#a6331fb41fb8390b908ca7d737cc13602" target="_top" xlink:title=" ">
<polygon fill="white" stroke="black" points="195,-273.5 195,-303.5 332,-303.5 332,-273.5 195,-273.5"/>
<text text-anchor="start" x="203" y="-291.5" font-family="Helvetica,sans-Serif" font-size="10.00">denoptim.graph.Edge.getSrc</text>
<text text-anchor="middle" x="263.5" y="-280.5" font-family="Helvetica,sans-Serif" font-size="10.00">Vertex</text>
</a>
</g>
</g>
<!-- Node1&#45;&gt;Node6 -->
<g id="edge5" class="edge">
<title>Node1&#45;&gt;Node6</title>
<path fill="none" stroke="midnightblue" d="M111.75,-232.63C133.51,-241.92 162.21,-253.84 188,-263.5 193.87,-265.7 200.03,-267.91 206.19,-270.07"/>
<polygon fill="midnightblue" stroke="midnightblue" points="205.23,-273.44 215.83,-273.39 207.52,-266.82 205.23,-273.44"/>
</g>
<!-- Node8 -->
<g id="node8" class="node">
<title>Node8</title>
<g id="a_node8"><a xlink:href="classdenoptim_1_1graph_1_1_edge.html#a44521a3ad1a83e5d0a6be227e35ceffa" target="_top" xlink:title=" ">
<polygon fill="white" stroke="black" points="188.5,-148 188.5,-167 338.5,-167 338.5,-148 188.5,-148"/>
<text text-anchor="middle" x="263.5" y="-155" font-family="Helvetica,sans-Serif" font-size="10.00">denoptim.graph.Edge.getTrgAP</text>
</a>
</g>
</g>
<!-- Node1&#45;&gt;Node8 -->
<g id="edge8" class="edge">
<title>Node1&#45;&gt;Node8</title>
<path fill="none" stroke="midnightblue" d="M114.68,-202.47C136.01,-194.25 163.28,-184.19 188,-176.5 195.7,-174.1 203.92,-171.78 211.98,-169.63"/>
<polygon fill="midnightblue" stroke="midnightblue" points="212.89,-173 221.69,-167.09 211.13,-166.23 212.89,-173"/>
</g>
<!-- Node9 -->
<g id="node9" class="node">
<title>Node9</title>
<g id="a_node9"><a xlink:href="classdenoptim_1_1graph_1_1_edge.html#a9a569de09e30a53338e1983f2a07e105" target="_top" xlink:title=" ">
<polygon fill="white" stroke="black" points="195,-224.5 195,-254.5 332,-254.5 332,-224.5 195,-224.5"/>
<text text-anchor="start" x="203" y="-242.5" font-family="Helvetica,sans-Serif" font-size="10.00">denoptim.graph.Edge.getTrg</text>
<text text-anchor="middle" x="263.5" y="-231.5" font-family="Helvetica,sans-Serif" font-size="10.00">Vertex</text>
</a>
</g>
</g>
<!-- Node1&#45;&gt;Node9 -->
<g id="edge9" class="edge">
<title>Node1&#45;&gt;Node9</title>
<path fill="none" stroke="midnightblue" d="M152.18,-226.42C162.91,-227.69 173.97,-229 184.75,-230.28"/>
<polygon fill="midnightblue" stroke="midnightblue" points="184.64,-233.79 194.98,-231.49 185.46,-226.84 184.64,-233.79"/>
</g>
<!-- Node10 -->
<g id="node10" class="node">
<title>Node10</title>
<g id="a_node10"><a xlink:href="classdenoptim_1_1graph_1_1_d_graph.html#a3b7c2feb2da30079318f06819e0e6761" target="_top" xlink:title=" ">
<polygon fill="white" stroke="black" points="196.5,-98.5 196.5,-128.5 330.5,-128.5 330.5,-98.5 196.5,-98.5"/>
<text text-anchor="start" x="204.5" y="-116.5" font-family="Helvetica,sans-Serif" font-size="10.00">denoptim.graph.DGraph.get</text>
<text text-anchor="middle" x="263.5" y="-105.5" font-family="Helvetica,sans-Serif" font-size="10.00">VertexCount</text>
</a>
</g>
</g>
<!-- Node1&#45;&gt;Node10 -->
<g id="edge12" class="edge">
<title>Node1&#45;&gt;Node10</title>
<path fill="none" stroke="midnightblue" d="M94.78,-202.31C115.85,-184.92 152.59,-156.54 188,-138.5 192.26,-136.33 196.75,-134.29 201.32,-132.37"/>
<polygon fill="midnightblue" stroke="midnightblue" points="202.77,-135.56 210.79,-128.64 200.2,-129.05 202.77,-135.56"/>
</g>
<!-- Node11 -->
<g id="node11" class="node">
<title>Node11</title>
<g id="a_node11"><a xlink:href="classdenoptim_1_1graph_1_1_d_graph.html#a650a0f54382fb930bf57429dd616258a" target="_top" xlink:title=" ">
<polygon fill="white" stroke="black" points="196.5,-49.5 196.5,-79.5 330.5,-79.5 330.5,-49.5 196.5,-49.5"/>
<text text-anchor="start" x="204.5" y="-67.5" font-family="Helvetica,sans-Serif" font-size="10.00">denoptim.graph.DGraph.get</text>
<text text-anchor="middle" x="263.5" y="-56.5" font-family="Helvetica,sans-Serif" font-size="10.00">VertexList</text>
</a>
</g>
</g>
<!-- Node1&#45;&gt;Node11 -->
<g id="edge13" class="edge">
<title>Node1&#45;&gt;Node11</title>
<path fill="none" stroke="midnightblue" d="M86,-202.39C102.74,-175.57 141.23,-119.54 188,-88.5 190.39,-86.91 192.89,-85.43 195.47,-84.03"/>
<polygon fill="midnightblue" stroke="midnightblue" points="197.02,-87.17 204.48,-79.64 193.96,-80.88 197.02,-87.17"/>
</g>
<!-- Node12 -->
<g id="node12" class="node">
<title>Node12</title>
<g id="a_node12"><a xlink:href="classdenoptim_1_1graph_1_1_vertex.html#a29e20c43a6110fbaac6cc86c216fe143" target="_top" xlink:title=" ">
<polygon fill="white" stroke="black" points="199.5,-0.5 199.5,-30.5 327.5,-30.5 327.5,-0.5 199.5,-0.5"/>
<text text-anchor="start" x="207.5" y="-18.5" font-family="Helvetica,sans-Serif" font-size="10.00">denoptim.graph.Vertex.set</text>
<text text-anchor="middle" x="263.5" y="-7.5" font-family="Helvetica,sans-Serif" font-size="10.00">VertexId</text>
</a>
</g>
</g>
<!-- Node1&#45;&gt;Node12 -->
<g id="edge14" class="edge">
<title>Node1&#45;&gt;Node12</title>
<path fill="none" stroke="midnightblue" d="M82.27,-202.36C94.95,-168.16 130.42,-84.41 188,-39.5 189.78,-38.11 191.65,-36.8 193.59,-35.56"/>
<polygon fill="midnightblue" stroke="midnightblue" points="195.41,-38.55 202.42,-30.6 191.98,-32.44 195.41,-38.55"/>
</g>
<!-- Node6&#45;&gt;Node4 -->
<g id="edge6" class="edge">
<title>Node6&#45;&gt;Node4</title>
<path fill="none" stroke="midnightblue" d="M332.17,-288.5C342.75,-288.5 353.75,-288.5 364.51,-288.5"/>
<polygon fill="midnightblue" stroke="midnightblue" points="364.74,-292 374.74,-288.5 364.74,-285 364.74,-292"/>
</g>
<!-- Node7 -->
<g id="node7" class="node">
<title>Node7</title>
<g id="a_node7"><a xlink:href="classdenoptim_1_1graph_1_1_vertex.html#a9493346ca1480edfcfa00cb78a52adf5" target="_top" xlink:title=" ">
<polygon fill="white" stroke="black" points="378.5,-224.5 378.5,-254.5 506.5,-254.5 506.5,-224.5 378.5,-224.5"/>
<text text-anchor="start" x="386.5" y="-242.5" font-family="Helvetica,sans-Serif" font-size="10.00">denoptim.graph.Vertex.get</text>
<text text-anchor="middle" x="442.5" y="-231.5" font-family="Helvetica,sans-Serif" font-size="10.00">VertexId</text>
</a>
</g>
</g>
<!-- Node6&#45;&gt;Node7 -->
<g id="edge7" class="edge">
<title>Node6&#45;&gt;Node7</title>
<path fill="none" stroke="midnightblue" d="M319.05,-273.4C337.47,-268.3 358.21,-262.56 377.31,-257.27"/>
<polygon fill="midnightblue" stroke="midnightblue" points="378.43,-260.59 387.13,-254.55 376.56,-253.85 378.43,-260.59"/>
</g>
<!-- Node9&#45;&gt;Node4 -->
<g id="edge10" class="edge">
<title>Node9&#45;&gt;Node4</title>
<path fill="none" stroke="midnightblue" d="M319.05,-254.6C337.47,-259.7 358.21,-265.44 377.31,-270.73"/>
<polygon fill="midnightblue" stroke="midnightblue" points="376.56,-274.15 387.13,-273.45 378.43,-267.41 376.56,-274.15"/>
</g>
<!-- Node9&#45;&gt;Node7 -->
<g id="edge11" class="edge">
<title>Node9&#45;&gt;Node7</title>
<path fill="none" stroke="midnightblue" d="M332.17,-239.5C343.87,-239.5 356.09,-239.5 367.94,-239.5"/>
<polygon fill="midnightblue" stroke="midnightblue" points="368.23,-243 378.23,-239.5 368.23,-236 368.23,-243"/>
</g>
</g>
</svg>
