<?xml version="1.0" encoding="UTF-8" standalone="no"?>
<!DOCTYPE svg PUBLIC "-//W3C//DTD SVG 1.1//EN"
 "http://www.w3.org/Graphics/SVG/1.1/DTD/svg11.dtd">
<!-- Generated by graphviz version 3.0.0 (20221109.1736)
 -->
<!-- Title: denoptim.gui.GUIVertexInspector.deprotectEditedSystem Pages: 1 -->
<svg width="614pt" height="161pt"
 viewBox="0.00 0.00 614.00 161.00" xmlns="http://www.w3.org/2000/svg" xmlns:xlink="http://www.w3.org/1999/xlink">
<g id="graph0" class="graph" transform="scale(1 1) rotate(0) translate(4 157)">
<title>denoptim.gui.GUIVertexInspector.deprotectEditedSystem</title>
<polygon fill="white" stroke="transparent" points="-4,4 -4,-157 610,-157 610,4 -4,4"/>
<!-- Node1 -->
<g id="node1" class="node">
<title>Node1</title>
<g id="a_node1"><a xlink:title=" ">
<polygon fill="#bfbfbf" stroke="black" points="0,-49.5 0,-79.5 203,-79.5 203,-49.5 0,-49.5"/>
<text text-anchor="start" x="8" y="-67.5" font-family="Helvetica,sans-Serif" font-size="10.00">denoptim.gui.GUIVertexInspector.deprotect</text>
<text text-anchor="middle" x="101.5" y="-56.5" font-family="Helvetica,sans-Serif" font-size="10.00">EditedSystem</text>
</a>
</g>
</g>
<!-- Node2 -->
<g id="node2" class="node">
<title>Node2</title>
<g id="a_node2"><a xlink:href="classdenoptim_1_1gui_1_1_vertex_view_panel.html#a40e54f9dd90a7e68217a35edb0f8e36f" target="_top" xlink:title="Overrides the flag signaling unsaved edits to saying that there are no altered data.">
<polygon fill="white" stroke="black" points="239,-98.5 239,-128.5 430,-128.5 430,-98.5 239,-98.5"/>
<text text-anchor="start" x="247" y="-116.5" font-family="Helvetica,sans-Serif" font-size="10.00">denoptim.gui.VertexViewPanel.deprotect</text>
<text text-anchor="middle" x="334.5" y="-105.5" font-family="Helvetica,sans-Serif" font-size="10.00">Edits</text>
</a>
</g>
</g>
<!-- Node1&#45;&gt;Node2 -->
<g id="edge1" class="edge">
<title>Node1&#45;&gt;Node2</title>
<path fill="none" stroke="midnightblue" d="M173.38,-79.53C198.54,-84.87 227.05,-90.92 252.96,-96.42"/>
<polygon fill="midnightblue" stroke="midnightblue" points="252.25,-99.84 262.76,-98.49 253.7,-92.99 252.25,-99.84"/>
</g>
<!-- Node5 -->
<g id="node5" class="node">
<title>Node5</title>
<g id="a_node5"><a xlink:href="classdenoptim_1_1gui_1_1_g_u_i_vertex_inspector_1_1_vrtx_spinner_change_event.html#aadd9bd7cbca65495eb27e4f9e4a3411f" target="_top" xlink:title="Enables/disable the listener.">
<polygon fill="white" stroke="black" points="247,-49.5 247,-79.5 422,-79.5 422,-49.5 247,-49.5"/>
<text text-anchor="start" x="255" y="-67.5" font-family="Helvetica,sans-Serif" font-size="10.00">denoptim.gui.GUIVertexInspector.</text>
<text text-anchor="middle" x="334.5" y="-56.5" font-family="Helvetica,sans-Serif" font-size="10.00">VrtxSpinnerChangeEvent.setEnabled</text>
</a>
</g>
</g>
<!-- Node1&#45;&gt;Node5 -->
<g id="edge4" class="edge">
<title>Node1&#45;&gt;Node5</title>
<path fill="none" stroke="midnightblue" d="M203.15,-64.5C214.32,-64.5 225.68,-64.5 236.8,-64.5"/>
<polygon fill="midnightblue" stroke="midnightblue" points="236.93,-68 246.93,-64.5 236.93,-61 236.93,-68"/>
</g>
<!-- Node6 -->
<g id="node6" class="node">
<title>Node6</title>
<g id="a_node6"><a xlink:href="classdenoptim_1_1gui_1_1_vertex_view_panel.html#ab5a415c6dbe55114c957b6241eab83eb" target="_top" xlink:title="Enable/disable switch&#45;able view.">
<polygon fill="white" stroke="black" points="252.5,-0.5 252.5,-30.5 416.5,-30.5 416.5,-0.5 252.5,-0.5"/>
<text text-anchor="start" x="260.5" y="-18.5" font-family="Helvetica,sans-Serif" font-size="10.00">denoptim.gui.VertexViewPanel.set</text>
<text text-anchor="middle" x="334.5" y="-7.5" font-family="Helvetica,sans-Serif" font-size="10.00">Switchable</text>
</a>
</g>
</g>
<!-- Node1&#45;&gt;Node6 -->
<g id="edge5" class="edge">
<title>Node1&#45;&gt;Node6</title>
<path fill="none" stroke="midnightblue" d="M173.38,-49.47C198.54,-44.13 227.05,-38.08 252.96,-32.58"/>
<polygon fill="midnightblue" stroke="midnightblue" points="253.7,-36.01 262.76,-30.51 252.25,-29.16 253.7,-36.01"/>
</g>
<!-- Node3 -->
<g id="node3" class="node">
<title>Node3</title>
<g id="a_node3"><a xlink:href="classdenoptim_1_1gui_1_1_fragment_view_panel.html#a924ff49c544f18a4726d8bc871a641d5" target="_top" xlink:title="Overrides the flag signaling unsaved edits to saying that there are no altered data.">
<polygon fill="white" stroke="black" points="467.5,-122.5 467.5,-152.5 604.5,-152.5 604.5,-122.5 467.5,-122.5"/>
<text text-anchor="start" x="475.5" y="-140.5" font-family="Helvetica,sans-Serif" font-size="10.00">denoptim.gui.FragmentView</text>
<text text-anchor="middle" x="536" y="-129.5" font-family="Helvetica,sans-Serif" font-size="10.00">Panel.deprotectEdits</text>
</a>
</g>
</g>
<!-- Node2&#45;&gt;Node3 -->
<g id="edge2" class="edge">
<title>Node2&#45;&gt;Node3</title>
<path fill="none" stroke="midnightblue" d="M430.28,-124.9C439.24,-125.98 448.26,-127.06 457.04,-128.12"/>
<polygon fill="midnightblue" stroke="midnightblue" points="456.87,-131.63 467.21,-129.35 457.7,-124.68 456.87,-131.63"/>
</g>
<!-- Node4 -->
<g id="node4" class="node">
<title>Node4</title>
<g id="a_node4"><a xlink:href="classdenoptim_1_1gui_1_1_vertex_as_graph_view_panel.html#a59ae85a6ec6537cafb8391e70331c734" target="_top" xlink:title="Overrides the flag signaling unsaved edits to saying that there are no altered data.">
<polygon fill="white" stroke="black" points="466,-73.5 466,-103.5 606,-103.5 606,-73.5 466,-73.5"/>
<text text-anchor="start" x="474" y="-91.5" font-family="Helvetica,sans-Serif" font-size="10.00">denoptim.gui.VertexAsGraph</text>
<text text-anchor="middle" x="536" y="-80.5" font-family="Helvetica,sans-Serif" font-size="10.00">ViewPanel.deprotectEdits</text>
</a>
</g>
</g>
<!-- Node2&#45;&gt;Node4 -->
<g id="edge3" class="edge">
<title>Node2&#45;&gt;Node4</title>
<path fill="none" stroke="midnightblue" d="M430.28,-101.62C438.79,-100.56 447.34,-99.48 455.7,-98.44"/>
<polygon fill="midnightblue" stroke="midnightblue" points="456.28,-101.89 465.77,-97.18 455.41,-94.95 456.28,-101.89"/>
</g>
</g>
</svg>
