<?xml version="1.0" encoding="UTF-8" standalone="no"?>
<!DOCTYPE svg PUBLIC "-//W3C//DTD SVG 1.1//EN"
 "http://www.w3.org/Graphics/SVG/1.1/DTD/svg11.dtd">
<!-- Generated by graphviz version 3.0.0 (20221109.1736)
 -->
<!-- Title: denoptim.io.DenoptimIO.readCuttingRules Pages: 1 -->
<svg width="819pt" height="246pt"
 viewBox="0.00 0.00 819.00 245.50" xmlns="http://www.w3.org/2000/svg" xmlns:xlink="http://www.w3.org/1999/xlink">
<g id="graph0" class="graph" transform="scale(1 1) rotate(0) translate(4 241.5)">
<title>denoptim.io.DenoptimIO.readCuttingRules</title>
<polygon fill="white" stroke="transparent" points="-4,4 -4,-241.5 815,-241.5 815,4 -4,4"/>
<!-- Node1 -->
<g id="node1" class="node">
<title>Node1</title>
<g id="a_node1"><a xlink:title="Read cutting rules from a stream.">
<polygon fill="#bfbfbf" stroke="black" points="670,-98.5 670,-128.5 811,-128.5 811,-98.5 670,-98.5"/>
<text text-anchor="start" x="678" y="-116.5" font-family="Helvetica,sans-Serif" font-size="10.00">denoptim.io.DenoptimIO.read</text>
<text text-anchor="middle" x="740.5" y="-105.5" font-family="Helvetica,sans-Serif" font-size="10.00">CuttingRules</text>
</a>
</g>
</g>
<!-- Node1&#45;&gt;Node1 -->
<g id="edge10" class="edge">
<title>Node1&#45;&gt;Node1</title>
<path fill="none" stroke="midnightblue" d="M777.46,-138.96C772.87,-143.68 760.55,-147 740.5,-147 707.59,-147 695.51,-138.06 704.25,-128.66"/>
<polygon fill="midnightblue" stroke="midnightblue" points="780.93,-138.39 776.75,-128.66 773.95,-138.88 780.93,-138.39"/>
</g>
<!-- Node2 -->
<g id="node2" class="node">
<title>Node2</title>
<g id="a_node2"><a xlink:href="classdenoptim_1_1gui_1_1_cutting_rules_selection_dialog.html#a64ab4ac8312bff57a077266658555757" target="_top" xlink:title="Constructor.">
<polygon fill="white" stroke="black" points="441.5,-196 441.5,-237 623.5,-237 623.5,-196 441.5,-196"/>
<text text-anchor="start" x="449.5" y="-225" font-family="Helvetica,sans-Serif" font-size="10.00">denoptim.gui.CuttingRules</text>
<text text-anchor="start" x="449.5" y="-214" font-family="Helvetica,sans-Serif" font-size="10.00">SelectionDialog.CuttingRulesSelection</text>
<text text-anchor="middle" x="532.5" y="-203" font-family="Helvetica,sans-Serif" font-size="10.00">Dialog</text>
</a>
</g>
</g>
<!-- Node1&#45;&gt;Node2 -->
<g id="edge1" class="edge">
<title>Node1&#45;&gt;Node2</title>
<path fill="none" stroke="midnightblue" d="M714.08,-134.97C693.59,-151.35 663.44,-173.41 634,-187.5 627.61,-190.56 620.84,-193.36 613.94,-195.9"/>
<polygon fill="midnightblue" stroke="midnightblue" points="716.42,-137.58 721.97,-128.56 712,-132.15 716.42,-137.58"/>
</g>
<!-- Node3 -->
<g id="node3" class="node">
<title>Node3</title>
<g id="a_node3"><a xlink:href="classdenoptim_1_1gui_1_1_g_u_i_vertex_inspector.html#ae6eecb27bf631e3cf159af0834ff6ee2" target="_top" xlink:title="Starts a dialog to define the on&#45;the&#45;fly fragmentation settings.">
<polygon fill="white" stroke="black" points="438.5,-147.5 438.5,-177.5 626.5,-177.5 626.5,-147.5 438.5,-147.5"/>
<text text-anchor="start" x="446.5" y="-165.5" font-family="Helvetica,sans-Serif" font-size="10.00">denoptim.gui.GUIVertexInspector.dialog</text>
<text text-anchor="middle" x="532.5" y="-154.5" font-family="Helvetica,sans-Serif" font-size="10.00">ToDefineCuttingRules</text>
</a>
</g>
</g>
<!-- Node1&#45;&gt;Node3 -->
<g id="edge2" class="edge">
<title>Node1&#45;&gt;Node3</title>
<path fill="none" stroke="midnightblue" d="M666.33,-130.9C643.54,-136.32 618.62,-142.25 596.59,-147.49"/>
<polygon fill="midnightblue" stroke="midnightblue" points="667.37,-134.25 676.29,-128.53 665.75,-127.44 667.37,-134.25"/>
</g>
<!-- Node8 -->
<g id="node8" class="node">
<title>Node8</title>
<g id="a_node8"><a xlink:href="classdenoptim_1_1programs_1_1fragmenter_1_1_fragmenter_parameters.html#aeb24d66181afd49b30a224fb495cc558" target="_top" xlink:title="Processes all parameters and initialize related objects.">
<polygon fill="white" stroke="black" points="431,-98.5 431,-128.5 634,-128.5 634,-98.5 431,-98.5"/>
<text text-anchor="start" x="439" y="-116.5" font-family="Helvetica,sans-Serif" font-size="10.00">denoptim.programs.fragmenter.</text>
<text text-anchor="middle" x="532.5" y="-105.5" font-family="Helvetica,sans-Serif" font-size="10.00">FragmenterParameters.processParameters</text>
</a>
</g>
</g>
<!-- Node1&#45;&gt;Node8 -->
<g id="edge7" class="edge">
<title>Node1&#45;&gt;Node8</title>
<path fill="none" stroke="midnightblue" d="M659.7,-113.5C651.35,-113.5 642.8,-113.5 634.26,-113.5"/>
<polygon fill="midnightblue" stroke="midnightblue" points="659.76,-117 669.76,-113.5 659.76,-110 659.76,-117"/>
</g>
<!-- Node11 -->
<g id="node11" class="node">
<title>Node11</title>
<g id="a_node11"><a xlink:href="classdenoptim_1_1io_1_1_denoptim_i_o_test.html#ab21beda011a68e9910f12060c1840337" target="_top" xlink:title=" ">
<polygon fill="white" stroke="black" points="453.5,-49.5 453.5,-79.5 611.5,-79.5 611.5,-49.5 453.5,-49.5"/>
<text text-anchor="start" x="461.5" y="-67.5" font-family="Helvetica,sans-Serif" font-size="10.00">denoptim.io.DenoptimIOTest.test</text>
<text text-anchor="middle" x="532.5" y="-56.5" font-family="Helvetica,sans-Serif" font-size="10.00">IOCuttingRules</text>
</a>
</g>
</g>
<!-- Node1&#45;&gt;Node11 -->
<g id="edge11" class="edge">
<title>Node1&#45;&gt;Node11</title>
<path fill="none" stroke="midnightblue" d="M666.33,-96.1C643.54,-90.68 618.62,-84.75 596.59,-79.51"/>
<polygon fill="midnightblue" stroke="midnightblue" points="665.75,-99.56 676.29,-98.47 667.37,-92.75 665.75,-99.56"/>
</g>
<!-- Node12 -->
<g id="node12" class="node">
<title>Node12</title>
<g id="a_node12"><a xlink:href="classdenoptim_1_1io_1_1_denoptim_i_o_test.html#af3848f6c5e56e2d6d55f3b1493399dfc" target="_top" xlink:title=" ">
<polygon fill="white" stroke="black" points="453.5,-0.5 453.5,-30.5 611.5,-30.5 611.5,-0.5 453.5,-0.5"/>
<text text-anchor="start" x="461.5" y="-18.5" font-family="Helvetica,sans-Serif" font-size="10.00">denoptim.io.DenoptimIOTest.test</text>
<text text-anchor="middle" x="532.5" y="-7.5" font-family="Helvetica,sans-Serif" font-size="10.00">ReadCuttingRulsedDefault</text>
</a>
</g>
</g>
<!-- Node1&#45;&gt;Node12 -->
<g id="edge12" class="edge">
<title>Node1&#45;&gt;Node12</title>
<path fill="none" stroke="midnightblue" d="M714.63,-91.95C694.23,-75.33 663.94,-52.98 634,-39.5 626.39,-36.08 618.24,-33.1 609.98,-30.53"/>
<polygon fill="midnightblue" stroke="midnightblue" points="712.53,-94.76 722.47,-98.45 717,-89.37 712.53,-94.76"/>
</g>
<!-- Node4 -->
<g id="node4" class="node">
<title>Node4</title>
<g id="a_node4"><a xlink:href="classdenoptim_1_1gui_1_1_g_u_i_graph_handler.html#af5b000c105018cbd7c262b34f9750044" target="_top" xlink:title="Initialize the panel and add buttons.">
<polygon fill="white" stroke="black" points="202.5,-194 202.5,-213 390.5,-213 390.5,-194 202.5,-194"/>
<text text-anchor="middle" x="296.5" y="-201" font-family="Helvetica,sans-Serif" font-size="10.00">denoptim.gui.GUIGraphHandler.initialize</text>
</a>
</g>
</g>
<!-- Node3&#45;&gt;Node4 -->
<g id="edge3" class="edge">
<title>Node3&#45;&gt;Node4</title>
<path fill="none" stroke="midnightblue" d="M435.7,-179.29C407.18,-184.28 376.94,-189.58 352.03,-193.95"/>
<polygon fill="midnightblue" stroke="midnightblue" points="436.45,-182.71 445.7,-177.53 435.24,-175.81 436.45,-182.71"/>
</g>
<!-- Node6 -->
<g id="node6" class="node">
<title>Node6</title>
<g id="a_node6"><a xlink:href="classdenoptim_1_1gui_1_1_g_u_i_vertex_inspector.html#acadecc92299a7ea46113c06382a1f333" target="_top" xlink:title="Initialize the panel and add buttons.">
<polygon fill="white" stroke="black" points="198,-151 198,-170 395,-170 395,-151 198,-151"/>
<text text-anchor="middle" x="296.5" y="-158" font-family="Helvetica,sans-Serif" font-size="10.00">denoptim.gui.GUIVertexInspector.initialize</text>
</a>
</g>
</g>
<!-- Node3&#45;&gt;Node6 -->
<g id="edge5" class="edge">
<title>Node3&#45;&gt;Node6</title>
<path fill="none" stroke="midnightblue" d="M428.33,-161.62C417.36,-161.52 406.23,-161.43 395.32,-161.34"/>
<polygon fill="midnightblue" stroke="midnightblue" points="428.32,-165.12 438.34,-161.7 428.37,-158.12 428.32,-165.12"/>
</g>
<!-- Node5 -->
<g id="node5" class="node">
<title>Node5</title>
<g id="a_node5"><a xlink:href="classdenoptim_1_1gui_1_1_g_u_i_graph_handler.html#ab7d010d9a384f6b85edce47c95d6723b" target="_top" xlink:title="Constructor.">
<polygon fill="white" stroke="black" points="4,-191.5 4,-221.5 158,-221.5 158,-191.5 4,-191.5"/>
<text text-anchor="start" x="12" y="-209.5" font-family="Helvetica,sans-Serif" font-size="10.00">denoptim.gui.GUIGraphHandler.</text>
<text text-anchor="middle" x="81" y="-198.5" font-family="Helvetica,sans-Serif" font-size="10.00">GUIGraphHandler</text>
</a>
</g>
</g>
<!-- Node4&#45;&gt;Node5 -->
<g id="edge4" class="edge">
<title>Node4&#45;&gt;Node5</title>
<path fill="none" stroke="midnightblue" d="M192.35,-204.95C180.8,-205.11 169.19,-205.27 158.07,-205.43"/>
<polygon fill="midnightblue" stroke="midnightblue" points="192.53,-208.45 202.48,-204.81 192.43,-201.45 192.53,-208.45"/>
</g>
<!-- Node7 -->
<g id="node7" class="node">
<title>Node7</title>
<g id="a_node7"><a xlink:href="classdenoptim_1_1gui_1_1_g_u_i_vertex_inspector.html#abc5d3c33ad9b2b114ce43e9b2cd577bb" target="_top" xlink:title="Constructor.">
<polygon fill="white" stroke="black" points="0,-142.5 0,-172.5 162,-172.5 162,-142.5 0,-142.5"/>
<text text-anchor="start" x="8" y="-160.5" font-family="Helvetica,sans-Serif" font-size="10.00">denoptim.gui.GUIVertexInspector.</text>
<text text-anchor="middle" x="81" y="-149.5" font-family="Helvetica,sans-Serif" font-size="10.00">GUIVertexInspector</text>
</a>
</g>
</g>
<!-- Node6&#45;&gt;Node7 -->
<g id="edge6" class="edge">
<title>Node6&#45;&gt;Node7</title>
<path fill="none" stroke="midnightblue" d="M187.69,-158.99C179.06,-158.86 170.44,-158.74 162.05,-158.62"/>
<polygon fill="midnightblue" stroke="midnightblue" points="187.76,-162.49 197.81,-159.13 187.86,-155.49 187.76,-162.49"/>
</g>
<!-- Node9 -->
<g id="node9" class="node">
<title>Node9</title>
<g id="a_node9"><a xlink:href="classdenoptim_1_1programs_1_1fragmenter_1_1_fragmenter.html#aa27df9705e3aed34cc8cb8bc05e6ce85" target="_top" xlink:title=" ">
<polygon fill="white" stroke="black" points="221.5,-99.5 221.5,-129.5 371.5,-129.5 371.5,-99.5 221.5,-99.5"/>
<text text-anchor="start" x="229.5" y="-117.5" font-family="Helvetica,sans-Serif" font-size="10.00">denoptim.programs.fragmenter.</text>
<text text-anchor="middle" x="296.5" y="-106.5" font-family="Helvetica,sans-Serif" font-size="10.00">Fragmenter.runProgram</text>
</a>
</g>
</g>
<!-- Node8&#45;&gt;Node9 -->
<g id="edge8" class="edge">
<title>Node8&#45;&gt;Node9</title>
<path fill="none" stroke="midnightblue" d="M420.58,-113.97C403.93,-114.05 387.13,-114.12 371.51,-114.18"/>
<polygon fill="midnightblue" stroke="midnightblue" points="420.92,-117.47 430.9,-113.93 420.89,-110.47 420.92,-117.47"/>
</g>
<!-- Node10 -->
<g id="node10" class="node">
<title>Node10</title>
<g id="a_node10"><a xlink:href="classdenoptim_1_1fragmenter_1_1_parallel_fragmentation_algorithm_test.html#a11b2178cd3d55ba7f1fe1e0e047dd684" target="_top" xlink:title=" ">
<polygon fill="white" stroke="black" points="217.5,-40 217.5,-81 375.5,-81 375.5,-40 217.5,-40"/>
<text text-anchor="start" x="225.5" y="-69" font-family="Helvetica,sans-Serif" font-size="10.00">denoptim.fragmenter.Parallel</text>
<text text-anchor="start" x="225.5" y="-58" font-family="Helvetica,sans-Serif" font-size="10.00">FragmentationAlgorithmTest.test</text>
<text text-anchor="middle" x="296.5" y="-47" font-family="Helvetica,sans-Serif" font-size="10.00">SplitInputForThreads</text>
</a>
</g>
</g>
<!-- Node8&#45;&gt;Node10 -->
<g id="edge9" class="edge">
<title>Node8&#45;&gt;Node10</title>
<path fill="none" stroke="midnightblue" d="M455.1,-96.2C429.65,-90.43 401.28,-84.01 375.69,-78.21"/>
<polygon fill="midnightblue" stroke="midnightblue" points="454.54,-99.66 465.07,-98.45 456.09,-92.83 454.54,-99.66"/>
</g>
</g>
</svg>
