<?xml version="1.0" encoding="UTF-8" standalone="no"?>
<!DOCTYPE svg PUBLIC "-//W3C//DTD SVG 1.1//EN"
 "http://www.w3.org/Graphics/SVG/1.1/DTD/svg11.dtd">
<!-- Generated by graphviz version 3.0.0 (20221109.1736)
 -->
<!-- Title: denoptim.graph.rings.ChainLink.getApIdToLeft Pages: 1 -->
<svg width="760pt" height="88pt"
 viewBox="0.00 0.00 760.00 88.00" xmlns="http://www.w3.org/2000/svg" xmlns:xlink="http://www.w3.org/1999/xlink">
<g id="graph0" class="graph" transform="scale(1 1) rotate(0) translate(4 84)">
<title>denoptim.graph.rings.ChainLink.getApIdToLeft</title>
<polygon fill="white" stroke="transparent" points="-4,4 -4,-84 756,-84 756,4 -4,4"/>
<!-- Node1 -->
<g id="node1" class="node">
<title>Node1</title>
<g id="a_node1"><a xlink:title=" ">
<polygon fill="#bfbfbf" stroke="black" points="619,-24.5 619,-54.5 752,-54.5 752,-24.5 619,-24.5"/>
<text text-anchor="start" x="627" y="-42.5" font-family="Helvetica,sans-Serif" font-size="10.00">denoptim.graph.rings.Chain</text>
<text text-anchor="middle" x="685.5" y="-31.5" font-family="Helvetica,sans-Serif" font-size="10.00">Link.getApIdToLeft</text>
</a>
</g>
</g>
<!-- Node2 -->
<g id="node2" class="node">
<title>Node2</title>
<g id="a_node2"><a xlink:href="classdenoptim_1_1ga_1_1_graph_operations.html#a7a13e1b1304c0857ae6fa97b744e7289" target="_top" xlink:title="Method to select fragments that increase the likeliness of generating closable chains.">
<polygon fill="white" stroke="black" points="422,-49.5 422,-79.5 583,-79.5 583,-49.5 422,-49.5"/>
<text text-anchor="start" x="430" y="-67.5" font-family="Helvetica,sans-Serif" font-size="10.00">denoptim.ga.GraphOperations.get</text>
<text text-anchor="middle" x="502.5" y="-56.5" font-family="Helvetica,sans-Serif" font-size="10.00">FragmentForClosableChain</text>
</a>
</g>
</g>
<!-- Node1&#45;&gt;Node2 -->
<g id="edge1" class="edge">
<title>Node1&#45;&gt;Node2</title>
<path fill="none" stroke="midnightblue" d="M608.96,-49.93C600.41,-51.12 591.67,-52.32 583.06,-53.51"/>
<polygon fill="midnightblue" stroke="midnightblue" points="609.47,-53.4 618.9,-48.56 608.51,-46.46 609.47,-53.4"/>
</g>
<!-- Node5 -->
<g id="node5" class="node">
<title>Node5</title>
<g id="a_node5"><a xlink:href="classdenoptim_1_1graph_1_1rings_1_1_closable_chain.html#a9e4574e03e6a0c6763497833f15f0c04" target="_top" xlink:title="Check whether a combination of vertex and attachment points ID is involved in this chain.">
<polygon fill="white" stroke="black" points="429.5,-0.5 429.5,-30.5 575.5,-30.5 575.5,-0.5 429.5,-0.5"/>
<text text-anchor="start" x="437.5" y="-18.5" font-family="Helvetica,sans-Serif" font-size="10.00">denoptim.graph.rings.Closable</text>
<text text-anchor="middle" x="502.5" y="-7.5" font-family="Helvetica,sans-Serif" font-size="10.00">Chain.involvesVertexAndAP</text>
</a>
</g>
</g>
<!-- Node1&#45;&gt;Node5 -->
<g id="edge4" class="edge">
<title>Node1&#45;&gt;Node5</title>
<path fill="none" stroke="midnightblue" d="M608.89,-29.47C597.87,-28.01 586.55,-26.51 575.61,-25.06"/>
<polygon fill="midnightblue" stroke="midnightblue" points="608.53,-32.96 618.9,-30.8 609.45,-26.02 608.53,-32.96"/>
</g>
<!-- Node3 -->
<g id="node3" class="node">
<title>Node3</title>
<g id="a_node3"><a xlink:href="classdenoptim_1_1ga_1_1_graph_operations.html#a649892c4a2b1d4ccd2f97cae6dd7ed98" target="_top" xlink:title=" ">
<polygon fill="white" stroke="black" points="212,-49.5 212,-79.5 386,-79.5 386,-49.5 212,-49.5"/>
<text text-anchor="start" x="220" y="-67.5" font-family="Helvetica,sans-Serif" font-size="10.00">denoptim.ga.GraphOperations.attach</text>
<text text-anchor="middle" x="299" y="-56.5" font-family="Helvetica,sans-Serif" font-size="10.00">FragmentInClosableChain</text>
</a>
</g>
</g>
<!-- Node2&#45;&gt;Node3 -->
<g id="edge2" class="edge">
<title>Node2&#45;&gt;Node3</title>
<path fill="none" stroke="midnightblue" d="M411.85,-64.5C403.27,-64.5 394.57,-64.5 386.02,-64.5"/>
<polygon fill="midnightblue" stroke="midnightblue" points="411.86,-68 421.86,-64.5 411.86,-61 411.86,-68"/>
</g>
<!-- Node4 -->
<g id="node4" class="node">
<title>Node4</title>
<g id="a_node4"><a xlink:href="classdenoptim_1_1ga_1_1_graph_operations.html#a104e82aba7242a457da09540ff0400da" target="_top" xlink:title="function that will keep extending the graph.">
<polygon fill="white" stroke="black" points="0,-49.5 0,-79.5 176,-79.5 176,-49.5 0,-49.5"/>
<text text-anchor="start" x="8" y="-67.5" font-family="Helvetica,sans-Serif" font-size="10.00">denoptim.ga.GraphOperations.extend</text>
<text text-anchor="middle" x="88" y="-56.5" font-family="Helvetica,sans-Serif" font-size="10.00">Graph</text>
</a>
</g>
</g>
<!-- Node3&#45;&gt;Node4 -->
<g id="edge3" class="edge">
<title>Node3&#45;&gt;Node4</title>
<path fill="none" stroke="midnightblue" d="M201.76,-64.5C193.18,-64.5 184.53,-64.5 176.03,-64.5"/>
<polygon fill="midnightblue" stroke="midnightblue" points="201.79,-68 211.79,-64.5 201.79,-61 201.79,-68"/>
</g>
</g>
</svg>
