<?xml version="1.0" encoding="UTF-8" standalone="no"?>
<!DOCTYPE svg PUBLIC "-//W3C//DTD SVG 1.1//EN"
 "http://www.w3.org/Graphics/SVG/1.1/DTD/svg11.dtd">
<!-- Generated by graphviz version 3.0.0 (20221109.1736)
 -->
<!-- Title: denoptim.fragspace.FragmentSpace.imposeSymmetryOnAPsOfClass Pages: 1 -->
<svg width="379pt" height="88pt"
 viewBox="0.00 0.00 379.00 88.00" xmlns="http://www.w3.org/2000/svg" xmlns:xlink="http://www.w3.org/1999/xlink">
<g id="graph0" class="graph" transform="scale(1 1) rotate(0) translate(4 84)">
<title>denoptim.fragspace.FragmentSpace.imposeSymmetryOnAPsOfClass</title>
<polygon fill="white" stroke="transparent" points="-4,4 -4,-84 375,-84 375,4 -4,4"/>
<!-- Node1 -->
<g id="node1" class="node">
<title>Node1</title>
<g id="a_node1"><a xlink:title="Checks if the symmetry settings impose use of symmetry on attachment points of the given AP class.">
<polygon fill="#bfbfbf" stroke="black" points="0,-24.5 0,-54.5 188,-54.5 188,-24.5 0,-24.5"/>
<text text-anchor="start" x="8" y="-42.5" font-family="Helvetica,sans-Serif" font-size="10.00">denoptim.fragspace.Fragment</text>
<text text-anchor="middle" x="94" y="-31.5" font-family="Helvetica,sans-Serif" font-size="10.00">Space.imposeSymmetryOnAPsOfClass</text>
</a>
</g>
</g>
<!-- Node2 -->
<g id="node2" class="node">
<title>Node2</title>
<g id="a_node2"><a xlink:href="classdenoptim_1_1fragspace_1_1_fragment_space.html#a1e550048eaf844b84ca694d149458a01" target="_top" xlink:title="Return the constitutional symmetry constrain for the given APclass, or null.">
<polygon fill="white" stroke="black" points="225,-49.5 225,-79.5 370,-79.5 370,-49.5 225,-49.5"/>
<text text-anchor="start" x="233" y="-67.5" font-family="Helvetica,sans-Serif" font-size="10.00">denoptim.fragspace.Fragment</text>
<text text-anchor="middle" x="297.5" y="-56.5" font-family="Helvetica,sans-Serif" font-size="10.00">Space.getSymmetryConstrain</text>
</a>
</g>
</g>
<!-- Node1&#45;&gt;Node2 -->
<g id="edge1" class="edge">
<title>Node1&#45;&gt;Node2</title>
<path fill="none" stroke="midnightblue" d="M188.08,-51.05C196.98,-52.15 205.95,-53.27 214.73,-54.35"/>
<polygon fill="midnightblue" stroke="midnightblue" points="214.56,-57.86 224.92,-55.62 215.42,-50.91 214.56,-57.86"/>
</g>
<!-- Node3 -->
<g id="node3" class="node">
<title>Node3</title>
<g id="a_node3"><a xlink:href="classdenoptim_1_1fragspace_1_1_fragment_space.html#a0f617041b436cd3c990f946511026cd7" target="_top" xlink:title="Checks if there is a constraint on the constitutional symmetry probability for the given AP class.">
<polygon fill="white" stroke="black" points="224,-0.5 224,-30.5 371,-30.5 371,-0.5 224,-0.5"/>
<text text-anchor="start" x="232" y="-18.5" font-family="Helvetica,sans-Serif" font-size="10.00">denoptim.fragspace.Fragment</text>
<text text-anchor="middle" x="297.5" y="-7.5" font-family="Helvetica,sans-Serif" font-size="10.00">Space.hasSymmetryConstrain</text>
</a>
</g>
</g>
<!-- Node1&#45;&gt;Node3 -->
<g id="edge2" class="edge">
<title>Node1&#45;&gt;Node3</title>
<path fill="none" stroke="midnightblue" d="M188.08,-28.41C196.59,-27.4 205.16,-26.38 213.57,-25.38"/>
<polygon fill="midnightblue" stroke="midnightblue" points="214.21,-28.83 223.72,-24.17 213.38,-21.88 214.21,-28.83"/>
</g>
</g>
</svg>
