<?xml version="1.0" encoding="UTF-8" standalone="no"?>
<!DOCTYPE svg PUBLIC "-//W3C//DTD SVG 1.1//EN"
 "http://www.w3.org/Graphics/SVG/1.1/DTD/svg11.dtd">
<!-- Generated by graphviz version 3.0.0 (20221109.1736)
 -->
<!-- Title: denoptim.utils.MathUtils.normDist Pages: 1 -->
<svg width="653pt" height="39pt"
 viewBox="0.00 0.00 653.00 39.00" xmlns="http://www.w3.org/2000/svg" xmlns:xlink="http://www.w3.org/1999/xlink">
<g id="graph0" class="graph" transform="scale(1 1) rotate(0) translate(4 35)">
<title>denoptim.utils.MathUtils.normDist</title>
<polygon fill="white" stroke="transparent" points="-4,4 -4,-35 649,-35 649,4 -4,4"/>
<!-- Node1 -->
<g id="node1" class="node">
<title>Node1</title>
<g id="a_node1"><a xlink:title="Get normalized distance between two point.">
<polygon fill="#bfbfbf" stroke="black" points="483,-6 483,-25 645,-25 645,-6 483,-6"/>
<text text-anchor="middle" x="564" y="-13" font-family="Helvetica,sans-Serif" font-size="10.00">denoptim.utils.MathUtils.normDist</text>
</a>
</g>
</g>
<!-- Node2 -->
<g id="node2" class="node">
<title>Node2</title>
<g id="a_node2"><a xlink:href="classdenoptim_1_1molecularmodeling_1_1_chemical_object_model.html#ab0a2952925cf318fa872e349dd2709ae" target="_top" xlink:title="Converts currently loaded internal coordinates into Cartesian overwriting the current XYZ.">
<polygon fill="white" stroke="black" points="245,-0.5 245,-30.5 447,-30.5 447,-0.5 245,-0.5"/>
<text text-anchor="start" x="253" y="-18.5" font-family="Helvetica,sans-Serif" font-size="10.00">denoptim.molecularmodeling.</text>
<text text-anchor="middle" x="346" y="-7.5" font-family="Helvetica,sans-Serif" font-size="10.00">ChemicalObjectModel.updateXYZFromINT</text>
</a>
</g>
</g>
<!-- Node1&#45;&gt;Node2 -->
<g id="edge1" class="edge">
<title>Node1&#45;&gt;Node2</title>
<path fill="none" stroke="midnightblue" d="M472.68,-15.5C464.24,-15.5 455.66,-15.5 447.14,-15.5"/>
<polygon fill="midnightblue" stroke="midnightblue" points="472.88,-19 482.88,-15.5 472.88,-12 472.88,-19"/>
</g>
<!-- Node3 -->
<g id="node3" class="node">
<title>Node3</title>
<g id="a_node3"><a xlink:href="classdenoptim_1_1molecularmodeling_1_1_chemical_object_model.html#a078749e82762b41d68b51bbc5af46e0c" target="_top" xlink:title="Constructs a Molecule3DBuilder specifying all its features.">
<polygon fill="white" stroke="black" points="0,-0.5 0,-30.5 209,-30.5 209,-0.5 0,-0.5"/>
<text text-anchor="start" x="8" y="-18.5" font-family="Helvetica,sans-Serif" font-size="10.00">denoptim.molecularmodeling.</text>
<text text-anchor="middle" x="104.5" y="-7.5" font-family="Helvetica,sans-Serif" font-size="10.00">ChemicalObjectModel.ChemicalObjectModel</text>
</a>
</g>
</g>
<!-- Node2&#45;&gt;Node3 -->
<g id="edge2" class="edge">
<title>Node2&#45;&gt;Node3</title>
<path fill="none" stroke="midnightblue" d="M234.82,-15.5C226.26,-15.5 217.64,-15.5 209.13,-15.5"/>
<polygon fill="midnightblue" stroke="midnightblue" points="234.82,-19 244.82,-15.5 234.82,-12 234.82,-19"/>
</g>
</g>
</svg>
