<?xml version="1.0" encoding="UTF-8" standalone="no"?>
<!DOCTYPE svg PUBLIC "-//W3C//DTD SVG 1.1//EN"
 "http://www.w3.org/Graphics/SVG/1.1/DTD/svg11.dtd">
<!-- Generated by graphviz version 3.0.0 (20221109.1736)
 -->
<!-- Title: denoptim.gui.CuttingRulesSelectionDialog.appendToCentralPanel Pages: 1 -->
<svg width="411pt" height="99pt"
 viewBox="0.00 0.00 411.00 98.50" xmlns="http://www.w3.org/2000/svg" xmlns:xlink="http://www.w3.org/1999/xlink">
<g id="graph0" class="graph" transform="scale(1 1) rotate(0) translate(4 94.5)">
<title>denoptim.gui.CuttingRulesSelectionDialog.appendToCentralPanel</title>
<polygon fill="white" stroke="transparent" points="-4,4 -4,-94.5 407,-94.5 407,4 -4,4"/>
<!-- Node1 -->
<g id="node1" class="node">
<title>Node1</title>
<g id="a_node1"><a xlink:title="Method to append a panel to the bottom of the central panel.">
<polygon fill="#bfbfbf" stroke="black" points="218,-27.5 218,-57.5 403,-57.5 403,-27.5 218,-27.5"/>
<text text-anchor="start" x="226" y="-45.5" font-family="Helvetica,sans-Serif" font-size="10.00">denoptim.gui.CuttingRules</text>
<text text-anchor="middle" x="310.5" y="-34.5" font-family="Helvetica,sans-Serif" font-size="10.00">SelectionDialog.appendToCentralPanel</text>
</a>
</g>
</g>
<!-- Node2 -->
<g id="node2" class="node">
<title>Node2</title>
<g id="a_node2"><a xlink:href="classdenoptim_1_1gui_1_1_cutting_rules_selection_dialog.html#a64ab4ac8312bff57a077266658555757" target="_top" xlink:title="Constructor.">
<polygon fill="white" stroke="black" points="0,-49 0,-90 182,-90 182,-49 0,-49"/>
<text text-anchor="start" x="8" y="-78" font-family="Helvetica,sans-Serif" font-size="10.00">denoptim.gui.CuttingRules</text>
<text text-anchor="start" x="8" y="-67" font-family="Helvetica,sans-Serif" font-size="10.00">SelectionDialog.CuttingRulesSelection</text>
<text text-anchor="middle" x="91" y="-56" font-family="Helvetica,sans-Serif" font-size="10.00">Dialog</text>
</a>
</g>
</g>
<!-- Node1&#45;&gt;Node2 -->
<g id="edge1" class="edge">
<title>Node1&#45;&gt;Node2</title>
<path fill="none" stroke="midnightblue" d="M207.85,-55.12C199.26,-56.19 190.61,-57.26 182.11,-58.31"/>
<polygon fill="midnightblue" stroke="midnightblue" points="208.4,-58.58 217.89,-53.87 207.54,-51.63 208.4,-58.58"/>
</g>
<!-- Node3 -->
<g id="node3" class="node">
<title>Node3</title>
<g id="a_node3"><a xlink:href="classdenoptim_1_1gui_1_1_mol_to_graph_parameters_dialog.html#a8d514d92cd943503567b6cadfb6bd3d4" target="_top" xlink:title=" ">
<polygon fill="white" stroke="black" points="2.5,-0.5 2.5,-30.5 179.5,-30.5 179.5,-0.5 2.5,-0.5"/>
<text text-anchor="start" x="10.5" y="-18.5" font-family="Helvetica,sans-Serif" font-size="10.00">denoptim.gui.MolToGraphParameters</text>
<text text-anchor="middle" x="91" y="-7.5" font-family="Helvetica,sans-Serif" font-size="10.00">Dialog.MolToGraphParametersDialog</text>
</a>
</g>
</g>
<!-- Node1&#45;&gt;Node3 -->
<g id="edge2" class="edge">
<title>Node1&#45;&gt;Node3</title>
<path fill="none" stroke="midnightblue" d="M207.75,-29.87C198.37,-28.7 188.92,-27.53 179.68,-26.38"/>
<polygon fill="midnightblue" stroke="midnightblue" points="207.54,-33.37 217.89,-31.13 208.4,-26.42 207.54,-33.37"/>
</g>
</g>
</svg>
