<?xml version="1.0" encoding="UTF-8" standalone="no"?>
<!DOCTYPE svg PUBLIC "-//W3C//DTD SVG 1.1//EN"
 "http://www.w3.org/Graphics/SVG/1.1/DTD/svg11.dtd">
<!-- Generated by graphviz version 3.0.0 (20221109.1736)
 -->
<!-- Title: denoptim.integration.tinker.TinkerAtom.getXYZIndex Pages: 1 -->
<svg width="1455pt" height="304pt"
 viewBox="0.00 0.00 1455.00 304.00" xmlns="http://www.w3.org/2000/svg" xmlns:xlink="http://www.w3.org/1999/xlink">
<g id="graph0" class="graph" transform="scale(1 1) rotate(0) translate(4 300)">
<title>denoptim.integration.tinker.TinkerAtom.getXYZIndex</title>
<polygon fill="white" stroke="transparent" points="-4,4 -4,-300 1451,-300 1451,4 -4,4"/>
<!-- Node1 -->
<g id="node1" class="node">
<title>Node1</title>
<g id="a_node1"><a xlink:title="Gets the XYZ Index.">
<polygon fill="#bfbfbf" stroke="black" points="1315,-109.5 1315,-139.5 1447,-139.5 1447,-109.5 1315,-109.5"/>
<text text-anchor="start" x="1323" y="-127.5" font-family="Helvetica,sans-Serif" font-size="10.00">denoptim.integration.tinker.</text>
<text text-anchor="middle" x="1381" y="-116.5" font-family="Helvetica,sans-Serif" font-size="10.00">TinkerAtom.getXYZIndex</text>
</a>
</g>
</g>
<!-- Node2 -->
<g id="node2" class="node">
<title>Node2</title>
<g id="a_node2"><a xlink:href="classdenoptim_1_1integration_1_1tinker_1_1_tinker_molecule.html#a2d838680c1d8eed4fe495ed1f3e03912" target="_top" xlink:title="Returns the atom which has the XYZ index set to pos.">
<polygon fill="white" stroke="black" points="1147,-160.5 1147,-190.5 1279,-190.5 1279,-160.5 1147,-160.5"/>
<text text-anchor="start" x="1155" y="-178.5" font-family="Helvetica,sans-Serif" font-size="10.00">denoptim.integration.tinker.</text>
<text text-anchor="middle" x="1213" y="-167.5" font-family="Helvetica,sans-Serif" font-size="10.00">TinkerMolecule.getAtom</text>
</a>
</g>
</g>
<!-- Node1&#45;&gt;Node2 -->
<g id="edge1" class="edge">
<title>Node1&#45;&gt;Node2</title>
<path fill="none" stroke="midnightblue" d="M1321.29,-142.54C1302.17,-148.41 1281.16,-154.87 1262.84,-160.49"/>
<polygon fill="midnightblue" stroke="midnightblue" points="1322.56,-145.81 1331.09,-139.53 1320.51,-139.12 1322.56,-145.81"/>
</g>
<!-- Node3 -->
<g id="node3" class="node">
<title>Node3</title>
<g id="a_node3"><a xlink:href="classdenoptim_1_1integration_1_1tinker_1_1_tinker_molecule.html#a1916bbf7f7a4d4b9744c29d032de76f0" target="_top" xlink:title="Identify the list of connected atoms (only first neighbours are considered) to the atom at the specif...">
<polygon fill="white" stroke="black" points="923.5,-265.5 923.5,-295.5 1096.5,-295.5 1096.5,-265.5 923.5,-265.5"/>
<text text-anchor="start" x="931.5" y="-283.5" font-family="Helvetica,sans-Serif" font-size="10.00">denoptim.integration.tinker.</text>
<text text-anchor="middle" x="1010" y="-272.5" font-family="Helvetica,sans-Serif" font-size="10.00">TinkerMolecule.getConnectedAtoms</text>
</a>
</g>
</g>
<!-- Node1&#45;&gt;Node3 -->
<g id="edge13" class="edge">
<title>Node1&#45;&gt;Node3</title>
<path fill="none" stroke="midnightblue" d="M1355.49,-146.55C1335.93,-163.22 1307.22,-185.68 1279,-200.5 1219.03,-231.98 1144.83,-252.91 1089.73,-265.44"/>
<polygon fill="midnightblue" stroke="midnightblue" points="1358.02,-148.99 1363.29,-139.8 1353.44,-143.7 1358.02,-148.99"/>
</g>
<!-- Node13 -->
<g id="node13" class="node">
<title>Node13</title>
<g id="a_node13"><a xlink:href="classdenoptim_1_1integration_1_1tinker_1_1_tinker_molecule.html#ae54df7dc95b4567bb0f609c0ea0aa535" target="_top" xlink:title=" ">
<polygon fill="white" stroke="black" points="1147,-7.5 1147,-37.5 1279,-37.5 1279,-7.5 1147,-7.5"/>
<text text-anchor="start" x="1155" y="-25.5" font-family="Helvetica,sans-Serif" font-size="10.00">denoptim.integration.tinker.</text>
<text text-anchor="middle" x="1213" y="-14.5" font-family="Helvetica,sans-Serif" font-size="10.00">TinkerMolecule.printIC</text>
</a>
</g>
</g>
<!-- Node1&#45;&gt;Node13 -->
<g id="edge14" class="edge">
<title>Node1&#45;&gt;Node13</title>
<path fill="none" stroke="midnightblue" d="M1353.48,-103.01C1333.68,-87.55 1305.57,-66.81 1279,-51.5 1270.33,-46.5 1260.64,-41.76 1251.44,-37.62"/>
<polygon fill="midnightblue" stroke="midnightblue" points="1351.41,-105.83 1361.43,-109.28 1355.75,-100.34 1351.41,-105.83"/>
</g>
<!-- Node16 -->
<g id="node16" class="node">
<title>Node16</title>
<g id="a_node16"><a xlink:href="classdenoptim_1_1integration_1_1tinker_1_1_tinker_bond.html#a2fb76872849437f589dc1b74e3b640fc" target="_top" xlink:title="Bond constructor.">
<polygon fill="white" stroke="black" points="1147,-60.5 1147,-90.5 1279,-90.5 1279,-60.5 1147,-60.5"/>
<text text-anchor="start" x="1155" y="-78.5" font-family="Helvetica,sans-Serif" font-size="10.00">denoptim.integration.tinker.</text>
<text text-anchor="middle" x="1213" y="-67.5" font-family="Helvetica,sans-Serif" font-size="10.00">TinkerBond.TinkerBond</text>
</a>
</g>
</g>
<!-- Node1&#45;&gt;Node16 -->
<g id="edge18" class="edge">
<title>Node1&#45;&gt;Node16</title>
<path fill="none" stroke="midnightblue" d="M1319.13,-106.53C1301.35,-101.28 1282.1,-95.6 1264.99,-90.55"/>
<polygon fill="midnightblue" stroke="midnightblue" points="1318.26,-109.92 1328.84,-109.4 1320.24,-103.21 1318.26,-109.92"/>
</g>
<!-- Node17 -->
<g id="node17" class="node">
<title>Node17</title>
<g id="a_node17"><a xlink:href="classdenoptim_1_1integration_1_1tinker_1_1_tinker_utils.html#a50d24613772adb45916a87146fa727a5" target="_top" xlink:title="Write Tinker INT file.">
<polygon fill="white" stroke="black" points="1147,-109.5 1147,-139.5 1279,-139.5 1279,-109.5 1147,-109.5"/>
<text text-anchor="start" x="1155" y="-127.5" font-family="Helvetica,sans-Serif" font-size="10.00">denoptim.integration.tinker.</text>
<text text-anchor="middle" x="1213" y="-116.5" font-family="Helvetica,sans-Serif" font-size="10.00">TinkerUtils.writeIC</text>
</a>
</g>
</g>
<!-- Node1&#45;&gt;Node17 -->
<g id="edge19" class="edge">
<title>Node1&#45;&gt;Node17</title>
<path fill="none" stroke="midnightblue" d="M1304.61,-124.5C1296.13,-124.5 1287.55,-124.5 1279.22,-124.5"/>
<polygon fill="midnightblue" stroke="midnightblue" points="1304.87,-128 1314.87,-124.5 1304.87,-121 1304.87,-128"/>
</g>
<!-- Node2&#45;&gt;Node3 -->
<g id="edge2" class="edge">
<title>Node2&#45;&gt;Node3</title>
<path fill="none" stroke="midnightblue" d="M1190.08,-197.92C1170.86,-216.3 1141.33,-241.63 1111,-256.5 1103.95,-259.96 1096.36,-262.94 1088.64,-265.5"/>
<polygon fill="midnightblue" stroke="midnightblue" points="1192.69,-200.26 1197.4,-190.76 1187.8,-195.25 1192.69,-200.26"/>
</g>
<!-- Node4 -->
<g id="node4" class="node">
<title>Node4</title>
<g id="a_node4"><a xlink:href="classdenoptim_1_1integration_1_1tinker_1_1_tinker_molecule.html#a3ad4526ca103502b7765be5df0832431" target="_top" xlink:title=" ">
<polygon fill="white" stroke="black" points="940.5,-216.5 940.5,-246.5 1079.5,-246.5 1079.5,-216.5 940.5,-216.5"/>
<text text-anchor="start" x="948.5" y="-234.5" font-family="Helvetica,sans-Serif" font-size="10.00">denoptim.integration.tinker.</text>
<text text-anchor="middle" x="1010" y="-223.5" font-family="Helvetica,sans-Serif" font-size="10.00">TinkerMolecule.isConnected</text>
</a>
</g>
</g>
<!-- Node2&#45;&gt;Node4 -->
<g id="edge3" class="edge">
<title>Node2&#45;&gt;Node4</title>
<path fill="none" stroke="midnightblue" d="M1157.34,-193.6C1142.38,-198.34 1126.12,-203.3 1111,-207.5 1099.9,-210.58 1088.05,-213.64 1076.53,-216.48"/>
<polygon fill="midnightblue" stroke="midnightblue" points="1158.5,-196.91 1166.96,-190.53 1156.36,-190.24 1158.5,-196.91"/>
</g>
<!-- Node5 -->
<g id="node5" class="node">
<title>Node5</title>
<g id="a_node5"><a xlink:href="classdenoptim_1_1integration_1_1tinker_1_1_conformational_search_p_s_s_r_o_t.html#aedff481352b5fd5ac099a3129e11f16c" target="_top" xlink:title="Performs PSSROT conformational search on the given chemical object.">
<polygon fill="white" stroke="black" points="916,-49 916,-90 1104,-90 1104,-49 916,-49"/>
<text text-anchor="start" x="924" y="-78" font-family="Helvetica,sans-Serif" font-size="10.00">denoptim.integration.tinker.</text>
<text text-anchor="start" x="924" y="-67" font-family="Helvetica,sans-Serif" font-size="10.00">ConformationalSearchPSSROT.perform</text>
<text text-anchor="middle" x="1010" y="-56" font-family="Helvetica,sans-Serif" font-size="10.00">PSSROT</text>
</a>
</g>
</g>
<!-- Node2&#45;&gt;Node5 -->
<g id="edge4" class="edge">
<title>Node2&#45;&gt;Node5</title>
<path fill="none" stroke="midnightblue" d="M1155.82,-155.52C1152.73,-153.67 1149.76,-151.66 1147,-149.5 1125.43,-132.63 1133.3,-115.39 1111,-99.5 1106.05,-95.98 1100.69,-92.86 1095.1,-90.11"/>
<polygon fill="midnightblue" stroke="midnightblue" points="1154.33,-158.69 1164.79,-160.36 1157.65,-152.53 1154.33,-158.69"/>
</g>
<!-- Node6 -->
<g id="node6" class="node">
<title>Node6</title>
<g id="a_node6"><a xlink:href="classdenoptim_1_1molecularmodeling_1_1_ring_closure_tool.html#a2594e1f6316849aafcf573cf7024ab7c" target="_top" xlink:title="Looks for unused RingClosingAttractors and attach proper capping group saturating the free valency/bo...">
<polygon fill="white" stroke="black" points="921.5,-157 921.5,-198 1098.5,-198 1098.5,-157 921.5,-157"/>
<text text-anchor="start" x="929.5" y="-186" font-family="Helvetica,sans-Serif" font-size="10.00">denoptim.molecularmodeling.</text>
<text text-anchor="start" x="929.5" y="-175" font-family="Helvetica,sans-Serif" font-size="10.00">RingClosureTool.saturateRingClosing</text>
<text text-anchor="middle" x="1010" y="-164" font-family="Helvetica,sans-Serif" font-size="10.00">Attractor</text>
</a>
</g>
</g>
<!-- Node2&#45;&gt;Node6 -->
<g id="edge5" class="edge">
<title>Node2&#45;&gt;Node6</title>
<path fill="none" stroke="midnightblue" d="M1136.5,-176.25C1124.13,-176.37 1111.23,-176.5 1098.6,-176.63"/>
<polygon fill="midnightblue" stroke="midnightblue" points="1136.78,-179.75 1146.74,-176.15 1136.71,-172.75 1136.78,-179.75"/>
</g>
<!-- Node11 -->
<g id="node11" class="node">
<title>Node11</title>
<g id="a_node11"><a xlink:href="classdenoptim_1_1molecularmodeling_1_1_chemical_object_model.html#ab0a2952925cf318fa872e349dd2709ae" target="_top" xlink:title="Converts currently loaded internal coordinates into Cartesian overwriting the current XYZ.">
<polygon fill="white" stroke="black" points="909,-108.5 909,-138.5 1111,-138.5 1111,-108.5 909,-108.5"/>
<text text-anchor="start" x="917" y="-126.5" font-family="Helvetica,sans-Serif" font-size="10.00">denoptim.molecularmodeling.</text>
<text text-anchor="middle" x="1010" y="-115.5" font-family="Helvetica,sans-Serif" font-size="10.00">ChemicalObjectModel.updateXYZFromINT</text>
</a>
</g>
</g>
<!-- Node2&#45;&gt;Node11 -->
<g id="edge11" class="edge">
<title>Node2&#45;&gt;Node11</title>
<path fill="none" stroke="midnightblue" d="M1149.18,-157.72C1136.56,-154.25 1123.37,-150.7 1111,-147.5 1099.42,-144.51 1087.05,-141.44 1075.1,-138.53"/>
<polygon fill="midnightblue" stroke="midnightblue" points="1148.58,-161.18 1159.15,-160.47 1150.44,-154.44 1148.58,-161.18"/>
</g>
<!-- Node7 -->
<g id="node7" class="node">
<title>Node7</title>
<g id="a_node7"><a xlink:href="classdenoptim_1_1molecularmodeling_1_1_ring_closure_tool.html#abd87e8b7391948be1c3156eb9d131be7" target="_top" xlink:title="Attempts to close rings by finding the conformation that allows to join heads and tails of atom speci...">
<polygon fill="white" stroke="black" points="680.5,-179.5 680.5,-209.5 856.5,-209.5 856.5,-179.5 680.5,-179.5"/>
<text text-anchor="start" x="688.5" y="-197.5" font-family="Helvetica,sans-Serif" font-size="10.00">denoptim.molecularmodeling.</text>
<text text-anchor="middle" x="768.5" y="-186.5" font-family="Helvetica,sans-Serif" font-size="10.00">RingClosureTool.attemptRingClosure</text>
</a>
</g>
</g>
<!-- Node6&#45;&gt;Node7 -->
<g id="edge6" class="edge">
<title>Node6&#45;&gt;Node7</title>
<path fill="none" stroke="midnightblue" d="M911.2,-184.44C893.08,-185.73 874.28,-187.06 856.51,-188.32"/>
<polygon fill="midnightblue" stroke="midnightblue" points="911.45,-187.93 921.18,-183.73 910.96,-180.95 911.45,-187.93"/>
</g>
<!-- Node9 -->
<g id="node9" class="node">
<title>Node9</title>
<g id="a_node9"><a xlink:href="classdenoptim_1_1molecularmodeling_1_1_multi_molecular_model_builder.html#a6a8e314f3fb37f66c32c8c4d5695b8a4" target="_top" xlink:title="Given the graph representation of the molecular constitution, along with the 3D coordinates of the fr...">
<polygon fill="white" stroke="black" points="242,-130 242,-171 400,-171 400,-130 242,-130"/>
<text text-anchor="start" x="250" y="-159" font-family="Helvetica,sans-Serif" font-size="10.00">denoptim.molecularmodeling.</text>
<text text-anchor="start" x="250" y="-148" font-family="Helvetica,sans-Serif" font-size="10.00">MultiMolecularModelBuilder.build</text>
<text text-anchor="middle" x="321" y="-137" font-family="Helvetica,sans-Serif" font-size="10.00">Multi3DStructure</text>
</a>
</g>
</g>
<!-- Node6&#45;&gt;Node9 -->
<g id="edge10" class="edge">
<title>Node6&#45;&gt;Node9</title>
<path fill="none" stroke="midnightblue" d="M911.01,-172.28C898.22,-171.65 885.3,-171.04 873,-170.5 704.45,-163.1 506.81,-156.41 400.03,-152.96"/>
<polygon fill="midnightblue" stroke="midnightblue" points="911.06,-175.79 921.22,-172.79 911.41,-168.79 911.06,-175.79"/>
</g>
<!-- Node8 -->
<g id="node8" class="node">
<title>Node8</title>
<g id="a_node8"><a xlink:href="classdenoptim_1_1molecularmodeling_1_1_ring_closure_tool.html#a26896649739e0a5e63dd88079c6efe7a" target="_top" xlink:title="Performs one or more attempts to close rings by conformational adaptation.">
<polygon fill="white" stroke="black" points="436,-179.5 436,-209.5 628,-209.5 628,-179.5 436,-179.5"/>
<text text-anchor="start" x="444" y="-197.5" font-family="Helvetica,sans-Serif" font-size="10.00">denoptim.molecularmodeling.</text>
<text text-anchor="middle" x="532" y="-186.5" font-family="Helvetica,sans-Serif" font-size="10.00">RingClosureTool.attemptAllRingClosures</text>
</a>
</g>
</g>
<!-- Node7&#45;&gt;Node8 -->
<g id="edge7" class="edge">
<title>Node7&#45;&gt;Node8</title>
<path fill="none" stroke="midnightblue" d="M670.17,-194.5C656.32,-194.5 642.08,-194.5 628.26,-194.5"/>
<polygon fill="midnightblue" stroke="midnightblue" points="670.18,-198 680.18,-194.5 670.18,-191 670.18,-198"/>
</g>
<!-- Node8&#45;&gt;Node9 -->
<g id="edge8" class="edge">
<title>Node8&#45;&gt;Node9</title>
<path fill="none" stroke="midnightblue" d="M449.65,-177.37C433.38,-173.95 416.33,-170.36 400.18,-166.96"/>
<polygon fill="midnightblue" stroke="midnightblue" points="449.15,-180.85 459.66,-179.48 450.59,-174 449.15,-180.85"/>
</g>
<!-- Node10 -->
<g id="node10" class="node">
<title>Node10</title>
<g id="a_node10"><a xlink:href="classdenoptim_1_1programs_1_1moldecularmodelbuilder_1_1_molecular_model_builder.html#ad2e44290de6a861274def677044e9754" target="_top" xlink:title=" ">
<polygon fill="white" stroke="black" points="0,-135.5 0,-165.5 206,-165.5 206,-135.5 0,-135.5"/>
<text text-anchor="start" x="8" y="-153.5" font-family="Helvetica,sans-Serif" font-size="10.00">denoptim.programs.moldecularmodelbuilder.</text>
<text text-anchor="middle" x="103" y="-142.5" font-family="Helvetica,sans-Serif" font-size="10.00">MolecularModelBuilder.runProgram</text>
</a>
</g>
</g>
<!-- Node9&#45;&gt;Node10 -->
<g id="edge9" class="edge">
<title>Node9&#45;&gt;Node10</title>
<path fill="none" stroke="midnightblue" d="M231.55,-150.5C223.14,-150.5 214.57,-150.5 206.05,-150.5"/>
<polygon fill="midnightblue" stroke="midnightblue" points="231.71,-154 241.71,-150.5 231.71,-147 231.71,-154"/>
</g>
<!-- Node12 -->
<g id="node12" class="node">
<title>Node12</title>
<g id="a_node12"><a xlink:href="classdenoptim_1_1molecularmodeling_1_1_chemical_object_model.html#a078749e82762b41d68b51bbc5af46e0c" target="_top" xlink:title="Constructs a Molecule3DBuilder specifying all its features.">
<polygon fill="white" stroke="black" points="664,-91.5 664,-121.5 873,-121.5 873,-91.5 664,-91.5"/>
<text text-anchor="start" x="672" y="-109.5" font-family="Helvetica,sans-Serif" font-size="10.00">denoptim.molecularmodeling.</text>
<text text-anchor="middle" x="768.5" y="-98.5" font-family="Helvetica,sans-Serif" font-size="10.00">ChemicalObjectModel.ChemicalObjectModel</text>
</a>
</g>
</g>
<!-- Node11&#45;&gt;Node12 -->
<g id="edge12" class="edge">
<title>Node11&#45;&gt;Node12</title>
<path fill="none" stroke="midnightblue" d="M898.82,-115.68C890.26,-115.07 881.64,-114.46 873.13,-113.86"/>
<polygon fill="midnightblue" stroke="midnightblue" points="898.6,-119.17 908.82,-116.39 899.09,-112.19 898.6,-119.17"/>
</g>
<!-- Node14 -->
<g id="node14" class="node">
<title>Node14</title>
<g id="a_node14"><a xlink:href="classdenoptim_1_1integration_1_1tinker_1_1_tinker_utils.html#aae018598945eacf2b1c984b2efc3c6a0" target="_top" xlink:title="Convert IAtomContainer to TinkerMolecule.">
<polygon fill="white" stroke="black" points="944,-0.5 944,-30.5 1076,-30.5 1076,-0.5 944,-0.5"/>
<text text-anchor="start" x="952" y="-18.5" font-family="Helvetica,sans-Serif" font-size="10.00">denoptim.integration.tinker.</text>
<text text-anchor="middle" x="1010" y="-7.5" font-family="Helvetica,sans-Serif" font-size="10.00">TinkerUtils.getICFromIAC</text>
</a>
</g>
</g>
<!-- Node13&#45;&gt;Node14 -->
<g id="edge15" class="edge">
<title>Node13&#45;&gt;Node14</title>
<path fill="none" stroke="midnightblue" d="M1136.52,-19.87C1116.71,-19.18 1095.51,-18.44 1076.28,-17.77"/>
<polygon fill="midnightblue" stroke="midnightblue" points="1136.63,-23.38 1146.74,-20.23 1136.87,-16.38 1136.63,-23.38"/>
</g>
<!-- Node15 -->
<g id="node15" class="node">
<title>Node15</title>
<g id="a_node15"><a xlink:href="classdenoptim_1_1molecularmodeling_1_1_multi_molecular_model_builder.html#a1cd879265bf12e9c2980efae1e8e74aa" target="_top" xlink:title="Generate 3D structure by assembling 3D fragments according to attachment point vector and following t...">
<polygon fill="white" stroke="black" points="437,-69.5 437,-99.5 627,-99.5 627,-69.5 437,-69.5"/>
<text text-anchor="start" x="445" y="-87.5" font-family="Helvetica,sans-Serif" font-size="10.00">denoptim.molecularmodeling.</text>
<text text-anchor="middle" x="532" y="-76.5" font-family="Helvetica,sans-Serif" font-size="10.00">MultiMolecularModelBuilder.build3DTree</text>
</a>
</g>
</g>
<!-- Node14&#45;&gt;Node15 -->
<g id="edge16" class="edge">
<title>Node14&#45;&gt;Node15</title>
<path fill="none" stroke="midnightblue" d="M933.7,-26.42C850.73,-38.44 717.17,-57.8 627.3,-70.83"/>
<polygon fill="midnightblue" stroke="midnightblue" points="934.42,-29.85 943.81,-24.95 933.41,-22.92 934.42,-29.85"/>
</g>
<!-- Node15&#45;&gt;Node9 -->
<g id="edge17" class="edge">
<title>Node15&#45;&gt;Node9</title>
<path fill="none" stroke="midnightblue" d="M473.71,-102.59C446.96,-111.04 414.99,-121.14 387.3,-129.88"/>
<polygon fill="midnightblue" stroke="midnightblue" points="474.83,-105.91 483.31,-99.56 472.72,-99.23 474.83,-105.91"/>
</g>
<!-- Node17&#45;&gt;Node5 -->
<g id="edge20" class="edge">
<title>Node17&#45;&gt;Node5</title>
<path fill="none" stroke="midnightblue" d="M1147.39,-106.82C1127.89,-101.49 1106.32,-95.58 1086.2,-90.08"/>
<polygon fill="midnightblue" stroke="midnightblue" points="1146.51,-110.21 1157.08,-109.47 1148.35,-103.46 1146.51,-110.21"/>
</g>
</g>
</svg>
