<?xml version="1.0" encoding="UTF-8" standalone="no"?>
<!DOCTYPE svg PUBLIC "-//W3C//DTD SVG 1.1//EN"
 "http://www.w3.org/Graphics/SVG/1.1/DTD/svg11.dtd">
<!-- Generated by graphviz version 3.0.0 (20221109.1736)
 -->
<!-- Title: denoptim.fragmenter.DynamicCentroidCluster.getNearestToCentroid Pages: 1 -->
<svg width="574pt" height="176pt"
 viewBox="0.00 0.00 574.00 176.00" xmlns="http://www.w3.org/2000/svg" xmlns:xlink="http://www.w3.org/1999/xlink">
<g id="graph0" class="graph" transform="scale(1 1) rotate(0) translate(4 172)">
<title>denoptim.fragmenter.DynamicCentroidCluster.getNearestToCentroid</title>
<polygon fill="white" stroke="transparent" points="-4,4 -4,-172 570,-172 570,4 -4,4"/>
<!-- Node1 -->
<g id="node1" class="node">
<title>Node1</title>
<g id="a_node1"><a xlink:title="Gets the original data that upon clustering is closest to the cluster centroid according to the given...">
<polygon fill="#bfbfbf" stroke="black" points="0,-115.5 0,-145.5 181,-145.5 181,-115.5 0,-115.5"/>
<text text-anchor="start" x="8" y="-133.5" font-family="Helvetica,sans-Serif" font-size="10.00">denoptim.fragmenter.Dynamic</text>
<text text-anchor="middle" x="90.5" y="-122.5" font-family="Helvetica,sans-Serif" font-size="10.00">CentroidCluster.getNearestToCentroid</text>
</a>
</g>
</g>
<!-- Node2 -->
<g id="node2" class="node">
<title>Node2</title>
<g id="a_node2"><a xlink:href="classdenoptim_1_1fragmenter_1_1_dynamic_centroid_cluster.html#a02ff66aa7ed756b8272fd82694e01293" target="_top" xlink:title="Get the point chosen to be the centroid of this cluster.">
<polygon fill="white" stroke="black" points="217,-93.5 217,-123.5 362,-123.5 362,-93.5 217,-93.5"/>
<text text-anchor="start" x="225" y="-111.5" font-family="Helvetica,sans-Serif" font-size="10.00">denoptim.fragmenter.Dynamic</text>
<text text-anchor="middle" x="289.5" y="-100.5" font-family="Helvetica,sans-Serif" font-size="10.00">CentroidCluster.getCentroid</text>
</a>
</g>
</g>
<!-- Node1&#45;&gt;Node2 -->
<g id="edge1" class="edge">
<title>Node1&#45;&gt;Node2</title>
<path fill="none" stroke="midnightblue" d="M181.07,-120.5C189.59,-119.55 198.21,-118.58 206.66,-117.64"/>
<polygon fill="midnightblue" stroke="midnightblue" points="207.31,-121.09 216.86,-116.5 206.53,-114.13 207.31,-121.09"/>
</g>
<!-- Node4 -->
<g id="node4" class="node">
<title>Node4</title>
<g id="a_node4"><a xlink:href="classdenoptim_1_1fragmenter_1_1_clusterable_fragment.html#ae140104922da4f6176ba174119e1dade" target="_top" xlink:title=" ">
<polygon fill="white" stroke="black" points="404,-137.5 404,-167.5 560,-167.5 560,-137.5 404,-137.5"/>
<text text-anchor="start" x="412" y="-155.5" font-family="Helvetica,sans-Serif" font-size="10.00">denoptim.fragmenter.Clusterable</text>
<text text-anchor="middle" x="482" y="-144.5" font-family="Helvetica,sans-Serif" font-size="10.00">Fragment.getPoint</text>
</a>
</g>
</g>
<!-- Node1&#45;&gt;Node4 -->
<g id="edge6" class="edge">
<title>Node1&#45;&gt;Node4</title>
<path fill="none" stroke="midnightblue" d="M181.35,-135.57C245.09,-139.18 330.19,-143.98 393.42,-147.55"/>
<polygon fill="midnightblue" stroke="midnightblue" points="393.59,-151.07 403.77,-148.14 393.98,-144.08 393.59,-151.07"/>
</g>
<!-- Node3 -->
<g id="node3" class="node">
<title>Node3</title>
<g id="a_node3"><a xlink:href="classdenoptim_1_1utils_1_1_math_utils.html#ade2c9d5d24cad1bf24d74e9a9b65c47b" target="_top" xlink:title=" ">
<polygon fill="white" stroke="black" points="398,-99 398,-118 566,-118 566,-99 398,-99"/>
<text text-anchor="middle" x="482" y="-106" font-family="Helvetica,sans-Serif" font-size="10.00">denoptim.utils.MathUtils.centroidOf</text>
</a>
</g>
</g>
<!-- Node2&#45;&gt;Node3 -->
<g id="edge2" class="edge">
<title>Node2&#45;&gt;Node3</title>
<path fill="none" stroke="midnightblue" d="M362.25,-108.5C370.59,-108.5 379.18,-108.5 387.76,-108.5"/>
<polygon fill="midnightblue" stroke="midnightblue" points="387.79,-112 397.79,-108.5 387.79,-105 387.79,-112"/>
</g>
<!-- Node2&#45;&gt;Node4 -->
<g id="edge3" class="edge">
<title>Node2&#45;&gt;Node4</title>
<path fill="none" stroke="midnightblue" d="M355.53,-123.52C371.68,-127.25 389.13,-131.28 405.73,-135.12"/>
<polygon fill="midnightblue" stroke="midnightblue" points="405.41,-138.63 415.94,-137.47 406.99,-131.81 405.41,-138.63"/>
</g>
<!-- Node5 -->
<g id="node5" class="node">
<title>Node5</title>
<g id="a_node5"><a xlink:href="classdenoptim_1_1fragmenter_1_1_dynamic_centroid_cluster.html#a7a61f312d508a801f8513a746a0ef8c3" target="_top" xlink:title="Get the points contained in the cluster.">
<polygon fill="white" stroke="black" points="409.5,-49.5 409.5,-79.5 554.5,-79.5 554.5,-49.5 409.5,-49.5"/>
<text text-anchor="start" x="417.5" y="-67.5" font-family="Helvetica,sans-Serif" font-size="10.00">denoptim.fragmenter.Dynamic</text>
<text text-anchor="middle" x="482" y="-56.5" font-family="Helvetica,sans-Serif" font-size="10.00">CentroidCluster.getPoints</text>
</a>
</g>
</g>
<!-- Node2&#45;&gt;Node5 -->
<g id="edge4" class="edge">
<title>Node2&#45;&gt;Node5</title>
<path fill="none" stroke="midnightblue" d="M355.53,-93.48C371.68,-89.75 389.13,-85.72 405.73,-81.88"/>
<polygon fill="midnightblue" stroke="midnightblue" points="406.99,-85.19 415.94,-79.53 405.41,-78.37 406.99,-85.19"/>
</g>
<!-- Node6 -->
<g id="node6" class="node">
<title>Node6</title>
<g id="a_node6"><a xlink:href="classdenoptim_1_1fragmenter_1_1_clusterable_fragment.html#a7e46cc1d031044dd987d4cf114f85185" target="_top" xlink:title="Sets the coordinates of each atom and attachment point in this object.">
<polygon fill="white" stroke="black" points="404,-0.5 404,-30.5 560,-30.5 560,-0.5 404,-0.5"/>
<text text-anchor="start" x="412" y="-18.5" font-family="Helvetica,sans-Serif" font-size="10.00">denoptim.fragmenter.Clusterable</text>
<text text-anchor="middle" x="482" y="-7.5" font-family="Helvetica,sans-Serif" font-size="10.00">Fragment.setCoordsVector</text>
</a>
</g>
</g>
<!-- Node2&#45;&gt;Node6 -->
<g id="edge5" class="edge">
<title>Node2&#45;&gt;Node6</title>
<path fill="none" stroke="midnightblue" d="M310.11,-93.43C330.93,-78.04 365.29,-54.35 398,-39.5 402.3,-37.55 406.79,-35.72 411.37,-34"/>
<polygon fill="midnightblue" stroke="midnightblue" points="412.6,-37.28 420.86,-30.64 410.26,-30.68 412.6,-37.28"/>
</g>
</g>
</svg>
