<?xml version="1.0" encoding="UTF-8" standalone="no"?>
<!DOCTYPE svg PUBLIC "-//W3C//DTD SVG 1.1//EN"
 "http://www.w3.org/Graphics/SVG/1.1/DTD/svg11.dtd">
<!-- Generated by graphviz version 3.0.0 (20221109.1736)
 -->
<!-- Title: denoptim.io.DenoptimIO.readGraphFromSDFileIAC Pages: 1 -->
<svg width="1597pt" height="839pt"
 viewBox="0.00 0.00 1597.00 839.00" xmlns="http://www.w3.org/2000/svg" xmlns:xlink="http://www.w3.org/1999/xlink">
<g id="graph0" class="graph" transform="scale(1 1) rotate(0) translate(4 835)">
<title>denoptim.io.DenoptimIO.readGraphFromSDFileIAC</title>
<polygon fill="white" stroke="transparent" points="-4,4 -4,-835 1593,-835 1593,4 -4,4"/>
<!-- Node1 -->
<g id="node1" class="node">
<title>Node1</title>
<g id="a_node1"><a xlink:title="Converts an atom container read in from an SDF file into a graph, if possible.">
<polygon fill="#bfbfbf" stroke="black" points="1448,-726.5 1448,-756.5 1589,-756.5 1589,-726.5 1448,-726.5"/>
<text text-anchor="start" x="1456" y="-744.5" font-family="Helvetica,sans-Serif" font-size="10.00">denoptim.io.DenoptimIO.read</text>
<text text-anchor="middle" x="1518.5" y="-733.5" font-family="Helvetica,sans-Serif" font-size="10.00">GraphFromSDFileIAC</text>
</a>
</g>
</g>
<!-- Node1&#45;&gt;Node1 -->
<g id="edge45" class="edge">
<title>Node1&#45;&gt;Node1</title>
<path fill="none" stroke="midnightblue" d="M1550.84,-766.96C1546.83,-771.68 1536.05,-775 1518.5,-775 1489.71,-775 1479.13,-766.06 1486.78,-756.66"/>
<polygon fill="midnightblue" stroke="midnightblue" points="1554.31,-766.43 1550.22,-756.66 1547.33,-766.85 1554.31,-766.43"/>
</g>
<!-- Node2 -->
<g id="node2" class="node">
<title>Node2</title>
<g id="a_node2"><a xlink:href="classdenoptim_1_1graph_1_1_candidate.html#a4d09e13c71ce3242ae16c9b7a5eede7a" target="_top" xlink:title="Builds a candidate from the SDF representation of an atom container.">
<polygon fill="white" stroke="black" points="1270.5,-751.5 1270.5,-781.5 1401.5,-781.5 1401.5,-751.5 1270.5,-751.5"/>
<text text-anchor="start" x="1278.5" y="-769.5" font-family="Helvetica,sans-Serif" font-size="10.00">denoptim.graph.Candidate.</text>
<text text-anchor="middle" x="1336" y="-758.5" font-family="Helvetica,sans-Serif" font-size="10.00">Candidate</text>
</a>
</g>
</g>
<!-- Node1&#45;&gt;Node2 -->
<g id="edge1" class="edge">
<title>Node1&#45;&gt;Node2</title>
<path fill="none" stroke="midnightblue" d="M1437.9,-752.52C1425.82,-754.2 1413.47,-755.91 1401.75,-757.53"/>
<polygon fill="midnightblue" stroke="midnightblue" points="1438.55,-755.97 1447.97,-751.13 1437.59,-749.04 1438.55,-755.97"/>
</g>
<!-- Node3 -->
<g id="node3" class="node">
<title>Node3</title>
<g id="a_node3"><a xlink:href="classdenoptim_1_1io_1_1_denoptim_i_o.html#ac6c5a3a9286a795c120861c768ce4bd3" target="_top" xlink:title="Reads a list of &lt;DGraphs from a SDF file.">
<polygon fill="white" stroke="black" points="1260,-702.5 1260,-732.5 1412,-732.5 1412,-702.5 1260,-702.5"/>
<text text-anchor="start" x="1268" y="-720.5" font-family="Helvetica,sans-Serif" font-size="10.00">denoptim.io.DenoptimIO.read</text>
<text text-anchor="middle" x="1336" y="-709.5" font-family="Helvetica,sans-Serif" font-size="10.00">DENOPTIMGraphsFromSDFile</text>
</a>
</g>
</g>
<!-- Node1&#45;&gt;Node3 -->
<g id="edge2" class="edge">
<title>Node1&#45;&gt;Node3</title>
<path fill="none" stroke="midnightblue" d="M1437.99,-730.93C1429.41,-729.79 1420.71,-728.63 1412.19,-727.5"/>
<polygon fill="midnightblue" stroke="midnightblue" points="1437.6,-734.41 1447.97,-732.26 1438.52,-727.47 1437.6,-734.41"/>
</g>
<!-- Node4 -->
<g id="node4" class="node">
<title>Node4</title>
<g id="a_node4"><a xlink:href="classdenoptim_1_1io_1_1_denoptim_i_o.html#a26000bb6c3e2b76a500512de6f2a66a9" target="_top" xlink:title="Reads a list of DGraphs from file.">
<polygon fill="white" stroke="black" points="843,-702.5 843,-732.5 984,-732.5 984,-702.5 843,-702.5"/>
<text text-anchor="start" x="851" y="-720.5" font-family="Helvetica,sans-Serif" font-size="10.00">denoptim.io.DenoptimIO.read</text>
<text text-anchor="middle" x="913.5" y="-709.5" font-family="Helvetica,sans-Serif" font-size="10.00">DENOPTIMGraphsFromFile</text>
</a>
</g>
</g>
<!-- Node3&#45;&gt;Node4 -->
<g id="edge3" class="edge">
<title>Node3&#45;&gt;Node4</title>
<path fill="none" stroke="midnightblue" d="M1249.51,-717.5C1171.28,-717.5 1056.94,-717.5 984.14,-717.5"/>
<polygon fill="midnightblue" stroke="midnightblue" points="1249.82,-721 1259.82,-717.5 1249.82,-714 1249.82,-721"/>
</g>
<!-- Node5 -->
<g id="node5" class="node">
<title>Node5</title>
<g id="a_node5"><a xlink:href="classdenoptim_1_1gui_1_1_g_u_i_graph_handler.html#a288cf0ff784fd2355c5011f9b18001b2" target="_top" xlink:title=" ">
<polygon fill="white" stroke="black" points="1051,-751.5 1051,-781.5 1224,-781.5 1224,-751.5 1051,-751.5"/>
<text text-anchor="start" x="1059" y="-769.5" font-family="Helvetica,sans-Serif" font-size="10.00">denoptim.gui.GUIGraphHandler.read</text>
<text text-anchor="middle" x="1137.5" y="-758.5" font-family="Helvetica,sans-Serif" font-size="10.00">GraphsFromFile</text>
</a>
</g>
</g>
<!-- Node3&#45;&gt;Node5 -->
<g id="edge4" class="edge">
<title>Node3&#45;&gt;Node5</title>
<path fill="none" stroke="midnightblue" d="M1264.91,-734.98C1243.26,-740.38 1219.6,-746.28 1198.68,-751.49"/>
<polygon fill="midnightblue" stroke="midnightblue" points="1265.85,-738.35 1274.71,-732.53 1264.16,-731.56 1265.85,-738.35"/>
</g>
<!-- Node19 -->
<g id="node19" class="node">
<title>Node19</title>
<g id="a_node19"><a xlink:href="classdenoptim_1_1io_1_1_denoptim_i_o.html#adc4e3a5d4e0db3c1eb06e1ff721af9cf" target="_top" xlink:title="Reads Vertexes from any file that can contain such items.">
<polygon fill="white" stroke="black" points="1067,-423.5 1067,-453.5 1208,-453.5 1208,-423.5 1067,-423.5"/>
<text text-anchor="start" x="1075" y="-441.5" font-family="Helvetica,sans-Serif" font-size="10.00">denoptim.io.DenoptimIO.read</text>
<text text-anchor="middle" x="1137.5" y="-430.5" font-family="Helvetica,sans-Serif" font-size="10.00">Vertexes</text>
</a>
</g>
</g>
<!-- Node3&#45;&gt;Node19 -->
<g id="edge20" class="edge">
<title>Node3&#45;&gt;Node19</title>
<path fill="none" stroke="midnightblue" d="M1318.45,-694C1279.23,-638.32 1181.51,-499.56 1149.12,-453.57"/>
<polygon fill="midnightblue" stroke="midnightblue" points="1315.82,-696.34 1324.44,-702.5 1321.54,-692.31 1315.82,-696.34"/>
</g>
<!-- Node6 -->
<g id="node6" class="node">
<title>Node6</title>
<g id="a_node6"><a xlink:href="classdenoptim_1_1gui_1_1_g_u_i_graph_handler.html#a9c42cf2eaeda70e10b570a290cce5518" target="_top" xlink:title=" ">
<polygon fill="white" stroke="black" points="821,-800.5 821,-830.5 1006,-830.5 1006,-800.5 821,-800.5"/>
<text text-anchor="start" x="829" y="-818.5" font-family="Helvetica,sans-Serif" font-size="10.00">denoptim.gui.GUIGraphHandler.append</text>
<text text-anchor="middle" x="913.5" y="-807.5" font-family="Helvetica,sans-Serif" font-size="10.00">GraphsFromFile</text>
</a>
</g>
</g>
<!-- Node5&#45;&gt;Node6 -->
<g id="edge5" class="edge">
<title>Node5&#45;&gt;Node6</title>
<path fill="none" stroke="midnightblue" d="M1058.31,-783.76C1033.57,-789.22 1006.45,-795.21 982.49,-800.49"/>
<polygon fill="midnightblue" stroke="midnightblue" points="1059.37,-787.11 1068.38,-781.53 1057.86,-780.27 1059.37,-787.11"/>
</g>
<!-- Node9 -->
<g id="node9" class="node">
<title>Node9</title>
<g id="a_node9"><a xlink:href="classdenoptim_1_1gui_1_1_g_u_i_graph_handler.html#a81df728192225395c24224607bc63eee" target="_top" xlink:title="Imports graphs from file.">
<polygon fill="white" stroke="black" points="823,-751.5 823,-781.5 1004,-781.5 1004,-751.5 823,-751.5"/>
<text text-anchor="start" x="831" y="-769.5" font-family="Helvetica,sans-Serif" font-size="10.00">denoptim.gui.GUIGraphHandler.import</text>
<text text-anchor="middle" x="913.5" y="-758.5" font-family="Helvetica,sans-Serif" font-size="10.00">GraphsFromFile</text>
</a>
</g>
</g>
<!-- Node5&#45;&gt;Node9 -->
<g id="edge8" class="edge">
<title>Node5&#45;&gt;Node9</title>
<path fill="none" stroke="midnightblue" d="M1040.8,-766.5C1028.59,-766.5 1016.12,-766.5 1004.01,-766.5"/>
<polygon fill="midnightblue" stroke="midnightblue" points="1040.99,-770 1050.99,-766.5 1040.99,-763 1040.99,-770"/>
</g>
<!-- Node7 -->
<g id="node7" class="node">
<title>Node7</title>
<g id="a_node7"><a xlink:href="classdenoptim_1_1gui_1_1_g_u_i_graph_handler.html#af5b000c105018cbd7c262b34f9750044" target="_top" xlink:title="Initialize the panel and add buttons.">
<polygon fill="white" stroke="black" points="583.5,-806 583.5,-825 771.5,-825 771.5,-806 583.5,-806"/>
<text text-anchor="middle" x="677.5" y="-813" font-family="Helvetica,sans-Serif" font-size="10.00">denoptim.gui.GUIGraphHandler.initialize</text>
</a>
</g>
</g>
<!-- Node6&#45;&gt;Node7 -->
<g id="edge6" class="edge">
<title>Node6&#45;&gt;Node7</title>
<path fill="none" stroke="midnightblue" d="M810.4,-815.5C797.49,-815.5 784.34,-815.5 771.58,-815.5"/>
<polygon fill="midnightblue" stroke="midnightblue" points="810.69,-819 820.69,-815.5 810.69,-812 810.69,-819"/>
</g>
<!-- Node8 -->
<g id="node8" class="node">
<title>Node8</title>
<g id="a_node8"><a xlink:href="classdenoptim_1_1gui_1_1_g_u_i_graph_handler.html#ab7d010d9a384f6b85edce47c95d6723b" target="_top" xlink:title="Constructor.">
<polygon fill="white" stroke="black" points="385,-800.5 385,-830.5 539,-830.5 539,-800.5 385,-800.5"/>
<text text-anchor="start" x="393" y="-818.5" font-family="Helvetica,sans-Serif" font-size="10.00">denoptim.gui.GUIGraphHandler.</text>
<text text-anchor="middle" x="462" y="-807.5" font-family="Helvetica,sans-Serif" font-size="10.00">GUIGraphHandler</text>
</a>
</g>
</g>
<!-- Node7&#45;&gt;Node8 -->
<g id="edge7" class="edge">
<title>Node7&#45;&gt;Node8</title>
<path fill="none" stroke="midnightblue" d="M573.35,-815.5C561.8,-815.5 550.19,-815.5 539.07,-815.5"/>
<polygon fill="midnightblue" stroke="midnightblue" points="573.48,-819 583.48,-815.5 573.48,-812 573.48,-819"/>
</g>
<!-- Node9&#45;&gt;Node7 -->
<g id="edge9" class="edge">
<title>Node9&#45;&gt;Node7</title>
<path fill="none" stroke="midnightblue" d="M830.75,-783.62C794.95,-791.12 754.29,-799.63 724,-805.97"/>
<polygon fill="midnightblue" stroke="midnightblue" points="831.63,-787.01 840.7,-781.53 830.2,-780.16 831.63,-787.01"/>
</g>
<!-- Node10 -->
<g id="node10" class="node">
<title>Node10</title>
<g id="a_node10"><a xlink:href="classdenoptim_1_1gui_1_1_g_u_i_inspect_f_s_e_run.html#aa30815ac9aa8f815fd24c115afaabd62" target="_top" xlink:title="Initialize the panel and add buttons.">
<polygon fill="white" stroke="black" points="579,-714 579,-733 776,-733 776,-714 579,-714"/>
<text text-anchor="middle" x="677.5" y="-721" font-family="Helvetica,sans-Serif" font-size="10.00">denoptim.gui.GUIInspectFSERun.initialize</text>
</a>
</g>
</g>
<!-- Node9&#45;&gt;Node10 -->
<g id="edge10" class="edge">
<title>Node9&#45;&gt;Node10</title>
<path fill="none" stroke="midnightblue" d="M820.78,-749.65C790.06,-744 756.89,-737.91 730.32,-733.02"/>
<polygon fill="midnightblue" stroke="midnightblue" points="820.19,-753.1 830.66,-751.46 821.46,-746.21 820.19,-753.1"/>
</g>
<!-- Node12 -->
<g id="node12" class="node">
<title>Node12</title>
<g id="a_node12"><a xlink:href="classdenoptim_1_1gui_1_1_g_u_i_inspect_g_a_run.html#ad63012fa4fa9bec2e54ce86425039186" target="_top" xlink:title="Initialize the panel and add buttons.">
<polygon fill="white" stroke="black" points="581.5,-757 581.5,-776 773.5,-776 773.5,-757 581.5,-757"/>
<text text-anchor="middle" x="677.5" y="-764" font-family="Helvetica,sans-Serif" font-size="10.00">denoptim.gui.GUIInspectGARun.initialize</text>
</a>
</g>
</g>
<!-- Node9&#45;&gt;Node12 -->
<g id="edge12" class="edge">
<title>Node9&#45;&gt;Node12</title>
<path fill="none" stroke="midnightblue" d="M812.5,-766.5C799.7,-766.5 786.62,-766.5 773.89,-766.5"/>
<polygon fill="midnightblue" stroke="midnightblue" points="812.7,-770 822.7,-766.5 812.7,-763 812.7,-770"/>
</g>
<!-- Node14 -->
<g id="node14" class="node">
<title>Node14</title>
<g id="a_node14"><a xlink:href="classdenoptim_1_1gui_1_1_main_tool_bar.html#a1a2e06a2647032587d42155302b8c0a6" target="_top" xlink:title="Process a file that has a recognized file format and loads a suitable GUI card to visualize the file ...">
<polygon fill="white" stroke="black" points="594,-512 594,-531 761,-531 761,-512 594,-512"/>
<text text-anchor="middle" x="677.5" y="-519" font-family="Helvetica,sans-Serif" font-size="10.00">denoptim.gui.MainToolBar.openFile</text>
</a>
</g>
</g>
<!-- Node9&#45;&gt;Node14 -->
<g id="edge14" class="edge">
<title>Node9&#45;&gt;Node14</title>
<path fill="none" stroke="midnightblue" d="M817.84,-746.4C815.83,-745.17 813.88,-743.88 812,-742.5 772,-713.28 701.57,-569.81 683.06,-531.12"/>
<polygon fill="midnightblue" stroke="midnightblue" points="816.5,-749.65 826.97,-751.31 819.82,-743.49 816.5,-749.65"/>
</g>
<!-- Node11 -->
<g id="node11" class="node">
<title>Node11</title>
<g id="a_node11"><a xlink:href="classdenoptim_1_1gui_1_1_g_u_i_inspect_f_s_e_run.html#aa4cc9386cd3e91865c486ba914af789d" target="_top" xlink:title="Constructor.">
<polygon fill="white" stroke="black" points="381,-702.5 381,-732.5 543,-732.5 543,-702.5 381,-702.5"/>
<text text-anchor="start" x="389" y="-720.5" font-family="Helvetica,sans-Serif" font-size="10.00">denoptim.gui.GUIInspectFSERun.</text>
<text text-anchor="middle" x="462" y="-709.5" font-family="Helvetica,sans-Serif" font-size="10.00">GUIInspectFSERun</text>
</a>
</g>
</g>
<!-- Node10&#45;&gt;Node11 -->
<g id="edge11" class="edge">
<title>Node10&#45;&gt;Node11</title>
<path fill="none" stroke="midnightblue" d="M568.69,-720.47C560.06,-720.23 551.44,-719.99 543.05,-719.75"/>
<polygon fill="midnightblue" stroke="midnightblue" points="568.72,-723.97 578.81,-720.75 568.91,-716.97 568.72,-723.97"/>
</g>
<!-- Node13 -->
<g id="node13" class="node">
<title>Node13</title>
<g id="a_node13"><a xlink:href="classdenoptim_1_1gui_1_1_g_u_i_inspect_g_a_run.html#aefffdc97385f7a524badf71808a3053b" target="_top" xlink:title="Constructor.">
<polygon fill="white" stroke="black" points="383,-751.5 383,-781.5 541,-781.5 541,-751.5 383,-751.5"/>
<text text-anchor="start" x="391" y="-769.5" font-family="Helvetica,sans-Serif" font-size="10.00">denoptim.gui.GUIInspectGARun.</text>
<text text-anchor="middle" x="462" y="-758.5" font-family="Helvetica,sans-Serif" font-size="10.00">GUIInspectGARun</text>
</a>
</g>
</g>
<!-- Node12&#45;&gt;Node13 -->
<g id="edge13" class="edge">
<title>Node12&#45;&gt;Node13</title>
<path fill="none" stroke="midnightblue" d="M571.18,-766.5C561.03,-766.5 550.87,-766.5 541.06,-766.5"/>
<polygon fill="midnightblue" stroke="midnightblue" points="571.3,-770 581.3,-766.5 571.3,-763 571.3,-770"/>
</g>
<!-- Node15 -->
<g id="node15" class="node">
<title>Node15</title>
<g id="a_node15"><a xlink:href="classdenoptim_1_1gui_1_1_main_tool_bar.html#a0df9ca063352fbc50f9476f3b2820926" target="_top" xlink:title="Initialize the contents of the tool bar.">
<polygon fill="white" stroke="black" points="173.5,-534 173.5,-553 338.5,-553 338.5,-534 173.5,-534"/>
<text text-anchor="middle" x="256" y="-541" font-family="Helvetica,sans-Serif" font-size="10.00">denoptim.gui.MainToolBar.initialize</text>
</a>
</g>
</g>
<!-- Node14&#45;&gt;Node15 -->
<g id="edge15" class="edge">
<title>Node14&#45;&gt;Node15</title>
<path fill="none" stroke="midnightblue" d="M626.51,-533.13C601.57,-538.35 570.86,-543.91 543,-546.5 471.31,-553.15 452.99,-547.37 381,-546.5 367.33,-546.33 352.81,-546.07 338.7,-545.76"/>
<polygon fill="midnightblue" stroke="midnightblue" points="627.42,-536.52 636.46,-531 625.95,-529.67 627.42,-536.52"/>
</g>
<!-- Node17 -->
<g id="node17" class="node">
<title>Node17</title>
<g id="a_node17"><a xlink:href="classdenoptim_1_1gui_1_1_g_u_i.html#a460fa99497f04de06d2adf8671a92441" target="_top" xlink:title="Launch the application.">
<polygon fill="white" stroke="black" points="408.5,-468 408.5,-487 515.5,-487 515.5,-468 408.5,-468"/>
<text text-anchor="middle" x="462" y="-475" font-family="Helvetica,sans-Serif" font-size="10.00">denoptim.gui.GUI.run</text>
</a>
</g>
</g>
<!-- Node14&#45;&gt;Node17 -->
<g id="edge17" class="edge">
<title>Node14&#45;&gt;Node17</title>
<path fill="none" stroke="midnightblue" d="M620.21,-509.9C585.61,-502.77 541.81,-493.74 509.24,-487.03"/>
<polygon fill="midnightblue" stroke="midnightblue" points="619.67,-513.36 630.17,-511.95 621.09,-506.51 619.67,-513.36"/>
</g>
<!-- Node18 -->
<g id="node18" class="node">
<title>Node18</title>
<g id="a_node18"><a xlink:href="classdenoptim_1_1gui_1_1_main_tool_bar.html#a94df24e485081c9b9d7441387f409e26" target="_top" xlink:title="Updated the the list of recent files in the &quot;open Recent&quot; menu.">
<polygon fill="white" stroke="black" points="382,-506.5 382,-536.5 542,-536.5 542,-506.5 382,-506.5"/>
<text text-anchor="start" x="390" y="-524.5" font-family="Helvetica,sans-Serif" font-size="10.00">denoptim.gui.MainToolBar.update</text>
<text text-anchor="middle" x="462" y="-513.5" font-family="Helvetica,sans-Serif" font-size="10.00">OpenRecentMenu</text>
</a>
</g>
</g>
<!-- Node14&#45;&gt;Node18 -->
<g id="edge18" class="edge">
<title>Node14&#45;&gt;Node18</title>
<path fill="none" stroke="midnightblue" d="M583.9,-521.5C569.99,-521.5 555.76,-521.5 542.17,-521.5"/>
<polygon fill="midnightblue" stroke="midnightblue" points="583.96,-525 593.96,-521.5 583.96,-518 583.96,-525"/>
</g>
<!-- Node16 -->
<g id="node16" class="node">
<title>Node16</title>
<g id="a_node16"><a xlink:href="classdenoptim_1_1gui_1_1_main_tool_bar.html#a36f4409849998e032342f49b19e6c5b5" target="_top" xlink:title="Constructor that build the tool bar.">
<polygon fill="white" stroke="black" points="0,-528.5 0,-558.5 131,-558.5 131,-528.5 0,-528.5"/>
<text text-anchor="start" x="8" y="-546.5" font-family="Helvetica,sans-Serif" font-size="10.00">denoptim.gui.MainToolBar.</text>
<text text-anchor="middle" x="65.5" y="-535.5" font-family="Helvetica,sans-Serif" font-size="10.00">MainToolBar</text>
</a>
</g>
</g>
<!-- Node15&#45;&gt;Node16 -->
<g id="edge16" class="edge">
<title>Node15&#45;&gt;Node16</title>
<path fill="none" stroke="midnightblue" d="M163.1,-543.5C152.31,-543.5 141.48,-543.5 131.17,-543.5"/>
<polygon fill="midnightblue" stroke="midnightblue" points="163.42,-547 173.42,-543.5 163.42,-540 163.42,-547"/>
</g>
<!-- Node18&#45;&gt;Node15 -->
<g id="edge19" class="edge">
<title>Node18&#45;&gt;Node15</title>
<path fill="none" stroke="midnightblue" d="M371.83,-531.12C360.85,-532.3 349.67,-533.51 338.81,-534.68"/>
<polygon fill="midnightblue" stroke="midnightblue" points="372.27,-534.59 381.84,-530.04 371.52,-527.63 372.27,-534.59"/>
</g>
<!-- Node19&#45;&gt;Node4 -->
<g id="edge40" class="edge">
<title>Node19&#45;&gt;Node4</title>
<path fill="none" stroke="midnightblue" d="M1132,-463.58C1121.41,-515.06 1089.92,-632.88 1015,-693.5 1006.07,-700.72 995.33,-705.83 984.24,-709.44"/>
<polygon fill="midnightblue" stroke="midnightblue" points="1135.46,-464.14 1133.96,-453.65 1128.59,-462.79 1135.46,-464.14"/>
</g>
<!-- Node20 -->
<g id="node20" class="node">
<title>Node20</title>
<g id="a_node20"><a xlink:href="classdenoptim_1_1fragmenter_1_1_parallel_conformer_extraction_algorithm.html#accbc5c0326e13ccf00126143b0851369" target="_top" xlink:title="Implementations of this method must call the submitTask(Task, String) method to actually send the tas...">
<polygon fill="white" stroke="black" points="826,-496 826,-537 1001,-537 1001,-496 826,-496"/>
<text text-anchor="start" x="834" y="-525" font-family="Helvetica,sans-Serif" font-size="10.00">denoptim.fragmenter.Parallel</text>
<text text-anchor="start" x="834" y="-514" font-family="Helvetica,sans-Serif" font-size="10.00">ConformerExtractionAlgorithm.create</text>
<text text-anchor="middle" x="913.5" y="-503" font-family="Helvetica,sans-Serif" font-size="10.00">AndSubmitTasks</text>
</a>
</g>
</g>
<!-- Node19&#45;&gt;Node20 -->
<g id="edge21" class="edge">
<title>Node19&#45;&gt;Node20</title>
<path fill="none" stroke="midnightblue" d="M1092.58,-457.48C1069.67,-467.05 1041.06,-478.51 1015,-487.5 1006.59,-490.4 997.71,-493.25 988.86,-495.97"/>
<polygon fill="midnightblue" stroke="midnightblue" points="1094.17,-460.61 1102.03,-453.5 1091.45,-454.15 1094.17,-460.61"/>
</g>
<!-- Node21 -->
<g id="node21" class="node">
<title>Node21</title>
<g id="a_node21"><a xlink:href="classdenoptim_1_1fragspace_1_1_fragment_space.html#a43ed8d5c01a09ba050aad844bfc57406" target="_top" xlink:title="Define all components of a fragment space that implements the attachment point class&#45;approach.">
<polygon fill="white" stroke="black" points="841,-447.5 841,-477.5 986,-477.5 986,-447.5 841,-447.5"/>
<text text-anchor="start" x="849" y="-465.5" font-family="Helvetica,sans-Serif" font-size="10.00">denoptim.fragspace.Fragment</text>
<text text-anchor="middle" x="913.5" y="-454.5" font-family="Helvetica,sans-Serif" font-size="10.00">Space.FragmentSpace</text>
</a>
</g>
</g>
<!-- Node19&#45;&gt;Node21 -->
<g id="edge22" class="edge">
<title>Node19&#45;&gt;Node21</title>
<path fill="none" stroke="midnightblue" d="M1056.78,-447.12C1033.72,-449.61 1008.71,-452.31 986.18,-454.75"/>
<polygon fill="midnightblue" stroke="midnightblue" points="1057.3,-450.58 1066.87,-446.03 1056.55,-443.62 1057.3,-450.58"/>
</g>
<!-- Node22 -->
<g id="node22" class="node">
<title>Node22</title>
<g id="a_node22"><a xlink:href="classdenoptim_1_1gui_1_1_g_u_i_vertex_inspector.html#a6698fa37bf04503e58c61f0543946834" target="_top" xlink:title="Imports fragments from a file.">
<polygon fill="white" stroke="black" points="819,-398.5 819,-428.5 1008,-428.5 1008,-398.5 819,-398.5"/>
<text text-anchor="start" x="827" y="-416.5" font-family="Helvetica,sans-Serif" font-size="10.00">denoptim.gui.GUIVertexInspector.import</text>
<text text-anchor="middle" x="913.5" y="-405.5" font-family="Helvetica,sans-Serif" font-size="10.00">VerticesFromFile</text>
</a>
</g>
</g>
<!-- Node19&#45;&gt;Node22 -->
<g id="edge23" class="edge">
<title>Node19&#45;&gt;Node22</title>
<path fill="none" stroke="midnightblue" d="M1056.7,-429.51C1041.01,-427.75 1024.41,-425.88 1008.3,-424.06"/>
<polygon fill="midnightblue" stroke="midnightblue" points="1056.54,-433.02 1066.87,-430.66 1057.32,-426.06 1056.54,-433.02"/>
</g>
<!-- Node23 -->
<g id="node23" class="node">
<title>Node23</title>
<g id="a_node23"><a xlink:href="classdenoptim_1_1gui_1_1_g_u_i_vertex_inspector.html#acadecc92299a7ea46113c06382a1f333" target="_top" xlink:title="Initialize the panel and add buttons.">
<polygon fill="white" stroke="black" points="815,-360 815,-379 1012,-379 1012,-360 815,-360"/>
<text text-anchor="middle" x="913.5" y="-367" font-family="Helvetica,sans-Serif" font-size="10.00">denoptim.gui.GUIVertexInspector.initialize</text>
</a>
</g>
</g>
<!-- Node19&#45;&gt;Node23 -->
<g id="edge25" class="edge">
<title>Node19&#45;&gt;Node23</title>
<path fill="none" stroke="midnightblue" d="M1094.91,-419.48C1071.76,-409.46 1042.2,-397.61 1015,-389.5 1001.28,-385.41 986.25,-381.91 972.09,-379.04"/>
<polygon fill="midnightblue" stroke="midnightblue" points="1093.53,-422.69 1104.09,-423.5 1096.33,-416.28 1093.53,-422.69"/>
</g>
<!-- Node25 -->
<g id="node25" class="node">
<title>Node25</title>
<g id="a_node25"><a xlink:href="classdenoptim_1_1fragmenter_1_1_fragmenter_tools.html#a82c4a82da2a3283a870a8c8af94f0a4e" target="_top" xlink:title="Management of fragments: includes application of fragment filters, rejection rules,...">
<polygon fill="white" stroke="black" points="833,-310.5 833,-340.5 994,-340.5 994,-310.5 833,-310.5"/>
<text text-anchor="start" x="841" y="-328.5" font-family="Helvetica,sans-Serif" font-size="10.00">denoptim.fragmenter.Fragmenter</text>
<text text-anchor="middle" x="913.5" y="-317.5" font-family="Helvetica,sans-Serif" font-size="10.00">Tools.manageFragmentCollection</text>
</a>
</g>
</g>
<!-- Node19&#45;&gt;Node25 -->
<g id="edge27" class="edge">
<title>Node19&#45;&gt;Node25</title>
<path fill="none" stroke="midnightblue" d="M1112.47,-416.76C1089.16,-396.77 1051.97,-367.69 1015,-350.5 1006.77,-346.67 997.87,-343.38 988.9,-340.56"/>
<polygon fill="midnightblue" stroke="midnightblue" points="1110.28,-419.49 1120.12,-423.42 1114.88,-414.21 1110.28,-419.49"/>
</g>
<!-- Node26 -->
<g id="node26" class="node">
<title>Node26</title>
<g id="a_node26"><a xlink:href="classdenoptim_1_1programs_1_1fragmenter_1_1_fragmenter_parameters.html#aeb24d66181afd49b30a224fb495cc558" target="_top" xlink:title="Processes all parameters and initialize related objects.">
<polygon fill="white" stroke="black" points="812,-222.5 812,-252.5 1015,-252.5 1015,-222.5 812,-222.5"/>
<text text-anchor="start" x="820" y="-240.5" font-family="Helvetica,sans-Serif" font-size="10.00">denoptim.programs.fragmenter.</text>
<text text-anchor="middle" x="913.5" y="-229.5" font-family="Helvetica,sans-Serif" font-size="10.00">FragmenterParameters.processParameters</text>
</a>
</g>
</g>
<!-- Node19&#45;&gt;Node26 -->
<g id="edge28" class="edge">
<title>Node19&#45;&gt;Node26</title>
<path fill="none" stroke="midnightblue" d="M1125.75,-414.26C1108.04,-377.12 1069.22,-306.34 1015,-267.5 1006.41,-261.35 996.56,-256.45 986.45,-252.54"/>
<polygon fill="midnightblue" stroke="midnightblue" points="1122.6,-415.78 1129.99,-423.37 1128.94,-412.83 1122.6,-415.78"/>
</g>
<!-- Node27 -->
<g id="node27" class="node">
<title>Node27</title>
<g id="a_node27"><a xlink:href="classdenoptim_1_1programs_1_1fragmenter_1_1_fragmenter.html#aa27df9705e3aed34cc8cb8bc05e6ce85" target="_top" xlink:title=" ">
<polygon fill="white" stroke="black" points="602.5,-276.5 602.5,-306.5 752.5,-306.5 752.5,-276.5 602.5,-276.5"/>
<text text-anchor="start" x="610.5" y="-294.5" font-family="Helvetica,sans-Serif" font-size="10.00">denoptim.programs.fragmenter.</text>
<text text-anchor="middle" x="677.5" y="-283.5" font-family="Helvetica,sans-Serif" font-size="10.00">Fragmenter.runProgram</text>
</a>
</g>
</g>
<!-- Node19&#45;&gt;Node27 -->
<g id="edge41" class="edge">
<title>Node19&#45;&gt;Node27</title>
<path fill="none" stroke="midnightblue" d="M1123.65,-414.49C1104.75,-382.01 1066.11,-325.4 1015,-301.5 931.62,-262.5 823.46,-267.7 752.58,-277.48"/>
<polygon fill="midnightblue" stroke="midnightblue" points="1120.69,-416.37 1128.66,-423.34 1126.78,-412.92 1120.69,-416.37"/>
</g>
<!-- Node29 -->
<g id="node29" class="node">
<title>Node29</title>
<g id="a_node29"><a xlink:href="classdenoptim_1_1io_1_1_denoptim_i_o.html#a89735856fa91d61a10ed02c3c0ce08f9" target="_top" xlink:title=" ">
<polygon fill="white" stroke="black" points="843,-135.5 843,-165.5 984,-165.5 984,-135.5 843,-135.5"/>
<text text-anchor="start" x="851" y="-153.5" font-family="Helvetica,sans-Serif" font-size="10.00">denoptim.io.DenoptimIO.read</text>
<text text-anchor="middle" x="913.5" y="-142.5" font-family="Helvetica,sans-Serif" font-size="10.00">AllAPClasses</text>
</a>
</g>
</g>
<!-- Node19&#45;&gt;Node29 -->
<g id="edge31" class="edge">
<title>Node19&#45;&gt;Node29</title>
<path fill="none" stroke="midnightblue" d="M1128,-413.79C1111.77,-369.42 1072.76,-275.12 1015,-213.5 995.85,-193.07 968.68,-176.56 947.42,-165.58"/>
<polygon fill="midnightblue" stroke="midnightblue" points="1124.8,-415.22 1131.46,-423.46 1131.39,-412.86 1124.8,-415.22"/>
</g>
<!-- Node35 -->
<g id="node35" class="node">
<title>Node35</title>
<g id="a_node35"><a xlink:href="classdenoptim_1_1io_1_1_denoptim_i_o.html#a746a93c4742c53dfb3cc767eae8aac92" target="_top" xlink:title="Reads any content of a given pathname and tries to read DENOPTIM data from it.">
<polygon fill="white" stroke="black" points="843,-57.5 843,-87.5 984,-87.5 984,-57.5 843,-57.5"/>
<text text-anchor="start" x="851" y="-75.5" font-family="Helvetica,sans-Serif" font-size="10.00">denoptim.io.DenoptimIO.read</text>
<text text-anchor="middle" x="913.5" y="-64.5" font-family="Helvetica,sans-Serif" font-size="10.00">DENOPTIMData</text>
</a>
</g>
</g>
<!-- Node19&#45;&gt;Node35 -->
<g id="edge38" class="edge">
<title>Node19&#45;&gt;Node35</title>
<path fill="none" stroke="midnightblue" d="M1132.75,-413.23C1123.05,-355.83 1092.28,-213.8 1015,-126.5 999.57,-109.07 977.14,-96.27 957.37,-87.51"/>
<polygon fill="midnightblue" stroke="midnightblue" points="1129.31,-413.93 1134.37,-423.24 1136.22,-412.81 1129.31,-413.93"/>
</g>
<!-- Node37 -->
<g id="node37" class="node">
<title>Node37</title>
<g id="a_node37"><a xlink:href="classdenoptim_1_1io_1_1_denoptim_i_o_test.html#ad2d55573cddc254b2b779b6c9c0c1514" target="_top" xlink:title=" ">
<polygon fill="white" stroke="black" points="834.5,-653.5 834.5,-683.5 992.5,-683.5 992.5,-653.5 834.5,-653.5"/>
<text text-anchor="start" x="842.5" y="-671.5" font-family="Helvetica,sans-Serif" font-size="10.00">denoptim.io.DenoptimIOTest.test</text>
<text text-anchor="middle" x="913.5" y="-660.5" font-family="Helvetica,sans-Serif" font-size="10.00">IOEmptyVertex</text>
</a>
</g>
</g>
<!-- Node19&#45;&gt;Node37 -->
<g id="edge42" class="edge">
<title>Node19&#45;&gt;Node37</title>
<path fill="none" stroke="midnightblue" d="M1129.04,-463.32C1114.57,-507.06 1078.39,-597.68 1015,-644.5 1008.22,-649.51 1000.54,-653.49 992.52,-656.65"/>
<polygon fill="midnightblue" stroke="midnightblue" points="1132.39,-464.34 1132.11,-453.75 1125.72,-462.2 1132.39,-464.34"/>
</g>
<!-- Node38 -->
<g id="node38" class="node">
<title>Node38</title>
<g id="a_node38"><a xlink:href="classdenoptim_1_1io_1_1_denoptim_i_o_test.html#afa1376c9ab452a7e75cdf00489be1e07" target="_top" xlink:title=" ">
<polygon fill="white" stroke="black" points="834.5,-604.5 834.5,-634.5 992.5,-634.5 992.5,-604.5 834.5,-604.5"/>
<text text-anchor="start" x="842.5" y="-622.5" font-family="Helvetica,sans-Serif" font-size="10.00">denoptim.io.DenoptimIOTest.test</text>
<text text-anchor="middle" x="913.5" y="-611.5" font-family="Helvetica,sans-Serif" font-size="10.00">IOMolFragment</text>
</a>
</g>
</g>
<!-- Node19&#45;&gt;Node38 -->
<g id="edge43" class="edge">
<title>Node19&#45;&gt;Node38</title>
<path fill="none" stroke="midnightblue" d="M1124.54,-462.86C1106.04,-497.85 1067.14,-561.84 1015,-595.5 1008.14,-599.93 1000.55,-603.54 992.7,-606.48"/>
<polygon fill="midnightblue" stroke="midnightblue" points="1127.73,-464.3 1129.2,-453.81 1121.51,-461.09 1127.73,-464.3"/>
</g>
<!-- Node39 -->
<g id="node39" class="node">
<title>Node39</title>
<g id="a_node39"><a xlink:href="classdenoptim_1_1io_1_1_denoptim_i_o_test.html#a9ad0d01f5abd9f5c57e64dc7dd92484f" target="_top" xlink:title=" ">
<polygon fill="white" stroke="black" points="834.5,-555.5 834.5,-585.5 992.5,-585.5 992.5,-555.5 834.5,-555.5"/>
<text text-anchor="start" x="842.5" y="-573.5" font-family="Helvetica,sans-Serif" font-size="10.00">denoptim.io.DenoptimIOTest.test</text>
<text text-anchor="middle" x="913.5" y="-562.5" font-family="Helvetica,sans-Serif" font-size="10.00">IOTemplate</text>
</a>
</g>
</g>
<!-- Node19&#45;&gt;Node39 -->
<g id="edge44" class="edge">
<title>Node19&#45;&gt;Node39</title>
<path fill="none" stroke="midnightblue" d="M1117.14,-461.44C1094.98,-486.18 1056.37,-524.93 1015,-546.5 1008,-550.15 1000.44,-553.25 992.71,-555.89"/>
<polygon fill="midnightblue" stroke="midnightblue" points="1120.03,-463.45 1124,-453.63 1114.77,-458.83 1120.03,-463.45"/>
</g>
<!-- Node22&#45;&gt;Node14 -->
<g id="edge24" class="edge">
<title>Node22&#45;&gt;Node14</title>
<path fill="none" stroke="midnightblue" d="M830.31,-431.67C824.04,-433.75 817.87,-436.02 812,-438.5 764.24,-458.69 713.84,-494.63 691.02,-511.82"/>
<polygon fill="midnightblue" stroke="midnightblue" points="831.73,-434.89 840.23,-428.57 829.64,-428.21 831.73,-434.89"/>
</g>
<!-- Node24 -->
<g id="node24" class="node">
<title>Node24</title>
<g id="a_node24"><a xlink:href="classdenoptim_1_1gui_1_1_g_u_i_vertex_inspector.html#abc5d3c33ad9b2b114ce43e9b2cd577bb" target="_top" xlink:title="Constructor.">
<polygon fill="white" stroke="black" points="596.5,-354.5 596.5,-384.5 758.5,-384.5 758.5,-354.5 596.5,-354.5"/>
<text text-anchor="start" x="604.5" y="-372.5" font-family="Helvetica,sans-Serif" font-size="10.00">denoptim.gui.GUIVertexInspector.</text>
<text text-anchor="middle" x="677.5" y="-361.5" font-family="Helvetica,sans-Serif" font-size="10.00">GUIVertexInspector</text>
</a>
</g>
</g>
<!-- Node23&#45;&gt;Node24 -->
<g id="edge26" class="edge">
<title>Node23&#45;&gt;Node24</title>
<path fill="none" stroke="midnightblue" d="M804.83,-369.5C789.35,-369.5 773.66,-369.5 758.84,-369.5"/>
<polygon fill="midnightblue" stroke="midnightblue" points="804.96,-373 814.96,-369.5 804.96,-366 804.96,-373"/>
</g>
<!-- Node26&#45;&gt;Node27 -->
<g id="edge29" class="edge">
<title>Node26&#45;&gt;Node27</title>
<path fill="none" stroke="midnightblue" d="M837.28,-254.86C807.16,-261.81 772.78,-269.74 743.74,-276.45"/>
<polygon fill="midnightblue" stroke="midnightblue" points="838.36,-258.2 847.32,-252.54 836.79,-251.38 838.36,-258.2"/>
</g>
<!-- Node28 -->
<g id="node28" class="node">
<title>Node28</title>
<g id="a_node28"><a xlink:href="classdenoptim_1_1fragmenter_1_1_parallel_fragmentation_algorithm_test.html#a11b2178cd3d55ba7f1fe1e0e047dd684" target="_top" xlink:title=" ">
<polygon fill="white" stroke="black" points="598.5,-217 598.5,-258 756.5,-258 756.5,-217 598.5,-217"/>
<text text-anchor="start" x="606.5" y="-246" font-family="Helvetica,sans-Serif" font-size="10.00">denoptim.fragmenter.Parallel</text>
<text text-anchor="start" x="606.5" y="-235" font-family="Helvetica,sans-Serif" font-size="10.00">FragmentationAlgorithmTest.test</text>
<text text-anchor="middle" x="677.5" y="-224" font-family="Helvetica,sans-Serif" font-size="10.00">SplitInputForThreads</text>
</a>
</g>
</g>
<!-- Node26&#45;&gt;Node28 -->
<g id="edge30" class="edge">
<title>Node26&#45;&gt;Node28</title>
<path fill="none" stroke="midnightblue" d="M801.48,-237.5C786.37,-237.5 771.12,-237.5 756.75,-237.5"/>
<polygon fill="midnightblue" stroke="midnightblue" points="801.9,-241 811.9,-237.5 801.9,-234 801.9,-241"/>
</g>
<!-- Node30 -->
<g id="node30" class="node">
<title>Node30</title>
<g id="a_node30"><a xlink:href="classdenoptim_1_1gui_1_1_compatibility_matrix_form.html#a23d6738e0dcc5baedc45998e8e6a70fe" target="_top" xlink:title="Reads all the APClasses found in a list of files.">
<polygon fill="white" stroke="black" points="589,-157 589,-198 766,-198 766,-157 589,-157"/>
<text text-anchor="start" x="597" y="-186" font-family="Helvetica,sans-Serif" font-size="10.00">denoptim.gui.Compatibility</text>
<text text-anchor="start" x="597" y="-175" font-family="Helvetica,sans-Serif" font-size="10.00">MatrixForm.importAllAPClassesFrom</text>
<text text-anchor="middle" x="677.5" y="-164" font-family="Helvetica,sans-Serif" font-size="10.00">CappingGroupLibs</text>
</a>
</g>
</g>
<!-- Node29&#45;&gt;Node30 -->
<g id="edge32" class="edge">
<title>Node29&#45;&gt;Node30</title>
<path fill="none" stroke="midnightblue" d="M832.87,-159.69C811.37,-162.17 787.99,-164.87 766.08,-167.39"/>
<polygon fill="midnightblue" stroke="midnightblue" points="833.39,-163.15 842.93,-158.53 832.59,-156.2 833.39,-163.15"/>
</g>
<!-- Node33 -->
<g id="node33" class="node">
<title>Node33</title>
<g id="a_node33"><a xlink:href="classdenoptim_1_1gui_1_1_compatibility_matrix_form.html#ad6f9889f7ed8bb8b216fae3b42094c0e" target="_top" xlink:title="Reads all the APClasses found in a list of files.">
<polygon fill="white" stroke="black" points="589,-49 589,-90 766,-90 766,-49 589,-49"/>
<text text-anchor="start" x="597" y="-78" font-family="Helvetica,sans-Serif" font-size="10.00">denoptim.gui.Compatibility</text>
<text text-anchor="start" x="597" y="-67" font-family="Helvetica,sans-Serif" font-size="10.00">MatrixForm.importAllAPClassesFrom</text>
<text text-anchor="middle" x="677.5" y="-56" font-family="Helvetica,sans-Serif" font-size="10.00">FragmentLibs</text>
</a>
</g>
</g>
<!-- Node29&#45;&gt;Node33 -->
<g id="edge35" class="edge">
<title>Node29&#45;&gt;Node33</title>
<path fill="none" stroke="midnightblue" d="M864.55,-131.79C838.49,-121.83 805.62,-109.58 776,-99.5 766.69,-96.33 756.84,-93.13 747.12,-90.05"/>
<polygon fill="midnightblue" stroke="midnightblue" points="863.59,-135.17 874.18,-135.49 866.1,-128.64 863.59,-135.17"/>
</g>
<!-- Node34 -->
<g id="node34" class="node">
<title>Node34</title>
<g id="a_node34"><a xlink:href="classdenoptim_1_1io_1_1_denoptim_i_o_test.html#a92ea09ddfe9f40627e43ce087f160e12" target="_top" xlink:title=" ">
<polygon fill="white" stroke="black" points="598.5,-108.5 598.5,-138.5 756.5,-138.5 756.5,-108.5 598.5,-108.5"/>
<text text-anchor="start" x="606.5" y="-126.5" font-family="Helvetica,sans-Serif" font-size="10.00">denoptim.io.DenoptimIOTest.test</text>
<text text-anchor="middle" x="677.5" y="-115.5" font-family="Helvetica,sans-Serif" font-size="10.00">ReadAllAPClasses</text>
</a>
</g>
</g>
<!-- Node29&#45;&gt;Node34 -->
<g id="edge37" class="edge">
<title>Node29&#45;&gt;Node34</title>
<path fill="none" stroke="midnightblue" d="M832.92,-141.32C808.35,-138.48 781.31,-135.36 756.83,-132.54"/>
<polygon fill="midnightblue" stroke="midnightblue" points="832.59,-144.8 842.93,-142.47 833.39,-137.85 832.59,-144.8"/>
</g>
<!-- Node31 -->
<g id="node31" class="node">
<title>Node31</title>
<g id="a_node31"><a xlink:href="classdenoptim_1_1gui_1_1_g_u_i_compatibility_matrix_tab.html#a4bc183818810a26037080b47f082b9af" target="_top" xlink:title="Initialize the panel and add buttons.">
<polygon fill="white" stroke="black" points="388.5,-108.5 388.5,-138.5 535.5,-138.5 535.5,-108.5 388.5,-108.5"/>
<text text-anchor="start" x="396.5" y="-126.5" font-family="Helvetica,sans-Serif" font-size="10.00">denoptim.gui.GUICompatibility</text>
<text text-anchor="middle" x="462" y="-115.5" font-family="Helvetica,sans-Serif" font-size="10.00">MatrixTab.initialize</text>
</a>
</g>
</g>
<!-- Node30&#45;&gt;Node31 -->
<g id="edge33" class="edge">
<title>Node30&#45;&gt;Node31</title>
<path fill="none" stroke="midnightblue" d="M585.47,-154.47C564.17,-149.09 542.03,-143.49 522.52,-138.55"/>
<polygon fill="midnightblue" stroke="midnightblue" points="584.62,-157.87 595.18,-156.93 586.34,-151.09 584.62,-157.87"/>
</g>
<!-- Node32 -->
<g id="node32" class="node">
<title>Node32</title>
<g id="a_node32"><a xlink:href="classdenoptim_1_1gui_1_1_g_u_i_compatibility_matrix_tab.html#ab550b03594a5843183d6f925e66d444b" target="_top" xlink:title="Constructor.">
<polygon fill="white" stroke="black" points="167,-108.5 167,-138.5 345,-138.5 345,-108.5 167,-108.5"/>
<text text-anchor="start" x="175" y="-126.5" font-family="Helvetica,sans-Serif" font-size="10.00">denoptim.gui.GUICompatibility</text>
<text text-anchor="middle" x="256" y="-115.5" font-family="Helvetica,sans-Serif" font-size="10.00">MatrixTab.GUICompatibilityMatrixTab</text>
</a>
</g>
</g>
<!-- Node31&#45;&gt;Node32 -->
<g id="edge34" class="edge">
<title>Node31&#45;&gt;Node32</title>
<path fill="none" stroke="midnightblue" d="M377.95,-123.5C367.13,-123.5 356.01,-123.5 345.12,-123.5"/>
<polygon fill="midnightblue" stroke="midnightblue" points="378.22,-127 388.22,-123.5 378.22,-120 378.22,-127"/>
</g>
<!-- Node33&#45;&gt;Node31 -->
<g id="edge36" class="edge">
<title>Node33&#45;&gt;Node31</title>
<path fill="none" stroke="midnightblue" d="M585.47,-92.53C564.17,-97.91 542.03,-103.51 522.52,-108.45"/>
<polygon fill="midnightblue" stroke="midnightblue" points="586.34,-95.91 595.18,-90.07 584.62,-89.13 586.34,-95.91"/>
</g>
<!-- Node36 -->
<g id="node36" class="node">
<title>Node36</title>
<g id="a_node36"><a xlink:href="classdenoptim_1_1integration_1_1python_1_1_py4_j_getaway_server.html#a15873756d67e5fcc5b3219c5d26db990" target="_top" xlink:title="Reads any DENOPTIM&#45;kind of data from the given pathname.">
<polygon fill="white" stroke="black" points="604.5,-0.5 604.5,-30.5 750.5,-30.5 750.5,-0.5 604.5,-0.5"/>
<text text-anchor="start" x="612.5" y="-18.5" font-family="Helvetica,sans-Serif" font-size="10.00">denoptim.integration.python.</text>
<text text-anchor="middle" x="677.5" y="-7.5" font-family="Helvetica,sans-Serif" font-size="10.00">Py4JGetawayServer.loadData</text>
</a>
</g>
</g>
<!-- Node35&#45;&gt;Node36 -->
<g id="edge39" class="edge">
<title>Node35&#45;&gt;Node36</title>
<path fill="none" stroke="midnightblue" d="M840.92,-55.06C808.74,-47.23 771.14,-38.07 740.23,-30.54"/>
<polygon fill="midnightblue" stroke="midnightblue" points="840.17,-58.48 850.71,-57.45 841.83,-51.68 840.17,-58.48"/>
</g>
</g>
</svg>
