<?xml version="1.0" encoding="UTF-8" standalone="no"?>
<!DOCTYPE svg PUBLIC "-//W3C//DTD SVG 1.1//EN"
 "http://www.w3.org/Graphics/SVG/1.1/DTD/svg11.dtd">
<!-- Generated by graphviz version 3.0.0 (20221109.1736)
 -->
<!-- Title: denoptim.ga.EAUtils.searchRingFusionSites Pages: 1 -->
<svg width="1013pt" height="151pt"
 viewBox="0.00 0.00 1013.00 150.50" xmlns="http://www.w3.org/2000/svg" xmlns:xlink="http://www.w3.org/1999/xlink">
<g id="graph0" class="graph" transform="scale(1 1) rotate(0) translate(4 146.5)">
<title>denoptim.ga.EAUtils.searchRingFusionSites</title>
<polygon fill="white" stroke="transparent" points="-4,4 -4,-146.5 1009,-146.5 1009,4 -4,4"/>
<!-- Node1 -->
<g id="node1" class="node">
<title>Node1</title>
<g id="a_node1"><a xlink:title=" ">
<polygon fill="#bfbfbf" stroke="black" points="0,-63 0,-93 136,-93 136,-63 0,-63"/>
<text text-anchor="start" x="8" y="-81" font-family="Helvetica,sans-Serif" font-size="10.00">denoptim.ga.EAUtils.search</text>
<text text-anchor="middle" x="68" y="-70" font-family="Helvetica,sans-Serif" font-size="10.00">RingFusionSites</text>
</a>
</g>
</g>
<!-- Node1&#45;&gt;Node1 -->
<g id="edge9" class="edge">
<title>Node1&#45;&gt;Node1</title>
<path fill="none" stroke="midnightblue" d="M34.54,-93.16C26.47,-102.56 37.62,-111.5 68,-111.5 86.51,-111.5 97.88,-108.18 102.12,-103.46"/>
<polygon fill="midnightblue" stroke="midnightblue" points="105.59,-102.92 101.46,-93.16 98.6,-103.36 105.59,-102.92"/>
</g>
<!-- Node2 -->
<g id="node2" class="node">
<title>Node2</title>
<g id="a_node2"><a xlink:href="classdenoptim_1_1fragspace_1_1_fragment_space_parameters.html#a93693af51412000689dc7517151b9a05" target="_top" xlink:title=" ">
<polygon fill="white" stroke="black" points="172,-112 172,-142 351,-142 351,-112 172,-112"/>
<text text-anchor="start" x="180" y="-130" font-family="Helvetica,sans-Serif" font-size="10.00">denoptim.fragspace.Fragment</text>
<text text-anchor="middle" x="261.5" y="-119" font-family="Helvetica,sans-Serif" font-size="10.00">SpaceParameters.getFragmentSpace</text>
</a>
</g>
</g>
<!-- Node1&#45;&gt;Node2 -->
<g id="edge1" class="edge">
<title>Node1&#45;&gt;Node2</title>
<path fill="none" stroke="midnightblue" d="M127.76,-93.03C148.07,-98.23 171.01,-104.1 192.03,-109.48"/>
<polygon fill="midnightblue" stroke="midnightblue" points="191.3,-112.91 201.85,-111.99 193.03,-106.12 191.3,-112.91"/>
</g>
<!-- Node3 -->
<g id="node3" class="node">
<title>Node3</title>
<g id="a_node3"><a xlink:href="classdenoptim_1_1programs_1_1_run_time_parameters.html#a4da800dd8e739b91dbf8b4b960ee2e51" target="_top" xlink:title=" ">
<polygon fill="white" stroke="black" points="191.5,-63 191.5,-93 331.5,-93 331.5,-63 191.5,-63"/>
<text text-anchor="start" x="199.5" y="-81" font-family="Helvetica,sans-Serif" font-size="10.00">denoptim.programs.RunTime</text>
<text text-anchor="middle" x="261.5" y="-70" font-family="Helvetica,sans-Serif" font-size="10.00">Parameters.getParameters</text>
</a>
</g>
</g>
<!-- Node1&#45;&gt;Node3 -->
<g id="edge2" class="edge">
<title>Node1&#45;&gt;Node3</title>
<path fill="none" stroke="midnightblue" d="M136.25,-78C150.78,-78 166.28,-78 181.23,-78"/>
<polygon fill="midnightblue" stroke="midnightblue" points="181.47,-81.5 191.47,-78 181.47,-74.5 181.47,-81.5"/>
</g>
<!-- Node4 -->
<g id="node4" class="node">
<title>Node4</title>
<g id="a_node4"><a xlink:href="classdenoptim_1_1utils_1_1_randomizer.html#a110f1f5570f2ccd121a19d7df730e5fd" target="_top" xlink:title="Returns the next pseudo&#45;random, uniformly distributed boolean value from this random number generator...">
<polygon fill="white" stroke="black" points="186.5,-14 186.5,-44 336.5,-44 336.5,-14 186.5,-14"/>
<text text-anchor="start" x="194.5" y="-32" font-family="Helvetica,sans-Serif" font-size="10.00">denoptim.utils.Randomizer.next</text>
<text text-anchor="middle" x="261.5" y="-21" font-family="Helvetica,sans-Serif" font-size="10.00">Boolean</text>
</a>
</g>
</g>
<!-- Node1&#45;&gt;Node4 -->
<g id="edge3" class="edge">
<title>Node1&#45;&gt;Node4</title>
<path fill="none" stroke="midnightblue" d="M127.76,-62.97C148.07,-57.77 171.01,-51.9 192.03,-46.52"/>
<polygon fill="midnightblue" stroke="midnightblue" points="193.03,-49.88 201.85,-44.01 191.3,-43.09 193.03,-49.88"/>
</g>
<!-- Node5 -->
<g id="node5" class="node">
<title>Node5</title>
<g id="a_node5"><a xlink:href="classdenoptim_1_1utils_1_1_randomizer.html#a6873dd710cc271ed81bfa45411a62359" target="_top" xlink:title="Returns the random number generator.">
<polygon fill="white" stroke="black" points="387,-38.5 387,-57.5 554,-57.5 554,-38.5 387,-38.5"/>
<text text-anchor="middle" x="470.5" y="-45.5" font-family="Helvetica,sans-Serif" font-size="10.00">denoptim.utils.Randomizer.getRNG</text>
</a>
</g>
</g>
<!-- Node4&#45;&gt;Node5 -->
<g id="edge4" class="edge">
<title>Node4&#45;&gt;Node5</title>
<path fill="none" stroke="midnightblue" d="M336.65,-35.81C349.59,-36.99 363.2,-38.24 376.57,-39.47"/>
<polygon fill="midnightblue" stroke="midnightblue" points="376.46,-42.97 386.74,-40.4 377.1,-36 376.46,-42.97"/>
</g>
<!-- Node8 -->
<g id="node8" class="node">
<title>Node8</title>
<g id="a_node8"><a xlink:href="classdenoptim_1_1utils_1_1_randomizer.html#acaa5e386da195d9454fae611ed554c48" target="_top" xlink:title="Utility to debug: writes some log in file &#39;/tmp/rng_debug_log&#39;.">
<polygon fill="white" stroke="black" points="395,-0.5 395,-19.5 546,-19.5 546,-0.5 395,-0.5"/>
<text text-anchor="middle" x="470.5" y="-7.5" font-family="Helvetica,sans-Serif" font-size="10.00">denoptim.utils.Randomizer.print</text>
</a>
</g>
</g>
<!-- Node4&#45;&gt;Node8 -->
<g id="edge7" class="edge">
<title>Node4&#45;&gt;Node8</title>
<path fill="none" stroke="midnightblue" d="M336.65,-22.19C352.16,-20.77 368.63,-19.26 384.5,-17.8"/>
<polygon fill="midnightblue" stroke="midnightblue" points="385.19,-21.25 394.83,-16.85 384.55,-14.28 385.19,-21.25"/>
</g>
<!-- Node6 -->
<g id="node6" class="node">
<title>Node6</title>
<g id="a_node6"><a xlink:href="classdenoptim_1_1utils_1_1_randomizer.html#aaaeda6dedda5664a47a2a9a68194162a" target="_top" xlink:title="Initializes this random number generator (RNG) using a random seed that is generated on&#45;the&#45;fly rando...">
<polygon fill="white" stroke="black" points="590,-38.5 590,-57.5 779,-57.5 779,-38.5 590,-38.5"/>
<text text-anchor="middle" x="684.5" y="-45.5" font-family="Helvetica,sans-Serif" font-size="10.00">denoptim.utils.Randomizer.initialiseRNG</text>
</a>
</g>
</g>
<!-- Node5&#45;&gt;Node6 -->
<g id="edge5" class="edge">
<title>Node5&#45;&gt;Node6</title>
<path fill="none" stroke="midnightblue" d="M554.07,-48C562.51,-48 571.16,-48 579.79,-48"/>
<polygon fill="midnightblue" stroke="midnightblue" points="579.89,-51.5 589.89,-48 579.89,-44.5 579.89,-51.5"/>
</g>
<!-- Node7 -->
<g id="node7" class="node">
<title>Node7</title>
<g id="a_node7"><a xlink:href="classdenoptim_1_1utils_1_1_randomizer.html#ad74f0608d3e2e10caa8873ae059367a7" target="_top" xlink:title=" ">
<polygon fill="white" stroke="black" points="815,-38.5 815,-57.5 1005,-57.5 1005,-38.5 815,-38.5"/>
<text text-anchor="middle" x="910" y="-45.5" font-family="Helvetica,sans-Serif" font-size="10.00">denoptim.utils.Randomizer.initialiseSeed</text>
</a>
</g>
</g>
<!-- Node6&#45;&gt;Node7 -->
<g id="edge6" class="edge">
<title>Node6&#45;&gt;Node7</title>
<path fill="none" stroke="midnightblue" d="M779.31,-48C787.64,-48 796.09,-48 804.5,-48"/>
<polygon fill="midnightblue" stroke="midnightblue" points="804.71,-51.5 814.71,-48 804.71,-44.5 804.71,-51.5"/>
</g>
<!-- Node9 -->
<g id="node9" class="node">
<title>Node9</title>
<g id="a_node9"><a xlink:href="classdenoptim_1_1io_1_1_denoptim_i_o.html#adc7de175de66792f4f37f1661c10e7f8" target="_top" xlink:title="Write text&#45;like data file.">
<polygon fill="white" stroke="black" points="602.5,-0.5 602.5,-19.5 766.5,-19.5 766.5,-0.5 602.5,-0.5"/>
<text text-anchor="middle" x="684.5" y="-7.5" font-family="Helvetica,sans-Serif" font-size="10.00">denoptim.io.DenoptimIO.writeData</text>
</a>
</g>
</g>
<!-- Node8&#45;&gt;Node9 -->
<g id="edge8" class="edge">
<title>Node8&#45;&gt;Node9</title>
<path fill="none" stroke="midnightblue" d="M546.24,-10C561.11,-10 576.87,-10 592.22,-10"/>
<polygon fill="midnightblue" stroke="midnightblue" points="592.23,-13.5 602.23,-10 592.23,-6.5 592.23,-13.5"/>
</g>
</g>
</svg>
