<?xml version="1.0" encoding="UTF-8" standalone="no"?>
<!DOCTYPE svg PUBLIC "-//W3C//DTD SVG 1.1//EN"
 "http://www.w3.org/Graphics/SVG/1.1/DTD/svg11.dtd">
<!-- Generated by graphviz version 3.0.0 (20221109.1736)
 -->
<!-- Title: denoptim.graph.rings.RingClosureParameters.setRingSizeBias Pages: 1 -->
<svg width="403pt" height="196pt"
 viewBox="0.00 0.00 403.00 196.00" xmlns="http://www.w3.org/2000/svg" xmlns:xlink="http://www.w3.org/1999/xlink">
<g id="graph0" class="graph" transform="scale(1 1) rotate(0) translate(4 192)">
<title>denoptim.graph.rings.RingClosureParameters.setRingSizeBias</title>
<polygon fill="white" stroke="transparent" points="-4,4 -4,-192 399,-192 399,4 -4,4"/>
<!-- Node1 -->
<g id="node1" class="node">
<title>Node1</title>
<g id="a_node1"><a xlink:title="Sets the preference for certain ring sizes or the prohibition to generate certain rings (i....">
<polygon fill="#bfbfbf" stroke="black" points="222,-81.5 222,-111.5 395,-111.5 395,-81.5 222,-81.5"/>
<text text-anchor="start" x="230" y="-99.5" font-family="Helvetica,sans-Serif" font-size="10.00">denoptim.graph.rings.Ring</text>
<text text-anchor="middle" x="308.5" y="-88.5" font-family="Helvetica,sans-Serif" font-size="10.00">ClosureParameters.setRingSizeBias</text>
</a>
</g>
</g>
<!-- Node2 -->
<g id="node2" class="node">
<title>Node2</title>
<g id="a_node2"><a xlink:href="classdenoptim_1_1ga_1_1_graph_operations_test.html#a6dbd168077a4fb24f16e1e9ac14d0c4c" target="_top" xlink:title=" ">
<polygon fill="white" stroke="black" points="20.5,-157.5 20.5,-187.5 165.5,-187.5 165.5,-157.5 20.5,-157.5"/>
<text text-anchor="start" x="28.5" y="-175.5" font-family="Helvetica,sans-Serif" font-size="10.00">denoptim.ga.GraphOperations</text>
<text text-anchor="middle" x="93" y="-164.5" font-family="Helvetica,sans-Serif" font-size="10.00">Test.testAddFusedRings</text>
</a>
</g>
</g>
<!-- Node1&#45;&gt;Node2 -->
<g id="edge1" class="edge">
<title>Node1&#45;&gt;Node2</title>
<path fill="none" stroke="midnightblue" d="M266.8,-115.73C243.48,-126.28 213.47,-139.1 186,-148.5 176.63,-151.71 166.6,-154.73 156.73,-157.48"/>
<polygon fill="midnightblue" stroke="midnightblue" points="268.39,-118.85 276.03,-111.51 265.48,-112.48 268.39,-118.85"/>
</g>
<!-- Node3 -->
<g id="node3" class="node">
<title>Node3</title>
<g id="a_node3"><a xlink:href="classdenoptim_1_1ga_1_1_graph_operations_test.html#af86b79061d15a4d2e3d7ccdf0d758f44" target="_top" xlink:title=" ">
<polygon fill="white" stroke="black" points="20.5,-108.5 20.5,-138.5 165.5,-138.5 165.5,-108.5 20.5,-108.5"/>
<text text-anchor="start" x="28.5" y="-126.5" font-family="Helvetica,sans-Serif" font-size="10.00">denoptim.ga.GraphOperations</text>
<text text-anchor="middle" x="93" y="-115.5" font-family="Helvetica,sans-Serif" font-size="10.00">Test.testAddRing</text>
</a>
</g>
</g>
<!-- Node1&#45;&gt;Node3 -->
<g id="edge2" class="edge">
<title>Node1&#45;&gt;Node3</title>
<path fill="none" stroke="midnightblue" d="M211.75,-108.61C196.23,-110.57 180.39,-112.57 165.57,-114.45"/>
<polygon fill="midnightblue" stroke="midnightblue" points="212.41,-112.05 221.89,-107.33 211.53,-105.11 212.41,-112.05"/>
</g>
<!-- Node4 -->
<g id="node4" class="node">
<title>Node4</title>
<g id="a_node4"><a xlink:href="classdenoptim_1_1graph_1_1rings_1_1_random_comb_of_ring_iterator_test.html#a4a178f479d08c120f5fea6ef60feac8b" target="_top" xlink:title=" ">
<polygon fill="white" stroke="black" points="3.5,-49 3.5,-90 182.5,-90 182.5,-49 3.5,-49"/>
<text text-anchor="start" x="11.5" y="-78" font-family="Helvetica,sans-Serif" font-size="10.00">denoptim.graph.rings.Random</text>
<text text-anchor="start" x="11.5" y="-67" font-family="Helvetica,sans-Serif" font-size="10.00">CombOfRingIteratorTest.testEvaluate</text>
<text text-anchor="middle" x="93" y="-56" font-family="Helvetica,sans-Serif" font-size="10.00">ConstitutionalClosability</text>
</a>
</g>
</g>
<!-- Node1&#45;&gt;Node4 -->
<g id="edge3" class="edge">
<title>Node1&#45;&gt;Node4</title>
<path fill="none" stroke="midnightblue" d="M211.86,-84.41C202.18,-83.18 192.37,-81.94 182.77,-80.73"/>
<polygon fill="midnightblue" stroke="midnightblue" points="211.53,-87.89 221.89,-85.67 212.41,-80.95 211.53,-87.89"/>
</g>
<!-- Node5 -->
<g id="node5" class="node">
<title>Node5</title>
<g id="a_node5"><a xlink:href="classdenoptim_1_1graph_1_1rings_1_1_ring_size_manager_test.html#a55d1482a18edbaabf15b090392a282f3" target="_top" xlink:title=" ">
<polygon fill="white" stroke="black" points="0,-0.5 0,-30.5 186,-30.5 186,-0.5 0,-0.5"/>
<text text-anchor="start" x="8" y="-18.5" font-family="Helvetica,sans-Serif" font-size="10.00">denoptim.graph.rings.Ring</text>
<text text-anchor="middle" x="93" y="-7.5" font-family="Helvetica,sans-Serif" font-size="10.00">SizeManagerTest.testEvaluateRCVPair</text>
</a>
</g>
</g>
<!-- Node1&#45;&gt;Node5 -->
<g id="edge4" class="edge">
<title>Node1&#45;&gt;Node5</title>
<path fill="none" stroke="midnightblue" d="M270.18,-76.81C246.52,-64.88 215.02,-49.99 186,-39.5 177,-36.24 167.35,-33.23 157.81,-30.52"/>
<polygon fill="midnightblue" stroke="midnightblue" points="268.66,-79.96 279.16,-81.39 271.84,-73.73 268.66,-79.96"/>
</g>
</g>
</svg>
