<?xml version="1.0" encoding="UTF-8" standalone="no"?>
<!DOCTYPE svg PUBLIC "-//W3C//DTD SVG 1.1//EN"
 "http://www.w3.org/Graphics/SVG/1.1/DTD/svg11.dtd">
<!-- Generated by graphviz version 3.0.0 (20221109.1736)
 -->
<!-- Title: denoptim.graph.DGraph.getChildrenTree Pages: 1 -->
<svg width="833pt" height="176pt"
 viewBox="0.00 0.00 833.00 176.00" xmlns="http://www.w3.org/2000/svg" xmlns:xlink="http://www.w3.org/1999/xlink">
<g id="graph0" class="graph" transform="scale(1 1) rotate(0) translate(4 172)">
<title>denoptim.graph.DGraph.getChildrenTree</title>
<polygon fill="white" stroke="transparent" points="-4,4 -4,-172 829,-172 829,4 -4,4"/>
<!-- Node1 -->
<g id="node1" class="node">
<title>Node1</title>
<g id="a_node1"><a xlink:title="Gets all the children of the current vertex recursively.">
<polygon fill="#bfbfbf" stroke="black" points="0,-44.5 0,-74.5 134,-74.5 134,-44.5 0,-44.5"/>
<text text-anchor="start" x="8" y="-62.5" font-family="Helvetica,sans-Serif" font-size="10.00">denoptim.graph.DGraph.get</text>
<text text-anchor="middle" x="67" y="-51.5" font-family="Helvetica,sans-Serif" font-size="10.00">ChildrenTree</text>
</a>
</g>
</g>
<!-- Node2 -->
<g id="node2" class="node">
<title>Node2</title>
<g id="a_node2"><a xlink:href="classdenoptim_1_1graph_1_1_d_graph.html#a3a184063c09f54ff6798aea4dd504302" target="_top" xlink:title="Gets all the children of the current vertex recursively.">
<polygon fill="white" stroke="black" points="170,-88.5 170,-118.5 304,-118.5 304,-88.5 170,-88.5"/>
<text text-anchor="start" x="178" y="-106.5" font-family="Helvetica,sans-Serif" font-size="10.00">denoptim.graph.DGraph.get</text>
<text text-anchor="middle" x="237" y="-95.5" font-family="Helvetica,sans-Serif" font-size="10.00">ChildrenTree</text>
</a>
</g>
</g>
<!-- Node1&#45;&gt;Node2 -->
<g id="edge1" class="edge">
<title>Node1&#45;&gt;Node2</title>
<path fill="none" stroke="midnightblue" d="M125.35,-74.52C139.33,-78.18 154.4,-82.13 168.8,-85.9"/>
<polygon fill="midnightblue" stroke="midnightblue" points="168.07,-89.33 178.63,-88.47 169.84,-82.55 168.07,-89.33"/>
</g>
<!-- Node3 -->
<g id="node3" class="node">
<title>Node3</title>
<g id="a_node3"><a xlink:href="classdenoptim_1_1graph_1_1_d_graph.html#a70aeea1a1fe35ea9fe5a49a147e76f1a" target="_top" xlink:title=" ">
<polygon fill="white" stroke="black" points="340,-66.5 340,-96.5 474,-96.5 474,-66.5 340,-66.5"/>
<text text-anchor="start" x="348" y="-84.5" font-family="Helvetica,sans-Serif" font-size="10.00">denoptim.graph.DGraph.get</text>
<text text-anchor="middle" x="407" y="-73.5" font-family="Helvetica,sans-Serif" font-size="10.00">ChildVertices</text>
</a>
</g>
</g>
<!-- Node1&#45;&gt;Node3 -->
<g id="edge9" class="edge">
<title>Node1&#45;&gt;Node3</title>
<path fill="none" stroke="midnightblue" d="M134.37,-63.82C190.42,-67.47 270.69,-72.69 329.44,-76.52"/>
<polygon fill="midnightblue" stroke="midnightblue" points="329.57,-80.03 339.78,-77.19 330.03,-73.05 329.57,-80.03"/>
</g>
<!-- Node9 -->
<g id="node9" class="node">
<title>Node9</title>
<g id="a_node9"><a xlink:href="classdenoptim_1_1graph_1_1_vertex.html#ad26ecf426a5e415605df94be904e58d3" target="_top" xlink:title=" ">
<polygon fill="white" stroke="black" points="173,-0.5 173,-30.5 301,-30.5 301,-0.5 173,-0.5"/>
<text text-anchor="start" x="181" y="-18.5" font-family="Helvetica,sans-Serif" font-size="10.00">denoptim.graph.Vertex.set</text>
<text text-anchor="middle" x="237" y="-7.5" font-family="Helvetica,sans-Serif" font-size="10.00">Property</text>
</a>
</g>
</g>
<!-- Node1&#45;&gt;Node9 -->
<g id="edge10" class="edge">
<title>Node1&#45;&gt;Node9</title>
<path fill="none" stroke="midnightblue" d="M125.35,-44.48C139.33,-40.82 154.4,-36.87 168.8,-33.1"/>
<polygon fill="midnightblue" stroke="midnightblue" points="169.84,-36.45 178.63,-30.53 168.07,-29.67 169.84,-36.45"/>
</g>
<!-- Node2&#45;&gt;Node2 -->
<g id="edge2" class="edge">
<title>Node2&#45;&gt;Node2</title>
<path fill="none" stroke="midnightblue" d="M207.37,-118.66C200.23,-128.06 210.11,-137 237,-137 253.39,-137 263.46,-133.68 267.21,-128.96"/>
<polygon fill="midnightblue" stroke="midnightblue" points="270.68,-128.45 266.63,-118.66 263.69,-128.84 270.68,-128.45"/>
</g>
<!-- Node2&#45;&gt;Node3 -->
<g id="edge3" class="edge">
<title>Node2&#45;&gt;Node3</title>
<path fill="none" stroke="midnightblue" d="M304.4,-94.81C312.77,-93.71 321.39,-92.58 329.89,-91.47"/>
<polygon fill="midnightblue" stroke="midnightblue" points="330.35,-94.94 339.81,-90.17 329.44,-88 330.35,-94.94"/>
</g>
<!-- Node4 -->
<g id="node4" class="node">
<title>Node4</title>
<g id="a_node4"><a xlink:href="classdenoptim_1_1graph_1_1_vertex.html#a846e0f49dfefd933c429450545338d25" target="_top" xlink:title="Looks into the edges that use any of the APs that belong to this vertex and returns the list of verti...">
<polygon fill="white" stroke="black" points="510,-66.5 510,-96.5 638,-96.5 638,-66.5 510,-66.5"/>
<text text-anchor="start" x="518" y="-84.5" font-family="Helvetica,sans-Serif" font-size="10.00">denoptim.graph.Vertex.get</text>
<text text-anchor="middle" x="574" y="-73.5" font-family="Helvetica,sans-Serif" font-size="10.00">Childdren</text>
</a>
</g>
</g>
<!-- Node3&#45;&gt;Node4 -->
<g id="edge4" class="edge">
<title>Node3&#45;&gt;Node4</title>
<path fill="none" stroke="midnightblue" d="M474.16,-81.5C482.51,-81.5 491.09,-81.5 499.55,-81.5"/>
<polygon fill="midnightblue" stroke="midnightblue" points="499.77,-85 509.77,-81.5 499.77,-78 499.77,-85"/>
</g>
<!-- Node5 -->
<g id="node5" class="node">
<title>Node5</title>
<g id="a_node5"><a xlink:href="classdenoptim_1_1graph_1_1_vertex.html#a85aa901ec3fff8e566c0cc32d9c9f84e" target="_top" xlink:title=" ">
<polygon fill="white" stroke="black" points="685.5,-137.5 685.5,-167.5 813.5,-167.5 813.5,-137.5 685.5,-137.5"/>
<text text-anchor="start" x="693.5" y="-155.5" font-family="Helvetica,sans-Serif" font-size="10.00">denoptim.graph.Vertex.get</text>
<text text-anchor="middle" x="749.5" y="-144.5" font-family="Helvetica,sans-Serif" font-size="10.00">AttachmentPoints</text>
</a>
</g>
</g>
<!-- Node4&#45;&gt;Node5 -->
<g id="edge5" class="edge">
<title>Node4&#45;&gt;Node5</title>
<path fill="none" stroke="midnightblue" d="M604.01,-96.51C623.51,-106.3 649.95,-118.96 674,-128.5 678.77,-130.39 683.76,-132.25 688.79,-134.04"/>
<polygon fill="midnightblue" stroke="midnightblue" points="687.89,-137.43 698.49,-137.39 690.18,-130.81 687.89,-137.43"/>
</g>
<!-- Node6 -->
<g id="node6" class="node">
<title>Node6</title>
<g id="a_node6"><a xlink:href="classdenoptim_1_1graph_1_1_attachment_point.html#ac8551521d38644f5109800b665957ee9" target="_top" xlink:title=" ">
<polygon fill="white" stroke="black" points="682,-88.5 682,-118.5 817,-118.5 817,-88.5 682,-88.5"/>
<text text-anchor="start" x="690" y="-106.5" font-family="Helvetica,sans-Serif" font-size="10.00">denoptim.graph.Attachment</text>
<text text-anchor="middle" x="749.5" y="-95.5" font-family="Helvetica,sans-Serif" font-size="10.00">Point.getOwner</text>
</a>
</g>
</g>
<!-- Node4&#45;&gt;Node6 -->
<g id="edge6" class="edge">
<title>Node4&#45;&gt;Node6</title>
<path fill="none" stroke="midnightblue" d="M638.13,-89.5C649.03,-90.89 660.48,-92.34 671.7,-93.76"/>
<polygon fill="midnightblue" stroke="midnightblue" points="671.55,-97.27 681.91,-95.06 672.43,-90.33 671.55,-97.27"/>
</g>
<!-- Node7 -->
<g id="node7" class="node">
<title>Node7</title>
<g id="a_node7"><a xlink:href="classdenoptim_1_1graph_1_1_edge.html#a658e275a18a50f12474777f5f28c35e9" target="_top" xlink:title=" ">
<polygon fill="white" stroke="black" points="674,-50 674,-69 825,-69 825,-50 674,-50"/>
<text text-anchor="middle" x="749.5" y="-57" font-family="Helvetica,sans-Serif" font-size="10.00">denoptim.graph.Edge.getSrcAP</text>
</a>
</g>
</g>
<!-- Node4&#45;&gt;Node7 -->
<g id="edge7" class="edge">
<title>Node4&#45;&gt;Node7</title>
<path fill="none" stroke="midnightblue" d="M638.13,-73.5C646.49,-72.44 655.16,-71.34 663.8,-70.24"/>
<polygon fill="midnightblue" stroke="midnightblue" points="664.44,-73.69 673.92,-68.96 663.56,-66.74 664.44,-73.69"/>
</g>
<!-- Node8 -->
<g id="node8" class="node">
<title>Node8</title>
<g id="a_node8"><a xlink:href="classdenoptim_1_1graph_1_1_edge.html#a44521a3ad1a83e5d0a6be227e35ceffa" target="_top" xlink:title=" ">
<polygon fill="white" stroke="black" points="674.5,-12 674.5,-31 824.5,-31 824.5,-12 674.5,-12"/>
<text text-anchor="middle" x="749.5" y="-19" font-family="Helvetica,sans-Serif" font-size="10.00">denoptim.graph.Edge.getTrgAP</text>
</a>
</g>
</g>
<!-- Node4&#45;&gt;Node8 -->
<g id="edge8" class="edge">
<title>Node4&#45;&gt;Node8</title>
<path fill="none" stroke="midnightblue" d="M608,-66.44C627.04,-58.11 651.58,-47.96 674,-40.5 681.39,-38.04 689.28,-35.72 697.07,-33.59"/>
<polygon fill="midnightblue" stroke="midnightblue" points="698.05,-36.95 706.82,-31.01 696.26,-30.19 698.05,-36.95"/>
</g>
</g>
</svg>
