<?xml version="1.0" encoding="UTF-8" standalone="no"?>
<!DOCTYPE svg PUBLIC "-//W3C//DTD SVG 1.1//EN"
 "http://www.w3.org/Graphics/SVG/1.1/DTD/svg11.dtd">
<!-- Generated by graphviz version 3.0.0 (20221109.1736)
 -->
<!-- Title: denoptim.programs.combinatorial.CEBLParameters.getNumberOfCPU Pages: 1 -->
<svg width="400pt" height="50pt"
 viewBox="0.00 0.00 400.00 50.00" xmlns="http://www.w3.org/2000/svg" xmlns:xlink="http://www.w3.org/1999/xlink">
<g id="graph0" class="graph" transform="scale(1 1) rotate(0) translate(4 46)">
<title>denoptim.programs.combinatorial.CEBLParameters.getNumberOfCPU</title>
<polygon fill="white" stroke="transparent" points="-4,4 -4,-46 396,-46 396,4 -4,4"/>
<!-- Node1 -->
<g id="node1" class="node">
<title>Node1</title>
<g id="a_node1"><a xlink:title=" ">
<polygon fill="#bfbfbf" stroke="black" points="218,-6 218,-36 392,-36 392,-6 218,-6"/>
<text text-anchor="start" x="226" y="-24" font-family="Helvetica,sans-Serif" font-size="10.00">denoptim.programs.combinatorial.</text>
<text text-anchor="middle" x="305" y="-13" font-family="Helvetica,sans-Serif" font-size="10.00">CEBLParameters.getNumberOfCPU</text>
</a>
</g>
</g>
<!-- Node2 -->
<g id="node2" class="node">
<title>Node2</title>
<g id="a_node2"><a xlink:href="classdenoptim_1_1combinatorial_1_1_combinatorial_explorer_by_layer.html#a8f359a45038dc604a5e437d63a35e1a2" target="_top" xlink:title="Constructor.">
<polygon fill="white" stroke="black" points="0,-0.5 0,-41.5 182,-41.5 182,-0.5 0,-0.5"/>
<text text-anchor="start" x="8" y="-29.5" font-family="Helvetica,sans-Serif" font-size="10.00">denoptim.combinatorial.Combinatorial</text>
<text text-anchor="start" x="8" y="-18.5" font-family="Helvetica,sans-Serif" font-size="10.00">ExplorerByLayer.CombinatorialExplorer</text>
<text text-anchor="middle" x="91" y="-7.5" font-family="Helvetica,sans-Serif" font-size="10.00">ByLayer</text>
</a>
</g>
</g>
<!-- Node1&#45;&gt;Node2 -->
<g id="edge1" class="edge">
<title>Node1&#45;&gt;Node2</title>
<path fill="none" stroke="midnightblue" d="M207.56,-21C199.15,-21 190.65,-21 182.29,-21"/>
<polygon fill="midnightblue" stroke="midnightblue" points="207.77,-24.5 217.77,-21 207.77,-17.5 207.77,-24.5"/>
</g>
</g>
</svg>
