<?xml version="1.0" encoding="UTF-8" standalone="no"?>
<!DOCTYPE svg PUBLIC "-//W3C//DTD SVG 1.1//EN"
 "http://www.w3.org/Graphics/SVG/1.1/DTD/svg11.dtd">
<!-- Generated by graphviz version 3.0.0 (20221109.1736)
 -->
<!-- Title: denoptim.gui.GAParametersForm.putParametersToString Pages: 1 -->
<svg width="1160pt" height="335pt"
 viewBox="0.00 0.00 1160.00 335.00" xmlns="http://www.w3.org/2000/svg" xmlns:xlink="http://www.w3.org/1999/xlink">
<g id="graph0" class="graph" transform="scale(1 1) rotate(0) translate(4 331)">
<title>denoptim.gui.GAParametersForm.putParametersToString</title>
<polygon fill="white" stroke="transparent" points="-4,4 -4,-331 1156,-331 1156,4 -4,4"/>
<!-- Node1 -->
<g id="node1" class="node">
<title>Node1</title>
<g id="a_node1"><a xlink:title=" ">
<polygon fill="#bfbfbf" stroke="black" points="0,-198.5 0,-228.5 142,-228.5 142,-198.5 0,-198.5"/>
<text text-anchor="start" x="8" y="-216.5" font-family="Helvetica,sans-Serif" font-size="10.00">denoptim.gui.GAParameters</text>
<text text-anchor="middle" x="71" y="-205.5" font-family="Helvetica,sans-Serif" font-size="10.00">Form.putParametersToString</text>
</a>
</g>
</g>
<!-- Node2 -->
<g id="node2" class="node">
<title>Node2</title>
<g id="a_node2"><a xlink:href="classdenoptim_1_1gui_1_1_parameters_form.html#a583428b0188c8e00bec2ccbb460cf468" target="_top" xlink:title="Produced the KEY:VALUE string for a general spinner.">
<polygon fill="white" stroke="black" points="188,-296.5 188,-326.5 350,-326.5 350,-296.5 188,-296.5"/>
<text text-anchor="start" x="196" y="-314.5" font-family="Helvetica,sans-Serif" font-size="10.00">denoptim.gui.ParametersForm.get</text>
<text text-anchor="middle" x="269" y="-303.5" font-family="Helvetica,sans-Serif" font-size="10.00">StringForKVLine</text>
</a>
</g>
</g>
<!-- Node1&#45;&gt;Node2 -->
<g id="edge1" class="edge">
<title>Node1&#45;&gt;Node2</title>
<path fill="none" stroke="midnightblue" d="M89.56,-228.69C109.67,-245.35 144.21,-271.8 178,-287.5 182.27,-289.48 186.73,-291.32 191.28,-293.03"/>
<polygon fill="midnightblue" stroke="midnightblue" points="190.13,-296.34 200.72,-296.35 192.45,-289.73 190.13,-296.34"/>
</g>
<!-- Node3 -->
<g id="node3" class="node">
<title>Node3</title>
<g id="a_node3"><a xlink:href="classdenoptim_1_1gui_1_1_parameters_form.html#adba801c985eb2aa293c9dc1ce455fb63" target="_top" xlink:title="Produced the KEY:VALUE string for a general text field.">
<polygon fill="white" stroke="black" points="188,-247.5 188,-277.5 350,-277.5 350,-247.5 188,-247.5"/>
<text text-anchor="start" x="196" y="-265.5" font-family="Helvetica,sans-Serif" font-size="10.00">denoptim.gui.ParametersForm.get</text>
<text text-anchor="middle" x="269" y="-254.5" font-family="Helvetica,sans-Serif" font-size="10.00">StringIfNotEmpty</text>
</a>
</g>
</g>
<!-- Node1&#45;&gt;Node3 -->
<g id="edge2" class="edge">
<title>Node1&#45;&gt;Node3</title>
<path fill="none" stroke="midnightblue" d="M132.14,-228.53C153.02,-233.76 176.61,-239.65 198.21,-245.05"/>
<polygon fill="midnightblue" stroke="midnightblue" points="197.42,-248.46 207.98,-247.49 199.12,-241.67 197.42,-248.46"/>
</g>
<!-- Node4 -->
<g id="node4" class="node">
<title>Node4</title>
<g id="a_node4"><a xlink:href="classdenoptim_1_1gui_1_1_parameters_form.html#a8fe7e5b6db435de65b2629b0e175cc82" target="_top" xlink:title="Produced the KEY:VALUE string for a on/off button.">
<polygon fill="white" stroke="black" points="188,-198.5 188,-228.5 350,-228.5 350,-198.5 188,-198.5"/>
<text text-anchor="start" x="196" y="-216.5" font-family="Helvetica,sans-Serif" font-size="10.00">denoptim.gui.ParametersForm.get</text>
<text text-anchor="middle" x="269" y="-205.5" font-family="Helvetica,sans-Serif" font-size="10.00">StringIfSelected</text>
</a>
</g>
</g>
<!-- Node1&#45;&gt;Node4 -->
<g id="edge3" class="edge">
<title>Node1&#45;&gt;Node4</title>
<path fill="none" stroke="midnightblue" d="M142.21,-213.5C153.79,-213.5 165.94,-213.5 177.93,-213.5"/>
<polygon fill="midnightblue" stroke="midnightblue" points="177.95,-217 187.95,-213.5 177.95,-210 177.95,-217"/>
</g>
<!-- Node5 -->
<g id="node5" class="node">
<title>Node5</title>
<g id="a_node5"><a xlink:href="classdenoptim_1_1gui_1_1_parameters_form.html#a1879098dd089c42923a2ced5c837bbdf" target="_top" xlink:title=" ">
<polygon fill="white" stroke="black" points="188,-149.5 188,-179.5 350,-179.5 350,-149.5 188,-149.5"/>
<text text-anchor="start" x="196" y="-167.5" font-family="Helvetica,sans-Serif" font-size="10.00">denoptim.gui.ParametersForm.get</text>
<text text-anchor="middle" x="269" y="-156.5" font-family="Helvetica,sans-Serif" font-size="10.00">TextForUnformattedSettings</text>
</a>
</g>
</g>
<!-- Node1&#45;&gt;Node5 -->
<g id="edge4" class="edge">
<title>Node1&#45;&gt;Node5</title>
<path fill="none" stroke="midnightblue" d="M132.14,-198.47C153.02,-193.24 176.61,-187.35 198.21,-181.95"/>
<polygon fill="midnightblue" stroke="midnightblue" points="199.12,-185.33 207.98,-179.51 197.42,-178.54 199.12,-185.33"/>
</g>
<!-- Node6 -->
<g id="node6" class="node">
<title>Node6</title>
<g id="a_node6"><a xlink:href="classdenoptim_1_1gui_1_1_g_a_parameters_form.html#aee2a063d83a006a2cddb4b4af1af2673" target="_top" xlink:title="Imports parameters from a properly formatted parameters file.">
<polygon fill="white" stroke="black" points="178,-71 178,-112 360,-112 360,-71 178,-71"/>
<text text-anchor="start" x="186" y="-100" font-family="Helvetica,sans-Serif" font-size="10.00">denoptim.gui.GAParameters</text>
<text text-anchor="start" x="186" y="-89" font-family="Helvetica,sans-Serif" font-size="10.00">Form.importParametersFromDenoptim</text>
<text text-anchor="middle" x="269" y="-78" font-family="Helvetica,sans-Serif" font-size="10.00">ParamsFile</text>
</a>
</g>
</g>
<!-- Node1&#45;&gt;Node6 -->
<g id="edge5" class="edge">
<title>Node1&#45;&gt;Node6</title>
<path fill="none" stroke="midnightblue" d="M92.69,-198.3C113.75,-183.05 147.54,-159.21 178,-140.5 191.06,-132.48 205.51,-124.31 218.95,-117"/>
<polygon fill="midnightblue" stroke="midnightblue" points="220.92,-119.91 228.06,-112.09 217.6,-113.75 220.92,-119.91"/>
</g>
<!-- Node6&#45;&gt;Node6 -->
<g id="edge7" class="edge">
<title>Node6&#45;&gt;Node6</title>
<path fill="none" stroke="midnightblue" d="M232.61,-112.36C228.64,-122.04 240.77,-130.5 269,-130.5 286.64,-130.5 298,-127.2 303.06,-122.36"/>
<polygon fill="midnightblue" stroke="midnightblue" points="306.53,-122.9 305.39,-112.36 299.71,-121.31 306.53,-122.9"/>
</g>
<!-- Node7 -->
<g id="node7" class="node">
<title>Node7</title>
<g id="a_node7"><a xlink:href="classdenoptim_1_1gui_1_1_parameters_form.html#a32d73057266a7b76fdf463cbf4400547" target="_top" xlink:title=" ">
<polygon fill="white" stroke="black" points="397,-125.5 397,-155.5 567,-155.5 567,-125.5 397,-125.5"/>
<text text-anchor="start" x="405" y="-143.5" font-family="Helvetica,sans-Serif" font-size="10.00">denoptim.gui.ParametersForm.clear</text>
<text text-anchor="middle" x="482" y="-132.5" font-family="Helvetica,sans-Serif" font-size="10.00">UnformattedTxtArea</text>
</a>
</g>
</g>
<!-- Node6&#45;&gt;Node7 -->
<g id="edge6" class="edge">
<title>Node6&#45;&gt;Node7</title>
<path fill="none" stroke="midnightblue" d="M358.57,-112.07C374.48,-115.76 390.92,-119.58 406.39,-123.17"/>
<polygon fill="midnightblue" stroke="midnightblue" points="405.86,-126.64 416.4,-125.5 407.45,-119.83 405.86,-126.64"/>
</g>
<!-- Node8 -->
<g id="node8" class="node">
<title>Node8</title>
<g id="a_node8"><a xlink:href="classdenoptim_1_1gui_1_1_parameters_form.html#aa73e9df9398e76e8f146f8b70e4a468c" target="_top" xlink:title="Shown a warning dialog that informs the user about having found text that is not present in the Param...">
<polygon fill="white" stroke="black" points="396,-76.5 396,-106.5 568,-106.5 568,-76.5 396,-76.5"/>
<text text-anchor="start" x="404" y="-94.5" font-family="Helvetica,sans-Serif" font-size="10.00">denoptim.gui.ParametersForm.show</text>
<text text-anchor="middle" x="482" y="-83.5" font-family="Helvetica,sans-Serif" font-size="10.00">UnknownKeyWarning</text>
</a>
</g>
</g>
<!-- Node6&#45;&gt;Node8 -->
<g id="edge8" class="edge">
<title>Node6&#45;&gt;Node8</title>
<path fill="none" stroke="midnightblue" d="M360.1,-91.5C368.63,-91.5 377.3,-91.5 385.88,-91.5"/>
<polygon fill="midnightblue" stroke="midnightblue" points="385.89,-95 395.89,-91.5 385.89,-88 385.89,-95"/>
</g>
<!-- Node9 -->
<g id="node9" class="node">
<title>Node9</title>
<g id="a_node9"><a xlink:href="classdenoptim_1_1gui_1_1_g_a_parameters_form.html#a2e63957f5d08fb45f9a5fb3fbf5882a0" target="_top" xlink:title=" ">
<polygon fill="white" stroke="black" points="406,-27.5 406,-57.5 558,-57.5 558,-27.5 406,-27.5"/>
<text text-anchor="start" x="414" y="-45.5" font-family="Helvetica,sans-Serif" font-size="10.00">denoptim.gui.GAParameters</text>
<text text-anchor="middle" x="482" y="-34.5" font-family="Helvetica,sans-Serif" font-size="10.00">Form.updateCrowdProbDataset</text>
</a>
</g>
</g>
<!-- Node6&#45;&gt;Node9 -->
<g id="edge9" class="edge">
<title>Node6&#45;&gt;Node9</title>
<path fill="none" stroke="midnightblue" d="M358.57,-70.93C374.48,-67.24 390.92,-63.42 406.39,-59.83"/>
<polygon fill="midnightblue" stroke="midnightblue" points="407.45,-63.17 416.4,-57.5 405.86,-56.36 407.45,-63.17"/>
</g>
<!-- Node10 -->
<g id="node10" class="node">
<title>Node10</title>
<g id="a_node10"><a xlink:href="classdenoptim_1_1gui_1_1_g_a_parameters_form.html#a44e653526253cfea892611376a7fa3bb" target="_top" xlink:title=" ">
<polygon fill="white" stroke="black" points="604,-27.5 604,-57.5 754,-57.5 754,-27.5 604,-27.5"/>
<text text-anchor="start" x="612" y="-45.5" font-family="Helvetica,sans-Serif" font-size="10.00">denoptim.gui.GAParameters</text>
<text text-anchor="middle" x="679" y="-34.5" font-family="Helvetica,sans-Serif" font-size="10.00">Form.createCrowdProbDataset</text>
</a>
</g>
</g>
<!-- Node9&#45;&gt;Node10 -->
<g id="edge10" class="edge">
<title>Node9&#45;&gt;Node10</title>
<path fill="none" stroke="midnightblue" d="M558.11,-42.5C569.73,-42.5 581.8,-42.5 593.6,-42.5"/>
<polygon fill="midnightblue" stroke="midnightblue" points="593.89,-46 603.89,-42.5 593.89,-39 593.89,-46"/>
</g>
<!-- Node11 -->
<g id="node11" class="node">
<title>Node11</title>
<g id="a_node11"><a xlink:href="classdenoptim_1_1programs_1_1denovo_1_1_g_a_parameters.html#a4488a01992b7a7f2cda6f3aa7baa25ab" target="_top" xlink:title=" ">
<polygon fill="white" stroke="black" points="790,-49 790,-90 951,-90 951,-49 790,-49"/>
<text text-anchor="start" x="798" y="-78" font-family="Helvetica,sans-Serif" font-size="10.00">denoptim.programs.denovo.</text>
<text text-anchor="start" x="798" y="-67" font-family="Helvetica,sans-Serif" font-size="10.00">GAParameters.convertProbability</text>
<text text-anchor="middle" x="870.5" y="-56" font-family="Helvetica,sans-Serif" font-size="10.00">Scheme</text>
</a>
</g>
</g>
<!-- Node10&#45;&gt;Node11 -->
<g id="edge11" class="edge">
<title>Node10&#45;&gt;Node11</title>
<path fill="none" stroke="midnightblue" d="M754.08,-53.05C762.51,-54.26 771.17,-55.49 779.78,-56.72"/>
<polygon fill="midnightblue" stroke="midnightblue" points="779.44,-60.2 789.84,-58.15 780.43,-53.27 779.44,-60.2"/>
</g>
<!-- Node12 -->
<g id="node12" class="node">
<title>Node12</title>
<g id="a_node12"><a xlink:href="classdenoptim_1_1ga_1_1_e_a_utils.html#acf42fcadab45800cf712361cc025ffbb" target="_top" xlink:title="Calculated the crowding probability for a given level of crowdedness.">
<polygon fill="white" stroke="black" points="790,-0.5 790,-30.5 951,-30.5 951,-0.5 790,-0.5"/>
<text text-anchor="start" x="798" y="-18.5" font-family="Helvetica,sans-Serif" font-size="10.00">denoptim.ga.EAUtils.getCrowding</text>
<text text-anchor="middle" x="870.5" y="-7.5" font-family="Helvetica,sans-Serif" font-size="10.00">ProbabilityForCrowdedness</text>
</a>
</g>
</g>
<!-- Node10&#45;&gt;Node12 -->
<g id="edge12" class="edge">
<title>Node10&#45;&gt;Node12</title>
<path fill="none" stroke="midnightblue" d="M754.08,-31.95C762.51,-30.74 771.17,-29.51 779.78,-28.28"/>
<polygon fill="midnightblue" stroke="midnightblue" points="780.43,-31.73 789.84,-26.85 779.44,-24.8 780.43,-31.73"/>
</g>
<!-- Node13 -->
<g id="node13" class="node">
<title>Node13</title>
<g id="a_node13"><a xlink:href="classdenoptim_1_1ga_1_1_e_a_utils.html#a41e3b62363bfa04f372d094483eee83f" target="_top" xlink:title="Calculated a probability given parameters defining the shape of the probability function and a single...">
<polygon fill="white" stroke="black" points="987,-6 987,-25 1152,-25 1152,-6 987,-6"/>
<text text-anchor="middle" x="1069.5" y="-13" font-family="Helvetica,sans-Serif" font-size="10.00">denoptim.ga.EAUtils.getProbability</text>
</a>
</g>
</g>
<!-- Node12&#45;&gt;Node13 -->
<g id="edge13" class="edge">
<title>Node12&#45;&gt;Node13</title>
<path fill="none" stroke="midnightblue" d="M951.06,-15.5C959.5,-15.5 968.14,-15.5 976.71,-15.5"/>
<polygon fill="midnightblue" stroke="midnightblue" points="976.72,-19 986.72,-15.5 976.72,-12 976.72,-19"/>
</g>
</g>
</svg>
