<?xml version="1.0" encoding="UTF-8" standalone="no"?>
<!DOCTYPE svg PUBLIC "-//W3C//DTD SVG 1.1//EN"
 "http://www.w3.org/Graphics/SVG/1.1/DTD/svg11.dtd">
<!-- Generated by graphviz version 3.0.0 (20221109.1736)
 -->
<!-- Title: denoptim.fragmenter.ClusterableFragment.convertToPointArray Pages: 1 -->
<svg width="1140pt" height="339pt"
 viewBox="0.00 0.00 1140.00 339.28" xmlns="http://www.w3.org/2000/svg" xmlns:xlink="http://www.w3.org/1999/xlink">
<g id="graph0" class="graph" transform="scale(1 1) rotate(0) translate(4 335.28)">
<title>denoptim.fragmenter.ClusterableFragment.convertToPointArray</title>
<polygon fill="white" stroke="transparent" points="-4,4 -4,-335.28 1136,-335.28 1136,4 -4,4"/>
<!-- Node1 -->
<g id="node1" class="node">
<title>Node1</title>
<g id="a_node1"><a xlink:title="Converts an array of 3*N&#45;dimensional coordinates into an array of 3&#45;dimensional points assuming coord...">
<polygon fill="#bfbfbf" stroke="black" points="976,-136.78 976,-166.78 1132,-166.78 1132,-136.78 976,-136.78"/>
<text text-anchor="start" x="984" y="-154.78" font-family="Helvetica,sans-Serif" font-size="10.00">denoptim.fragmenter.Clusterable</text>
<text text-anchor="middle" x="1054" y="-143.78" font-family="Helvetica,sans-Serif" font-size="10.00">Fragment.convertToPointArray</text>
</a>
</g>
</g>
<!-- Node2 -->
<g id="node2" class="node">
<title>Node2</title>
<g id="a_node2"><a xlink:href="classdenoptim_1_1fragmenter_1_1_clusterable_fragment.html#a1e02c5f6054d5764ff597bd12337345a" target="_top" xlink:title=" ">
<polygon fill="white" stroke="black" points="599,-226.78 599,-256.78 755,-256.78 755,-226.78 599,-226.78"/>
<text text-anchor="start" x="607" y="-244.78" font-family="Helvetica,sans-Serif" font-size="10.00">denoptim.fragmenter.Clusterable</text>
<text text-anchor="middle" x="677" y="-233.78" font-family="Helvetica,sans-Serif" font-size="10.00">Fragment.getTransformedCopy</text>
</a>
</g>
</g>
<!-- Node1&#45;&gt;Node2 -->
<g id="edge1" class="edge">
<title>Node1&#45;&gt;Node2</title>
<path fill="none" stroke="midnightblue" d="M980.22,-169.25C910.6,-185.95 806.69,-210.89 740.66,-226.74"/>
<polygon fill="midnightblue" stroke="midnightblue" points="981.33,-172.58 990.23,-166.84 979.69,-165.77 981.33,-172.58"/>
</g>
<!-- Node6 -->
<g id="node6" class="node">
<title>Node6</title>
<g id="a_node6"><a xlink:href="classdenoptim_1_1fragmenter_1_1_fragment_clusterer_test.html#aa17925160f3f03080e8680c7016fc1c4" target="_top" xlink:title=" ">
<polygon fill="white" stroke="black" points="187.5,-102.78 187.5,-132.78 336.5,-132.78 336.5,-102.78 187.5,-102.78"/>
<text text-anchor="start" x="195.5" y="-120.78" font-family="Helvetica,sans-Serif" font-size="10.00">denoptim.fragmenter.Fragment</text>
<text text-anchor="middle" x="262" y="-109.78" font-family="Helvetica,sans-Serif" font-size="10.00">ClustererTest.testCluster</text>
</a>
</g>
</g>
<!-- Node1&#45;&gt;Node6 -->
<g id="edge20" class="edge">
<title>Node1&#45;&gt;Node6</title>
<path fill="none" stroke="midnightblue" d="M1003.39,-133.31C915.94,-101.84 727.98,-39.09 563,-16.78 479.76,-5.52 452.34,13.53 374,-16.78 329.29,-34.07 291.51,-78.68 273.79,-102.41"/>
<polygon fill="midnightblue" stroke="midnightblue" points="1002.2,-136.6 1012.8,-136.71 1004.58,-130.02 1002.2,-136.6"/>
</g>
<!-- Node9 -->
<g id="node9" class="node">
<title>Node9</title>
<g id="a_node9"><a xlink:href="classdenoptim_1_1fragmenter_1_1_fragment_clusterer.html#a726885b85d9bce4b147f273a1f9e92f4" target="_top" xlink:title=" ">
<polygon fill="white" stroke="black" points="791,-136.78 791,-166.78 940,-166.78 940,-136.78 791,-136.78"/>
<text text-anchor="start" x="799" y="-154.78" font-family="Helvetica,sans-Serif" font-size="10.00">denoptim.fragmenter.Fragment</text>
<text text-anchor="middle" x="865.5" y="-143.78" font-family="Helvetica,sans-Serif" font-size="10.00">Clusterer.mergeClusters</text>
</a>
</g>
</g>
<!-- Node1&#45;&gt;Node9 -->
<g id="edge9" class="edge">
<title>Node1&#45;&gt;Node9</title>
<path fill="none" stroke="midnightblue" d="M965.75,-151.78C957.16,-151.78 948.49,-151.78 940.05,-151.78"/>
<polygon fill="midnightblue" stroke="midnightblue" points="965.8,-155.28 975.8,-151.78 965.8,-148.28 965.8,-155.28"/>
</g>
<!-- Node3 -->
<g id="node3" class="node">
<title>Node3</title>
<g id="a_node3"><a xlink:href="classdenoptim_1_1fragmenter_1_1_fragment_clusterer.html#a1845241fead0bee7fd92feaf6d71e331" target="_top" xlink:title="Once the clustering is done, this method return the list of cluster centroids.">
<polygon fill="white" stroke="black" points="394,-202.78 394,-232.78 543,-232.78 543,-202.78 394,-202.78"/>
<text text-anchor="start" x="402" y="-220.78" font-family="Helvetica,sans-Serif" font-size="10.00">denoptim.fragmenter.Fragment</text>
<text text-anchor="middle" x="468.5" y="-209.78" font-family="Helvetica,sans-Serif" font-size="10.00">Clusterer.getClusterCentroids</text>
</a>
</g>
</g>
<!-- Node2&#45;&gt;Node3 -->
<g id="edge2" class="edge">
<title>Node2&#45;&gt;Node3</title>
<path fill="none" stroke="midnightblue" d="M588.46,-231.6C573.38,-229.85 557.84,-228.04 543.17,-226.34"/>
<polygon fill="midnightblue" stroke="midnightblue" points="588.48,-235.13 598.81,-232.81 589.28,-228.18 588.48,-235.13"/>
</g>
<!-- Node7 -->
<g id="node7" class="node">
<title>Node7</title>
<g id="a_node7"><a xlink:href="classdenoptim_1_1fragmenter_1_1_fragment_clusterer.html#aae37739ae959ab8a85bf01286c5a518e" target="_top" xlink:title="Once the clustering is done, this method return the list of fragments that are nearest to the respect...">
<polygon fill="white" stroke="black" points="374,-251.78 374,-281.78 563,-281.78 563,-251.78 374,-251.78"/>
<text text-anchor="start" x="382" y="-269.78" font-family="Helvetica,sans-Serif" font-size="10.00">denoptim.fragmenter.Fragment</text>
<text text-anchor="middle" x="468.5" y="-258.78" font-family="Helvetica,sans-Serif" font-size="10.00">Clusterer.getNearestToClusterCentroids</text>
</a>
</g>
</g>
<!-- Node2&#45;&gt;Node7 -->
<g id="edge6" class="edge">
<title>Node2&#45;&gt;Node7</title>
<path fill="none" stroke="midnightblue" d="M588.68,-252.35C580.3,-253.36 571.77,-254.4 563.34,-255.42"/>
<polygon fill="midnightblue" stroke="midnightblue" points="589.31,-255.8 598.81,-251.12 588.47,-248.85 589.31,-255.8"/>
</g>
<!-- Node8 -->
<g id="node8" class="node">
<title>Node8</title>
<g id="a_node8"><a xlink:href="classdenoptim_1_1fragmenter_1_1_clusterable_fragment_test.html#a30be40702849bf4781129bf3dabf88e8" target="_top" xlink:title=" ">
<polygon fill="white" stroke="black" points="374.5,-300.78 374.5,-330.78 562.5,-330.78 562.5,-300.78 374.5,-300.78"/>
<text text-anchor="start" x="382.5" y="-318.78" font-family="Helvetica,sans-Serif" font-size="10.00">denoptim.fragmenter.Clusterable</text>
<text text-anchor="middle" x="468.5" y="-307.78" font-family="Helvetica,sans-Serif" font-size="10.00">FragmentTest.testGetTransformedCopy</text>
</a>
</g>
</g>
<!-- Node2&#45;&gt;Node8 -->
<g id="edge8" class="edge">
<title>Node2&#45;&gt;Node8</title>
<path fill="none" stroke="midnightblue" d="M636.29,-261.28C614.91,-271.28 587.89,-283.14 563,-291.78 553.66,-295.02 543.66,-298.04 533.79,-300.77"/>
<polygon fill="midnightblue" stroke="midnightblue" points="637.84,-264.42 645.38,-256.98 634.84,-258.09 637.84,-264.42"/>
</g>
<!-- Node4 -->
<g id="node4" class="node">
<title>Node4</title>
<g id="a_node4"><a xlink:href="classdenoptim_1_1fragmenter_1_1_conformer_extractor_task.html#aa21ebdf147f5bdb2685f9e775efd0b10" target="_top" xlink:title=" ">
<polygon fill="white" stroke="black" points="186,-170.78 186,-200.78 338,-200.78 338,-170.78 186,-170.78"/>
<text text-anchor="start" x="194" y="-188.78" font-family="Helvetica,sans-Serif" font-size="10.00">denoptim.fragmenter.Conformer</text>
<text text-anchor="middle" x="262" y="-177.78" font-family="Helvetica,sans-Serif" font-size="10.00">ExtractorTask.call</text>
</a>
</g>
</g>
<!-- Node3&#45;&gt;Node4 -->
<g id="edge3" class="edge">
<title>Node3&#45;&gt;Node4</title>
<path fill="none" stroke="midnightblue" d="M383.66,-204.66C368.64,-202.31 353.06,-199.87 338.3,-197.56"/>
<polygon fill="midnightblue" stroke="midnightblue" points="383.54,-208.18 393.96,-206.27 384.62,-201.27 383.54,-208.18"/>
</g>
<!-- Node3&#45;&gt;Node6 -->
<g id="edge5" class="edge">
<title>Node3&#45;&gt;Node6</title>
<path fill="none" stroke="midnightblue" d="M427.41,-198.17C388.19,-179 329.31,-150.2 293.68,-132.78"/>
<polygon fill="midnightblue" stroke="midnightblue" points="425.92,-201.34 436.44,-202.59 428.99,-195.05 425.92,-201.34"/>
</g>
<!-- Node5 -->
<g id="node5" class="node">
<title>Node5</title>
<g id="a_node5"><a xlink:href="classdenoptim_1_1programs_1_1fragmenter_1_1_fragmenter.html#aa27df9705e3aed34cc8cb8bc05e6ce85" target="_top" xlink:title=" ">
<polygon fill="white" stroke="black" points="0,-170.78 0,-200.78 150,-200.78 150,-170.78 0,-170.78"/>
<text text-anchor="start" x="8" y="-188.78" font-family="Helvetica,sans-Serif" font-size="10.00">denoptim.programs.fragmenter.</text>
<text text-anchor="middle" x="75" y="-177.78" font-family="Helvetica,sans-Serif" font-size="10.00">Fragmenter.runProgram</text>
</a>
</g>
</g>
<!-- Node4&#45;&gt;Node5 -->
<g id="edge4" class="edge">
<title>Node4&#45;&gt;Node5</title>
<path fill="none" stroke="midnightblue" d="M175.53,-185.78C167.1,-185.78 158.59,-185.78 150.28,-185.78"/>
<polygon fill="midnightblue" stroke="midnightblue" points="175.75,-189.28 185.75,-185.78 175.75,-182.28 175.75,-189.28"/>
</g>
<!-- Node7&#45;&gt;Node4 -->
<g id="edge7" class="edge">
<title>Node7&#45;&gt;Node4</title>
<path fill="none" stroke="midnightblue" d="M391.3,-248.74C385.4,-246.88 379.57,-244.89 374,-242.78 343.42,-231.17 310.29,-213.42 288.27,-200.82"/>
<polygon fill="midnightblue" stroke="midnightblue" points="390.7,-252.21 401.28,-251.75 392.71,-245.51 390.7,-252.21"/>
</g>
<!-- Node10 -->
<g id="node10" class="node">
<title>Node10</title>
<g id="a_node10"><a xlink:href="classdenoptim_1_1fragmenter_1_1_fragment_clusterer.html#a635a9135bdb762deafd03ff2913ca74c" target="_top" xlink:title="Runs the clustering algorithm:">
<polygon fill="white" stroke="black" points="602.5,-136.78 602.5,-166.78 751.5,-166.78 751.5,-136.78 602.5,-136.78"/>
<text text-anchor="start" x="610.5" y="-154.78" font-family="Helvetica,sans-Serif" font-size="10.00">denoptim.fragmenter.Fragment</text>
<text text-anchor="middle" x="677" y="-143.78" font-family="Helvetica,sans-Serif" font-size="10.00">Clusterer.cluster</text>
</a>
</g>
</g>
<!-- Node9&#45;&gt;Node10 -->
<g id="edge10" class="edge">
<title>Node9&#45;&gt;Node10</title>
<path fill="none" stroke="midnightblue" d="M780.78,-151.78C771.11,-151.78 761.31,-151.78 751.79,-151.78"/>
<polygon fill="midnightblue" stroke="midnightblue" points="780.79,-155.28 790.79,-151.78 780.79,-148.28 780.79,-155.28"/>
</g>
<!-- Node10&#45;&gt;Node3 -->
<g id="edge13" class="edge">
<title>Node10&#45;&gt;Node3</title>
<path fill="none" stroke="midnightblue" d="M619.16,-169.94C586.99,-180.23 547.22,-192.94 516.77,-202.67"/>
<polygon fill="midnightblue" stroke="midnightblue" points="620.42,-173.21 628.88,-166.84 618.29,-166.55 620.42,-173.21"/>
</g>
<!-- Node10&#45;&gt;Node4 -->
<g id="edge11" class="edge">
<title>Node10&#45;&gt;Node4</title>
<path fill="none" stroke="midnightblue" d="M591.89,-158.7C517.49,-164.83 409.91,-173.68 338.29,-179.58"/>
<polygon fill="midnightblue" stroke="midnightblue" points="592.48,-162.16 602.16,-157.86 591.91,-155.19 592.48,-162.16"/>
</g>
<!-- Node10&#45;&gt;Node6 -->
<g id="edge18" class="edge">
<title>Node10&#45;&gt;Node6</title>
<path fill="none" stroke="midnightblue" d="M638.6,-132.28C617.11,-122.18 589.26,-110.92 563,-105.78 486.91,-90.88 397.96,-97.35 336.78,-105.38"/>
<polygon fill="midnightblue" stroke="midnightblue" points="637.16,-135.47 647.69,-136.66 640.2,-129.17 637.16,-135.47"/>
</g>
<!-- Node10&#45;&gt;Node7 -->
<g id="edge14" class="edge">
<title>Node10&#45;&gt;Node7</title>
<path fill="none" stroke="midnightblue" d="M651.57,-173.51C624.4,-197.3 581.86,-233.33 563,-242.78 556.26,-246.16 549,-249.09 541.61,-251.63"/>
<polygon fill="midnightblue" stroke="midnightblue" points="653.93,-176.09 659.13,-166.86 649.31,-170.84 653.93,-176.09"/>
</g>
<!-- Node10&#45;&gt;Node10 -->
<g id="edge12" class="edge">
<title>Node10&#45;&gt;Node10</title>
<path fill="none" stroke="midnightblue" d="M710.41,-177.24C706.26,-181.96 695.12,-185.28 677,-185.28 647.26,-185.28 636.34,-176.33 644.24,-166.94"/>
<polygon fill="midnightblue" stroke="midnightblue" points="713.88,-176.7 709.76,-166.94 706.89,-177.14 713.88,-176.7"/>
</g>
<!-- Node11 -->
<g id="node11" class="node">
<title>Node11</title>
<g id="a_node11"><a xlink:href="classdenoptim_1_1fragmenter_1_1_fragment_clusterer.html#afa43e74f7825a3f2cc22f11430bf5862" target="_top" xlink:title="Once the clustering is done, this method return the list of clusters.">
<polygon fill="white" stroke="black" points="387.5,-114.78 387.5,-144.78 549.5,-144.78 549.5,-114.78 387.5,-114.78"/>
<text text-anchor="start" x="395.5" y="-132.78" font-family="Helvetica,sans-Serif" font-size="10.00">denoptim.fragmenter.Fragment</text>
<text text-anchor="middle" x="468.5" y="-121.78" font-family="Helvetica,sans-Serif" font-size="10.00">Clusterer.getTransformedClusters</text>
</a>
</g>
</g>
<!-- Node10&#45;&gt;Node11 -->
<g id="edge15" class="edge">
<title>Node10&#45;&gt;Node11</title>
<path fill="none" stroke="midnightblue" d="M592.23,-142.85C578.22,-141.36 563.72,-139.82 549.8,-138.33"/>
<polygon fill="midnightblue" stroke="midnightblue" points="592.01,-146.35 602.32,-143.93 592.75,-139.39 592.01,-146.35"/>
</g>
<!-- Node12 -->
<g id="node12" class="node">
<title>Node12</title>
<g id="a_node12"><a xlink:href="classdenoptim_1_1fragmenter_1_1_fragment_clusterer_test.html#acb2fe702b9d02d39a38ca1cc732c9ee4" target="_top" xlink:title=" ">
<polygon fill="white" stroke="black" points="394,-26.78 394,-56.78 543,-56.78 543,-26.78 394,-26.78"/>
<text text-anchor="start" x="402" y="-44.78" font-family="Helvetica,sans-Serif" font-size="10.00">denoptim.fragmenter.Fragment</text>
<text text-anchor="middle" x="468.5" y="-33.78" font-family="Helvetica,sans-Serif" font-size="10.00">ClustererTest.testCluster2</text>
</a>
</g>
</g>
<!-- Node10&#45;&gt;Node12 -->
<g id="edge19" class="edge">
<title>Node10&#45;&gt;Node12</title>
<path fill="none" stroke="midnightblue" d="M650.45,-130.22C628.44,-112.54 595.22,-87.87 563,-71.78 551.41,-65.99 538.46,-60.99 525.98,-56.83"/>
<polygon fill="midnightblue" stroke="midnightblue" points="648.35,-133.03 658.31,-136.63 652.77,-127.6 648.35,-133.03"/>
</g>
<!-- Node11&#45;&gt;Node4 -->
<g id="edge16" class="edge">
<title>Node11&#45;&gt;Node4</title>
<path fill="none" stroke="midnightblue" d="M402.85,-147.48C375.55,-154.96 344.11,-163.57 317.95,-170.73"/>
<polygon fill="midnightblue" stroke="midnightblue" points="403.98,-150.8 412.7,-144.78 402.13,-144.05 403.98,-150.8"/>
</g>
<!-- Node11&#45;&gt;Node6 -->
<g id="edge17" class="edge">
<title>Node11&#45;&gt;Node6</title>
<path fill="none" stroke="midnightblue" d="M377.02,-124.47C363.53,-123.68 349.76,-122.87 336.67,-122.1"/>
<polygon fill="midnightblue" stroke="midnightblue" points="377.08,-127.98 387.26,-125.07 377.49,-120.99 377.08,-127.98"/>
</g>
</g>
</svg>
