<?xml version="1.0" encoding="UTF-8" standalone="no"?>
<!DOCTYPE svg PUBLIC "-//W3C//DTD SVG 1.1//EN"
 "http://www.w3.org/Graphics/SVG/1.1/DTD/svg11.dtd">
<!-- Generated by graphviz version 3.0.0 (20221109.1736)
 -->
<!-- Title: denoptim.fragspace.FragmentSpace.setFragmentLibrary Pages: 1 -->
<svg width="515pt" height="39pt"
 viewBox="0.00 0.00 515.00 39.00" xmlns="http://www.w3.org/2000/svg" xmlns:xlink="http://www.w3.org/1999/xlink">
<g id="graph0" class="graph" transform="scale(1 1) rotate(0) translate(4 35)">
<title>denoptim.fragspace.FragmentSpace.setFragmentLibrary</title>
<polygon fill="white" stroke="transparent" points="-4,4 -4,-35 511,-35 511,4 -4,4"/>
<!-- Node1 -->
<g id="node1" class="node">
<title>Node1</title>
<g id="a_node1"><a xlink:title=" ">
<polygon fill="#bfbfbf" stroke="black" points="362,-0.5 362,-30.5 507,-30.5 507,-0.5 362,-0.5"/>
<text text-anchor="start" x="370" y="-18.5" font-family="Helvetica,sans-Serif" font-size="10.00">denoptim.fragspace.Fragment</text>
<text text-anchor="middle" x="434.5" y="-7.5" font-family="Helvetica,sans-Serif" font-size="10.00">Space.setFragmentLibrary</text>
</a>
</g>
</g>
<!-- Node2 -->
<g id="node2" class="node">
<title>Node2</title>
<g id="a_node2"><a xlink:href="classdenoptim_1_1fragspace_1_1_fragment_space.html#a4792b534137a7989aab4ab2237d12438" target="_top" xlink:title="Define all components of this fragment space.">
<polygon fill="white" stroke="black" points="181,-0.5 181,-30.5 326,-30.5 326,-0.5 181,-0.5"/>
<text text-anchor="start" x="189" y="-18.5" font-family="Helvetica,sans-Serif" font-size="10.00">denoptim.fragspace.Fragment</text>
<text text-anchor="middle" x="253.5" y="-7.5" font-family="Helvetica,sans-Serif" font-size="10.00">Space.define</text>
</a>
</g>
</g>
<!-- Node1&#45;&gt;Node2 -->
<g id="edge1" class="edge">
<title>Node1&#45;&gt;Node2</title>
<path fill="none" stroke="midnightblue" d="M351.96,-15.5C343.36,-15.5 334.67,-15.5 326.2,-15.5"/>
<polygon fill="midnightblue" stroke="midnightblue" points="351.98,-19 361.98,-15.5 351.98,-12 351.98,-19"/>
</g>
<!-- Node3 -->
<g id="node3" class="node">
<title>Node3</title>
<g id="a_node3"><a xlink:href="classdenoptim_1_1fragspace_1_1_fragment_space.html#ad10ece408a10dbb06fa5d75747ae1fbb" target="_top" xlink:title="Define all components of a fragment space that implements the attachment point class&#45;approach.">
<polygon fill="white" stroke="black" points="0,-0.5 0,-30.5 145,-30.5 145,-0.5 0,-0.5"/>
<text text-anchor="start" x="8" y="-18.5" font-family="Helvetica,sans-Serif" font-size="10.00">denoptim.fragspace.Fragment</text>
<text text-anchor="middle" x="72.5" y="-7.5" font-family="Helvetica,sans-Serif" font-size="10.00">Space.FragmentSpace</text>
</a>
</g>
</g>
<!-- Node2&#45;&gt;Node3 -->
<g id="edge2" class="edge">
<title>Node2&#45;&gt;Node3</title>
<path fill="none" stroke="midnightblue" d="M170.96,-15.5C162.36,-15.5 153.67,-15.5 145.2,-15.5"/>
<polygon fill="midnightblue" stroke="midnightblue" points="170.98,-19 180.98,-15.5 170.98,-12 170.98,-19"/>
</g>
</g>
</svg>
