<?xml version="1.0" encoding="UTF-8" standalone="no"?>
<!DOCTYPE svg PUBLIC "-//W3C//DTD SVG 1.1//EN"
 "http://www.w3.org/Graphics/SVG/1.1/DTD/svg11.dtd">
<!-- Generated by graphviz version 3.0.0 (20221109.1736)
 -->
<!-- Title: denoptim.gui.CompatibilityMatrixForm.CompatibilityRuleLine.CompatibilityRuleLine Pages: 1 -->
<svg width="761pt" height="232pt"
 viewBox="0.00 0.00 761.00 231.50" xmlns="http://www.w3.org/2000/svg" xmlns:xlink="http://www.w3.org/1999/xlink">
<g id="graph0" class="graph" transform="scale(1 1) rotate(0) translate(4 227.5)">
<title>denoptim.gui.CompatibilityMatrixForm.CompatibilityRuleLine.CompatibilityRuleLine</title>
<polygon fill="white" stroke="transparent" points="-4,4 -4,-227.5 757,-227.5 757,4 -4,4"/>
<!-- Node1 -->
<g id="node1" class="node">
<title>Node1</title>
<g id="a_node1"><a xlink:title=" ">
<polygon fill="#bfbfbf" stroke="black" points="0,-93 0,-134 164,-134 164,-93 0,-93"/>
<text text-anchor="start" x="8" y="-122" font-family="Helvetica,sans-Serif" font-size="10.00">denoptim.gui.Compatibility</text>
<text text-anchor="start" x="8" y="-111" font-family="Helvetica,sans-Serif" font-size="10.00">MatrixForm.CompatibilityRuleLine.</text>
<text text-anchor="middle" x="82" y="-100" font-family="Helvetica,sans-Serif" font-size="10.00">CompatibilityRuleLine</text>
</a>
</g>
</g>
<!-- Node2 -->
<g id="node2" class="node">
<title>Node2</title>
<g id="a_node2"><a xlink:href="classdenoptim_1_1graph_1_1_a_p_class.html#a1ea31fa5b2bb97bec91eeb351c652474" target="_top" xlink:title=" ">
<polygon fill="white" stroke="black" points="228.5,-204 228.5,-223 386.5,-223 386.5,-204 228.5,-204"/>
<text text-anchor="middle" x="307.5" y="-211" font-family="Helvetica,sans-Serif" font-size="10.00">denoptim.graph.APClass.getRule</text>
</a>
</g>
</g>
<!-- Node1&#45;&gt;Node2 -->
<g id="edge1" class="edge">
<title>Node1&#45;&gt;Node2</title>
<path fill="none" stroke="midnightblue" d="M106.3,-134.2C128.72,-152.95 164.37,-179.81 200,-194.5 206.36,-197.12 213.08,-199.38 219.92,-201.33"/>
<polygon fill="midnightblue" stroke="midnightblue" points="219.45,-204.83 230.01,-203.97 221.22,-198.05 219.45,-204.83"/>
</g>
<!-- Node3 -->
<g id="node3" class="node">
<title>Node3</title>
<g id="a_node3"><a xlink:href="classdenoptim_1_1graph_1_1_a_p_class.html#ac957566ebf8db3b83713ed0c12a56a3f" target="_top" xlink:title="Creates an APClass if it does not exist already, or returns the reference to the existing instance.">
<polygon fill="white" stroke="black" points="233,-148 233,-167 382,-167 382,-148 233,-148"/>
<text text-anchor="middle" x="307.5" y="-155" font-family="Helvetica,sans-Serif" font-size="10.00">denoptim.graph.APClass.make</text>
</a>
</g>
</g>
<!-- Node1&#45;&gt;Node3 -->
<g id="edge2" class="edge">
<title>Node1&#45;&gt;Node3</title>
<path fill="none" stroke="midnightblue" d="M164.12,-131.21C176.14,-133.72 188.38,-136.22 200,-138.5 213.22,-141.09 227.39,-143.72 240.94,-146.17"/>
<polygon fill="midnightblue" stroke="midnightblue" points="240.7,-149.68 251.16,-147.99 241.93,-142.79 240.7,-149.68"/>
</g>
<!-- Node7 -->
<g id="node7" class="node">
<title>Node7</title>
<g id="a_node7"><a xlink:href="classdenoptim_1_1gui_1_1_g_u_i_modal_dialog.html#aaa04536e178fdfa5bad92cdc1fcc4583" target="_top" xlink:title="Shows the dialog and restrains the modality to it, until the dialog gets closed.">
<polygon fill="white" stroke="black" points="222.5,-98.5 222.5,-128.5 392.5,-128.5 392.5,-98.5 222.5,-98.5"/>
<text text-anchor="start" x="230.5" y="-116.5" font-family="Helvetica,sans-Serif" font-size="10.00">denoptim.gui.GUIModalDialog.show</text>
<text text-anchor="middle" x="307.5" y="-105.5" font-family="Helvetica,sans-Serif" font-size="10.00">Dialog</text>
</a>
</g>
</g>
<!-- Node1&#45;&gt;Node7 -->
<g id="edge7" class="edge">
<title>Node1&#45;&gt;Node7</title>
<path fill="none" stroke="midnightblue" d="M164,-113.5C179.58,-113.5 196.02,-113.5 211.98,-113.5"/>
<polygon fill="midnightblue" stroke="midnightblue" points="212.39,-117 222.39,-113.5 212.39,-110 212.39,-117"/>
</g>
<!-- Node8 -->
<g id="node8" class="node">
<title>Node8</title>
<g id="a_node8"><a xlink:href="classdenoptim_1_1graph_1_1_a_p_class.html#ac33a29894453a78896488fa441fcbd85" target="_top" xlink:title="Do not use this to make SDF representations.">
<polygon fill="white" stroke="black" points="240.5,-49.5 240.5,-79.5 374.5,-79.5 374.5,-49.5 240.5,-49.5"/>
<text text-anchor="start" x="248.5" y="-67.5" font-family="Helvetica,sans-Serif" font-size="10.00">denoptim.graph.APClass.to</text>
<text text-anchor="middle" x="307.5" y="-56.5" font-family="Helvetica,sans-Serif" font-size="10.00">String</text>
</a>
</g>
</g>
<!-- Node1&#45;&gt;Node8 -->
<g id="edge8" class="edge">
<title>Node1&#45;&gt;Node8</title>
<path fill="none" stroke="midnightblue" d="M164,-95.74C185.68,-90.99 209.03,-85.87 230.43,-81.18"/>
<polygon fill="midnightblue" stroke="midnightblue" points="231.42,-84.54 240.44,-78.98 229.92,-77.71 231.42,-84.54"/>
</g>
<!-- Node9 -->
<g id="node9" class="node">
<title>Node9</title>
<g id="a_node9"><a xlink:href="classdenoptim_1_1gui_1_1_compatibility_matrix_form.html#aa2164c46be451878033d11e206e92c05" target="_top" xlink:title=" ">
<polygon fill="white" stroke="black" points="200,-0.5 200,-30.5 415,-30.5 415,-0.5 200,-0.5"/>
<text text-anchor="start" x="208" y="-18.5" font-family="Helvetica,sans-Serif" font-size="10.00">denoptim.gui.Compatibility</text>
<text text-anchor="middle" x="307.5" y="-7.5" font-family="Helvetica,sans-Serif" font-size="10.00">MatrixForm.updateAPClassCompatibilitiesList</text>
</a>
</g>
</g>
<!-- Node1&#45;&gt;Node9 -->
<g id="edge9" class="edge">
<title>Node1&#45;&gt;Node9</title>
<path fill="none" stroke="midnightblue" d="M110.43,-92.75C133.29,-76.38 167.28,-54.11 200,-40.5 206.19,-37.93 212.69,-35.59 219.3,-33.47"/>
<polygon fill="midnightblue" stroke="midnightblue" points="220.5,-36.76 229.05,-30.52 218.47,-30.07 220.5,-36.76"/>
</g>
<!-- Node3&#45;&gt;Node3 -->
<g id="edge6" class="edge">
<title>Node3&#45;&gt;Node3</title>
<path fill="none" stroke="midnightblue" d="M275.39,-167.11C259.27,-175.96 269.97,-185.5 307.5,-185.5 335.06,-185.5 348.15,-180.36 346.78,-174.12"/>
<polygon fill="midnightblue" stroke="midnightblue" points="349.2,-171.6 339.61,-167.11 344.31,-176.6 349.2,-171.6"/>
</g>
<!-- Node4 -->
<g id="node4" class="node">
<title>Node4</title>
<g id="a_node4"><a xlink:href="classdenoptim_1_1graph_1_1_a_p_class.html#a6981e4878a844276c416f5cd31a80b66" target="_top" xlink:title="Evaluate is a candidate string can be used as APClass.">
<polygon fill="white" stroke="black" points="451,-142.5 451,-172.5 584,-172.5 584,-142.5 451,-142.5"/>
<text text-anchor="start" x="459" y="-160.5" font-family="Helvetica,sans-Serif" font-size="10.00">denoptim.graph.APClass.is</text>
<text text-anchor="middle" x="517.5" y="-149.5" font-family="Helvetica,sans-Serif" font-size="10.00">ValidAPClassString</text>
</a>
</g>
</g>
<!-- Node3&#45;&gt;Node4 -->
<g id="edge3" class="edge">
<title>Node3&#45;&gt;Node4</title>
<path fill="none" stroke="midnightblue" d="M382.13,-157.5C401.15,-157.5 421.65,-157.5 440.78,-157.5"/>
<polygon fill="midnightblue" stroke="midnightblue" points="440.94,-161 450.94,-157.5 440.94,-154 440.94,-161"/>
</g>
<!-- Node5 -->
<g id="node5" class="node">
<title>Node5</title>
<g id="a_node5"><a xlink:href="classdenoptim_1_1graph_1_1_a_p_class.html#a6ce0fb88cd79a6e154d889496c88455b" target="_top" xlink:title="Evaluates the given string as a candidate attachment point rule, i.e., as name of a fragmentation rul...">
<polygon fill="white" stroke="black" points="620,-167.5 620,-197.5 753,-197.5 753,-167.5 620,-167.5"/>
<text text-anchor="start" x="628" y="-185.5" font-family="Helvetica,sans-Serif" font-size="10.00">denoptim.graph.APClass.is</text>
<text text-anchor="middle" x="686.5" y="-174.5" font-family="Helvetica,sans-Serif" font-size="10.00">ValidAPRuleString</text>
</a>
</g>
</g>
<!-- Node4&#45;&gt;Node5 -->
<g id="edge4" class="edge">
<title>Node4&#45;&gt;Node5</title>
<path fill="none" stroke="midnightblue" d="M584.02,-167.31C592.5,-168.58 601.23,-169.88 609.85,-171.17"/>
<polygon fill="midnightblue" stroke="midnightblue" points="609.48,-174.66 619.89,-172.68 610.52,-167.74 609.48,-174.66"/>
</g>
<!-- Node6 -->
<g id="node6" class="node">
<title>Node6</title>
<g id="a_node6"><a xlink:href="classdenoptim_1_1graph_1_1_a_p_class.html#ac13faa6d99c5b9c3f89a42f00f4744ea" target="_top" xlink:title="Evaluate the given string as a candidate for attachment point subclass, i.e., the attachment point cl...">
<polygon fill="white" stroke="black" points="620,-118.5 620,-148.5 753,-148.5 753,-118.5 620,-118.5"/>
<text text-anchor="start" x="628" y="-136.5" font-family="Helvetica,sans-Serif" font-size="10.00">denoptim.graph.APClass.is</text>
<text text-anchor="middle" x="686.5" y="-125.5" font-family="Helvetica,sans-Serif" font-size="10.00">ValidAPSubCLassString</text>
</a>
</g>
</g>
<!-- Node4&#45;&gt;Node6 -->
<g id="edge5" class="edge">
<title>Node4&#45;&gt;Node6</title>
<path fill="none" stroke="midnightblue" d="M584.02,-148.08C592.5,-146.87 601.23,-145.61 609.85,-144.37"/>
<polygon fill="midnightblue" stroke="midnightblue" points="610.49,-147.82 619.89,-142.93 609.5,-140.89 610.49,-147.82"/>
</g>
</g>
</svg>
