<?xml version="1.0" encoding="UTF-8" standalone="no"?>
<!DOCTYPE svg PUBLIC "-//W3C//DTD SVG 1.1//EN"
 "http://www.w3.org/Graphics/SVG/1.1/DTD/svg11.dtd">
<!-- Generated by graphviz version 3.0.0 (20221109.1736)
 -->
<!-- Title: denoptim.gui.GUIVertexInspector.removeAtoms Pages: 1 -->
<!--zoomable 252 -->
<svg id="main" version="1.1" xmlns="http://www.w3.org/2000/svg" xmlns:xlink="http://www.w3.org/1999/xlink" xml:space="preserve" onload="init(evt)">
<style type="text/css"><![CDATA[
.edge:hover path { stroke: red; }
.edge:hover polygon { stroke: red; fill: red; }
]]></style>
<script type="text/javascript"><![CDATA[
var edges = document.getElementsByTagName('g');
if (edges && edges.length) {
  for (var i=0;i<edges.length;i++) {
    if (edges[i].id.substr(0,4)=='edge') {
      edges[i].setAttribute('class','edge');
    }
  }
}
]]></script>
        <defs>
                <circle id="rim" cx="0" cy="0" r="7"/>
                <circle id="rim2" cx="0" cy="0" r="3.5"/>
                <g id="zoomPlus">
                        <use xlink:href="#rim" fill="#404040">
                                <set attributeName="fill" to="#808080" begin="zoomplus.mouseover" end="zoomplus.mouseout"/>
                        </use>
                        <path d="M-4,0h8M0,-4v8" fill="none" stroke="white" stroke-width="1.5" pointer-events="none"/>
                </g>
                <g id="zoomMin">
                        <use xlink:href="#rim" fill="#404040">
                                <set attributeName="fill" to="#808080" begin="zoomminus.mouseover" end="zoomminus.mouseout"/>
                        </use>
                        <path d="M-4,0h8" fill="none" stroke="white" stroke-width="1.5" pointer-events="none"/>
                </g>
                <g id="dirArrow">
                        <path fill="none" stroke="white" stroke-width="1.5" d="M0,-3.0v7 M-2.5,-0.5L0,-3.0L2.5,-0.5"/>
                </g>
               <g id="resetDef">
                       <use xlink:href="#rim2" fill="#404040">
                               <set attributeName="fill" to="#808080" begin="reset.mouseover" end="reset.mouseout"/>
                       </use>
               </g>
        </defs>

<script type="text/javascript">
var viewWidth = 1233;
var viewHeight = 252;
var sectionId = 'dynsection-31';
</script>
<script xlink:href="svgpan.js"/>
<svg id="graph" class="graph">
<g id="viewport">
<title>denoptim.gui.GUIVertexInspector.removeAtoms</title>
<polygon fill="white" stroke="transparent" points="-4,4 -4,-248 1229,-248 1229,4 -4,4"/>
<!-- Node1 -->
<g id="node1" class="node">
<title>Node1</title>
<g id="a_node1"><a xlink:title=" ">
<polygon fill="#bfbfbf" stroke="black" points="0,-105 0,-135 194,-135 194,-105 0,-105"/>
<text text-anchor="start" x="8" y="-123" font-family="Helvetica,sans-Serif" font-size="10.00">denoptim.gui.GUIVertexInspector.remove</text>
<text text-anchor="middle" x="97" y="-112" font-family="Helvetica,sans-Serif" font-size="10.00">Atoms</text>
</a>
</g>
</g>
<!-- Node2 -->
<g id="node2" class="node">
<title>Node2</title>
<g id="a_node2"><a xlink:href="classdenoptim_1_1graph_1_1_fragment.html#ae9ece74cb5379ccf2b555a0092048592" target="_top" xlink:title=" ">
<polygon fill="white" stroke="black" points="244.5,-215.5 244.5,-234.5 399.5,-234.5 399.5,-215.5 244.5,-215.5"/>
<text text-anchor="middle" x="322" y="-222.5" font-family="Helvetica,sans-Serif" font-size="10.00">denoptim.graph.Fragment.bonds</text>
</a>
</g>
</g>
<!-- Node1&#45;&gt;Node2 -->
<g id="edge1" class="edge">
<title>Node1&#45;&gt;Node2</title>
<path fill="none" stroke="midnightblue" d="M118.45,-135.2C143.55,-153.2 187.97,-183.03 230,-201 240.91,-205.67 252.96,-209.62 264.62,-212.89"/>
<polygon fill="midnightblue" stroke="midnightblue" points="263.73,-216.27 274.3,-215.47 265.54,-209.51 263.73,-216.27"/>
</g>
<!-- Node3 -->
<g id="node3" class="node">
<title>Node3</title>
<g id="a_node3"><a xlink:href="classdenoptim_1_1graph_1_1_fragment.html#a551361a1155600e6e2fe4e37590c924f" target="_top" xlink:title=" ">
<polygon fill="white" stroke="black" points="670,-175 670,-205 812,-205 812,-175 670,-175"/>
<text text-anchor="start" x="678" y="-193" font-family="Helvetica,sans-Serif" font-size="10.00">denoptim.graph.Fragment.get</text>
<text text-anchor="middle" x="741" y="-182" font-family="Helvetica,sans-Serif" font-size="10.00">APsFromAtom</text>
</a>
</g>
</g>
<!-- Node1&#45;&gt;Node3 -->
<g id="edge2" class="edge">
<title>Node1&#45;&gt;Node3</title>
<path fill="none" stroke="midnightblue" d="M137.51,-135.06C163.42,-144.23 198.24,-155.25 230,-161 379.97,-188.13 558.41,-191.91 659.52,-191.45"/>
<polygon fill="midnightblue" stroke="midnightblue" points="659.68,-194.95 669.66,-191.39 659.64,-187.95 659.68,-194.95"/>
</g>
<!-- Node4 -->
<g id="node4" class="node">
<title>Node4</title>
<g id="a_node4"><a xlink:href="classdenoptim_1_1graph_1_1_fragment.html#a366dfaf65191c724b8e393b9d9dc899f" target="_top" xlink:title=" ">
<polygon fill="white" stroke="black" points="864.5,-55 864.5,-85 1006.5,-85 1006.5,-55 864.5,-55"/>
<text text-anchor="start" x="872.5" y="-73" font-family="Helvetica,sans-Serif" font-size="10.00">denoptim.graph.Fragment.get</text>
<text text-anchor="middle" x="935.5" y="-62" font-family="Helvetica,sans-Serif" font-size="10.00">AttachmentPoints</text>
</a>
</g>
</g>
<!-- Node1&#45;&gt;Node4 -->
<g id="edge3" class="edge">
<title>Node1&#45;&gt;Node4</title>
<path fill="none" stroke="midnightblue" d="M194.17,-105.61C206.22,-103.97 218.39,-102.39 230,-101 490.8,-69.8 557.37,-63.56 820,-67 831.07,-67.15 842.75,-67.37 854.23,-67.63"/>
<polygon fill="midnightblue" stroke="midnightblue" points="854.18,-71.13 864.26,-67.87 854.35,-64.13 854.18,-71.13"/>
</g>
<!-- Node5 -->
<g id="node5" class="node">
<title>Node5</title>
<g id="a_node5"><a xlink:href="classdenoptim_1_1graph_1_1_fragment.html#a7deab5658f2c5176b3edd77fb714c0c2" target="_top" xlink:title=" ">
<polygon fill="white" stroke="black" points="230,-132.5 230,-151.5 414,-151.5 414,-132.5 230,-132.5"/>
<text text-anchor="middle" x="322" y="-139.5" font-family="Helvetica,sans-Serif" font-size="10.00">denoptim.graph.Fragment.removeAtom</text>
</a>
</g>
</g>
<!-- Node1&#45;&gt;Node5 -->
<g id="edge4" class="edge">
<title>Node1&#45;&gt;Node5</title>
<path fill="none" stroke="midnightblue" d="M194.19,-129.49C202.57,-130.32 211.07,-131.15 219.49,-131.99"/>
<polygon fill="midnightblue" stroke="midnightblue" points="219.42,-135.5 229.71,-132.99 220.1,-128.53 219.42,-135.5"/>
</g>
<!-- Node17 -->
<g id="node17" class="node">
<title>Node17</title>
<g id="a_node17"><a xlink:href="classdenoptim_1_1graph_1_1_fragment.html#a0b5b1b4c1bca9ba9ecfb14c3f4c5c106" target="_top" xlink:title=" ">
<polygon fill="white" stroke="black" points="230.5,-0.5 230.5,-19.5 413.5,-19.5 413.5,-0.5 230.5,-0.5"/>
<text text-anchor="middle" x="322" y="-7.5" font-family="Helvetica,sans-Serif" font-size="10.00">denoptim.graph.Fragment.removeBond</text>
</a>
</g>
</g>
<!-- Node1&#45;&gt;Node17 -->
<g id="edge18" class="edge">
<title>Node1&#45;&gt;Node17</title>
<path fill="none" stroke="midnightblue" d="M116.99,-104.79C141.67,-85.72 186.75,-53.19 230,-34 240.51,-29.34 252.12,-25.42 263.43,-22.2"/>
<polygon fill="midnightblue" stroke="midnightblue" points="264.52,-25.53 273.26,-19.54 262.69,-18.77 264.52,-25.53"/>
</g>
<!-- Node18 -->
<g id="node18" class="node">
<title>Node18</title>
<g id="a_node18"><a xlink:href="classdenoptim_1_1graph_1_1_fragment.html#a8a6b413cc1a9c7276c9cfbd7e9284c99" target="_top" xlink:title="Changes the properties of each APs as to reflect the current atom list.">
<polygon fill="white" stroke="black" points="450,-89.5 450,-108.5 626,-108.5 626,-89.5 450,-89.5"/>
<text text-anchor="middle" x="538" y="-96.5" font-family="Helvetica,sans-Serif" font-size="10.00">denoptim.graph.Fragment.updateAPs</text>
</a>
</g>
</g>
<!-- Node1&#45;&gt;Node18 -->
<g id="edge19" class="edge">
<title>Node1&#45;&gt;Node18</title>
<path fill="none" stroke="midnightblue" d="M194.07,-115.4C266.85,-111.92 366.46,-107.16 439.58,-103.66"/>
<polygon fill="midnightblue" stroke="midnightblue" points="439.89,-107.15 449.71,-103.18 439.56,-100.16 439.89,-107.15"/>
</g>
<!-- Node6 -->
<g id="node6" class="node">
<title>Node6</title>
<g id="a_node6"><a xlink:href="classdenoptim_1_1graph_1_1_fragment.html#afe608a1ee2180aa73c91b8cc0a5bb744" target="_top" xlink:title="Removes a list of atoms and updates the list of attachment points.">
<polygon fill="white" stroke="black" points="457.5,-128 457.5,-158 618.5,-158 618.5,-128 457.5,-128"/>
<text text-anchor="start" x="465.5" y="-146" font-family="Helvetica,sans-Serif" font-size="10.00">denoptim.graph.Fragment.remove</text>
<text text-anchor="middle" x="538" y="-135" font-family="Helvetica,sans-Serif" font-size="10.00">Atoms</text>
</a>
</g>
</g>
<!-- Node5&#45;&gt;Node6 -->
<g id="edge5" class="edge">
<title>Node5&#45;&gt;Node6</title>
<path fill="none" stroke="midnightblue" d="M414.07,-142.43C424.93,-142.48 436.01,-142.53 446.86,-142.58"/>
<polygon fill="midnightblue" stroke="midnightblue" points="447.16,-146.08 457.18,-142.63 447.19,-139.08 447.16,-146.08"/>
</g>
<!-- Node6&#45;&gt;Node3 -->
<g id="edge7" class="edge">
<title>Node6&#45;&gt;Node3</title>
<path fill="none" stroke="midnightblue" d="M603.15,-158C623.09,-162.66 645.25,-167.84 665.82,-172.65"/>
<polygon fill="midnightblue" stroke="midnightblue" points="665.24,-176.11 675.77,-174.98 666.83,-169.3 665.24,-176.11"/>
</g>
<!-- Node7 -->
<g id="node7" class="node">
<title>Node7</title>
<g id="a_node7"><a xlink:href="classdenoptim_1_1graph_1_1_fragment.html#a4babe43e60f32e990179be8dfe96e38e" target="_top" xlink:title=" ">
<polygon fill="white" stroke="black" points="663.5,-224.5 663.5,-243.5 818.5,-243.5 818.5,-224.5 663.5,-224.5"/>
<text text-anchor="middle" x="741" y="-231.5" font-family="Helvetica,sans-Serif" font-size="10.00">denoptim.graph.Fragment.atoms</text>
</a>
</g>
</g>
<!-- Node6&#45;&gt;Node7 -->
<g id="edge6" class="edge">
<title>Node6&#45;&gt;Node7</title>
<path fill="none" stroke="midnightblue" d="M560.23,-158.02C583.99,-174.21 624.15,-199.69 662,-215 668.25,-217.53 674.92,-219.78 681.64,-221.77"/>
<polygon fill="midnightblue" stroke="midnightblue" points="680.89,-225.19 691.46,-224.49 682.76,-218.45 680.89,-225.19"/>
</g>
<!-- Node8 -->
<g id="node8" class="node">
<title>Node8</title>
<g id="a_node8"><a xlink:href="classdenoptim_1_1graph_1_1_attachment_point.html#a54d64a8abc57153a64783ddb262f518c" target="_top" xlink:title="Set the index of the source atom in the list of atoms of the fragment.">
<polygon fill="white" stroke="black" points="667,-77 667,-107 815,-107 815,-77 667,-77"/>
<text text-anchor="start" x="675" y="-95" font-family="Helvetica,sans-Serif" font-size="10.00">denoptim.graph.Attachment</text>
<text text-anchor="middle" x="741" y="-84" font-family="Helvetica,sans-Serif" font-size="10.00">Point.setAtomPositionNumber</text>
</a>
</g>
</g>
<!-- Node6&#45;&gt;Node8 -->
<g id="edge8" class="edge">
<title>Node6&#45;&gt;Node8</title>
<path fill="none" stroke="midnightblue" d="M598.22,-127.97C621.02,-122.19 647.25,-115.53 670.9,-109.53"/>
<polygon fill="midnightblue" stroke="midnightblue" points="672.02,-112.86 680.86,-107.01 670.3,-106.07 672.02,-112.86"/>
</g>
<!-- Node9 -->
<g id="node9" class="node">
<title>Node9</title>
<g id="a_node9"><a xlink:href="classdenoptim_1_1graph_1_1_fragment.html#ab272daa0515a1ee2fb99a2eb6a81a4a0" target="_top" xlink:title="Depends on an healthy list of attachment points with properly set pointers to the source atoms.">
<polygon fill="white" stroke="black" points="662,-126 662,-156 820,-156 820,-126 662,-126"/>
<text text-anchor="start" x="670" y="-144" font-family="Helvetica,sans-Serif" font-size="10.00">denoptim.graph.Fragment.update</text>
<text text-anchor="middle" x="741" y="-133" font-family="Helvetica,sans-Serif" font-size="10.00">SymmetryRelations</text>
</a>
</g>
</g>
<!-- Node6&#45;&gt;Node9 -->
<g id="edge9" class="edge">
<title>Node6&#45;&gt;Node9</title>
<path fill="none" stroke="midnightblue" d="M618.73,-142.21C629.55,-142.1 640.72,-141.99 651.68,-141.88"/>
<polygon fill="midnightblue" stroke="midnightblue" points="651.72,-145.38 661.68,-141.78 651.65,-138.38 651.72,-145.38"/>
</g>
<!-- Node9&#45;&gt;Node4 -->
<g id="edge10" class="edge">
<title>Node9&#45;&gt;Node4</title>
<path fill="none" stroke="midnightblue" d="M793.41,-125.91C802.32,-123.09 811.46,-120.06 820,-117 843.68,-108.52 869.65,-97.96 890.86,-89.01"/>
<polygon fill="midnightblue" stroke="midnightblue" points="892.41,-92.15 900.24,-85.02 889.67,-85.71 892.41,-92.15"/>
</g>
<!-- Node10 -->
<g id="node10" class="node">
<title>Node10</title>
<g id="a_node10"><a xlink:href="classdenoptim_1_1graph_1_1_fragment.html#ad87484692035efb425e352a5135aa3d9" target="_top" xlink:title=" ">
<polygon fill="white" stroke="black" points="856,-115 856,-145 1015,-145 1015,-115 856,-115"/>
<text text-anchor="start" x="864" y="-133" font-family="Helvetica,sans-Serif" font-size="10.00">denoptim.graph.Fragment.identify</text>
<text text-anchor="middle" x="935.5" y="-122" font-family="Helvetica,sans-Serif" font-size="10.00">SymmetryRelatedAPSets</text>
</a>
</g>
</g>
<!-- Node9&#45;&gt;Node10 -->
<g id="edge11" class="edge">
<title>Node9&#45;&gt;Node10</title>
<path fill="none" stroke="midnightblue" d="M820.02,-136.54C828.48,-136.06 837.14,-135.56 845.72,-135.07"/>
<polygon fill="midnightblue" stroke="midnightblue" points="845.96,-138.57 855.74,-134.5 845.56,-131.58 845.96,-138.57"/>
</g>
<!-- Node16 -->
<g id="node16" class="node">
<title>Node16</title>
<g id="a_node16"><a xlink:href="classdenoptim_1_1graph_1_1_fragment.html#a13fe376fd06c5aca7e4dfeba36e37b0e" target="_top" xlink:title=" ">
<polygon fill="white" stroke="black" points="864.5,-164 864.5,-194 1006.5,-194 1006.5,-164 864.5,-164"/>
<text text-anchor="start" x="872.5" y="-182" font-family="Helvetica,sans-Serif" font-size="10.00">denoptim.graph.Fragment.set</text>
<text text-anchor="middle" x="935.5" y="-171" font-family="Helvetica,sans-Serif" font-size="10.00">SymmetricAPSets</text>
</a>
</g>
</g>
<!-- Node9&#45;&gt;Node16 -->
<g id="edge17" class="edge">
<title>Node9&#45;&gt;Node16</title>
<path fill="none" stroke="midnightblue" d="M818.08,-156.02C829.99,-158.37 842.32,-160.8 854.32,-163.17"/>
<polygon fill="midnightblue" stroke="midnightblue" points="853.8,-166.64 864.29,-165.14 855.16,-159.77 853.8,-166.64"/>
</g>
<!-- Node11 -->
<g id="node11" class="node">
<title>Node11</title>
<g id="a_node11"><a xlink:href="classdenoptim_1_1graph_1_1_symmetric_set.html#aa3db3c29bdb4ed481b63257a2ffa1b14" target="_top" xlink:title="Adds an item to this list, if not already present.">
<polygon fill="white" stroke="black" points="1072.5,-208 1072.5,-238 1203.5,-238 1203.5,-208 1072.5,-208"/>
<text text-anchor="start" x="1080.5" y="-226" font-family="Helvetica,sans-Serif" font-size="10.00">denoptim.graph.Symmetric</text>
<text text-anchor="middle" x="1138" y="-215" font-family="Helvetica,sans-Serif" font-size="10.00">Set.add</text>
</a>
</g>
</g>
<!-- Node10&#45;&gt;Node11 -->
<g id="edge12" class="edge">
<title>Node10&#45;&gt;Node11</title>
<path fill="none" stroke="midnightblue" d="M996.51,-145.05C1003.01,-147.85 1009.32,-151.14 1015,-155 1035.9,-169.2 1029.85,-185.18 1051,-199 1054.75,-201.45 1058.75,-203.65 1062.9,-205.63"/>
<polygon fill="midnightblue" stroke="midnightblue" points="1061.6,-208.88 1072.17,-209.62 1064.36,-202.45 1061.6,-208.88"/>
</g>
<!-- Node12 -->
<g id="node12" class="node">
<title>Node12</title>
<g id="a_node12"><a xlink:href="classdenoptim_1_1graph_1_1_fragment.html#a90fc66d07e071376ee45a32ab8a76020" target="_top" xlink:title="Checks if the atoms at the given positions have similar environments i.e.">
<polygon fill="white" stroke="black" points="1060.5,-159 1060.5,-189 1215.5,-189 1215.5,-159 1060.5,-159"/>
<text text-anchor="start" x="1068.5" y="-177" font-family="Helvetica,sans-Serif" font-size="10.00">denoptim.graph.Fragment.atoms</text>
<text text-anchor="middle" x="1138" y="-166" font-family="Helvetica,sans-Serif" font-size="10.00">AreCompatible</text>
</a>
</g>
</g>
<!-- Node10&#45;&gt;Node12 -->
<g id="edge13" class="edge">
<title>Node10&#45;&gt;Node12</title>
<path fill="none" stroke="midnightblue" d="M1004.94,-145.02C1022.1,-148.79 1040.66,-152.86 1058.28,-156.72"/>
<polygon fill="midnightblue" stroke="midnightblue" points="1058.01,-160.25 1068.53,-158.97 1059.51,-153.41 1058.01,-160.25"/>
</g>
<!-- Node13 -->
<g id="node13" class="node">
<title>Node13</title>
<g id="a_node13"><a xlink:href="classdenoptim_1_1graph_1_1_a_p_class.html#a5cac5d20b70a0eace014ce062a271fbf" target="_top" xlink:title=" ">
<polygon fill="white" stroke="black" points="1051,-120.5 1051,-139.5 1225,-139.5 1225,-120.5 1051,-120.5"/>
<text text-anchor="middle" x="1138" y="-127.5" font-family="Helvetica,sans-Serif" font-size="10.00">denoptim.graph.APClass.compareTo</text>
</a>
</g>
</g>
<!-- Node10&#45;&gt;Node13 -->
<g id="edge14" class="edge">
<title>Node10&#45;&gt;Node13</title>
<path fill="none" stroke="midnightblue" d="M1015.17,-130C1023.6,-130 1032.26,-130 1040.87,-130"/>
<polygon fill="midnightblue" stroke="midnightblue" points="1040.94,-133.5 1050.94,-130 1040.94,-126.5 1040.94,-133.5"/>
</g>
<!-- Node14 -->
<g id="node14" class="node">
<title>Node14</title>
<g id="a_node14"><a xlink:href="classdenoptim_1_1graph_1_1_attachment_point.html#a31bed4cb29f6437bf8a888a1dda3fd95" target="_top" xlink:title="Returns the Attachment Point class.">
<polygon fill="white" stroke="black" points="1070.5,-71 1070.5,-101 1205.5,-101 1205.5,-71 1070.5,-71"/>
<text text-anchor="start" x="1078.5" y="-89" font-family="Helvetica,sans-Serif" font-size="10.00">denoptim.graph.Attachment</text>
<text text-anchor="middle" x="1138" y="-78" font-family="Helvetica,sans-Serif" font-size="10.00">Point.getAPClass</text>
</a>
</g>
</g>
<!-- Node10&#45;&gt;Node14 -->
<g id="edge15" class="edge">
<title>Node10&#45;&gt;Node14</title>
<path fill="none" stroke="midnightblue" d="M1004.94,-114.98C1022.74,-111.07 1042.04,-106.84 1060.24,-102.84"/>
<polygon fill="midnightblue" stroke="midnightblue" points="1061.21,-106.22 1070.23,-100.65 1059.71,-99.38 1061.21,-106.22"/>
</g>
<!-- Node15 -->
<g id="node15" class="node">
<title>Node15</title>
<g id="a_node15"><a xlink:href="classdenoptim_1_1graph_1_1_attachment_point.html#a7e45846280a63bd2bf36b85e502ffa49" target="_top" xlink:title="The index of the source atom in the atom list of the fragment.">
<polygon fill="white" stroke="black" points="1064,-22 1064,-52 1212,-52 1212,-22 1064,-22"/>
<text text-anchor="start" x="1072" y="-40" font-family="Helvetica,sans-Serif" font-size="10.00">denoptim.graph.Attachment</text>
<text text-anchor="middle" x="1138" y="-29" font-family="Helvetica,sans-Serif" font-size="10.00">Point.getAtomPositionNumber</text>
</a>
</g>
</g>
<!-- Node10&#45;&gt;Node15 -->
<g id="edge16" class="edge">
<title>Node10&#45;&gt;Node15</title>
<path fill="none" stroke="midnightblue" d="M975.71,-114.9C988.68,-109.16 1002.88,-102.04 1015,-94 1033.08,-82 1032.03,-71.54 1051,-61 1054.24,-59.2 1057.62,-57.53 1061.1,-55.97"/>
<polygon fill="midnightblue" stroke="midnightblue" points="1062.54,-59.17 1070.47,-52.13 1059.88,-52.69 1062.54,-59.17"/>
</g>
<!-- Node18&#45;&gt;Node3 -->
<g id="edge20" class="edge">
<title>Node18&#45;&gt;Node3</title>
<path fill="none" stroke="midnightblue" d="M603.78,-108.55C611.61,-111.23 619.22,-114.64 626,-119 648.13,-133.23 640.4,-150.97 662,-166 664.14,-167.49 666.37,-168.88 668.67,-170.2"/>
<polygon fill="midnightblue" stroke="midnightblue" points="667.35,-173.45 677.85,-174.85 670.51,-167.21 667.35,-173.45"/>
</g>
<!-- Node18&#45;&gt;Node8 -->
<g id="edge21" class="edge">
<title>Node18&#45;&gt;Node8</title>
<path fill="none" stroke="midnightblue" d="M626.28,-95.96C636.46,-95.61 646.81,-95.25 656.92,-94.89"/>
<polygon fill="midnightblue" stroke="midnightblue" points="657.06,-98.39 666.94,-94.54 656.82,-91.39 657.06,-98.39"/>
</g>
<!-- Node18&#45;&gt;Node9 -->
<g id="edge22" class="edge">
<title>Node18&#45;&gt;Node9</title>
<path fill="none" stroke="midnightblue" d="M584.61,-108.53C606.39,-113.08 633.13,-118.67 658.25,-123.92"/>
<polygon fill="midnightblue" stroke="midnightblue" points="657.65,-127.37 668.15,-125.99 659.08,-120.52 657.65,-127.37"/>
</g>
</g>
</svg>
        <g id="navigator" transform="translate(0 0)" fill="#404254">
                <rect fill="#f2f5e9" fill-opacity="0.5" stroke="#606060" stroke-width=".5" x="0" y="0" width="60" height="60"/>
                <use id="zoomplus" xlink:href="#zoomPlus" x="17" y="9" onmousedown="handleZoom(evt,'in')"/>
                <use id="zoomminus" xlink:href="#zoomMin" x="42" y="9" onmousedown="handleZoom(evt,'out')"/>
                <use id="reset" xlink:href="#resetDef" x="30" y="36" onmousedown="handleReset()"/>
                <g id="arrowUp" xlink:href="#dirArrow" transform="translate(30 24)" onmousedown="handlePan(0,-1)">
                  <use xlink:href="#rim" fill="#404040">
                        <set attributeName="fill" to="#808080" begin="arrowUp.mouseover" end="arrowUp.mouseout"/>
                  </use>
                  <path fill="none" stroke="white" stroke-width="1.5" d="M0,-3.0v7 M-2.5,-0.5L0,-3.0L2.5,-0.5"/>
                </g>
                <g id="arrowRight" xlink:href="#dirArrow" transform="rotate(90) translate(36 -43)" onmousedown="handlePan(1,0)">
                  <use xlink:href="#rim" fill="#404040">
                        <set attributeName="fill" to="#808080" begin="arrowRight.mouseover" end="arrowRight.mouseout"/>
                  </use>
                  <path fill="none" stroke="white" stroke-width="1.5" d="M0,-3.0v7 M-2.5,-0.5L0,-3.0L2.5,-0.5"/>
                </g>
                <g id="arrowDown" xlink:href="#dirArrow" transform="rotate(180) translate(-30 -48)" onmousedown="handlePan(0,1)">
                  <use xlink:href="#rim" fill="#404040">
                        <set attributeName="fill" to="#808080" begin="arrowDown.mouseover" end="arrowDown.mouseout"/>
                  </use>
                  <path fill="none" stroke="white" stroke-width="1.5" d="M0,-3.0v7 M-2.5,-0.5L0,-3.0L2.5,-0.5"/>
                </g>
                <g id="arrowLeft" xlink:href="#dirArrow" transform="rotate(270) translate(-36 17)" onmousedown="handlePan(-1,0)">
                  <use xlink:href="#rim" fill="#404040">
                        <set attributeName="fill" to="#808080" begin="arrowLeft.mouseover" end="arrowLeft.mouseout"/>
                  </use>
                  <path fill="none" stroke="white" stroke-width="1.5" d="M0,-3.0v7 M-2.5,-0.5L0,-3.0L2.5,-0.5"/>
                </g>
        </g>
        <svg viewBox="0 0 15 15" width="100%" height="30px" preserveAspectRatio="xMaxYMin meet">
         <g id="arrow_out" transform="scale(0.3 0.3)">
          <a xlink:href="classdenoptim_1_1gui_1_1_g_u_i_vertex_inspector_adc65cc0ba7fa1014ecb1ccc447953638_cgraph_org.svg" target="_base">
           <rect id="button" ry="5" rx="5" y="6" x="6" height="38" width="38"
                fill="#f2f5e9" fill-opacity="0.5" stroke="#606060" stroke-width="1.0"/>
           <path id="arrow"
             d="M 11.500037,31.436501 C 11.940474,20.09759 22.043105,11.32322 32.158766,21.979434 L 37.068811,17.246167 C 37.068811,17.246167 37.088388,32 37.088388,32 L 22.160133,31.978069 C 22.160133,31.978069 26.997745,27.140456 26.997745,27.140456 C 18.528582,18.264221 13.291696,25.230495 11.500037,31.436501 z"
             style="fill:#404040;"/>
          </a>
         </g>
        </svg>
</svg>
