<?xml version="1.0" encoding="UTF-8" standalone="no"?>
<!DOCTYPE svg PUBLIC "-//W3C//DTD SVG 1.1//EN"
 "http://www.w3.org/Graphics/SVG/1.1/DTD/svg11.dtd">
<!-- Generated by graphviz version 3.0.0 (20221109.1736)
 -->
<!-- Title: denoptim.utils.ManySMARTSQuery.getNumMatchesOfQuery Pages: 1 -->
<!--zoomable 356 -->
<svg id="main" version="1.1" xmlns="http://www.w3.org/2000/svg" xmlns:xlink="http://www.w3.org/1999/xlink" xml:space="preserve" onload="init(evt)">
<style type="text/css"><![CDATA[
.edge:hover path { stroke: red; }
.edge:hover polygon { stroke: red; fill: red; }
]]></style>
<script type="text/javascript"><![CDATA[
var edges = document.getElementsByTagName('g');
if (edges && edges.length) {
  for (var i=0;i<edges.length;i++) {
    if (edges[i].id.substr(0,4)=='edge') {
      edges[i].setAttribute('class','edge');
    }
  }
}
]]></script>
        <defs>
                <circle id="rim" cx="0" cy="0" r="7"/>
                <circle id="rim2" cx="0" cy="0" r="3.5"/>
                <g id="zoomPlus">
                        <use xlink:href="#rim" fill="#404040">
                                <set attributeName="fill" to="#808080" begin="zoomplus.mouseover" end="zoomplus.mouseout"/>
                        </use>
                        <path d="M-4,0h8M0,-4v8" fill="none" stroke="white" stroke-width="1.5" pointer-events="none"/>
                </g>
                <g id="zoomMin">
                        <use xlink:href="#rim" fill="#404040">
                                <set attributeName="fill" to="#808080" begin="zoomminus.mouseover" end="zoomminus.mouseout"/>
                        </use>
                        <path d="M-4,0h8" fill="none" stroke="white" stroke-width="1.5" pointer-events="none"/>
                </g>
                <g id="dirArrow">
                        <path fill="none" stroke="white" stroke-width="1.5" d="M0,-3.0v7 M-2.5,-0.5L0,-3.0L2.5,-0.5"/>
                </g>
               <g id="resetDef">
                       <use xlink:href="#rim2" fill="#404040">
                               <set attributeName="fill" to="#808080" begin="reset.mouseover" end="reset.mouseout"/>
                       </use>
               </g>
        </defs>

<script type="text/javascript">
var viewWidth = 2210;
var viewHeight = 356;
var sectionId = 'dynsection-5';
</script>
<script xlink:href="svgpan.js"/>
<svg id="graph" class="graph">
<g id="viewport">
<title>denoptim.utils.ManySMARTSQuery.getNumMatchesOfQuery</title>
<polygon fill="white" stroke="transparent" points="-4,4 -4,-351.5 2206,-351.5 2206,4 -4,4"/>
<!-- Node1 -->
<g id="node1" class="node">
<title>Node1</title>
<g id="a_node1"><a xlink:title=" ">
<polygon fill="#bfbfbf" stroke="black" points="2017,-177.5 2017,-207.5 2202,-207.5 2202,-177.5 2017,-177.5"/>
<text text-anchor="start" x="2025" y="-195.5" font-family="Helvetica,sans-Serif" font-size="10.00">denoptim.utils.ManySMARTSQuery.get</text>
<text text-anchor="middle" x="2109.5" y="-184.5" font-family="Helvetica,sans-Serif" font-size="10.00">NumMatchesOfQuery</text>
</a>
</g>
</g>
<!-- Node2 -->
<g id="node2" class="node">
<title>Node2</title>
<g id="a_node2"><a xlink:href="classdenoptim_1_1utils_1_1_rotational_space_utils.html#af386024b4389e50ad3ff118168e5382d" target="_top" xlink:title="Define the rotational space (a.k.a.">
<polygon fill="white" stroke="black" points="1789.5,-258.5 1789.5,-288.5 1950.5,-288.5 1950.5,-258.5 1789.5,-258.5"/>
<text text-anchor="start" x="1797.5" y="-276.5" font-family="Helvetica,sans-Serif" font-size="10.00">denoptim.utils.Rotational</text>
<text text-anchor="middle" x="1870" y="-265.5" font-family="Helvetica,sans-Serif" font-size="10.00">SpaceUtils.defineRotatableBonds</text>
</a>
</g>
</g>
<!-- Node1&#45;&gt;Node2 -->
<g id="edge1" class="edge">
<title>Node1&#45;&gt;Node2</title>
<path fill="none" stroke="midnightblue" d="M2070.45,-211.99C2045.52,-224.14 2011.94,-239.33 1981,-249.5 1970.88,-252.83 1960.08,-255.82 1949.36,-258.48"/>
<polygon fill="midnightblue" stroke="midnightblue" points="2072.13,-215.06 2079.55,-207.5 2069.04,-208.79 2072.13,-215.06"/>
</g>
<!-- Node19 -->
<g id="node19" class="node">
<title>Node19</title>
<g id="a_node19"><a xlink:href="classdenoptim_1_1graph_1_1rings_1_1_path_closability_tools.html#a54bf5ea69523e3352eea462fbf97b9a1" target="_top" xlink:title="Method to evaluate the closability of a single path considering only its constitution.">
<polygon fill="white" stroke="black" points="1778.5,-199 1778.5,-240 1961.5,-240 1961.5,-199 1778.5,-199"/>
<text text-anchor="start" x="1786.5" y="-228" font-family="Helvetica,sans-Serif" font-size="10.00">denoptim.graph.rings.Path</text>
<text text-anchor="start" x="1786.5" y="-217" font-family="Helvetica,sans-Serif" font-size="10.00">ClosabilityTools.evaluateConstitutional</text>
<text text-anchor="middle" x="1870" y="-206" font-family="Helvetica,sans-Serif" font-size="10.00">Closability</text>
</a>
</g>
</g>
<!-- Node1&#45;&gt;Node19 -->
<g id="edge22" class="edge">
<title>Node1&#45;&gt;Node19</title>
<path fill="none" stroke="midnightblue" d="M2006.46,-204.1C1991.61,-205.79 1976.41,-207.52 1961.8,-209.18"/>
<polygon fill="midnightblue" stroke="midnightblue" points="2007.14,-207.55 2016.68,-202.94 2006.34,-200.59 2007.14,-207.55"/>
</g>
<!-- Node29 -->
<g id="node29" class="node">
<title>Node29</title>
<g id="a_node29"><a xlink:href="classdenoptim_1_1fragmenter_1_1_fragmenter_tools.html#aacad4752a8f6324a9c8e5a96ff14efe5" target="_top" xlink:title="Filter fragments according to the criteria defined in the settings.">
<polygon fill="white" stroke="black" points="1791.5,-150.5 1791.5,-180.5 1948.5,-180.5 1948.5,-150.5 1791.5,-150.5"/>
<text text-anchor="start" x="1799.5" y="-168.5" font-family="Helvetica,sans-Serif" font-size="10.00">denoptim.fragmenter.Fragmenter</text>
<text text-anchor="middle" x="1870" y="-157.5" font-family="Helvetica,sans-Serif" font-size="10.00">Tools.filterFragment</text>
</a>
</g>
</g>
<!-- Node1&#45;&gt;Node29 -->
<g id="edge35" class="edge">
<title>Node1&#45;&gt;Node29</title>
<path fill="none" stroke="midnightblue" d="M2006.6,-180.92C1987.2,-178.71 1967.19,-176.44 1948.7,-174.33"/>
<polygon fill="midnightblue" stroke="midnightblue" points="2006.34,-184.41 2016.68,-182.06 2007.14,-177.45 2006.34,-184.41"/>
</g>
<!-- Node30 -->
<g id="node30" class="node">
<title>Node30</title>
<g id="a_node30"><a xlink:href="classdenoptim_1_1utils_1_1_rotational_space_utils.html#a95673bf4bcfa24f53e7d077eb7979942" target="_top" xlink:title="Process the constrained rotatable bonds.">
<polygon fill="white" stroke="black" points="1759,-307.5 1759,-337.5 1981,-337.5 1981,-307.5 1759,-307.5"/>
<text text-anchor="start" x="1767" y="-325.5" font-family="Helvetica,sans-Serif" font-size="10.00">denoptim.utils.Rotational</text>
<text text-anchor="middle" x="1870" y="-314.5" font-family="Helvetica,sans-Serif" font-size="10.00">SpaceUtils.processConstrainedRotatableBonds</text>
</a>
</g>
</g>
<!-- Node1&#45;&gt;Node30 -->
<g id="edge36" class="edge">
<title>Node1&#45;&gt;Node30</title>
<path fill="none" stroke="midnightblue" d="M2087.86,-215.2C2064.37,-239.59 2023.71,-277.64 1981,-298.5 1973.89,-301.97 1966.27,-304.95 1958.49,-307.5"/>
<polygon fill="midnightblue" stroke="midnightblue" points="2090.53,-217.47 2094.86,-207.8 2085.44,-212.66 2090.53,-217.47"/>
</g>
<!-- Node31 -->
<g id="node31" class="node">
<title>Node31</title>
<g id="a_node31"><a xlink:href="classdenoptim_1_1programs_1_1fragmenter_1_1_cutting_rule.html#a3047624614ab9e9f2ff28be11b29ff80" target="_top" xlink:title="Checks if a given bond satisfies the additional options of this rule beyond the matching of the SMART...">
<polygon fill="white" stroke="black" points="1795,-101.5 1795,-131.5 1945,-131.5 1945,-101.5 1795,-101.5"/>
<text text-anchor="start" x="1803" y="-119.5" font-family="Helvetica,sans-Serif" font-size="10.00">denoptim.programs.fragmenter.</text>
<text text-anchor="middle" x="1870" y="-108.5" font-family="Helvetica,sans-Serif" font-size="10.00">CuttingRule.satisfiesOptions</text>
</a>
</g>
</g>
<!-- Node1&#45;&gt;Node31 -->
<g id="edge38" class="edge">
<title>Node1&#45;&gt;Node31</title>
<path fill="none" stroke="midnightblue" d="M2066.67,-173.31C2042.1,-162.57 2010.22,-149.57 1981,-140.5 1969.52,-136.94 1957.21,-133.7 1945.12,-130.84"/>
<polygon fill="midnightblue" stroke="midnightblue" points="2065.49,-176.61 2076.05,-177.45 2068.31,-170.2 2065.49,-176.61"/>
</g>
<!-- Node33 -->
<g id="node33" class="node">
<title>Node33</title>
<g id="a_node33"><a xlink:href="classdenoptim_1_1ga_1_1_e_a_utils.html#adf927b8dfc6e153e639fac3509e259c1" target="_top" xlink:title=" ">
<polygon fill="white" stroke="black" points="1802,-52.5 1802,-82.5 1938,-82.5 1938,-52.5 1802,-52.5"/>
<text text-anchor="start" x="1810" y="-70.5" font-family="Helvetica,sans-Serif" font-size="10.00">denoptim.ga.EAUtils.search</text>
<text text-anchor="middle" x="1870" y="-59.5" font-family="Helvetica,sans-Serif" font-size="10.00">RingFusionSites</text>
</a>
</g>
</g>
<!-- Node1&#45;&gt;Node33 -->
<g id="edge40" class="edge">
<title>Node1&#45;&gt;Node33</title>
<path fill="none" stroke="midnightblue" d="M2086.86,-170.14C2063.07,-146.9 2022.68,-111.24 1981,-91.5 1967.66,-85.18 1952.63,-80.5 1938.05,-77.05"/>
<polygon fill="midnightblue" stroke="midnightblue" points="2084.41,-172.64 2093.98,-177.21 2089.35,-167.68 2084.41,-172.64"/>
</g>
<!-- Node3 -->
<g id="node3" class="node">
<title>Node3</title>
<g id="a_node3"><a xlink:href="classdenoptim_1_1molecularmodeling_1_1_multi_molecular_model_builder.html#a1cd879265bf12e9c2980efae1e8e74aa" target="_top" xlink:title="Generate 3D structure by assembling 3D fragments according to attachment point vector and following t...">
<polygon fill="white" stroke="black" points="1533,-307.5 1533,-337.5 1723,-337.5 1723,-307.5 1533,-307.5"/>
<text text-anchor="start" x="1541" y="-325.5" font-family="Helvetica,sans-Serif" font-size="10.00">denoptim.molecularmodeling.</text>
<text text-anchor="middle" x="1628" y="-314.5" font-family="Helvetica,sans-Serif" font-size="10.00">MultiMolecularModelBuilder.build3DTree</text>
</a>
</g>
</g>
<!-- Node2&#45;&gt;Node3 -->
<g id="edge2" class="edge">
<title>Node2&#45;&gt;Node3</title>
<path fill="none" stroke="midnightblue" d="M1785.54,-290.54C1758.51,-296.06 1728.75,-302.13 1702.5,-307.49"/>
<polygon fill="midnightblue" stroke="midnightblue" points="1786.26,-293.96 1795.36,-288.53 1784.86,-287.11 1786.26,-293.96"/>
</g>
<!-- Node6 -->
<g id="node6" class="node">
<title>Node6</title>
<g id="a_node6"><a xlink:href="classdenoptim_1_1graph_1_1_d_graph.html#a7a4743d014e860237f4b20703ef9779b" target="_top" xlink:title="Evaluates the possibility of closing rings in this graph and generates all alternative graphs resulti...">
<polygon fill="white" stroke="black" points="1096.5,-264.5 1096.5,-294.5 1251.5,-294.5 1251.5,-264.5 1096.5,-264.5"/>
<text text-anchor="start" x="1104.5" y="-282.5" font-family="Helvetica,sans-Serif" font-size="10.00">denoptim.graph.DGraph.make</text>
<text text-anchor="middle" x="1174" y="-271.5" font-family="Helvetica,sans-Serif" font-size="10.00">AllGraphsWithDifferentRingSets</text>
</a>
</g>
</g>
<!-- Node2&#45;&gt;Node6 -->
<g id="edge5" class="edge">
<title>Node2&#45;&gt;Node6</title>
<path fill="none" stroke="midnightblue" d="M1779.29,-274.28C1641.67,-275.47 1380.83,-277.72 1251.57,-278.84"/>
<polygon fill="midnightblue" stroke="midnightblue" points="1779.42,-277.77 1789.39,-274.19 1779.36,-270.77 1779.42,-277.77"/>
</g>
<!-- Node8 -->
<g id="node8" class="node">
<title>Node8</title>
<g id="a_node8"><a xlink:href="classdenoptim_1_1ga_1_1_e_a_utils.html#a1ddb932d4618434d435e4f85ce5e5eb5" target="_top" xlink:title="Evaluates the possibility of closing rings in a given graph and if any ring can be closed,...">
<polygon fill="white" stroke="black" points="879.5,-182.5 879.5,-212.5 1010.5,-212.5 1010.5,-182.5 879.5,-182.5"/>
<text text-anchor="start" x="887.5" y="-200.5" font-family="Helvetica,sans-Serif" font-size="10.00">denoptim.ga.EAUtils.setup</text>
<text text-anchor="middle" x="945" y="-189.5" font-family="Helvetica,sans-Serif" font-size="10.00">Rings</text>
</a>
</g>
</g>
<!-- Node2&#45;&gt;Node8 -->
<g id="edge7" class="edge">
<title>Node2&#45;&gt;Node8</title>
<path fill="none" stroke="midnightblue" d="M1779.11,-266.1C1593.63,-250.83 1172.37,-216.14 1010.77,-202.83"/>
<polygon fill="midnightblue" stroke="midnightblue" points="1778.85,-269.59 1789.11,-266.92 1779.43,-262.61 1778.85,-269.59"/>
</g>
<!-- Node4 -->
<g id="node4" class="node">
<title>Node4</title>
<g id="a_node4"><a xlink:href="classdenoptim_1_1molecularmodeling_1_1_multi_molecular_model_builder.html#a6a8e314f3fb37f66c32c8c4d5695b8a4" target="_top" xlink:title="Given the graph representation of the molecular constitution, along with the 3D coordinates of the fr...">
<polygon fill="white" stroke="black" points="1326,-306 1326,-347 1484,-347 1484,-306 1326,-306"/>
<text text-anchor="start" x="1334" y="-335" font-family="Helvetica,sans-Serif" font-size="10.00">denoptim.molecularmodeling.</text>
<text text-anchor="start" x="1334" y="-324" font-family="Helvetica,sans-Serif" font-size="10.00">MultiMolecularModelBuilder.build</text>
<text text-anchor="middle" x="1405" y="-313" font-family="Helvetica,sans-Serif" font-size="10.00">Multi3DStructure</text>
</a>
</g>
</g>
<!-- Node3&#45;&gt;Node4 -->
<g id="edge3" class="edge">
<title>Node3&#45;&gt;Node4</title>
<path fill="none" stroke="midnightblue" d="M1522.65,-324.39C1509.74,-324.62 1496.73,-324.86 1484.31,-325.08"/>
<polygon fill="midnightblue" stroke="midnightblue" points="1523.02,-327.88 1532.96,-324.2 1522.89,-320.88 1523.02,-327.88"/>
</g>
<!-- Node5 -->
<g id="node5" class="node">
<title>Node5</title>
<g id="a_node5"><a xlink:href="classdenoptim_1_1programs_1_1moldecularmodelbuilder_1_1_molecular_model_builder.html#ad2e44290de6a861274def677044e9754" target="_top" xlink:title=" ">
<polygon fill="white" stroke="black" points="1071,-313.5 1071,-343.5 1277,-343.5 1277,-313.5 1071,-313.5"/>
<text text-anchor="start" x="1079" y="-331.5" font-family="Helvetica,sans-Serif" font-size="10.00">denoptim.programs.moldecularmodelbuilder.</text>
<text text-anchor="middle" x="1174" y="-320.5" font-family="Helvetica,sans-Serif" font-size="10.00">MolecularModelBuilder.runProgram</text>
</a>
</g>
</g>
<!-- Node4&#45;&gt;Node5 -->
<g id="edge4" class="edge">
<title>Node4&#45;&gt;Node5</title>
<path fill="none" stroke="midnightblue" d="M1315.79,-327.27C1303.13,-327.38 1290.01,-327.5 1277.11,-327.61"/>
<polygon fill="midnightblue" stroke="midnightblue" points="1315.86,-330.77 1325.83,-327.18 1315.8,-323.77 1315.86,-330.77"/>
</g>
<!-- Node7 -->
<g id="node7" class="node">
<title>Node7</title>
<g id="a_node7"><a xlink:href="classdenoptim_1_1combinatorial_1_1_graph_building_task.html#a3eaee724fc921194fa158714aafe182d" target="_top" xlink:title="Calls the task.">
<polygon fill="white" stroke="black" points="872.5,-264.5 872.5,-294.5 1017.5,-294.5 1017.5,-264.5 872.5,-264.5"/>
<text text-anchor="start" x="880.5" y="-282.5" font-family="Helvetica,sans-Serif" font-size="10.00">denoptim.combinatorial.Graph</text>
<text text-anchor="middle" x="945" y="-271.5" font-family="Helvetica,sans-Serif" font-size="10.00">BuildingTask.call</text>
</a>
</g>
</g>
<!-- Node6&#45;&gt;Node7 -->
<g id="edge6" class="edge">
<title>Node6&#45;&gt;Node7</title>
<path fill="none" stroke="midnightblue" d="M1086.18,-279.5C1063.52,-279.5 1039.37,-279.5 1017.61,-279.5"/>
<polygon fill="midnightblue" stroke="midnightblue" points="1086.46,-283 1096.46,-279.5 1086.46,-276 1086.46,-283"/>
</g>
<!-- Node9 -->
<g id="node9" class="node">
<title>Node9</title>
<g id="a_node9"><a xlink:href="classdenoptim_1_1ga_1_1_e_a_utils.html#a8122818f58919fce84dce75e7506025a" target="_top" xlink:title=" ">
<polygon fill="white" stroke="black" points="692,-231.5 692,-261.5 819,-261.5 819,-231.5 692,-231.5"/>
<text text-anchor="start" x="700" y="-249.5" font-family="Helvetica,sans-Serif" font-size="10.00">denoptim.ga.EAUtils.build</text>
<text text-anchor="middle" x="755.5" y="-238.5" font-family="Helvetica,sans-Serif" font-size="10.00">CandidateByMutation</text>
</a>
</g>
</g>
<!-- Node8&#45;&gt;Node9 -->
<g id="edge8" class="edge">
<title>Node8&#45;&gt;Node9</title>
<path fill="none" stroke="midnightblue" d="M876.57,-215.12C856.05,-220.48 833.71,-226.32 813.92,-231.49"/>
<polygon fill="midnightblue" stroke="midnightblue" points="877.68,-218.45 886.47,-212.53 875.91,-211.68 877.68,-218.45"/>
</g>
<!-- Node16 -->
<g id="node16" class="node">
<title>Node16</title>
<g id="a_node16"><a xlink:href="classdenoptim_1_1ga_1_1_e_a_utils.html#ad3d2daeb11e68a356e971ca1846596b5" target="_top" xlink:title=" ">
<polygon fill="white" stroke="black" points="692,-182.5 692,-212.5 819,-212.5 819,-182.5 692,-182.5"/>
<text text-anchor="start" x="700" y="-200.5" font-family="Helvetica,sans-Serif" font-size="10.00">denoptim.ga.EAUtils.build</text>
<text text-anchor="middle" x="755.5" y="-189.5" font-family="Helvetica,sans-Serif" font-size="10.00">CandidateFromScratch</text>
</a>
</g>
</g>
<!-- Node8&#45;&gt;Node16 -->
<g id="edge16" class="edge">
<title>Node8&#45;&gt;Node16</title>
<path fill="none" stroke="midnightblue" d="M869.28,-197.5C852.7,-197.5 835.29,-197.5 819.24,-197.5"/>
<polygon fill="midnightblue" stroke="midnightblue" points="869.47,-201 879.47,-197.5 869.47,-194 869.47,-201"/>
</g>
<!-- Node18 -->
<g id="node18" class="node">
<title>Node18</title>
<g id="a_node18"><a xlink:href="classdenoptim_1_1ga_1_1_e_a_utils.html#a0b958439d79fae30f14530213ad22e3a" target="_top" xlink:title="Generates up to a pair of new offspring by performing a crossover operation.">
<polygon fill="white" stroke="black" points="692,-133.5 692,-163.5 819,-163.5 819,-133.5 692,-133.5"/>
<text text-anchor="start" x="700" y="-151.5" font-family="Helvetica,sans-Serif" font-size="10.00">denoptim.ga.EAUtils.build</text>
<text text-anchor="middle" x="755.5" y="-140.5" font-family="Helvetica,sans-Serif" font-size="10.00">CandidatesByXOver</text>
</a>
</g>
</g>
<!-- Node8&#45;&gt;Node18 -->
<g id="edge21" class="edge">
<title>Node8&#45;&gt;Node18</title>
<path fill="none" stroke="midnightblue" d="M876.57,-179.88C856.05,-174.52 833.71,-168.68 813.92,-163.51"/>
<polygon fill="midnightblue" stroke="midnightblue" points="875.91,-183.32 886.47,-182.47 877.68,-176.55 875.91,-183.32"/>
</g>
<!-- Node10 -->
<g id="node10" class="node">
<title>Node10</title>
<g id="a_node10"><a xlink:href="classdenoptim_1_1ga_1_1_evolutionary_algorithm.html#a0c2e353b243250b4959a3f86608f1020" target="_top" xlink:title="Generates one offspring according to the method where crossover and mutation are decoupled,...">
<polygon fill="white" stroke="black" points="526,-231.5 526,-261.5 656,-261.5 656,-231.5 526,-231.5"/>
<text text-anchor="start" x="534" y="-249.5" font-family="Helvetica,sans-Serif" font-size="10.00">denoptim.ga.Evolutionary</text>
<text text-anchor="middle" x="591" y="-238.5" font-family="Helvetica,sans-Serif" font-size="10.00">Algorithm.makeOffspringA</text>
</a>
</g>
</g>
<!-- Node9&#45;&gt;Node10 -->
<g id="edge9" class="edge">
<title>Node9&#45;&gt;Node10</title>
<path fill="none" stroke="midnightblue" d="M681.42,-246.5C672.94,-246.5 664.34,-246.5 656,-246.5"/>
<polygon fill="midnightblue" stroke="midnightblue" points="681.67,-250 691.67,-246.5 681.67,-243 681.67,-250"/>
</g>
<!-- Node15 -->
<g id="node15" class="node">
<title>Node15</title>
<g id="a_node15"><a xlink:href="classdenoptim_1_1ga_1_1_evolutionary_algorithm.html#ae7a90a911b109ed47b3acf54193acc35" target="_top" xlink:title="Generates one offspring according to the method where crossover and mutation are coupled,...">
<polygon fill="white" stroke="black" points="526,-182.5 526,-212.5 656,-212.5 656,-182.5 526,-182.5"/>
<text text-anchor="start" x="534" y="-200.5" font-family="Helvetica,sans-Serif" font-size="10.00">denoptim.ga.Evolutionary</text>
<text text-anchor="middle" x="591" y="-189.5" font-family="Helvetica,sans-Serif" font-size="10.00">Algorithm.makeOffspringB</text>
</a>
</g>
</g>
<!-- Node9&#45;&gt;Node15 -->
<g id="edge14" class="edge">
<title>Node9&#45;&gt;Node15</title>
<path fill="none" stroke="midnightblue" d="M694.43,-228.39C677.16,-223.18 658.51,-217.55 641.92,-212.55"/>
<polygon fill="midnightblue" stroke="midnightblue" points="693.83,-231.86 704.42,-231.4 695.85,-225.16 693.83,-231.86"/>
</g>
<!-- Node11 -->
<g id="node11" class="node">
<title>Node11</title>
<g id="a_node11"><a xlink:href="classdenoptim_1_1ga_1_1_evolutionary_algorithm.html#a596b2f5f0b097c5b67a6e5163bd6fe66" target="_top" xlink:title="Generates a given number of new candidate items and adds them to the current population.">
<polygon fill="white" stroke="black" points="353,-187.5 353,-217.5 487,-217.5 487,-187.5 353,-187.5"/>
<text text-anchor="start" x="361" y="-205.5" font-family="Helvetica,sans-Serif" font-size="10.00">denoptim.ga.Evolutionary</text>
<text text-anchor="middle" x="420" y="-194.5" font-family="Helvetica,sans-Serif" font-size="10.00">Algorithm.evolvePopulation</text>
</a>
</g>
</g>
<!-- Node10&#45;&gt;Node11 -->
<g id="edge10" class="edge">
<title>Node10&#45;&gt;Node11</title>
<path fill="none" stroke="midnightblue" d="M522.42,-228.91C507.95,-225.14 492.78,-221.19 478.71,-217.53"/>
<polygon fill="midnightblue" stroke="midnightblue" points="521.75,-232.35 532.31,-231.48 523.52,-225.57 521.75,-232.35"/>
</g>
<!-- Node12 -->
<g id="node12" class="node">
<title>Node12</title>
<g id="a_node12"><a xlink:href="classdenoptim_1_1ga_1_1_evolutionary_algorithm.html#a6bfc2fa59b199da6259b5b6bad3d6de7" target="_top" xlink:title=" ">
<polygon fill="white" stroke="black" points="190,-162.5 190,-192.5 314,-192.5 314,-162.5 190,-162.5"/>
<text text-anchor="start" x="198" y="-180.5" font-family="Helvetica,sans-Serif" font-size="10.00">denoptim.ga.Evolutionary</text>
<text text-anchor="middle" x="252" y="-169.5" font-family="Helvetica,sans-Serif" font-size="10.00">Algorithm.run</text>
</a>
</g>
</g>
<!-- Node11&#45;&gt;Node12 -->
<g id="edge11" class="edge">
<title>Node11&#45;&gt;Node12</title>
<path fill="none" stroke="midnightblue" d="M342.9,-191.04C333.21,-189.58 323.41,-188.1 314.01,-186.69"/>
<polygon fill="midnightblue" stroke="midnightblue" points="342.51,-194.52 352.92,-192.55 343.55,-187.6 342.51,-194.52"/>
</g>
<!-- Node13 -->
<g id="node13" class="node">
<title>Node13</title>
<g id="a_node13"><a xlink:href="classdenoptim_1_1ga_1_1_evolutionary_algorithm.html#a0f2063b722b7291daf83d62acaa683d3" target="_top" xlink:title=" ">
<polygon fill="white" stroke="black" points="0,-187.5 0,-217.5 154,-217.5 154,-187.5 0,-187.5"/>
<text text-anchor="start" x="8" y="-205.5" font-family="Helvetica,sans-Serif" font-size="10.00">denoptim.ga.Evolutionary</text>
<text text-anchor="middle" x="77" y="-194.5" font-family="Helvetica,sans-Serif" font-size="10.00">Algorithm.EvolutionaryAlgorithm</text>
</a>
</g>
</g>
<!-- Node12&#45;&gt;Node13 -->
<g id="edge12" class="edge">
<title>Node12&#45;&gt;Node13</title>
<path fill="none" stroke="midnightblue" d="M179.44,-187.84C171.09,-189.05 162.54,-190.28 154.12,-191.5"/>
<polygon fill="midnightblue" stroke="midnightblue" points="180.12,-191.28 189.52,-186.38 179.12,-184.35 180.12,-191.28"/>
</g>
<!-- Node14 -->
<g id="node14" class="node">
<title>Node14</title>
<g id="a_node14"><a xlink:href="classdenoptim_1_1programs_1_1denovo_1_1_g_a_runner.html#a7cafd6d78727b89dce3e2c8d06f0dd7c" target="_top" xlink:title=" ">
<polygon fill="white" stroke="black" points="9.5,-138.5 9.5,-168.5 144.5,-168.5 144.5,-138.5 9.5,-138.5"/>
<text text-anchor="start" x="17.5" y="-156.5" font-family="Helvetica,sans-Serif" font-size="10.00">denoptim.programs.denovo.</text>
<text text-anchor="middle" x="77" y="-145.5" font-family="Helvetica,sans-Serif" font-size="10.00">GARunner.runProgram</text>
</a>
</g>
</g>
<!-- Node12&#45;&gt;Node14 -->
<g id="edge13" class="edge">
<title>Node12&#45;&gt;Node14</title>
<path fill="none" stroke="midnightblue" d="M179.48,-167.58C167.92,-165.97 156,-164.32 144.57,-162.73"/>
<polygon fill="midnightblue" stroke="midnightblue" points="179.13,-171.06 189.52,-168.97 180.1,-164.13 179.13,-171.06"/>
</g>
<!-- Node15&#45;&gt;Node11 -->
<g id="edge15" class="edge">
<title>Node15&#45;&gt;Node11</title>
<path fill="none" stroke="midnightblue" d="M515.48,-199.7C506.05,-199.98 496.45,-200.27 487.16,-200.54"/>
<polygon fill="midnightblue" stroke="midnightblue" points="515.73,-203.2 525.63,-199.4 515.53,-196.2 515.73,-203.2"/>
</g>
<!-- Node16&#45;&gt;Node10 -->
<g id="edge19" class="edge">
<title>Node16&#45;&gt;Node10</title>
<path fill="none" stroke="midnightblue" d="M694.43,-215.61C677.16,-220.82 658.51,-226.45 641.92,-231.45"/>
<polygon fill="midnightblue" stroke="midnightblue" points="695.85,-218.84 704.42,-212.6 693.83,-212.14 695.85,-218.84"/>
</g>
<!-- Node16&#45;&gt;Node15 -->
<g id="edge20" class="edge">
<title>Node16&#45;&gt;Node15</title>
<path fill="none" stroke="midnightblue" d="M681.42,-197.5C672.94,-197.5 664.34,-197.5 656,-197.5"/>
<polygon fill="midnightblue" stroke="midnightblue" points="681.67,-201 691.67,-197.5 681.67,-194 681.67,-201"/>
</g>
<!-- Node17 -->
<g id="node17" class="node">
<title>Node17</title>
<g id="a_node17"><a xlink:href="classdenoptim_1_1ga_1_1_evolutionary_algorithm.html#ad43588620dab3340e0d8b0042ec73618" target="_top" xlink:title="Fills up the population with candidates build from scratch.">
<polygon fill="white" stroke="black" points="350,-138.5 350,-168.5 490,-168.5 490,-138.5 350,-138.5"/>
<text text-anchor="start" x="358" y="-156.5" font-family="Helvetica,sans-Serif" font-size="10.00">denoptim.ga.Evolutionary</text>
<text text-anchor="middle" x="420" y="-145.5" font-family="Helvetica,sans-Serif" font-size="10.00">Algorithm.initializePopulation</text>
</a>
</g>
</g>
<!-- Node16&#45;&gt;Node17 -->
<g id="edge17" class="edge">
<title>Node16&#45;&gt;Node17</title>
<path fill="none" stroke="midnightblue" d="M689.3,-180.12C678.25,-177.6 666.84,-175.27 656,-173.5 600.64,-164.45 537.23,-159.36 490.24,-156.58"/>
<polygon fill="midnightblue" stroke="midnightblue" points="688.79,-183.6 699.33,-182.47 690.39,-176.78 688.79,-183.6"/>
</g>
<!-- Node17&#45;&gt;Node12 -->
<g id="edge18" class="edge">
<title>Node17&#45;&gt;Node12</title>
<path fill="none" stroke="midnightblue" d="M339.6,-164.98C331.08,-166.21 322.5,-167.45 314.24,-168.65"/>
<polygon fill="midnightblue" stroke="midnightblue" points="340.17,-168.43 349.56,-163.54 339.16,-161.51 340.17,-168.43"/>
</g>
<!-- Node20 -->
<g id="node20" class="node">
<title>Node20</title>
<g id="a_node20"><a xlink:href="classdenoptim_1_1graph_1_1rings_1_1_path_closability_tools.html#afa3b0160942d2da725db2930fc58a296" target="_top" xlink:title="Method to evaluate the closability of a single path in a graph.">
<polygon fill="white" stroke="black" points="1559.5,-163.5 1559.5,-193.5 1696.5,-193.5 1696.5,-163.5 1559.5,-163.5"/>
<text text-anchor="start" x="1567.5" y="-181.5" font-family="Helvetica,sans-Serif" font-size="10.00">denoptim.graph.rings.Path</text>
<text text-anchor="middle" x="1628" y="-170.5" font-family="Helvetica,sans-Serif" font-size="10.00">ClosabilityTools.isCloseable</text>
</a>
</g>
</g>
<!-- Node19&#45;&gt;Node20 -->
<g id="edge23" class="edge">
<title>Node19&#45;&gt;Node20</title>
<path fill="none" stroke="midnightblue" d="M1768.35,-202.31C1744.17,-198.18 1718.92,-193.86 1696.66,-190.06"/>
<polygon fill="midnightblue" stroke="midnightblue" points="1767.82,-205.77 1778.27,-204 1769,-198.87 1767.82,-205.77"/>
</g>
<!-- Node21 -->
<g id="node21" class="node">
<title>Node21</title>
<g id="a_node21"><a xlink:href="classdenoptim_1_1graph_1_1rings_1_1_cyclic_graph_handler.html#a3ce96322723f45d9285a248ebcef94d3" target="_top" xlink:title="Identifies all possible ring closing paths and returns them as list of DENOPTIMRings ready to be appe...">
<polygon fill="white" stroke="black" points="1313,-166 1313,-207 1497,-207 1497,-166 1313,-166"/>
<text text-anchor="start" x="1321" y="-195" font-family="Helvetica,sans-Serif" font-size="10.00">denoptim.graph.rings.Cyclic</text>
<text text-anchor="start" x="1321" y="-184" font-family="Helvetica,sans-Serif" font-size="10.00">GraphHandler.getPossibleCombination</text>
<text text-anchor="middle" x="1405" y="-173" font-family="Helvetica,sans-Serif" font-size="10.00">OfRings</text>
</a>
</g>
</g>
<!-- Node20&#45;&gt;Node21 -->
<g id="edge24" class="edge">
<title>Node20&#45;&gt;Node21</title>
<path fill="none" stroke="midnightblue" d="M1549.17,-181.32C1532.34,-181.93 1514.4,-182.58 1497.11,-183.2"/>
<polygon fill="midnightblue" stroke="midnightblue" points="1549.63,-184.8 1559.49,-180.94 1549.37,-177.81 1549.63,-184.8"/>
</g>
<!-- Node22 -->
<g id="node22" class="node">
<title>Node22</title>
<g id="a_node22"><a xlink:href="classdenoptim_1_1graph_1_1rings_1_1_random_comb_of_rings_iterator.html#a19576eb954cf002962af02f60a24c57e" target="_top" xlink:title=" ">
<polygon fill="white" stroke="black" points="1333,-117.5 1333,-147.5 1477,-147.5 1477,-117.5 1333,-117.5"/>
<text text-anchor="start" x="1341" y="-135.5" font-family="Helvetica,sans-Serif" font-size="10.00">denoptim.graph.rings.Random</text>
<text text-anchor="middle" x="1405" y="-124.5" font-family="Helvetica,sans-Serif" font-size="10.00">CombOfRingsIterator.next</text>
</a>
</g>
</g>
<!-- Node20&#45;&gt;Node22 -->
<g id="edge27" class="edge">
<title>Node20&#45;&gt;Node22</title>
<path fill="none" stroke="midnightblue" d="M1549.57,-162.38C1526.08,-157.49 1500.38,-152.15 1477.31,-147.34"/>
<polygon fill="midnightblue" stroke="midnightblue" points="1548.99,-165.84 1559.49,-164.45 1550.41,-158.98 1548.99,-165.84"/>
</g>
<!-- Node28 -->
<g id="node28" class="node">
<title>Node28</title>
<g id="a_node28"><a xlink:href="classdenoptim_1_1graph_1_1rings_1_1_path_closability_tools_test.html#af991094bf8c17599150d2e43ea582cf9" target="_top" xlink:title=" ">
<polygon fill="white" stroke="black" points="1324.5,-58 1324.5,-99 1485.5,-99 1485.5,-58 1324.5,-58"/>
<text text-anchor="start" x="1332.5" y="-87" font-family="Helvetica,sans-Serif" font-size="10.00">denoptim.graph.rings.Path</text>
<text text-anchor="start" x="1332.5" y="-76" font-family="Helvetica,sans-Serif" font-size="10.00">ClosabilityToolsTest.testEvaluate</text>
<text text-anchor="middle" x="1405" y="-65" font-family="Helvetica,sans-Serif" font-size="10.00">ConstitutionalClosability</text>
</a>
</g>
</g>
<!-- Node20&#45;&gt;Node28 -->
<g id="edge34" class="edge">
<title>Node20&#45;&gt;Node28</title>
<path fill="none" stroke="midnightblue" d="M1571.12,-159.74C1558.16,-154.36 1544.74,-147.91 1533,-140.5 1514.65,-128.91 1515.78,-118.38 1497,-107.5 1491.69,-104.42 1486.02,-101.63 1480.19,-99.1"/>
<polygon fill="midnightblue" stroke="midnightblue" points="1569.86,-163 1580.45,-163.46 1572.46,-156.5 1569.86,-163"/>
</g>
<!-- Node21&#45;&gt;Node6 -->
<g id="edge25" class="edge">
<title>Node21&#45;&gt;Node6</title>
<path fill="none" stroke="midnightblue" d="M1343.95,-210.89C1302.21,-227.84 1247.88,-249.9 1212.25,-264.37"/>
<polygon fill="midnightblue" stroke="midnightblue" points="1345.51,-214.03 1353.46,-207.02 1342.88,-207.54 1345.51,-214.03"/>
</g>
<!-- Node21&#45;&gt;Node8 -->
<g id="edge26" class="edge">
<title>Node21&#45;&gt;Node8</title>
<path fill="none" stroke="midnightblue" d="M1302.84,-188.93C1213.75,-191.07 1086.67,-194.12 1010.65,-195.95"/>
<polygon fill="midnightblue" stroke="midnightblue" points="1303.05,-192.43 1312.97,-188.69 1302.89,-185.43 1303.05,-192.43"/>
</g>
<!-- Node23 -->
<g id="node23" class="node">
<title>Node23</title>
<g id="a_node23"><a xlink:href="classdenoptim_1_1ga_1_1_graph_operations.html#add74b865c897144437bf30e3734edf01" target="_top" xlink:title="Tries to use any free AP of the given vertex to close ring in the graph by adding a chord.">
<polygon fill="white" stroke="black" points="1083,-30 1083,-49 1265,-49 1265,-30 1083,-30"/>
<text text-anchor="middle" x="1174" y="-37" font-family="Helvetica,sans-Serif" font-size="10.00">denoptim.ga.GraphOperations.addRing</text>
</a>
</g>
</g>
<!-- Node22&#45;&gt;Node23 -->
<g id="edge28" class="edge">
<title>Node22&#45;&gt;Node23</title>
<path fill="none" stroke="midnightblue" d="M1323.48,-114.71C1319.83,-112.84 1316.31,-110.78 1313,-108.5 1290.44,-92.99 1300.12,-73.17 1277,-58.5 1270.92,-54.64 1264.24,-51.52 1257.31,-49.01"/>
<polygon fill="midnightblue" stroke="midnightblue" points="1322.24,-117.99 1332.79,-118.95 1325.15,-111.62 1322.24,-117.99"/>
</g>
<!-- Node26 -->
<g id="node26" class="node">
<title>Node26</title>
<g id="a_node26"><a xlink:href="classdenoptim_1_1graph_1_1rings_1_1_cyclic_graph_handler.html#a08b02946eaac7c2cbbe6e71332d702e6" target="_top" xlink:title="Identifies a random combination of ring closing paths and returns it as list of DENOPTIMRings ready t...">
<polygon fill="white" stroke="black" points="1083,-128 1083,-169 1265,-169 1265,-128 1083,-128"/>
<text text-anchor="start" x="1091" y="-157" font-family="Helvetica,sans-Serif" font-size="10.00">denoptim.graph.rings.Cyclic</text>
<text text-anchor="start" x="1091" y="-146" font-family="Helvetica,sans-Serif" font-size="10.00">GraphHandler.getRandomCombination</text>
<text text-anchor="middle" x="1174" y="-135" font-family="Helvetica,sans-Serif" font-size="10.00">OfRings</text>
</a>
</g>
</g>
<!-- Node22&#45;&gt;Node26 -->
<g id="edge31" class="edge">
<title>Node22&#45;&gt;Node26</title>
<path fill="none" stroke="midnightblue" d="M1322.61,-138.19C1304,-139.49 1284.12,-140.88 1265.17,-142.2"/>
<polygon fill="midnightblue" stroke="midnightblue" points="1323.07,-141.66 1332.8,-137.47 1322.58,-134.68 1323.07,-141.66"/>
</g>
<!-- Node27 -->
<g id="node27" class="node">
<title>Node27</title>
<g id="a_node27"><a xlink:href="classdenoptim_1_1graph_1_1rings_1_1_random_comb_of_ring_iterator_test.html#a4a178f479d08c120f5fea6ef60feac8b" target="_top" xlink:title=" ">
<polygon fill="white" stroke="black" points="1084.5,-68 1084.5,-109 1263.5,-109 1263.5,-68 1084.5,-68"/>
<text text-anchor="start" x="1092.5" y="-97" font-family="Helvetica,sans-Serif" font-size="10.00">denoptim.graph.rings.Random</text>
<text text-anchor="start" x="1092.5" y="-86" font-family="Helvetica,sans-Serif" font-size="10.00">CombOfRingIteratorTest.testEvaluate</text>
<text text-anchor="middle" x="1174" y="-75" font-family="Helvetica,sans-Serif" font-size="10.00">ConstitutionalClosability</text>
</a>
</g>
</g>
<!-- Node22&#45;&gt;Node27 -->
<g id="edge33" class="edge">
<title>Node22&#45;&gt;Node27</title>
<path fill="none" stroke="midnightblue" d="M1322.88,-116.91C1303.66,-113.22 1283.06,-109.26 1263.52,-105.51"/>
<polygon fill="midnightblue" stroke="midnightblue" points="1322.32,-120.37 1332.8,-118.82 1323.64,-113.5 1322.32,-120.37"/>
</g>
<!-- Node24 -->
<g id="node24" class="node">
<title>Node24</title>
<g id="a_node24"><a xlink:href="classdenoptim_1_1ga_1_1_graph_operations.html#a0c851972015fbb4b2a317b053b8b81d9" target="_top" xlink:title="Mutates the given vertex according to the given mutation type, if possible.">
<polygon fill="white" stroke="black" points="855,-49.5 855,-79.5 1035,-79.5 1035,-49.5 855,-49.5"/>
<text text-anchor="start" x="863" y="-67.5" font-family="Helvetica,sans-Serif" font-size="10.00">denoptim.ga.GraphOperations.perform</text>
<text text-anchor="middle" x="945" y="-56.5" font-family="Helvetica,sans-Serif" font-size="10.00">Mutation</text>
</a>
</g>
</g>
<!-- Node23&#45;&gt;Node24 -->
<g id="edge29" class="edge">
<title>Node23&#45;&gt;Node24</title>
<path fill="none" stroke="midnightblue" d="M1076.21,-50.16C1062.61,-51.66 1048.69,-53.19 1035.24,-54.67"/>
<polygon fill="midnightblue" stroke="midnightblue" points="1076.98,-53.6 1086.53,-49.02 1076.21,-46.64 1076.98,-53.6"/>
</g>
<!-- Node25 -->
<g id="node25" class="node">
<title>Node25</title>
<g id="a_node25"><a xlink:href="classdenoptim_1_1ga_1_1_graph_operations_test.html#af86b79061d15a4d2e3d7ccdf0d758f44" target="_top" xlink:title=" ">
<polygon fill="white" stroke="black" points="872.5,-0.5 872.5,-30.5 1017.5,-30.5 1017.5,-0.5 872.5,-0.5"/>
<text text-anchor="start" x="880.5" y="-18.5" font-family="Helvetica,sans-Serif" font-size="10.00">denoptim.ga.GraphOperations</text>
<text text-anchor="middle" x="945" y="-7.5" font-family="Helvetica,sans-Serif" font-size="10.00">Test.testAddRing</text>
</a>
</g>
</g>
<!-- Node23&#45;&gt;Node25 -->
<g id="edge30" class="edge">
<title>Node23&#45;&gt;Node25</title>
<path fill="none" stroke="midnightblue" d="M1072.99,-28.93C1054.38,-26.96 1035.29,-24.94 1017.74,-23.08"/>
<polygon fill="midnightblue" stroke="midnightblue" points="1072.64,-32.41 1082.96,-29.98 1073.38,-25.45 1072.64,-32.41"/>
</g>
<!-- Node26&#45;&gt;Node8 -->
<g id="edge32" class="edge">
<title>Node26&#45;&gt;Node8</title>
<path fill="none" stroke="midnightblue" d="M1072.99,-170.09C1051.87,-174.65 1030.13,-179.34 1010.73,-183.53"/>
<polygon fill="midnightblue" stroke="midnightblue" points="1073.92,-173.47 1082.96,-167.94 1072.44,-166.63 1073.92,-173.47"/>
</g>
<!-- Node30&#45;&gt;Node3 -->
<g id="edge37" class="edge">
<title>Node30&#45;&gt;Node3</title>
<path fill="none" stroke="midnightblue" d="M1748.73,-322.5C1740.11,-322.5 1731.5,-322.5 1723.06,-322.5"/>
<polygon fill="midnightblue" stroke="midnightblue" points="1748.83,-326 1758.83,-322.5 1748.83,-319 1748.83,-326"/>
</g>
<!-- Node32 -->
<g id="node32" class="node">
<title>Node32</title>
<g id="a_node32"><a xlink:href="classdenoptim_1_1programs_1_1fragmenter_1_1_matched_bond.html#a2bf2fb6eb5b31a9fa4bf1086c420052e" target="_top" xlink:title="Checks if this bond satisfies all the option of the cutting rule.">
<polygon fill="white" stroke="black" points="1544,-101.5 1544,-131.5 1712,-131.5 1712,-101.5 1544,-101.5"/>
<text text-anchor="start" x="1552" y="-119.5" font-family="Helvetica,sans-Serif" font-size="10.00">denoptim.programs.fragmenter.</text>
<text text-anchor="middle" x="1628" y="-108.5" font-family="Helvetica,sans-Serif" font-size="10.00">MatchedBond.satisfiesRuleOptions</text>
</a>
</g>
</g>
<!-- Node31&#45;&gt;Node32 -->
<g id="edge39" class="edge">
<title>Node31&#45;&gt;Node32</title>
<path fill="none" stroke="midnightblue" d="M1784.43,-116.5C1760.97,-116.5 1735.53,-116.5 1712.15,-116.5"/>
<polygon fill="midnightblue" stroke="midnightblue" points="1784.71,-120 1794.71,-116.5 1784.71,-113 1784.71,-120"/>
</g>
</g>
</svg>
        <g id="navigator" transform="translate(0 0)" fill="#404254">
                <rect fill="#f2f5e9" fill-opacity="0.5" stroke="#606060" stroke-width=".5" x="0" y="0" width="60" height="60"/>
                <use id="zoomplus" xlink:href="#zoomPlus" x="17" y="9" onmousedown="handleZoom(evt,'in')"/>
                <use id="zoomminus" xlink:href="#zoomMin" x="42" y="9" onmousedown="handleZoom(evt,'out')"/>
                <use id="reset" xlink:href="#resetDef" x="30" y="36" onmousedown="handleReset()"/>
                <g id="arrowUp" xlink:href="#dirArrow" transform="translate(30 24)" onmousedown="handlePan(0,-1)">
                  <use xlink:href="#rim" fill="#404040">
                        <set attributeName="fill" to="#808080" begin="arrowUp.mouseover" end="arrowUp.mouseout"/>
                  </use>
                  <path fill="none" stroke="white" stroke-width="1.5" d="M0,-3.0v7 M-2.5,-0.5L0,-3.0L2.5,-0.5"/>
                </g>
                <g id="arrowRight" xlink:href="#dirArrow" transform="rotate(90) translate(36 -43)" onmousedown="handlePan(1,0)">
                  <use xlink:href="#rim" fill="#404040">
                        <set attributeName="fill" to="#808080" begin="arrowRight.mouseover" end="arrowRight.mouseout"/>
                  </use>
                  <path fill="none" stroke="white" stroke-width="1.5" d="M0,-3.0v7 M-2.5,-0.5L0,-3.0L2.5,-0.5"/>
                </g>
                <g id="arrowDown" xlink:href="#dirArrow" transform="rotate(180) translate(-30 -48)" onmousedown="handlePan(0,1)">
                  <use xlink:href="#rim" fill="#404040">
                        <set attributeName="fill" to="#808080" begin="arrowDown.mouseover" end="arrowDown.mouseout"/>
                  </use>
                  <path fill="none" stroke="white" stroke-width="1.5" d="M0,-3.0v7 M-2.5,-0.5L0,-3.0L2.5,-0.5"/>
                </g>
                <g id="arrowLeft" xlink:href="#dirArrow" transform="rotate(270) translate(-36 17)" onmousedown="handlePan(-1,0)">
                  <use xlink:href="#rim" fill="#404040">
                        <set attributeName="fill" to="#808080" begin="arrowLeft.mouseover" end="arrowLeft.mouseout"/>
                  </use>
                  <path fill="none" stroke="white" stroke-width="1.5" d="M0,-3.0v7 M-2.5,-0.5L0,-3.0L2.5,-0.5"/>
                </g>
        </g>
        <svg viewBox="0 0 15 15" width="100%" height="30px" preserveAspectRatio="xMaxYMin meet">
         <g id="arrow_out" transform="scale(0.3 0.3)">
          <a xlink:href="classdenoptim_1_1utils_1_1_many_s_m_a_r_t_s_query_aea287dfe72ffc150250c8180706289bd_icgraph_org.svg" target="_base">
           <rect id="button" ry="5" rx="5" y="6" x="6" height="38" width="38"
                fill="#f2f5e9" fill-opacity="0.5" stroke="#606060" stroke-width="1.0"/>
           <path id="arrow"
             d="M 11.500037,31.436501 C 11.940474,20.09759 22.043105,11.32322 32.158766,21.979434 L 37.068811,17.246167 C 37.068811,17.246167 37.088388,32 37.088388,32 L 22.160133,31.978069 C 22.160133,31.978069 26.997745,27.140456 26.997745,27.140456 C 18.528582,18.264221 13.291696,25.230495 11.500037,31.436501 z"
             style="fill:#404040;"/>
          </a>
         </g>
        </svg>
</svg>
