<?xml version="1.0" encoding="UTF-8" standalone="no"?>
<!DOCTYPE svg PUBLIC "-//W3C//DTD SVG 1.1//EN"
 "http://www.w3.org/Graphics/SVG/1.1/DTD/svg11.dtd">
<!-- Generated by graphviz version 3.0.0 (20221109.1736)
 -->
<!-- Title: denoptim.fragspace.FragmentSpace.appendVertexToLibrary Pages: 1 -->
<svg width="1013pt" height="1714pt"
 viewBox="0.00 0.00 1013.00 1714.00" xmlns="http://www.w3.org/2000/svg" xmlns:xlink="http://www.w3.org/1999/xlink">
<g id="graph0" class="graph" transform="scale(1 1) rotate(0) translate(4 1710)">
<title>denoptim.fragspace.FragmentSpace.appendVertexToLibrary</title>
<polygon fill="white" stroke="transparent" points="-4,4 -4,-1710 1009,-1710 1009,4 -4,4"/>
<!-- Node1 -->
<g id="node1" class="node">
<title>Node1</title>
<g id="a_node1"><a xlink:title="Takes a vertex and add it to a given library.">
<polygon fill="#bfbfbf" stroke="black" points="859,-1291.5 859,-1321.5 1005,-1321.5 1005,-1291.5 859,-1291.5"/>
<text text-anchor="start" x="867" y="-1309.5" font-family="Helvetica,sans-Serif" font-size="10.00">denoptim.fragspace.Fragment</text>
<text text-anchor="middle" x="932" y="-1298.5" font-family="Helvetica,sans-Serif" font-size="10.00">Space.appendVertexToLibrary</text>
</a>
</g>
</g>
<!-- Node2 -->
<g id="node2" class="node">
<title>Node2</title>
<g id="a_node2"><a xlink:href="classdenoptim_1_1fragspace_1_1_fragment_space.html#a32b0be109306e9c81fc830867296bc66" target="_top" xlink:title="Extracts a system of one or more fused rings and adds them to the fragment space if not already prese...">
<polygon fill="white" stroke="black" points="627,-1626.5 627,-1656.5 823,-1656.5 823,-1626.5 627,-1626.5"/>
<text text-anchor="start" x="635" y="-1644.5" font-family="Helvetica,sans-Serif" font-size="10.00">denoptim.fragspace.Fragment</text>
<text text-anchor="middle" x="725" y="-1633.5" font-family="Helvetica,sans-Serif" font-size="10.00">Space.addFusedRingsToFragmentLibrary</text>
</a>
</g>
</g>
<!-- Node1&#45;&gt;Node2 -->
<g id="edge1" class="edge">
<title>Node1&#45;&gt;Node2</title>
<path fill="none" stroke="midnightblue" d="M930,-1331.8C926.22,-1391.06 908.29,-1539.69 823,-1617.5 819.28,-1620.89 815.16,-1623.82 810.78,-1626.35"/>
<polygon fill="midnightblue" stroke="midnightblue" points="933.51,-1331.68 930.56,-1321.5 926.52,-1331.3 933.51,-1331.68"/>
</g>
<!-- Node3 -->
<g id="node3" class="node">
<title>Node3</title>
<g id="a_node3"><a xlink:href="classdenoptim_1_1fragspace_1_1_fragment_space.html#a595ddccfe052fff28e9d79f721d816b9" target="_top" xlink:title="Takes a list of vertices and add them to a given library.">
<polygon fill="white" stroke="black" points="647.5,-1577.5 647.5,-1607.5 802.5,-1607.5 802.5,-1577.5 647.5,-1577.5"/>
<text text-anchor="start" x="655.5" y="-1595.5" font-family="Helvetica,sans-Serif" font-size="10.00">denoptim.fragspace.Fragment</text>
<text text-anchor="middle" x="725" y="-1584.5" font-family="Helvetica,sans-Serif" font-size="10.00">Space.appendVerticesToLibrary</text>
</a>
</g>
</g>
<!-- Node1&#45;&gt;Node3 -->
<g id="edge2" class="edge">
<title>Node1&#45;&gt;Node3</title>
<path fill="none" stroke="midnightblue" d="M913.97,-1330.26C873.12,-1387.26 770.43,-1530.52 736.83,-1577.39"/>
<polygon fill="midnightblue" stroke="midnightblue" points="917,-1332.04 919.98,-1321.88 911.31,-1327.97 917,-1332.04"/>
</g>
<!-- Node9 -->
<g id="node9" class="node">
<title>Node9</title>
<g id="a_node9"><a xlink:href="classdenoptim_1_1fragspace_1_1_graph_link_finder_test.html#a5703166de7261111b98b40fce0c9fad6" target="_top" xlink:title=" ">
<polygon fill="white" stroke="black" points="660,-1379.5 660,-1409.5 790,-1409.5 790,-1379.5 660,-1379.5"/>
<text text-anchor="start" x="668" y="-1397.5" font-family="Helvetica,sans-Serif" font-size="10.00">denoptim.fragspace.Graph</text>
<text text-anchor="middle" x="725" y="-1386.5" font-family="Helvetica,sans-Serif" font-size="10.00">LinkFinderTest.prepare</text>
</a>
</g>
</g>
<!-- Node1&#45;&gt;Node9 -->
<g id="edge10" class="edge">
<title>Node1&#45;&gt;Node9</title>
<path fill="none" stroke="midnightblue" d="M886.56,-1325.58C848.95,-1341.72 795.8,-1364.54 761.12,-1379.42"/>
<polygon fill="midnightblue" stroke="midnightblue" points="887.95,-1328.79 895.76,-1321.63 885.19,-1322.36 887.95,-1328.79"/>
</g>
<!-- Node17 -->
<g id="node17" class="node">
<title>Node17</title>
<g id="a_node17"><a xlink:href="classdenoptim_1_1ga_1_1_e_a_utils_test.html#a2d248a6e73decf7665c6d1b1d6971e84" target="_top" xlink:title=" ">
<polygon fill="white" stroke="black" points="646,-1231 646,-1250 804,-1250 804,-1231 646,-1231"/>
<text text-anchor="middle" x="725" y="-1238" font-family="Helvetica,sans-Serif" font-size="10.00">denoptim.ga.EAUtilsTest.prepare</text>
</a>
</g>
</g>
<!-- Node1&#45;&gt;Node17 -->
<g id="edge22" class="edge">
<title>Node1&#45;&gt;Node17</title>
<path fill="none" stroke="midnightblue" d="M874.7,-1288.38C836.25,-1275.99 786.82,-1260.08 755.76,-1250.08"/>
<polygon fill="midnightblue" stroke="midnightblue" points="873.63,-1291.71 884.23,-1291.44 875.78,-1285.04 873.63,-1291.71"/>
</g>
<!-- Node20 -->
<g id="node20" class="node">
<title>Node20</title>
<g id="a_node20"><a xlink:href="classdenoptim_1_1graph_1_1_d_graph_test.html#a973ecea761d5353163750c8c82f41ac2" target="_top" xlink:title=" ">
<polygon fill="white" stroke="black" points="639,-619 639,-638 811,-638 811,-619 639,-619"/>
<text text-anchor="middle" x="725" y="-626" font-family="Helvetica,sans-Serif" font-size="10.00">denoptim.graph.DGraphTest.prepare</text>
</a>
</g>
</g>
<!-- Node1&#45;&gt;Node20 -->
<g id="edge25" class="edge">
<title>Node1&#45;&gt;Node20</title>
<path fill="none" stroke="midnightblue" d="M923.48,-1281.61C889.49,-1169.22 751.03,-711.27 728.97,-638.32"/>
<polygon fill="midnightblue" stroke="midnightblue" points="920.19,-1282.83 926.43,-1291.39 926.89,-1280.8 920.19,-1282.83"/>
</g>
<!-- Node45 -->
<g id="node45" class="node">
<title>Node45</title>
<g id="a_node45"><a xlink:href="classdenoptim_1_1fragspace_1_1_fragment_space_test.html#a692723b803a64dd25e775b2f8726fe27" target="_top" xlink:title="Works with this graph:">
<polygon fill="white" stroke="black" points="632.5,-559 632.5,-600 817.5,-600 817.5,-559 632.5,-559"/>
<text text-anchor="start" x="640.5" y="-588" font-family="Helvetica,sans-Serif" font-size="10.00">denoptim.fragspace.Fragment</text>
<text text-anchor="start" x="640.5" y="-577" font-family="Helvetica,sans-Serif" font-size="10.00">SpaceTest.testUseWholeMolGeometry</text>
<text text-anchor="middle" x="725" y="-566" font-family="Helvetica,sans-Serif" font-size="10.00">ForExtractedTemplates</text>
</a>
</g>
</g>
<!-- Node1&#45;&gt;Node45 -->
<g id="edge50" class="edge">
<title>Node1&#45;&gt;Node45</title>
<path fill="none" stroke="midnightblue" d="M930.55,-1281.11C928.07,-1168.27 912.55,-713.21 823,-609.5 820,-606.03 816.62,-602.96 812.95,-600.23"/>
<polygon fill="midnightblue" stroke="midnightblue" points="927.06,-1281.29 930.76,-1291.22 934.06,-1281.15 927.06,-1281.29"/>
</g>
<!-- Node4 -->
<g id="node4" class="node">
<title>Node4</title>
<g id="a_node4"><a xlink:href="classdenoptim_1_1fragspace_1_1_fragment_space.html#abbd24a68393f1849c2d742f944c1c348" target="_top" xlink:title=" ">
<polygon fill="white" stroke="black" points="416.5,-1675.5 416.5,-1705.5 561.5,-1705.5 561.5,-1675.5 416.5,-1675.5"/>
<text text-anchor="start" x="424.5" y="-1693.5" font-family="Helvetica,sans-Serif" font-size="10.00">denoptim.fragspace.Fragment</text>
<text text-anchor="middle" x="489" y="-1682.5" font-family="Helvetica,sans-Serif" font-size="10.00">Space.setCappingLibrary</text>
</a>
</g>
</g>
<!-- Node3&#45;&gt;Node4 -->
<g id="edge3" class="edge">
<title>Node3&#45;&gt;Node4</title>
<path fill="none" stroke="midnightblue" d="M638,-1611.08C634.18,-1613.01 630.48,-1615.14 627,-1617.5 604.62,-1632.64 613.53,-1651.57 591,-1666.5 582.14,-1672.37 571.99,-1676.82 561.63,-1680.17"/>
<polygon fill="midnightblue" stroke="midnightblue" points="639.5,-1614.24 647.15,-1606.92 636.6,-1607.87 639.5,-1614.24"/>
</g>
<!-- Node7 -->
<g id="node7" class="node">
<title>Node7</title>
<g id="a_node7"><a xlink:href="classdenoptim_1_1fragspace_1_1_fragment_space.html#a5f1ddd58bd4295a9d9d0cf867f3f6914" target="_top" xlink:title=" ">
<polygon fill="white" stroke="black" points="416.5,-1626.5 416.5,-1656.5 561.5,-1656.5 561.5,-1626.5 416.5,-1626.5"/>
<text text-anchor="start" x="424.5" y="-1644.5" font-family="Helvetica,sans-Serif" font-size="10.00">denoptim.fragspace.Fragment</text>
<text text-anchor="middle" x="489" y="-1633.5" font-family="Helvetica,sans-Serif" font-size="10.00">Space.setFragmentLibrary</text>
</a>
</g>
</g>
<!-- Node3&#45;&gt;Node7 -->
<g id="edge6" class="edge">
<title>Node3&#45;&gt;Node7</title>
<path fill="none" stroke="midnightblue" d="M642.28,-1609.61C616.02,-1615.11 587.14,-1621.16 561.66,-1626.49"/>
<polygon fill="midnightblue" stroke="midnightblue" points="643.13,-1613.01 652.2,-1607.53 641.7,-1606.16 643.13,-1613.01"/>
</g>
<!-- Node8 -->
<g id="node8" class="node">
<title>Node8</title>
<g id="a_node8"><a xlink:href="classdenoptim_1_1fragspace_1_1_fragment_space.html#a26482f3889e4ad9b334784687df2fa18" target="_top" xlink:title=" ">
<polygon fill="white" stroke="black" points="416.5,-1577.5 416.5,-1607.5 561.5,-1607.5 561.5,-1577.5 416.5,-1577.5"/>
<text text-anchor="start" x="424.5" y="-1595.5" font-family="Helvetica,sans-Serif" font-size="10.00">denoptim.fragspace.Fragment</text>
<text text-anchor="middle" x="489" y="-1584.5" font-family="Helvetica,sans-Serif" font-size="10.00">Space.setScaffoldLibrary</text>
</a>
</g>
</g>
<!-- Node3&#45;&gt;Node8 -->
<g id="edge8" class="edge">
<title>Node3&#45;&gt;Node8</title>
<path fill="none" stroke="midnightblue" d="M637.22,-1592.5C612.34,-1592.5 585.5,-1592.5 561.63,-1592.5"/>
<polygon fill="midnightblue" stroke="midnightblue" points="637.38,-1596 647.38,-1592.5 637.38,-1589 637.38,-1596"/>
</g>
<!-- Node5 -->
<g id="node5" class="node">
<title>Node5</title>
<g id="a_node5"><a xlink:href="classdenoptim_1_1fragspace_1_1_fragment_space.html#a4792b534137a7989aab4ab2237d12438" target="_top" xlink:title="Define all components of this fragment space.">
<polygon fill="white" stroke="black" points="193.5,-1626.5 193.5,-1656.5 338.5,-1656.5 338.5,-1626.5 193.5,-1626.5"/>
<text text-anchor="start" x="201.5" y="-1644.5" font-family="Helvetica,sans-Serif" font-size="10.00">denoptim.fragspace.Fragment</text>
<text text-anchor="middle" x="266" y="-1633.5" font-family="Helvetica,sans-Serif" font-size="10.00">Space.define</text>
</a>
</g>
</g>
<!-- Node4&#45;&gt;Node5 -->
<g id="edge4" class="edge">
<title>Node4&#45;&gt;Node5</title>
<path fill="none" stroke="midnightblue" d="M410.16,-1673.24C385.54,-1667.78 358.53,-1661.79 334.68,-1656.51"/>
<polygon fill="midnightblue" stroke="midnightblue" points="409.67,-1676.72 420.19,-1675.47 411.19,-1669.88 409.67,-1676.72"/>
</g>
<!-- Node6 -->
<g id="node6" class="node">
<title>Node6</title>
<g id="a_node6"><a xlink:href="classdenoptim_1_1fragspace_1_1_fragment_space.html#ad10ece408a10dbb06fa5d75747ae1fbb" target="_top" xlink:title="Define all components of a fragment space that implements the attachment point class&#45;approach.">
<polygon fill="white" stroke="black" points="0,-1626.5 0,-1656.5 145,-1656.5 145,-1626.5 0,-1626.5"/>
<text text-anchor="start" x="8" y="-1644.5" font-family="Helvetica,sans-Serif" font-size="10.00">denoptim.fragspace.Fragment</text>
<text text-anchor="middle" x="72.5" y="-1633.5" font-family="Helvetica,sans-Serif" font-size="10.00">Space.FragmentSpace</text>
</a>
</g>
</g>
<!-- Node5&#45;&gt;Node6 -->
<g id="edge5" class="edge">
<title>Node5&#45;&gt;Node6</title>
<path fill="none" stroke="midnightblue" d="M183.36,-1641.5C170.71,-1641.5 157.73,-1641.5 145.31,-1641.5"/>
<polygon fill="midnightblue" stroke="midnightblue" points="183.42,-1645 193.42,-1641.5 183.42,-1638 183.42,-1645"/>
</g>
<!-- Node7&#45;&gt;Node5 -->
<g id="edge7" class="edge">
<title>Node7&#45;&gt;Node5</title>
<path fill="none" stroke="midnightblue" d="M406.21,-1641.5C384.08,-1641.5 360.3,-1641.5 338.77,-1641.5"/>
<polygon fill="midnightblue" stroke="midnightblue" points="406.25,-1645 416.25,-1641.5 406.25,-1638 406.25,-1645"/>
</g>
<!-- Node8&#45;&gt;Node5 -->
<g id="edge9" class="edge">
<title>Node8&#45;&gt;Node5</title>
<path fill="none" stroke="midnightblue" d="M410.16,-1609.76C385.54,-1615.22 358.53,-1621.21 334.68,-1626.49"/>
<polygon fill="midnightblue" stroke="midnightblue" points="411.19,-1613.12 420.19,-1607.53 409.67,-1606.28 411.19,-1613.12"/>
</g>
<!-- Node10 -->
<g id="node10" class="node">
<title>Node10</title>
<g id="a_node10"><a xlink:href="classdenoptim_1_1fragspace_1_1_graph_link_finder_test.html#a586ff58307127b487068fe2aa5e43359" target="_top" xlink:title="Creates a test graph that looks like this: v0(A)&#45;(A)v1(B)&#45;(B)v2.">
<polygon fill="white" stroke="black" points="408.5,-1489.5 408.5,-1519.5 569.5,-1519.5 569.5,-1489.5 408.5,-1489.5"/>
<text text-anchor="start" x="416.5" y="-1507.5" font-family="Helvetica,sans-Serif" font-size="10.00">denoptim.fragspace.Graph</text>
<text text-anchor="middle" x="489" y="-1496.5" font-family="Helvetica,sans-Serif" font-size="10.00">LinkFinderTest.makeTestGraphA</text>
</a>
</g>
</g>
<!-- Node9&#45;&gt;Node10 -->
<g id="edge11" class="edge">
<title>Node9&#45;&gt;Node10</title>
<path fill="none" stroke="midnightblue" d="M694.46,-1415.26C668.25,-1432.93 628.44,-1458 591,-1474.5 578.03,-1480.22 563.65,-1485.22 549.91,-1489.42"/>
<polygon fill="midnightblue" stroke="midnightblue" points="696.5,-1418.1 702.8,-1409.58 692.56,-1412.32 696.5,-1418.1"/>
</g>
<!-- Node11 -->
<g id="node11" class="node">
<title>Node11</title>
<g id="a_node11"><a xlink:href="classdenoptim_1_1fragspace_1_1_graph_link_finder_test.html#a10f29a0409c104973230371493a734ed" target="_top" xlink:title=" ">
<polygon fill="white" stroke="black" points="184,-1514.5 184,-1544.5 348,-1544.5 348,-1514.5 184,-1514.5"/>
<text text-anchor="start" x="192" y="-1532.5" font-family="Helvetica,sans-Serif" font-size="10.00">denoptim.fragspace.Graph</text>
<text text-anchor="middle" x="266" y="-1521.5" font-family="Helvetica,sans-Serif" font-size="10.00">LinkFinderTest.testLinkFromEdge</text>
</a>
</g>
</g>
<!-- Node9&#45;&gt;Node11 -->
<g id="edge18" class="edge">
<title>Node9&#45;&gt;Node11</title>
<path fill="none" stroke="midnightblue" d="M709.34,-1418.45C687.97,-1450.78 644.86,-1506.95 591,-1529.5 508.89,-1563.87 404.48,-1555.75 336.73,-1544.53"/>
<polygon fill="midnightblue" stroke="midnightblue" points="712.55,-1419.92 715.02,-1409.62 706.67,-1416.13 712.55,-1419.92"/>
</g>
<!-- Node12 -->
<g id="node12" class="node">
<title>Node12</title>
<g id="a_node12"><a xlink:href="classdenoptim_1_1fragspace_1_1_graph_link_finder_test.html#a11b5fce33ae34132f5b16a11b57aaae7" target="_top" xlink:title=" ">
<polygon fill="white" stroke="black" points="181,-1455.5 181,-1485.5 351,-1485.5 351,-1455.5 181,-1455.5"/>
<text text-anchor="start" x="189" y="-1473.5" font-family="Helvetica,sans-Serif" font-size="10.00">denoptim.fragspace.Graph</text>
<text text-anchor="middle" x="266" y="-1462.5" font-family="Helvetica,sans-Serif" font-size="10.00">LinkFinderTest.testLinkFromVertex</text>
</a>
</g>
</g>
<!-- Node9&#45;&gt;Node12 -->
<g id="edge21" class="edge">
<title>Node9&#45;&gt;Node12</title>
<path fill="none" stroke="midnightblue" d="M679.75,-1413.28C654.26,-1423.3 621.34,-1434.89 591,-1441.5 510.71,-1458.99 417.03,-1465.97 351.11,-1468.73"/>
<polygon fill="midnightblue" stroke="midnightblue" points="681.15,-1416.49 689.14,-1409.53 678.55,-1409.99 681.15,-1416.49"/>
</g>
<!-- Node13 -->
<g id="node13" class="node">
<title>Node13</title>
<g id="a_node13"><a xlink:href="classdenoptim_1_1fragspace_1_1_graph_link_finder_test.html#a788a4b1620fa0610d9f306e2e8b3a75a" target="_top" xlink:title="Creates a test graph that looks like this: v0(E)&#45;(E)v1.">
<polygon fill="white" stroke="black" points="409,-1401.5 409,-1431.5 569,-1431.5 569,-1401.5 409,-1401.5"/>
<text text-anchor="start" x="417" y="-1419.5" font-family="Helvetica,sans-Serif" font-size="10.00">denoptim.fragspace.Graph</text>
<text text-anchor="middle" x="489" y="-1408.5" font-family="Helvetica,sans-Serif" font-size="10.00">LinkFinderTest.makeTestGraphE</text>
</a>
</g>
</g>
<!-- Node9&#45;&gt;Node13 -->
<g id="edge14" class="edge">
<title>Node9&#45;&gt;Node13</title>
<path fill="none" stroke="midnightblue" d="M649.71,-1401.48C624.03,-1403.9 595.18,-1406.61 569.13,-1409.06"/>
<polygon fill="midnightblue" stroke="midnightblue" points="650.12,-1404.96 659.75,-1400.54 649.47,-1397.99 650.12,-1404.96"/>
</g>
<!-- Node14 -->
<g id="node14" class="node">
<title>Node14</title>
<g id="a_node14"><a xlink:href="classdenoptim_1_1fragspace_1_1_graph_link_finder_test.html#a0ec3c77508e8ec583b570a6803056e9a" target="_top" xlink:title=" ">
<polygon fill="white" stroke="black" points="184,-1367 184,-1408 348,-1408 348,-1367 184,-1367"/>
<text text-anchor="start" x="192" y="-1396" font-family="Helvetica,sans-Serif" font-size="10.00">denoptim.fragspace.Graph</text>
<text text-anchor="start" x="192" y="-1385" font-family="Helvetica,sans-Serif" font-size="10.00">LinkFinderTest.testLinkFromEdge</text>
<text text-anchor="middle" x="266" y="-1374" font-family="Helvetica,sans-Serif" font-size="10.00">OneMatch</text>
</a>
</g>
</g>
<!-- Node9&#45;&gt;Node14 -->
<g id="edge20" class="edge">
<title>Node9&#45;&gt;Node14</title>
<path fill="none" stroke="midnightblue" d="M649.9,-1393.36C567.21,-1392.1 433.83,-1390.06 348.32,-1388.75"/>
<polygon fill="midnightblue" stroke="midnightblue" points="649.92,-1396.87 659.97,-1393.52 650.03,-1389.87 649.92,-1396.87"/>
</g>
<!-- Node15 -->
<g id="node15" class="node">
<title>Node15</title>
<g id="a_node15"><a xlink:href="classdenoptim_1_1fragspace_1_1_graph_link_finder_test.html#a978d58856f04a9a844344ad2cacc812b" target="_top" xlink:title="Creates a test graph that looks like this: v0(F)&#45;(F)v1.">
<polygon fill="white" stroke="black" points="409,-1313.5 409,-1343.5 569,-1343.5 569,-1313.5 409,-1313.5"/>
<text text-anchor="start" x="417" y="-1331.5" font-family="Helvetica,sans-Serif" font-size="10.00">denoptim.fragspace.Graph</text>
<text text-anchor="middle" x="489" y="-1320.5" font-family="Helvetica,sans-Serif" font-size="10.00">LinkFinderTest.makeTestGraphF</text>
</a>
</g>
</g>
<!-- Node9&#45;&gt;Node15 -->
<g id="edge16" class="edge">
<title>Node9&#45;&gt;Node15</title>
<path fill="none" stroke="midnightblue" d="M660.53,-1376.6C623.91,-1366.27 578.37,-1353.43 543.57,-1343.61"/>
<polygon fill="midnightblue" stroke="midnightblue" points="660.03,-1380.09 670.61,-1379.44 661.93,-1373.36 660.03,-1380.09"/>
</g>
<!-- Node16 -->
<g id="node16" class="node">
<title>Node16</title>
<g id="a_node16"><a xlink:href="classdenoptim_1_1fragspace_1_1_graph_link_finder_test.html#a027bbe60b63ad7c458011fe4c4814ff7" target="_top" xlink:title=" ">
<polygon fill="white" stroke="black" points="184,-1293 184,-1334 348,-1334 348,-1293 184,-1293"/>
<text text-anchor="start" x="192" y="-1322" font-family="Helvetica,sans-Serif" font-size="10.00">denoptim.fragspace.Graph</text>
<text text-anchor="start" x="192" y="-1311" font-family="Helvetica,sans-Serif" font-size="10.00">LinkFinderTest.testLinkFromEdge</text>
<text text-anchor="middle" x="266" y="-1300" font-family="Helvetica,sans-Serif" font-size="10.00">NoMatch</text>
</a>
</g>
</g>
<!-- Node9&#45;&gt;Node16 -->
<g id="edge19" class="edge">
<title>Node9&#45;&gt;Node16</title>
<path fill="none" stroke="midnightblue" d="M701.03,-1372.53C676.19,-1350.43 634.29,-1317.77 591,-1304.5 511.11,-1280.01 414.88,-1286.96 348.15,-1297.12"/>
<polygon fill="midnightblue" stroke="midnightblue" points="698.73,-1375.17 708.48,-1379.3 703.43,-1369.99 698.73,-1375.17"/>
</g>
<!-- Node10&#45;&gt;Node11 -->
<g id="edge12" class="edge">
<title>Node10&#45;&gt;Node11</title>
<path fill="none" stroke="midnightblue" d="M398.03,-1514.68C381.52,-1516.54 364.38,-1518.48 348.15,-1520.32"/>
<polygon fill="midnightblue" stroke="midnightblue" points="398.67,-1518.13 408.21,-1513.53 397.88,-1511.17 398.67,-1518.13"/>
</g>
<!-- Node10&#45;&gt;Node12 -->
<g id="edge13" class="edge">
<title>Node10&#45;&gt;Node12</title>
<path fill="none" stroke="midnightblue" d="M398.11,-1490.67C382.59,-1488.28 366.5,-1485.81 351.14,-1483.44"/>
<polygon fill="midnightblue" stroke="midnightblue" points="397.8,-1494.16 408.21,-1492.23 398.86,-1487.25 397.8,-1494.16"/>
</g>
<!-- Node13&#45;&gt;Node14 -->
<g id="edge15" class="edge">
<title>Node13&#45;&gt;Node14</title>
<path fill="none" stroke="midnightblue" d="M398.57,-1404.76C381.92,-1402.58 364.6,-1400.31 348.21,-1398.16"/>
<polygon fill="midnightblue" stroke="midnightblue" points="398.47,-1408.28 408.84,-1406.11 399.38,-1401.34 398.47,-1408.28"/>
</g>
<!-- Node15&#45;&gt;Node16 -->
<g id="edge17" class="edge">
<title>Node15&#45;&gt;Node16</title>
<path fill="none" stroke="midnightblue" d="M398.57,-1322.43C381.92,-1321.3 364.6,-1320.12 348.21,-1319.01"/>
<polygon fill="midnightblue" stroke="midnightblue" points="398.62,-1325.94 408.84,-1323.13 399.1,-1318.96 398.62,-1325.94"/>
</g>
<!-- Node18 -->
<g id="node18" class="node">
<title>Node18</title>
<g id="a_node18"><a xlink:href="classdenoptim_1_1ga_1_1_e_a_utils_test.html#a9aa17c44bb5d48c83e350c36cd68af68" target="_top" xlink:title=" ">
<polygon fill="white" stroke="black" points="417.5,-1225.5 417.5,-1255.5 560.5,-1255.5 560.5,-1225.5 417.5,-1225.5"/>
<text text-anchor="start" x="425.5" y="-1243.5" font-family="Helvetica,sans-Serif" font-size="10.00">denoptim.ga.EAUtilsTest.test</text>
<text text-anchor="middle" x="489" y="-1232.5" font-family="Helvetica,sans-Serif" font-size="10.00">AvoidRedundantXOver</text>
</a>
</g>
</g>
<!-- Node17&#45;&gt;Node18 -->
<g id="edge23" class="edge">
<title>Node17&#45;&gt;Node18</title>
<path fill="none" stroke="midnightblue" d="M635.64,-1240.5C610.87,-1240.5 584.28,-1240.5 560.69,-1240.5"/>
<polygon fill="midnightblue" stroke="midnightblue" points="635.76,-1244 645.76,-1240.5 635.76,-1237 635.76,-1244"/>
</g>
<!-- Node19 -->
<g id="node19" class="node">
<title>Node19</title>
<g id="a_node19"><a xlink:href="classdenoptim_1_1ga_1_1_e_a_utils_test.html#ab7a37d3340d35ab586332ce2122e7bb0" target="_top" xlink:title=" ">
<polygon fill="white" stroke="black" points="407.5,-1176.5 407.5,-1206.5 570.5,-1206.5 570.5,-1176.5 407.5,-1176.5"/>
<text text-anchor="start" x="415.5" y="-1194.5" font-family="Helvetica,sans-Serif" font-size="10.00">denoptim.ga.EAUtilsTest.test</text>
<text text-anchor="middle" x="489" y="-1183.5" font-family="Helvetica,sans-Serif" font-size="10.00">BuildGraphFromTemplateScaffold</text>
</a>
</g>
</g>
<!-- Node17&#45;&gt;Node19 -->
<g id="edge24" class="edge">
<title>Node17&#45;&gt;Node19</title>
<path fill="none" stroke="midnightblue" d="M668.57,-1228.89C636.69,-1222.22 596.28,-1213.76 561.97,-1206.57"/>
<polygon fill="midnightblue" stroke="midnightblue" points="668.1,-1232.37 678.6,-1230.99 669.53,-1225.52 668.1,-1232.37"/>
</g>
<!-- Node21 -->
<g id="node21" class="node">
<title>Node21</title>
<g id="a_node21"><a xlink:href="classdenoptim_1_1graph_1_1_d_graph_test.html#a88c2fd8a1b401d9aa25bf85869bc28c7" target="_top" xlink:title=" ">
<polygon fill="white" stroke="black" points="387,-1127.5 387,-1157.5 591,-1157.5 591,-1127.5 387,-1127.5"/>
<text text-anchor="start" x="395" y="-1145.5" font-family="Helvetica,sans-Serif" font-size="10.00">denoptim.graph.DGraphTest.test</text>
<text text-anchor="middle" x="489" y="-1134.5" font-family="Helvetica,sans-Serif" font-size="10.00">ConvertSymmetricLabelsToSymmetricSets</text>
</a>
</g>
</g>
<!-- Node20&#45;&gt;Node21 -->
<g id="edge26" class="edge">
<title>Node20&#45;&gt;Node21</title>
<path fill="none" stroke="midnightblue" d="M721.31,-648.47C709.71,-731.77 661.29,-1050.4 591,-1118.5 587.5,-1121.89 583.62,-1124.82 579.48,-1127.37"/>
<polygon fill="midnightblue" stroke="midnightblue" points="724.81,-648.71 722.7,-638.33 717.88,-647.76 724.81,-648.71"/>
</g>
<!-- Node22 -->
<g id="node22" class="node">
<title>Node22</title>
<g id="a_node22"><a xlink:href="classdenoptim_1_1graph_1_1_d_graph_test.html#a05b87ffb43b9710fcea83b0777654e27" target="_top" xlink:title=" ">
<polygon fill="white" stroke="black" points="411,-1078.5 411,-1108.5 567,-1108.5 567,-1078.5 411,-1078.5"/>
<text text-anchor="start" x="419" y="-1096.5" font-family="Helvetica,sans-Serif" font-size="10.00">denoptim.graph.DGraphTest.test</text>
<text text-anchor="middle" x="489" y="-1085.5" font-family="Helvetica,sans-Serif" font-size="10.00">DetectSymVertexSets</text>
</a>
</g>
</g>
<!-- Node20&#45;&gt;Node22 -->
<g id="edge27" class="edge">
<title>Node20&#45;&gt;Node22</title>
<path fill="none" stroke="midnightblue" d="M724.48,-648.76C724.97,-718.52 716.73,-951.05 591,-1069.5 584.18,-1075.93 575.96,-1080.73 567.2,-1084.31"/>
<polygon fill="midnightblue" stroke="midnightblue" points="727.98,-648.28 724.33,-638.34 720.98,-648.39 727.98,-648.28"/>
</g>
<!-- Node23 -->
<g id="node23" class="node">
<title>Node23</title>
<g id="a_node23"><a xlink:href="classdenoptim_1_1graph_1_1_d_graph_test.html#aa9ebd151440fb02ddfa82c194ba5cf27" target="_top" xlink:title=" ">
<polygon fill="white" stroke="black" points="411,-1029.5 411,-1059.5 567,-1059.5 567,-1029.5 411,-1029.5"/>
<text text-anchor="start" x="419" y="-1047.5" font-family="Helvetica,sans-Serif" font-size="10.00">denoptim.graph.DGraphTest.test</text>
<text text-anchor="middle" x="489" y="-1036.5" font-family="Helvetica,sans-Serif" font-size="10.00">EmbedPatternsInTemplates</text>
</a>
</g>
</g>
<!-- Node20&#45;&gt;Node23 -->
<g id="edge28" class="edge">
<title>Node20&#45;&gt;Node23</title>
<path fill="none" stroke="midnightblue" d="M723.61,-648.6C721.21,-713.18 704.57,-917.12 591,-1020.5 584.14,-1026.75 575.95,-1031.45 567.24,-1034.98"/>
<polygon fill="midnightblue" stroke="midnightblue" points="727.12,-648.32 723.91,-638.22 720.12,-648.12 727.12,-648.32"/>
</g>
<!-- Node24 -->
<g id="node24" class="node">
<title>Node24</title>
<g id="a_node24"><a xlink:href="classdenoptim_1_1graph_1_1_d_graph_test.html#a6b4a7a889a0e36c8b2dc97bcd8055c9e" target="_top" xlink:title=" ">
<polygon fill="white" stroke="black" points="411,-980.5 411,-1010.5 567,-1010.5 567,-980.5 411,-980.5"/>
<text text-anchor="start" x="419" y="-998.5" font-family="Helvetica,sans-Serif" font-size="10.00">denoptim.graph.DGraphTest.test</text>
<text text-anchor="middle" x="489" y="-987.5" font-family="Helvetica,sans-Serif" font-size="10.00">ExtractSubgraph</text>
</a>
</g>
</g>
<!-- Node20&#45;&gt;Node24 -->
<g id="edge29" class="edge">
<title>Node20&#45;&gt;Node24</title>
<path fill="none" stroke="midnightblue" d="M722.53,-648.41C717.05,-707.46 692.54,-882.96 591,-971.5 584.07,-977.54 575.9,-982.13 567.24,-985.6"/>
<polygon fill="midnightblue" stroke="midnightblue" points="726.03,-648.47 723.39,-638.22 719.06,-647.89 726.03,-648.47"/>
</g>
<!-- Node25 -->
<g id="node25" class="node">
<title>Node25</title>
<g id="a_node25"><a xlink:href="classdenoptim_1_1graph_1_1_d_graph_test.html#a487a63ee35e943451ab84845de3982b1" target="_top" xlink:title=" ">
<polygon fill="white" stroke="black" points="411,-931.5 411,-961.5 567,-961.5 567,-931.5 411,-931.5"/>
<text text-anchor="start" x="419" y="-949.5" font-family="Helvetica,sans-Serif" font-size="10.00">denoptim.graph.DGraphTest.test</text>
<text text-anchor="middle" x="489" y="-938.5" font-family="Helvetica,sans-Serif" font-size="10.00">ExtractSubgraphFromCollection</text>
</a>
</g>
</g>
<!-- Node20&#45;&gt;Node25 -->
<g id="edge30" class="edge">
<title>Node20&#45;&gt;Node25</title>
<path fill="none" stroke="midnightblue" d="M721.12,-648.36C712.3,-701.62 680.59,-848.61 591,-922.5 583.98,-928.29 575.8,-932.73 567.19,-936.13"/>
<polygon fill="midnightblue" stroke="midnightblue" points="724.62,-648.63 722.7,-638.21 717.7,-647.55 724.62,-648.63"/>
</g>
<!-- Node26 -->
<g id="node26" class="node">
<title>Node26</title>
<g id="a_node26"><a xlink:href="classdenoptim_1_1graph_1_1_d_graph_test.html#ac02ab6b199aee9280e88a14d0026a175" target="_top" xlink:title=" ">
<polygon fill="white" stroke="black" points="404,-882.5 404,-912.5 574,-912.5 574,-882.5 404,-882.5"/>
<text text-anchor="start" x="412" y="-900.5" font-family="Helvetica,sans-Serif" font-size="10.00">denoptim.graph.DGraphTest.test</text>
<text text-anchor="middle" x="489" y="-889.5" font-family="Helvetica,sans-Serif" font-size="10.00">FindSymmetrySetsOfChildVertexes</text>
</a>
</g>
</g>
<!-- Node20&#45;&gt;Node26 -->
<g id="edge31" class="edge">
<title>Node20&#45;&gt;Node26</title>
<path fill="none" stroke="midnightblue" d="M719.33,-647.83C707.01,-694.47 669.09,-813.72 591,-873.5 585.85,-877.44 580.15,-880.75 574.16,-883.53"/>
<polygon fill="midnightblue" stroke="midnightblue" points="722.73,-648.64 721.8,-638.08 715.95,-646.91 722.73,-648.64"/>
</g>
<!-- Node27 -->
<g id="node27" class="node">
<title>Node27</title>
<g id="a_node27"><a xlink:href="classdenoptim_1_1graph_1_1_d_graph_test.html#a58da23a0d5e884652fecf95eac4995ad" target="_top" xlink:title=" ">
<polygon fill="white" stroke="black" points="411,-833.5 411,-863.5 567,-863.5 567,-833.5 411,-833.5"/>
<text text-anchor="start" x="419" y="-851.5" font-family="Helvetica,sans-Serif" font-size="10.00">denoptim.graph.DGraphTest.test</text>
<text text-anchor="middle" x="489" y="-840.5" font-family="Helvetica,sans-Serif" font-size="10.00">GetChildrenTree</text>
</a>
</g>
</g>
<!-- Node20&#45;&gt;Node27 -->
<g id="edge32" class="edge">
<title>Node20&#45;&gt;Node27</title>
<path fill="none" stroke="midnightblue" d="M716.67,-647.64C700.47,-687.28 657.66,-778.51 591,-824.5 583.73,-829.52 575.54,-833.49 567.06,-836.64"/>
<polygon fill="midnightblue" stroke="midnightblue" points="720.02,-648.69 720.46,-638.11 713.51,-646.11 720.02,-648.69"/>
</g>
<!-- Node28 -->
<g id="node28" class="node">
<title>Node28</title>
<g id="a_node28"><a xlink:href="classdenoptim_1_1graph_1_1_d_graph_test.html#abfaf918deddf6407a4b1916c06a8c412" target="_top" xlink:title=" ">
<polygon fill="white" stroke="black" points="402,-784.5 402,-814.5 576,-814.5 576,-784.5 402,-784.5"/>
<text text-anchor="start" x="410" y="-802.5" font-family="Helvetica,sans-Serif" font-size="10.00">denoptim.graph.DGraphTest.test</text>
<text text-anchor="middle" x="489" y="-791.5" font-family="Helvetica,sans-Serif" font-size="10.00">GetChildrenTreeWithBranchIdentifier</text>
</a>
</g>
</g>
<!-- Node20&#45;&gt;Node28 -->
<g id="edge33" class="edge">
<title>Node20&#45;&gt;Node28</title>
<path fill="none" stroke="midnightblue" d="M712.78,-646.88C692.55,-678.38 646.83,-742.46 591,-775.5 585.18,-778.94 578.9,-781.89 572.42,-784.42"/>
<polygon fill="midnightblue" stroke="midnightblue" points="715.87,-648.55 718.22,-638.22 709.94,-644.82 715.87,-648.55"/>
</g>
<!-- Node29 -->
<g id="node29" class="node">
<title>Node29</title>
<g id="a_node29"><a xlink:href="classdenoptim_1_1graph_1_1_d_graph_test.html#a3c2936a80e6e37238b4ce5c5e66f3351" target="_top" xlink:title=" ">
<polygon fill="white" stroke="black" points="411,-735.5 411,-765.5 567,-765.5 567,-735.5 411,-735.5"/>
<text text-anchor="start" x="419" y="-753.5" font-family="Helvetica,sans-Serif" font-size="10.00">denoptim.graph.DGraphTest.test</text>
<text text-anchor="middle" x="489" y="-742.5" font-family="Helvetica,sans-Serif" font-size="10.00">GetEdgesWithSrcOrTrg</text>
</a>
</g>
</g>
<!-- Node20&#45;&gt;Node29 -->
<g id="edge34" class="edge">
<title>Node20&#45;&gt;Node29</title>
<path fill="none" stroke="midnightblue" d="M706.29,-645.26C682.14,-667.2 636.62,-705.35 591,-726.5 583.48,-729.99 575.4,-733 567.21,-735.59"/>
<polygon fill="midnightblue" stroke="midnightblue" points="708.94,-647.58 713.91,-638.23 704.19,-642.44 708.94,-647.58"/>
</g>
<!-- Node30 -->
<g id="node30" class="node">
<title>Node30</title>
<g id="a_node30"><a xlink:href="classdenoptim_1_1graph_1_1_d_graph_test.html#abbd9f77ca8e1f7b733ca74bce6ccad28" target="_top" xlink:title=" ">
<polygon fill="white" stroke="black" points="411,-686.5 411,-716.5 567,-716.5 567,-686.5 411,-686.5"/>
<text text-anchor="start" x="419" y="-704.5" font-family="Helvetica,sans-Serif" font-size="10.00">denoptim.graph.DGraphTest.test</text>
<text text-anchor="middle" x="489" y="-693.5" font-family="Helvetica,sans-Serif" font-size="10.00">GetEmbeddedGraphInClone</text>
</a>
</g>
</g>
<!-- Node20&#45;&gt;Node30 -->
<g id="edge35" class="edge">
<title>Node20&#45;&gt;Node30</title>
<path fill="none" stroke="midnightblue" d="M691.14,-641.86C664.45,-652.4 625.68,-667.03 591,-677.5 580.47,-680.68 569.23,-683.7 558.21,-686.47"/>
<polygon fill="midnightblue" stroke="midnightblue" points="692.75,-644.98 700.74,-638.03 690.16,-638.48 692.75,-644.98"/>
</g>
<!-- Node31 -->
<g id="node31" class="node">
<title>Node31</title>
<g id="a_node31"><a xlink:href="classdenoptim_1_1graph_1_1_d_graph_test.html#a14c5ab7724f5d78b6c721b6e24e3a588" target="_top" xlink:title=" ">
<polygon fill="white" stroke="black" points="411,-637.5 411,-667.5 567,-667.5 567,-637.5 411,-637.5"/>
<text text-anchor="start" x="419" y="-655.5" font-family="Helvetica,sans-Serif" font-size="10.00">denoptim.graph.DGraphTest.test</text>
<text text-anchor="middle" x="489" y="-644.5" font-family="Helvetica,sans-Serif" font-size="10.00">GetEmbeddingPath</text>
</a>
</g>
</g>
<!-- Node20&#45;&gt;Node31 -->
<g id="edge36" class="edge">
<title>Node20&#45;&gt;Node31</title>
<path fill="none" stroke="midnightblue" d="M628.89,-638.25C608.42,-640.35 587.01,-642.55 567.31,-644.57"/>
<polygon fill="midnightblue" stroke="midnightblue" points="629.27,-641.73 638.86,-637.23 628.55,-634.77 629.27,-641.73"/>
</g>
<!-- Node32 -->
<g id="node32" class="node">
<title>Node32</title>
<g id="a_node32"><a xlink:href="classdenoptim_1_1graph_1_1_d_graph_test.html#a67cac5083662b518183810d74bb901d6" target="_top" xlink:title=" ">
<polygon fill="white" stroke="black" points="411,-588.5 411,-618.5 567,-618.5 567,-588.5 411,-588.5"/>
<text text-anchor="start" x="419" y="-606.5" font-family="Helvetica,sans-Serif" font-size="10.00">denoptim.graph.DGraphTest.test</text>
<text text-anchor="middle" x="489" y="-595.5" font-family="Helvetica,sans-Serif" font-size="10.00">GetInterfaceAPs</text>
</a>
</g>
</g>
<!-- Node20&#45;&gt;Node32 -->
<g id="edge37" class="edge">
<title>Node20&#45;&gt;Node32</title>
<path fill="none" stroke="midnightblue" d="M628.89,-618.34C608.42,-616.15 587.01,-613.86 567.31,-611.76"/>
<polygon fill="midnightblue" stroke="midnightblue" points="628.54,-621.82 638.86,-619.4 629.29,-614.86 628.54,-621.82"/>
</g>
<!-- Node33 -->
<g id="node33" class="node">
<title>Node33</title>
<g id="a_node33"><a xlink:href="classdenoptim_1_1graph_1_1_d_graph_test.html#a7a211a2f8477d88f90d85d6ab26c25e3" target="_top" xlink:title=" ">
<polygon fill="white" stroke="black" points="411,-539.5 411,-569.5 567,-569.5 567,-539.5 411,-539.5"/>
<text text-anchor="start" x="419" y="-557.5" font-family="Helvetica,sans-Serif" font-size="10.00">denoptim.graph.DGraphTest.test</text>
<text text-anchor="middle" x="489" y="-546.5" font-family="Helvetica,sans-Serif" font-size="10.00">GetLevel</text>
</a>
</g>
</g>
<!-- Node20&#45;&gt;Node33 -->
<g id="edge38" class="edge">
<title>Node20&#45;&gt;Node33</title>
<path fill="none" stroke="midnightblue" d="M643.54,-616.06C637.83,-614.18 632.26,-612 627,-609.5 608.19,-600.55 609.58,-588.91 591,-579.5 583.34,-575.62 575.05,-572.33 566.63,-569.52"/>
<polygon fill="midnightblue" stroke="midnightblue" points="642.66,-619.45 653.24,-618.98 644.67,-612.75 642.66,-619.45"/>
</g>
<!-- Node34 -->
<g id="node34" class="node">
<title>Node34</title>
<g id="a_node34"><a xlink:href="classdenoptim_1_1graph_1_1_d_graph_test.html#a428fb92fa7fcf1312fc2eb81cf7fac4f" target="_top" xlink:title=" ">
<polygon fill="white" stroke="black" points="411,-490.5 411,-520.5 567,-520.5 567,-490.5 411,-490.5"/>
<text text-anchor="start" x="419" y="-508.5" font-family="Helvetica,sans-Serif" font-size="10.00">denoptim.graph.DGraphTest.test</text>
<text text-anchor="middle" x="489" y="-497.5" font-family="Helvetica,sans-Serif" font-size="10.00">GetSourceVertex</text>
</a>
</g>
</g>
<!-- Node20&#45;&gt;Node34 -->
<g id="edge39" class="edge">
<title>Node20&#45;&gt;Node34</title>
<path fill="none" stroke="midnightblue" d="M633.47,-614.01C631.23,-612.63 629.06,-611.13 627,-609.5 596.72,-585.59 620.69,-555.15 591,-530.5 583.98,-524.67 575.8,-520.17 567.19,-516.7"/>
<polygon fill="midnightblue" stroke="midnightblue" points="632.01,-617.2 642.48,-618.79 635.28,-611.02 632.01,-617.2"/>
</g>
<!-- Node35 -->
<g id="node35" class="node">
<title>Node35</title>
<g id="a_node35"><a xlink:href="classdenoptim_1_1graph_1_1_d_graph_test.html#afa69d04d566adebf5cf8873815074713" target="_top" xlink:title=" ">
<polygon fill="white" stroke="black" points="411,-441.5 411,-471.5 567,-471.5 567,-441.5 411,-441.5"/>
<text text-anchor="start" x="419" y="-459.5" font-family="Helvetica,sans-Serif" font-size="10.00">denoptim.graph.DGraphTest.test</text>
<text text-anchor="middle" x="489" y="-448.5" font-family="Helvetica,sans-Serif" font-size="10.00">GetSubgraphAPs</text>
</a>
</g>
</g>
<!-- Node20&#45;&gt;Node35 -->
<g id="edge40" class="edge">
<title>Node20&#45;&gt;Node35</title>
<path fill="none" stroke="midnightblue" d="M631.74,-613.43C630.1,-612.2 628.51,-610.9 627,-609.5 583.56,-569.43 633.44,-522.62 591,-481.5 584.19,-474.9 575.92,-469.96 567.09,-466.27"/>
<polygon fill="midnightblue" stroke="midnightblue" points="630.11,-616.53 640.44,-618.87 633.82,-610.6 630.11,-616.53"/>
</g>
<!-- Node36 -->
<g id="node36" class="node">
<title>Node36</title>
<g id="a_node36"><a xlink:href="classdenoptim_1_1graph_1_1_d_graph_test.html#ac09e961280beb2c61cc88ce1b4bccd3f" target="_top" xlink:title=" ">
<polygon fill="white" stroke="black" points="411,-392.5 411,-422.5 567,-422.5 567,-392.5 411,-392.5"/>
<text text-anchor="start" x="419" y="-410.5" font-family="Helvetica,sans-Serif" font-size="10.00">denoptim.graph.DGraphTest.test</text>
<text text-anchor="middle" x="489" y="-399.5" font-family="Helvetica,sans-Serif" font-size="10.00">GetSymmetricSubGraphs</text>
</a>
</g>
</g>
<!-- Node20&#45;&gt;Node36 -->
<g id="edge41" class="edge">
<title>Node20&#45;&gt;Node36</title>
<path fill="none" stroke="midnightblue" d="M631.07,-613.15C629.66,-612 628.3,-610.79 627,-609.5 570.03,-552.94 646.56,-490.44 591,-432.5 584.31,-425.52 576.01,-420.37 567.06,-416.59"/>
<polygon fill="midnightblue" stroke="midnightblue" points="629.42,-616.26 639.67,-618.95 633.34,-610.46 629.42,-616.26"/>
</g>
<!-- Node37 -->
<g id="node37" class="node">
<title>Node37</title>
<g id="a_node37"><a xlink:href="classdenoptim_1_1graph_1_1_d_graph_test.html#a02791a3f61db5dd584dec5c3995ec72c" target="_top" xlink:title=" ">
<polygon fill="white" stroke="black" points="411,-343.5 411,-373.5 567,-373.5 567,-343.5 411,-343.5"/>
<text text-anchor="start" x="419" y="-361.5" font-family="Helvetica,sans-Serif" font-size="10.00">denoptim.graph.DGraphTest.test</text>
<text text-anchor="middle" x="489" y="-350.5" font-family="Helvetica,sans-Serif" font-size="10.00">GraphIsomorphism</text>
</a>
</g>
</g>
<!-- Node20&#45;&gt;Node37 -->
<g id="edge42" class="edge">
<title>Node20&#45;&gt;Node37</title>
<path fill="none" stroke="midnightblue" d="M630.86,-613.11C629.52,-611.97 628.23,-610.77 627,-609.5 556.37,-536.32 659.81,-458.4 591,-383.5 584.4,-376.32 576.09,-371.05 567.09,-367.21"/>
<polygon fill="midnightblue" stroke="midnightblue" points="628.85,-615.98 639.04,-618.88 632.89,-610.26 628.85,-615.98"/>
</g>
<!-- Node38 -->
<g id="node38" class="node">
<title>Node38</title>
<g id="a_node38"><a xlink:href="classdenoptim_1_1graph_1_1_d_graph_test.html#aea227d615f6c2f3bac5839a8099a900d" target="_top" xlink:title=" ">
<polygon fill="white" stroke="black" points="411,-294.5 411,-324.5 567,-324.5 567,-294.5 411,-294.5"/>
<text text-anchor="start" x="419" y="-312.5" font-family="Helvetica,sans-Serif" font-size="10.00">denoptim.graph.DGraphTest.test</text>
<text text-anchor="middle" x="489" y="-301.5" font-family="Helvetica,sans-Serif" font-size="10.00">IsIsostructuralTo</text>
</a>
</g>
</g>
<!-- Node20&#45;&gt;Node38 -->
<g id="edge43" class="edge">
<title>Node20&#45;&gt;Node38</title>
<path fill="none" stroke="midnightblue" d="M630.45,-612.84C629.25,-611.79 628.1,-610.67 627,-609.5 542.64,-519.63 673.12,-426.42 591,-334.5 584.5,-327.23 576.25,-321.91 567.28,-318.04"/>
<polygon fill="midnightblue" stroke="midnightblue" points="628.77,-615.95 638.92,-619 632.89,-610.29 628.77,-615.95"/>
</g>
<!-- Node39 -->
<g id="node39" class="node">
<title>Node39</title>
<g id="a_node39"><a xlink:href="classdenoptim_1_1ga_1_1_xover_site_test.html#a3936ca2cfc1bb9ace410f7f47ad2c1f2" target="_top" xlink:title=" ">
<polygon fill="white" stroke="black" points="413,-245.5 413,-275.5 565,-275.5 565,-245.5 413,-245.5"/>
<text text-anchor="start" x="421" y="-263.5" font-family="Helvetica,sans-Serif" font-size="10.00">denoptim.ga.XoverSiteTest.test</text>
<text text-anchor="middle" x="489" y="-252.5" font-family="Helvetica,sans-Serif" font-size="10.00">ProjectToClonedGraphs</text>
</a>
</g>
</g>
<!-- Node20&#45;&gt;Node39 -->
<g id="edge44" class="edge">
<title>Node20&#45;&gt;Node39</title>
<path fill="none" stroke="midnightblue" d="M630.41,-612.87C629.23,-611.81 628.09,-610.68 627,-609.5 528.88,-502.9 686.47,-394.48 591,-285.5 584.04,-277.55 574.98,-271.93 565.15,-267.99"/>
<polygon fill="midnightblue" stroke="midnightblue" points="628.71,-615.96 638.84,-619.08 632.86,-610.33 628.71,-615.96"/>
</g>
<!-- Node40 -->
<g id="node40" class="node">
<title>Node40</title>
<g id="a_node40"><a xlink:href="classdenoptim_1_1graph_1_1_d_graph_test.html#a83a9624ea5dc6a2c515407b865b62611" target="_top" xlink:title=" ">
<polygon fill="white" stroke="black" points="411,-196.5 411,-226.5 567,-226.5 567,-196.5 411,-196.5"/>
<text text-anchor="start" x="419" y="-214.5" font-family="Helvetica,sans-Serif" font-size="10.00">denoptim.graph.DGraphTest.test</text>
<text text-anchor="middle" x="489" y="-203.5" font-family="Helvetica,sans-Serif" font-size="10.00">ReplaceSubGraph</text>
</a>
</g>
</g>
<!-- Node20&#45;&gt;Node40 -->
<g id="edge45" class="edge">
<title>Node20&#45;&gt;Node40</title>
<path fill="none" stroke="midnightblue" d="M630.39,-612.89C629.21,-611.82 628.08,-610.69 627,-609.5 571.05,-547.82 645.42,-299.53 591,-236.5 584.51,-228.98 576.14,-223.54 567.01,-219.63"/>
<polygon fill="midnightblue" stroke="midnightblue" points="628.66,-615.97 638.77,-619.14 632.84,-610.36 628.66,-615.97"/>
</g>
<!-- Node41 -->
<g id="node41" class="node">
<title>Node41</title>
<g id="a_node41"><a xlink:href="classdenoptim_1_1graph_1_1_d_graph_test.html#a0c949ec1131a872dea53524614b3b42a" target="_top" xlink:title=" ">
<polygon fill="white" stroke="black" points="411,-147.5 411,-177.5 567,-177.5 567,-147.5 411,-147.5"/>
<text text-anchor="start" x="419" y="-165.5" font-family="Helvetica,sans-Serif" font-size="10.00">denoptim.graph.DGraphTest.test</text>
<text text-anchor="middle" x="489" y="-154.5" font-family="Helvetica,sans-Serif" font-size="10.00">ReplaceSubGraph_inTemplate</text>
</a>
</g>
</g>
<!-- Node20&#45;&gt;Node41 -->
<g id="edge46" class="edge">
<title>Node20&#45;&gt;Node41</title>
<path fill="none" stroke="midnightblue" d="M630.37,-612.91C629.2,-611.83 628.07,-610.7 627,-609.5 564.15,-539.44 652.11,-259.08 591,-187.5 584.55,-179.94 576.21,-174.48 567.09,-170.56"/>
<polygon fill="midnightblue" stroke="midnightblue" points="628.62,-615.97 638.72,-619.18 632.83,-610.38 628.62,-615.97"/>
</g>
<!-- Node42 -->
<g id="node42" class="node">
<title>Node42</title>
<g id="a_node42"><a xlink:href="classdenoptim_1_1graph_1_1_d_graph_test.html#a3b99d7012da487a88acf937e3c9f5ea4" target="_top" xlink:title=" ">
<polygon fill="white" stroke="black" points="411,-98.5 411,-128.5 567,-128.5 567,-98.5 411,-98.5"/>
<text text-anchor="start" x="419" y="-116.5" font-family="Helvetica,sans-Serif" font-size="10.00">denoptim.graph.DGraphTest.test</text>
<text text-anchor="middle" x="489" y="-105.5" font-family="Helvetica,sans-Serif" font-size="10.00">ReplaceVertex</text>
</a>
</g>
</g>
<!-- Node20&#45;&gt;Node42 -->
<g id="edge47" class="edge">
<title>Node20&#45;&gt;Node42</title>
<path fill="none" stroke="midnightblue" d="M630.36,-612.92C629.19,-611.84 628.07,-610.7 627,-609.5 557.25,-531.06 658.8,-218.64 591,-138.5 584.58,-130.92 576.26,-125.44 567.15,-121.51"/>
<polygon fill="midnightblue" stroke="midnightblue" points="628.59,-615.98 638.68,-619.22 632.82,-610.39 628.59,-615.98"/>
</g>
<!-- Node43 -->
<g id="node43" class="node">
<title>Node43</title>
<g id="a_node43"><a xlink:href="classdenoptim_1_1graph_1_1_d_graph_test.html#a0b946dc2730c68f796c37e5f5cea4e36" target="_top" xlink:title=" ">
<polygon fill="white" stroke="black" points="411,-49.5 411,-79.5 567,-79.5 567,-49.5 411,-49.5"/>
<text text-anchor="start" x="419" y="-67.5" font-family="Helvetica,sans-Serif" font-size="10.00">denoptim.graph.DGraphTest.test</text>
<text text-anchor="middle" x="489" y="-56.5" font-family="Helvetica,sans-Serif" font-size="10.00">ReplaceVertex_inRing</text>
</a>
</g>
</g>
<!-- Node20&#45;&gt;Node43 -->
<g id="edge48" class="edge">
<title>Node20&#45;&gt;Node43</title>
<path fill="none" stroke="midnightblue" d="M630.35,-612.93C629.18,-611.85 628.06,-610.71 627,-609.5 550.34,-522.67 665.5,-178.2 591,-89.5 584.61,-81.89 576.3,-76.4 567.2,-72.46"/>
<polygon fill="midnightblue" stroke="midnightblue" points="628.57,-615.98 638.65,-619.25 632.81,-610.41 628.57,-615.98"/>
</g>
<!-- Node44 -->
<g id="node44" class="node">
<title>Node44</title>
<g id="a_node44"><a xlink:href="classdenoptim_1_1graph_1_1_d_graph_test.html#a0250850e0ef186b2cf9617a5de3ff34d" target="_top" xlink:title=" ">
<polygon fill="white" stroke="black" points="411,-0.5 411,-30.5 567,-30.5 567,-0.5 411,-0.5"/>
<text text-anchor="start" x="419" y="-18.5" font-family="Helvetica,sans-Serif" font-size="10.00">denoptim.graph.DGraphTest.test</text>
<text text-anchor="middle" x="489" y="-7.5" font-family="Helvetica,sans-Serif" font-size="10.00">SymmetricSetLabels</text>
</a>
</g>
</g>
<!-- Node20&#45;&gt;Node44 -->
<g id="edge49" class="edge">
<title>Node20&#45;&gt;Node44</title>
<path fill="none" stroke="midnightblue" d="M630.34,-612.94C629.17,-611.86 628.06,-610.71 627,-609.5 543.43,-514.27 672.2,-137.76 591,-40.5 584.63,-32.87 576.34,-27.37 567.24,-23.43"/>
<polygon fill="midnightblue" stroke="midnightblue" points="628.55,-615.98 638.62,-619.27 632.8,-610.42 628.55,-615.98"/>
</g>
</g>
</svg>
