<?xml version="1.0" encoding="UTF-8" standalone="no"?>
<!DOCTYPE svg PUBLIC "-//W3C//DTD SVG 1.1//EN"
 "http://www.w3.org/Graphics/SVG/1.1/DTD/svg11.dtd">
<!-- Generated by graphviz version 3.0.0 (20221109.1736)
 -->
<!-- Title: denoptim.ga.GraphOperations.checkAndAddXoverSites Pages: 1 -->
<svg width="1104pt" height="708pt"
 viewBox="0.00 0.00 1104.00 708.00" xmlns="http://www.w3.org/2000/svg" xmlns:xlink="http://www.w3.org/1999/xlink">
<g id="graph0" class="graph" transform="scale(1 1) rotate(0) translate(4 704)">
<title>denoptim.ga.GraphOperations.checkAndAddXoverSites</title>
<polygon fill="white" stroke="transparent" points="-4,4 -4,-704 1100,-704 1100,4 -4,4"/>
<!-- Node1 -->
<g id="node1" class="node">
<title>Node1</title>
<g id="a_node1"><a xlink:title="Here we check that the given subgraphs have a mapping that allows to swap them, and full fill any oth...">
<polygon fill="#bfbfbf" stroke="black" points="0,-427.5 0,-457.5 173,-457.5 173,-427.5 0,-427.5"/>
<text text-anchor="start" x="8" y="-445.5" font-family="Helvetica,sans-Serif" font-size="10.00">denoptim.ga.GraphOperations.check</text>
<text text-anchor="middle" x="86.5" y="-434.5" font-family="Helvetica,sans-Serif" font-size="10.00">AndAddXoverSites</text>
</a>
</g>
</g>
<!-- Node2 -->
<g id="node2" class="node">
<title>Node2</title>
<g id="a_node2"><a xlink:href="classdenoptim_1_1graph_1_1_d_graph.html#a1e17e9819b88c46fdaa97587f661d907" target="_top" xlink:title="Creates a new graph that corresponds to the subgraph of this graph when exploring the spanning tree f...">
<polygon fill="white" stroke="black" points="209,-651.5 209,-681.5 358,-681.5 358,-651.5 209,-651.5"/>
<text text-anchor="start" x="217" y="-669.5" font-family="Helvetica,sans-Serif" font-size="10.00">denoptim.graph.DGraph.extract</text>
<text text-anchor="middle" x="283.5" y="-658.5" font-family="Helvetica,sans-Serif" font-size="10.00">Subgraph</text>
</a>
</g>
</g>
<!-- Node1&#45;&gt;Node2 -->
<g id="edge1" class="edge">
<title>Node1&#45;&gt;Node2</title>
<path fill="none" stroke="midnightblue" d="M92.46,-457.53C105.46,-494.58 144.05,-591.02 209,-642.5 210.75,-643.89 212.59,-645.2 214.49,-646.43"/>
<polygon fill="midnightblue" stroke="midnightblue" points="212.76,-649.48 223.18,-651.38 216.22,-643.39 212.76,-649.48"/>
</g>
<!-- Node4 -->
<g id="node4" class="node">
<title>Node4</title>
<g id="a_node4"><a xlink:href="classdenoptim_1_1fragspace_1_1_a_p_map_finder.html#a6db61d6017ac32cdd5b12c0665270406" target="_top" xlink:title="Returns true if any mapping has been found.">
<polygon fill="white" stroke="black" points="215.5,-602.5 215.5,-632.5 351.5,-632.5 351.5,-602.5 215.5,-602.5"/>
<text text-anchor="start" x="223.5" y="-620.5" font-family="Helvetica,sans-Serif" font-size="10.00">denoptim.fragspace.APMap</text>
<text text-anchor="middle" x="283.5" y="-609.5" font-family="Helvetica,sans-Serif" font-size="10.00">Finder.foundMapping</text>
</a>
</g>
</g>
<!-- Node1&#45;&gt;Node4 -->
<g id="edge4" class="edge">
<title>Node1&#45;&gt;Node4</title>
<path fill="none" stroke="midnightblue" d="M95.71,-457.78C112.77,-488.12 155.01,-556.21 209,-593.5 211.25,-595.06 213.61,-596.52 216.05,-597.89"/>
<polygon fill="midnightblue" stroke="midnightblue" points="214.64,-601.09 225.14,-602.46 217.78,-594.84 214.64,-601.09"/>
</g>
<!-- Node5 -->
<g id="node5" class="node">
<title>Node5</title>
<g id="a_node5"><a xlink:href="classdenoptim_1_1graph_1_1_template.html#a021d75b3c1a57a4fd106530cde5c083b" target="_top" xlink:title="Returns the contract level of this template, i.e., to what extent the content of this template can be...">
<polygon fill="white" stroke="black" points="213,-553.5 213,-583.5 354,-583.5 354,-553.5 213,-553.5"/>
<text text-anchor="start" x="221" y="-571.5" font-family="Helvetica,sans-Serif" font-size="10.00">denoptim.graph.Template.get</text>
<text text-anchor="middle" x="283.5" y="-560.5" font-family="Helvetica,sans-Serif" font-size="10.00">ContractLevel</text>
</a>
</g>
</g>
<!-- Node1&#45;&gt;Node5 -->
<g id="edge5" class="edge">
<title>Node1&#45;&gt;Node5</title>
<path fill="none" stroke="midnightblue" d="M103.71,-457.78C126.03,-478.22 168.13,-514.66 209,-538.5 215.78,-542.46 223.18,-546.14 230.59,-549.47"/>
<polygon fill="midnightblue" stroke="midnightblue" points="229.37,-552.75 239.94,-553.5 232.14,-546.32 229.37,-552.75"/>
</g>
<!-- Node6 -->
<g id="node6" class="node">
<title>Node6</title>
<g id="a_node6"><a xlink:href="classdenoptim_1_1graph_1_1_d_graph.html#a5e4be036a7fd8299fd15e1ffb0d3e42f" target="_top" xlink:title="Identify the oldest ancestor (i.e., most great grandparent) in the given collection.">
<polygon fill="white" stroke="black" points="216.5,-427.5 216.5,-457.5 350.5,-457.5 350.5,-427.5 216.5,-427.5"/>
<text text-anchor="start" x="224.5" y="-445.5" font-family="Helvetica,sans-Serif" font-size="10.00">denoptim.graph.DGraph.get</text>
<text text-anchor="middle" x="283.5" y="-434.5" font-family="Helvetica,sans-Serif" font-size="10.00">DeepestAmongThese</text>
</a>
</g>
</g>
<!-- Node1&#45;&gt;Node6 -->
<g id="edge6" class="edge">
<title>Node1&#45;&gt;Node6</title>
<path fill="none" stroke="midnightblue" d="M173.03,-442.5C184.04,-442.5 195.26,-442.5 206.11,-442.5"/>
<polygon fill="midnightblue" stroke="midnightblue" points="206.39,-446 216.39,-442.5 206.39,-439 206.39,-446"/>
</g>
<!-- Node9 -->
<g id="node9" class="node">
<title>Node9</title>
<g id="a_node9"><a xlink:href="classdenoptim_1_1graph_1_1_vertex.html#a2937a75fd3652481c84235742b94736b" target="_top" xlink:title="Looks into the edges that use any of the APs that belong to this vertex and returns the edge that has...">
<polygon fill="white" stroke="black" points="770.5,-465.5 770.5,-495.5 898.5,-495.5 898.5,-465.5 770.5,-465.5"/>
<text text-anchor="start" x="778.5" y="-483.5" font-family="Helvetica,sans-Serif" font-size="10.00">denoptim.graph.Vertex.get</text>
<text text-anchor="middle" x="834.5" y="-472.5" font-family="Helvetica,sans-Serif" font-size="10.00">EdgeToParent</text>
</a>
</g>
</g>
<!-- Node1&#45;&gt;Node9 -->
<g id="edge15" class="edge">
<title>Node1&#45;&gt;Node9</title>
<path fill="none" stroke="midnightblue" d="M152.76,-457.54C170.87,-461.13 190.62,-464.49 209,-466.5 407.31,-488.14 643.07,-485.91 760.06,-482.94"/>
<polygon fill="midnightblue" stroke="midnightblue" points="760.42,-486.43 770.33,-482.67 760.24,-479.44 760.42,-486.43"/>
</g>
<!-- Node11 -->
<g id="node11" class="node">
<title>Node11</title>
<g id="a_node11"><a xlink:href="classdenoptim_1_1graph_1_1_edge.html#a44521a3ad1a83e5d0a6be227e35ceffa" target="_top" xlink:title=" ">
<polygon fill="white" stroke="black" points="946,-471 946,-490 1096,-490 1096,-471 946,-471"/>
<text text-anchor="middle" x="1021" y="-478" font-family="Helvetica,sans-Serif" font-size="10.00">denoptim.graph.Edge.getTrgAP</text>
</a>
</g>
</g>
<!-- Node1&#45;&gt;Node11 -->
<g id="edge20" class="edge">
<title>Node1&#45;&gt;Node11</title>
<path fill="none" stroke="midnightblue" d="M123.05,-457.56C146.96,-467.13 179.4,-479.09 209,-486.5 323.78,-515.24 354.18,-524.5 472.5,-524.5 472.5,-524.5 472.5,-524.5 657,-524.5 769.8,-524.5 798.42,-521 910,-504.5 930.66,-501.44 953.25,-496.76 972.54,-492.33"/>
<polygon fill="midnightblue" stroke="midnightblue" points="973.36,-495.73 982.31,-490.05 971.77,-488.92 973.36,-495.73"/>
</g>
<!-- Node14 -->
<g id="node14" class="node">
<title>Node14</title>
<g id="a_node14"><a xlink:href="classdenoptim_1_1graph_1_1_d_graph.html#a6e658646bb7be49c4deea6fc892150ee" target="_top" xlink:title="Searches for all AttachmentPoints that represent the interface between a subgraph,...">
<polygon fill="white" stroke="black" points="216.5,-378.5 216.5,-408.5 350.5,-408.5 350.5,-378.5 216.5,-378.5"/>
<text text-anchor="start" x="224.5" y="-396.5" font-family="Helvetica,sans-Serif" font-size="10.00">denoptim.graph.DGraph.get</text>
<text text-anchor="middle" x="283.5" y="-385.5" font-family="Helvetica,sans-Serif" font-size="10.00">InterfaceAPs</text>
</a>
</g>
</g>
<!-- Node1&#45;&gt;Node14 -->
<g id="edge16" class="edge">
<title>Node1&#45;&gt;Node14</title>
<path fill="none" stroke="midnightblue" d="M147.33,-427.47C168.11,-422.24 191.58,-416.35 213.07,-410.95"/>
<polygon fill="midnightblue" stroke="midnightblue" points="213.94,-414.34 222.78,-408.51 212.23,-407.55 213.94,-414.34"/>
</g>
<!-- Node15 -->
<g id="node15" class="node">
<title>Node15</title>
<g id="a_node15"><a xlink:href="classdenoptim_1_1graph_1_1_d_graph.html#a3334159ed57d53d1e29bd34f31bfc9a4" target="_top" xlink:title="Returns the list of rings that include the given vertex in their fundamental cycle.">
<polygon fill="white" stroke="black" points="216.5,-329.5 216.5,-359.5 350.5,-359.5 350.5,-329.5 216.5,-329.5"/>
<text text-anchor="start" x="224.5" y="-347.5" font-family="Helvetica,sans-Serif" font-size="10.00">denoptim.graph.DGraph.get</text>
<text text-anchor="middle" x="283.5" y="-336.5" font-family="Helvetica,sans-Serif" font-size="10.00">RingsInvolvingVertex</text>
</a>
</g>
</g>
<!-- Node1&#45;&gt;Node15 -->
<g id="edge17" class="edge">
<title>Node1&#45;&gt;Node15</title>
<path fill="none" stroke="midnightblue" d="M109.04,-427.26C132.69,-411.04 172.2,-385.43 209,-368.5 213.09,-366.62 217.37,-364.82 221.72,-363.11"/>
<polygon fill="midnightblue" stroke="midnightblue" points="223.16,-366.3 231.3,-359.52 220.71,-359.75 223.16,-366.3"/>
</g>
<!-- Node16 -->
<g id="node16" class="node">
<title>Node16</title>
<g id="a_node16"><a xlink:href="classdenoptim_1_1graph_1_1_d_graph.html#acb7416edd218ba143cb316e4b363ccc6" target="_top" xlink:title="Searches for all AttachmentPoints that are owned by vertices in a subgraph but either available or us...">
<polygon fill="white" stroke="black" points="216.5,-280.5 216.5,-310.5 350.5,-310.5 350.5,-280.5 216.5,-280.5"/>
<text text-anchor="start" x="224.5" y="-298.5" font-family="Helvetica,sans-Serif" font-size="10.00">denoptim.graph.DGraph.get</text>
<text text-anchor="middle" x="283.5" y="-287.5" font-family="Helvetica,sans-Serif" font-size="10.00">SubgraphAPs</text>
</a>
</g>
</g>
<!-- Node1&#45;&gt;Node16 -->
<g id="edge18" class="edge">
<title>Node1&#45;&gt;Node16</title>
<path fill="none" stroke="midnightblue" d="M98.5,-427.35C117.97,-401.6 161,-349.17 209,-319.5 211.65,-317.86 214.43,-316.32 217.29,-314.87"/>
<polygon fill="midnightblue" stroke="midnightblue" points="219.01,-317.93 226.64,-310.58 216.09,-311.57 219.01,-317.93"/>
</g>
<!-- Node17 -->
<g id="node17" class="node">
<title>Node17</title>
<g id="a_node17"><a xlink:href="classdenoptim_1_1graph_1_1_d_graph.html#af2525aa3773ba7f1c60697d6587f91c5" target="_top" xlink:title=" ">
<polygon fill="white" stroke="black" points="216.5,-231.5 216.5,-261.5 350.5,-261.5 350.5,-231.5 216.5,-231.5"/>
<text text-anchor="start" x="224.5" y="-249.5" font-family="Helvetica,sans-Serif" font-size="10.00">denoptim.graph.DGraph.get</text>
<text text-anchor="middle" x="283.5" y="-238.5" font-family="Helvetica,sans-Serif" font-size="10.00">TemplateJacket</text>
</a>
</g>
</g>
<!-- Node1&#45;&gt;Node17 -->
<g id="edge19" class="edge">
<title>Node1&#45;&gt;Node17</title>
<path fill="none" stroke="midnightblue" d="M94.07,-427.39C109.31,-394.07 150.31,-313.81 209,-270.5 210.89,-269.11 212.86,-267.79 214.89,-266.55"/>
<polygon fill="midnightblue" stroke="midnightblue" points="217.01,-269.39 224.17,-261.58 213.7,-263.22 217.01,-269.39"/>
</g>
<!-- Node18 -->
<g id="node18" class="node">
<title>Node18</title>
<g id="a_node18"><a xlink:href="classdenoptim_1_1graph_1_1_d_graph.html#afb3a5b3a5e8d74babc82474f8458b91f" target="_top" xlink:title="Checks if this graph is &quot;DENOPTIM&#45;isostructural&quot; to the other one given.">
<polygon fill="white" stroke="black" points="219.5,-147.5 219.5,-177.5 347.5,-177.5 347.5,-147.5 219.5,-147.5"/>
<text text-anchor="start" x="227.5" y="-165.5" font-family="Helvetica,sans-Serif" font-size="10.00">denoptim.graph.DGraph.is</text>
<text text-anchor="middle" x="283.5" y="-154.5" font-family="Helvetica,sans-Serif" font-size="10.00">IsostructuralTo</text>
</a>
</g>
</g>
<!-- Node1&#45;&gt;Node18 -->
<g id="edge21" class="edge">
<title>Node1&#45;&gt;Node18</title>
<path fill="none" stroke="midnightblue" d="M93.39,-427.32C108.51,-389.62 151.56,-289.9 209,-221.5 221.03,-207.18 236.96,-193.89 250.92,-183.56"/>
<polygon fill="midnightblue" stroke="midnightblue" points="253.23,-186.21 259.3,-177.53 249.14,-180.53 253.23,-186.21"/>
</g>
<!-- Node2&#45;&gt;Node2 -->
<g id="edge2" class="edge">
<title>Node2&#45;&gt;Node2</title>
<path fill="none" stroke="midnightblue" d="M250.39,-681.66C242.4,-691.06 253.44,-700 283.5,-700 301.82,-700 313.07,-696.68 317.26,-691.96"/>
<polygon fill="midnightblue" stroke="midnightblue" points="320.73,-691.42 316.61,-681.66 313.75,-691.86 320.73,-691.42"/>
</g>
<!-- Node3 -->
<g id="node3" class="node">
<title>Node3</title>
<g id="a_node3"><a xlink:href="classdenoptim_1_1graph_1_1_d_graph.html#a58811a9ea75a26abffc1a9c7c2b22741" target="_top" xlink:title="Returns the vertex that is in the given position of the list of vertices belonging to this graph.">
<polygon fill="white" stroke="black" points="406.5,-651.5 406.5,-681.5 540.5,-681.5 540.5,-651.5 406.5,-651.5"/>
<text text-anchor="start" x="414.5" y="-669.5" font-family="Helvetica,sans-Serif" font-size="10.00">denoptim.graph.DGraph.get</text>
<text text-anchor="middle" x="473.5" y="-658.5" font-family="Helvetica,sans-Serif" font-size="10.00">VertexAtPosition</text>
</a>
</g>
</g>
<!-- Node2&#45;&gt;Node3 -->
<g id="edge3" class="edge">
<title>Node2&#45;&gt;Node3</title>
<path fill="none" stroke="midnightblue" d="M358.26,-666.5C370.64,-666.5 383.51,-666.5 395.95,-666.5"/>
<polygon fill="midnightblue" stroke="midnightblue" points="396.29,-670 406.29,-666.5 396.29,-663 396.29,-670"/>
</g>
<!-- Node7 -->
<g id="node7" class="node">
<title>Node7</title>
<g id="a_node7"><a xlink:href="classdenoptim_1_1graph_1_1_d_graph.html#aaf3eb72074f66c853ea40c06ac9bea0e" target="_top" xlink:title="Traverse the graph until it identifies the source of the directed path reachable from the given verte...">
<polygon fill="white" stroke="black" points="406.5,-409.5 406.5,-439.5 540.5,-439.5 540.5,-409.5 406.5,-409.5"/>
<text text-anchor="start" x="414.5" y="-427.5" font-family="Helvetica,sans-Serif" font-size="10.00">denoptim.graph.DGraph.get</text>
<text text-anchor="middle" x="473.5" y="-416.5" font-family="Helvetica,sans-Serif" font-size="10.00">ParentTree</text>
</a>
</g>
</g>
<!-- Node6&#45;&gt;Node7 -->
<g id="edge7" class="edge">
<title>Node6&#45;&gt;Node7</title>
<path fill="none" stroke="midnightblue" d="M350.52,-436.18C365.22,-434.77 380.92,-433.27 396,-431.82"/>
<polygon fill="midnightblue" stroke="midnightblue" points="396.7,-435.27 406.32,-430.84 396.04,-428.31 396.7,-435.27"/>
</g>
<!-- Node7&#45;&gt;Node7 -->
<g id="edge14" class="edge">
<title>Node7&#45;&gt;Node7</title>
<path fill="none" stroke="midnightblue" d="M441.78,-439.66C434.13,-449.06 444.71,-458 473.5,-458 491.05,-458 501.83,-454.68 505.84,-449.96"/>
<polygon fill="midnightblue" stroke="midnightblue" points="509.31,-449.43 505.22,-439.66 502.33,-449.85 509.31,-449.43"/>
</g>
<!-- Node8 -->
<g id="node8" class="node">
<title>Node8</title>
<g id="a_node8"><a xlink:href="classdenoptim_1_1graph_1_1_d_graph.html#a978d4b9f0c7e555fa1db7ed5a6af5a6c" target="_top" xlink:title=" ">
<polygon fill="white" stroke="black" points="589,-416.5 589,-446.5 723,-446.5 723,-416.5 589,-416.5"/>
<text text-anchor="start" x="597" y="-434.5" font-family="Helvetica,sans-Serif" font-size="10.00">denoptim.graph.DGraph.get</text>
<text text-anchor="middle" x="656" y="-423.5" font-family="Helvetica,sans-Serif" font-size="10.00">Parent</text>
</a>
</g>
</g>
<!-- Node7&#45;&gt;Node8 -->
<g id="edge8" class="edge">
<title>Node7&#45;&gt;Node8</title>
<path fill="none" stroke="midnightblue" d="M540.69,-427.07C553.07,-427.55 566.11,-428.05 578.77,-428.54"/>
<polygon fill="midnightblue" stroke="midnightblue" points="578.69,-432.04 588.82,-428.93 578.96,-425.05 578.69,-432.04"/>
</g>
<!-- Node8&#45;&gt;Node9 -->
<g id="edge9" class="edge">
<title>Node8&#45;&gt;Node9</title>
<path fill="none" stroke="midnightblue" d="M711.4,-446.6C729.77,-451.7 750.45,-457.44 769.49,-462.73"/>
<polygon fill="midnightblue" stroke="midnightblue" points="768.71,-466.15 779.28,-465.45 770.58,-459.4 768.71,-466.15"/>
</g>
<!-- Node12 -->
<g id="node12" class="node">
<title>Node12</title>
<g id="a_node12"><a xlink:href="classdenoptim_1_1graph_1_1_attachment_point.html#ac8551521d38644f5109800b665957ee9" target="_top" xlink:title=" ">
<polygon fill="white" stroke="black" points="767,-416.5 767,-446.5 902,-446.5 902,-416.5 767,-416.5"/>
<text text-anchor="start" x="775" y="-434.5" font-family="Helvetica,sans-Serif" font-size="10.00">denoptim.graph.Attachment</text>
<text text-anchor="middle" x="834.5" y="-423.5" font-family="Helvetica,sans-Serif" font-size="10.00">Point.getOwner</text>
</a>
</g>
</g>
<!-- Node8&#45;&gt;Node12 -->
<g id="edge12" class="edge">
<title>Node8&#45;&gt;Node12</title>
<path fill="none" stroke="midnightblue" d="M723.22,-431.5C734.16,-431.5 745.57,-431.5 756.74,-431.5"/>
<polygon fill="midnightblue" stroke="midnightblue" points="756.9,-435 766.9,-431.5 756.9,-428 756.9,-435"/>
</g>
<!-- Node13 -->
<g id="node13" class="node">
<title>Node13</title>
<g id="a_node13"><a xlink:href="classdenoptim_1_1graph_1_1_edge.html#a658e275a18a50f12474777f5f28c35e9" target="_top" xlink:title=" ">
<polygon fill="white" stroke="black" points="759,-378 759,-397 910,-397 910,-378 759,-378"/>
<text text-anchor="middle" x="834.5" y="-385" font-family="Helvetica,sans-Serif" font-size="10.00">denoptim.graph.Edge.getSrcAP</text>
</a>
</g>
</g>
<!-- Node8&#45;&gt;Node13 -->
<g id="edge13" class="edge">
<title>Node8&#45;&gt;Node13</title>
<path fill="none" stroke="midnightblue" d="M717.25,-416.48C739.48,-410.94 764.35,-404.74 785.36,-399.5"/>
<polygon fill="midnightblue" stroke="midnightblue" points="786.49,-402.83 795.34,-397.01 784.79,-396.04 786.49,-402.83"/>
</g>
<!-- Node10 -->
<g id="node10" class="node">
<title>Node10</title>
<g id="a_node10"><a xlink:href="classdenoptim_1_1graph_1_1_vertex.html#a85aa901ec3fff8e566c0cc32d9c9f84e" target="_top" xlink:title=" ">
<polygon fill="white" stroke="black" points="957,-359.5 957,-389.5 1085,-389.5 1085,-359.5 957,-359.5"/>
<text text-anchor="start" x="965" y="-377.5" font-family="Helvetica,sans-Serif" font-size="10.00">denoptim.graph.Vertex.get</text>
<text text-anchor="middle" x="1021" y="-366.5" font-family="Helvetica,sans-Serif" font-size="10.00">AttachmentPoints</text>
</a>
</g>
</g>
<!-- Node9&#45;&gt;Node10 -->
<g id="edge10" class="edge">
<title>Node9&#45;&gt;Node10</title>
<path fill="none" stroke="midnightblue" d="M887.26,-465.47C895.05,-462.54 902.86,-459.21 910,-455.5 941.54,-439.11 973.84,-414.15 995.21,-396.28"/>
<polygon fill="midnightblue" stroke="midnightblue" points="997.48,-398.94 1002.84,-389.8 992.95,-393.6 997.48,-398.94"/>
</g>
<!-- Node9&#45;&gt;Node11 -->
<g id="edge11" class="edge">
<title>Node9&#45;&gt;Node11</title>
<path fill="none" stroke="midnightblue" d="M898.74,-480.5C910.55,-480.5 923.08,-480.5 935.42,-480.5"/>
<polygon fill="midnightblue" stroke="midnightblue" points="935.72,-484 945.72,-480.5 935.72,-477 935.72,-484"/>
</g>
<!-- Node19 -->
<g id="node19" class="node">
<title>Node19</title>
<g id="a_node19"><a xlink:href="classdenoptim_1_1graph_1_1simplified_1_1_node.html#a50e54a8bf7a4927c23f43c1cdbabdf38" target="_top" xlink:title=" ">
<polygon fill="white" stroke="black" points="409.5,-49.5 409.5,-79.5 537.5,-79.5 537.5,-49.5 409.5,-49.5"/>
<text text-anchor="start" x="417.5" y="-67.5" font-family="Helvetica,sans-Serif" font-size="10.00">denoptim.graph.simplified.</text>
<text text-anchor="middle" x="473.5" y="-56.5" font-family="Helvetica,sans-Serif" font-size="10.00">Node.compare</text>
</a>
</g>
</g>
<!-- Node18&#45;&gt;Node19 -->
<g id="edge22" class="edge">
<title>Node18&#45;&gt;Node19</title>
<path fill="none" stroke="midnightblue" d="M303.22,-147.28C324.22,-130.84 359.84,-104.81 394,-88.5 398.01,-86.58 402.22,-84.78 406.5,-83.08"/>
<polygon fill="midnightblue" stroke="midnightblue" points="407.83,-86.32 415.98,-79.55 405.38,-79.76 407.83,-86.32"/>
</g>
<!-- Node20 -->
<g id="node20" class="node">
<title>Node20</title>
<g id="a_node20"><a xlink:href="classdenoptim_1_1graph_1_1simplified_1_1_node_connection.html#a23745c4d04b0c44f58d23317fe85d98d" target="_top" xlink:title=" ">
<polygon fill="white" stroke="black" points="409.5,-0.5 409.5,-30.5 537.5,-30.5 537.5,-0.5 409.5,-0.5"/>
<text text-anchor="start" x="417.5" y="-18.5" font-family="Helvetica,sans-Serif" font-size="10.00">denoptim.graph.simplified.</text>
<text text-anchor="middle" x="473.5" y="-7.5" font-family="Helvetica,sans-Serif" font-size="10.00">NodeConnection.compare</text>
</a>
</g>
</g>
<!-- Node18&#45;&gt;Node20 -->
<g id="edge23" class="edge">
<title>Node18&#45;&gt;Node20</title>
<path fill="none" stroke="midnightblue" d="M294,-147.22C310.91,-121.24 348.75,-68.51 394,-39.5 396.47,-37.91 399.06,-36.43 401.72,-35.03"/>
<polygon fill="midnightblue" stroke="midnightblue" points="403.47,-38.08 411.02,-30.65 400.48,-31.75 403.47,-38.08"/>
</g>
<!-- Node21 -->
<g id="node21" class="node">
<title>Node21</title>
<g id="a_node21"><a xlink:href="classdenoptim_1_1graph_1_1simplified_1_1_node.html#a481c397369dce8e1764756963c709119" target="_top" xlink:title=" ">
<polygon fill="white" stroke="black" points="409.5,-196.5 409.5,-226.5 537.5,-226.5 537.5,-196.5 409.5,-196.5"/>
<text text-anchor="start" x="417.5" y="-214.5" font-family="Helvetica,sans-Serif" font-size="10.00">denoptim.graph.simplified.</text>
<text text-anchor="middle" x="473.5" y="-203.5" font-family="Helvetica,sans-Serif" font-size="10.00">Node.getDNPVertex</text>
</a>
</g>
</g>
<!-- Node18&#45;&gt;Node21 -->
<g id="edge24" class="edge">
<title>Node18&#45;&gt;Node21</title>
<path fill="none" stroke="midnightblue" d="M342.18,-177.53C362.03,-182.71 384.44,-188.55 405,-193.91"/>
<polygon fill="midnightblue" stroke="midnightblue" points="404.37,-197.36 414.93,-196.49 406.13,-190.58 404.37,-197.36"/>
</g>
<!-- Node22 -->
<g id="node22" class="node">
<title>Node22</title>
<g id="a_node22"><a xlink:href="classdenoptim_1_1graph_1_1_vertex.html#a6615f1c869173b8bd6d730c6683b9de4" target="_top" xlink:title="Returns the graph this vertex belongs to or null.">
<polygon fill="white" stroke="black" points="409.5,-147.5 409.5,-177.5 537.5,-177.5 537.5,-147.5 409.5,-147.5"/>
<text text-anchor="start" x="417.5" y="-165.5" font-family="Helvetica,sans-Serif" font-size="10.00">denoptim.graph.Vertex.get</text>
<text text-anchor="middle" x="473.5" y="-154.5" font-family="Helvetica,sans-Serif" font-size="10.00">GraphOwner</text>
</a>
</g>
</g>
<!-- Node18&#45;&gt;Node22 -->
<g id="edge25" class="edge">
<title>Node18&#45;&gt;Node22</title>
<path fill="none" stroke="midnightblue" d="M347.62,-162.5C364.06,-162.5 381.9,-162.5 398.83,-162.5"/>
<polygon fill="midnightblue" stroke="midnightblue" points="399.22,-166 409.22,-162.5 399.22,-159 399.22,-166"/>
</g>
<!-- Node23 -->
<g id="node23" class="node">
<title>Node23</title>
<g id="a_node23"><a xlink:href="classdenoptim_1_1utils_1_1_graph_conversion_tool.html#adeaae6388172f39d971e781f4b8f0efb" target="_top" xlink:title="Converts a DGraph into a simplified JGraphT DefaultUndirectedGraph.">
<polygon fill="white" stroke="black" points="394,-245.5 394,-275.5 553,-275.5 553,-245.5 394,-245.5"/>
<text text-anchor="start" x="402" y="-263.5" font-family="Helvetica,sans-Serif" font-size="10.00">denoptim.utils.GraphConversion</text>
<text text-anchor="middle" x="473.5" y="-252.5" font-family="Helvetica,sans-Serif" font-size="10.00">Tool.getJGraphKernelFromGraph</text>
</a>
</g>
</g>
<!-- Node18&#45;&gt;Node23 -->
<g id="edge26" class="edge">
<title>Node18&#45;&gt;Node23</title>
<path fill="none" stroke="midnightblue" d="M303.68,-177.72C324.79,-193.87 360.23,-219.26 394,-235.5 398.63,-237.73 403.52,-239.82 408.48,-241.78"/>
<polygon fill="midnightblue" stroke="midnightblue" points="407.51,-245.15 418.1,-245.37 409.95,-238.59 407.51,-245.15"/>
</g>
<!-- Node32 -->
<g id="node32" class="node">
<title>Node32</title>
<g id="a_node32"><a xlink:href="classdenoptim_1_1graph_1_1_d_graph.html#aadd56400d6e58931401e88dd814de705" target="_top" xlink:title="Returns the set of vertexes symmetric to the given one.">
<polygon fill="white" stroke="black" points="406.5,-98.5 406.5,-128.5 540.5,-128.5 540.5,-98.5 406.5,-98.5"/>
<text text-anchor="start" x="414.5" y="-116.5" font-family="Helvetica,sans-Serif" font-size="10.00">denoptim.graph.DGraph.get</text>
<text text-anchor="middle" x="473.5" y="-105.5" font-family="Helvetica,sans-Serif" font-size="10.00">SymSetForVertex</text>
</a>
</g>
</g>
<!-- Node18&#45;&gt;Node32 -->
<g id="edge39" class="edge">
<title>Node18&#45;&gt;Node32</title>
<path fill="none" stroke="midnightblue" d="M342.18,-147.47C362.03,-142.29 384.44,-136.45 405,-131.09"/>
<polygon fill="midnightblue" stroke="midnightblue" points="406.13,-134.42 414.93,-128.51 404.37,-127.64 406.13,-134.42"/>
</g>
<!-- Node24 -->
<g id="node24" class="node">
<title>Node24</title>
<g id="a_node24"><a xlink:href="classdenoptim_1_1graph_1_1_d_graph.html#a309d3784aeae9aedce785314e753bdc5" target="_top" xlink:title="Returns the list of available attachment points contained in this graph.">
<polygon fill="white" stroke="black" points="589,-171.5 589,-201.5 723,-201.5 723,-171.5 589,-171.5"/>
<text text-anchor="start" x="597" y="-189.5" font-family="Helvetica,sans-Serif" font-size="10.00">denoptim.graph.DGraph.get</text>
<text text-anchor="middle" x="656" y="-178.5" font-family="Helvetica,sans-Serif" font-size="10.00">AvailableAPs</text>
</a>
</g>
</g>
<!-- Node23&#45;&gt;Node24 -->
<g id="edge27" class="edge">
<title>Node23&#45;&gt;Node24</title>
<path fill="none" stroke="midnightblue" d="M528.96,-245.5C537.18,-242.57 545.43,-239.23 553,-235.5 570.48,-226.89 571.7,-219.46 589,-210.5 592.34,-208.77 595.82,-207.11 599.38,-205.53"/>
<polygon fill="midnightblue" stroke="midnightblue" points="601.04,-208.63 608.9,-201.53 598.32,-202.18 601.04,-208.63"/>
</g>
<!-- Node26 -->
<g id="node26" class="node">
<title>Node26</title>
<g id="a_node26"><a xlink:href="classdenoptim_1_1graph_1_1_d_graph.html#ab5d3641bcfd0c8dd76d5de6159d6b8c8" target="_top" xlink:title=" ">
<polygon fill="white" stroke="black" points="589,-122.5 589,-152.5 723,-152.5 723,-122.5 589,-122.5"/>
<text text-anchor="start" x="597" y="-140.5" font-family="Helvetica,sans-Serif" font-size="10.00">denoptim.graph.DGraph.get</text>
<text text-anchor="middle" x="656" y="-129.5" font-family="Helvetica,sans-Serif" font-size="10.00">EdgeList</text>
</a>
</g>
</g>
<!-- Node23&#45;&gt;Node26 -->
<g id="edge29" class="edge">
<title>Node23&#45;&gt;Node26</title>
<path fill="none" stroke="midnightblue" d="M538.22,-245.34C543.54,-242.59 548.56,-239.34 553,-235.5 580.66,-211.57 561.83,-185.98 589,-161.5 590.31,-160.32 591.68,-159.2 593.1,-158.13"/>
<polygon fill="midnightblue" stroke="midnightblue" points="595.2,-160.94 601.72,-152.59 591.42,-155.05 595.2,-160.94"/>
</g>
<!-- Node27 -->
<g id="node27" class="node">
<title>Node27</title>
<g id="a_node27"><a xlink:href="classdenoptim_1_1graph_1_1_vertex.html#a44e705b8949b0fd73763e2e92a118b78" target="_top" xlink:title="Looks into the edges that use any of the APs that belong to this vertex and returns the vertex which ...">
<polygon fill="white" stroke="black" points="592,-367.5 592,-397.5 720,-397.5 720,-367.5 592,-367.5"/>
<text text-anchor="start" x="600" y="-385.5" font-family="Helvetica,sans-Serif" font-size="10.00">denoptim.graph.Vertex.get</text>
<text text-anchor="middle" x="656" y="-374.5" font-family="Helvetica,sans-Serif" font-size="10.00">Parent</text>
</a>
</g>
</g>
<!-- Node23&#45;&gt;Node27 -->
<g id="edge30" class="edge">
<title>Node23&#45;&gt;Node27</title>
<path fill="none" stroke="midnightblue" d="M489.13,-275.82C509.74,-296.68 549.27,-334.09 589,-357.5 592.41,-359.51 596,-361.41 599.69,-363.19"/>
<polygon fill="midnightblue" stroke="midnightblue" points="598.41,-366.46 608.97,-367.39 601.3,-360.08 598.41,-366.46"/>
</g>
<!-- Node28 -->
<g id="node28" class="node">
<title>Node28</title>
<g id="a_node28"><a xlink:href="classdenoptim_1_1graph_1_1_vertex.html#a9ad275adf822019ad803cb3c95e9a6d2" target="_top" xlink:title=" ">
<polygon fill="white" stroke="black" points="592,-73.5 592,-103.5 720,-103.5 720,-73.5 592,-73.5"/>
<text text-anchor="start" x="600" y="-91.5" font-family="Helvetica,sans-Serif" font-size="10.00">denoptim.graph.Vertex.get</text>
<text text-anchor="middle" x="656" y="-80.5" font-family="Helvetica,sans-Serif" font-size="10.00">Property</text>
</a>
</g>
</g>
<!-- Node23&#45;&gt;Node28 -->
<g id="edge35" class="edge">
<title>Node23&#45;&gt;Node28</title>
<path fill="none" stroke="midnightblue" d="M540.06,-245.45C544.8,-242.67 549.2,-239.39 553,-235.5 592.8,-194.75 550.03,-154.05 589,-112.5 589.91,-111.52 590.87,-110.59 591.87,-109.69"/>
<polygon fill="midnightblue" stroke="midnightblue" points="594.22,-112.31 600.14,-103.52 590.03,-106.69 594.22,-112.31"/>
</g>
<!-- Node29 -->
<g id="node29" class="node">
<title>Node29</title>
<g id="a_node29"><a xlink:href="classdenoptim_1_1graph_1_1_d_graph.html#aa97f94be30bcd2895a615904c741f4f8" target="_top" xlink:title=" ">
<polygon fill="white" stroke="black" points="589,-318.5 589,-348.5 723,-348.5 723,-318.5 589,-318.5"/>
<text text-anchor="start" x="597" y="-336.5" font-family="Helvetica,sans-Serif" font-size="10.00">denoptim.graph.DGraph.get</text>
<text text-anchor="middle" x="656" y="-325.5" font-family="Helvetica,sans-Serif" font-size="10.00">Rings</text>
</a>
</g>
</g>
<!-- Node23&#45;&gt;Node29 -->
<g id="edge36" class="edge">
<title>Node23&#45;&gt;Node29</title>
<path fill="none" stroke="midnightblue" d="M509.45,-275.52C532.06,-285.15 562.17,-297.8 589,-308.5 594.12,-310.54 599.48,-312.64 604.84,-314.71"/>
<polygon fill="midnightblue" stroke="midnightblue" points="603.83,-318.07 614.42,-318.39 606.34,-311.54 603.83,-318.07"/>
</g>
<!-- Node30 -->
<g id="node30" class="node">
<title>Node30</title>
<g id="a_node30"><a xlink:href="classdenoptim_1_1graph_1_1_d_graph.html#a650a0f54382fb930bf57429dd616258a" target="_top" xlink:title=" ">
<polygon fill="white" stroke="black" points="589,-269.5 589,-299.5 723,-299.5 723,-269.5 589,-269.5"/>
<text text-anchor="start" x="597" y="-287.5" font-family="Helvetica,sans-Serif" font-size="10.00">denoptim.graph.DGraph.get</text>
<text text-anchor="middle" x="656" y="-276.5" font-family="Helvetica,sans-Serif" font-size="10.00">VertexList</text>
</a>
</g>
</g>
<!-- Node23&#45;&gt;Node30 -->
<g id="edge37" class="edge">
<title>Node23&#45;&gt;Node30</title>
<path fill="none" stroke="midnightblue" d="M553.14,-270.96C561.59,-272.08 570.17,-273.22 578.58,-274.34"/>
<polygon fill="midnightblue" stroke="midnightblue" points="578.37,-277.84 588.75,-275.69 579.3,-270.9 578.37,-277.84"/>
</g>
<!-- Node31 -->
<g id="node31" class="node">
<title>Node31</title>
<g id="a_node31"><a xlink:href="classdenoptim_1_1graph_1_1_d_graph.html#aca10b3acbf66e3652cb9664179ed368f" target="_top" xlink:title=" ">
<polygon fill="white" stroke="black" points="592,-220.5 592,-250.5 720,-250.5 720,-220.5 592,-220.5"/>
<text text-anchor="start" x="600" y="-238.5" font-family="Helvetica,sans-Serif" font-size="10.00">denoptim.graph.DGraph.is</text>
<text text-anchor="middle" x="656" y="-227.5" font-family="Helvetica,sans-Serif" font-size="10.00">VertexInRing</text>
</a>
</g>
</g>
<!-- Node23&#45;&gt;Node31 -->
<g id="edge38" class="edge">
<title>Node23&#45;&gt;Node31</title>
<path fill="none" stroke="midnightblue" d="M553.14,-249.61C562.63,-248.29 572.3,-246.95 581.7,-245.65"/>
<polygon fill="midnightblue" stroke="midnightblue" points="582.37,-249.09 591.79,-244.25 581.4,-242.16 582.37,-249.09"/>
</g>
<!-- Node25 -->
<g id="node25" class="node">
<title>Node25</title>
<g id="a_node25"><a xlink:href="classdenoptim_1_1graph_1_1_d_graph.html#a27e25f8f8e1516d81cc281e2795a9428" target="_top" xlink:title="Returns the list of all attachment points contained in this graph.">
<polygon fill="white" stroke="black" points="767.5,-171.5 767.5,-201.5 901.5,-201.5 901.5,-171.5 767.5,-171.5"/>
<text text-anchor="start" x="775.5" y="-189.5" font-family="Helvetica,sans-Serif" font-size="10.00">denoptim.graph.DGraph.get</text>
<text text-anchor="middle" x="834.5" y="-178.5" font-family="Helvetica,sans-Serif" font-size="10.00">AttachmentPoints</text>
</a>
</g>
</g>
<!-- Node24&#45;&gt;Node25 -->
<g id="edge28" class="edge">
<title>Node24&#45;&gt;Node25</title>
<path fill="none" stroke="midnightblue" d="M723.22,-186.5C734.31,-186.5 745.89,-186.5 757.2,-186.5"/>
<polygon fill="midnightblue" stroke="midnightblue" points="757.49,-190 767.49,-186.5 757.49,-183 757.49,-190"/>
</g>
<!-- Node27&#45;&gt;Node10 -->
<g id="edge31" class="edge">
<title>Node27&#45;&gt;Node10</title>
<path fill="none" stroke="midnightblue" d="M700.45,-367.37C708.07,-364.34 715.85,-361 723,-357.5 739.84,-349.25 740.95,-340.58 759,-335.5 823.6,-317.32 843.86,-324.12 910,-335.5 932.82,-339.43 957.19,-347.62 977.18,-355.49"/>
<polygon fill="midnightblue" stroke="midnightblue" points="976.03,-358.8 986.61,-359.31 978.66,-352.31 976.03,-358.8"/>
</g>
<!-- Node27&#45;&gt;Node11 -->
<g id="edge34" class="edge">
<title>Node27&#45;&gt;Node11</title>
<path fill="none" stroke="midnightblue" d="M706.25,-367.44C758.87,-354.1 843.67,-340.68 910,-368.5 921.95,-373.51 976.82,-432.85 1004.27,-463.06"/>
<polygon fill="midnightblue" stroke="midnightblue" points="1001.92,-465.68 1011.23,-470.74 1007.11,-460.98 1001.92,-465.68"/>
</g>
<!-- Node27&#45;&gt;Node12 -->
<g id="edge32" class="edge">
<title>Node27&#45;&gt;Node12</title>
<path fill="none" stroke="midnightblue" d="M711.4,-397.6C729.77,-402.7 750.45,-408.44 769.49,-413.73"/>
<polygon fill="midnightblue" stroke="midnightblue" points="768.71,-417.15 779.28,-416.45 770.58,-410.4 768.71,-417.15"/>
</g>
<!-- Node27&#45;&gt;Node13 -->
<g id="edge33" class="edge">
<title>Node27&#45;&gt;Node13</title>
<path fill="none" stroke="midnightblue" d="M720.22,-384.29C729.55,-384.56 739.28,-384.83 748.95,-385.1"/>
<polygon fill="midnightblue" stroke="midnightblue" points="748.89,-388.6 758.98,-385.39 749.09,-381.61 748.89,-388.6"/>
</g>
</g>
</svg>
