<?xml version="1.0" encoding="UTF-8" standalone="no"?>
<!DOCTYPE svg PUBLIC "-//W3C//DTD SVG 1.1//EN"
 "http://www.w3.org/Graphics/SVG/1.1/DTD/svg11.dtd">
<!-- Generated by graphviz version 3.0.0 (20221109.1736)
 -->
<!-- Title: denoptim.programs.RunTimeParameters.startProgramSpecificLogger Pages: 1 -->
<!--zoomable 529 -->
<svg id="main" version="1.1" xmlns="http://www.w3.org/2000/svg" xmlns:xlink="http://www.w3.org/1999/xlink" xml:space="preserve" onload="init(evt)">
<style type="text/css"><![CDATA[
.edge:hover path { stroke: red; }
.edge:hover polygon { stroke: red; fill: red; }
]]></style>
<script type="text/javascript"><![CDATA[
var edges = document.getElementsByTagName('g');
if (edges && edges.length) {
  for (var i=0;i<edges.length;i++) {
    if (edges[i].id.substr(0,4)=='edge') {
      edges[i].setAttribute('class','edge');
    }
  }
}
]]></script>
        <defs>
                <circle id="rim" cx="0" cy="0" r="7"/>
                <circle id="rim2" cx="0" cy="0" r="3.5"/>
                <g id="zoomPlus">
                        <use xlink:href="#rim" fill="#404040">
                                <set attributeName="fill" to="#808080" begin="zoomplus.mouseover" end="zoomplus.mouseout"/>
                        </use>
                        <path d="M-4,0h8M0,-4v8" fill="none" stroke="white" stroke-width="1.5" pointer-events="none"/>
                </g>
                <g id="zoomMin">
                        <use xlink:href="#rim" fill="#404040">
                                <set attributeName="fill" to="#808080" begin="zoomminus.mouseover" end="zoomminus.mouseout"/>
                        </use>
                        <path d="M-4,0h8" fill="none" stroke="white" stroke-width="1.5" pointer-events="none"/>
                </g>
                <g id="dirArrow">
                        <path fill="none" stroke="white" stroke-width="1.5" d="M0,-3.0v7 M-2.5,-0.5L0,-3.0L2.5,-0.5"/>
                </g>
               <g id="resetDef">
                       <use xlink:href="#rim2" fill="#404040">
                               <set attributeName="fill" to="#808080" begin="reset.mouseover" end="reset.mouseout"/>
                       </use>
               </g>
        </defs>

<script type="text/javascript">
var viewWidth = 410;
var viewHeight = 529;
var sectionId = 'dynsection-40';
</script>
<script xlink:href="svgpan.js"/>
<svg id="graph" class="graph">
<g id="viewport">
<title>denoptim.programs.RunTimeParameters.startProgramSpecificLogger</title>
<polygon fill="white" stroke="transparent" points="-4,4 -4,-525 406,-525 406,4 -4,4"/>
<!-- Node1 -->
<g id="node1" class="node">
<title>Node1</title>
<g id="a_node1"><a xlink:title="Starts a logger with the given name.">
<polygon fill="#bfbfbf" stroke="black" points="242,-240 242,-281 402,-281 402,-240 242,-240"/>
<text text-anchor="start" x="250" y="-269" font-family="Helvetica,sans-Serif" font-size="10.00">denoptim.programs.RunTime</text>
<text text-anchor="start" x="250" y="-258" font-family="Helvetica,sans-Serif" font-size="10.00">Parameters.startProgramSpecific</text>
<text text-anchor="middle" x="322" y="-247" font-family="Helvetica,sans-Serif" font-size="10.00">Logger</text>
</a>
</g>
</g>
<!-- Node1&#45;&gt;Node1 -->
<g id="edge11" class="edge">
<title>Node1&#45;&gt;Node1</title>
<path fill="none" stroke="midnightblue" d="M359.51,-291.36C353.93,-296.2 341.43,-299.5 322,-299.5 290.92,-299.5 277.56,-291.04 281.93,-281.36"/>
<polygon fill="midnightblue" stroke="midnightblue" points="362.97,-291.92 362.07,-281.36 356.19,-290.18 362.97,-291.92"/>
</g>
<!-- Node2 -->
<g id="node2" class="node">
<title>Node2</title>
<g id="a_node2"><a xlink:href="classdenoptim_1_1programs_1_1combinatorial_1_1_frag_space_explorer.html#a1c6a2aae9ab686d5c7c0fc6246f7aa61" target="_top" xlink:title=" ">
<polygon fill="white" stroke="black" points="22.5,-490.5 22.5,-520.5 183.5,-520.5 183.5,-490.5 22.5,-490.5"/>
<text text-anchor="start" x="30.5" y="-508.5" font-family="Helvetica,sans-Serif" font-size="10.00">denoptim.programs.combinatorial.</text>
<text text-anchor="middle" x="103" y="-497.5" font-family="Helvetica,sans-Serif" font-size="10.00">FragSpaceExplorer.runProgram</text>
</a>
</g>
</g>
<!-- Node1&#45;&gt;Node2 -->
<g id="edge1" class="edge">
<title>Node1&#45;&gt;Node2</title>
<path fill="none" stroke="midnightblue" d="M313.83,-291.15C300.91,-339.38 268.98,-432.52 206,-481.5 199.32,-486.69 191.71,-490.79 183.71,-494.02"/>
<polygon fill="midnightblue" stroke="midnightblue" points="317.27,-291.85 316.38,-281.3 310.49,-290.1 317.27,-291.85"/>
</g>
<!-- Node3 -->
<g id="node3" class="node">
<title>Node3</title>
<g id="a_node3"><a xlink:href="classdenoptim_1_1programs_1_1denovo_1_1_g_a_runner.html#a7cafd6d78727b89dce3e2c8d06f0dd7c" target="_top" xlink:title=" ">
<polygon fill="white" stroke="black" points="35.5,-441.5 35.5,-471.5 170.5,-471.5 170.5,-441.5 35.5,-441.5"/>
<text text-anchor="start" x="43.5" y="-459.5" font-family="Helvetica,sans-Serif" font-size="10.00">denoptim.programs.denovo.</text>
<text text-anchor="middle" x="103" y="-448.5" font-family="Helvetica,sans-Serif" font-size="10.00">GARunner.runProgram</text>
</a>
</g>
</g>
<!-- Node1&#45;&gt;Node3 -->
<g id="edge2" class="edge">
<title>Node1&#45;&gt;Node3</title>
<path fill="none" stroke="midnightblue" d="M309.31,-290.4C292.49,-329.34 257.7,-396.65 206,-432.5 195.54,-439.76 183.17,-444.84 170.72,-448.39"/>
<polygon fill="midnightblue" stroke="midnightblue" points="312.55,-291.72 313.19,-281.15 306.09,-289.01 312.55,-291.72"/>
</g>
<!-- Node4 -->
<g id="node4" class="node">
<title>Node4</title>
<g id="a_node4"><a xlink:href="classdenoptim_1_1programs_1_1fitnessevaluator_1_1_fitness_runner.html#a557845da14612ff98352debd815ef557" target="_top" xlink:title=" ">
<polygon fill="white" stroke="black" points="17,-392.5 17,-422.5 189,-422.5 189,-392.5 17,-392.5"/>
<text text-anchor="start" x="25" y="-410.5" font-family="Helvetica,sans-Serif" font-size="10.00">denoptim.programs.fitnessevaluator.</text>
<text text-anchor="middle" x="103" y="-399.5" font-family="Helvetica,sans-Serif" font-size="10.00">FitnessRunner.runProgram</text>
</a>
</g>
</g>
<!-- Node1&#45;&gt;Node4 -->
<g id="edge3" class="edge">
<title>Node1&#45;&gt;Node4</title>
<path fill="none" stroke="midnightblue" d="M301.84,-289.31C281.45,-317.65 246.58,-359.99 206,-383.5 200.02,-386.97 193.56,-389.93 186.91,-392.47"/>
<polygon fill="midnightblue" stroke="midnightblue" points="304.8,-291.19 307.7,-281 299.08,-287.16 304.8,-291.19"/>
</g>
<!-- Node5 -->
<g id="node5" class="node">
<title>Node5</title>
<g id="a_node5"><a xlink:href="classdenoptim_1_1programs_1_1fragmenter_1_1_fragmenter.html#aa27df9705e3aed34cc8cb8bc05e6ce85" target="_top" xlink:title=" ">
<polygon fill="white" stroke="black" points="28,-343.5 28,-373.5 178,-373.5 178,-343.5 28,-343.5"/>
<text text-anchor="start" x="36" y="-361.5" font-family="Helvetica,sans-Serif" font-size="10.00">denoptim.programs.fragmenter.</text>
<text text-anchor="middle" x="103" y="-350.5" font-family="Helvetica,sans-Serif" font-size="10.00">Fragmenter.runProgram</text>
</a>
</g>
</g>
<!-- Node1&#45;&gt;Node5 -->
<g id="edge4" class="edge">
<title>Node1&#45;&gt;Node5</title>
<path fill="none" stroke="midnightblue" d="M286.27,-287.31C264.31,-303.1 234.75,-322.3 206,-334.5 197.21,-338.23 187.73,-341.44 178.22,-344.19"/>
<polygon fill="midnightblue" stroke="midnightblue" points="288.58,-289.96 294.59,-281.23 284.45,-284.31 288.58,-289.96"/>
</g>
<!-- Node6 -->
<g id="node6" class="node">
<title>Node6</title>
<g id="a_node6"><a xlink:href="classdenoptim_1_1programs_1_1genetweeker_1_1_gene_ops_runner.html#a3c2407eb1204a7b25600d3d347d98447" target="_top" xlink:title=" ">
<polygon fill="white" stroke="black" points="23.5,-294.5 23.5,-324.5 182.5,-324.5 182.5,-294.5 23.5,-294.5"/>
<text text-anchor="start" x="31.5" y="-312.5" font-family="Helvetica,sans-Serif" font-size="10.00">denoptim.programs.genetweeker.</text>
<text text-anchor="middle" x="103" y="-301.5" font-family="Helvetica,sans-Serif" font-size="10.00">GeneOpsRunner.runProgram</text>
</a>
</g>
</g>
<!-- Node1&#45;&gt;Node6 -->
<g id="edge5" class="edge">
<title>Node1&#45;&gt;Node6</title>
<path fill="none" stroke="midnightblue" d="M231.78,-280.65C211.3,-285.27 189.89,-290.11 170.57,-294.47"/>
<polygon fill="midnightblue" stroke="midnightblue" points="232.75,-284.01 241.74,-278.4 231.21,-277.19 232.75,-284.01"/>
</g>
<!-- Node7 -->
<g id="node7" class="node">
<title>Node7</title>
<g id="a_node7"><a xlink:href="classdenoptim_1_1programs_1_1grapheditor_1_1_graph_editor.html#a649a62e3d4635ef4c19424fa49e6dcd4" target="_top" xlink:title=" ">
<polygon fill="white" stroke="black" points="27,-245.5 27,-275.5 179,-275.5 179,-245.5 27,-245.5"/>
<text text-anchor="start" x="35" y="-263.5" font-family="Helvetica,sans-Serif" font-size="10.00">denoptim.programs.grapheditor.</text>
<text text-anchor="middle" x="103" y="-252.5" font-family="Helvetica,sans-Serif" font-size="10.00">GraphEditor.runProgram</text>
</a>
</g>
</g>
<!-- Node1&#45;&gt;Node7 -->
<g id="edge6" class="edge">
<title>Node1&#45;&gt;Node7</title>
<path fill="none" stroke="midnightblue" d="M231.56,-260.5C214.12,-260.5 195.99,-260.5 179.07,-260.5"/>
<polygon fill="midnightblue" stroke="midnightblue" points="231.74,-264 241.74,-260.5 231.74,-257 231.74,-264"/>
</g>
<!-- Node8 -->
<g id="node8" class="node">
<title>Node8</title>
<g id="a_node8"><a xlink:href="classdenoptim_1_1programs_1_1graphlisthandler_1_1_graph_lists_handler.html#a82e75728262a789cc27189d910b5c74a" target="_top" xlink:title=" ">
<polygon fill="white" stroke="black" points="17,-196.5 17,-226.5 189,-226.5 189,-196.5 17,-196.5"/>
<text text-anchor="start" x="25" y="-214.5" font-family="Helvetica,sans-Serif" font-size="10.00">denoptim.programs.graphlisthandler.</text>
<text text-anchor="middle" x="103" y="-203.5" font-family="Helvetica,sans-Serif" font-size="10.00">GraphListsHandler.runProgram</text>
</a>
</g>
</g>
<!-- Node1&#45;&gt;Node8 -->
<g id="edge7" class="edge">
<title>Node1&#45;&gt;Node8</title>
<path fill="none" stroke="midnightblue" d="M231.78,-240.35C211.3,-235.73 189.89,-230.89 170.57,-226.53"/>
<polygon fill="midnightblue" stroke="midnightblue" points="231.21,-243.81 241.74,-242.6 232.75,-236.99 231.21,-243.81"/>
</g>
<!-- Node9 -->
<g id="node9" class="node">
<title>Node9</title>
<g id="a_node9"><a xlink:href="classdenoptim_1_1programs_1_1isomorphism_1_1_isomorphism.html#a558ff128682d8685e2c95b8eeea85461" target="_top" xlink:title=" ">
<polygon fill="white" stroke="black" points="23.5,-147.5 23.5,-177.5 182.5,-177.5 182.5,-147.5 23.5,-147.5"/>
<text text-anchor="start" x="31.5" y="-165.5" font-family="Helvetica,sans-Serif" font-size="10.00">denoptim.programs.isomorphism.</text>
<text text-anchor="middle" x="103" y="-154.5" font-family="Helvetica,sans-Serif" font-size="10.00">Isomorphism.runProgram</text>
</a>
</g>
</g>
<!-- Node1&#45;&gt;Node9 -->
<g id="edge8" class="edge">
<title>Node1&#45;&gt;Node9</title>
<path fill="none" stroke="midnightblue" d="M285.73,-233.85C263.79,-218.38 234.42,-199.62 206,-187.5 197.03,-183.67 187.35,-180.36 177.65,-177.5"/>
<polygon fill="midnightblue" stroke="midnightblue" points="283.89,-236.84 294.06,-239.81 287.97,-231.15 283.89,-236.84"/>
</g>
<!-- Node10 -->
<g id="node10" class="node">
<title>Node10</title>
<g id="a_node10"><a xlink:href="classdenoptim_1_1programs_1_1mol2graph_1_1_mol2_graph.html#a55924e2fcd5c0081af56b98766d74ee1" target="_top" xlink:title=" ">
<polygon fill="white" stroke="black" points="28.5,-98.5 28.5,-128.5 177.5,-128.5 177.5,-98.5 28.5,-98.5"/>
<text text-anchor="start" x="36.5" y="-116.5" font-family="Helvetica,sans-Serif" font-size="10.00">denoptim.programs.mol2graph.</text>
<text text-anchor="middle" x="103" y="-105.5" font-family="Helvetica,sans-Serif" font-size="10.00">Mol2Graph.runProgram</text>
</a>
</g>
</g>
<!-- Node1&#45;&gt;Node10 -->
<g id="edge9" class="edge">
<title>Node1&#45;&gt;Node10</title>
<path fill="none" stroke="midnightblue" d="M301.4,-231.53C280.88,-203.48 246.11,-161.88 206,-138.5 197.26,-133.41 187.51,-129.34 177.61,-126.11"/>
<polygon fill="midnightblue" stroke="midnightblue" points="298.63,-233.67 307.29,-239.76 304.32,-229.59 298.63,-233.67"/>
</g>
<!-- Node11 -->
<g id="node11" class="node">
<title>Node11</title>
<g id="a_node11"><a xlink:href="classdenoptim_1_1programs_1_1moldecularmodelbuilder_1_1_molecular_model_builder.html#ad2e44290de6a861274def677044e9754" target="_top" xlink:title=" ">
<polygon fill="white" stroke="black" points="0,-49.5 0,-79.5 206,-79.5 206,-49.5 0,-49.5"/>
<text text-anchor="start" x="8" y="-67.5" font-family="Helvetica,sans-Serif" font-size="10.00">denoptim.programs.moldecularmodelbuilder.</text>
<text text-anchor="middle" x="103" y="-56.5" font-family="Helvetica,sans-Serif" font-size="10.00">MolecularModelBuilder.runProgram</text>
</a>
</g>
</g>
<!-- Node1&#45;&gt;Node11 -->
<g id="edge10" class="edge">
<title>Node1&#45;&gt;Node11</title>
<path fill="none" stroke="midnightblue" d="M309.08,-230.54C292.1,-191.86 257.24,-125.28 206,-89.5 200.47,-85.64 194.41,-82.37 188.08,-79.61"/>
<polygon fill="midnightblue" stroke="midnightblue" points="305.86,-231.91 313,-239.74 312.29,-229.16 305.86,-231.91"/>
</g>
<!-- Node12 -->
<g id="node12" class="node">
<title>Node12</title>
<g id="a_node12"><a xlink:href="classdenoptim_1_1programs_1_1denovo_1_1_g_a_parameters_test.html#a5f81adfed5156347b58d54172f7618d8" target="_top" xlink:title=" ">
<polygon fill="white" stroke="black" points="26,-0.5 26,-30.5 180,-30.5 180,-0.5 26,-0.5"/>
<text text-anchor="start" x="34" y="-18.5" font-family="Helvetica,sans-Serif" font-size="10.00">denoptim.programs.denovo.</text>
<text text-anchor="middle" x="103" y="-7.5" font-family="Helvetica,sans-Serif" font-size="10.00">GAParametersTest.testLogging</text>
</a>
</g>
</g>
<!-- Node1&#45;&gt;Node12 -->
<g id="edge12" class="edge">
<title>Node1&#45;&gt;Node12</title>
<path fill="none" stroke="midnightblue" d="M313.74,-230.05C300.68,-182.13 268.57,-89.54 206,-40.5 198.32,-34.48 189.4,-29.89 180.09,-26.39"/>
<polygon fill="midnightblue" stroke="midnightblue" points="310.38,-231.06 316.31,-239.84 317.15,-229.28 310.38,-231.06"/>
</g>
</g>
</svg>
        <g id="navigator" transform="translate(0 0)" fill="#404254">
                <rect fill="#f2f5e9" fill-opacity="0.5" stroke="#606060" stroke-width=".5" x="0" y="0" width="60" height="60"/>
                <use id="zoomplus" xlink:href="#zoomPlus" x="17" y="9" onmousedown="handleZoom(evt,'in')"/>
                <use id="zoomminus" xlink:href="#zoomMin" x="42" y="9" onmousedown="handleZoom(evt,'out')"/>
                <use id="reset" xlink:href="#resetDef" x="30" y="36" onmousedown="handleReset()"/>
                <g id="arrowUp" xlink:href="#dirArrow" transform="translate(30 24)" onmousedown="handlePan(0,-1)">
                  <use xlink:href="#rim" fill="#404040">
                        <set attributeName="fill" to="#808080" begin="arrowUp.mouseover" end="arrowUp.mouseout"/>
                  </use>
                  <path fill="none" stroke="white" stroke-width="1.5" d="M0,-3.0v7 M-2.5,-0.5L0,-3.0L2.5,-0.5"/>
                </g>
                <g id="arrowRight" xlink:href="#dirArrow" transform="rotate(90) translate(36 -43)" onmousedown="handlePan(1,0)">
                  <use xlink:href="#rim" fill="#404040">
                        <set attributeName="fill" to="#808080" begin="arrowRight.mouseover" end="arrowRight.mouseout"/>
                  </use>
                  <path fill="none" stroke="white" stroke-width="1.5" d="M0,-3.0v7 M-2.5,-0.5L0,-3.0L2.5,-0.5"/>
                </g>
                <g id="arrowDown" xlink:href="#dirArrow" transform="rotate(180) translate(-30 -48)" onmousedown="handlePan(0,1)">
                  <use xlink:href="#rim" fill="#404040">
                        <set attributeName="fill" to="#808080" begin="arrowDown.mouseover" end="arrowDown.mouseout"/>
                  </use>
                  <path fill="none" stroke="white" stroke-width="1.5" d="M0,-3.0v7 M-2.5,-0.5L0,-3.0L2.5,-0.5"/>
                </g>
                <g id="arrowLeft" xlink:href="#dirArrow" transform="rotate(270) translate(-36 17)" onmousedown="handlePan(-1,0)">
                  <use xlink:href="#rim" fill="#404040">
                        <set attributeName="fill" to="#808080" begin="arrowLeft.mouseover" end="arrowLeft.mouseout"/>
                  </use>
                  <path fill="none" stroke="white" stroke-width="1.5" d="M0,-3.0v7 M-2.5,-0.5L0,-3.0L2.5,-0.5"/>
                </g>
        </g>
        <svg viewBox="0 0 15 15" width="100%" height="30px" preserveAspectRatio="xMaxYMin meet">
         <g id="arrow_out" transform="scale(0.3 0.3)">
          <a xlink:href="classdenoptim_1_1programs_1_1_run_time_parameters_a068e87ad643ab93690714153354f9944_icgraph_org.svg" target="_base">
           <rect id="button" ry="5" rx="5" y="6" x="6" height="38" width="38"
                fill="#f2f5e9" fill-opacity="0.5" stroke="#606060" stroke-width="1.0"/>
           <path id="arrow"
             d="M 11.500037,31.436501 C 11.940474,20.09759 22.043105,11.32322 32.158766,21.979434 L 37.068811,17.246167 C 37.068811,17.246167 37.088388,32 37.088388,32 L 22.160133,31.978069 C 22.160133,31.978069 26.997745,27.140456 26.997745,27.140456 C 18.528582,18.264221 13.291696,25.230495 11.500037,31.436501 z"
             style="fill:#404040;"/>
          </a>
         </g>
        </svg>
</svg>
