<?xml version="1.0" encoding="UTF-8" standalone="no"?>
<!DOCTYPE svg PUBLIC "-//W3C//DTD SVG 1.1//EN"
 "http://www.w3.org/Graphics/SVG/1.1/DTD/svg11.dtd">
<!-- Generated by graphviz version 3.0.0 (20221109.1736)
 -->
<!-- Title: denoptim.combinatorial.CheckPoint.setLevel Pages: 1 -->
<svg width="1024pt" height="99pt"
 viewBox="0.00 0.00 1024.00 98.50" xmlns="http://www.w3.org/2000/svg" xmlns:xlink="http://www.w3.org/1999/xlink">
<g id="graph0" class="graph" transform="scale(1 1) rotate(0) translate(4 94.5)">
<title>denoptim.combinatorial.CheckPoint.setLevel</title>
<polygon fill="white" stroke="transparent" points="-4,4 -4,-94.5 1020,-94.5 1020,4 -4,4"/>
<!-- Node1 -->
<g id="node1" class="node">
<title>Node1</title>
<g id="a_node1"><a xlink:title="Set the current level.">
<polygon fill="#bfbfbf" stroke="black" points="870,-27.5 870,-57.5 1016,-57.5 1016,-27.5 870,-27.5"/>
<text text-anchor="start" x="878" y="-45.5" font-family="Helvetica,sans-Serif" font-size="10.00">denoptim.combinatorial.Check</text>
<text text-anchor="middle" x="943" y="-34.5" font-family="Helvetica,sans-Serif" font-size="10.00">Point.setLevel</text>
</a>
</g>
</g>
<!-- Node2 -->
<g id="node2" class="node">
<title>Node2</title>
<g id="a_node2"><a xlink:href="classdenoptim_1_1combinatorial_1_1_combinatorial_explorer_by_layer.html#a1be545d680af3dd3f3bdf986662b55f4" target="_top" xlink:title="Identify the task preceding the earliest non&#45;completed task and use it to create a checkpoint file.">
<polygon fill="white" stroke="black" points="656,-27.5 656,-57.5 834,-57.5 834,-27.5 656,-27.5"/>
<text text-anchor="start" x="664" y="-45.5" font-family="Helvetica,sans-Serif" font-size="10.00">denoptim.combinatorial.Combinatorial</text>
<text text-anchor="middle" x="745" y="-34.5" font-family="Helvetica,sans-Serif" font-size="10.00">ExplorerByLayer.makeCheckPoint</text>
</a>
</g>
</g>
<!-- Node1&#45;&gt;Node2 -->
<g id="edge1" class="edge">
<title>Node1&#45;&gt;Node2</title>
<path fill="none" stroke="midnightblue" d="M859.71,-42.5C851.31,-42.5 842.76,-42.5 834.3,-42.5"/>
<polygon fill="midnightblue" stroke="midnightblue" points="859.85,-46 869.85,-42.5 859.85,-39 859.85,-46"/>
</g>
<!-- Node3 -->
<g id="node3" class="node">
<title>Node3</title>
<g id="a_node3"><a xlink:href="classdenoptim_1_1combinatorial_1_1_combinatorial_explorer_by_layer.html#adcd462866e3f9d6a2a6ef0385807807e" target="_top" xlink:title="Generate graphs by exploring all combination of fragments at a given level of a growing graph.">
<polygon fill="white" stroke="black" points="432,-22 432,-63 620,-63 620,-22 432,-22"/>
<text text-anchor="start" x="440" y="-51" font-family="Helvetica,sans-Serif" font-size="10.00">denoptim.combinatorial.Combinatorial</text>
<text text-anchor="start" x="440" y="-40" font-family="Helvetica,sans-Serif" font-size="10.00">ExplorerByLayer.exploreCombinationsAt</text>
<text text-anchor="middle" x="526" y="-29" font-family="Helvetica,sans-Serif" font-size="10.00">GivenLevel</text>
</a>
</g>
</g>
<!-- Node2&#45;&gt;Node3 -->
<g id="edge2" class="edge">
<title>Node2&#45;&gt;Node3</title>
<path fill="none" stroke="midnightblue" d="M645.49,-42.5C637.05,-42.5 628.53,-42.5 620.13,-42.5"/>
<polygon fill="midnightblue" stroke="midnightblue" points="645.74,-46 655.74,-42.5 645.74,-39 645.74,-46"/>
</g>
<!-- Node4 -->
<g id="node4" class="node">
<title>Node4</title>
<g id="a_node4"><a xlink:href="classdenoptim_1_1combinatorial_1_1_combinatorial_explorer_by_layer.html#af9327fa81f9e2a617cdff353848ad6e1" target="_top" xlink:title="Run the combinatorial exploration.">
<polygon fill="white" stroke="black" points="218,-27.5 218,-57.5 396,-57.5 396,-27.5 218,-27.5"/>
<text text-anchor="start" x="226" y="-45.5" font-family="Helvetica,sans-Serif" font-size="10.00">denoptim.combinatorial.Combinatorial</text>
<text text-anchor="middle" x="307" y="-34.5" font-family="Helvetica,sans-Serif" font-size="10.00">ExplorerByLayer.run</text>
</a>
</g>
</g>
<!-- Node3&#45;&gt;Node4 -->
<g id="edge3" class="edge">
<title>Node3&#45;&gt;Node4</title>
<path fill="none" stroke="midnightblue" d="M421.68,-42.5C413.11,-42.5 404.5,-42.5 396.06,-42.5"/>
<polygon fill="midnightblue" stroke="midnightblue" points="421.71,-46 431.71,-42.5 421.71,-39 421.71,-46"/>
</g>
<!-- Node5 -->
<g id="node5" class="node">
<title>Node5</title>
<g id="a_node5"><a xlink:href="classdenoptim_1_1combinatorial_1_1_combinatorial_explorer_by_layer.html#a8f359a45038dc604a5e437d63a35e1a2" target="_top" xlink:title="Constructor.">
<polygon fill="white" stroke="black" points="0,-49 0,-90 182,-90 182,-49 0,-49"/>
<text text-anchor="start" x="8" y="-78" font-family="Helvetica,sans-Serif" font-size="10.00">denoptim.combinatorial.Combinatorial</text>
<text text-anchor="start" x="8" y="-67" font-family="Helvetica,sans-Serif" font-size="10.00">ExplorerByLayer.CombinatorialExplorer</text>
<text text-anchor="middle" x="91" y="-56" font-family="Helvetica,sans-Serif" font-size="10.00">ByLayer</text>
</a>
</g>
</g>
<!-- Node4&#45;&gt;Node5 -->
<g id="edge4" class="edge">
<title>Node4&#45;&gt;Node5</title>
<path fill="none" stroke="midnightblue" d="M207.75,-54.9C199.22,-55.97 190.61,-57.06 182.15,-58.13"/>
<polygon fill="midnightblue" stroke="midnightblue" points="208.24,-58.36 217.72,-53.64 207.36,-51.42 208.24,-58.36"/>
</g>
<!-- Node6 -->
<g id="node6" class="node">
<title>Node6</title>
<g id="a_node6"><a xlink:href="classdenoptim_1_1programs_1_1combinatorial_1_1_frag_space_explorer.html#a1c6a2aae9ab686d5c7c0fc6246f7aa61" target="_top" xlink:title=" ">
<polygon fill="white" stroke="black" points="10.5,-0.5 10.5,-30.5 171.5,-30.5 171.5,-0.5 10.5,-0.5"/>
<text text-anchor="start" x="18.5" y="-18.5" font-family="Helvetica,sans-Serif" font-size="10.00">denoptim.programs.combinatorial.</text>
<text text-anchor="middle" x="91" y="-7.5" font-family="Helvetica,sans-Serif" font-size="10.00">FragSpaceExplorer.runProgram</text>
</a>
</g>
</g>
<!-- Node4&#45;&gt;Node6 -->
<g id="edge5" class="edge">
<title>Node4&#45;&gt;Node6</title>
<path fill="none" stroke="midnightblue" d="M207.61,-30.09C195.52,-28.56 183.27,-27.02 171.51,-25.53"/>
<polygon fill="midnightblue" stroke="midnightblue" points="207.36,-33.58 217.72,-31.36 208.24,-26.64 207.36,-33.58"/>
</g>
</g>
</svg>
