<?xml version="1.0" encoding="UTF-8" standalone="no"?>
<!DOCTYPE svg PUBLIC "-//W3C//DTD SVG 1.1//EN"
 "http://www.w3.org/Graphics/SVG/1.1/DTD/svg11.dtd">
<!-- Generated by graphviz version 3.0.0 (20221109.1736)
 -->
<!-- Title: denoptim.graph.AttachmentPoint.getEdgeUserThroughout Pages: 1 -->
<!--zoomable 356 -->
<svg id="main" version="1.1" xmlns="http://www.w3.org/2000/svg" xmlns:xlink="http://www.w3.org/1999/xlink" xml:space="preserve" onload="init(evt)">
<style type="text/css"><![CDATA[
.edge:hover path { stroke: red; }
.edge:hover polygon { stroke: red; fill: red; }
]]></style>
<script type="text/javascript"><![CDATA[
var edges = document.getElementsByTagName('g');
if (edges && edges.length) {
  for (var i=0;i<edges.length;i++) {
    if (edges[i].id.substr(0,4)=='edge') {
      edges[i].setAttribute('class','edge');
    }
  }
}
]]></script>
        <defs>
                <circle id="rim" cx="0" cy="0" r="7"/>
                <circle id="rim2" cx="0" cy="0" r="3.5"/>
                <g id="zoomPlus">
                        <use xlink:href="#rim" fill="#404040">
                                <set attributeName="fill" to="#808080" begin="zoomplus.mouseover" end="zoomplus.mouseout"/>
                        </use>
                        <path d="M-4,0h8M0,-4v8" fill="none" stroke="white" stroke-width="1.5" pointer-events="none"/>
                </g>
                <g id="zoomMin">
                        <use xlink:href="#rim" fill="#404040">
                                <set attributeName="fill" to="#808080" begin="zoomminus.mouseover" end="zoomminus.mouseout"/>
                        </use>
                        <path d="M-4,0h8" fill="none" stroke="white" stroke-width="1.5" pointer-events="none"/>
                </g>
                <g id="dirArrow">
                        <path fill="none" stroke="white" stroke-width="1.5" d="M0,-3.0v7 M-2.5,-0.5L0,-3.0L2.5,-0.5"/>
                </g>
               <g id="resetDef">
                       <use xlink:href="#rim2" fill="#404040">
                               <set attributeName="fill" to="#808080" begin="reset.mouseover" end="reset.mouseout"/>
                       </use>
               </g>
        </defs>

<script type="text/javascript">
var viewWidth = 1480;
var viewHeight = 356;
var sectionId = 'dynsection-20';
</script>
<script xlink:href="svgpan.js"/>
<svg id="graph" class="graph">
<g id="viewport">
<title>denoptim.graph.AttachmentPoint.getEdgeUserThroughout</title>
<polygon fill="white" stroke="transparent" points="-4,4 -4,-352 1476,-352 1476,4 -4,4"/>
<!-- Node1 -->
<g id="node1" class="node">
<title>Node1</title>
<g id="a_node1"><a xlink:title="Gets the edge that is using this AP, or null if no edge is using this AP.">
<polygon fill="#bfbfbf" stroke="black" points="1326,-140.5 1326,-170.5 1472,-170.5 1472,-140.5 1326,-140.5"/>
<text text-anchor="start" x="1334" y="-158.5" font-family="Helvetica,sans-Serif" font-size="10.00">denoptim.graph.Attachment</text>
<text text-anchor="middle" x="1399" y="-147.5" font-family="Helvetica,sans-Serif" font-size="10.00">Point.getEdgeUserThroughout</text>
</a>
</g>
</g>
<!-- Node1&#45;&gt;Node1 -->
<g id="edge2" class="edge">
<title>Node1&#45;&gt;Node1</title>
<path fill="none" stroke="midnightblue" d="M1435.6,-180.96C1431.06,-185.68 1418.86,-189 1399,-189 1366.41,-189 1354.44,-180.06 1363.1,-170.66"/>
<polygon fill="midnightblue" stroke="midnightblue" points="1439.07,-180.4 1434.9,-170.66 1432.09,-180.87 1439.07,-180.4"/>
</g>
<!-- Node2 -->
<g id="node2" class="node">
<title>Node2</title>
<g id="a_node2"><a xlink:href="classdenoptim_1_1ga_1_1_graph_operations.html#ac98a7de3b7bbb99fc18af1dd15bc5f87" target="_top" xlink:title="Inserts a vertex in between two connected vertexes that are identified by the one vertex holding the ...">
<polygon fill="white" stroke="black" points="1096,-190 1096,-209 1290,-209 1290,-190 1096,-190"/>
<text text-anchor="middle" x="1193" y="-197" font-family="Helvetica,sans-Serif" font-size="10.00">denoptim.ga.GraphOperations.extendLink</text>
</a>
</g>
</g>
<!-- Node1&#45;&gt;Node2 -->
<g id="edge1" class="edge">
<title>Node1&#45;&gt;Node2</title>
<path fill="none" stroke="midnightblue" d="M1324.61,-172.82C1313.04,-175.46 1301.21,-178.09 1290,-180.5 1275.05,-183.71 1258.75,-187.01 1243.89,-189.94"/>
<polygon fill="midnightblue" stroke="midnightblue" points="1325.72,-176.16 1334.69,-170.51 1324.16,-169.33 1325.72,-176.16"/>
</g>
<!-- Node3 -->
<g id="node3" class="node">
<title>Node3</title>
<g id="a_node3"><a xlink:href="classdenoptim_1_1graph_1_1_attachment_point.html#adfc2840f3e5126d847c8d800082f8958" target="_top" xlink:title="Gets the attachment point (AP) that is connected to this AP via the edge user or in any edge user tha...">
<polygon fill="white" stroke="black" points="1120,-140.5 1120,-170.5 1266,-170.5 1266,-140.5 1120,-140.5"/>
<text text-anchor="start" x="1128" y="-158.5" font-family="Helvetica,sans-Serif" font-size="10.00">denoptim.graph.Attachment</text>
<text text-anchor="middle" x="1193" y="-147.5" font-family="Helvetica,sans-Serif" font-size="10.00">Point.getLinkedAPThroughout</text>
</a>
</g>
</g>
<!-- Node1&#45;&gt;Node3 -->
<g id="edge3" class="edge">
<title>Node1&#45;&gt;Node3</title>
<path fill="none" stroke="midnightblue" d="M1315.68,-155.5C1299.27,-155.5 1282.15,-155.5 1266.11,-155.5"/>
<polygon fill="midnightblue" stroke="midnightblue" points="1315.79,-159 1325.79,-155.5 1315.79,-152 1315.79,-159"/>
</g>
<!-- Node25 -->
<g id="node25" class="node">
<title>Node25</title>
<g id="a_node25"><a xlink:href="classdenoptim_1_1graph_1_1_attachment_point.html#a817a26666da5405c5e4d876729bfe549" target="_top" xlink:title="Checks the role of this AP in the user or in any user that might be external to the template embeddin...">
<polygon fill="white" stroke="black" points="1122,-91.5 1122,-121.5 1264,-121.5 1264,-91.5 1122,-91.5"/>
<text text-anchor="start" x="1130" y="-109.5" font-family="Helvetica,sans-Serif" font-size="10.00">denoptim.graph.Attachment</text>
<text text-anchor="middle" x="1193" y="-98.5" font-family="Helvetica,sans-Serif" font-size="10.00">Point.isSrcInUserThroughout</text>
</a>
</g>
</g>
<!-- Node1&#45;&gt;Node25 -->
<g id="edge30" class="edge">
<title>Node1&#45;&gt;Node25</title>
<path fill="none" stroke="midnightblue" d="M1325.54,-138.1C1302.98,-132.68 1278.3,-126.75 1256.47,-121.51"/>
<polygon fill="midnightblue" stroke="midnightblue" points="1324.87,-141.53 1335.41,-140.47 1326.5,-134.73 1324.87,-141.53"/>
</g>
<!-- Node4 -->
<g id="node4" class="node">
<title>Node4</title>
<g id="a_node4"><a xlink:href="classdenoptim_1_1graph_1_1_d_graph.html#ad38e8849839cb63835e727530ca124d9" target="_top" xlink:title="Checks if the Vertexs that are attached to two given AttachmentPoints apA and apB satisfy these condi...">
<polygon fill="white" stroke="black" points="906,-253.5 906,-283.5 1047,-283.5 1047,-253.5 906,-253.5"/>
<text text-anchor="start" x="914" y="-271.5" font-family="Helvetica,sans-Serif" font-size="10.00">denoptim.graph.DGraph.are</text>
<text text-anchor="middle" x="976.5" y="-260.5" font-family="Helvetica,sans-Serif" font-size="10.00">ApsUsedBySymmetricUsers</text>
</a>
</g>
</g>
<!-- Node3&#45;&gt;Node4 -->
<g id="edge4" class="edge">
<title>Node3&#45;&gt;Node4</title>
<path fill="none" stroke="midnightblue" d="M1110.26,-171.95C1105.23,-174.41 1100.42,-177.24 1096,-180.5 1071.57,-198.5 1083.55,-219.37 1060,-238.5 1052.55,-244.55 1043.77,-249.44 1034.76,-253.38"/>
<polygon fill="midnightblue" stroke="midnightblue" points="1111.76,-175.11 1119.52,-167.9 1108.95,-168.7 1111.76,-175.11"/>
</g>
<!-- Node8 -->
<g id="node8" class="node">
<title>Node8</title>
<g id="a_node8"><a xlink:href="classdenoptim_1_1graph_1_1_d_graph.html#aa46fb7d3a38e4c4401723a75f7c8d764" target="_top" xlink:title=" ">
<polygon fill="white" stroke="black" points="678,-247.5 678,-277.5 829,-277.5 829,-247.5 678,-247.5"/>
<text text-anchor="start" x="686" y="-265.5" font-family="Helvetica,sans-Serif" font-size="10.00">denoptim.graph.DGraph.find</text>
<text text-anchor="middle" x="753.5" y="-254.5" font-family="Helvetica,sans-Serif" font-size="10.00">SymmetrySetsOfChildVertexes</text>
</a>
</g>
</g>
<!-- Node3&#45;&gt;Node8 -->
<g id="edge15" class="edge">
<title>Node3&#45;&gt;Node8</title>
<path fill="none" stroke="midnightblue" d="M1112.61,-173.79C1106.91,-175.82 1101.31,-178.06 1096,-180.5 1078.3,-188.64 1077.97,-197.99 1060,-205.5 1019.24,-222.53 905.63,-241.09 829.04,-252.26"/>
<polygon fill="midnightblue" stroke="midnightblue" points="1113.92,-177.04 1122.29,-170.54 1111.69,-170.4 1113.92,-177.04"/>
</g>
<!-- Node10 -->
<g id="node10" class="node">
<title>Node10</title>
<g id="a_node10"><a xlink:href="classdenoptim_1_1fragspace_1_1_a_p_map_finder.html#a5868844d747acb9bd5331c760a24ff09" target="_top" xlink:title="Compares the AttachmentPoint of two lists searching for all the APs of the second list that are &quot;comp...">
<polygon fill="white" stroke="black" points="893,-165.5 893,-195.5 1060,-195.5 1060,-165.5 893,-165.5"/>
<text text-anchor="start" x="901" y="-183.5" font-family="Helvetica,sans-Serif" font-size="10.00">denoptim.fragspace.APMap</text>
<text text-anchor="middle" x="976.5" y="-172.5" font-family="Helvetica,sans-Serif" font-size="10.00">Finder.findMappingCompatibileAPs</text>
</a>
</g>
</g>
<!-- Node3&#45;&gt;Node10 -->
<g id="edge11" class="edge">
<title>Node3&#45;&gt;Node10</title>
<path fill="none" stroke="midnightblue" d="M1109.93,-165.07C1093.59,-166.97 1076.42,-168.97 1060.07,-170.88"/>
<polygon fill="midnightblue" stroke="midnightblue" points="1110.45,-168.53 1119.98,-163.89 1109.64,-161.58 1110.45,-168.53"/>
</g>
<!-- Node14 -->
<g id="node14" class="node">
<title>Node14</title>
<g id="a_node14"><a xlink:href="classdenoptim_1_1graph_1_1_vertex.html#a2e2ffd927172ca1a4b1fce14c2c347b0" target="_top" xlink:title="Gets attachment points that are used by capping groups throughout the graph levels,...">
<polygon fill="white" stroke="black" points="912.5,-116.5 912.5,-146.5 1040.5,-146.5 1040.5,-116.5 912.5,-116.5"/>
<text text-anchor="start" x="920.5" y="-134.5" font-family="Helvetica,sans-Serif" font-size="10.00">denoptim.graph.Vertex.get</text>
<text text-anchor="middle" x="976.5" y="-123.5" font-family="Helvetica,sans-Serif" font-size="10.00">CappedAPsThroughout</text>
</a>
</g>
</g>
<!-- Node3&#45;&gt;Node14 -->
<g id="edge16" class="edge">
<title>Node3&#45;&gt;Node14</title>
<path fill="none" stroke="midnightblue" d="M1109.91,-146.32C1086.96,-143.75 1062.38,-141 1040.7,-138.57"/>
<polygon fill="midnightblue" stroke="midnightblue" points="1109.65,-149.81 1119.98,-147.44 1110.43,-142.85 1109.65,-149.81"/>
</g>
<!-- Node20 -->
<g id="node20" class="node">
<title>Node20</title>
<g id="a_node20"><a xlink:href="classdenoptim_1_1graph_1_1_attachment_point.html#aa3f954b074d8d8deef518821f13dcd24" target="_top" xlink:title="Checks if this and another APs are rooted on atoms that are bonded in any way other than a possible c...">
<polygon fill="white" stroke="black" points="905.5,-0.5 905.5,-30.5 1047.5,-30.5 1047.5,-0.5 905.5,-0.5"/>
<text text-anchor="start" x="913.5" y="-18.5" font-family="Helvetica,sans-Serif" font-size="10.00">denoptim.graph.Attachment</text>
<text text-anchor="middle" x="976.5" y="-7.5" font-family="Helvetica,sans-Serif" font-size="10.00">Point.hasConnectedSrcAtom</text>
</a>
</g>
</g>
<!-- Node3&#45;&gt;Node20 -->
<g id="edge22" class="edge">
<title>Node3&#45;&gt;Node20</title>
<path fill="none" stroke="midnightblue" d="M1110.14,-141.13C1105.06,-138.43 1100.28,-135.25 1096,-131.5 1063.29,-102.84 1092,-69.96 1060,-40.5 1055.82,-36.65 1051.06,-33.39 1045.98,-30.63"/>
<polygon fill="midnightblue" stroke="midnightblue" points="1109.01,-144.46 1119.56,-145.48 1111.95,-138.11 1109.01,-144.46"/>
</g>
<!-- Node24 -->
<g id="node24" class="node">
<title>Node24</title>
<g id="a_node24"><a xlink:href="classdenoptim_1_1graph_1_1_d_graph.html#a357b4099599e47ae47102123550771f8" target="_top" xlink:title="Remove a given vertex belonging to this graph and re&#45;connects the resulting graph branches as much as...">
<polygon fill="white" stroke="black" points="900.5,-49.5 900.5,-79.5 1052.5,-79.5 1052.5,-49.5 900.5,-49.5"/>
<text text-anchor="start" x="908.5" y="-67.5" font-family="Helvetica,sans-Serif" font-size="10.00">denoptim.graph.DGraph.remove</text>
<text text-anchor="middle" x="976.5" y="-56.5" font-family="Helvetica,sans-Serif" font-size="10.00">SingleVertexAndWeld</text>
</a>
</g>
</g>
<!-- Node3&#45;&gt;Node24 -->
<g id="edge27" class="edge">
<title>Node3&#45;&gt;Node24</title>
<path fill="none" stroke="midnightblue" d="M1110.6,-137.26C1105.59,-135.49 1100.69,-133.58 1096,-131.5 1078.41,-123.72 1076.55,-117.29 1060,-107.5 1043.32,-97.63 1024.15,-87.57 1008.49,-79.66"/>
<polygon fill="midnightblue" stroke="midnightblue" points="1109.71,-140.66 1120.31,-140.48 1111.91,-134.01 1109.71,-140.66"/>
</g>
<!-- Node5 -->
<g id="node5" class="node">
<title>Node5</title>
<g id="a_node5"><a xlink:href="classdenoptim_1_1graph_1_1_d_graph.html#aff06be9fc2508e591352e7ae46260721" target="_top" xlink:title="Tries to determine the set of symmetric vertices in this graph based on finding compatible Vertexes t...">
<polygon fill="white" stroke="black" points="455.5,-293.5 455.5,-323.5 602.5,-323.5 602.5,-293.5 455.5,-293.5"/>
<text text-anchor="start" x="463.5" y="-311.5" font-family="Helvetica,sans-Serif" font-size="10.00">denoptim.graph.DGraph.detect</text>
<text text-anchor="middle" x="529" y="-300.5" font-family="Helvetica,sans-Serif" font-size="10.00">SymVertexSets</text>
</a>
</g>
</g>
<!-- Node4&#45;&gt;Node5 -->
<g id="edge5" class="edge">
<title>Node4&#45;&gt;Node5</title>
<path fill="none" stroke="midnightblue" d="M895.56,-282.38C882.69,-284.3 869.5,-286.1 857,-287.5 769.8,-297.27 668.96,-302.89 602.58,-305.81"/>
<polygon fill="midnightblue" stroke="midnightblue" points="896.43,-285.78 905.78,-280.81 895.37,-278.86 896.43,-285.78"/>
</g>
<!-- Node4&#45;&gt;Node8 -->
<g id="edge8" class="edge">
<title>Node4&#45;&gt;Node8</title>
<path fill="none" stroke="midnightblue" d="M895.7,-266.33C873.98,-265.74 850.55,-265.11 829.13,-264.53"/>
<polygon fill="midnightblue" stroke="midnightblue" points="895.79,-269.84 905.88,-266.61 895.98,-262.84 895.79,-269.84"/>
</g>
<!-- Node6 -->
<g id="node6" class="node">
<title>Node6</title>
<g id="a_node6"><a xlink:href="classdenoptim_1_1ga_1_1_e_a_utils.html#a18eb5d0ba6772e9116176ef6ca9f84fc" target="_top" xlink:title="Converts a molecule into a DGraph by fragmentation and re&#45;assembling of the fragments.">
<polygon fill="white" stroke="black" points="235,-317.5 235,-347.5 389,-347.5 389,-317.5 235,-317.5"/>
<text text-anchor="start" x="243" y="-335.5" font-family="Helvetica,sans-Serif" font-size="10.00">denoptim.ga.EAUtils.make</text>
<text text-anchor="middle" x="312" y="-324.5" font-family="Helvetica,sans-Serif" font-size="10.00">GraphFromFragmentationOfMol</text>
</a>
</g>
</g>
<!-- Node5&#45;&gt;Node6 -->
<g id="edge6" class="edge">
<title>Node5&#45;&gt;Node6</title>
<path fill="none" stroke="midnightblue" d="M445.08,-317.76C426.64,-319.81 407.17,-321.99 389.02,-324.01"/>
<polygon fill="midnightblue" stroke="midnightblue" points="445.66,-321.21 455.21,-316.63 444.88,-314.26 445.66,-321.21"/>
</g>
<!-- Node7 -->
<g id="node7" class="node">
<title>Node7</title>
<g id="a_node7"><a xlink:href="classdenoptim_1_1graph_1_1_d_graph_test.html#a05b87ffb43b9710fcea83b0777654e27" target="_top" xlink:title=" ">
<polygon fill="white" stroke="black" points="234,-268.5 234,-298.5 390,-298.5 390,-268.5 234,-268.5"/>
<text text-anchor="start" x="242" y="-286.5" font-family="Helvetica,sans-Serif" font-size="10.00">denoptim.graph.DGraphTest.test</text>
<text text-anchor="middle" x="312" y="-275.5" font-family="Helvetica,sans-Serif" font-size="10.00">DetectSymVertexSets</text>
</a>
</g>
</g>
<!-- Node5&#45;&gt;Node7 -->
<g id="edge7" class="edge">
<title>Node5&#45;&gt;Node7</title>
<path fill="none" stroke="midnightblue" d="M445.26,-298.88C427.14,-296.77 408.02,-294.55 390.13,-292.47"/>
<polygon fill="midnightblue" stroke="midnightblue" points="444.87,-302.36 455.21,-300.04 445.68,-295.4 444.87,-302.36"/>
</g>
<!-- Node8&#45;&gt;Node5 -->
<g id="edge9" class="edge">
<title>Node8&#45;&gt;Node5</title>
<path fill="none" stroke="midnightblue" d="M669.66,-279.63C647.65,-284.18 624.06,-289.05 602.64,-293.48"/>
<polygon fill="midnightblue" stroke="midnightblue" points="670.56,-283.01 679.65,-277.56 669.14,-276.16 670.56,-283.01"/>
</g>
<!-- Node9 -->
<g id="node9" class="node">
<title>Node9</title>
<g id="a_node9"><a xlink:href="classdenoptim_1_1graph_1_1_d_graph_test.html#ac02ab6b199aee9280e88a14d0026a175" target="_top" xlink:title=" ">
<polygon fill="white" stroke="black" points="444,-244.5 444,-274.5 614,-274.5 614,-244.5 444,-244.5"/>
<text text-anchor="start" x="452" y="-262.5" font-family="Helvetica,sans-Serif" font-size="10.00">denoptim.graph.DGraphTest.test</text>
<text text-anchor="middle" x="529" y="-251.5" font-family="Helvetica,sans-Serif" font-size="10.00">FindSymmetrySetsOfChildVertexes</text>
</a>
</g>
</g>
<!-- Node8&#45;&gt;Node9 -->
<g id="edge10" class="edge">
<title>Node8&#45;&gt;Node9</title>
<path fill="none" stroke="midnightblue" d="M667.59,-261.36C650.06,-261.12 631.6,-260.87 614.1,-260.63"/>
<polygon fill="midnightblue" stroke="midnightblue" points="667.75,-264.86 677.79,-261.49 667.84,-257.86 667.75,-264.86"/>
</g>
<!-- Node11 -->
<g id="node11" class="node">
<title>Node11</title>
<g id="a_node11"><a xlink:href="classdenoptim_1_1fragspace_1_1_a_p_map_finder.html#ae5c8afa4b7defd6ce35df0fa1c5facf2" target="_top" xlink:title="Searches for mappings between the AttachmentPoints on the two lists.">
<polygon fill="white" stroke="black" points="685.5,-198.5 685.5,-228.5 821.5,-228.5 821.5,-198.5 685.5,-198.5"/>
<text text-anchor="start" x="693.5" y="-216.5" font-family="Helvetica,sans-Serif" font-size="10.00">denoptim.fragspace.APMap</text>
<text text-anchor="middle" x="753.5" y="-205.5" font-family="Helvetica,sans-Serif" font-size="10.00">Finder.findAllMappings</text>
</a>
</g>
</g>
<!-- Node10&#45;&gt;Node11 -->
<g id="edge12" class="edge">
<title>Node10&#45;&gt;Node11</title>
<path fill="none" stroke="midnightblue" d="M882.87,-194.33C862.28,-197.41 840.85,-200.61 821.52,-203.49"/>
<polygon fill="midnightblue" stroke="midnightblue" points="883.52,-197.77 892.89,-192.83 882.49,-190.85 883.52,-197.77"/>
</g>
<!-- Node13 -->
<g id="node13" class="node">
<title>Node13</title>
<g id="a_node13"><a xlink:href="classdenoptim_1_1fragspace_1_1_a_p_map_finder_test.html#a4908ea837bed3714cd5d17ba4e3954fa" target="_top" xlink:title=" ">
<polygon fill="white" stroke="black" points="650,-149.5 650,-179.5 857,-179.5 857,-149.5 650,-149.5"/>
<text text-anchor="start" x="658" y="-167.5" font-family="Helvetica,sans-Serif" font-size="10.00">denoptim.fragspace.APMap</text>
<text text-anchor="middle" x="753.5" y="-156.5" font-family="Helvetica,sans-Serif" font-size="10.00">FinderTest.testFindMappingCompatibileAPs</text>
</a>
</g>
</g>
<!-- Node10&#45;&gt;Node13 -->
<g id="edge14" class="edge">
<title>Node10&#45;&gt;Node13</title>
<path fill="none" stroke="midnightblue" d="M882.7,-173.78C874.27,-173.17 865.7,-172.55 857.19,-171.93"/>
<polygon fill="midnightblue" stroke="midnightblue" points="882.67,-177.29 892.89,-174.52 883.17,-170.31 882.67,-177.29"/>
</g>
<!-- Node12 -->
<g id="node12" class="node">
<title>Node12</title>
<g id="a_node12"><a xlink:href="classdenoptim_1_1fragspace_1_1_a_p_map_finder.html#ada1b2c2155faeefced1d9a64f82a6668" target="_top" xlink:title="Constructor that launches the search for a mapping between the AttachmentPoints on the first vertex t...">
<polygon fill="white" stroke="black" points="461,-195.5 461,-225.5 597,-225.5 597,-195.5 461,-195.5"/>
<text text-anchor="start" x="469" y="-213.5" font-family="Helvetica,sans-Serif" font-size="10.00">denoptim.fragspace.APMap</text>
<text text-anchor="middle" x="529" y="-202.5" font-family="Helvetica,sans-Serif" font-size="10.00">Finder.APMapFinder</text>
</a>
</g>
</g>
<!-- Node11&#45;&gt;Node12 -->
<g id="edge13" class="edge">
<title>Node11&#45;&gt;Node12</title>
<path fill="none" stroke="midnightblue" d="M675.13,-212.46C649.78,-212.12 621.85,-211.74 597.31,-211.41"/>
<polygon fill="midnightblue" stroke="midnightblue" points="675.39,-215.96 685.44,-212.6 675.49,-208.96 675.39,-215.96"/>
</g>
<!-- Node15 -->
<g id="node15" class="node">
<title>Node15</title>
<g id="a_node15"><a xlink:href="classdenoptim_1_1graph_1_1_vertex.html#ab96b76e89a6ca31a68c9f43466f9c5a9" target="_top" xlink:title="Counts the number of attachment points that are used by BBType#CAP vertex.">
<polygon fill="white" stroke="black" points="685,-100.5 685,-130.5 822,-130.5 822,-100.5 685,-100.5"/>
<text text-anchor="start" x="693" y="-118.5" font-family="Helvetica,sans-Serif" font-size="10.00">denoptim.graph.Vertex.get</text>
<text text-anchor="middle" x="753.5" y="-107.5" font-family="Helvetica,sans-Serif" font-size="10.00">CappedAPCountThroughout</text>
</a>
</g>
</g>
<!-- Node14&#45;&gt;Node15 -->
<g id="edge17" class="edge">
<title>Node14&#45;&gt;Node15</title>
<path fill="none" stroke="midnightblue" d="M902.36,-126.2C876.53,-124.33 847.62,-122.24 822.26,-120.41"/>
<polygon fill="midnightblue" stroke="midnightblue" points="902.24,-129.71 912.47,-126.94 902.74,-122.72 902.24,-129.71"/>
</g>
<!-- Node16 -->
<g id="node16" class="node">
<title>Node16</title>
<g id="a_node16"><a xlink:href="classdenoptim_1_1graph_1_1_vertex.html#a5c6af6108f5caedf3641ef2ed383f954" target="_top" xlink:title="Returns the list of mutation types.">
<polygon fill="white" stroke="black" points="465,-142.5 465,-172.5 593,-172.5 593,-142.5 465,-142.5"/>
<text text-anchor="start" x="473" y="-160.5" font-family="Helvetica,sans-Serif" font-size="10.00">denoptim.graph.Vertex.get</text>
<text text-anchor="middle" x="529" y="-149.5" font-family="Helvetica,sans-Serif" font-size="10.00">MutationTypes</text>
</a>
</g>
</g>
<!-- Node15&#45;&gt;Node16 -->
<g id="edge18" class="edge">
<title>Node15&#45;&gt;Node16</title>
<path fill="none" stroke="midnightblue" d="M674.76,-130.17C648.07,-135.21 618.55,-140.78 593.16,-145.58"/>
<polygon fill="midnightblue" stroke="midnightblue" points="675.66,-133.57 684.84,-128.27 674.36,-126.69 675.66,-133.57"/>
</g>
<!-- Node17 -->
<g id="node17" class="node">
<title>Node17</title>
<g id="a_node17"><a xlink:href="classdenoptim_1_1graph_1_1_d_graph.html#af404e25092eabcdfbe69b5d7204e9483" target="_top" xlink:title="Mutates the graph by removing the chain where a given vertex is located up to the first branching (i....">
<polygon fill="white" stroke="black" points="453,-93.5 453,-123.5 605,-123.5 605,-93.5 453,-93.5"/>
<text text-anchor="start" x="461" y="-111.5" font-family="Helvetica,sans-Serif" font-size="10.00">denoptim.graph.DGraph.remove</text>
<text text-anchor="middle" x="529" y="-100.5" font-family="Helvetica,sans-Serif" font-size="10.00">ChainUpToBranching</text>
</a>
</g>
</g>
<!-- Node15&#45;&gt;Node17 -->
<g id="edge19" class="edge">
<title>Node15&#45;&gt;Node17</title>
<path fill="none" stroke="midnightblue" d="M674.63,-113.05C652.07,-112.34 627.49,-111.57 605.11,-110.86"/>
<polygon fill="midnightblue" stroke="midnightblue" points="674.73,-116.55 684.84,-113.37 674.95,-109.56 674.73,-116.55"/>
</g>
<!-- Node18 -->
<g id="node18" class="node">
<title>Node18</title>
<g id="a_node18"><a xlink:href="classdenoptim_1_1ga_1_1_graph_operations.html#afd659e74a056d1a6ae6f52513fee0be3" target="_top" xlink:title="Deletes the given vertex and all other vertexes that are not connected to more than 2 non&#45;capping gro...">
<polygon fill="white" stroke="black" points="225.5,-93.5 225.5,-123.5 398.5,-123.5 398.5,-93.5 225.5,-93.5"/>
<text text-anchor="start" x="233.5" y="-111.5" font-family="Helvetica,sans-Serif" font-size="10.00">denoptim.ga.GraphOperations.delete</text>
<text text-anchor="middle" x="312" y="-100.5" font-family="Helvetica,sans-Serif" font-size="10.00">Chain</text>
</a>
</g>
</g>
<!-- Node17&#45;&gt;Node18 -->
<g id="edge20" class="edge">
<title>Node17&#45;&gt;Node18</title>
<path fill="none" stroke="midnightblue" d="M442.46,-108.5C428.1,-108.5 413.19,-108.5 398.82,-108.5"/>
<polygon fill="midnightblue" stroke="midnightblue" points="442.8,-112 452.8,-108.5 442.8,-105 442.8,-112"/>
</g>
<!-- Node19 -->
<g id="node19" class="node">
<title>Node19</title>
<g id="a_node19"><a xlink:href="classdenoptim_1_1ga_1_1_graph_operations.html#a0c851972015fbb4b2a317b053b8b81d9" target="_top" xlink:title="Mutates the given vertex according to the given mutation type, if possible.">
<polygon fill="white" stroke="black" points="0,-71.5 0,-101.5 180,-101.5 180,-71.5 0,-71.5"/>
<text text-anchor="start" x="8" y="-89.5" font-family="Helvetica,sans-Serif" font-size="10.00">denoptim.ga.GraphOperations.perform</text>
<text text-anchor="middle" x="90" y="-78.5" font-family="Helvetica,sans-Serif" font-size="10.00">Mutation</text>
</a>
</g>
</g>
<!-- Node18&#45;&gt;Node19 -->
<g id="edge21" class="edge">
<title>Node18&#45;&gt;Node19</title>
<path fill="none" stroke="midnightblue" d="M215.14,-98.91C203.49,-97.75 191.63,-96.56 180.08,-95.41"/>
<polygon fill="midnightblue" stroke="midnightblue" points="215.01,-102.42 225.31,-99.93 215.71,-95.45 215.01,-102.42"/>
</g>
<!-- Node21 -->
<g id="node21" class="node">
<title>Node21</title>
<g id="a_node21"><a xlink:href="classdenoptim_1_1graph_1_1_d_graph.html#a00209ca8b4a9623b41e7d9e1e62f69ec" target="_top" xlink:title="Remove a given vertex belonging to this graph and re&#45;connects the resulting graph branches as much as...">
<polygon fill="white" stroke="black" points="677.5,-49.5 677.5,-79.5 829.5,-79.5 829.5,-49.5 677.5,-49.5"/>
<text text-anchor="start" x="685.5" y="-67.5" font-family="Helvetica,sans-Serif" font-size="10.00">denoptim.graph.DGraph.remove</text>
<text text-anchor="middle" x="753.5" y="-56.5" font-family="Helvetica,sans-Serif" font-size="10.00">VertexAndWeld</text>
</a>
</g>
</g>
<!-- Node20&#45;&gt;Node21 -->
<g id="edge23" class="edge">
<title>Node20&#45;&gt;Node21</title>
<path fill="none" stroke="midnightblue" d="M897.66,-32.76C873.04,-38.22 846.03,-44.21 822.18,-49.49"/>
<polygon fill="midnightblue" stroke="midnightblue" points="898.69,-36.12 907.69,-30.53 897.17,-29.28 898.69,-36.12"/>
</g>
<!-- Node23 -->
<g id="node23" class="node">
<title>Node23</title>
<g id="a_node23"><a xlink:href="classdenoptim_1_1graph_1_1_attachment_point_test.html#af88d30ce68477984fe6179325d1540b2" target="_top" xlink:title=" ">
<polygon fill="white" stroke="black" points="663.5,-0.5 663.5,-30.5 843.5,-30.5 843.5,-0.5 663.5,-0.5"/>
<text text-anchor="start" x="671.5" y="-18.5" font-family="Helvetica,sans-Serif" font-size="10.00">denoptim.graph.Attachment</text>
<text text-anchor="middle" x="753.5" y="-7.5" font-family="Helvetica,sans-Serif" font-size="10.00">PointTest.testHasConnectedSrcAtom</text>
</a>
</g>
</g>
<!-- Node20&#45;&gt;Node23 -->
<g id="edge26" class="edge">
<title>Node20&#45;&gt;Node23</title>
<path fill="none" stroke="midnightblue" d="M895.01,-15.5C878.3,-15.5 860.61,-15.5 843.61,-15.5"/>
<polygon fill="midnightblue" stroke="midnightblue" points="895.27,-19 905.27,-15.5 895.27,-12 895.27,-19"/>
</g>
<!-- Node22 -->
<g id="node22" class="node">
<title>Node22</title>
<g id="a_node22"><a xlink:href="classdenoptim_1_1ga_1_1_graph_operations.html#ab3adb5141a8941bf23916bb516faee63" target="_top" xlink:title="Removes a vertex while merging as many of the child branches into the parent vertex.">
<polygon fill="white" stroke="black" points="216,-55 216,-74 408,-74 408,-55 216,-55"/>
<text text-anchor="middle" x="312" y="-62" font-family="Helvetica,sans-Serif" font-size="10.00">denoptim.ga.GraphOperations.deleteLink</text>
</a>
</g>
</g>
<!-- Node21&#45;&gt;Node22 -->
<g id="edge24" class="edge">
<title>Node21&#45;&gt;Node22</title>
<path fill="none" stroke="midnightblue" d="M667.18,-64.5C592.84,-64.5 485.16,-64.5 408.07,-64.5"/>
<polygon fill="midnightblue" stroke="midnightblue" points="667.45,-68 677.45,-64.5 667.45,-61 667.45,-68"/>
</g>
<!-- Node22&#45;&gt;Node19 -->
<g id="edge25" class="edge">
<title>Node22&#45;&gt;Node19</title>
<path fill="none" stroke="midnightblue" d="M205.75,-75.03C197.17,-75.88 188.56,-76.74 180.11,-77.59"/>
<polygon fill="midnightblue" stroke="midnightblue" points="206.18,-78.5 215.78,-74.02 205.49,-71.53 206.18,-78.5"/>
</g>
<!-- Node24&#45;&gt;Node21 -->
<g id="edge29" class="edge">
<title>Node24&#45;&gt;Node21</title>
<path fill="none" stroke="midnightblue" d="M890.37,-64.5C870.41,-64.5 849.29,-64.5 829.8,-64.5"/>
<polygon fill="midnightblue" stroke="midnightblue" points="890.37,-68 900.37,-64.5 890.37,-61 890.37,-68"/>
</g>
<!-- Node24&#45;&gt;Node24 -->
<g id="edge28" class="edge">
<title>Node24&#45;&gt;Node24</title>
<path fill="none" stroke="midnightblue" d="M1014.88,-89.96C1010.12,-94.68 997.32,-98 976.5,-98 942.33,-98 929.78,-89.06 938.86,-79.66"/>
<polygon fill="midnightblue" stroke="midnightblue" points="1018.35,-89.38 1014.14,-79.66 1011.37,-89.88 1018.35,-89.38"/>
</g>
</g>
</svg>
        <g id="navigator" transform="translate(0 0)" fill="#404254">
                <rect fill="#f2f5e9" fill-opacity="0.5" stroke="#606060" stroke-width=".5" x="0" y="0" width="60" height="60"/>
                <use id="zoomplus" xlink:href="#zoomPlus" x="17" y="9" onmousedown="handleZoom(evt,'in')"/>
                <use id="zoomminus" xlink:href="#zoomMin" x="42" y="9" onmousedown="handleZoom(evt,'out')"/>
                <use id="reset" xlink:href="#resetDef" x="30" y="36" onmousedown="handleReset()"/>
                <g id="arrowUp" xlink:href="#dirArrow" transform="translate(30 24)" onmousedown="handlePan(0,-1)">
                  <use xlink:href="#rim" fill="#404040">
                        <set attributeName="fill" to="#808080" begin="arrowUp.mouseover" end="arrowUp.mouseout"/>
                  </use>
                  <path fill="none" stroke="white" stroke-width="1.5" d="M0,-3.0v7 M-2.5,-0.5L0,-3.0L2.5,-0.5"/>
                </g>
                <g id="arrowRight" xlink:href="#dirArrow" transform="rotate(90) translate(36 -43)" onmousedown="handlePan(1,0)">
                  <use xlink:href="#rim" fill="#404040">
                        <set attributeName="fill" to="#808080" begin="arrowRight.mouseover" end="arrowRight.mouseout"/>
                  </use>
                  <path fill="none" stroke="white" stroke-width="1.5" d="M0,-3.0v7 M-2.5,-0.5L0,-3.0L2.5,-0.5"/>
                </g>
                <g id="arrowDown" xlink:href="#dirArrow" transform="rotate(180) translate(-30 -48)" onmousedown="handlePan(0,1)">
                  <use xlink:href="#rim" fill="#404040">
                        <set attributeName="fill" to="#808080" begin="arrowDown.mouseover" end="arrowDown.mouseout"/>
                  </use>
                  <path fill="none" stroke="white" stroke-width="1.5" d="M0,-3.0v7 M-2.5,-0.5L0,-3.0L2.5,-0.5"/>
                </g>
                <g id="arrowLeft" xlink:href="#dirArrow" transform="rotate(270) translate(-36 17)" onmousedown="handlePan(-1,0)">
                  <use xlink:href="#rim" fill="#404040">
                        <set attributeName="fill" to="#808080" begin="arrowLeft.mouseover" end="arrowLeft.mouseout"/>
                  </use>
                  <path fill="none" stroke="white" stroke-width="1.5" d="M0,-3.0v7 M-2.5,-0.5L0,-3.0L2.5,-0.5"/>
                </g>
        </g>
        <svg viewBox="0 0 15 15" width="100%" height="30px" preserveAspectRatio="xMaxYMin meet">
         <g id="arrow_out" transform="scale(0.3 0.3)">
          <a xlink:href="classdenoptim_1_1graph_1_1_attachment_point_aa1ae3c328e8ea24ead206b822daca7f7_icgraph_org.svg" target="_base">
           <rect id="button" ry="5" rx="5" y="6" x="6" height="38" width="38"
                fill="#f2f5e9" fill-opacity="0.5" stroke="#606060" stroke-width="1.0"/>
           <path id="arrow"
             d="M 11.500037,31.436501 C 11.940474,20.09759 22.043105,11.32322 32.158766,21.979434 L 37.068811,17.246167 C 37.068811,17.246167 37.088388,32 37.088388,32 L 22.160133,31.978069 C 22.160133,31.978069 26.997745,27.140456 26.997745,27.140456 C 18.528582,18.264221 13.291696,25.230495 11.500037,31.436501 z"
             style="fill:#404040;"/>
          </a>
         </g>
        </svg>
</svg>
