<?xml version="1.0" encoding="UTF-8" standalone="no"?>
<!DOCTYPE svg PUBLIC "-//W3C//DTD SVG 1.1//EN"
 "http://www.w3.org/Graphics/SVG/1.1/DTD/svg11.dtd">
<!-- Generated by graphviz version 3.0.0 (20221109.1736)
 -->
<!-- Title: denoptim.programs.fragmenter.FragmenterParameters.createWorkingDirectory Pages: 1 -->
<svg width="368pt" height="106pt"
 viewBox="0.00 0.00 368.00 106.00" xmlns="http://www.w3.org/2000/svg" xmlns:xlink="http://www.w3.org/1999/xlink">
<g id="graph0" class="graph" transform="scale(1 1) rotate(0) translate(4 102)">
<title>denoptim.programs.fragmenter.FragmenterParameters.createWorkingDirectory</title>
<polygon fill="white" stroke="transparent" points="-4,4 -4,-102 364,-102 364,4 -4,4"/>
<!-- Node1 -->
<g id="node1" class="node">
<title>Node1</title>
<g id="a_node1"><a xlink:title=" ">
<polygon fill="#bfbfbf" stroke="black" points="0,-19 0,-60 181,-60 181,-19 0,-19"/>
<text text-anchor="start" x="8" y="-48" font-family="Helvetica,sans-Serif" font-size="10.00">denoptim.programs.fragmenter.</text>
<text text-anchor="start" x="8" y="-37" font-family="Helvetica,sans-Serif" font-size="10.00">FragmenterParameters.createWorking</text>
<text text-anchor="middle" x="90.5" y="-26" font-family="Helvetica,sans-Serif" font-size="10.00">Directory</text>
</a>
</g>
</g>
<!-- Node2 -->
<g id="node2" class="node">
<title>Node2</title>
<g id="a_node2"><a xlink:href="classdenoptim_1_1files_1_1_file_utils.html#af572123d13600224e1de3cb7b79cb028" target="_top" xlink:title="Appends an entry to the list of recent files.">
<polygon fill="white" stroke="black" points="222.5,-49.5 222.5,-79.5 354.5,-79.5 354.5,-49.5 222.5,-49.5"/>
<text text-anchor="start" x="230.5" y="-67.5" font-family="Helvetica,sans-Serif" font-size="10.00">denoptim.files.FileUtils.add</text>
<text text-anchor="middle" x="288.5" y="-56.5" font-family="Helvetica,sans-Serif" font-size="10.00">ToRecentFiles</text>
</a>
</g>
</g>
<!-- Node1&#45;&gt;Node2 -->
<g id="edge1" class="edge">
<title>Node1&#45;&gt;Node2</title>
<path fill="none" stroke="midnightblue" d="M181.18,-50.94C191.62,-52.27 202.17,-53.62 212.38,-54.92"/>
<polygon fill="midnightblue" stroke="midnightblue" points="212.09,-58.41 222.46,-56.2 212.98,-51.47 212.09,-58.41"/>
</g>
<!-- Node3 -->
<g id="node3" class="node">
<title>Node3</title>
<g id="a_node3"><a xlink:href="classdenoptim_1_1files_1_1_file_utils.html#a5c4375aa4522cc7f8229c131fbc2e0af" target="_top" xlink:title="Creates a directory.">
<polygon fill="white" stroke="black" points="217,-0.5 217,-30.5 360,-30.5 360,-0.5 217,-0.5"/>
<text text-anchor="start" x="225" y="-18.5" font-family="Helvetica,sans-Serif" font-size="10.00">denoptim.files.FileUtils.create</text>
<text text-anchor="middle" x="288.5" y="-7.5" font-family="Helvetica,sans-Serif" font-size="10.00">Directory</text>
</a>
</g>
</g>
<!-- Node1&#45;&gt;Node3 -->
<g id="edge3" class="edge">
<title>Node1&#45;&gt;Node3</title>
<path fill="none" stroke="midnightblue" d="M181.18,-28.52C189.71,-27.47 198.32,-26.42 206.76,-25.39"/>
<polygon fill="midnightblue" stroke="midnightblue" points="207.44,-28.83 216.94,-24.14 206.59,-21.88 207.44,-28.83"/>
</g>
<!-- Node2&#45;&gt;Node2 -->
<g id="edge2" class="edge">
<title>Node2&#45;&gt;Node2</title>
<path fill="none" stroke="midnightblue" d="M253.99,-79.66C245.67,-89.06 257.18,-98 288.5,-98 307.59,-98 319.32,-94.68 323.68,-89.96"/>
<polygon fill="midnightblue" stroke="midnightblue" points="327.15,-89.41 323.01,-79.66 320.17,-89.87 327.15,-89.41"/>
</g>
</g>
</svg>
