<?xml version="1.0" encoding="UTF-8" standalone="no"?>
<!DOCTYPE svg PUBLIC "-//W3C//DTD SVG 1.1//EN"
 "http://www.w3.org/Graphics/SVG/1.1/DTD/svg11.dtd">
<!-- Generated by graphviz version 3.0.0 (20221109.1736)
 -->
<!-- Title: denoptim.programs.fitnessevaluator.FRParameters Pages: 1 -->
<!--zoomable 175 -->
<svg id="main" version="1.1" xmlns="http://www.w3.org/2000/svg" xmlns:xlink="http://www.w3.org/1999/xlink" xml:space="preserve" onload="init(evt)">
<style type="text/css"><![CDATA[
.edge:hover path { stroke: red; }
.edge:hover polygon { stroke: red; fill: red; }
]]></style>
<script type="text/javascript"><![CDATA[
var edges = document.getElementsByTagName('g');
if (edges && edges.length) {
  for (var i=0;i<edges.length;i++) {
    if (edges[i].id.substr(0,4)=='edge') {
      edges[i].setAttribute('class','edge');
    }
  }
}
]]></script>
        <defs>
                <circle id="rim" cx="0" cy="0" r="7"/>
                <circle id="rim2" cx="0" cy="0" r="3.5"/>
                <g id="zoomPlus">
                        <use xlink:href="#rim" fill="#404040">
                                <set attributeName="fill" to="#808080" begin="zoomplus.mouseover" end="zoomplus.mouseout"/>
                        </use>
                        <path d="M-4,0h8M0,-4v8" fill="none" stroke="white" stroke-width="1.5" pointer-events="none"/>
                </g>
                <g id="zoomMin">
                        <use xlink:href="#rim" fill="#404040">
                                <set attributeName="fill" to="#808080" begin="zoomminus.mouseover" end="zoomminus.mouseout"/>
                        </use>
                        <path d="M-4,0h8" fill="none" stroke="white" stroke-width="1.5" pointer-events="none"/>
                </g>
                <g id="dirArrow">
                        <path fill="none" stroke="white" stroke-width="1.5" d="M0,-3.0v7 M-2.5,-0.5L0,-3.0L2.5,-0.5"/>
                </g>
               <g id="resetDef">
                       <use xlink:href="#rim2" fill="#404040">
                               <set attributeName="fill" to="#808080" begin="reset.mouseover" end="reset.mouseout"/>
                       </use>
               </g>
        </defs>

<script type="text/javascript">
var viewWidth = 841;
var viewHeight = 175;
var sectionId = 'dynsection-1';
</script>
<script xlink:href="svgpan.js"/>
<svg id="graph" class="graph">
<g id="viewport">
<title>denoptim.programs.fitnessevaluator.FRParameters</title>
<polygon fill="white" stroke="transparent" points="-4,4 -4,-170.5 837,-170.5 837,4 -4,4"/>
<!-- Node1 -->
<g id="node1" class="node">
<title>Node1</title>
<g id="a_node1"><a xlink:title="Parameters controlling execution of FitnessRunner.">
<polygon fill="#bfbfbf" stroke="black" points="661,-49.5 661,-79.5 833,-79.5 833,-49.5 661,-49.5"/>
<text text-anchor="start" x="669" y="-67.5" font-family="Helvetica,sans-Serif" font-size="10.00">denoptim.programs.fitnessevaluator.</text>
<text text-anchor="middle" x="747" y="-56.5" font-family="Helvetica,sans-Serif" font-size="10.00">FRParameters</text>
</a>
</g>
</g>
<!-- Node2 -->
<g id="node2" class="node">
<title>Node2</title>
<g id="a_node2"><a xlink:href="classdenoptim_1_1programs_1_1_run_time_parameters.html" target="_top" xlink:title="Collection of parameters controlling the behavior of the software.">
<polygon fill="white" stroke="black" points="454,-75.5 454,-105.5 594,-105.5 594,-75.5 454,-75.5"/>
<text text-anchor="start" x="462" y="-93.5" font-family="Helvetica,sans-Serif" font-size="10.00">denoptim.programs.RunTime</text>
<text text-anchor="middle" x="524" y="-82.5" font-family="Helvetica,sans-Serif" font-size="10.00">Parameters</text>
</a>
</g>
</g>
<!-- Node2&#45;&gt;Node1 -->
<g id="edge1" class="edge">
<title>Node2&#45;&gt;Node1</title>
<path fill="none" stroke="midnightblue" d="M604.09,-81.2C622.48,-79.03 642.14,-76.72 660.79,-74.53"/>
<polygon fill="midnightblue" stroke="midnightblue" points="603.54,-77.74 594.02,-82.38 604.36,-84.69 603.54,-77.74"/>
</g>
<!-- Node3 -->
<g id="node3" class="node">
<title>Node3</title>
<g id="a_node3"><a xlink:title=" ">
<polygon fill="white" stroke="black" points="219,-147 219,-166 266,-166 266,-147 219,-147"/>
<text text-anchor="middle" x="242.5" y="-154" font-family="Helvetica,sans-Serif" font-size="10.00">Logger</text>
</a>
</g>
</g>
<!-- Node3&#45;&gt;Node2 -->
<g id="edge2" class="edge">
<title>Node3&#45;&gt;Node2</title>
<path fill="none" stroke="#9a32cd" stroke-dasharray="5,2" d="M276.4,-151.86C314.99,-146.07 380.72,-135.12 436,-120.5 451.6,-116.38 468.43,-110.84 483.1,-105.64"/>
<polygon fill="#9a32cd" stroke="#9a32cd" points="275.65,-148.43 266.26,-153.35 276.67,-155.36 275.65,-148.43"/>
<text text-anchor="middle" x="398.5" y="-139.5" font-family="Helvetica,sans-Serif" font-size="10.00"> logger</text>
</g>
<!-- Node4 -->
<g id="node4" class="node">
<title>Node4</title>
<g id="a_node4"><a xlink:href="classdenoptim_1_1utils_1_1_randomizer.html" target="_top" xlink:title="Tool to generate random numbers and random decisions.">
<polygon fill="white" stroke="black" points="177.5,-109 177.5,-128 307.5,-128 307.5,-109 177.5,-109"/>
<text text-anchor="middle" x="242.5" y="-116" font-family="Helvetica,sans-Serif" font-size="10.00">denoptim.utils.Randomizer</text>
</a>
</g>
</g>
<!-- Node4&#45;&gt;Node2 -->
<g id="edge3" class="edge">
<title>Node4&#45;&gt;Node2</title>
<path fill="none" stroke="#9a32cd" stroke-dasharray="5,2" d="M317.84,-111.05C360.03,-106.83 412.49,-101.57 453.8,-97.43"/>
<polygon fill="#9a32cd" stroke="#9a32cd" points="317.22,-107.6 307.62,-112.08 317.92,-114.56 317.22,-107.6"/>
<text text-anchor="middle" x="398.5" y="-108.5" font-family="Helvetica,sans-Serif" font-size="10.00"> rng</text>
</g>
<!-- Node5 -->
<g id="node5" class="node">
<title>Node5</title>
<g id="a_node5"><a xlink:title=" ">
<polygon fill="white" stroke="black" points="0,-109 0,-128 92,-128 92,-109 0,-109"/>
<text text-anchor="middle" x="46" y="-116" font-family="Helvetica,sans-Serif" font-size="10.00">MersenneTwister</text>
</a>
</g>
</g>
<!-- Node5&#45;&gt;Node4 -->
<g id="edge4" class="edge">
<title>Node5&#45;&gt;Node4</title>
<path fill="none" stroke="#9a32cd" stroke-dasharray="5,2" d="M102.23,-118.5C125.67,-118.5 153.15,-118.5 177.48,-118.5"/>
<polygon fill="#9a32cd" stroke="#9a32cd" points="102.11,-115 92.11,-118.5 102.11,-122 102.11,-115"/>
<text text-anchor="middle" x="117" y="-121.5" font-family="Helvetica,sans-Serif" font-size="10.00"> mt</text>
</g>
<!-- Node6 -->
<g id="node6" class="node">
<title>Node6</title>
<g id="a_node6"><a xlink:title=" ">
<polygon fill="white" stroke="black" points="142,-49 142,-90 343,-90 343,-49 142,-49"/>
<text text-anchor="start" x="150" y="-78" font-family="Helvetica,sans-Serif" font-size="10.00">Map&lt; denoptim.programs.Run</text>
<text text-anchor="start" x="150" y="-67" font-family="Helvetica,sans-Serif" font-size="10.00">TimeParameters.ParametersType,</text>
<text text-anchor="middle" x="242.5" y="-56" font-family="Helvetica,sans-Serif" font-size="10.00"> denoptim.programs.RunTimeParameters &gt;</text>
</a>
</g>
</g>
<!-- Node6&#45;&gt;Node2 -->
<g id="edge5" class="edge">
<title>Node6&#45;&gt;Node2</title>
<path fill="none" stroke="#9a32cd" stroke-dasharray="5,2" d="M353.31,-72.92C380.38,-74.23 409.26,-76.04 436,-78.5 441.77,-79.03 447.74,-79.67 453.73,-80.37"/>
<polygon fill="#9a32cd" stroke="#9a32cd" points="353.19,-69.41 343.03,-72.44 352.86,-76.4 353.19,-69.41"/>
<text text-anchor="middle" x="398.5" y="-81.5" font-family="Helvetica,sans-Serif" font-size="10.00"> otherParameters</text>
</g>
<!-- Node7 -->
<g id="node7" class="node">
<title>Node7</title>
<g id="a_node7"><a xlink:href="enumdenoptim_1_1programs_1_1_run_time_parameters_1_1_parameters_type.html" target="_top" xlink:title="Identifier of the type of parameters.">
<polygon fill="white" stroke="black" points="172.5,-0.5 172.5,-30.5 312.5,-30.5 312.5,-0.5 172.5,-0.5"/>
<text text-anchor="start" x="180.5" y="-18.5" font-family="Helvetica,sans-Serif" font-size="10.00">denoptim.programs.RunTime</text>
<text text-anchor="middle" x="242.5" y="-7.5" font-family="Helvetica,sans-Serif" font-size="10.00">Parameters.ParametersType</text>
</a>
</g>
</g>
<!-- Node7&#45;&gt;Node2 -->
<g id="edge6" class="edge">
<title>Node7&#45;&gt;Node2</title>
<path fill="none" stroke="#9a32cd" stroke-dasharray="5,2" d="M322.76,-29.02C357.9,-35.98 399.46,-45.53 436,-57.5 444.32,-60.22 445.88,-62.23 454,-65.5 462.39,-68.88 471.44,-72.31 480.12,-75.5"/>
<polygon fill="#9a32cd" stroke="#9a32cd" points="323.04,-25.51 312.56,-27.04 321.71,-32.38 323.04,-25.51"/>
<text text-anchor="middle" x="398.5" y="-60.5" font-family="Helvetica,sans-Serif" font-size="10.00"> paramType</text>
</g>
<!-- Node8 -->
<g id="node8" class="node">
<title>Node8</title>
<g id="a_node8"><a xlink:title=" ">
<polygon fill="white" stroke="black" points="508,-37 508,-56 540,-56 540,-37 508,-37"/>
<text text-anchor="middle" x="524" y="-44" font-family="Helvetica,sans-Serif" font-size="10.00">File</text>
</a>
</g>
</g>
<!-- Node8&#45;&gt;Node1 -->
<g id="edge7" class="edge">
<title>Node8&#45;&gt;Node1</title>
<path fill="none" stroke="#9a32cd" stroke-dasharray="5,2" d="M550.32,-46.62C574.25,-46.91 611.12,-47.8 643,-50.5 648.84,-50.99 654.86,-51.59 660.92,-52.25"/>
<polygon fill="#9a32cd" stroke="#9a32cd" points="550.34,-43.12 540.3,-46.53 550.27,-50.12 550.34,-43.12"/>
<text text-anchor="middle" x="627.5" y="-64.5" font-family="Helvetica,sans-Serif" font-size="10.00"> inpFile</text>
<text text-anchor="middle" x="627.5" y="-53.5" font-family="Helvetica,sans-Serif" font-size="10.00">outFile</text>
</g>
</g>
</svg>
        <g id="navigator" transform="translate(0 0)" fill="#404254">
                <rect fill="#f2f5e9" fill-opacity="0.5" stroke="#606060" stroke-width=".5" x="0" y="0" width="60" height="60"/>
                <use id="zoomplus" xlink:href="#zoomPlus" x="17" y="9" onmousedown="handleZoom(evt,'in')"/>
                <use id="zoomminus" xlink:href="#zoomMin" x="42" y="9" onmousedown="handleZoom(evt,'out')"/>
                <use id="reset" xlink:href="#resetDef" x="30" y="36" onmousedown="handleReset()"/>
                <g id="arrowUp" xlink:href="#dirArrow" transform="translate(30 24)" onmousedown="handlePan(0,-1)">
                  <use xlink:href="#rim" fill="#404040">
                        <set attributeName="fill" to="#808080" begin="arrowUp.mouseover" end="arrowUp.mouseout"/>
                  </use>
                  <path fill="none" stroke="white" stroke-width="1.5" d="M0,-3.0v7 M-2.5,-0.5L0,-3.0L2.5,-0.5"/>
                </g>
                <g id="arrowRight" xlink:href="#dirArrow" transform="rotate(90) translate(36 -43)" onmousedown="handlePan(1,0)">
                  <use xlink:href="#rim" fill="#404040">
                        <set attributeName="fill" to="#808080" begin="arrowRight.mouseover" end="arrowRight.mouseout"/>
                  </use>
                  <path fill="none" stroke="white" stroke-width="1.5" d="M0,-3.0v7 M-2.5,-0.5L0,-3.0L2.5,-0.5"/>
                </g>
                <g id="arrowDown" xlink:href="#dirArrow" transform="rotate(180) translate(-30 -48)" onmousedown="handlePan(0,1)">
                  <use xlink:href="#rim" fill="#404040">
                        <set attributeName="fill" to="#808080" begin="arrowDown.mouseover" end="arrowDown.mouseout"/>
                  </use>
                  <path fill="none" stroke="white" stroke-width="1.5" d="M0,-3.0v7 M-2.5,-0.5L0,-3.0L2.5,-0.5"/>
                </g>
                <g id="arrowLeft" xlink:href="#dirArrow" transform="rotate(270) translate(-36 17)" onmousedown="handlePan(-1,0)">
                  <use xlink:href="#rim" fill="#404040">
                        <set attributeName="fill" to="#808080" begin="arrowLeft.mouseover" end="arrowLeft.mouseout"/>
                  </use>
                  <path fill="none" stroke="white" stroke-width="1.5" d="M0,-3.0v7 M-2.5,-0.5L0,-3.0L2.5,-0.5"/>
                </g>
        </g>
        <svg viewBox="0 0 15 15" width="100%" height="30px" preserveAspectRatio="xMaxYMin meet">
         <g id="arrow_out" transform="scale(0.3 0.3)">
          <a xlink:href="classdenoptim_1_1programs_1_1fitnessevaluator_1_1_f_r_parameters__coll__graph_org.svg" target="_base">
           <rect id="button" ry="5" rx="5" y="6" x="6" height="38" width="38"
                fill="#f2f5e9" fill-opacity="0.5" stroke="#606060" stroke-width="1.0"/>
           <path id="arrow"
             d="M 11.500037,31.436501 C 11.940474,20.09759 22.043105,11.32322 32.158766,21.979434 L 37.068811,17.246167 C 37.068811,17.246167 37.088388,32 37.088388,32 L 22.160133,31.978069 C 22.160133,31.978069 26.997745,27.140456 26.997745,27.140456 C 18.528582,18.264221 13.291696,25.230495 11.500037,31.436501 z"
             style="fill:#404040;"/>
          </a>
         </g>
        </svg>
</svg>
