<?xml version="1.0" encoding="UTF-8" standalone="no"?>
<!DOCTYPE svg PUBLIC "-//W3C//DTD SVG 1.1//EN"
 "http://www.w3.org/Graphics/SVG/1.1/DTD/svg11.dtd">
<!-- Generated by graphviz version 3.0.0 (20221109.1736)
 -->
<!-- Title: denoptim.utils.DummyAtomHandler.removeDummyInHapto Pages: 1 -->
<svg width="544pt" height="271pt"
 viewBox="0.00 0.00 544.00 271.00" xmlns="http://www.w3.org/2000/svg" xmlns:xlink="http://www.w3.org/1999/xlink">
<g id="graph0" class="graph" transform="scale(1 1) rotate(0) translate(4 267)">
<title>denoptim.utils.DummyAtomHandler.removeDummyInHapto</title>
<polygon fill="white" stroke="transparent" points="-4,4 -4,-267 540,-267 540,4 -4,4"/>
<!-- Node1 -->
<g id="node1" class="node">
<title>Node1</title>
<g id="a_node1"><a xlink:title=" ">
<polygon fill="#bfbfbf" stroke="black" points="0,-116.5 0,-146.5 152,-146.5 152,-116.5 0,-116.5"/>
<text text-anchor="start" x="8" y="-134.5" font-family="Helvetica,sans-Serif" font-size="10.00">denoptim.utils.DummyAtom</text>
<text text-anchor="middle" x="76" y="-123.5" font-family="Helvetica,sans-Serif" font-size="10.00">Handler.removeDummyInHapto</text>
</a>
</g>
</g>
<!-- Node2 -->
<g id="node2" class="node">
<title>Node2</title>
<g id="a_node2"><a xlink:href="classdenoptim_1_1utils_1_1_dummy_atom_handler.html#a51781b0ca6eb50ceb2160e1020af04ab" target="_top" xlink:title="Explore connected systems in a list of atoms and returns all the atoms that can be reached starting f...">
<polygon fill="white" stroke="black" points="188,-214.5 188,-244.5 352,-244.5 352,-214.5 188,-214.5"/>
<text text-anchor="start" x="196" y="-232.5" font-family="Helvetica,sans-Serif" font-size="10.00">denoptim.utils.DummyAtom</text>
<text text-anchor="middle" x="270" y="-221.5" font-family="Helvetica,sans-Serif" font-size="10.00">Handler.exploreConnectedToAtom</text>
</a>
</g>
</g>
<!-- Node1&#45;&gt;Node2 -->
<g id="edge1" class="edge">
<title>Node1&#45;&gt;Node2</title>
<path fill="none" stroke="midnightblue" d="M95.99,-146.76C117.28,-163.24 153.39,-189.29 188,-205.5 192.07,-207.41 196.33,-209.2 200.66,-210.88"/>
<polygon fill="midnightblue" stroke="midnightblue" points="199.66,-214.24 210.26,-214.38 202.06,-207.66 199.66,-214.24"/>
</g>
<!-- Node3 -->
<g id="node3" class="node">
<title>Node3</title>
<g id="a_node3"><a xlink:href="classdenoptim_1_1utils_1_1_dummy_atom_handler.html#a27e71c4eff13a223903ab212a4f316eb" target="_top" xlink:title="Generates a vector of boolean flags.">
<polygon fill="white" stroke="black" points="202.5,-165.5 202.5,-195.5 337.5,-195.5 337.5,-165.5 202.5,-165.5"/>
<text text-anchor="start" x="210.5" y="-183.5" font-family="Helvetica,sans-Serif" font-size="10.00">denoptim.utils.DummyAtom</text>
<text text-anchor="middle" x="270" y="-172.5" font-family="Helvetica,sans-Serif" font-size="10.00">Handler.getFlagsVector</text>
</a>
</g>
</g>
<!-- Node1&#45;&gt;Node3 -->
<g id="edge3" class="edge">
<title>Node1&#45;&gt;Node3</title>
<path fill="none" stroke="midnightblue" d="M135.91,-146.53C156.28,-151.73 179.27,-157.6 200.35,-162.98"/>
<polygon fill="midnightblue" stroke="midnightblue" points="199.65,-166.41 210.2,-165.49 201.38,-159.63 199.65,-166.41"/>
</g>
<!-- Node4 -->
<g id="node4" class="node">
<title>Node4</title>
<g id="a_node4"><a xlink:href="classdenoptim_1_1utils_1_1_dummy_atom_handler.html#a4cd147e9f65c7826d4bf8bc295f9d5b3" target="_top" xlink:title=" ">
<polygon fill="white" stroke="black" points="198.5,-116.5 198.5,-146.5 341.5,-146.5 341.5,-116.5 198.5,-116.5"/>
<text text-anchor="start" x="206.5" y="-134.5" font-family="Helvetica,sans-Serif" font-size="10.00">denoptim.utils.DummyAtom</text>
<text text-anchor="middle" x="270" y="-123.5" font-family="Helvetica,sans-Serif" font-size="10.00">Handler.getSDFAtomNumber</text>
</a>
</g>
</g>
<!-- Node1&#45;&gt;Node4 -->
<g id="edge4" class="edge">
<title>Node1&#45;&gt;Node4</title>
<path fill="none" stroke="midnightblue" d="M152.06,-131.5C163.97,-131.5 176.34,-131.5 188.37,-131.5"/>
<polygon fill="midnightblue" stroke="midnightblue" points="188.39,-135 198.39,-131.5 188.39,-128 188.39,-135"/>
</g>
<!-- Node5 -->
<g id="node5" class="node">
<title>Node5</title>
<g id="a_node5"><a xlink:href="classdenoptim_1_1utils_1_1_molecule_utils.html#a8bca186632882f9399b9511020a43211" target="_top" xlink:title="Gets either the elemental symbol (for standard atoms) of the label (for pseudo&#45;atoms).">
<polygon fill="white" stroke="black" points="193,-67.5 193,-97.5 347,-97.5 347,-67.5 193,-67.5"/>
<text text-anchor="start" x="201" y="-85.5" font-family="Helvetica,sans-Serif" font-size="10.00">denoptim.utils.MoleculeUtils.get</text>
<text text-anchor="middle" x="270" y="-74.5" font-family="Helvetica,sans-Serif" font-size="10.00">SymbolOrLabel</text>
</a>
</g>
</g>
<!-- Node1&#45;&gt;Node5 -->
<g id="edge5" class="edge">
<title>Node1&#45;&gt;Node5</title>
<path fill="none" stroke="midnightblue" d="M135.91,-116.47C156.28,-111.27 179.27,-105.4 200.35,-100.02"/>
<polygon fill="midnightblue" stroke="midnightblue" points="201.38,-103.37 210.2,-97.51 199.65,-96.59 201.38,-103.37"/>
</g>
<!-- Node7 -->
<g id="node7" class="node">
<title>Node7</title>
<g id="a_node7"><a xlink:href="classdenoptim_1_1io_1_1_denoptim_i_o.html#a33af2ecd8e9f62a54855b2a7866262b3" target="_top" xlink:title="Writes IAtomContainer to SDF file.">
<polygon fill="white" stroke="black" points="198.5,-0.5 198.5,-30.5 341.5,-30.5 341.5,-0.5 198.5,-0.5"/>
<text text-anchor="start" x="206.5" y="-18.5" font-family="Helvetica,sans-Serif" font-size="10.00">denoptim.io.DenoptimIO.write</text>
<text text-anchor="middle" x="270" y="-7.5" font-family="Helvetica,sans-Serif" font-size="10.00">SDFFile</text>
</a>
</g>
</g>
<!-- Node1&#45;&gt;Node7 -->
<g id="edge8" class="edge">
<title>Node1&#45;&gt;Node7</title>
<path fill="none" stroke="midnightblue" d="M98.73,-116.34C120.83,-101.12 156.25,-77.31 188,-58.5 201.47,-50.52 216.54,-42.33 229.99,-35.26"/>
<polygon fill="midnightblue" stroke="midnightblue" points="231.75,-38.29 239.01,-30.57 228.52,-32.08 231.75,-38.29"/>
</g>
<!-- Node2&#45;&gt;Node2 -->
<g id="edge2" class="edge">
<title>Node2&#45;&gt;Node2</title>
<path fill="none" stroke="midnightblue" d="M236.54,-244.66C228.47,-254.06 239.62,-263 270,-263 288.51,-263 299.88,-259.68 304.12,-254.96"/>
<polygon fill="midnightblue" stroke="midnightblue" points="307.59,-254.42 303.46,-244.66 300.6,-254.86 307.59,-254.42"/>
</g>
<!-- Node6 -->
<g id="node6" class="node">
<title>Node6</title>
<g id="a_node6"><a xlink:href="classdenoptim_1_1utils_1_1_molecule_utils.html#af975649c8225c4653efb1135d8360c2d" target="_top" xlink:title="Check element symbol corresponds to real element of Periodic Table.">
<polygon fill="white" stroke="black" points="388,-67.5 388,-97.5 536,-97.5 536,-67.5 388,-67.5"/>
<text text-anchor="start" x="396" y="-85.5" font-family="Helvetica,sans-Serif" font-size="10.00">denoptim.utils.MoleculeUtils.is</text>
<text text-anchor="middle" x="462" y="-74.5" font-family="Helvetica,sans-Serif" font-size="10.00">Element</text>
</a>
</g>
</g>
<!-- Node5&#45;&gt;Node6 -->
<g id="edge6" class="edge">
<title>Node5&#45;&gt;Node6</title>
<path fill="none" stroke="midnightblue" d="M347.19,-82.5C357.25,-82.5 367.61,-82.5 377.79,-82.5"/>
<polygon fill="midnightblue" stroke="midnightblue" points="377.89,-86 387.88,-82.5 377.88,-79 377.89,-86"/>
</g>
<!-- Node6&#45;&gt;Node6 -->
<g id="edge7" class="edge">
<title>Node6&#45;&gt;Node6</title>
<path fill="none" stroke="midnightblue" d="M428.54,-97.66C420.47,-107.06 431.62,-116 462,-116 480.51,-116 491.88,-112.68 496.12,-107.96"/>
<polygon fill="midnightblue" stroke="midnightblue" points="499.59,-107.42 495.46,-97.66 492.6,-107.86 499.59,-107.42"/>
</g>
<!-- Node7&#45;&gt;Node7 -->
<g id="edge9" class="edge">
<title>Node7&#45;&gt;Node7</title>
<path fill="none" stroke="midnightblue" d="M236.54,-30.66C228.47,-40.06 239.62,-49 270,-49 288.51,-49 299.88,-45.68 304.12,-40.96"/>
<polygon fill="midnightblue" stroke="midnightblue" points="307.59,-40.42 303.46,-30.66 300.6,-40.86 307.59,-40.42"/>
</g>
</g>
</svg>
