<?xml version="1.0" encoding="UTF-8" standalone="no"?>
<!DOCTYPE svg PUBLIC "-//W3C//DTD SVG 1.1//EN"
 "http://www.w3.org/Graphics/SVG/1.1/DTD/svg11.dtd">
<!-- Generated by graphviz version 3.0.0 (20221109.1736)
 -->
<!-- Title: denoptim.integration.tinker.ConformationalSearchPSSROT.setTinkerTypes Pages: 1 -->
<svg width="441pt" height="137pt"
 viewBox="0.00 0.00 441.00 137.00" xmlns="http://www.w3.org/2000/svg" xmlns:xlink="http://www.w3.org/1999/xlink">
<g id="graph0" class="graph" transform="scale(1 1) rotate(0) translate(4 133)">
<title>denoptim.integration.tinker.ConformationalSearchPSSROT.setTinkerTypes</title>
<polygon fill="white" stroke="transparent" points="-4,4 -4,-133 437,-133 437,4 -4,4"/>
<!-- Node1 -->
<g id="node1" class="node">
<title>Node1</title>
<g id="a_node1"><a xlink:title="Used elemental symbols (ot pseudo&#45;element symbols) to assign atom types.">
<polygon fill="#bfbfbf" stroke="black" points="0,-49.5 0,-79.5 222,-79.5 222,-49.5 0,-49.5"/>
<text text-anchor="start" x="8" y="-67.5" font-family="Helvetica,sans-Serif" font-size="10.00">denoptim.integration.tinker.</text>
<text text-anchor="middle" x="111" y="-56.5" font-family="Helvetica,sans-Serif" font-size="10.00">ConformationalSearchPSSROT.setTinkerTypes</text>
</a>
</g>
</g>
<!-- Node2 -->
<g id="node2" class="node">
<title>Node2</title>
<g id="a_node2"><a xlink:href="classdenoptim_1_1molecularmodeling_1_1zmatrix_1_1_z_matrix.html#ad0f695527ee91cd88d95d381e55f73cc" target="_top" xlink:title="Get the atom at the given index.">
<polygon fill="white" stroke="black" points="258,-98.5 258,-128.5 433,-128.5 433,-98.5 258,-98.5"/>
<text text-anchor="start" x="266" y="-116.5" font-family="Helvetica,sans-Serif" font-size="10.00">denoptim.molecularmodeling.zmatrix.</text>
<text text-anchor="middle" x="345.5" y="-105.5" font-family="Helvetica,sans-Serif" font-size="10.00">ZMatrix.getAtom</text>
</a>
</g>
</g>
<!-- Node1&#45;&gt;Node2 -->
<g id="edge1" class="edge">
<title>Node1&#45;&gt;Node2</title>
<path fill="none" stroke="midnightblue" d="M183.34,-79.53C208.67,-84.87 237.36,-90.92 263.44,-96.42"/>
<polygon fill="midnightblue" stroke="midnightblue" points="262.79,-99.86 273.3,-98.49 264.23,-93.01 262.79,-99.86"/>
</g>
<!-- Node3 -->
<g id="node3" class="node">
<title>Node3</title>
<g id="a_node3"><a xlink:href="classdenoptim_1_1molecularmodeling_1_1zmatrix_1_1_z_matrix_atom.html#a0c1d972b730eec8ccd5de41cd80e8812" target="_top" xlink:title="Get the symbol of the atom.">
<polygon fill="white" stroke="black" points="258,-49.5 258,-79.5 433,-79.5 433,-49.5 258,-49.5"/>
<text text-anchor="start" x="266" y="-67.5" font-family="Helvetica,sans-Serif" font-size="10.00">denoptim.molecularmodeling.zmatrix.</text>
<text text-anchor="middle" x="345.5" y="-56.5" font-family="Helvetica,sans-Serif" font-size="10.00">ZMatrixAtom.getSymbol</text>
</a>
</g>
</g>
<!-- Node1&#45;&gt;Node3 -->
<g id="edge2" class="edge">
<title>Node1&#45;&gt;Node3</title>
<path fill="none" stroke="midnightblue" d="M222.12,-64.5C230.63,-64.5 239.19,-64.5 247.6,-64.5"/>
<polygon fill="midnightblue" stroke="midnightblue" points="247.79,-68 257.79,-64.5 247.79,-61 247.79,-68"/>
</g>
<!-- Node4 -->
<g id="node4" class="node">
<title>Node4</title>
<g id="a_node4"><a xlink:href="classdenoptim_1_1molecularmodeling_1_1zmatrix_1_1_z_matrix_atom.html#a8b43b83af1c6917f9ac9f81222978a35" target="_top" xlink:title="Set the type of the atom.">
<polygon fill="white" stroke="black" points="258,-0.5 258,-30.5 433,-30.5 433,-0.5 258,-0.5"/>
<text text-anchor="start" x="266" y="-18.5" font-family="Helvetica,sans-Serif" font-size="10.00">denoptim.molecularmodeling.zmatrix.</text>
<text text-anchor="middle" x="345.5" y="-7.5" font-family="Helvetica,sans-Serif" font-size="10.00">ZMatrixAtom.setType</text>
</a>
</g>
</g>
<!-- Node1&#45;&gt;Node4 -->
<g id="edge3" class="edge">
<title>Node1&#45;&gt;Node4</title>
<path fill="none" stroke="midnightblue" d="M183.34,-49.47C208.67,-44.13 237.36,-38.08 263.44,-32.58"/>
<polygon fill="midnightblue" stroke="midnightblue" points="264.23,-35.99 273.3,-30.51 262.79,-29.14 264.23,-35.99"/>
</g>
</g>
</svg>
