<?xml version="1.0" encoding="UTF-8" standalone="no"?>
<!DOCTYPE svg PUBLIC "-//W3C//DTD SVG 1.1//EN"
 "http://www.w3.org/Graphics/SVG/1.1/DTD/svg11.dtd">
<!-- Generated by graphviz version 3.0.0 (20221109.1736)
 -->
<!-- Title: denoptim.integration.rcoserver.RCOSocketServerClient Pages: 1 -->
<svg width="324pt" height="184pt"
 viewBox="0.00 0.00 324.00 184.00" xmlns="http://www.w3.org/2000/svg" xmlns:xlink="http://www.w3.org/1999/xlink">
<g id="graph0" class="graph" transform="scale(1 1) rotate(0) translate(4 180)">
<title>denoptim.integration.rcoserver.RCOSocketServerClient</title>
<polygon fill="white" stroke="transparent" points="-4,4 -4,-180 320,-180 320,4 -4,4"/>
<!-- Node1 -->
<g id="node1" class="node">
<title>Node1</title>
<g id="a_node1"><a xlink:title="Sends the request to produce a socket server running the RingClosingMM service.">
<polygon fill="#bfbfbf" stroke="black" points="0,-0.5 0,-30.5 149,-30.5 149,-0.5 0,-0.5"/>
<text text-anchor="start" x="8" y="-18.5" font-family="Helvetica,sans-Serif" font-size="10.00">denoptim.integration.rcoserver.</text>
<text text-anchor="middle" x="74.5" y="-7.5" font-family="Helvetica,sans-Serif" font-size="10.00">RCOSocketServerClient</text>
</a>
</g>
</g>
<!-- Node2 -->
<g id="node2" class="node">
<title>Node2</title>
<g id="a_node2"><a xlink:href="classdenoptim_1_1integration_1_1rcoserver_1_1_r_c_o_socket_server_client.html" target="_top" xlink:title="Sends the request to produce a socket server running the RingClosingMM service.">
<polygon fill="white" stroke="black" points="109,-78.5 109,-108.5 258,-108.5 258,-78.5 109,-78.5"/>
<text text-anchor="start" x="117" y="-96.5" font-family="Helvetica,sans-Serif" font-size="10.00">denoptim.integration.rcoserver.</text>
<text text-anchor="middle" x="183.5" y="-85.5" font-family="Helvetica,sans-Serif" font-size="10.00">RCOSocketServerClient</text>
</a>
</g>
</g>
<!-- Node2&#45;&gt;Node1 -->
<g id="edge1" class="edge">
<title>Node2&#45;&gt;Node1</title>
<path fill="none" stroke="#9a32cd" stroke-dasharray="5,2" d="M154.97,-72.61C136.02,-59.39 111.58,-42.36 94.64,-30.54"/>
<polygon fill="#9a32cd" stroke="#9a32cd" points="153.05,-75.53 163.25,-78.38 157.05,-69.79 153.05,-75.53"/>
<text text-anchor="middle" x="155.5" y="-52" font-family="Helvetica,sans-Serif" font-size="10.00"> instance</text>
</g>
<!-- Node2&#45;&gt;Node2 -->
<g id="edge2" class="edge">
<title>Node2&#45;&gt;Node2</title>
<path fill="none" stroke="#9a32cd" stroke-dasharray="5,2" d="M268.19,-98.35C273.08,-97.19 276,-95.57 276,-93.5 276,-90.27 268.88,-88.14 258.26,-87.11"/>
<polygon fill="#9a32cd" stroke="#9a32cd" points="267.61,-94.9 258.26,-99.89 268.68,-101.82 267.61,-94.9"/>
<text text-anchor="middle" x="296" y="-91" font-family="Helvetica,sans-Serif" font-size="10.00"> instance</text>
</g>
<!-- Node3 -->
<g id="node3" class="node">
<title>Node3</title>
<g id="a_node3"><a xlink:title=" ">
<polygon fill="white" stroke="black" points="23.5,-156.5 23.5,-175.5 63.5,-175.5 63.5,-156.5 23.5,-156.5"/>
<text text-anchor="middle" x="43.5" y="-163.5" font-family="Helvetica,sans-Serif" font-size="10.00">Gson</text>
</a>
</g>
</g>
<!-- Node3&#45;&gt;Node1 -->
<g id="edge4" class="edge">
<title>Node3&#45;&gt;Node1</title>
<path fill="none" stroke="#9a32cd" stroke-dasharray="5,2" d="M38.68,-146.45C34.86,-128.59 31.12,-100.97 37.5,-78 42.43,-60.23 54.03,-42.45 62.93,-30.61"/>
<polygon fill="#9a32cd" stroke="#9a32cd" points="35.33,-147.49 41.04,-156.41 42.14,-145.87 35.33,-147.49"/>
<text text-anchor="middle" x="69" y="-91" font-family="Helvetica,sans-Serif" font-size="10.00"> jsonConverter</text>
</g>
<!-- Node3&#45;&gt;Node2 -->
<g id="edge3" class="edge">
<title>Node3&#45;&gt;Node2</title>
<path fill="none" stroke="#9a32cd" stroke-dasharray="5,2" d="M69.45,-151.93C93.95,-139.59 130.59,-121.14 155.69,-108.51"/>
<polygon fill="#9a32cd" stroke="#9a32cd" points="67.74,-148.87 60.39,-156.5 70.89,-155.12 67.74,-148.87"/>
<text text-anchor="middle" x="149" y="-130" font-family="Helvetica,sans-Serif" font-size="10.00"> jsonConverter</text>
</g>
</g>
</svg>
