<?xml version="1.0" encoding="UTF-8" standalone="no"?>
<!DOCTYPE svg PUBLIC "-//W3C//DTD SVG 1.1//EN"
 "http://www.w3.org/Graphics/SVG/1.1/DTD/svg11.dtd">
<!-- Generated by graphviz version 3.0.0 (20221109.1736)
 -->
<!-- Title: denoptim.utils.StatUtils.mean Pages: 1 -->
<svg width="1639pt" height="165pt"
 viewBox="0.00 0.00 1639.00 164.50" xmlns="http://www.w3.org/2000/svg" xmlns:xlink="http://www.w3.org/1999/xlink">
<g id="graph0" class="graph" transform="scale(1 1) rotate(0) translate(4 160.5)">
<title>denoptim.utils.StatUtils.mean</title>
<polygon fill="white" stroke="transparent" points="-4,4 -4,-160.5 1635,-160.5 1635,4 -4,4"/>
<!-- Node1 -->
<g id="node1" class="node">
<title>Node1</title>
<g id="a_node1"><a xlink:title="Returns the mean number in the numbers list.">
<polygon fill="#bfbfbf" stroke="black" points="1488,-75.5 1488,-94.5 1631,-94.5 1631,-75.5 1488,-75.5"/>
<text text-anchor="middle" x="1559.5" y="-82.5" font-family="Helvetica,sans-Serif" font-size="10.00">denoptim.utils.StatUtils.mean</text>
</a>
</g>
</g>
<!-- Node2 -->
<g id="node2" class="node">
<title>Node2</title>
<g id="a_node2"><a xlink:href="classdenoptim_1_1ga_1_1_e_a_utils.html#aa9dec22b5b0a35d6b333f8ce3bf83643" target="_top" xlink:title=" ">
<polygon fill="white" stroke="black" points="723,-77 723,-107 884,-107 884,-77 723,-77"/>
<text text-anchor="start" x="731" y="-95" font-family="Helvetica,sans-Serif" font-size="10.00">denoptim.ga.EAUtils.getSummary</text>
<text text-anchor="middle" x="803.5" y="-84" font-family="Helvetica,sans-Serif" font-size="10.00">Statistics</text>
</a>
</g>
</g>
<!-- Node1&#45;&gt;Node2 -->
<g id="edge1" class="edge">
<title>Node1&#45;&gt;Node2</title>
<path fill="none" stroke="midnightblue" d="M1504.05,-96.41C1487.42,-99.44 1469.03,-102.33 1452,-104 1220.65,-126.75 1160.8,-128.59 929,-111 914.5,-109.9 899.13,-108.09 884.33,-106.01"/>
<polygon fill="midnightblue" stroke="midnightblue" points="1504.97,-99.8 1514.15,-94.52 1503.68,-92.92 1504.97,-99.8"/>
</g>
<!-- Node9 -->
<g id="node9" class="node">
<title>Node9</title>
<g id="a_node9"><a xlink:href="classdenoptim_1_1utils_1_1_stat_utils.html#a25b63d1b47a7cd8a90c05aa7b9c78131" target="_top" xlink:title="Computes the Kurtosis of the available values.">
<polygon fill="white" stroke="black" points="1129,-56.5 1129,-75.5 1283,-75.5 1283,-56.5 1129,-56.5"/>
<text text-anchor="middle" x="1206" y="-63.5" font-family="Helvetica,sans-Serif" font-size="10.00">denoptim.utils.StatUtils.kurtosis</text>
</a>
</g>
</g>
<!-- Node1&#45;&gt;Node9 -->
<g id="edge9" class="edge">
<title>Node1&#45;&gt;Node9</title>
<path fill="none" stroke="midnightblue" d="M1477.47,-80.62C1418.95,-77.46 1340.43,-73.21 1283.07,-70.11"/>
<polygon fill="midnightblue" stroke="midnightblue" points="1477.62,-84.13 1487.79,-81.18 1478,-77.14 1477.62,-84.13"/>
</g>
<!-- Node10 -->
<g id="node10" class="node">
<title>Node10</title>
<g id="a_node10"><a xlink:href="classdenoptim_1_1utils_1_1_stat_utils.html#a42a83457989ab54a4cbb808fbca8ee1f" target="_top" xlink:title="Computes the skewness of the available values.">
<polygon fill="white" stroke="black" points="929,-82.5 929,-101.5 1093,-101.5 1093,-82.5 929,-82.5"/>
<text text-anchor="middle" x="1011" y="-89.5" font-family="Helvetica,sans-Serif" font-size="10.00">denoptim.utils.StatUtils.skewness</text>
</a>
</g>
</g>
<!-- Node1&#45;&gt;Node10 -->
<g id="edge10" class="edge">
<title>Node1&#45;&gt;Node10</title>
<path fill="none" stroke="midnightblue" d="M1477.63,-88.3C1468.98,-88.57 1460.31,-88.82 1452,-89 1326.75,-91.78 1181.4,-92.23 1093.11,-92.19"/>
<polygon fill="midnightblue" stroke="midnightblue" points="1477.88,-91.79 1487.76,-87.96 1477.65,-84.8 1477.88,-91.79"/>
</g>
<!-- Node11 -->
<g id="node11" class="node">
<title>Node11</title>
<g id="a_node11"><a xlink:href="classdenoptim_1_1utils_1_1_stat_utils.html#aac6cf70b1516266ef3e845d5ad4633f5" target="_top" xlink:title="Computes the variance of the available values.">
<polygon fill="white" stroke="black" points="1319,-18.5 1319,-37.5 1452,-37.5 1452,-18.5 1319,-18.5"/>
<text text-anchor="middle" x="1385.5" y="-25.5" font-family="Helvetica,sans-Serif" font-size="10.00">denoptim.utils.StatUtils.var</text>
</a>
</g>
</g>
<!-- Node1&#45;&gt;Node11 -->
<g id="edge12" class="edge">
<title>Node1&#45;&gt;Node11</title>
<path fill="none" stroke="midnightblue" d="M1519.9,-72.21C1488.22,-61.71 1444.07,-47.08 1415.38,-37.57"/>
<polygon fill="midnightblue" stroke="midnightblue" points="1519.12,-75.64 1529.71,-75.46 1521.32,-68.99 1519.12,-75.64"/>
</g>
<!-- Node3 -->
<g id="node3" class="node">
<title>Node3</title>
<g id="a_node3"><a xlink:href="classdenoptim_1_1ga_1_1_e_a_utils.html#ac03e7d805c9afda30244e831da74ae81" target="_top" xlink:title="Write out summary for the current GA population.">
<polygon fill="white" stroke="black" points="544,-77 544,-107 678,-107 678,-77 544,-77"/>
<text text-anchor="start" x="552" y="-95" font-family="Helvetica,sans-Serif" font-size="10.00">denoptim.ga.EAUtils.output</text>
<text text-anchor="middle" x="611" y="-84" font-family="Helvetica,sans-Serif" font-size="10.00">PopulationDetails</text>
</a>
</g>
</g>
<!-- Node2&#45;&gt;Node3 -->
<g id="edge2" class="edge">
<title>Node2&#45;&gt;Node3</title>
<path fill="none" stroke="midnightblue" d="M712.63,-92C701,-92 689.25,-92 678.1,-92"/>
<polygon fill="midnightblue" stroke="midnightblue" points="712.81,-95.5 722.81,-92 712.81,-88.5 712.81,-95.5"/>
</g>
<!-- Node4 -->
<g id="node4" class="node">
<title>Node4</title>
<g id="a_node4"><a xlink:href="classdenoptim_1_1ga_1_1_e_a_utils.html#a01ee989f992e0cff04e3498b63d6c0b0" target="_top" xlink:title="Saves the final results to disk.">
<polygon fill="white" stroke="black" points="362,-77 362,-107 496,-107 496,-77 362,-77"/>
<text text-anchor="start" x="370" y="-95" font-family="Helvetica,sans-Serif" font-size="10.00">denoptim.ga.EAUtils.output</text>
<text text-anchor="middle" x="429" y="-84" font-family="Helvetica,sans-Serif" font-size="10.00">FinalResults</text>
</a>
</g>
</g>
<!-- Node3&#45;&gt;Node4 -->
<g id="edge3" class="edge">
<title>Node3&#45;&gt;Node4</title>
<path fill="none" stroke="midnightblue" d="M533.66,-92C521.24,-92 508.46,-92 496.3,-92"/>
<polygon fill="midnightblue" stroke="midnightblue" points="534,-95.5 544,-92 534,-88.5 534,-95.5"/>
</g>
<!-- Node5 -->
<g id="node5" class="node">
<title>Node5</title>
<g id="a_node5"><a xlink:href="classdenoptim_1_1ga_1_1_evolutionary_algorithm.html#a6bfc2fa59b199da6259b5b6bad3d6de7" target="_top" xlink:title=" ">
<polygon fill="white" stroke="black" points="190,-33 190,-63 314,-63 314,-33 190,-33"/>
<text text-anchor="start" x="198" y="-51" font-family="Helvetica,sans-Serif" font-size="10.00">denoptim.ga.Evolutionary</text>
<text text-anchor="middle" x="252" y="-40" font-family="Helvetica,sans-Serif" font-size="10.00">Algorithm.run</text>
</a>
</g>
</g>
<!-- Node3&#45;&gt;Node5 -->
<g id="edge7" class="edge">
<title>Node3&#45;&gt;Node5</title>
<path fill="none" stroke="midnightblue" d="M543.03,-74.71C531.41,-72.15 519.4,-69.78 508,-68 442.19,-57.74 365.95,-52.64 314.1,-50.17"/>
<polygon fill="midnightblue" stroke="midnightblue" points="542.59,-78.2 553.12,-76.99 544.14,-71.37 542.59,-78.2"/>
</g>
<!-- Node8 -->
<g id="node8" class="node">
<title>Node8</title>
<g id="a_node8"><a xlink:href="classdenoptim_1_1io_1_1_denoptim_i_o_test.html#af5c2f9114881ebde82a83f922c0c23fe" target="_top" xlink:title=" ">
<polygon fill="white" stroke="black" points="350,-126 350,-156 508,-156 508,-126 350,-126"/>
<text text-anchor="start" x="358" y="-144" font-family="Helvetica,sans-Serif" font-size="10.00">denoptim.io.DenoptimIOTest.test</text>
<text text-anchor="middle" x="429" y="-133" font-family="Helvetica,sans-Serif" font-size="10.00">ReadGenerationFromSummary</text>
</a>
</g>
</g>
<!-- Node3&#45;&gt;Node8 -->
<g id="edge8" class="edge">
<title>Node3&#45;&gt;Node8</title>
<path fill="none" stroke="midnightblue" d="M544.8,-109.75C525.29,-115.06 504.1,-120.83 485.29,-125.95"/>
<polygon fill="midnightblue" stroke="midnightblue" points="545.8,-113.11 554.53,-107.1 543.96,-106.35 545.8,-113.11"/>
</g>
<!-- Node4&#45;&gt;Node5 -->
<g id="edge4" class="edge">
<title>Node4&#45;&gt;Node5</title>
<path fill="none" stroke="midnightblue" d="M358.46,-74.51C343.33,-70.71 327.47,-66.72 312.76,-63.03"/>
<polygon fill="midnightblue" stroke="midnightblue" points="357.71,-77.94 368.26,-76.98 359.42,-71.15 357.71,-77.94"/>
</g>
<!-- Node6 -->
<g id="node6" class="node">
<title>Node6</title>
<g id="a_node6"><a xlink:href="classdenoptim_1_1ga_1_1_evolutionary_algorithm.html#a0f2063b722b7291daf83d62acaa683d3" target="_top" xlink:title=" ">
<polygon fill="white" stroke="black" points="0,-58 0,-88 154,-88 154,-58 0,-58"/>
<text text-anchor="start" x="8" y="-76" font-family="Helvetica,sans-Serif" font-size="10.00">denoptim.ga.Evolutionary</text>
<text text-anchor="middle" x="77" y="-65" font-family="Helvetica,sans-Serif" font-size="10.00">Algorithm.EvolutionaryAlgorithm</text>
</a>
</g>
</g>
<!-- Node5&#45;&gt;Node6 -->
<g id="edge5" class="edge">
<title>Node5&#45;&gt;Node6</title>
<path fill="none" stroke="midnightblue" d="M179.44,-58.34C171.09,-59.55 162.54,-60.78 154.12,-62"/>
<polygon fill="midnightblue" stroke="midnightblue" points="180.12,-61.78 189.52,-56.88 179.12,-54.85 180.12,-61.78"/>
</g>
<!-- Node7 -->
<g id="node7" class="node">
<title>Node7</title>
<g id="a_node7"><a xlink:href="classdenoptim_1_1programs_1_1denovo_1_1_g_a_runner.html#a7cafd6d78727b89dce3e2c8d06f0dd7c" target="_top" xlink:title=" ">
<polygon fill="white" stroke="black" points="9.5,-9 9.5,-39 144.5,-39 144.5,-9 9.5,-9"/>
<text text-anchor="start" x="17.5" y="-27" font-family="Helvetica,sans-Serif" font-size="10.00">denoptim.programs.denovo.</text>
<text text-anchor="middle" x="77" y="-16" font-family="Helvetica,sans-Serif" font-size="10.00">GARunner.runProgram</text>
</a>
</g>
</g>
<!-- Node5&#45;&gt;Node7 -->
<g id="edge6" class="edge">
<title>Node5&#45;&gt;Node7</title>
<path fill="none" stroke="midnightblue" d="M179.48,-38.08C167.92,-36.47 156,-34.82 144.57,-33.23"/>
<polygon fill="midnightblue" stroke="midnightblue" points="179.13,-41.56 189.52,-39.47 180.1,-34.63 179.13,-41.56"/>
</g>
<!-- Node10&#45;&gt;Node2 -->
<g id="edge11" class="edge">
<title>Node10&#45;&gt;Node2</title>
<path fill="none" stroke="midnightblue" d="M918.71,-92C907.18,-92 895.45,-92 884.12,-92"/>
<polygon fill="midnightblue" stroke="midnightblue" points="918.78,-95.5 928.78,-92 918.78,-88.5 918.78,-95.5"/>
</g>
<!-- Node11&#45;&gt;Node9 -->
<g id="edge13" class="edge">
<title>Node11&#45;&gt;Node9</title>
<path fill="none" stroke="midnightblue" d="M1329.6,-39.75C1304.5,-45.13 1275.16,-51.41 1251.47,-56.48"/>
<polygon fill="midnightblue" stroke="midnightblue" points="1330.66,-43.1 1339.71,-37.59 1329.2,-36.26 1330.66,-43.1"/>
</g>
<!-- Node12 -->
<g id="node12" class="node">
<title>Node12</title>
<g id="a_node12"><a xlink:href="classdenoptim_1_1utils_1_1_stat_utils.html#a31cf5dc53af191a60dbcdba3b1f9da6b" target="_top" xlink:title="Returns the standard deviation of the numbers.">
<polygon fill="white" stroke="black" points="1131.5,-0.5 1131.5,-19.5 1280.5,-19.5 1280.5,-0.5 1131.5,-0.5"/>
<text text-anchor="middle" x="1206" y="-7.5" font-family="Helvetica,sans-Serif" font-size="10.00">denoptim.utils.StatUtils.stddev</text>
</a>
</g>
</g>
<!-- Node11&#45;&gt;Node12 -->
<g id="edge14" class="edge">
<title>Node11&#45;&gt;Node12</title>
<path fill="none" stroke="midnightblue" d="M1308.88,-20.33C1299.54,-19.38 1290,-18.42 1280.7,-17.47"/>
<polygon fill="midnightblue" stroke="midnightblue" points="1308.61,-23.82 1318.91,-21.35 1309.31,-16.86 1308.61,-23.82"/>
</g>
<!-- Node12&#45;&gt;Node2 -->
<g id="edge17" class="edge">
<title>Node12&#45;&gt;Node2</title>
<path fill="none" stroke="midnightblue" d="M1148.19,-21.63C1077.31,-36.14 955.97,-60.99 878.06,-76.94"/>
<polygon fill="midnightblue" stroke="midnightblue" points="1149.18,-25 1158.27,-19.57 1147.77,-18.14 1149.18,-25"/>
</g>
<!-- Node12&#45;&gt;Node10 -->
<g id="edge18" class="edge">
<title>Node12&#45;&gt;Node10</title>
<path fill="none" stroke="midnightblue" d="M1176.03,-24.02C1161.83,-30.91 1144.5,-39.35 1129,-47 1112.96,-54.92 1109.53,-58.15 1093,-65 1077.25,-71.52 1059.31,-77.63 1044.32,-82.39"/>
<polygon fill="midnightblue" stroke="midnightblue" points="1177.82,-27.04 1185.29,-19.53 1174.76,-20.74 1177.82,-27.04"/>
</g>
<!-- Node12&#45;&gt;Node12 -->
<g id="edge19" class="edge">
<title>Node12&#45;&gt;Node12</title>
<path fill="none" stroke="midnightblue" d="M1239.36,-27.89C1238.87,-33.54 1227.75,-38 1206,-38 1174.36,-38 1165.22,-28.57 1178.57,-19.76"/>
<polygon fill="midnightblue" stroke="midnightblue" points="1242.15,-25.78 1233.43,-19.76 1236.49,-29.9 1242.15,-25.78"/>
</g>
<!-- Node13 -->
<g id="node13" class="node">
<title>Node13</title>
<g id="a_node13"><a xlink:href="classdenoptim_1_1ga_1_1_e_a_utils.html#ad34f42098ef4a513cd3f551024e8498e" target="_top" xlink:title="Check if fitness values have significant standard deviation.">
<polygon fill="white" stroke="black" points="714,-0.5 714,-19.5 893,-19.5 893,-0.5 714,-0.5"/>
<text text-anchor="middle" x="803.5" y="-7.5" font-family="Helvetica,sans-Serif" font-size="10.00">denoptim.ga.EAUtils.getPopulationSD</text>
</a>
</g>
</g>
<!-- Node12&#45;&gt;Node13 -->
<g id="edge15" class="edge">
<title>Node12&#45;&gt;Node13</title>
<path fill="none" stroke="midnightblue" d="M1121,-10C1054.2,-10 960.99,-10 893.02,-10"/>
<polygon fill="midnightblue" stroke="midnightblue" points="1121.08,-13.5 1131.08,-10 1121.08,-6.5 1121.08,-13.5"/>
</g>
<!-- Node13&#45;&gt;Node5 -->
<g id="edge16" class="edge">
<title>Node13&#45;&gt;Node5</title>
<path fill="none" stroke="midnightblue" d="M703.85,-16.82C590.67,-24.65 408.57,-37.24 314.17,-43.77"/>
<polygon fill="midnightblue" stroke="midnightblue" points="704.17,-20.31 713.91,-16.13 703.69,-13.32 704.17,-20.31"/>
</g>
</g>
</svg>
