<?xml version="1.0" encoding="UTF-8" standalone="no"?>
<!DOCTYPE svg PUBLIC "-//W3C//DTD SVG 1.1//EN"
 "http://www.w3.org/Graphics/SVG/1.1/DTD/svg11.dtd">
<!-- Generated by graphviz version 3.0.0 (20221109.1736)
 -->
<!-- Title: denoptim.gui.CompatibilityMatrixForm.CompatibilityRuleLine.renderdAsSelected Pages: 1 -->
<svg width="812pt" height="170pt"
 viewBox="0.00 0.00 812.00 170.00" xmlns="http://www.w3.org/2000/svg" xmlns:xlink="http://www.w3.org/1999/xlink">
<g id="graph0" class="graph" transform="scale(1 1) rotate(0) translate(4 166)">
<title>denoptim.gui.CompatibilityMatrixForm.CompatibilityRuleLine.renderdAsSelected</title>
<polygon fill="white" stroke="transparent" points="-4,4 -4,-166 808,-166 808,4 -4,4"/>
<!-- Node1 -->
<g id="node1" class="node">
<title>Node1</title>
<g id="a_node1"><a xlink:title=" ">
<polygon fill="#bfbfbf" stroke="black" points="608,-60.5 608,-101.5 804,-101.5 804,-60.5 608,-60.5"/>
<text text-anchor="start" x="616" y="-89.5" font-family="Helvetica,sans-Serif" font-size="10.00">denoptim.gui.Compatibility</text>
<text text-anchor="start" x="616" y="-78.5" font-family="Helvetica,sans-Serif" font-size="10.00">MatrixForm.CompatibilityRuleLine.renderd</text>
<text text-anchor="middle" x="706" y="-67.5" font-family="Helvetica,sans-Serif" font-size="10.00">AsSelected</text>
</a>
</g>
</g>
<!-- Node2 -->
<g id="node2" class="node">
<title>Node2</title>
<g id="a_node2"><a xlink:href="classdenoptim_1_1gui_1_1_compatibility_matrix_form_1_1_compatibility_rule_line.html#a5c97cc0088237d83378a28817c203474" target="_top" xlink:title=" ">
<polygon fill="white" stroke="black" points="383,-120.5 383,-161.5 568,-161.5 568,-120.5 383,-120.5"/>
<text text-anchor="start" x="391" y="-149.5" font-family="Helvetica,sans-Serif" font-size="10.00">denoptim.gui.Compatibility</text>
<text text-anchor="start" x="391" y="-138.5" font-family="Helvetica,sans-Serif" font-size="10.00">MatrixForm.CompatibilityRuleLine.clear</text>
<text text-anchor="middle" x="475.5" y="-127.5" font-family="Helvetica,sans-Serif" font-size="10.00">Matches</text>
</a>
</g>
</g>
<!-- Node1&#45;&gt;Node2 -->
<g id="edge1" class="edge">
<title>Node1&#45;&gt;Node2</title>
<path fill="none" stroke="midnightblue" d="M616.75,-104.17C596.31,-109.54 574.69,-115.22 554.71,-120.46"/>
<polygon fill="midnightblue" stroke="midnightblue" points="617.9,-107.49 626.68,-101.56 616.12,-100.72 617.9,-107.49"/>
</g>
<!-- Node3 -->
<g id="node3" class="node">
<title>Node3</title>
<g id="a_node3"><a xlink:href="classdenoptim_1_1gui_1_1_compatibility_matrix_form_1_1_compatibility_rule_line.html#a2383327b63bc77b844846bc002c6acf0" target="_top" xlink:title=" ">
<polygon fill="white" stroke="black" points="379,-60.5 379,-101.5 572,-101.5 572,-60.5 379,-60.5"/>
<text text-anchor="start" x="387" y="-89.5" font-family="Helvetica,sans-Serif" font-size="10.00">denoptim.gui.Compatibility</text>
<text text-anchor="start" x="387" y="-78.5" font-family="Helvetica,sans-Serif" font-size="10.00">MatrixForm.CompatibilityRuleLine.mouse</text>
<text text-anchor="middle" x="475.5" y="-67.5" font-family="Helvetica,sans-Serif" font-size="10.00">Clicked</text>
</a>
</g>
</g>
<!-- Node1&#45;&gt;Node3 -->
<g id="edge2" class="edge">
<title>Node1&#45;&gt;Node3</title>
<path fill="none" stroke="midnightblue" d="M597.5,-81C589.05,-81 580.55,-81 572.19,-81"/>
<polygon fill="midnightblue" stroke="midnightblue" points="597.76,-84.5 607.76,-81 597.76,-77.5 597.76,-84.5"/>
</g>
<!-- Node4 -->
<g id="node4" class="node">
<title>Node4</title>
<g id="a_node4"><a xlink:href="classdenoptim_1_1gui_1_1_compatibility_matrix_form_1_1_compatibility_rule_line.html#afd80538579bb580c1cd94c53598d914a" target="_top" xlink:title="Checks if there is any component matching the regex query and returns the number of matches.">
<polygon fill="white" stroke="black" points="380,-0.5 380,-41.5 571,-41.5 571,-0.5 380,-0.5"/>
<text text-anchor="start" x="388" y="-29.5" font-family="Helvetica,sans-Serif" font-size="10.00">denoptim.gui.Compatibility</text>
<text text-anchor="start" x="388" y="-18.5" font-family="Helvetica,sans-Serif" font-size="10.00">MatrixForm.CompatibilityRuleLine.render</text>
<text text-anchor="middle" x="475.5" y="-7.5" font-family="Helvetica,sans-Serif" font-size="10.00">IfMatches</text>
</a>
</g>
</g>
<!-- Node1&#45;&gt;Node4 -->
<g id="edge3" class="edge">
<title>Node1&#45;&gt;Node4</title>
<path fill="none" stroke="midnightblue" d="M616.75,-57.83C596.31,-52.46 574.69,-46.78 554.71,-41.54"/>
<polygon fill="midnightblue" stroke="midnightblue" points="616.12,-61.28 626.68,-60.44 617.9,-54.51 616.12,-61.28"/>
</g>
<!-- Node5 -->
<g id="node5" class="node">
<title>Node5</title>
<g id="a_node5"><a xlink:href="classdenoptim_1_1gui_1_1_compatibility_matrix_form.html#a20314e7e16476836d69f231db3e534c3" target="_top" xlink:title=" ">
<polygon fill="white" stroke="black" points="208,-6 208,-36 343,-36 343,-6 208,-6"/>
<text text-anchor="start" x="216" y="-24" font-family="Helvetica,sans-Serif" font-size="10.00">denoptim.gui.Compatibility</text>
<text text-anchor="middle" x="275.5" y="-13" font-family="Helvetica,sans-Serif" font-size="10.00">MatrixForm.searchAPClass</text>
</a>
</g>
</g>
<!-- Node4&#45;&gt;Node5 -->
<g id="edge4" class="edge">
<title>Node4&#45;&gt;Node5</title>
<path fill="none" stroke="midnightblue" d="M369.65,-21C360.63,-21 351.67,-21 343.08,-21"/>
<polygon fill="midnightblue" stroke="midnightblue" points="369.85,-24.5 379.85,-21 369.85,-17.5 369.85,-24.5"/>
</g>
<!-- Node6 -->
<g id="node6" class="node">
<title>Node6</title>
<g id="a_node6"><a xlink:href="classdenoptim_1_1gui_1_1_compatibility_matrix_form.html#a755795e8d94da4aa261af2bda7a62d14" target="_top" xlink:title=" ">
<polygon fill="white" stroke="black" points="0,-6 0,-36 172,-36 172,-6 0,-6"/>
<text text-anchor="start" x="8" y="-24" font-family="Helvetica,sans-Serif" font-size="10.00">denoptim.gui.Compatibility</text>
<text text-anchor="middle" x="86" y="-13" font-family="Helvetica,sans-Serif" font-size="10.00">MatrixForm.CompatibilityMatrixForm</text>
</a>
</g>
</g>
<!-- Node5&#45;&gt;Node6 -->
<g id="edge5" class="edge">
<title>Node5&#45;&gt;Node6</title>
<path fill="none" stroke="midnightblue" d="M197.69,-21C189.26,-21 180.64,-21 172.11,-21"/>
<polygon fill="midnightblue" stroke="midnightblue" points="197.87,-24.5 207.87,-21 197.87,-17.5 197.87,-24.5"/>
</g>
</g>
</svg>
