<?xml version="1.0" encoding="UTF-8" standalone="no"?>
<!DOCTYPE svg PUBLIC "-//W3C//DTD SVG 1.1//EN"
 "http://www.w3.org/Graphics/SVG/1.1/DTD/svg11.dtd">
<!-- Generated by graphviz version 3.0.0 (20221109.1736)
 -->
<!-- Title: denoptim.molecularmodeling.ChemicalObjectModelTest.testUpdateXYZFromINT_ThirdAtomWithAngle Pages: 1 -->
<svg width="1061pt" height="493pt"
 viewBox="0.00 0.00 1061.00 493.00" xmlns="http://www.w3.org/2000/svg" xmlns:xlink="http://www.w3.org/1999/xlink">
<g id="graph0" class="graph" transform="scale(1 1) rotate(0) translate(4 489)">
<title>denoptim.molecularmodeling.ChemicalObjectModelTest.testUpdateXYZFromINT_ThirdAtomWithAngle</title>
<polygon fill="white" stroke="transparent" points="-4,4 -4,-489 1057,-489 1057,4 -4,4"/>
<!-- Node1 -->
<g id="node1" class="node">
<title>Node1</title>
<g id="a_node1"><a xlink:title=" ">
<polygon fill="#bfbfbf" stroke="black" points="0,-229 0,-270 182,-270 182,-229 0,-229"/>
<text text-anchor="start" x="8" y="-258" font-family="Helvetica,sans-Serif" font-size="10.00">denoptim.molecularmodeling.</text>
<text text-anchor="start" x="8" y="-247" font-family="Helvetica,sans-Serif" font-size="10.00">ChemicalObjectModelTest.testUpdate</text>
<text text-anchor="middle" x="91" y="-236" font-family="Helvetica,sans-Serif" font-size="10.00">XYZFromINT_ThirdAtomWithAngle</text>
</a>
</g>
</g>
<!-- Node2 -->
<g id="node2" class="node">
<title>Node2</title>
<g id="a_node2"><a xlink:href="classdenoptim_1_1molecularmodeling_1_1zmatrix_1_1_z_matrix.html#ae9486d28880e0c8225c0092acab98165" target="_top" xlink:title="Add an atom to the ZMatrix.">
<polygon fill="white" stroke="black" points="231.5,-259.5 231.5,-289.5 406.5,-289.5 406.5,-259.5 231.5,-259.5"/>
<text text-anchor="start" x="239.5" y="-277.5" font-family="Helvetica,sans-Serif" font-size="10.00">denoptim.molecularmodeling.zmatrix.</text>
<text text-anchor="middle" x="319" y="-266.5" font-family="Helvetica,sans-Serif" font-size="10.00">ZMatrix.addAtom</text>
</a>
</g>
</g>
<!-- Node1&#45;&gt;Node2 -->
<g id="edge1" class="edge">
<title>Node1&#45;&gt;Node2</title>
<path fill="none" stroke="midnightblue" d="M182.3,-259.49C195,-260.89 208.11,-262.34 220.94,-263.76"/>
<polygon fill="midnightblue" stroke="midnightblue" points="220.83,-267.27 231.16,-264.89 221.6,-260.32 220.83,-267.27"/>
</g>
<!-- Node3 -->
<g id="node3" class="node">
<title>Node3</title>
<g id="a_node3"><a xlink:href="classdenoptim_1_1molecularmodeling_1_1_chemical_object_model.html#ab0a2952925cf318fa872e349dd2709ae" target="_top" xlink:title="Converts currently loaded internal coordinates into Cartesian overwriting the current XYZ.">
<polygon fill="white" stroke="black" points="218,-210.5 218,-240.5 420,-240.5 420,-210.5 218,-210.5"/>
<text text-anchor="start" x="226" y="-228.5" font-family="Helvetica,sans-Serif" font-size="10.00">denoptim.molecularmodeling.</text>
<text text-anchor="middle" x="319" y="-217.5" font-family="Helvetica,sans-Serif" font-size="10.00">ChemicalObjectModel.updateXYZFromINT</text>
</a>
</g>
</g>
<!-- Node1&#45;&gt;Node3 -->
<g id="edge2" class="edge">
<title>Node1&#45;&gt;Node3</title>
<path fill="none" stroke="midnightblue" d="M182.3,-239.91C190.69,-239.02 199.26,-238.11 207.81,-237.2"/>
<polygon fill="midnightblue" stroke="midnightblue" points="208.25,-240.67 217.82,-236.14 207.51,-233.71 208.25,-240.67"/>
</g>
<!-- Node4 -->
<g id="node4" class="node">
<title>Node4</title>
<g id="a_node4"><a xlink:href="classdenoptim_1_1utils_1_1_math_utils.html#ad3885756312f8e602cc604f1b0ce62d9" target="_top" xlink:title="Calculates distance between point a and point b.">
<polygon fill="white" stroke="black" points="463.5,-448 463.5,-467 623.5,-467 623.5,-448 463.5,-448"/>
<text text-anchor="middle" x="543.5" y="-455" font-family="Helvetica,sans-Serif" font-size="10.00">denoptim.utils.MathUtils.distance</text>
</a>
</g>
</g>
<!-- Node3&#45;&gt;Node4 -->
<g id="edge3" class="edge">
<title>Node3&#45;&gt;Node4</title>
<path fill="none" stroke="midnightblue" d="M408.03,-240.72C412.39,-243.49 416.43,-246.73 420,-250.5 478.46,-312.31 396.66,-377.54 456,-438.5 457.25,-439.79 458.57,-441 459.95,-442.13"/>
<polygon fill="midnightblue" stroke="midnightblue" points="458.16,-445.15 468.4,-447.87 462.09,-439.36 458.16,-445.15"/>
</g>
<!-- Node5 -->
<g id="node5" class="node">
<title>Node5</title>
<g id="a_node5"><a xlink:href="classdenoptim_1_1molecularmodeling_1_1zmatrix_1_1_z_matrix.html#aea505fe31cc2172059db84c9364c6ffb" target="_top" xlink:title="Get the index of the second angle reference atom for the atom at the given index.">
<polygon fill="white" stroke="black" points="456,-398.5 456,-428.5 631,-428.5 631,-398.5 456,-398.5"/>
<text text-anchor="start" x="464" y="-416.5" font-family="Helvetica,sans-Serif" font-size="10.00">denoptim.molecularmodeling.zmatrix.</text>
<text text-anchor="middle" x="543.5" y="-405.5" font-family="Helvetica,sans-Serif" font-size="10.00">ZMatrix.getAngle2RefAtomIndex</text>
</a>
</g>
</g>
<!-- Node3&#45;&gt;Node5 -->
<g id="edge4" class="edge">
<title>Node3&#45;&gt;Node5</title>
<path fill="none" stroke="midnightblue" d="M407.29,-240.71C411.9,-243.48 416.19,-246.72 420,-250.5 465.31,-295.43 411.27,-343.99 456,-389.5 456.95,-390.47 457.94,-391.4 458.96,-392.29"/>
<polygon fill="midnightblue" stroke="midnightblue" points="457.22,-395.36 467.35,-398.46 461.36,-389.71 457.22,-395.36"/>
</g>
<!-- Node9 -->
<g id="node9" class="node">
<title>Node9</title>
<g id="a_node9"><a xlink:href="classdenoptim_1_1molecularmodeling_1_1zmatrix_1_1_z_matrix.html#ab68f5e7ba31b07caeedf4580e04a8399" target="_top" xlink:title="Get the angle2 angle for the atom at the given index.">
<polygon fill="white" stroke="black" points="456,-235.5 456,-265.5 631,-265.5 631,-235.5 456,-235.5"/>
<text text-anchor="start" x="464" y="-253.5" font-family="Helvetica,sans-Serif" font-size="10.00">denoptim.molecularmodeling.zmatrix.</text>
<text text-anchor="middle" x="543.5" y="-242.5" font-family="Helvetica,sans-Serif" font-size="10.00">ZMatrix.getAngle2Value</text>
</a>
</g>
</g>
<!-- Node3&#45;&gt;Node9 -->
<g id="edge8" class="edge">
<title>Node3&#45;&gt;Node9</title>
<path fill="none" stroke="midnightblue" d="M420.18,-236.76C428.63,-237.71 437.16,-238.66 445.58,-239.61"/>
<polygon fill="midnightblue" stroke="midnightblue" points="445.46,-243.12 455.79,-240.76 446.24,-236.16 445.46,-243.12"/>
</g>
<!-- Node11 -->
<g id="node11" class="node">
<title>Node11</title>
<g id="a_node11"><a xlink:href="classdenoptim_1_1molecularmodeling_1_1zmatrix_1_1_z_matrix.html#afdcc04b2f8a9fe8f0eeabe867b6ff9e2" target="_top" xlink:title="Get the index of the angle reference atom for the atom at the given index.">
<polygon fill="white" stroke="black" points="456,-349.5 456,-379.5 631,-379.5 631,-349.5 456,-349.5"/>
<text text-anchor="start" x="464" y="-367.5" font-family="Helvetica,sans-Serif" font-size="10.00">denoptim.molecularmodeling.zmatrix.</text>
<text text-anchor="middle" x="543.5" y="-356.5" font-family="Helvetica,sans-Serif" font-size="10.00">ZMatrix.getAngleRefAtomIndex</text>
</a>
</g>
</g>
<!-- Node3&#45;&gt;Node11 -->
<g id="edge11" class="edge">
<title>Node3&#45;&gt;Node11</title>
<path fill="none" stroke="midnightblue" d="M405.32,-240.52C410.59,-243.32 415.55,-246.62 420,-250.5 452.46,-278.83 423.91,-311.76 456,-340.5 457.32,-341.68 458.69,-342.8 460.1,-343.87"/>
<polygon fill="midnightblue" stroke="midnightblue" points="458.36,-346.91 468.66,-349.41 462.17,-341.04 458.36,-346.91"/>
</g>
<!-- Node14 -->
<g id="node14" class="node">
<title>Node14</title>
<g id="a_node14"><a xlink:href="classdenoptim_1_1molecularmodeling_1_1zmatrix_1_1_z_matrix.html#ac1ebb8cacda21f0b81cea28bd50c4e25" target="_top" xlink:title="Get the bond angle for the atom at the given index.">
<polygon fill="white" stroke="black" points="456,-186.5 456,-216.5 631,-216.5 631,-186.5 456,-186.5"/>
<text text-anchor="start" x="464" y="-204.5" font-family="Helvetica,sans-Serif" font-size="10.00">denoptim.molecularmodeling.zmatrix.</text>
<text text-anchor="middle" x="543.5" y="-193.5" font-family="Helvetica,sans-Serif" font-size="10.00">ZMatrix.getAngleValue</text>
</a>
</g>
</g>
<!-- Node3&#45;&gt;Node14 -->
<g id="edge15" class="edge">
<title>Node3&#45;&gt;Node14</title>
<path fill="none" stroke="midnightblue" d="M420.18,-214.69C428.63,-213.78 437.16,-212.86 445.58,-211.95"/>
<polygon fill="midnightblue" stroke="midnightblue" points="446.22,-215.41 455.79,-210.85 445.47,-208.45 446.22,-215.41"/>
</g>
<!-- Node16 -->
<g id="node16" class="node">
<title>Node16</title>
<g id="a_node16"><a xlink:href="classdenoptim_1_1molecularmodeling_1_1zmatrix_1_1_z_matrix.html#a4dd58fb3b495df961db1336b3bd985ed" target="_top" xlink:title="Get the bond length for the atom at the given index.">
<polygon fill="white" stroke="black" points="456,-300.5 456,-330.5 631,-330.5 631,-300.5 456,-300.5"/>
<text text-anchor="start" x="464" y="-318.5" font-family="Helvetica,sans-Serif" font-size="10.00">denoptim.molecularmodeling.zmatrix.</text>
<text text-anchor="middle" x="543.5" y="-307.5" font-family="Helvetica,sans-Serif" font-size="10.00">ZMatrix.getBondLength</text>
</a>
</g>
</g>
<!-- Node3&#45;&gt;Node16 -->
<g id="edge18" class="edge">
<title>Node3&#45;&gt;Node16</title>
<path fill="none" stroke="midnightblue" d="M393.42,-240.58C402.54,-243.4 411.61,-246.69 420,-250.5 437.74,-258.55 439.1,-265.82 456,-275.5 468.82,-282.84 483.23,-289.93 496.55,-296.05"/>
<polygon fill="midnightblue" stroke="midnightblue" points="495.47,-299.4 506.02,-300.32 498.35,-293.02 495.47,-299.4"/>
</g>
<!-- Node18 -->
<g id="node18" class="node">
<title>Node18</title>
<g id="a_node18"><a xlink:href="classdenoptim_1_1molecularmodeling_1_1zmatrix_1_1_z_matrix.html#a4c06388161962480e83acac036d6aa68" target="_top" xlink:title="Get the index of the bond reference atom for the atom at the given index.">
<polygon fill="white" stroke="black" points="456,-88.5 456,-118.5 631,-118.5 631,-88.5 456,-88.5"/>
<text text-anchor="start" x="464" y="-106.5" font-family="Helvetica,sans-Serif" font-size="10.00">denoptim.molecularmodeling.zmatrix.</text>
<text text-anchor="middle" x="543.5" y="-95.5" font-family="Helvetica,sans-Serif" font-size="10.00">ZMatrix.getBondRefAtomIndex</text>
</a>
</g>
</g>
<!-- Node3&#45;&gt;Node18 -->
<g id="edge21" class="edge">
<title>Node3&#45;&gt;Node18</title>
<path fill="none" stroke="midnightblue" d="M337.24,-210.23C361.93,-189.09 409.53,-150.97 456,-128.5 460.84,-126.16 465.94,-124 471.14,-122.01"/>
<polygon fill="midnightblue" stroke="midnightblue" points="472.35,-125.29 480.58,-118.61 469.98,-118.7 472.35,-125.29"/>
</g>
<!-- Node21 -->
<g id="node21" class="node">
<title>Node21</title>
<g id="a_node21"><a xlink:href="classdenoptim_1_1molecularmodeling_1_1zmatrix_1_1_z_matrix.html#a2b48b01815de175fe998f9f28ff22ea7" target="_top" xlink:title="Get the chiral flag for the atom at the given index.">
<polygon fill="white" stroke="black" points="456,-137.5 456,-167.5 631,-167.5 631,-137.5 456,-137.5"/>
<text text-anchor="start" x="464" y="-155.5" font-family="Helvetica,sans-Serif" font-size="10.00">denoptim.molecularmodeling.zmatrix.</text>
<text text-anchor="middle" x="543.5" y="-144.5" font-family="Helvetica,sans-Serif" font-size="10.00">ZMatrix.getChiralFlag</text>
</a>
</g>
</g>
<!-- Node3&#45;&gt;Node21 -->
<g id="edge25" class="edge">
<title>Node3&#45;&gt;Node21</title>
<path fill="none" stroke="midnightblue" d="M360.56,-210.49C387.49,-200.7 423.69,-187.86 456,-177.5 463.33,-175.15 471.03,-172.78 478.7,-170.48"/>
<polygon fill="midnightblue" stroke="midnightblue" points="479.77,-173.82 488.37,-167.62 477.78,-167.11 479.77,-173.82"/>
</g>
<!-- Node23 -->
<g id="node23" class="node">
<title>Node23</title>
<g id="a_node23"><a xlink:href="classdenoptim_1_1utils_1_1_math_utils.html#a13781fc52b86d8f40dbdedba314ef9a4" target="_top" xlink:title="Get normalized distance between two point.">
<polygon fill="white" stroke="black" points="462.5,-50 462.5,-69 624.5,-69 624.5,-50 462.5,-50"/>
<text text-anchor="middle" x="543.5" y="-57" font-family="Helvetica,sans-Serif" font-size="10.00">denoptim.utils.MathUtils.normDist</text>
</a>
</g>
</g>
<!-- Node3&#45;&gt;Node23 -->
<g id="edge28" class="edge">
<title>Node3&#45;&gt;Node23</title>
<path fill="none" stroke="midnightblue" d="M329.52,-210.34C349.22,-180.32 397.52,-113.3 456,-79.5 460.67,-76.8 465.68,-74.47 470.85,-72.45"/>
<polygon fill="midnightblue" stroke="midnightblue" points="472.01,-75.75 480.29,-69.14 469.7,-69.14 472.01,-75.75"/>
</g>
<!-- Node24 -->
<g id="node24" class="node">
<title>Node24</title>
<g id="a_node24"><a xlink:href="classdenoptim_1_1molecularmodeling_1_1_chemical_object_model.html#a9e82a95a0540fa9e966cf31956fc595f" target="_top" xlink:title="currently loaded internal coordinates into Cartesian overwriting the current XYZ.">
<polygon fill="white" stroke="black" points="462,-0.5 462,-30.5 625,-30.5 625,-0.5 462,-0.5"/>
<text text-anchor="start" x="470" y="-18.5" font-family="Helvetica,sans-Serif" font-size="10.00">denoptim.molecularmodeling.</text>
<text text-anchor="middle" x="543.5" y="-7.5" font-family="Helvetica,sans-Serif" font-size="10.00">ChemicalObjectModel.updateXYZ</text>
</a>
</g>
</g>
<!-- Node3&#45;&gt;Node24 -->
<g id="edge29" class="edge">
<title>Node3&#45;&gt;Node24</title>
<path fill="none" stroke="midnightblue" d="M326.79,-210.43C343.46,-175.12 389.96,-86.57 456,-40.5 458.84,-38.52 461.84,-36.69 464.95,-35.01"/>
<polygon fill="midnightblue" stroke="midnightblue" points="466.49,-38.15 473.95,-30.63 463.43,-31.86 466.49,-38.15"/>
</g>
<!-- Node6 -->
<g id="node6" class="node">
<title>Node6</title>
<g id="a_node6"><a xlink:href="classdenoptim_1_1molecularmodeling_1_1zmatrix_1_1_z_matrix.html#ab31cefb4e51b6c2b4d0ab744584fa3e5" target="_top" xlink:title="Get the second angle reference atom for the atom at the given index.">
<polygon fill="white" stroke="black" points="667,-454.5 667,-484.5 842,-484.5 842,-454.5 667,-454.5"/>
<text text-anchor="start" x="675" y="-472.5" font-family="Helvetica,sans-Serif" font-size="10.00">denoptim.molecularmodeling.zmatrix.</text>
<text text-anchor="middle" x="754.5" y="-461.5" font-family="Helvetica,sans-Serif" font-size="10.00">ZMatrix.getAngle2RefAtom</text>
</a>
</g>
</g>
<!-- Node5&#45;&gt;Node6 -->
<g id="edge5" class="edge">
<title>Node5&#45;&gt;Node6</title>
<path fill="none" stroke="midnightblue" d="M600.51,-428.51C627.33,-435.69 659.63,-444.35 687.63,-451.85"/>
<polygon fill="midnightblue" stroke="midnightblue" points="686.77,-455.24 697.34,-454.45 688.58,-448.48 686.77,-455.24"/>
</g>
<!-- Node7 -->
<g id="node7" class="node">
<title>Node7</title>
<g id="a_node7"><a xlink:href="classdenoptim_1_1molecularmodeling_1_1zmatrix_1_1_z_matrix_atom.html#a76a9f2f7c1ef80f1c891ce0568158815" target="_top" xlink:title="Get the angle2 reference atom.">
<polygon fill="white" stroke="black" points="878,-454.5 878,-484.5 1053,-484.5 1053,-454.5 878,-454.5"/>
<text text-anchor="start" x="886" y="-472.5" font-family="Helvetica,sans-Serif" font-size="10.00">denoptim.molecularmodeling.zmatrix.</text>
<text text-anchor="middle" x="965.5" y="-461.5" font-family="Helvetica,sans-Serif" font-size="10.00">ZMatrixAtom.getAngle2RefAtom</text>
</a>
</g>
</g>
<!-- Node6&#45;&gt;Node7 -->
<g id="edge6" class="edge">
<title>Node6&#45;&gt;Node7</title>
<path fill="none" stroke="midnightblue" d="M842.02,-469.5C850.49,-469.5 859.13,-469.5 867.7,-469.5"/>
<polygon fill="midnightblue" stroke="midnightblue" points="867.71,-473 877.71,-469.5 867.71,-466 867.71,-473"/>
</g>
<!-- Node8 -->
<g id="node8" class="node">
<title>Node8</title>
<g id="a_node8"><a xlink:href="classdenoptim_1_1molecularmodeling_1_1zmatrix_1_1_z_matrix.html#ad0f695527ee91cd88d95d381e55f73cc" target="_top" xlink:title="Get the atom at the given index.">
<polygon fill="white" stroke="black" points="878,-224.5 878,-254.5 1053,-254.5 1053,-224.5 878,-224.5"/>
<text text-anchor="start" x="886" y="-242.5" font-family="Helvetica,sans-Serif" font-size="10.00">denoptim.molecularmodeling.zmatrix.</text>
<text text-anchor="middle" x="965.5" y="-231.5" font-family="Helvetica,sans-Serif" font-size="10.00">ZMatrix.getAtom</text>
</a>
</g>
</g>
<!-- Node6&#45;&gt;Node8 -->
<g id="edge7" class="edge">
<title>Node6&#45;&gt;Node8</title>
<path fill="none" stroke="midnightblue" d="M827.47,-454.34C832.63,-451.83 837.54,-448.91 842,-445.5 858.46,-432.92 923.42,-315.3 951.48,-263.64"/>
<polygon fill="midnightblue" stroke="midnightblue" points="954.58,-265.26 956.27,-254.8 948.43,-261.92 954.58,-265.26"/>
</g>
<!-- Node9&#45;&gt;Node8 -->
<g id="edge10" class="edge">
<title>Node9&#45;&gt;Node8</title>
<path fill="none" stroke="midnightblue" d="M631.02,-248.23C699.79,-246.43 795.98,-243.91 867.39,-242.04"/>
<polygon fill="midnightblue" stroke="midnightblue" points="867.83,-245.53 877.74,-241.77 867.65,-238.54 867.83,-245.53"/>
</g>
<!-- Node10 -->
<g id="node10" class="node">
<title>Node10</title>
<g id="a_node10"><a xlink:href="classdenoptim_1_1molecularmodeling_1_1zmatrix_1_1_z_matrix_atom.html#a0dceefc682db1e438739612d8cfee5bf" target="_top" xlink:title="Get the angle2 value.">
<polygon fill="white" stroke="black" points="667,-268.5 667,-298.5 842,-298.5 842,-268.5 667,-268.5"/>
<text text-anchor="start" x="675" y="-286.5" font-family="Helvetica,sans-Serif" font-size="10.00">denoptim.molecularmodeling.zmatrix.</text>
<text text-anchor="middle" x="754.5" y="-275.5" font-family="Helvetica,sans-Serif" font-size="10.00">ZMatrixAtom.getAngle2Value</text>
</a>
</g>
</g>
<!-- Node9&#45;&gt;Node10 -->
<g id="edge9" class="edge">
<title>Node9&#45;&gt;Node10</title>
<path fill="none" stroke="midnightblue" d="M631.02,-264.16C639.49,-265.5 648.13,-266.86 656.7,-268.22"/>
<polygon fill="midnightblue" stroke="midnightblue" points="656.29,-271.69 666.71,-269.8 657.38,-264.78 656.29,-271.69"/>
</g>
<!-- Node12 -->
<g id="node12" class="node">
<title>Node12</title>
<g id="a_node12"><a xlink:href="classdenoptim_1_1molecularmodeling_1_1zmatrix_1_1_z_matrix.html#a4ac6b31dc0dbed6e2b53bb659f7d60d5" target="_top" xlink:title="Get the angle reference atom for the atom at the given index.">
<polygon fill="white" stroke="black" points="667,-405.5 667,-435.5 842,-435.5 842,-405.5 667,-405.5"/>
<text text-anchor="start" x="675" y="-423.5" font-family="Helvetica,sans-Serif" font-size="10.00">denoptim.molecularmodeling.zmatrix.</text>
<text text-anchor="middle" x="754.5" y="-412.5" font-family="Helvetica,sans-Serif" font-size="10.00">ZMatrix.getAngleRefAtom</text>
</a>
</g>
</g>
<!-- Node11&#45;&gt;Node12 -->
<g id="edge12" class="edge">
<title>Node11&#45;&gt;Node12</title>
<path fill="none" stroke="midnightblue" d="M600.51,-379.51C627.33,-386.69 659.63,-395.35 687.63,-402.85"/>
<polygon fill="midnightblue" stroke="midnightblue" points="686.77,-406.24 697.34,-405.45 688.58,-399.48 686.77,-406.24"/>
</g>
<!-- Node12&#45;&gt;Node8 -->
<g id="edge14" class="edge">
<title>Node12&#45;&gt;Node8</title>
<path fill="none" stroke="midnightblue" d="M813.52,-405.41C823.5,-401.43 833.41,-396.52 842,-390.5 891.05,-356.1 930.97,-296.82 950.84,-263.69"/>
<polygon fill="midnightblue" stroke="midnightblue" points="954.08,-265.09 956.13,-254.7 948.04,-261.54 954.08,-265.09"/>
</g>
<!-- Node13 -->
<g id="node13" class="node">
<title>Node13</title>
<g id="a_node13"><a xlink:href="classdenoptim_1_1molecularmodeling_1_1zmatrix_1_1_z_matrix_atom.html#af58205f6fbb21f9df38755ee8cd17e89" target="_top" xlink:title="Get the angle reference atom.">
<polygon fill="white" stroke="black" points="878,-405.5 878,-435.5 1053,-435.5 1053,-405.5 878,-405.5"/>
<text text-anchor="start" x="886" y="-423.5" font-family="Helvetica,sans-Serif" font-size="10.00">denoptim.molecularmodeling.zmatrix.</text>
<text text-anchor="middle" x="965.5" y="-412.5" font-family="Helvetica,sans-Serif" font-size="10.00">ZMatrixAtom.getAngleRefAtom</text>
</a>
</g>
</g>
<!-- Node12&#45;&gt;Node13 -->
<g id="edge13" class="edge">
<title>Node12&#45;&gt;Node13</title>
<path fill="none" stroke="midnightblue" d="M842.02,-420.5C850.49,-420.5 859.13,-420.5 867.7,-420.5"/>
<polygon fill="midnightblue" stroke="midnightblue" points="867.71,-424 877.71,-420.5 867.71,-417 867.71,-424"/>
</g>
<!-- Node14&#45;&gt;Node8 -->
<g id="edge17" class="edge">
<title>Node14&#45;&gt;Node8</title>
<path fill="none" stroke="midnightblue" d="M631.02,-209.33C699.79,-215.55 795.98,-224.25 867.39,-230.71"/>
<polygon fill="midnightblue" stroke="midnightblue" points="867.46,-234.23 877.74,-231.65 868.09,-227.26 867.46,-234.23"/>
</g>
<!-- Node15 -->
<g id="node15" class="node">
<title>Node15</title>
<g id="a_node15"><a xlink:href="classdenoptim_1_1molecularmodeling_1_1zmatrix_1_1_z_matrix_atom.html#aeeeeea7db26d4cba98c38cf795f3a27d" target="_top" xlink:title="Get the angle value.">
<polygon fill="white" stroke="black" points="667,-142.5 667,-172.5 842,-172.5 842,-142.5 667,-142.5"/>
<text text-anchor="start" x="675" y="-160.5" font-family="Helvetica,sans-Serif" font-size="10.00">denoptim.molecularmodeling.zmatrix.</text>
<text text-anchor="middle" x="754.5" y="-149.5" font-family="Helvetica,sans-Serif" font-size="10.00">ZMatrixAtom.getAngleValue</text>
</a>
</g>
</g>
<!-- Node14&#45;&gt;Node15 -->
<g id="edge16" class="edge">
<title>Node14&#45;&gt;Node15</title>
<path fill="none" stroke="midnightblue" d="M615.84,-186.48C633.98,-182.66 653.62,-178.53 672.21,-174.61"/>
<polygon fill="midnightblue" stroke="midnightblue" points="673.06,-178.01 682.13,-172.53 671.62,-171.16 673.06,-178.01"/>
</g>
<!-- Node16&#45;&gt;Node8 -->
<g id="edge19" class="edge">
<title>Node16&#45;&gt;Node8</title>
<path fill="none" stroke="midnightblue" d="M601.69,-330.63C611.56,-333.63 621.64,-336.96 631,-340.5 647.55,-346.75 649.73,-353.63 667,-357.5 742.89,-374.52 769.87,-386.59 842,-357.5 889.16,-338.48 928.3,-291.66 948.87,-263.05"/>
<polygon fill="midnightblue" stroke="midnightblue" points="951.78,-265 954.65,-254.8 946.04,-260.98 951.78,-265"/>
</g>
<!-- Node17 -->
<g id="node17" class="node">
<title>Node17</title>
<g id="a_node17"><a xlink:href="classdenoptim_1_1molecularmodeling_1_1zmatrix_1_1_z_matrix_atom.html#adb3fd148dc6b5d1a27ae9447fd818e95" target="_top" xlink:title="Get the bond length.">
<polygon fill="white" stroke="black" points="667,-317.5 667,-347.5 842,-347.5 842,-317.5 667,-317.5"/>
<text text-anchor="start" x="675" y="-335.5" font-family="Helvetica,sans-Serif" font-size="10.00">denoptim.molecularmodeling.zmatrix.</text>
<text text-anchor="middle" x="754.5" y="-324.5" font-family="Helvetica,sans-Serif" font-size="10.00">ZMatrixAtom.getBondLength</text>
</a>
</g>
</g>
<!-- Node16&#45;&gt;Node17 -->
<g id="edge20" class="edge">
<title>Node16&#45;&gt;Node17</title>
<path fill="none" stroke="midnightblue" d="M631.02,-322.54C639.49,-323.23 648.13,-323.93 656.7,-324.63"/>
<polygon fill="midnightblue" stroke="midnightblue" points="656.46,-328.12 666.71,-325.44 657.03,-321.14 656.46,-328.12"/>
</g>
<!-- Node19 -->
<g id="node19" class="node">
<title>Node19</title>
<g id="a_node19"><a xlink:href="classdenoptim_1_1molecularmodeling_1_1zmatrix_1_1_z_matrix.html#a97816fa27c0cc136b67f1dd92f8e3c31" target="_top" xlink:title="Get the bond reference atom for the atom at the given index.">
<polygon fill="white" stroke="black" points="667,-5.5 667,-35.5 842,-35.5 842,-5.5 667,-5.5"/>
<text text-anchor="start" x="675" y="-23.5" font-family="Helvetica,sans-Serif" font-size="10.00">denoptim.molecularmodeling.zmatrix.</text>
<text text-anchor="middle" x="754.5" y="-12.5" font-family="Helvetica,sans-Serif" font-size="10.00">ZMatrix.getBondRefAtom</text>
</a>
</g>
</g>
<!-- Node18&#45;&gt;Node19 -->
<g id="edge22" class="edge">
<title>Node18&#45;&gt;Node19</title>
<path fill="none" stroke="midnightblue" d="M609.66,-88.35C617.08,-85.56 624.35,-82.3 631,-78.5 650.11,-67.58 647.83,-55.32 667,-44.5 670.24,-42.67 673.64,-40.97 677.12,-39.4"/>
<polygon fill="midnightblue" stroke="midnightblue" points="678.62,-42.56 686.53,-35.51 675.95,-36.1 678.62,-42.56"/>
</g>
<!-- Node19&#45;&gt;Node8 -->
<g id="edge23" class="edge">
<title>Node19&#45;&gt;Node8</title>
<path fill="none" stroke="midnightblue" d="M826.95,-35.58C832.28,-38.1 837.38,-41.06 842,-44.5 902.15,-89.31 939.93,-173.16 955.82,-214.77"/>
<polygon fill="midnightblue" stroke="midnightblue" points="952.63,-216.24 959.39,-224.39 959.19,-213.8 952.63,-216.24"/>
</g>
<!-- Node20 -->
<g id="node20" class="node">
<title>Node20</title>
<g id="a_node20"><a xlink:href="classdenoptim_1_1molecularmodeling_1_1zmatrix_1_1_z_matrix_atom.html#a70fef3e9cafe930bc1fa43a5e8729fcd" target="_top" xlink:title="Get the bond reference atom.">
<polygon fill="white" stroke="black" points="878,-5.5 878,-35.5 1053,-35.5 1053,-5.5 878,-5.5"/>
<text text-anchor="start" x="886" y="-23.5" font-family="Helvetica,sans-Serif" font-size="10.00">denoptim.molecularmodeling.zmatrix.</text>
<text text-anchor="middle" x="965.5" y="-12.5" font-family="Helvetica,sans-Serif" font-size="10.00">ZMatrixAtom.getBondRefAtom</text>
</a>
</g>
</g>
<!-- Node19&#45;&gt;Node20 -->
<g id="edge24" class="edge">
<title>Node19&#45;&gt;Node20</title>
<path fill="none" stroke="midnightblue" d="M842.02,-20.5C850.49,-20.5 859.13,-20.5 867.7,-20.5"/>
<polygon fill="midnightblue" stroke="midnightblue" points="867.71,-24 877.71,-20.5 867.71,-17 867.71,-24"/>
</g>
<!-- Node21&#45;&gt;Node8 -->
<g id="edge26" class="edge">
<title>Node21&#45;&gt;Node8</title>
<path fill="none" stroke="midnightblue" d="M593.42,-137.46C653.88,-121.51 758.95,-102.56 842,-133.5 886.23,-149.98 925.12,-190.41 946.66,-216.31"/>
<polygon fill="midnightblue" stroke="midnightblue" points="944.01,-218.6 953.03,-224.15 949.44,-214.18 944.01,-218.6"/>
</g>
<!-- Node22 -->
<g id="node22" class="node">
<title>Node22</title>
<g id="a_node22"><a xlink:href="classdenoptim_1_1molecularmodeling_1_1zmatrix_1_1_z_matrix_atom.html#a348f17c35781a2d5a15bd53022b5af24" target="_top" xlink:title="Get the chiral flag.">
<polygon fill="white" stroke="black" points="667,-54.5 667,-84.5 842,-84.5 842,-54.5 667,-54.5"/>
<text text-anchor="start" x="675" y="-72.5" font-family="Helvetica,sans-Serif" font-size="10.00">denoptim.molecularmodeling.zmatrix.</text>
<text text-anchor="middle" x="754.5" y="-61.5" font-family="Helvetica,sans-Serif" font-size="10.00">ZMatrixAtom.getChiralFlag</text>
</a>
</g>
</g>
<!-- Node21&#45;&gt;Node22 -->
<g id="edge27" class="edge">
<title>Node21&#45;&gt;Node22</title>
<path fill="none" stroke="midnightblue" d="M609.84,-137.48C617.15,-134.9 624.35,-131.92 631,-128.5 649.28,-119.11 649.03,-109.46 667,-99.5 674.58,-95.3 682.85,-91.53 691.17,-88.2"/>
<polygon fill="midnightblue" stroke="midnightblue" points="692.46,-91.45 700.56,-84.62 689.97,-84.91 692.46,-91.45"/>
</g>
</g>
</svg>
