<?xml version="1.0" encoding="UTF-8" standalone="no"?>
<!DOCTYPE svg PUBLIC "-//W3C//DTD SVG 1.1//EN"
 "http://www.w3.org/Graphics/SVG/1.1/DTD/svg11.dtd">
<!-- Generated by graphviz version 3.0.0 (20221109.1736)
 -->
<!-- Title: denoptim.fragspace.FragmentSpace.groupAndClassifyFragments Pages: 1 -->
<svg width="730pt" height="421pt"
 viewBox="0.00 0.00 730.00 421.00" xmlns="http://www.w3.org/2000/svg" xmlns:xlink="http://www.w3.org/1999/xlink">
<g id="graph0" class="graph" transform="scale(1 1) rotate(0) translate(4 417)">
<title>denoptim.fragspace.FragmentSpace.groupAndClassifyFragments</title>
<polygon fill="white" stroke="transparent" points="-4,4 -4,-417 726,-417 726,4 -4,4"/>
<!-- Node1 -->
<g id="node1" class="node">
<title>Node1</title>
<g id="a_node1"><a xlink:title="Performs grouping and classification operations on the library of building blocks of BBType#FRAGMENT.">
<polygon fill="#bfbfbf" stroke="black" points="0,-147.5 0,-177.5 169,-177.5 169,-147.5 0,-147.5"/>
<text text-anchor="start" x="8" y="-165.5" font-family="Helvetica,sans-Serif" font-size="10.00">denoptim.fragspace.Fragment</text>
<text text-anchor="middle" x="84.5" y="-154.5" font-family="Helvetica,sans-Serif" font-size="10.00">Space.groupAndClassifyFragments</text>
</a>
</g>
</g>
<!-- Node2 -->
<g id="node2" class="node">
<title>Node2</title>
<g id="a_node2"><a xlink:href="classdenoptim_1_1fragspace_1_1_fragment_space.html#a13df4c55db0679bb62fb833a91ef38b2" target="_top" xlink:title="Classify a fragment in terms of the number of APs and possibly their type (AP&#45;Class).">
<polygon fill="white" stroke="black" points="207,-196.5 207,-226.5 352,-226.5 352,-196.5 207,-196.5"/>
<text text-anchor="start" x="215" y="-214.5" font-family="Helvetica,sans-Serif" font-size="10.00">denoptim.fragspace.Fragment</text>
<text text-anchor="middle" x="279.5" y="-203.5" font-family="Helvetica,sans-Serif" font-size="10.00">Space.classifyFragment</text>
</a>
</g>
</g>
<!-- Node1&#45;&gt;Node2 -->
<g id="edge1" class="edge">
<title>Node1&#45;&gt;Node2</title>
<path fill="none" stroke="midnightblue" d="M144.72,-177.53C165.19,-182.73 188.3,-188.6 209.49,-193.98"/>
<polygon fill="midnightblue" stroke="midnightblue" points="208.84,-197.43 219.39,-196.49 210.56,-190.64 208.84,-197.43"/>
</g>
<!-- Node12 -->
<g id="node12" class="node">
<title>Node12</title>
<g id="a_node12"><a xlink:href="classdenoptim_1_1fragspace_1_1_fragment_space.html#aed02226a5695be948ae2c33e787e22c3" target="_top" xlink:title=" ">
<polygon fill="white" stroke="black" points="207,-147.5 207,-177.5 352,-177.5 352,-147.5 207,-147.5"/>
<text text-anchor="start" x="215" y="-165.5" font-family="Helvetica,sans-Serif" font-size="10.00">denoptim.fragspace.Fragment</text>
<text text-anchor="middle" x="279.5" y="-154.5" font-family="Helvetica,sans-Serif" font-size="10.00">Space.getFragmentLibrary</text>
</a>
</g>
</g>
<!-- Node1&#45;&gt;Node12 -->
<g id="edge13" class="edge">
<title>Node1&#45;&gt;Node12</title>
<path fill="none" stroke="midnightblue" d="M169.03,-162.5C178.21,-162.5 187.55,-162.5 196.7,-162.5"/>
<polygon fill="midnightblue" stroke="midnightblue" points="196.95,-166 206.95,-162.5 196.95,-159 196.95,-166"/>
</g>
<!-- Node13 -->
<g id="node13" class="node">
<title>Node13</title>
<g id="a_node13"><a xlink:href="classdenoptim_1_1fragspace_1_1_fragment_space.html#afc50d518876feef08a08e217b1e0b89f" target="_top" xlink:title=" ">
<polygon fill="white" stroke="black" points="205,-98.5 205,-128.5 354,-128.5 354,-98.5 205,-98.5"/>
<text text-anchor="start" x="213" y="-116.5" font-family="Helvetica,sans-Serif" font-size="10.00">denoptim.fragspace.Fragment</text>
<text text-anchor="middle" x="279.5" y="-105.5" font-family="Helvetica,sans-Serif" font-size="10.00">Space.setFragPoolPerNumAP</text>
</a>
</g>
</g>
<!-- Node1&#45;&gt;Node13 -->
<g id="edge14" class="edge">
<title>Node1&#45;&gt;Node13</title>
<path fill="none" stroke="midnightblue" d="M144.72,-147.47C165.19,-142.27 188.3,-136.4 209.49,-131.02"/>
<polygon fill="midnightblue" stroke="midnightblue" points="210.56,-134.36 219.39,-128.51 208.84,-127.57 210.56,-134.36"/>
</g>
<!-- Node3 -->
<g id="node3" class="node">
<title>Node3</title>
<g id="a_node3"><a xlink:href="classdenoptim_1_1graph_1_1_vertex.html#a274e9253fa2a75073e7fc14918e54eef" target="_top" xlink:title="Returns the list of all APClasses present on this vertex.">
<polygon fill="white" stroke="black" points="410,-382.5 410,-412.5 538,-412.5 538,-382.5 410,-382.5"/>
<text text-anchor="start" x="418" y="-400.5" font-family="Helvetica,sans-Serif" font-size="10.00">denoptim.graph.Vertex.get</text>
<text text-anchor="middle" x="474" y="-389.5" font-family="Helvetica,sans-Serif" font-size="10.00">AllAPClasses</text>
</a>
</g>
</g>
<!-- Node2&#45;&gt;Node3 -->
<g id="edge2" class="edge">
<title>Node2&#45;&gt;Node3</title>
<path fill="none" stroke="midnightblue" d="M287.24,-226.7C301.66,-257.59 338.48,-328.11 390,-367.5 395.32,-371.56 401.23,-375.12 407.39,-378.21"/>
<polygon fill="midnightblue" stroke="midnightblue" points="406,-381.42 416.55,-382.42 408.93,-375.06 406,-381.42"/>
</g>
<!-- Node4 -->
<g id="node4" class="node">
<title>Node4</title>
<g id="a_node4"><a xlink:href="classdenoptim_1_1graph_1_1_vertex.html#a85aa901ec3fff8e566c0cc32d9c9f84e" target="_top" xlink:title=" ">
<polygon fill="white" stroke="black" points="594,-338.5 594,-368.5 722,-368.5 722,-338.5 594,-338.5"/>
<text text-anchor="start" x="602" y="-356.5" font-family="Helvetica,sans-Serif" font-size="10.00">denoptim.graph.Vertex.get</text>
<text text-anchor="middle" x="658" y="-345.5" font-family="Helvetica,sans-Serif" font-size="10.00">AttachmentPoints</text>
</a>
</g>
</g>
<!-- Node2&#45;&gt;Node4 -->
<g id="edge5" class="edge">
<title>Node2&#45;&gt;Node4</title>
<path fill="none" stroke="midnightblue" d="M288.62,-226.6C304.16,-253.79 341,-310.39 390,-334.5 450.35,-364.19 527.81,-366.38 583.74,-362.68"/>
<polygon fill="midnightblue" stroke="midnightblue" points="584.21,-366.15 593.92,-361.92 583.69,-359.17 584.21,-366.15"/>
</g>
<!-- Node5 -->
<g id="node5" class="node">
<title>Node5</title>
<g id="a_node5"><a xlink:href="classdenoptim_1_1graph_1_1_attachment_point.html#a31bed4cb29f6437bf8a888a1dda3fd95" target="_top" xlink:title="Returns the Attachment Point class.">
<polygon fill="white" stroke="black" points="406.5,-294.5 406.5,-324.5 541.5,-324.5 541.5,-294.5 406.5,-294.5"/>
<text text-anchor="start" x="414.5" y="-312.5" font-family="Helvetica,sans-Serif" font-size="10.00">denoptim.graph.Attachment</text>
<text text-anchor="middle" x="474" y="-301.5" font-family="Helvetica,sans-Serif" font-size="10.00">Point.getAPClass</text>
</a>
</g>
</g>
<!-- Node2&#45;&gt;Node5 -->
<g id="edge4" class="edge">
<title>Node2&#45;&gt;Node5</title>
<path fill="none" stroke="midnightblue" d="M298.8,-226.52C319.7,-243.03 355.51,-269.35 390,-285.5 394.08,-287.41 398.35,-289.21 402.71,-290.88"/>
<polygon fill="midnightblue" stroke="midnightblue" points="401.75,-294.26 412.34,-294.37 404.13,-287.67 401.75,-294.26"/>
</g>
<!-- Node6 -->
<g id="node6" class="node">
<title>Node6</title>
<g id="a_node6"><a xlink:href="classdenoptim_1_1fragspace_1_1_fragment_space.html#ae9d431ee87c4285c7d49d78b90ebe3a6" target="_top" xlink:title="Returns the list of fragments with given number of APs.">
<polygon fill="white" stroke="black" points="401.5,-245.5 401.5,-275.5 546.5,-275.5 546.5,-245.5 401.5,-245.5"/>
<text text-anchor="start" x="409.5" y="-263.5" font-family="Helvetica,sans-Serif" font-size="10.00">denoptim.fragspace.Fragment</text>
<text text-anchor="middle" x="474" y="-252.5" font-family="Helvetica,sans-Serif" font-size="10.00">Space.getFragsWithNumAps</text>
</a>
</g>
</g>
<!-- Node2&#45;&gt;Node6 -->
<g id="edge6" class="edge">
<title>Node2&#45;&gt;Node6</title>
<path fill="none" stroke="midnightblue" d="M339.56,-226.53C359.98,-231.73 383.04,-237.6 404.17,-242.98"/>
<polygon fill="midnightblue" stroke="midnightblue" points="403.49,-246.42 414.05,-245.49 405.22,-239.64 403.49,-246.42"/>
</g>
<!-- Node7 -->
<g id="node7" class="node">
<title>Node7</title>
<g id="a_node7"><a xlink:href="classdenoptim_1_1graph_1_1_vertex.html#ac578a57700de26b2f0ba1fc7470129d0" target="_top" xlink:title=" ">
<polygon fill="white" stroke="black" points="410,-196.5 410,-226.5 538,-226.5 538,-196.5 410,-196.5"/>
<text text-anchor="start" x="418" y="-214.5" font-family="Helvetica,sans-Serif" font-size="10.00">denoptim.graph.Vertex.get</text>
<text text-anchor="middle" x="474" y="-203.5" font-family="Helvetica,sans-Serif" font-size="10.00">FreeAPCount</text>
</a>
</g>
</g>
<!-- Node2&#45;&gt;Node7 -->
<g id="edge7" class="edge">
<title>Node2&#45;&gt;Node7</title>
<path fill="none" stroke="midnightblue" d="M352.18,-211.5C367.7,-211.5 384.13,-211.5 399.72,-211.5"/>
<polygon fill="midnightblue" stroke="midnightblue" points="399.81,-215 409.81,-211.5 399.81,-208 399.81,-215"/>
</g>
<!-- Node8 -->
<g id="node8" class="node">
<title>Node8</title>
<g id="a_node8"><a xlink:href="classdenoptim_1_1fragspace_1_1_fragment_space.html#a3aad125a846731307d56e68cd69b8ae5" target="_top" xlink:title=" ">
<polygon fill="white" stroke="black" points="390.5,-147.5 390.5,-177.5 557.5,-177.5 557.5,-147.5 390.5,-147.5"/>
<text text-anchor="start" x="398.5" y="-165.5" font-family="Helvetica,sans-Serif" font-size="10.00">denoptim.fragspace.Fragment</text>
<text text-anchor="middle" x="474" y="-154.5" font-family="Helvetica,sans-Serif" font-size="10.00">Space.getMapOfFragsPerNumAps</text>
</a>
</g>
</g>
<!-- Node2&#45;&gt;Node8 -->
<g id="edge9" class="edge">
<title>Node2&#45;&gt;Node8</title>
<path fill="none" stroke="midnightblue" d="M339.56,-196.47C359.98,-191.27 383.04,-185.4 404.17,-180.02"/>
<polygon fill="midnightblue" stroke="midnightblue" points="405.22,-183.36 414.05,-177.51 403.49,-176.58 405.22,-183.36"/>
</g>
<!-- Node9 -->
<g id="node9" class="node">
<title>Node9</title>
<g id="a_node9"><a xlink:href="classdenoptim_1_1graph_1_1_attachment_point.html#a77887ce020d49c189b89e049f12b70ba" target="_top" xlink:title="Check availability of this attachment point.">
<polygon fill="white" stroke="black" points="406.5,-98.5 406.5,-128.5 541.5,-128.5 541.5,-98.5 406.5,-98.5"/>
<text text-anchor="start" x="414.5" y="-116.5" font-family="Helvetica,sans-Serif" font-size="10.00">denoptim.graph.Attachment</text>
<text text-anchor="middle" x="474" y="-105.5" font-family="Helvetica,sans-Serif" font-size="10.00">Point.isAvailable</text>
</a>
</g>
</g>
<!-- Node2&#45;&gt;Node9 -->
<g id="edge10" class="edge">
<title>Node2&#45;&gt;Node9</title>
<path fill="none" stroke="midnightblue" d="M338.76,-196.33C344.14,-193.81 349.32,-190.88 354,-187.5 375.89,-171.66 367.93,-154.09 390,-138.5 392.7,-136.59 395.56,-134.82 398.51,-133.19"/>
<polygon fill="midnightblue" stroke="midnightblue" points="400.23,-136.25 407.64,-128.68 397.13,-129.97 400.23,-136.25"/>
</g>
<!-- Node10 -->
<g id="node10" class="node">
<title>Node10</title>
<g id="a_node10"><a xlink:href="classdenoptim_1_1fragspace_1_1_fragment_space.html#a1746f750aa65cefd1ed92ab55e750e63" target="_top" xlink:title="Adds the reference to a ring&#45;closing vertex (RCV) to the quick&#45;access list of RCVs known in this buil...">
<polygon fill="white" stroke="black" points="401.5,-49.5 401.5,-79.5 546.5,-79.5 546.5,-49.5 401.5,-49.5"/>
<text text-anchor="start" x="409.5" y="-67.5" font-family="Helvetica,sans-Serif" font-size="10.00">denoptim.fragspace.Fragment</text>
<text text-anchor="middle" x="474" y="-56.5" font-family="Helvetica,sans-Serif" font-size="10.00">Space.registerRCV</text>
</a>
</g>
</g>
<!-- Node2&#45;&gt;Node10 -->
<g id="edge11" class="edge">
<title>Node2&#45;&gt;Node10</title>
<path fill="none" stroke="midnightblue" d="M341.99,-196.43C346.35,-193.9 350.42,-190.95 354,-187.5 387.4,-155.29 356.23,-121.32 390,-89.5 391.52,-88.07 393.12,-86.72 394.78,-85.44"/>
<polygon fill="midnightblue" stroke="midnightblue" points="397.13,-88.09 403.6,-79.7 393.31,-82.23 397.13,-88.09"/>
</g>
<!-- Node11 -->
<g id="node11" class="node">
<title>Node11</title>
<g id="a_node11"><a xlink:href="classdenoptim_1_1fragspace_1_1_fragment_space.html#a47b278f84db073b1f06809f9c42cfae5" target="_top" xlink:title="Check usage of APClass&#45;based approach, i.e., uses attachment points with annotated data (i....">
<polygon fill="white" stroke="black" points="390,-0.5 390,-30.5 558,-30.5 558,-0.5 390,-0.5"/>
<text text-anchor="start" x="398" y="-18.5" font-family="Helvetica,sans-Serif" font-size="10.00">denoptim.fragspace.Fragment</text>
<text text-anchor="middle" x="474" y="-7.5" font-family="Helvetica,sans-Serif" font-size="10.00">Space.useAPclassBasedApproach</text>
</a>
</g>
</g>
<!-- Node2&#45;&gt;Node11 -->
<g id="edge12" class="edge">
<title>Node2&#45;&gt;Node11</title>
<path fill="none" stroke="midnightblue" d="M343.11,-196.43C347.11,-193.9 350.81,-190.95 354,-187.5 399.74,-138.18 343.7,-89.29 390,-40.5 391.25,-39.19 392.56,-37.94 393.93,-36.76"/>
<polygon fill="midnightblue" stroke="midnightblue" points="396.28,-39.38 402.34,-30.68 392.18,-33.71 396.28,-39.38"/>
</g>
<!-- Node3&#45;&gt;Node4 -->
<g id="edge3" class="edge">
<title>Node3&#45;&gt;Node4</title>
<path fill="none" stroke="midnightblue" d="M537.13,-382.48C552.56,-378.75 569.23,-374.72 585.09,-370.88"/>
<polygon fill="midnightblue" stroke="midnightblue" points="585.95,-374.28 594.85,-368.53 584.3,-367.47 585.95,-374.28"/>
</g>
<!-- Node7&#45;&gt;Node4 -->
<g id="edge8" class="edge">
<title>Node7&#45;&gt;Node4</title>
<path fill="none" stroke="midnightblue" d="M538.38,-226.35C545.27,-229.18 551.96,-232.54 558,-236.5 595.02,-260.78 625.74,-302.92 642.71,-329.45"/>
<polygon fill="midnightblue" stroke="midnightblue" points="639.86,-331.5 648.12,-338.13 645.8,-327.79 639.86,-331.5"/>
</g>
</g>
</svg>
