<?xml version="1.0" encoding="UTF-8" standalone="no"?>
<!DOCTYPE svg PUBLIC "-//W3C//DTD SVG 1.1//EN"
 "http://www.w3.org/Graphics/SVG/1.1/DTD/svg11.dtd">
<!-- Generated by graphviz version 3.0.0 (20221109.1736)
 -->
<!-- Title: denoptim.programs.combinatorial.FragSpaceExplorer Pages: 1 -->
<svg width="1553pt" height="809pt"
 viewBox="0.00 0.00 1553.00 809.00" xmlns="http://www.w3.org/2000/svg" xmlns:xlink="http://www.w3.org/1999/xlink">
<g id="graph0" class="graph" transform="scale(1 1) rotate(0) translate(4 805)">
<title>denoptim.programs.combinatorial.FragSpaceExplorer</title>
<polygon fill="white" stroke="transparent" points="-4,4 -4,-805 1549,-805 1549,4 -4,4"/>
<!-- Node1 -->
<g id="node1" class="node">
<title>Node1</title>
<g id="a_node1"><a xlink:title="Combinatorial exploration of the fragment space.">
<polygon fill="#bfbfbf" stroke="black" points="1384,-598 1384,-628 1545,-628 1545,-598 1384,-598"/>
<text text-anchor="start" x="1392" y="-616" font-family="Helvetica,sans-Serif" font-size="10.00">denoptim.programs.combinatorial.</text>
<text text-anchor="middle" x="1464.5" y="-605" font-family="Helvetica,sans-Serif" font-size="10.00">FragSpaceExplorer</text>
</a>
</g>
</g>
<!-- Node2 -->
<g id="node2" class="node">
<title>Node2</title>
<g id="a_node2"><a xlink:href="classdenoptim_1_1task_1_1_program_task.html" target="_top" xlink:title="Task structure for any of the main programs in the denoptim project, such as genetic algorithm and co...">
<polygon fill="white" stroke="black" points="1088,-676.5 1088,-695.5 1226,-695.5 1226,-676.5 1088,-676.5"/>
<text text-anchor="middle" x="1157" y="-683.5" font-family="Helvetica,sans-Serif" font-size="10.00">denoptim.task.ProgramTask</text>
</a>
</g>
</g>
<!-- Node2&#45;&gt;Node1 -->
<g id="edge1" class="edge">
<title>Node2&#45;&gt;Node1</title>
<path fill="none" stroke="midnightblue" d="M1207.71,-674.12C1260.27,-661.56 1343.32,-641.72 1400.45,-628.07"/>
<polygon fill="midnightblue" stroke="midnightblue" points="1206.85,-670.73 1197.94,-676.46 1208.48,-677.54 1206.85,-670.73"/>
</g>
<!-- Node3 -->
<g id="node3" class="node">
<title>Node3</title>
<g id="a_node3"><a xlink:href="classdenoptim_1_1task_1_1_task.html" target="_top" xlink:title="A task that can throw exceptions.">
<polygon fill="white" stroke="black" points="773.5,-729.5 773.5,-748.5 874.5,-748.5 874.5,-729.5 773.5,-729.5"/>
<text text-anchor="middle" x="824" y="-736.5" font-family="Helvetica,sans-Serif" font-size="10.00">denoptim.task.Task</text>
</a>
</g>
</g>
<!-- Node3&#45;&gt;Node2 -->
<g id="edge2" class="edge">
<title>Node3&#45;&gt;Node2</title>
<path fill="none" stroke="midnightblue" d="M884.63,-729.45C944.64,-719.84 1036.65,-705.11 1096.58,-695.51"/>
<polygon fill="midnightblue" stroke="midnightblue" points="883.87,-726.03 874.55,-731.07 884.98,-732.94 883.87,-726.03"/>
</g>
<!-- Node4 -->
<g id="node4" class="node">
<title>Node4</title>
<g id="a_node4"><a xlink:title=" ">
<polygon fill="white" stroke="black" points="480.5,-781.5 480.5,-800.5 576.5,-800.5 576.5,-781.5 480.5,-781.5"/>
<text text-anchor="middle" x="528.5" y="-788.5" font-family="Helvetica,sans-Serif" font-size="10.00">Callable&lt; Object &gt;</text>
</a>
</g>
</g>
<!-- Node4&#45;&gt;Node3 -->
<g id="edge3" class="edge">
<title>Node4&#45;&gt;Node3</title>
<path fill="none" stroke="midnightblue" d="M586.75,-783.67C624.22,-778.58 674.16,-771.25 718,-763 740.05,-758.85 764.5,-753.32 784.26,-748.61"/>
<polygon fill="midnightblue" stroke="midnightblue" points="585.98,-780.24 576.54,-785.04 586.91,-787.18 585.98,-780.24"/>
</g>
<!-- Node5 -->
<g id="node5" class="node">
<title>Node5</title>
<g id="a_node5"><a xlink:href="classdenoptim_1_1task_1_1_process_handler.html" target="_top" xlink:title=" ">
<polygon fill="white" stroke="black" points="454,-743.5 454,-762.5 603,-762.5 603,-743.5 454,-743.5"/>
<text text-anchor="middle" x="528.5" y="-750.5" font-family="Helvetica,sans-Serif" font-size="10.00">denoptim.task.ProcessHandler</text>
</a>
</g>
</g>
<!-- Node5&#45;&gt;Node3 -->
<g id="edge4" class="edge">
<title>Node5&#45;&gt;Node3</title>
<path fill="none" stroke="#9a32cd" stroke-dasharray="5,2" d="M613.34,-749C665.03,-746.54 729.56,-743.46 773.28,-741.37"/>
<polygon fill="#9a32cd" stroke="#9a32cd" points="613.01,-745.51 603.18,-749.49 613.34,-752.5 613.01,-745.51"/>
<text text-anchor="middle" x="669.5" y="-751" font-family="Helvetica,sans-Serif" font-size="10.00"> processHandler</text>
</g>
<!-- Node6 -->
<g id="node6" class="node">
<title>Node6</title>
<g id="a_node6"><a xlink:title=" ">
<polygon fill="white" stroke="black" points="512.5,-691.5 512.5,-710.5 544.5,-710.5 544.5,-691.5 512.5,-691.5"/>
<text text-anchor="middle" x="528.5" y="-698.5" font-family="Helvetica,sans-Serif" font-size="10.00">File</text>
</a>
</g>
</g>
<!-- Node6&#45;&gt;Node2 -->
<g id="edge6" class="edge">
<title>Node6&#45;&gt;Node2</title>
<path fill="none" stroke="#9a32cd" stroke-dasharray="5,2" d="M554.75,-700.4C644.5,-698.25 950.06,-690.93 1087.75,-687.63"/>
<polygon fill="#9a32cd" stroke="#9a32cd" points="554.59,-696.9 544.68,-700.64 554.76,-703.9 554.59,-696.9"/>
<text text-anchor="middle" x="824" y="-698" font-family="Helvetica,sans-Serif" font-size="10.00"> configFilePathName</text>
</g>
<!-- Node6&#45;&gt;Node3 -->
<g id="edge5" class="edge">
<title>Node6&#45;&gt;Node3</title>
<path fill="none" stroke="#9a32cd" stroke-dasharray="5,2" d="M554.82,-704.28C603.31,-710.56 710.03,-724.37 773.25,-732.56"/>
<polygon fill="#9a32cd" stroke="#9a32cd" points="555.23,-700.8 544.87,-702.99 554.33,-707.74 555.23,-700.8"/>
<text text-anchor="middle" x="669.5" y="-727" font-family="Helvetica,sans-Serif" font-size="10.00"> workDir</text>
</g>
<!-- Node7 -->
<g id="node7" class="node">
<title>Node7</title>
<g id="a_node7"><a xlink:href="classdenoptim_1_1combinatorial_1_1_combinatorial_explorer_by_layer.html" target="_top" xlink:title="Generates all combinators of fragments by means of asynchronous threads.">
<polygon fill="white" stroke="black" points="1068,-543 1068,-573 1246,-573 1246,-543 1068,-543"/>
<text text-anchor="start" x="1076" y="-561" font-family="Helvetica,sans-Serif" font-size="10.00">denoptim.combinatorial.Combinatorial</text>
<text text-anchor="middle" x="1157" y="-550" font-family="Helvetica,sans-Serif" font-size="10.00">ExplorerByLayer</text>
</a>
</g>
</g>
<!-- Node7&#45;&gt;Node1 -->
<g id="edge7" class="edge">
<title>Node7&#45;&gt;Node1</title>
<path fill="none" stroke="#9a32cd" stroke-dasharray="5,2" d="M1251.51,-574.83C1293.81,-582.45 1343.29,-591.36 1383.81,-598.65"/>
<polygon fill="#9a32cd" stroke="#9a32cd" points="1251.94,-571.36 1241.48,-573.03 1250.7,-578.25 1251.94,-571.36"/>
<text text-anchor="middle" x="1315" y="-598" font-family="Helvetica,sans-Serif" font-size="10.00"> combinatorialAlgorithm</text>
</g>
<!-- Node8 -->
<g id="node8" class="node">
<title>Node8</title>
<g id="a_node8"><a xlink:title=" ">
<polygon fill="white" stroke="black" points="751,-608.5 751,-649.5 897,-649.5 897,-608.5 751,-608.5"/>
<text text-anchor="start" x="759" y="-637.5" font-family="Helvetica,sans-Serif" font-size="10.00">Map&lt; denoptim.combinatorial.</text>
<text text-anchor="start" x="759" y="-626.5" font-family="Helvetica,sans-Serif" font-size="10.00">GraphBuildingTask, Future</text>
<text text-anchor="middle" x="824" y="-615.5" font-family="Helvetica,sans-Serif" font-size="10.00">&lt; Object &gt; &gt;</text>
</a>
</g>
</g>
<!-- Node8&#45;&gt;Node7 -->
<g id="edge8" class="edge">
<title>Node8&#45;&gt;Node7</title>
<path fill="none" stroke="#9a32cd" stroke-dasharray="5,2" d="M907.17,-613.45C949.87,-605.14 1002.84,-594.49 1050,-584 1065.17,-580.62 1081.49,-576.74 1096.68,-573.03"/>
<polygon fill="#9a32cd" stroke="#9a32cd" points="906.26,-610.06 897.11,-615.4 907.59,-616.93 906.26,-610.06"/>
<text text-anchor="middle" x="990" y="-611" font-family="Helvetica,sans-Serif" font-size="10.00"> submittedAndFutures</text>
</g>
<!-- Node9 -->
<g id="node9" class="node">
<title>Node9</title>
<g id="a_node9"><a xlink:title=" ">
<polygon fill="white" stroke="black" points="752.5,-560 752.5,-590 895.5,-590 895.5,-560 752.5,-560"/>
<text text-anchor="start" x="760.5" y="-578" font-family="Helvetica,sans-Serif" font-size="10.00">List&lt; denoptim.combinatorial.</text>
<text text-anchor="middle" x="824" y="-567" font-family="Helvetica,sans-Serif" font-size="10.00">GraphBuildingTask &gt;</text>
</a>
</g>
</g>
<!-- Node9&#45;&gt;Node7 -->
<g id="edge9" class="edge">
<title>Node9&#45;&gt;Node7</title>
<path fill="none" stroke="#9a32cd" stroke-dasharray="5,2" d="M905.85,-570.85C954.88,-568.33 1017.48,-565.11 1067.79,-562.53"/>
<polygon fill="#9a32cd" stroke="#9a32cd" points="905.41,-567.37 895.6,-571.37 905.77,-574.36 905.41,-567.37"/>
<text text-anchor="middle" x="990" y="-572" font-family="Helvetica,sans-Serif" font-size="10.00"> submitted</text>
</g>
<!-- Node10 -->
<g id="node10" class="node">
<title>Node10</title>
<g id="a_node10"><a xlink:title=" ">
<polygon fill="white" stroke="black" points="772,-521.5 772,-540.5 876,-540.5 876,-521.5 772,-521.5"/>
<text text-anchor="middle" x="824" y="-528.5" font-family="Helvetica,sans-Serif" font-size="10.00">ThreadPoolExecutor</text>
</a>
</g>
</g>
<!-- Node10&#45;&gt;Node7 -->
<g id="edge10" class="edge">
<title>Node10&#45;&gt;Node7</title>
<path fill="none" stroke="#9a32cd" stroke-dasharray="5,2" d="M886.64,-535.35C931.87,-538.61 994.78,-543.31 1050,-548 1055.8,-548.49 1061.78,-549.02 1067.81,-549.55"/>
<polygon fill="#9a32cd" stroke="#9a32cd" points="886.63,-531.84 876.41,-534.61 886.13,-538.82 886.63,-531.84"/>
<text text-anchor="middle" x="990" y="-551" font-family="Helvetica,sans-Serif" font-size="10.00"> tpe</text>
</g>
<!-- Node11 -->
<g id="node11" class="node">
<title>Node11</title>
<g id="a_node11"><a xlink:href="classdenoptim_1_1programs_1_1combinatorial_1_1_c_e_b_l_parameters.html" target="_top" xlink:title="Parameters controlling execution of the combinatorial algorithm for exploration of a fragment space b...">
<polygon fill="white" stroke="black" points="743.5,-472 743.5,-502 904.5,-502 904.5,-472 743.5,-472"/>
<text text-anchor="start" x="751.5" y="-490" font-family="Helvetica,sans-Serif" font-size="10.00">denoptim.programs.combinatorial.</text>
<text text-anchor="middle" x="824" y="-479" font-family="Helvetica,sans-Serif" font-size="10.00">CEBLParameters</text>
</a>
</g>
</g>
<!-- Node11&#45;&gt;Node7 -->
<g id="edge11" class="edge">
<title>Node11&#45;&gt;Node7</title>
<path fill="none" stroke="#9a32cd" stroke-dasharray="5,2" d="M914.84,-498.01C956.29,-503.95 1005.97,-512.28 1050,-523 1072.03,-528.36 1096.07,-536.13 1115.67,-542.99"/>
<polygon fill="#9a32cd" stroke="#9a32cd" points="915.15,-494.52 904.76,-496.59 914.17,-501.45 915.15,-494.52"/>
<text text-anchor="middle" x="990" y="-526" font-family="Helvetica,sans-Serif" font-size="10.00"> settings</text>
</g>
<!-- Node12 -->
<g id="node12" class="node">
<title>Node12</title>
<g id="a_node12"><a xlink:href="classdenoptim_1_1programs_1_1_run_time_parameters.html" target="_top" xlink:title="Collection of parameters controlling the behavior of the software.">
<polygon fill="white" stroke="black" points="458.5,-521 458.5,-551 598.5,-551 598.5,-521 458.5,-521"/>
<text text-anchor="start" x="466.5" y="-539" font-family="Helvetica,sans-Serif" font-size="10.00">denoptim.programs.RunTime</text>
<text text-anchor="middle" x="528.5" y="-528" font-family="Helvetica,sans-Serif" font-size="10.00">Parameters</text>
</a>
</g>
</g>
<!-- Node12&#45;&gt;Node11 -->
<g id="edge12" class="edge">
<title>Node12&#45;&gt;Node11</title>
<path fill="none" stroke="midnightblue" d="M609.23,-537.64C643.34,-536.42 683.24,-532.4 718,-522 726.77,-519.38 727.55,-515.51 736,-512 744.85,-508.32 754.43,-504.98 763.88,-502.02"/>
<polygon fill="midnightblue" stroke="midnightblue" points="608.74,-534.16 598.84,-537.94 608.94,-541.15 608.74,-534.16"/>
</g>
<!-- Node21 -->
<g id="node21" class="node">
<title>Node21</title>
<g id="a_node21"><a xlink:href="classdenoptim_1_1fragspace_1_1_fragment_space_parameters.html" target="_top" xlink:title="Parameters defining the fragment space.">
<polygon fill="white" stroke="black" points="751.5,-423 751.5,-453 896.5,-453 896.5,-423 751.5,-423"/>
<text text-anchor="start" x="759.5" y="-441" font-family="Helvetica,sans-Serif" font-size="10.00">denoptim.fragspace.Fragment</text>
<text text-anchor="middle" x="824" y="-430" font-family="Helvetica,sans-Serif" font-size="10.00">SpaceParameters</text>
</a>
</g>
</g>
<!-- Node12&#45;&gt;Node21 -->
<g id="edge22" class="edge">
<title>Node12&#45;&gt;Node21</title>
<path fill="none" stroke="midnightblue" d="M608.57,-526.49C652.03,-519.95 700.58,-510.08 718,-497 731.67,-486.73 722.72,-473.78 736,-463 740.76,-459.14 746.09,-455.87 751.7,-453.11"/>
<polygon fill="midnightblue" stroke="midnightblue" points="607.91,-523.05 598.52,-527.95 608.92,-529.97 607.91,-523.05"/>
</g>
<!-- Node13 -->
<g id="node13" class="node">
<title>Node13</title>
<g id="a_node13"><a xlink:title=" ">
<polygon fill="white" stroke="black" points="219,-612.5 219,-631.5 266,-631.5 266,-612.5 219,-612.5"/>
<text text-anchor="middle" x="242.5" y="-619.5" font-family="Helvetica,sans-Serif" font-size="10.00">Logger</text>
</a>
</g>
</g>
<!-- Node13&#45;&gt;Node12 -->
<g id="edge13" class="edge">
<title>Node13&#45;&gt;Node12</title>
<path fill="none" stroke="#9a32cd" stroke-dasharray="5,2" d="M276.43,-616.73C315.31,-609.96 381.57,-596.68 436,-577 456.79,-569.48 479.47,-559.33 497.05,-551.01"/>
<polygon fill="#9a32cd" stroke="#9a32cd" points="275.5,-613.34 266.23,-618.47 276.67,-620.24 275.5,-613.34"/>
<text text-anchor="middle" x="398.5" y="-601" font-family="Helvetica,sans-Serif" font-size="10.00"> logger</text>
</g>
<!-- Node14 -->
<g id="node14" class="node">
<title>Node14</title>
<g id="a_node14"><a xlink:href="classdenoptim_1_1utils_1_1_randomizer.html" target="_top" xlink:title="Tool to generate random numbers and random decisions.">
<polygon fill="white" stroke="black" points="177.5,-574.5 177.5,-593.5 307.5,-593.5 307.5,-574.5 177.5,-574.5"/>
<text text-anchor="middle" x="242.5" y="-581.5" font-family="Helvetica,sans-Serif" font-size="10.00">denoptim.utils.Randomizer</text>
</a>
</g>
</g>
<!-- Node14&#45;&gt;Node12 -->
<g id="edge14" class="edge">
<title>Node14&#45;&gt;Node12</title>
<path fill="none" stroke="#9a32cd" stroke-dasharray="5,2" d="M309.82,-572.79C354.44,-565.25 413.15,-555.33 458.36,-547.69"/>
<polygon fill="#9a32cd" stroke="#9a32cd" points="309.23,-569.34 299.95,-574.46 310.39,-576.24 309.23,-569.34"/>
<text text-anchor="middle" x="398.5" y="-565" font-family="Helvetica,sans-Serif" font-size="10.00"> rng</text>
</g>
<!-- Node15 -->
<g id="node15" class="node">
<title>Node15</title>
<g id="a_node15"><a xlink:title=" ">
<polygon fill="white" stroke="black" points="0,-574.5 0,-593.5 92,-593.5 92,-574.5 0,-574.5"/>
<text text-anchor="middle" x="46" y="-581.5" font-family="Helvetica,sans-Serif" font-size="10.00">MersenneTwister</text>
</a>
</g>
</g>
<!-- Node15&#45;&gt;Node14 -->
<g id="edge15" class="edge">
<title>Node15&#45;&gt;Node14</title>
<path fill="none" stroke="#9a32cd" stroke-dasharray="5,2" d="M102.23,-584C125.67,-584 153.15,-584 177.48,-584"/>
<polygon fill="#9a32cd" stroke="#9a32cd" points="102.11,-580.5 92.11,-584 102.11,-587.5 102.11,-580.5"/>
<text text-anchor="middle" x="117" y="-587" font-family="Helvetica,sans-Serif" font-size="10.00"> mt</text>
</g>
<!-- Node16 -->
<g id="node16" class="node">
<title>Node16</title>
<g id="a_node16"><a xlink:title=" ">
<polygon fill="white" stroke="black" points="142,-514.5 142,-555.5 343,-555.5 343,-514.5 142,-514.5"/>
<text text-anchor="start" x="150" y="-543.5" font-family="Helvetica,sans-Serif" font-size="10.00">Map&lt; denoptim.programs.Run</text>
<text text-anchor="start" x="150" y="-532.5" font-family="Helvetica,sans-Serif" font-size="10.00">TimeParameters.ParametersType,</text>
<text text-anchor="middle" x="242.5" y="-521.5" font-family="Helvetica,sans-Serif" font-size="10.00"> denoptim.programs.RunTimeParameters &gt;</text>
</a>
</g>
</g>
<!-- Node16&#45;&gt;Node12 -->
<g id="edge16" class="edge">
<title>Node16&#45;&gt;Node12</title>
<path fill="none" stroke="#9a32cd" stroke-dasharray="5,2" d="M353.58,-535.39C388.84,-535.51 426.87,-535.65 458.34,-535.76"/>
<polygon fill="#9a32cd" stroke="#9a32cd" points="353.24,-531.89 343.23,-535.35 353.22,-538.89 353.24,-531.89"/>
<text text-anchor="middle" x="398.5" y="-538" font-family="Helvetica,sans-Serif" font-size="10.00"> otherParameters</text>
</g>
<!-- Node17 -->
<g id="node17" class="node">
<title>Node17</title>
<g id="a_node17"><a xlink:href="enumdenoptim_1_1programs_1_1_run_time_parameters_1_1_parameters_type.html" target="_top" xlink:title="Identifier of the type of parameters.">
<polygon fill="white" stroke="black" points="172.5,-466 172.5,-496 312.5,-496 312.5,-466 172.5,-466"/>
<text text-anchor="start" x="180.5" y="-484" font-family="Helvetica,sans-Serif" font-size="10.00">denoptim.programs.RunTime</text>
<text text-anchor="middle" x="242.5" y="-473" font-family="Helvetica,sans-Serif" font-size="10.00">Parameters.ParametersType</text>
</a>
</g>
</g>
<!-- Node17&#45;&gt;Node12 -->
<g id="edge17" class="edge">
<title>Node17&#45;&gt;Node12</title>
<path fill="none" stroke="#9a32cd" stroke-dasharray="5,2" d="M322.65,-496.33C365.18,-504.56 417.13,-514.63 458.08,-522.56"/>
<polygon fill="#9a32cd" stroke="#9a32cd" points="323.09,-492.85 312.61,-494.38 321.76,-499.72 323.09,-492.85"/>
<text text-anchor="middle" x="398.5" y="-521" font-family="Helvetica,sans-Serif" font-size="10.00"> paramType</text>
</g>
<!-- Node18 -->
<g id="node18" class="node">
<title>Node18</title>
<g id="a_node18"><a xlink:title=" ">
<polygon fill="white" stroke="black" points="462.5,-470 462.5,-500 594.5,-500 594.5,-470 462.5,-470"/>
<text text-anchor="start" x="470.5" y="-488" font-family="Helvetica,sans-Serif" font-size="10.00">ArrayList&lt; denoptim.graph.</text>
<text text-anchor="middle" x="528.5" y="-477" font-family="Helvetica,sans-Serif" font-size="10.00">DGraph &gt;</text>
</a>
</g>
</g>
<!-- Node18&#45;&gt;Node11 -->
<g id="edge18" class="edge">
<title>Node18&#45;&gt;Node11</title>
<path fill="none" stroke="#9a32cd" stroke-dasharray="5,2" d="M604.64,-485.51C647.12,-485.8 700.21,-486.16 743.41,-486.46"/>
<polygon fill="#9a32cd" stroke="#9a32cd" points="604.66,-482.01 594.64,-485.44 604.61,-489.01 604.66,-482.01"/>
<text text-anchor="middle" x="669.5" y="-489" font-family="Helvetica,sans-Serif" font-size="10.00"> rootGraphs</text>
</g>
<!-- Node19 -->
<g id="node19" class="node">
<title>Node19</title>
<g id="a_node19"><a xlink:href="classdenoptim_1_1combinatorial_1_1_check_point.html" target="_top" xlink:title="Object collecting information needed to restart a FragSpaceExplorer job.">
<polygon fill="white" stroke="black" points="455.5,-421 455.5,-451 601.5,-451 601.5,-421 455.5,-421"/>
<text text-anchor="start" x="463.5" y="-439" font-family="Helvetica,sans-Serif" font-size="10.00">denoptim.combinatorial.Check</text>
<text text-anchor="middle" x="528.5" y="-428" font-family="Helvetica,sans-Serif" font-size="10.00">Point</text>
</a>
</g>
</g>
<!-- Node19&#45;&gt;Node11 -->
<g id="edge19" class="edge">
<title>Node19&#45;&gt;Node11</title>
<path fill="none" stroke="#9a32cd" stroke-dasharray="5,2" d="M611.68,-450.28C652.87,-457.44 702.53,-466.07 743.36,-473.16"/>
<polygon fill="#9a32cd" stroke="#9a32cd" points="612.13,-446.81 601.67,-448.54 610.93,-453.7 612.13,-446.81"/>
<text text-anchor="middle" x="669.5" y="-471" font-family="Helvetica,sans-Serif" font-size="10.00"> chkpt</text>
</g>
<!-- Node20 -->
<g id="node20" class="node">
<title>Node20</title>
<g id="a_node20"><a xlink:title=" ">
<polygon fill="white" stroke="black" points="191.5,-426.5 191.5,-445.5 293.5,-445.5 293.5,-426.5 191.5,-426.5"/>
<text text-anchor="middle" x="242.5" y="-433.5" font-family="Helvetica,sans-Serif" font-size="10.00">ArrayList&lt; Integer &gt;</text>
</a>
</g>
</g>
<!-- Node20&#45;&gt;Node19 -->
<g id="edge20" class="edge">
<title>Node20&#45;&gt;Node19</title>
<path fill="none" stroke="#9a32cd" stroke-dasharray="5,2" d="M303.68,-436C348.04,-436 408.57,-436 455.5,-436"/>
<polygon fill="#9a32cd" stroke="#9a32cd" points="303.62,-432.5 293.62,-436 303.62,-439.5 303.62,-432.5"/>
<text text-anchor="middle" x="398.5" y="-439" font-family="Helvetica,sans-Serif" font-size="10.00"> nextIds</text>
</g>
<!-- Node21&#45;&gt;Node7 -->
<g id="edge21" class="edge">
<title>Node21&#45;&gt;Node7</title>
<path fill="none" stroke="#9a32cd" stroke-dasharray="5,2" d="M906.65,-447.09C950.43,-453.92 1004.56,-465.55 1050,-485 1084.3,-499.69 1118.96,-526.28 1138.91,-542.99"/>
<polygon fill="#9a32cd" stroke="#9a32cd" points="907.02,-443.61 896.61,-445.58 905.98,-450.53 907.02,-443.61"/>
<text text-anchor="middle" x="990" y="-488" font-family="Helvetica,sans-Serif" font-size="10.00"> fsSettings</text>
</g>
<!-- Node23 -->
<g id="node23" class="node">
<title>Node23</title>
<g id="a_node23"><a xlink:href="classdenoptim_1_1fragspace_1_1_fragment_space.html" target="_top" xlink:title="Class defining a space of building blocks.">
<polygon fill="white" stroke="black" points="1084.5,-224 1084.5,-254 1229.5,-254 1229.5,-224 1084.5,-224"/>
<text text-anchor="start" x="1092.5" y="-242" font-family="Helvetica,sans-Serif" font-size="10.00">denoptim.fragspace.Fragment</text>
<text text-anchor="middle" x="1157" y="-231" font-family="Helvetica,sans-Serif" font-size="10.00">Space</text>
</a>
</g>
</g>
<!-- Node21&#45;&gt;Node23 -->
<g id="edge33" class="edge">
<title>Node21&#45;&gt;Node23</title>
<path fill="none" stroke="#9a32cd" stroke-dasharray="5,2" d="M906.56,-438.03C960.98,-436.62 1026.66,-431.74 1050,-417 1111.43,-378.2 1141.91,-289.8 1152.04,-254.24"/>
<polygon fill="#9a32cd" stroke="#9a32cd" points="906.47,-434.53 896.55,-438.25 906.62,-441.53 906.47,-434.53"/>
<text text-anchor="middle" x="990" y="-441" font-family="Helvetica,sans-Serif" font-size="10.00"> settings</text>
</g>
<!-- Node22 -->
<g id="node22" class="node">
<title>Node22</title>
<g id="a_node22"><a xlink:title=" ">
<polygon fill="white" stroke="black" points="461,-364 461,-394 596,-394 596,-364 461,-364"/>
<text text-anchor="start" x="469" y="-382" font-family="Helvetica,sans-Serif" font-size="10.00">HashMap&lt; denoptim.graph.</text>
<text text-anchor="middle" x="528.5" y="-371" font-family="Helvetica,sans-Serif" font-size="10.00">APClass, Double &gt;</text>
</a>
</g>
</g>
<!-- Node22&#45;&gt;Node21 -->
<g id="edge23" class="edge">
<title>Node22&#45;&gt;Node21</title>
<path fill="none" stroke="#9a32cd" stroke-dasharray="5,2" d="M606.07,-394.39C650.95,-403.41 707.27,-414.74 751.28,-423.58"/>
<polygon fill="#9a32cd" stroke="#9a32cd" points="606.59,-390.93 596.1,-392.39 605.21,-397.79 606.59,-390.93"/>
<text text-anchor="middle" x="669.5" y="-419" font-family="Helvetica,sans-Serif" font-size="10.00"> symmConstraintsMap</text>
</g>
<!-- Node22&#45;&gt;Node23 -->
<g id="edge32" class="edge">
<title>Node22&#45;&gt;Node23</title>
<path fill="none" stroke="#9a32cd" stroke-dasharray="5,2" d="M606.38,-382.75C731.66,-387.68 973.56,-391.93 1050,-356 1096.88,-333.96 1132.32,-280.69 1147.65,-254.32"/>
<polygon fill="#9a32cd" stroke="#9a32cd" points="606.23,-379.24 596.09,-382.33 605.94,-386.23 606.23,-379.24"/>
<text text-anchor="middle" x="824" y="-389" font-family="Helvetica,sans-Serif" font-size="10.00"> symmConstraints</text>
</g>
<!-- Node23&#45;&gt;Node21 -->
<g id="edge24" class="edge">
<title>Node23&#45;&gt;Node21</title>
<path fill="none" stroke="#9a32cd" stroke-dasharray="5,2" d="M1145.15,-263.46C1129.25,-296.25 1096.4,-353.73 1050,-383 1004.07,-411.97 982.71,-392.95 930,-406 910.3,-410.88 888.82,-417.23 870.45,-422.99"/>
<polygon fill="#9a32cd" stroke="#9a32cd" points="1148.45,-264.67 1149.53,-254.13 1142.11,-261.69 1148.45,-264.67"/>
<text text-anchor="middle" x="990" y="-409" font-family="Helvetica,sans-Serif" font-size="10.00"> buildingBlocksSpace</text>
</g>
<!-- Node24 -->
<g id="node24" class="node">
<title>Node24</title>
<g id="a_node24"><a xlink:title=" ">
<polygon fill="white" stroke="black" points="758,-305 758,-335 890,-335 890,-305 758,-305"/>
<text text-anchor="start" x="766" y="-323" font-family="Helvetica,sans-Serif" font-size="10.00">ArrayList&lt; denoptim.graph.</text>
<text text-anchor="middle" x="824" y="-312" font-family="Helvetica,sans-Serif" font-size="10.00">Vertex &gt;</text>
</a>
</g>
</g>
<!-- Node24&#45;&gt;Node23 -->
<g id="edge25" class="edge">
<title>Node24&#45;&gt;Node23</title>
<path fill="none" stroke="#9a32cd" stroke-dasharray="5,2" d="M900.5,-312.56C944.66,-307.07 1001.15,-298.05 1050,-284 1076.51,-276.37 1105.25,-263.89 1126.1,-254.01"/>
<polygon fill="#9a32cd" stroke="#9a32cd" points="899.92,-309.11 890.41,-313.78 900.76,-316.05 899.92,-309.11"/>
<text text-anchor="middle" x="990" y="-344" font-family="Helvetica,sans-Serif" font-size="10.00"> cappingLib</text>
<text text-anchor="middle" x="990" y="-333" font-family="Helvetica,sans-Serif" font-size="10.00">fragmentLib</text>
<text text-anchor="middle" x="990" y="-322" font-family="Helvetica,sans-Serif" font-size="10.00">rcvs</text>
<text text-anchor="middle" x="990" y="-311" font-family="Helvetica,sans-Serif" font-size="10.00">scaffoldLib</text>
</g>
<!-- Node25 -->
<g id="node25" class="node">
<title>Node25</title>
<g id="a_node25"><a xlink:title=" ">
<polygon fill="white" stroke="black" points="736,-245.5 736,-286.5 912,-286.5 912,-245.5 736,-245.5"/>
<text text-anchor="start" x="744" y="-274.5" font-family="Helvetica,sans-Serif" font-size="10.00">HashMap&lt; denoptim.graph.</text>
<text text-anchor="start" x="744" y="-263.5" font-family="Helvetica,sans-Serif" font-size="10.00">APClass, ArrayList&lt; denoptim.graph.</text>
<text text-anchor="middle" x="824" y="-252.5" font-family="Helvetica,sans-Serif" font-size="10.00">APClass &gt; &gt;</text>
</a>
</g>
</g>
<!-- Node25&#45;&gt;Node23 -->
<g id="edge26" class="edge">
<title>Node25&#45;&gt;Node23</title>
<path fill="none" stroke="#9a32cd" stroke-dasharray="5,2" d="M922.61,-258.04C974.44,-253.81 1037.01,-248.71 1084.31,-244.85"/>
<polygon fill="#9a32cd" stroke="#9a32cd" points="922.08,-254.57 912.4,-258.87 922.65,-261.55 922.08,-254.57"/>
<text text-anchor="middle" x="990" y="-272" font-family="Helvetica,sans-Serif" font-size="10.00"> apClassCompatibilityMatrix</text>
<text text-anchor="middle" x="990" y="-261" font-family="Helvetica,sans-Serif" font-size="10.00">rcCompatMap</text>
</g>
<!-- Node26 -->
<g id="node26" class="node">
<title>Node26</title>
<g id="a_node26"><a xlink:title=" ">
<polygon fill="white" stroke="black" points="736.5,-197 736.5,-227 911.5,-227 911.5,-197 736.5,-197"/>
<text text-anchor="start" x="744.5" y="-215" font-family="Helvetica,sans-Serif" font-size="10.00">HashMap&lt; denoptim.graph.</text>
<text text-anchor="middle" x="824" y="-204" font-family="Helvetica,sans-Serif" font-size="10.00">APClass, denoptim.graph.APClass &gt;</text>
</a>
</g>
</g>
<!-- Node26&#45;&gt;Node23 -->
<g id="edge27" class="edge">
<title>Node26&#45;&gt;Node23</title>
<path fill="none" stroke="#9a32cd" stroke-dasharray="5,2" d="M921.79,-219.9C973.84,-224.14 1036.91,-229.29 1084.48,-233.17"/>
<polygon fill="#9a32cd" stroke="#9a32cd" points="921.79,-216.38 911.53,-219.06 921.22,-223.36 921.79,-216.38"/>
<text text-anchor="middle" x="990" y="-234" font-family="Helvetica,sans-Serif" font-size="10.00"> cappingMap</text>
</g>
<!-- Node27 -->
<g id="node27" class="node">
<title>Node27</title>
<g id="a_node27"><a xlink:title=" ">
<polygon fill="white" stroke="black" points="746.5,-158.5 746.5,-177.5 901.5,-177.5 901.5,-158.5 746.5,-158.5"/>
<text text-anchor="middle" x="824" y="-165.5" font-family="Helvetica,sans-Serif" font-size="10.00">Set&lt; denoptim.graph.APClass &gt;</text>
</a>
</g>
</g>
<!-- Node27&#45;&gt;Node23 -->
<g id="edge28" class="edge">
<title>Node27&#45;&gt;Node23</title>
<path fill="none" stroke="#9a32cd" stroke-dasharray="5,2" d="M906.31,-179.03C949.31,-185.55 1002.82,-194.73 1050,-206 1070.71,-210.95 1093.3,-217.78 1112.27,-223.93"/>
<polygon fill="#9a32cd" stroke="#9a32cd" points="906.58,-175.54 896.18,-177.52 905.55,-182.46 906.58,-175.54"/>
<text text-anchor="middle" x="990" y="-209" font-family="Helvetica,sans-Serif" font-size="10.00"> forbiddenEndList</text>
</g>
<!-- Node28 -->
<g id="node28" class="node">
<title>Node28</title>
<g id="a_node28"><a xlink:title=" ">
<polygon fill="white" stroke="black" points="753.5,-109 753.5,-139 894.5,-139 894.5,-109 753.5,-109"/>
<text text-anchor="start" x="761.5" y="-127" font-family="Helvetica,sans-Serif" font-size="10.00">HashMap&lt; Integer, ArrayList</text>
<text text-anchor="middle" x="824" y="-116" font-family="Helvetica,sans-Serif" font-size="10.00">&lt; Integer &gt; &gt;</text>
</a>
</g>
</g>
<!-- Node28&#45;&gt;Node23 -->
<g id="edge29" class="edge">
<title>Node28&#45;&gt;Node23</title>
<path fill="none" stroke="#9a32cd" stroke-dasharray="5,2" d="M904.78,-132.33C948.81,-138.79 1003.78,-149.97 1050,-169 1083.44,-182.77 1117.54,-207.62 1137.73,-223.71"/>
<polygon fill="#9a32cd" stroke="#9a32cd" points="905.09,-128.84 894.7,-130.9 904.11,-135.77 905.09,-128.84"/>
<text text-anchor="middle" x="990" y="-172" font-family="Helvetica,sans-Serif" font-size="10.00"> fragPoolPerNumAP</text>
</g>
<!-- Node29 -->
<g id="node29" class="node">
<title>Node29</title>
<g id="a_node29"><a xlink:title=" ">
<polygon fill="white" stroke="black" points="750,-60 750,-90 898,-90 898,-60 750,-60"/>
<text text-anchor="start" x="758" y="-78" font-family="Helvetica,sans-Serif" font-size="10.00">HashMap&lt; Integer, ArrayList</text>
<text text-anchor="middle" x="824" y="-67" font-family="Helvetica,sans-Serif" font-size="10.00">&lt; denoptim.graph.APClass &gt; &gt;</text>
</a>
</g>
</g>
<!-- Node29&#45;&gt;Node23 -->
<g id="edge30" class="edge">
<title>Node29&#45;&gt;Node23</title>
<path fill="none" stroke="#9a32cd" stroke-dasharray="5,2" d="M908.44,-79.97C952.86,-85.59 1007.04,-97.38 1050,-122 1094.47,-147.48 1130.53,-198.17 1146.74,-223.64"/>
<polygon fill="#9a32cd" stroke="#9a32cd" points="908.58,-76.46 898.24,-78.76 907.76,-83.41 908.58,-76.46"/>
<text text-anchor="middle" x="990" y="-125" font-family="Helvetica,sans-Serif" font-size="10.00"> apClassesPerFrag</text>
</g>
<!-- Node30 -->
<g id="node30" class="node">
<title>Node30</title>
<g id="a_node30"><a xlink:title=" ">
<polygon fill="white" stroke="black" points="751,-0.5 751,-41.5 897,-41.5 897,-0.5 751,-0.5"/>
<text text-anchor="start" x="759" y="-29.5" font-family="Helvetica,sans-Serif" font-size="10.00">HashMap&lt; denoptim.graph.</text>
<text text-anchor="start" x="759" y="-18.5" font-family="Helvetica,sans-Serif" font-size="10.00">APClass, ArrayList&lt; ArrayList</text>
<text text-anchor="middle" x="824" y="-7.5" font-family="Helvetica,sans-Serif" font-size="10.00">&lt; Integer &gt; &gt; &gt;</text>
</a>
</g>
</g>
<!-- Node30&#45;&gt;Node23 -->
<g id="edge31" class="edge">
<title>Node30&#45;&gt;Node23</title>
<path fill="none" stroke="#9a32cd" stroke-dasharray="5,2" d="M907.29,-23.1C952.86,-27.85 1008.5,-39.89 1050,-69 1106.95,-108.95 1139.61,-190.24 1151.18,-223.89"/>
<polygon fill="#9a32cd" stroke="#9a32cd" points="907.42,-19.6 897.13,-22.15 906.76,-26.57 907.42,-19.6"/>
<text text-anchor="middle" x="990" y="-72" font-family="Helvetica,sans-Serif" font-size="10.00"> fragsApsPerApClass</text>
</g>
</g>
</svg>
