<?xml version="1.0" encoding="UTF-8" standalone="no"?>
<!DOCTYPE svg PUBLIC "-//W3C//DTD SVG 1.1//EN"
 "http://www.w3.org/Graphics/SVG/1.1/DTD/svg11.dtd">
<!-- Generated by graphviz version 3.0.0 (20221109.1736)
 -->
<!-- Title: denoptim.task.Task Pages: 1 -->
<!--zoomable 633 -->
<svg id="main" version="1.1" xmlns="http://www.w3.org/2000/svg" xmlns:xlink="http://www.w3.org/1999/xlink" xml:space="preserve" onload="init(evt)">
<style type="text/css"><![CDATA[
.edge:hover path { stroke: red; }
.edge:hover polygon { stroke: red; fill: red; }
]]></style>
<script type="text/javascript"><![CDATA[
var edges = document.getElementsByTagName('g');
if (edges && edges.length) {
  for (var i=0;i<edges.length;i++) {
    if (edges[i].id.substr(0,4)=='edge') {
      edges[i].setAttribute('class','edge');
    }
  }
}
]]></script>
        <defs>
                <circle id="rim" cx="0" cy="0" r="7"/>
                <circle id="rim2" cx="0" cy="0" r="3.5"/>
                <g id="zoomPlus">
                        <use xlink:href="#rim" fill="#404040">
                                <set attributeName="fill" to="#808080" begin="zoomplus.mouseover" end="zoomplus.mouseout"/>
                        </use>
                        <path d="M-4,0h8M0,-4v8" fill="none" stroke="white" stroke-width="1.5" pointer-events="none"/>
                </g>
                <g id="zoomMin">
                        <use xlink:href="#rim" fill="#404040">
                                <set attributeName="fill" to="#808080" begin="zoomminus.mouseover" end="zoomminus.mouseout"/>
                        </use>
                        <path d="M-4,0h8" fill="none" stroke="white" stroke-width="1.5" pointer-events="none"/>
                </g>
                <g id="dirArrow">
                        <path fill="none" stroke="white" stroke-width="1.5" d="M0,-3.0v7 M-2.5,-0.5L0,-3.0L2.5,-0.5"/>
                </g>
               <g id="resetDef">
                       <use xlink:href="#rim2" fill="#404040">
                               <set attributeName="fill" to="#808080" begin="reset.mouseover" end="reset.mouseout"/>
                       </use>
               </g>
        </defs>

<script type="text/javascript">
var viewWidth = 698;
var viewHeight = 633;
var sectionId = 'dynsection-0';
</script>
<script xlink:href="svgpan.js"/>
<svg id="graph" class="graph">
<g id="viewport">
<title>denoptim.task.Task</title>
<polygon fill="white" stroke="transparent" points="-4,4 -4,-629 694,-629 694,4 -4,4"/>
<!-- Node1 -->
<g id="node1" class="node">
<title>Node1</title>
<g id="a_node1"><a xlink:title="A task that can throw exceptions.">
<polygon fill="#bfbfbf" stroke="black" points="132,-537 132,-556 233,-556 233,-537 132,-537"/>
<text text-anchor="middle" x="182.5" y="-544" font-family="Helvetica,sans-Serif" font-size="10.00">denoptim.task.Task</text>
</a>
</g>
</g>
<!-- Node3 -->
<g id="node3" class="node">
<title>Node3</title>
<g id="a_node3"><a xlink:href="classdenoptim_1_1fragmenter_1_1_conformer_extractor_task.html" target="_top" xlink:title="Task that analyzes an isomorphic family of fragments to identify the most representative fragment (i....">
<polygon fill="white" stroke="black" points="282.5,-594.5 282.5,-624.5 434.5,-624.5 434.5,-594.5 282.5,-594.5"/>
<text text-anchor="start" x="290.5" y="-612.5" font-family="Helvetica,sans-Serif" font-size="10.00">denoptim.fragmenter.Conformer</text>
<text text-anchor="middle" x="358.5" y="-601.5" font-family="Helvetica,sans-Serif" font-size="10.00">ExtractorTask</text>
</a>
</g>
</g>
<!-- Node1&#45;&gt;Node3 -->
<g id="edge2" class="edge">
<title>Node1&#45;&gt;Node3</title>
<path fill="none" stroke="midnightblue" d="M211.95,-560.37C228.38,-568.07 249.59,-577.49 269,-584.5 278.76,-588.03 289.27,-591.37 299.52,-594.41"/>
<polygon fill="midnightblue" stroke="midnightblue" points="213.41,-557.19 202.87,-556.06 210.4,-563.51 213.41,-557.19"/>
</g>
<!-- Node4 -->
<g id="node4" class="node">
<title>Node4</title>
<g id="a_node4"><a xlink:href="classdenoptim_1_1fragmenter_1_1_fragmenter_task.html" target="_top" xlink:title="Task that performs the various steps in the process that prepares chemical structured to be chopped,...">
<polygon fill="white" stroke="black" points="269,-556 269,-575 448,-575 448,-556 269,-556"/>
<text text-anchor="middle" x="358.5" y="-563" font-family="Helvetica,sans-Serif" font-size="10.00">denoptim.fragmenter.FragmenterTask</text>
</a>
</g>
</g>
<!-- Node1&#45;&gt;Node4 -->
<g id="edge3" class="edge">
<title>Node1&#45;&gt;Node4</title>
<path fill="none" stroke="midnightblue" d="M243.43,-553.04C252.18,-554 261.34,-555 270.5,-556"/>
<polygon fill="midnightblue" stroke="midnightblue" points="243.68,-549.55 233.36,-551.94 242.92,-556.51 243.68,-549.55"/>
</g>
<!-- Node5 -->
<g id="node5" class="node">
<title>Node5</title>
<g id="a_node5"><a xlink:href="classdenoptim_1_1task_1_1_fitness_task.html" target="_top" xlink:title="Task that assesses the fitness of a given graph.">
<polygon fill="white" stroke="black" points="291.5,-518 291.5,-537 425.5,-537 425.5,-518 291.5,-518"/>
<text text-anchor="middle" x="358.5" y="-525" font-family="Helvetica,sans-Serif" font-size="10.00">denoptim.task.FitnessTask</text>
</a>
</g>
</g>
<!-- Node1&#45;&gt;Node5 -->
<g id="edge4" class="edge">
<title>Node1&#45;&gt;Node5</title>
<path fill="none" stroke="midnightblue" d="M243.34,-539.97C258.83,-538.27 275.61,-536.44 291.4,-534.72"/>
<polygon fill="midnightblue" stroke="midnightblue" points="242.92,-536.49 233.36,-541.06 243.68,-543.45 242.92,-536.49"/>
</g>
<!-- Node9 -->
<g id="node9" class="node">
<title>Node9</title>
<g id="a_node9"><a xlink:href="classdenoptim_1_1task_1_1_program_task.html" target="_top" xlink:title="Task structure for any of the main programs in the denoptim project, such as genetic algorithm and co...">
<polygon fill="white" stroke="black" points="289.5,-251 289.5,-270 427.5,-270 427.5,-251 289.5,-251"/>
<text text-anchor="middle" x="358.5" y="-258" font-family="Helvetica,sans-Serif" font-size="10.00">denoptim.task.ProgramTask</text>
</a>
</g>
</g>
<!-- Node1&#45;&gt;Node9 -->
<g id="edge8" class="edge">
<title>Node1&#45;&gt;Node9</title>
<path fill="none" stroke="midnightblue" d="M194.56,-528.33C227.89,-473.53 326.67,-311.18 351.69,-270.05"/>
<polygon fill="midnightblue" stroke="midnightblue" points="191.5,-526.62 189.29,-536.98 197.48,-530.26 191.5,-526.62"/>
</g>
<!-- Node2 -->
<g id="node2" class="node">
<title>Node2</title>
<g id="a_node2"><a xlink:title=" ">
<polygon fill="white" stroke="black" points="0,-537 0,-556 96,-556 96,-537 0,-537"/>
<text text-anchor="middle" x="48" y="-544" font-family="Helvetica,sans-Serif" font-size="10.00">Callable&lt; Object &gt;</text>
</a>
</g>
</g>
<!-- Node2&#45;&gt;Node1 -->
<g id="edge1" class="edge">
<title>Node2&#45;&gt;Node1</title>
<path fill="none" stroke="midnightblue" d="M106.33,-546.5C114.83,-546.5 123.54,-546.5 131.87,-546.5"/>
<polygon fill="midnightblue" stroke="midnightblue" points="106.09,-543 96.09,-546.5 106.09,-550 106.09,-543"/>
</g>
<!-- Node6 -->
<g id="node6" class="node">
<title>Node6</title>
<g id="a_node6"><a xlink:href="classdenoptim_1_1combinatorial_1_1_graph_building_task.html" target="_top" xlink:title="Task that builds a graph by appending a given combination of fragments onto a given list of attachmen...">
<polygon fill="white" stroke="black" points="514.5,-578.5 514.5,-608.5 659.5,-608.5 659.5,-578.5 514.5,-578.5"/>
<text text-anchor="start" x="522.5" y="-596.5" font-family="Helvetica,sans-Serif" font-size="10.00">denoptim.combinatorial.Graph</text>
<text text-anchor="middle" x="587" y="-585.5" font-family="Helvetica,sans-Serif" font-size="10.00">BuildingTask</text>
</a>
</g>
</g>
<!-- Node5&#45;&gt;Node6 -->
<g id="edge5" class="edge">
<title>Node5&#45;&gt;Node6</title>
<path fill="none" stroke="midnightblue" d="M427.2,-539.55C434.32,-541.55 441.38,-543.86 448,-546.5 465.41,-553.46 466.69,-561.29 484,-568.5 493.59,-572.49 503.97,-575.95 514.31,-578.91"/>
<polygon fill="midnightblue" stroke="midnightblue" points="428.03,-536.15 417.47,-537 426.26,-542.92 428.03,-536.15"/>
</g>
<!-- Node7 -->
<g id="node7" class="node">
<title>Node7</title>
<g id="a_node7"><a xlink:href="classdenoptim_1_1ga_1_1_offspring_evaluation_task.html" target="_top" xlink:title="Task that calls the fitness provider for an offspring that can become a member of the current populat...">
<polygon fill="white" stroke="black" points="498.5,-540 498.5,-559 675.5,-559 675.5,-540 498.5,-540"/>
<text text-anchor="middle" x="587" y="-547" font-family="Helvetica,sans-Serif" font-size="10.00">denoptim.ga.OffspringEvaluationTask</text>
</a>
</g>
</g>
<!-- Node5&#45;&gt;Node7 -->
<g id="edge6" class="edge">
<title>Node5&#45;&gt;Node7</title>
<path fill="none" stroke="midnightblue" d="M435.65,-534.9C455.77,-536.85 477.63,-538.97 498.31,-540.98"/>
<polygon fill="midnightblue" stroke="midnightblue" points="435.91,-531.41 425.62,-533.92 435.24,-538.37 435.91,-531.41"/>
</g>
<!-- Node8 -->
<g id="node8" class="node">
<title>Node8</title>
<g id="a_node8"><a xlink:href="classdenoptim_1_1programs_1_1fitnessevaluator_1_1_fitness_evaluation_task.html" target="_top" xlink:title="Task that calls the fitness provider.">
<polygon fill="white" stroke="black" points="501,-490.5 501,-520.5 673,-520.5 673,-490.5 501,-490.5"/>
<text text-anchor="start" x="509" y="-508.5" font-family="Helvetica,sans-Serif" font-size="10.00">denoptim.programs.fitnessevaluator.</text>
<text text-anchor="middle" x="587" y="-497.5" font-family="Helvetica,sans-Serif" font-size="10.00">FitnessEvaluationTask</text>
</a>
</g>
</g>
<!-- Node5&#45;&gt;Node8 -->
<g id="edge7" class="edge">
<title>Node5&#45;&gt;Node8</title>
<path fill="none" stroke="midnightblue" d="M435.72,-520.1C456.62,-518.07 479.42,-515.85 500.8,-513.78"/>
<polygon fill="midnightblue" stroke="midnightblue" points="435.24,-516.63 425.62,-521.08 435.91,-523.59 435.24,-516.63"/>
</g>
<!-- Node10 -->
<g id="node10" class="node">
<title>Node10</title>
<g id="a_node10"><a xlink:href="classdenoptim_1_1programs_1_1combinatorial_1_1_frag_space_explorer.html" target="_top" xlink:title="Combinatorial exploration of the fragment space.">
<polygon fill="white" stroke="black" points="506.5,-441.5 506.5,-471.5 667.5,-471.5 667.5,-441.5 506.5,-441.5"/>
<text text-anchor="start" x="514.5" y="-459.5" font-family="Helvetica,sans-Serif" font-size="10.00">denoptim.programs.combinatorial.</text>
<text text-anchor="middle" x="587" y="-448.5" font-family="Helvetica,sans-Serif" font-size="10.00">FragSpaceExplorer</text>
</a>
</g>
</g>
<!-- Node9&#45;&gt;Node10 -->
<g id="edge9" class="edge">
<title>Node9&#45;&gt;Node10</title>
<path fill="none" stroke="midnightblue" d="M367.73,-279.32C384.29,-314.91 425.16,-392.02 484,-431.5 490.89,-436.12 498.55,-439.89 506.49,-442.96"/>
<polygon fill="midnightblue" stroke="midnightblue" points="370.85,-277.74 363.54,-270.07 364.48,-280.63 370.85,-277.74"/>
</g>
<!-- Node11 -->
<g id="node11" class="node">
<title>Node11</title>
<g id="a_node11"><a xlink:href="classdenoptim_1_1programs_1_1denovo_1_1_g_a_runner.html" target="_top" xlink:title="Programs that runs de novo design by a genetic algorithm.">
<polygon fill="white" stroke="black" points="519.5,-392.5 519.5,-422.5 654.5,-422.5 654.5,-392.5 519.5,-392.5"/>
<text text-anchor="start" x="527.5" y="-410.5" font-family="Helvetica,sans-Serif" font-size="10.00">denoptim.programs.denovo.</text>
<text text-anchor="middle" x="587" y="-399.5" font-family="Helvetica,sans-Serif" font-size="10.00">GARunner</text>
</a>
</g>
</g>
<!-- Node9&#45;&gt;Node11 -->
<g id="edge10" class="edge">
<title>Node9&#45;&gt;Node11</title>
<path fill="none" stroke="midnightblue" d="M372.5,-278.31C393.07,-305.14 435.77,-355.66 484,-382.5 494.83,-388.53 507.11,-393.12 519.29,-396.61"/>
<polygon fill="midnightblue" stroke="midnightblue" points="375.2,-276.07 366.4,-270.18 369.6,-280.28 375.2,-276.07"/>
</g>
<!-- Node12 -->
<g id="node12" class="node">
<title>Node12</title>
<g id="a_node12"><a xlink:href="classdenoptim_1_1programs_1_1fitnessevaluator_1_1_fitness_runner.html" target="_top" xlink:title="Stand&#45;alone fitness provider.">
<polygon fill="white" stroke="black" points="501,-343.5 501,-373.5 673,-373.5 673,-343.5 501,-343.5"/>
<text text-anchor="start" x="509" y="-361.5" font-family="Helvetica,sans-Serif" font-size="10.00">denoptim.programs.fitnessevaluator.</text>
<text text-anchor="middle" x="587" y="-350.5" font-family="Helvetica,sans-Serif" font-size="10.00">FitnessRunner</text>
</a>
</g>
</g>
<!-- Node9&#45;&gt;Node12 -->
<g id="edge11" class="edge">
<title>Node9&#45;&gt;Node12</title>
<path fill="none" stroke="midnightblue" d="M381.41,-276.01C405.51,-292.43 445.91,-318.05 484,-333.5 493.29,-337.27 503.3,-340.57 513.29,-343.44"/>
<polygon fill="midnightblue" stroke="midnightblue" points="383.22,-273.01 373.01,-270.21 379.25,-278.77 383.22,-273.01"/>
</g>
<!-- Node13 -->
<g id="node13" class="node">
<title>Node13</title>
<g id="a_node13"><a xlink:href="classdenoptim_1_1programs_1_1fragmenter_1_1_fragmenter.html" target="_top" xlink:title="Tool to create fragments by chopping 2D/3D chemical structures.">
<polygon fill="white" stroke="black" points="512,-294.5 512,-324.5 662,-324.5 662,-294.5 512,-294.5"/>
<text text-anchor="start" x="520" y="-312.5" font-family="Helvetica,sans-Serif" font-size="10.00">denoptim.programs.fragmenter.</text>
<text text-anchor="middle" x="587" y="-301.5" font-family="Helvetica,sans-Serif" font-size="10.00">Fragmenter</text>
</a>
</g>
</g>
<!-- Node9&#45;&gt;Node13 -->
<g id="edge12" class="edge">
<title>Node9&#45;&gt;Node13</title>
<path fill="none" stroke="midnightblue" d="M413.55,-272.19C444.35,-278.86 483.27,-287.27 516.33,-294.43"/>
<polygon fill="midnightblue" stroke="midnightblue" points="413.95,-268.7 403.44,-270.01 412.47,-275.54 413.95,-268.7"/>
</g>
<!-- Node14 -->
<g id="node14" class="node">
<title>Node14</title>
<g id="a_node14"><a xlink:href="classdenoptim_1_1programs_1_1genetweeker_1_1_gene_ops_runner.html" target="_top" xlink:title="Tool to run genetic operations in a stand&#45;alone fashion, i.e., outside of a genetic algorithm run.">
<polygon fill="white" stroke="black" points="507.5,-245.5 507.5,-275.5 666.5,-275.5 666.5,-245.5 507.5,-245.5"/>
<text text-anchor="start" x="515.5" y="-263.5" font-family="Helvetica,sans-Serif" font-size="10.00">denoptim.programs.genetweeker.</text>
<text text-anchor="middle" x="587" y="-252.5" font-family="Helvetica,sans-Serif" font-size="10.00">GeneOpsRunner</text>
</a>
</g>
</g>
<!-- Node9&#45;&gt;Node14 -->
<g id="edge13" class="edge">
<title>Node9&#45;&gt;Node14</title>
<path fill="none" stroke="midnightblue" d="M437.9,-260.5C460.3,-260.5 484.71,-260.5 507.14,-260.5"/>
<polygon fill="midnightblue" stroke="midnightblue" points="437.76,-257 427.76,-260.5 437.76,-264 437.76,-257"/>
</g>
<!-- Node15 -->
<g id="node15" class="node">
<title>Node15</title>
<g id="a_node15"><a xlink:href="classdenoptim_1_1programs_1_1grapheditor_1_1_graph_editor.html" target="_top" xlink:title="Tool for editing DGraphs.">
<polygon fill="white" stroke="black" points="511,-196.5 511,-226.5 663,-226.5 663,-196.5 511,-196.5"/>
<text text-anchor="start" x="519" y="-214.5" font-family="Helvetica,sans-Serif" font-size="10.00">denoptim.programs.grapheditor.</text>
<text text-anchor="middle" x="587" y="-203.5" font-family="Helvetica,sans-Serif" font-size="10.00">GraphEditor</text>
</a>
</g>
</g>
<!-- Node9&#45;&gt;Node15 -->
<g id="edge14" class="edge">
<title>Node9&#45;&gt;Node15</title>
<path fill="none" stroke="midnightblue" d="M413.55,-248.81C444.35,-242.14 483.27,-233.73 516.33,-226.57"/>
<polygon fill="midnightblue" stroke="midnightblue" points="412.47,-245.46 403.44,-250.99 413.95,-252.3 412.47,-245.46"/>
</g>
<!-- Node16 -->
<g id="node16" class="node">
<title>Node16</title>
<g id="a_node16"><a xlink:href="classdenoptim_1_1programs_1_1graphlisthandler_1_1_graph_lists_handler.html" target="_top" xlink:title="Tool for handling lists of graphs.">
<polygon fill="white" stroke="black" points="501,-147.5 501,-177.5 673,-177.5 673,-147.5 501,-147.5"/>
<text text-anchor="start" x="509" y="-165.5" font-family="Helvetica,sans-Serif" font-size="10.00">denoptim.programs.graphlisthandler.</text>
<text text-anchor="middle" x="587" y="-154.5" font-family="Helvetica,sans-Serif" font-size="10.00">GraphListsHandler</text>
</a>
</g>
</g>
<!-- Node9&#45;&gt;Node16 -->
<g id="edge15" class="edge">
<title>Node9&#45;&gt;Node16</title>
<path fill="none" stroke="midnightblue" d="M380.96,-244.96C404.96,-228.26 445.54,-202.02 484,-186.5 492.35,-183.13 501.28,-180.16 510.27,-177.58"/>
<polygon fill="midnightblue" stroke="midnightblue" points="378.76,-242.23 372.61,-250.85 382.8,-247.95 378.76,-242.23"/>
</g>
<!-- Node17 -->
<g id="node17" class="node">
<title>Node17</title>
<g id="a_node17"><a xlink:href="classdenoptim_1_1programs_1_1isomorphism_1_1_isomorphism.html" target="_top" xlink:title="Tool to perform isomorphism analysis on DGraphs.">
<polygon fill="white" stroke="black" points="507.5,-98.5 507.5,-128.5 666.5,-128.5 666.5,-98.5 507.5,-98.5"/>
<text text-anchor="start" x="515.5" y="-116.5" font-family="Helvetica,sans-Serif" font-size="10.00">denoptim.programs.isomorphism.</text>
<text text-anchor="middle" x="587" y="-105.5" font-family="Helvetica,sans-Serif" font-size="10.00">Isomorphism</text>
</a>
</g>
</g>
<!-- Node9&#45;&gt;Node17 -->
<g id="edge16" class="edge">
<title>Node9&#45;&gt;Node17</title>
<path fill="none" stroke="midnightblue" d="M372.44,-242.49C392.92,-215.36 435.51,-164.32 484,-137.5 491.32,-133.45 499.31,-130.08 507.48,-127.28"/>
<polygon fill="midnightblue" stroke="midnightblue" points="369.49,-240.58 366.36,-250.71 375.12,-244.75 369.49,-240.58"/>
</g>
<!-- Node18 -->
<g id="node18" class="node">
<title>Node18</title>
<g id="a_node18"><a xlink:href="classdenoptim_1_1programs_1_1mol2graph_1_1_mol2_graph.html" target="_top" xlink:title="Tool for creating DGraphs from molecules.">
<polygon fill="white" stroke="black" points="512.5,-49.5 512.5,-79.5 661.5,-79.5 661.5,-49.5 512.5,-49.5"/>
<text text-anchor="start" x="520.5" y="-67.5" font-family="Helvetica,sans-Serif" font-size="10.00">denoptim.programs.mol2graph.</text>
<text text-anchor="middle" x="587" y="-56.5" font-family="Helvetica,sans-Serif" font-size="10.00">Mol2Graph</text>
</a>
</g>
</g>
<!-- Node9&#45;&gt;Node18 -->
<g id="edge17" class="edge">
<title>Node9&#45;&gt;Node18</title>
<path fill="none" stroke="midnightblue" d="M367.66,-241.52C384.11,-205.64 424.8,-127.94 484,-88.5 492.55,-82.8 502.3,-78.45 512.3,-75.13"/>
<polygon fill="midnightblue" stroke="midnightblue" points="364.38,-240.28 363.51,-250.84 370.77,-243.14 364.38,-240.28"/>
</g>
<!-- Node19 -->
<g id="node19" class="node">
<title>Node19</title>
<g id="a_node19"><a xlink:href="classdenoptim_1_1programs_1_1moldecularmodelbuilder_1_1_molecular_model_builder.html" target="_top" xlink:title="Builder of molecular models.">
<polygon fill="white" stroke="black" points="484,-0.5 484,-30.5 690,-30.5 690,-0.5 484,-0.5"/>
<text text-anchor="start" x="492" y="-18.5" font-family="Helvetica,sans-Serif" font-size="10.00">denoptim.programs.moldecularmodelbuilder.</text>
<text text-anchor="middle" x="587" y="-7.5" font-family="Helvetica,sans-Serif" font-size="10.00">MolecularModelBuilder</text>
</a>
</g>
</g>
<!-- Node9&#45;&gt;Node19 -->
<g id="edge18" class="edge">
<title>Node9&#45;&gt;Node19</title>
<path fill="none" stroke="midnightblue" d="M364.65,-241.03C377.19,-197.59 413.57,-92.42 484,-39.5 488.51,-36.11 493.42,-33.19 498.57,-30.68"/>
<polygon fill="midnightblue" stroke="midnightblue" points="361.27,-240.1 361.97,-250.67 368.02,-241.97 361.27,-240.1"/>
</g>
</g>
</svg>
        <g id="navigator" transform="translate(0 0)" fill="#404254">
                <rect fill="#f2f5e9" fill-opacity="0.5" stroke="#606060" stroke-width=".5" x="0" y="0" width="60" height="60"/>
                <use id="zoomplus" xlink:href="#zoomPlus" x="17" y="9" onmousedown="handleZoom(evt,'in')"/>
                <use id="zoomminus" xlink:href="#zoomMin" x="42" y="9" onmousedown="handleZoom(evt,'out')"/>
                <use id="reset" xlink:href="#resetDef" x="30" y="36" onmousedown="handleReset()"/>
                <g id="arrowUp" xlink:href="#dirArrow" transform="translate(30 24)" onmousedown="handlePan(0,-1)">
                  <use xlink:href="#rim" fill="#404040">
                        <set attributeName="fill" to="#808080" begin="arrowUp.mouseover" end="arrowUp.mouseout"/>
                  </use>
                  <path fill="none" stroke="white" stroke-width="1.5" d="M0,-3.0v7 M-2.5,-0.5L0,-3.0L2.5,-0.5"/>
                </g>
                <g id="arrowRight" xlink:href="#dirArrow" transform="rotate(90) translate(36 -43)" onmousedown="handlePan(1,0)">
                  <use xlink:href="#rim" fill="#404040">
                        <set attributeName="fill" to="#808080" begin="arrowRight.mouseover" end="arrowRight.mouseout"/>
                  </use>
                  <path fill="none" stroke="white" stroke-width="1.5" d="M0,-3.0v7 M-2.5,-0.5L0,-3.0L2.5,-0.5"/>
                </g>
                <g id="arrowDown" xlink:href="#dirArrow" transform="rotate(180) translate(-30 -48)" onmousedown="handlePan(0,1)">
                  <use xlink:href="#rim" fill="#404040">
                        <set attributeName="fill" to="#808080" begin="arrowDown.mouseover" end="arrowDown.mouseout"/>
                  </use>
                  <path fill="none" stroke="white" stroke-width="1.5" d="M0,-3.0v7 M-2.5,-0.5L0,-3.0L2.5,-0.5"/>
                </g>
                <g id="arrowLeft" xlink:href="#dirArrow" transform="rotate(270) translate(-36 17)" onmousedown="handlePan(-1,0)">
                  <use xlink:href="#rim" fill="#404040">
                        <set attributeName="fill" to="#808080" begin="arrowLeft.mouseover" end="arrowLeft.mouseout"/>
                  </use>
                  <path fill="none" stroke="white" stroke-width="1.5" d="M0,-3.0v7 M-2.5,-0.5L0,-3.0L2.5,-0.5"/>
                </g>
        </g>
        <svg viewBox="0 0 15 15" width="100%" height="30px" preserveAspectRatio="xMaxYMin meet">
         <g id="arrow_out" transform="scale(0.3 0.3)">
          <a xlink:href="classdenoptim_1_1task_1_1_task__inherit__graph_org.svg" target="_base">
           <rect id="button" ry="5" rx="5" y="6" x="6" height="38" width="38"
                fill="#f2f5e9" fill-opacity="0.5" stroke="#606060" stroke-width="1.0"/>
           <path id="arrow"
             d="M 11.500037,31.436501 C 11.940474,20.09759 22.043105,11.32322 32.158766,21.979434 L 37.068811,17.246167 C 37.068811,17.246167 37.088388,32 37.088388,32 L 22.160133,31.978069 C 22.160133,31.978069 26.997745,27.140456 26.997745,27.140456 C 18.528582,18.264221 13.291696,25.230495 11.500037,31.436501 z"
             style="fill:#404040;"/>
          </a>
         </g>
        </svg>
</svg>
