<?xml version="1.0" encoding="UTF-8" standalone="no"?>
<!DOCTYPE svg PUBLIC "-//W3C//DTD SVG 1.1//EN"
 "http://www.w3.org/Graphics/SVG/1.1/DTD/svg11.dtd">
<!-- Generated by graphviz version 3.0.0 (20221109.1736)
 -->
<!-- Title: denoptim.programs.grapheditor.GraphEdParameters.checkParameters Pages: 1 -->
<svg width="397pt" height="88pt"
 viewBox="0.00 0.00 397.00 88.00" xmlns="http://www.w3.org/2000/svg" xmlns:xlink="http://www.w3.org/1999/xlink">
<g id="graph0" class="graph" transform="scale(1 1) rotate(0) translate(4 84)">
<title>denoptim.programs.grapheditor.GraphEdParameters.checkParameters</title>
<polygon fill="white" stroke="transparent" points="-4,4 -4,-84 393,-84 393,4 -4,4"/>
<!-- Node1 -->
<g id="node1" class="node">
<title>Node1</title>
<g id="a_node1"><a xlink:title="Evaluate consistency of input parameters.">
<polygon fill="#bfbfbf" stroke="black" points="0,-24.5 0,-54.5 183,-54.5 183,-24.5 0,-24.5"/>
<text text-anchor="start" x="8" y="-42.5" font-family="Helvetica,sans-Serif" font-size="10.00">denoptim.programs.grapheditor.</text>
<text text-anchor="middle" x="91.5" y="-31.5" font-family="Helvetica,sans-Serif" font-size="10.00">GraphEdParameters.checkParameters</text>
</a>
</g>
</g>
<!-- Node2 -->
<g id="node2" class="node">
<title>Node2</title>
<g id="a_node2"><a xlink:href="classdenoptim_1_1files_1_1_file_utils.html#a16bc762b79f5033f2323fb8728593334" target="_top" xlink:title=" ">
<polygon fill="white" stroke="black" points="232.5,-49.5 232.5,-79.5 375.5,-79.5 375.5,-49.5 232.5,-49.5"/>
<text text-anchor="start" x="240.5" y="-67.5" font-family="Helvetica,sans-Serif" font-size="10.00">denoptim.files.FileUtils.check</text>
<text text-anchor="middle" x="304" y="-56.5" font-family="Helvetica,sans-Serif" font-size="10.00">Exists</text>
</a>
</g>
</g>
<!-- Node1&#45;&gt;Node2 -->
<g id="edge1" class="edge">
<title>Node1&#45;&gt;Node2</title>
<path fill="none" stroke="midnightblue" d="M183.3,-50.28C196.29,-51.83 209.59,-53.41 222.37,-54.92"/>
<polygon fill="midnightblue" stroke="midnightblue" points="222.15,-58.42 232.49,-56.13 222.98,-51.47 222.15,-58.42"/>
</g>
<!-- Node3 -->
<g id="node3" class="node">
<title>Node3</title>
<g id="a_node3"><a xlink:href="classdenoptim_1_1programs_1_1_run_time_parameters.html#aaeaf94275f1b63439850a68a244a74c2" target="_top" xlink:title="Checks any of the parameter collections contained in this instance.">
<polygon fill="white" stroke="black" points="219,-0.5 219,-30.5 389,-30.5 389,-0.5 219,-0.5"/>
<text text-anchor="start" x="227" y="-18.5" font-family="Helvetica,sans-Serif" font-size="10.00">denoptim.programs.RunTime</text>
<text text-anchor="middle" x="304" y="-7.5" font-family="Helvetica,sans-Serif" font-size="10.00">Parameters.checkOtherParameters</text>
</a>
</g>
</g>
<!-- Node1&#45;&gt;Node3 -->
<g id="edge2" class="edge">
<title>Node1&#45;&gt;Node3</title>
<path fill="none" stroke="midnightblue" d="M183.3,-29.15C191.68,-28.19 200.19,-27.22 208.61,-26.26"/>
<polygon fill="midnightblue" stroke="midnightblue" points="209.28,-29.71 218.82,-25.1 208.48,-22.75 209.28,-29.71"/>
</g>
</g>
</svg>
