<?xml version="1.0" encoding="UTF-8" standalone="no"?>
<!DOCTYPE svg PUBLIC "-//W3C//DTD SVG 1.1//EN"
 "http://www.w3.org/Graphics/SVG/1.1/DTD/svg11.dtd">
<!-- Generated by graphviz version 3.0.0 (20221109.1736)
 -->
<!-- Title: denoptim.gui.FitnessParametersForm.setVisibilityAccordingToFitnessProviderSelection Pages: 1 -->
<svg width="378pt" height="88pt"
 viewBox="0.00 0.00 378.00 88.00" xmlns="http://www.w3.org/2000/svg" xmlns:xlink="http://www.w3.org/1999/xlink">
<g id="graph0" class="graph" transform="scale(1 1) rotate(0) translate(4 84)">
<title>denoptim.gui.FitnessParametersForm.setVisibilityAccordingToFitnessProviderSelection</title>
<polygon fill="white" stroke="transparent" points="-4,4 -4,-84 374,-84 374,4 -4,4"/>
<!-- Node1 -->
<g id="node1" class="node">
<title>Node1</title>
<g id="a_node1"><a xlink:title=" ">
<polygon fill="#bfbfbf" stroke="black" points="192,-19 192,-60 370,-60 370,-19 192,-19"/>
<text text-anchor="start" x="200" y="-48" font-family="Helvetica,sans-Serif" font-size="10.00">denoptim.gui.FitnessParameters</text>
<text text-anchor="start" x="200" y="-37" font-family="Helvetica,sans-Serif" font-size="10.00">Form.setVisibilityAccordingToFitness</text>
<text text-anchor="middle" x="281" y="-26" font-family="Helvetica,sans-Serif" font-size="10.00">ProviderSelection</text>
</a>
</g>
</g>
<!-- Node2 -->
<g id="node2" class="node">
<title>Node2</title>
<g id="a_node2"><a xlink:href="classdenoptim_1_1gui_1_1_fitness_parameters_form.html#ab793673b4dda4f92b453696f48e65f61" target="_top" xlink:title="Overwritten by subclasses.">
<polygon fill="white" stroke="black" points="0,-49.5 0,-79.5 156,-79.5 156,-49.5 0,-49.5"/>
<text text-anchor="start" x="8" y="-67.5" font-family="Helvetica,sans-Serif" font-size="10.00">denoptim.gui.FitnessParameters</text>
<text text-anchor="middle" x="78" y="-56.5" font-family="Helvetica,sans-Serif" font-size="10.00">Form.adaptVisibility</text>
</a>
</g>
</g>
<!-- Node1&#45;&gt;Node2 -->
<g id="edge1" class="edge">
<title>Node1&#45;&gt;Node2</title>
<path fill="none" stroke="midnightblue" d="M181.74,-51.72C173.12,-52.79 164.47,-53.87 156.06,-54.92"/>
<polygon fill="midnightblue" stroke="midnightblue" points="182.35,-55.17 191.84,-50.47 181.48,-48.23 182.35,-55.17"/>
</g>
<!-- Node3 -->
<g id="node3" class="node">
<title>Node3</title>
<g id="a_node3"><a xlink:href="classdenoptim_1_1gui_1_1_fitness_parameters_form.html#a989880b9075bcb6124c36a444731b6a9" target="_top" xlink:title=" ">
<polygon fill="white" stroke="black" points="0,-0.5 0,-30.5 156,-30.5 156,-0.5 0,-0.5"/>
<text text-anchor="start" x="8" y="-18.5" font-family="Helvetica,sans-Serif" font-size="10.00">denoptim.gui.FitnessParameters</text>
<text text-anchor="middle" x="78" y="-7.5" font-family="Helvetica,sans-Serif" font-size="10.00">Form.FitnessParametersForm</text>
</a>
</g>
</g>
<!-- Node1&#45;&gt;Node3 -->
<g id="edge2" class="edge">
<title>Node1&#45;&gt;Node3</title>
<path fill="none" stroke="midnightblue" d="M181.74,-27.77C173.12,-26.74 164.47,-25.71 156.06,-24.7"/>
<polygon fill="midnightblue" stroke="midnightblue" points="181.49,-31.26 191.84,-28.97 182.32,-24.31 181.49,-31.26"/>
</g>
</g>
</svg>
