<?xml version="1.0" encoding="UTF-8" standalone="no"?>
<!DOCTYPE svg PUBLIC "-//W3C//DTD SVG 1.1//EN"
 "http://www.w3.org/Graphics/SVG/1.1/DTD/svg11.dtd">
<!-- Generated by graphviz version 3.0.0 (20221109.1736)
 -->
<!-- Title: denoptim.ga.GraphOperations.addFusedRing Pages: 1 -->
<svg width="1467pt" height="979pt"
 viewBox="0.00 0.00 1467.00 979.00" xmlns="http://www.w3.org/2000/svg" xmlns:xlink="http://www.w3.org/1999/xlink">
<g id="graph0" class="graph" transform="scale(1 1) rotate(0) translate(4 975)">
<title>denoptim.ga.GraphOperations.addFusedRing</title>
<polygon fill="white" stroke="transparent" points="-4,4 -4,-975 1463,-975 1463,4 -4,4"/>
<!-- Node1 -->
<g id="node1" class="node">
<title>Node1</title>
<g id="a_node1"><a xlink:title="Tries to add a fused ring using a pair of free APs, one of which on the given vertex.">
<polygon fill="#bfbfbf" stroke="black" points="0,-419.5 0,-449.5 163,-449.5 163,-419.5 0,-419.5"/>
<text text-anchor="start" x="8" y="-437.5" font-family="Helvetica,sans-Serif" font-size="10.00">denoptim.ga.GraphOperations.add</text>
<text text-anchor="middle" x="81.5" y="-426.5" font-family="Helvetica,sans-Serif" font-size="10.00">FusedRing</text>
</a>
</g>
</g>
<!-- Node2 -->
<g id="node2" class="node">
<title>Node2</title>
<g id="a_node2"><a xlink:href="classdenoptim_1_1graph_1_1_d_graph.html#ad16255987a45bace2ef62f2b49e0d873" target="_top" xlink:title=" ">
<polygon fill="white" stroke="black" points="208,-892 208,-911 363,-911 363,-892 208,-892"/>
<text text-anchor="middle" x="285.5" y="-899" font-family="Helvetica,sans-Serif" font-size="10.00">denoptim.graph.DGraph.addRing</text>
</a>
</g>
</g>
<!-- Node1&#45;&gt;Node2 -->
<g id="edge1" class="edge">
<title>Node1&#45;&gt;Node2</title>
<path fill="none" stroke="midnightblue" d="M84.35,-449.86C93.25,-521.23 133.94,-819.72 199,-882.5 200.48,-883.93 202.04,-885.25 203.66,-886.49"/>
<polygon fill="midnightblue" stroke="midnightblue" points="202,-889.58 212.32,-891.94 205.73,-883.65 202,-889.58"/>
</g>
<!-- Node3 -->
<g id="node3" class="node">
<title>Node3</title>
<g id="a_node3"><a xlink:href="classdenoptim_1_1graph_1_1_d_graph.html#a641d9078c27d992053500e12cec0049d" target="_top" xlink:title="Append a vertex to this graph: adds the new vertex to the list of vertices belonging to the graph,...">
<polygon fill="white" stroke="black" points="209.5,-842.5 209.5,-872.5 361.5,-872.5 361.5,-842.5 209.5,-842.5"/>
<text text-anchor="start" x="217.5" y="-860.5" font-family="Helvetica,sans-Serif" font-size="10.00">denoptim.graph.DGraph.append</text>
<text text-anchor="middle" x="285.5" y="-849.5" font-family="Helvetica,sans-Serif" font-size="10.00">VertexOnAP</text>
</a>
</g>
</g>
<!-- Node1&#45;&gt;Node3 -->
<g id="edge2" class="edge">
<title>Node1&#45;&gt;Node3</title>
<path fill="none" stroke="midnightblue" d="M82.46,-449.54C83.14,-506.58 93.14,-712.12 199,-825.5 203.33,-830.14 208.4,-834.11 213.86,-837.5"/>
<polygon fill="midnightblue" stroke="midnightblue" points="212.29,-840.63 222.73,-842.39 215.66,-834.5 212.29,-840.63"/>
</g>
<!-- Node14 -->
<g id="node14" class="node">
<title>Node14</title>
<g id="a_node14"><a xlink:href="classdenoptim_1_1graph_1_1_vertex.html#a05e1f8f3d4595534fb18c8d6b7e4a82d" target="_top" xlink:title="Returns a deep&#45;copy of this vertex.">
<polygon fill="white" stroke="black" points="442.5,-520 442.5,-539 580.5,-539 580.5,-520 442.5,-520"/>
<text text-anchor="middle" x="511.5" y="-527" font-family="Helvetica,sans-Serif" font-size="10.00">denoptim.graph.Vertex.clone</text>
</a>
</g>
</g>
<!-- Node1&#45;&gt;Node14 -->
<g id="edge13" class="edge">
<title>Node1&#45;&gt;Node14</title>
<path fill="none" stroke="midnightblue" d="M114.45,-449.72C137.48,-460.11 169.56,-473.41 199,-481.5 277,-502.94 368.8,-515.62 432.45,-522.51"/>
<polygon fill="midnightblue" stroke="midnightblue" points="432.1,-526 442.41,-523.57 432.84,-519.04 432.1,-526"/>
</g>
<!-- Node15 -->
<g id="node15" class="node">
<title>Node15</title>
<g id="a_node15"><a xlink:href="classdenoptim_1_1fragmenter_1_1_bridge_head_finding_rule.html#a9cbfd024a5de3f803a1626df322f3ce5" target="_top" xlink:title=" ">
<polygon fill="white" stroke="black" points="201,-305 201,-346 370,-346 370,-305 201,-305"/>
<text text-anchor="start" x="209" y="-334" font-family="Helvetica,sans-Serif" font-size="10.00">denoptim.fragmenter.Bridge</text>
<text text-anchor="start" x="209" y="-323" font-family="Helvetica,sans-Serif" font-size="10.00">HeadFindingRule.getAllowedBridge</text>
<text text-anchor="middle" x="285.5" y="-312" font-family="Helvetica,sans-Serif" font-size="10.00">Length</text>
</a>
</g>
</g>
<!-- Node1&#45;&gt;Node15 -->
<g id="edge14" class="edge">
<title>Node1&#45;&gt;Node15</title>
<path fill="none" stroke="midnightblue" d="M103.72,-419.4C126.56,-403.53 164.31,-378.44 199,-360.5 205.91,-356.93 213.28,-353.45 220.67,-350.16"/>
<polygon fill="midnightblue" stroke="midnightblue" points="222.24,-353.3 230.02,-346.11 219.46,-346.87 222.24,-353.3"/>
</g>
<!-- Node16 -->
<g id="node16" class="node">
<title>Node16</title>
<g id="a_node16"><a xlink:href="classdenoptim_1_1graph_1_1_vertex.html#aee39019987712f9784138e97917ac97f" target="_top" xlink:title="Get attachment point i on this vertex.">
<polygon fill="white" stroke="black" points="877.5,-389 877.5,-408 1019.5,-408 1019.5,-389 877.5,-389"/>
<text text-anchor="middle" x="948.5" y="-396" font-family="Helvetica,sans-Serif" font-size="10.00">denoptim.graph.Vertex.getAP</text>
</a>
</g>
</g>
<!-- Node1&#45;&gt;Node16 -->
<g id="edge15" class="edge">
<title>Node1&#45;&gt;Node16</title>
<path fill="none" stroke="midnightblue" d="M163.03,-427.76C228.87,-422.51 324.39,-415.46 408,-411.5 570.8,-403.79 761.46,-400.56 866.95,-399.27"/>
<polygon fill="midnightblue" stroke="midnightblue" points="867.24,-402.77 877.2,-399.15 867.16,-395.77 867.24,-402.77"/>
</g>
<!-- Node18 -->
<g id="node18" class="node">
<title>Node18</title>
<g id="a_node18"><a xlink:href="classdenoptim_1_1graph_1_1_vertex.html#a1216cb8f6b46cacde0ed8edf0b6e8b16" target="_top" xlink:title="Finds only APs that have APClass starting with the given string.">
<polygon fill="white" stroke="black" points="875.5,-339.5 875.5,-369.5 1021.5,-369.5 1021.5,-339.5 875.5,-339.5"/>
<text text-anchor="start" x="883.5" y="-357.5" font-family="Helvetica,sans-Serif" font-size="10.00">denoptim.graph.Vertex.get</text>
<text text-anchor="middle" x="948.5" y="-346.5" font-family="Helvetica,sans-Serif" font-size="10.00">APsWithAPClassStartingWith</text>
</a>
</g>
</g>
<!-- Node1&#45;&gt;Node18 -->
<g id="edge17" class="edge">
<title>Node1&#45;&gt;Node18</title>
<path fill="none" stroke="midnightblue" d="M147.86,-419.5C164.47,-416.11 182.33,-412.83 199,-410.5 439.79,-376.83 727.19,-362.49 865.35,-357.19"/>
<polygon fill="midnightblue" stroke="midnightblue" points="865.58,-360.69 875.44,-356.81 865.31,-353.69 865.58,-360.69"/>
</g>
<!-- Node19 -->
<g id="node19" class="node">
<title>Node19</title>
<g id="a_node19"><a xlink:href="classdenoptim_1_1fragmenter_1_1_bridge_head_finding_rule.html#a6187cdb033f312dd594cd4b3a648000e" target="_top" xlink:title=" ">
<polygon fill="white" stroke="black" points="201.5,-245 201.5,-286 369.5,-286 369.5,-245 201.5,-245"/>
<text text-anchor="start" x="209.5" y="-274" font-family="Helvetica,sans-Serif" font-size="10.00">denoptim.fragmenter.Bridge</text>
<text text-anchor="start" x="209.5" y="-263" font-family="Helvetica,sans-Serif" font-size="10.00">HeadFindingRule.getExistingBridge</text>
<text text-anchor="middle" x="285.5" y="-252" font-family="Helvetica,sans-Serif" font-size="10.00">Length</text>
</a>
</g>
</g>
<!-- Node1&#45;&gt;Node19 -->
<g id="edge19" class="edge">
<title>Node1&#45;&gt;Node19</title>
<path fill="none" stroke="midnightblue" d="M91.38,-419.23C108.61,-390.89 149.29,-329.9 199,-295.5 201.36,-293.86 203.83,-292.31 206.36,-290.83"/>
<polygon fill="midnightblue" stroke="midnightblue" points="208.05,-293.9 215.22,-286.1 204.75,-287.72 208.05,-293.9"/>
</g>
<!-- Node20 -->
<g id="node20" class="node">
<title>Node20</title>
<g id="a_node20"><a xlink:href="classdenoptim_1_1graph_1_1rings_1_1_ring_closure_parameters.html#a870b2456fe1fefeae6b8411d2febadf6" target="_top" xlink:title=" ">
<polygon fill="white" stroke="black" points="199.5,-196.5 199.5,-226.5 371.5,-226.5 371.5,-196.5 199.5,-196.5"/>
<text text-anchor="start" x="207.5" y="-214.5" font-family="Helvetica,sans-Serif" font-size="10.00">denoptim.graph.rings.Ring</text>
<text text-anchor="middle" x="285.5" y="-203.5" font-family="Helvetica,sans-Serif" font-size="10.00">ClosureParameters.getMaxRingSize</text>
</a>
</g>
</g>
<!-- Node1&#45;&gt;Node20 -->
<g id="edge20" class="edge">
<title>Node1&#45;&gt;Node20</title>
<path fill="none" stroke="midnightblue" d="M86.97,-419.38C98.76,-382.14 134.35,-285.41 199,-235.5 200.78,-234.12 202.64,-232.82 204.57,-231.6"/>
<polygon fill="midnightblue" stroke="midnightblue" points="206.31,-234.63 213.33,-226.7 202.89,-228.52 206.31,-234.63"/>
</g>
<!-- Node21 -->
<g id="node21" class="node">
<title>Node21</title>
<g id="a_node21"><a xlink:href="classdenoptim_1_1graph_1_1_d_graph.html#a372132d7440bb35316e635944b9ac18b" target="_top" xlink:title=" ">
<polygon fill="white" stroke="black" points="218.5,-147.5 218.5,-177.5 352.5,-177.5 352.5,-147.5 218.5,-147.5"/>
<text text-anchor="start" x="226.5" y="-165.5" font-family="Helvetica,sans-Serif" font-size="10.00">denoptim.graph.DGraph.get</text>
<text text-anchor="middle" x="285.5" y="-154.5" font-family="Helvetica,sans-Serif" font-size="10.00">MaxVertexId</text>
</a>
</g>
</g>
<!-- Node1&#45;&gt;Node21 -->
<g id="edge21" class="edge">
<title>Node1&#45;&gt;Node21</title>
<path fill="none" stroke="midnightblue" d="M85.11,-419.3C93.35,-375.99 122.95,-250.9 199,-186.5 202.09,-183.88 205.44,-181.55 208.98,-179.48"/>
<polygon fill="midnightblue" stroke="midnightblue" points="210.77,-182.49 218.08,-174.81 207.58,-176.26 210.77,-182.49"/>
</g>
<!-- Node22 -->
<g id="node22" class="node">
<title>Node22</title>
<g id="a_node22"><a xlink:href="classdenoptim_1_1programs_1_1_run_time_parameters.html#a4da800dd8e739b91dbf8b4b960ee2e51" target="_top" xlink:title=" ">
<polygon fill="white" stroke="black" points="441.5,-656.5 441.5,-686.5 581.5,-686.5 581.5,-656.5 441.5,-656.5"/>
<text text-anchor="start" x="449.5" y="-674.5" font-family="Helvetica,sans-Serif" font-size="10.00">denoptim.programs.RunTime</text>
<text text-anchor="middle" x="511.5" y="-663.5" font-family="Helvetica,sans-Serif" font-size="10.00">Parameters.getParameters</text>
</a>
</g>
</g>
<!-- Node1&#45;&gt;Node22 -->
<g id="edge22" class="edge">
<title>Node1&#45;&gt;Node22</title>
<path fill="none" stroke="midnightblue" d="M91.83,-449.66C109.5,-477.2 150.47,-535.72 199,-569.5 269.3,-618.43 364.63,-645.08 431.24,-658.74"/>
<polygon fill="midnightblue" stroke="midnightblue" points="430.77,-662.22 441.26,-660.74 432.14,-655.35 430.77,-662.22"/>
</g>
<!-- Node23 -->
<g id="node23" class="node">
<title>Node23</title>
<g id="a_node23"><a xlink:href="classdenoptim_1_1graph_1_1_vertex.html#a9ad275adf822019ad803cb3c95e9a6d2" target="_top" xlink:title=" ">
<polygon fill="white" stroke="black" points="221.5,-98.5 221.5,-128.5 349.5,-128.5 349.5,-98.5 221.5,-98.5"/>
<text text-anchor="start" x="229.5" y="-116.5" font-family="Helvetica,sans-Serif" font-size="10.00">denoptim.graph.Vertex.get</text>
<text text-anchor="middle" x="285.5" y="-105.5" font-family="Helvetica,sans-Serif" font-size="10.00">Property</text>
</a>
</g>
</g>
<!-- Node1&#45;&gt;Node23 -->
<g id="edge23" class="edge">
<title>Node1&#45;&gt;Node23</title>
<path fill="none" stroke="midnightblue" d="M83.82,-419.22C88.85,-370.41 111.3,-216.83 199,-137.5 202.9,-133.97 207.28,-130.96 211.95,-128.38"/>
<polygon fill="midnightblue" stroke="midnightblue" points="213.7,-131.42 221.21,-123.95 210.68,-125.11 213.7,-131.42"/>
</g>
<!-- Node24 -->
<g id="node24" class="node">
<title>Node24</title>
<g id="a_node24"><a xlink:href="classdenoptim_1_1graph_1_1rings_1_1_ring_closure_parameters.html#acdf341e881017a9a66c9ece740b6d511" target="_top" xlink:title=" ">
<polygon fill="white" stroke="black" points="199,-49.5 199,-79.5 372,-79.5 372,-49.5 199,-49.5"/>
<text text-anchor="start" x="207" y="-67.5" font-family="Helvetica,sans-Serif" font-size="10.00">denoptim.graph.rings.Ring</text>
<text text-anchor="middle" x="285.5" y="-56.5" font-family="Helvetica,sans-Serif" font-size="10.00">ClosureParameters.getRingSizeBias</text>
</a>
</g>
</g>
<!-- Node1&#45;&gt;Node24 -->
<g id="edge24" class="edge">
<title>Node1&#45;&gt;Node24</title>
<path fill="none" stroke="midnightblue" d="M82.85,-419.45C84.91,-365.97 99.29,-183.24 199,-88.5 200.12,-87.44 201.28,-86.42 202.48,-85.45"/>
<polygon fill="midnightblue" stroke="midnightblue" points="204.63,-88.22 210.89,-79.66 200.67,-82.45 204.63,-88.22"/>
</g>
<!-- Node25 -->
<g id="node25" class="node">
<title>Node25</title>
<g id="a_node25"><a xlink:href="classdenoptim_1_1ga_1_1_e_a_utils.html#a45c14d56750003f61e1b056649fc27eb" target="_top" xlink:title="Finds all vertexes that can be used as aliphatic bridge.">
<polygon fill="white" stroke="black" points="210,-529.5 210,-559.5 361,-559.5 361,-529.5 210,-529.5"/>
<text text-anchor="start" x="218" y="-547.5" font-family="Helvetica,sans-Serif" font-size="10.00">denoptim.ga.EAUtils.getUsable</text>
<text text-anchor="middle" x="285.5" y="-536.5" font-family="Helvetica,sans-Serif" font-size="10.00">AliphaticBridges</text>
</a>
</g>
</g>
<!-- Node1&#45;&gt;Node25 -->
<g id="edge25" class="edge">
<title>Node1&#45;&gt;Node25</title>
<path fill="none" stroke="midnightblue" d="M101.3,-449.75C123.56,-467.22 162.24,-495.85 199,-514.5 207.14,-518.63 215.98,-522.43 224.79,-525.83"/>
<polygon fill="midnightblue" stroke="midnightblue" points="223.7,-529.17 234.29,-529.37 226.14,-522.6 223.7,-529.17"/>
</g>
<!-- Node31 -->
<g id="node31" class="node">
<title>Node31</title>
<g id="a_node31"><a xlink:href="classdenoptim_1_1ga_1_1_e_a_utils.html#ac1667360632fbbc574ae036349cc481d" target="_top" xlink:title="Finds all vertexes that can be used as aromatic bridge, i.e., can be used to create an aromatic ring ...">
<polygon fill="white" stroke="black" points="210,-441.5 210,-471.5 361,-471.5 361,-441.5 210,-441.5"/>
<text text-anchor="start" x="218" y="-459.5" font-family="Helvetica,sans-Serif" font-size="10.00">denoptim.ga.EAUtils.getUsable</text>
<text text-anchor="middle" x="285.5" y="-448.5" font-family="Helvetica,sans-Serif" font-size="10.00">AromaticBridges</text>
</a>
</g>
</g>
<!-- Node1&#45;&gt;Node31 -->
<g id="edge33" class="edge">
<title>Node1&#45;&gt;Node31</title>
<path fill="none" stroke="midnightblue" d="M163.21,-443.29C175.23,-444.6 187.65,-445.95 199.75,-447.27"/>
<polygon fill="midnightblue" stroke="midnightblue" points="199.5,-450.76 209.82,-448.37 200.26,-443.8 199.5,-450.76"/>
</g>
<!-- Node33 -->
<g id="node33" class="node">
<title>Node33</title>
<g id="a_node33"><a xlink:href="classdenoptim_1_1utils_1_1_randomizer.html#a110f1f5570f2ccd121a19d7df730e5fd" target="_top" xlink:title="Returns the next pseudo&#45;random, uniformly distributed boolean value from this random number generator...">
<polygon fill="white" stroke="black" points="436.5,-754.5 436.5,-784.5 586.5,-784.5 586.5,-754.5 436.5,-754.5"/>
<text text-anchor="start" x="444.5" y="-772.5" font-family="Helvetica,sans-Serif" font-size="10.00">denoptim.utils.Randomizer.next</text>
<text text-anchor="middle" x="511.5" y="-761.5" font-family="Helvetica,sans-Serif" font-size="10.00">Boolean</text>
</a>
</g>
</g>
<!-- Node1&#45;&gt;Node33 -->
<g id="edge37" class="edge">
<title>Node1&#45;&gt;Node33</title>
<path fill="none" stroke="midnightblue" d="M83.7,-449.53C88.4,-497.45 109.95,-647.67 199,-718.5 262.84,-769.28 357.76,-778.25 426.03,-776.86"/>
<polygon fill="midnightblue" stroke="midnightblue" points="426.43,-780.35 436.33,-776.57 426.23,-773.35 426.43,-780.35"/>
</g>
<!-- Node38 -->
<g id="node38" class="node">
<title>Node38</title>
<g id="a_node38"><a xlink:href="classdenoptim_1_1utils_1_1_randomizer.html#a1ac7cea6bdf732a6dd69f1a83e591ed5" target="_top" xlink:title="Chooses one member among the given collection.">
<polygon fill="white" stroke="black" points="200,-785.5 200,-815.5 371,-815.5 371,-785.5 200,-785.5"/>
<text text-anchor="start" x="208" y="-803.5" font-family="Helvetica,sans-Serif" font-size="10.00">denoptim.utils.Randomizer.randomly</text>
<text text-anchor="middle" x="285.5" y="-792.5" font-family="Helvetica,sans-Serif" font-size="10.00">ChooseOne</text>
</a>
</g>
</g>
<!-- Node1&#45;&gt;Node38 -->
<g id="edge43" class="edge">
<title>Node1&#45;&gt;Node38</title>
<path fill="none" stroke="midnightblue" d="M84.1,-449.52C90.11,-499.07 115.41,-659.66 199,-755.5 208.05,-765.88 220.09,-774.22 232.26,-780.78"/>
<polygon fill="midnightblue" stroke="midnightblue" points="231.05,-784.08 241.55,-785.44 234.19,-777.83 231.05,-784.08"/>
</g>
<!-- Node40 -->
<g id="node40" class="node">
<title>Node40</title>
<g id="a_node40"><a xlink:href="classdenoptim_1_1ga_1_1_e_a_utils.html#a6931f6dd235b0cf3c2fe974797e24857" target="_top" xlink:title=" ">
<polygon fill="white" stroke="black" points="217.5,-660.5 217.5,-690.5 353.5,-690.5 353.5,-660.5 217.5,-660.5"/>
<text text-anchor="start" x="225.5" y="-678.5" font-family="Helvetica,sans-Serif" font-size="10.00">denoptim.ga.EAUtils.search</text>
<text text-anchor="middle" x="285.5" y="-667.5" font-family="Helvetica,sans-Serif" font-size="10.00">RingFusionSites</text>
</a>
</g>
</g>
<!-- Node1&#45;&gt;Node40 -->
<g id="edge47" class="edge">
<title>Node1&#45;&gt;Node40</title>
<path fill="none" stroke="midnightblue" d="M89.32,-449.55C104.99,-482.94 146.3,-564.54 199,-618.5 212.99,-632.82 231.14,-645.54 247.12,-655.31"/>
<polygon fill="midnightblue" stroke="midnightblue" points="245.35,-658.33 255.74,-660.42 248.92,-652.31 245.35,-658.33"/>
</g>
<!-- Node42 -->
<g id="node42" class="node">
<title>Node42</title>
<g id="a_node42"><a xlink:href="classdenoptim_1_1graph_1_1_vertex.html#a29e20c43a6110fbaac6cc86c216fe143" target="_top" xlink:title=" ">
<polygon fill="white" stroke="black" points="221.5,-0.5 221.5,-30.5 349.5,-30.5 349.5,-0.5 221.5,-0.5"/>
<text text-anchor="start" x="229.5" y="-18.5" font-family="Helvetica,sans-Serif" font-size="10.00">denoptim.graph.Vertex.set</text>
<text text-anchor="middle" x="285.5" y="-7.5" font-family="Helvetica,sans-Serif" font-size="10.00">VertexId</text>
</a>
</g>
</g>
<!-- Node1&#45;&gt;Node42 -->
<g id="edge52" class="edge">
<title>Node1&#45;&gt;Node42</title>
<path fill="none" stroke="midnightblue" d="M82.12,-419.42C81.5,-361.33 87.3,-149.74 199,-39.5 202.81,-35.74 207.16,-32.56 211.84,-29.86"/>
<polygon fill="midnightblue" stroke="midnightblue" points="213.74,-32.83 221.17,-25.27 210.65,-26.55 213.74,-32.83"/>
</g>
<!-- Node4 -->
<g id="node4" class="node">
<title>Node4</title>
<g id="a_node4"><a xlink:href="classdenoptim_1_1graph_1_1_d_graph.html#aedfe0dc03ea1250a9944fcd30a888fa1" target="_top" xlink:title="Adds the edge to the list of edges belonging to this graph.">
<polygon fill="white" stroke="black" points="432.5,-941 432.5,-960 590.5,-960 590.5,-941 432.5,-941"/>
<text text-anchor="middle" x="511.5" y="-948" font-family="Helvetica,sans-Serif" font-size="10.00">denoptim.graph.DGraph.addEdge</text>
</a>
</g>
</g>
<!-- Node3&#45;&gt;Node4 -->
<g id="edge3" class="edge">
<title>Node3&#45;&gt;Node4</title>
<path fill="none" stroke="midnightblue" d="M353.82,-872.51C360.24,-875.3 366.43,-878.6 372,-882.5 394.14,-898 385.11,-917.14 408,-931.5 412.65,-934.42 417.63,-936.91 422.81,-939.03"/>
<polygon fill="midnightblue" stroke="midnightblue" points="421.7,-942.36 432.3,-942.48 424.09,-935.78 421.7,-942.36"/>
</g>
<!-- Node5 -->
<g id="node5" class="node">
<title>Node5</title>
<g id="a_node5"><a xlink:href="classdenoptim_1_1graph_1_1_d_graph.html#a33a3299b77560786461345412d2fe193" target="_top" xlink:title="Appends a vertex to this graph without creating any edge.">
<polygon fill="white" stroke="black" points="443.5,-891.5 443.5,-921.5 579.5,-921.5 579.5,-891.5 443.5,-891.5"/>
<text text-anchor="start" x="451.5" y="-909.5" font-family="Helvetica,sans-Serif" font-size="10.00">denoptim.graph.DGraph.add</text>
<text text-anchor="middle" x="511.5" y="-898.5" font-family="Helvetica,sans-Serif" font-size="10.00">Vertex</text>
</a>
</g>
</g>
<!-- Node3&#45;&gt;Node5 -->
<g id="edge4" class="edge">
<title>Node3&#45;&gt;Node5</title>
<path fill="none" stroke="midnightblue" d="M355.23,-872.53C379.98,-877.95 408.06,-884.09 433.47,-889.65"/>
<polygon fill="midnightblue" stroke="midnightblue" points="432.92,-893.11 443.44,-891.83 434.42,-886.27 432.92,-893.11"/>
</g>
<!-- Node8 -->
<g id="node8" class="node">
<title>Node8</title>
<g id="a_node8"><a xlink:href="classdenoptim_1_1io_1_1_denoptim_i_o.html#ab38de9f2630baab2d129b844b6968060" target="_top" xlink:title="Writes the graph to JSON file.">
<polygon fill="white" stroke="black" points="440,-842.5 440,-872.5 583,-872.5 583,-842.5 440,-842.5"/>
<text text-anchor="start" x="448" y="-860.5" font-family="Helvetica,sans-Serif" font-size="10.00">denoptim.io.DenoptimIO.write</text>
<text text-anchor="middle" x="511.5" y="-849.5" font-family="Helvetica,sans-Serif" font-size="10.00">GraphToJSON</text>
</a>
</g>
</g>
<!-- Node3&#45;&gt;Node8 -->
<g id="edge7" class="edge">
<title>Node3&#45;&gt;Node8</title>
<path fill="none" stroke="midnightblue" d="M361.71,-857.5C383.54,-857.5 407.45,-857.5 429.61,-857.5"/>
<polygon fill="midnightblue" stroke="midnightblue" points="429.65,-861 439.65,-857.5 429.65,-854 429.65,-861"/>
</g>
<!-- Node6 -->
<g id="node6" class="node">
<title>Node6</title>
<g id="a_node6"><a xlink:href="classdenoptim_1_1graph_1_1_d_graph.html#a28d94625c4fae66625b3061f0361e959" target="_top" xlink:title="Checks if a number is already used as VertexIDs within the graph.">
<polygon fill="white" stroke="black" points="656,-891.5 656,-921.5 813,-921.5 813,-891.5 656,-891.5"/>
<text text-anchor="start" x="664" y="-909.5" font-family="Helvetica,sans-Serif" font-size="10.00">denoptim.graph.DGraph.contains</text>
<text text-anchor="middle" x="734.5" y="-898.5" font-family="Helvetica,sans-Serif" font-size="10.00">VertexID</text>
</a>
</g>
</g>
<!-- Node5&#45;&gt;Node6 -->
<g id="edge5" class="edge">
<title>Node5&#45;&gt;Node6</title>
<path fill="none" stroke="midnightblue" d="M579.71,-906.5C600.52,-906.5 623.77,-906.5 645.76,-906.5"/>
<polygon fill="midnightblue" stroke="midnightblue" points="645.76,-910 655.76,-906.5 645.76,-903 645.76,-910"/>
</g>
<!-- Node7 -->
<g id="node7" class="node">
<title>Node7</title>
<g id="a_node7"><a xlink:href="classdenoptim_1_1graph_1_1_d_graph.html#abc9d9eae901e1e868183f8bdaca13aea" target="_top" xlink:title=" ">
<polygon fill="white" stroke="black" points="667.5,-940.5 667.5,-970.5 801.5,-970.5 801.5,-940.5 667.5,-940.5"/>
<text text-anchor="start" x="675.5" y="-958.5" font-family="Helvetica,sans-Serif" font-size="10.00">denoptim.graph.DGraph.get</text>
<text text-anchor="middle" x="734.5" y="-947.5" font-family="Helvetica,sans-Serif" font-size="10.00">GraphId</text>
</a>
</g>
</g>
<!-- Node5&#45;&gt;Node7 -->
<g id="edge6" class="edge">
<title>Node5&#45;&gt;Node7</title>
<path fill="none" stroke="midnightblue" d="M579.71,-921.4C604.26,-926.84 632.2,-933.04 657.47,-938.64"/>
<polygon fill="midnightblue" stroke="midnightblue" points="656.85,-942.09 667.37,-940.84 658.37,-935.26 656.85,-942.09"/>
</g>
<!-- Node9 -->
<g id="node9" class="node">
<title>Node9</title>
<g id="a_node9"><a xlink:href="classdenoptim_1_1io_1_1_denoptim_i_o.html#ade2d4fd20748770f8beae294ff3e5aac" target="_top" xlink:title="Writes the graphs to JSON file.">
<polygon fill="white" stroke="black" points="663,-842.5 663,-872.5 806,-872.5 806,-842.5 663,-842.5"/>
<text text-anchor="start" x="671" y="-860.5" font-family="Helvetica,sans-Serif" font-size="10.00">denoptim.io.DenoptimIO.write</text>
<text text-anchor="middle" x="734.5" y="-849.5" font-family="Helvetica,sans-Serif" font-size="10.00">GraphsToJSON</text>
</a>
</g>
</g>
<!-- Node8&#45;&gt;Node9 -->
<g id="edge8" class="edge">
<title>Node8&#45;&gt;Node9</title>
<path fill="none" stroke="midnightblue" d="M583.03,-857.5C605.26,-857.5 629.98,-857.5 652.86,-857.5"/>
<polygon fill="midnightblue" stroke="midnightblue" points="652.88,-861 662.88,-857.5 652.88,-854 652.88,-861"/>
</g>
<!-- Node10 -->
<g id="node10" class="node">
<title>Node10</title>
<g id="a_node10"><a xlink:href="classdenoptim_1_1json_1_1_d_e_n_o_p_t_i_mgson.html#aa8cbbc7dcd366e9f1053c4b2b676e0d7" target="_top" xlink:title=" ">
<polygon fill="white" stroke="black" points="865,-842.5 865,-872.5 1032,-872.5 1032,-842.5 865,-842.5"/>
<text text-anchor="start" x="873" y="-860.5" font-family="Helvetica,sans-Serif" font-size="10.00">denoptim.json.DENOPTIMgson.get</text>
<text text-anchor="middle" x="948.5" y="-849.5" font-family="Helvetica,sans-Serif" font-size="10.00">Writer</text>
</a>
</g>
</g>
<!-- Node9&#45;&gt;Node10 -->
<g id="edge9" class="edge">
<title>Node9&#45;&gt;Node10</title>
<path fill="none" stroke="midnightblue" d="M806.09,-857.5C821.65,-857.5 838.36,-857.5 854.65,-857.5"/>
<polygon fill="midnightblue" stroke="midnightblue" points="854.73,-861 864.73,-857.5 854.73,-854 854.73,-861"/>
</g>
<!-- Node13 -->
<g id="node13" class="node">
<title>Node13</title>
<g id="a_node13"><a xlink:href="classdenoptim_1_1io_1_1_denoptim_i_o.html#adc7de175de66792f4f37f1661c10e7f8" target="_top" xlink:title="Write text&#45;like data file.">
<polygon fill="white" stroke="black" points="866.5,-804 866.5,-823 1030.5,-823 1030.5,-804 866.5,-804"/>
<text text-anchor="middle" x="948.5" y="-811" font-family="Helvetica,sans-Serif" font-size="10.00">denoptim.io.DenoptimIO.writeData</text>
</a>
</g>
</g>
<!-- Node9&#45;&gt;Node13 -->
<g id="edge12" class="edge">
<title>Node9&#45;&gt;Node13</title>
<path fill="none" stroke="midnightblue" d="M806.09,-842.85C833.85,-837.09 865.26,-830.57 891.42,-825.14"/>
<polygon fill="midnightblue" stroke="midnightblue" points="892.45,-828.5 901.53,-823.04 891.03,-821.65 892.45,-828.5"/>
</g>
<!-- Node11 -->
<g id="node11" class="node">
<title>Node11</title>
<g id="a_node11"><a xlink:href="classdenoptim_1_1json_1_1_d_e_n_o_p_t_i_mgson.html#aa14de224ae5d1ae5156f11d5715d360c" target="_top" xlink:title=" ">
<polygon fill="white" stroke="black" points="1090.5,-842.5 1090.5,-872.5 1257.5,-872.5 1257.5,-842.5 1090.5,-842.5"/>
<text text-anchor="start" x="1098.5" y="-860.5" font-family="Helvetica,sans-Serif" font-size="10.00">denoptim.json.DENOPTIMgson.get</text>
<text text-anchor="middle" x="1174" y="-849.5" font-family="Helvetica,sans-Serif" font-size="10.00">Instance</text>
</a>
</g>
</g>
<!-- Node10&#45;&gt;Node11 -->
<g id="edge10" class="edge">
<title>Node10&#45;&gt;Node11</title>
<path fill="none" stroke="midnightblue" d="M1032.09,-857.5C1047.69,-857.5 1064.12,-857.5 1080.02,-857.5"/>
<polygon fill="midnightblue" stroke="midnightblue" points="1080.38,-861 1090.38,-857.5 1080.38,-854 1080.38,-861"/>
</g>
<!-- Node12 -->
<g id="node12" class="node">
<title>Node12</title>
<g id="a_node12"><a xlink:href="classdenoptim_1_1json_1_1_d_e_n_o_p_t_i_mgson.html#a4aafec42bd09225870fdf330db93b84c" target="_top" xlink:title=" ">
<polygon fill="white" stroke="black" points="1305,-842.5 1305,-872.5 1459,-872.5 1459,-842.5 1305,-842.5"/>
<text text-anchor="start" x="1313" y="-860.5" font-family="Helvetica,sans-Serif" font-size="10.00">denoptim.json.DENOPTIMgson.</text>
<text text-anchor="middle" x="1382" y="-849.5" font-family="Helvetica,sans-Serif" font-size="10.00">DENOPTIMgson</text>
</a>
</g>
</g>
<!-- Node11&#45;&gt;Node12 -->
<g id="edge11" class="edge">
<title>Node11&#45;&gt;Node12</title>
<path fill="none" stroke="midnightblue" d="M1257.6,-857.5C1269.76,-857.5 1282.31,-857.5 1294.54,-857.5"/>
<polygon fill="midnightblue" stroke="midnightblue" points="1294.72,-861 1304.72,-857.5 1294.72,-854 1294.72,-861"/>
</g>
<!-- Node17 -->
<g id="node17" class="node">
<title>Node17</title>
<g id="a_node17"><a xlink:href="classdenoptim_1_1graph_1_1_vertex.html#a85aa901ec3fff8e566c0cc32d9c9f84e" target="_top" xlink:title=" ">
<polygon fill="white" stroke="black" points="1110,-383.5 1110,-413.5 1238,-413.5 1238,-383.5 1110,-383.5"/>
<text text-anchor="start" x="1118" y="-401.5" font-family="Helvetica,sans-Serif" font-size="10.00">denoptim.graph.Vertex.get</text>
<text text-anchor="middle" x="1174" y="-390.5" font-family="Helvetica,sans-Serif" font-size="10.00">AttachmentPoints</text>
</a>
</g>
</g>
<!-- Node16&#45;&gt;Node17 -->
<g id="edge16" class="edge">
<title>Node16&#45;&gt;Node17</title>
<path fill="none" stroke="midnightblue" d="M1019.6,-398.5C1045.15,-398.5 1074.07,-398.5 1099.87,-398.5"/>
<polygon fill="midnightblue" stroke="midnightblue" points="1099.96,-402 1109.96,-398.5 1099.96,-395 1099.96,-402"/>
</g>
<!-- Node18&#45;&gt;Node17 -->
<g id="edge18" class="edge">
<title>Node18&#45;&gt;Node17</title>
<path fill="none" stroke="midnightblue" d="M1021.76,-368.72C1046.75,-373.65 1074.77,-379.16 1099.84,-384.1"/>
<polygon fill="midnightblue" stroke="midnightblue" points="1099.16,-387.53 1109.65,-386.03 1100.52,-380.66 1099.16,-387.53"/>
</g>
<!-- Node25&#45;&gt;Node14 -->
<g id="edge26" class="edge">
<title>Node25&#45;&gt;Node14</title>
<path fill="none" stroke="midnightblue" d="M361.09,-539.51C383.93,-537.98 409.11,-536.29 432.19,-534.74"/>
<polygon fill="midnightblue" stroke="midnightblue" points="432.54,-538.23 442.28,-534.07 432.07,-531.24 432.54,-538.23"/>
</g>
<!-- Node26 -->
<g id="node26" class="node">
<title>Node26</title>
<g id="a_node26"><a xlink:href="classdenoptim_1_1fragspace_1_1_fragment_space.html#ada04f68d55f8ff85345e2a6c6d1ad840" target="_top" xlink:title="Returns a list of APClasses compatible with the given APClass.">
<polygon fill="white" stroke="black" points="432.5,-607.5 432.5,-637.5 590.5,-637.5 590.5,-607.5 432.5,-607.5"/>
<text text-anchor="start" x="440.5" y="-625.5" font-family="Helvetica,sans-Serif" font-size="10.00">denoptim.fragspace.Fragment</text>
<text text-anchor="middle" x="511.5" y="-614.5" font-family="Helvetica,sans-Serif" font-size="10.00">Space.getCompatibleAPClasses</text>
</a>
</g>
</g>
<!-- Node25&#45;&gt;Node26 -->
<g id="edge27" class="edge">
<title>Node25&#45;&gt;Node26</title>
<path fill="none" stroke="midnightblue" d="M316.33,-559.66C340.55,-571.49 375.83,-587.69 408,-598.5 414.73,-600.76 421.78,-602.89 428.89,-604.87"/>
<polygon fill="midnightblue" stroke="midnightblue" points="428.04,-608.27 438.61,-607.48 429.86,-601.51 428.04,-608.27"/>
</g>
<!-- Node27 -->
<g id="node27" class="node">
<title>Node27</title>
<g id="a_node27"><a xlink:href="classdenoptim_1_1fragspace_1_1_fragment_space.html#af5e7c080a87c7211f5469977e4b889c0" target="_top" xlink:title="Returns the list of vertexes that have the specified number of AttachmentPoints with the given APClas...">
<polygon fill="white" stroke="black" points="424,-558.5 424,-588.5 599,-588.5 599,-558.5 424,-558.5"/>
<text text-anchor="start" x="432" y="-576.5" font-family="Helvetica,sans-Serif" font-size="10.00">denoptim.fragspace.Fragment</text>
<text text-anchor="middle" x="511.5" y="-565.5" font-family="Helvetica,sans-Serif" font-size="10.00">Space.getVerticesWithAPFingerprint</text>
</a>
</g>
</g>
<!-- Node25&#45;&gt;Node27 -->
<g id="edge28" class="edge">
<title>Node25&#45;&gt;Node27</title>
<path fill="none" stroke="midnightblue" d="M361.09,-554.16C377.9,-556.33 395.98,-558.67 413.55,-560.95"/>
<polygon fill="midnightblue" stroke="midnightblue" points="413.46,-564.47 423.83,-562.28 414.36,-557.52 413.46,-564.47"/>
</g>
<!-- Node30 -->
<g id="node30" class="node">
<title>Node30</title>
<g id="a_node30"><a xlink:href="classdenoptim_1_1graph_1_1_vertex.html#ad26ecf426a5e415605df94be904e58d3" target="_top" xlink:title=" ">
<polygon fill="white" stroke="black" points="447.5,-470.5 447.5,-500.5 575.5,-500.5 575.5,-470.5 447.5,-470.5"/>
<text text-anchor="start" x="455.5" y="-488.5" font-family="Helvetica,sans-Serif" font-size="10.00">denoptim.graph.Vertex.set</text>
<text text-anchor="middle" x="511.5" y="-477.5" font-family="Helvetica,sans-Serif" font-size="10.00">Property</text>
</a>
</g>
</g>
<!-- Node25&#45;&gt;Node30 -->
<g id="edge32" class="edge">
<title>Node25&#45;&gt;Node30</title>
<path fill="none" stroke="midnightblue" d="M338.72,-529.47C360.15,-523.41 385.22,-516.46 408,-510.5 417.57,-508 427.66,-505.43 437.63,-502.95"/>
<polygon fill="midnightblue" stroke="midnightblue" points="438.67,-506.3 447.54,-500.5 436.99,-499.51 438.67,-506.3"/>
</g>
<!-- Node28 -->
<g id="node28" class="node">
<title>Node28</title>
<g id="a_node28"><a xlink:href="classdenoptim_1_1fragspace_1_1_fragment_space.html#ad1b6e3b137f82605270e95d5a23207b9" target="_top" xlink:title="Returns the list of vertexes with at least one attachment point of each of the given classes.">
<polygon fill="white" stroke="black" points="652.5,-525.5 652.5,-555.5 816.5,-555.5 816.5,-525.5 652.5,-525.5"/>
<text text-anchor="start" x="660.5" y="-543.5" font-family="Helvetica,sans-Serif" font-size="10.00">denoptim.fragspace.Fragment</text>
<text text-anchor="middle" x="734.5" y="-532.5" font-family="Helvetica,sans-Serif" font-size="10.00">Space.getVerticesWithAPClasses</text>
</a>
</g>
</g>
<!-- Node27&#45;&gt;Node28 -->
<g id="edge29" class="edge">
<title>Node27&#45;&gt;Node28</title>
<path fill="none" stroke="midnightblue" d="M599.21,-560.55C613.32,-558.45 627.97,-556.26 642.19,-554.13"/>
<polygon fill="midnightblue" stroke="midnightblue" points="643.08,-557.54 652.45,-552.6 642.04,-550.62 643.08,-557.54"/>
</g>
<!-- Node29 -->
<g id="node29" class="node">
<title>Node29</title>
<g id="a_node29"><a xlink:href="classdenoptim_1_1graph_1_1_vertex.html#a274e9253fa2a75073e7fc14918e54eef" target="_top" xlink:title="Returns the list of all APClasses present on this vertex.">
<polygon fill="white" stroke="black" points="884.5,-492.5 884.5,-522.5 1012.5,-522.5 1012.5,-492.5 884.5,-492.5"/>
<text text-anchor="start" x="892.5" y="-510.5" font-family="Helvetica,sans-Serif" font-size="10.00">denoptim.graph.Vertex.get</text>
<text text-anchor="middle" x="948.5" y="-499.5" font-family="Helvetica,sans-Serif" font-size="10.00">AllAPClasses</text>
</a>
</g>
</g>
<!-- Node28&#45;&gt;Node29 -->
<g id="edge30" class="edge">
<title>Node28&#45;&gt;Node29</title>
<path fill="none" stroke="midnightblue" d="M816.56,-527.88C835.58,-524.92 855.74,-521.78 874.39,-518.88"/>
<polygon fill="midnightblue" stroke="midnightblue" points="874.95,-522.34 884.29,-517.34 873.87,-515.42 874.95,-522.34"/>
</g>
<!-- Node29&#45;&gt;Node17 -->
<g id="edge31" class="edge">
<title>Node29&#45;&gt;Node17</title>
<path fill="none" stroke="midnightblue" d="M980.58,-492.34C1020.36,-472.94 1089.34,-439.3 1133.01,-418"/>
<polygon fill="midnightblue" stroke="midnightblue" points="1134.73,-421.06 1142.19,-413.53 1131.66,-414.76 1134.73,-421.06"/>
</g>
<!-- Node31&#45;&gt;Node14 -->
<g id="edge34" class="edge">
<title>Node31&#45;&gt;Node14</title>
<path fill="none" stroke="midnightblue" d="M336.2,-471.58C348.17,-475.85 360.74,-480.88 372,-486.5 389.21,-495.08 390.18,-503.27 408,-510.5 415.77,-513.66 424.09,-516.29 432.51,-518.49"/>
<polygon fill="midnightblue" stroke="midnightblue" points="431.86,-521.94 442.4,-520.88 433.5,-515.13 431.86,-521.94"/>
</g>
<!-- Node31&#45;&gt;Node30 -->
<g id="edge36" class="edge">
<title>Node31&#45;&gt;Node30</title>
<path fill="none" stroke="midnightblue" d="M361.09,-466.16C385.7,-469.34 413.03,-472.88 437.52,-476.05"/>
<polygon fill="midnightblue" stroke="midnightblue" points="437.09,-479.53 447.46,-477.34 437.99,-472.58 437.09,-479.53"/>
</g>
<!-- Node32 -->
<g id="node32" class="node">
<title>Node32</title>
<g id="a_node32"><a xlink:href="classdenoptim_1_1fragspace_1_1_fragment_space.html#a745fca25471c9384d4ee7fa79e76b4b6" target="_top" xlink:title="Extracts vertexes from the collection of vertexes defined by this FragmentSpace.">
<polygon fill="white" stroke="black" points="408,-421.5 408,-451.5 615,-451.5 615,-421.5 408,-421.5"/>
<text text-anchor="start" x="416" y="-439.5" font-family="Helvetica,sans-Serif" font-size="10.00">denoptim.fragspace.Fragment</text>
<text text-anchor="middle" x="511.5" y="-428.5" font-family="Helvetica,sans-Serif" font-size="10.00">Space.getVerticesWithAPClassStartingWith</text>
</a>
</g>
</g>
<!-- Node31&#45;&gt;Node32 -->
<g id="edge35" class="edge">
<title>Node31&#45;&gt;Node32</title>
<path fill="none" stroke="midnightblue" d="M361.09,-449.84C372.94,-448.78 385.42,-447.67 397.91,-446.55"/>
<polygon fill="midnightblue" stroke="midnightblue" points="398.27,-450.03 407.92,-445.66 397.65,-443.06 398.27,-450.03"/>
</g>
<!-- Node34 -->
<g id="node34" class="node">
<title>Node34</title>
<g id="a_node34"><a xlink:href="classdenoptim_1_1utils_1_1_randomizer.html#a6873dd710cc271ed81bfa45411a62359" target="_top" xlink:title="Returns the random number generator.">
<polygon fill="white" stroke="black" points="651,-763 651,-782 818,-782 818,-763 651,-763"/>
<text text-anchor="middle" x="734.5" y="-770" font-family="Helvetica,sans-Serif" font-size="10.00">denoptim.utils.Randomizer.getRNG</text>
</a>
</g>
</g>
<!-- Node33&#45;&gt;Node34 -->
<g id="edge38" class="edge">
<title>Node33&#45;&gt;Node34</title>
<path fill="none" stroke="midnightblue" d="M586.7,-770.51C603.98,-770.74 622.58,-770.99 640.55,-771.24"/>
<polygon fill="midnightblue" stroke="midnightblue" points="640.69,-774.74 650.74,-771.38 640.79,-767.74 640.69,-774.74"/>
</g>
<!-- Node37 -->
<g id="node37" class="node">
<title>Node37</title>
<g id="a_node37"><a xlink:href="classdenoptim_1_1utils_1_1_randomizer.html#acaa5e386da195d9454fae611ed554c48" target="_top" xlink:title="Utility to debug: writes some log in file &#39;/tmp/rng_debug_log&#39;.">
<polygon fill="white" stroke="black" points="659,-804 659,-823 810,-823 810,-804 659,-804"/>
<text text-anchor="middle" x="734.5" y="-811" font-family="Helvetica,sans-Serif" font-size="10.00">denoptim.utils.Randomizer.print</text>
</a>
</g>
</g>
<!-- Node33&#45;&gt;Node37 -->
<g id="edge41" class="edge">
<title>Node33&#45;&gt;Node37</title>
<path fill="none" stroke="midnightblue" d="M586.7,-784.27C615.61,-790.03 648.25,-796.53 675.4,-801.93"/>
<polygon fill="midnightblue" stroke="midnightblue" points="675.03,-805.43 685.52,-803.95 676.39,-798.56 675.03,-805.43"/>
</g>
<!-- Node35 -->
<g id="node35" class="node">
<title>Node35</title>
<g id="a_node35"><a xlink:href="classdenoptim_1_1utils_1_1_randomizer.html#aaaeda6dedda5664a47a2a9a68194162a" target="_top" xlink:title="Initializes this random number generator (RNG) using a random seed that is generated on&#45;the&#45;fly rando...">
<polygon fill="white" stroke="black" points="854,-763 854,-782 1043,-782 1043,-763 854,-763"/>
<text text-anchor="middle" x="948.5" y="-770" font-family="Helvetica,sans-Serif" font-size="10.00">denoptim.utils.Randomizer.initialiseRNG</text>
</a>
</g>
</g>
<!-- Node34&#45;&gt;Node35 -->
<g id="edge39" class="edge">
<title>Node34&#45;&gt;Node35</title>
<path fill="none" stroke="midnightblue" d="M818.07,-772.5C826.51,-772.5 835.16,-772.5 843.79,-772.5"/>
<polygon fill="midnightblue" stroke="midnightblue" points="843.89,-776 853.89,-772.5 843.89,-769 843.89,-776"/>
</g>
<!-- Node36 -->
<g id="node36" class="node">
<title>Node36</title>
<g id="a_node36"><a xlink:href="classdenoptim_1_1utils_1_1_randomizer.html#ad74f0608d3e2e10caa8873ae059367a7" target="_top" xlink:title=" ">
<polygon fill="white" stroke="black" points="1079,-763 1079,-782 1269,-782 1269,-763 1079,-763"/>
<text text-anchor="middle" x="1174" y="-770" font-family="Helvetica,sans-Serif" font-size="10.00">denoptim.utils.Randomizer.initialiseSeed</text>
</a>
</g>
</g>
<!-- Node35&#45;&gt;Node36 -->
<g id="edge40" class="edge">
<title>Node35&#45;&gt;Node36</title>
<path fill="none" stroke="midnightblue" d="M1043.31,-772.5C1051.64,-772.5 1060.09,-772.5 1068.5,-772.5"/>
<polygon fill="midnightblue" stroke="midnightblue" points="1068.71,-776 1078.71,-772.5 1068.71,-769 1068.71,-776"/>
</g>
<!-- Node37&#45;&gt;Node13 -->
<g id="edge42" class="edge">
<title>Node37&#45;&gt;Node13</title>
<path fill="none" stroke="midnightblue" d="M810.24,-813.5C825.11,-813.5 840.87,-813.5 856.22,-813.5"/>
<polygon fill="midnightblue" stroke="midnightblue" points="856.23,-817 866.23,-813.5 856.23,-810 856.23,-817"/>
</g>
<!-- Node39 -->
<g id="node39" class="node">
<title>Node39</title>
<g id="a_node39"><a xlink:href="classdenoptim_1_1utils_1_1_randomizer.html#a6949bec32b63f1207da17e0c136a1d58" target="_top" xlink:title="Returns a pseudo&#45;random, uniformly distributed int value between 0 (inclusive) and the specified valu...">
<polygon fill="white" stroke="black" points="431,-804 431,-823 592,-823 592,-804 431,-804"/>
<text text-anchor="middle" x="511.5" y="-811" font-family="Helvetica,sans-Serif" font-size="10.00">denoptim.utils.Randomizer.nextInt</text>
</a>
</g>
</g>
<!-- Node38&#45;&gt;Node39 -->
<g id="edge44" class="edge">
<title>Node38&#45;&gt;Node39</title>
<path fill="none" stroke="midnightblue" d="M371.18,-805.41C387.4,-806.36 404.42,-807.34 420.78,-808.29"/>
<polygon fill="midnightblue" stroke="midnightblue" points="420.68,-811.79 430.87,-808.88 421.09,-804.81 420.68,-811.79"/>
</g>
<!-- Node39&#45;&gt;Node34 -->
<g id="edge45" class="edge">
<title>Node39&#45;&gt;Node34</title>
<path fill="none" stroke="midnightblue" d="M563.86,-803.98C580.2,-800.95 598.36,-797.59 615,-794.5 633.57,-791.05 653.79,-787.3 672.17,-783.89"/>
<polygon fill="midnightblue" stroke="midnightblue" points="672.98,-787.3 682.17,-782.03 671.7,-780.42 672.98,-787.3"/>
</g>
<!-- Node39&#45;&gt;Node37 -->
<g id="edge46" class="edge">
<title>Node39&#45;&gt;Node37</title>
<path fill="none" stroke="midnightblue" d="M592.29,-813.5C610.65,-813.5 630.24,-813.5 648.8,-813.5"/>
<polygon fill="midnightblue" stroke="midnightblue" points="648.99,-817 658.99,-813.5 648.99,-810 648.99,-817"/>
</g>
<!-- Node40&#45;&gt;Node22 -->
<g id="edge49" class="edge">
<title>Node40&#45;&gt;Node22</title>
<path fill="none" stroke="midnightblue" d="M353.71,-674.3C378.06,-673.87 405.79,-673.37 431.1,-672.92"/>
<polygon fill="midnightblue" stroke="midnightblue" points="431.46,-676.41 441.4,-672.73 431.34,-669.41 431.46,-676.41"/>
</g>
<!-- Node40&#45;&gt;Node33 -->
<g id="edge50" class="edge">
<title>Node40&#45;&gt;Node33</title>
<path fill="none" stroke="midnightblue" d="M310.61,-690.52C340.1,-708.68 388.47,-737.78 408,-745.5 413.91,-747.84 420.11,-749.98 426.41,-751.94"/>
<polygon fill="midnightblue" stroke="midnightblue" points="425.77,-755.4 436.35,-754.88 427.75,-748.69 425.77,-755.4"/>
</g>
<!-- Node40&#45;&gt;Node40 -->
<g id="edge51" class="edge">
<title>Node40&#45;&gt;Node40</title>
<path fill="none" stroke="midnightblue" d="M249.95,-690.66C241.38,-700.06 253.23,-709 285.5,-709 305.17,-709 317.25,-705.68 321.75,-700.96"/>
<polygon fill="midnightblue" stroke="midnightblue" points="325.22,-700.4 321.05,-690.66 318.23,-700.87 325.22,-700.4"/>
</g>
<!-- Node41 -->
<g id="node41" class="node">
<title>Node41</title>
<g id="a_node41"><a xlink:href="classdenoptim_1_1fragspace_1_1_fragment_space_parameters.html#a93693af51412000689dc7517151b9a05" target="_top" xlink:title=" ">
<polygon fill="white" stroke="black" points="422,-705.5 422,-735.5 601,-735.5 601,-705.5 422,-705.5"/>
<text text-anchor="start" x="430" y="-723.5" font-family="Helvetica,sans-Serif" font-size="10.00">denoptim.fragspace.Fragment</text>
<text text-anchor="middle" x="511.5" y="-712.5" font-family="Helvetica,sans-Serif" font-size="10.00">SpaceParameters.getFragmentSpace</text>
</a>
</g>
</g>
<!-- Node40&#45;&gt;Node41 -->
<g id="edge48" class="edge">
<title>Node40&#45;&gt;Node41</title>
<path fill="none" stroke="midnightblue" d="M353.71,-689C376.26,-693.53 401.71,-698.65 425.45,-703.41"/>
<polygon fill="midnightblue" stroke="midnightblue" points="425.01,-706.9 435.5,-705.43 426.39,-700.03 425.01,-706.9"/>
</g>
</g>
</svg>
