<?xml version="1.0" encoding="UTF-8" standalone="no"?>
<!DOCTYPE svg PUBLIC "-//W3C//DTD SVG 1.1//EN"
 "http://www.w3.org/Graphics/SVG/1.1/DTD/svg11.dtd">
<!-- Generated by graphviz version 3.0.0 (20221109.1736)
 -->
<!-- Title: denoptim.fragmenter.ParallelFragmentationAlgorithm.getStructureFileNameBatch Pages: 1 -->
<svg width="590pt" height="119pt"
 viewBox="0.00 0.00 590.00 119.00" xmlns="http://www.w3.org/2000/svg" xmlns:xlink="http://www.w3.org/1999/xlink">
<g id="graph0" class="graph" transform="scale(1 1) rotate(0) translate(4 115)">
<title>denoptim.fragmenter.ParallelFragmentationAlgorithm.getStructureFileNameBatch</title>
<polygon fill="white" stroke="transparent" points="-4,4 -4,-115 586,-115 586,4 -4,4"/>
<!-- Node1 -->
<g id="node1" class="node">
<title>Node1</title>
<g id="a_node1"><a xlink:title="Builds the pathname of the structure file generated for one of the parallel threads.">
<polygon fill="#bfbfbf" stroke="black" points="406,-30.5 406,-71.5 582,-71.5 582,-30.5 406,-30.5"/>
<text text-anchor="start" x="414" y="-59.5" font-family="Helvetica,sans-Serif" font-size="10.00">denoptim.fragmenter.Parallel</text>
<text text-anchor="start" x="414" y="-48.5" font-family="Helvetica,sans-Serif" font-size="10.00">FragmentationAlgorithm.getStructure</text>
<text text-anchor="middle" x="494" y="-37.5" font-family="Helvetica,sans-Serif" font-size="10.00">FileNameBatch</text>
</a>
</g>
</g>
<!-- Node2 -->
<g id="node2" class="node">
<title>Node2</title>
<g id="a_node2"><a xlink:href="classdenoptim_1_1fragmenter_1_1_parallel_fragmentation_algorithm.html#a13ae260c713d9b901a9aa71152c615ad" target="_top" xlink:title=" ">
<polygon fill="white" stroke="black" points="0,-69.5 0,-110.5 172,-110.5 172,-69.5 0,-69.5"/>
<text text-anchor="start" x="8" y="-98.5" font-family="Helvetica,sans-Serif" font-size="10.00">denoptim.fragmenter.Parallel</text>
<text text-anchor="start" x="8" y="-87.5" font-family="Helvetica,sans-Serif" font-size="10.00">FragmentationAlgorithm.doPreFlight</text>
<text text-anchor="middle" x="86" y="-76.5" font-family="Helvetica,sans-Serif" font-size="10.00">Operations</text>
</a>
</g>
</g>
<!-- Node1&#45;&gt;Node2 -->
<g id="edge1" class="edge">
<title>Node1&#45;&gt;Node2</title>
<path fill="none" stroke="midnightblue" d="M409.66,-73.79C396.48,-76.68 382.93,-79.24 370,-81 304,-90 228.59,-91.99 172.21,-91.88"/>
<polygon fill="midnightblue" stroke="midnightblue" points="410.68,-77.15 419.65,-71.52 409.13,-70.32 410.68,-77.15"/>
</g>
<!-- Node3 -->
<g id="node3" class="node">
<title>Node3</title>
<g id="a_node3"><a xlink:href="classdenoptim_1_1fragmenter_1_1_parallel_fragmentation_algorithm.html#ab9c7a6f840388b48f51387ff8ea9b64b" target="_top" xlink:title="Splits the input data (from FragmenterParameters) into batches suitable for parallel batch processing...">
<polygon fill="white" stroke="black" points="208,-30.5 208,-71.5 370,-71.5 370,-30.5 208,-30.5"/>
<text text-anchor="start" x="216" y="-59.5" font-family="Helvetica,sans-Serif" font-size="10.00">denoptim.fragmenter.Parallel</text>
<text text-anchor="start" x="216" y="-48.5" font-family="Helvetica,sans-Serif" font-size="10.00">FragmentationAlgorithm.splitInput</text>
<text text-anchor="middle" x="289" y="-37.5" font-family="Helvetica,sans-Serif" font-size="10.00">ForThreads</text>
</a>
</g>
</g>
<!-- Node1&#45;&gt;Node3 -->
<g id="edge2" class="edge">
<title>Node1&#45;&gt;Node3</title>
<path fill="none" stroke="midnightblue" d="M395.71,-51C387.15,-51 378.54,-51 370.14,-51"/>
<polygon fill="midnightblue" stroke="midnightblue" points="395.73,-54.5 405.73,-51 395.73,-47.5 395.73,-54.5"/>
</g>
<!-- Node4 -->
<g id="node4" class="node">
<title>Node4</title>
<g id="a_node4"><a xlink:href="classdenoptim_1_1fragmenter_1_1_parallel_fragmentation_algorithm_test.html#a11b2178cd3d55ba7f1fe1e0e047dd684" target="_top" xlink:title=" ">
<polygon fill="white" stroke="black" points="7,-0.5 7,-41.5 165,-41.5 165,-0.5 7,-0.5"/>
<text text-anchor="start" x="15" y="-29.5" font-family="Helvetica,sans-Serif" font-size="10.00">denoptim.fragmenter.Parallel</text>
<text text-anchor="start" x="15" y="-18.5" font-family="Helvetica,sans-Serif" font-size="10.00">FragmentationAlgorithmTest.test</text>
<text text-anchor="middle" x="86" y="-7.5" font-family="Helvetica,sans-Serif" font-size="10.00">SplitInputForThreads</text>
</a>
</g>
</g>
<!-- Node1&#45;&gt;Node4 -->
<g id="edge5" class="edge">
<title>Node1&#45;&gt;Node4</title>
<path fill="none" stroke="midnightblue" d="M411.43,-28.22C397.7,-25.22 383.52,-22.63 370,-21 301.1,-12.72 222.07,-13.58 165.08,-16.01"/>
<polygon fill="midnightblue" stroke="midnightblue" points="410.81,-31.67 421.34,-30.47 412.36,-24.84 410.81,-31.67"/>
</g>
<!-- Node3&#45;&gt;Node2 -->
<g id="edge3" class="edge">
<title>Node3&#45;&gt;Node2</title>
<path fill="none" stroke="midnightblue" d="M197.93,-68.48C189.31,-70.15 180.59,-71.84 172.02,-73.5"/>
<polygon fill="midnightblue" stroke="midnightblue" points="198.83,-71.87 207.98,-66.53 197.5,-64.99 198.83,-71.87"/>
</g>
<!-- Node3&#45;&gt;Node4 -->
<g id="edge4" class="edge">
<title>Node3&#45;&gt;Node4</title>
<path fill="none" stroke="midnightblue" d="M197.97,-37.56C187.01,-35.93 175.88,-34.27 165.1,-32.66"/>
<polygon fill="midnightblue" stroke="midnightblue" points="197.57,-41.04 207.98,-39.06 198.61,-34.12 197.57,-41.04"/>
</g>
</g>
</svg>
