<?xml version="1.0" encoding="UTF-8" standalone="no"?>
<!DOCTYPE svg PUBLIC "-//W3C//DTD SVG 1.1//EN"
 "http://www.w3.org/Graphics/SVG/1.1/DTD/svg11.dtd">
<!-- Generated by graphviz version 3.0.0 (20221109.1736)
 -->
<!-- Title: denoptim.fitness.descriptors.TanimotoMolSimilarity.makeIFingerprinter Pages: 1 -->
<svg width="1039pt" height="218pt"
 viewBox="0.00 0.00 1039.00 218.00" xmlns="http://www.w3.org/2000/svg" xmlns:xlink="http://www.w3.org/1999/xlink">
<g id="graph0" class="graph" transform="scale(1 1) rotate(0) translate(4 214)">
<title>denoptim.fitness.descriptors.TanimotoMolSimilarity.makeIFingerprinter</title>
<polygon fill="white" stroke="transparent" points="-4,4 -4,-214 1035,-214 1035,4 -4,4"/>
<!-- Node1 -->
<g id="node1" class="node">
<title>Node1</title>
<g id="a_node1"><a xlink:title=" ">
<polygon fill="#bfbfbf" stroke="black" points="835,-59 835,-89 1031,-89 1031,-59 835,-59"/>
<text text-anchor="start" x="843" y="-77" font-family="Helvetica,sans-Serif" font-size="10.00">denoptim.fitness.descriptors.</text>
<text text-anchor="middle" x="933" y="-66" font-family="Helvetica,sans-Serif" font-size="10.00">TanimotoMolSimilarity.makeIFingerprinter</text>
</a>
</g>
</g>
<!-- Node2 -->
<g id="node2" class="node">
<title>Node2</title>
<g id="a_node2"><a xlink:href="classdenoptim_1_1fitness_1_1_fitness_expression_parser.html#a900707cd37f6d64d633309ba9dd50384" target="_top" xlink:title=" ">
<polygon fill="white" stroke="black" points="621.5,-85 621.5,-115 797.5,-115 797.5,-85 621.5,-85"/>
<text text-anchor="start" x="629.5" y="-103" font-family="Helvetica,sans-Serif" font-size="10.00">denoptim.fitness.Fitness</text>
<text text-anchor="middle" x="709.5" y="-92" font-family="Helvetica,sans-Serif" font-size="10.00">ExpressionParser.makeIFingerprinter</text>
</a>
</g>
</g>
<!-- Node1&#45;&gt;Node2 -->
<g id="edge1" class="edge">
<title>Node1&#45;&gt;Node2</title>
<path fill="none" stroke="midnightblue" d="M824.7,-86.59C815.69,-87.65 806.65,-88.71 797.82,-89.75"/>
<polygon fill="midnightblue" stroke="midnightblue" points="825.32,-90.05 834.85,-85.4 824.51,-83.09 825.32,-90.05"/>
</g>
<!-- Node9 -->
<g id="node9" class="node">
<title>Node9</title>
<g id="a_node9"><a xlink:href="classdenoptim_1_1fitness_1_1descriptors_1_1_tanimoto_mol_similarity.html#a2bebb1a5e8a993d83d6aa983781beba8" target="_top" xlink:title="Set the parameters attribute of TanimotoMolSimilarity object.">
<polygon fill="white" stroke="black" points="620,-35 620,-65 799,-65 799,-35 620,-35"/>
<text text-anchor="start" x="628" y="-53" font-family="Helvetica,sans-Serif" font-size="10.00">denoptim.fitness.descriptors.</text>
<text text-anchor="middle" x="709.5" y="-42" font-family="Helvetica,sans-Serif" font-size="10.00">TanimotoMolSimilarity.setParameters</text>
</a>
</g>
</g>
<!-- Node1&#45;&gt;Node9 -->
<g id="edge8" class="edge">
<title>Node1&#45;&gt;Node9</title>
<path fill="none" stroke="midnightblue" d="M824.81,-62.39C816.23,-61.46 807.63,-60.52 799.2,-59.61"/>
<polygon fill="midnightblue" stroke="midnightblue" points="824.53,-65.88 834.85,-63.47 825.28,-58.92 824.53,-65.88"/>
</g>
<!-- Node3 -->
<g id="node3" class="node">
<title>Node3</title>
<g id="a_node3"><a xlink:href="classdenoptim_1_1fitness_1_1_fitness_expression_parser.html#a761cd46875eff5864f29dbb7f353bde7" target="_top" xlink:title="Parses the given expressions.">
<polygon fill="white" stroke="black" points="427.5,-87 427.5,-117 549.5,-117 549.5,-87 427.5,-87"/>
<text text-anchor="start" x="435.5" y="-105" font-family="Helvetica,sans-Serif" font-size="10.00">denoptim.fitness.Fitness</text>
<text text-anchor="middle" x="488.5" y="-94" font-family="Helvetica,sans-Serif" font-size="10.00">ExpressionParser.parse</text>
</a>
</g>
</g>
<!-- Node2&#45;&gt;Node3 -->
<g id="edge2" class="edge">
<title>Node2&#45;&gt;Node3</title>
<path fill="none" stroke="midnightblue" d="M611.13,-100.89C590.24,-101.08 568.77,-101.28 549.78,-101.45"/>
<polygon fill="midnightblue" stroke="midnightblue" points="611.35,-104.39 621.32,-100.8 611.28,-97.39 611.35,-104.39"/>
</g>
<!-- Node4 -->
<g id="node4" class="node">
<title>Node4</title>
<g id="a_node4"><a xlink:href="classdenoptim_1_1fitness_1_1_fitness_parameters.html#a2ab06430e0d6c35625d03557520cf505" target="_top" xlink:title="Processes all parameters and initialize related objects.">
<polygon fill="white" stroke="black" points="203,-87 203,-117 357,-117 357,-87 203,-87"/>
<text text-anchor="start" x="211" y="-105" font-family="Helvetica,sans-Serif" font-size="10.00">denoptim.fitness.Fitness</text>
<text text-anchor="middle" x="280" y="-94" font-family="Helvetica,sans-Serif" font-size="10.00">Parameters.processParameters</text>
</a>
</g>
</g>
<!-- Node3&#45;&gt;Node4 -->
<g id="edge3" class="edge">
<title>Node3&#45;&gt;Node4</title>
<path fill="none" stroke="midnightblue" d="M417.28,-102C397.99,-102 376.98,-102 357.36,-102"/>
<polygon fill="midnightblue" stroke="midnightblue" points="417.49,-105.5 427.49,-102 417.49,-98.5 417.49,-105.5"/>
</g>
<!-- Node5 -->
<g id="node5" class="node">
<title>Node5</title>
<g id="a_node5"><a xlink:href="classdenoptim_1_1fitness_1_1_fitness_provider_test.html#a2272dbcf72c993b4544719ddf64c98b6" target="_top" xlink:title=" ">
<polygon fill="white" stroke="black" points="10.5,-168.5 10.5,-209.5 156.5,-209.5 156.5,-168.5 10.5,-168.5"/>
<text text-anchor="start" x="18.5" y="-197.5" font-family="Helvetica,sans-Serif" font-size="10.00">denoptim.fitness.Fitness</text>
<text text-anchor="start" x="18.5" y="-186.5" font-family="Helvetica,sans-Serif" font-size="10.00">ProviderTest.testGetConstant</text>
<text text-anchor="middle" x="83.5" y="-175.5" font-family="Helvetica,sans-Serif" font-size="10.00">Fitness</text>
</a>
</g>
</g>
<!-- Node4&#45;&gt;Node5 -->
<g id="edge4" class="edge">
<title>Node4&#45;&gt;Node5</title>
<path fill="none" stroke="midnightblue" d="M242.97,-121.75C221.27,-133.29 192.91,-147.74 167,-159 159.59,-162.22 151.71,-165.39 143.88,-168.4"/>
<polygon fill="midnightblue" stroke="midnightblue" points="244.67,-124.81 251.83,-117.01 241.36,-118.64 244.67,-124.81"/>
</g>
<!-- Node6 -->
<g id="node6" class="node">
<title>Node6</title>
<g id="a_node6"><a xlink:href="classdenoptim_1_1fitness_1_1_fitness_provider_test.html#ac3684e1e2969ee1c883ab279d4d5c048" target="_top" xlink:title="This test is reproducing most of what done in FitnessParametersTest#testProcessExpressions() so if bo...">
<polygon fill="white" stroke="black" points="4.5,-108.5 4.5,-149.5 162.5,-149.5 162.5,-108.5 4.5,-108.5"/>
<text text-anchor="start" x="12.5" y="-137.5" font-family="Helvetica,sans-Serif" font-size="10.00">denoptim.fitness.Fitness</text>
<text text-anchor="start" x="12.5" y="-126.5" font-family="Helvetica,sans-Serif" font-size="10.00">ProviderTest.testGetFitnessWith</text>
<text text-anchor="middle" x="83.5" y="-115.5" font-family="Helvetica,sans-Serif" font-size="10.00">ParametrizedDescriptors</text>
</a>
</g>
</g>
<!-- Node4&#45;&gt;Node6 -->
<g id="edge5" class="edge">
<title>Node4&#45;&gt;Node6</title>
<path fill="none" stroke="midnightblue" d="M192.97,-113.94C182.9,-115.34 172.68,-116.76 162.72,-118.14"/>
<polygon fill="midnightblue" stroke="midnightblue" points="193.54,-117.4 202.97,-112.55 192.58,-110.46 193.54,-117.4"/>
</g>
<!-- Node7 -->
<g id="node7" class="node">
<title>Node7</title>
<g id="a_node7"><a xlink:href="classdenoptim_1_1fitness_1_1_fitness_provider_test.html#a81954dc756c3f22356f01bdc0037e9f5" target="_top" xlink:title=" ">
<polygon fill="white" stroke="black" points="12,-60 12,-90 155,-90 155,-60 12,-60"/>
<text text-anchor="start" x="20" y="-78" font-family="Helvetica,sans-Serif" font-size="10.00">denoptim.fitness.Fitness</text>
<text text-anchor="middle" x="83.5" y="-67" font-family="Helvetica,sans-Serif" font-size="10.00">ProviderTest.testNaNFitness</text>
</a>
</g>
</g>
<!-- Node4&#45;&gt;Node7 -->
<g id="edge6" class="edge">
<title>Node4&#45;&gt;Node7</title>
<path fill="none" stroke="midnightblue" d="M192.9,-90.05C180.26,-88.29 167.36,-86.5 155.08,-84.8"/>
<polygon fill="midnightblue" stroke="midnightblue" points="192.58,-93.54 202.97,-91.45 193.54,-86.6 192.58,-93.54"/>
</g>
<!-- Node8 -->
<g id="node8" class="node">
<title>Node8</title>
<g id="a_node8"><a xlink:href="classdenoptim_1_1fitness_1_1_fitness_expression_parser_test.html#ad8c3056173f2ab17ebb7c12133ea03a8" target="_top" xlink:title=" ">
<polygon fill="white" stroke="black" points="0,-0.5 0,-41.5 167,-41.5 167,-0.5 0,-0.5"/>
<text text-anchor="start" x="8" y="-29.5" font-family="Helvetica,sans-Serif" font-size="10.00">denoptim.fitness.Fitness</text>
<text text-anchor="start" x="8" y="-18.5" font-family="Helvetica,sans-Serif" font-size="10.00">ExpressionParserTest.testProcess</text>
<text text-anchor="middle" x="83.5" y="-7.5" font-family="Helvetica,sans-Serif" font-size="10.00">Expressions</text>
</a>
</g>
</g>
<!-- Node4&#45;&gt;Node8 -->
<g id="edge7" class="edge">
<title>Node4&#45;&gt;Node8</title>
<path fill="none" stroke="midnightblue" d="M239.41,-82.48C218.16,-72.29 191.39,-59.92 167,-50 159.97,-47.14 152.54,-44.29 145.13,-41.56"/>
<polygon fill="midnightblue" stroke="midnightblue" points="237.93,-85.65 248.45,-86.84 240.97,-79.35 237.93,-85.65"/>
</g>
<!-- Node10 -->
<g id="node10" class="node">
<title>Node10</title>
<g id="a_node10"><a xlink:href="classdenoptim_1_1fitness_1_1descriptors_1_1_tanimoto_mol_similarity_test.html#ae5ba0357459bd900a54104f75b44ae3d" target="_top" xlink:title=" ">
<polygon fill="white" stroke="black" points="393,-27.5 393,-68.5 584,-68.5 584,-27.5 393,-27.5"/>
<text text-anchor="start" x="401" y="-56.5" font-family="Helvetica,sans-Serif" font-size="10.00">denoptim.fitness.descriptors.</text>
<text text-anchor="start" x="401" y="-45.5" font-family="Helvetica,sans-Serif" font-size="10.00">TanimotoMolSimilarityTest.testTanimoto</text>
<text text-anchor="middle" x="488.5" y="-34.5" font-family="Helvetica,sans-Serif" font-size="10.00">MolSimilarity</text>
</a>
</g>
</g>
<!-- Node9&#45;&gt;Node10 -->
<g id="edge9" class="edge">
<title>Node9&#45;&gt;Node10</title>
<path fill="none" stroke="midnightblue" d="M609.49,-49.1C601.04,-49.02 592.51,-48.94 584.1,-48.86"/>
<polygon fill="midnightblue" stroke="midnightblue" points="609.71,-52.6 619.74,-49.19 609.77,-45.6 609.71,-52.6"/>
</g>
</g>
</svg>
