<?xml version="1.0" encoding="UTF-8" standalone="no"?>
<!DOCTYPE svg PUBLIC "-//W3C//DTD SVG 1.1//EN"
 "http://www.w3.org/Graphics/SVG/1.1/DTD/svg11.dtd">
<!-- Generated by graphviz version 3.0.0 (20221109.1736)
 -->
<!-- Title: denoptim.fragspace.FragmentSpace.getVertexFromLibrary Pages: 1 -->
<!--zoomable 579 -->
<svg id="main" version="1.1" xmlns="http://www.w3.org/2000/svg" xmlns:xlink="http://www.w3.org/1999/xlink" xml:space="preserve" onload="init(evt)">
<style type="text/css"><![CDATA[
.edge:hover path { stroke: red; }
.edge:hover polygon { stroke: red; fill: red; }
]]></style>
<script type="text/javascript"><![CDATA[
var edges = document.getElementsByTagName('g');
if (edges && edges.length) {
  for (var i=0;i<edges.length;i++) {
    if (edges[i].id.substr(0,4)=='edge') {
      edges[i].setAttribute('class','edge');
    }
  }
}
]]></script>
        <defs>
                <circle id="rim" cx="0" cy="0" r="7"/>
                <circle id="rim2" cx="0" cy="0" r="3.5"/>
                <g id="zoomPlus">
                        <use xlink:href="#rim" fill="#404040">
                                <set attributeName="fill" to="#808080" begin="zoomplus.mouseover" end="zoomplus.mouseout"/>
                        </use>
                        <path d="M-4,0h8M0,-4v8" fill="none" stroke="white" stroke-width="1.5" pointer-events="none"/>
                </g>
                <g id="zoomMin">
                        <use xlink:href="#rim" fill="#404040">
                                <set attributeName="fill" to="#808080" begin="zoomminus.mouseover" end="zoomminus.mouseout"/>
                        </use>
                        <path d="M-4,0h8" fill="none" stroke="white" stroke-width="1.5" pointer-events="none"/>
                </g>
                <g id="dirArrow">
                        <path fill="none" stroke="white" stroke-width="1.5" d="M0,-3.0v7 M-2.5,-0.5L0,-3.0L2.5,-0.5"/>
                </g>
               <g id="resetDef">
                       <use xlink:href="#rim2" fill="#404040">
                               <set attributeName="fill" to="#808080" begin="reset.mouseover" end="reset.mouseout"/>
                       </use>
               </g>
        </defs>

<script type="text/javascript">
var viewWidth = 1073;
var viewHeight = 579;
var sectionId = 'dynsection-58';
</script>
<script xlink:href="svgpan.js"/>
<svg id="graph" class="graph">
<g id="viewport">
<title>denoptim.fragspace.FragmentSpace.getVertexFromLibrary</title>
<polygon fill="white" stroke="transparent" points="-4,4 -4,-575 1069,-575 1069,4 -4,4"/>
<!-- Node1 -->
<g id="node1" class="node">
<title>Node1</title>
<g id="a_node1"><a xlink:title="Returns a clone of the requested building block.">
<polygon fill="#bfbfbf" stroke="black" points="920,-280 920,-310 1065,-310 1065,-280 920,-280"/>
<text text-anchor="start" x="928" y="-298" font-family="Helvetica,sans-Serif" font-size="10.00">denoptim.fragspace.Fragment</text>
<text text-anchor="middle" x="992.5" y="-287" font-family="Helvetica,sans-Serif" font-size="10.00">Space.getVertexFromLibrary</text>
</a>
</g>
</g>
<!-- Node2 -->
<g id="node2" class="node">
<title>Node2</title>
<g id="a_node2"><a xlink:href="classdenoptim_1_1fragspace_1_1_frags_combination_iterator.html#afa4835767d37078abce9e3fbe5fa16e1" target="_top" xlink:title="Constructs a new factory for generating all the combination of fragments that can be attached on a gi...">
<polygon fill="white" stroke="black" points="700.5,-529.5 700.5,-570.5 882.5,-570.5 882.5,-529.5 700.5,-529.5"/>
<text text-anchor="start" x="708.5" y="-558.5" font-family="Helvetica,sans-Serif" font-size="10.00">denoptim.fragspace.Frags</text>
<text text-anchor="start" x="708.5" y="-547.5" font-family="Helvetica,sans-Serif" font-size="10.00">CombinationIterator.FragsCombination</text>
<text text-anchor="middle" x="791.5" y="-536.5" font-family="Helvetica,sans-Serif" font-size="10.00">Iterator</text>
</a>
</g>
</g>
<!-- Node1&#45;&gt;Node2 -->
<g id="edge1" class="edge">
<title>Node1&#45;&gt;Node2</title>
<path fill="none" stroke="midnightblue" d="M986.5,-320.01C975.93,-366.43 946.9,-466.18 884,-521 880.48,-524.07 876.64,-526.81 872.59,-529.26"/>
<polygon fill="midnightblue" stroke="midnightblue" points="989.93,-320.69 988.64,-310.18 983.09,-319.2 989.93,-320.69"/>
</g>
<!-- Node3 -->
<g id="node3" class="node">
<title>Node3</title>
<g id="a_node3"><a xlink:href="classdenoptim_1_1fragspace_1_1_fragment_space.html#a464680d8b4e470182a7d2f0acb8c4ef0" target="_top" xlink:title="Search for a specific AP on a specific fragment and finds out its class.">
<polygon fill="white" stroke="black" points="714.5,-481 714.5,-511 868.5,-511 868.5,-481 714.5,-481"/>
<text text-anchor="start" x="722.5" y="-499" font-family="Helvetica,sans-Serif" font-size="10.00">denoptim.fragspace.Fragment</text>
<text text-anchor="middle" x="791.5" y="-488" font-family="Helvetica,sans-Serif" font-size="10.00">Space.getAPClassForFragment</text>
</a>
</g>
</g>
<!-- Node1&#45;&gt;Node3 -->
<g id="edge2" class="edge">
<title>Node1&#45;&gt;Node3</title>
<path fill="none" stroke="midnightblue" d="M982.44,-319.54C967.54,-356.58 934.39,-426.63 884,-466 876.23,-472.07 867.18,-476.94 857.85,-480.83"/>
<polygon fill="midnightblue" stroke="midnightblue" points="985.78,-320.61 986.16,-310.02 979.26,-318.06 985.78,-320.61"/>
</g>
<!-- Node5 -->
<g id="node5" class="node">
<title>Node5</title>
<g id="a_node5"><a xlink:href="classdenoptim_1_1fragspace_1_1_fragment_space.html#a0311d9fe4a945fc7e06ba466bb8ca121" target="_top" xlink:title="Searches for all building blocks that are compatible with the given list of APs.">
<polygon fill="white" stroke="black" points="235,-431.5 235,-472.5 410,-472.5 410,-431.5 235,-431.5"/>
<text text-anchor="start" x="243" y="-460.5" font-family="Helvetica,sans-Serif" font-size="10.00">denoptim.fragspace.Fragment</text>
<text text-anchor="start" x="243" y="-449.5" font-family="Helvetica,sans-Serif" font-size="10.00">Space.getFragmentsCompatibleWith</text>
<text text-anchor="middle" x="322.5" y="-438.5" font-family="Helvetica,sans-Serif" font-size="10.00">TheseAPs</text>
</a>
</g>
</g>
<!-- Node1&#45;&gt;Node5 -->
<g id="edge10" class="edge">
<title>Node1&#45;&gt;Node5</title>
<path fill="none" stroke="midnightblue" d="M980.71,-319.5C964.84,-352.14 931.81,-408.63 884,-433 803.71,-473.93 546.43,-465.6 410.13,-457.85"/>
<polygon fill="midnightblue" stroke="midnightblue" points="984,-320.73 985.08,-310.19 977.66,-317.75 984,-320.73"/>
</g>
<!-- Node8 -->
<g id="node8" class="node">
<title>Node8</title>
<g id="a_node8"><a xlink:href="classdenoptim_1_1fragspace_1_1_graph_link_finder.html#a23a02a7ccf016632eb93ac02eae9bc6b" target="_top" xlink:title=" ">
<polygon fill="white" stroke="black" points="721.5,-393 721.5,-423 861.5,-423 861.5,-393 721.5,-393"/>
<text text-anchor="start" x="729.5" y="-411" font-family="Helvetica,sans-Serif" font-size="10.00">denoptim.fragspace.Graph</text>
<text text-anchor="middle" x="791.5" y="-400" font-family="Helvetica,sans-Serif" font-size="10.00">LinkFinder.getCandidateBBs</text>
</a>
</g>
</g>
<!-- Node1&#45;&gt;Node8 -->
<g id="edge7" class="edge">
<title>Node1&#45;&gt;Node8</title>
<path fill="none" stroke="midnightblue" d="M967.94,-317.04C947.19,-335.46 915.45,-361.34 884,-378 873.07,-383.79 860.81,-388.74 848.91,-392.85"/>
<polygon fill="midnightblue" stroke="midnightblue" points="970.52,-319.43 975.6,-310.13 965.83,-314.23 970.52,-319.43"/>
</g>
<!-- Node9 -->
<g id="node9" class="node">
<title>Node9</title>
<g id="a_node9"><a xlink:href="classdenoptim_1_1fragspace_1_1_graph_link_finder.html#acbb92ddbad514c788140dc2fbcbcfef7" target="_top" xlink:title="Constructor that specifies which vertex has to be replaced.">
<polygon fill="white" stroke="black" points="488.5,-374 488.5,-404 625.5,-404 625.5,-374 488.5,-374"/>
<text text-anchor="start" x="496.5" y="-392" font-family="Helvetica,sans-Serif" font-size="10.00">denoptim.fragspace.Graph</text>
<text text-anchor="middle" x="557" y="-381" font-family="Helvetica,sans-Serif" font-size="10.00">LinkFinder.GraphLinkFinder</text>
</a>
</g>
</g>
<!-- Node1&#45;&gt;Node9 -->
<g id="edge15" class="edge">
<title>Node1&#45;&gt;Node9</title>
<path fill="none" stroke="midnightblue" d="M956.04,-314.8C935.58,-325.37 909.01,-337.68 884,-345 796.99,-370.47 692.53,-381.27 625.72,-385.8"/>
<polygon fill="midnightblue" stroke="midnightblue" points="957.77,-317.84 964.99,-310.09 954.51,-311.65 957.77,-317.84"/>
</g>
<!-- Node10 -->
<g id="node10" class="node">
<title>Node10</title>
<g id="a_node10"><a xlink:href="classdenoptim_1_1fragspace_1_1_fragment_space.html#aaebd9e32b3be01d8eb6ddb12fdd84dfb" target="_top" xlink:title=" ">
<polygon fill="white" stroke="black" points="701,-305 701,-335 882,-335 882,-305 701,-305"/>
<text text-anchor="start" x="709" y="-323" font-family="Helvetica,sans-Serif" font-size="10.00">denoptim.fragspace.Fragment</text>
<text text-anchor="middle" x="791.5" y="-312" font-family="Helvetica,sans-Serif" font-size="10.00">Space.getCappingVertexWithAPClass</text>
</a>
</g>
</g>
<!-- Node1&#45;&gt;Node10 -->
<g id="edge9" class="edge">
<title>Node1&#45;&gt;Node10</title>
<path fill="none" stroke="midnightblue" d="M909.76,-305.27C900.66,-306.41 891.35,-307.58 882.15,-308.74"/>
<polygon fill="midnightblue" stroke="midnightblue" points="910.45,-308.71 919.94,-303.99 909.58,-301.76 910.45,-308.71"/>
</g>
<!-- Node11 -->
<g id="node11" class="node">
<title>Node11</title>
<g id="a_node11"><a xlink:href="classdenoptim_1_1fragspace_1_1_fragment_space.html#af15a7e1bfc7235e3242e3d99f4277397" target="_top" xlink:title="Searches for all building blocks that are ring&#45;closing vertexes and are compatible with the given AP.">
<polygon fill="white" stroke="black" points="719,-256 719,-286 864,-286 864,-256 719,-256"/>
<text text-anchor="start" x="727" y="-274" font-family="Helvetica,sans-Serif" font-size="10.00">denoptim.fragspace.Fragment</text>
<text text-anchor="middle" x="791.5" y="-263" font-family="Helvetica,sans-Serif" font-size="10.00">Space.getRCVsForAPClass</text>
</a>
</g>
</g>
<!-- Node1&#45;&gt;Node11 -->
<g id="edge11" class="edge">
<title>Node1&#45;&gt;Node11</title>
<path fill="none" stroke="midnightblue" d="M909.6,-285.12C894.5,-283.3 878.85,-281.41 864.1,-279.63"/>
<polygon fill="midnightblue" stroke="midnightblue" points="909.59,-288.65 919.94,-286.37 910.43,-281.7 909.59,-288.65"/>
</g>
<!-- Node13 -->
<g id="node13" class="node">
<title>Node13</title>
<g id="a_node13"><a xlink:href="classdenoptim_1_1fragspace_1_1_fragment_space.html#a96de4850b97ff260187dc7450c883167" target="_top" xlink:title="Searches for all building blocks that are ring&#45;closing vertexes and hold an AP with the given class.">
<polygon fill="white" stroke="black" points="719,-207 719,-237 864,-237 864,-207 719,-207"/>
<text text-anchor="start" x="727" y="-225" font-family="Helvetica,sans-Serif" font-size="10.00">denoptim.fragspace.Fragment</text>
<text text-anchor="middle" x="791.5" y="-214" font-family="Helvetica,sans-Serif" font-size="10.00">Space.getRCVsWithAPClass</text>
</a>
</g>
</g>
<!-- Node1&#45;&gt;Node13 -->
<g id="edge13" class="edge">
<title>Node1&#45;&gt;Node13</title>
<path fill="none" stroke="midnightblue" d="M951.84,-275.54C931.8,-266.16 906.93,-255.2 884,-247 874.08,-243.45 863.39,-240.12 852.96,-237.11"/>
<polygon fill="midnightblue" stroke="midnightblue" points="950.43,-278.75 960.97,-279.86 953.42,-272.42 950.43,-278.75"/>
</g>
<!-- Node15 -->
<g id="node15" class="node">
<title>Node15</title>
<g id="a_node15"><a xlink:href="classdenoptim_1_1fragspace_1_1_graph_link_finder_test.html#a586ff58307127b487068fe2aa5e43359" target="_top" xlink:title="Creates a test graph that looks like this: v0(A)&#45;(A)v1(B)&#45;(B)v2.">
<polygon fill="white" stroke="black" points="711,-158 711,-188 872,-188 872,-158 711,-158"/>
<text text-anchor="start" x="719" y="-176" font-family="Helvetica,sans-Serif" font-size="10.00">denoptim.fragspace.Graph</text>
<text text-anchor="middle" x="791.5" y="-165" font-family="Helvetica,sans-Serif" font-size="10.00">LinkFinderTest.makeTestGraphA</text>
</a>
</g>
</g>
<!-- Node1&#45;&gt;Node15 -->
<g id="edge16" class="edge">
<title>Node1&#45;&gt;Node15</title>
<path fill="none" stroke="midnightblue" d="M972.16,-272.21C952.22,-250.12 919.16,-217.23 884,-198 876.92,-194.13 869.2,-190.82 861.34,-188.01"/>
<polygon fill="midnightblue" stroke="midnightblue" points="969.64,-274.65 978.89,-279.81 974.88,-270 969.64,-274.65"/>
</g>
<!-- Node18 -->
<g id="node18" class="node">
<title>Node18</title>
<g id="a_node18"><a xlink:href="classdenoptim_1_1fragspace_1_1_graph_link_finder_test.html#a788a4b1620fa0610d9f306e2e8b3a75a" target="_top" xlink:title="Creates a test graph that looks like this: v0(E)&#45;(E)v1.">
<polygon fill="white" stroke="black" points="711.5,-109 711.5,-139 871.5,-139 871.5,-109 711.5,-109"/>
<text text-anchor="start" x="719.5" y="-127" font-family="Helvetica,sans-Serif" font-size="10.00">denoptim.fragspace.Graph</text>
<text text-anchor="middle" x="791.5" y="-116" font-family="Helvetica,sans-Serif" font-size="10.00">LinkFinderTest.makeTestGraphE</text>
</a>
</g>
</g>
<!-- Node1&#45;&gt;Node18 -->
<g id="edge19" class="edge">
<title>Node1&#45;&gt;Node18</title>
<path fill="none" stroke="midnightblue" d="M980.15,-270.72C963.63,-238.07 929.87,-180.47 884,-149 878.43,-145.18 872.3,-141.94 865.93,-139.2"/>
<polygon fill="midnightblue" stroke="midnightblue" points="977.16,-272.57 984.72,-280 983.44,-269.48 977.16,-272.57"/>
</g>
<!-- Node20 -->
<g id="node20" class="node">
<title>Node20</title>
<g id="a_node20"><a xlink:href="classdenoptim_1_1fragspace_1_1_graph_link_finder_test.html#a978d58856f04a9a844344ad2cacc812b" target="_top" xlink:title="Creates a test graph that looks like this: v0(F)&#45;(F)v1.">
<polygon fill="white" stroke="black" points="711.5,-60 711.5,-90 871.5,-90 871.5,-60 711.5,-60"/>
<text text-anchor="start" x="719.5" y="-78" font-family="Helvetica,sans-Serif" font-size="10.00">denoptim.fragspace.Graph</text>
<text text-anchor="middle" x="791.5" y="-67" font-family="Helvetica,sans-Serif" font-size="10.00">LinkFinderTest.makeTestGraphF</text>
</a>
</g>
</g>
<!-- Node1&#45;&gt;Node20 -->
<g id="edge21" class="edge">
<title>Node1&#45;&gt;Node20</title>
<path fill="none" stroke="midnightblue" d="M984.78,-270.28C972.18,-228.69 940.99,-144.86 884,-100 879.08,-96.13 873.61,-92.86 867.85,-90.09"/>
<polygon fill="midnightblue" stroke="midnightblue" points="981.43,-271.28 987.59,-279.9 988.15,-269.32 981.43,-271.28"/>
</g>
<!-- Node22 -->
<g id="node22" class="node">
<title>Node22</title>
<g id="a_node22"><a xlink:href="classdenoptim_1_1fragspace_1_1_fragment_space_test.html#a692723b803a64dd25e775b2f8726fe27" target="_top" xlink:title="Works with this graph:">
<polygon fill="white" stroke="black" points="699,-0.5 699,-41.5 884,-41.5 884,-0.5 699,-0.5"/>
<text text-anchor="start" x="707" y="-29.5" font-family="Helvetica,sans-Serif" font-size="10.00">denoptim.fragspace.Fragment</text>
<text text-anchor="start" x="707" y="-18.5" font-family="Helvetica,sans-Serif" font-size="10.00">SpaceTest.testUseWholeMolGeometry</text>
<text text-anchor="middle" x="791.5" y="-7.5" font-family="Helvetica,sans-Serif" font-size="10.00">ForExtractedTemplates</text>
</a>
</g>
</g>
<!-- Node1&#45;&gt;Node22 -->
<g id="edge23" class="edge">
<title>Node1&#45;&gt;Node22</title>
<path fill="none" stroke="midnightblue" d="M987.47,-269.68C978.28,-220.22 951.13,-110.33 884,-50 880.53,-46.88 876.72,-44.1 872.7,-41.61"/>
<polygon fill="midnightblue" stroke="midnightblue" points="984.08,-270.58 989.26,-279.82 990.97,-269.36 984.08,-270.58"/>
</g>
<!-- Node4 -->
<g id="node4" class="node">
<title>Node4</title>
<g id="a_node4"><a xlink:href="classdenoptim_1_1fragspace_1_1_fragment_space.html#a2dca1b8ac952e62a5b5aa1f961334a01" target="_top" xlink:title="Searches for all APs that are compatible with the given list of APs.">
<polygon fill="white" stroke="black" points="451,-481 451,-511 663,-511 663,-481 451,-481"/>
<text text-anchor="start" x="459" y="-499" font-family="Helvetica,sans-Serif" font-size="10.00">denoptim.fragspace.Fragment</text>
<text text-anchor="middle" x="557" y="-488" font-family="Helvetica,sans-Serif" font-size="10.00">Space.getFragAPsCompatibleWithTheseAPs</text>
</a>
</g>
</g>
<!-- Node3&#45;&gt;Node4 -->
<g id="edge3" class="edge">
<title>Node3&#45;&gt;Node4</title>
<path fill="none" stroke="midnightblue" d="M704.23,-496C690.8,-496 676.79,-496 663.01,-496"/>
<polygon fill="midnightblue" stroke="midnightblue" points="704.37,-499.5 714.37,-496 704.37,-492.5 704.37,-499.5"/>
</g>
<!-- Node4&#45;&gt;Node5 -->
<g id="edge4" class="edge">
<title>Node4&#45;&gt;Node5</title>
<path fill="none" stroke="midnightblue" d="M466.72,-479.1C448.13,-475.59 428.56,-471.88 410.07,-468.38"/>
<polygon fill="midnightblue" stroke="midnightblue" points="466.16,-482.56 476.64,-480.98 467.46,-475.68 466.16,-482.56"/>
</g>
<!-- Node7 -->
<g id="node7" class="node">
<title>Node7</title>
<g id="a_node7"><a xlink:href="classdenoptim_1_1fragspace_1_1_fragment_space_test.html#a2ba7718688486212e987638aef444bad" target="_top" xlink:title=" ">
<polygon fill="white" stroke="black" points="230,-491.5 230,-532.5 415,-532.5 415,-491.5 230,-491.5"/>
<text text-anchor="start" x="238" y="-520.5" font-family="Helvetica,sans-Serif" font-size="10.00">denoptim.fragspace.Fragment</text>
<text text-anchor="start" x="238" y="-509.5" font-family="Helvetica,sans-Serif" font-size="10.00">SpaceTest.testGetFragAPsCompatible</text>
<text text-anchor="middle" x="322.5" y="-498.5" font-family="Helvetica,sans-Serif" font-size="10.00">WithTheseAPs</text>
</a>
</g>
</g>
<!-- Node4&#45;&gt;Node7 -->
<g id="edge6" class="edge">
<title>Node4&#45;&gt;Node7</title>
<path fill="none" stroke="midnightblue" d="M440.89,-503.92C432.3,-504.51 423.69,-505.11 415.26,-505.69"/>
<polygon fill="midnightblue" stroke="midnightblue" points="441.24,-507.41 450.97,-503.23 440.76,-500.42 441.24,-507.41"/>
</g>
<!-- Node6 -->
<g id="node6" class="node">
<title>Node6</title>
<g id="a_node6"><a xlink:href="classdenoptim_1_1fragspace_1_1_fragment_space_test.html#ab95d03f36f68718eb1cc11fac188401f" target="_top" xlink:title=" ">
<polygon fill="white" stroke="black" points="0,-431.5 0,-472.5 194,-472.5 194,-431.5 0,-431.5"/>
<text text-anchor="start" x="8" y="-460.5" font-family="Helvetica,sans-Serif" font-size="10.00">denoptim.fragspace.Fragment</text>
<text text-anchor="start" x="8" y="-449.5" font-family="Helvetica,sans-Serif" font-size="10.00">SpaceTest.testGetFragmentsCompatible</text>
<text text-anchor="middle" x="97" y="-438.5" font-family="Helvetica,sans-Serif" font-size="10.00">WithTheseAPs</text>
</a>
</g>
</g>
<!-- Node5&#45;&gt;Node6 -->
<g id="edge5" class="edge">
<title>Node5&#45;&gt;Node6</title>
<path fill="none" stroke="midnightblue" d="M224.75,-452C214.66,-452 204.41,-452 194.33,-452"/>
<polygon fill="midnightblue" stroke="midnightblue" points="224.77,-455.5 234.77,-452 224.77,-448.5 224.77,-455.5"/>
</g>
<!-- Node8&#45;&gt;Node9 -->
<g id="edge8" class="edge">
<title>Node8&#45;&gt;Node9</title>
<path fill="none" stroke="midnightblue" d="M711.28,-401.53C683.44,-399.25 652.45,-396.72 625.66,-394.53"/>
<polygon fill="midnightblue" stroke="midnightblue" points="711.12,-405.02 721.37,-402.35 711.69,-398.05 711.12,-405.02"/>
</g>
<!-- Node12 -->
<g id="node12" class="node">
<title>Node12</title>
<g id="a_node12"><a xlink:href="classdenoptim_1_1fragspace_1_1_fragment_space_test.html#a342092d5d542a9e50e81c73aa931b223" target="_top" xlink:title=" ">
<polygon fill="white" stroke="black" points="469,-281 469,-311 645,-311 645,-281 469,-281"/>
<text text-anchor="start" x="477" y="-299" font-family="Helvetica,sans-Serif" font-size="10.00">denoptim.fragspace.Fragment</text>
<text text-anchor="middle" x="557" y="-288" font-family="Helvetica,sans-Serif" font-size="10.00">SpaceTest.testGetRCVsForAPClass</text>
</a>
</g>
</g>
<!-- Node11&#45;&gt;Node12 -->
<g id="edge12" class="edge">
<title>Node11&#45;&gt;Node12</title>
<path fill="none" stroke="midnightblue" d="M708.9,-279.77C688.35,-281.98 666.21,-284.36 645.39,-286.6"/>
<polygon fill="midnightblue" stroke="midnightblue" points="709.28,-283.25 718.85,-278.7 708.53,-276.29 709.28,-283.25"/>
</g>
<!-- Node14 -->
<g id="node14" class="node">
<title>Node14</title>
<g id="a_node14"><a xlink:href="classdenoptim_1_1fragspace_1_1_fragment_space_test.html#ac722cc2d3eff673746ba6c3eba3cace3" target="_top" xlink:title=" ">
<polygon fill="white" stroke="black" points="466,-232 466,-262 648,-262 648,-232 466,-232"/>
<text text-anchor="start" x="474" y="-250" font-family="Helvetica,sans-Serif" font-size="10.00">denoptim.fragspace.Fragment</text>
<text text-anchor="middle" x="557" y="-239" font-family="Helvetica,sans-Serif" font-size="10.00">SpaceTest.testGetRCVsWithAPClass</text>
</a>
</g>
</g>
<!-- Node13&#45;&gt;Node14 -->
<g id="edge14" class="edge">
<title>Node13&#45;&gt;Node14</title>
<path fill="none" stroke="midnightblue" d="M708.77,-230.79C689.22,-232.89 668.23,-235.15 648.32,-237.29"/>
<polygon fill="midnightblue" stroke="midnightblue" points="709.28,-234.25 718.85,-229.7 708.53,-227.29 709.28,-234.25"/>
</g>
<!-- Node16 -->
<g id="node16" class="node">
<title>Node16</title>
<g id="a_node16"><a xlink:href="classdenoptim_1_1fragspace_1_1_graph_link_finder_test.html#a10f29a0409c104973230371493a734ed" target="_top" xlink:title=" ">
<polygon fill="white" stroke="black" points="475,-183 475,-213 639,-213 639,-183 475,-183"/>
<text text-anchor="start" x="483" y="-201" font-family="Helvetica,sans-Serif" font-size="10.00">denoptim.fragspace.Graph</text>
<text text-anchor="middle" x="557" y="-190" font-family="Helvetica,sans-Serif" font-size="10.00">LinkFinderTest.testLinkFromEdge</text>
</a>
</g>
</g>
<!-- Node15&#45;&gt;Node16 -->
<g id="edge17" class="edge">
<title>Node15&#45;&gt;Node16</title>
<path fill="none" stroke="midnightblue" d="M700.66,-182.66C680.41,-184.84 659.03,-187.14 639.16,-189.27"/>
<polygon fill="midnightblue" stroke="midnightblue" points="701.24,-186.12 710.81,-181.57 700.5,-179.16 701.24,-186.12"/>
</g>
<!-- Node17 -->
<g id="node17" class="node">
<title>Node17</title>
<g id="a_node17"><a xlink:href="classdenoptim_1_1fragspace_1_1_graph_link_finder_test.html#a11b5fce33ae34132f5b16a11b57aaae7" target="_top" xlink:title=" ">
<polygon fill="white" stroke="black" points="472,-134 472,-164 642,-164 642,-134 472,-134"/>
<text text-anchor="start" x="480" y="-152" font-family="Helvetica,sans-Serif" font-size="10.00">denoptim.fragspace.Graph</text>
<text text-anchor="middle" x="557" y="-141" font-family="Helvetica,sans-Serif" font-size="10.00">LinkFinderTest.testLinkFromVertex</text>
</a>
</g>
</g>
<!-- Node15&#45;&gt;Node17 -->
<g id="edge18" class="edge">
<title>Node15&#45;&gt;Node17</title>
<path fill="none" stroke="midnightblue" d="M700.86,-163.75C681.63,-161.76 661.37,-159.67 642.34,-157.71"/>
<polygon fill="midnightblue" stroke="midnightblue" points="700.51,-167.23 710.81,-164.77 701.22,-160.27 700.51,-167.23"/>
</g>
<!-- Node19 -->
<g id="node19" class="node">
<title>Node19</title>
<g id="a_node19"><a xlink:href="classdenoptim_1_1fragspace_1_1_graph_link_finder_test.html#a0ec3c77508e8ec583b570a6803056e9a" target="_top" xlink:title=" ">
<polygon fill="white" stroke="black" points="475,-74.5 475,-115.5 639,-115.5 639,-74.5 475,-74.5"/>
<text text-anchor="start" x="483" y="-103.5" font-family="Helvetica,sans-Serif" font-size="10.00">denoptim.fragspace.Graph</text>
<text text-anchor="start" x="483" y="-92.5" font-family="Helvetica,sans-Serif" font-size="10.00">LinkFinderTest.testLinkFromEdge</text>
<text text-anchor="middle" x="557" y="-81.5" font-family="Helvetica,sans-Serif" font-size="10.00">OneMatch</text>
</a>
</g>
</g>
<!-- Node18&#45;&gt;Node19 -->
<g id="edge20" class="edge">
<title>Node18&#45;&gt;Node19</title>
<path fill="none" stroke="midnightblue" d="M701.51,-112.9C681.02,-110.34 659.33,-107.64 639.2,-105.13"/>
<polygon fill="midnightblue" stroke="midnightblue" points="701.11,-116.38 711.46,-114.14 701.97,-109.43 701.11,-116.38"/>
</g>
<!-- Node21 -->
<g id="node21" class="node">
<title>Node21</title>
<g id="a_node21"><a xlink:href="classdenoptim_1_1fragspace_1_1_graph_link_finder_test.html#a027bbe60b63ad7c458011fe4c4814ff7" target="_top" xlink:title=" ">
<polygon fill="white" stroke="black" points="475,-14.5 475,-55.5 639,-55.5 639,-14.5 475,-14.5"/>
<text text-anchor="start" x="483" y="-43.5" font-family="Helvetica,sans-Serif" font-size="10.00">denoptim.fragspace.Graph</text>
<text text-anchor="start" x="483" y="-32.5" font-family="Helvetica,sans-Serif" font-size="10.00">LinkFinderTest.testLinkFromEdge</text>
<text text-anchor="middle" x="557" y="-21.5" font-family="Helvetica,sans-Serif" font-size="10.00">NoMatch</text>
</a>
</g>
</g>
<!-- Node20&#45;&gt;Node21 -->
<g id="edge22" class="edge">
<title>Node20&#45;&gt;Node21</title>
<path fill="none" stroke="midnightblue" d="M701.51,-59.69C681.02,-56.16 659.33,-52.43 639.2,-48.97"/>
<polygon fill="midnightblue" stroke="midnightblue" points="701.01,-63.16 711.46,-61.4 702.2,-56.26 701.01,-63.16"/>
</g>
</g>
</svg>
        <g id="navigator" transform="translate(0 0)" fill="#404254">
                <rect fill="#f2f5e9" fill-opacity="0.5" stroke="#606060" stroke-width=".5" x="0" y="0" width="60" height="60"/>
                <use id="zoomplus" xlink:href="#zoomPlus" x="17" y="9" onmousedown="handleZoom(evt,'in')"/>
                <use id="zoomminus" xlink:href="#zoomMin" x="42" y="9" onmousedown="handleZoom(evt,'out')"/>
                <use id="reset" xlink:href="#resetDef" x="30" y="36" onmousedown="handleReset()"/>
                <g id="arrowUp" xlink:href="#dirArrow" transform="translate(30 24)" onmousedown="handlePan(0,-1)">
                  <use xlink:href="#rim" fill="#404040">
                        <set attributeName="fill" to="#808080" begin="arrowUp.mouseover" end="arrowUp.mouseout"/>
                  </use>
                  <path fill="none" stroke="white" stroke-width="1.5" d="M0,-3.0v7 M-2.5,-0.5L0,-3.0L2.5,-0.5"/>
                </g>
                <g id="arrowRight" xlink:href="#dirArrow" transform="rotate(90) translate(36 -43)" onmousedown="handlePan(1,0)">
                  <use xlink:href="#rim" fill="#404040">
                        <set attributeName="fill" to="#808080" begin="arrowRight.mouseover" end="arrowRight.mouseout"/>
                  </use>
                  <path fill="none" stroke="white" stroke-width="1.5" d="M0,-3.0v7 M-2.5,-0.5L0,-3.0L2.5,-0.5"/>
                </g>
                <g id="arrowDown" xlink:href="#dirArrow" transform="rotate(180) translate(-30 -48)" onmousedown="handlePan(0,1)">
                  <use xlink:href="#rim" fill="#404040">
                        <set attributeName="fill" to="#808080" begin="arrowDown.mouseover" end="arrowDown.mouseout"/>
                  </use>
                  <path fill="none" stroke="white" stroke-width="1.5" d="M0,-3.0v7 M-2.5,-0.5L0,-3.0L2.5,-0.5"/>
                </g>
                <g id="arrowLeft" xlink:href="#dirArrow" transform="rotate(270) translate(-36 17)" onmousedown="handlePan(-1,0)">
                  <use xlink:href="#rim" fill="#404040">
                        <set attributeName="fill" to="#808080" begin="arrowLeft.mouseover" end="arrowLeft.mouseout"/>
                  </use>
                  <path fill="none" stroke="white" stroke-width="1.5" d="M0,-3.0v7 M-2.5,-0.5L0,-3.0L2.5,-0.5"/>
                </g>
        </g>
        <svg viewBox="0 0 15 15" width="100%" height="30px" preserveAspectRatio="xMaxYMin meet">
         <g id="arrow_out" transform="scale(0.3 0.3)">
          <a xlink:href="classdenoptim_1_1fragspace_1_1_fragment_space_a492683049dc687fcdc41b43051d30554_icgraph_org.svg" target="_base">
           <rect id="button" ry="5" rx="5" y="6" x="6" height="38" width="38"
                fill="#f2f5e9" fill-opacity="0.5" stroke="#606060" stroke-width="1.0"/>
           <path id="arrow"
             d="M 11.500037,31.436501 C 11.940474,20.09759 22.043105,11.32322 32.158766,21.979434 L 37.068811,17.246167 C 37.068811,17.246167 37.088388,32 37.088388,32 L 22.160133,31.978069 C 22.160133,31.978069 26.997745,27.140456 26.997745,27.140456 C 18.528582,18.264221 13.291696,25.230495 11.500037,31.436501 z"
             style="fill:#404040;"/>
          </a>
         </g>
        </svg>
</svg>
