<?xml version="1.0" encoding="UTF-8" standalone="no"?>
<!DOCTYPE svg PUBLIC "-//W3C//DTD SVG 1.1//EN"
 "http://www.w3.org/Graphics/SVG/1.1/DTD/svg11.dtd">
<!-- Generated by graphviz version 3.0.0 (20221109.1736)
 -->
<!-- Title: denoptim.utils.RotationalSpaceUtils.defineRotatableBonds Pages: 1 -->
<!--zoomable 328 -->
<svg id="main" version="1.1" xmlns="http://www.w3.org/2000/svg" xmlns:xlink="http://www.w3.org/1999/xlink" xml:space="preserve" onload="init(evt)">
<style type="text/css"><![CDATA[
.edge:hover path { stroke: red; }
.edge:hover polygon { stroke: red; fill: red; }
]]></style>
<script type="text/javascript"><![CDATA[
var edges = document.getElementsByTagName('g');
if (edges && edges.length) {
  for (var i=0;i<edges.length;i++) {
    if (edges[i].id.substr(0,4)=='edge') {
      edges[i].setAttribute('class','edge');
    }
  }
}
]]></script>
        <defs>
                <circle id="rim" cx="0" cy="0" r="7"/>
                <circle id="rim2" cx="0" cy="0" r="3.5"/>
                <g id="zoomPlus">
                        <use xlink:href="#rim" fill="#404040">
                                <set attributeName="fill" to="#808080" begin="zoomplus.mouseover" end="zoomplus.mouseout"/>
                        </use>
                        <path d="M-4,0h8M0,-4v8" fill="none" stroke="white" stroke-width="1.5" pointer-events="none"/>
                </g>
                <g id="zoomMin">
                        <use xlink:href="#rim" fill="#404040">
                                <set attributeName="fill" to="#808080" begin="zoomminus.mouseover" end="zoomminus.mouseout"/>
                        </use>
                        <path d="M-4,0h8" fill="none" stroke="white" stroke-width="1.5" pointer-events="none"/>
                </g>
                <g id="dirArrow">
                        <path fill="none" stroke="white" stroke-width="1.5" d="M0,-3.0v7 M-2.5,-0.5L0,-3.0L2.5,-0.5"/>
                </g>
               <g id="resetDef">
                       <use xlink:href="#rim2" fill="#404040">
                               <set attributeName="fill" to="#808080" begin="reset.mouseover" end="reset.mouseout"/>
                       </use>
               </g>
        </defs>

<script type="text/javascript">
var viewWidth = 772;
var viewHeight = 328;
var sectionId = 'dynsection-1';
</script>
<script xlink:href="svgpan.js"/>
<svg id="graph" class="graph">
<g id="viewport">
<title>denoptim.utils.RotationalSpaceUtils.defineRotatableBonds</title>
<polygon fill="white" stroke="transparent" points="-4,4 -4,-324 768,-324 768,4 -4,4"/>
<!-- Node1 -->
<g id="node1" class="node">
<title>Node1</title>
<g id="a_node1"><a xlink:title="Define the rotational space (also torsional space) for a given molecule.">
<polygon fill="#bfbfbf" stroke="black" points="0,-142.5 0,-172.5 161,-172.5 161,-142.5 0,-142.5"/>
<text text-anchor="start" x="8" y="-160.5" font-family="Helvetica,sans-Serif" font-size="10.00">denoptim.utils.Rotational</text>
<text text-anchor="middle" x="80.5" y="-149.5" font-family="Helvetica,sans-Serif" font-size="10.00">SpaceUtils.defineRotatableBonds</text>
</a>
</g>
</g>
<!-- Node2 -->
<g id="node2" class="node">
<title>Node2</title>
<g id="a_node2"><a xlink:href="classdenoptim_1_1utils_1_1_rotational_space_utils.html#a632725819d97adeb31a5eb613b307ea2" target="_top" xlink:title="Search for all bonds connecting atoms corresponding to two different vertices in the DENOPTIMGraph.">
<polygon fill="white" stroke="black" points="216,-289.5 216,-319.5 371,-319.5 371,-289.5 216,-289.5"/>
<text text-anchor="start" x="224" y="-307.5" font-family="Helvetica,sans-Serif" font-size="10.00">denoptim.utils.Rotational</text>
<text text-anchor="middle" x="293.5" y="-296.5" font-family="Helvetica,sans-Serif" font-size="10.00">SpaceUtils.getInterVertexBonds</text>
</a>
</g>
</g>
<!-- Node1&#45;&gt;Node2 -->
<g id="edge1" class="edge">
<title>Node1&#45;&gt;Node2</title>
<path fill="none" stroke="midnightblue" d="M91.29,-172.6C109.06,-198.77 149.27,-252.44 197,-280.5 200.04,-282.29 203.21,-283.94 206.47,-285.47"/>
<polygon fill="midnightblue" stroke="midnightblue" points="205.28,-288.77 215.86,-289.48 208.03,-282.34 205.28,-288.77"/>
</g>
<!-- Node3 -->
<g id="node3" class="node">
<title>Node3</title>
<g id="a_node3"><a xlink:href="classdenoptim_1_1utils_1_1_many_s_m_a_r_t_s_query.html#a3cd7e9334f87d11a46f3a424beaa6751" target="_top" xlink:title=" ">
<polygon fill="white" stroke="black" points="201,-240.5 201,-270.5 386,-270.5 386,-240.5 201,-240.5"/>
<text text-anchor="start" x="209" y="-258.5" font-family="Helvetica,sans-Serif" font-size="10.00">denoptim.utils.ManySMARTSQuery.get</text>
<text text-anchor="middle" x="293.5" y="-247.5" font-family="Helvetica,sans-Serif" font-size="10.00">MatchesOfSMARTS</text>
</a>
</g>
</g>
<!-- Node1&#45;&gt;Node3 -->
<g id="edge2" class="edge">
<title>Node1&#45;&gt;Node3</title>
<path fill="none" stroke="midnightblue" d="M100.83,-172.69C122.92,-189.36 160.71,-215.81 197,-231.5 201.78,-233.57 206.78,-235.48 211.87,-237.25"/>
<polygon fill="midnightblue" stroke="midnightblue" points="211.16,-240.7 221.75,-240.48 213.33,-234.05 211.16,-240.7"/>
</g>
<!-- Node4 -->
<g id="node4" class="node">
<title>Node4</title>
<g id="a_node4"><a xlink:href="classdenoptim_1_1utils_1_1_many_s_m_a_r_t_s_query.html#a3506079a3de962c32b2c715f8cea96e6" target="_top" xlink:title=" ">
<polygon fill="white" stroke="black" points="201,-191.5 201,-221.5 386,-221.5 386,-191.5 201,-191.5"/>
<text text-anchor="start" x="209" y="-209.5" font-family="Helvetica,sans-Serif" font-size="10.00">denoptim.utils.ManySMARTSQuery.get</text>
<text text-anchor="middle" x="293.5" y="-198.5" font-family="Helvetica,sans-Serif" font-size="10.00">Message</text>
</a>
</g>
</g>
<!-- Node1&#45;&gt;Node4 -->
<g id="edge3" class="edge">
<title>Node1&#45;&gt;Node4</title>
<path fill="none" stroke="midnightblue" d="M146.24,-172.53C168.92,-177.8 194.58,-183.76 218,-189.2"/>
<polygon fill="midnightblue" stroke="midnightblue" points="217.35,-192.64 227.88,-191.49 218.93,-185.82 217.35,-192.64"/>
</g>
<!-- Node5 -->
<g id="node5" class="node">
<title>Node5</title>
<g id="a_node5"><a xlink:href="classdenoptim_1_1utils_1_1_many_s_m_a_r_t_s_query.html#aea287dfe72ffc150250c8180706289bd" target="_top" xlink:title=" ">
<polygon fill="white" stroke="black" points="201,-142.5 201,-172.5 386,-172.5 386,-142.5 201,-142.5"/>
<text text-anchor="start" x="209" y="-160.5" font-family="Helvetica,sans-Serif" font-size="10.00">denoptim.utils.ManySMARTSQuery.get</text>
<text text-anchor="middle" x="293.5" y="-149.5" font-family="Helvetica,sans-Serif" font-size="10.00">NumMatchesOfQuery</text>
</a>
</g>
</g>
<!-- Node1&#45;&gt;Node5 -->
<g id="edge4" class="edge">
<title>Node1&#45;&gt;Node5</title>
<path fill="none" stroke="midnightblue" d="M161.27,-157.5C170.88,-157.5 180.8,-157.5 190.68,-157.5"/>
<polygon fill="midnightblue" stroke="midnightblue" points="190.94,-161 200.94,-157.5 190.94,-154 190.94,-161"/>
</g>
<!-- Node6 -->
<g id="node6" class="node">
<title>Node6</title>
<g id="a_node6"><a xlink:href="classdenoptim_1_1utils_1_1_rotational_space_utils.html#ab9bae44c65063e18fecfe4525154f877" target="_top" xlink:title="Read a formatted file and return a map with all the SMARTS queries identifying rotatable bonds.">
<polygon fill="white" stroke="black" points="198,-93.5 198,-123.5 389,-123.5 389,-93.5 198,-93.5"/>
<text text-anchor="start" x="206" y="-111.5" font-family="Helvetica,sans-Serif" font-size="10.00">denoptim.utils.Rotational</text>
<text text-anchor="middle" x="293.5" y="-100.5" font-family="Helvetica,sans-Serif" font-size="10.00">SpaceUtils.getRotationalSpaceDefinition</text>
</a>
</g>
</g>
<!-- Node1&#45;&gt;Node6 -->
<g id="edge5" class="edge">
<title>Node1&#45;&gt;Node6</title>
<path fill="none" stroke="midnightblue" d="M146.24,-142.47C168.92,-137.2 194.58,-131.24 218,-125.8"/>
<polygon fill="midnightblue" stroke="midnightblue" points="218.93,-129.18 227.88,-123.51 217.35,-122.36 218.93,-129.18"/>
</g>
<!-- Node7 -->
<g id="node7" class="node">
<title>Node7</title>
<g id="a_node7"><a xlink:href="classdenoptim_1_1utils_1_1_many_s_m_a_r_t_s_query.html#aaffb007354a24c9fb679742e431c9980" target="_top" xlink:title=" ">
<polygon fill="white" stroke="black" points="200,-44.5 200,-74.5 387,-74.5 387,-44.5 200,-44.5"/>
<text text-anchor="start" x="208" y="-62.5" font-family="Helvetica,sans-Serif" font-size="10.00">denoptim.utils.ManySMARTSQuery.has</text>
<text text-anchor="middle" x="293.5" y="-51.5" font-family="Helvetica,sans-Serif" font-size="10.00">Problems</text>
</a>
</g>
</g>
<!-- Node1&#45;&gt;Node7 -->
<g id="edge6" class="edge">
<title>Node1&#45;&gt;Node7</title>
<path fill="none" stroke="midnightblue" d="M101.3,-142.3C123.5,-125.91 161.1,-100.1 197,-84.5 202.73,-82.01 208.75,-79.73 214.89,-77.64"/>
<polygon fill="midnightblue" stroke="midnightblue" points="216.13,-80.91 224.57,-74.51 213.98,-74.25 216.13,-80.91"/>
</g>
<!-- Node8 -->
<g id="node8" class="node">
<title>Node8</title>
<g id="a_node8"><a xlink:href="classdenoptim_1_1utils_1_1_molecule_utils.html#a5b9d0a88dd69734a1c54659e07d1294a" target="_top" xlink:title="Replace any PseudoAtoms representing ring closing attractors with H.">
<polygon fill="white" stroke="black" points="197,-6 197,-25 390,-25 390,-6 197,-6"/>
<text text-anchor="middle" x="293.5" y="-13" font-family="Helvetica,sans-Serif" font-size="10.00">denoptim.utils.MoleculeUtils.removeRCA</text>
</a>
</g>
</g>
<!-- Node1&#45;&gt;Node8 -->
<g id="edge7" class="edge">
<title>Node1&#45;&gt;Node8</title>
<path fill="none" stroke="midnightblue" d="M91.2,-142.33C108.86,-116.07 148.88,-62.39 197,-35.5 201.9,-32.76 207.13,-30.4 212.52,-28.36"/>
<polygon fill="midnightblue" stroke="midnightblue" points="214.02,-31.55 222.37,-25.02 211.77,-24.92 214.02,-31.55"/>
</g>
<!-- Node9 -->
<g id="node9" class="node">
<title>Node9</title>
<g id="a_node9"><a xlink:href="classdenoptim_1_1utils_1_1_molecule_utils.html#a8bca186632882f9399b9511020a43211" target="_top" xlink:title="Gets either the elemental symbol (for standard atoms) of the label (for pseudo&#45;atoms).">
<polygon fill="white" stroke="black" points="426,-0.5 426,-30.5 580,-30.5 580,-0.5 426,-0.5"/>
<text text-anchor="start" x="434" y="-18.5" font-family="Helvetica,sans-Serif" font-size="10.00">denoptim.utils.MoleculeUtils.get</text>
<text text-anchor="middle" x="503" y="-7.5" font-family="Helvetica,sans-Serif" font-size="10.00">SymbolOrLabel</text>
</a>
</g>
</g>
<!-- Node8&#45;&gt;Node9 -->
<g id="edge8" class="edge">
<title>Node8&#45;&gt;Node9</title>
<path fill="none" stroke="midnightblue" d="M390.05,-15.5C398.6,-15.5 407.22,-15.5 415.68,-15.5"/>
<polygon fill="midnightblue" stroke="midnightblue" points="415.9,-19 425.9,-15.5 415.9,-12 415.9,-19"/>
</g>
<!-- Node10 -->
<g id="node10" class="node">
<title>Node10</title>
<g id="a_node10"><a xlink:href="classdenoptim_1_1utils_1_1_molecule_utils.html#af975649c8225c4653efb1135d8360c2d" target="_top" xlink:title="Check element symbol corresponds to real element of Periodic Table.">
<polygon fill="white" stroke="black" points="616,-0.5 616,-30.5 764,-30.5 764,-0.5 616,-0.5"/>
<text text-anchor="start" x="624" y="-18.5" font-family="Helvetica,sans-Serif" font-size="10.00">denoptim.utils.MoleculeUtils.is</text>
<text text-anchor="middle" x="690" y="-7.5" font-family="Helvetica,sans-Serif" font-size="10.00">Element</text>
</a>
</g>
</g>
<!-- Node9&#45;&gt;Node10 -->
<g id="edge9" class="edge">
<title>Node9&#45;&gt;Node10</title>
<path fill="none" stroke="midnightblue" d="M580.05,-15.5C588.57,-15.5 597.29,-15.5 605.89,-15.5"/>
<polygon fill="midnightblue" stroke="midnightblue" points="605.93,-19 615.93,-15.5 605.93,-12 605.93,-19"/>
</g>
<!-- Node10&#45;&gt;Node10 -->
<g id="edge10" class="edge">
<title>Node10&#45;&gt;Node10</title>
<path fill="none" stroke="midnightblue" d="M657.59,-30.66C649.77,-40.06 660.57,-49 690,-49 707.93,-49 718.95,-45.68 723.05,-40.96"/>
<polygon fill="midnightblue" stroke="midnightblue" points="726.52,-40.42 722.41,-30.66 719.54,-40.86 726.52,-40.42"/>
</g>
</g>
</svg>
        <g id="navigator" transform="translate(0 0)" fill="#404254">
                <rect fill="#f2f5e9" fill-opacity="0.5" stroke="#606060" stroke-width=".5" x="0" y="0" width="60" height="60"/>
                <use id="zoomplus" xlink:href="#zoomPlus" x="17" y="9" onmousedown="handleZoom(evt,'in')"/>
                <use id="zoomminus" xlink:href="#zoomMin" x="42" y="9" onmousedown="handleZoom(evt,'out')"/>
                <use id="reset" xlink:href="#resetDef" x="30" y="36" onmousedown="handleReset()"/>
                <g id="arrowUp" xlink:href="#dirArrow" transform="translate(30 24)" onmousedown="handlePan(0,-1)">
                  <use xlink:href="#rim" fill="#404040">
                        <set attributeName="fill" to="#808080" begin="arrowUp.mouseover" end="arrowUp.mouseout"/>
                  </use>
                  <path fill="none" stroke="white" stroke-width="1.5" d="M0,-3.0v7 M-2.5,-0.5L0,-3.0L2.5,-0.5"/>
                </g>
                <g id="arrowRight" xlink:href="#dirArrow" transform="rotate(90) translate(36 -43)" onmousedown="handlePan(1,0)">
                  <use xlink:href="#rim" fill="#404040">
                        <set attributeName="fill" to="#808080" begin="arrowRight.mouseover" end="arrowRight.mouseout"/>
                  </use>
                  <path fill="none" stroke="white" stroke-width="1.5" d="M0,-3.0v7 M-2.5,-0.5L0,-3.0L2.5,-0.5"/>
                </g>
                <g id="arrowDown" xlink:href="#dirArrow" transform="rotate(180) translate(-30 -48)" onmousedown="handlePan(0,1)">
                  <use xlink:href="#rim" fill="#404040">
                        <set attributeName="fill" to="#808080" begin="arrowDown.mouseover" end="arrowDown.mouseout"/>
                  </use>
                  <path fill="none" stroke="white" stroke-width="1.5" d="M0,-3.0v7 M-2.5,-0.5L0,-3.0L2.5,-0.5"/>
                </g>
                <g id="arrowLeft" xlink:href="#dirArrow" transform="rotate(270) translate(-36 17)" onmousedown="handlePan(-1,0)">
                  <use xlink:href="#rim" fill="#404040">
                        <set attributeName="fill" to="#808080" begin="arrowLeft.mouseover" end="arrowLeft.mouseout"/>
                  </use>
                  <path fill="none" stroke="white" stroke-width="1.5" d="M0,-3.0v7 M-2.5,-0.5L0,-3.0L2.5,-0.5"/>
                </g>
        </g>
        <svg viewBox="0 0 15 15" width="100%" height="30px" preserveAspectRatio="xMaxYMin meet">
         <g id="arrow_out" transform="scale(0.3 0.3)">
          <a xlink:href="classdenoptim_1_1utils_1_1_rotational_space_utils_af386024b4389e50ad3ff118168e5382d_cgraph_org.svg" target="_base">
           <rect id="button" ry="5" rx="5" y="6" x="6" height="38" width="38"
                fill="#f2f5e9" fill-opacity="0.5" stroke="#606060" stroke-width="1.0"/>
           <path id="arrow"
             d="M 11.500037,31.436501 C 11.940474,20.09759 22.043105,11.32322 32.158766,21.979434 L 37.068811,17.246167 C 37.068811,17.246167 37.088388,32 37.088388,32 L 22.160133,31.978069 C 22.160133,31.978069 26.997745,27.140456 26.997745,27.140456 C 18.528582,18.264221 13.291696,25.230495 11.500037,31.436501 z"
             style="fill:#404040;"/>
          </a>
         </g>
        </svg>
</svg>
