<?xml version="1.0" encoding="UTF-8" standalone="no"?>
<!DOCTYPE svg PUBLIC "-//W3C//DTD SVG 1.1//EN"
 "http://www.w3.org/Graphics/SVG/1.1/DTD/svg11.dtd">
<!-- Generated by graphviz version 3.0.0 (20221109.1736)
 -->
<!-- Title: denoptim.graph.DGraph.DENOPTIMGraphDeserializer.deserialize Pages: 1 -->
<!--zoomable 446 -->
<svg id="main" version="1.1" xmlns="http://www.w3.org/2000/svg" xmlns:xlink="http://www.w3.org/1999/xlink" xml:space="preserve" onload="init(evt)">
<style type="text/css"><![CDATA[
.edge:hover path { stroke: red; }
.edge:hover polygon { stroke: red; fill: red; }
]]></style>
<script type="text/javascript"><![CDATA[
var edges = document.getElementsByTagName('g');
if (edges && edges.length) {
  for (var i=0;i<edges.length;i++) {
    if (edges[i].id.substr(0,4)=='edge') {
      edges[i].setAttribute('class','edge');
    }
  }
}
]]></script>
        <defs>
                <circle id="rim" cx="0" cy="0" r="7"/>
                <circle id="rim2" cx="0" cy="0" r="3.5"/>
                <g id="zoomPlus">
                        <use xlink:href="#rim" fill="#404040">
                                <set attributeName="fill" to="#808080" begin="zoomplus.mouseover" end="zoomplus.mouseout"/>
                        </use>
                        <path d="M-4,0h8M0,-4v8" fill="none" stroke="white" stroke-width="1.5" pointer-events="none"/>
                </g>
                <g id="zoomMin">
                        <use xlink:href="#rim" fill="#404040">
                                <set attributeName="fill" to="#808080" begin="zoomminus.mouseover" end="zoomminus.mouseout"/>
                        </use>
                        <path d="M-4,0h8" fill="none" stroke="white" stroke-width="1.5" pointer-events="none"/>
                </g>
                <g id="dirArrow">
                        <path fill="none" stroke="white" stroke-width="1.5" d="M0,-3.0v7 M-2.5,-0.5L0,-3.0L2.5,-0.5"/>
                </g>
               <g id="resetDef">
                       <use xlink:href="#rim2" fill="#404040">
                               <set attributeName="fill" to="#808080" begin="reset.mouseover" end="reset.mouseout"/>
                       </use>
               </g>
        </defs>

<script type="text/javascript">
var viewWidth = 1002;
var viewHeight = 446;
var sectionId = 'dynsection-2';
</script>
<script xlink:href="svgpan.js"/>
<svg id="graph" class="graph">
<g id="viewport">
<title>denoptim.graph.DGraph.DENOPTIMGraphDeserializer.deserialize</title>
<polygon fill="white" stroke="transparent" points="-4,4 -4,-441.5 998,-441.5 998,4 -4,4"/>
<!-- Node1 -->
<g id="node1" class="node">
<title>Node1</title>
<g id="a_node1"><a xlink:title=" ">
<polygon fill="#bfbfbf" stroke="black" points="0,-209 0,-239 198,-239 198,-209 0,-209"/>
<text text-anchor="start" x="8" y="-227" font-family="Helvetica,sans-Serif" font-size="10.00">denoptim.graph.DGraph.DENOPTIMGraph</text>
<text text-anchor="middle" x="99" y="-216" font-family="Helvetica,sans-Serif" font-size="10.00">Deserializer.deserialize</text>
</a>
</g>
</g>
<!-- Node2 -->
<g id="node2" class="node">
<title>Node2</title>
<g id="a_node2"><a xlink:href="classdenoptim_1_1graph_1_1_symmetric_set.html#aa3db3c29bdb4ed481b63257a2ffa1b14" target="_top" xlink:title="Adds an item to this list, if not already present.">
<polygon fill="white" stroke="black" points="250.5,-407 250.5,-437 381.5,-437 381.5,-407 250.5,-407"/>
<text text-anchor="start" x="258.5" y="-425" font-family="Helvetica,sans-Serif" font-size="10.00">denoptim.graph.Symmetric</text>
<text text-anchor="middle" x="316" y="-414" font-family="Helvetica,sans-Serif" font-size="10.00">Set.add</text>
</a>
</g>
</g>
<!-- Node1&#45;&gt;Node2 -->
<g id="edge1" class="edge">
<title>Node1&#45;&gt;Node2</title>
<path fill="none" stroke="midnightblue" d="M107.46,-239C124.88,-272.49 171.53,-353.75 234,-397 236.87,-398.99 239.9,-400.82 243.05,-402.51"/>
<polygon fill="midnightblue" stroke="midnightblue" points="241.62,-405.71 252.14,-406.91 244.66,-399.41 241.62,-405.71"/>
</g>
<!-- Node3 -->
<g id="node3" class="node">
<title>Node3</title>
<g id="a_node3"><a xlink:href="classdenoptim_1_1graph_1_1_d_graph.html#aedfe0dc03ea1250a9944fcd30a888fa1" target="_top" xlink:title="Adds the edge to the list of edges belonging to this graph.">
<polygon fill="white" stroke="black" points="237,-368.5 237,-387.5 395,-387.5 395,-368.5 237,-368.5"/>
<text text-anchor="middle" x="316" y="-375.5" font-family="Helvetica,sans-Serif" font-size="10.00">denoptim.graph.DGraph.addEdge</text>
</a>
</g>
</g>
<!-- Node1&#45;&gt;Node3 -->
<g id="edge2" class="edge">
<title>Node1&#45;&gt;Node3</title>
<path fill="none" stroke="midnightblue" d="M110.56,-239.29C130.95,-267.59 178.66,-328.06 234,-359 238.01,-361.24 242.27,-363.22 246.66,-364.96"/>
<polygon fill="midnightblue" stroke="midnightblue" points="245.84,-368.38 256.43,-368.42 248.18,-361.79 245.84,-368.38"/>
</g>
<!-- Node4 -->
<g id="node4" class="node">
<title>Node4</title>
<g id="a_node4"><a xlink:href="classdenoptim_1_1graph_1_1_d_graph.html#ad16255987a45bace2ef62f2b49e0d873" target="_top" xlink:title=" ">
<polygon fill="white" stroke="black" points="238.5,-330.5 238.5,-349.5 393.5,-349.5 393.5,-330.5 238.5,-330.5"/>
<text text-anchor="middle" x="316" y="-337.5" font-family="Helvetica,sans-Serif" font-size="10.00">denoptim.graph.DGraph.addRing</text>
</a>
</g>
</g>
<!-- Node1&#45;&gt;Node4 -->
<g id="edge3" class="edge">
<title>Node1&#45;&gt;Node4</title>
<path fill="none" stroke="midnightblue" d="M116.38,-239.25C140.36,-260.73 187.24,-299.64 234,-321 239.39,-323.46 245.13,-325.62 250.97,-327.51"/>
<polygon fill="midnightblue" stroke="midnightblue" points="250.26,-330.96 260.85,-330.45 252.26,-324.25 250.26,-330.96"/>
</g>
<!-- Node5 -->
<g id="node5" class="node">
<title>Node5</title>
<g id="a_node5"><a xlink:href="classdenoptim_1_1graph_1_1_d_graph.html#aadb666e7d30a631bf9b97d77a8aa0b1d" target="_top" xlink:title="Adds a symmetric set of vertices to this graph.">
<polygon fill="white" stroke="black" points="248,-281 248,-311 384,-311 384,-281 248,-281"/>
<text text-anchor="start" x="256" y="-299" font-family="Helvetica,sans-Serif" font-size="10.00">denoptim.graph.DGraph.add</text>
<text text-anchor="middle" x="316" y="-288" font-family="Helvetica,sans-Serif" font-size="10.00">SymmetricSetOfVertices</text>
</a>
</g>
</g>
<!-- Node1&#45;&gt;Node5 -->
<g id="edge4" class="edge">
<title>Node1&#45;&gt;Node5</title>
<path fill="none" stroke="midnightblue" d="M141.51,-239.02C167.91,-248.45 202.86,-260.74 234,-271 240.92,-273.28 248.19,-275.61 255.42,-277.89"/>
<polygon fill="midnightblue" stroke="midnightblue" points="254.63,-281.31 265.21,-280.96 256.72,-274.63 254.63,-281.31"/>
</g>
<!-- Node6 -->
<g id="node6" class="node">
<title>Node6</title>
<g id="a_node6"><a xlink:href="classdenoptim_1_1graph_1_1_ring.html#a26caae2f4e91d37ffb2f7f3becd97a8e" target="_top" xlink:title="Append a DENOPTIMVertex to the list.">
<polygon fill="white" stroke="black" points="241,-242.5 241,-261.5 391,-261.5 391,-242.5 241,-242.5"/>
<text text-anchor="middle" x="316" y="-249.5" font-family="Helvetica,sans-Serif" font-size="10.00">denoptim.graph.Ring.addVertex</text>
</a>
</g>
</g>
<!-- Node1&#45;&gt;Node6 -->
<g id="edge5" class="edge">
<title>Node1&#45;&gt;Node6</title>
<path fill="none" stroke="midnightblue" d="M198.06,-236.77C209.34,-238.24 220.76,-239.73 231.81,-241.17"/>
<polygon fill="midnightblue" stroke="midnightblue" points="231.48,-244.65 241.85,-242.47 232.38,-237.71 231.48,-244.65"/>
</g>
<!-- Node7 -->
<g id="node7" class="node">
<title>Node7</title>
<g id="a_node7"><a xlink:href="classdenoptim_1_1graph_1_1_d_graph.html#aa5f803143b57df02989af878b098798f" target="_top" xlink:title="Reads a JSON string and returns an instance of this class.">
<polygon fill="white" stroke="black" points="235.5,-186.5 235.5,-205.5 396.5,-205.5 396.5,-186.5 235.5,-186.5"/>
<text text-anchor="middle" x="316" y="-193.5" font-family="Helvetica,sans-Serif" font-size="10.00">denoptim.graph.DGraph.fromJson</text>
</a>
</g>
</g>
<!-- Node1&#45;&gt;Node7 -->
<g id="edge6" class="edge">
<title>Node1&#45;&gt;Node7</title>
<path fill="none" stroke="midnightblue" d="M198.06,-211.23C209.34,-209.76 220.76,-208.27 231.81,-206.83"/>
<polygon fill="midnightblue" stroke="midnightblue" points="232.38,-210.29 241.85,-205.53 231.48,-203.35 232.38,-210.29"/>
</g>
<!-- Node11 -->
<g id="node11" class="node">
<title>Node11</title>
<g id="a_node11"><a xlink:href="classdenoptim_1_1graph_1_1_d_graph.html#a3fc88e09bf84838d98d7583b457f637f" target="_top" xlink:title="Returns the attachment point with the given identifier, or null if no AP is found with the given iden...">
<polygon fill="white" stroke="black" points="249,-137 249,-167 383,-167 383,-137 249,-137"/>
<text text-anchor="start" x="257" y="-155" font-family="Helvetica,sans-Serif" font-size="10.00">denoptim.graph.DGraph.get</text>
<text text-anchor="middle" x="316" y="-144" font-family="Helvetica,sans-Serif" font-size="10.00">APWithId</text>
</a>
</g>
</g>
<!-- Node1&#45;&gt;Node11 -->
<g id="edge11" class="edge">
<title>Node1&#45;&gt;Node11</title>
<path fill="none" stroke="midnightblue" d="M141.51,-208.98C167.91,-199.55 202.86,-187.26 234,-177 240.92,-174.72 248.19,-172.39 255.42,-170.11"/>
<polygon fill="midnightblue" stroke="midnightblue" points="256.72,-173.37 265.21,-167.04 254.63,-166.69 256.72,-173.37"/>
</g>
<!-- Node13 -->
<g id="node13" class="node">
<title>Node13</title>
<g id="a_node13"><a xlink:href="classdenoptim_1_1graph_1_1_d_graph.html#a650a0f54382fb930bf57429dd616258a" target="_top" xlink:title=" ">
<polygon fill="white" stroke="black" points="249,-88 249,-118 383,-118 383,-88 249,-88"/>
<text text-anchor="start" x="257" y="-106" font-family="Helvetica,sans-Serif" font-size="10.00">denoptim.graph.DGraph.get</text>
<text text-anchor="middle" x="316" y="-95" font-family="Helvetica,sans-Serif" font-size="10.00">VertexList</text>
</a>
</g>
</g>
<!-- Node1&#45;&gt;Node13 -->
<g id="edge13" class="edge">
<title>Node1&#45;&gt;Node13</title>
<path fill="none" stroke="midnightblue" d="M117.03,-209C141.41,-188.21 188.37,-150.64 234,-128 238.58,-125.73 243.41,-123.61 248.33,-121.65"/>
<polygon fill="midnightblue" stroke="midnightblue" points="249.74,-124.86 257.88,-118.08 247.29,-118.31 249.74,-124.86"/>
</g>
<!-- Node14 -->
<g id="node14" class="node">
<title>Node14</title>
<g id="a_node14"><a xlink:href="classdenoptim_1_1graph_1_1_d_graph.html#a16e970d1e94704f9e720ff16f58f5796" target="_top" xlink:title="Searches for a vertex with the given identifier.">
<polygon fill="white" stroke="black" points="249,-39 249,-69 383,-69 383,-39 249,-39"/>
<text text-anchor="start" x="257" y="-57" font-family="Helvetica,sans-Serif" font-size="10.00">denoptim.graph.DGraph.get</text>
<text text-anchor="middle" x="316" y="-46" font-family="Helvetica,sans-Serif" font-size="10.00">VertexWithId</text>
</a>
</g>
</g>
<!-- Node1&#45;&gt;Node14 -->
<g id="edge14" class="edge">
<title>Node1&#45;&gt;Node14</title>
<path fill="none" stroke="midnightblue" d="M109.81,-208.68C129.62,-178.97 177.38,-113.35 234,-78 236.65,-76.34 239.42,-74.8 242.28,-73.35"/>
<polygon fill="midnightblue" stroke="midnightblue" points="243.98,-76.43 251.62,-69.09 241.07,-70.06 243.98,-76.43"/>
</g>
<!-- Node17 -->
<g id="node17" class="node">
<title>Node17</title>
<g id="a_node17"><a xlink:href="classdenoptim_1_1graph_1_1_ring.html#a4d36b4964430194b787e708d47b00af5" target="_top" xlink:title="Set the bond type (i.e., bond order) of the chord connecting the head and the tail vertices.">
<polygon fill="white" stroke="black" points="234,-0.5 234,-19.5 398,-19.5 398,-0.5 234,-0.5"/>
<text text-anchor="middle" x="316" y="-7.5" font-family="Helvetica,sans-Serif" font-size="10.00">denoptim.graph.Ring.setBondType</text>
</a>
</g>
</g>
<!-- Node1&#45;&gt;Node17 -->
<g id="edge17" class="edge">
<title>Node1&#45;&gt;Node17</title>
<path fill="none" stroke="midnightblue" d="M105.78,-208.98C120.8,-172.04 164.82,-76.29 234,-29 236.89,-27.02 239.96,-25.25 243.15,-23.66"/>
<polygon fill="midnightblue" stroke="midnightblue" points="244.61,-26.84 252.4,-19.65 241.83,-20.42 244.61,-26.84"/>
</g>
<!-- Node7&#45;&gt;Node7 -->
<g id="edge7" class="edge">
<title>Node7&#45;&gt;Node7</title>
<path fill="none" stroke="midnightblue" d="M285.17,-205.76C270.18,-214.57 280.45,-224 316,-224 340.99,-224 353.49,-219.34 353.5,-213.5"/>
<polygon fill="midnightblue" stroke="midnightblue" points="356,-211.05 346.83,-205.76 350.7,-215.62 356,-211.05"/>
</g>
<!-- Node8 -->
<g id="node8" class="node">
<title>Node8</title>
<g id="a_node8"><a xlink:href="classdenoptim_1_1json_1_1_d_e_n_o_p_t_i_mgson.html#a3e85cb26bb2f36407e309e41880ef191" target="_top" xlink:title=" ">
<polygon fill="white" stroke="black" points="434,-183 434,-213 601,-213 601,-183 434,-183"/>
<text text-anchor="start" x="442" y="-201" font-family="Helvetica,sans-Serif" font-size="10.00">denoptim.json.DENOPTIMgson.get</text>
<text text-anchor="middle" x="517.5" y="-190" font-family="Helvetica,sans-Serif" font-size="10.00">Reader</text>
</a>
</g>
</g>
<!-- Node7&#45;&gt;Node8 -->
<g id="edge8" class="edge">
<title>Node7&#45;&gt;Node8</title>
<path fill="none" stroke="midnightblue" d="M396.71,-196.8C405.62,-196.89 414.75,-196.98 423.81,-197.07"/>
<polygon fill="midnightblue" stroke="midnightblue" points="423.95,-200.57 433.98,-197.17 424.02,-193.57 423.95,-200.57"/>
</g>
<!-- Node9 -->
<g id="node9" class="node">
<title>Node9</title>
<g id="a_node9"><a xlink:href="classdenoptim_1_1json_1_1_d_e_n_o_p_t_i_mgson.html#aa14de224ae5d1ae5156f11d5715d360c" target="_top" xlink:title=" ">
<polygon fill="white" stroke="black" points="637,-183 637,-213 804,-213 804,-183 637,-183"/>
<text text-anchor="start" x="645" y="-201" font-family="Helvetica,sans-Serif" font-size="10.00">denoptim.json.DENOPTIMgson.get</text>
<text text-anchor="middle" x="720.5" y="-190" font-family="Helvetica,sans-Serif" font-size="10.00">Instance</text>
</a>
</g>
</g>
<!-- Node8&#45;&gt;Node9 -->
<g id="edge9" class="edge">
<title>Node8&#45;&gt;Node9</title>
<path fill="none" stroke="midnightblue" d="M601.12,-198C609.61,-198 618.27,-198 626.85,-198"/>
<polygon fill="midnightblue" stroke="midnightblue" points="626.87,-201.5 636.87,-198 626.87,-194.5 626.87,-201.5"/>
</g>
<!-- Node10 -->
<g id="node10" class="node">
<title>Node10</title>
<g id="a_node10"><a xlink:href="classdenoptim_1_1json_1_1_d_e_n_o_p_t_i_mgson.html#a4aafec42bd09225870fdf330db93b84c" target="_top" xlink:title=" ">
<polygon fill="white" stroke="black" points="840,-183 840,-213 994,-213 994,-183 840,-183"/>
<text text-anchor="start" x="848" y="-201" font-family="Helvetica,sans-Serif" font-size="10.00">denoptim.json.DENOPTIMgson.</text>
<text text-anchor="middle" x="917" y="-190" font-family="Helvetica,sans-Serif" font-size="10.00">DENOPTIMgson</text>
</a>
</g>
</g>
<!-- Node9&#45;&gt;Node10 -->
<g id="edge10" class="edge">
<title>Node9&#45;&gt;Node10</title>
<path fill="none" stroke="midnightblue" d="M804.27,-198C812.65,-198 821.17,-198 829.59,-198"/>
<polygon fill="midnightblue" stroke="midnightblue" points="829.79,-201.5 839.79,-198 829.79,-194.5 829.79,-201.5"/>
</g>
<!-- Node12 -->
<g id="node12" class="node">
<title>Node12</title>
<g id="a_node12"><a xlink:href="classdenoptim_1_1graph_1_1_d_graph.html#a27e25f8f8e1516d81cc281e2795a9428" target="_top" xlink:title="Returns the list of all attachment points contained in this graph.">
<polygon fill="white" stroke="black" points="450.5,-134 450.5,-164 584.5,-164 584.5,-134 450.5,-134"/>
<text text-anchor="start" x="458.5" y="-152" font-family="Helvetica,sans-Serif" font-size="10.00">denoptim.graph.DGraph.get</text>
<text text-anchor="middle" x="517.5" y="-141" font-family="Helvetica,sans-Serif" font-size="10.00">AttachmentPoints</text>
</a>
</g>
</g>
<!-- Node11&#45;&gt;Node12 -->
<g id="edge12" class="edge">
<title>Node11&#45;&gt;Node12</title>
<path fill="none" stroke="midnightblue" d="M383.15,-151.01C401.42,-150.73 421.39,-150.43 440.18,-150.15"/>
<polygon fill="midnightblue" stroke="midnightblue" points="440.24,-153.65 450.19,-150 440.13,-146.65 440.24,-153.65"/>
</g>
<!-- Node15 -->
<g id="node15" class="node">
<title>Node15</title>
<g id="a_node15"><a xlink:href="classdenoptim_1_1graph_1_1_d_graph.html#a3560b051e55499bf45522a55f6219d29" target="_top" xlink:title="Returns the position of the first vertex that has the given ID.">
<polygon fill="white" stroke="black" points="446,-39 446,-69 589,-69 589,-39 446,-39"/>
<text text-anchor="start" x="454" y="-57" font-family="Helvetica,sans-Serif" font-size="10.00">denoptim.graph.DGraph.index</text>
<text text-anchor="middle" x="517.5" y="-46" font-family="Helvetica,sans-Serif" font-size="10.00">OfVertexWithID</text>
</a>
</g>
</g>
<!-- Node14&#45;&gt;Node15 -->
<g id="edge15" class="edge">
<title>Node14&#45;&gt;Node15</title>
<path fill="none" stroke="midnightblue" d="M383.15,-54C399.94,-54 418.15,-54 435.58,-54"/>
<polygon fill="midnightblue" stroke="midnightblue" points="435.73,-57.5 445.73,-54 435.73,-50.5 435.73,-57.5"/>
</g>
<!-- Node16 -->
<g id="node16" class="node">
<title>Node16</title>
<g id="a_node16"><a xlink:href="classdenoptim_1_1graph_1_1_vertex.html#a9493346ca1480edfcfa00cb78a52adf5" target="_top" xlink:title=" ">
<polygon fill="white" stroke="black" points="656.5,-39 656.5,-69 784.5,-69 784.5,-39 656.5,-39"/>
<text text-anchor="start" x="664.5" y="-57" font-family="Helvetica,sans-Serif" font-size="10.00">denoptim.graph.Vertex.get</text>
<text text-anchor="middle" x="720.5" y="-46" font-family="Helvetica,sans-Serif" font-size="10.00">VertexId</text>
</a>
</g>
</g>
<!-- Node15&#45;&gt;Node16 -->
<g id="edge16" class="edge">
<title>Node15&#45;&gt;Node16</title>
<path fill="none" stroke="midnightblue" d="M589.08,-54C607.6,-54 627.61,-54 646.26,-54"/>
<polygon fill="midnightblue" stroke="midnightblue" points="646.46,-57.5 656.46,-54 646.46,-50.5 646.46,-57.5"/>
</g>
</g>
</svg>
        <g id="navigator" transform="translate(0 0)" fill="#404254">
                <rect fill="#f2f5e9" fill-opacity="0.5" stroke="#606060" stroke-width=".5" x="0" y="0" width="60" height="60"/>
                <use id="zoomplus" xlink:href="#zoomPlus" x="17" y="9" onmousedown="handleZoom(evt,'in')"/>
                <use id="zoomminus" xlink:href="#zoomMin" x="42" y="9" onmousedown="handleZoom(evt,'out')"/>
                <use id="reset" xlink:href="#resetDef" x="30" y="36" onmousedown="handleReset()"/>
                <g id="arrowUp" xlink:href="#dirArrow" transform="translate(30 24)" onmousedown="handlePan(0,-1)">
                  <use xlink:href="#rim" fill="#404040">
                        <set attributeName="fill" to="#808080" begin="arrowUp.mouseover" end="arrowUp.mouseout"/>
                  </use>
                  <path fill="none" stroke="white" stroke-width="1.5" d="M0,-3.0v7 M-2.5,-0.5L0,-3.0L2.5,-0.5"/>
                </g>
                <g id="arrowRight" xlink:href="#dirArrow" transform="rotate(90) translate(36 -43)" onmousedown="handlePan(1,0)">
                  <use xlink:href="#rim" fill="#404040">
                        <set attributeName="fill" to="#808080" begin="arrowRight.mouseover" end="arrowRight.mouseout"/>
                  </use>
                  <path fill="none" stroke="white" stroke-width="1.5" d="M0,-3.0v7 M-2.5,-0.5L0,-3.0L2.5,-0.5"/>
                </g>
                <g id="arrowDown" xlink:href="#dirArrow" transform="rotate(180) translate(-30 -48)" onmousedown="handlePan(0,1)">
                  <use xlink:href="#rim" fill="#404040">
                        <set attributeName="fill" to="#808080" begin="arrowDown.mouseover" end="arrowDown.mouseout"/>
                  </use>
                  <path fill="none" stroke="white" stroke-width="1.5" d="M0,-3.0v7 M-2.5,-0.5L0,-3.0L2.5,-0.5"/>
                </g>
                <g id="arrowLeft" xlink:href="#dirArrow" transform="rotate(270) translate(-36 17)" onmousedown="handlePan(-1,0)">
                  <use xlink:href="#rim" fill="#404040">
                        <set attributeName="fill" to="#808080" begin="arrowLeft.mouseover" end="arrowLeft.mouseout"/>
                  </use>
                  <path fill="none" stroke="white" stroke-width="1.5" d="M0,-3.0v7 M-2.5,-0.5L0,-3.0L2.5,-0.5"/>
                </g>
        </g>
        <svg viewBox="0 0 15 15" width="100%" height="30px" preserveAspectRatio="xMaxYMin meet">
         <g id="arrow_out" transform="scale(0.3 0.3)">
          <a xlink:href="classdenoptim_1_1graph_1_1_d_graph_1_1_d_e_n_o_p_t_i_m_graph_deserializer_ac7e1fd6d8a34f40e43c818404546d404_cgraph_org.svg" target="_base">
           <rect id="button" ry="5" rx="5" y="6" x="6" height="38" width="38"
                fill="#f2f5e9" fill-opacity="0.5" stroke="#606060" stroke-width="1.0"/>
           <path id="arrow"
             d="M 11.500037,31.436501 C 11.940474,20.09759 22.043105,11.32322 32.158766,21.979434 L 37.068811,17.246167 C 37.068811,17.246167 37.088388,32 37.088388,32 L 22.160133,31.978069 C 22.160133,31.978069 26.997745,27.140456 26.997745,27.140456 C 18.528582,18.264221 13.291696,25.230495 11.500037,31.436501 z"
             style="fill:#404040;"/>
          </a>
         </g>
        </svg>
</svg>
