<?xml version="1.0" encoding="UTF-8" standalone="no"?>
<!DOCTYPE svg PUBLIC "-//W3C//DTD SVG 1.1//EN"
 "http://www.w3.org/Graphics/SVG/1.1/DTD/svg11.dtd">
<!-- Generated by graphviz version 3.0.0 (20221109.1736)
 -->
<!-- Title: denoptim.gui.CuttingRulesSelectionDialog.SMARTSVisualizationButton Pages: 1 -->
<svg width="190pt" height="117pt"
 viewBox="0.00 0.00 190.00 117.00" xmlns="http://www.w3.org/2000/svg" xmlns:xlink="http://www.w3.org/1999/xlink">
<g id="graph0" class="graph" transform="scale(1 1) rotate(0) translate(4 113)">
<title>denoptim.gui.CuttingRulesSelectionDialog.SMARTSVisualizationButton</title>
<polygon fill="white" stroke="transparent" points="-4,4 -4,-113 186,-113 186,4 -4,4"/>
<!-- Node1 -->
<g id="node1" class="node">
<title>Node1</title>
<g id="a_node1"><a xlink:title="A button that opens a modal dialog displaying the PNGs with a visual representation of SMARTS queries...">
<polygon fill="#bfbfbf" stroke="black" points="0,-0.5 0,-41.5 182,-41.5 182,-0.5 0,-0.5"/>
<text text-anchor="start" x="8" y="-29.5" font-family="Helvetica,sans-Serif" font-size="10.00">denoptim.gui.CuttingRules</text>
<text text-anchor="start" x="8" y="-18.5" font-family="Helvetica,sans-Serif" font-size="10.00">SelectionDialog.SMARTSVisualization</text>
<text text-anchor="middle" x="91" y="-7.5" font-family="Helvetica,sans-Serif" font-size="10.00">Button</text>
</a>
</g>
</g>
<!-- Node2 -->
<g id="node2" class="node">
<title>Node2</title>
<g id="a_node2"><a xlink:title=" ">
<polygon fill="white" stroke="black" points="28,-89.5 28,-108.5 78,-108.5 78,-89.5 28,-89.5"/>
<text text-anchor="middle" x="53" y="-96.5" font-family="Helvetica,sans-Serif" font-size="10.00">JButton</text>
</a>
</g>
</g>
<!-- Node2&#45;&gt;Node1 -->
<g id="edge1" class="edge">
<title>Node2&#45;&gt;Node1</title>
<path fill="none" stroke="midnightblue" d="M61.9,-80.2C67.68,-68.64 75.22,-53.57 81.17,-41.66"/>
<polygon fill="midnightblue" stroke="midnightblue" points="58.7,-78.77 57.36,-89.28 64.96,-81.9 58.7,-78.77"/>
</g>
<!-- Node3 -->
<g id="node3" class="node">
<title>Node3</title>
<g id="a_node3"><a xlink:title=" ">
<polygon fill="white" stroke="black" points="96,-89.5 96,-108.5 162,-108.5 162,-89.5 96,-89.5"/>
<text text-anchor="middle" x="129" y="-96.5" font-family="Helvetica,sans-Serif" font-size="10.00">Component</text>
</a>
</g>
</g>
<!-- Node3&#45;&gt;Node1 -->
<g id="edge2" class="edge">
<title>Node3&#45;&gt;Node1</title>
<path fill="none" stroke="#9a32cd" stroke-dasharray="5,2" d="M120.1,-80.2C114.32,-68.64 106.78,-53.57 100.83,-41.66"/>
<polygon fill="#9a32cd" stroke="#9a32cd" points="117.04,-81.9 124.64,-89.28 123.3,-78.77 117.04,-81.9"/>
<text text-anchor="middle" x="136" y="-63" font-family="Helvetica,sans-Serif" font-size="10.00"> refToThis</text>
</g>
</g>
</svg>
