<?xml version="1.0" encoding="UTF-8" standalone="no"?>
<!DOCTYPE svg PUBLIC "-//W3C//DTD SVG 1.1//EN"
 "http://www.w3.org/Graphics/SVG/1.1/DTD/svg11.dtd">
<!-- Generated by graphviz version 3.0.0 (20221109.1736)
 -->
<!-- Title: denoptim.io.DenoptimIO.writeGraphsToFile Pages: 1 -->
<svg width="565pt" height="83pt"
 viewBox="0.00 0.00 565.00 83.00" xmlns="http://www.w3.org/2000/svg" xmlns:xlink="http://www.w3.org/1999/xlink">
<g id="graph0" class="graph" transform="scale(1 1) rotate(0) translate(4 79)">
<title>denoptim.io.DenoptimIO.writeGraphsToFile</title>
<polygon fill="white" stroke="transparent" points="-4,4 -4,-79 561,-79 561,4 -4,4"/>
<!-- Node1 -->
<g id="node1" class="node">
<title>Node1</title>
<g id="a_node1"><a xlink:title="Writes the graphs to file.">
<polygon fill="#bfbfbf" stroke="black" points="414,-22.5 414,-52.5 557,-52.5 557,-22.5 414,-22.5"/>
<text text-anchor="start" x="422" y="-40.5" font-family="Helvetica,sans-Serif" font-size="10.00">denoptim.io.DenoptimIO.write</text>
<text text-anchor="middle" x="485.5" y="-29.5" font-family="Helvetica,sans-Serif" font-size="10.00">GraphsToFile</text>
</a>
</g>
</g>
<!-- Node2 -->
<g id="node2" class="node">
<title>Node2</title>
<g id="a_node2"><a xlink:href="classdenoptim_1_1gui_1_1_g_u_i_graph_handler.html#af5b000c105018cbd7c262b34f9750044" target="_top" xlink:title="Initialize the panel and add buttons.">
<polygon fill="white" stroke="black" points="190,-50 190,-69 378,-69 378,-50 190,-50"/>
<text text-anchor="middle" x="284" y="-57" font-family="Helvetica,sans-Serif" font-size="10.00">denoptim.gui.GUIGraphHandler.initialize</text>
</a>
</g>
</g>
<!-- Node1&#45;&gt;Node2 -->
<g id="edge1" class="edge">
<title>Node1&#45;&gt;Node2</title>
<path fill="none" stroke="midnightblue" d="M403.74,-46.41C393.05,-47.59 382.05,-48.8 371.27,-49.99"/>
<polygon fill="midnightblue" stroke="midnightblue" points="404.33,-49.86 413.88,-45.29 403.56,-42.9 404.33,-49.86"/>
</g>
<!-- Node4 -->
<g id="node4" class="node">
<title>Node4</title>
<g id="a_node4"><a xlink:href="classdenoptim_1_1programs_1_1grapheditor_1_1_graph_editor.html#a649a62e3d4635ef4c19424fa49e6dcd4" target="_top" xlink:title=" ">
<polygon fill="white" stroke="black" points="208,-0.5 208,-30.5 360,-30.5 360,-0.5 208,-0.5"/>
<text text-anchor="start" x="216" y="-18.5" font-family="Helvetica,sans-Serif" font-size="10.00">denoptim.programs.grapheditor.</text>
<text text-anchor="middle" x="284" y="-7.5" font-family="Helvetica,sans-Serif" font-size="10.00">GraphEditor.runProgram</text>
</a>
</g>
</g>
<!-- Node1&#45;&gt;Node4 -->
<g id="edge3" class="edge">
<title>Node1&#45;&gt;Node4</title>
<path fill="none" stroke="midnightblue" d="M403.57,-28.58C389.26,-27 374.41,-25.36 360.26,-23.8"/>
<polygon fill="midnightblue" stroke="midnightblue" points="403.56,-32.1 413.88,-29.71 404.33,-25.14 403.56,-32.1"/>
</g>
<!-- Node3 -->
<g id="node3" class="node">
<title>Node3</title>
<g id="a_node3"><a xlink:href="classdenoptim_1_1gui_1_1_g_u_i_graph_handler.html#ab7d010d9a384f6b85edce47c95d6723b" target="_top" xlink:title="Constructor.">
<polygon fill="white" stroke="black" points="0,-44.5 0,-74.5 154,-74.5 154,-44.5 0,-44.5"/>
<text text-anchor="start" x="8" y="-62.5" font-family="Helvetica,sans-Serif" font-size="10.00">denoptim.gui.GUIGraphHandler.</text>
<text text-anchor="middle" x="77" y="-51.5" font-family="Helvetica,sans-Serif" font-size="10.00">GUIGraphHandler</text>
</a>
</g>
</g>
<!-- Node2&#45;&gt;Node3 -->
<g id="edge2" class="edge">
<title>Node2&#45;&gt;Node3</title>
<path fill="none" stroke="midnightblue" d="M179.69,-59.5C171.07,-59.5 162.45,-59.5 154.09,-59.5"/>
<polygon fill="midnightblue" stroke="midnightblue" points="179.8,-63 189.8,-59.5 179.8,-56 179.8,-63"/>
</g>
</g>
</svg>
