<?xml version="1.0" encoding="UTF-8" standalone="no"?>
<!DOCTYPE svg PUBLIC "-//W3C//DTD SVG 1.1//EN"
 "http://www.w3.org/Graphics/SVG/1.1/DTD/svg11.dtd">
<!-- Generated by graphviz version 3.0.0 (20221109.1736)
 -->
<!-- Title: denoptim.programs.mol2graph.Mol2GraphParameters.getCuttingRules Pages: 1 -->
<svg width="616pt" height="166pt"
 viewBox="0.00 0.00 616.00 166.00" xmlns="http://www.w3.org/2000/svg" xmlns:xlink="http://www.w3.org/1999/xlink">
<g id="graph0" class="graph" transform="scale(1 1) rotate(0) translate(4 162)">
<title>denoptim.programs.mol2graph.Mol2GraphParameters.getCuttingRules</title>
<polygon fill="white" stroke="transparent" points="-4,4 -4,-162 612,-162 612,4 -4,4"/>
<!-- Node1 -->
<g id="node1" class="node">
<title>Node1</title>
<g id="a_node1"><a xlink:title=" ">
<polygon fill="#bfbfbf" stroke="black" points="0,-49.5 0,-79.5 185,-79.5 185,-49.5 0,-49.5"/>
<text text-anchor="start" x="8" y="-67.5" font-family="Helvetica,sans-Serif" font-size="10.00">denoptim.programs.mol2graph.</text>
<text text-anchor="middle" x="92.5" y="-56.5" font-family="Helvetica,sans-Serif" font-size="10.00">Mol2GraphParameters.getCuttingRules</text>
</a>
</g>
</g>
<!-- Node2 -->
<g id="node2" class="node">
<title>Node2</title>
<g id="a_node2"><a xlink:href="classdenoptim_1_1programs_1_1mol2graph_1_1_mol2_graph_parameters.html#a36bba7d683495a288f718e58b6494ff1" target="_top" xlink:title=" ">
<polygon fill="white" stroke="black" points="221,-98 221,-139 416,-139 416,-98 221,-98"/>
<text text-anchor="start" x="229" y="-127" font-family="Helvetica,sans-Serif" font-size="10.00">denoptim.programs.mol2graph.</text>
<text text-anchor="start" x="229" y="-116" font-family="Helvetica,sans-Serif" font-size="10.00">Mol2GraphParameters.ensureFragmenter</text>
<text text-anchor="middle" x="318.5" y="-105" font-family="Helvetica,sans-Serif" font-size="10.00">Params</text>
</a>
</g>
</g>
<!-- Node1&#45;&gt;Node2 -->
<g id="edge1" class="edge">
<title>Node1&#45;&gt;Node2</title>
<path fill="none" stroke="midnightblue" d="M155.9,-79.54C176.53,-84.52 199.98,-90.17 222.5,-95.6"/>
<polygon fill="midnightblue" stroke="midnightblue" points="221.88,-99.05 232.42,-97.99 223.52,-92.24 221.88,-99.05"/>
</g>
<!-- Node5 -->
<g id="node5" class="node">
<title>Node5</title>
<g id="a_node5"><a xlink:href="classdenoptim_1_1programs_1_1fragmenter_1_1_fragmenter_parameters.html#a9dcce7e1ee36996395b1b8d3aa2116dc" target="_top" xlink:title=" ">
<polygon fill="white" stroke="black" points="224.5,-49.5 224.5,-79.5 412.5,-79.5 412.5,-49.5 224.5,-49.5"/>
<text text-anchor="start" x="232.5" y="-67.5" font-family="Helvetica,sans-Serif" font-size="10.00">denoptim.programs.fragmenter.</text>
<text text-anchor="middle" x="318.5" y="-56.5" font-family="Helvetica,sans-Serif" font-size="10.00">FragmenterParameters.getCuttingRules</text>
</a>
</g>
</g>
<!-- Node1&#45;&gt;Node5 -->
<g id="edge4" class="edge">
<title>Node1&#45;&gt;Node5</title>
<path fill="none" stroke="midnightblue" d="M185.26,-64.5C194.85,-64.5 204.65,-64.5 214.36,-64.5"/>
<polygon fill="midnightblue" stroke="midnightblue" points="214.44,-68 224.44,-64.5 214.44,-61 214.44,-68"/>
</g>
<!-- Node6 -->
<g id="node6" class="node">
<title>Node6</title>
<g id="a_node6"><a xlink:href="classdenoptim_1_1programs_1_1_run_time_parameters.html#a4da800dd8e739b91dbf8b4b960ee2e51" target="_top" xlink:title=" ">
<polygon fill="white" stroke="black" points="248.5,-0.5 248.5,-30.5 388.5,-30.5 388.5,-0.5 248.5,-0.5"/>
<text text-anchor="start" x="256.5" y="-18.5" font-family="Helvetica,sans-Serif" font-size="10.00">denoptim.programs.RunTime</text>
<text text-anchor="middle" x="318.5" y="-7.5" font-family="Helvetica,sans-Serif" font-size="10.00">Parameters.getParameters</text>
</a>
</g>
</g>
<!-- Node1&#45;&gt;Node6 -->
<g id="edge5" class="edge">
<title>Node1&#45;&gt;Node6</title>
<path fill="none" stroke="midnightblue" d="M162.23,-49.47C186.53,-44.15 214.03,-38.13 239.07,-32.66"/>
<polygon fill="midnightblue" stroke="midnightblue" points="239.88,-36.06 248.9,-30.51 238.38,-29.22 239.88,-36.06"/>
</g>
<!-- Node3 -->
<g id="node3" class="node">
<title>Node3</title>
<g id="a_node3"><a xlink:href="classdenoptim_1_1programs_1_1_run_time_parameters.html#a132443dda8e8278736100a7ff759f666" target="_top" xlink:title=" ">
<polygon fill="white" stroke="black" points="452,-127.5 452,-157.5 608,-157.5 608,-127.5 452,-127.5"/>
<text text-anchor="start" x="460" y="-145.5" font-family="Helvetica,sans-Serif" font-size="10.00">denoptim.programs.RunTime</text>
<text text-anchor="middle" x="530" y="-134.5" font-family="Helvetica,sans-Serif" font-size="10.00">Parameters.containsParameters</text>
</a>
</g>
</g>
<!-- Node2&#45;&gt;Node3 -->
<g id="edge2" class="edge">
<title>Node2&#45;&gt;Node3</title>
<path fill="none" stroke="midnightblue" d="M416.28,-129.59C424.74,-130.56 433.27,-131.53 441.65,-132.49"/>
<polygon fill="midnightblue" stroke="midnightblue" points="441.44,-135.99 451.77,-133.65 442.24,-129.04 441.44,-135.99"/>
</g>
<!-- Node4 -->
<g id="node4" class="node">
<title>Node4</title>
<g id="a_node4"><a xlink:href="classdenoptim_1_1programs_1_1_run_time_parameters.html#a267f19b2ad078af972f18eba0e83556e" target="_top" xlink:title=" ">
<polygon fill="white" stroke="black" points="460,-78.5 460,-108.5 600,-108.5 600,-78.5 460,-78.5"/>
<text text-anchor="start" x="468" y="-96.5" font-family="Helvetica,sans-Serif" font-size="10.00">denoptim.programs.RunTime</text>
<text text-anchor="middle" x="530" y="-85.5" font-family="Helvetica,sans-Serif" font-size="10.00">Parameters.setParameters</text>
</a>
</g>
</g>
<!-- Node2&#45;&gt;Node4 -->
<g id="edge3" class="edge">
<title>Node2&#45;&gt;Node4</title>
<path fill="none" stroke="midnightblue" d="M416.28,-106.95C427.52,-105.61 438.89,-104.25 449.86,-102.94"/>
<polygon fill="midnightblue" stroke="midnightblue" points="450.29,-106.42 459.81,-101.76 449.46,-99.47 450.29,-106.42"/>
</g>
</g>
</svg>
