<?xml version="1.0" encoding="UTF-8" standalone="no"?>
<!DOCTYPE svg PUBLIC "-//W3C//DTD SVG 1.1//EN"
 "http://www.w3.org/Graphics/SVG/1.1/DTD/svg11.dtd">
<!-- Generated by graphviz version 3.0.0 (20221109.1736)
 -->
<!-- Title: denoptim.fitness.DescriptorUtils.findDescriptorImplementations Pages: 1 -->
<svg width="373pt" height="137pt"
 viewBox="0.00 0.00 373.00 137.00" xmlns="http://www.w3.org/2000/svg" xmlns:xlink="http://www.w3.org/1999/xlink">
<g id="graph0" class="graph" transform="scale(1 1) rotate(0) translate(4 133)">
<title>denoptim.fitness.DescriptorUtils.findDescriptorImplementations</title>
<polygon fill="white" stroke="transparent" points="-4,4 -4,-133 369,-133 369,4 -4,4"/>
<!-- Node1 -->
<g id="node1" class="node">
<title>Node1</title>
<g id="a_node1"><a xlink:title="Searches for descriptor implementations.">
<polygon fill="#bfbfbf" stroke="black" points="0,-49.5 0,-79.5 170,-79.5 170,-49.5 0,-49.5"/>
<text text-anchor="start" x="8" y="-67.5" font-family="Helvetica,sans-Serif" font-size="10.00">denoptim.fitness.Descriptor</text>
<text text-anchor="middle" x="85" y="-56.5" font-family="Helvetica,sans-Serif" font-size="10.00">Utils.findDescriptorImplementations</text>
</a>
</g>
</g>
<!-- Node2 -->
<g id="node2" class="node">
<title>Node2</title>
<g id="a_node2"><a xlink:href="interfacedenoptim_1_1fitness_1_1_i_denoptim_descriptor.html#a349d60db2af497012dd0c903f91125e4" target="_top" xlink:title="Get the classification of this descriptor.">
<polygon fill="white" stroke="black" points="213.5,-98.5 213.5,-128.5 357.5,-128.5 357.5,-98.5 213.5,-98.5"/>
<text text-anchor="start" x="221.5" y="-116.5" font-family="Helvetica,sans-Serif" font-size="10.00">denoptim.fitness.IDenoptim</text>
<text text-anchor="middle" x="285.5" y="-105.5" font-family="Helvetica,sans-Serif" font-size="10.00">Descriptor.getDictionaryClass</text>
</a>
</g>
</g>
<!-- Node1&#45;&gt;Node2 -->
<g id="edge1" class="edge">
<title>Node1&#45;&gt;Node2</title>
<path fill="none" stroke="midnightblue" d="M146.91,-79.53C168.05,-84.76 191.95,-90.65 213.82,-96.05"/>
<polygon fill="midnightblue" stroke="midnightblue" points="213.16,-99.5 223.71,-98.49 214.84,-92.7 213.16,-99.5"/>
</g>
<!-- Node3 -->
<g id="node3" class="node">
<title>Node3</title>
<g id="a_node3"><a xlink:href="interfacedenoptim_1_1fitness_1_1_i_denoptim_descriptor.html#ae9dfd06511a97b92fb7df7636edc6c57" target="_top" xlink:title="Get a string that describes the descriptor in detail.">
<polygon fill="white" stroke="black" points="206,-49.5 206,-79.5 365,-79.5 365,-49.5 206,-49.5"/>
<text text-anchor="start" x="214" y="-67.5" font-family="Helvetica,sans-Serif" font-size="10.00">denoptim.fitness.IDenoptim</text>
<text text-anchor="middle" x="285.5" y="-56.5" font-family="Helvetica,sans-Serif" font-size="10.00">Descriptor.getDictionaryDefinition</text>
</a>
</g>
</g>
<!-- Node1&#45;&gt;Node3 -->
<g id="edge2" class="edge">
<title>Node1&#45;&gt;Node3</title>
<path fill="none" stroke="midnightblue" d="M170.18,-64.5C178.6,-64.5 187.16,-64.5 195.62,-64.5"/>
<polygon fill="midnightblue" stroke="midnightblue" points="195.87,-68 205.87,-64.5 195.87,-61 195.87,-68"/>
</g>
<!-- Node4 -->
<g id="node4" class="node">
<title>Node4</title>
<g id="a_node4"><a xlink:href="interfacedenoptim_1_1fitness_1_1_i_denoptim_descriptor.html#ad2108e8cc890e1869717e956fbcdbffa" target="_top" xlink:title="Gets the title of this descriptor as it should be in the dictionary.">
<polygon fill="white" stroke="black" points="216.5,-0.5 216.5,-30.5 354.5,-30.5 354.5,-0.5 216.5,-0.5"/>
<text text-anchor="start" x="224.5" y="-18.5" font-family="Helvetica,sans-Serif" font-size="10.00">denoptim.fitness.IDenoptim</text>
<text text-anchor="middle" x="285.5" y="-7.5" font-family="Helvetica,sans-Serif" font-size="10.00">Descriptor.getDictionaryTitle</text>
</a>
</g>
</g>
<!-- Node1&#45;&gt;Node4 -->
<g id="edge3" class="edge">
<title>Node1&#45;&gt;Node4</title>
<path fill="none" stroke="midnightblue" d="M146.91,-49.47C168.05,-44.24 191.95,-38.35 213.82,-32.95"/>
<polygon fill="midnightblue" stroke="midnightblue" points="214.84,-36.3 223.71,-30.51 213.16,-29.5 214.84,-36.3"/>
</g>
</g>
</svg>
