<?xml version="1.0" encoding="UTF-8" standalone="no"?>
<!DOCTYPE svg PUBLIC "-//W3C//DTD SVG 1.1//EN"
 "http://www.w3.org/Graphics/SVG/1.1/DTD/svg11.dtd">
<!-- Generated by graphviz version 3.0.0 (20221109.1736)
 -->
<!-- Title: denoptim.graph.SymmetricSetWithMode.equals Pages: 1 -->
<svg width="357pt" height="57pt"
 viewBox="0.00 0.00 357.00 57.00" xmlns="http://www.w3.org/2000/svg" xmlns:xlink="http://www.w3.org/1999/xlink">
<g id="graph0" class="graph" transform="scale(1 1) rotate(0) translate(4 53)">
<title>denoptim.graph.SymmetricSetWithMode.equals</title>
<polygon fill="white" stroke="transparent" points="-4,4 -4,-53 353,-53 353,4 -4,4"/>
<!-- Node1 -->
<g id="node1" class="node">
<title>Node1</title>
<g id="a_node1"><a xlink:title=" ">
<polygon fill="#bfbfbf" stroke="black" points="0,-0.5 0,-30.5 131,-30.5 131,-0.5 0,-0.5"/>
<text text-anchor="start" x="8" y="-18.5" font-family="Helvetica,sans-Serif" font-size="10.00">denoptim.graph.Symmetric</text>
<text text-anchor="middle" x="65.5" y="-7.5" font-family="Helvetica,sans-Serif" font-size="10.00">SetWithMode.equals</text>
</a>
</g>
</g>
<!-- Node1&#45;&gt;Node1 -->
<g id="edge1" class="edge">
<title>Node1&#45;&gt;Node1</title>
<path fill="none" stroke="midnightblue" d="M32.04,-30.66C23.97,-40.06 35.12,-49 65.5,-49 84.01,-49 95.38,-45.68 99.62,-40.96"/>
<polygon fill="midnightblue" stroke="midnightblue" points="103.09,-40.42 98.96,-30.66 96.1,-40.86 103.09,-40.42"/>
</g>
<!-- Node2 -->
<g id="node2" class="node">
<title>Node2</title>
<g id="a_node2"><a xlink:href="classdenoptim_1_1graph_1_1_symmetric_set_with_mode.html#aa4f731dc399b4e9911f4e491835b4b5e" target="_top" xlink:title=" ">
<polygon fill="white" stroke="black" points="167,-0.5 167,-30.5 349,-30.5 349,-0.5 167,-0.5"/>
<text text-anchor="start" x="175" y="-18.5" font-family="Helvetica,sans-Serif" font-size="10.00">denoptim.graph.Symmetric</text>
<text text-anchor="middle" x="258" y="-7.5" font-family="Helvetica,sans-Serif" font-size="10.00">SetWithMode.SymmetricSetWithMode</text>
</a>
</g>
</g>
<!-- Node1&#45;&gt;Node2 -->
<g id="edge2" class="edge">
<title>Node1&#45;&gt;Node2</title>
<path fill="none" stroke="midnightblue" d="M131.26,-15.5C139.48,-15.5 148.03,-15.5 156.65,-15.5"/>
<polygon fill="midnightblue" stroke="midnightblue" points="156.77,-19 166.77,-15.5 156.77,-12 156.77,-19"/>
</g>
</g>
</svg>
