<?xml version="1.0" encoding="UTF-8" standalone="no"?>
<!DOCTYPE svg PUBLIC "-//W3C//DTD SVG 1.1//EN"
 "http://www.w3.org/Graphics/SVG/1.1/DTD/svg11.dtd">
<!-- Generated by graphviz version 3.0.0 (20221109.1736)
 -->
<!-- Title: denoptim.gui.ParametersForm Pages: 1 -->
<svg width="671pt" height="445pt"
 viewBox="0.00 0.00 671.00 445.05" xmlns="http://www.w3.org/2000/svg" xmlns:xlink="http://www.w3.org/1999/xlink">
<g id="graph0" class="graph" transform="scale(1 1) rotate(0) translate(4 441.05)">
<title>denoptim.gui.ParametersForm</title>
<polygon fill="white" stroke="transparent" points="-4,4 -4,-441.05 667,-441.05 667,4 -4,4"/>
<!-- Node1 -->
<g id="node1" class="node">
<title>Node1</title>
<g id="a_node1"><a xlink:title="General structure of a form for collecting input parameters of various nature.">
<polygon fill="#bfbfbf" stroke="black" points="517,-221.2 517,-240.2 663,-240.2 663,-221.2 517,-221.2"/>
<text text-anchor="middle" x="590" y="-228.2" font-family="Helvetica,sans-Serif" font-size="10.00">denoptim.gui.ParametersForm</text>
</a>
</g>
</g>
<!-- Node2 -->
<g id="node2" class="node">
<title>Node2</title>
<g id="a_node2"><a xlink:title=" ">
<polygon fill="white" stroke="black" points="190,-411.2 190,-430.2 237,-430.2 237,-411.2 190,-411.2"/>
<text text-anchor="middle" x="213.5" y="-418.2" font-family="Helvetica,sans-Serif" font-size="10.00">JPanel</text>
</a>
</g>
</g>
<!-- Node2&#45;&gt;Node1 -->
<g id="edge1" class="edge">
<title>Node2&#45;&gt;Node1</title>
<path fill="none" stroke="midnightblue" d="M247.22,-427.58C303.68,-437.55 420.85,-449.69 499,-398.7 557.75,-360.37 580.92,-270.31 587.14,-240.48"/>
<polygon fill="midnightblue" stroke="midnightblue" points="247.56,-424.08 237.09,-425.7 246.28,-430.97 247.56,-424.08"/>
</g>
<!-- Node3 -->
<g id="node3" class="node">
<title>Node3</title>
<g id="a_node3"><a xlink:href="interfacedenoptim_1_1gui_1_1_i_parameters_form.html" target="_top" xlink:title="Interface for parameter forms.">
<polygon fill="white" stroke="black" points="139,-373.2 139,-392.2 288,-392.2 288,-373.2 139,-373.2"/>
<text text-anchor="middle" x="213.5" y="-380.2" font-family="Helvetica,sans-Serif" font-size="10.00">denoptim.gui.IParametersForm</text>
</a>
</g>
</g>
<!-- Node3&#45;&gt;Node1 -->
<g id="edge2" class="edge">
<title>Node3&#45;&gt;Node1</title>
<path fill="none" stroke="midnightblue" d="M268.97,-393.89C329.43,-403.32 427.84,-409.54 499,-368.7 550.6,-339.08 577.76,-266.49 586.14,-240.31"/>
<polygon fill="midnightblue" stroke="midnightblue" points="269.31,-390.4 258.87,-392.23 268.17,-397.31 269.31,-390.4"/>
</g>
<!-- Node4 -->
<g id="node4" class="node">
<title>Node4</title>
<g id="a_node4"><a xlink:title=" ">
<polygon fill="white" stroke="black" points="182.5,-335.2 182.5,-354.2 244.5,-354.2 244.5,-335.2 182.5,-335.2"/>
<text text-anchor="middle" x="213.5" y="-342.2" font-family="Helvetica,sans-Serif" font-size="10.00">Dimension</text>
</a>
</g>
</g>
<!-- Node4&#45;&gt;Node1 -->
<g id="edge3" class="edge">
<title>Node4&#45;&gt;Node1</title>
<path fill="none" stroke="#9a32cd" stroke-dasharray="5,2" d="M254.79,-340.42C327.94,-332.47 477.1,-315.36 499,-305.7 534.17,-290.18 566.46,-256.7 580.96,-240.23"/>
<polygon fill="#9a32cd" stroke="#9a32cd" points="254.13,-336.97 244.57,-341.53 254.89,-343.93 254.13,-336.97"/>
<text text-anchor="middle" x="402.5" y="-358.7" font-family="Helvetica,sans-Serif" font-size="10.00"> fileFieldSize</text>
<text text-anchor="middle" x="402.5" y="-347.7" font-family="Helvetica,sans-Serif" font-size="10.00">fileLabelSize</text>
<text text-anchor="middle" x="402.5" y="-336.7" font-family="Helvetica,sans-Serif" font-size="10.00">strFieldSize</text>
</g>
<!-- Node5 -->
<g id="node5" class="node">
<title>Node5</title>
<g id="a_node5"><a xlink:href="classdenoptim_1_1gui_1_1_parameters_form_1_1_field_listener.html" target="_top" xlink:title=" ">
<polygon fill="white" stroke="black" points="139,-285.7 139,-315.7 288,-315.7 288,-285.7 139,-285.7"/>
<text text-anchor="start" x="147" y="-303.7" font-family="Helvetica,sans-Serif" font-size="10.00">denoptim.gui.ParametersForm.</text>
<text text-anchor="middle" x="213.5" y="-292.7" font-family="Helvetica,sans-Serif" font-size="10.00">FieldListener</text>
</a>
</g>
</g>
<!-- Node5&#45;&gt;Node1 -->
<g id="edge4" class="edge">
<title>Node5&#45;&gt;Node1</title>
<path fill="none" stroke="#9a32cd" stroke-dasharray="5,2" d="M298.33,-292.97C355.39,-286.72 432.35,-276.35 499,-260.7 521.61,-255.39 546.61,-246.83 564.52,-240.21"/>
<polygon fill="#9a32cd" stroke="#9a32cd" points="297.84,-289.5 288.27,-294.05 298.59,-296.46 297.84,-289.5"/>
<text text-anchor="middle" x="402.5" y="-293.7" font-family="Helvetica,sans-Serif" font-size="10.00"> fieldListener</text>
</g>
<!-- Node6 -->
<g id="node6" class="node">
<title>Node6</title>
<g id="a_node6"><a xlink:title=" ">
<polygon fill="white" stroke="black" points="3,-291.2 3,-310.2 99,-310.2 99,-291.2 3,-291.2"/>
<text text-anchor="middle" x="51" y="-298.2" font-family="Helvetica,sans-Serif" font-size="10.00">DocumentListener</text>
</a>
</g>
</g>
<!-- Node6&#45;&gt;Node5 -->
<g id="edge5" class="edge">
<title>Node6&#45;&gt;Node5</title>
<path fill="none" stroke="midnightblue" d="M109.4,-300.7C118.92,-300.7 128.9,-300.7 138.75,-300.7"/>
<polygon fill="midnightblue" stroke="midnightblue" points="109.29,-297.2 99.29,-300.7 109.29,-304.2 109.29,-297.2"/>
</g>
<!-- Node7 -->
<g id="node7" class="node">
<title>Node7</title>
<g id="a_node7"><a xlink:href="classdenoptim_1_1gui_1_1_parameters_form_1_1_rdb_field_change.html" target="_top" xlink:title=" ">
<polygon fill="white" stroke="black" points="139,-236.7 139,-266.7 288,-266.7 288,-236.7 139,-236.7"/>
<text text-anchor="start" x="147" y="-254.7" font-family="Helvetica,sans-Serif" font-size="10.00">denoptim.gui.ParametersForm.</text>
<text text-anchor="middle" x="213.5" y="-243.7" font-family="Helvetica,sans-Serif" font-size="10.00">RdbFieldChange</text>
</a>
</g>
</g>
<!-- Node7&#45;&gt;Node1 -->
<g id="edge6" class="edge">
<title>Node7&#45;&gt;Node1</title>
<path fill="none" stroke="#9a32cd" stroke-dasharray="5,2" d="M298.36,-246.99C364.04,-243.31 454.44,-238.24 516.9,-234.74"/>
<polygon fill="#9a32cd" stroke="#9a32cd" points="297.83,-243.52 288.04,-247.57 298.22,-250.51 297.83,-243.52"/>
<text text-anchor="middle" x="402.5" y="-248.7" font-family="Helvetica,sans-Serif" font-size="10.00"> rdbFieldChange</text>
</g>
<!-- Node8 -->
<g id="node8" class="node">
<title>Node8</title>
<g id="a_node8"><a xlink:title=" ">
<polygon fill="white" stroke="black" points="8.5,-242.2 8.5,-261.2 93.5,-261.2 93.5,-242.2 8.5,-242.2"/>
<text text-anchor="middle" x="51" y="-249.2" font-family="Helvetica,sans-Serif" font-size="10.00">ChangeListener</text>
</a>
</g>
</g>
<!-- Node8&#45;&gt;Node7 -->
<g id="edge7" class="edge">
<title>Node8&#45;&gt;Node7</title>
<path fill="none" stroke="midnightblue" d="M103.78,-251.7C115,-251.7 127.07,-251.7 138.94,-251.7"/>
<polygon fill="midnightblue" stroke="midnightblue" points="103.75,-248.2 93.75,-251.7 103.75,-255.2 103.75,-248.2"/>
</g>
<!-- Node9 -->
<g id="node9" class="node">
<title>Node9</title>
<g id="a_node9"><a xlink:href="classdenoptim_1_1gui_1_1_parameters_form_1_1_tab_field_change.html" target="_top" xlink:title=" ">
<polygon fill="white" stroke="black" points="139,-187.7 139,-217.7 288,-217.7 288,-187.7 139,-187.7"/>
<text text-anchor="start" x="147" y="-205.7" font-family="Helvetica,sans-Serif" font-size="10.00">denoptim.gui.ParametersForm.</text>
<text text-anchor="middle" x="213.5" y="-194.7" font-family="Helvetica,sans-Serif" font-size="10.00">TabFieldChange</text>
</a>
</g>
</g>
<!-- Node9&#45;&gt;Node1 -->
<g id="edge8" class="edge">
<title>Node9&#45;&gt;Node1</title>
<path fill="none" stroke="#9a32cd" stroke-dasharray="5,2" d="M298.25,-206.95C354.96,-210.08 431.56,-214.82 499,-220.7 504.79,-221.2 510.79,-221.77 516.82,-222.37"/>
<polygon fill="#9a32cd" stroke="#9a32cd" points="298.43,-203.45 288.26,-206.4 298.05,-210.44 298.43,-203.45"/>
<text text-anchor="middle" x="402.5" y="-223.7" font-family="Helvetica,sans-Serif" font-size="10.00"> tabFieldChange</text>
</g>
<!-- Node10 -->
<g id="node10" class="node">
<title>Node10</title>
<g id="a_node10"><a xlink:title=" ">
<polygon fill="white" stroke="black" points="0,-193.2 0,-212.2 102,-212.2 102,-193.2 0,-193.2"/>
<text text-anchor="middle" x="51" y="-200.2" font-family="Helvetica,sans-Serif" font-size="10.00">TableModelListener</text>
</a>
</g>
</g>
<!-- Node10&#45;&gt;Node9 -->
<g id="edge9" class="edge">
<title>Node10&#45;&gt;Node9</title>
<path fill="none" stroke="midnightblue" d="M112.6,-202.7C121.17,-202.7 130.05,-202.7 138.82,-202.7"/>
<polygon fill="midnightblue" stroke="midnightblue" points="112.34,-199.2 102.34,-202.7 112.34,-206.2 112.34,-199.2"/>
</g>
<!-- Node11 -->
<g id="node11" class="node">
<title>Node11</title>
<g id="a_node11"><a xlink:href="classdenoptim_1_1gui_1_1_parameters_form_1_1_cmb_field_change.html" target="_top" xlink:title=" ">
<polygon fill="white" stroke="black" points="139,-138.7 139,-168.7 288,-168.7 288,-138.7 139,-138.7"/>
<text text-anchor="start" x="147" y="-156.7" font-family="Helvetica,sans-Serif" font-size="10.00">denoptim.gui.ParametersForm.</text>
<text text-anchor="middle" x="213.5" y="-145.7" font-family="Helvetica,sans-Serif" font-size="10.00">CmbFieldChange</text>
</a>
</g>
</g>
<!-- Node11&#45;&gt;Node1 -->
<g id="edge10" class="edge">
<title>Node11&#45;&gt;Node1</title>
<path fill="none" stroke="#9a32cd" stroke-dasharray="5,2" d="M298.22,-158.78C355.55,-163.73 432.87,-173.34 499,-191.7 524.92,-198.9 553.13,-212.06 570.93,-221.09"/>
<polygon fill="#9a32cd" stroke="#9a32cd" points="298.37,-155.28 288.11,-157.93 297.79,-162.25 298.37,-155.28"/>
<text text-anchor="middle" x="402.5" y="-194.7" font-family="Helvetica,sans-Serif" font-size="10.00"> cmbFieldChange</text>
</g>
<!-- Node12 -->
<g id="node12" class="node">
<title>Node12</title>
<g id="a_node12"><a xlink:title=" ">
<polygon fill="white" stroke="black" points="11,-144.2 11,-163.2 91,-163.2 91,-144.2 11,-144.2"/>
<text text-anchor="middle" x="51" y="-151.2" font-family="Helvetica,sans-Serif" font-size="10.00">ActionListener</text>
</a>
</g>
</g>
<!-- Node12&#45;&gt;Node11 -->
<g id="edge11" class="edge">
<title>Node12&#45;&gt;Node11</title>
<path fill="none" stroke="midnightblue" d="M101.38,-153.7C113.23,-153.7 126.15,-153.7 138.85,-153.7"/>
<polygon fill="midnightblue" stroke="midnightblue" points="101.26,-150.2 91.26,-153.7 101.26,-157.2 101.26,-150.2"/>
</g>
<!-- Node13 -->
<g id="node13" class="node">
<title>Node13</title>
<g id="a_node13"><a xlink:title=" ">
<polygon fill="white" stroke="black" points="154.5,-100.2 154.5,-119.2 272.5,-119.2 272.5,-100.2 154.5,-100.2"/>
<text text-anchor="middle" x="213.5" y="-107.2" font-family="Helvetica,sans-Serif" font-size="10.00">Map&lt; String, Boolean &gt;</text>
</a>
</g>
</g>
<!-- Node13&#45;&gt;Node1 -->
<g id="edge12" class="edge">
<title>Node13&#45;&gt;Node1</title>
<path fill="none" stroke="#9a32cd" stroke-dasharray="5,2" d="M282.86,-106.3C342.67,-106 430.45,-112.21 499,-144.7 536.89,-162.65 569.04,-202.78 582.39,-221.17"/>
<polygon fill="#9a32cd" stroke="#9a32cd" points="282.73,-102.8 272.77,-106.41 282.81,-109.8 282.73,-102.8"/>
<text text-anchor="middle" x="402.5" y="-147.7" font-family="Helvetica,sans-Serif" font-size="10.00"> checkedFlags</text>
</g>
<!-- Node14 -->
<g id="node14" class="node">
<title>Node14</title>
<g id="a_node14"><a xlink:title=" ">
<polygon fill="white" stroke="black" points="183,-62.2 183,-81.2 244,-81.2 244,-62.2 183,-62.2"/>
<text text-anchor="middle" x="213.5" y="-69.2" font-family="Helvetica,sans-Serif" font-size="10.00">JTextArea</text>
</a>
</g>
</g>
<!-- Node14&#45;&gt;Node1 -->
<g id="edge13" class="edge">
<title>Node14&#45;&gt;Node1</title>
<path fill="none" stroke="#9a32cd" stroke-dasharray="5,2" d="M253.91,-64.06C311.98,-54.97 421.97,-46.23 499,-91.7 550.5,-122.09 577.73,-194.86 586.13,-221.08"/>
<polygon fill="#9a32cd" stroke="#9a32cd" points="253.33,-60.61 244.03,-65.69 254.46,-67.52 253.33,-60.61"/>
<text text-anchor="middle" x="402.5" y="-94.7" font-family="Helvetica,sans-Serif" font-size="10.00"> txtUnformattedInput</text>
</g>
<!-- Node15 -->
<g id="node15" class="node">
<title>Node15</title>
<g id="a_node15"><a xlink:title=" ">
<polygon fill="white" stroke="black" points="194,-19.2 194,-38.2 233,-38.2 233,-19.2 194,-19.2"/>
<text text-anchor="middle" x="213.5" y="-26.2" font-family="Helvetica,sans-Serif" font-size="10.00">Color</text>
</a>
</g>
</g>
<!-- Node15&#45;&gt;Node1 -->
<g id="edge14" class="edge">
<title>Node15&#45;&gt;Node1</title>
<path fill="none" stroke="#9a32cd" stroke-dasharray="5,2" d="M242.76,-19.81C297.34,-4.48 418.95,20.55 499,-31.7 567.58,-76.47 584.5,-187.36 588.12,-220.92"/>
<polygon fill="#9a32cd" stroke="#9a32cd" points="241.69,-16.48 233.07,-22.63 243.65,-23.2 241.69,-16.48"/>
<text text-anchor="middle" x="402.5" y="-45.7" font-family="Helvetica,sans-Serif" font-size="10.00"> SETUNFORMATTEDINPUTTXTCOLOR</text>
<text text-anchor="middle" x="402.5" y="-34.7" font-family="Helvetica,sans-Serif" font-size="10.00">UNSETUNFORMATTEDINPUTTXTCOLOR</text>
</g>
</g>
</svg>
