<?xml version="1.0" encoding="UTF-8" standalone="no"?>
<!DOCTYPE svg PUBLIC "-//W3C//DTD SVG 1.1//EN"
 "http://www.w3.org/Graphics/SVG/1.1/DTD/svg11.dtd">
<!-- Generated by graphviz version 3.0.0 (20221109.1736)
 -->
<!-- Title: denoptim.io.DenoptimIOTest.testReadAllAtomContainersFromCIF Pages: 1 -->
<svg width="888pt" height="110pt"
 viewBox="0.00 0.00 888.00 110.00" xmlns="http://www.w3.org/2000/svg" xmlns:xlink="http://www.w3.org/1999/xlink">
<g id="graph0" class="graph" transform="scale(1 1) rotate(0) translate(4 106)">
<title>denoptim.io.DenoptimIOTest.testReadAllAtomContainersFromCIF</title>
<polygon fill="white" stroke="transparent" points="-4,4 -4,-106 884,-106 884,4 -4,4"/>
<!-- Node1 -->
<g id="node1" class="node">
<title>Node1</title>
<g id="a_node1"><a xlink:title=" ">
<polygon fill="#bfbfbf" stroke="black" points="0,-0.5 0,-30.5 158,-30.5 158,-0.5 0,-0.5"/>
<text text-anchor="start" x="8" y="-18.5" font-family="Helvetica,sans-Serif" font-size="10.00">denoptim.io.DenoptimIOTest.test</text>
<text text-anchor="middle" x="79" y="-7.5" font-family="Helvetica,sans-Serif" font-size="10.00">ReadAllAtomContainersFromCIF</text>
</a>
</g>
</g>
<!-- Node2 -->
<g id="node2" class="node">
<title>Node2</title>
<g id="a_node2"><a xlink:href="classdenoptim_1_1io_1_1_denoptim_i_o.html#aded8f83abc7d4310a5d95312a29363af" target="_top" xlink:title="Returns a single collection with all atom containers found in a file of any format.">
<polygon fill="white" stroke="black" points="194,-22.5 194,-52.5 335,-52.5 335,-22.5 194,-22.5"/>
<text text-anchor="start" x="202" y="-40.5" font-family="Helvetica,sans-Serif" font-size="10.00">denoptim.io.DenoptimIO.read</text>
<text text-anchor="middle" x="264.5" y="-29.5" font-family="Helvetica,sans-Serif" font-size="10.00">AllAtomContainers</text>
</a>
</g>
</g>
<!-- Node1&#45;&gt;Node2 -->
<g id="edge1" class="edge">
<title>Node1&#45;&gt;Node2</title>
<path fill="none" stroke="midnightblue" d="M158.09,-24.86C166.64,-25.89 175.36,-26.93 183.93,-27.96"/>
<polygon fill="midnightblue" stroke="midnightblue" points="183.56,-31.44 193.9,-29.16 184.39,-24.49 183.56,-31.44"/>
</g>
<!-- Node6 -->
<g id="node6" class="node">
<title>Node6</title>
<g id="a_node6"><a xlink:href="classdenoptim_1_1io_1_1_denoptim_i_o.html#adc7de175de66792f4f37f1661c10e7f8" target="_top" xlink:title="Write text&#45;like data file.">
<polygon fill="white" stroke="black" points="716,-11 716,-30 880,-30 880,-11 716,-11"/>
<text text-anchor="middle" x="798" y="-18" font-family="Helvetica,sans-Serif" font-size="10.00">denoptim.io.DenoptimIO.writeData</text>
</a>
</g>
</g>
<!-- Node1&#45;&gt;Node6 -->
<g id="edge9" class="edge">
<title>Node1&#45;&gt;Node6</title>
<path fill="none" stroke="midnightblue" d="M158.18,-13.17C170.18,-12.89 182.42,-12.65 194,-12.5 335.32,-10.64 370.68,-10.52 512,-12.5 576.77,-13.41 649.78,-15.48 705.7,-17.29"/>
<polygon fill="midnightblue" stroke="midnightblue" points="705.83,-20.79 715.93,-17.62 706.05,-13.79 705.83,-20.79"/>
</g>
<!-- Node2&#45;&gt;Node2 -->
<g id="edge7" class="edge">
<title>Node2&#45;&gt;Node2</title>
<path fill="none" stroke="midnightblue" d="M233.83,-52.66C226.43,-62.06 236.66,-71 264.5,-71 281.47,-71 291.89,-67.68 295.77,-62.96"/>
<polygon fill="midnightblue" stroke="midnightblue" points="299.25,-62.44 295.17,-52.66 292.26,-62.85 299.25,-62.44"/>
</g>
<!-- Node3 -->
<g id="node3" class="node">
<title>Node3</title>
<g id="a_node3"><a xlink:href="classdenoptim_1_1files_1_1_file_utils.html#ae2209fbdfdcf1fdf0499e32989b057b5" target="_top" xlink:title="Looks for a writable location where to put temporary files and returns an absolute pathname to the fo...">
<polygon fill="white" stroke="black" points="376.5,-71.5 376.5,-101.5 506.5,-101.5 506.5,-71.5 376.5,-71.5"/>
<text text-anchor="start" x="384.5" y="-89.5" font-family="Helvetica,sans-Serif" font-size="10.00">denoptim.files.FileUtils.get</text>
<text text-anchor="middle" x="441.5" y="-78.5" font-family="Helvetica,sans-Serif" font-size="10.00">TempFolder</text>
</a>
</g>
</g>
<!-- Node2&#45;&gt;Node3 -->
<g id="edge2" class="edge">
<title>Node2&#45;&gt;Node3</title>
<path fill="none" stroke="midnightblue" d="M319.43,-52.6C337.65,-57.7 358.15,-63.44 377.04,-68.73"/>
<polygon fill="midnightblue" stroke="midnightblue" points="376.17,-72.12 386.74,-71.45 378.06,-65.38 376.17,-72.12"/>
</g>
<!-- Node7 -->
<g id="node7" class="node">
<title>Node7</title>
<g id="a_node7"><a xlink:href="classdenoptim_1_1io_1_1_denoptim_i_o.html#a48102bb79e9cc581e8c6ef527e003b08" target="_top" xlink:title="Reads a file containing multiple molecules.">
<polygon fill="white" stroke="black" points="371,-22.5 371,-52.5 512,-52.5 512,-22.5 371,-22.5"/>
<text text-anchor="start" x="379" y="-40.5" font-family="Helvetica,sans-Serif" font-size="10.00">denoptim.io.DenoptimIO.read</text>
<text text-anchor="middle" x="441.5" y="-29.5" font-family="Helvetica,sans-Serif" font-size="10.00">SDFFile</text>
</a>
</g>
</g>
<!-- Node2&#45;&gt;Node7 -->
<g id="edge8" class="edge">
<title>Node2&#45;&gt;Node7</title>
<path fill="none" stroke="midnightblue" d="M335.17,-37.5C343.5,-37.5 352.06,-37.5 360.53,-37.5"/>
<polygon fill="midnightblue" stroke="midnightblue" points="360.79,-41 370.79,-37.5 360.79,-34 360.79,-41"/>
</g>
<!-- Node4 -->
<g id="node4" class="node">
<title>Node4</title>
<g id="a_node4"><a xlink:href="classdenoptim_1_1files_1_1_file_utils.html#abb578573334c0bc633d537d987223e63" target="_top" xlink:title="Check whether we can write and read to a given pathname.">
<polygon fill="white" stroke="black" points="548,-46.5 548,-76.5 680,-76.5 680,-46.5 548,-46.5"/>
<text text-anchor="start" x="556" y="-64.5" font-family="Helvetica,sans-Serif" font-size="10.00">denoptim.files.FileUtils.can</text>
<text text-anchor="middle" x="614" y="-53.5" font-family="Helvetica,sans-Serif" font-size="10.00">WriteAndReadTo</text>
</a>
</g>
</g>
<!-- Node3&#45;&gt;Node4 -->
<g id="edge3" class="edge">
<title>Node3&#45;&gt;Node4</title>
<path fill="none" stroke="midnightblue" d="M506.96,-77.05C517,-75.58 527.46,-74.04 537.71,-72.54"/>
<polygon fill="midnightblue" stroke="midnightblue" points="538.5,-75.96 547.88,-71.05 537.48,-69.04 538.5,-75.96"/>
</g>
<!-- Node5 -->
<g id="node5" class="node">
<title>Node5</title>
<g id="a_node5"><a xlink:href="classdenoptim_1_1io_1_1_denoptim_i_o.html#ad5bee53baea572e1d76f8dd0bf3ddd76" target="_top" xlink:title="Read list of data as text.">
<polygon fill="white" stroke="black" points="719,-52 719,-71 877,-71 877,-52 719,-52"/>
<text text-anchor="middle" x="798" y="-59" font-family="Helvetica,sans-Serif" font-size="10.00">denoptim.io.DenoptimIO.readList</text>
</a>
</g>
</g>
<!-- Node4&#45;&gt;Node5 -->
<g id="edge4" class="edge">
<title>Node4&#45;&gt;Node5</title>
<path fill="none" stroke="midnightblue" d="M680.19,-61.5C689.5,-61.5 699.21,-61.5 708.87,-61.5"/>
<polygon fill="midnightblue" stroke="midnightblue" points="708.9,-65 718.9,-61.5 708.9,-58 708.9,-65"/>
</g>
<!-- Node4&#45;&gt;Node6 -->
<g id="edge6" class="edge">
<title>Node4&#45;&gt;Node6</title>
<path fill="none" stroke="midnightblue" d="M680.19,-46.81C701.4,-42.04 724.64,-36.8 744.77,-32.27"/>
<polygon fill="midnightblue" stroke="midnightblue" points="745.69,-35.65 754.68,-30.03 744.15,-28.82 745.69,-35.65"/>
</g>
<!-- Node5&#45;&gt;Node5 -->
<g id="edge5" class="edge">
<title>Node5&#45;&gt;Node5</title>
<path fill="none" stroke="midnightblue" d="M769.64,-71.26C755.84,-80.07 765.3,-89.5 798,-89.5 820.48,-89.5 831.98,-85.04 832.48,-79.39"/>
<polygon fill="midnightblue" stroke="midnightblue" points="835.17,-77.14 826.36,-71.26 829.58,-81.35 835.17,-77.14"/>
</g>
</g>
</svg>
