<?xml version="1.0" encoding="UTF-8" standalone="no"?>
<!DOCTYPE svg PUBLIC "-//W3C//DTD SVG 1.1//EN"
 "http://www.w3.org/Graphics/SVG/1.1/DTD/svg11.dtd">
<!-- Generated by graphviz version 3.0.0 (20221109.1736)
 -->
<!-- Title: denoptim.gui.GUIVertexInspector.dialogToDefineCuttingRules Pages: 1 -->
<svg width="612pt" height="167pt"
 viewBox="0.00 0.00 612.00 166.50" xmlns="http://www.w3.org/2000/svg" xmlns:xlink="http://www.w3.org/1999/xlink">
<g id="graph0" class="graph" transform="scale(1 1) rotate(0) translate(4 162.5)">
<title>denoptim.gui.GUIVertexInspector.dialogToDefineCuttingRules</title>
<polygon fill="white" stroke="transparent" points="-4,4 -4,-162.5 608,-162.5 608,4 -4,4"/>
<!-- Node1 -->
<g id="node1" class="node">
<title>Node1</title>
<g id="a_node1"><a xlink:title="Starts a dialog to define the on&#45;the&#45;fly fragmentation settings.">
<polygon fill="#bfbfbf" stroke="black" points="0,-49.5 0,-79.5 188,-79.5 188,-49.5 0,-49.5"/>
<text text-anchor="start" x="8" y="-67.5" font-family="Helvetica,sans-Serif" font-size="10.00">denoptim.gui.GUIVertexInspector.dialog</text>
<text text-anchor="middle" x="94" y="-56.5" font-family="Helvetica,sans-Serif" font-size="10.00">ToDefineCuttingRules</text>
</a>
</g>
</g>
<!-- Node2 -->
<g id="node2" class="node">
<title>Node2</title>
<g id="a_node2"><a xlink:href="classdenoptim_1_1programs_1_1fragmenter_1_1_fragmenter_parameters.html#a08082e27d7533670cd4e73f1d0608d83" target="_top" xlink:title=" ">
<polygon fill="white" stroke="black" points="224,-117 224,-158 412,-158 412,-117 224,-117"/>
<text text-anchor="start" x="232" y="-146" font-family="Helvetica,sans-Serif" font-size="10.00">denoptim.programs.fragmenter.</text>
<text text-anchor="start" x="232" y="-135" font-family="Helvetica,sans-Serif" font-size="10.00">FragmenterParameters.getCuttingRules</text>
<text text-anchor="middle" x="318" y="-124" font-family="Helvetica,sans-Serif" font-size="10.00">FilePathname</text>
</a>
</g>
</g>
<!-- Node1&#45;&gt;Node2 -->
<g id="edge1" class="edge">
<title>Node1&#45;&gt;Node2</title>
<path fill="none" stroke="midnightblue" d="M139.74,-79.53C164.55,-87.84 195.96,-98.3 224,-107.5 230.28,-109.56 236.81,-111.69 243.35,-113.82"/>
<polygon fill="midnightblue" stroke="midnightblue" points="242.35,-117.17 252.94,-116.92 244.51,-110.51 242.35,-117.17"/>
</g>
<!-- Node3 -->
<g id="node3" class="node">
<title>Node3</title>
<g id="a_node3"><a xlink:href="classdenoptim_1_1io_1_1_denoptim_i_o.html#a582437708ec38a71972a4da0ef0a4526" target="_top" xlink:title="Read cutting rules from a stream.">
<polygon fill="white" stroke="black" points="247.5,-49.5 247.5,-79.5 388.5,-79.5 388.5,-49.5 247.5,-49.5"/>
<text text-anchor="start" x="255.5" y="-67.5" font-family="Helvetica,sans-Serif" font-size="10.00">denoptim.io.DenoptimIO.read</text>
<text text-anchor="middle" x="318" y="-56.5" font-family="Helvetica,sans-Serif" font-size="10.00">CuttingRules</text>
</a>
</g>
</g>
<!-- Node1&#45;&gt;Node3 -->
<g id="edge2" class="edge">
<title>Node1&#45;&gt;Node3</title>
<path fill="none" stroke="midnightblue" d="M188.18,-64.5C204.44,-64.5 221.22,-64.5 237.08,-64.5"/>
<polygon fill="midnightblue" stroke="midnightblue" points="237.35,-68 247.35,-64.5 237.35,-61 237.35,-68"/>
</g>
<!-- Node4 -->
<g id="node4" class="node">
<title>Node4</title>
<g id="a_node4"><a xlink:href="classdenoptim_1_1programs_1_1_run_time_parameters.html#ab2ef881db354b6eada312a132af8e4c5" target="_top" xlink:title="Starts a program&#45;specific logger that prints to System.err stream.">
<polygon fill="white" stroke="black" points="241,-0.5 241,-30.5 395,-30.5 395,-0.5 241,-0.5"/>
<text text-anchor="start" x="249" y="-18.5" font-family="Helvetica,sans-Serif" font-size="10.00">denoptim.programs.RunTime</text>
<text text-anchor="middle" x="318" y="-7.5" font-family="Helvetica,sans-Serif" font-size="10.00">Parameters.startConsoleLogger</text>
</a>
</g>
</g>
<!-- Node1&#45;&gt;Node4 -->
<g id="edge4" class="edge">
<title>Node1&#45;&gt;Node4</title>
<path fill="none" stroke="midnightblue" d="M163.12,-49.47C187.09,-44.17 214.22,-38.19 238.94,-32.73"/>
<polygon fill="midnightblue" stroke="midnightblue" points="240,-36.08 249.01,-30.51 238.49,-29.24 240,-36.08"/>
</g>
<!-- Node3&#45;&gt;Node3 -->
<g id="edge3" class="edge">
<title>Node3&#45;&gt;Node3</title>
<path fill="none" stroke="midnightblue" d="M281.75,-79.66C273.01,-89.06 285.09,-98 318,-98 338.05,-98 350.37,-94.68 354.96,-89.96"/>
<polygon fill="midnightblue" stroke="midnightblue" points="358.43,-89.39 354.25,-79.66 351.45,-89.88 358.43,-89.39"/>
</g>
<!-- Node5 -->
<g id="node5" class="node">
<title>Node5</title>
<g id="a_node5"><a xlink:href="classdenoptim_1_1programs_1_1_run_time_parameters.html#ab50cf53bb905ea6cd32f361243d899da" target="_top" xlink:title=" ">
<polygon fill="white" stroke="black" points="448,-0.5 448,-30.5 604,-30.5 604,-0.5 448,-0.5"/>
<text text-anchor="start" x="456" y="-18.5" font-family="Helvetica,sans-Serif" font-size="10.00">denoptim.programs.RunTime</text>
<text text-anchor="middle" x="526" y="-7.5" font-family="Helvetica,sans-Serif" font-size="10.00">Parameters.verbosityTologLevel</text>
</a>
</g>
</g>
<!-- Node4&#45;&gt;Node5 -->
<g id="edge5" class="edge">
<title>Node4&#45;&gt;Node5</title>
<path fill="none" stroke="midnightblue" d="M395.12,-15.5C408.96,-15.5 423.49,-15.5 437.61,-15.5"/>
<polygon fill="midnightblue" stroke="midnightblue" points="437.81,-19 447.81,-15.5 437.81,-12 437.81,-19"/>
</g>
</g>
</svg>
