<?xml version="1.0" encoding="UTF-8" standalone="no"?>
<!DOCTYPE svg PUBLIC "-//W3C//DTD SVG 1.1//EN"
 "http://www.w3.org/Graphics/SVG/1.1/DTD/svg11.dtd">
<!-- Generated by graphviz version 3.0.0 (20221109.1736)
 -->
<!-- Title: denoptim.ga.Population.getMinFitnessMember Pages: 1 -->
<svg width="692pt" height="135pt"
 viewBox="0.00 0.00 692.00 135.00" xmlns="http://www.w3.org/2000/svg" xmlns:xlink="http://www.w3.org/1999/xlink">
<g id="graph0" class="graph" transform="scale(1 1) rotate(0) translate(4 131)">
<title>denoptim.ga.Population.getMinFitnessMember</title>
<polygon fill="white" stroke="transparent" points="-4,4 -4,-131 688,-131 688,4 -4,4"/>
<!-- Node1 -->
<g id="node1" class="node">
<title>Node1</title>
<g id="a_node1"><a xlink:title="Gets the Candidate with minimum value of the fitness in this population.">
<polygon fill="#bfbfbf" stroke="black" points="551,-90.5 551,-120.5 684,-120.5 684,-90.5 551,-90.5"/>
<text text-anchor="start" x="559" y="-108.5" font-family="Helvetica,sans-Serif" font-size="10.00">denoptim.ga.Population.get</text>
<text text-anchor="middle" x="617.5" y="-97.5" font-family="Helvetica,sans-Serif" font-size="10.00">MinFitnessMember</text>
</a>
</g>
</g>
<!-- Node2 -->
<g id="node2" class="node">
<title>Node2</title>
<g id="a_node2"><a xlink:href="classdenoptim_1_1ga_1_1_offspring_evaluation_task.html#aab5b9c0b8a88922460f5c28ae161d1fa" target="_top" xlink:title=" ">
<polygon fill="white" stroke="black" points="0,-96.5 0,-126.5 155,-126.5 155,-96.5 0,-96.5"/>
<text text-anchor="start" x="8" y="-114.5" font-family="Helvetica,sans-Serif" font-size="10.00">denoptim.ga.OffspringEvaluation</text>
<text text-anchor="middle" x="77.5" y="-103.5" font-family="Helvetica,sans-Serif" font-size="10.00">Task.call</text>
</a>
</g>
</g>
<!-- Node1&#45;&gt;Node2 -->
<g id="edge1" class="edge">
<title>Node1&#45;&gt;Node2</title>
<path fill="none" stroke="midnightblue" d="M540.81,-107.88C532.11,-108.12 523.36,-108.33 515,-108.5 389.04,-111.11 242.59,-111.59 155.39,-111.61"/>
<polygon fill="midnightblue" stroke="midnightblue" points="541.08,-111.38 550.98,-107.61 540.89,-104.38 541.08,-111.38"/>
</g>
<!-- Node3 -->
<g id="node3" class="node">
<title>Node3</title>
<g id="a_node3"><a xlink:href="classdenoptim_1_1ga_1_1_population.html#a0324ca75861e476b7f6480e740864ffb" target="_top" xlink:title="Gets the minimum value of the fitness in this population.">
<polygon fill="white" stroke="black" points="382,-68.5 382,-98.5 515,-98.5 515,-68.5 382,-68.5"/>
<text text-anchor="start" x="390" y="-86.5" font-family="Helvetica,sans-Serif" font-size="10.00">denoptim.ga.Population.get</text>
<text text-anchor="middle" x="448.5" y="-75.5" font-family="Helvetica,sans-Serif" font-size="10.00">MinFitness</text>
</a>
</g>
</g>
<!-- Node1&#45;&gt;Node3 -->
<g id="edge2" class="edge">
<title>Node1&#45;&gt;Node3</title>
<path fill="none" stroke="midnightblue" d="M540.93,-95.55C532.32,-94.41 523.58,-93.26 515.11,-92.14"/>
<polygon fill="midnightblue" stroke="midnightblue" points="540.6,-99.03 550.98,-96.87 541.52,-92.09 540.6,-99.03"/>
</g>
<!-- Node3&#45;&gt;Node2 -->
<g id="edge3" class="edge">
<title>Node3&#45;&gt;Node2</title>
<path fill="none" stroke="midnightblue" d="M371.65,-89.26C308.41,-94.05 218.72,-100.86 155.24,-105.68"/>
<polygon fill="midnightblue" stroke="midnightblue" points="372.25,-92.72 381.96,-88.47 371.72,-85.74 372.25,-92.72"/>
</g>
<!-- Node4 -->
<g id="node4" class="node">
<title>Node4</title>
<g id="a_node4"><a xlink:href="classdenoptim_1_1ga_1_1_population.html#a43092319305b5aaef2c335cabadc7d06" target="_top" xlink:title="Checks if a given fitness value if within the given percentile of best candidates.">
<polygon fill="white" stroke="black" points="205,-49.5 205,-79.5 332,-79.5 332,-49.5 205,-49.5"/>
<text text-anchor="start" x="213" y="-67.5" font-family="Helvetica,sans-Serif" font-size="10.00">denoptim.ga.Population.is</text>
<text text-anchor="middle" x="268.5" y="-56.5" font-family="Helvetica,sans-Serif" font-size="10.00">WithinPercentile</text>
</a>
</g>
</g>
<!-- Node3&#45;&gt;Node4 -->
<g id="edge4" class="edge">
<title>Node3&#45;&gt;Node4</title>
<path fill="none" stroke="midnightblue" d="M371.95,-75.44C358.71,-74.02 345.06,-72.57 332.22,-71.19"/>
<polygon fill="midnightblue" stroke="midnightblue" points="371.66,-78.92 381.98,-76.51 372.41,-71.96 371.66,-78.92"/>
</g>
<!-- Node6 -->
<g id="node6" class="node">
<title>Node6</title>
<g id="a_node6"><a xlink:href="classdenoptim_1_1ga_1_1_population_test.html#aa40d0bedbf2ca22b34267aa8491d7ec3" target="_top" xlink:title=" ">
<polygon fill="white" stroke="black" points="191,-0.5 191,-30.5 346,-30.5 346,-0.5 191,-0.5"/>
<text text-anchor="start" x="199" y="-18.5" font-family="Helvetica,sans-Serif" font-size="10.00">denoptim.ga.PopulationTest.test</text>
<text text-anchor="middle" x="268.5" y="-7.5" font-family="Helvetica,sans-Serif" font-size="10.00">GetMinMax</text>
</a>
</g>
</g>
<!-- Node3&#45;&gt;Node6 -->
<g id="edge7" class="edge">
<title>Node3&#45;&gt;Node6</title>
<path fill="none" stroke="midnightblue" d="M405.78,-64.24C387.6,-56.15 365.92,-46.92 346,-39.5 337.65,-36.39 328.7,-33.34 319.96,-30.5"/>
<polygon fill="midnightblue" stroke="midnightblue" points="404.39,-67.45 414.94,-68.35 407.25,-61.06 404.39,-67.45"/>
</g>
<!-- Node4&#45;&gt;Node2 -->
<g id="edge5" class="edge">
<title>Node4&#45;&gt;Node2</title>
<path fill="none" stroke="midnightblue" d="M197.29,-81.96C178.11,-86.73 157.48,-91.86 138.9,-96.48"/>
<polygon fill="midnightblue" stroke="midnightblue" points="198.32,-85.31 207.18,-79.5 196.63,-78.52 198.32,-85.31"/>
</g>
<!-- Node5 -->
<g id="node5" class="node">
<title>Node5</title>
<g id="a_node5"><a xlink:href="classdenoptim_1_1ga_1_1_population_test.html#a6725ae8dc980dd79466800b489fc9620" target="_top" xlink:title=" ">
<polygon fill="white" stroke="black" points="0,-47.5 0,-77.5 155,-77.5 155,-47.5 0,-47.5"/>
<text text-anchor="start" x="8" y="-65.5" font-family="Helvetica,sans-Serif" font-size="10.00">denoptim.ga.PopulationTest.test</text>
<text text-anchor="middle" x="77.5" y="-54.5" font-family="Helvetica,sans-Serif" font-size="10.00">IsInPercentile</text>
</a>
</g>
</g>
<!-- Node4&#45;&gt;Node5 -->
<g id="edge6" class="edge">
<title>Node4&#45;&gt;Node5</title>
<path fill="none" stroke="midnightblue" d="M194.6,-63.73C181.68,-63.59 168.18,-63.45 155.15,-63.31"/>
<polygon fill="midnightblue" stroke="midnightblue" points="194.79,-67.23 204.83,-63.84 194.87,-60.23 194.79,-67.23"/>
</g>
</g>
</svg>
