<?xml version="1.0" encoding="UTF-8" standalone="no"?>
<!DOCTYPE svg PUBLIC "-//W3C//DTD SVG 1.1//EN"
 "http://www.w3.org/Graphics/SVG/1.1/DTD/svg11.dtd">
<!-- Generated by graphviz version 3.0.0 (20221109.1736)
 -->
<!-- Title: denoptim.ga.EAUtilsTest.prepare Pages: 1 -->
<svg width="935pt" height="776pt"
 viewBox="0.00 0.00 935.00 776.00" xmlns="http://www.w3.org/2000/svg" xmlns:xlink="http://www.w3.org/1999/xlink">
<g id="graph0" class="graph" transform="scale(1 1) rotate(0) translate(4 772)">
<title>denoptim.ga.EAUtilsTest.prepare</title>
<polygon fill="white" stroke="transparent" points="-4,4 -4,-772 931,-772 931,4 -4,4"/>
<!-- Node1 -->
<g id="node1" class="node">
<title>Node1</title>
<g id="a_node1"><a xlink:title=" ">
<polygon fill="#bfbfbf" stroke="black" points="0,-348 0,-367 158,-367 158,-348 0,-348"/>
<text text-anchor="middle" x="79" y="-355" font-family="Helvetica,sans-Serif" font-size="10.00">denoptim.ga.EAUtilsTest.prepare</text>
</a>
</g>
</g>
<!-- Node2 -->
<g id="node2" class="node">
<title>Node2</title>
<g id="a_node2"><a xlink:href="classdenoptim_1_1graph_1_1_empty_vertex.html#af9d9965c880b45d82e9b4cc10e60efa7" target="_top" xlink:title="Adds an attachment point with no APClass or other attribute.">
<polygon fill="white" stroke="black" points="194,-621 194,-640 365,-640 365,-621 194,-621"/>
<text text-anchor="middle" x="279.5" y="-628" font-family="Helvetica,sans-Serif" font-size="10.00">denoptim.graph.EmptyVertex.addAP</text>
</a>
</g>
</g>
<!-- Node1&#45;&gt;Node2 -->
<g id="edge1" class="edge">
<title>Node1&#45;&gt;Node2</title>
<path fill="none" stroke="midnightblue" d="M81.24,-367.16C86.65,-404.99 111.65,-544.22 194,-611.5 196.04,-613.16 198.19,-614.69 200.44,-616.09"/>
<polygon fill="midnightblue" stroke="midnightblue" points="199.01,-619.3 209.49,-620.87 202.29,-613.11 199.01,-619.3"/>
</g>
<!-- Node4 -->
<g id="node4" class="node">
<title>Node4</title>
<g id="a_node4"><a xlink:href="classdenoptim_1_1graph_1_1_d_graph.html#ad16255987a45bace2ef62f2b49e0d873" target="_top" xlink:title=" ">
<polygon fill="white" stroke="black" points="202,-583 202,-602 357,-602 357,-583 202,-583"/>
<text text-anchor="middle" x="279.5" y="-590" font-family="Helvetica,sans-Serif" font-size="10.00">denoptim.graph.DGraph.addRing</text>
</a>
</g>
</g>
<!-- Node1&#45;&gt;Node4 -->
<g id="edge3" class="edge">
<title>Node1&#45;&gt;Node4</title>
<path fill="none" stroke="midnightblue" d="M82.34,-367.22C90.92,-400.7 123.85,-512.22 194,-568.5 199.27,-572.73 205.26,-576.22 211.55,-579.09"/>
<polygon fill="midnightblue" stroke="midnightblue" points="210.34,-582.38 220.93,-582.87 212.96,-575.89 210.34,-582.38"/>
</g>
<!-- Node5 -->
<g id="node5" class="node">
<title>Node5</title>
<g id="a_node5"><a xlink:href="classdenoptim_1_1graph_1_1_d_graph.html#a33a3299b77560786461345412d2fe193" target="_top" xlink:title="Appends a vertex to this graph without creating any edge.">
<polygon fill="white" stroke="black" points="412,-553.5 412,-583.5 548,-583.5 548,-553.5 412,-553.5"/>
<text text-anchor="start" x="420" y="-571.5" font-family="Helvetica,sans-Serif" font-size="10.00">denoptim.graph.DGraph.add</text>
<text text-anchor="middle" x="480" y="-560.5" font-family="Helvetica,sans-Serif" font-size="10.00">Vertex</text>
</a>
</g>
</g>
<!-- Node1&#45;&gt;Node5 -->
<g id="edge4" class="edge">
<title>Node1&#45;&gt;Node5</title>
<path fill="none" stroke="midnightblue" d="M82.96,-367.37C92.81,-398.37 127.7,-494.1 194,-535.5 227.59,-556.48 329.42,-564.13 401.75,-566.91"/>
<polygon fill="midnightblue" stroke="midnightblue" points="401.63,-570.41 411.75,-567.27 401.88,-563.41 401.63,-570.41"/>
</g>
<!-- Node8 -->
<g id="node8" class="node">
<title>Node8</title>
<g id="a_node8"><a xlink:href="classdenoptim_1_1graph_1_1_d_graph.html#a641d9078c27d992053500e12cec0049d" target="_top" xlink:title="Append a vertex to this graph: adds the new vertex to the list of vertices belonging to the graph,...">
<polygon fill="white" stroke="black" points="203.5,-495.5 203.5,-525.5 355.5,-525.5 355.5,-495.5 203.5,-495.5"/>
<text text-anchor="start" x="211.5" y="-513.5" font-family="Helvetica,sans-Serif" font-size="10.00">denoptim.graph.DGraph.append</text>
<text text-anchor="middle" x="279.5" y="-502.5" font-family="Helvetica,sans-Serif" font-size="10.00">VertexOnAP</text>
</a>
</g>
</g>
<!-- Node1&#45;&gt;Node8 -->
<g id="edge7" class="edge">
<title>Node1&#45;&gt;Node8</title>
<path fill="none" stroke="midnightblue" d="M85.81,-367.28C100.65,-391.39 142.4,-454.02 194,-486.5 196.63,-488.15 199.37,-489.69 202.19,-491.13"/>
<polygon fill="midnightblue" stroke="midnightblue" points="200.89,-494.39 211.44,-495.38 203.81,-488.03 200.89,-494.39"/>
</g>
<!-- Node10 -->
<g id="node10" class="node">
<title>Node10</title>
<g id="a_node10"><a xlink:href="classdenoptim_1_1fragspace_1_1_fragment_space.html#a29a9f624b749868d8afd6aa5a987543d" target="_top" xlink:title="Takes a vertex and add it to a given library.">
<polygon fill="white" stroke="black" points="206.5,-446.5 206.5,-476.5 352.5,-476.5 352.5,-446.5 206.5,-446.5"/>
<text text-anchor="start" x="214.5" y="-464.5" font-family="Helvetica,sans-Serif" font-size="10.00">denoptim.fragspace.Fragment</text>
<text text-anchor="middle" x="279.5" y="-453.5" font-family="Helvetica,sans-Serif" font-size="10.00">Space.appendVertexToLibrary</text>
</a>
</g>
</g>
<!-- Node1&#45;&gt;Node10 -->
<g id="edge10" class="edge">
<title>Node1&#45;&gt;Node10</title>
<path fill="none" stroke="midnightblue" d="M92.74,-367.21C113.21,-382.46 155.07,-412.29 194,-431.5 202.3,-435.6 211.31,-439.41 220.25,-442.85"/>
<polygon fill="midnightblue" stroke="midnightblue" points="219.28,-446.23 229.88,-446.43 221.72,-439.67 219.28,-446.23"/>
</g>
<!-- Node22 -->
<g id="node22" class="node">
<title>Node22</title>
<g id="a_node22"><a xlink:href="classdenoptim_1_1graph_1_1_vertex.html#ab8088bc1c894c7c916ca8d8a151fa905" target="_top" xlink:title=" ">
<polygon fill="white" stroke="black" points="416,-360.5 416,-390.5 544,-390.5 544,-360.5 416,-360.5"/>
<text text-anchor="start" x="424" y="-378.5" font-family="Helvetica,sans-Serif" font-size="10.00">denoptim.graph.Vertex.set</text>
<text text-anchor="middle" x="480" y="-367.5" font-family="Helvetica,sans-Serif" font-size="10.00">BuildingBlockType</text>
</a>
</g>
</g>
<!-- Node1&#45;&gt;Node22 -->
<g id="edge40" class="edge">
<title>Node1&#45;&gt;Node22</title>
<path fill="none" stroke="midnightblue" d="M103.08,-367.09C125.76,-375.96 161.59,-388.5 194,-393.5 265.42,-404.51 347.89,-397.15 405.69,-388.77"/>
<polygon fill="midnightblue" stroke="midnightblue" points="406.45,-392.19 415.82,-387.25 405.41,-385.27 406.45,-392.19"/>
</g>
<!-- Node23 -->
<g id="node23" class="node">
<title>Node23</title>
<g id="a_node23"><a xlink:href="classdenoptim_1_1graph_1_1_vertex.html#aee39019987712f9784138e97917ac97f" target="_top" xlink:title="Get attachment point i on this vertex.">
<polygon fill="white" stroke="black" points="409,-270 409,-289 551,-289 551,-270 409,-270"/>
<text text-anchor="middle" x="480" y="-277" font-family="Helvetica,sans-Serif" font-size="10.00">denoptim.graph.Vertex.getAP</text>
</a>
</g>
</g>
<!-- Node1&#45;&gt;Node23 -->
<g id="edge25" class="edge">
<title>Node1&#45;&gt;Node23</title>
<path fill="none" stroke="midnightblue" d="M128.26,-367.03C186.06,-376.41 285.1,-386 365,-360.5 404.41,-347.92 441.86,-316.21 462.5,-296.4"/>
<polygon fill="midnightblue" stroke="midnightblue" points="465.13,-298.72 469.8,-289.21 460.22,-293.74 465.13,-298.72"/>
</g>
<!-- Node24 -->
<g id="node24" class="node">
<title>Node24</title>
<g id="a_node24"><a xlink:href="classdenoptim_1_1fragspace_1_1_fragment_space.html#aed02226a5695be948ae2c33e787e22c3" target="_top" xlink:title=" ">
<polygon fill="white" stroke="black" points="207,-320.5 207,-350.5 352,-350.5 352,-320.5 207,-320.5"/>
<text text-anchor="start" x="215" y="-338.5" font-family="Helvetica,sans-Serif" font-size="10.00">denoptim.fragspace.Fragment</text>
<text text-anchor="middle" x="279.5" y="-327.5" font-family="Helvetica,sans-Serif" font-size="10.00">Space.getFragmentLibrary</text>
</a>
</g>
</g>
<!-- Node1&#45;&gt;Node24 -->
<g id="edge27" class="edge">
<title>Node1&#45;&gt;Node24</title>
<path fill="none" stroke="midnightblue" d="M158.17,-348.84C170.84,-347.43 183.99,-345.97 196.74,-344.56"/>
<polygon fill="midnightblue" stroke="midnightblue" points="197.31,-348.02 206.87,-343.44 196.54,-341.06 197.31,-348.02"/>
</g>
<!-- Node25 -->
<g id="node25" class="node">
<title>Node25</title>
<g id="a_node25"><a xlink:href="classdenoptim_1_1fragspace_1_1_fragment_space.html#ae30c8a77be3202d7072d5b0b66a6ae59" target="_top" xlink:title=" ">
<polygon fill="white" stroke="black" points="207,-271.5 207,-301.5 352,-301.5 352,-271.5 207,-271.5"/>
<text text-anchor="start" x="215" y="-289.5" font-family="Helvetica,sans-Serif" font-size="10.00">denoptim.fragspace.Fragment</text>
<text text-anchor="middle" x="279.5" y="-278.5" font-family="Helvetica,sans-Serif" font-size="10.00">Space.getScaffoldLibrary</text>
</a>
</g>
</g>
<!-- Node1&#45;&gt;Node25 -->
<g id="edge28" class="edge">
<title>Node1&#45;&gt;Node25</title>
<path fill="none" stroke="midnightblue" d="M102.04,-347.87C124.83,-338.09 161.56,-322.82 194,-311.5 200.75,-309.14 207.86,-306.82 214.96,-304.58"/>
<polygon fill="midnightblue" stroke="midnightblue" points="216.09,-307.9 224.61,-301.6 214.02,-301.21 216.09,-307.9"/>
</g>
<!-- Node26 -->
<g id="node26" class="node">
<title>Node26</title>
<g id="a_node26"><a xlink:href="classdenoptim_1_1graph_1_1_d_graph.html#a58811a9ea75a26abffc1a9c7c2b22741" target="_top" xlink:title="Returns the vertex that is in the given position of the list of vertices belonging to this graph.">
<polygon fill="white" stroke="black" points="212.5,-222.5 212.5,-252.5 346.5,-252.5 346.5,-222.5 212.5,-222.5"/>
<text text-anchor="start" x="220.5" y="-240.5" font-family="Helvetica,sans-Serif" font-size="10.00">denoptim.graph.DGraph.get</text>
<text text-anchor="middle" x="279.5" y="-229.5" font-family="Helvetica,sans-Serif" font-size="10.00">VertexAtPosition</text>
</a>
</g>
</g>
<!-- Node1&#45;&gt;Node26 -->
<g id="edge29" class="edge">
<title>Node1&#45;&gt;Node26</title>
<path fill="none" stroke="midnightblue" d="M88.79,-347.93C106.74,-328.91 149.7,-286.2 194,-262.5 198.25,-260.23 202.72,-258.14 207.31,-256.22"/>
<polygon fill="midnightblue" stroke="midnightblue" points="208.8,-259.4 216.85,-252.51 206.26,-252.87 208.8,-259.4"/>
</g>
<!-- Node27 -->
<g id="node27" class="node">
<title>Node27</title>
<g id="a_node27"><a xlink:href="classdenoptim_1_1graph_1_1_a_p_class.html#ac957566ebf8db3b83713ed0c12a56a3f" target="_top" xlink:title="Creates an APClass if it does not exist already, or returns the reference to the existing instance.">
<polygon fill="white" stroke="black" points="205,-166 205,-185 354,-185 354,-166 205,-166"/>
<text text-anchor="middle" x="279.5" y="-173" font-family="Helvetica,sans-Serif" font-size="10.00">denoptim.graph.APClass.make</text>
</a>
</g>
</g>
<!-- Node1&#45;&gt;Node27 -->
<g id="edge30" class="edge">
<title>Node1&#45;&gt;Node27</title>
<path fill="none" stroke="midnightblue" d="M85.42,-347.79C99.94,-322.51 142.19,-253.87 194,-213.5 207.32,-203.12 223.93,-194.86 238.89,-188.73"/>
<polygon fill="midnightblue" stroke="midnightblue" points="240.39,-191.9 248.43,-185.01 237.84,-185.38 240.39,-191.9"/>
</g>
<!-- Node31 -->
<g id="node31" class="node">
<title>Node31</title>
<g id="a_node31"><a xlink:href="classdenoptim_1_1graph_1_1_vertex.html#aeed71fb5a76a745190ea6f0e3e0b939d" target="_top" xlink:title="Builds a new molecular fragment kind of vertex.">
<polygon fill="white" stroke="black" points="213,-98.5 213,-128.5 346,-128.5 346,-98.5 213,-98.5"/>
<text text-anchor="start" x="221" y="-116.5" font-family="Helvetica,sans-Serif" font-size="10.00">denoptim.graph.Vertex.new</text>
<text text-anchor="middle" x="279.5" y="-105.5" font-family="Helvetica,sans-Serif" font-size="10.00">VertexFromLibrary</text>
</a>
</g>
</g>
<!-- Node1&#45;&gt;Node31 -->
<g id="edge35" class="edge">
<title>Node1&#45;&gt;Node31</title>
<path fill="none" stroke="midnightblue" d="M83.19,-347.83C93.97,-316.42 131.94,-215.82 194,-156.5 203.77,-147.17 215.96,-139.4 228.01,-133.15"/>
<polygon fill="midnightblue" stroke="midnightblue" points="229.72,-136.21 237.16,-128.67 226.64,-129.92 229.72,-136.21"/>
</g>
<!-- Node33 -->
<g id="node33" class="node">
<title>Node33</title>
<g id="a_node33"><a xlink:href="classdenoptim_1_1fragspace_1_1_fragment_space.html#a4bbfced62cc83d37242245a13ef680f9" target="_top" xlink:title="Set the fragment space to behave according to APClass&#45;based approach.">
<polygon fill="white" stroke="black" points="196.5,-49.5 196.5,-79.5 362.5,-79.5 362.5,-49.5 196.5,-49.5"/>
<text text-anchor="start" x="204.5" y="-67.5" font-family="Helvetica,sans-Serif" font-size="10.00">denoptim.fragspace.Fragment</text>
<text text-anchor="middle" x="279.5" y="-56.5" font-family="Helvetica,sans-Serif" font-size="10.00">Space.setAPclassBasedApproach</text>
</a>
</g>
</g>
<!-- Node1&#45;&gt;Node33 -->
<g id="edge38" class="edge">
<title>Node1&#45;&gt;Node33</title>
<path fill="none" stroke="midnightblue" d="M81.1,-347.95C86.06,-309.26 109.97,-162.7 194,-88.5 195.34,-87.32 196.73,-86.2 198.16,-85.13"/>
<polygon fill="midnightblue" stroke="midnightblue" points="200.29,-87.92 206.84,-79.6 196.53,-82.02 200.29,-87.92"/>
</g>
<!-- Node34 -->
<g id="node34" class="node">
<title>Node34</title>
<g id="a_node34"><a xlink:href="classdenoptim_1_1graph_1_1_vertex.html#a5dbac662f4102558f3cf874c55174c5e" target="_top" xlink:title=" ">
<polygon fill="white" stroke="black" points="215.5,-0.5 215.5,-30.5 343.5,-30.5 343.5,-0.5 215.5,-0.5"/>
<text text-anchor="start" x="223.5" y="-18.5" font-family="Helvetica,sans-Serif" font-size="10.00">denoptim.graph.Vertex.set</text>
<text text-anchor="middle" x="279.5" y="-7.5" font-family="Helvetica,sans-Serif" font-size="10.00">AsRCV</text>
</a>
</g>
</g>
<!-- Node1&#45;&gt;Node34 -->
<g id="edge39" class="edge">
<title>Node1&#45;&gt;Node34</title>
<path fill="none" stroke="midnightblue" d="M80.42,-347.75C82.79,-304.61 98.24,-129.01 194,-39.5 197.64,-36.1 201.72,-33.18 206.08,-30.66"/>
<polygon fill="midnightblue" stroke="midnightblue" points="207.96,-33.64 215.36,-26.06 204.84,-27.37 207.96,-33.64"/>
</g>
<!-- Node3 -->
<g id="node3" class="node">
<title>Node3</title>
<g id="a_node3"><a xlink:href="classdenoptim_1_1graph_1_1_empty_vertex.html#ade206f06a9a16581bbc22b654d4a2446" target="_top" xlink:title=" ">
<polygon fill="white" stroke="black" points="402.5,-615.5 402.5,-645.5 557.5,-645.5 557.5,-615.5 402.5,-615.5"/>
<text text-anchor="start" x="410.5" y="-633.5" font-family="Helvetica,sans-Serif" font-size="10.00">denoptim.graph.EmptyVertex.get</text>
<text text-anchor="middle" x="480" y="-622.5" font-family="Helvetica,sans-Serif" font-size="10.00">AttachmentPoints</text>
</a>
</g>
</g>
<!-- Node2&#45;&gt;Node3 -->
<g id="edge2" class="edge">
<title>Node2&#45;&gt;Node3</title>
<path fill="none" stroke="midnightblue" d="M365.26,-630.5C374.22,-630.5 383.33,-630.5 392.31,-630.5"/>
<polygon fill="midnightblue" stroke="midnightblue" points="392.38,-634 402.38,-630.5 392.38,-627 392.38,-634"/>
</g>
<!-- Node6 -->
<g id="node6" class="node">
<title>Node6</title>
<g id="a_node6"><a xlink:href="classdenoptim_1_1graph_1_1_d_graph.html#a28d94625c4fae66625b3061f0361e959" target="_top" xlink:title="Checks if a number is already used as VertexIDs within the graph.">
<polygon fill="white" stroke="black" points="600.5,-737.5 600.5,-767.5 757.5,-767.5 757.5,-737.5 600.5,-737.5"/>
<text text-anchor="start" x="608.5" y="-755.5" font-family="Helvetica,sans-Serif" font-size="10.00">denoptim.graph.DGraph.contains</text>
<text text-anchor="middle" x="679" y="-744.5" font-family="Helvetica,sans-Serif" font-size="10.00">VertexID</text>
</a>
</g>
</g>
<!-- Node5&#45;&gt;Node6 -->
<g id="edge5" class="edge">
<title>Node5&#45;&gt;Node6</title>
<path fill="none" stroke="midnightblue" d="M527.84,-583.63C539.35,-589.25 550.73,-596.73 559,-606.5 595.51,-649.66 554.92,-688.63 595,-728.5 595.96,-729.45 596.95,-730.37 597.97,-731.25"/>
<polygon fill="midnightblue" stroke="midnightblue" points="596.22,-734.3 606.38,-737.31 600.32,-728.62 596.22,-734.3"/>
</g>
<!-- Node7 -->
<g id="node7" class="node">
<title>Node7</title>
<g id="a_node7"><a xlink:href="classdenoptim_1_1graph_1_1_d_graph.html#abc9d9eae901e1e868183f8bdaca13aea" target="_top" xlink:title=" ">
<polygon fill="white" stroke="black" points="612,-688.5 612,-718.5 746,-718.5 746,-688.5 612,-688.5"/>
<text text-anchor="start" x="620" y="-706.5" font-family="Helvetica,sans-Serif" font-size="10.00">denoptim.graph.DGraph.get</text>
<text text-anchor="middle" x="679" y="-695.5" font-family="Helvetica,sans-Serif" font-size="10.00">GraphId</text>
</a>
</g>
</g>
<!-- Node5&#45;&gt;Node7 -->
<g id="edge6" class="edge">
<title>Node5&#45;&gt;Node7</title>
<path fill="none" stroke="midnightblue" d="M524.74,-583.65C536.9,-589.4 549.39,-596.94 559,-606.5 584.64,-632.02 567.26,-656.28 595,-679.5 597.53,-681.62 600.24,-683.55 603.08,-685.31"/>
<polygon fill="midnightblue" stroke="midnightblue" points="601.46,-688.42 611.92,-690.1 604.8,-682.26 601.46,-688.42"/>
</g>
<!-- Node8&#45;&gt;Node5 -->
<g id="edge9" class="edge">
<title>Node8&#45;&gt;Node5</title>
<path fill="none" stroke="midnightblue" d="M331.88,-525.51C358.07,-533.16 390.11,-542.53 417.59,-550.56"/>
<polygon fill="midnightblue" stroke="midnightblue" points="416.91,-554.01 427.49,-553.45 418.88,-547.29 416.91,-554.01"/>
</g>
<!-- Node9 -->
<g id="node9" class="node">
<title>Node9</title>
<g id="a_node9"><a xlink:href="classdenoptim_1_1graph_1_1_d_graph.html#aedfe0dc03ea1250a9944fcd30a888fa1" target="_top" xlink:title="Adds the edge to the list of edges belonging to this graph.">
<polygon fill="white" stroke="black" points="401,-508 401,-527 559,-527 559,-508 401,-508"/>
<text text-anchor="middle" x="480" y="-515" font-family="Helvetica,sans-Serif" font-size="10.00">denoptim.graph.DGraph.addEdge</text>
</a>
</g>
</g>
<!-- Node8&#45;&gt;Node9 -->
<g id="edge8" class="edge">
<title>Node8&#45;&gt;Node9</title>
<path fill="none" stroke="midnightblue" d="M355.54,-513.15C367.01,-513.55 378.93,-513.97 390.65,-514.38"/>
<polygon fill="midnightblue" stroke="midnightblue" points="390.76,-517.89 400.87,-514.74 391,-510.89 390.76,-517.89"/>
</g>
<!-- Node11 -->
<g id="node11" class="node">
<title>Node11</title>
<g id="a_node11"><a xlink:href="classdenoptim_1_1fragspace_1_1_fragment_space.html#a13df4c55db0679bb62fb833a91ef38b2" target="_top" xlink:title="Classify a fragment in terms of the number of APs and possibly their type (AP&#45;Class).">
<polygon fill="white" stroke="black" points="407.5,-458.5 407.5,-488.5 552.5,-488.5 552.5,-458.5 407.5,-458.5"/>
<text text-anchor="start" x="415.5" y="-476.5" font-family="Helvetica,sans-Serif" font-size="10.00">denoptim.fragspace.Fragment</text>
<text text-anchor="middle" x="480" y="-465.5" font-family="Helvetica,sans-Serif" font-size="10.00">Space.classifyFragment</text>
</a>
</g>
</g>
<!-- Node10&#45;&gt;Node11 -->
<g id="edge11" class="edge">
<title>Node10&#45;&gt;Node11</title>
<path fill="none" stroke="midnightblue" d="M352.72,-465.87C367.23,-466.74 382.56,-467.67 397.35,-468.56"/>
<polygon fill="midnightblue" stroke="midnightblue" points="397.3,-472.07 407.49,-469.18 397.72,-465.08 397.3,-472.07"/>
</g>
<!-- Node21 -->
<g id="node21" class="node">
<title>Node21</title>
<g id="a_node21"><a xlink:href="classdenoptim_1_1graph_1_1_vertex.html#a867032399d8aad0a894cbf5b51406ac4" target="_top" xlink:title=" ">
<polygon fill="white" stroke="black" points="416,-409.5 416,-439.5 544,-439.5 544,-409.5 416,-409.5"/>
<text text-anchor="start" x="424" y="-427.5" font-family="Helvetica,sans-Serif" font-size="10.00">denoptim.graph.Vertex.set</text>
<text text-anchor="middle" x="480" y="-416.5" font-family="Helvetica,sans-Serif" font-size="10.00">BuildingBlockId</text>
</a>
</g>
</g>
<!-- Node10&#45;&gt;Node21 -->
<g id="edge23" class="edge">
<title>Node10&#45;&gt;Node21</title>
<path fill="none" stroke="midnightblue" d="M352.72,-448.04C369.96,-444.82 388.37,-441.39 405.66,-438.17"/>
<polygon fill="midnightblue" stroke="midnightblue" points="406.5,-441.57 415.69,-436.3 405.22,-434.69 406.5,-441.57"/>
</g>
<!-- Node10&#45;&gt;Node22 -->
<g id="edge24" class="edge">
<title>Node10&#45;&gt;Node22</title>
<path fill="none" stroke="midnightblue" d="M332.79,-446.34C343.77,-442.23 355.04,-437.28 365,-431.5 383.26,-420.9 382.58,-410.82 401,-400.5 404.87,-398.33 408.96,-396.32 413.16,-394.46"/>
<polygon fill="midnightblue" stroke="midnightblue" points="414.55,-397.67 422.46,-390.62 411.88,-391.2 414.55,-397.67"/>
</g>
<!-- Node12 -->
<g id="node12" class="node">
<title>Node12</title>
<g id="a_node12"><a xlink:href="classdenoptim_1_1graph_1_1_vertex.html#a274e9253fa2a75073e7fc14918e54eef" target="_top" xlink:title="Returns the list of all APClasses present on this vertex.">
<polygon fill="white" stroke="black" points="615,-639.5 615,-669.5 743,-669.5 743,-639.5 615,-639.5"/>
<text text-anchor="start" x="623" y="-657.5" font-family="Helvetica,sans-Serif" font-size="10.00">denoptim.graph.Vertex.get</text>
<text text-anchor="middle" x="679" y="-646.5" font-family="Helvetica,sans-Serif" font-size="10.00">AllAPClasses</text>
</a>
</g>
</g>
<!-- Node11&#45;&gt;Node12 -->
<g id="edge12" class="edge">
<title>Node11&#45;&gt;Node12</title>
<path fill="none" stroke="midnightblue" d="M546.18,-488.57C550.88,-491.34 555.24,-494.62 559,-498.5 599.52,-540.33 555.25,-581.93 595,-624.5 598.5,-628.25 602.51,-631.54 606.84,-634.41"/>
<polygon fill="midnightblue" stroke="midnightblue" points="605.08,-637.44 615.48,-639.45 608.6,-631.39 605.08,-637.44"/>
</g>
<!-- Node13 -->
<g id="node13" class="node">
<title>Node13</title>
<g id="a_node13"><a xlink:href="classdenoptim_1_1graph_1_1_vertex.html#a85aa901ec3fff8e566c0cc32d9c9f84e" target="_top" xlink:title=" ">
<polygon fill="white" stroke="black" points="799,-524.5 799,-554.5 927,-554.5 927,-524.5 799,-524.5"/>
<text text-anchor="start" x="807" y="-542.5" font-family="Helvetica,sans-Serif" font-size="10.00">denoptim.graph.Vertex.get</text>
<text text-anchor="middle" x="863" y="-531.5" font-family="Helvetica,sans-Serif" font-size="10.00">AttachmentPoints</text>
</a>
</g>
</g>
<!-- Node11&#45;&gt;Node13 -->
<g id="edge15" class="edge">
<title>Node11&#45;&gt;Node13</title>
<path fill="none" stroke="midnightblue" d="M545.04,-488.53C550.11,-491.31 554.86,-494.6 559,-498.5 591.25,-528.9 558.44,-566.45 595,-591.5 667.73,-641.34 776.39,-590.83 829.88,-559.83"/>
<polygon fill="midnightblue" stroke="midnightblue" points="831.78,-562.77 838.6,-554.66 828.21,-556.75 831.78,-562.77"/>
</g>
<!-- Node14 -->
<g id="node14" class="node">
<title>Node14</title>
<g id="a_node14"><a xlink:href="classdenoptim_1_1graph_1_1_attachment_point.html#a31bed4cb29f6437bf8a888a1dda3fd95" target="_top" xlink:title="Returns the Attachment Point class.">
<polygon fill="white" stroke="black" points="611.5,-551.5 611.5,-581.5 746.5,-581.5 746.5,-551.5 611.5,-551.5"/>
<text text-anchor="start" x="619.5" y="-569.5" font-family="Helvetica,sans-Serif" font-size="10.00">denoptim.graph.Attachment</text>
<text text-anchor="middle" x="679" y="-558.5" font-family="Helvetica,sans-Serif" font-size="10.00">Point.getAPClass</text>
</a>
</g>
</g>
<!-- Node11&#45;&gt;Node14 -->
<g id="edge14" class="edge">
<title>Node11&#45;&gt;Node14</title>
<path fill="none" stroke="midnightblue" d="M540.63,-488.59C547.09,-491.38 553.36,-494.66 559,-498.5 579.89,-512.72 573.91,-528.58 595,-542.5 597.46,-544.13 600.04,-545.64 602.7,-547.06"/>
<polygon fill="midnightblue" stroke="midnightblue" points="601.46,-550.35 611.99,-551.5 604.48,-544.03 601.46,-550.35"/>
</g>
<!-- Node15 -->
<g id="node15" class="node">
<title>Node15</title>
<g id="a_node15"><a xlink:href="classdenoptim_1_1fragspace_1_1_fragment_space.html#ae9d431ee87c4285c7d49d78b90ebe3a6" target="_top" xlink:title="Returns the list of fragments with given number of APs.">
<polygon fill="white" stroke="black" points="606.5,-502.5 606.5,-532.5 751.5,-532.5 751.5,-502.5 606.5,-502.5"/>
<text text-anchor="start" x="614.5" y="-520.5" font-family="Helvetica,sans-Serif" font-size="10.00">denoptim.fragspace.Fragment</text>
<text text-anchor="middle" x="679" y="-509.5" font-family="Helvetica,sans-Serif" font-size="10.00">Space.getFragsWithNumAps</text>
</a>
</g>
</g>
<!-- Node11&#45;&gt;Node15 -->
<g id="edge16" class="edge">
<title>Node11&#45;&gt;Node15</title>
<path fill="none" stroke="midnightblue" d="M548.25,-488.52C565.11,-492.29 583.34,-496.36 600.65,-500.22"/>
<polygon fill="midnightblue" stroke="midnightblue" points="600.2,-503.71 610.72,-502.47 601.73,-496.88 600.2,-503.71"/>
</g>
<!-- Node16 -->
<g id="node16" class="node">
<title>Node16</title>
<g id="a_node16"><a xlink:href="classdenoptim_1_1graph_1_1_vertex.html#ac578a57700de26b2f0ba1fc7470129d0" target="_top" xlink:title=" ">
<polygon fill="white" stroke="black" points="615,-453.5 615,-483.5 743,-483.5 743,-453.5 615,-453.5"/>
<text text-anchor="start" x="623" y="-471.5" font-family="Helvetica,sans-Serif" font-size="10.00">denoptim.graph.Vertex.get</text>
<text text-anchor="middle" x="679" y="-460.5" font-family="Helvetica,sans-Serif" font-size="10.00">FreeAPCount</text>
</a>
</g>
</g>
<!-- Node11&#45;&gt;Node16 -->
<g id="edge17" class="edge">
<title>Node11&#45;&gt;Node16</title>
<path fill="none" stroke="midnightblue" d="M552.68,-471.68C569.53,-471.25 587.52,-470.8 604.46,-470.37"/>
<polygon fill="midnightblue" stroke="midnightblue" points="604.94,-473.86 614.85,-470.1 604.76,-466.86 604.94,-473.86"/>
</g>
<!-- Node17 -->
<g id="node17" class="node">
<title>Node17</title>
<g id="a_node17"><a xlink:href="classdenoptim_1_1fragspace_1_1_fragment_space.html#a3aad125a846731307d56e68cd69b8ae5" target="_top" xlink:title=" ">
<polygon fill="white" stroke="black" points="595.5,-404.5 595.5,-434.5 762.5,-434.5 762.5,-404.5 595.5,-404.5"/>
<text text-anchor="start" x="603.5" y="-422.5" font-family="Helvetica,sans-Serif" font-size="10.00">denoptim.fragspace.Fragment</text>
<text text-anchor="middle" x="679" y="-411.5" font-family="Helvetica,sans-Serif" font-size="10.00">Space.getMapOfFragsPerNumAps</text>
</a>
</g>
</g>
<!-- Node11&#45;&gt;Node17 -->
<g id="edge19" class="edge">
<title>Node11&#45;&gt;Node17</title>
<path fill="none" stroke="midnightblue" d="M535.88,-458.46C559.9,-451.87 588.26,-444.1 613.3,-437.24"/>
<polygon fill="midnightblue" stroke="midnightblue" points="614.36,-440.57 623.08,-434.55 612.51,-433.82 614.36,-440.57"/>
</g>
<!-- Node18 -->
<g id="node18" class="node">
<title>Node18</title>
<g id="a_node18"><a xlink:href="classdenoptim_1_1graph_1_1_attachment_point.html#a77887ce020d49c189b89e049f12b70ba" target="_top" xlink:title="Check availability of this attachment point.">
<polygon fill="white" stroke="black" points="611.5,-355.5 611.5,-385.5 746.5,-385.5 746.5,-355.5 611.5,-355.5"/>
<text text-anchor="start" x="619.5" y="-373.5" font-family="Helvetica,sans-Serif" font-size="10.00">denoptim.graph.Attachment</text>
<text text-anchor="middle" x="679" y="-362.5" font-family="Helvetica,sans-Serif" font-size="10.00">Point.isAvailable</text>
</a>
</g>
</g>
<!-- Node11&#45;&gt;Node18 -->
<g id="edge20" class="edge">
<title>Node11&#45;&gt;Node18</title>
<path fill="none" stroke="midnightblue" d="M543.78,-458.5C549.18,-455.95 554.34,-452.97 559,-449.5 582.12,-432.26 571.82,-412.67 595,-395.5 597.52,-393.63 600.18,-391.91 602.93,-390.31"/>
<polygon fill="midnightblue" stroke="midnightblue" points="604.75,-393.31 612.04,-385.62 601.54,-387.09 604.75,-393.31"/>
</g>
<!-- Node19 -->
<g id="node19" class="node">
<title>Node19</title>
<g id="a_node19"><a xlink:href="classdenoptim_1_1fragspace_1_1_fragment_space.html#a1746f750aa65cefd1ed92ab55e750e63" target="_top" xlink:title="Adds the reference to a ring&#45;closing vertex (RCV) to the quick&#45;access list of RCVs known in this buil...">
<polygon fill="white" stroke="black" points="606.5,-306.5 606.5,-336.5 751.5,-336.5 751.5,-306.5 606.5,-306.5"/>
<text text-anchor="start" x="614.5" y="-324.5" font-family="Helvetica,sans-Serif" font-size="10.00">denoptim.fragspace.Fragment</text>
<text text-anchor="middle" x="679" y="-313.5" font-family="Helvetica,sans-Serif" font-size="10.00">Space.registerRCV</text>
</a>
</g>
</g>
<!-- Node11&#45;&gt;Node19 -->
<g id="edge21" class="edge">
<title>Node11&#45;&gt;Node19</title>
<path fill="none" stroke="midnightblue" d="M547.04,-458.41C551.37,-455.89 555.43,-452.94 559,-449.5 593.93,-415.86 559.97,-380.03 595,-346.5 596.51,-345.06 598.1,-343.7 599.75,-342.41"/>
<polygon fill="midnightblue" stroke="midnightblue" points="602.11,-345.05 608.53,-336.63 598.25,-339.21 602.11,-345.05"/>
</g>
<!-- Node20 -->
<g id="node20" class="node">
<title>Node20</title>
<g id="a_node20"><a xlink:href="classdenoptim_1_1fragspace_1_1_fragment_space.html#a47b278f84db073b1f06809f9c42cfae5" target="_top" xlink:title="Check usage of APClass&#45;based approach, i.e., uses attachment points with annotated data (i....">
<polygon fill="white" stroke="black" points="595,-257.5 595,-287.5 763,-287.5 763,-257.5 595,-257.5"/>
<text text-anchor="start" x="603" y="-275.5" font-family="Helvetica,sans-Serif" font-size="10.00">denoptim.fragspace.Fragment</text>
<text text-anchor="middle" x="679" y="-264.5" font-family="Helvetica,sans-Serif" font-size="10.00">Space.useAPclassBasedApproach</text>
</a>
</g>
</g>
<!-- Node11&#45;&gt;Node20 -->
<g id="edge22" class="edge">
<title>Node11&#45;&gt;Node20</title>
<path fill="none" stroke="midnightblue" d="M548.17,-458.36C552.14,-455.85 555.8,-452.91 559,-449.5 606.45,-398.82 547.4,-348.04 595,-297.5 596.24,-296.18 597.55,-294.93 598.91,-293.75"/>
<polygon fill="midnightblue" stroke="midnightblue" points="601.27,-296.36 607.3,-287.65 597.16,-290.7 601.27,-296.36"/>
</g>
<!-- Node12&#45;&gt;Node13 -->
<g id="edge13" class="edge">
<title>Node12&#45;&gt;Node13</title>
<path fill="none" stroke="midnightblue" d="M730.92,-639.4C741.84,-635.26 753.07,-630.29 763,-624.5 792.45,-607.32 821.49,-580.96 840.42,-562.16"/>
<polygon fill="midnightblue" stroke="midnightblue" points="843.34,-564.18 847.89,-554.61 838.37,-559.25 843.34,-564.18"/>
</g>
<!-- Node16&#45;&gt;Node13 -->
<g id="edge18" class="edge">
<title>Node16&#45;&gt;Node13</title>
<path fill="none" stroke="midnightblue" d="M733.95,-483.53C743.7,-486.59 753.72,-489.97 763,-493.5 783.36,-501.25 805.4,-511.32 823.5,-520.06"/>
<polygon fill="midnightblue" stroke="midnightblue" points="822.06,-523.25 832.58,-524.49 825.13,-516.96 822.06,-523.25"/>
</g>
<!-- Node23&#45;&gt;Node13 -->
<g id="edge26" class="edge">
<title>Node23&#45;&gt;Node13</title>
<path fill="none" stroke="midnightblue" d="M499.28,-269.83C547.53,-245.77 680.31,-189.29 763,-248.5 850.43,-311.11 861.56,-455.46 862.34,-514.07"/>
<polygon fill="midnightblue" stroke="midnightblue" points="858.84,-514.3 862.38,-524.29 865.84,-514.28 858.84,-514.3"/>
</g>
<!-- Node27&#45;&gt;Node27 -->
<g id="edge34" class="edge">
<title>Node27&#45;&gt;Node27</title>
<path fill="none" stroke="midnightblue" d="M248.67,-185.26C233.68,-194.07 243.95,-203.5 279.5,-203.5 304.49,-203.5 316.99,-198.84 317,-193"/>
<polygon fill="midnightblue" stroke="midnightblue" points="319.5,-190.55 310.33,-185.26 314.2,-195.12 319.5,-190.55"/>
</g>
<!-- Node28 -->
<g id="node28" class="node">
<title>Node28</title>
<g id="a_node28"><a xlink:href="classdenoptim_1_1graph_1_1_a_p_class.html#a6981e4878a844276c416f5cd31a80b66" target="_top" xlink:title="Evaluate is a candidate string can be used as APClass.">
<polygon fill="white" stroke="black" points="413.5,-160.5 413.5,-190.5 546.5,-190.5 546.5,-160.5 413.5,-160.5"/>
<text text-anchor="start" x="421.5" y="-178.5" font-family="Helvetica,sans-Serif" font-size="10.00">denoptim.graph.APClass.is</text>
<text text-anchor="middle" x="480" y="-167.5" font-family="Helvetica,sans-Serif" font-size="10.00">ValidAPClassString</text>
</a>
</g>
</g>
<!-- Node27&#45;&gt;Node28 -->
<g id="edge31" class="edge">
<title>Node27&#45;&gt;Node28</title>
<path fill="none" stroke="midnightblue" d="M354.13,-175.5C370.06,-175.5 386.94,-175.5 402.96,-175.5"/>
<polygon fill="midnightblue" stroke="midnightblue" points="403.34,-179 413.34,-175.5 403.34,-172 403.34,-179"/>
</g>
<!-- Node29 -->
<g id="node29" class="node">
<title>Node29</title>
<g id="a_node29"><a xlink:href="classdenoptim_1_1graph_1_1_a_p_class.html#a6ce0fb88cd79a6e154d889496c88455b" target="_top" xlink:title="Evaluates the given string as a candidate attachment point rule, i.e., as name of a fragmentation rul...">
<polygon fill="white" stroke="black" points="612.5,-163.5 612.5,-193.5 745.5,-193.5 745.5,-163.5 612.5,-163.5"/>
<text text-anchor="start" x="620.5" y="-181.5" font-family="Helvetica,sans-Serif" font-size="10.00">denoptim.graph.APClass.is</text>
<text text-anchor="middle" x="679" y="-170.5" font-family="Helvetica,sans-Serif" font-size="10.00">ValidAPRuleString</text>
</a>
</g>
</g>
<!-- Node28&#45;&gt;Node29 -->
<g id="edge32" class="edge">
<title>Node28&#45;&gt;Node29</title>
<path fill="none" stroke="midnightblue" d="M546.6,-176.5C564.45,-176.77 583.92,-177.07 602.28,-177.35"/>
<polygon fill="midnightblue" stroke="midnightblue" points="602.3,-180.85 612.35,-177.5 602.41,-173.85 602.3,-180.85"/>
</g>
<!-- Node30 -->
<g id="node30" class="node">
<title>Node30</title>
<g id="a_node30"><a xlink:href="classdenoptim_1_1graph_1_1_a_p_class.html#ac13faa6d99c5b9c3f89a42f00f4744ea" target="_top" xlink:title="Evaluate the given string as a candidate for attachment point subclass, i.e., the attachment point cl...">
<polygon fill="white" stroke="black" points="612.5,-114.5 612.5,-144.5 745.5,-144.5 745.5,-114.5 612.5,-114.5"/>
<text text-anchor="start" x="620.5" y="-132.5" font-family="Helvetica,sans-Serif" font-size="10.00">denoptim.graph.APClass.is</text>
<text text-anchor="middle" x="679" y="-121.5" font-family="Helvetica,sans-Serif" font-size="10.00">ValidAPSubCLassString</text>
</a>
</g>
</g>
<!-- Node28&#45;&gt;Node30 -->
<g id="edge33" class="edge">
<title>Node28&#45;&gt;Node30</title>
<path fill="none" stroke="midnightblue" d="M545.51,-160.44C564.14,-156.09 584.62,-151.3 603.8,-146.83"/>
<polygon fill="midnightblue" stroke="midnightblue" points="604.74,-150.2 613.69,-144.52 603.15,-143.38 604.74,-150.2"/>
</g>
<!-- Node31&#45;&gt;Node31 -->
<g id="edge37" class="edge">
<title>Node31&#45;&gt;Node31</title>
<path fill="none" stroke="midnightblue" d="M244.65,-128.66C236.24,-138.06 247.86,-147 279.5,-147 298.78,-147 310.63,-143.68 315.04,-138.96"/>
<polygon fill="midnightblue" stroke="midnightblue" points="318.51,-138.41 314.35,-128.66 311.52,-138.87 318.51,-138.41"/>
</g>
<!-- Node32 -->
<g id="node32" class="node">
<title>Node32</title>
<g id="a_node32"><a xlink:href="classdenoptim_1_1utils_1_1_graph_utils.html#aad6245f297edf8a9f100b3949092f3c1" target="_top" xlink:title="Unique counter for the number of graph vertices generated.">
<polygon fill="white" stroke="black" points="409.5,-98.5 409.5,-128.5 550.5,-128.5 550.5,-98.5 409.5,-98.5"/>
<text text-anchor="start" x="417.5" y="-116.5" font-family="Helvetica,sans-Serif" font-size="10.00">denoptim.utils.GraphUtils.get</text>
<text text-anchor="middle" x="480" y="-105.5" font-family="Helvetica,sans-Serif" font-size="10.00">UniqueVertexIndex</text>
</a>
</g>
</g>
<!-- Node31&#45;&gt;Node32 -->
<g id="edge36" class="edge">
<title>Node31&#45;&gt;Node32</title>
<path fill="none" stroke="midnightblue" d="M346.05,-113.5C363.04,-113.5 381.53,-113.5 399.16,-113.5"/>
<polygon fill="midnightblue" stroke="midnightblue" points="399.43,-117 409.43,-113.5 399.43,-110 399.43,-117"/>
</g>
</g>
</svg>
