<?xml version="1.0" encoding="UTF-8" standalone="no"?>
<!DOCTYPE svg PUBLIC "-//W3C//DTD SVG 1.1//EN"
 "http://www.w3.org/Graphics/SVG/1.1/DTD/svg11.dtd">
<!-- Generated by graphviz version 3.0.0 (20221109.1736)
 -->
<!-- Title: denoptim.molecularmodeling.zmatrix.ZMatrixAtom.setType Pages: 1 -->
<svg width="665pt" height="94pt"
 viewBox="0.00 0.00 665.00 93.50" xmlns="http://www.w3.org/2000/svg" xmlns:xlink="http://www.w3.org/1999/xlink">
<g id="graph0" class="graph" transform="scale(1 1) rotate(0) translate(4 89.5)">
<title>denoptim.molecularmodeling.zmatrix.ZMatrixAtom.setType</title>
<polygon fill="white" stroke="transparent" points="-4,4 -4,-89.5 661,-89.5 661,4 -4,4"/>
<!-- Node1 -->
<g id="node1" class="node">
<title>Node1</title>
<g id="a_node1"><a xlink:title="Set the type of the atom.">
<polygon fill="#bfbfbf" stroke="black" points="482,-24.5 482,-54.5 657,-54.5 657,-24.5 482,-24.5"/>
<text text-anchor="start" x="490" y="-42.5" font-family="Helvetica,sans-Serif" font-size="10.00">denoptim.molecularmodeling.zmatrix.</text>
<text text-anchor="middle" x="569.5" y="-31.5" font-family="Helvetica,sans-Serif" font-size="10.00">ZMatrixAtom.setType</text>
</a>
</g>
</g>
<!-- Node2 -->
<g id="node2" class="node">
<title>Node2</title>
<g id="a_node2"><a xlink:href="classdenoptim_1_1integration_1_1tinker_1_1_conformational_search_p_s_s_r_o_t.html#a4e23cd79b91caeac12ba1e801e919b5c" target="_top" xlink:title="Used elemental symbols (ot pseudo&#45;element symbols) to assign atom types.">
<polygon fill="white" stroke="black" points="224,-49.5 224,-79.5 446,-79.5 446,-49.5 224,-49.5"/>
<text text-anchor="start" x="232" y="-67.5" font-family="Helvetica,sans-Serif" font-size="10.00">denoptim.integration.tinker.</text>
<text text-anchor="middle" x="335" y="-56.5" font-family="Helvetica,sans-Serif" font-size="10.00">ConformationalSearchPSSROT.setTinkerTypes</text>
</a>
</g>
</g>
<!-- Node1&#45;&gt;Node2 -->
<g id="edge1" class="edge">
<title>Node1&#45;&gt;Node2</title>
<path fill="none" stroke="midnightblue" d="M471.76,-49.9C463.35,-50.81 454.81,-51.73 446.3,-52.64"/>
<polygon fill="midnightblue" stroke="midnightblue" points="472.36,-53.36 481.93,-48.81 471.61,-46.4 472.36,-53.36"/>
</g>
<!-- Node4 -->
<g id="node4" class="node">
<title>Node4</title>
<g id="a_node4"><a xlink:href="classdenoptim_1_1molecularmodeling_1_1zmatrix_1_1_z_matrix_atom_test.html#ad4d7db05267c3fae2e322ca48ef357f1" target="_top" xlink:title=" ">
<polygon fill="white" stroke="black" points="247.5,-0.5 247.5,-30.5 422.5,-30.5 422.5,-0.5 247.5,-0.5"/>
<text text-anchor="start" x="255.5" y="-18.5" font-family="Helvetica,sans-Serif" font-size="10.00">denoptim.molecularmodeling.zmatrix.</text>
<text text-anchor="middle" x="335" y="-7.5" font-family="Helvetica,sans-Serif" font-size="10.00">ZMatrixAtomTest.testEquals</text>
</a>
</g>
</g>
<!-- Node1&#45;&gt;Node4 -->
<g id="edge3" class="edge">
<title>Node1&#45;&gt;Node4</title>
<path fill="none" stroke="midnightblue" d="M471.85,-29.52C455.53,-27.84 438.69,-26.1 422.65,-24.44"/>
<polygon fill="midnightblue" stroke="midnightblue" points="471.62,-33.02 481.93,-30.56 472.34,-26.05 471.62,-33.02"/>
</g>
<!-- Node3 -->
<g id="node3" class="node">
<title>Node3</title>
<g id="a_node3"><a xlink:href="classdenoptim_1_1integration_1_1tinker_1_1_conformational_search_p_s_s_r_o_t.html#a40d8eeb17fa0eb16f0a92d3a35408c26" target="_top" xlink:title="Performs PSSROT conformational search on the given chemical object.">
<polygon fill="white" stroke="black" points="0,-44 0,-85 188,-85 188,-44 0,-44"/>
<text text-anchor="start" x="8" y="-73" font-family="Helvetica,sans-Serif" font-size="10.00">denoptim.integration.tinker.</text>
<text text-anchor="start" x="8" y="-62" font-family="Helvetica,sans-Serif" font-size="10.00">ConformationalSearchPSSROT.perform</text>
<text text-anchor="middle" x="94" y="-51" font-family="Helvetica,sans-Serif" font-size="10.00">PSSROT</text>
</a>
</g>
</g>
<!-- Node2&#45;&gt;Node3 -->
<g id="edge2" class="edge">
<title>Node2&#45;&gt;Node3</title>
<path fill="none" stroke="midnightblue" d="M213.79,-64.5C205.14,-64.5 196.49,-64.5 188.03,-64.5"/>
<polygon fill="midnightblue" stroke="midnightblue" points="213.94,-68 223.94,-64.5 213.94,-61 213.94,-68"/>
</g>
</g>
</svg>
