<?xml version="1.0" encoding="UTF-8" standalone="no"?>
<!DOCTYPE svg PUBLIC "-//W3C//DTD SVG 1.1//EN"
 "http://www.w3.org/Graphics/SVG/1.1/DTD/svg11.dtd">
<!-- Generated by graphviz version 3.0.0 (20221109.1736)
 -->
<!-- Title: denoptim.graph.Ring.getCloserTo Pages: 1 -->
<svg width="540pt" height="47pt"
 viewBox="0.00 0.00 540.00 47.00" xmlns="http://www.w3.org/2000/svg" xmlns:xlink="http://www.w3.org/1999/xlink">
<g id="graph0" class="graph" transform="scale(1 1) rotate(0) translate(4 43)">
<title>denoptim.graph.Ring.getCloserTo</title>
<polygon fill="white" stroke="transparent" points="-4,4 -4,-43 536,-43 536,4 -4,4"/>
<!-- Node1 -->
<g id="node1" class="node">
<title>Node1</title>
<g id="a_node1"><a xlink:title="Chooses among the two given vertices the one that is closer to the target vertex.">
<polygon fill="#bfbfbf" stroke="black" points="0,-19.5 0,-38.5 159,-38.5 159,-19.5 0,-19.5"/>
<text text-anchor="middle" x="79.5" y="-26.5" font-family="Helvetica,sans-Serif" font-size="10.00">denoptim.graph.Ring.getCloserTo</text>
</a>
</g>
</g>
<!-- Node2 -->
<g id="node2" class="node">
<title>Node2</title>
<g id="a_node2"><a xlink:href="classdenoptim_1_1graph_1_1_ring.html#a52d320207aa3fc73898eb662e8f208cb" target="_top" xlink:title="Checks whether a given vertex is part of this ring.">
<polygon fill="white" stroke="black" points="389,-19.5 389,-38.5 532,-38.5 532,-19.5 389,-19.5"/>
<text text-anchor="middle" x="460.5" y="-26.5" font-family="Helvetica,sans-Serif" font-size="10.00">denoptim.graph.Ring.contains</text>
</a>
</g>
</g>
<!-- Node1&#45;&gt;Node2 -->
<g id="edge1" class="edge">
<title>Node1&#45;&gt;Node2</title>
<path fill="none" stroke="midnightblue" d="M159.03,-29C223.24,-29 313.7,-29 378.56,-29"/>
<polygon fill="midnightblue" stroke="midnightblue" points="378.74,-32.5 388.74,-29 378.74,-25.5 378.74,-32.5"/>
</g>
<!-- Node3 -->
<g id="node3" class="node">
<title>Node3</title>
<g id="a_node3"><a xlink:href="classdenoptim_1_1graph_1_1_ring.html#a5f09bd9ccfc437f70de652e0746d2fe1" target="_top" xlink:title="Measures how many edges there are between two edges along the sequence of vertices that defined this ...">
<polygon fill="white" stroke="black" points="195,-0.5 195,-19.5 353,-19.5 353,-0.5 195,-0.5"/>
<text text-anchor="middle" x="274" y="-7.5" font-family="Helvetica,sans-Serif" font-size="10.00">denoptim.graph.Ring.getDistance</text>
</a>
</g>
</g>
<!-- Node1&#45;&gt;Node3 -->
<g id="edge2" class="edge">
<title>Node1&#45;&gt;Node3</title>
<path fill="none" stroke="midnightblue" d="M159.07,-21.24C167.59,-20.4 176.3,-19.54 184.92,-18.69"/>
<polygon fill="midnightblue" stroke="midnightblue" points="185.38,-22.17 194.99,-17.7 184.69,-15.2 185.38,-22.17"/>
</g>
<!-- Node3&#45;&gt;Node2 -->
<g id="edge3" class="edge">
<title>Node3&#45;&gt;Node2</title>
<path fill="none" stroke="midnightblue" d="M353.24,-18.06C361.62,-18.92 370.16,-19.8 378.57,-20.67"/>
<polygon fill="midnightblue" stroke="midnightblue" points="378.44,-24.17 388.74,-21.71 379.16,-17.21 378.44,-24.17"/>
</g>
</g>
</svg>
