<?xml version="1.0" encoding="UTF-8" standalone="no"?>
<!DOCTYPE svg PUBLIC "-//W3C//DTD SVG 1.1//EN"
 "http://www.w3.org/Graphics/SVG/1.1/DTD/svg11.dtd">
<!-- Generated by graphviz version 3.0.0 (20221109.1736)
 -->
<!-- Title: denoptim.molecularmodeling.zmatrix.ZMatrixAtom.getAngle2Value Pages: 1 -->
<!--zoomable 572 -->
<svg id="main" version="1.1" xmlns="http://www.w3.org/2000/svg" xmlns:xlink="http://www.w3.org/1999/xlink" xml:space="preserve" onload="init(evt)">
<style type="text/css"><![CDATA[
.edge:hover path { stroke: red; }
.edge:hover polygon { stroke: red; fill: red; }
]]></style>
<script type="text/javascript"><![CDATA[
var edges = document.getElementsByTagName('g');
if (edges && edges.length) {
  for (var i=0;i<edges.length;i++) {
    if (edges[i].id.substr(0,4)=='edge') {
      edges[i].setAttribute('class','edge');
    }
  }
}
]]></script>
        <defs>
                <circle id="rim" cx="0" cy="0" r="7"/>
                <circle id="rim2" cx="0" cy="0" r="3.5"/>
                <g id="zoomPlus">
                        <use xlink:href="#rim" fill="#404040">
                                <set attributeName="fill" to="#808080" begin="zoomplus.mouseover" end="zoomplus.mouseout"/>
                        </use>
                        <path d="M-4,0h8M0,-4v8" fill="none" stroke="white" stroke-width="1.5" pointer-events="none"/>
                </g>
                <g id="zoomMin">
                        <use xlink:href="#rim" fill="#404040">
                                <set attributeName="fill" to="#808080" begin="zoomminus.mouseover" end="zoomminus.mouseout"/>
                        </use>
                        <path d="M-4,0h8" fill="none" stroke="white" stroke-width="1.5" pointer-events="none"/>
                </g>
                <g id="dirArrow">
                        <path fill="none" stroke="white" stroke-width="1.5" d="M0,-3.0v7 M-2.5,-0.5L0,-3.0L2.5,-0.5"/>
                </g>
               <g id="resetDef">
                       <use xlink:href="#rim2" fill="#404040">
                               <set attributeName="fill" to="#808080" begin="reset.mouseover" end="reset.mouseout"/>
                       </use>
               </g>
        </defs>

<script type="text/javascript">
var viewWidth = 1129;
var viewHeight = 572;
var sectionId = 'dynsection-5';
</script>
<script xlink:href="svgpan.js"/>
<svg id="graph" class="graph">
<g id="viewport">
<title>denoptim.molecularmodeling.zmatrix.ZMatrixAtom.getAngle2Value</title>
<polygon fill="white" stroke="transparent" points="-4,4 -4,-568 1125,-568 1125,4 -4,4"/>
<!-- Node1 -->
<g id="node1" class="node">
<title>Node1</title>
<g id="a_node1"><a xlink:title="Get the angle2 value.">
<polygon fill="#bfbfbf" stroke="black" points="946,-333 946,-363 1121,-363 1121,-333 946,-333"/>
<text text-anchor="start" x="954" y="-351" font-family="Helvetica,sans-Serif" font-size="10.00">denoptim.molecularmodeling.zmatrix.</text>
<text text-anchor="middle" x="1033.5" y="-340" font-family="Helvetica,sans-Serif" font-size="10.00">ZMatrixAtom.getAngle2Value</text>
</a>
</g>
</g>
<!-- Node2 -->
<g id="node2" class="node">
<title>Node2</title>
<g id="a_node2"><a xlink:href="classdenoptim_1_1molecularmodeling_1_1zmatrix_1_1_z_matrix.html#ab68f5e7ba31b07caeedf4580e04a8399" target="_top" xlink:title="Get the angle2 angle for the atom at the given index.">
<polygon fill="white" stroke="black" points="728.5,-360 728.5,-390 903.5,-390 903.5,-360 728.5,-360"/>
<text text-anchor="start" x="736.5" y="-378" font-family="Helvetica,sans-Serif" font-size="10.00">denoptim.molecularmodeling.zmatrix.</text>
<text text-anchor="middle" x="816" y="-367" font-family="Helvetica,sans-Serif" font-size="10.00">ZMatrix.getAngle2Value</text>
</a>
</g>
</g>
<!-- Node1&#45;&gt;Node2 -->
<g id="edge1" class="edge">
<title>Node1&#45;&gt;Node2</title>
<path fill="none" stroke="midnightblue" d="M935.6,-360.14C924.91,-361.48 914.09,-362.84 903.54,-364.16"/>
<polygon fill="midnightblue" stroke="midnightblue" points="936.29,-363.58 945.78,-358.87 935.42,-356.64 936.29,-363.58"/>
</g>
<!-- Node16 -->
<g id="node16" class="node">
<title>Node16</title>
<g id="a_node16"><a xlink:href="classdenoptim_1_1integration_1_1tinker_1_1_conformational_search_p_s_s_r_o_t.html#a40d8eeb17fa0eb16f0a92d3a35408c26" target="_top" xlink:title="Performs PSSROT conformational search on the given chemical object.">
<polygon fill="white" stroke="black" points="722,-300.5 722,-341.5 910,-341.5 910,-300.5 722,-300.5"/>
<text text-anchor="start" x="730" y="-329.5" font-family="Helvetica,sans-Serif" font-size="10.00">denoptim.integration.tinker.</text>
<text text-anchor="start" x="730" y="-318.5" font-family="Helvetica,sans-Serif" font-size="10.00">ConformationalSearchPSSROT.perform</text>
<text text-anchor="middle" x="816" y="-307.5" font-family="Helvetica,sans-Serif" font-size="10.00">PSSROT</text>
</a>
</g>
</g>
<!-- Node1&#45;&gt;Node16 -->
<g id="edge15" class="edge">
<title>Node1&#45;&gt;Node16</title>
<path fill="none" stroke="midnightblue" d="M935.84,-335.89C927.33,-334.82 918.72,-333.75 910.24,-332.68"/>
<polygon fill="midnightblue" stroke="midnightblue" points="935.42,-339.36 945.78,-337.13 936.29,-332.42 935.42,-339.36"/>
</g>
<!-- Node3 -->
<g id="node3" class="node">
<title>Node3</title>
<g id="a_node3"><a xlink:href="classdenoptim_1_1integration_1_1rcoserver_1_1_r_c_o_socket_server_client.html#ad1c10c7e111ab08c00ff76db47bfab38" target="_top" xlink:title="Gets a JsonArray representation of the Z&#45;matrix.">
<polygon fill="white" stroke="black" points="494,-468.5 494,-509.5 676,-509.5 676,-468.5 494,-468.5"/>
<text text-anchor="start" x="502" y="-497.5" font-family="Helvetica,sans-Serif" font-size="10.00">denoptim.integration.rcoserver.</text>
<text text-anchor="start" x="502" y="-486.5" font-family="Helvetica,sans-Serif" font-size="10.00">RCOSocketServerClient.getZMatrixAs</text>
<text text-anchor="middle" x="585" y="-475.5" font-family="Helvetica,sans-Serif" font-size="10.00">JsonArray</text>
</a>
</g>
</g>
<!-- Node2&#45;&gt;Node3 -->
<g id="edge2" class="edge">
<title>Node2&#45;&gt;Node3</title>
<path fill="none" stroke="midnightblue" d="M775.63,-394.6C734.27,-415.19 669.5,-447.43 627.4,-468.39"/>
<polygon fill="midnightblue" stroke="midnightblue" points="777.2,-397.73 784.59,-390.14 774.08,-391.46 777.2,-397.73"/>
</g>
<!-- Node7 -->
<g id="node7" class="node">
<title>Node7</title>
<g id="a_node7"><a xlink:href="classdenoptim_1_1molecularmodeling_1_1_chemical_object_model.html#ab0a2952925cf318fa872e349dd2709ae" target="_top" xlink:title="Converts currently loaded internal coordinates into Cartesian overwriting the current XYZ.">
<polygon fill="white" stroke="black" points="484,-246 484,-276 686,-276 686,-246 484,-246"/>
<text text-anchor="start" x="492" y="-264" font-family="Helvetica,sans-Serif" font-size="10.00">denoptim.molecularmodeling.</text>
<text text-anchor="middle" x="585" y="-253" font-family="Helvetica,sans-Serif" font-size="10.00">ChemicalObjectModel.updateXYZFromINT</text>
</a>
</g>
</g>
<!-- Node2&#45;&gt;Node7 -->
<g id="edge6" class="edge">
<title>Node2&#45;&gt;Node7</title>
<path fill="none" stroke="midnightblue" d="M736.45,-356.75C731.5,-354.98 726.64,-353.07 722,-351 676.73,-330.86 629.8,-296.2 604.63,-276.28"/>
<polygon fill="midnightblue" stroke="midnightblue" points="735.46,-360.11 746.05,-359.97 737.69,-353.47 735.46,-360.11"/>
</g>
<!-- Node4 -->
<g id="node4" class="node">
<title>Node4</title>
<g id="a_node4"><a xlink:href="classdenoptim_1_1integration_1_1rcoserver_1_1_r_c_o_socket_server_client.html#af260b4786b039bdd434edb966ecb91d8" target="_top" xlink:title="Formulates the request to be sent to the socket server.">
<polygon fill="white" stroke="black" points="243.5,-528 243.5,-558 443.5,-558 443.5,-528 243.5,-528"/>
<text text-anchor="start" x="251.5" y="-546" font-family="Helvetica,sans-Serif" font-size="10.00">denoptim.integration.rcoserver.</text>
<text text-anchor="middle" x="343.5" y="-535" font-family="Helvetica,sans-Serif" font-size="10.00">RCOSocketServerClient.formulateRequest</text>
</a>
</g>
</g>
<!-- Node3&#45;&gt;Node4 -->
<g id="edge3" class="edge">
<title>Node3&#45;&gt;Node4</title>
<path fill="none" stroke="midnightblue" d="M483.74,-511.61C459.23,-517.13 433.59,-522.91 411.1,-527.98"/>
<polygon fill="midnightblue" stroke="midnightblue" points="484.81,-514.95 493.8,-509.34 483.27,-508.12 484.81,-514.95"/>
</g>
<!-- Node6 -->
<g id="node6" class="node">
<title>Node6</title>
<g id="a_node6"><a xlink:href="classdenoptim_1_1integration_1_1rcoserver_1_1_r_c_o_socket_server_client_test.html#a1e0e80a90cc79511551c8705cb757e42" target="_top" xlink:title=" ">
<polygon fill="white" stroke="black" points="239.5,-468.5 239.5,-509.5 447.5,-509.5 447.5,-468.5 239.5,-468.5"/>
<text text-anchor="start" x="247.5" y="-497.5" font-family="Helvetica,sans-Serif" font-size="10.00">denoptim.integration.rcoserver.</text>
<text text-anchor="start" x="247.5" y="-486.5" font-family="Helvetica,sans-Serif" font-size="10.00">RCOSocketServerClientTest.testGetZMatrix</text>
<text text-anchor="middle" x="343.5" y="-475.5" font-family="Helvetica,sans-Serif" font-size="10.00">AsJsonArray</text>
</a>
</g>
</g>
<!-- Node3&#45;&gt;Node6 -->
<g id="edge5" class="edge">
<title>Node3&#45;&gt;Node6</title>
<path fill="none" stroke="midnightblue" d="M483.52,-489C471.74,-489 459.71,-489 447.89,-489"/>
<polygon fill="midnightblue" stroke="midnightblue" points="483.8,-492.5 493.8,-489 483.8,-485.5 483.8,-492.5"/>
</g>
<!-- Node5 -->
<g id="node5" class="node">
<title>Node5</title>
<g id="a_node5"><a xlink:href="classdenoptim_1_1integration_1_1rcoserver_1_1_r_c_o_socket_server_client.html#af040644747c1ffdfd22c8095f6dfe992" target="_top" xlink:title="Runs a conformational optimization using the services provided by the socket server configured for th...">
<polygon fill="white" stroke="black" points="0,-522.5 0,-563.5 203,-563.5 203,-522.5 0,-522.5"/>
<text text-anchor="start" x="8" y="-551.5" font-family="Helvetica,sans-Serif" font-size="10.00">denoptim.integration.rcoserver.</text>
<text text-anchor="start" x="8" y="-540.5" font-family="Helvetica,sans-Serif" font-size="10.00">RCOSocketServerClient.runConformational</text>
<text text-anchor="middle" x="101.5" y="-529.5" font-family="Helvetica,sans-Serif" font-size="10.00">Optimization</text>
</a>
</g>
</g>
<!-- Node4&#45;&gt;Node5 -->
<g id="edge4" class="edge">
<title>Node4&#45;&gt;Node5</title>
<path fill="none" stroke="midnightblue" d="M233.47,-543C223.39,-543 213.21,-543 203.21,-543"/>
<polygon fill="midnightblue" stroke="midnightblue" points="233.5,-546.5 243.5,-543 233.5,-539.5 233.5,-546.5"/>
</g>
<!-- Node8 -->
<g id="node8" class="node">
<title>Node8</title>
<g id="a_node8"><a xlink:href="classdenoptim_1_1molecularmodeling_1_1_chemical_object_model.html#a5b6a2d27491b6dcf3d6a7d5910bd9c8b" target="_top" xlink:title="Constructs a Molecule3DBuilder specifying all its features.">
<polygon fill="white" stroke="black" points="239,-420 239,-450 448,-450 448,-420 239,-420"/>
<text text-anchor="start" x="247" y="-438" font-family="Helvetica,sans-Serif" font-size="10.00">denoptim.molecularmodeling.</text>
<text text-anchor="middle" x="343.5" y="-427" font-family="Helvetica,sans-Serif" font-size="10.00">ChemicalObjectModel.ChemicalObjectModel</text>
</a>
</g>
</g>
<!-- Node7&#45;&gt;Node8 -->
<g id="edge7" class="edge">
<title>Node7&#45;&gt;Node8</title>
<path fill="none" stroke="midnightblue" d="M569.27,-284.81C547.21,-318.39 502.3,-379.1 448,-411 442.12,-414.46 435.77,-417.42 429.22,-419.95"/>
<polygon fill="midnightblue" stroke="midnightblue" points="572.41,-286.41 574.88,-276.11 566.52,-282.62 572.41,-286.41"/>
</g>
<!-- Node9 -->
<g id="node9" class="node">
<title>Node9</title>
<g id="a_node9"><a xlink:href="classdenoptim_1_1molecularmodeling_1_1_chemical_object_model_test.html#abc0a13511805e3a3762c00f95f7427de" target="_top" xlink:title=" ">
<polygon fill="white" stroke="black" points="252.5,-360.5 252.5,-401.5 434.5,-401.5 434.5,-360.5 252.5,-360.5"/>
<text text-anchor="start" x="260.5" y="-389.5" font-family="Helvetica,sans-Serif" font-size="10.00">denoptim.molecularmodeling.</text>
<text text-anchor="start" x="260.5" y="-378.5" font-family="Helvetica,sans-Serif" font-size="10.00">ChemicalObjectModelTest.testUpdate</text>
<text text-anchor="middle" x="343.5" y="-367.5" font-family="Helvetica,sans-Serif" font-size="10.00">XYZFromINT</text>
</a>
</g>
</g>
<!-- Node7&#45;&gt;Node9 -->
<g id="edge8" class="edge">
<title>Node7&#45;&gt;Node9</title>
<path fill="none" stroke="midnightblue" d="M557.27,-282.25C530.84,-302.37 488.58,-332.23 448,-351 440.53,-354.46 432.57,-357.61 424.51,-360.47"/>
<polygon fill="midnightblue" stroke="midnightblue" points="559.49,-284.96 565.28,-276.08 555.22,-279.41 559.49,-284.96"/>
</g>
<!-- Node10 -->
<g id="node10" class="node">
<title>Node10</title>
<g id="a_node10"><a xlink:href="classdenoptim_1_1molecularmodeling_1_1_chemical_object_model_test.html#a991182ec86fd53cd373d3359a9c92373" target="_top" xlink:title=" ">
<polygon fill="white" stroke="black" points="252.5,-300.5 252.5,-341.5 434.5,-341.5 434.5,-300.5 252.5,-300.5"/>
<text text-anchor="start" x="260.5" y="-329.5" font-family="Helvetica,sans-Serif" font-size="10.00">denoptim.molecularmodeling.</text>
<text text-anchor="start" x="260.5" y="-318.5" font-family="Helvetica,sans-Serif" font-size="10.00">ChemicalObjectModelTest.testUpdate</text>
<text text-anchor="middle" x="343.5" y="-307.5" font-family="Helvetica,sans-Serif" font-size="10.00">XYZFromINT_ChiralityMinusOne</text>
</a>
</g>
</g>
<!-- Node7&#45;&gt;Node10 -->
<g id="edge9" class="edge">
<title>Node7&#45;&gt;Node10</title>
<path fill="none" stroke="midnightblue" d="M513.97,-278.54C486.53,-285.42 454.86,-293.35 426.37,-300.49"/>
<polygon fill="midnightblue" stroke="midnightblue" points="515.02,-281.89 523.87,-276.06 513.32,-275.1 515.02,-281.89"/>
</g>
<!-- Node11 -->
<g id="node11" class="node">
<title>Node11</title>
<g id="a_node11"><a xlink:href="classdenoptim_1_1molecularmodeling_1_1_chemical_object_model_test.html#a419ebc591b27f69c2eef988bbfa30034" target="_top" xlink:title=" ">
<polygon fill="white" stroke="black" points="252.5,-240.5 252.5,-281.5 434.5,-281.5 434.5,-240.5 252.5,-240.5"/>
<text text-anchor="start" x="260.5" y="-269.5" font-family="Helvetica,sans-Serif" font-size="10.00">denoptim.molecularmodeling.</text>
<text text-anchor="start" x="260.5" y="-258.5" font-family="Helvetica,sans-Serif" font-size="10.00">ChemicalObjectModelTest.testUpdate</text>
<text text-anchor="middle" x="343.5" y="-247.5" font-family="Helvetica,sans-Serif" font-size="10.00">XYZFromINT_ChiralityOne</text>
</a>
</g>
</g>
<!-- Node7&#45;&gt;Node11 -->
<g id="edge10" class="edge">
<title>Node7&#45;&gt;Node11</title>
<path fill="none" stroke="midnightblue" d="M473.46,-261C460.5,-261 447.38,-261 434.74,-261"/>
<polygon fill="midnightblue" stroke="midnightblue" points="473.82,-264.5 483.82,-261 473.82,-257.5 473.82,-264.5"/>
</g>
<!-- Node12 -->
<g id="node12" class="node">
<title>Node12</title>
<g id="a_node12"><a xlink:href="classdenoptim_1_1molecularmodeling_1_1_chemical_object_model_test.html#a3b3e26d79f2d7cccd68c6bb2fa7143cb" target="_top" xlink:title=" ">
<polygon fill="white" stroke="black" points="252.5,-180.5 252.5,-221.5 434.5,-221.5 434.5,-180.5 252.5,-180.5"/>
<text text-anchor="start" x="260.5" y="-209.5" font-family="Helvetica,sans-Serif" font-size="10.00">denoptim.molecularmodeling.</text>
<text text-anchor="start" x="260.5" y="-198.5" font-family="Helvetica,sans-Serif" font-size="10.00">ChemicalObjectModelTest.testUpdate</text>
<text text-anchor="middle" x="343.5" y="-187.5" font-family="Helvetica,sans-Serif" font-size="10.00">XYZFromINT_FirstAtomAtOrigin</text>
</a>
</g>
</g>
<!-- Node7&#45;&gt;Node12 -->
<g id="edge11" class="edge">
<title>Node7&#45;&gt;Node12</title>
<path fill="none" stroke="midnightblue" d="M513.97,-243.46C486.53,-236.58 454.86,-228.65 426.37,-221.51"/>
<polygon fill="midnightblue" stroke="midnightblue" points="513.32,-246.9 523.87,-245.94 515.02,-240.11 513.32,-246.9"/>
</g>
<!-- Node13 -->
<g id="node13" class="node">
<title>Node13</title>
<g id="a_node13"><a xlink:href="classdenoptim_1_1molecularmodeling_1_1_chemical_object_model_test.html#a0bde13c1170d9e7983b0a40db875cecb" target="_top" xlink:title=" ">
<polygon fill="white" stroke="black" points="250.5,-120.5 250.5,-161.5 436.5,-161.5 436.5,-120.5 250.5,-120.5"/>
<text text-anchor="start" x="258.5" y="-149.5" font-family="Helvetica,sans-Serif" font-size="10.00">denoptim.molecularmodeling.</text>
<text text-anchor="start" x="258.5" y="-138.5" font-family="Helvetica,sans-Serif" font-size="10.00">ChemicalObjectModelTest.testUpdate</text>
<text text-anchor="middle" x="343.5" y="-127.5" font-family="Helvetica,sans-Serif" font-size="10.00">XYZFromINT_FourthAtomWithDihedral</text>
</a>
</g>
</g>
<!-- Node7&#45;&gt;Node13 -->
<g id="edge12" class="edge">
<title>Node7&#45;&gt;Node13</title>
<path fill="none" stroke="midnightblue" d="M557.27,-239.75C530.84,-219.63 488.58,-189.77 448,-171 440.53,-167.54 432.57,-164.39 424.51,-161.53"/>
<polygon fill="midnightblue" stroke="midnightblue" points="555.22,-242.59 565.28,-245.92 559.49,-237.04 555.22,-242.59"/>
</g>
<!-- Node14 -->
<g id="node14" class="node">
<title>Node14</title>
<g id="a_node14"><a xlink:href="classdenoptim_1_1molecularmodeling_1_1_chemical_object_model_test.html#a4b1c2991fa23f24226f266e7914a62b4" target="_top" xlink:title=" ">
<polygon fill="white" stroke="black" points="250.5,-60.5 250.5,-101.5 436.5,-101.5 436.5,-60.5 250.5,-60.5"/>
<text text-anchor="start" x="258.5" y="-89.5" font-family="Helvetica,sans-Serif" font-size="10.00">denoptim.molecularmodeling.</text>
<text text-anchor="start" x="258.5" y="-78.5" font-family="Helvetica,sans-Serif" font-size="10.00">ChemicalObjectModelTest.testUpdate</text>
<text text-anchor="middle" x="343.5" y="-67.5" font-family="Helvetica,sans-Serif" font-size="10.00">XYZFromINT_SecondAtomAlongZAxis</text>
</a>
</g>
</g>
<!-- Node7&#45;&gt;Node14 -->
<g id="edge13" class="edge">
<title>Node7&#45;&gt;Node14</title>
<path fill="none" stroke="midnightblue" d="M568.69,-237.08C546.21,-203.88 501.14,-144.19 448,-111 442.37,-107.48 436.31,-104.36 430.04,-101.6"/>
<polygon fill="midnightblue" stroke="midnightblue" points="565.97,-239.3 574.42,-245.69 571.8,-235.43 565.97,-239.3"/>
</g>
<!-- Node15 -->
<g id="node15" class="node">
<title>Node15</title>
<g id="a_node15"><a xlink:href="classdenoptim_1_1molecularmodeling_1_1_chemical_object_model_test.html#a671cec65638eb9e1b2c514b9ce821e8d" target="_top" xlink:title=" ">
<polygon fill="white" stroke="black" points="252.5,-0.5 252.5,-41.5 434.5,-41.5 434.5,-0.5 252.5,-0.5"/>
<text text-anchor="start" x="260.5" y="-29.5" font-family="Helvetica,sans-Serif" font-size="10.00">denoptim.molecularmodeling.</text>
<text text-anchor="start" x="260.5" y="-18.5" font-family="Helvetica,sans-Serif" font-size="10.00">ChemicalObjectModelTest.testUpdate</text>
<text text-anchor="middle" x="343.5" y="-7.5" font-family="Helvetica,sans-Serif" font-size="10.00">XYZFromINT_ThirdAtomWithAngle</text>
</a>
</g>
</g>
<!-- Node7&#45;&gt;Node15 -->
<g id="edge14" class="edge">
<title>Node7&#45;&gt;Node15</title>
<path fill="none" stroke="midnightblue" d="M574.93,-236.59C557.36,-192.69 514.47,-100.4 448,-51 443.19,-47.43 437.97,-44.28 432.52,-41.51"/>
<polygon fill="midnightblue" stroke="midnightblue" points="571.68,-237.88 578.57,-245.92 578.2,-235.34 571.68,-237.88"/>
</g>
</g>
</svg>
        <g id="navigator" transform="translate(0 0)" fill="#404254">
                <rect fill="#f2f5e9" fill-opacity="0.5" stroke="#606060" stroke-width=".5" x="0" y="0" width="60" height="60"/>
                <use id="zoomplus" xlink:href="#zoomPlus" x="17" y="9" onmousedown="handleZoom(evt,'in')"/>
                <use id="zoomminus" xlink:href="#zoomMin" x="42" y="9" onmousedown="handleZoom(evt,'out')"/>
                <use id="reset" xlink:href="#resetDef" x="30" y="36" onmousedown="handleReset()"/>
                <g id="arrowUp" xlink:href="#dirArrow" transform="translate(30 24)" onmousedown="handlePan(0,-1)">
                  <use xlink:href="#rim" fill="#404040">
                        <set attributeName="fill" to="#808080" begin="arrowUp.mouseover" end="arrowUp.mouseout"/>
                  </use>
                  <path fill="none" stroke="white" stroke-width="1.5" d="M0,-3.0v7 M-2.5,-0.5L0,-3.0L2.5,-0.5"/>
                </g>
                <g id="arrowRight" xlink:href="#dirArrow" transform="rotate(90) translate(36 -43)" onmousedown="handlePan(1,0)">
                  <use xlink:href="#rim" fill="#404040">
                        <set attributeName="fill" to="#808080" begin="arrowRight.mouseover" end="arrowRight.mouseout"/>
                  </use>
                  <path fill="none" stroke="white" stroke-width="1.5" d="M0,-3.0v7 M-2.5,-0.5L0,-3.0L2.5,-0.5"/>
                </g>
                <g id="arrowDown" xlink:href="#dirArrow" transform="rotate(180) translate(-30 -48)" onmousedown="handlePan(0,1)">
                  <use xlink:href="#rim" fill="#404040">
                        <set attributeName="fill" to="#808080" begin="arrowDown.mouseover" end="arrowDown.mouseout"/>
                  </use>
                  <path fill="none" stroke="white" stroke-width="1.5" d="M0,-3.0v7 M-2.5,-0.5L0,-3.0L2.5,-0.5"/>
                </g>
                <g id="arrowLeft" xlink:href="#dirArrow" transform="rotate(270) translate(-36 17)" onmousedown="handlePan(-1,0)">
                  <use xlink:href="#rim" fill="#404040">
                        <set attributeName="fill" to="#808080" begin="arrowLeft.mouseover" end="arrowLeft.mouseout"/>
                  </use>
                  <path fill="none" stroke="white" stroke-width="1.5" d="M0,-3.0v7 M-2.5,-0.5L0,-3.0L2.5,-0.5"/>
                </g>
        </g>
        <svg viewBox="0 0 15 15" width="100%" height="30px" preserveAspectRatio="xMaxYMin meet">
         <g id="arrow_out" transform="scale(0.3 0.3)">
          <a xlink:href="classdenoptim_1_1molecularmodeling_1_1zmatrix_1_1_z_matrix_atom_a0dceefc682db1e438739612d8cfee5bf_icgraph_org.svg" target="_base">
           <rect id="button" ry="5" rx="5" y="6" x="6" height="38" width="38"
                fill="#f2f5e9" fill-opacity="0.5" stroke="#606060" stroke-width="1.0"/>
           <path id="arrow"
             d="M 11.500037,31.436501 C 11.940474,20.09759 22.043105,11.32322 32.158766,21.979434 L 37.068811,17.246167 C 37.068811,17.246167 37.088388,32 37.088388,32 L 22.160133,31.978069 C 22.160133,31.978069 26.997745,27.140456 26.997745,27.140456 C 18.528582,18.264221 13.291696,25.230495 11.500037,31.436501 z"
             style="fill:#404040;"/>
          </a>
         </g>
        </svg>
</svg>
