<?xml version="1.0" encoding="UTF-8" standalone="no"?>
<!DOCTYPE svg PUBLIC "-//W3C//DTD SVG 1.1//EN"
 "http://www.w3.org/Graphics/SVG/1.1/DTD/svg11.dtd">
<!-- Generated by graphviz version 3.0.0 (20221109.1736)
 -->
<!-- Title: denoptim.ga.EAUtils.getGrowthByLevelProbability Pages: 1 -->
<svg width="609pt" height="246pt"
 viewBox="0.00 0.00 609.00 245.50" xmlns="http://www.w3.org/2000/svg" xmlns:xlink="http://www.w3.org/1999/xlink">
<g id="graph0" class="graph" transform="scale(1 1) rotate(0) translate(4 241.5)">
<title>denoptim.ga.EAUtils.getGrowthByLevelProbability</title>
<polygon fill="white" stroke="transparent" points="-4,4 -4,-241.5 605,-241.5 605,4 -4,4"/>
<!-- Node1 -->
<g id="node1" class="node">
<title>Node1</title>
<g id="a_node1"><a xlink:title="Calculates the probability of adding a fragment to the given level.">
<polygon fill="#bfbfbf" stroke="black" points="0,-109 0,-139 152,-139 152,-109 0,-109"/>
<text text-anchor="start" x="8" y="-127" font-family="Helvetica,sans-Serif" font-size="10.00">denoptim.ga.EAUtils.getGrowth</text>
<text text-anchor="middle" x="76" y="-116" font-family="Helvetica,sans-Serif" font-size="10.00">ByLevelProbability</text>
</a>
</g>
</g>
<!-- Node2 -->
<g id="node2" class="node">
<title>Node2</title>
<g id="a_node2"><a xlink:href="classdenoptim_1_1programs_1_1denovo_1_1_g_a_parameters.html#a38e8b050f61dae2cb366384b26fa0252" target="_top" xlink:title=" ">
<polygon fill="white" stroke="black" points="188,-207 188,-237 400,-237 400,-207 188,-207"/>
<text text-anchor="start" x="196" y="-225" font-family="Helvetica,sans-Serif" font-size="10.00">denoptim.programs.denovo.</text>
<text text-anchor="middle" x="294" y="-214" font-family="Helvetica,sans-Serif" font-size="10.00">GAParameters.getGrowthFactorMiddleSigma</text>
</a>
</g>
</g>
<!-- Node1&#45;&gt;Node2 -->
<g id="edge1" class="edge">
<title>Node1&#45;&gt;Node2</title>
<path fill="none" stroke="midnightblue" d="M95.04,-139.07C116.06,-155.88 152.47,-182.71 188,-198 192.99,-200.15 198.2,-202.12 203.52,-203.92"/>
<polygon fill="midnightblue" stroke="midnightblue" points="202.59,-207.3 213.18,-206.99 204.71,-200.63 202.59,-207.3"/>
</g>
<!-- Node3 -->
<g id="node3" class="node">
<title>Node3</title>
<g id="a_node3"><a xlink:href="classdenoptim_1_1programs_1_1denovo_1_1_g_a_parameters.html#a928391931ce90bc30161a16e0a40ded4" target="_top" xlink:title=" ">
<polygon fill="white" stroke="black" points="189.5,-158 189.5,-188 398.5,-188 398.5,-158 189.5,-158"/>
<text text-anchor="start" x="197.5" y="-176" font-family="Helvetica,sans-Serif" font-size="10.00">denoptim.programs.denovo.</text>
<text text-anchor="middle" x="294" y="-165" font-family="Helvetica,sans-Serif" font-size="10.00">GAParameters.getGrowthFactorSteepSigma</text>
</a>
</g>
</g>
<!-- Node1&#45;&gt;Node3 -->
<g id="edge2" class="edge">
<title>Node1&#45;&gt;Node3</title>
<path fill="none" stroke="midnightblue" d="M143.28,-139.03C166.6,-144.33 192.99,-150.31 217.05,-155.77"/>
<polygon fill="midnightblue" stroke="midnightblue" points="216.32,-159.19 226.85,-157.99 217.87,-152.37 216.32,-159.19"/>
</g>
<!-- Node4 -->
<g id="node4" class="node">
<title>Node4</title>
<g id="a_node4"><a xlink:href="classdenoptim_1_1programs_1_1denovo_1_1_g_a_parameters.html#aeeef2d956e04772f9af6778108d6bf46" target="_top" xlink:title=" ">
<polygon fill="white" stroke="black" points="210.5,-109 210.5,-139 377.5,-139 377.5,-109 210.5,-109"/>
<text text-anchor="start" x="218.5" y="-127" font-family="Helvetica,sans-Serif" font-size="10.00">denoptim.programs.denovo.</text>
<text text-anchor="middle" x="294" y="-116" font-family="Helvetica,sans-Serif" font-size="10.00">GAParameters.getGrowthMultiplier</text>
</a>
</g>
</g>
<!-- Node1&#45;&gt;Node4 -->
<g id="edge3" class="edge">
<title>Node1&#45;&gt;Node4</title>
<path fill="none" stroke="midnightblue" d="M152.24,-124C167.62,-124 183.98,-124 199.9,-124"/>
<polygon fill="midnightblue" stroke="midnightblue" points="200.29,-127.5 210.29,-124 200.29,-120.5 200.29,-127.5"/>
</g>
<!-- Node5 -->
<g id="node5" class="node">
<title>Node5</title>
<g id="a_node5"><a xlink:href="classdenoptim_1_1ga_1_1_e_a_utils.html#a3dc8bf41035f263b397e14655edc1db3" target="_top" xlink:title="Calculates the probability of adding a fragment to the given level.">
<polygon fill="white" stroke="black" points="218,-60 218,-90 370,-90 370,-60 218,-60"/>
<text text-anchor="start" x="226" y="-78" font-family="Helvetica,sans-Serif" font-size="10.00">denoptim.ga.EAUtils.getGrowth</text>
<text text-anchor="middle" x="294" y="-67" font-family="Helvetica,sans-Serif" font-size="10.00">ProbabilityAtLevel</text>
</a>
</g>
</g>
<!-- Node1&#45;&gt;Node5 -->
<g id="edge4" class="edge">
<title>Node1&#45;&gt;Node5</title>
<path fill="none" stroke="midnightblue" d="M143.28,-108.97C166.6,-103.67 192.99,-97.69 217.05,-92.23"/>
<polygon fill="midnightblue" stroke="midnightblue" points="217.87,-95.63 226.85,-90.01 216.32,-88.81 217.87,-95.63"/>
</g>
<!-- Node7 -->
<g id="node7" class="node">
<title>Node7</title>
<g id="a_node7"><a xlink:href="classdenoptim_1_1programs_1_1denovo_1_1_g_a_parameters.html#ae82df5bd17d3a0965377240043910608" target="_top" xlink:title=" ">
<polygon fill="white" stroke="black" points="207.5,-0.5 207.5,-41.5 380.5,-41.5 380.5,-0.5 207.5,-0.5"/>
<text text-anchor="start" x="215.5" y="-29.5" font-family="Helvetica,sans-Serif" font-size="10.00">denoptim.programs.denovo.</text>
<text text-anchor="start" x="215.5" y="-18.5" font-family="Helvetica,sans-Serif" font-size="10.00">GAParameters.getGrowthProbability</text>
<text text-anchor="middle" x="294" y="-7.5" font-family="Helvetica,sans-Serif" font-size="10.00">Scheme</text>
</a>
</g>
</g>
<!-- Node1&#45;&gt;Node7 -->
<g id="edge6" class="edge">
<title>Node1&#45;&gt;Node7</title>
<path fill="none" stroke="midnightblue" d="M95.99,-108.9C117.3,-92.61 153.41,-66.87 188,-51 192.57,-48.9 197.32,-46.92 202.16,-45.05"/>
<polygon fill="midnightblue" stroke="midnightblue" points="203.39,-48.33 211.56,-41.59 200.97,-41.76 203.39,-48.33"/>
</g>
<!-- Node6 -->
<g id="node6" class="node">
<title>Node6</title>
<g id="a_node6"><a xlink:href="classdenoptim_1_1ga_1_1_e_a_utils.html#a41e3b62363bfa04f372d094483eee83f" target="_top" xlink:title="Calculated a probability given parameters defining the shape of the probability function and a single...">
<polygon fill="white" stroke="black" points="436,-65.5 436,-84.5 601,-84.5 601,-65.5 436,-65.5"/>
<text text-anchor="middle" x="518.5" y="-72.5" font-family="Helvetica,sans-Serif" font-size="10.00">denoptim.ga.EAUtils.getProbability</text>
</a>
</g>
</g>
<!-- Node5&#45;&gt;Node6 -->
<g id="edge5" class="edge">
<title>Node5&#45;&gt;Node6</title>
<path fill="none" stroke="midnightblue" d="M370.02,-75C387.9,-75 407.19,-75 425.73,-75"/>
<polygon fill="midnightblue" stroke="midnightblue" points="425.94,-78.5 435.94,-75 425.94,-71.5 425.94,-78.5"/>
</g>
</g>
</svg>
