<?xml version="1.0" encoding="UTF-8" standalone="no"?>
<!DOCTYPE svg PUBLIC "-//W3C//DTD SVG 1.1//EN"
 "http://www.w3.org/Graphics/SVG/1.1/DTD/svg11.dtd">
<!-- Generated by graphviz version 3.0.0 (20221109.1736)
 -->
<!-- Title: denoptim.graph.Fragment.getAPCountOnAtom Pages: 1 -->
<svg width="808pt" height="293pt"
 viewBox="0.00 0.00 808.00 293.00" xmlns="http://www.w3.org/2000/svg" xmlns:xlink="http://www.w3.org/1999/xlink">
<g id="graph0" class="graph" transform="scale(1 1) rotate(0) translate(4 289)">
<title>denoptim.graph.Fragment.getAPCountOnAtom</title>
<polygon fill="white" stroke="transparent" points="-4,4 -4,-289 804,-289 804,4 -4,4"/>
<!-- Node1 -->
<g id="node1" class="node">
<title>Node1</title>
<g id="a_node1"><a xlink:title="Returns the number of APs currently defined on a specific atom source.">
<polygon fill="#bfbfbf" stroke="black" points="658,-120.5 658,-150.5 800,-150.5 800,-120.5 658,-120.5"/>
<text text-anchor="start" x="666" y="-138.5" font-family="Helvetica,sans-Serif" font-size="10.00">denoptim.graph.Fragment.get</text>
<text text-anchor="middle" x="729" y="-127.5" font-family="Helvetica,sans-Serif" font-size="10.00">APCountOnAtom</text>
</a>
</g>
</g>
<!-- Node1&#45;&gt;Node1 -->
<g id="edge8" class="edge">
<title>Node1&#45;&gt;Node1</title>
<path fill="none" stroke="midnightblue" d="M764.89,-160.96C760.44,-165.68 748.47,-169 729,-169 697.04,-169 685.31,-160.06 693.8,-150.66"/>
<polygon fill="midnightblue" stroke="midnightblue" points="768.36,-160.4 764.2,-150.66 761.38,-160.87 768.36,-160.4"/>
</g>
<!-- Node2 -->
<g id="node2" class="node">
<title>Node2</title>
<g id="a_node2"><a xlink:href="classdenoptim_1_1graph_1_1_fragment.html#ad9470ff6edecddcecf07dcfab36cc340" target="_top" xlink:title="Adds an attachment point.">
<polygon fill="white" stroke="black" points="447.5,-236 447.5,-255 605.5,-255 605.5,-236 447.5,-236"/>
<text text-anchor="middle" x="526.5" y="-243" font-family="Helvetica,sans-Serif" font-size="10.00">denoptim.graph.Fragment.addAP</text>
</a>
</g>
</g>
<!-- Node1&#45;&gt;Node2 -->
<g id="edge1" class="edge">
<title>Node1&#45;&gt;Node2</title>
<path fill="none" stroke="midnightblue" d="M708.04,-158.33C688.32,-179.38 656.21,-209.81 622,-226.5 614.03,-230.39 605.31,-233.48 596.49,-235.94"/>
<polygon fill="midnightblue" stroke="midnightblue" points="710.79,-160.51 714.97,-150.77 705.63,-155.78 710.79,-160.51"/>
</g>
<!-- Node3 -->
<g id="node3" class="node">
<title>Node3</title>
<g id="a_node3"><a xlink:href="classdenoptim_1_1utils_1_1_dummy_atom_handler.html#a100cd8246e61d933a6420fac5c22160a" target="_top" xlink:title="Append dummy atoms on otherwise linear arrangements of atoms.">
<polygon fill="white" stroke="black" points="443,-186.5 443,-216.5 610,-216.5 610,-186.5 443,-186.5"/>
<text text-anchor="start" x="451" y="-204.5" font-family="Helvetica,sans-Serif" font-size="10.00">denoptim.utils.DummyAtom</text>
<text text-anchor="middle" x="526.5" y="-193.5" font-family="Helvetica,sans-Serif" font-size="10.00">Handler.addDummiesOnLinearities</text>
</a>
</g>
</g>
<!-- Node1&#45;&gt;Node3 -->
<g id="edge2" class="edge">
<title>Node1&#45;&gt;Node3</title>
<path fill="none" stroke="midnightblue" d="M682.64,-154.31C664.01,-161.7 642.14,-169.96 622,-176.5 611.19,-180.01 599.56,-183.4 588.29,-186.48"/>
<polygon fill="midnightblue" stroke="midnightblue" points="684.07,-157.51 692.05,-150.54 681.47,-151.01 684.07,-157.51"/>
</g>
<!-- Node9 -->
<g id="node9" class="node">
<title>Node9</title>
<g id="a_node9"><a xlink:href="classdenoptim_1_1graph_1_1_fragment.html#ad165ef32248dbac7c3c4a7033bf9d92f" target="_top" xlink:title=" ">
<polygon fill="white" stroke="black" points="439.5,-148 439.5,-167 613.5,-167 613.5,-148 439.5,-148"/>
<text text-anchor="middle" x="526.5" y="-155" font-family="Helvetica,sans-Serif" font-size="10.00">denoptim.graph.Fragment.removeAP</text>
</a>
</g>
</g>
<!-- Node1&#45;&gt;Node9 -->
<g id="edge9" class="edge">
<title>Node1&#45;&gt;Node9</title>
<path fill="none" stroke="midnightblue" d="M647.74,-144.31C636.58,-145.53 625.08,-146.79 613.81,-148.03"/>
<polygon fill="midnightblue" stroke="midnightblue" points="648.32,-147.76 657.87,-143.19 647.55,-140.81 648.32,-147.76"/>
</g>
<!-- Node10 -->
<g id="node10" class="node">
<title>Node10</title>
<g id="a_node10"><a xlink:href="classdenoptim_1_1graph_1_1_fragment_test.html#a12552fabbb6c8af399da78f10279fce2" target="_top" xlink:title=" ">
<polygon fill="white" stroke="black" points="444.5,-98.5 444.5,-128.5 608.5,-128.5 608.5,-98.5 444.5,-98.5"/>
<text text-anchor="start" x="452.5" y="-116.5" font-family="Helvetica,sans-Serif" font-size="10.00">denoptim.graph.FragmentTest.test</text>
<text text-anchor="middle" x="526.5" y="-105.5" font-family="Helvetica,sans-Serif" font-size="10.00">ConversionToIAC</text>
</a>
</g>
</g>
<!-- Node1&#45;&gt;Node10 -->
<g id="edge10" class="edge">
<title>Node1&#45;&gt;Node10</title>
<path fill="none" stroke="midnightblue" d="M647.67,-126.69C634.79,-125.27 621.47,-123.81 608.58,-122.4"/>
<polygon fill="midnightblue" stroke="midnightblue" points="647.55,-130.19 657.87,-127.81 648.32,-123.24 647.55,-130.19"/>
</g>
<!-- Node11 -->
<g id="node11" class="node">
<title>Node11</title>
<g id="a_node11"><a xlink:href="classdenoptim_1_1graph_1_1_fragment_test.html#a6494b234f01c4cf298d123dc59e047d6" target="_top" xlink:title=" ">
<polygon fill="white" stroke="black" points="444.5,-49.5 444.5,-79.5 608.5,-79.5 608.5,-49.5 444.5,-49.5"/>
<text text-anchor="start" x="452.5" y="-67.5" font-family="Helvetica,sans-Serif" font-size="10.00">denoptim.graph.FragmentTest.test</text>
<text text-anchor="middle" x="526.5" y="-56.5" font-family="Helvetica,sans-Serif" font-size="10.00">HandlingAPsAsObjOrProperty</text>
</a>
</g>
</g>
<!-- Node1&#45;&gt;Node11 -->
<g id="edge11" class="edge">
<title>Node1&#45;&gt;Node11</title>
<path fill="none" stroke="midnightblue" d="M688.24,-115.96C668.61,-106.81 644.4,-96.25 622,-88.5 612.64,-85.26 602.63,-82.25 592.74,-79.53"/>
<polygon fill="midnightblue" stroke="midnightblue" points="686.94,-119.22 697.48,-120.32 689.93,-112.89 686.94,-119.22"/>
</g>
<!-- Node12 -->
<g id="node12" class="node">
<title>Node12</title>
<g id="a_node12"><a xlink:href="classdenoptim_1_1json_1_1_d_e_n_o_p_t_i_mgson_test.html#ac2186d67581bef7c19379247af6672d6" target="_top" xlink:title=" ">
<polygon fill="white" stroke="black" points="431,-0.5 431,-30.5 622,-30.5 622,-0.5 431,-0.5"/>
<text text-anchor="start" x="439" y="-18.5" font-family="Helvetica,sans-Serif" font-size="10.00">denoptim.json.DENOPTIMgson</text>
<text text-anchor="middle" x="526.5" y="-7.5" font-family="Helvetica,sans-Serif" font-size="10.00">Test.testMolecularFragmentSerialization</text>
</a>
</g>
</g>
<!-- Node1&#45;&gt;Node12 -->
<g id="edge12" class="edge">
<title>Node1&#45;&gt;Node12</title>
<path fill="none" stroke="midnightblue" d="M709.02,-112.81C689.43,-90.85 656.88,-58.21 622,-39.5 615.59,-36.06 608.66,-33.1 601.58,-30.55"/>
<polygon fill="midnightblue" stroke="midnightblue" points="706.41,-115.15 715.63,-120.37 711.68,-110.54 706.41,-115.15"/>
</g>
<!-- Node4 -->
<g id="node4" class="node">
<title>Node4</title>
<g id="a_node4"><a xlink:href="classdenoptim_1_1gui_1_1_g_u_i_vertex_inspector.html#acadecc92299a7ea46113c06382a1f333" target="_top" xlink:title="Initialize the panel and add buttons.">
<polygon fill="white" stroke="black" points="198,-260 198,-279 395,-279 395,-260 198,-260"/>
<text text-anchor="middle" x="296.5" y="-267" font-family="Helvetica,sans-Serif" font-size="10.00">denoptim.gui.GUIVertexInspector.initialize</text>
</a>
</g>
</g>
<!-- Node3&#45;&gt;Node4 -->
<g id="edge3" class="edge">
<title>Node3&#45;&gt;Node4</title>
<path fill="none" stroke="midnightblue" d="M447.88,-219.79C442.09,-221.83 436.4,-224.07 431,-226.5 413.47,-234.4 412.78,-243.19 395,-250.5 385.59,-254.37 375.34,-257.47 365.13,-259.94"/>
<polygon fill="midnightblue" stroke="midnightblue" points="449.31,-223 457.7,-216.52 447.1,-216.36 449.31,-223"/>
</g>
<!-- Node6 -->
<g id="node6" class="node">
<title>Node6</title>
<g id="a_node6"><a xlink:href="classdenoptim_1_1ga_1_1_e_a_utils.html#a18eb5d0ba6772e9116176ef6ca9f84fc" target="_top" xlink:title="Converts a molecule into a DGraph by fragmentation and re&#45;assembling of the fragments.">
<polygon fill="white" stroke="black" points="219.5,-210.5 219.5,-240.5 373.5,-240.5 373.5,-210.5 219.5,-210.5"/>
<text text-anchor="start" x="227.5" y="-228.5" font-family="Helvetica,sans-Serif" font-size="10.00">denoptim.ga.EAUtils.make</text>
<text text-anchor="middle" x="296.5" y="-217.5" font-family="Helvetica,sans-Serif" font-size="10.00">GraphFromFragmentationOfMol</text>
</a>
</g>
</g>
<!-- Node3&#45;&gt;Node6 -->
<g id="edge5" class="edge">
<title>Node3&#45;&gt;Node6</title>
<path fill="none" stroke="midnightblue" d="M432.71,-211.27C413.13,-213.33 392.68,-215.48 373.79,-217.47"/>
<polygon fill="midnightblue" stroke="midnightblue" points="433.29,-214.73 442.86,-210.2 432.55,-207.76 433.29,-214.73"/>
</g>
<!-- Node7 -->
<g id="node7" class="node">
<title>Node7</title>
<g id="a_node7"><a xlink:href="classdenoptim_1_1fragmenter_1_1_fragmenter_tools.html#a82c4a82da2a3283a870a8c8af94f0a4e" target="_top" xlink:title="Management of fragments: includes application of fragment filters, rejection rules,...">
<polygon fill="white" stroke="black" points="216,-161.5 216,-191.5 377,-191.5 377,-161.5 216,-161.5"/>
<text text-anchor="start" x="224" y="-179.5" font-family="Helvetica,sans-Serif" font-size="10.00">denoptim.fragmenter.Fragmenter</text>
<text text-anchor="middle" x="296.5" y="-168.5" font-family="Helvetica,sans-Serif" font-size="10.00">Tools.manageFragmentCollection</text>
</a>
</g>
</g>
<!-- Node3&#45;&gt;Node7 -->
<g id="edge6" class="edge">
<title>Node3&#45;&gt;Node7</title>
<path fill="none" stroke="midnightblue" d="M432.72,-191.33C414.31,-189.31 395.12,-187.2 377.19,-185.24"/>
<polygon fill="midnightblue" stroke="midnightblue" points="432.54,-194.83 442.86,-192.44 433.31,-187.87 432.54,-194.83"/>
</g>
<!-- Node8 -->
<g id="node8" class="node">
<title>Node8</title>
<g id="a_node8"><a xlink:href="classdenoptim_1_1graph_1_1_fragment_test.html#aa17f42b21847b022c3d7a87876e17717" target="_top" xlink:title=" ">
<polygon fill="white" stroke="black" points="214.5,-112.5 214.5,-142.5 378.5,-142.5 378.5,-112.5 214.5,-112.5"/>
<text text-anchor="start" x="222.5" y="-130.5" font-family="Helvetica,sans-Serif" font-size="10.00">denoptim.graph.FragmentTest.test</text>
<text text-anchor="middle" x="296.5" y="-119.5" font-family="Helvetica,sans-Serif" font-size="10.00">IsomorphicInLinear</text>
</a>
</g>
</g>
<!-- Node3&#45;&gt;Node8 -->
<g id="edge7" class="edge">
<title>Node3&#45;&gt;Node8</title>
<path fill="none" stroke="midnightblue" d="M447.88,-183.21C442.09,-181.17 436.4,-178.93 431,-176.5 413.47,-168.6 412.56,-160.33 395,-152.5 386.46,-148.69 377.23,-145.38 367.98,-142.53"/>
<polygon fill="midnightblue" stroke="midnightblue" points="447.1,-186.64 457.7,-186.48 449.31,-180 447.1,-186.64"/>
</g>
<!-- Node5 -->
<g id="node5" class="node">
<title>Node5</title>
<g id="a_node5"><a xlink:href="classdenoptim_1_1gui_1_1_g_u_i_vertex_inspector.html#abc5d3c33ad9b2b114ce43e9b2cd577bb" target="_top" xlink:title="Constructor.">
<polygon fill="white" stroke="black" points="0,-254.5 0,-284.5 162,-284.5 162,-254.5 0,-254.5"/>
<text text-anchor="start" x="8" y="-272.5" font-family="Helvetica,sans-Serif" font-size="10.00">denoptim.gui.GUIVertexInspector.</text>
<text text-anchor="middle" x="81" y="-261.5" font-family="Helvetica,sans-Serif" font-size="10.00">GUIVertexInspector</text>
</a>
</g>
</g>
<!-- Node4&#45;&gt;Node5 -->
<g id="edge4" class="edge">
<title>Node4&#45;&gt;Node5</title>
<path fill="none" stroke="midnightblue" d="M187.69,-269.5C179.06,-269.5 170.44,-269.5 162.05,-269.5"/>
<polygon fill="midnightblue" stroke="midnightblue" points="187.81,-273 197.81,-269.5 187.81,-266 187.81,-273"/>
</g>
</g>
</svg>
