<?xml version="1.0" encoding="UTF-8" standalone="no"?>
<!DOCTYPE svg PUBLIC "-//W3C//DTD SVG 1.1//EN"
 "http://www.w3.org/Graphics/SVG/1.1/DTD/svg11.dtd">
<!-- Generated by graphviz version 3.0.0 (20221109.1736)
 -->
<!-- Title: denoptim.gui.GUIFileOpener.pickFileForSaving Pages: 1 -->
<svg width="579pt" height="88pt"
 viewBox="0.00 0.00 579.00 88.00" xmlns="http://www.w3.org/2000/svg" xmlns:xlink="http://www.w3.org/1999/xlink">
<g id="graph0" class="graph" transform="scale(1 1) rotate(0) translate(4 84)">
<title>denoptim.gui.GUIFileOpener.pickFileForSaving</title>
<polygon fill="white" stroke="transparent" points="-4,4 -4,-84 575,-84 575,4 -4,4"/>
<!-- Node1 -->
<g id="node1" class="node">
<title>Node1</title>
<g id="a_node1"><a xlink:title=" ">
<polygon fill="#bfbfbf" stroke="black" points="412,-24.5 412,-54.5 571,-54.5 571,-24.5 412,-24.5"/>
<text text-anchor="start" x="420" y="-42.5" font-family="Helvetica,sans-Serif" font-size="10.00">denoptim.gui.GUIFileOpener.pick</text>
<text text-anchor="middle" x="491.5" y="-31.5" font-family="Helvetica,sans-Serif" font-size="10.00">FileForSaving</text>
</a>
</g>
</g>
<!-- Node2 -->
<g id="node2" class="node">
<title>Node2</title>
<g id="a_node2"><a xlink:href="classdenoptim_1_1gui_1_1_g_u_i_compatibility_matrix_tab.html#a4bc183818810a26037080b47f082b9af" target="_top" xlink:title="Initialize the panel and add buttons.">
<polygon fill="white" stroke="black" points="221.5,-47.5 221.5,-77.5 368.5,-77.5 368.5,-47.5 221.5,-47.5"/>
<text text-anchor="start" x="229.5" y="-65.5" font-family="Helvetica,sans-Serif" font-size="10.00">denoptim.gui.GUICompatibility</text>
<text text-anchor="middle" x="295" y="-54.5" font-family="Helvetica,sans-Serif" font-size="10.00">MatrixTab.initialize</text>
</a>
</g>
</g>
<!-- Node1&#45;&gt;Node2 -->
<g id="edge1" class="edge">
<title>Node1&#45;&gt;Node2</title>
<path fill="none" stroke="midnightblue" d="M401.79,-49.99C390.67,-51.31 379.39,-52.64 368.55,-53.92"/>
<polygon fill="midnightblue" stroke="midnightblue" points="402.43,-53.44 411.95,-48.79 401.61,-46.49 402.43,-53.44"/>
</g>
<!-- Node4 -->
<g id="node4" class="node">
<title>Node4</title>
<g id="a_node4"><a xlink:href="classdenoptim_1_1gui_1_1_g_u_i_prepare.html#a8a63383bbabdfbda99d36e6dbd9c390e" target="_top" xlink:title="Initialize the panel with tabbedPane and buttons.">
<polygon fill="white" stroke="black" points="214,-8 214,-27 376,-27 376,-8 214,-8"/>
<text text-anchor="middle" x="295" y="-15" font-family="Helvetica,sans-Serif" font-size="10.00">denoptim.gui.GUIPrepare.initialize</text>
</a>
</g>
</g>
<!-- Node1&#45;&gt;Node4 -->
<g id="edge3" class="edge">
<title>Node1&#45;&gt;Node4</title>
<path fill="none" stroke="midnightblue" d="M401.91,-29.48C393.31,-28.51 384.62,-27.52 376.11,-26.56"/>
<polygon fill="midnightblue" stroke="midnightblue" points="401.62,-32.97 411.95,-30.62 402.41,-26.01 401.62,-32.97"/>
</g>
<!-- Node3 -->
<g id="node3" class="node">
<title>Node3</title>
<g id="a_node3"><a xlink:href="classdenoptim_1_1gui_1_1_g_u_i_compatibility_matrix_tab.html#ab550b03594a5843183d6f925e66d444b" target="_top" xlink:title="Constructor.">
<polygon fill="white" stroke="black" points="0,-49.5 0,-79.5 178,-79.5 178,-49.5 0,-49.5"/>
<text text-anchor="start" x="8" y="-67.5" font-family="Helvetica,sans-Serif" font-size="10.00">denoptim.gui.GUICompatibility</text>
<text text-anchor="middle" x="89" y="-56.5" font-family="Helvetica,sans-Serif" font-size="10.00">MatrixTab.GUICompatibilityMatrixTab</text>
</a>
</g>
</g>
<!-- Node2&#45;&gt;Node3 -->
<g id="edge2" class="edge">
<title>Node2&#45;&gt;Node3</title>
<path fill="none" stroke="midnightblue" d="M210.95,-63.31C200.13,-63.42 189.01,-63.53 178.12,-63.64"/>
<polygon fill="midnightblue" stroke="midnightblue" points="211.25,-66.81 221.22,-63.21 211.18,-59.81 211.25,-66.81"/>
</g>
<!-- Node5 -->
<g id="node5" class="node">
<title>Node5</title>
<g id="a_node5"><a xlink:href="classdenoptim_1_1gui_1_1_g_u_i_prepare.html#a429aa206246e784daacd7308e908f6af" target="_top" xlink:title="Constructor.">
<polygon fill="white" stroke="black" points="25,-0.5 25,-30.5 153,-30.5 153,-0.5 25,-0.5"/>
<text text-anchor="start" x="33" y="-18.5" font-family="Helvetica,sans-Serif" font-size="10.00">denoptim.gui.GUIPrepare.</text>
<text text-anchor="middle" x="89" y="-7.5" font-family="Helvetica,sans-Serif" font-size="10.00">GUIPrepare</text>
</a>
</g>
</g>
<!-- Node4&#45;&gt;Node5 -->
<g id="edge4" class="edge">
<title>Node4&#45;&gt;Node5</title>
<path fill="none" stroke="midnightblue" d="M203.93,-16.62C186.79,-16.45 169.19,-16.28 153.11,-16.12"/>
<polygon fill="midnightblue" stroke="midnightblue" points="203.93,-20.12 213.96,-16.72 203.99,-13.12 203.93,-20.12"/>
</g>
</g>
</svg>
