<?xml version="1.0" encoding="UTF-8" standalone="no"?>
<!DOCTYPE svg PUBLIC "-//W3C//DTD SVG 1.1//EN"
 "http://www.w3.org/Graphics/SVG/1.1/DTD/svg11.dtd">
<!-- Generated by graphviz version 3.0.0 (20221109.1736)
 -->
<!-- Title: denoptim.molecularmodeling.zmatrix.ZMatrixAtomTest.getTestZMatrixAtom Pages: 1 -->
<svg width="438pt" height="88pt"
 viewBox="0.00 0.00 438.00 88.00" xmlns="http://www.w3.org/2000/svg" xmlns:xlink="http://www.w3.org/1999/xlink">
<g id="graph0" class="graph" transform="scale(1 1) rotate(0) translate(4 84)">
<title>denoptim.molecularmodeling.zmatrix.ZMatrixAtomTest.getTestZMatrixAtom</title>
<polygon fill="white" stroke="transparent" points="-4,4 -4,-84 434,-84 434,4 -4,4"/>
<!-- Node1 -->
<g id="node1" class="node">
<title>Node1</title>
<g id="a_node1"><a xlink:title=" ">
<polygon fill="#bfbfbf" stroke="black" points="248,-24.5 248,-54.5 430,-54.5 430,-24.5 248,-24.5"/>
<text text-anchor="start" x="256" y="-42.5" font-family="Helvetica,sans-Serif" font-size="10.00">denoptim.molecularmodeling.zmatrix.</text>
<text text-anchor="middle" x="339" y="-31.5" font-family="Helvetica,sans-Serif" font-size="10.00">ZMatrixAtomTest.getTestZMatrixAtom</text>
</a>
</g>
</g>
<!-- Node2 -->
<g id="node2" class="node">
<title>Node2</title>
<g id="a_node2"><a xlink:href="classdenoptim_1_1molecularmodeling_1_1zmatrix_1_1_z_matrix_atom_test.html#ad4d7db05267c3fae2e322ca48ef357f1" target="_top" xlink:title=" ">
<polygon fill="white" stroke="black" points="18.5,-49.5 18.5,-79.5 193.5,-79.5 193.5,-49.5 18.5,-49.5"/>
<text text-anchor="start" x="26.5" y="-67.5" font-family="Helvetica,sans-Serif" font-size="10.00">denoptim.molecularmodeling.zmatrix.</text>
<text text-anchor="middle" x="106" y="-56.5" font-family="Helvetica,sans-Serif" font-size="10.00">ZMatrixAtomTest.testEquals</text>
</a>
</g>
</g>
<!-- Node1&#45;&gt;Node2 -->
<g id="edge1" class="edge">
<title>Node1&#45;&gt;Node2</title>
<path fill="none" stroke="midnightblue" d="M237.66,-50.36C223.06,-51.94 208.13,-53.55 193.83,-55.1"/>
<polygon fill="midnightblue" stroke="midnightblue" points="238.13,-53.83 247.7,-49.27 237.38,-46.87 238.13,-53.83"/>
</g>
<!-- Node3 -->
<g id="node3" class="node">
<title>Node3</title>
<g id="a_node3"><a xlink:href="classdenoptim_1_1molecularmodeling_1_1zmatrix_1_1_z_matrix_atom_test.html#aad67c278c4a3a8b817ebcb3e440e6867" target="_top" xlink:title=" ">
<polygon fill="white" stroke="black" points="0,-0.5 0,-30.5 212,-30.5 212,-0.5 0,-0.5"/>
<text text-anchor="start" x="8" y="-18.5" font-family="Helvetica,sans-Serif" font-size="10.00">denoptim.molecularmodeling.zmatrix.</text>
<text text-anchor="middle" x="106" y="-7.5" font-family="Helvetica,sans-Serif" font-size="10.00">ZMatrixAtomTest.testZMatrixAtomHashCode</text>
</a>
</g>
</g>
<!-- Node1&#45;&gt;Node3 -->
<g id="edge2" class="edge">
<title>Node1&#45;&gt;Node3</title>
<path fill="none" stroke="midnightblue" d="M237.52,-29.06C229.13,-28.19 220.63,-27.31 212.2,-26.43"/>
<polygon fill="midnightblue" stroke="midnightblue" points="237.39,-32.57 247.7,-30.12 238.11,-25.6 237.39,-32.57"/>
</g>
</g>
</svg>
