<?xml version="1.0" encoding="UTF-8" standalone="no"?>
<!DOCTYPE svg PUBLIC "-//W3C//DTD SVG 1.1//EN"
 "http://www.w3.org/Graphics/SVG/1.1/DTD/svg11.dtd">
<!-- Generated by graphviz version 3.0.0 (20221109.1736)
 -->
<!-- Title: denoptim.graph.VertexQueryTest Pages: 1 -->
<svg width="1000pt" height="715pt"
 viewBox="0.00 0.00 1000.00 714.50" xmlns="http://www.w3.org/2000/svg" xmlns:xlink="http://www.w3.org/1999/xlink">
<g id="graph0" class="graph" transform="scale(1 1) rotate(0) translate(4 710.5)">
<title>denoptim.graph.VertexQueryTest</title>
<polygon fill="white" stroke="transparent" points="-4,4 -4,-710.5 996,-710.5 996,4 -4,4"/>
<!-- Node1 -->
<g id="node1" class="node">
<title>Node1</title>
<g id="a_node1"><a xlink:title="Unit tests for VertexQuery#matches(Vertex).">
<polygon fill="#bfbfbf" stroke="black" points="594,-555 594,-574 752,-574 752,-555 594,-555"/>
<text text-anchor="middle" x="673" y="-562" font-family="Helvetica,sans-Serif" font-size="10.00">denoptim.graph.VertexQueryTest</text>
</a>
</g>
</g>
<!-- Node2 -->
<g id="node2" class="node">
<title>Node2</title>
<g id="a_node2"><a xlink:href="classdenoptim_1_1graph_1_1_d_graph.html" target="_top" xlink:title="Container for the list of vertices and the edges that connect them.">
<polygon fill="white" stroke="black" points="307,-480 307,-499 425,-499 425,-480 307,-480"/>
<text text-anchor="middle" x="366" y="-487" font-family="Helvetica,sans-Serif" font-size="10.00">denoptim.graph.DGraph</text>
</a>
</g>
</g>
<!-- Node2&#45;&gt;Node1 -->
<g id="edge1" class="edge">
<title>Node2&#45;&gt;Node1</title>
<path fill="none" stroke="#9a32cd" stroke-dasharray="5,2" d="M390.5,-504.32C409.97,-515.85 438.76,-531.25 466,-539.5 507.2,-551.98 554.82,-558.26 593.9,-561.41"/>
<polygon fill="#9a32cd" stroke="#9a32cd" points="392.11,-501.2 381.74,-499.01 388.49,-507.19 392.11,-501.2"/>
<text text-anchor="middle" x="520.5" y="-562.5" font-family="Helvetica,sans-Serif" font-size="10.00"> graph</text>
</g>
<!-- Node9 -->
<g id="node9" class="node">
<title>Node9</title>
<g id="a_node9"><a xlink:href="classdenoptim_1_1graph_1_1_candidate.html" target="_top" xlink:title="A candidate is the combination of a denoptim graph with molecular representation and may include also...">
<polygon fill="white" stroke="black" points="609,-353 609,-372 737,-372 737,-353 609,-353"/>
<text text-anchor="middle" x="673" y="-360" font-family="Helvetica,sans-Serif" font-size="10.00">denoptim.graph.Candidate</text>
</a>
</g>
</g>
<!-- Node2&#45;&gt;Node9 -->
<g id="edge11" class="edge">
<title>Node2&#45;&gt;Node9</title>
<path fill="none" stroke="#9a32cd" stroke-dasharray="5,2" d="M413.56,-477.34C430.08,-473.13 448.84,-468.48 466,-464.5 514.23,-453.33 530.33,-462.84 575,-441.5 612.04,-423.8 647.26,-389.18 663.16,-372.26"/>
<polygon fill="#9a32cd" stroke="#9a32cd" points="412.41,-474.02 403.59,-479.89 414.14,-480.8 412.41,-474.02"/>
<text text-anchor="middle" x="520.5" y="-467.5" font-family="Helvetica,sans-Serif" font-size="10.00"> graph</text>
</g>
<!-- Node12 -->
<g id="node12" class="node">
<title>Node12</title>
<g id="a_node12"><a xlink:href="classdenoptim_1_1graph_1_1_template.html" target="_top" xlink:title=" ">
<polygon fill="white" stroke="black" points="867,-209 867,-228 992,-228 992,-209 867,-209"/>
<text text-anchor="middle" x="929.5" y="-216" font-family="Helvetica,sans-Serif" font-size="10.00">denoptim.graph.Template</text>
</a>
</g>
</g>
<!-- Node2&#45;&gt;Node12 -->
<g id="edge22" class="edge">
<title>Node2&#45;&gt;Node12</title>
<path fill="none" stroke="#9a32cd" stroke-dasharray="5,2" d="M409.94,-501.61C485.02,-520.18 642.64,-547.48 753,-485.5 860.37,-425.2 913.5,-268.69 925.72,-228.19"/>
<polygon fill="#9a32cd" stroke="#9a32cd" points="410.47,-498.13 399.91,-499.05 408.74,-504.91 410.47,-498.13"/>
<text text-anchor="middle" x="673" y="-527.5" font-family="Helvetica,sans-Serif" font-size="10.00"> innerGraph</text>
</g>
<!-- Node13 -->
<g id="node13" class="node">
<title>Node13</title>
<g id="a_node13"><a xlink:href="classdenoptim_1_1graph_1_1_vertex.html" target="_top" xlink:title="A vertex is a data structure that has an identity and holds a list of AttachmentPoints.">
<polygon fill="white" stroke="black" points="616.5,-209 616.5,-228 729.5,-228 729.5,-209 616.5,-209"/>
<text text-anchor="middle" x="673" y="-216" font-family="Helvetica,sans-Serif" font-size="10.00">denoptim.graph.Vertex</text>
</a>
</g>
</g>
<!-- Node2&#45;&gt;Node13 -->
<g id="edge16" class="edge">
<title>Node2&#45;&gt;Node13</title>
<path fill="none" stroke="#9a32cd" stroke-dasharray="5,2" d="M382.58,-472.48C401.3,-452.53 434.19,-419.08 466,-394.5 510.99,-359.73 541.32,-373.31 575,-327.5 594.28,-301.27 572.39,-281.7 593,-256.5 604.08,-242.95 621.15,-233.91 636.59,-228.05"/>
<polygon fill="#9a32cd" stroke="#9a32cd" points="379.93,-470.19 375.68,-479.9 385.05,-474.96 379.93,-470.19"/>
<text text-anchor="middle" x="520.5" y="-397.5" font-family="Helvetica,sans-Serif" font-size="10.00"> owner</text>
</g>
<!-- Node3 -->
<g id="node3" class="node">
<title>Node3</title>
<g id="a_node3"><a xlink:title=" ">
<polygon fill="white" stroke="black" points="60,-294 60,-313 119,-313 119,-294 60,-294"/>
<text text-anchor="middle" x="89.5" y="-301" font-family="Helvetica,sans-Serif" font-size="10.00">Cloneable</text>
</a>
</g>
</g>
<!-- Node3&#45;&gt;Node2 -->
<g id="edge2" class="edge">
<title>Node3&#45;&gt;Node2</title>
<path fill="none" stroke="midnightblue" d="M129.66,-305.58C146.01,-307.98 164.52,-312.84 179,-322.5 190.69,-330.3 187.22,-338.41 197,-348.5 223.54,-375.88 236.52,-375.31 266,-399.5 299.94,-427.35 337.73,-463.13 355.18,-479.96"/>
<polygon fill="midnightblue" stroke="midnightblue" points="129.64,-302.05 119.3,-304.33 128.81,-309 129.64,-302.05"/>
</g>
<!-- Node3&#45;&gt;Node9 -->
<g id="edge10" class="edge">
<title>Node3&#45;&gt;Node9</title>
<path fill="none" stroke="midnightblue" d="M129.45,-307.45C227.94,-317.45 487.7,-343.8 608.52,-356.06"/>
<polygon fill="midnightblue" stroke="midnightblue" points="129.64,-303.95 119.34,-306.43 128.93,-310.92 129.64,-303.95"/>
</g>
<!-- Node3&#45;&gt;Node13 -->
<g id="edge15" class="edge">
<title>Node3&#45;&gt;Node13</title>
<path fill="none" stroke="midnightblue" d="M102.17,-285.02C128.66,-245.05 197.79,-151.35 284,-116.5 344.09,-92.21 526.36,-93.65 575,-136.5 596.53,-155.47 572.36,-178.56 593,-198.5 599.51,-204.79 607.71,-209.19 616.33,-212.24"/>
<polygon fill="midnightblue" stroke="midnightblue" points="99.15,-283.25 96.63,-293.54 105.02,-287.07 99.15,-283.25"/>
</g>
<!-- Node4 -->
<g id="node4" class="node">
<title>Node4</title>
<g id="a_node4"><a xlink:title=" ">
<polygon fill="white" stroke="black" points="16.5,-649 16.5,-668 162.5,-668 162.5,-649 16.5,-649"/>
<text text-anchor="middle" x="89.5" y="-656" font-family="Helvetica,sans-Serif" font-size="10.00">List&lt; denoptim.graph.Vertex &gt;</text>
</a>
</g>
</g>
<!-- Node4&#45;&gt;Node2 -->
<g id="edge3" class="edge">
<title>Node4&#45;&gt;Node2</title>
<path fill="none" stroke="#9a32cd" stroke-dasharray="5,2" d="M172.54,-649.9C203.78,-643.68 238.45,-632.96 266,-614.5 312.68,-583.22 347.58,-522.95 360.03,-499.33"/>
<polygon fill="#9a32cd" stroke="#9a32cd" points="171.72,-646.49 162.53,-651.77 173,-653.37 171.72,-646.49"/>
<text text-anchor="middle" x="231.5" y="-647.5" font-family="Helvetica,sans-Serif" font-size="10.00"> gVertices</text>
</g>
<!-- Node5 -->
<g id="node5" class="node">
<title>Node5</title>
<g id="a_node5"><a xlink:title=" ">
<polygon fill="white" stroke="black" points="19.5,-611 19.5,-630 159.5,-630 159.5,-611 19.5,-611"/>
<text text-anchor="middle" x="89.5" y="-618" font-family="Helvetica,sans-Serif" font-size="10.00">List&lt; denoptim.graph.Edge &gt;</text>
</a>
</g>
</g>
<!-- Node5&#45;&gt;Node2 -->
<g id="edge4" class="edge">
<title>Node5&#45;&gt;Node2</title>
<path fill="none" stroke="#9a32cd" stroke-dasharray="5,2" d="M163.41,-608.83C196.2,-601.55 234.52,-590.1 266,-572.5 303.2,-551.71 339.71,-516.06 356.07,-499.06"/>
<polygon fill="#9a32cd" stroke="#9a32cd" points="162.48,-605.45 153.43,-610.96 163.94,-612.3 162.48,-605.45"/>
<text text-anchor="middle" x="231.5" y="-602.5" font-family="Helvetica,sans-Serif" font-size="10.00"> gEdges</text>
</g>
<!-- Node6 -->
<g id="node6" class="node">
<title>Node6</title>
<g id="a_node6"><a xlink:title=" ">
<polygon fill="white" stroke="black" points="21,-573 21,-592 158,-592 158,-573 21,-573"/>
<text text-anchor="middle" x="89.5" y="-580" font-family="Helvetica,sans-Serif" font-size="10.00">List&lt; denoptim.graph.Ring &gt;</text>
</a>
</g>
</g>
<!-- Node6&#45;&gt;Node2 -->
<g id="edge5" class="edge">
<title>Node6&#45;&gt;Node2</title>
<path fill="none" stroke="#9a32cd" stroke-dasharray="5,2" d="M146.46,-570.74C157.31,-568.21 168.54,-565.42 179,-562.5 218.26,-551.55 228,-548.24 266,-533.5 293.88,-522.69 325.32,-508.33 345.14,-499.01"/>
<polygon fill="#9a32cd" stroke="#9a32cd" points="145.62,-567.34 136.65,-572.98 147.18,-574.17 145.62,-567.34"/>
<text text-anchor="middle" x="231.5" y="-560.5" font-family="Helvetica,sans-Serif" font-size="10.00"> gRings</text>
</g>
<!-- Node7 -->
<g id="node7" class="node">
<title>Node7</title>
<g id="a_node7"><a xlink:title=" ">
<polygon fill="white" stroke="black" points="23,-523.5 23,-553.5 156,-553.5 156,-523.5 23,-523.5"/>
<text text-anchor="start" x="31" y="-541.5" font-family="Helvetica,sans-Serif" font-size="10.00">List&lt; denoptim.graph.rings.</text>
<text text-anchor="middle" x="89.5" y="-530.5" font-family="Helvetica,sans-Serif" font-size="10.00">ClosableChain &gt;</text>
</a>
</g>
</g>
<!-- Node7&#45;&gt;Node2 -->
<g id="edge6" class="edge">
<title>Node7&#45;&gt;Node2</title>
<path fill="none" stroke="#9a32cd" stroke-dasharray="5,2" d="M166.22,-524.98C212.42,-516.74 270.36,-506.39 311.74,-499.01"/>
<polygon fill="#9a32cd" stroke="#9a32cd" points="165.48,-521.56 156.25,-526.76 166.71,-528.45 165.48,-521.56"/>
<text text-anchor="middle" x="231.5" y="-521.5" font-family="Helvetica,sans-Serif" font-size="10.00"> closableChains</text>
</g>
<!-- Node8 -->
<g id="node8" class="node">
<title>Node8</title>
<g id="a_node8"><a xlink:title=" ">
<polygon fill="white" stroke="black" points="11.5,-474.5 11.5,-504.5 167.5,-504.5 167.5,-474.5 11.5,-474.5"/>
<text text-anchor="start" x="19.5" y="-492.5" font-family="Helvetica,sans-Serif" font-size="10.00">List&lt; denoptim.graph.Symmetric</text>
<text text-anchor="middle" x="89.5" y="-481.5" font-family="Helvetica,sans-Serif" font-size="10.00">Vertexes &gt;</text>
</a>
</g>
</g>
<!-- Node8&#45;&gt;Node2 -->
<g id="edge7" class="edge">
<title>Node8&#45;&gt;Node2</title>
<path fill="none" stroke="#9a32cd" stroke-dasharray="5,2" d="M177.94,-489.5C219.98,-489.5 269.24,-489.5 306.66,-489.5"/>
<polygon fill="#9a32cd" stroke="#9a32cd" points="177.69,-486 167.69,-489.5 177.69,-493 177.69,-486"/>
<text text-anchor="middle" x="231.5" y="-492.5" font-family="Helvetica,sans-Serif" font-size="10.00"> symVertices</text>
</g>
<!-- Node9&#45;&gt;Node2 -->
<g id="edge8" class="edge">
<title>Node9&#45;&gt;Node2</title>
<path fill="none" stroke="#9a32cd" stroke-dasharray="5,2" d="M645.61,-376.73C626.47,-386.55 599.71,-399.28 575,-407.5 528.02,-423.13 512.11,-412.47 466,-430.5 433.02,-443.4 398.32,-466.66 380.04,-479.8"/>
<polygon fill="#9a32cd" stroke="#9a32cd" points="647.37,-379.76 654.61,-372.03 644.13,-373.56 647.37,-379.76"/>
<text text-anchor="middle" x="520.5" y="-433.5" font-family="Helvetica,sans-Serif" font-size="10.00"> candidate</text>
</g>
<!-- Node10 -->
<g id="node10" class="node">
<title>Node10</title>
<g id="a_node10"><a xlink:title=" ">
<polygon fill="white" stroke="black" points="302,-366 302,-385 430,-385 430,-366 302,-366"/>
<text text-anchor="middle" x="366" y="-373" font-family="Helvetica,sans-Serif" font-size="10.00">Comparable&lt; Candidate &gt;</text>
</a>
</g>
</g>
<!-- Node10&#45;&gt;Node9 -->
<g id="edge9" class="edge">
<title>Node10&#45;&gt;Node9</title>
<path fill="none" stroke="midnightblue" d="M440.25,-372.38C491.71,-370.18 559.83,-367.28 608.88,-365.19"/>
<polygon fill="midnightblue" stroke="midnightblue" points="440.04,-368.88 430.2,-372.81 440.34,-375.88 440.04,-368.88"/>
</g>
<!-- Node11 -->
<g id="node11" class="node">
<title>Node11</title>
<g id="a_node11"><a xlink:title=" ">
<polygon fill="white" stroke="black" points="324,-290 324,-309 408,-309 408,-290 324,-290"/>
<text text-anchor="middle" x="366" y="-297" font-family="Helvetica,sans-Serif" font-size="10.00">IAtomContainer</text>
</a>
</g>
</g>
<!-- Node11&#45;&gt;Node9 -->
<g id="edge12" class="edge">
<title>Node11&#45;&gt;Node9</title>
<path fill="none" stroke="#9a32cd" stroke-dasharray="5,2" d="M418.23,-296.9C460.93,-296.11 522.96,-298.14 575,-312.5 606.6,-321.22 639.79,-340.99 657.99,-352.89"/>
<polygon fill="#9a32cd" stroke="#9a32cd" points="417.99,-293.41 408.08,-297.15 418.16,-300.41 417.99,-293.41"/>
<text text-anchor="middle" x="520.5" y="-315.5" font-family="Helvetica,sans-Serif" font-size="10.00"> iac</text>
</g>
<!-- Node11&#45;&gt;Node12 -->
<g id="edge23" class="edge">
<title>Node11&#45;&gt;Node12</title>
<path fill="none" stroke="#9a32cd" stroke-dasharray="5,2" d="M418.01,-293.03C506.07,-281.71 692.26,-257.19 849,-232.5 857.72,-231.13 866.97,-229.58 875.95,-228.03"/>
<polygon fill="#9a32cd" stroke="#9a32cd" points="417.49,-289.56 408.02,-294.31 418.38,-296.51 417.49,-289.56"/>
<text text-anchor="middle" x="673" y="-273.5" font-family="Helvetica,sans-Serif" font-size="10.00"> mol</text>
</g>
<!-- Node12&#45;&gt;Node2 -->
<g id="edge13" class="edge">
<title>Node12&#45;&gt;Node2</title>
<path fill="none" stroke="#9a32cd" stroke-dasharray="5,2" d="M913.42,-235.96C868.4,-286.47 728.53,-431.93 575,-475.5 525.73,-489.48 467.38,-492.28 425.04,-491.99"/>
<polygon fill="#9a32cd" stroke="#9a32cd" points="916.29,-238 920.27,-228.18 911.03,-233.38 916.29,-238"/>
<text text-anchor="middle" x="673" y="-473.5" font-family="Helvetica,sans-Serif" font-size="10.00"> templateJacket</text>
</g>
<!-- Node13&#45;&gt;Node12 -->
<g id="edge14" class="edge">
<title>Node13&#45;&gt;Node12</title>
<path fill="none" stroke="midnightblue" d="M739.78,-218.5C778.97,-218.5 828.4,-218.5 866.84,-218.5"/>
<polygon fill="midnightblue" stroke="midnightblue" points="739.54,-215 729.54,-218.5 739.54,-222 739.54,-215"/>
</g>
<!-- Node14 -->
<g id="node14" class="node">
<title>Node14</title>
<g id="a_node14"><a xlink:href="enumdenoptim_1_1graph_1_1_vertex_1_1_b_b_type.html" target="_top" xlink:title="The type of building block.">
<polygon fill="white" stroke="black" points="291.5,-50 291.5,-69 440.5,-69 440.5,-50 291.5,-50"/>
<text text-anchor="middle" x="366" y="-57" font-family="Helvetica,sans-Serif" font-size="10.00">denoptim.graph.Vertex.BBType</text>
</a>
</g>
</g>
<!-- Node14&#45;&gt;Node13 -->
<g id="edge17" class="edge">
<title>Node14&#45;&gt;Node13</title>
<path fill="none" stroke="#9a32cd" stroke-dasharray="5,2" d="M411.02,-47.81C457.92,-38.26 531.29,-32.14 575,-72.5 616.56,-110.88 555.18,-156.44 593,-198.5 599.24,-205.44 607.52,-210.14 616.36,-213.28"/>
<polygon fill="#9a32cd" stroke="#9a32cd" points="410.18,-44.41 401.15,-49.95 411.66,-51.25 410.18,-44.41"/>
<text text-anchor="middle" x="520.5" y="-75.5" font-family="Helvetica,sans-Serif" font-size="10.00"> buildingBlockType</text>
</g>
<!-- Node15 -->
<g id="node15" class="node">
<title>Node15</title>
<g id="a_node15"><a xlink:title=" ">
<polygon fill="white" stroke="black" points="309,-252 309,-271 423,-271 423,-252 309,-252"/>
<text text-anchor="middle" x="366" y="-259" font-family="Helvetica,sans-Serif" font-size="10.00">Map&lt; Object, Object &gt;</text>
</a>
</g>
</g>
<!-- Node15&#45;&gt;Node13 -->
<g id="edge18" class="edge">
<title>Node15&#45;&gt;Node13</title>
<path fill="none" stroke="#9a32cd" stroke-dasharray="5,2" d="M433.24,-252.16C487.94,-244.45 564.71,-233.63 616.29,-226.35"/>
<polygon fill="#9a32cd" stroke="#9a32cd" points="432.71,-248.7 423.3,-253.56 433.69,-255.63 432.71,-248.7"/>
<text text-anchor="middle" x="520.5" y="-249.5" font-family="Helvetica,sans-Serif" font-size="10.00"> properties</text>
</g>
<!-- Node16 -->
<g id="node16" class="node">
<title>Node16</title>
<g id="a_node16"><a xlink:title=" ">
<polygon fill="white" stroke="black" points="329,-214 329,-233 403,-233 403,-214 329,-214"/>
<text text-anchor="middle" x="366" y="-221" font-family="Helvetica,sans-Serif" font-size="10.00">Set&lt; String &gt;</text>
</a>
</g>
</g>
<!-- Node16&#45;&gt;Node13 -->
<g id="edge19" class="edge">
<title>Node16&#45;&gt;Node13</title>
<path fill="none" stroke="#9a32cd" stroke-dasharray="5,2" d="M413.22,-221.29C429.86,-220.59 448.77,-219.89 466,-219.5 516.95,-218.35 575.01,-218.17 616.47,-218.24"/>
<polygon fill="#9a32cd" stroke="#9a32cd" points="413.03,-217.8 403.2,-221.73 413.34,-224.79 413.03,-217.8"/>
<text text-anchor="middle" x="520.5" y="-222.5" font-family="Helvetica,sans-Serif" font-size="10.00"> uniquefyingPropertyKeys</text>
</g>
<!-- Node17 -->
<g id="node17" class="node">
<title>Node17</title>
<g id="a_node17"><a xlink:title=" ">
<polygon fill="white" stroke="black" points="295.5,-164.5 295.5,-194.5 436.5,-194.5 436.5,-164.5 295.5,-164.5"/>
<text text-anchor="start" x="303.5" y="-182.5" font-family="Helvetica,sans-Serif" font-size="10.00">List&lt; denoptim.utils.Mutation</text>
<text text-anchor="middle" x="366" y="-171.5" font-family="Helvetica,sans-Serif" font-size="10.00">Type &gt;</text>
</a>
</g>
</g>
<!-- Node17&#45;&gt;Node13 -->
<g id="edge20" class="edge">
<title>Node17&#45;&gt;Node13</title>
<path fill="none" stroke="#9a32cd" stroke-dasharray="5,2" d="M447.05,-188.01C485.75,-192.31 532.84,-197.81 575,-203.5 588.43,-205.31 602.87,-207.45 616.4,-209.53"/>
<polygon fill="#9a32cd" stroke="#9a32cd" points="447.22,-184.5 436.89,-186.88 446.45,-191.46 447.22,-184.5"/>
<text text-anchor="middle" x="520.5" y="-206.5" font-family="Helvetica,sans-Serif" font-size="10.00"> allowedMutationTypes</text>
</g>
<!-- Node18 -->
<g id="node18" class="node">
<title>Node18</title>
<g id="a_node18"><a xlink:href="enumdenoptim_1_1graph_1_1_vertex_1_1_vertex_type.html" target="_top" xlink:title="Flag declaring the type of Vertex implementation.">
<polygon fill="white" stroke="black" points="284,-126 284,-145 448,-145 448,-126 284,-126"/>
<text text-anchor="middle" x="366" y="-133" font-family="Helvetica,sans-Serif" font-size="10.00">denoptim.graph.Vertex.VertexType</text>
</a>
</g>
</g>
<!-- Node18&#45;&gt;Node13 -->
<g id="edge21" class="edge">
<title>Node18&#45;&gt;Node13</title>
<path fill="none" stroke="#9a32cd" stroke-dasharray="5,2" d="M458.23,-139C496.56,-143.9 540.22,-154.25 575,-175.5 586.08,-182.27 582.12,-191.42 593,-198.5 600.11,-203.13 608.23,-206.69 616.49,-209.43"/>
<polygon fill="#9a32cd" stroke="#9a32cd" points="458.44,-135.5 448.1,-137.81 457.62,-142.45 458.44,-135.5"/>
<text text-anchor="middle" x="520.5" y="-178.5" font-family="Helvetica,sans-Serif" font-size="10.00"> vertexType</text>
</g>
<!-- Node19 -->
<g id="node19" class="node">
<title>Node19</title>
<g id="a_node19"><a xlink:href="enumdenoptim_1_1graph_1_1_template_1_1_contract_level.html" target="_top" xlink:title="Enum specifying to what extent the template&#39;s inner graph can be changed.">
<polygon fill="white" stroke="black" points="609,-159.5 609,-189.5 737,-189.5 737,-159.5 609,-159.5"/>
<text text-anchor="start" x="617" y="-177.5" font-family="Helvetica,sans-Serif" font-size="10.00">denoptim.graph.Template.</text>
<text text-anchor="middle" x="673" y="-166.5" font-family="Helvetica,sans-Serif" font-size="10.00">ContractLevel</text>
</a>
</g>
</g>
<!-- Node19&#45;&gt;Node12 -->
<g id="edge24" class="edge">
<title>Node19&#45;&gt;Node12</title>
<path fill="none" stroke="#9a32cd" stroke-dasharray="5,2" d="M747.21,-186.26C778.58,-191.4 815.62,-197.59 849,-203.5 858.68,-205.22 869.01,-207.11 878.91,-208.97"/>
<polygon fill="#9a32cd" stroke="#9a32cd" points="747.67,-182.79 737.24,-184.63 746.54,-189.7 747.67,-182.79"/>
<text text-anchor="middle" x="810" y="-206.5" font-family="Helvetica,sans-Serif" font-size="10.00"> contractLevel</text>
</g>
<!-- Node20 -->
<g id="node20" class="node">
<title>Node20</title>
<g id="a_node20"><a xlink:title=" ">
<polygon fill="white" stroke="black" points="593,-110.5 593,-140.5 753,-140.5 753,-110.5 593,-110.5"/>
<text text-anchor="start" x="601" y="-128.5" font-family="Helvetica,sans-Serif" font-size="10.00">List&lt; denoptim.graph.Attachment</text>
<text text-anchor="middle" x="673" y="-117.5" font-family="Helvetica,sans-Serif" font-size="10.00">Point &gt;</text>
</a>
</g>
</g>
<!-- Node20&#45;&gt;Node12 -->
<g id="edge25" class="edge">
<title>Node20&#45;&gt;Node12</title>
<path fill="none" stroke="#9a32cd" stroke-dasharray="5,2" d="M749.13,-143.12C780.52,-151.47 817.05,-162.48 849,-175.5 872.25,-184.98 897.49,-199.4 913.15,-208.89"/>
<polygon fill="#9a32cd" stroke="#9a32cd" points="749.69,-139.65 739.13,-140.51 747.92,-146.42 749.69,-139.65"/>
<text text-anchor="middle" x="810" y="-178.5" font-family="Helvetica,sans-Serif" font-size="10.00"> requiredAPs</text>
</g>
<!-- Node21 -->
<g id="node21" class="node">
<title>Node21</title>
<g id="a_node21"><a xlink:href="classdenoptim_1_1graph_1_1_a_p_tree_map.html" target="_top" xlink:title="Attachment point mapping where keys are sorted by natural ordering, i.e., by AttachmentPoint#compareT...">
<polygon fill="white" stroke="black" points="604.5,-39 604.5,-58 741.5,-58 741.5,-39 604.5,-39"/>
<text text-anchor="middle" x="673" y="-46" font-family="Helvetica,sans-Serif" font-size="10.00">denoptim.graph.APTreeMap</text>
</a>
</g>
</g>
<!-- Node21&#45;&gt;Node12 -->
<g id="edge26" class="edge">
<title>Node21&#45;&gt;Node12</title>
<path fill="none" stroke="#9a32cd" stroke-dasharray="5,2" d="M709.22,-61.77C746.06,-76.59 804.59,-102.84 849,-135.5 879.22,-157.73 907.93,-192.07 921.05,-208.75"/>
<polygon fill="#9a32cd" stroke="#9a32cd" points="710.48,-58.5 699.89,-58.08 707.9,-65.01 710.48,-58.5"/>
<text text-anchor="middle" x="810" y="-138.5" font-family="Helvetica,sans-Serif" font-size="10.00"> innerToOuterAPs</text>
</g>
<!-- Node22 -->
<g id="node22" class="node">
<title>Node22</title>
<g id="a_node22"><a xlink:title=" ">
<polygon fill="white" stroke="black" points="293,-0.5 293,-30.5 439,-30.5 439,-0.5 293,-0.5"/>
<text text-anchor="start" x="301" y="-18.5" font-family="Helvetica,sans-Serif" font-size="10.00">LinkedHashMap&lt; Attachment</text>
<text text-anchor="middle" x="366" y="-7.5" font-family="Helvetica,sans-Serif" font-size="10.00">Point, AttachmentPoint &gt;</text>
</a>
</g>
</g>
<!-- Node22&#45;&gt;Node21 -->
<g id="edge27" class="edge">
<title>Node22&#45;&gt;Node21</title>
<path fill="none" stroke="midnightblue" d="M449.26,-24.06C487.5,-28.07 533.58,-32.96 575,-37.5 584.52,-38.54 594.56,-39.66 604.43,-40.77"/>
<polygon fill="midnightblue" stroke="midnightblue" points="449.52,-20.56 439.21,-23 448.79,-27.53 449.52,-20.56"/>
</g>
<!-- Node23 -->
<g id="node23" class="node">
<title>Node23</title>
<g id="a_node23"><a xlink:title=" ">
<polygon fill="white" stroke="black" points="1,-403.5 1,-455.5 178,-455.5 178,-403.5 1,-403.5"/>
<text text-anchor="start" x="9" y="-443.5" font-family="Helvetica,sans-Serif" font-size="10.00">DefaultUndirectedGraph</text>
<text text-anchor="start" x="9" y="-432.5" font-family="Helvetica,sans-Serif" font-size="10.00">&lt; denoptim.graph.Vertex,</text>
<text text-anchor="start" x="9" y="-421.5" font-family="Helvetica,sans-Serif" font-size="10.00"> denoptim.graph.simplified.Undirected</text>
<text text-anchor="middle" x="89.5" y="-410.5" font-family="Helvetica,sans-Serif" font-size="10.00">Edge &gt;</text>
</a>
</g>
</g>
<!-- Node23&#45;&gt;Node2 -->
<g id="edge28" class="edge">
<title>Node23&#45;&gt;Node2</title>
<path fill="none" stroke="#9a32cd" stroke-dasharray="5,2" d="M188.04,-450.82C233.69,-460.8 285.75,-472.18 321.52,-480"/>
<polygon fill="#9a32cd" stroke="#9a32cd" points="188.62,-447.37 178.11,-448.65 187.13,-454.2 188.62,-447.37"/>
<text text-anchor="middle" x="231.5" y="-470.5" font-family="Helvetica,sans-Serif" font-size="10.00"> jGraph</text>
</g>
<!-- Node24 -->
<g id="node24" class="node">
<title>Node24</title>
<g id="a_node24"><a xlink:title=" ">
<polygon fill="white" stroke="black" points="0,-332.5 0,-384.5 179,-384.5 179,-332.5 0,-332.5"/>
<text text-anchor="start" x="8" y="-372.5" font-family="Helvetica,sans-Serif" font-size="10.00">DefaultUndirectedGraph</text>
<text text-anchor="start" x="8" y="-361.5" font-family="Helvetica,sans-Serif" font-size="10.00">&lt; denoptim.graph.simplified.</text>
<text text-anchor="start" x="8" y="-350.5" font-family="Helvetica,sans-Serif" font-size="10.00">Node, denoptim.graph.simplified.Node</text>
<text text-anchor="middle" x="89.5" y="-339.5" font-family="Helvetica,sans-Serif" font-size="10.00">Connection &gt;</text>
</a>
</g>
</g>
<!-- Node24&#45;&gt;Node2 -->
<g id="edge29" class="edge">
<title>Node24&#45;&gt;Node2</title>
<path fill="none" stroke="#9a32cd" stroke-dasharray="5,2" d="M167.89,-388.58C171.66,-390.21 175.38,-391.86 179,-393.5 242.52,-422.37 315.38,-461.93 347.85,-479.91"/>
<polygon fill="#9a32cd" stroke="#9a32cd" points="169.01,-385.25 158.44,-384.57 166.27,-391.7 169.01,-385.25"/>
<text text-anchor="middle" x="231.5" y="-437.5" font-family="Helvetica,sans-Serif" font-size="10.00"> jGraphKernel</text>
</g>
<!-- Node25 -->
<g id="node25" class="node">
<title>Node25</title>
<g id="a_node25"><a xlink:title=" ">
<polygon fill="white" stroke="black" points="51,-687 51,-706 128,-706 128,-687 51,-687"/>
<text text-anchor="middle" x="89.5" y="-694" font-family="Helvetica,sans-Serif" font-size="10.00">AtomicInteger</text>
</a>
</g>
</g>
<!-- Node25&#45;&gt;Node2 -->
<g id="edge30" class="edge">
<title>Node25&#45;&gt;Node2</title>
<path fill="none" stroke="#9a32cd" stroke-dasharray="5,2" d="M138.55,-696.67C176.42,-694.54 228.85,-686.33 266,-659.5 324.69,-617.1 354.07,-528.34 362.43,-499.08"/>
<polygon fill="#9a32cd" stroke="#9a32cd" points="138.12,-693.19 128.28,-697.12 138.42,-700.18 138.12,-693.19"/>
<text text-anchor="middle" x="231.5" y="-691.5" font-family="Helvetica,sans-Serif" font-size="10.00"> apCounter</text>
</g>
</g>
</svg>
