<?xml version="1.0" encoding="UTF-8" standalone="no"?>
<!DOCTYPE svg PUBLIC "-//W3C//DTD SVG 1.1//EN"
 "http://www.w3.org/Graphics/SVG/1.1/DTD/svg11.dtd">
<!-- Generated by graphviz version 3.0.0 (20221109.1736)
 -->
<!-- Title: denoptim.files.FileUtils.checkExists Pages: 1 -->
<!--zoomable 823 -->
<svg id="main" version="1.1" xmlns="http://www.w3.org/2000/svg" xmlns:xlink="http://www.w3.org/1999/xlink" xml:space="preserve" onload="init(evt)">
<style type="text/css"><![CDATA[
.edge:hover path { stroke: red; }
.edge:hover polygon { stroke: red; fill: red; }
]]></style>
<script type="text/javascript"><![CDATA[
var edges = document.getElementsByTagName('g');
if (edges && edges.length) {
  for (var i=0;i<edges.length;i++) {
    if (edges[i].id.substr(0,4)=='edge') {
      edges[i].setAttribute('class','edge');
    }
  }
}
]]></script>
        <defs>
                <circle id="rim" cx="0" cy="0" r="7"/>
                <circle id="rim2" cx="0" cy="0" r="3.5"/>
                <g id="zoomPlus">
                        <use xlink:href="#rim" fill="#404040">
                                <set attributeName="fill" to="#808080" begin="zoomplus.mouseover" end="zoomplus.mouseout"/>
                        </use>
                        <path d="M-4,0h8M0,-4v8" fill="none" stroke="white" stroke-width="1.5" pointer-events="none"/>
                </g>
                <g id="zoomMin">
                        <use xlink:href="#rim" fill="#404040">
                                <set attributeName="fill" to="#808080" begin="zoomminus.mouseover" end="zoomminus.mouseout"/>
                        </use>
                        <path d="M-4,0h8" fill="none" stroke="white" stroke-width="1.5" pointer-events="none"/>
                </g>
                <g id="dirArrow">
                        <path fill="none" stroke="white" stroke-width="1.5" d="M0,-3.0v7 M-2.5,-0.5L0,-3.0L2.5,-0.5"/>
                </g>
               <g id="resetDef">
                       <use xlink:href="#rim2" fill="#404040">
                               <set attributeName="fill" to="#808080" begin="reset.mouseover" end="reset.mouseout"/>
                       </use>
               </g>
        </defs>

<script type="text/javascript">
var viewWidth = 1321;
var viewHeight = 823;
var sectionId = 'dynsection-5';
</script>
<script xlink:href="svgpan.js"/>
<svg id="graph" class="graph">
<g id="viewport">
<title>denoptim.files.FileUtils.checkExists</title>
<polygon fill="white" stroke="transparent" points="-4,4 -4,-819 1317,-819 1317,4 -4,4"/>
<!-- Node1 -->
<g id="node1" class="node">
<title>Node1</title>
<g id="a_node1"><a xlink:title=" ">
<polygon fill="#bfbfbf" stroke="black" points="1170,-392.5 1170,-422.5 1313,-422.5 1313,-392.5 1170,-392.5"/>
<text text-anchor="start" x="1178" y="-410.5" font-family="Helvetica,sans-Serif" font-size="10.00">denoptim.files.FileUtils.check</text>
<text text-anchor="middle" x="1241.5" y="-399.5" font-family="Helvetica,sans-Serif" font-size="10.00">Exists</text>
</a>
</g>
</g>
<!-- Node2 -->
<g id="node2" class="node">
<title>Node2</title>
<g id="a_node2"><a xlink:href="classdenoptim_1_1fitness_1_1_fitness_parameters.html#abb21c5b1bab172a6975b53375ce7bc23" target="_top" xlink:title="Evaluate consistency of input parameters.">
<polygon fill="white" stroke="black" points="943,-784.5 943,-814.5 1089,-814.5 1089,-784.5 943,-784.5"/>
<text text-anchor="start" x="951" y="-802.5" font-family="Helvetica,sans-Serif" font-size="10.00">denoptim.fitness.Fitness</text>
<text text-anchor="middle" x="1016" y="-791.5" font-family="Helvetica,sans-Serif" font-size="10.00">Parameters.checkParameters</text>
</a>
</g>
</g>
<!-- Node1&#45;&gt;Node2 -->
<g id="edge1" class="edge">
<title>Node1&#45;&gt;Node2</title>
<path fill="none" stroke="midnightblue" d="M1241.4,-432.54C1242.35,-499.17 1235.13,-682.1 1134,-775.5 1121.74,-786.83 1105.62,-793.4 1089.28,-797.09"/>
<polygon fill="midnightblue" stroke="midnightblue" points="1244.9,-432.45 1241.19,-422.53 1237.91,-432.6 1244.9,-432.45"/>
</g>
<!-- Node3 -->
<g id="node3" class="node">
<title>Node3</title>
<g id="a_node3"><a xlink:href="classdenoptim_1_1fragspace_1_1_fragment_space_parameters.html#a7ba47e20c9b69f190c09c791e9caeca1" target="_top" xlink:title="Evaluate consistency of input parameters.">
<polygon fill="white" stroke="black" points="929.5,-735.5 929.5,-765.5 1102.5,-765.5 1102.5,-735.5 929.5,-735.5"/>
<text text-anchor="start" x="937.5" y="-753.5" font-family="Helvetica,sans-Serif" font-size="10.00">denoptim.fragspace.Fragment</text>
<text text-anchor="middle" x="1016" y="-742.5" font-family="Helvetica,sans-Serif" font-size="10.00">SpaceParameters.checkParameters</text>
</a>
</g>
</g>
<!-- Node1&#45;&gt;Node3 -->
<g id="edge2" class="edge">
<title>Node1&#45;&gt;Node3</title>
<path fill="none" stroke="midnightblue" d="M1240.09,-432.86C1237.67,-493.55 1222.63,-647.91 1134,-726.5 1125,-734.48 1114.08,-740.07 1102.56,-743.96"/>
<polygon fill="midnightblue" stroke="midnightblue" points="1243.6,-432.76 1240.42,-422.66 1236.6,-432.54 1243.6,-432.76"/>
</g>
<!-- Node9 -->
<g id="node9" class="node">
<title>Node9</title>
<g id="a_node9"><a xlink:href="classdenoptim_1_1graph_1_1rings_1_1_ring_closure_parameters.html#a8900147fe4dbb8136ab3b5b771cf1d5f" target="_top" xlink:title="Evaluate consistency of input parameters.">
<polygon fill="white" stroke="black" points="926.5,-686.5 926.5,-716.5 1105.5,-716.5 1105.5,-686.5 926.5,-686.5"/>
<text text-anchor="start" x="934.5" y="-704.5" font-family="Helvetica,sans-Serif" font-size="10.00">denoptim.graph.rings.Ring</text>
<text text-anchor="middle" x="1016" y="-693.5" font-family="Helvetica,sans-Serif" font-size="10.00">ClosureParameters.checkParameters</text>
</a>
</g>
</g>
<!-- Node1&#45;&gt;Node9 -->
<g id="edge8" class="edge">
<title>Node1&#45;&gt;Node9</title>
<path fill="none" stroke="midnightblue" d="M1238.37,-432.64C1232.4,-486.48 1210.52,-613.22 1134,-677.5 1125.74,-684.44 1116.01,-689.54 1105.75,-693.28"/>
<polygon fill="midnightblue" stroke="midnightblue" points="1241.86,-432.9 1239.39,-422.6 1234.9,-432.19 1241.86,-432.9"/>
</g>
<!-- Node10 -->
<g id="node10" class="node">
<title>Node10</title>
<g id="a_node10"><a xlink:href="classdenoptim_1_1programs_1_1combinatorial_1_1_c_e_b_l_parameters.html#a4a169c6eb13f0541bcd9672ba76ffe1c" target="_top" xlink:title="Evaluate consistency of input parameters.">
<polygon fill="white" stroke="black" points="930.5,-637.5 930.5,-667.5 1101.5,-667.5 1101.5,-637.5 930.5,-637.5"/>
<text text-anchor="start" x="938.5" y="-655.5" font-family="Helvetica,sans-Serif" font-size="10.00">denoptim.programs.combinatorial.</text>
<text text-anchor="middle" x="1016" y="-644.5" font-family="Helvetica,sans-Serif" font-size="10.00">CEBLParameters.checkParameters</text>
</a>
</g>
</g>
<!-- Node1&#45;&gt;Node10 -->
<g id="edge9" class="edge">
<title>Node1&#45;&gt;Node10</title>
<path fill="none" stroke="midnightblue" d="M1235.96,-432.58C1226.17,-479.01 1198.51,-578.22 1134,-628.5 1124.51,-635.89 1113.32,-641.17 1101.68,-644.91"/>
<polygon fill="midnightblue" stroke="midnightblue" points="1239.4,-433.23 1237.93,-422.73 1232.53,-431.85 1239.4,-433.23"/>
</g>
<!-- Node12 -->
<g id="node12" class="node">
<title>Node12</title>
<g id="a_node12"><a xlink:href="classdenoptim_1_1programs_1_1fitnessevaluator_1_1_f_r_parameters.html#a6f7ad8096270a9887827c2b62718a1d9" target="_top" xlink:title="Evaluate consistency of input parameters.">
<polygon fill="white" stroke="black" points="930,-588.5 930,-618.5 1102,-618.5 1102,-588.5 930,-588.5"/>
<text text-anchor="start" x="938" y="-606.5" font-family="Helvetica,sans-Serif" font-size="10.00">denoptim.programs.fitnessevaluator.</text>
<text text-anchor="middle" x="1016" y="-595.5" font-family="Helvetica,sans-Serif" font-size="10.00">FRParameters.checkParameters</text>
</a>
</g>
</g>
<!-- Node1&#45;&gt;Node12 -->
<g id="edge11" class="edge">
<title>Node1&#45;&gt;Node12</title>
<path fill="none" stroke="midnightblue" d="M1232.38,-432.34C1218.57,-470.42 1186.78,-542.66 1134,-579.5 1124.48,-586.15 1113.52,-591.03 1102.22,-594.61"/>
<polygon fill="midnightblue" stroke="midnightblue" points="1235.8,-433.16 1235.8,-422.56 1229.19,-430.85 1235.8,-433.16"/>
</g>
<!-- Node14 -->
<g id="node14" class="node">
<title>Node14</title>
<g id="a_node14"><a xlink:href="classdenoptim_1_1programs_1_1genetweeker_1_1_gene_ops_runner_parameters.html#a7ed448fcc50d4b8bbcff3c5b3d9cfd37" target="_top" xlink:title="Evaluate consistency of input parameters.">
<polygon fill="white" stroke="black" points="907,-539.5 907,-569.5 1125,-569.5 1125,-539.5 907,-539.5"/>
<text text-anchor="start" x="915" y="-557.5" font-family="Helvetica,sans-Serif" font-size="10.00">denoptim.programs.genetweeker.</text>
<text text-anchor="middle" x="1016" y="-546.5" font-family="Helvetica,sans-Serif" font-size="10.00">GeneOpsRunnerParameters.checkParameters</text>
</a>
</g>
</g>
<!-- Node1&#45;&gt;Node14 -->
<g id="edge13" class="edge">
<title>Node1&#45;&gt;Node14</title>
<path fill="none" stroke="midnightblue" d="M1226.49,-431.7C1208.73,-460.06 1175.39,-506.26 1134,-530.5 1128.1,-533.96 1121.77,-536.92 1115.23,-539.46"/>
<polygon fill="midnightblue" stroke="midnightblue" points="1229.68,-433.18 1231.9,-422.82 1223.71,-429.54 1229.68,-433.18"/>
</g>
<!-- Node16 -->
<g id="node16" class="node">
<title>Node16</title>
<g id="a_node16"><a xlink:href="classdenoptim_1_1programs_1_1grapheditor_1_1_graph_ed_parameters.html#a0773520b040b0b53c72441efd0b9acc3" target="_top" xlink:title="Evaluate consistency of input parameters.">
<polygon fill="white" stroke="black" points="924.5,-392.5 924.5,-422.5 1107.5,-422.5 1107.5,-392.5 924.5,-392.5"/>
<text text-anchor="start" x="932.5" y="-410.5" font-family="Helvetica,sans-Serif" font-size="10.00">denoptim.programs.grapheditor.</text>
<text text-anchor="middle" x="1016" y="-399.5" font-family="Helvetica,sans-Serif" font-size="10.00">GraphEdParameters.checkParameters</text>
</a>
</g>
</g>
<!-- Node1&#45;&gt;Node16 -->
<g id="edge15" class="edge">
<title>Node1&#45;&gt;Node16</title>
<path fill="none" stroke="midnightblue" d="M1159.47,-407.5C1142.67,-407.5 1124.87,-407.5 1107.74,-407.5"/>
<polygon fill="midnightblue" stroke="midnightblue" points="1159.78,-411 1169.78,-407.5 1159.78,-404 1159.78,-411"/>
</g>
<!-- Node18 -->
<g id="node18" class="node">
<title>Node18</title>
<g id="a_node18"><a xlink:href="classdenoptim_1_1programs_1_1graphlisthandler_1_1_graph_lists_handler_parameters.html#aa9bece483afc61f624d61440b7b6d5ac" target="_top" xlink:title="Evaluate consistency of input parameters.">
<polygon fill="white" stroke="black" points="902.5,-196.5 902.5,-226.5 1129.5,-226.5 1129.5,-196.5 902.5,-196.5"/>
<text text-anchor="start" x="910.5" y="-214.5" font-family="Helvetica,sans-Serif" font-size="10.00">denoptim.programs.graphlisthandler.</text>
<text text-anchor="middle" x="1016" y="-203.5" font-family="Helvetica,sans-Serif" font-size="10.00">GraphListsHandlerParameters.checkParameters</text>
</a>
</g>
</g>
<!-- Node1&#45;&gt;Node18 -->
<g id="edge17" class="edge">
<title>Node1&#45;&gt;Node18</title>
<path fill="none" stroke="midnightblue" d="M1232.19,-382.57C1218.23,-344.71 1186.33,-273.24 1134,-236.5 1128.48,-232.62 1122.47,-229.32 1116.19,-226.52"/>
<polygon fill="midnightblue" stroke="midnightblue" points="1229.01,-384.06 1235.66,-392.3 1235.6,-381.71 1229.01,-384.06"/>
</g>
<!-- Node20 -->
<g id="node20" class="node">
<title>Node20</title>
<g id="a_node20"><a xlink:href="classdenoptim_1_1programs_1_1isomorphism_1_1_isomorphism_parameters.html#acb0b92319e5b8de5d8973f2a46534a43" target="_top" xlink:title="Evaluate consistency of input parameters.">
<polygon fill="white" stroke="black" points="915,-490.5 915,-520.5 1117,-520.5 1117,-490.5 915,-490.5"/>
<text text-anchor="start" x="923" y="-508.5" font-family="Helvetica,sans-Serif" font-size="10.00">denoptim.programs.isomorphism.</text>
<text text-anchor="middle" x="1016" y="-497.5" font-family="Helvetica,sans-Serif" font-size="10.00">IsomorphismParameters.checkParameters</text>
</a>
</g>
</g>
<!-- Node1&#45;&gt;Node20 -->
<g id="edge19" class="edge">
<title>Node1&#45;&gt;Node20</title>
<path fill="none" stroke="midnightblue" d="M1215.47,-429.31C1194.93,-446.07 1164.38,-468.49 1134,-481.5 1125.99,-484.93 1117.47,-487.88 1108.8,-490.42"/>
<polygon fill="midnightblue" stroke="midnightblue" points="1217.92,-431.83 1223.37,-422.74 1213.44,-426.45 1217.92,-431.83"/>
</g>
<!-- Node22 -->
<g id="node22" class="node">
<title>Node22</title>
<g id="a_node22"><a xlink:href="classdenoptim_1_1programs_1_1_run_time_parameters.html#a4bbba7d904df2457647bfd35f1d884a1" target="_top" xlink:title="Ensures a pathname does lead to an existing file or triggers an error.">
<polygon fill="white" stroke="black" points="946,-294.5 946,-324.5 1086,-324.5 1086,-294.5 946,-294.5"/>
<text text-anchor="start" x="954" y="-312.5" font-family="Helvetica,sans-Serif" font-size="10.00">denoptim.programs.RunTime</text>
<text text-anchor="middle" x="1016" y="-301.5" font-family="Helvetica,sans-Serif" font-size="10.00">Parameters.ensureFileExists</text>
</a>
</g>
</g>
<!-- Node1&#45;&gt;Node22 -->
<g id="edge21" class="edge">
<title>Node1&#45;&gt;Node22</title>
<path fill="none" stroke="midnightblue" d="M1215.02,-385.77C1194.44,-369.31 1164.05,-347.41 1134,-334.5 1119.02,-328.06 1102.22,-323.23 1086.14,-319.61"/>
<polygon fill="midnightblue" stroke="midnightblue" points="1212.98,-388.62 1222.94,-392.22 1217.4,-383.19 1212.98,-388.62"/>
</g>
<!-- Node28 -->
<g id="node28" class="node">
<title>Node28</title>
<g id="a_node28"><a xlink:href="classdenoptim_1_1programs_1_1_run_time_parameters.html#af8e9bb9f4aa35ba2f1c8284cc5051c29" target="_top" xlink:title="Ensures a pathname is not empty nor null and that it does lead to an existing file or triggers an err...">
<polygon fill="white" stroke="black" points="935.5,-343.5 935.5,-373.5 1096.5,-373.5 1096.5,-343.5 935.5,-343.5"/>
<text text-anchor="start" x="943.5" y="-361.5" font-family="Helvetica,sans-Serif" font-size="10.00">denoptim.programs.RunTime</text>
<text text-anchor="middle" x="1016" y="-350.5" font-family="Helvetica,sans-Serif" font-size="10.00">Parameters.ensureFileExistsIfSet</text>
</a>
</g>
</g>
<!-- Node1&#45;&gt;Node28 -->
<g id="edge27" class="edge">
<title>Node1&#45;&gt;Node28</title>
<path fill="none" stroke="midnightblue" d="M1164.56,-390.28C1154.29,-387.98 1143.89,-385.67 1134,-383.5 1119.09,-380.23 1103.09,-376.77 1087.87,-373.51"/>
<polygon fill="midnightblue" stroke="midnightblue" points="1163.82,-393.7 1174.34,-392.47 1165.35,-386.87 1163.82,-393.7"/>
</g>
<!-- Node29 -->
<g id="node29" class="node">
<title>Node29</title>
<g id="a_node29"><a xlink:href="classdenoptim_1_1gui_1_1_parameters_form.html#acc519aa0a8708f022a7d0dff46f64050" target="_top" xlink:title="Reads in the parameters from a text file collecting &#160;&#160;DENOPTIM parameters in the form of KEY=VALUE li...">
<polygon fill="white" stroke="black" points="926,-245.5 926,-275.5 1106,-275.5 1106,-245.5 926,-245.5"/>
<text text-anchor="start" x="934" y="-263.5" font-family="Helvetica,sans-Serif" font-size="10.00">denoptim.gui.ParametersForm.import</text>
<text text-anchor="middle" x="1016" y="-252.5" font-family="Helvetica,sans-Serif" font-size="10.00">ParametersFromDenoptimParamsFile</text>
</a>
</g>
</g>
<!-- Node1&#45;&gt;Node29 -->
<g id="edge29" class="edge">
<title>Node1&#45;&gt;Node29</title>
<path fill="none" stroke="midnightblue" d="M1226.4,-383.56C1208.57,-355.48 1175.15,-309.71 1134,-285.5 1125.41,-280.44 1115.92,-276.41 1106.18,-273.18"/>
<polygon fill="midnightblue" stroke="midnightblue" points="1223.6,-385.68 1231.84,-392.34 1229.56,-382 1223.6,-385.68"/>
</g>
<!-- Node30 -->
<g id="node30" class="node">
<title>Node30</title>
<g id="a_node30"><a xlink:href="classdenoptim_1_1programs_1_1grapheditor_1_1_graph_ed_parameters.html#a1f96c8b37f5ae25a220182d617534023" target="_top" xlink:title="Processes all parameters and initialize related objects.">
<polygon fill="white" stroke="black" points="920.5,-441.5 920.5,-471.5 1111.5,-471.5 1111.5,-441.5 920.5,-441.5"/>
<text text-anchor="start" x="928.5" y="-459.5" font-family="Helvetica,sans-Serif" font-size="10.00">denoptim.programs.grapheditor.</text>
<text text-anchor="middle" x="1016" y="-448.5" font-family="Helvetica,sans-Serif" font-size="10.00">GraphEdParameters.processParameters</text>
</a>
</g>
</g>
<!-- Node1&#45;&gt;Node30 -->
<g id="edge30" class="edge">
<title>Node1&#45;&gt;Node30</title>
<path fill="none" stroke="midnightblue" d="M1167.9,-424.83C1156.57,-427.45 1144.98,-430.09 1134,-432.5 1120.43,-435.48 1105.95,-438.55 1091.97,-441.45"/>
<polygon fill="midnightblue" stroke="midnightblue" points="1168.83,-428.21 1177.78,-422.53 1167.24,-421.39 1168.83,-428.21"/>
</g>
<!-- Node31 -->
<g id="node31" class="node">
<title>Node31</title>
<g id="a_node31"><a xlink:href="classdenoptim_1_1programs_1_1graphlisthandler_1_1_graph_lists_handler_parameters.html#a98f687cfec97ad11454cbeb41e1e54bd" target="_top" xlink:title="Processes all parameters and initialize related objects.">
<polygon fill="white" stroke="black" points="898,-147.5 898,-177.5 1134,-177.5 1134,-147.5 898,-147.5"/>
<text text-anchor="start" x="906" y="-165.5" font-family="Helvetica,sans-Serif" font-size="10.00">denoptim.programs.graphlisthandler.</text>
<text text-anchor="middle" x="1016" y="-154.5" font-family="Helvetica,sans-Serif" font-size="10.00">GraphListsHandlerParameters.processParameters</text>
</a>
</g>
</g>
<!-- Node1&#45;&gt;Node31 -->
<g id="edge32" class="edge">
<title>Node1&#45;&gt;Node31</title>
<path fill="none" stroke="midnightblue" d="M1235.82,-382.29C1225.85,-336.02 1197.98,-237.69 1134,-187.5 1129.1,-183.65 1123.74,-180.37 1118.09,-177.56"/>
<polygon fill="midnightblue" stroke="midnightblue" points="1232.45,-383.27 1237.88,-392.36 1239.31,-381.87 1232.45,-383.27"/>
</g>
<!-- Node32 -->
<g id="node32" class="node">
<title>Node32</title>
<g id="a_node32"><a xlink:href="classdenoptim_1_1io_1_1_denoptim_i_o.html#a468b91723acb5df58e0efdb1ae9e41a6" target="_top" xlink:title="Reads the file defined in DENOPTIMConstants#RECENTFILESLIST and makes a map that contains the pathnam...">
<polygon fill="white" stroke="black" points="945.5,-98.5 945.5,-128.5 1086.5,-128.5 1086.5,-98.5 945.5,-98.5"/>
<text text-anchor="start" x="953.5" y="-116.5" font-family="Helvetica,sans-Serif" font-size="10.00">denoptim.io.DenoptimIO.read</text>
<text text-anchor="middle" x="1016" y="-105.5" font-family="Helvetica,sans-Serif" font-size="10.00">RecentFilesMap</text>
</a>
</g>
</g>
<!-- Node1&#45;&gt;Node32 -->
<g id="edge34" class="edge">
<title>Node1&#45;&gt;Node32</title>
<path fill="none" stroke="midnightblue" d="M1238.3,-382.5C1232.19,-328.95 1210.06,-202.84 1134,-138.5 1120.76,-127.3 1103.71,-120.74 1086.74,-117"/>
<polygon fill="midnightblue" stroke="midnightblue" points="1234.82,-382.91 1239.35,-392.49 1241.79,-382.18 1234.82,-382.91"/>
</g>
<!-- Node37 -->
<g id="node37" class="node">
<title>Node37</title>
<g id="a_node37"><a xlink:href="classdenoptim_1_1graph_1_1rings_1_1_ring_closures_archive.html#a930756904c3c67a75e84a373e898b842" target="_top" xlink:title="Construct the library of ring closing substructures from an existing index file.">
<polygon fill="white" stroke="black" points="925.5,-49.5 925.5,-79.5 1106.5,-79.5 1106.5,-49.5 925.5,-49.5"/>
<text text-anchor="start" x="933.5" y="-67.5" font-family="Helvetica,sans-Serif" font-size="10.00">denoptim.graph.rings.Ring</text>
<text text-anchor="middle" x="1016" y="-56.5" font-family="Helvetica,sans-Serif" font-size="10.00">ClosuresArchive.RingClosuresArchive</text>
</a>
</g>
</g>
<!-- Node1&#45;&gt;Node37 -->
<g id="edge39" class="edge">
<title>Node1&#45;&gt;Node37</title>
<path fill="none" stroke="midnightblue" d="M1240.03,-382.26C1237.45,-321.87 1222.09,-168.19 1134,-89.5 1126.1,-82.44 1116.7,-77.21 1106.72,-73.34"/>
<polygon fill="midnightblue" stroke="midnightblue" points="1236.53,-382.54 1240.37,-392.42 1243.53,-382.3 1236.53,-382.54"/>
</g>
<!-- Node38 -->
<g id="node38" class="node">
<title>Node38</title>
<g id="a_node38"><a xlink:href="classdenoptim_1_1programs_1_1denovo_1_1_g_a_parameters_test.html#a5f81adfed5156347b58d54172f7618d8" target="_top" xlink:title=" ">
<polygon fill="white" stroke="black" points="939,-0.5 939,-30.5 1093,-30.5 1093,-0.5 939,-0.5"/>
<text text-anchor="start" x="947" y="-18.5" font-family="Helvetica,sans-Serif" font-size="10.00">denoptim.programs.denovo.</text>
<text text-anchor="middle" x="1016" y="-7.5" font-family="Helvetica,sans-Serif" font-size="10.00">GAParametersTest.testLogging</text>
</a>
</g>
</g>
<!-- Node1&#45;&gt;Node38 -->
<g id="edge40" class="edge">
<title>Node1&#45;&gt;Node38</title>
<path fill="none" stroke="midnightblue" d="M1241.4,-382.46C1242.35,-315.83 1235.13,-132.9 1134,-39.5 1122.73,-29.09 1108.2,-22.69 1093.23,-18.86"/>
<polygon fill="midnightblue" stroke="midnightblue" points="1237.91,-382.4 1241.19,-392.47 1244.9,-382.55 1237.91,-382.4"/>
</g>
<!-- Node4 -->
<g id="node4" class="node">
<title>Node4</title>
<g id="a_node4"><a xlink:href="classdenoptim_1_1gui_1_1_f_s_params_dialog.html#ae39602275c1287e6916f7693a0824b08" target="_top" xlink:title="Reads all the parameters, calls the interpreters, and eventually creates the static FragmentSpace obj...">
<polygon fill="white" stroke="black" points="672.5,-735.5 672.5,-765.5 845.5,-765.5 845.5,-735.5 672.5,-735.5"/>
<text text-anchor="start" x="680.5" y="-753.5" font-family="Helvetica,sans-Serif" font-size="10.00">denoptim.gui.FSParamsDialog.make</text>
<text text-anchor="middle" x="759" y="-742.5" font-family="Helvetica,sans-Serif" font-size="10.00">FragSpace</text>
</a>
</g>
</g>
<!-- Node3&#45;&gt;Node4 -->
<g id="edge3" class="edge">
<title>Node3&#45;&gt;Node4</title>
<path fill="none" stroke="midnightblue" d="M919.17,-750.5C895.08,-750.5 869.39,-750.5 845.83,-750.5"/>
<polygon fill="midnightblue" stroke="midnightblue" points="919.38,-754 929.38,-750.5 919.38,-747 919.38,-754"/>
</g>
<!-- Node5 -->
<g id="node5" class="node">
<title>Node5</title>
<g id="a_node5"><a xlink:href="classdenoptim_1_1gui_1_1_f_s_params_dialog.html#a5a9b51978e6cfce0b434a8d72c7c6107" target="_top" xlink:title="Constructor.">
<polygon fill="white" stroke="black" points="442.5,-759.5 442.5,-789.5 591.5,-789.5 591.5,-759.5 442.5,-759.5"/>
<text text-anchor="start" x="450.5" y="-777.5" font-family="Helvetica,sans-Serif" font-size="10.00">denoptim.gui.FSParamsDialog.</text>
<text text-anchor="middle" x="517" y="-766.5" font-family="Helvetica,sans-Serif" font-size="10.00">FSParamsDialog</text>
</a>
</g>
</g>
<!-- Node4&#45;&gt;Node5 -->
<g id="edge4" class="edge">
<title>Node4&#45;&gt;Node5</title>
<path fill="none" stroke="midnightblue" d="M662.37,-760.06C638.84,-762.42 613.99,-764.9 591.67,-767.13"/>
<polygon fill="midnightblue" stroke="midnightblue" points="662.77,-763.54 672.37,-759.06 662.07,-756.58 662.77,-763.54"/>
</g>
<!-- Node6 -->
<g id="node6" class="node">
<title>Node6</title>
<g id="a_node6"><a xlink:href="classdenoptim_1_1gui_1_1_g_u_i_graph_handler.html#a67ce3e03e9d13d3f312652296d25c0a5" target="_top" xlink:title=" ">
<polygon fill="white" stroke="black" points="431,-710.5 431,-740.5 603,-740.5 603,-710.5 431,-710.5"/>
<text text-anchor="start" x="439" y="-728.5" font-family="Helvetica,sans-Serif" font-size="10.00">denoptim.gui.GUIGraphHandler.load</text>
<text text-anchor="middle" x="517" y="-717.5" font-family="Helvetica,sans-Serif" font-size="10.00">FragmentSpace</text>
</a>
</g>
</g>
<!-- Node4&#45;&gt;Node6 -->
<g id="edge5" class="edge">
<title>Node4&#45;&gt;Node6</title>
<path fill="none" stroke="midnightblue" d="M662.26,-740.53C642.73,-738.49 622.32,-736.37 603.19,-734.37"/>
<polygon fill="midnightblue" stroke="midnightblue" points="662.06,-744.03 672.37,-741.58 662.79,-737.06 662.06,-744.03"/>
</g>
<!-- Node7 -->
<g id="node7" class="node">
<title>Node7</title>
<g id="a_node7"><a xlink:href="classdenoptim_1_1gui_1_1_g_u_i_graph_handler.html#af5b000c105018cbd7c262b34f9750044" target="_top" xlink:title="Initialize the panel and add buttons.">
<polygon fill="white" stroke="black" points="190,-716 190,-735 378,-735 378,-716 190,-716"/>
<text text-anchor="middle" x="284" y="-723" font-family="Helvetica,sans-Serif" font-size="10.00">denoptim.gui.GUIGraphHandler.initialize</text>
</a>
</g>
</g>
<!-- Node6&#45;&gt;Node7 -->
<g id="edge6" class="edge">
<title>Node6&#45;&gt;Node7</title>
<path fill="none" stroke="midnightblue" d="M420.77,-725.5C406.64,-725.5 392.1,-725.5 378.02,-725.5"/>
<polygon fill="midnightblue" stroke="midnightblue" points="420.97,-729 430.97,-725.5 420.97,-722 420.97,-729"/>
</g>
<!-- Node8 -->
<g id="node8" class="node">
<title>Node8</title>
<g id="a_node8"><a xlink:href="classdenoptim_1_1gui_1_1_g_u_i_graph_handler.html#ab7d010d9a384f6b85edce47c95d6723b" target="_top" xlink:title="Constructor.">
<polygon fill="white" stroke="black" points="0,-710.5 0,-740.5 154,-740.5 154,-710.5 0,-710.5"/>
<text text-anchor="start" x="8" y="-728.5" font-family="Helvetica,sans-Serif" font-size="10.00">denoptim.gui.GUIGraphHandler.</text>
<text text-anchor="middle" x="77" y="-717.5" font-family="Helvetica,sans-Serif" font-size="10.00">GUIGraphHandler</text>
</a>
</g>
</g>
<!-- Node7&#45;&gt;Node8 -->
<g id="edge7" class="edge">
<title>Node7&#45;&gt;Node8</title>
<path fill="none" stroke="midnightblue" d="M179.69,-725.5C171.07,-725.5 162.45,-725.5 154.09,-725.5"/>
<polygon fill="midnightblue" stroke="midnightblue" points="179.8,-729 189.8,-725.5 179.8,-722 179.8,-729"/>
</g>
<!-- Node11 -->
<g id="node11" class="node">
<title>Node11</title>
<g id="a_node11"><a xlink:href="classdenoptim_1_1programs_1_1combinatorial_1_1_frag_space_explorer.html#a1c6a2aae9ab686d5c7c0fc6246f7aa61" target="_top" xlink:title=" ">
<polygon fill="white" stroke="black" points="678.5,-637.5 678.5,-667.5 839.5,-667.5 839.5,-637.5 678.5,-637.5"/>
<text text-anchor="start" x="686.5" y="-655.5" font-family="Helvetica,sans-Serif" font-size="10.00">denoptim.programs.combinatorial.</text>
<text text-anchor="middle" x="759" y="-644.5" font-family="Helvetica,sans-Serif" font-size="10.00">FragSpaceExplorer.runProgram</text>
</a>
</g>
</g>
<!-- Node10&#45;&gt;Node11 -->
<g id="edge10" class="edge">
<title>Node10&#45;&gt;Node11</title>
<path fill="none" stroke="midnightblue" d="M920.37,-652.5C893.8,-652.5 865.18,-652.5 839.58,-652.5"/>
<polygon fill="midnightblue" stroke="midnightblue" points="920.44,-656 930.44,-652.5 920.44,-649 920.44,-656"/>
</g>
<!-- Node13 -->
<g id="node13" class="node">
<title>Node13</title>
<g id="a_node13"><a xlink:href="classdenoptim_1_1programs_1_1fitnessevaluator_1_1_fitness_runner.html#a557845da14612ff98352debd815ef557" target="_top" xlink:title=" ">
<polygon fill="white" stroke="black" points="673,-588.5 673,-618.5 845,-618.5 845,-588.5 673,-588.5"/>
<text text-anchor="start" x="681" y="-606.5" font-family="Helvetica,sans-Serif" font-size="10.00">denoptim.programs.fitnessevaluator.</text>
<text text-anchor="middle" x="759" y="-595.5" font-family="Helvetica,sans-Serif" font-size="10.00">FitnessRunner.runProgram</text>
</a>
</g>
</g>
<!-- Node12&#45;&gt;Node13 -->
<g id="edge12" class="edge">
<title>Node12&#45;&gt;Node13</title>
<path fill="none" stroke="midnightblue" d="M919.73,-603.5C895.26,-603.5 869.1,-603.5 845.19,-603.5"/>
<polygon fill="midnightblue" stroke="midnightblue" points="919.73,-607 929.73,-603.5 919.73,-600 919.73,-607"/>
</g>
<!-- Node15 -->
<g id="node15" class="node">
<title>Node15</title>
<g id="a_node15"><a xlink:href="classdenoptim_1_1programs_1_1genetweeker_1_1_gene_ops_runner.html#a3c2407eb1204a7b25600d3d347d98447" target="_top" xlink:title=" ">
<polygon fill="white" stroke="black" points="679.5,-539.5 679.5,-569.5 838.5,-569.5 838.5,-539.5 679.5,-539.5"/>
<text text-anchor="start" x="687.5" y="-557.5" font-family="Helvetica,sans-Serif" font-size="10.00">denoptim.programs.genetweeker.</text>
<text text-anchor="middle" x="759" y="-546.5" font-family="Helvetica,sans-Serif" font-size="10.00">GeneOpsRunner.runProgram</text>
</a>
</g>
</g>
<!-- Node14&#45;&gt;Node15 -->
<g id="edge14" class="edge">
<title>Node14&#45;&gt;Node15</title>
<path fill="none" stroke="midnightblue" d="M896.59,-554.5C876.9,-554.5 856.92,-554.5 838.53,-554.5"/>
<polygon fill="midnightblue" stroke="midnightblue" points="896.86,-558 906.86,-554.5 896.86,-551 896.86,-558"/>
</g>
<!-- Node17 -->
<g id="node17" class="node">
<title>Node17</title>
<g id="a_node17"><a xlink:href="classdenoptim_1_1programs_1_1grapheditor_1_1_graph_editor.html#a649a62e3d4635ef4c19424fa49e6dcd4" target="_top" xlink:title=" ">
<polygon fill="white" stroke="black" points="683,-416.5 683,-446.5 835,-446.5 835,-416.5 683,-416.5"/>
<text text-anchor="start" x="691" y="-434.5" font-family="Helvetica,sans-Serif" font-size="10.00">denoptim.programs.grapheditor.</text>
<text text-anchor="middle" x="759" y="-423.5" font-family="Helvetica,sans-Serif" font-size="10.00">GraphEditor.runProgram</text>
</a>
</g>
</g>
<!-- Node16&#45;&gt;Node17 -->
<g id="edge16" class="edge">
<title>Node16&#45;&gt;Node17</title>
<path fill="none" stroke="midnightblue" d="M914.36,-416.97C887.97,-419.46 859.98,-422.09 835.18,-424.42"/>
<polygon fill="midnightblue" stroke="midnightblue" points="914.75,-420.45 924.38,-416.03 914.09,-413.48 914.75,-420.45"/>
</g>
<!-- Node19 -->
<g id="node19" class="node">
<title>Node19</title>
<g id="a_node19"><a xlink:href="classdenoptim_1_1programs_1_1graphlisthandler_1_1_graph_lists_handler.html#a82e75728262a789cc27189d910b5c74a" target="_top" xlink:title=" ">
<polygon fill="white" stroke="black" points="673,-184.5 673,-214.5 845,-214.5 845,-184.5 673,-184.5"/>
<text text-anchor="start" x="681" y="-202.5" font-family="Helvetica,sans-Serif" font-size="10.00">denoptim.programs.graphlisthandler.</text>
<text text-anchor="middle" x="759" y="-191.5" font-family="Helvetica,sans-Serif" font-size="10.00">GraphListsHandler.runProgram</text>
</a>
</g>
</g>
<!-- Node18&#45;&gt;Node19 -->
<g id="edge18" class="edge">
<title>Node18&#45;&gt;Node19</title>
<path fill="none" stroke="midnightblue" d="M892.02,-205.71C876.17,-204.97 860.23,-204.22 845.18,-203.51"/>
<polygon fill="midnightblue" stroke="midnightblue" points="892.26,-209.23 902.41,-206.2 892.59,-202.24 892.26,-209.23"/>
</g>
<!-- Node21 -->
<g id="node21" class="node">
<title>Node21</title>
<g id="a_node21"><a xlink:href="classdenoptim_1_1programs_1_1isomorphism_1_1_isomorphism.html#a558ff128682d8685e2c95b8eeea85461" target="_top" xlink:title=" ">
<polygon fill="white" stroke="black" points="679.5,-490.5 679.5,-520.5 838.5,-520.5 838.5,-490.5 679.5,-490.5"/>
<text text-anchor="start" x="687.5" y="-508.5" font-family="Helvetica,sans-Serif" font-size="10.00">denoptim.programs.isomorphism.</text>
<text text-anchor="middle" x="759" y="-497.5" font-family="Helvetica,sans-Serif" font-size="10.00">Isomorphism.runProgram</text>
</a>
</g>
</g>
<!-- Node20&#45;&gt;Node21 -->
<g id="edge20" class="edge">
<title>Node20&#45;&gt;Node21</title>
<path fill="none" stroke="midnightblue" d="M904.82,-505.5C882.63,-505.5 859.74,-505.5 838.88,-505.5"/>
<polygon fill="midnightblue" stroke="midnightblue" points="904.95,-509 914.95,-505.5 904.95,-502 904.95,-509"/>
</g>
<!-- Node23 -->
<g id="node23" class="node">
<title>Node23</title>
<g id="a_node23"><a xlink:href="classdenoptim_1_1programs_1_1fragmenter_1_1_fragmenter_parameters.html#a3824a3165946e8f32e4490a2a9be0c00" target="_top" xlink:title="Evaluate consistency of input parameters.">
<polygon fill="white" stroke="black" points="661.5,-343.5 661.5,-373.5 856.5,-373.5 856.5,-343.5 661.5,-343.5"/>
<text text-anchor="start" x="669.5" y="-361.5" font-family="Helvetica,sans-Serif" font-size="10.00">denoptim.programs.fragmenter.</text>
<text text-anchor="middle" x="759" y="-350.5" font-family="Helvetica,sans-Serif" font-size="10.00">FragmenterParameters.checkParameters</text>
</a>
</g>
</g>
<!-- Node22&#45;&gt;Node23 -->
<g id="edge22" class="edge">
<title>Node22&#45;&gt;Node23</title>
<path fill="none" stroke="midnightblue" d="M936.04,-324.67C904.87,-330.66 869.15,-337.53 838.06,-343.5"/>
<polygon fill="midnightblue" stroke="midnightblue" points="936.83,-328.08 945.99,-322.76 935.51,-321.21 936.83,-328.08"/>
</g>
<!-- Node26 -->
<g id="node26" class="node">
<title>Node26</title>
<g id="a_node26"><a xlink:href="classdenoptim_1_1programs_1_1moldecularmodelbuilder_1_1_m_m_builder_parameters.html#a9728bc4268329cb39bbea267ad9760c2" target="_top" xlink:title="Check all parameters.">
<polygon fill="white" stroke="black" points="656,-292.5 656,-322.5 862,-322.5 862,-292.5 656,-292.5"/>
<text text-anchor="start" x="664" y="-310.5" font-family="Helvetica,sans-Serif" font-size="10.00">denoptim.programs.moldecularmodelbuilder.</text>
<text text-anchor="middle" x="759" y="-299.5" font-family="Helvetica,sans-Serif" font-size="10.00">MMBuilderParameters.checkParameters</text>
</a>
</g>
</g>
<!-- Node22&#45;&gt;Node26 -->
<g id="edge25" class="edge">
<title>Node22&#45;&gt;Node26</title>
<path fill="none" stroke="midnightblue" d="M935.82,-308.88C912.5,-308.7 886.65,-308.49 862.11,-308.3"/>
<polygon fill="midnightblue" stroke="midnightblue" points="935.97,-312.38 945.99,-308.96 936.02,-305.38 935.97,-312.38"/>
</g>
<!-- Node24 -->
<g id="node24" class="node">
<title>Node24</title>
<g id="a_node24"><a xlink:href="classdenoptim_1_1programs_1_1fragmenter_1_1_fragmenter.html#aa27df9705e3aed34cc8cb8bc05e6ce85" target="_top" xlink:title=" ">
<polygon fill="white" stroke="black" points="442,-397.5 442,-427.5 592,-427.5 592,-397.5 442,-397.5"/>
<text text-anchor="start" x="450" y="-415.5" font-family="Helvetica,sans-Serif" font-size="10.00">denoptim.programs.fragmenter.</text>
<text text-anchor="middle" x="517" y="-404.5" font-family="Helvetica,sans-Serif" font-size="10.00">Fragmenter.runProgram</text>
</a>
</g>
</g>
<!-- Node23&#45;&gt;Node24 -->
<g id="edge23" class="edge">
<title>Node23&#45;&gt;Node24</title>
<path fill="none" stroke="midnightblue" d="M681.25,-375.77C650.26,-382.74 614.83,-390.71 584.91,-397.45"/>
<polygon fill="midnightblue" stroke="midnightblue" points="682.16,-379.15 691.15,-373.54 680.62,-372.32 682.16,-379.15"/>
</g>
<!-- Node25 -->
<g id="node25" class="node">
<title>Node25</title>
<g id="a_node25"><a xlink:href="classdenoptim_1_1fragmenter_1_1_parallel_fragmentation_algorithm_test.html#a11b2178cd3d55ba7f1fe1e0e047dd684" target="_top" xlink:title=" ">
<polygon fill="white" stroke="black" points="438,-338 438,-379 596,-379 596,-338 438,-338"/>
<text text-anchor="start" x="446" y="-367" font-family="Helvetica,sans-Serif" font-size="10.00">denoptim.fragmenter.Parallel</text>
<text text-anchor="start" x="446" y="-356" font-family="Helvetica,sans-Serif" font-size="10.00">FragmentationAlgorithmTest.test</text>
<text text-anchor="middle" x="517" y="-345" font-family="Helvetica,sans-Serif" font-size="10.00">SplitInputForThreads</text>
</a>
</g>
</g>
<!-- Node23&#45;&gt;Node25 -->
<g id="edge24" class="edge">
<title>Node23&#45;&gt;Node25</title>
<path fill="none" stroke="midnightblue" d="M651.22,-358.5C632.76,-358.5 613.87,-358.5 596.34,-358.5"/>
<polygon fill="midnightblue" stroke="midnightblue" points="651.42,-362 661.42,-358.5 651.42,-355 651.42,-362"/>
</g>
<!-- Node27 -->
<g id="node27" class="node">
<title>Node27</title>
<g id="a_node27"><a xlink:href="classdenoptim_1_1programs_1_1moldecularmodelbuilder_1_1_molecular_model_builder.html#ad2e44290de6a861274def677044e9754" target="_top" xlink:title=" ">
<polygon fill="white" stroke="black" points="414,-289.5 414,-319.5 620,-319.5 620,-289.5 414,-289.5"/>
<text text-anchor="start" x="422" y="-307.5" font-family="Helvetica,sans-Serif" font-size="10.00">denoptim.programs.moldecularmodelbuilder.</text>
<text text-anchor="middle" x="517" y="-296.5" font-family="Helvetica,sans-Serif" font-size="10.00">MolecularModelBuilder.runProgram</text>
</a>
</g>
</g>
<!-- Node26&#45;&gt;Node27 -->
<g id="edge26" class="edge">
<title>Node26&#45;&gt;Node27</title>
<path fill="none" stroke="midnightblue" d="M645.81,-306.1C637.22,-305.99 628.57,-305.88 620.04,-305.78"/>
<polygon fill="midnightblue" stroke="midnightblue" points="645.83,-309.6 655.87,-306.22 645.91,-302.6 645.83,-309.6"/>
</g>
<!-- Node28&#45;&gt;Node23 -->
<g id="edge28" class="edge">
<title>Node28&#45;&gt;Node23</title>
<path fill="none" stroke="midnightblue" d="M925.33,-358.5C903.2,-358.5 879.41,-358.5 856.95,-358.5"/>
<polygon fill="midnightblue" stroke="midnightblue" points="925.37,-362 935.37,-358.5 925.37,-355 925.37,-362"/>
</g>
<!-- Node30&#45;&gt;Node17 -->
<g id="edge31" class="edge">
<title>Node30&#45;&gt;Node17</title>
<path fill="none" stroke="midnightblue" d="M910.12,-446.22C885.05,-443.76 858.77,-441.18 835.33,-438.89"/>
<polygon fill="midnightblue" stroke="midnightblue" points="910.12,-449.73 920.41,-447.23 910.8,-442.77 910.12,-449.73"/>
</g>
<!-- Node31&#45;&gt;Node19 -->
<g id="edge33" class="edge">
<title>Node31&#45;&gt;Node19</title>
<path fill="none" stroke="midnightblue" d="M901.2,-179.01C882.42,-181.74 863.24,-184.52 845.31,-187.12"/>
<polygon fill="midnightblue" stroke="midnightblue" points="901.89,-182.45 911.28,-177.55 900.88,-175.52 901.89,-182.45"/>
</g>
<!-- Node33 -->
<g id="node33" class="node">
<title>Node33</title>
<g id="a_node33"><a xlink:href="classdenoptim_1_1files_1_1_file_utils.html#af26a8c9f4eda1e7b0e97fdffef2aeee7" target="_top" xlink:title="Appends an entry to the list of recent files.">
<polygon fill="white" stroke="black" points="693,-62.5 693,-92.5 825,-92.5 825,-62.5 693,-62.5"/>
<text text-anchor="start" x="701" y="-80.5" font-family="Helvetica,sans-Serif" font-size="10.00">denoptim.files.FileUtils.add</text>
<text text-anchor="middle" x="759" y="-69.5" font-family="Helvetica,sans-Serif" font-size="10.00">ToRecentFiles</text>
</a>
</g>
</g>
<!-- Node32&#45;&gt;Node33 -->
<g id="edge35" class="edge">
<title>Node32&#45;&gt;Node33</title>
<path fill="none" stroke="midnightblue" d="M935.03,-102.21C899.69,-97.22 858.66,-91.43 825.21,-86.71"/>
<polygon fill="midnightblue" stroke="midnightblue" points="934.93,-105.73 945.32,-103.66 935.91,-98.8 934.93,-105.73"/>
</g>
<!-- Node34 -->
<g id="node34" class="node">
<title>Node34</title>
<g id="a_node34"><a xlink:href="classdenoptim_1_1gui_1_1_main_tool_bar.html#a94df24e485081c9b9d7441387f409e26" target="_top" xlink:title="Updated the the list of recent files in the &quot;open Recent&quot; menu.">
<polygon fill="white" stroke="black" points="679,-111.5 679,-141.5 839,-141.5 839,-111.5 679,-111.5"/>
<text text-anchor="start" x="687" y="-129.5" font-family="Helvetica,sans-Serif" font-size="10.00">denoptim.gui.MainToolBar.update</text>
<text text-anchor="middle" x="759" y="-118.5" font-family="Helvetica,sans-Serif" font-size="10.00">OpenRecentMenu</text>
</a>
</g>
</g>
<!-- Node32&#45;&gt;Node34 -->
<g id="edge36" class="edge">
<title>Node32&#45;&gt;Node34</title>
<path fill="none" stroke="midnightblue" d="M935.11,-117.57C904.49,-119.13 869.59,-120.91 839.05,-122.47"/>
<polygon fill="midnightblue" stroke="midnightblue" points="935.51,-121.06 945.32,-117.05 935.15,-114.07 935.51,-121.06"/>
</g>
<!-- Node35 -->
<g id="node35" class="node">
<title>Node35</title>
<g id="a_node35"><a xlink:href="classdenoptim_1_1gui_1_1_main_tool_bar.html#a0df9ca063352fbc50f9476f3b2820926" target="_top" xlink:title="Initialize the contents of the tool bar.">
<polygon fill="white" stroke="black" points="434.5,-117 434.5,-136 599.5,-136 599.5,-117 434.5,-117"/>
<text text-anchor="middle" x="517" y="-124" font-family="Helvetica,sans-Serif" font-size="10.00">denoptim.gui.MainToolBar.initialize</text>
</a>
</g>
</g>
<!-- Node34&#45;&gt;Node35 -->
<g id="edge37" class="edge">
<title>Node34&#45;&gt;Node35</title>
<path fill="none" stroke="midnightblue" d="M668.5,-126.5C645.92,-126.5 621.8,-126.5 599.63,-126.5"/>
<polygon fill="midnightblue" stroke="midnightblue" points="668.75,-130 678.75,-126.5 668.75,-123 668.75,-130"/>
</g>
<!-- Node36 -->
<g id="node36" class="node">
<title>Node36</title>
<g id="a_node36"><a xlink:href="classdenoptim_1_1gui_1_1_main_tool_bar.html#a36f4409849998e032342f49b19e6c5b5" target="_top" xlink:title="Constructor that build the tool bar.">
<polygon fill="white" stroke="black" points="218.5,-111.5 218.5,-141.5 349.5,-141.5 349.5,-111.5 218.5,-111.5"/>
<text text-anchor="start" x="226.5" y="-129.5" font-family="Helvetica,sans-Serif" font-size="10.00">denoptim.gui.MainToolBar.</text>
<text text-anchor="middle" x="284" y="-118.5" font-family="Helvetica,sans-Serif" font-size="10.00">MainToolBar</text>
</a>
</g>
</g>
<!-- Node35&#45;&gt;Node36 -->
<g id="edge38" class="edge">
<title>Node35&#45;&gt;Node36</title>
<path fill="none" stroke="midnightblue" d="M424.03,-126.5C399.11,-126.5 372.65,-126.5 349.59,-126.5"/>
<polygon fill="midnightblue" stroke="midnightblue" points="424.23,-130 434.23,-126.5 424.23,-123 424.23,-130"/>
</g>
</g>
</svg>
        <g id="navigator" transform="translate(0 0)" fill="#404254">
                <rect fill="#f2f5e9" fill-opacity="0.5" stroke="#606060" stroke-width=".5" x="0" y="0" width="60" height="60"/>
                <use id="zoomplus" xlink:href="#zoomPlus" x="17" y="9" onmousedown="handleZoom(evt,'in')"/>
                <use id="zoomminus" xlink:href="#zoomMin" x="42" y="9" onmousedown="handleZoom(evt,'out')"/>
                <use id="reset" xlink:href="#resetDef" x="30" y="36" onmousedown="handleReset()"/>
                <g id="arrowUp" xlink:href="#dirArrow" transform="translate(30 24)" onmousedown="handlePan(0,-1)">
                  <use xlink:href="#rim" fill="#404040">
                        <set attributeName="fill" to="#808080" begin="arrowUp.mouseover" end="arrowUp.mouseout"/>
                  </use>
                  <path fill="none" stroke="white" stroke-width="1.5" d="M0,-3.0v7 M-2.5,-0.5L0,-3.0L2.5,-0.5"/>
                </g>
                <g id="arrowRight" xlink:href="#dirArrow" transform="rotate(90) translate(36 -43)" onmousedown="handlePan(1,0)">
                  <use xlink:href="#rim" fill="#404040">
                        <set attributeName="fill" to="#808080" begin="arrowRight.mouseover" end="arrowRight.mouseout"/>
                  </use>
                  <path fill="none" stroke="white" stroke-width="1.5" d="M0,-3.0v7 M-2.5,-0.5L0,-3.0L2.5,-0.5"/>
                </g>
                <g id="arrowDown" xlink:href="#dirArrow" transform="rotate(180) translate(-30 -48)" onmousedown="handlePan(0,1)">
                  <use xlink:href="#rim" fill="#404040">
                        <set attributeName="fill" to="#808080" begin="arrowDown.mouseover" end="arrowDown.mouseout"/>
                  </use>
                  <path fill="none" stroke="white" stroke-width="1.5" d="M0,-3.0v7 M-2.5,-0.5L0,-3.0L2.5,-0.5"/>
                </g>
                <g id="arrowLeft" xlink:href="#dirArrow" transform="rotate(270) translate(-36 17)" onmousedown="handlePan(-1,0)">
                  <use xlink:href="#rim" fill="#404040">
                        <set attributeName="fill" to="#808080" begin="arrowLeft.mouseover" end="arrowLeft.mouseout"/>
                  </use>
                  <path fill="none" stroke="white" stroke-width="1.5" d="M0,-3.0v7 M-2.5,-0.5L0,-3.0L2.5,-0.5"/>
                </g>
        </g>
        <svg viewBox="0 0 15 15" width="100%" height="30px" preserveAspectRatio="xMaxYMin meet">
         <g id="arrow_out" transform="scale(0.3 0.3)">
          <a xlink:href="classdenoptim_1_1files_1_1_file_utils_a16bc762b79f5033f2323fb8728593334_icgraph_org.svg" target="_base">
           <rect id="button" ry="5" rx="5" y="6" x="6" height="38" width="38"
                fill="#f2f5e9" fill-opacity="0.5" stroke="#606060" stroke-width="1.0"/>
           <path id="arrow"
             d="M 11.500037,31.436501 C 11.940474,20.09759 22.043105,11.32322 32.158766,21.979434 L 37.068811,17.246167 C 37.068811,17.246167 37.088388,32 37.088388,32 L 22.160133,31.978069 C 22.160133,31.978069 26.997745,27.140456 26.997745,27.140456 C 18.528582,18.264221 13.291696,25.230495 11.500037,31.436501 z"
             style="fill:#404040;"/>
          </a>
         </g>
        </svg>
</svg>
