<?xml version="1.0" encoding="UTF-8" standalone="no"?>
<!DOCTYPE svg PUBLIC "-//W3C//DTD SVG 1.1//EN"
 "http://www.w3.org/Graphics/SVG/1.1/DTD/svg11.dtd">
<!-- Generated by graphviz version 3.0.0 (20221109.1736)
 -->
<!-- Title: denoptim.fragspace.FragmentSpace.setCappingMap Pages: 1 -->
<svg width="525pt" height="99pt"
 viewBox="0.00 0.00 525.00 98.50" xmlns="http://www.w3.org/2000/svg" xmlns:xlink="http://www.w3.org/1999/xlink">
<g id="graph0" class="graph" transform="scale(1 1) rotate(0) translate(4 94.5)">
<title>denoptim.fragspace.FragmentSpace.setCappingMap</title>
<polygon fill="white" stroke="transparent" points="-4,4 -4,-94.5 521,-94.5 521,4 -4,4"/>
<!-- Node1 -->
<g id="node1" class="node">
<title>Node1</title>
<g id="a_node1"><a xlink:title=" ">
<polygon fill="#bfbfbf" stroke="black" points="372,-33 372,-63 517,-63 517,-33 372,-33"/>
<text text-anchor="start" x="380" y="-51" font-family="Helvetica,sans-Serif" font-size="10.00">denoptim.fragspace.Fragment</text>
<text text-anchor="middle" x="444.5" y="-40" font-family="Helvetica,sans-Serif" font-size="10.00">Space.setCappingMap</text>
</a>
</g>
</g>
<!-- Node2 -->
<g id="node2" class="node">
<title>Node2</title>
<g id="a_node2"><a xlink:href="classdenoptim_1_1fragspace_1_1_fragment_space.html#a4792b534137a7989aab4ab2237d12438" target="_top" xlink:title="Define all components of this fragment space.">
<polygon fill="white" stroke="black" points="186,-60 186,-90 331,-90 331,-60 186,-60"/>
<text text-anchor="start" x="194" y="-78" font-family="Helvetica,sans-Serif" font-size="10.00">denoptim.fragspace.Fragment</text>
<text text-anchor="middle" x="258.5" y="-67" font-family="Helvetica,sans-Serif" font-size="10.00">Space.define</text>
</a>
</g>
</g>
<!-- Node1&#45;&gt;Node2 -->
<g id="edge1" class="edge">
<title>Node1&#45;&gt;Node2</title>
<path fill="none" stroke="midnightblue" d="M361.75,-60C351.59,-61.49 341.27,-63 331.27,-64.47"/>
<polygon fill="midnightblue" stroke="midnightblue" points="362.45,-63.43 371.83,-58.52 361.43,-56.51 362.45,-63.43"/>
</g>
<!-- Node4 -->
<g id="node4" class="node">
<title>Node4</title>
<g id="a_node4"><a xlink:href="classdenoptim_1_1fragspace_1_1_fragment_space.html#a4b3388cb046852895a9a4e57aba492e8" target="_top" xlink:title="Load info from a compatibility matrix file.">
<polygon fill="white" stroke="black" points="181,-0.5 181,-41.5 336,-41.5 336,-0.5 181,-0.5"/>
<text text-anchor="start" x="189" y="-29.5" font-family="Helvetica,sans-Serif" font-size="10.00">denoptim.fragspace.Fragment</text>
<text text-anchor="start" x="189" y="-18.5" font-family="Helvetica,sans-Serif" font-size="10.00">Space.importCompatibilityMatrix</text>
<text text-anchor="middle" x="258.5" y="-7.5" font-family="Helvetica,sans-Serif" font-size="10.00">FromFile</text>
</a>
</g>
</g>
<!-- Node1&#45;&gt;Node4 -->
<g id="edge3" class="edge">
<title>Node1&#45;&gt;Node4</title>
<path fill="none" stroke="midnightblue" d="M361.87,-36.02C353.31,-34.77 344.64,-33.49 336.14,-32.25"/>
<polygon fill="midnightblue" stroke="midnightblue" points="361.43,-39.49 371.83,-37.48 362.45,-32.57 361.43,-39.49"/>
</g>
<!-- Node3 -->
<g id="node3" class="node">
<title>Node3</title>
<g id="a_node3"><a xlink:href="classdenoptim_1_1fragspace_1_1_fragment_space.html#ad10ece408a10dbb06fa5d75747ae1fbb" target="_top" xlink:title="Define all components of a fragment space that implements the attachment point class&#45;approach.">
<polygon fill="white" stroke="black" points="0,-60 0,-90 145,-90 145,-60 0,-60"/>
<text text-anchor="start" x="8" y="-78" font-family="Helvetica,sans-Serif" font-size="10.00">denoptim.fragspace.Fragment</text>
<text text-anchor="middle" x="72.5" y="-67" font-family="Helvetica,sans-Serif" font-size="10.00">Space.FragmentSpace</text>
</a>
</g>
</g>
<!-- Node2&#45;&gt;Node3 -->
<g id="edge2" class="edge">
<title>Node2&#45;&gt;Node3</title>
<path fill="none" stroke="midnightblue" d="M175.75,-75C165.59,-75 155.27,-75 145.27,-75"/>
<polygon fill="midnightblue" stroke="midnightblue" points="175.83,-78.5 185.83,-75 175.83,-71.5 175.83,-78.5"/>
</g>
<!-- Node5 -->
<g id="node5" class="node">
<title>Node5</title>
<g id="a_node5"><a xlink:href="classdenoptim_1_1gui_1_1_f_s_parameters_form.html#a5e0ab7ceb7ad81ee8e14b5e217ab97ba" target="_top" xlink:title=" ">
<polygon fill="white" stroke="black" points="4,-6 4,-36 141,-36 141,-6 4,-6"/>
<text text-anchor="start" x="12" y="-24" font-family="Helvetica,sans-Serif" font-size="10.00">denoptim.gui.FSParameters</text>
<text text-anchor="middle" x="72.5" y="-13" font-family="Helvetica,sans-Serif" font-size="10.00">Form.FSParametersForm</text>
</a>
</g>
</g>
<!-- Node4&#45;&gt;Node5 -->
<g id="edge4" class="edge">
<title>Node4&#45;&gt;Node5</title>
<path fill="none" stroke="midnightblue" d="M170.59,-21C160.75,-21 150.83,-21 141.28,-21"/>
<polygon fill="midnightblue" stroke="midnightblue" points="170.8,-24.5 180.8,-21 170.8,-17.5 170.8,-24.5"/>
</g>
</g>
</svg>
