<?xml version="1.0" encoding="UTF-8" standalone="no"?>
<!DOCTYPE svg PUBLIC "-//W3C//DTD SVG 1.1//EN"
 "http://www.w3.org/Graphics/SVG/1.1/DTD/svg11.dtd">
<!-- Generated by graphviz version 3.0.0 (20221109.1736)
 -->
<!-- Title: denoptim.fitness.descriptors.TanimotoMolSimilarityBySubstructure Pages: 1 -->
<svg width="363pt" height="116pt"
 viewBox="0.00 0.00 363.00 115.50" xmlns="http://www.w3.org/2000/svg" xmlns:xlink="http://www.w3.org/1999/xlink">
<g id="graph0" class="graph" transform="scale(1 1) rotate(0) translate(4 111.5)">
<title>denoptim.fitness.descriptors.TanimotoMolSimilarityBySubstructure</title>
<polygon fill="white" stroke="transparent" points="-4,4 -4,-111.5 359,-111.5 359,4 -4,4"/>
<!-- Node1 -->
<g id="node1" class="node">
<title>Node1</title>
<g id="a_node1"><a xlink:title="Calculates the molecular similarity against a target compound the fingerprint of which is given as pa...">
<polygon fill="#bfbfbf" stroke="black" points="176,-44.5 176,-74.5 355,-74.5 355,-44.5 176,-44.5"/>
<text text-anchor="start" x="184" y="-62.5" font-family="Helvetica,sans-Serif" font-size="10.00">denoptim.fitness.descriptors.</text>
<text text-anchor="middle" x="265.5" y="-51.5" font-family="Helvetica,sans-Serif" font-size="10.00">TanimotoMolSimilarityBySubstructure</text>
</a>
</g>
</g>
<!-- Node2 -->
<g id="node2" class="node">
<title>Node2</title>
<g id="a_node2"><a xlink:title=" ">
<polygon fill="white" stroke="black" points="0,-88 0,-107 140,-107 140,-88 0,-88"/>
<text text-anchor="middle" x="70" y="-95" font-family="Helvetica,sans-Serif" font-size="10.00">AbstractMolecularDescriptor</text>
</a>
</g>
</g>
<!-- Node2&#45;&gt;Node1 -->
<g id="edge1" class="edge">
<title>Node2&#45;&gt;Node1</title>
<path fill="none" stroke="midnightblue" d="M129.75,-85.96C148.04,-82.37 168.49,-78.36 187.82,-74.56"/>
<polygon fill="midnightblue" stroke="midnightblue" points="128.97,-82.55 119.83,-87.91 130.32,-89.42 128.97,-82.55"/>
</g>
<!-- Node3 -->
<g id="node3" class="node">
<title>Node3</title>
<g id="a_node3"><a xlink:title=" ">
<polygon fill="white" stroke="black" points="17,-50 17,-69 123,-69 123,-50 17,-50"/>
<text text-anchor="middle" x="70" y="-57" font-family="Helvetica,sans-Serif" font-size="10.00">IMolecularDescriptor</text>
</a>
</g>
</g>
<!-- Node3&#45;&gt;Node1 -->
<g id="edge2" class="edge">
<title>Node3&#45;&gt;Node1</title>
<path fill="none" stroke="midnightblue" d="M133.24,-59.5C146.79,-59.5 161.38,-59.5 175.72,-59.5"/>
<polygon fill="midnightblue" stroke="midnightblue" points="133.11,-56 123.11,-59.5 133.11,-63 133.11,-56"/>
</g>
<!-- Node4 -->
<g id="node4" class="node">
<title>Node4</title>
<g id="a_node4"><a xlink:href="interfacedenoptim_1_1fitness_1_1_i_denoptim_descriptor.html" target="_top" xlink:title="This interface forces descriptors that are not defined in the CDK ontology to provide information tha...">
<polygon fill="white" stroke="black" points="3,-0.5 3,-30.5 137,-30.5 137,-0.5 3,-0.5"/>
<text text-anchor="start" x="11" y="-18.5" font-family="Helvetica,sans-Serif" font-size="10.00">denoptim.fitness.IDenoptim</text>
<text text-anchor="middle" x="70" y="-7.5" font-family="Helvetica,sans-Serif" font-size="10.00">Descriptor</text>
</a>
</g>
</g>
<!-- Node4&#45;&gt;Node1 -->
<g id="edge3" class="edge">
<title>Node4&#45;&gt;Node1</title>
<path fill="none" stroke="midnightblue" d="M146.94,-32.77C163.95,-36.64 181.85,-40.71 198.42,-44.47"/>
<polygon fill="midnightblue" stroke="midnightblue" points="147.58,-29.32 137.05,-30.52 146.03,-36.15 147.58,-29.32"/>
</g>
</g>
</svg>
