<?xml version="1.0" encoding="UTF-8" standalone="no"?>
<!DOCTYPE svg PUBLIC "-//W3C//DTD SVG 1.1//EN"
 "http://www.w3.org/Graphics/SVG/1.1/DTD/svg11.dtd">
<!-- Generated by graphviz version 3.0.0 (20221109.1736)
 -->
<!-- Title: denoptim.gui.GUIGraphHandler.ConfigTemplateDialog.TemplateConfiguration Pages: 1 -->
<svg width="458pt" height="127pt"
 viewBox="0.00 0.00 458.00 126.50" xmlns="http://www.w3.org/2000/svg" xmlns:xlink="http://www.w3.org/1999/xlink">
<g id="graph0" class="graph" transform="scale(1 1) rotate(0) translate(4 122.5)">
<title>denoptim.gui.GUIGraphHandler.ConfigTemplateDialog.TemplateConfiguration</title>
<polygon fill="white" stroke="transparent" points="-4,4 -4,-122.5 454,-122.5 454,4 -4,4"/>
<!-- Node1 -->
<g id="node1" class="node">
<title>Node1</title>
<g id="a_node1"><a xlink:title="Utility class for a form to configure a template via the GUI.">
<polygon fill="#bfbfbf" stroke="black" points="240,-49.5 240,-79.5 450,-79.5 450,-49.5 240,-49.5"/>
<text text-anchor="start" x="248" y="-67.5" font-family="Helvetica,sans-Serif" font-size="10.00">denoptim.gui.GUIGraphHandler.</text>
<text text-anchor="middle" x="345" y="-56.5" font-family="Helvetica,sans-Serif" font-size="10.00">ConfigTemplateDialog.TemplateConfiguration</text>
</a>
</g>
</g>
<!-- Node2 -->
<g id="node2" class="node">
<title>Node2</title>
<g id="a_node2"><a xlink:title=" ">
<polygon fill="white" stroke="black" points="49.5,-99 49.5,-118 96.5,-118 96.5,-99 49.5,-99"/>
<text text-anchor="middle" x="73" y="-106" font-family="Helvetica,sans-Serif" font-size="10.00">JPanel</text>
</a>
</g>
</g>
<!-- Node2&#45;&gt;Node1 -->
<g id="edge1" class="edge">
<title>Node2&#45;&gt;Node1</title>
<path fill="none" stroke="midnightblue" d="M106.44,-103.21C142.24,-97.38 201.45,-87.73 251.8,-79.52"/>
<polygon fill="midnightblue" stroke="midnightblue" points="105.86,-99.76 96.56,-104.82 106.99,-106.67 105.86,-99.76"/>
</g>
<!-- Node3 -->
<g id="node3" class="node">
<title>Node3</title>
<g id="a_node3"><a xlink:title=" ">
<polygon fill="white" stroke="black" points="0,-49.5 0,-79.5 146,-79.5 146,-49.5 0,-49.5"/>
<text text-anchor="start" x="8" y="-67.5" font-family="Helvetica,sans-Serif" font-size="10.00">JComboBox&lt; denoptim.graph.</text>
<text text-anchor="middle" x="73" y="-56.5" font-family="Helvetica,sans-Serif" font-size="10.00">Template.ContractLevel &gt;</text>
</a>
</g>
</g>
<!-- Node3&#45;&gt;Node1 -->
<g id="edge2" class="edge">
<title>Node3&#45;&gt;Node1</title>
<path fill="none" stroke="#9a32cd" stroke-dasharray="5,2" d="M156.32,-64.5C182.7,-64.5 212.26,-64.5 239.98,-64.5"/>
<polygon fill="#9a32cd" stroke="#9a32cd" points="156,-61 146,-64.5 156,-68 156,-61"/>
<text text-anchor="middle" x="193" y="-67.5" font-family="Helvetica,sans-Serif" font-size="10.00"> contractCmb</text>
</g>
<!-- Node4 -->
<g id="node4" class="node">
<title>Node4</title>
<g id="a_node4"><a xlink:title=" ">
<polygon fill="white" stroke="black" points="0,-0.5 0,-30.5 146,-30.5 146,-0.5 0,-0.5"/>
<text text-anchor="start" x="8" y="-18.5" font-family="Helvetica,sans-Serif" font-size="10.00">JComboBox&lt; denoptim.graph.</text>
<text text-anchor="middle" x="73" y="-7.5" font-family="Helvetica,sans-Serif" font-size="10.00">Vertex.BBType &gt;</text>
</a>
</g>
</g>
<!-- Node4&#45;&gt;Node1 -->
<g id="edge3" class="edge">
<title>Node4&#45;&gt;Node1</title>
<path fill="none" stroke="#9a32cd" stroke-dasharray="5,2" d="M156.16,-30.41C189.46,-36.45 227.85,-43.42 261.21,-49.48"/>
<polygon fill="#9a32cd" stroke="#9a32cd" points="156.46,-26.91 146,-28.57 155.21,-33.8 156.46,-26.91"/>
<text text-anchor="middle" x="193" y="-44.5" font-family="Helvetica,sans-Serif" font-size="10.00"> bbTypeCmb</text>
</g>
</g>
</svg>
