<?xml version="1.0" encoding="UTF-8" standalone="no"?>
<!DOCTYPE svg PUBLIC "-//W3C//DTD SVG 1.1//EN"
 "http://www.w3.org/Graphics/SVG/1.1/DTD/svg11.dtd">
<!-- Generated by graphviz version 3.0.0 (20221109.1736)
 -->
<!-- Title: denoptim.graph.EmptyVertex.clone Pages: 1 -->
<svg width="574pt" height="235pt"
 viewBox="0.00 0.00 574.00 235.00" xmlns="http://www.w3.org/2000/svg" xmlns:xlink="http://www.w3.org/1999/xlink">
<g id="graph0" class="graph" transform="scale(1 1) rotate(0) translate(4 231)">
<title>denoptim.graph.EmptyVertex.clone</title>
<polygon fill="white" stroke="transparent" points="-4,4 -4,-231 570,-231 570,4 -4,4"/>
<!-- Node1 -->
<g id="node1" class="node">
<title>Node1</title>
<g id="a_node1"><a xlink:title="Returns a deep&#45;copy of this vertex.">
<polygon fill="#bfbfbf" stroke="black" points="401,-104 401,-123 566,-123 566,-104 401,-104"/>
<text text-anchor="middle" x="483.5" y="-111" font-family="Helvetica,sans-Serif" font-size="10.00">denoptim.graph.EmptyVertex.clone</text>
</a>
</g>
</g>
<!-- Node2 -->
<g id="node2" class="node">
<title>Node2</title>
<g id="a_node2"><a xlink:href="classdenoptim_1_1graph_1_1_d_graph_test.html#a0fd4c84840d3eb11b1838a627d9e6956" target="_top" xlink:title="Returns a graph with definition of symmetric vertexes and symmetric APs meant for testing purposes.">
<polygon fill="white" stroke="black" points="196.5,-196.5 196.5,-226.5 360.5,-226.5 360.5,-196.5 196.5,-196.5"/>
<text text-anchor="start" x="204.5" y="-214.5" font-family="Helvetica,sans-Serif" font-size="10.00">denoptim.graph.DGraphTest.make</text>
<text text-anchor="middle" x="278.5" y="-203.5" font-family="Helvetica,sans-Serif" font-size="10.00">TestGraphM</text>
</a>
</g>
</g>
<!-- Node1&#45;&gt;Node2 -->
<g id="edge1" class="edge">
<title>Node1&#45;&gt;Node2</title>
<path fill="none" stroke="midnightblue" d="M461.6,-129.29C438.88,-145.81 400.99,-171.52 365,-187.5 357.53,-190.82 349.49,-193.79 341.44,-196.42"/>
<polygon fill="midnightblue" stroke="midnightblue" points="463.83,-131.99 469.81,-123.24 459.68,-126.36 463.83,-131.99"/>
</g>
<!-- Node4 -->
<g id="node4" class="node">
<title>Node4</title>
<g id="a_node4"><a xlink:href="classdenoptim_1_1graph_1_1_d_graph_test.html#ade544f5bf2f66ccb7a4f179e84b33c1c" target="_top" xlink:title="Returns a graph with peculiar definition of symmetric vertexes and symmetric APs meant for testing pu...">
<polygon fill="white" stroke="black" points="196.5,-147.5 196.5,-177.5 360.5,-177.5 360.5,-147.5 196.5,-147.5"/>
<text text-anchor="start" x="204.5" y="-165.5" font-family="Helvetica,sans-Serif" font-size="10.00">denoptim.graph.DGraphTest.make</text>
<text text-anchor="middle" x="278.5" y="-154.5" font-family="Helvetica,sans-Serif" font-size="10.00">TestGraphN</text>
</a>
</g>
</g>
<!-- Node1&#45;&gt;Node4 -->
<g id="edge3" class="edge">
<title>Node1&#45;&gt;Node4</title>
<path fill="none" stroke="midnightblue" d="M433.09,-125.43C405.6,-132.06 371.12,-140.39 341.8,-147.46"/>
<polygon fill="midnightblue" stroke="midnightblue" points="433.98,-128.81 442.88,-123.06 432.34,-122.01 433.98,-128.81"/>
</g>
<!-- Node5 -->
<g id="node5" class="node">
<title>Node5</title>
<g id="a_node5"><a xlink:href="classdenoptim_1_1graph_1_1_vertex_test.html#ab36c441c57e9852e2be6d810d80fbc87" target="_top" xlink:title=" ">
<polygon fill="white" stroke="black" points="203,-98.5 203,-128.5 354,-128.5 354,-98.5 203,-98.5"/>
<text text-anchor="start" x="211" y="-116.5" font-family="Helvetica,sans-Serif" font-size="10.00">denoptim.graph.VertexTest.test</text>
<text text-anchor="middle" x="278.5" y="-105.5" font-family="Helvetica,sans-Serif" font-size="10.00">Clone</text>
</a>
</g>
</g>
<!-- Node1&#45;&gt;Node5 -->
<g id="edge4" class="edge">
<title>Node1&#45;&gt;Node5</title>
<path fill="none" stroke="midnightblue" d="M390.61,-113.5C378.4,-113.5 366,-113.5 354.13,-113.5"/>
<polygon fill="midnightblue" stroke="midnightblue" points="390.81,-117 400.81,-113.5 390.81,-110 390.81,-117"/>
</g>
<!-- Node6 -->
<g id="node6" class="node">
<title>Node6</title>
<g id="a_node6"><a xlink:href="classdenoptim_1_1graph_1_1_attachment_point_test.html#a309f26b0bad9acff15e95672089c2432" target="_top" xlink:title=" ">
<polygon fill="white" stroke="black" points="211,-49.5 211,-79.5 346,-79.5 346,-49.5 211,-49.5"/>
<text text-anchor="start" x="219" y="-67.5" font-family="Helvetica,sans-Serif" font-size="10.00">denoptim.graph.Attachment</text>
<text text-anchor="middle" x="278.5" y="-56.5" font-family="Helvetica,sans-Serif" font-size="10.00">PointTest.testSameAs</text>
</a>
</g>
</g>
<!-- Node1&#45;&gt;Node6 -->
<g id="edge5" class="edge">
<title>Node1&#45;&gt;Node6</title>
<path fill="none" stroke="midnightblue" d="M433.09,-101.57C405.6,-94.94 371.12,-86.61 341.8,-79.54"/>
<polygon fill="midnightblue" stroke="midnightblue" points="432.34,-104.99 442.88,-103.94 433.98,-98.19 432.34,-104.99"/>
</g>
<!-- Node7 -->
<g id="node7" class="node">
<title>Node7</title>
<g id="a_node7"><a xlink:href="classdenoptim_1_1graph_1_1_attachment_point_test.html#af2fc2503c300637c2369eb4347c990c1" target="_top" xlink:title=" ">
<polygon fill="white" stroke="black" points="192,-0.5 192,-30.5 365,-30.5 365,-0.5 192,-0.5"/>
<text text-anchor="start" x="200" y="-18.5" font-family="Helvetica,sans-Serif" font-size="10.00">denoptim.graph.Attachment</text>
<text text-anchor="middle" x="278.5" y="-7.5" font-family="Helvetica,sans-Serif" font-size="10.00">PointTest.testSameAs_DiffAPClass</text>
</a>
</g>
</g>
<!-- Node1&#45;&gt;Node7 -->
<g id="edge6" class="edge">
<title>Node1&#45;&gt;Node7</title>
<path fill="none" stroke="midnightblue" d="M461.53,-98.02C438.75,-81.8 400.81,-56.5 365,-40.5 356.67,-36.78 347.64,-33.44 338.67,-30.52"/>
<polygon fill="midnightblue" stroke="midnightblue" points="459.6,-100.94 469.76,-103.95 463.7,-95.26 459.6,-100.94"/>
</g>
<!-- Node3 -->
<g id="node3" class="node">
<title>Node3</title>
<g id="a_node3"><a xlink:href="classdenoptim_1_1graph_1_1_d_graph_test.html#a05b87ffb43b9710fcea83b0777654e27" target="_top" xlink:title=" ">
<polygon fill="white" stroke="black" points="0,-196.5 0,-226.5 156,-226.5 156,-196.5 0,-196.5"/>
<text text-anchor="start" x="8" y="-214.5" font-family="Helvetica,sans-Serif" font-size="10.00">denoptim.graph.DGraphTest.test</text>
<text text-anchor="middle" x="78" y="-203.5" font-family="Helvetica,sans-Serif" font-size="10.00">DetectSymVertexSets</text>
</a>
</g>
</g>
<!-- Node2&#45;&gt;Node3 -->
<g id="edge2" class="edge">
<title>Node2&#45;&gt;Node3</title>
<path fill="none" stroke="midnightblue" d="M186.44,-211.5C176.34,-211.5 166.14,-211.5 156.24,-211.5"/>
<polygon fill="midnightblue" stroke="midnightblue" points="186.48,-215 196.48,-211.5 186.48,-208 186.48,-215"/>
</g>
</g>
</svg>
