<?xml version="1.0" encoding="UTF-8" standalone="no"?>
<!DOCTYPE svg PUBLIC "-//W3C//DTD SVG 1.1//EN"
 "http://www.w3.org/Graphics/SVG/1.1/DTD/svg11.dtd">
<!-- Generated by graphviz version 3.0.0 (20221109.1736)
 -->
<!-- Title: denoptim.io.DenoptimIO.readCompatibilityMatrix Pages: 1 -->
<svg width="1323pt" height="193pt"
 viewBox="0.00 0.00 1323.00 193.00" xmlns="http://www.w3.org/2000/svg" xmlns:xlink="http://www.w3.org/1999/xlink">
<g id="graph0" class="graph" transform="scale(1 1) rotate(0) translate(4 189)">
<title>denoptim.io.DenoptimIO.readCompatibilityMatrix</title>
<polygon fill="white" stroke="transparent" points="-4,4 -4,-189 1319,-189 1319,4 -4,4"/>
<!-- Node1 -->
<g id="node1" class="node">
<title>Node1</title>
<g id="a_node1"><a xlink:title="Read the APclass compatibility matrix data from file.">
<polygon fill="#bfbfbf" stroke="black" points="1174,-100.5 1174,-130.5 1315,-130.5 1315,-100.5 1174,-100.5"/>
<text text-anchor="start" x="1182" y="-118.5" font-family="Helvetica,sans-Serif" font-size="10.00">denoptim.io.DenoptimIO.read</text>
<text text-anchor="middle" x="1244.5" y="-107.5" font-family="Helvetica,sans-Serif" font-size="10.00">CompatibilityMatrix</text>
</a>
</g>
</g>
<!-- Node2 -->
<g id="node2" class="node">
<title>Node2</title>
<g id="a_node2"><a xlink:href="classdenoptim_1_1fragspace_1_1_fragment_space.html#a43ed8d5c01a09ba050aad844bfc57406" target="_top" xlink:title="Define all components of a fragment space that implements the attachment point class&#45;approach.">
<polygon fill="white" stroke="black" points="983,-154.5 983,-184.5 1128,-184.5 1128,-154.5 983,-154.5"/>
<text text-anchor="start" x="991" y="-172.5" font-family="Helvetica,sans-Serif" font-size="10.00">denoptim.fragspace.Fragment</text>
<text text-anchor="middle" x="1055.5" y="-161.5" font-family="Helvetica,sans-Serif" font-size="10.00">Space.FragmentSpace</text>
</a>
</g>
</g>
<!-- Node1&#45;&gt;Node2 -->
<g id="edge1" class="edge">
<title>Node1&#45;&gt;Node2</title>
<path fill="none" stroke="midnightblue" d="M1181.5,-133.4C1157.89,-140.22 1131.24,-147.92 1108.63,-154.45"/>
<polygon fill="midnightblue" stroke="midnightblue" points="1182.77,-136.68 1191.41,-130.54 1180.83,-129.95 1182.77,-136.68"/>
</g>
<!-- Node3 -->
<g id="node3" class="node">
<title>Node3</title>
<g id="a_node3"><a xlink:href="classdenoptim_1_1fragspace_1_1_fragment_space.html#a4b3388cb046852895a9a4e57aba492e8" target="_top" xlink:title="Load info from a compatibility matrix file.">
<polygon fill="white" stroke="black" points="978,-95 978,-136 1133,-136 1133,-95 978,-95"/>
<text text-anchor="start" x="986" y="-124" font-family="Helvetica,sans-Serif" font-size="10.00">denoptim.fragspace.Fragment</text>
<text text-anchor="start" x="986" y="-113" font-family="Helvetica,sans-Serif" font-size="10.00">Space.importCompatibilityMatrix</text>
<text text-anchor="middle" x="1055.5" y="-102" font-family="Helvetica,sans-Serif" font-size="10.00">FromFile</text>
</a>
</g>
</g>
<!-- Node1&#45;&gt;Node3 -->
<g id="edge2" class="edge">
<title>Node1&#45;&gt;Node3</title>
<path fill="none" stroke="midnightblue" d="M1163.79,-115.5C1153.62,-115.5 1143.22,-115.5 1133.1,-115.5"/>
<polygon fill="midnightblue" stroke="midnightblue" points="1163.87,-119 1173.87,-115.5 1163.87,-112 1163.87,-119"/>
</g>
<!-- Node5 -->
<g id="node5" class="node">
<title>Node5</title>
<g id="a_node5"><a xlink:href="classdenoptim_1_1gui_1_1_compatibility_matrix_form.html#a1094ffe0650c36b088356f51d1020d6f" target="_top" xlink:title=" ">
<polygon fill="white" stroke="black" points="973,-46.5 973,-76.5 1138,-76.5 1138,-46.5 973,-46.5"/>
<text text-anchor="start" x="981" y="-64.5" font-family="Helvetica,sans-Serif" font-size="10.00">denoptim.gui.Compatibility</text>
<text text-anchor="middle" x="1055.5" y="-53.5" font-family="Helvetica,sans-Serif" font-size="10.00">MatrixForm.importCPMapFromFile</text>
</a>
</g>
</g>
<!-- Node1&#45;&gt;Node5 -->
<g id="edge4" class="edge">
<title>Node1&#45;&gt;Node5</title>
<path fill="none" stroke="midnightblue" d="M1181.5,-97.6C1157.89,-90.78 1131.24,-83.08 1108.63,-76.55"/>
<polygon fill="midnightblue" stroke="midnightblue" points="1180.83,-101.05 1191.41,-100.46 1182.77,-94.32 1180.83,-101.05"/>
</g>
<!-- Node4 -->
<g id="node4" class="node">
<title>Node4</title>
<g id="a_node4"><a xlink:href="classdenoptim_1_1gui_1_1_f_s_parameters_form.html#a5e0ab7ceb7ad81ee8e14b5e217ab97ba" target="_top" xlink:title=" ">
<polygon fill="white" stroke="black" points="789,-100.5 789,-130.5 926,-130.5 926,-100.5 789,-100.5"/>
<text text-anchor="start" x="797" y="-118.5" font-family="Helvetica,sans-Serif" font-size="10.00">denoptim.gui.FSParameters</text>
<text text-anchor="middle" x="857.5" y="-107.5" font-family="Helvetica,sans-Serif" font-size="10.00">Form.FSParametersForm</text>
</a>
</g>
</g>
<!-- Node3&#45;&gt;Node4 -->
<g id="edge3" class="edge">
<title>Node3&#45;&gt;Node4</title>
<path fill="none" stroke="midnightblue" d="M967.79,-115.5C953.83,-115.5 939.57,-115.5 926.15,-115.5"/>
<polygon fill="midnightblue" stroke="midnightblue" points="967.88,-119 977.88,-115.5 967.88,-112 967.88,-119"/>
</g>
<!-- Node6 -->
<g id="node6" class="node">
<title>Node6</title>
<g id="a_node6"><a xlink:href="classdenoptim_1_1gui_1_1_g_u_i_compatibility_matrix_tab.html#a12aed375c445d523520977cead0632b5" target="_top" xlink:title=" ">
<polygon fill="white" stroke="black" points="778,-49.5 778,-79.5 937,-79.5 937,-49.5 778,-49.5"/>
<text text-anchor="start" x="786" y="-67.5" font-family="Helvetica,sans-Serif" font-size="10.00">denoptim.gui.GUICompatibility</text>
<text text-anchor="middle" x="857.5" y="-56.5" font-family="Helvetica,sans-Serif" font-size="10.00">MatrixTab.importCPMapFromFile</text>
</a>
</g>
</g>
<!-- Node5&#45;&gt;Node6 -->
<g id="edge5" class="edge">
<title>Node5&#45;&gt;Node6</title>
<path fill="none" stroke="midnightblue" d="M962.53,-62.91C954.08,-63.04 945.56,-63.17 937.24,-63.29"/>
<polygon fill="midnightblue" stroke="midnightblue" points="962.85,-66.4 972.8,-62.75 962.75,-59.4 962.85,-66.4"/>
</g>
<!-- Node12 -->
<g id="node12" class="node">
<title>Node12</title>
<g id="a_node12"><a xlink:href="classdenoptim_1_1gui_1_1_g_u_i_compatibility_matrix_tab.html#a4bc183818810a26037080b47f082b9af" target="_top" xlink:title="Initialize the panel and add buttons.">
<polygon fill="white" stroke="black" points="784,-0.5 784,-30.5 931,-30.5 931,-0.5 784,-0.5"/>
<text text-anchor="start" x="792" y="-18.5" font-family="Helvetica,sans-Serif" font-size="10.00">denoptim.gui.GUICompatibility</text>
<text text-anchor="middle" x="857.5" y="-7.5" font-family="Helvetica,sans-Serif" font-size="10.00">MatrixTab.initialize</text>
</a>
</g>
</g>
<!-- Node5&#45;&gt;Node12 -->
<g id="edge12" class="edge">
<title>Node5&#45;&gt;Node12</title>
<path fill="none" stroke="midnightblue" d="M980.48,-44.13C961.39,-39.65 941.01,-34.87 922.49,-30.52"/>
<polygon fill="midnightblue" stroke="midnightblue" points="979.79,-47.56 990.32,-46.44 981.39,-40.75 979.79,-47.56"/>
</g>
<!-- Node7 -->
<g id="node7" class="node">
<title>Node7</title>
<g id="a_node7"><a xlink:href="classdenoptim_1_1gui_1_1_main_tool_bar.html#a1a2e06a2647032587d42155302b8c0a6" target="_top" xlink:title="Process a file that has a recognized file format and loads a suitable GUI card to visualize the file ...">
<polygon fill="white" stroke="black" points="569.5,-55 569.5,-74 736.5,-74 736.5,-55 569.5,-55"/>
<text text-anchor="middle" x="653" y="-62" font-family="Helvetica,sans-Serif" font-size="10.00">denoptim.gui.MainToolBar.openFile</text>
</a>
</g>
</g>
<!-- Node6&#45;&gt;Node7 -->
<g id="edge6" class="edge">
<title>Node6&#45;&gt;Node7</title>
<path fill="none" stroke="midnightblue" d="M767.65,-64.5C757.32,-64.5 746.8,-64.5 736.56,-64.5"/>
<polygon fill="midnightblue" stroke="midnightblue" points="767.92,-68 777.92,-64.5 767.92,-61 767.92,-68"/>
</g>
<!-- Node8 -->
<g id="node8" class="node">
<title>Node8</title>
<g id="a_node8"><a xlink:href="classdenoptim_1_1gui_1_1_main_tool_bar.html#a0df9ca063352fbc50f9476f3b2820926" target="_top" xlink:title="Initialize the contents of the tool bar.">
<polygon fill="white" stroke="black" points="167,-52 167,-71 332,-71 332,-52 167,-52"/>
<text text-anchor="middle" x="249.5" y="-59" font-family="Helvetica,sans-Serif" font-size="10.00">denoptim.gui.MainToolBar.initialize</text>
</a>
</g>
</g>
<!-- Node7&#45;&gt;Node8 -->
<g id="edge7" class="edge">
<title>Node7&#45;&gt;Node8</title>
<path fill="none" stroke="midnightblue" d="M591.55,-75.65C571.41,-78.86 548.81,-81.92 528,-83.5 457.09,-88.9 438.81,-90.07 368,-83.5 342.17,-81.1 313.55,-75.8 291.02,-71"/>
<polygon fill="midnightblue" stroke="midnightblue" points="592.22,-79.08 601.52,-74.01 591.09,-72.17 592.22,-79.08"/>
</g>
<!-- Node10 -->
<g id="node10" class="node">
<title>Node10</title>
<g id="a_node10"><a xlink:href="classdenoptim_1_1gui_1_1_g_u_i.html#a460fa99497f04de06d2adf8671a92441" target="_top" xlink:title="Launch the application.">
<polygon fill="white" stroke="black" points="394.5,-55 394.5,-74 501.5,-74 501.5,-55 394.5,-55"/>
<text text-anchor="middle" x="448" y="-62" font-family="Helvetica,sans-Serif" font-size="10.00">denoptim.gui.GUI.run</text>
</a>
</g>
</g>
<!-- Node7&#45;&gt;Node10 -->
<g id="edge9" class="edge">
<title>Node7&#45;&gt;Node10</title>
<path fill="none" stroke="midnightblue" d="M559.42,-64.5C539.55,-64.5 519.22,-64.5 501.51,-64.5"/>
<polygon fill="midnightblue" stroke="midnightblue" points="559.43,-68 569.43,-64.5 559.43,-61 559.43,-68"/>
</g>
<!-- Node11 -->
<g id="node11" class="node">
<title>Node11</title>
<g id="a_node11"><a xlink:href="classdenoptim_1_1gui_1_1_main_tool_bar.html#a94df24e485081c9b9d7441387f409e26" target="_top" xlink:title="Updated the the list of recent files in the &quot;open Recent&quot; menu.">
<polygon fill="white" stroke="black" points="368,-5.5 368,-35.5 528,-35.5 528,-5.5 368,-5.5"/>
<text text-anchor="start" x="376" y="-23.5" font-family="Helvetica,sans-Serif" font-size="10.00">denoptim.gui.MainToolBar.update</text>
<text text-anchor="middle" x="448" y="-12.5" font-family="Helvetica,sans-Serif" font-size="10.00">OpenRecentMenu</text>
</a>
</g>
</g>
<!-- Node7&#45;&gt;Node11 -->
<g id="edge10" class="edge">
<title>Node7&#45;&gt;Node11</title>
<path fill="none" stroke="midnightblue" d="M598.15,-52.83C573.73,-47.54 544.55,-41.21 518.51,-35.57"/>
<polygon fill="midnightblue" stroke="midnightblue" points="597.44,-56.25 607.95,-54.95 598.92,-49.41 597.44,-56.25"/>
</g>
<!-- Node9 -->
<g id="node9" class="node">
<title>Node9</title>
<g id="a_node9"><a xlink:href="classdenoptim_1_1gui_1_1_main_tool_bar.html#a36f4409849998e032342f49b19e6c5b5" target="_top" xlink:title="Constructor that build the tool bar.">
<polygon fill="white" stroke="black" points="0,-46.5 0,-76.5 131,-76.5 131,-46.5 0,-46.5"/>
<text text-anchor="start" x="8" y="-64.5" font-family="Helvetica,sans-Serif" font-size="10.00">denoptim.gui.MainToolBar.</text>
<text text-anchor="middle" x="65.5" y="-53.5" font-family="Helvetica,sans-Serif" font-size="10.00">MainToolBar</text>
</a>
</g>
</g>
<!-- Node8&#45;&gt;Node9 -->
<g id="edge8" class="edge">
<title>Node8&#45;&gt;Node9</title>
<path fill="none" stroke="midnightblue" d="M156.66,-61.5C147.99,-61.5 139.34,-61.5 131,-61.5"/>
<polygon fill="midnightblue" stroke="midnightblue" points="156.82,-65 166.82,-61.5 156.82,-58 156.82,-65"/>
</g>
<!-- Node11&#45;&gt;Node8 -->
<g id="edge11" class="edge">
<title>Node11&#45;&gt;Node8</title>
<path fill="none" stroke="midnightblue" d="M364.98,-37.61C341.5,-42.51 316.75,-47.68 296.29,-51.95"/>
<polygon fill="midnightblue" stroke="midnightblue" points="365.87,-41 374.95,-35.53 364.44,-34.15 365.87,-41"/>
</g>
<!-- Node13 -->
<g id="node13" class="node">
<title>Node13</title>
<g id="a_node13"><a xlink:href="classdenoptim_1_1gui_1_1_g_u_i_compatibility_matrix_tab.html#ab550b03594a5843183d6f925e66d444b" target="_top" xlink:title="Constructor.">
<polygon fill="white" stroke="black" points="564,-0.5 564,-30.5 742,-30.5 742,-0.5 564,-0.5"/>
<text text-anchor="start" x="572" y="-18.5" font-family="Helvetica,sans-Serif" font-size="10.00">denoptim.gui.GUICompatibility</text>
<text text-anchor="middle" x="653" y="-7.5" font-family="Helvetica,sans-Serif" font-size="10.00">MatrixTab.GUICompatibilityMatrixTab</text>
</a>
</g>
</g>
<!-- Node12&#45;&gt;Node13 -->
<g id="edge13" class="edge">
<title>Node12&#45;&gt;Node13</title>
<path fill="none" stroke="midnightblue" d="M773.71,-15.5C763.36,-15.5 752.73,-15.5 742.3,-15.5"/>
<polygon fill="midnightblue" stroke="midnightblue" points="773.96,-19 783.96,-15.5 773.96,-12 773.96,-19"/>
</g>
</g>
</svg>
