<?xml version="1.0" encoding="UTF-8" standalone="no"?>
<!DOCTYPE svg PUBLIC "-//W3C//DTD SVG 1.1//EN"
 "http://www.w3.org/Graphics/SVG/1.1/DTD/svg11.dtd">
<!-- Generated by graphviz version 3.0.0 (20221109.1736)
 -->
<!-- Title: denoptim.gui.GUIVertexInspector.clearCurrentSystem Pages: 1 -->
<!--zoomable 276 -->
<svg id="main" version="1.1" xmlns="http://www.w3.org/2000/svg" xmlns:xlink="http://www.w3.org/1999/xlink" xml:space="preserve" onload="init(evt)">
<style type="text/css"><![CDATA[
.edge:hover path { stroke: red; }
.edge:hover polygon { stroke: red; fill: red; }
]]></style>
<script type="text/javascript"><![CDATA[
var edges = document.getElementsByTagName('g');
if (edges && edges.length) {
  for (var i=0;i<edges.length;i++) {
    if (edges[i].id.substr(0,4)=='edge') {
      edges[i].setAttribute('class','edge');
    }
  }
}
]]></script>
        <defs>
                <circle id="rim" cx="0" cy="0" r="7"/>
                <circle id="rim2" cx="0" cy="0" r="3.5"/>
                <g id="zoomPlus">
                        <use xlink:href="#rim" fill="#404040">
                                <set attributeName="fill" to="#808080" begin="zoomplus.mouseover" end="zoomplus.mouseout"/>
                        </use>
                        <path d="M-4,0h8M0,-4v8" fill="none" stroke="white" stroke-width="1.5" pointer-events="none"/>
                </g>
                <g id="zoomMin">
                        <use xlink:href="#rim" fill="#404040">
                                <set attributeName="fill" to="#808080" begin="zoomminus.mouseover" end="zoomminus.mouseout"/>
                        </use>
                        <path d="M-4,0h8" fill="none" stroke="white" stroke-width="1.5" pointer-events="none"/>
                </g>
                <g id="dirArrow">
                        <path fill="none" stroke="white" stroke-width="1.5" d="M0,-3.0v7 M-2.5,-0.5L0,-3.0L2.5,-0.5"/>
                </g>
               <g id="resetDef">
                       <use xlink:href="#rim2" fill="#404040">
                               <set attributeName="fill" to="#808080" begin="reset.mouseover" end="reset.mouseout"/>
                       </use>
               </g>
        </defs>

<script type="text/javascript">
var viewWidth = 1646;
var viewHeight = 276;
var sectionId = 'dynsection-8';
</script>
<script xlink:href="svgpan.js"/>
<svg id="graph" class="graph">
<g id="viewport">
<title>denoptim.gui.GUIVertexInspector.clearCurrentSystem</title>
<polygon fill="white" stroke="transparent" points="-4,4 -4,-272 1642,-272 1642,4 -4,4"/>
<!-- Node1 -->
<g id="node1" class="node">
<title>Node1</title>
<g id="a_node1"><a xlink:title=" ">
<polygon fill="#bfbfbf" stroke="black" points="1455,-166.5 1455,-196.5 1638,-196.5 1638,-166.5 1455,-166.5"/>
<text text-anchor="start" x="1463" y="-184.5" font-family="Helvetica,sans-Serif" font-size="10.00">denoptim.gui.GUIVertexInspector.clear</text>
<text text-anchor="middle" x="1546.5" y="-173.5" font-family="Helvetica,sans-Serif" font-size="10.00">CurrentSystem</text>
</a>
</g>
</g>
<!-- Node2 -->
<g id="node2" class="node">
<title>Node2</title>
<g id="a_node2"><a xlink:href="classdenoptim_1_1gui_1_1_g_u_i_vertex_inspector.html#a7e833ba52549966556cc1bd1852dcfa4" target="_top" xlink:title=" ">
<polygon fill="white" stroke="black" points="1230,-237.5 1230,-267.5 1419,-267.5 1419,-237.5 1230,-237.5"/>
<text text-anchor="start" x="1238" y="-255.5" font-family="Helvetica,sans-Serif" font-size="10.00">denoptim.gui.GUIVertexInspector.import</text>
<text text-anchor="middle" x="1324.5" y="-244.5" font-family="Helvetica,sans-Serif" font-size="10.00">StructureFromFile</text>
</a>
</g>
</g>
<!-- Node1&#45;&gt;Node2 -->
<g id="edge1" class="edge">
<title>Node1&#45;&gt;Node2</title>
<path fill="none" stroke="midnightblue" d="M1498.77,-200.19C1475.07,-209.33 1445.72,-220.13 1419,-228.5 1409,-231.63 1398.32,-234.66 1387.87,-237.46"/>
<polygon fill="midnightblue" stroke="midnightblue" points="1500.16,-203.41 1508.22,-196.52 1497.63,-196.88 1500.16,-203.41"/>
</g>
<!-- Node5 -->
<g id="node5" class="node">
<title>Node5</title>
<g id="a_node5"><a xlink:href="classdenoptim_1_1gui_1_1_g_u_i_vertex_inspector.html#a530b2f509d3e15fd285526a34461cc9e" target="_top" xlink:title="Imports the given SMILES into the viewer.">
<polygon fill="white" stroke="black" points="1230,-188.5 1230,-218.5 1419,-218.5 1419,-188.5 1230,-188.5"/>
<text text-anchor="start" x="1238" y="-206.5" font-family="Helvetica,sans-Serif" font-size="10.00">denoptim.gui.GUIVertexInspector.import</text>
<text text-anchor="middle" x="1324.5" y="-195.5" font-family="Helvetica,sans-Serif" font-size="10.00">StructureFromSMILES</text>
</a>
</g>
</g>
<!-- Node1&#45;&gt;Node5 -->
<g id="edge4" class="edge">
<title>Node1&#45;&gt;Node5</title>
<path fill="none" stroke="midnightblue" d="M1444.52,-191.6C1436.1,-192.44 1427.61,-193.29 1419.25,-194.13"/>
<polygon fill="midnightblue" stroke="midnightblue" points="1445.15,-195.05 1454.75,-190.58 1444.45,-188.09 1445.15,-195.05"/>
</g>
<!-- Node6 -->
<g id="node6" class="node">
<title>Node6</title>
<g id="a_node6"><a xlink:href="classdenoptim_1_1gui_1_1_g_u_i_vertex_inspector.html#ad9676f2418e5c4221fd7927d68cedad5" target="_top" xlink:title="Loads the fragments corresponding to the field index.">
<polygon fill="white" stroke="black" points="1234.5,-98.5 1234.5,-128.5 1414.5,-128.5 1414.5,-98.5 1234.5,-98.5"/>
<text text-anchor="start" x="1242.5" y="-116.5" font-family="Helvetica,sans-Serif" font-size="10.00">denoptim.gui.GUIVertexInspector.load</text>
<text text-anchor="middle" x="1324.5" y="-105.5" font-family="Helvetica,sans-Serif" font-size="10.00">CurrentVrtxIdxToViewer</text>
</a>
</g>
</g>
<!-- Node1&#45;&gt;Node6 -->
<g id="edge6" class="edge">
<title>Node1&#45;&gt;Node6</title>
<path fill="none" stroke="midnightblue" d="M1487.28,-163.5C1452.06,-152.62 1407.68,-138.9 1374.31,-128.59"/>
<polygon fill="midnightblue" stroke="midnightblue" points="1486.36,-166.88 1496.95,-166.49 1488.43,-160.2 1486.36,-166.88"/>
</g>
<!-- Node14 -->
<g id="node14" class="node">
<title>Node14</title>
<g id="a_node14"><a xlink:href="classdenoptim_1_1gui_1_1_g_u_i_vertex_inspector.html#a6e5cc3cb1cd2f98bf03934b3b2defa22" target="_top" xlink:title=" ">
<polygon fill="white" stroke="black" points="1000,-147.5 1000,-177.5 1194,-177.5 1194,-147.5 1000,-147.5"/>
<text text-anchor="start" x="1008" y="-165.5" font-family="Helvetica,sans-Serif" font-size="10.00">denoptim.gui.GUIVertexInspector.remove</text>
<text text-anchor="middle" x="1097" y="-154.5" font-family="Helvetica,sans-Serif" font-size="10.00">CurrentVrtx</text>
</a>
</g>
</g>
<!-- Node1&#45;&gt;Node14 -->
<g id="edge21" class="edge">
<title>Node1&#45;&gt;Node14</title>
<path fill="none" stroke="midnightblue" d="M1444.55,-177.21C1369.6,-174.03 1268.02,-169.72 1194.23,-166.59"/>
<polygon fill="midnightblue" stroke="midnightblue" points="1444.8,-180.73 1454.94,-177.66 1445.1,-173.73 1444.8,-180.73"/>
</g>
<!-- Node3 -->
<g id="node3" class="node">
<title>Node3</title>
<g id="a_node3"><a xlink:href="classdenoptim_1_1gui_1_1_g_u_i_vertex_inspector.html#acadecc92299a7ea46113c06382a1f333" target="_top" xlink:title="Initialize the panel and add buttons.">
<polygon fill="white" stroke="black" points="767,-153 767,-172 964,-172 964,-153 767,-153"/>
<text text-anchor="middle" x="865.5" y="-160" font-family="Helvetica,sans-Serif" font-size="10.00">denoptim.gui.GUIVertexInspector.initialize</text>
</a>
</g>
</g>
<!-- Node2&#45;&gt;Node3 -->
<g id="edge2" class="edge">
<title>Node2&#45;&gt;Node3</title>
<path fill="none" stroke="midnightblue" d="M1219.83,-243.06C1155.91,-236.02 1072.56,-224.62 1000,-207.5 960.72,-198.23 916.62,-182.22 890.22,-172"/>
<polygon fill="midnightblue" stroke="midnightblue" points="1219.6,-246.56 1229.92,-244.16 1220.35,-239.6 1219.6,-246.56"/>
</g>
<!-- Node4 -->
<g id="node4" class="node">
<title>Node4</title>
<g id="a_node4"><a xlink:href="classdenoptim_1_1gui_1_1_g_u_i_vertex_inspector.html#abc5d3c33ad9b2b114ce43e9b2cd577bb" target="_top" xlink:title="Constructor.">
<polygon fill="white" stroke="black" points="566.5,-147.5 566.5,-177.5 728.5,-177.5 728.5,-147.5 566.5,-147.5"/>
<text text-anchor="start" x="574.5" y="-165.5" font-family="Helvetica,sans-Serif" font-size="10.00">denoptim.gui.GUIVertexInspector.</text>
<text text-anchor="middle" x="647.5" y="-154.5" font-family="Helvetica,sans-Serif" font-size="10.00">GUIVertexInspector</text>
</a>
</g>
</g>
<!-- Node3&#45;&gt;Node4 -->
<g id="edge3" class="edge">
<title>Node3&#45;&gt;Node4</title>
<path fill="none" stroke="midnightblue" d="M756.74,-162.5C747.34,-162.5 737.94,-162.5 728.82,-162.5"/>
<polygon fill="midnightblue" stroke="midnightblue" points="756.93,-166 766.93,-162.5 756.93,-159 756.93,-166"/>
</g>
<!-- Node5&#45;&gt;Node3 -->
<g id="edge5" class="edge">
<title>Node5&#45;&gt;Node3</title>
<path fill="none" stroke="midnightblue" d="M1219.75,-201.95C1156.14,-200.11 1073.15,-196.12 1000,-187.5 969.44,-183.9 935.34,-177.47 909.26,-172.04"/>
<polygon fill="midnightblue" stroke="midnightblue" points="1219.7,-205.45 1229.79,-202.22 1219.89,-198.45 1219.7,-205.45"/>
</g>
<!-- Node7 -->
<g id="node7" class="node">
<title>Node7</title>
<g id="a_node7"><a xlink:href="classdenoptim_1_1gui_1_1_g_u_i_vertex_inspector.html#a69d3deb57097286f9a01cdf256ec8d65" target="_top" xlink:title="Imports vertices.">
<polygon fill="white" stroke="black" points="1002.5,-49.5 1002.5,-79.5 1191.5,-79.5 1191.5,-49.5 1002.5,-49.5"/>
<text text-anchor="start" x="1010.5" y="-67.5" font-family="Helvetica,sans-Serif" font-size="10.00">denoptim.gui.GUIVertexInspector.import</text>
<text text-anchor="middle" x="1097" y="-56.5" font-family="Helvetica,sans-Serif" font-size="10.00">Vertices</text>
</a>
</g>
</g>
<!-- Node6&#45;&gt;Node7 -->
<g id="edge7" class="edge">
<title>Node6&#45;&gt;Node7</title>
<path fill="none" stroke="midnightblue" d="M1244.41,-96.31C1219.2,-90.84 1191.51,-84.82 1167.06,-79.51"/>
<polygon fill="midnightblue" stroke="midnightblue" points="1243.79,-99.76 1254.31,-98.47 1245.28,-92.92 1243.79,-99.76"/>
</g>
<!-- Node6&#45;&gt;Node14 -->
<g id="edge16" class="edge">
<title>Node6&#45;&gt;Node14</title>
<path fill="none" stroke="midnightblue" d="M1244.41,-130.69C1219.2,-136.16 1191.51,-142.18 1167.06,-147.49"/>
<polygon fill="midnightblue" stroke="midnightblue" points="1245.28,-134.08 1254.31,-128.53 1243.79,-127.24 1245.28,-134.08"/>
</g>
<!-- Node15 -->
<g id="node15" class="node">
<title>Node15</title>
<g id="a_node15"><a xlink:href="classdenoptim_1_1gui_1_1_g_u_i_vertex_inspector.html#a09363e21a5254efe8f128a99e82acbf0" target="_top" xlink:title=" ">
<polygon fill="white" stroke="black" points="1005.5,-98.5 1005.5,-128.5 1188.5,-128.5 1188.5,-98.5 1005.5,-98.5"/>
<text text-anchor="start" x="1013.5" y="-116.5" font-family="Helvetica,sans-Serif" font-size="10.00">denoptim.gui.GUIVertexInspector.save</text>
<text text-anchor="middle" x="1097" y="-105.5" font-family="Helvetica,sans-Serif" font-size="10.00">UnsavedChanges</text>
</a>
</g>
</g>
<!-- Node6&#45;&gt;Node15 -->
<g id="edge18" class="edge">
<title>Node6&#45;&gt;Node15</title>
<path fill="none" stroke="midnightblue" d="M1224.09,-113.5C1212.31,-113.5 1200.34,-113.5 1188.69,-113.5"/>
<polygon fill="midnightblue" stroke="midnightblue" points="1224.38,-117 1234.38,-113.5 1224.38,-110 1224.38,-117"/>
</g>
<!-- Node16 -->
<g id="node16" class="node">
<title>Node16</title>
<g id="a_node16"><a xlink:href="classdenoptim_1_1gui_1_1_g_u_i_vertex_inspector_1_1_vrtx_spinner_change_event.html#aca98b170c98a615d12f199d1ccdd26dd" target="_top" xlink:title=" ">
<polygon fill="white" stroke="black" points="1003.5,-0.5 1003.5,-30.5 1190.5,-30.5 1190.5,-0.5 1003.5,-0.5"/>
<text text-anchor="start" x="1011.5" y="-18.5" font-family="Helvetica,sans-Serif" font-size="10.00">denoptim.gui.GUIVertexInspector.</text>
<text text-anchor="middle" x="1097" y="-7.5" font-family="Helvetica,sans-Serif" font-size="10.00">VrtxSpinnerChangeEvent.stateChanged</text>
</a>
</g>
</g>
<!-- Node6&#45;&gt;Node16 -->
<g id="edge20" class="edge">
<title>Node6&#45;&gt;Node16</title>
<path fill="none" stroke="midnightblue" d="M1293.04,-92.89C1267.54,-76.44 1229.68,-53.84 1194,-39.5 1185.63,-36.14 1176.66,-33.14 1167.68,-30.51"/>
<polygon fill="midnightblue" stroke="midnightblue" points="1291.24,-95.9 1301.53,-98.43 1295.07,-90.04 1291.24,-95.9"/>
</g>
<!-- Node7&#45;&gt;Node3 -->
<g id="edge15" class="edge">
<title>Node7&#45;&gt;Node3</title>
<path fill="none" stroke="midnightblue" d="M1016.87,-82.52C1011.1,-84.37 1005.43,-86.36 1000,-88.5 954.15,-106.58 904.45,-137.45 880.7,-152.98"/>
<polygon fill="midnightblue" stroke="midnightblue" points="1018.08,-85.81 1026.62,-79.54 1016.03,-79.11 1018.08,-85.81"/>
</g>
<!-- Node8 -->
<g id="node8" class="node">
<title>Node8</title>
<g id="a_node8"><a xlink:href="classdenoptim_1_1gui_1_1_g_u_i_vertex_inspector.html#a6698fa37bf04503e58c61f0543946834" target="_top" xlink:title="Imports fragments from a file.">
<polygon fill="white" stroke="black" points="771,-49.5 771,-79.5 960,-79.5 960,-49.5 771,-49.5"/>
<text text-anchor="start" x="779" y="-67.5" font-family="Helvetica,sans-Serif" font-size="10.00">denoptim.gui.GUIVertexInspector.import</text>
<text text-anchor="middle" x="865.5" y="-56.5" font-family="Helvetica,sans-Serif" font-size="10.00">VerticesFromFile</text>
</a>
</g>
</g>
<!-- Node7&#45;&gt;Node8 -->
<g id="edge8" class="edge">
<title>Node7&#45;&gt;Node8</title>
<path fill="none" stroke="midnightblue" d="M992.17,-64.5C981.54,-64.5 970.77,-64.5 960.25,-64.5"/>
<polygon fill="midnightblue" stroke="midnightblue" points="992.32,-68 1002.32,-64.5 992.32,-61 992.32,-68"/>
</g>
<!-- Node9 -->
<g id="node9" class="node">
<title>Node9</title>
<g id="a_node9"><a xlink:href="classdenoptim_1_1gui_1_1_main_tool_bar.html#a1a2e06a2647032587d42155302b8c0a6" target="_top" xlink:title="Process a file that has a recognized file format and loads a suitable GUI card to visualize the file ...">
<polygon fill="white" stroke="black" points="564,-55 564,-74 731,-74 731,-55 564,-55"/>
<text text-anchor="middle" x="647.5" y="-62" font-family="Helvetica,sans-Serif" font-size="10.00">denoptim.gui.MainToolBar.openFile</text>
</a>
</g>
</g>
<!-- Node8&#45;&gt;Node9 -->
<g id="edge9" class="edge">
<title>Node8&#45;&gt;Node9</title>
<path fill="none" stroke="midnightblue" d="M760.44,-64.5C750.57,-64.5 740.65,-64.5 731.02,-64.5"/>
<polygon fill="midnightblue" stroke="midnightblue" points="760.7,-68 770.7,-64.5 760.7,-61 760.7,-68"/>
</g>
<!-- Node10 -->
<g id="node10" class="node">
<title>Node10</title>
<g id="a_node10"><a xlink:href="classdenoptim_1_1gui_1_1_main_tool_bar.html#a0df9ca063352fbc50f9476f3b2820926" target="_top" xlink:title="Initialize the contents of the tool bar.">
<polygon fill="white" stroke="black" points="167,-52 167,-71 332,-71 332,-52 167,-52"/>
<text text-anchor="middle" x="249.5" y="-59" font-family="Helvetica,sans-Serif" font-size="10.00">denoptim.gui.MainToolBar.initialize</text>
</a>
</g>
</g>
<!-- Node9&#45;&gt;Node10 -->
<g id="edge10" class="edge">
<title>Node9&#45;&gt;Node10</title>
<path fill="none" stroke="midnightblue" d="M588.22,-75.73C569.11,-78.91 547.72,-81.93 528,-83.5 457.11,-89.15 438.81,-90.07 368,-83.5 342.17,-81.1 313.55,-75.8 291.02,-71"/>
<polygon fill="midnightblue" stroke="midnightblue" points="589.01,-79.15 598.28,-74.01 587.83,-72.25 589.01,-79.15"/>
</g>
<!-- Node12 -->
<g id="node12" class="node">
<title>Node12</title>
<g id="a_node12"><a xlink:href="classdenoptim_1_1gui_1_1_g_u_i.html#a460fa99497f04de06d2adf8671a92441" target="_top" xlink:title="Launch the application.">
<polygon fill="white" stroke="black" points="394.5,-55 394.5,-74 501.5,-74 501.5,-55 394.5,-55"/>
<text text-anchor="middle" x="448" y="-62" font-family="Helvetica,sans-Serif" font-size="10.00">denoptim.gui.GUI.run</text>
</a>
</g>
</g>
<!-- Node9&#45;&gt;Node12 -->
<g id="edge12" class="edge">
<title>Node9&#45;&gt;Node12</title>
<path fill="none" stroke="midnightblue" d="M553.47,-64.5C535.7,-64.5 517.68,-64.5 501.73,-64.5"/>
<polygon fill="midnightblue" stroke="midnightblue" points="553.89,-68 563.89,-64.5 553.89,-61 553.89,-68"/>
</g>
<!-- Node13 -->
<g id="node13" class="node">
<title>Node13</title>
<g id="a_node13"><a xlink:href="classdenoptim_1_1gui_1_1_main_tool_bar.html#a94df24e485081c9b9d7441387f409e26" target="_top" xlink:title="Updated the the list of recent files in the &quot;open Recent&quot; menu.">
<polygon fill="white" stroke="black" points="368,-5.5 368,-35.5 528,-35.5 528,-5.5 368,-5.5"/>
<text text-anchor="start" x="376" y="-23.5" font-family="Helvetica,sans-Serif" font-size="10.00">denoptim.gui.MainToolBar.update</text>
<text text-anchor="middle" x="448" y="-12.5" font-family="Helvetica,sans-Serif" font-size="10.00">OpenRecentMenu</text>
</a>
</g>
</g>
<!-- Node9&#45;&gt;Node13 -->
<g id="edge13" class="edge">
<title>Node9&#45;&gt;Node13</title>
<path fill="none" stroke="midnightblue" d="M593.79,-52.76C570.1,-47.48 541.85,-41.19 516.62,-35.57"/>
<polygon fill="midnightblue" stroke="midnightblue" points="593.12,-56.19 603.65,-54.95 594.65,-49.36 593.12,-56.19"/>
</g>
<!-- Node11 -->
<g id="node11" class="node">
<title>Node11</title>
<g id="a_node11"><a xlink:href="classdenoptim_1_1gui_1_1_main_tool_bar.html#a36f4409849998e032342f49b19e6c5b5" target="_top" xlink:title="Constructor that build the tool bar.">
<polygon fill="white" stroke="black" points="0,-46.5 0,-76.5 131,-76.5 131,-46.5 0,-46.5"/>
<text text-anchor="start" x="8" y="-64.5" font-family="Helvetica,sans-Serif" font-size="10.00">denoptim.gui.MainToolBar.</text>
<text text-anchor="middle" x="65.5" y="-53.5" font-family="Helvetica,sans-Serif" font-size="10.00">MainToolBar</text>
</a>
</g>
</g>
<!-- Node10&#45;&gt;Node11 -->
<g id="edge11" class="edge">
<title>Node10&#45;&gt;Node11</title>
<path fill="none" stroke="midnightblue" d="M156.66,-61.5C147.99,-61.5 139.34,-61.5 131,-61.5"/>
<polygon fill="midnightblue" stroke="midnightblue" points="156.82,-65 166.82,-61.5 156.82,-58 156.82,-65"/>
</g>
<!-- Node13&#45;&gt;Node10 -->
<g id="edge14" class="edge">
<title>Node13&#45;&gt;Node10</title>
<path fill="none" stroke="midnightblue" d="M364.98,-37.61C341.5,-42.51 316.75,-47.68 296.29,-51.95"/>
<polygon fill="midnightblue" stroke="midnightblue" points="365.87,-41 374.95,-35.53 364.44,-34.15 365.87,-41"/>
</g>
<!-- Node14&#45;&gt;Node3 -->
<g id="edge17" class="edge">
<title>Node14&#45;&gt;Node3</title>
<path fill="none" stroke="midnightblue" d="M989.4,-162.5C980.95,-162.5 972.44,-162.5 964.06,-162.5"/>
<polygon fill="midnightblue" stroke="midnightblue" points="989.67,-166 999.67,-162.5 989.67,-159 989.67,-166"/>
</g>
<!-- Node15&#45;&gt;Node3 -->
<g id="edge19" class="edge">
<title>Node15&#45;&gt;Node3</title>
<path fill="none" stroke="midnightblue" d="M1015.37,-130.72C980.37,-138.19 940.7,-146.66 911.13,-152.97"/>
<polygon fill="midnightblue" stroke="midnightblue" points="1016.53,-134.05 1025.58,-128.53 1015.07,-127.2 1016.53,-134.05"/>
</g>
</g>
</svg>
        <g id="navigator" transform="translate(0 0)" fill="#404254">
                <rect fill="#f2f5e9" fill-opacity="0.5" stroke="#606060" stroke-width=".5" x="0" y="0" width="60" height="60"/>
                <use id="zoomplus" xlink:href="#zoomPlus" x="17" y="9" onmousedown="handleZoom(evt,'in')"/>
                <use id="zoomminus" xlink:href="#zoomMin" x="42" y="9" onmousedown="handleZoom(evt,'out')"/>
                <use id="reset" xlink:href="#resetDef" x="30" y="36" onmousedown="handleReset()"/>
                <g id="arrowUp" xlink:href="#dirArrow" transform="translate(30 24)" onmousedown="handlePan(0,-1)">
                  <use xlink:href="#rim" fill="#404040">
                        <set attributeName="fill" to="#808080" begin="arrowUp.mouseover" end="arrowUp.mouseout"/>
                  </use>
                  <path fill="none" stroke="white" stroke-width="1.5" d="M0,-3.0v7 M-2.5,-0.5L0,-3.0L2.5,-0.5"/>
                </g>
                <g id="arrowRight" xlink:href="#dirArrow" transform="rotate(90) translate(36 -43)" onmousedown="handlePan(1,0)">
                  <use xlink:href="#rim" fill="#404040">
                        <set attributeName="fill" to="#808080" begin="arrowRight.mouseover" end="arrowRight.mouseout"/>
                  </use>
                  <path fill="none" stroke="white" stroke-width="1.5" d="M0,-3.0v7 M-2.5,-0.5L0,-3.0L2.5,-0.5"/>
                </g>
                <g id="arrowDown" xlink:href="#dirArrow" transform="rotate(180) translate(-30 -48)" onmousedown="handlePan(0,1)">
                  <use xlink:href="#rim" fill="#404040">
                        <set attributeName="fill" to="#808080" begin="arrowDown.mouseover" end="arrowDown.mouseout"/>
                  </use>
                  <path fill="none" stroke="white" stroke-width="1.5" d="M0,-3.0v7 M-2.5,-0.5L0,-3.0L2.5,-0.5"/>
                </g>
                <g id="arrowLeft" xlink:href="#dirArrow" transform="rotate(270) translate(-36 17)" onmousedown="handlePan(-1,0)">
                  <use xlink:href="#rim" fill="#404040">
                        <set attributeName="fill" to="#808080" begin="arrowLeft.mouseover" end="arrowLeft.mouseout"/>
                  </use>
                  <path fill="none" stroke="white" stroke-width="1.5" d="M0,-3.0v7 M-2.5,-0.5L0,-3.0L2.5,-0.5"/>
                </g>
        </g>
        <svg viewBox="0 0 15 15" width="100%" height="30px" preserveAspectRatio="xMaxYMin meet">
         <g id="arrow_out" transform="scale(0.3 0.3)">
          <a xlink:href="classdenoptim_1_1gui_1_1_g_u_i_vertex_inspector_a0218e1fb0eb91fdd035a39d8856d4ddf_icgraph_org.svg" target="_base">
           <rect id="button" ry="5" rx="5" y="6" x="6" height="38" width="38"
                fill="#f2f5e9" fill-opacity="0.5" stroke="#606060" stroke-width="1.0"/>
           <path id="arrow"
             d="M 11.500037,31.436501 C 11.940474,20.09759 22.043105,11.32322 32.158766,21.979434 L 37.068811,17.246167 C 37.068811,17.246167 37.088388,32 37.088388,32 L 22.160133,31.978069 C 22.160133,31.978069 26.997745,27.140456 26.997745,27.140456 C 18.528582,18.264221 13.291696,25.230495 11.500037,31.436501 z"
             style="fill:#404040;"/>
          </a>
         </g>
        </svg>
</svg>
