<?xml version="1.0" encoding="UTF-8" standalone="no"?>
<!DOCTYPE svg PUBLIC "-//W3C//DTD SVG 1.1//EN"
 "http://www.w3.org/Graphics/SVG/1.1/DTD/svg11.dtd">
<!-- Generated by graphviz version 3.0.0 (20221109.1736)
 -->
<!-- Title: denoptim.fragspace.GraphLinkFinder Pages: 1 -->
<svg width="1468pt" height="981pt"
 viewBox="0.00 0.00 1468.00 980.50" xmlns="http://www.w3.org/2000/svg" xmlns:xlink="http://www.w3.org/1999/xlink">
<g id="graph0" class="graph" transform="scale(1 1) rotate(0) translate(4 976.5)">
<title>denoptim.fragspace.GraphLinkFinder</title>
<polygon fill="white" stroke="transparent" points="-4,4 -4,-976.5 1464,-976.5 1464,4 -4,4"/>
<!-- Node1 -->
<g id="node1" class="node">
<title>Node1</title>
<g id="a_node1"><a xlink:title="An utility class to encapsulate the search for vertexes that satisfy constraints.">
<polygon fill="#bfbfbf" stroke="black" points="862.5,-795.5 862.5,-825.5 992.5,-825.5 992.5,-795.5 862.5,-795.5"/>
<text text-anchor="start" x="870.5" y="-813.5" font-family="Helvetica,sans-Serif" font-size="10.00">denoptim.fragspace.Graph</text>
<text text-anchor="middle" x="927.5" y="-802.5" font-family="Helvetica,sans-Serif" font-size="10.00">LinkFinder</text>
</a>
</g>
</g>
<!-- Node2 -->
<g id="node2" class="node">
<title>Node2</title>
<g id="a_node2"><a xlink:href="classdenoptim_1_1graph_1_1_vertex.html" target="_top" xlink:title="A vertex is a data structure that has an identity and holds a list of AttachmentPoints.">
<polygon fill="white" stroke="black" points="547,-718 547,-737 660,-737 660,-718 547,-718"/>
<text text-anchor="middle" x="603.5" y="-725" font-family="Helvetica,sans-Serif" font-size="10.00">denoptim.graph.Vertex</text>
</a>
</g>
</g>
<!-- Node2&#45;&gt;Node1 -->
<g id="edge1" class="edge">
<title>Node2&#45;&gt;Node1</title>
<path fill="none" stroke="#9a32cd" stroke-dasharray="5,2" d="M668.27,-738.98C711.64,-747.59 769.99,-760.76 820,-777.5 828.3,-780.28 829.77,-782.52 838,-785.5 847.76,-789.03 858.27,-792.37 868.52,-795.41"/>
<polygon fill="#9a32cd" stroke="#9a32cd" points="668.91,-735.54 658.42,-737.05 667.56,-742.41 668.91,-735.54"/>
<text text-anchor="middle" x="773" y="-780.5" font-family="Helvetica,sans-Serif" font-size="10.00"> chosenNewLink</text>
</g>
<!-- Node13 -->
<g id="node13" class="node">
<title>Node13</title>
<g id="a_node13"><a xlink:href="classdenoptim_1_1graph_1_1_template.html" target="_top" xlink:title=" ">
<polygon fill="white" stroke="black" points="865,-667 865,-686 990,-686 990,-667 865,-667"/>
<text text-anchor="middle" x="927.5" y="-674" font-family="Helvetica,sans-Serif" font-size="10.00">denoptim.graph.Template</text>
</a>
</g>
</g>
<!-- Node2&#45;&gt;Node13 -->
<g id="edge16" class="edge">
<title>Node2&#45;&gt;Node13</title>
<path fill="none" stroke="midnightblue" d="M670.29,-717.08C727.76,-707.98 810.5,-694.87 866.27,-686.04"/>
<polygon fill="midnightblue" stroke="midnightblue" points="669.55,-713.65 660.22,-718.67 670.64,-720.57 669.55,-713.65"/>
</g>
<!-- Node3 -->
<g id="node3" class="node">
<title>Node3</title>
<g id="a_node3"><a xlink:title=" ">
<polygon fill="white" stroke="black" points="213,-851 213,-870 272,-870 272,-851 213,-851"/>
<text text-anchor="middle" x="242.5" y="-858" font-family="Helvetica,sans-Serif" font-size="10.00">Cloneable</text>
</a>
</g>
</g>
<!-- Node3&#45;&gt;Node2 -->
<g id="edge2" class="edge">
<title>Node3&#45;&gt;Node2</title>
<path fill="none" stroke="midnightblue" d="M282.11,-851.69C348.4,-836.51 477.14,-806.73 481,-803.5 496.27,-790.74 484.33,-775.94 499,-762.5 512.43,-750.2 530.34,-742.2 547.48,-737.01"/>
<polygon fill="midnightblue" stroke="midnightblue" points="281.01,-848.36 272.04,-854 282.57,-855.18 281.01,-848.36"/>
</g>
<!-- Node4 -->
<g id="node4" class="node">
<title>Node4</title>
<g id="a_node4"><a xlink:href="classdenoptim_1_1graph_1_1_d_graph.html" target="_top" xlink:title="Container for the list of vertices and the edges that connect them.">
<polygon fill="white" stroke="black" points="1128,-641 1128,-660 1246,-660 1246,-641 1128,-641"/>
<text text-anchor="middle" x="1187" y="-648" font-family="Helvetica,sans-Serif" font-size="10.00">denoptim.graph.DGraph</text>
</a>
</g>
</g>
<!-- Node3&#45;&gt;Node4 -->
<g id="edge4" class="edge">
<title>Node3&#45;&gt;Node4</title>
<path fill="none" stroke="midnightblue" d="M282.35,-866.69C397.88,-883.54 747.93,-923.36 1017,-835.5 1061.53,-820.96 1072.13,-810.87 1105,-777.5 1142.07,-739.87 1171.07,-682.55 1181.66,-660.05"/>
<polygon fill="midnightblue" stroke="midnightblue" points="282.64,-863.19 272.23,-865.18 281.61,-870.12 282.64,-863.19"/>
</g>
<!-- Node10 -->
<g id="node10" class="node">
<title>Node10</title>
<g id="a_node10"><a xlink:href="classdenoptim_1_1graph_1_1_candidate.html" target="_top" xlink:title="A candidate is the combination of a denoptim graph with molecular representation and may include also...">
<polygon fill="white" stroke="black" points="1332,-621 1332,-640 1460,-640 1460,-621 1332,-621"/>
<text text-anchor="middle" x="1396" y="-628" font-family="Helvetica,sans-Serif" font-size="10.00">denoptim.graph.Candidate</text>
</a>
</g>
</g>
<!-- Node3&#45;&gt;Node10 -->
<g id="edge12" class="edge">
<title>Node3&#45;&gt;Node10</title>
<path fill="none" stroke="midnightblue" d="M269.71,-874.72C327.82,-904.87 472.62,-972.5 602.5,-972.5 602.5,-972.5 602.5,-972.5 1188,-972.5 1347.98,-972.5 1387.69,-695.24 1394.01,-640"/>
<polygon fill="midnightblue" stroke="midnightblue" points="271.31,-871.6 260.83,-870.05 268.05,-877.8 271.31,-871.6"/>
</g>
<!-- Node26 -->
<g id="node26" class="node">
<title>Node26</title>
<g id="a_node26"><a xlink:href="classdenoptim_1_1graph_1_1_a_p_mapping.html" target="_top" xlink:title="Class representing a mapping between attachment points (APs).">
<polygon fill="white" stroke="black" points="536,-772 536,-791 671,-791 671,-772 536,-772"/>
<text text-anchor="middle" x="603.5" y="-779" font-family="Helvetica,sans-Serif" font-size="10.00">denoptim.graph.APMapping</text>
</a>
</g>
</g>
<!-- Node3&#45;&gt;Node26 -->
<g id="edge33" class="edge">
<title>Node3&#45;&gt;Node26</title>
<path fill="none" stroke="midnightblue" d="M282.15,-859.6C340.81,-857.58 448.91,-851.09 481,-830.5 493.77,-822.31 486.51,-810.1 499,-801.5 509.85,-794.03 522.79,-789.17 535.77,-786.06"/>
<polygon fill="midnightblue" stroke="midnightblue" points="282.03,-856.1 272.14,-859.92 282.25,-863.1 282.03,-856.1"/>
</g>
<!-- Node4&#45;&gt;Node2 -->
<g id="edge3" class="edge">
<title>Node4&#45;&gt;Node2</title>
<path fill="none" stroke="#9a32cd" stroke-dasharray="5,2" d="M1165.97,-666.47C1150.34,-677.92 1127.58,-692.52 1105,-699.5 1023.42,-724.73 772.78,-727.73 660.23,-727.76"/>
<polygon fill="#9a32cd" stroke="#9a32cd" points="1168.43,-668.99 1174.28,-660.17 1164.2,-663.41 1168.43,-668.99"/>
<text text-anchor="middle" x="927.5" y="-727.5" font-family="Helvetica,sans-Serif" font-size="10.00"> owner</text>
</g>
<!-- Node4&#45;&gt;Node10 -->
<g id="edge13" class="edge">
<title>Node4&#45;&gt;Node10</title>
<path fill="none" stroke="#9a32cd" stroke-dasharray="5,2" d="M1256.33,-647.21C1275.05,-646.02 1295.33,-644.47 1314,-642.5 1320.64,-641.8 1327.58,-640.95 1334.47,-640.03"/>
<polygon fill="#9a32cd" stroke="#9a32cd" points="1255.88,-643.73 1246.11,-647.83 1256.3,-650.71 1255.88,-643.73"/>
<text text-anchor="middle" x="1291.5" y="-648.5" font-family="Helvetica,sans-Serif" font-size="10.00"> graph</text>
</g>
<!-- Node4&#45;&gt;Node13 -->
<g id="edge17" class="edge">
<title>Node4&#45;&gt;Node13</title>
<path fill="none" stroke="#9a32cd" stroke-dasharray="5,2" d="M1117.81,-657.39C1078.18,-661.39 1028.64,-666.39 990.18,-670.27"/>
<polygon fill="#9a32cd" stroke="#9a32cd" points="1118.32,-660.85 1127.92,-656.36 1117.62,-653.89 1118.32,-660.85"/>
<text text-anchor="middle" x="1070" y="-667.5" font-family="Helvetica,sans-Serif" font-size="10.00"> innerGraph</text>
</g>
<!-- Node5 -->
<g id="node5" class="node">
<title>Node5</title>
<g id="a_node5"><a xlink:title=" ">
<polygon fill="white" stroke="black" points="854.5,-629 854.5,-648 1000.5,-648 1000.5,-629 854.5,-629"/>
<text text-anchor="middle" x="927.5" y="-636" font-family="Helvetica,sans-Serif" font-size="10.00">List&lt; denoptim.graph.Vertex &gt;</text>
</a>
</g>
</g>
<!-- Node5&#45;&gt;Node4 -->
<g id="edge5" class="edge">
<title>Node5&#45;&gt;Node4</title>
<path fill="none" stroke="#9a32cd" stroke-dasharray="5,2" d="M1011.1,-632.54C1040.76,-631.47 1074.44,-631.51 1105,-634.5 1118.41,-635.81 1132.89,-638.32 1145.85,-640.96"/>
<polygon fill="#9a32cd" stroke="#9a32cd" points="1010.63,-629.05 1000.78,-632.95 1010.91,-636.05 1010.63,-629.05"/>
<text text-anchor="middle" x="1070" y="-637.5" font-family="Helvetica,sans-Serif" font-size="10.00"> gVertices</text>
</g>
<!-- Node6 -->
<g id="node6" class="node">
<title>Node6</title>
<g id="a_node6"><a xlink:title=" ">
<polygon fill="white" stroke="black" points="857.5,-591 857.5,-610 997.5,-610 997.5,-591 857.5,-591"/>
<text text-anchor="middle" x="927.5" y="-598" font-family="Helvetica,sans-Serif" font-size="10.00">List&lt; denoptim.graph.Edge &gt;</text>
</a>
</g>
</g>
<!-- Node6&#45;&gt;Node4 -->
<g id="edge6" class="edge">
<title>Node6&#45;&gt;Node4</title>
<path fill="none" stroke="#9a32cd" stroke-dasharray="5,2" d="M1007.85,-602.51C1038.55,-604.63 1073.75,-608.72 1105,-616.5 1127.5,-622.1 1151.83,-633.04 1167.9,-641"/>
<polygon fill="#9a32cd" stroke="#9a32cd" points="1007.83,-599 997.63,-601.86 1007.38,-605.99 1007.83,-599"/>
<text text-anchor="middle" x="1070" y="-619.5" font-family="Helvetica,sans-Serif" font-size="10.00"> gEdges</text>
</g>
<!-- Node7 -->
<g id="node7" class="node">
<title>Node7</title>
<g id="a_node7"><a xlink:title=" ">
<polygon fill="white" stroke="black" points="859,-553 859,-572 996,-572 996,-553 859,-553"/>
<text text-anchor="middle" x="927.5" y="-560" font-family="Helvetica,sans-Serif" font-size="10.00">List&lt; denoptim.graph.Ring &gt;</text>
</a>
</g>
</g>
<!-- Node7&#45;&gt;Node4 -->
<g id="edge7" class="edge">
<title>Node7&#45;&gt;Node4</title>
<path fill="none" stroke="#9a32cd" stroke-dasharray="5,2" d="M1006.71,-560.91C1039.25,-563.54 1076.1,-571.09 1105,-589.5 1117.16,-597.25 1112.34,-606.79 1123,-616.5 1134.39,-626.88 1149.53,-635.18 1162.11,-640.98"/>
<polygon fill="#9a32cd" stroke="#9a32cd" points="1006.52,-557.39 996.31,-560.22 1006.05,-564.38 1006.52,-557.39"/>
<text text-anchor="middle" x="1070" y="-592.5" font-family="Helvetica,sans-Serif" font-size="10.00"> gRings</text>
</g>
<!-- Node8 -->
<g id="node8" class="node">
<title>Node8</title>
<g id="a_node8"><a xlink:title=" ">
<polygon fill="white" stroke="black" points="861,-503.5 861,-533.5 994,-533.5 994,-503.5 861,-503.5"/>
<text text-anchor="start" x="869" y="-521.5" font-family="Helvetica,sans-Serif" font-size="10.00">List&lt; denoptim.graph.rings.</text>
<text text-anchor="middle" x="927.5" y="-510.5" font-family="Helvetica,sans-Serif" font-size="10.00">ClosableChain &gt;</text>
</a>
</g>
</g>
<!-- Node8&#45;&gt;Node4 -->
<g id="edge8" class="edge">
<title>Node8&#45;&gt;Node4</title>
<path fill="none" stroke="#9a32cd" stroke-dasharray="5,2" d="M1004.39,-514.26C1039,-516.35 1078.16,-524.94 1105,-549.5 1127.75,-570.32 1103.87,-592.32 1123,-616.5 1131.79,-627.61 1145.24,-635.57 1157.47,-640.98"/>
<polygon fill="#9a32cd" stroke="#9a32cd" points="1004.43,-510.76 994.29,-513.83 1004.13,-517.75 1004.43,-510.76"/>
<text text-anchor="middle" x="1070" y="-552.5" font-family="Helvetica,sans-Serif" font-size="10.00"> closableChains</text>
</g>
<!-- Node9 -->
<g id="node9" class="node">
<title>Node9</title>
<g id="a_node9"><a xlink:title=" ">
<polygon fill="white" stroke="black" points="849.5,-454.5 849.5,-484.5 1005.5,-484.5 1005.5,-454.5 849.5,-454.5"/>
<text text-anchor="start" x="857.5" y="-472.5" font-family="Helvetica,sans-Serif" font-size="10.00">List&lt; denoptim.graph.Symmetric</text>
<text text-anchor="middle" x="927.5" y="-461.5" font-family="Helvetica,sans-Serif" font-size="10.00">Vertexes &gt;</text>
</a>
</g>
</g>
<!-- Node9&#45;&gt;Node4 -->
<g id="edge9" class="edge">
<title>Node9&#45;&gt;Node4</title>
<path fill="none" stroke="#9a32cd" stroke-dasharray="5,2" d="M1015.94,-465.85C1048.02,-469.16 1082.06,-478.9 1105,-502.5 1140.75,-539.28 1093.35,-574.64 1123,-616.5 1130.97,-627.76 1143.88,-635.65 1155.94,-640.97"/>
<polygon fill="#9a32cd" stroke="#9a32cd" points="1015.87,-462.33 1005.61,-464.99 1015.29,-469.31 1015.87,-462.33"/>
<text text-anchor="middle" x="1070" y="-505.5" font-family="Helvetica,sans-Serif" font-size="10.00"> symVertices</text>
</g>
<!-- Node10&#45;&gt;Node4 -->
<g id="edge10" class="edge">
<title>Node10&#45;&gt;Node4</title>
<path fill="none" stroke="#9a32cd" stroke-dasharray="5,2" d="M1321.64,-628.33C1304.33,-628.58 1285.98,-629.47 1269,-631.5 1253.08,-633.41 1235.74,-637.23 1221.2,-640.95"/>
<polygon fill="#9a32cd" stroke="#9a32cd" points="1321.72,-631.83 1331.69,-628.26 1321.67,-624.83 1321.72,-631.83"/>
<text text-anchor="middle" x="1291.5" y="-634.5" font-family="Helvetica,sans-Serif" font-size="10.00"> candidate</text>
</g>
<!-- Node11 -->
<g id="node11" class="node">
<title>Node11</title>
<g id="a_node11"><a xlink:title=" ">
<polygon fill="white" stroke="black" points="1123,-588 1123,-607 1251,-607 1251,-588 1123,-588"/>
<text text-anchor="middle" x="1187" y="-595" font-family="Helvetica,sans-Serif" font-size="10.00">Comparable&lt; Candidate &gt;</text>
</a>
</g>
</g>
<!-- Node11&#45;&gt;Node10 -->
<g id="edge11" class="edge">
<title>Node11&#45;&gt;Node10</title>
<path fill="none" stroke="midnightblue" d="M1257.78,-608.62C1282.87,-612.62 1310.93,-617.1 1335.11,-620.95"/>
<polygon fill="midnightblue" stroke="midnightblue" points="1258.02,-605.12 1247.6,-607 1256.92,-612.03 1258.02,-605.12"/>
</g>
<!-- Node12 -->
<g id="node12" class="node">
<title>Node12</title>
<g id="a_node12"><a xlink:title=" ">
<polygon fill="white" stroke="black" points="561.5,-525 561.5,-544 645.5,-544 645.5,-525 561.5,-525"/>
<text text-anchor="middle" x="603.5" y="-532" font-family="Helvetica,sans-Serif" font-size="10.00">IAtomContainer</text>
</a>
</g>
</g>
<!-- Node12&#45;&gt;Node10 -->
<g id="edge14" class="edge">
<title>Node12&#45;&gt;Node10</title>
<path fill="none" stroke="#9a32cd" stroke-dasharray="5,2" d="M655.62,-522.1C672.98,-516.64 692.01,-509.21 708,-499.5 776.5,-457.88 763.65,-404.45 838,-374.5 911.79,-344.78 938.26,-363.11 1017,-374.5 1193.1,-399.97 1351.04,-577.64 1387.24,-620.98"/>
<polygon fill="#9a32cd" stroke="#9a32cd" points="654.2,-518.87 645.63,-525.08 656.21,-525.57 654.2,-518.87"/>
<text text-anchor="middle" x="1070" y="-401.5" font-family="Helvetica,sans-Serif" font-size="10.00"> iac</text>
</g>
<!-- Node12&#45;&gt;Node13 -->
<g id="edge18" class="edge">
<title>Node12&#45;&gt;Node13</title>
<path fill="none" stroke="#9a32cd" stroke-dasharray="5,2" d="M655.62,-536.03C704.23,-540.23 776.23,-554.04 820,-597.5 839.76,-617.12 817.54,-638.62 838,-657.5 845.51,-664.43 854.91,-669.06 864.75,-672.12"/>
<polygon fill="#9a32cd" stroke="#9a32cd" points="655.86,-532.54 645.63,-535.27 655.33,-539.52 655.86,-532.54"/>
<text text-anchor="middle" x="773" y="-600.5" font-family="Helvetica,sans-Serif" font-size="10.00"> mol</text>
</g>
<!-- Node13&#45;&gt;Node4 -->
<g id="edge15" class="edge">
<title>Node13&#45;&gt;Node4</title>
<path fill="none" stroke="#9a32cd" stroke-dasharray="5,2" d="M1000.43,-683.82C1032.63,-685.53 1070.94,-685.41 1105,-679.5 1126.34,-675.8 1149.49,-666.98 1165.56,-660.04"/>
<polygon fill="#9a32cd" stroke="#9a32cd" points="1000.39,-680.31 990.2,-683.2 999.97,-687.3 1000.39,-680.31"/>
<text text-anchor="middle" x="1070" y="-687.5" font-family="Helvetica,sans-Serif" font-size="10.00"> templateJacket</text>
</g>
<!-- Node14 -->
<g id="node14" class="node">
<title>Node14</title>
<g id="a_node14"><a xlink:href="enumdenoptim_1_1graph_1_1_template_1_1_contract_level.html" target="_top" xlink:title="Enum specifying to what extent the template&#39;s inner graph can be changed.">
<polygon fill="white" stroke="black" points="539.5,-668.5 539.5,-698.5 667.5,-698.5 667.5,-668.5 539.5,-668.5"/>
<text text-anchor="start" x="547.5" y="-686.5" font-family="Helvetica,sans-Serif" font-size="10.00">denoptim.graph.Template.</text>
<text text-anchor="middle" x="603.5" y="-675.5" font-family="Helvetica,sans-Serif" font-size="10.00">ContractLevel</text>
</a>
</g>
</g>
<!-- Node14&#45;&gt;Node13 -->
<g id="edge19" class="edge">
<title>Node14&#45;&gt;Node13</title>
<path fill="none" stroke="#9a32cd" stroke-dasharray="5,2" d="M677.83,-679.35C693.71,-678.6 710.41,-677.92 726,-677.5 772.45,-676.24 824.98,-676.02 864.62,-676.1"/>
<polygon fill="#9a32cd" stroke="#9a32cd" points="677.36,-675.87 667.54,-679.85 677.7,-682.86 677.36,-675.87"/>
<text text-anchor="middle" x="773" y="-680.5" font-family="Helvetica,sans-Serif" font-size="10.00"> contractLevel</text>
</g>
<!-- Node15 -->
<g id="node15" class="node">
<title>Node15</title>
<g id="a_node15"><a xlink:title=" ">
<polygon fill="white" stroke="black" points="523.5,-619.5 523.5,-649.5 683.5,-649.5 683.5,-619.5 523.5,-619.5"/>
<text text-anchor="start" x="531.5" y="-637.5" font-family="Helvetica,sans-Serif" font-size="10.00">List&lt; denoptim.graph.Attachment</text>
<text text-anchor="middle" x="603.5" y="-626.5" font-family="Helvetica,sans-Serif" font-size="10.00">Point &gt;</text>
</a>
</g>
</g>
<!-- Node15&#45;&gt;Node13 -->
<g id="edge20" class="edge">
<title>Node15&#45;&gt;Node13</title>
<path fill="none" stroke="#9a32cd" stroke-dasharray="5,2" d="M693.86,-644.69C732.66,-649.27 778.61,-654.89 820,-660.5 834.64,-662.48 850.38,-664.76 865.16,-666.97"/>
<polygon fill="#9a32cd" stroke="#9a32cd" points="693.98,-641.18 683.64,-643.49 693.16,-648.13 693.98,-641.18"/>
<text text-anchor="middle" x="773" y="-663.5" font-family="Helvetica,sans-Serif" font-size="10.00"> requiredAPs</text>
</g>
<!-- Node16 -->
<g id="node16" class="node">
<title>Node16</title>
<g id="a_node16"><a xlink:href="classdenoptim_1_1graph_1_1_a_p_tree_map.html" target="_top" xlink:title="Attachment point mapping where keys are sorted by natural ordering, i.e., by AttachmentPoint#compareT...">
<polygon fill="white" stroke="black" points="535,-581 535,-600 672,-600 672,-581 535,-581"/>
<text text-anchor="middle" x="603.5" y="-588" font-family="Helvetica,sans-Serif" font-size="10.00">denoptim.graph.APTreeMap</text>
</a>
</g>
</g>
<!-- Node16&#45;&gt;Node13 -->
<g id="edge21" class="edge">
<title>Node16&#45;&gt;Node13</title>
<path fill="none" stroke="#9a32cd" stroke-dasharray="5,2" d="M664.7,-602.01C678.9,-604.76 693.99,-607.71 708,-610.5 757.84,-620.43 777.08,-606.3 820,-633.5 831.26,-640.64 826.77,-650.31 838,-657.5 846.07,-662.67 855.32,-666.45 864.73,-669.22"/>
<polygon fill="#9a32cd" stroke="#9a32cd" points="665.02,-598.51 654.53,-600.05 663.69,-605.38 665.02,-598.51"/>
<text text-anchor="middle" x="773" y="-636.5" font-family="Helvetica,sans-Serif" font-size="10.00"> innerToOuterAPs</text>
</g>
<!-- Node17 -->
<g id="node17" class="node">
<title>Node17</title>
<g id="a_node17"><a xlink:title=" ">
<polygon fill="white" stroke="black" points="169.5,-666.5 169.5,-696.5 315.5,-696.5 315.5,-666.5 169.5,-666.5"/>
<text text-anchor="start" x="177.5" y="-684.5" font-family="Helvetica,sans-Serif" font-size="10.00">LinkedHashMap&lt; Attachment</text>
<text text-anchor="middle" x="242.5" y="-673.5" font-family="Helvetica,sans-Serif" font-size="10.00">Point, AttachmentPoint &gt;</text>
</a>
</g>
</g>
<!-- Node17&#45;&gt;Node16 -->
<g id="edge22" class="edge">
<title>Node17&#45;&gt;Node16</title>
<path fill="none" stroke="midnightblue" d="M325.53,-679.18C384.19,-676 456.86,-668.43 481,-650.5 496.65,-638.88 483.71,-622.6 499,-610.5 509.33,-602.32 522.04,-597.16 534.97,-593.97"/>
<polygon fill="midnightblue" stroke="midnightblue" points="325.31,-675.69 315.5,-679.7 325.67,-682.68 325.31,-675.69"/>
</g>
<!-- Node17&#45;&gt;Node26 -->
<g id="edge32" class="edge">
<title>Node17&#45;&gt;Node26</title>
<path fill="none" stroke="midnightblue" d="M325.67,-680.14C374.11,-682.87 434.77,-692.72 481,-721.5 492.62,-728.74 487.99,-738.36 499,-746.5 515.32,-758.56 536.08,-766.66 554.72,-771.99"/>
<polygon fill="midnightblue" stroke="midnightblue" points="325.68,-676.64 315.52,-679.66 325.35,-683.63 325.68,-676.64"/>
</g>
<!-- Node18 -->
<g id="node18" class="node">
<title>Node18</title>
<g id="a_node18"><a xlink:title=" ">
<polygon fill="white" stroke="black" points="839,-383.5 839,-435.5 1016,-435.5 1016,-383.5 839,-383.5"/>
<text text-anchor="start" x="847" y="-423.5" font-family="Helvetica,sans-Serif" font-size="10.00">DefaultUndirectedGraph</text>
<text text-anchor="start" x="847" y="-412.5" font-family="Helvetica,sans-Serif" font-size="10.00">&lt; denoptim.graph.Vertex,</text>
<text text-anchor="start" x="847" y="-401.5" font-family="Helvetica,sans-Serif" font-size="10.00"> denoptim.graph.simplified.Undirected</text>
<text text-anchor="middle" x="927.5" y="-390.5" font-family="Helvetica,sans-Serif" font-size="10.00">Edge &gt;</text>
</a>
</g>
</g>
<!-- Node18&#45;&gt;Node4 -->
<g id="edge23" class="edge">
<title>Node18&#45;&gt;Node4</title>
<path fill="none" stroke="#9a32cd" stroke-dasharray="5,2" d="M1026.07,-412.89C1055.44,-418.86 1085.12,-430.75 1105,-453.5 1152.96,-508.38 1082.27,-556.06 1123,-616.5 1130.57,-627.73 1143.12,-635.57 1155.03,-640.86"/>
<polygon fill="#9a32cd" stroke="#9a32cd" points="1026.6,-409.42 1016.13,-411.08 1025.35,-416.31 1026.6,-409.42"/>
<text text-anchor="middle" x="1070" y="-456.5" font-family="Helvetica,sans-Serif" font-size="10.00"> jGraph</text>
</g>
<!-- Node19 -->
<g id="node19" class="node">
<title>Node19</title>
<g id="a_node19"><a xlink:title=" ">
<polygon fill="white" stroke="black" points="838,-891.5 838,-943.5 1017,-943.5 1017,-891.5 838,-891.5"/>
<text text-anchor="start" x="846" y="-931.5" font-family="Helvetica,sans-Serif" font-size="10.00">DefaultUndirectedGraph</text>
<text text-anchor="start" x="846" y="-920.5" font-family="Helvetica,sans-Serif" font-size="10.00">&lt; denoptim.graph.simplified.</text>
<text text-anchor="start" x="846" y="-909.5" font-family="Helvetica,sans-Serif" font-size="10.00">Node, denoptim.graph.simplified.Node</text>
<text text-anchor="middle" x="927.5" y="-898.5" font-family="Helvetica,sans-Serif" font-size="10.00">Connection &gt;</text>
</a>
</g>
</g>
<!-- Node19&#45;&gt;Node4 -->
<g id="edge24" class="edge">
<title>Node19&#45;&gt;Node4</title>
<path fill="none" stroke="#9a32cd" stroke-dasharray="5,2" d="M1027.08,-912.13C1054.99,-906.28 1083.56,-895.59 1105,-876.5 1172.55,-816.36 1183.78,-695.79 1185.64,-660.45"/>
<polygon fill="#9a32cd" stroke="#9a32cd" points="1026.42,-908.69 1017.25,-914 1027.73,-915.57 1026.42,-908.69"/>
<text text-anchor="middle" x="1070" y="-912.5" font-family="Helvetica,sans-Serif" font-size="10.00"> jGraphKernel</text>
</g>
<!-- Node20 -->
<g id="node20" class="node">
<title>Node20</title>
<g id="a_node20"><a xlink:title=" ">
<polygon fill="white" stroke="black" points="889,-757 889,-776 966,-776 966,-757 889,-757"/>
<text text-anchor="middle" x="927.5" y="-764" font-family="Helvetica,sans-Serif" font-size="10.00">AtomicInteger</text>
</a>
</g>
</g>
<!-- Node20&#45;&gt;Node4 -->
<g id="edge25" class="edge">
<title>Node20&#45;&gt;Node4</title>
<path fill="none" stroke="#9a32cd" stroke-dasharray="5,2" d="M976.36,-768.44C1013.52,-767.96 1065.23,-762.82 1105,-741.5 1141.35,-722.01 1169.32,-679.41 1180.59,-660.22"/>
<polygon fill="#9a32cd" stroke="#9a32cd" points="976.28,-764.94 966.29,-768.46 976.29,-771.94 976.28,-764.94"/>
<text text-anchor="middle" x="1070" y="-765.5" font-family="Helvetica,sans-Serif" font-size="10.00"> apCounter</text>
</g>
<!-- Node21 -->
<g id="node21" class="node">
<title>Node21</title>
<g id="a_node21"><a xlink:href="enumdenoptim_1_1graph_1_1_vertex_1_1_b_b_type.html" target="_top" xlink:title="The type of building block.">
<polygon fill="white" stroke="black" points="168,-716 168,-735 317,-735 317,-716 168,-716"/>
<text text-anchor="middle" x="242.5" y="-723" font-family="Helvetica,sans-Serif" font-size="10.00">denoptim.graph.Vertex.BBType</text>
</a>
</g>
</g>
<!-- Node21&#45;&gt;Node2 -->
<g id="edge26" class="edge">
<title>Node21&#45;&gt;Node2</title>
<path fill="none" stroke="#9a32cd" stroke-dasharray="5,2" d="M327.17,-725.77C372.66,-725.94 429.92,-726.18 481,-726.5 502.52,-726.63 526.17,-726.82 546.85,-727"/>
<polygon fill="#9a32cd" stroke="#9a32cd" points="327.07,-722.27 317.05,-725.73 327.04,-729.27 327.07,-722.27"/>
<text text-anchor="middle" x="421" y="-729.5" font-family="Helvetica,sans-Serif" font-size="10.00"> buildingBlockType</text>
</g>
<!-- Node22 -->
<g id="node22" class="node">
<title>Node22</title>
<g id="a_node22"><a xlink:title=" ">
<polygon fill="white" stroke="black" points="185.5,-628 185.5,-647 299.5,-647 299.5,-628 185.5,-628"/>
<text text-anchor="middle" x="242.5" y="-635" font-family="Helvetica,sans-Serif" font-size="10.00">Map&lt; Object, Object &gt;</text>
</a>
</g>
</g>
<!-- Node22&#45;&gt;Node2 -->
<g id="edge27" class="edge">
<title>Node22&#45;&gt;Node2</title>
<path fill="none" stroke="#9a32cd" stroke-dasharray="5,2" d="M309.74,-628.85C361.37,-625.75 432.25,-629.92 481,-666.5 497.24,-678.69 483.13,-695.83 499,-708.5 512.42,-719.21 529.94,-724.62 546.74,-727.18"/>
<polygon fill="#9a32cd" stroke="#9a32cd" points="309.41,-625.36 299.68,-629.56 309.9,-632.34 309.41,-625.36"/>
<text text-anchor="middle" x="421" y="-669.5" font-family="Helvetica,sans-Serif" font-size="10.00"> properties</text>
</g>
<!-- Node23 -->
<g id="node23" class="node">
<title>Node23</title>
<g id="a_node23"><a xlink:title=" ">
<polygon fill="white" stroke="black" points="205.5,-590 205.5,-609 279.5,-609 279.5,-590 205.5,-590"/>
<text text-anchor="middle" x="242.5" y="-597" font-family="Helvetica,sans-Serif" font-size="10.00">Set&lt; String &gt;</text>
</a>
</g>
</g>
<!-- Node23&#45;&gt;Node2 -->
<g id="edge28" class="edge">
<title>Node23&#45;&gt;Node2</title>
<path fill="none" stroke="#9a32cd" stroke-dasharray="5,2" d="M289.78,-595.77C350.79,-591.9 453.58,-589.39 481,-613.5 513.27,-641.88 468.53,-678.2 499,-708.5 511.57,-720.99 529.47,-726.75 546.86,-729.08"/>
<polygon fill="#9a32cd" stroke="#9a32cd" points="289.38,-592.29 279.64,-596.45 289.85,-599.27 289.38,-592.29"/>
<text text-anchor="middle" x="421" y="-616.5" font-family="Helvetica,sans-Serif" font-size="10.00"> uniquefyingPropertyKeys</text>
</g>
<!-- Node24 -->
<g id="node24" class="node">
<title>Node24</title>
<g id="a_node24"><a xlink:title=" ">
<polygon fill="white" stroke="black" points="172,-792.5 172,-822.5 313,-822.5 313,-792.5 172,-792.5"/>
<text text-anchor="start" x="180" y="-810.5" font-family="Helvetica,sans-Serif" font-size="10.00">List&lt; denoptim.utils.Mutation</text>
<text text-anchor="middle" x="242.5" y="-799.5" font-family="Helvetica,sans-Serif" font-size="10.00">Type &gt;</text>
</a>
</g>
</g>
<!-- Node24&#45;&gt;Node2 -->
<g id="edge29" class="edge">
<title>Node24&#45;&gt;Node2</title>
<path fill="none" stroke="#9a32cd" stroke-dasharray="5,2" d="M323.09,-796.04C369.46,-788.71 428.89,-778.2 481,-765.5 513.85,-757.49 550.84,-745.48 575.28,-737.12"/>
<polygon fill="#9a32cd" stroke="#9a32cd" points="322.44,-792.6 313.1,-797.6 323.52,-799.51 322.44,-792.6"/>
<text text-anchor="middle" x="421" y="-791.5" font-family="Helvetica,sans-Serif" font-size="10.00"> allowedMutationTypes</text>
</g>
<!-- Node25 -->
<g id="node25" class="node">
<title>Node25</title>
<g id="a_node25"><a xlink:href="enumdenoptim_1_1graph_1_1_vertex_1_1_vertex_type.html" target="_top" xlink:title="Flag declaring the type of Vertex implementation.">
<polygon fill="white" stroke="black" points="160.5,-754 160.5,-773 324.5,-773 324.5,-754 160.5,-754"/>
<text text-anchor="middle" x="242.5" y="-761" font-family="Helvetica,sans-Serif" font-size="10.00">denoptim.graph.Vertex.VertexType</text>
</a>
</g>
</g>
<!-- Node25&#45;&gt;Node2 -->
<g id="edge30" class="edge">
<title>Node25&#45;&gt;Node2</title>
<path fill="none" stroke="#9a32cd" stroke-dasharray="5,2" d="M334.64,-754.36C401.54,-747.65 490.26,-738.76 546.88,-733.08"/>
<polygon fill="#9a32cd" stroke="#9a32cd" points="334.12,-750.9 324.51,-755.38 334.81,-757.86 334.12,-750.9"/>
<text text-anchor="middle" x="421" y="-753.5" font-family="Helvetica,sans-Serif" font-size="10.00"> vertexType</text>
</g>
<!-- Node26&#45;&gt;Node1 -->
<g id="edge31" class="edge">
<title>Node26&#45;&gt;Node1</title>
<path fill="none" stroke="#9a32cd" stroke-dasharray="5,2" d="M680.98,-788.14C722.17,-791.74 773.87,-796.3 820,-800.5 833.69,-801.75 848.36,-803.11 862.3,-804.41"/>
<polygon fill="#9a32cd" stroke="#9a32cd" points="681.27,-784.65 671.01,-787.27 680.67,-791.62 681.27,-784.65"/>
<text text-anchor="middle" x="773" y="-803.5" font-family="Helvetica,sans-Serif" font-size="10.00"> chosenAPMap</text>
</g>
<!-- Node27 -->
<g id="node27" class="node">
<title>Node27</title>
<g id="a_node27"><a xlink:title=" ">
<polygon fill="white" stroke="black" points="499,-810.5 499,-840.5 708,-840.5 708,-810.5 499,-810.5"/>
<text text-anchor="start" x="507" y="-828.5" font-family="Helvetica,sans-Serif" font-size="10.00">LinkedHashMap&lt; denoptim.graph.</text>
<text text-anchor="middle" x="603.5" y="-817.5" font-family="Helvetica,sans-Serif" font-size="10.00">Vertex, List&lt; denoptim.graph.APMapping &gt; &gt;</text>
</a>
</g>
</g>
<!-- Node27&#45;&gt;Node1 -->
<g id="edge34" class="edge">
<title>Node27&#45;&gt;Node1</title>
<path fill="none" stroke="#9a32cd" stroke-dasharray="5,2" d="M718.37,-820.2C766.73,-817.94 821.31,-815.4 862.44,-813.48"/>
<polygon fill="#9a32cd" stroke="#9a32cd" points="717.98,-816.71 708.16,-820.67 718.31,-823.7 717.98,-816.71"/>
<text text-anchor="middle" x="773" y="-822.5" font-family="Helvetica,sans-Serif" font-size="10.00"> allCompatLinks</text>
</g>
<!-- Node28 -->
<g id="node28" class="node">
<title>Node28</title>
<g id="a_node28"><a xlink:href="classdenoptim_1_1fragspace_1_1_fragment_space.html" target="_top" xlink:title="Class defining a space of building blocks.">
<polygon fill="white" stroke="black" points="531,-190.5 531,-220.5 676,-220.5 676,-190.5 531,-190.5"/>
<text text-anchor="start" x="539" y="-208.5" font-family="Helvetica,sans-Serif" font-size="10.00">denoptim.fragspace.Fragment</text>
<text text-anchor="middle" x="603.5" y="-197.5" font-family="Helvetica,sans-Serif" font-size="10.00">Space</text>
</a>
</g>
</g>
<!-- Node28&#45;&gt;Node1 -->
<g id="edge35" class="edge">
<title>Node28&#45;&gt;Node1</title>
<path fill="none" stroke="#9a32cd" stroke-dasharray="5,2" d="M625.7,-228.36C671.01,-278.81 776.66,-405.42 820,-533.5 838,-586.68 802.55,-741.97 838,-785.5 844.35,-793.3 852.94,-798.77 862.27,-802.6"/>
<polygon fill="#9a32cd" stroke="#9a32cd" points="628.03,-225.71 618.72,-220.65 622.84,-230.41 628.03,-225.71"/>
<text text-anchor="middle" x="773" y="-536.5" font-family="Helvetica,sans-Serif" font-size="10.00"> fragmentSpace</text>
</g>
<!-- Node37 -->
<g id="node37" class="node">
<title>Node37</title>
<g id="a_node37"><a xlink:href="classdenoptim_1_1fragspace_1_1_fragment_space_parameters.html" target="_top" xlink:title="Parameters defining the fragment space.">
<polygon fill="white" stroke="black" points="855,-181.5 855,-211.5 1000,-211.5 1000,-181.5 855,-181.5"/>
<text text-anchor="start" x="863" y="-199.5" font-family="Helvetica,sans-Serif" font-size="10.00">denoptim.fragspace.Fragment</text>
<text text-anchor="middle" x="927.5" y="-188.5" font-family="Helvetica,sans-Serif" font-size="10.00">SpaceParameters</text>
</a>
</g>
</g>
<!-- Node28&#45;&gt;Node37 -->
<g id="edge52" class="edge">
<title>Node28&#45;&gt;Node37</title>
<path fill="none" stroke="#9a32cd" stroke-dasharray="5,2" d="M686.23,-189.41C699.48,-187.37 713.08,-185.61 726,-184.5 767.62,-180.93 778.29,-182.16 820,-184.5 831.33,-185.14 843.31,-186.15 854.98,-187.33"/>
<polygon fill="#9a32cd" stroke="#9a32cd" points="685.51,-185.98 676.19,-191.02 686.62,-192.89 685.51,-185.98"/>
<text text-anchor="middle" x="773" y="-187.5" font-family="Helvetica,sans-Serif" font-size="10.00"> buildingBlocksSpace</text>
</g>
<!-- Node29 -->
<g id="node29" class="node">
<title>Node29</title>
<g id="a_node29"><a xlink:title=" ">
<polygon fill="white" stroke="black" points="176.5,-199.5 176.5,-229.5 308.5,-229.5 308.5,-199.5 176.5,-199.5"/>
<text text-anchor="start" x="184.5" y="-217.5" font-family="Helvetica,sans-Serif" font-size="10.00">ArrayList&lt; denoptim.graph.</text>
<text text-anchor="middle" x="242.5" y="-206.5" font-family="Helvetica,sans-Serif" font-size="10.00">Vertex &gt;</text>
</a>
</g>
</g>
<!-- Node29&#45;&gt;Node28 -->
<g id="edge36" class="edge">
<title>Node29&#45;&gt;Node28</title>
<path fill="none" stroke="#9a32cd" stroke-dasharray="5,2" d="M318.81,-208.66C332.83,-207.77 347.35,-206.99 361,-206.5 418.09,-204.44 482.82,-204.29 530.88,-204.6"/>
<polygon fill="#9a32cd" stroke="#9a32cd" points="318.47,-205.17 308.72,-209.32 318.93,-212.16 318.47,-205.17"/>
<text text-anchor="middle" x="421" y="-242.5" font-family="Helvetica,sans-Serif" font-size="10.00"> cappingLib</text>
<text text-anchor="middle" x="421" y="-231.5" font-family="Helvetica,sans-Serif" font-size="10.00">fragmentLib</text>
<text text-anchor="middle" x="421" y="-220.5" font-family="Helvetica,sans-Serif" font-size="10.00">rcvs</text>
<text text-anchor="middle" x="421" y="-209.5" font-family="Helvetica,sans-Serif" font-size="10.00">scaffoldLib</text>
</g>
<!-- Node30 -->
<g id="node30" class="node">
<title>Node30</title>
<g id="a_node30"><a xlink:title=" ">
<polygon fill="white" stroke="black" points="154.5,-140 154.5,-181 330.5,-181 330.5,-140 154.5,-140"/>
<text text-anchor="start" x="162.5" y="-169" font-family="Helvetica,sans-Serif" font-size="10.00">HashMap&lt; denoptim.graph.</text>
<text text-anchor="start" x="162.5" y="-158" font-family="Helvetica,sans-Serif" font-size="10.00">APClass, ArrayList&lt; denoptim.graph.</text>
<text text-anchor="middle" x="242.5" y="-147" font-family="Helvetica,sans-Serif" font-size="10.00">APClass &gt; &gt;</text>
</a>
</g>
</g>
<!-- Node30&#45;&gt;Node28 -->
<g id="edge37" class="edge">
<title>Node30&#45;&gt;Node28</title>
<path fill="none" stroke="#9a32cd" stroke-dasharray="5,2" d="M340.92,-164.06C384.01,-166.51 435.21,-170.63 481,-177.5 502.3,-180.7 525.4,-185.64 545.68,-190.49"/>
<polygon fill="#9a32cd" stroke="#9a32cd" points="340.89,-160.55 330.71,-163.5 340.51,-167.54 340.89,-160.55"/>
<text text-anchor="middle" x="421" y="-191.5" font-family="Helvetica,sans-Serif" font-size="10.00"> apClassCompatibilityMatrix</text>
<text text-anchor="middle" x="421" y="-180.5" font-family="Helvetica,sans-Serif" font-size="10.00">rcCompatMap</text>
</g>
<!-- Node31 -->
<g id="node31" class="node">
<title>Node31</title>
<g id="a_node31"><a xlink:title=" ">
<polygon fill="white" stroke="black" points="155,-91.5 155,-121.5 330,-121.5 330,-91.5 155,-91.5"/>
<text text-anchor="start" x="163" y="-109.5" font-family="Helvetica,sans-Serif" font-size="10.00">HashMap&lt; denoptim.graph.</text>
<text text-anchor="middle" x="242.5" y="-98.5" font-family="Helvetica,sans-Serif" font-size="10.00">APClass, denoptim.graph.APClass &gt;</text>
</a>
</g>
</g>
<!-- Node31&#45;&gt;Node28 -->
<g id="edge38" class="edge">
<title>Node31&#45;&gt;Node28</title>
<path fill="none" stroke="#9a32cd" stroke-dasharray="5,2" d="M340.23,-118.99C383.84,-126 435.62,-136.26 481,-150.5 514.14,-160.9 550.16,-178 574.3,-190.37"/>
<polygon fill="#9a32cd" stroke="#9a32cd" points="340.62,-115.51 330.19,-117.41 339.53,-122.42 340.62,-115.51"/>
<text text-anchor="middle" x="421" y="-153.5" font-family="Helvetica,sans-Serif" font-size="10.00"> cappingMap</text>
</g>
<!-- Node32 -->
<g id="node32" class="node">
<title>Node32</title>
<g id="a_node32"><a xlink:title=" ">
<polygon fill="white" stroke="black" points="165,-53 165,-72 320,-72 320,-53 165,-53"/>
<text text-anchor="middle" x="242.5" y="-60" font-family="Helvetica,sans-Serif" font-size="10.00">Set&lt; denoptim.graph.APClass &gt;</text>
</a>
</g>
</g>
<!-- Node32&#45;&gt;Node28 -->
<g id="edge39" class="edge">
<title>Node32&#45;&gt;Node28</title>
<path fill="none" stroke="#9a32cd" stroke-dasharray="5,2" d="M330.24,-68.65C376.65,-74.44 433.8,-85.68 481,-107.5 525.52,-128.08 567.83,-168.55 588.79,-190.49"/>
<polygon fill="#9a32cd" stroke="#9a32cd" points="330.55,-65.16 320.21,-67.46 329.73,-72.12 330.55,-65.16"/>
<text text-anchor="middle" x="421" y="-110.5" font-family="Helvetica,sans-Serif" font-size="10.00"> forbiddenEndList</text>
</g>
<!-- Node33 -->
<g id="node33" class="node">
<title>Node33</title>
<g id="a_node33"><a xlink:title=" ">
<polygon fill="white" stroke="black" points="172,-356.5 172,-386.5 313,-386.5 313,-356.5 172,-356.5"/>
<text text-anchor="start" x="180" y="-374.5" font-family="Helvetica,sans-Serif" font-size="10.00">HashMap&lt; Integer, ArrayList</text>
<text text-anchor="middle" x="242.5" y="-363.5" font-family="Helvetica,sans-Serif" font-size="10.00">&lt; Integer &gt; &gt;</text>
</a>
</g>
</g>
<!-- Node33&#45;&gt;Node28 -->
<g id="edge40" class="edge">
<title>Node33&#45;&gt;Node28</title>
<path fill="none" stroke="#9a32cd" stroke-dasharray="5,2" d="M323.05,-367.21C371.08,-361.92 432.23,-350.21 481,-324.5 530.1,-298.61 572.61,-246.57 591.73,-220.75"/>
<polygon fill="#9a32cd" stroke="#9a32cd" points="322.6,-363.74 313.01,-368.25 323.32,-370.71 322.6,-363.74"/>
<text text-anchor="middle" x="421" y="-364.5" font-family="Helvetica,sans-Serif" font-size="10.00"> fragPoolPerNumAP</text>
</g>
<!-- Node34 -->
<g id="node34" class="node">
<title>Node34</title>
<g id="a_node34"><a xlink:title=" ">
<polygon fill="white" stroke="black" points="168.5,-307.5 168.5,-337.5 316.5,-337.5 316.5,-307.5 168.5,-307.5"/>
<text text-anchor="start" x="176.5" y="-325.5" font-family="Helvetica,sans-Serif" font-size="10.00">HashMap&lt; Integer, ArrayList</text>
<text text-anchor="middle" x="242.5" y="-314.5" font-family="Helvetica,sans-Serif" font-size="10.00">&lt; denoptim.graph.APClass &gt; &gt;</text>
</a>
</g>
</g>
<!-- Node34&#45;&gt;Node28 -->
<g id="edge41" class="edge">
<title>Node34&#45;&gt;Node28</title>
<path fill="none" stroke="#9a32cd" stroke-dasharray="5,2" d="M326.63,-315.57C373.17,-309.79 431.61,-299.32 481,-280.5 519.92,-265.67 560.08,-238.01 583.1,-220.74"/>
<polygon fill="#9a32cd" stroke="#9a32cd" points="326.1,-312.11 316.58,-316.77 326.93,-319.06 326.1,-312.11"/>
<text text-anchor="middle" x="421" y="-312.5" font-family="Helvetica,sans-Serif" font-size="10.00"> apClassesPerFrag</text>
</g>
<!-- Node35 -->
<g id="node35" class="node">
<title>Node35</title>
<g id="a_node35"><a xlink:title=" ">
<polygon fill="white" stroke="black" points="169.5,-248 169.5,-289 315.5,-289 315.5,-248 169.5,-248"/>
<text text-anchor="start" x="177.5" y="-277" font-family="Helvetica,sans-Serif" font-size="10.00">HashMap&lt; denoptim.graph.</text>
<text text-anchor="start" x="177.5" y="-266" font-family="Helvetica,sans-Serif" font-size="10.00">APClass, ArrayList&lt; ArrayList</text>
<text text-anchor="middle" x="242.5" y="-255" font-family="Helvetica,sans-Serif" font-size="10.00">&lt; Integer &gt; &gt; &gt;</text>
</a>
</g>
</g>
<!-- Node35&#45;&gt;Node28 -->
<g id="edge42" class="edge">
<title>Node35&#45;&gt;Node28</title>
<path fill="none" stroke="#9a32cd" stroke-dasharray="5,2" d="M325.94,-267.88C372.01,-266.14 430.2,-261.6 481,-250.5 511.88,-243.75 545.46,-230.86 569.48,-220.59"/>
<polygon fill="#9a32cd" stroke="#9a32cd" points="325.58,-264.39 315.7,-268.23 325.82,-271.39 325.58,-264.39"/>
<text text-anchor="middle" x="421" y="-268.5" font-family="Helvetica,sans-Serif" font-size="10.00"> fragsApsPerApClass</text>
</g>
<!-- Node36 -->
<g id="node36" class="node">
<title>Node36</title>
<g id="a_node36"><a xlink:title=" ">
<polygon fill="white" stroke="black" points="175,-0.5 175,-30.5 310,-30.5 310,-0.5 175,-0.5"/>
<text text-anchor="start" x="183" y="-18.5" font-family="Helvetica,sans-Serif" font-size="10.00">HashMap&lt; denoptim.graph.</text>
<text text-anchor="middle" x="242.5" y="-7.5" font-family="Helvetica,sans-Serif" font-size="10.00">APClass, Double &gt;</text>
</a>
</g>
</g>
<!-- Node36&#45;&gt;Node28 -->
<g id="edge43" class="edge">
<title>Node36&#45;&gt;Node28</title>
<path fill="none" stroke="#9a32cd" stroke-dasharray="5,2" d="M320.15,-23.24C378.87,-30.24 454.22,-41.84 481,-57.5 537.24,-90.4 578.59,-159.67 594.87,-190.34"/>
<polygon fill="#9a32cd" stroke="#9a32cd" points="320.48,-19.75 310.14,-22.07 319.67,-26.71 320.48,-19.75"/>
<text text-anchor="middle" x="421" y="-60.5" font-family="Helvetica,sans-Serif" font-size="10.00"> symmConstraints</text>
</g>
<!-- Node36&#45;&gt;Node37 -->
<g id="edge51" class="edge">
<title>Node36&#45;&gt;Node37</title>
<path fill="none" stroke="#9a32cd" stroke-dasharray="5,2" d="M320.32,-12.48C367.21,-12.17 428.1,-14.54 481,-25.5 644.87,-59.45 827.51,-146.29 897.27,-181.42"/>
<polygon fill="#9a32cd" stroke="#9a32cd" points="320.2,-8.98 310.24,-12.59 320.27,-15.98 320.2,-8.98"/>
<text text-anchor="middle" x="603.5" y="-96.5" font-family="Helvetica,sans-Serif" font-size="10.00"> symmConstraintsMap</text>
</g>
<!-- Node37&#45;&gt;Node28 -->
<g id="edge44" class="edge">
<title>Node37&#45;&gt;Node28</title>
<path fill="none" stroke="#9a32cd" stroke-dasharray="5,2" d="M844.68,-198.79C792.77,-200.24 726.23,-202.1 676.36,-203.49"/>
<polygon fill="#9a32cd" stroke="#9a32cd" points="844.96,-202.28 854.86,-198.5 844.76,-195.28 844.96,-202.28"/>
<text text-anchor="middle" x="773" y="-204.5" font-family="Helvetica,sans-Serif" font-size="10.00"> settings</text>
</g>
<!-- Node38 -->
<g id="node38" class="node">
<title>Node38</title>
<g id="a_node38"><a xlink:href="classdenoptim_1_1programs_1_1_run_time_parameters.html" target="_top" xlink:title="Collection of parameters controlling the behavior of the software.">
<polygon fill="white" stroke="black" points="533.5,-459.5 533.5,-489.5 673.5,-489.5 673.5,-459.5 533.5,-459.5"/>
<text text-anchor="start" x="541.5" y="-477.5" font-family="Helvetica,sans-Serif" font-size="10.00">denoptim.programs.RunTime</text>
<text text-anchor="middle" x="603.5" y="-466.5" font-family="Helvetica,sans-Serif" font-size="10.00">Parameters</text>
</a>
</g>
</g>
<!-- Node38&#45;&gt;Node37 -->
<g id="edge45" class="edge">
<title>Node38&#45;&gt;Node37</title>
<path fill="none" stroke="midnightblue" d="M621.53,-450.87C643.25,-422 683.15,-373.01 726,-340.5 763.21,-312.27 781.48,-319.92 820,-293.5 856.3,-268.6 893.02,-232.09 912.43,-211.7"/>
<polygon fill="midnightblue" stroke="midnightblue" points="618.54,-449.02 615.39,-459.14 624.16,-453.19 618.54,-449.02"/>
</g>
<!-- Node39 -->
<g id="node39" class="node">
<title>Node39</title>
<g id="a_node39"><a xlink:title=" ">
<polygon fill="white" stroke="black" points="219,-552 219,-571 266,-571 266,-552 219,-552"/>
<text text-anchor="middle" x="242.5" y="-559" font-family="Helvetica,sans-Serif" font-size="10.00">Logger</text>
</a>
</g>
</g>
<!-- Node39&#45;&gt;Node38 -->
<g id="edge46" class="edge">
<title>Node39&#45;&gt;Node38</title>
<path fill="none" stroke="#9a32cd" stroke-dasharray="5,2" d="M276.1,-557.87C322.27,-552.29 409.1,-540.12 481,-520.5 511.03,-512.3 543.99,-499.58 567.99,-489.59"/>
<polygon fill="#9a32cd" stroke="#9a32cd" points="275.6,-554.41 266.08,-559.06 276.42,-561.36 275.6,-554.41"/>
<text text-anchor="middle" x="421" y="-547.5" font-family="Helvetica,sans-Serif" font-size="10.00"> logger</text>
</g>
<!-- Node40 -->
<g id="node40" class="node">
<title>Node40</title>
<g id="a_node40"><a xlink:href="classdenoptim_1_1utils_1_1_randomizer.html" target="_top" xlink:title="Tool to generate random numbers and random decisions.">
<polygon fill="white" stroke="black" points="177.5,-514 177.5,-533 307.5,-533 307.5,-514 177.5,-514"/>
<text text-anchor="middle" x="242.5" y="-521" font-family="Helvetica,sans-Serif" font-size="10.00">denoptim.utils.Randomizer</text>
</a>
</g>
</g>
<!-- Node40&#45;&gt;Node38 -->
<g id="edge47" class="edge">
<title>Node40&#45;&gt;Node38</title>
<path fill="none" stroke="#9a32cd" stroke-dasharray="5,2" d="M317.61,-513.38C380.98,-504.74 471.47,-492.38 533.36,-483.94"/>
<polygon fill="#9a32cd" stroke="#9a32cd" points="317.12,-509.92 307.68,-514.74 318.06,-516.86 317.12,-509.92"/>
<text text-anchor="middle" x="421" y="-508.5" font-family="Helvetica,sans-Serif" font-size="10.00"> rng</text>
</g>
<!-- Node41 -->
<g id="node41" class="node">
<title>Node41</title>
<g id="a_node41"><a xlink:title=" ">
<polygon fill="white" stroke="black" points="0,-514 0,-533 92,-533 92,-514 0,-514"/>
<text text-anchor="middle" x="46" y="-521" font-family="Helvetica,sans-Serif" font-size="10.00">MersenneTwister</text>
</a>
</g>
</g>
<!-- Node41&#45;&gt;Node40 -->
<g id="edge48" class="edge">
<title>Node41&#45;&gt;Node40</title>
<path fill="none" stroke="#9a32cd" stroke-dasharray="5,2" d="M102.23,-523.5C125.67,-523.5 153.15,-523.5 177.48,-523.5"/>
<polygon fill="#9a32cd" stroke="#9a32cd" points="102.11,-520 92.11,-523.5 102.11,-527 102.11,-520"/>
<text text-anchor="middle" x="117" y="-526.5" font-family="Helvetica,sans-Serif" font-size="10.00"> mt</text>
</g>
<!-- Node42 -->
<g id="node42" class="node">
<title>Node42</title>
<g id="a_node42"><a xlink:title=" ">
<polygon fill="white" stroke="black" points="142,-454 142,-495 343,-495 343,-454 142,-454"/>
<text text-anchor="start" x="150" y="-483" font-family="Helvetica,sans-Serif" font-size="10.00">Map&lt; denoptim.programs.Run</text>
<text text-anchor="start" x="150" y="-472" font-family="Helvetica,sans-Serif" font-size="10.00">TimeParameters.ParametersType,</text>
<text text-anchor="middle" x="242.5" y="-461" font-family="Helvetica,sans-Serif" font-size="10.00"> denoptim.programs.RunTimeParameters &gt;</text>
</a>
</g>
</g>
<!-- Node42&#45;&gt;Node38 -->
<g id="edge49" class="edge">
<title>Node42&#45;&gt;Node38</title>
<path fill="none" stroke="#9a32cd" stroke-dasharray="5,2" d="M353.08,-474.5C411.73,-474.5 482.19,-474.5 533.23,-474.5"/>
<polygon fill="#9a32cd" stroke="#9a32cd" points="353.02,-471 343.02,-474.5 353.02,-478 353.02,-471"/>
<text text-anchor="middle" x="421" y="-477.5" font-family="Helvetica,sans-Serif" font-size="10.00"> otherParameters</text>
</g>
<!-- Node43 -->
<g id="node43" class="node">
<title>Node43</title>
<g id="a_node43"><a xlink:href="enumdenoptim_1_1programs_1_1_run_time_parameters_1_1_parameters_type.html" target="_top" xlink:title="Identifier of the type of parameters.">
<polygon fill="white" stroke="black" points="172.5,-405.5 172.5,-435.5 312.5,-435.5 312.5,-405.5 172.5,-405.5"/>
<text text-anchor="start" x="180.5" y="-423.5" font-family="Helvetica,sans-Serif" font-size="10.00">denoptim.programs.RunTime</text>
<text text-anchor="middle" x="242.5" y="-412.5" font-family="Helvetica,sans-Serif" font-size="10.00">Parameters.ParametersType</text>
</a>
</g>
</g>
<!-- Node43&#45;&gt;Node38 -->
<g id="edge50" class="edge">
<title>Node43&#45;&gt;Node38</title>
<path fill="none" stroke="#9a32cd" stroke-dasharray="5,2" d="M322.63,-432.4C385.73,-441.89 473.21,-455.05 533.49,-464.12"/>
<polygon fill="#9a32cd" stroke="#9a32cd" points="323.13,-428.94 312.72,-430.91 322.09,-435.86 323.13,-428.94"/>
<text text-anchor="middle" x="421" y="-457.5" font-family="Helvetica,sans-Serif" font-size="10.00"> paramType</text>
</g>
</g>
</svg>
