<?xml version="1.0" encoding="UTF-8" standalone="no"?>
<!DOCTYPE svg PUBLIC "-//W3C//DTD SVG 1.1//EN"
 "http://www.w3.org/Graphics/SVG/1.1/DTD/svg11.dtd">
<!-- Generated by graphviz version 3.0.0 (20221109.1736)
 -->
<!-- Title: denoptim.ga.EAUtils.getCrowdingProbability Pages: 1 -->
<svg width="387pt" height="218pt"
 viewBox="0.00 0.00 387.00 218.00" xmlns="http://www.w3.org/2000/svg" xmlns:xlink="http://www.w3.org/1999/xlink">
<g id="graph0" class="graph" transform="scale(1 1) rotate(0) translate(4 214)">
<title>denoptim.ga.EAUtils.getCrowdingProbability</title>
<polygon fill="white" stroke="transparent" points="-4,4 -4,-214 383,-214 383,4 -4,4"/>
<!-- Node1 -->
<g id="node1" class="node">
<title>Node1</title>
<g id="a_node1"><a xlink:title="Calculated the probability of using and attachment point rooted on an atom that is holding other atta...">
<polygon fill="#bfbfbf" stroke="black" points="0,-87 0,-117 161,-117 161,-87 0,-87"/>
<text text-anchor="start" x="8" y="-105" font-family="Helvetica,sans-Serif" font-size="10.00">denoptim.ga.EAUtils.getCrowding</text>
<text text-anchor="middle" x="80.5" y="-94" font-family="Helvetica,sans-Serif" font-size="10.00">Probability</text>
</a>
</g>
</g>
<!-- Node1&#45;&gt;Node1 -->
<g id="edge4" class="edge">
<title>Node1&#45;&gt;Node1</title>
<path fill="none" stroke="midnightblue" d="M44.6,-117.16C35.94,-126.56 47.91,-135.5 80.5,-135.5 100.36,-135.5 112.56,-132.18 117.1,-127.46"/>
<polygon fill="midnightblue" stroke="midnightblue" points="120.57,-126.9 116.4,-117.16 113.59,-127.37 120.57,-126.9"/>
</g>
<!-- Node2 -->
<g id="node2" class="node">
<title>Node2</title>
<g id="a_node2"><a xlink:href="classdenoptim_1_1programs_1_1denovo_1_1_g_a_parameters.html#ace7e1ba3358b95a3ee3a8fa876f7aec9" target="_top" xlink:title=" ">
<polygon fill="white" stroke="black" points="205.5,-168.5 205.5,-209.5 370.5,-209.5 370.5,-168.5 205.5,-168.5"/>
<text text-anchor="start" x="213.5" y="-197.5" font-family="Helvetica,sans-Serif" font-size="10.00">denoptim.programs.denovo.</text>
<text text-anchor="start" x="213.5" y="-186.5" font-family="Helvetica,sans-Serif" font-size="10.00">GAParameters.getCrowdingFactor</text>
<text text-anchor="middle" x="288" y="-175.5" font-family="Helvetica,sans-Serif" font-size="10.00">MiddleSigma</text>
</a>
</g>
</g>
<!-- Node1&#45;&gt;Node2 -->
<g id="edge1" class="edge">
<title>Node1&#45;&gt;Node2</title>
<path fill="none" stroke="midnightblue" d="M109.48,-117.16C132.57,-129.33 166.39,-146.42 197,-159 201.95,-161.04 207.09,-163.04 212.3,-164.98"/>
<polygon fill="midnightblue" stroke="midnightblue" points="211.13,-168.28 221.72,-168.41 213.52,-161.7 211.13,-168.28"/>
</g>
<!-- Node3 -->
<g id="node3" class="node">
<title>Node3</title>
<g id="a_node3"><a xlink:href="classdenoptim_1_1programs_1_1denovo_1_1_g_a_parameters.html#ab8f0f25ae8075ce39076e386c9f820c1" target="_top" xlink:title=" ">
<polygon fill="white" stroke="black" points="205.5,-108.5 205.5,-149.5 370.5,-149.5 370.5,-108.5 205.5,-108.5"/>
<text text-anchor="start" x="213.5" y="-137.5" font-family="Helvetica,sans-Serif" font-size="10.00">denoptim.programs.denovo.</text>
<text text-anchor="start" x="213.5" y="-126.5" font-family="Helvetica,sans-Serif" font-size="10.00">GAParameters.getCrowdingFactor</text>
<text text-anchor="middle" x="288" y="-115.5" font-family="Helvetica,sans-Serif" font-size="10.00">SteepSigma</text>
</a>
</g>
</g>
<!-- Node1&#45;&gt;Node3 -->
<g id="edge2" class="edge">
<title>Node1&#45;&gt;Node3</title>
<path fill="none" stroke="midnightblue" d="M161.25,-112.48C172.42,-113.95 183.97,-115.46 195.34,-116.96"/>
<polygon fill="midnightblue" stroke="midnightblue" points="194.89,-120.43 205.26,-118.26 195.81,-113.49 194.89,-120.43"/>
</g>
<!-- Node4 -->
<g id="node4" class="node">
<title>Node4</title>
<g id="a_node4"><a xlink:href="classdenoptim_1_1programs_1_1denovo_1_1_g_a_parameters.html#af72195b7fac33581ce52b3fe81cd500d" target="_top" xlink:title=" ">
<polygon fill="white" stroke="black" points="200,-60 200,-90 376,-90 376,-60 200,-60"/>
<text text-anchor="start" x="208" y="-78" font-family="Helvetica,sans-Serif" font-size="10.00">denoptim.programs.denovo.</text>
<text text-anchor="middle" x="288" y="-67" font-family="Helvetica,sans-Serif" font-size="10.00">GAParameters.getCrowdingMultiplier</text>
</a>
</g>
</g>
<!-- Node1&#45;&gt;Node4 -->
<g id="edge3" class="edge">
<title>Node1&#45;&gt;Node4</title>
<path fill="none" stroke="midnightblue" d="M161.25,-91.52C170.62,-90.29 180.27,-89.02 189.85,-87.76"/>
<polygon fill="midnightblue" stroke="midnightblue" points="190.34,-91.23 199.8,-86.46 189.43,-84.29 190.34,-91.23"/>
</g>
<!-- Node5 -->
<g id="node5" class="node">
<title>Node5</title>
<g id="a_node5"><a xlink:href="classdenoptim_1_1programs_1_1denovo_1_1_g_a_parameters.html#a2902a12263e9f2736e8c05f00a0470b5" target="_top" xlink:title=" ">
<polygon fill="white" stroke="black" points="197,-0.5 197,-41.5 379,-41.5 379,-0.5 197,-0.5"/>
<text text-anchor="start" x="205" y="-29.5" font-family="Helvetica,sans-Serif" font-size="10.00">denoptim.programs.denovo.</text>
<text text-anchor="start" x="205" y="-18.5" font-family="Helvetica,sans-Serif" font-size="10.00">GAParameters.getCrowdingProbability</text>
<text text-anchor="middle" x="288" y="-7.5" font-family="Helvetica,sans-Serif" font-size="10.00">Scheme</text>
</a>
</g>
</g>
<!-- Node1&#45;&gt;Node5 -->
<g id="edge5" class="edge">
<title>Node1&#45;&gt;Node5</title>
<path fill="none" stroke="midnightblue" d="M113.52,-86.89C136.52,-76.28 168.38,-62.06 197,-51 202.18,-49 207.57,-47 213,-45.04"/>
<polygon fill="midnightblue" stroke="midnightblue" points="214.56,-48.2 222.82,-41.57 212.23,-41.61 214.56,-48.2"/>
</g>
</g>
</svg>
