<?xml version="1.0" encoding="UTF-8" standalone="no"?>
<!DOCTYPE svg PUBLIC "-//W3C//DTD SVG 1.1//EN"
 "http://www.w3.org/Graphics/SVG/1.1/DTD/svg11.dtd">
<!-- Generated by graphviz version 3.0.0 (20221109.1736)
 -->
<!-- Title: denoptim.logging.StaticLogger Pages: 1 -->
<svg width="356pt" height="162pt"
 viewBox="0.00 0.00 356.00 162.00" xmlns="http://www.w3.org/2000/svg" xmlns:xlink="http://www.w3.org/1999/xlink">
<g id="graph0" class="graph" transform="scale(1 1) rotate(0) translate(4 158)">
<title>denoptim.logging.StaticLogger</title>
<polygon fill="white" stroke="transparent" points="-4,4 -4,-158 352,-158 352,4 -4,4"/>
<!-- Node1 -->
<g id="node1" class="node">
<title>Node1</title>
<g id="a_node1"><a xlink:title="Logger class for DENOPTIM.">
<polygon fill="#bfbfbf" stroke="black" points="0,-0.5 0,-19.5 147,-19.5 147,-0.5 0,-0.5"/>
<text text-anchor="middle" x="73.5" y="-7.5" font-family="Helvetica,sans-Serif" font-size="10.00">denoptim.logging.StaticLogger</text>
</a>
</g>
</g>
<!-- Node2 -->
<g id="node2" class="node">
<title>Node2</title>
<g id="a_node2"><a xlink:title=" ">
<polygon fill="white" stroke="black" points="50,-134.5 50,-153.5 97,-153.5 97,-134.5 50,-134.5"/>
<text text-anchor="middle" x="73.5" y="-141.5" font-family="Helvetica,sans-Serif" font-size="10.00">Logger</text>
</a>
</g>
</g>
<!-- Node2&#45;&gt;Node1 -->
<g id="edge1" class="edge">
<title>Node2&#45;&gt;Node1</title>
<path fill="none" stroke="#9a32cd" stroke-dasharray="5,2" d="M70.99,-124.29C69.66,-113.42 68.17,-99.46 67.5,-87 66.2,-62.68 69.87,-34.06 72.03,-19.88"/>
<polygon fill="#9a32cd" stroke="#9a32cd" points="67.53,-124.82 72.28,-134.29 74.47,-123.93 67.53,-124.82"/>
<text text-anchor="middle" x="92" y="-74.5" font-family="Helvetica,sans-Serif" font-size="10.00"> appLogger</text>
</g>
<!-- Node3 -->
<g id="node3" class="node">
<title>Node3</title>
<g id="a_node3"><a xlink:href="classdenoptim_1_1logging_1_1_static_logger.html" target="_top" xlink:title="Logger class for DENOPTIM.">
<polygon fill="white" stroke="black" points="125,-67.5 125,-86.5 272,-86.5 272,-67.5 125,-67.5"/>
<text text-anchor="middle" x="198.5" y="-74.5" font-family="Helvetica,sans-Serif" font-size="10.00">denoptim.logging.StaticLogger</text>
</a>
</g>
</g>
<!-- Node2&#45;&gt;Node3 -->
<g id="edge3" class="edge">
<title>Node2&#45;&gt;Node3</title>
<path fill="none" stroke="#9a32cd" stroke-dasharray="5,2" d="M99.26,-129.6C124.02,-116.73 160.69,-97.66 181.83,-86.67"/>
<polygon fill="#9a32cd" stroke="#9a32cd" points="97.36,-126.65 90.1,-134.37 100.59,-132.86 97.36,-126.65"/>
<text text-anchor="middle" x="167" y="-108" font-family="Helvetica,sans-Serif" font-size="10.00"> appLogger</text>
</g>
<!-- Node3&#45;&gt;Node1 -->
<g id="edge2" class="edge">
<title>Node3&#45;&gt;Node1</title>
<path fill="none" stroke="#9a32cd" stroke-dasharray="5,2" d="M172.74,-62.6C147.98,-49.73 111.31,-30.66 90.17,-19.67"/>
<polygon fill="#9a32cd" stroke="#9a32cd" points="171.41,-65.86 181.9,-67.37 174.64,-59.65 171.41,-65.86"/>
<text text-anchor="middle" x="171.5" y="-41" font-family="Helvetica,sans-Serif" font-size="10.00"> uniqInstance</text>
</g>
<!-- Node3&#45;&gt;Node3 -->
<g id="edge4" class="edge">
<title>Node3&#45;&gt;Node3</title>
<path fill="none" stroke="#9a32cd" stroke-dasharray="5,2" d="M282.1,-81.12C287.04,-80.14 290,-78.76 290,-77 290,-74.25 282.79,-72.45 272.09,-71.59"/>
<polygon fill="#9a32cd" stroke="#9a32cd" points="281.56,-77.66 272.09,-82.41 282.46,-84.6 281.56,-77.66"/>
<text text-anchor="middle" x="319" y="-74.5" font-family="Helvetica,sans-Serif" font-size="10.00"> uniqInstance</text>
</g>
</g>
</svg>
