<?xml version="1.0" encoding="UTF-8" standalone="no"?>
<!DOCTYPE svg PUBLIC "-//W3C//DTD SVG 1.1//EN"
 "http://www.w3.org/Graphics/SVG/1.1/DTD/svg11.dtd">
<!-- Generated by graphviz version 3.0.0 (20221109.1736)
 -->
<!-- Title: denoptim.task.StaticTaskManager.subtractDoneTask Pages: 1 -->
<svg width="498pt" height="72pt"
 viewBox="0.00 0.00 498.00 71.50" xmlns="http://www.w3.org/2000/svg" xmlns:xlink="http://www.w3.org/1999/xlink">
<g id="graph0" class="graph" transform="scale(1 1) rotate(0) translate(4 67.5)">
<title>denoptim.task.StaticTaskManager.subtractDoneTask</title>
<polygon fill="white" stroke="transparent" points="-4,4 -4,-67.5 494,-67.5 494,4 -4,4"/>
<!-- Node1 -->
<g id="node1" class="node">
<title>Node1</title>
<g id="a_node1"><a xlink:title=" ">
<polygon fill="#bfbfbf" stroke="black" points="354,-19.5 354,-49.5 490,-49.5 490,-19.5 354,-19.5"/>
<text text-anchor="start" x="362" y="-37.5" font-family="Helvetica,sans-Serif" font-size="10.00">denoptim.task.StaticTask</text>
<text text-anchor="middle" x="422" y="-26.5" font-family="Helvetica,sans-Serif" font-size="10.00">Manager.subtractDoneTask</text>
</a>
</g>
</g>
<!-- Node2 -->
<g id="node2" class="node">
<title>Node2</title>
<g id="a_node2"><a xlink:href="classdenoptim_1_1task_1_1_program_task.html#a2745e7f75fcf2ef6d128bd826156e2ce" target="_top" xlink:title="This method redirects the callable functionality to an abstract method (namely ProgramTask#runProgram...">
<polygon fill="white" stroke="black" points="163,-44 163,-63 318,-63 318,-44 163,-44"/>
<text text-anchor="middle" x="240.5" y="-51" font-family="Helvetica,sans-Serif" font-size="10.00">denoptim.task.ProgramTask.call</text>
</a>
</g>
</g>
<!-- Node1&#45;&gt;Node2 -->
<g id="edge1" class="edge">
<title>Node1&#45;&gt;Node2</title>
<path fill="none" stroke="midnightblue" d="M343.69,-42.68C335.23,-43.58 326.62,-44.49 318.18,-45.38"/>
<polygon fill="midnightblue" stroke="midnightblue" points="344.33,-46.14 353.91,-41.6 343.59,-39.17 344.33,-46.14"/>
</g>
<!-- Node3 -->
<g id="node3" class="node">
<title>Node3</title>
<g id="a_node3"><a xlink:href="classdenoptim_1_1task_1_1_task.html#abe8e96c65d147220af01e7cec04d3670" target="_top" xlink:title="Stop the task if not already completed.">
<polygon fill="white" stroke="black" points="168.5,-6 168.5,-25 312.5,-25 312.5,-6 168.5,-6"/>
<text text-anchor="middle" x="240.5" y="-13" font-family="Helvetica,sans-Serif" font-size="10.00">denoptim.task.Task.stopTask</text>
</a>
</g>
</g>
<!-- Node1&#45;&gt;Node3 -->
<g id="edge2" class="edge">
<title>Node1&#45;&gt;Node3</title>
<path fill="none" stroke="midnightblue" d="M343.71,-26.32C333.42,-25.23 322.9,-24.12 312.72,-23.04"/>
<polygon fill="midnightblue" stroke="midnightblue" points="343.59,-29.83 353.91,-27.4 344.33,-22.86 343.59,-29.83"/>
</g>
<!-- Node4 -->
<g id="node4" class="node">
<title>Node4</title>
<g id="a_node4"><a xlink:href="classdenoptim_1_1task_1_1_static_task_manager.html#ae63bb7f573cf95c77d7441ae648ee7f3" target="_top" xlink:title=" ">
<polygon fill="white" stroke="black" points="0,-0.5 0,-30.5 127,-30.5 127,-0.5 0,-0.5"/>
<text text-anchor="start" x="8" y="-18.5" font-family="Helvetica,sans-Serif" font-size="10.00">denoptim.task.StaticTask</text>
<text text-anchor="middle" x="63.5" y="-7.5" font-family="Helvetica,sans-Serif" font-size="10.00">Manager.stop</text>
</a>
</g>
</g>
<!-- Node3&#45;&gt;Node4 -->
<g id="edge3" class="edge">
<title>Node3&#45;&gt;Node4</title>
<path fill="none" stroke="midnightblue" d="M158.02,-15.5C147.66,-15.5 137.19,-15.5 127.18,-15.5"/>
<polygon fill="midnightblue" stroke="midnightblue" points="158.32,-19 168.32,-15.5 158.32,-12 158.32,-19"/>
</g>
</g>
</svg>
