<?xml version="1.0" encoding="UTF-8" standalone="no"?>
<!DOCTYPE svg PUBLIC "-//W3C//DTD SVG 1.1//EN"
 "http://www.w3.org/Graphics/SVG/1.1/DTD/svg11.dtd">
<!-- Generated by graphviz version 3.0.0 (20221109.1736)
 -->
<!-- Title: denoptim.graph.DGraph.getChildTreeLimited Pages: 1 -->
<svg width="1384pt" height="269pt"
 viewBox="0.00 0.00 1384.00 269.00" xmlns="http://www.w3.org/2000/svg" xmlns:xlink="http://www.w3.org/1999/xlink">
<g id="graph0" class="graph" transform="scale(1 1) rotate(0) translate(4 265)">
<title>denoptim.graph.DGraph.getChildTreeLimited</title>
<polygon fill="white" stroke="transparent" points="-4,4 -4,-265 1380,-265 1380,4 -4,4"/>
<!-- Node1 -->
<g id="node1" class="node">
<title>Node1</title>
<g id="a_node1"><a xlink:title="Gets all the children of the current vertex recursively.">
<polygon fill="#bfbfbf" stroke="black" points="1242,-159.5 1242,-189.5 1376,-189.5 1376,-159.5 1242,-159.5"/>
<text text-anchor="start" x="1250" y="-177.5" font-family="Helvetica,sans-Serif" font-size="10.00">denoptim.graph.DGraph.get</text>
<text text-anchor="middle" x="1309" y="-166.5" font-family="Helvetica,sans-Serif" font-size="10.00">ChildTreeLimited</text>
</a>
</g>
</g>
<!-- Node1&#45;&gt;Node1 -->
<g id="edge2" class="edge">
<title>Node1&#45;&gt;Node1</title>
<path fill="none" stroke="midnightblue" d="M1343.47,-199.96C1339.19,-204.68 1327.7,-208 1309,-208 1278.31,-208 1267.04,-199.06 1275.19,-189.66"/>
<polygon fill="midnightblue" stroke="midnightblue" points="1346.94,-199.41 1342.81,-189.66 1339.96,-199.86 1346.94,-199.41"/>
</g>
<!-- Node2 -->
<g id="node2" class="node">
<title>Node2</title>
<g id="a_node2"><a xlink:href="classdenoptim_1_1graph_1_1_d_graph.html#afc6ae3a9e5a1668aae6a9d18f8dd5624" target="_top" xlink:title="Creates a new graph that corresponds to the subgraph of this graph when exploring the spanning tree f...">
<polygon fill="white" stroke="black" points="1040.5,-230.5 1040.5,-260.5 1189.5,-260.5 1189.5,-230.5 1040.5,-230.5"/>
<text text-anchor="start" x="1048.5" y="-248.5" font-family="Helvetica,sans-Serif" font-size="10.00">denoptim.graph.DGraph.extract</text>
<text text-anchor="middle" x="1115" y="-237.5" font-family="Helvetica,sans-Serif" font-size="10.00">Subgraph</text>
</a>
</g>
</g>
<!-- Node1&#45;&gt;Node2 -->
<g id="edge1" class="edge">
<title>Node1&#45;&gt;Node2</title>
<path fill="none" stroke="midnightblue" d="M1269.52,-194.13C1250.69,-203.24 1227.5,-213.75 1206,-221.5 1197.03,-224.74 1187.41,-227.76 1177.92,-230.49"/>
<polygon fill="midnightblue" stroke="midnightblue" points="1271.22,-197.19 1278.66,-189.65 1268.14,-190.91 1271.22,-197.19"/>
</g>
<!-- Node3 -->
<g id="node3" class="node">
<title>Node3</title>
<g id="a_node3"><a xlink:href="classdenoptim_1_1graph_1_1_d_graph.html#a4b3389846d25be8e1e6c7e0a80dd7619" target="_top" xlink:title="We assume that the subgraph is a continuously connected, directed graph.">
<polygon fill="white" stroke="black" points="1048,-181.5 1048,-211.5 1182,-211.5 1182,-181.5 1048,-181.5"/>
<text text-anchor="start" x="1056" y="-199.5" font-family="Helvetica,sans-Serif" font-size="10.00">denoptim.graph.DGraph.get</text>
<text text-anchor="middle" x="1115" y="-188.5" font-family="Helvetica,sans-Serif" font-size="10.00">SymmetricSubGraphs</text>
</a>
</g>
</g>
<!-- Node1&#45;&gt;Node3 -->
<g id="edge3" class="edge">
<title>Node1&#45;&gt;Node3</title>
<path fill="none" stroke="midnightblue" d="M1231.83,-183.23C1215.41,-185.11 1198.19,-187.08 1182.2,-188.91"/>
<polygon fill="midnightblue" stroke="midnightblue" points="1232.39,-186.69 1241.92,-182.07 1231.59,-179.73 1232.39,-186.69"/>
</g>
<!-- Node8 -->
<g id="node8" class="node">
<title>Node8</title>
<g id="a_node8"><a xlink:href="classdenoptim_1_1programs_1_1genetweeker_1_1_gene_ops_runner.html#ab0f92a94c4fb2334e7d3813e73fc4247" target="_top" xlink:title=" ">
<polygon fill="white" stroke="black" points="380,-137.5 380,-167.5 539,-167.5 539,-137.5 380,-137.5"/>
<text text-anchor="start" x="388" y="-155.5" font-family="Helvetica,sans-Serif" font-size="10.00">denoptim.programs.genetweeker.</text>
<text text-anchor="middle" x="459.5" y="-144.5" font-family="Helvetica,sans-Serif" font-size="10.00">GeneOpsRunner.runXOver</text>
</a>
</g>
</g>
<!-- Node1&#45;&gt;Node8 -->
<g id="edge22" class="edge">
<title>Node1&#45;&gt;Node8</title>
<path fill="none" stroke="midnightblue" d="M1231.6,-172.52C1071.34,-168.36 701.46,-158.76 539.21,-154.54"/>
<polygon fill="midnightblue" stroke="midnightblue" points="1231.76,-176.02 1241.85,-172.78 1231.95,-169.02 1231.76,-176.02"/>
</g>
<!-- Node11 -->
<g id="node11" class="node">
<title>Node11</title>
<g id="a_node11"><a xlink:href="classdenoptim_1_1ga_1_1_graph_operations.html#a65b1468961ba53b217848640d8fd5232" target="_top" xlink:title="Given a pair of seed vertexes that define where a pair of subgraphs stars in the corresponding origin...">
<polygon fill="white" stroke="black" points="1024,-93.5 1024,-123.5 1206,-123.5 1206,-93.5 1024,-93.5"/>
<text text-anchor="start" x="1032" y="-111.5" font-family="Helvetica,sans-Serif" font-size="10.00">denoptim.ga.GraphOperations.process</text>
<text text-anchor="middle" x="1115" y="-100.5" font-family="Helvetica,sans-Serif" font-size="10.00">PermutationOfEndPoints</text>
</a>
</g>
</g>
<!-- Node1&#45;&gt;Node11 -->
<g id="edge11" class="edge">
<title>Node1&#45;&gt;Node11</title>
<path fill="none" stroke="midnightblue" d="M1256.13,-156C1240.08,-150.32 1222.33,-144.1 1206,-138.5 1191.67,-133.58 1176.01,-128.32 1161.84,-123.61"/>
<polygon fill="midnightblue" stroke="midnightblue" points="1255.28,-159.41 1265.88,-159.45 1257.62,-152.81 1255.28,-159.41"/>
</g>
<!-- Node4 -->
<g id="node4" class="node">
<title>Node4</title>
<g id="a_node4"><a xlink:href="classdenoptim_1_1graph_1_1_d_graph.html#a86e888ef245d2bd40b49d145c7ef3af0" target="_top" xlink:title="Replaced the subgraph represented by a given collection of vertices that belong to this graph.">
<polygon fill="white" stroke="black" points="821,-230.5 821,-260.5 973,-260.5 973,-230.5 821,-230.5"/>
<text text-anchor="start" x="829" y="-248.5" font-family="Helvetica,sans-Serif" font-size="10.00">denoptim.graph.DGraph.replace</text>
<text text-anchor="middle" x="897" y="-237.5" font-family="Helvetica,sans-Serif" font-size="10.00">SubGraph</text>
</a>
</g>
</g>
<!-- Node3&#45;&gt;Node4 -->
<g id="edge4" class="edge">
<title>Node3&#45;&gt;Node4</title>
<path fill="none" stroke="midnightblue" d="M1037.92,-213.76C1013.86,-219.22 987.46,-225.21 964.15,-230.49"/>
<polygon fill="midnightblue" stroke="midnightblue" points="1038.75,-217.16 1047.72,-211.53 1037.2,-210.33 1038.75,-217.16"/>
</g>
<!-- Node10 -->
<g id="node10" class="node">
<title>Node10</title>
<g id="a_node10"><a xlink:href="classdenoptim_1_1graph_1_1_d_graph_test.html#ac09e961280beb2c61cc88ce1b4bccd3f" target="_top" xlink:title=" ">
<polygon fill="white" stroke="black" points="819,-181.5 819,-211.5 975,-211.5 975,-181.5 819,-181.5"/>
<text text-anchor="start" x="827" y="-199.5" font-family="Helvetica,sans-Serif" font-size="10.00">denoptim.graph.DGraphTest.test</text>
<text text-anchor="middle" x="897" y="-188.5" font-family="Helvetica,sans-Serif" font-size="10.00">GetSymmetricSubGraphs</text>
</a>
</g>
</g>
<!-- Node3&#45;&gt;Node10 -->
<g id="edge10" class="edge">
<title>Node3&#45;&gt;Node10</title>
<path fill="none" stroke="midnightblue" d="M1037.61,-196.5C1017.34,-196.5 995.44,-196.5 975.13,-196.5"/>
<polygon fill="midnightblue" stroke="midnightblue" points="1037.72,-200 1047.72,-196.5 1037.72,-193 1037.72,-200"/>
</g>
<!-- Node5 -->
<g id="node5" class="node">
<title>Node5</title>
<g id="a_node5"><a xlink:href="classdenoptim_1_1graph_1_1_d_graph.html#a1cb3c55237933f7a4d32e002175b84bc" target="_top" xlink:title="Searches for the given pattern type and generated a new graph where each set of (clones of) vertexes ...">
<polygon fill="white" stroke="black" points="605.5,-230.5 605.5,-260.5 754.5,-260.5 754.5,-230.5 605.5,-230.5"/>
<text text-anchor="start" x="613.5" y="-248.5" font-family="Helvetica,sans-Serif" font-size="10.00">denoptim.graph.DGraph.embed</text>
<text text-anchor="middle" x="680" y="-237.5" font-family="Helvetica,sans-Serif" font-size="10.00">PatternsInTemplates</text>
</a>
</g>
</g>
<!-- Node4&#45;&gt;Node5 -->
<g id="edge5" class="edge">
<title>Node4&#45;&gt;Node5</title>
<path fill="none" stroke="midnightblue" d="M810.63,-245.5C792.13,-245.5 772.71,-245.5 754.7,-245.5"/>
<polygon fill="midnightblue" stroke="midnightblue" points="810.8,-249 820.8,-245.5 810.8,-242 810.8,-249"/>
</g>
<!-- Node6 -->
<g id="node6" class="node">
<title>Node6</title>
<g id="a_node6"><a xlink:href="classdenoptim_1_1ga_1_1_graph_operations.html#affb1be89a32e4a429bd7dbdfe0708419" target="_top" xlink:title="Performs the crossover that swaps the two subgraphs defining the given XoverSite.">
<polygon fill="white" stroke="black" points="590,-181.5 590,-211.5 770,-211.5 770,-181.5 590,-181.5"/>
<text text-anchor="start" x="598" y="-199.5" font-family="Helvetica,sans-Serif" font-size="10.00">denoptim.ga.GraphOperations.perform</text>
<text text-anchor="middle" x="680" y="-188.5" font-family="Helvetica,sans-Serif" font-size="10.00">Crossover</text>
</a>
</g>
</g>
<!-- Node4&#45;&gt;Node6 -->
<g id="edge6" class="edge">
<title>Node4&#45;&gt;Node6</title>
<path fill="none" stroke="midnightblue" d="M820.28,-228.24C796.32,-222.78 770.05,-216.79 746.84,-211.51"/>
<polygon fill="midnightblue" stroke="midnightblue" points="819.5,-231.66 830.03,-230.47 821.06,-224.83 819.5,-231.66"/>
</g>
<!-- Node7 -->
<g id="node7" class="node">
<title>Node7</title>
<g id="a_node7"><a xlink:href="classdenoptim_1_1ga_1_1_e_a_utils.html#a0b958439d79fae30f14530213ad22e3a" target="_top" xlink:title="Generates up to a pair of new offspring by performing a crossover operation.">
<polygon fill="white" stroke="black" points="0,-137.5 0,-167.5 127,-167.5 127,-137.5 0,-137.5"/>
<text text-anchor="start" x="8" y="-155.5" font-family="Helvetica,sans-Serif" font-size="10.00">denoptim.ga.EAUtils.build</text>
<text text-anchor="middle" x="63.5" y="-144.5" font-family="Helvetica,sans-Serif" font-size="10.00">CandidatesByXOver</text>
</a>
</g>
</g>
<!-- Node6&#45;&gt;Node7 -->
<g id="edge7" class="edge">
<title>Node6&#45;&gt;Node7</title>
<path fill="none" stroke="midnightblue" d="M579.72,-199.05C475.41,-200.28 306.84,-198.16 163,-177.5 147.28,-175.24 130.44,-171.48 115.21,-167.55"/>
<polygon fill="midnightblue" stroke="midnightblue" points="579.97,-202.54 589.92,-198.91 579.88,-195.54 579.97,-202.54"/>
</g>
<!-- Node6&#45;&gt;Node8 -->
<g id="edge8" class="edge">
<title>Node6&#45;&gt;Node8</title>
<path fill="none" stroke="midnightblue" d="M594.59,-179.5C574.99,-175.56 554.26,-171.38 535.12,-167.53"/>
<polygon fill="midnightblue" stroke="midnightblue" points="593.92,-182.94 604.42,-181.48 595.3,-176.08 593.92,-182.94"/>
</g>
<!-- Node9 -->
<g id="node9" class="node">
<title>Node9</title>
<g id="a_node9"><a xlink:href="classdenoptim_1_1programs_1_1genetweeker_1_1_gene_ops_runner.html#a3c2407eb1204a7b25600d3d347d98447" target="_top" xlink:title=" ">
<polygon fill="white" stroke="black" points="166.5,-137.5 166.5,-167.5 325.5,-167.5 325.5,-137.5 166.5,-137.5"/>
<text text-anchor="start" x="174.5" y="-155.5" font-family="Helvetica,sans-Serif" font-size="10.00">denoptim.programs.genetweeker.</text>
<text text-anchor="middle" x="246" y="-144.5" font-family="Helvetica,sans-Serif" font-size="10.00">GeneOpsRunner.runProgram</text>
</a>
</g>
</g>
<!-- Node8&#45;&gt;Node9 -->
<g id="edge9" class="edge">
<title>Node8&#45;&gt;Node9</title>
<path fill="none" stroke="midnightblue" d="M369.74,-152.5C355.16,-152.5 340.14,-152.5 325.82,-152.5"/>
<polygon fill="midnightblue" stroke="midnightblue" points="369.75,-156 379.75,-152.5 369.75,-149 369.75,-156"/>
</g>
<!-- Node12 -->
<g id="node12" class="node">
<title>Node12</title>
<g id="a_node12"><a xlink:href="classdenoptim_1_1ga_1_1_graph_operations.html#a5d90c6e2fa30f287f8f69ed3367ccd0e" target="_top" xlink:title="Given a pair of seed vertexes that define where a pair of subgraphs stars in the corresponding origin...">
<polygon fill="white" stroke="black" points="806,-84.5 806,-114.5 988,-114.5 988,-84.5 806,-84.5"/>
<text text-anchor="start" x="814" y="-102.5" font-family="Helvetica,sans-Serif" font-size="10.00">denoptim.ga.GraphOperations.process</text>
<text text-anchor="middle" x="897" y="-91.5" font-family="Helvetica,sans-Serif" font-size="10.00">CombinationOfEndPoints</text>
</a>
</g>
</g>
<!-- Node11&#45;&gt;Node12 -->
<g id="edge12" class="edge">
<title>Node11&#45;&gt;Node12</title>
<path fill="none" stroke="midnightblue" d="M1013.94,-104.33C1005.37,-103.97 996.73,-103.61 988.24,-103.26"/>
<polygon fill="midnightblue" stroke="midnightblue" points="1013.82,-107.83 1023.96,-104.75 1014.12,-100.83 1013.82,-107.83"/>
</g>
<!-- Node13 -->
<g id="node13" class="node">
<title>Node13</title>
<g id="a_node13"><a xlink:href="classdenoptim_1_1ga_1_1_graph_operations.html#a2396c23acf24d07f255b94eb3a2105b7" target="_top" xlink:title="Identify crossover sites, i.e., subgraphs that can be swapped between two graphs (i....">
<polygon fill="white" stroke="black" points="593.5,-75.5 593.5,-105.5 766.5,-105.5 766.5,-75.5 593.5,-75.5"/>
<text text-anchor="start" x="601.5" y="-93.5" font-family="Helvetica,sans-Serif" font-size="10.00">denoptim.ga.GraphOperations.locate</text>
<text text-anchor="middle" x="680" y="-82.5" font-family="Helvetica,sans-Serif" font-size="10.00">CompatibleXOverPoints</text>
</a>
</g>
</g>
<!-- Node12&#45;&gt;Node13 -->
<g id="edge13" class="edge">
<title>Node12&#45;&gt;Node13</title>
<path fill="none" stroke="midnightblue" d="M795.66,-95.3C785.93,-94.89 776.12,-94.48 766.55,-94.08"/>
<polygon fill="midnightblue" stroke="midnightblue" points="795.62,-98.8 805.76,-95.72 795.91,-91.81 795.62,-98.8"/>
</g>
<!-- Node13&#45;&gt;Node8 -->
<g id="edge20" class="edge">
<title>Node13&#45;&gt;Node8</title>
<path fill="none" stroke="midnightblue" d="M616.27,-108.3C583.81,-117.51 544.62,-128.63 513.66,-137.41"/>
<polygon fill="midnightblue" stroke="midnightblue" points="617.44,-111.61 626.11,-105.51 615.53,-104.87 617.44,-111.61"/>
</g>
<!-- Node13&#45;&gt;Node13 -->
<g id="edge19" class="edge">
<title>Node13&#45;&gt;Node13</title>
<path fill="none" stroke="midnightblue" d="M718.38,-115.96C713.62,-120.68 700.82,-124 680,-124 645.83,-124 633.28,-115.06 642.36,-105.66"/>
<polygon fill="midnightblue" stroke="midnightblue" points="721.85,-115.38 717.64,-105.66 714.87,-115.88 721.85,-115.38"/>
</g>
<!-- Node14 -->
<g id="node14" class="node">
<title>Node14</title>
<g id="a_node14"><a xlink:href="classdenoptim_1_1ga_1_1_population.html#a31b74cc5407c42fa3a4214029fb08190" target="_top" xlink:title="Returns a list of population members that can do crossover with the specified member.">
<polygon fill="white" stroke="black" points="393,-75.5 393,-105.5 526,-105.5 526,-75.5 393,-75.5"/>
<text text-anchor="start" x="401" y="-93.5" font-family="Helvetica,sans-Serif" font-size="10.00">denoptim.ga.Population.get</text>
<text text-anchor="middle" x="459.5" y="-82.5" font-family="Helvetica,sans-Serif" font-size="10.00">XoverPartners</text>
</a>
</g>
</g>
<!-- Node13&#45;&gt;Node14 -->
<g id="edge14" class="edge">
<title>Node13&#45;&gt;Node14</title>
<path fill="none" stroke="midnightblue" d="M583.24,-90.5C563.92,-90.5 544.04,-90.5 526.05,-90.5"/>
<polygon fill="midnightblue" stroke="midnightblue" points="583.27,-94 593.27,-90.5 583.27,-87 583.27,-94"/>
</g>
<!-- Node18 -->
<g id="node18" class="node">
<title>Node18</title>
<g id="a_node18"><a xlink:href="classdenoptim_1_1ga_1_1_graph_operations_test.html#a9fcf8fffef10a59df722c92e94da2815" target="_top" xlink:title=" ">
<polygon fill="white" stroke="black" points="365,-26.5 365,-56.5 554,-56.5 554,-26.5 365,-26.5"/>
<text text-anchor="start" x="373" y="-44.5" font-family="Helvetica,sans-Serif" font-size="10.00">denoptim.ga.GraphOperations</text>
<text text-anchor="middle" x="459.5" y="-33.5" font-family="Helvetica,sans-Serif" font-size="10.00">Test.testLocateCompatibleXOverPoints</text>
</a>
</g>
</g>
<!-- Node13&#45;&gt;Node18 -->
<g id="edge21" class="edge">
<title>Node13&#45;&gt;Node18</title>
<path fill="none" stroke="midnightblue" d="M602.04,-73.24C577.7,-67.78 551,-61.79 527.42,-56.51"/>
<polygon fill="midnightblue" stroke="midnightblue" points="601.43,-76.69 611.96,-75.47 602.97,-69.86 601.43,-76.69"/>
</g>
<!-- Node15 -->
<g id="node15" class="node">
<title>Node15</title>
<g id="a_node15"><a xlink:href="classdenoptim_1_1ga_1_1_e_a_utils.html#a45d4e9ec6a308aa73891efa1d501dd5e" target="_top" xlink:title="Perform fitness&#45;based, class&#45;compatible selection of parents that can do crossover operations.">
<polygon fill="white" stroke="black" points="163,-99 163,-118 329,-118 329,-99 163,-99"/>
<text text-anchor="middle" x="246" y="-106" font-family="Helvetica,sans-Serif" font-size="10.00">denoptim.ga.EAUtils.performFBCC</text>
</a>
</g>
</g>
<!-- Node14&#45;&gt;Node15 -->
<g id="edge15" class="edge">
<title>Node14&#45;&gt;Node15</title>
<path fill="none" stroke="midnightblue" d="M382.66,-96.95C365.3,-98.43 346.76,-100.01 329.14,-101.51"/>
<polygon fill="midnightblue" stroke="midnightblue" points="383.07,-100.43 392.74,-96.1 382.48,-93.46 383.07,-100.43"/>
</g>
<!-- Node16 -->
<g id="node16" class="node">
<title>Node16</title>
<g id="a_node16"><a xlink:href="classdenoptim_1_1ga_1_1_population_test.html#a5db0672054a9fc1dbc923310732fdb3a" target="_top" xlink:title=" ">
<polygon fill="white" stroke="black" points="168.5,-49.5 168.5,-79.5 323.5,-79.5 323.5,-49.5 168.5,-49.5"/>
<text text-anchor="start" x="176.5" y="-67.5" font-family="Helvetica,sans-Serif" font-size="10.00">denoptim.ga.PopulationTest.test</text>
<text text-anchor="middle" x="246" y="-56.5" font-family="Helvetica,sans-Serif" font-size="10.00">Clone</text>
</a>
</g>
</g>
<!-- Node14&#45;&gt;Node16 -->
<g id="edge17" class="edge">
<title>Node14&#45;&gt;Node16</title>
<path fill="none" stroke="midnightblue" d="M382.59,-81.17C363.49,-78.82 342.98,-76.3 323.83,-73.95"/>
<polygon fill="midnightblue" stroke="midnightblue" points="382.39,-84.67 392.74,-82.42 383.24,-77.72 382.39,-84.67"/>
</g>
<!-- Node17 -->
<g id="node17" class="node">
<title>Node17</title>
<g id="a_node17"><a xlink:href="classdenoptim_1_1ga_1_1_population_test.html#a278212ebff2501b7071d342f9a027599" target="_top" xlink:title=" ">
<polygon fill="white" stroke="black" points="168.5,-0.5 168.5,-30.5 323.5,-30.5 323.5,-0.5 168.5,-0.5"/>
<text text-anchor="start" x="176.5" y="-18.5" font-family="Helvetica,sans-Serif" font-size="10.00">denoptim.ga.PopulationTest.test</text>
<text text-anchor="middle" x="246" y="-7.5" font-family="Helvetica,sans-Serif" font-size="10.00">XOverCompatibility</text>
</a>
</g>
</g>
<!-- Node14&#45;&gt;Node17 -->
<g id="edge18" class="edge">
<title>Node14&#45;&gt;Node17</title>
<path fill="none" stroke="midnightblue" d="M382.82,-72.84C376.69,-70.64 370.68,-68.2 365,-65.5 347.17,-57.03 346.73,-48.18 329,-39.5 322.21,-36.17 314.86,-33.22 307.46,-30.62"/>
<polygon fill="midnightblue" stroke="midnightblue" points="381.93,-76.24 392.53,-76.11 384.17,-69.6 381.93,-76.24"/>
</g>
<!-- Node15&#45;&gt;Node7 -->
<g id="edge16" class="edge">
<title>Node15&#45;&gt;Node7</title>
<path fill="none" stroke="midnightblue" d="M195.96,-120.46C174.49,-125.69 149.05,-131.89 126.3,-137.43"/>
<polygon fill="midnightblue" stroke="midnightblue" points="196.95,-123.82 205.83,-118.05 195.29,-117.02 196.95,-123.82"/>
</g>
</g>
</svg>
