<?xml version="1.0" encoding="UTF-8" standalone="no"?>
<!DOCTYPE svg PUBLIC "-//W3C//DTD SVG 1.1//EN"
 "http://www.w3.org/Graphics/SVG/1.1/DTD/svg11.dtd">
<!-- Generated by graphviz version 3.0.0 (20221109.1736)
 -->
<!-- Title: denoptim.ga.SelectionHelper.performRWS Pages: 1 -->
<svg width="1046pt" height="151pt"
 viewBox="0.00 0.00 1046.00 150.50" xmlns="http://www.w3.org/2000/svg" xmlns:xlink="http://www.w3.org/1999/xlink">
<g id="graph0" class="graph" transform="scale(1 1) rotate(0) translate(4 146.5)">
<title>denoptim.ga.SelectionHelper.performRWS</title>
<polygon fill="white" stroke="transparent" points="-4,4 -4,-146.5 1042,-146.5 1042,4 -4,4"/>
<!-- Node1 -->
<g id="node1" class="node">
<title>Node1</title>
<g id="a_node1"><a xlink:title="Roulette wheel selection is implemented as follows:">
<polygon fill="#bfbfbf" stroke="black" points="0,-68.5 0,-87.5 198,-87.5 198,-68.5 0,-68.5"/>
<text text-anchor="middle" x="99" y="-75.5" font-family="Helvetica,sans-Serif" font-size="10.00">denoptim.ga.SelectionHelper.performRWS</text>
</a>
</g>
</g>
<!-- Node2 -->
<g id="node2" class="node">
<title>Node2</title>
<g id="a_node2"><a xlink:href="classdenoptim_1_1graph_1_1_candidate.html#a0738609a1a3bec92633440d449a62c67" target="_top" xlink:title=" ">
<polygon fill="white" stroke="black" points="237,-112 237,-142 381,-142 381,-112 237,-112"/>
<text text-anchor="start" x="245" y="-130" font-family="Helvetica,sans-Serif" font-size="10.00">denoptim.graph.Candidate.get</text>
<text text-anchor="middle" x="309" y="-119" font-family="Helvetica,sans-Serif" font-size="10.00">Fitness</text>
</a>
</g>
</g>
<!-- Node1&#45;&gt;Node2 -->
<g id="edge1" class="edge">
<title>Node1&#45;&gt;Node2</title>
<path fill="none" stroke="midnightblue" d="M140.6,-87.56C167.16,-93.82 202.65,-102.18 234.11,-109.59"/>
<polygon fill="midnightblue" stroke="midnightblue" points="233.63,-113.08 244.17,-111.96 235.24,-106.26 233.63,-113.08"/>
</g>
<!-- Node3 -->
<g id="node3" class="node">
<title>Node3</title>
<g id="a_node3"><a xlink:href="classdenoptim_1_1programs_1_1_run_time_parameters.html#ad9db6420b91ff13e0a8b2d02402c0242" target="_top" xlink:title="Returns the current program&#45;specific randomizer.">
<polygon fill="white" stroke="black" points="239,-63 239,-93 379,-93 379,-63 239,-63"/>
<text text-anchor="start" x="247" y="-81" font-family="Helvetica,sans-Serif" font-size="10.00">denoptim.programs.RunTime</text>
<text text-anchor="middle" x="309" y="-70" font-family="Helvetica,sans-Serif" font-size="10.00">Parameters.getRandomizer</text>
</a>
</g>
</g>
<!-- Node1&#45;&gt;Node3 -->
<g id="edge2" class="edge">
<title>Node1&#45;&gt;Node3</title>
<path fill="none" stroke="midnightblue" d="M198.21,-78C208.44,-78 218.74,-78 228.72,-78"/>
<polygon fill="midnightblue" stroke="midnightblue" points="228.99,-81.5 238.99,-78 228.99,-74.5 228.99,-81.5"/>
</g>
<!-- Node4 -->
<g id="node4" class="node">
<title>Node4</title>
<g id="a_node4"><a xlink:href="classdenoptim_1_1utils_1_1_randomizer.html#abedece0dc015bf122af76a2ca10bfccd" target="_top" xlink:title="Returns the next pseudo&#45;random, uniformly distributed double value between 0.0 and 1....">
<polygon fill="white" stroke="black" points="234,-14 234,-44 384,-44 384,-14 234,-14"/>
<text text-anchor="start" x="242" y="-32" font-family="Helvetica,sans-Serif" font-size="10.00">denoptim.utils.Randomizer.next</text>
<text text-anchor="middle" x="309" y="-21" font-family="Helvetica,sans-Serif" font-size="10.00">Double</text>
</a>
</g>
</g>
<!-- Node1&#45;&gt;Node4 -->
<g id="edge3" class="edge">
<title>Node1&#45;&gt;Node4</title>
<path fill="none" stroke="midnightblue" d="M140.6,-68.44C167.16,-62.18 202.65,-53.82 234.11,-46.41"/>
<polygon fill="midnightblue" stroke="midnightblue" points="235.24,-49.74 244.17,-44.04 233.63,-42.92 235.24,-49.74"/>
</g>
<!-- Node5 -->
<g id="node5" class="node">
<title>Node5</title>
<g id="a_node5"><a xlink:href="classdenoptim_1_1utils_1_1_randomizer.html#a6873dd710cc271ed81bfa45411a62359" target="_top" xlink:title="Returns the random number generator.">
<polygon fill="white" stroke="black" points="420,-38.5 420,-57.5 587,-57.5 587,-38.5 420,-38.5"/>
<text text-anchor="middle" x="503.5" y="-45.5" font-family="Helvetica,sans-Serif" font-size="10.00">denoptim.utils.Randomizer.getRNG</text>
</a>
</g>
</g>
<!-- Node4&#45;&gt;Node5 -->
<g id="edge4" class="edge">
<title>Node4&#45;&gt;Node5</title>
<path fill="none" stroke="midnightblue" d="M384.15,-36.32C392.52,-37.15 401.13,-38 409.71,-38.84"/>
<polygon fill="midnightblue" stroke="midnightblue" points="409.44,-42.33 419.74,-39.83 410.13,-35.37 409.44,-42.33"/>
</g>
<!-- Node8 -->
<g id="node8" class="node">
<title>Node8</title>
<g id="a_node8"><a xlink:href="classdenoptim_1_1utils_1_1_randomizer.html#acaa5e386da195d9454fae611ed554c48" target="_top" xlink:title="Utility to debug: writes some log in file &#39;/tmp/rng_debug_log&#39;.">
<polygon fill="white" stroke="black" points="428,-0.5 428,-19.5 579,-19.5 579,-0.5 428,-0.5"/>
<text text-anchor="middle" x="503.5" y="-7.5" font-family="Helvetica,sans-Serif" font-size="10.00">denoptim.utils.Randomizer.print</text>
</a>
</g>
</g>
<!-- Node4&#45;&gt;Node8 -->
<g id="edge7" class="edge">
<title>Node4&#45;&gt;Node8</title>
<path fill="none" stroke="midnightblue" d="M384.15,-21.68C395.1,-20.6 406.45,-19.48 417.59,-18.38"/>
<polygon fill="midnightblue" stroke="midnightblue" points="418.14,-21.84 427.75,-17.38 417.46,-14.88 418.14,-21.84"/>
</g>
<!-- Node6 -->
<g id="node6" class="node">
<title>Node6</title>
<g id="a_node6"><a xlink:href="classdenoptim_1_1utils_1_1_randomizer.html#aaaeda6dedda5664a47a2a9a68194162a" target="_top" xlink:title="Initializes this random number generator (RNG) using a random seed that is generated on&#45;the&#45;fly rando...">
<polygon fill="white" stroke="black" points="623,-38.5 623,-57.5 812,-57.5 812,-38.5 623,-38.5"/>
<text text-anchor="middle" x="717.5" y="-45.5" font-family="Helvetica,sans-Serif" font-size="10.00">denoptim.utils.Randomizer.initialiseRNG</text>
</a>
</g>
</g>
<!-- Node5&#45;&gt;Node6 -->
<g id="edge5" class="edge">
<title>Node5&#45;&gt;Node6</title>
<path fill="none" stroke="midnightblue" d="M587.07,-48C595.51,-48 604.16,-48 612.79,-48"/>
<polygon fill="midnightblue" stroke="midnightblue" points="612.89,-51.5 622.89,-48 612.89,-44.5 612.89,-51.5"/>
</g>
<!-- Node7 -->
<g id="node7" class="node">
<title>Node7</title>
<g id="a_node7"><a xlink:href="classdenoptim_1_1utils_1_1_randomizer.html#ad74f0608d3e2e10caa8873ae059367a7" target="_top" xlink:title=" ">
<polygon fill="white" stroke="black" points="848,-38.5 848,-57.5 1038,-57.5 1038,-38.5 848,-38.5"/>
<text text-anchor="middle" x="943" y="-45.5" font-family="Helvetica,sans-Serif" font-size="10.00">denoptim.utils.Randomizer.initialiseSeed</text>
</a>
</g>
</g>
<!-- Node6&#45;&gt;Node7 -->
<g id="edge6" class="edge">
<title>Node6&#45;&gt;Node7</title>
<path fill="none" stroke="midnightblue" d="M812.31,-48C820.64,-48 829.09,-48 837.5,-48"/>
<polygon fill="midnightblue" stroke="midnightblue" points="837.71,-51.5 847.71,-48 837.71,-44.5 837.71,-51.5"/>
</g>
<!-- Node9 -->
<g id="node9" class="node">
<title>Node9</title>
<g id="a_node9"><a xlink:href="classdenoptim_1_1io_1_1_denoptim_i_o.html#adc7de175de66792f4f37f1661c10e7f8" target="_top" xlink:title="Write text&#45;like data file.">
<polygon fill="white" stroke="black" points="635.5,-0.5 635.5,-19.5 799.5,-19.5 799.5,-0.5 635.5,-0.5"/>
<text text-anchor="middle" x="717.5" y="-7.5" font-family="Helvetica,sans-Serif" font-size="10.00">denoptim.io.DenoptimIO.writeData</text>
</a>
</g>
</g>
<!-- Node8&#45;&gt;Node9 -->
<g id="edge8" class="edge">
<title>Node8&#45;&gt;Node9</title>
<path fill="none" stroke="midnightblue" d="M579.24,-10C594.11,-10 609.87,-10 625.22,-10"/>
<polygon fill="midnightblue" stroke="midnightblue" points="625.23,-13.5 635.23,-10 625.23,-6.5 625.23,-13.5"/>
</g>
</g>
</svg>
