<?xml version="1.0" encoding="UTF-8" standalone="no"?>
<!DOCTYPE svg PUBLIC "-//W3C//DTD SVG 1.1//EN"
 "http://www.w3.org/Graphics/SVG/1.1/DTD/svg11.dtd">
<!-- Generated by graphviz version 3.0.0 (20221109.1736)
 -->
<!-- Title: denoptim.graph.Template.getMutationSites Pages: 1 -->
<svg width="689pt" height="246pt"
 viewBox="0.00 0.00 689.00 246.00" xmlns="http://www.w3.org/2000/svg" xmlns:xlink="http://www.w3.org/1999/xlink">
<g id="graph0" class="graph" transform="scale(1 1) rotate(0) translate(4 242)">
<title>denoptim.graph.Template.getMutationSites</title>
<polygon fill="white" stroke="transparent" points="-4,4 -4,-242 685,-242 685,4 -4,4"/>
<!-- Node1 -->
<g id="node1" class="node">
<title>Node1</title>
<g id="a_node1"><a xlink:title="A list of mutation sites from within this vertex.">
<polygon fill="#bfbfbf" stroke="black" points="0,-106.5 0,-136.5 141,-136.5 141,-106.5 0,-106.5"/>
<text text-anchor="start" x="8" y="-124.5" font-family="Helvetica,sans-Serif" font-size="10.00">denoptim.graph.Template.get</text>
<text text-anchor="middle" x="70.5" y="-113.5" font-family="Helvetica,sans-Serif" font-size="10.00">MutationSites</text>
</a>
</g>
</g>
<!-- Node2 -->
<g id="node2" class="node">
<title>Node2</title>
<g id="a_node2"><a xlink:href="classdenoptim_1_1graph_1_1_vertex.html#a46dadb5fd30f1877db91e97ae55c2dd8" target="_top" xlink:title=" ">
<polygon fill="white" stroke="black" points="191.5,-207.5 191.5,-237.5 319.5,-237.5 319.5,-207.5 191.5,-207.5"/>
<text text-anchor="start" x="199.5" y="-225.5" font-family="Helvetica,sans-Serif" font-size="10.00">denoptim.graph.Vertex.get</text>
<text text-anchor="middle" x="255.5" y="-214.5" font-family="Helvetica,sans-Serif" font-size="10.00">BuildingBlockType</text>
</a>
</g>
</g>
<!-- Node1&#45;&gt;Node2 -->
<g id="edge1" class="edge">
<title>Node1&#45;&gt;Node2</title>
<path fill="none" stroke="midnightblue" d="M88.62,-136.79C108.57,-153.92 143.16,-181.51 177,-198.5 180.75,-200.38 184.68,-202.16 188.7,-203.81"/>
<polygon fill="midnightblue" stroke="midnightblue" points="187.59,-207.14 198.17,-207.48 190.11,-200.61 187.59,-207.14"/>
</g>
<!-- Node3 -->
<g id="node3" class="node">
<title>Node3</title>
<g id="a_node3"><a xlink:href="classdenoptim_1_1graph_1_1_vertex.html#a57e3b82a73a9c600722a5fb192e6b04b" target="_top" xlink:title="A list of mutation sites from within this vertex.">
<polygon fill="white" stroke="black" points="191.5,-140.5 191.5,-170.5 319.5,-170.5 319.5,-140.5 191.5,-140.5"/>
<text text-anchor="start" x="199.5" y="-158.5" font-family="Helvetica,sans-Serif" font-size="10.00">denoptim.graph.Vertex.get</text>
<text text-anchor="middle" x="255.5" y="-147.5" font-family="Helvetica,sans-Serif" font-size="10.00">MutationSites</text>
</a>
</g>
</g>
<!-- Node1&#45;&gt;Node3 -->
<g id="edge2" class="edge">
<title>Node1&#45;&gt;Node3</title>
<path fill="none" stroke="midnightblue" d="M141.21,-134.45C154.33,-136.89 168.08,-139.44 181.3,-141.9"/>
<polygon fill="midnightblue" stroke="midnightblue" points="180.82,-145.37 191.29,-143.76 182.1,-138.49 180.82,-145.37"/>
</g>
<!-- Node4 -->
<g id="node4" class="node">
<title>Node4</title>
<g id="a_node4"><a xlink:href="classdenoptim_1_1graph_1_1_vertex.html#a0ff4d9561ea341eb2d968d37a1db8818" target="_top" xlink:title="Returns the list of mutation types.">
<polygon fill="white" stroke="black" points="191.5,-73.5 191.5,-103.5 319.5,-103.5 319.5,-73.5 191.5,-73.5"/>
<text text-anchor="start" x="199.5" y="-91.5" font-family="Helvetica,sans-Serif" font-size="10.00">denoptim.graph.Vertex.get</text>
<text text-anchor="middle" x="255.5" y="-80.5" font-family="Helvetica,sans-Serif" font-size="10.00">MutationTypes</text>
</a>
</g>
</g>
<!-- Node1&#45;&gt;Node4 -->
<g id="edge4" class="edge">
<title>Node1&#45;&gt;Node4</title>
<path fill="none" stroke="midnightblue" d="M141.21,-108.93C154.33,-106.56 168.08,-104.08 181.3,-101.7"/>
<polygon fill="midnightblue" stroke="midnightblue" points="182.07,-105.12 191.29,-99.9 180.83,-98.23 182.07,-105.12"/>
</g>
<!-- Node5 -->
<g id="node5" class="node">
<title>Node5</title>
<g id="a_node5"><a xlink:href="classdenoptim_1_1graph_1_1_template.html#a1c1bd08e467f7738d2868996e9f22c3a" target="_top" xlink:title=" ">
<polygon fill="white" stroke="black" points="177,-24.5 177,-54.5 334,-54.5 334,-24.5 177,-24.5"/>
<text text-anchor="start" x="185" y="-42.5" font-family="Helvetica,sans-Serif" font-size="10.00">denoptim.graph.Template.update</text>
<text text-anchor="middle" x="255.5" y="-31.5" font-family="Helvetica,sans-Serif" font-size="10.00">MutTypeToFixedSTructure</text>
</a>
</g>
</g>
<!-- Node1&#45;&gt;Node5 -->
<g id="edge6" class="edge">
<title>Node1&#45;&gt;Node5</title>
<path fill="none" stroke="midnightblue" d="M96.43,-106.34C117.41,-94 148.47,-76.69 177,-64.5 182.33,-62.22 187.94,-60.03 193.61,-57.96"/>
<polygon fill="midnightblue" stroke="midnightblue" points="194.89,-61.22 203.15,-54.6 192.56,-54.62 194.89,-61.22"/>
</g>
<!-- Node3&#45;&gt;Node3 -->
<g id="edge3" class="edge">
<title>Node3&#45;&gt;Node3</title>
<path fill="none" stroke="midnightblue" d="M223.43,-170.66C215.7,-180.06 226.39,-189 255.5,-189 273.24,-189 284.14,-185.68 288.19,-180.96"/>
<polygon fill="midnightblue" stroke="midnightblue" points="291.67,-180.43 287.57,-170.66 284.68,-180.85 291.67,-180.43"/>
</g>
<!-- Node4&#45;&gt;Node4 -->
<g id="edge5" class="edge">
<title>Node4&#45;&gt;Node4</title>
<path fill="none" stroke="midnightblue" d="M223.43,-103.66C215.7,-113.06 226.39,-122 255.5,-122 273.24,-122 284.14,-118.68 288.19,-113.96"/>
<polygon fill="midnightblue" stroke="midnightblue" points="291.67,-113.43 287.57,-103.66 284.68,-113.85 291.67,-113.43"/>
</g>
<!-- Node6 -->
<g id="node6" class="node">
<title>Node6</title>
<g id="a_node6"><a xlink:href="classdenoptim_1_1graph_1_1_vertex.html#aac7848d9fe16b008e5b2989ac294fbf2" target="_top" xlink:title="Removes the specified mutation type.">
<polygon fill="white" stroke="black" points="370,-49.5 370,-79.5 517,-79.5 517,-49.5 370,-49.5"/>
<text text-anchor="start" x="378" y="-67.5" font-family="Helvetica,sans-Serif" font-size="10.00">denoptim.graph.Vertex.remove</text>
<text text-anchor="middle" x="443.5" y="-56.5" font-family="Helvetica,sans-Serif" font-size="10.00">MutationType</text>
</a>
</g>
</g>
<!-- Node5&#45;&gt;Node6 -->
<g id="edge7" class="edge">
<title>Node5&#45;&gt;Node6</title>
<path fill="none" stroke="midnightblue" d="M334.03,-49.92C342.56,-51.07 351.26,-52.24 359.85,-53.39"/>
<polygon fill="midnightblue" stroke="midnightblue" points="359.48,-56.87 369.85,-54.74 360.41,-49.93 359.48,-56.87"/>
</g>
<!-- Node7 -->
<g id="node7" class="node">
<title>Node7</title>
<g id="a_node7"><a xlink:href="classdenoptim_1_1graph_1_1_template.html#aad385a42d6afcdac25d87f9519644a00" target="_top" xlink:title=" ">
<polygon fill="white" stroke="black" points="379.5,-0.5 379.5,-30.5 507.5,-30.5 507.5,-0.5 379.5,-0.5"/>
<text text-anchor="start" x="387.5" y="-18.5" font-family="Helvetica,sans-Serif" font-size="10.00">denoptim.graph.Template.</text>
<text text-anchor="middle" x="443.5" y="-7.5" font-family="Helvetica,sans-Serif" font-size="10.00">Template</text>
</a>
</g>
</g>
<!-- Node5&#45;&gt;Node7 -->
<g id="edge8" class="edge">
<title>Node5&#45;&gt;Node7</title>
<path fill="none" stroke="midnightblue" d="M334.03,-29.5C345.68,-27.99 357.65,-26.45 369.2,-24.96"/>
<polygon fill="midnightblue" stroke="midnightblue" points="369.75,-28.42 379.22,-23.67 368.85,-21.47 369.75,-28.42"/>
</g>
<!-- Node8 -->
<g id="node8" class="node">
<title>Node8</title>
<g id="a_node8"><a xlink:href="classdenoptim_1_1graph_1_1_vertex.html#ab8088bc1c894c7c916ca8d8a151fa905" target="_top" xlink:title=" ">
<polygon fill="white" stroke="black" points="553,-0.5 553,-30.5 681,-30.5 681,-0.5 553,-0.5"/>
<text text-anchor="start" x="561" y="-18.5" font-family="Helvetica,sans-Serif" font-size="10.00">denoptim.graph.Vertex.set</text>
<text text-anchor="middle" x="617" y="-7.5" font-family="Helvetica,sans-Serif" font-size="10.00">BuildingBlockType</text>
</a>
</g>
</g>
<!-- Node7&#45;&gt;Node8 -->
<g id="edge9" class="edge">
<title>Node7&#45;&gt;Node8</title>
<path fill="none" stroke="midnightblue" d="M507.87,-15.5C519.24,-15.5 531.17,-15.5 542.78,-15.5"/>
<polygon fill="midnightblue" stroke="midnightblue" points="542.89,-19 552.89,-15.5 542.89,-12 542.89,-19"/>
</g>
</g>
</svg>
