<?xml version="1.0" encoding="UTF-8" standalone="no"?>
<!DOCTYPE svg PUBLIC "-//W3C//DTD SVG 1.1//EN"
 "http://www.w3.org/Graphics/SVG/1.1/DTD/svg11.dtd">
<!-- Generated by graphviz version 3.0.0 (20221109.1736)
 -->
<!-- Title: denoptim.json.DENOPTIMgson Pages: 1 -->
<svg width="303pt" height="175pt"
 viewBox="0.00 0.00 303.00 175.00" xmlns="http://www.w3.org/2000/svg" xmlns:xlink="http://www.w3.org/1999/xlink">
<g id="graph0" class="graph" transform="scale(1 1) rotate(0) translate(4 171)">
<title>denoptim.json.DENOPTIMgson</title>
<polygon fill="white" stroke="transparent" points="-4,4 -4,-171 299,-171 299,4 -4,4"/>
<!-- Node1 -->
<g id="node1" class="node">
<title>Node1</title>
<g id="a_node1"><a xlink:title="Class for de/serializing DENOPTIM graphs from/to JSON format.">
<polygon fill="#bfbfbf" stroke="black" points="0,-0.5 0,-19.5 152,-19.5 152,-0.5 0,-0.5"/>
<text text-anchor="middle" x="76" y="-7.5" font-family="Helvetica,sans-Serif" font-size="10.00">denoptim.json.DENOPTIMgson</text>
</a>
</g>
</g>
<!-- Node2 -->
<g id="node2" class="node">
<title>Node2</title>
<g id="a_node2"><a xlink:href="classdenoptim_1_1json_1_1_d_e_n_o_p_t_i_mgson.html" target="_top" xlink:title="Class for de/serializing DENOPTIM graphs from/to JSON format.">
<polygon fill="white" stroke="black" points="85,-68.5 85,-87.5 237,-87.5 237,-68.5 85,-68.5"/>
<text text-anchor="middle" x="161" y="-75.5" font-family="Helvetica,sans-Serif" font-size="10.00">denoptim.json.DENOPTIMgson</text>
</a>
</g>
</g>
<!-- Node2&#45;&gt;Node1 -->
<g id="edge1" class="edge">
<title>Node2&#45;&gt;Node1</title>
<path fill="none" stroke="#9a32cd" stroke-dasharray="5,2" d="M141.81,-62.1C124.94,-49 100.99,-30.4 87.11,-19.63"/>
<polygon fill="#9a32cd" stroke="#9a32cd" points="139.84,-65 149.89,-68.37 144.14,-59.47 139.84,-65"/>
<text text-anchor="middle" x="143" y="-41" font-family="Helvetica,sans-Serif" font-size="10.00"> instance</text>
</g>
<!-- Node2&#45;&gt;Node2 -->
<g id="edge2" class="edge">
<title>Node2&#45;&gt;Node2</title>
<path fill="none" stroke="#9a32cd" stroke-dasharray="5,2" d="M247.58,-82.23C252.24,-81.19 255,-79.78 255,-78 255,-75.14 247.93,-73.25 237.35,-72.31"/>
<polygon fill="#9a32cd" stroke="#9a32cd" points="246.75,-78.81 237.35,-83.69 247.74,-85.74 246.75,-78.81"/>
<text text-anchor="middle" x="275" y="-75.5" font-family="Helvetica,sans-Serif" font-size="10.00"> instance</text>
</g>
<!-- Node3 -->
<g id="node3" class="node">
<title>Node3</title>
<g id="a_node3"><a xlink:title=" ">
<polygon fill="white" stroke="black" points="33,-147.5 33,-166.5 73,-166.5 73,-147.5 33,-147.5"/>
<text text-anchor="middle" x="53" y="-154.5" font-family="Helvetica,sans-Serif" font-size="10.00">Gson</text>
</a>
</g>
</g>
<!-- Node3&#45;&gt;Node1 -->
<g id="edge4" class="edge">
<title>Node3&#45;&gt;Node1</title>
<path fill="none" stroke="#9a32cd" stroke-dasharray="5,2" d="M48.1,-137.36C44.11,-119.15 40.03,-90.78 46,-67 50.56,-48.81 62.3,-30.09 69.66,-19.56"/>
<polygon fill="#9a32cd" stroke="#9a32cd" points="44.74,-138.35 50.48,-147.25 51.54,-136.71 44.74,-138.35"/>
<text text-anchor="middle" x="61" y="-81" font-family="Helvetica,sans-Serif" font-size="10.00"> reader</text>
<text text-anchor="middle" x="61" y="-70" font-family="Helvetica,sans-Serif" font-size="10.00">writer</text>
</g>
<!-- Node3&#45;&gt;Node2 -->
<g id="edge3" class="edge">
<title>Node3&#45;&gt;Node2</title>
<path fill="none" stroke="#9a32cd" stroke-dasharray="5,2" d="M73.39,-141.46C95.69,-125.56 130.7,-100.6 148.98,-87.57"/>
<polygon fill="#9a32cd" stroke="#9a32cd" points="71.08,-138.81 64.97,-147.47 75.14,-144.51 71.08,-138.81"/>
<text text-anchor="middle" x="134" y="-121" font-family="Helvetica,sans-Serif" font-size="10.00"> reader</text>
<text text-anchor="middle" x="134" y="-110" font-family="Helvetica,sans-Serif" font-size="10.00">writer</text>
</g>
</g>
</svg>
