<?xml version="1.0" encoding="UTF-8" standalone="no"?>
<!DOCTYPE svg PUBLIC "-//W3C//DTD SVG 1.1//EN"
 "http://www.w3.org/Graphics/SVG/1.1/DTD/svg11.dtd">
<!-- Generated by graphviz version 3.0.0 (20221109.1736)
 -->
<!-- Title: denoptim.fragmenter.TopoTemplateProducer.getTemplateWithBufferShell Pages: 1 -->
<svg width="353pt" height="50pt"
 viewBox="0.00 0.00 353.00 50.00" xmlns="http://www.w3.org/2000/svg" xmlns:xlink="http://www.w3.org/1999/xlink">
<g id="graph0" class="graph" transform="scale(1 1) rotate(0) translate(4 46)">
<title>denoptim.fragmenter.TopoTemplateProducer.getTemplateWithBufferShell</title>
<polygon fill="white" stroke="transparent" points="-4,4 -4,-46 349,-46 349,4 -4,4"/>
<!-- Node1 -->
<g id="node1" class="node">
<title>Node1</title>
<g id="a_node1"><a xlink:title="Produced a new IAtomContainer containing all the atoms needed to define the topology of the original ...">
<polygon fill="#bfbfbf" stroke="black" points="193,-0.5 193,-41.5 345,-41.5 345,-0.5 193,-0.5"/>
<text text-anchor="start" x="201" y="-29.5" font-family="Helvetica,sans-Serif" font-size="10.00">denoptim.fragmenter.Topo</text>
<text text-anchor="start" x="201" y="-18.5" font-family="Helvetica,sans-Serif" font-size="10.00">TemplateProducer.getTemplate</text>
<text text-anchor="middle" x="269" y="-7.5" font-family="Helvetica,sans-Serif" font-size="10.00">WithBufferShell</text>
</a>
</g>
</g>
<!-- Node2 -->
<g id="node2" class="node">
<title>Node2</title>
<g id="a_node2"><a xlink:href="classdenoptim_1_1fragmenter_1_1_fragmenter_tools.html#a38e4793ebca03b3cbda4f035580620b7" target="_top" xlink:title="Chops one chemical structure by applying the given fragmentation templates.">
<polygon fill="white" stroke="black" points="0,-6 0,-36 157,-36 157,-6 0,-6"/>
<text text-anchor="start" x="8" y="-24" font-family="Helvetica,sans-Serif" font-size="10.00">denoptim.fragmenter.Fragmenter</text>
<text text-anchor="middle" x="78.5" y="-13" font-family="Helvetica,sans-Serif" font-size="10.00">Tools.fragmentation</text>
</a>
</g>
</g>
<!-- Node1&#45;&gt;Node2 -->
<g id="edge1" class="edge">
<title>Node1&#45;&gt;Node2</title>
<path fill="none" stroke="midnightblue" d="M182.91,-21C174.3,-21 165.59,-21 157.06,-21"/>
<polygon fill="midnightblue" stroke="midnightblue" points="182.96,-24.5 192.96,-21 182.96,-17.5 182.96,-24.5"/>
</g>
</g>
</svg>
