<?xml version="1.0" encoding="UTF-8" standalone="no"?>
<!DOCTYPE svg PUBLIC "-//W3C//DTD SVG 1.1//EN"
 "http://www.w3.org/Graphics/SVG/1.1/DTD/svg11.dtd">
<!-- Generated by graphviz version 3.0.0 (20221109.1736)
 -->
<!-- Title: denoptim.io.DenoptimIO.writeGraphToJSON Pages: 1 -->
<!--zoomable 78 -->
<svg id="main" version="1.1" xmlns="http://www.w3.org/2000/svg" xmlns:xlink="http://www.w3.org/1999/xlink" xml:space="preserve" onload="init(evt)">
<style type="text/css"><![CDATA[
.edge:hover path { stroke: red; }
.edge:hover polygon { stroke: red; fill: red; }
]]></style>
<script type="text/javascript"><![CDATA[
var edges = document.getElementsByTagName('g');
if (edges && edges.length) {
  for (var i=0;i<edges.length;i++) {
    if (edges[i].id.substr(0,4)=='edge') {
      edges[i].setAttribute('class','edge');
    }
  }
}
]]></script>
        <defs>
                <circle id="rim" cx="0" cy="0" r="7"/>
                <circle id="rim2" cx="0" cy="0" r="3.5"/>
                <g id="zoomPlus">
                        <use xlink:href="#rim" fill="#404040">
                                <set attributeName="fill" to="#808080" begin="zoomplus.mouseover" end="zoomplus.mouseout"/>
                        </use>
                        <path d="M-4,0h8M0,-4v8" fill="none" stroke="white" stroke-width="1.5" pointer-events="none"/>
                </g>
                <g id="zoomMin">
                        <use xlink:href="#rim" fill="#404040">
                                <set attributeName="fill" to="#808080" begin="zoomminus.mouseover" end="zoomminus.mouseout"/>
                        </use>
                        <path d="M-4,0h8" fill="none" stroke="white" stroke-width="1.5" pointer-events="none"/>
                </g>
                <g id="dirArrow">
                        <path fill="none" stroke="white" stroke-width="1.5" d="M0,-3.0v7 M-2.5,-0.5L0,-3.0L2.5,-0.5"/>
                </g>
               <g id="resetDef">
                       <use xlink:href="#rim2" fill="#404040">
                               <set attributeName="fill" to="#808080" begin="reset.mouseover" end="reset.mouseout"/>
                       </use>
               </g>
        </defs>

<script type="text/javascript">
var viewWidth = 926;
var viewHeight = 78;
var sectionId = 'dynsection-78';
</script>
<script xlink:href="svgpan.js"/>
<svg id="graph" class="graph">
<g id="viewport">
<title>denoptim.io.DenoptimIO.writeGraphToJSON</title>
<polygon fill="white" stroke="transparent" points="-4,4 -4,-73.5 922,-73.5 922,4 -4,4"/>
<!-- Node1 -->
<g id="node1" class="node">
<title>Node1</title>
<g id="a_node1"><a xlink:title="Writes the graph to JSON file.">
<polygon fill="#bfbfbf" stroke="black" points="0,-17 0,-47 143,-47 143,-17 0,-17"/>
<text text-anchor="start" x="8" y="-35" font-family="Helvetica,sans-Serif" font-size="10.00">denoptim.io.DenoptimIO.write</text>
<text text-anchor="middle" x="71.5" y="-24" font-family="Helvetica,sans-Serif" font-size="10.00">GraphToJSON</text>
</a>
</g>
</g>
<!-- Node2 -->
<g id="node2" class="node">
<title>Node2</title>
<g id="a_node2"><a xlink:href="classdenoptim_1_1io_1_1_denoptim_i_o.html#a26675b858b0472e03a29d517db448a30" target="_top" xlink:title="Writes the graphs to JSON file.">
<polygon fill="white" stroke="black" points="179,-17 179,-47 322,-47 322,-17 179,-17"/>
<text text-anchor="start" x="187" y="-35" font-family="Helvetica,sans-Serif" font-size="10.00">denoptim.io.DenoptimIO.write</text>
<text text-anchor="middle" x="250.5" y="-24" font-family="Helvetica,sans-Serif" font-size="10.00">GraphsToJSON</text>
</a>
</g>
</g>
<!-- Node1&#45;&gt;Node2 -->
<g id="edge1" class="edge">
<title>Node1&#45;&gt;Node2</title>
<path fill="none" stroke="midnightblue" d="M143.22,-32C151.57,-32 160.14,-32 168.62,-32"/>
<polygon fill="midnightblue" stroke="midnightblue" points="168.89,-35.5 178.89,-32 168.89,-28.5 168.89,-35.5"/>
</g>
<!-- Node3 -->
<g id="node3" class="node">
<title>Node3</title>
<g id="a_node3"><a xlink:href="classdenoptim_1_1json_1_1_d_e_n_o_p_t_i_mgson.html#aa8cbbc7dcd366e9f1053c4b2b676e0d7" target="_top" xlink:title=" ">
<polygon fill="white" stroke="black" points="358,-39 358,-69 525,-69 525,-39 358,-39"/>
<text text-anchor="start" x="366" y="-57" font-family="Helvetica,sans-Serif" font-size="10.00">denoptim.json.DENOPTIMgson.get</text>
<text text-anchor="middle" x="441.5" y="-46" font-family="Helvetica,sans-Serif" font-size="10.00">Writer</text>
</a>
</g>
</g>
<!-- Node2&#45;&gt;Node3 -->
<g id="edge2" class="edge">
<title>Node2&#45;&gt;Node3</title>
<path fill="none" stroke="midnightblue" d="M322.15,-40.22C330.51,-41.2 339.14,-42.2 347.75,-43.2"/>
<polygon fill="midnightblue" stroke="midnightblue" points="347.5,-46.7 357.84,-44.38 348.31,-39.75 347.5,-46.7"/>
</g>
<!-- Node6 -->
<g id="node6" class="node">
<title>Node6</title>
<g id="a_node6"><a xlink:href="classdenoptim_1_1io_1_1_denoptim_i_o.html#adc7de175de66792f4f37f1661c10e7f8" target="_top" xlink:title="Write text&#45;like data file.">
<polygon fill="white" stroke="black" points="359.5,-0.5 359.5,-19.5 523.5,-19.5 523.5,-0.5 359.5,-0.5"/>
<text text-anchor="middle" x="441.5" y="-7.5" font-family="Helvetica,sans-Serif" font-size="10.00">denoptim.io.DenoptimIO.writeData</text>
</a>
</g>
</g>
<!-- Node2&#45;&gt;Node6 -->
<g id="edge5" class="edge">
<title>Node2&#45;&gt;Node6</title>
<path fill="none" stroke="midnightblue" d="M322.15,-23.78C331.08,-22.74 340.31,-21.66 349.51,-20.59"/>
<polygon fill="midnightblue" stroke="midnightblue" points="349.92,-24.07 359.45,-19.43 349.11,-17.11 349.92,-24.07"/>
</g>
<!-- Node4 -->
<g id="node4" class="node">
<title>Node4</title>
<g id="a_node4"><a xlink:href="classdenoptim_1_1json_1_1_d_e_n_o_p_t_i_mgson.html#aa14de224ae5d1ae5156f11d5715d360c" target="_top" xlink:title=" ">
<polygon fill="white" stroke="black" points="561,-39 561,-69 728,-69 728,-39 561,-39"/>
<text text-anchor="start" x="569" y="-57" font-family="Helvetica,sans-Serif" font-size="10.00">denoptim.json.DENOPTIMgson.get</text>
<text text-anchor="middle" x="644.5" y="-46" font-family="Helvetica,sans-Serif" font-size="10.00">Instance</text>
</a>
</g>
</g>
<!-- Node3&#45;&gt;Node4 -->
<g id="edge3" class="edge">
<title>Node3&#45;&gt;Node4</title>
<path fill="none" stroke="midnightblue" d="M525.12,-54C533.61,-54 542.27,-54 550.85,-54"/>
<polygon fill="midnightblue" stroke="midnightblue" points="550.87,-57.5 560.87,-54 550.87,-50.5 550.87,-57.5"/>
</g>
<!-- Node5 -->
<g id="node5" class="node">
<title>Node5</title>
<g id="a_node5"><a xlink:href="classdenoptim_1_1json_1_1_d_e_n_o_p_t_i_mgson.html#a4aafec42bd09225870fdf330db93b84c" target="_top" xlink:title=" ">
<polygon fill="white" stroke="black" points="764,-39 764,-69 918,-69 918,-39 764,-39"/>
<text text-anchor="start" x="772" y="-57" font-family="Helvetica,sans-Serif" font-size="10.00">denoptim.json.DENOPTIMgson.</text>
<text text-anchor="middle" x="841" y="-46" font-family="Helvetica,sans-Serif" font-size="10.00">DENOPTIMgson</text>
</a>
</g>
</g>
<!-- Node4&#45;&gt;Node5 -->
<g id="edge4" class="edge">
<title>Node4&#45;&gt;Node5</title>
<path fill="none" stroke="midnightblue" d="M728.27,-54C736.65,-54 745.17,-54 753.59,-54"/>
<polygon fill="midnightblue" stroke="midnightblue" points="753.79,-57.5 763.79,-54 753.79,-50.5 753.79,-57.5"/>
</g>
</g>
</svg>
        <g id="navigator" transform="translate(0 0)" fill="#404254">
                <rect fill="#f2f5e9" fill-opacity="0.5" stroke="#606060" stroke-width=".5" x="0" y="0" width="60" height="60"/>
                <use id="zoomplus" xlink:href="#zoomPlus" x="17" y="9" onmousedown="handleZoom(evt,'in')"/>
                <use id="zoomminus" xlink:href="#zoomMin" x="42" y="9" onmousedown="handleZoom(evt,'out')"/>
                <use id="reset" xlink:href="#resetDef" x="30" y="36" onmousedown="handleReset()"/>
                <g id="arrowUp" xlink:href="#dirArrow" transform="translate(30 24)" onmousedown="handlePan(0,-1)">
                  <use xlink:href="#rim" fill="#404040">
                        <set attributeName="fill" to="#808080" begin="arrowUp.mouseover" end="arrowUp.mouseout"/>
                  </use>
                  <path fill="none" stroke="white" stroke-width="1.5" d="M0,-3.0v7 M-2.5,-0.5L0,-3.0L2.5,-0.5"/>
                </g>
                <g id="arrowRight" xlink:href="#dirArrow" transform="rotate(90) translate(36 -43)" onmousedown="handlePan(1,0)">
                  <use xlink:href="#rim" fill="#404040">
                        <set attributeName="fill" to="#808080" begin="arrowRight.mouseover" end="arrowRight.mouseout"/>
                  </use>
                  <path fill="none" stroke="white" stroke-width="1.5" d="M0,-3.0v7 M-2.5,-0.5L0,-3.0L2.5,-0.5"/>
                </g>
                <g id="arrowDown" xlink:href="#dirArrow" transform="rotate(180) translate(-30 -48)" onmousedown="handlePan(0,1)">
                  <use xlink:href="#rim" fill="#404040">
                        <set attributeName="fill" to="#808080" begin="arrowDown.mouseover" end="arrowDown.mouseout"/>
                  </use>
                  <path fill="none" stroke="white" stroke-width="1.5" d="M0,-3.0v7 M-2.5,-0.5L0,-3.0L2.5,-0.5"/>
                </g>
                <g id="arrowLeft" xlink:href="#dirArrow" transform="rotate(270) translate(-36 17)" onmousedown="handlePan(-1,0)">
                  <use xlink:href="#rim" fill="#404040">
                        <set attributeName="fill" to="#808080" begin="arrowLeft.mouseover" end="arrowLeft.mouseout"/>
                  </use>
                  <path fill="none" stroke="white" stroke-width="1.5" d="M0,-3.0v7 M-2.5,-0.5L0,-3.0L2.5,-0.5"/>
                </g>
        </g>
        <svg viewBox="0 0 15 15" width="100%" height="30px" preserveAspectRatio="xMaxYMin meet">
         <g id="arrow_out" transform="scale(0.3 0.3)">
          <a xlink:href="classdenoptim_1_1io_1_1_denoptim_i_o_ab38de9f2630baab2d129b844b6968060_cgraph_org.svg" target="_base">
           <rect id="button" ry="5" rx="5" y="6" x="6" height="38" width="38"
                fill="#f2f5e9" fill-opacity="0.5" stroke="#606060" stroke-width="1.0"/>
           <path id="arrow"
             d="M 11.500037,31.436501 C 11.940474,20.09759 22.043105,11.32322 32.158766,21.979434 L 37.068811,17.246167 C 37.068811,17.246167 37.088388,32 37.088388,32 L 22.160133,31.978069 C 22.160133,31.978069 26.997745,27.140456 26.997745,27.140456 C 18.528582,18.264221 13.291696,25.230495 11.500037,31.436501 z"
             style="fill:#404040;"/>
          </a>
         </g>
        </svg>
</svg>
