<?xml version="1.0" encoding="UTF-8" standalone="no"?>
<!DOCTYPE svg PUBLIC "-//W3C//DTD SVG 1.1//EN"
 "http://www.w3.org/Graphics/SVG/1.1/DTD/svg11.dtd">
<!-- Generated by graphviz version 3.0.0 (20221109.1736)
 -->
<!-- Title: denoptim.gui.VertexAsGraphViewPanel.activateTabEditsListener Pages: 1 -->
<!--zoomable 443 -->
<svg id="main" version="1.1" xmlns="http://www.w3.org/2000/svg" xmlns:xlink="http://www.w3.org/1999/xlink" xml:space="preserve" onload="init(evt)">
<style type="text/css"><![CDATA[
.edge:hover path { stroke: red; }
.edge:hover polygon { stroke: red; fill: red; }
]]></style>
<script type="text/javascript"><![CDATA[
var edges = document.getElementsByTagName('g');
if (edges && edges.length) {
  for (var i=0;i<edges.length;i++) {
    if (edges[i].id.substr(0,4)=='edge') {
      edges[i].setAttribute('class','edge');
    }
  }
}
]]></script>
        <defs>
                <circle id="rim" cx="0" cy="0" r="7"/>
                <circle id="rim2" cx="0" cy="0" r="3.5"/>
                <g id="zoomPlus">
                        <use xlink:href="#rim" fill="#404040">
                                <set attributeName="fill" to="#808080" begin="zoomplus.mouseover" end="zoomplus.mouseout"/>
                        </use>
                        <path d="M-4,0h8M0,-4v8" fill="none" stroke="white" stroke-width="1.5" pointer-events="none"/>
                </g>
                <g id="zoomMin">
                        <use xlink:href="#rim" fill="#404040">
                                <set attributeName="fill" to="#808080" begin="zoomminus.mouseover" end="zoomminus.mouseout"/>
                        </use>
                        <path d="M-4,0h8" fill="none" stroke="white" stroke-width="1.5" pointer-events="none"/>
                </g>
                <g id="dirArrow">
                        <path fill="none" stroke="white" stroke-width="1.5" d="M0,-3.0v7 M-2.5,-0.5L0,-3.0L2.5,-0.5"/>
                </g>
               <g id="resetDef">
                       <use xlink:href="#rim2" fill="#404040">
                               <set attributeName="fill" to="#808080" begin="reset.mouseover" end="reset.mouseout"/>
                       </use>
               </g>
        </defs>

<script type="text/javascript">
var viewWidth = 2924;
var viewHeight = 443;
var sectionId = 'dynsection-4';
</script>
<script xlink:href="svgpan.js"/>
<svg id="graph" class="graph">
<g id="viewport">
<title>denoptim.gui.VertexAsGraphViewPanel.activateTabEditsListener</title>
<polygon fill="white" stroke="transparent" points="-4,4 -4,-439 2920,-439 2920,4 -4,4"/>
<!-- Node1 -->
<g id="node1" class="node">
<title>Node1</title>
<g id="a_node1"><a xlink:title="Allows to activate and deactivate the listener.">
<polygon fill="#bfbfbf" stroke="black" points="2743,-123.5 2743,-153.5 2916,-153.5 2916,-123.5 2743,-123.5"/>
<text text-anchor="start" x="2751" y="-141.5" font-family="Helvetica,sans-Serif" font-size="10.00">denoptim.gui.VertexAsGraph</text>
<text text-anchor="middle" x="2829.5" y="-130.5" font-family="Helvetica,sans-Serif" font-size="10.00">ViewPanel.activateTabEditsListener</text>
</a>
</g>
</g>
<!-- Node2 -->
<g id="node2" class="node">
<title>Node2</title>
<g id="a_node2"><a xlink:href="classdenoptim_1_1gui_1_1_vertex_as_graph_view_panel.html#af9187da422f4f24b56b63c8e225b9c13" target="_top" xlink:title="Clears the table of attachment points.">
<polygon fill="white" stroke="black" points="2567,-172.5 2567,-202.5 2707,-202.5 2707,-172.5 2567,-172.5"/>
<text text-anchor="start" x="2575" y="-190.5" font-family="Helvetica,sans-Serif" font-size="10.00">denoptim.gui.VertexAsGraph</text>
<text text-anchor="middle" x="2637" y="-179.5" font-family="Helvetica,sans-Serif" font-size="10.00">ViewPanel.clearAPTable</text>
</a>
</g>
</g>
<!-- Node1&#45;&gt;Node2 -->
<g id="edge1" class="edge">
<title>Node1&#45;&gt;Node2</title>
<path fill="none" stroke="midnightblue" d="M2760.27,-156.05C2739.35,-161.43 2716.54,-167.3 2696.34,-172.49"/>
<polygon fill="midnightblue" stroke="midnightblue" points="2761.24,-159.42 2770.05,-153.53 2759.49,-152.64 2761.24,-159.42"/>
</g>
<!-- Node35 -->
<g id="node35" class="node">
<title>Node35</title>
<g id="a_node35"><a xlink:href="classdenoptim_1_1gui_1_1_vertex_as_graph_view_panel.html#ae4788febb341d24665ac291b0ad04d7d" target="_top" xlink:title="Uses the AP of the Fragment to create a new map and table of APs.">
<polygon fill="white" stroke="black" points="2358,-123.5 2358,-153.5 2531,-153.5 2531,-123.5 2358,-123.5"/>
<text text-anchor="start" x="2366" y="-141.5" font-family="Helvetica,sans-Serif" font-size="10.00">denoptim.gui.VertexAsGraph</text>
<text text-anchor="middle" x="2444.5" y="-130.5" font-family="Helvetica,sans-Serif" font-size="10.00">ViewPanel.updateAPsMapAndTable</text>
</a>
</g>
</g>
<!-- Node1&#45;&gt;Node35 -->
<g id="edge54" class="edge">
<title>Node1&#45;&gt;Node35</title>
<path fill="none" stroke="midnightblue" d="M2732.39,-138.5C2670.54,-138.5 2590.85,-138.5 2531.17,-138.5"/>
<polygon fill="midnightblue" stroke="midnightblue" points="2732.55,-142 2742.55,-138.5 2732.55,-135 2732.55,-142"/>
</g>
<!-- Node36 -->
<g id="node36" class="node">
<title>Node36</title>
<g id="a_node36"><a xlink:href="classdenoptim_1_1gui_1_1_vertex_as_graph_view_panel.html#afa74b4f4fea57fb3a15847d6a01b977f" target="_top" xlink:title=" ">
<polygon fill="white" stroke="black" points="2567,-79.5 2567,-109.5 2707,-109.5 2707,-79.5 2567,-79.5"/>
<text text-anchor="start" x="2575" y="-97.5" font-family="Helvetica,sans-Serif" font-size="10.00">denoptim.gui.VertexAsGraph</text>
<text text-anchor="middle" x="2637" y="-86.5" font-family="Helvetica,sans-Serif" font-size="10.00">ViewPanel.preSelectAPs</text>
</a>
</g>
</g>
<!-- Node1&#45;&gt;Node36 -->
<g id="edge52" class="edge">
<title>Node1&#45;&gt;Node36</title>
<path fill="none" stroke="midnightblue" d="M2753.27,-121.12C2736.66,-117.29 2719.21,-113.26 2703.06,-109.53"/>
<polygon fill="midnightblue" stroke="midnightblue" points="2752.94,-124.64 2763.47,-123.48 2754.52,-117.82 2752.94,-124.64"/>
</g>
<!-- Node3 -->
<g id="node3" class="node">
<title>Node3</title>
<g id="a_node3"><a xlink:href="classdenoptim_1_1gui_1_1_vertex_as_graph_view_panel.html#aaba4f24e46d7dd764695ae6e456b4f99" target="_top" xlink:title="Removes the currently visualized molecule and AP table.">
<polygon fill="white" stroke="black" points="2374.5,-172.5 2374.5,-202.5 2514.5,-202.5 2514.5,-172.5 2374.5,-172.5"/>
<text text-anchor="start" x="2382.5" y="-190.5" font-family="Helvetica,sans-Serif" font-size="10.00">denoptim.gui.VertexAsGraph</text>
<text text-anchor="middle" x="2444.5" y="-179.5" font-family="Helvetica,sans-Serif" font-size="10.00">ViewPanel.clearAll</text>
</a>
</g>
</g>
<!-- Node2&#45;&gt;Node3 -->
<g id="edge2" class="edge">
<title>Node2&#45;&gt;Node3</title>
<path fill="none" stroke="midnightblue" d="M2556.85,-187.5C2542.84,-187.5 2528.34,-187.5 2514.63,-187.5"/>
<polygon fill="midnightblue" stroke="midnightblue" points="2556.96,-191 2566.96,-187.5 2556.96,-184 2556.96,-191"/>
</g>
<!-- Node4 -->
<g id="node4" class="node">
<title>Node4</title>
<g id="a_node4"><a xlink:href="classdenoptim_1_1gui_1_1_vertex_view_panel.html#a04374b744146d399fb0403bf9d95b132" target="_top" xlink:title="Removes the currently visualized molecule and AP table.">
<polygon fill="white" stroke="black" points="1759,-254.5 1759,-284.5 1930,-284.5 1930,-254.5 1759,-254.5"/>
<text text-anchor="start" x="1767" y="-272.5" font-family="Helvetica,sans-Serif" font-size="10.00">denoptim.gui.VertexViewPanel.clear</text>
<text text-anchor="middle" x="1844.5" y="-261.5" font-family="Helvetica,sans-Serif" font-size="10.00">CurrentSystem</text>
</a>
</g>
</g>
<!-- Node2&#45;&gt;Node4 -->
<g id="edge3" class="edge">
<title>Node2&#45;&gt;Node4</title>
<path fill="none" stroke="midnightblue" d="M2598.31,-206.99C2578.76,-216.13 2554.17,-226.17 2531,-231.5 2319.01,-280.26 2060.89,-278.81 1930.15,-273.96"/>
<polygon fill="midnightblue" stroke="midnightblue" points="2599.97,-210.07 2607.47,-202.59 2596.94,-203.76 2599.97,-210.07"/>
</g>
<!-- Node30 -->
<g id="node30" class="node">
<title>Node30</title>
<g id="a_node30"><a xlink:href="classdenoptim_1_1gui_1_1_vertex_as_graph_view_panel.html#a47990a9c843a7177b65f7076fb0bb817" target="_top" xlink:title=" ">
<polygon fill="white" stroke="black" points="2170,-123.5 2170,-153.5 2322,-153.5 2322,-123.5 2170,-123.5"/>
<text text-anchor="start" x="2178" y="-141.5" font-family="Helvetica,sans-Serif" font-size="10.00">denoptim.gui.VertexAsGraph</text>
<text text-anchor="middle" x="2246" y="-130.5" font-family="Helvetica,sans-Serif" font-size="10.00">ViewPanel.loadVertexToViewer</text>
</a>
</g>
</g>
<!-- Node2&#45;&gt;Node30 -->
<g id="edge39" class="edge">
<title>Node2&#45;&gt;Node30</title>
<path fill="none" stroke="midnightblue" d="M2578.22,-205.18C2521.07,-219.78 2431.72,-234.82 2358,-212.5 2320.09,-201.02 2283.3,-171.86 2263.05,-153.76"/>
<polygon fill="midnightblue" stroke="midnightblue" points="2579.38,-208.49 2588.16,-202.56 2577.6,-201.72 2579.38,-208.49"/>
</g>
<!-- Node2&#45;&gt;Node35 -->
<g id="edge50" class="edge">
<title>Node2&#45;&gt;Node35</title>
<path fill="none" stroke="midnightblue" d="M2567.77,-169.95C2546.85,-164.57 2524.04,-158.7 2503.84,-153.51"/>
<polygon fill="midnightblue" stroke="midnightblue" points="2566.99,-173.36 2577.55,-172.47 2568.74,-166.58 2566.99,-173.36"/>
</g>
<!-- Node5 -->
<g id="node5" class="node">
<title>Node5</title>
<g id="a_node5"><a xlink:href="classdenoptim_1_1gui_1_1_g_u_i_vertex_inspector.html#a0218e1fb0eb91fdd035a39d8856d4ddf" target="_top" xlink:title=" ">
<polygon fill="white" stroke="black" points="1540,-311.5 1540,-341.5 1723,-341.5 1723,-311.5 1540,-311.5"/>
<text text-anchor="start" x="1548" y="-329.5" font-family="Helvetica,sans-Serif" font-size="10.00">denoptim.gui.GUIVertexInspector.clear</text>
<text text-anchor="middle" x="1631.5" y="-318.5" font-family="Helvetica,sans-Serif" font-size="10.00">CurrentSystem</text>
</a>
</g>
</g>
<!-- Node4&#45;&gt;Node5 -->
<g id="edge4" class="edge">
<title>Node4&#45;&gt;Node5</title>
<path fill="none" stroke="midnightblue" d="M1777.82,-287.24C1749.06,-295.01 1715.68,-304.03 1688.16,-311.46"/>
<polygon fill="midnightblue" stroke="midnightblue" points="1779.05,-290.54 1787.79,-284.55 1777.22,-283.78 1779.05,-290.54"/>
</g>
<!-- Node21 -->
<g id="node21" class="node">
<title>Node21</title>
<g id="a_node21"><a xlink:href="classdenoptim_1_1gui_1_1_g_u_i_vertex_selector.html#a663bee223ce1f6a7f3c91f511abbdca5" target="_top" xlink:title=" ">
<polygon fill="white" stroke="black" points="1542,-213.5 1542,-243.5 1721,-243.5 1721,-213.5 1542,-213.5"/>
<text text-anchor="start" x="1550" y="-231.5" font-family="Helvetica,sans-Serif" font-size="10.00">denoptim.gui.GUIVertexSelector.clear</text>
<text text-anchor="middle" x="1631.5" y="-220.5" font-family="Helvetica,sans-Serif" font-size="10.00">CurrentSystem</text>
</a>
</g>
</g>
<!-- Node4&#45;&gt;Node21 -->
<g id="edge26" class="edge">
<title>Node4&#45;&gt;Node21</title>
<path fill="none" stroke="midnightblue" d="M1756.13,-252.52C1740.79,-249.54 1724.91,-246.46 1709.86,-243.53"/>
<polygon fill="midnightblue" stroke="midnightblue" points="1755.65,-255.99 1766.13,-254.47 1756.98,-249.12 1755.65,-255.99"/>
</g>
<!-- Node6 -->
<g id="node6" class="node">
<title>Node6</title>
<g id="a_node6"><a xlink:href="classdenoptim_1_1gui_1_1_g_u_i_vertex_inspector.html#a7e833ba52549966556cc1bd1852dcfa4" target="_top" xlink:title=" ">
<polygon fill="white" stroke="black" points="1315,-355.5 1315,-385.5 1504,-385.5 1504,-355.5 1315,-355.5"/>
<text text-anchor="start" x="1323" y="-373.5" font-family="Helvetica,sans-Serif" font-size="10.00">denoptim.gui.GUIVertexInspector.import</text>
<text text-anchor="middle" x="1409.5" y="-362.5" font-family="Helvetica,sans-Serif" font-size="10.00">StructureFromFile</text>
</a>
</g>
</g>
<!-- Node5&#45;&gt;Node6 -->
<g id="edge5" class="edge">
<title>Node5&#45;&gt;Node6</title>
<path fill="none" stroke="midnightblue" d="M1545.51,-343.5C1525.78,-347.44 1504.91,-351.62 1485.63,-355.47"/>
<polygon fill="midnightblue" stroke="midnightblue" points="1546.28,-346.91 1555.4,-341.52 1544.91,-340.05 1546.28,-346.91"/>
</g>
<!-- Node9 -->
<g id="node9" class="node">
<title>Node9</title>
<g id="a_node9"><a xlink:href="classdenoptim_1_1gui_1_1_g_u_i_vertex_inspector.html#a530b2f509d3e15fd285526a34461cc9e" target="_top" xlink:title="Imports the given SMILES into the viewer.">
<polygon fill="white" stroke="black" points="1315,-404.5 1315,-434.5 1504,-434.5 1504,-404.5 1315,-404.5"/>
<text text-anchor="start" x="1323" y="-422.5" font-family="Helvetica,sans-Serif" font-size="10.00">denoptim.gui.GUIVertexInspector.import</text>
<text text-anchor="middle" x="1409.5" y="-411.5" font-family="Helvetica,sans-Serif" font-size="10.00">StructureFromSMILES</text>
</a>
</g>
</g>
<!-- Node5&#45;&gt;Node9 -->
<g id="edge8" class="edge">
<title>Node5&#45;&gt;Node9</title>
<path fill="none" stroke="midnightblue" d="M1598.44,-346.89C1573.49,-362.04 1537.58,-382.27 1504,-395.5 1495.58,-398.82 1486.55,-401.8 1477.55,-404.45"/>
<polygon fill="midnightblue" stroke="midnightblue" points="1600.42,-349.78 1607.11,-341.57 1596.76,-343.82 1600.42,-349.78"/>
</g>
<!-- Node10 -->
<g id="node10" class="node">
<title>Node10</title>
<g id="a_node10"><a xlink:href="classdenoptim_1_1gui_1_1_g_u_i_vertex_inspector.html#ad9676f2418e5c4221fd7927d68cedad5" target="_top" xlink:title="Loads the fragments corresponding to the field index.">
<polygon fill="white" stroke="black" points="1319.5,-245.5 1319.5,-275.5 1499.5,-275.5 1499.5,-245.5 1319.5,-245.5"/>
<text text-anchor="start" x="1327.5" y="-263.5" font-family="Helvetica,sans-Serif" font-size="10.00">denoptim.gui.GUIVertexInspector.load</text>
<text text-anchor="middle" x="1409.5" y="-252.5" font-family="Helvetica,sans-Serif" font-size="10.00">CurrentVrtxIdxToViewer</text>
</a>
</g>
</g>
<!-- Node5&#45;&gt;Node10 -->
<g id="edge10" class="edge">
<title>Node5&#45;&gt;Node10</title>
<path fill="none" stroke="midnightblue" d="M1570.39,-308.47C1536.03,-298.16 1493.44,-285.38 1460.86,-275.61"/>
<polygon fill="midnightblue" stroke="midnightblue" points="1569.72,-311.92 1580.3,-311.44 1571.73,-305.22 1569.72,-311.92"/>
</g>
<!-- Node18 -->
<g id="node18" class="node">
<title>Node18</title>
<g id="a_node18"><a xlink:href="classdenoptim_1_1gui_1_1_g_u_i_vertex_inspector.html#a6e5cc3cb1cd2f98bf03934b3b2defa22" target="_top" xlink:title=" ">
<polygon fill="white" stroke="black" points="1085,-322.5 1085,-352.5 1279,-352.5 1279,-322.5 1085,-322.5"/>
<text text-anchor="start" x="1093" y="-340.5" font-family="Helvetica,sans-Serif" font-size="10.00">denoptim.gui.GUIVertexInspector.remove</text>
<text text-anchor="middle" x="1182" y="-329.5" font-family="Helvetica,sans-Serif" font-size="10.00">CurrentVrtx</text>
</a>
</g>
</g>
<!-- Node5&#45;&gt;Node18 -->
<g id="edge25" class="edge">
<title>Node5&#45;&gt;Node18</title>
<path fill="none" stroke="midnightblue" d="M1529.55,-328.98C1454.6,-330.82 1353.02,-333.32 1279.23,-335.13"/>
<polygon fill="midnightblue" stroke="midnightblue" points="1530.03,-332.47 1539.94,-328.73 1529.86,-325.47 1530.03,-332.47"/>
</g>
<!-- Node7 -->
<g id="node7" class="node">
<title>Node7</title>
<g id="a_node7"><a xlink:href="classdenoptim_1_1gui_1_1_g_u_i_vertex_inspector.html#acadecc92299a7ea46113c06382a1f333" target="_top" xlink:title="Initialize the panel and add buttons.">
<polygon fill="white" stroke="black" points="852,-279 852,-298 1049,-298 1049,-279 852,-279"/>
<text text-anchor="middle" x="950.5" y="-286" font-family="Helvetica,sans-Serif" font-size="10.00">denoptim.gui.GUIVertexInspector.initialize</text>
</a>
</g>
</g>
<!-- Node6&#45;&gt;Node7 -->
<g id="edge6" class="edge">
<title>Node6&#45;&gt;Node7</title>
<path fill="none" stroke="midnightblue" d="M1304.61,-380.38C1240.26,-383.47 1156.53,-381.95 1085,-362.5 1036.41,-349.29 986.41,-314.93 963.86,-298.09"/>
<polygon fill="midnightblue" stroke="midnightblue" points="1304.97,-383.87 1314.77,-379.85 1304.6,-376.88 1304.97,-383.87"/>
</g>
<!-- Node8 -->
<g id="node8" class="node">
<title>Node8</title>
<g id="a_node8"><a xlink:href="classdenoptim_1_1gui_1_1_g_u_i_vertex_inspector.html#abc5d3c33ad9b2b114ce43e9b2cd577bb" target="_top" xlink:title="Constructor.">
<polygon fill="white" stroke="black" points="623,-273.5 623,-303.5 785,-303.5 785,-273.5 623,-273.5"/>
<text text-anchor="start" x="631" y="-291.5" font-family="Helvetica,sans-Serif" font-size="10.00">denoptim.gui.GUIVertexInspector.</text>
<text text-anchor="middle" x="704" y="-280.5" font-family="Helvetica,sans-Serif" font-size="10.00">GUIVertexInspector</text>
</a>
</g>
</g>
<!-- Node7&#45;&gt;Node8 -->
<g id="edge7" class="edge">
<title>Node7&#45;&gt;Node8</title>
<path fill="none" stroke="midnightblue" d="M841.65,-288.5C822.71,-288.5 803.3,-288.5 785.27,-288.5"/>
<polygon fill="midnightblue" stroke="midnightblue" points="841.81,-292 851.81,-288.5 841.81,-285 841.81,-292"/>
</g>
<!-- Node9&#45;&gt;Node7 -->
<g id="edge9" class="edge">
<title>Node9&#45;&gt;Node7</title>
<path fill="none" stroke="midnightblue" d="M1304.62,-422.13C1239.56,-420.53 1155.06,-412.4 1085,-385.5 1032.04,-365.17 981.14,-318.26 960.8,-298.05"/>
<polygon fill="midnightblue" stroke="midnightblue" points="1304.83,-425.64 1314.89,-422.34 1304.97,-418.64 1304.83,-425.64"/>
</g>
<!-- Node11 -->
<g id="node11" class="node">
<title>Node11</title>
<g id="a_node11"><a xlink:href="classdenoptim_1_1gui_1_1_g_u_i_vertex_inspector.html#a69d3deb57097286f9a01cdf256ec8d65" target="_top" xlink:title="Imports vertices.">
<polygon fill="white" stroke="black" points="1087.5,-175.5 1087.5,-205.5 1276.5,-205.5 1276.5,-175.5 1087.5,-175.5"/>
<text text-anchor="start" x="1095.5" y="-193.5" font-family="Helvetica,sans-Serif" font-size="10.00">denoptim.gui.GUIVertexInspector.import</text>
<text text-anchor="middle" x="1182" y="-182.5" font-family="Helvetica,sans-Serif" font-size="10.00">Vertices</text>
</a>
</g>
</g>
<!-- Node10&#45;&gt;Node11 -->
<g id="edge11" class="edge">
<title>Node10&#45;&gt;Node11</title>
<path fill="none" stroke="midnightblue" d="M1358.39,-242.04C1334.49,-233.51 1305.42,-223.52 1279,-215.5 1267.63,-212.05 1255.41,-208.64 1243.63,-205.51"/>
<polygon fill="midnightblue" stroke="midnightblue" points="1357.35,-245.39 1367.95,-245.48 1359.72,-238.8 1357.35,-245.39"/>
</g>
<!-- Node10&#45;&gt;Node18 -->
<g id="edge20" class="edge">
<title>Node10&#45;&gt;Node18</title>
<path fill="none" stroke="midnightblue" d="M1366.25,-279.59C1341.21,-290.45 1308.68,-303.77 1279,-313.5 1269.2,-316.71 1258.73,-319.73 1248.43,-322.48"/>
<polygon fill="midnightblue" stroke="midnightblue" points="1367.69,-282.78 1375.45,-275.56 1364.89,-276.37 1367.69,-282.78"/>
</g>
<!-- Node19 -->
<g id="node19" class="node">
<title>Node19</title>
<g id="a_node19"><a xlink:href="classdenoptim_1_1gui_1_1_g_u_i_vertex_inspector.html#a09363e21a5254efe8f128a99e82acbf0" target="_top" xlink:title=" ">
<polygon fill="white" stroke="black" points="1090.5,-273.5 1090.5,-303.5 1273.5,-303.5 1273.5,-273.5 1090.5,-273.5"/>
<text text-anchor="start" x="1098.5" y="-291.5" font-family="Helvetica,sans-Serif" font-size="10.00">denoptim.gui.GUIVertexInspector.save</text>
<text text-anchor="middle" x="1182" y="-280.5" font-family="Helvetica,sans-Serif" font-size="10.00">UnsavedChanges</text>
</a>
</g>
</g>
<!-- Node10&#45;&gt;Node19 -->
<g id="edge22" class="edge">
<title>Node10&#45;&gt;Node19</title>
<path fill="none" stroke="midnightblue" d="M1309.45,-272.8C1297.56,-274.28 1285.46,-275.78 1273.69,-277.24"/>
<polygon fill="midnightblue" stroke="midnightblue" points="1309.88,-276.27 1319.38,-271.57 1309.02,-269.33 1309.88,-276.27"/>
</g>
<!-- Node20 -->
<g id="node20" class="node">
<title>Node20</title>
<g id="a_node20"><a xlink:href="classdenoptim_1_1gui_1_1_g_u_i_vertex_inspector_1_1_vrtx_spinner_change_event.html#aca98b170c98a615d12f199d1ccdd26dd" target="_top" xlink:title=" ">
<polygon fill="white" stroke="black" points="1088.5,-224.5 1088.5,-254.5 1275.5,-254.5 1275.5,-224.5 1088.5,-224.5"/>
<text text-anchor="start" x="1096.5" y="-242.5" font-family="Helvetica,sans-Serif" font-size="10.00">denoptim.gui.GUIVertexInspector.</text>
<text text-anchor="middle" x="1182" y="-231.5" font-family="Helvetica,sans-Serif" font-size="10.00">VrtxSpinnerChangeEvent.stateChanged</text>
</a>
</g>
</g>
<!-- Node10&#45;&gt;Node20 -->
<g id="edge24" class="edge">
<title>Node10&#45;&gt;Node20</title>
<path fill="none" stroke="midnightblue" d="M1309.17,-251.25C1297.99,-250.21 1286.64,-249.15 1275.55,-248.12"/>
<polygon fill="midnightblue" stroke="midnightblue" points="1309.09,-254.76 1319.38,-252.2 1309.74,-247.79 1309.09,-254.76"/>
</g>
<!-- Node11&#45;&gt;Node7 -->
<g id="edge19" class="edge">
<title>Node11&#45;&gt;Node7</title>
<path fill="none" stroke="midnightblue" d="M1104.62,-208.55C1097.92,-210.69 1091.29,-213 1085,-215.5 1039.57,-233.52 990.08,-263.62 966.13,-278.93"/>
<polygon fill="midnightblue" stroke="midnightblue" points="1105.92,-211.81 1114.47,-205.55 1103.88,-205.11 1105.92,-211.81"/>
</g>
<!-- Node12 -->
<g id="node12" class="node">
<title>Node12</title>
<g id="a_node12"><a xlink:href="classdenoptim_1_1gui_1_1_g_u_i_vertex_inspector.html#a6698fa37bf04503e58c61f0543946834" target="_top" xlink:title="Imports fragments from a file.">
<polygon fill="white" stroke="black" points="856,-175.5 856,-205.5 1045,-205.5 1045,-175.5 856,-175.5"/>
<text text-anchor="start" x="864" y="-193.5" font-family="Helvetica,sans-Serif" font-size="10.00">denoptim.gui.GUIVertexInspector.import</text>
<text text-anchor="middle" x="950.5" y="-182.5" font-family="Helvetica,sans-Serif" font-size="10.00">VerticesFromFile</text>
</a>
</g>
</g>
<!-- Node11&#45;&gt;Node12 -->
<g id="edge12" class="edge">
<title>Node11&#45;&gt;Node12</title>
<path fill="none" stroke="midnightblue" d="M1077.17,-190.5C1066.54,-190.5 1055.77,-190.5 1045.25,-190.5"/>
<polygon fill="midnightblue" stroke="midnightblue" points="1077.32,-194 1087.32,-190.5 1077.32,-187 1077.32,-194"/>
</g>
<!-- Node13 -->
<g id="node13" class="node">
<title>Node13</title>
<g id="a_node13"><a xlink:href="classdenoptim_1_1gui_1_1_main_tool_bar.html#a1a2e06a2647032587d42155302b8c0a6" target="_top" xlink:title="Process a file that has a recognized file format and loads a suitable GUI card to visualize the file ...">
<polygon fill="white" stroke="black" points="620.5,-181 620.5,-200 787.5,-200 787.5,-181 620.5,-181"/>
<text text-anchor="middle" x="704" y="-188" font-family="Helvetica,sans-Serif" font-size="10.00">denoptim.gui.MainToolBar.openFile</text>
</a>
</g>
</g>
<!-- Node12&#45;&gt;Node13 -->
<g id="edge13" class="edge">
<title>Node12&#45;&gt;Node13</title>
<path fill="none" stroke="midnightblue" d="M845.64,-190.5C826.32,-190.5 806.38,-190.5 787.8,-190.5"/>
<polygon fill="midnightblue" stroke="midnightblue" points="845.67,-194 855.67,-190.5 845.67,-187 845.67,-194"/>
</g>
<!-- Node14 -->
<g id="node14" class="node">
<title>Node14</title>
<g id="a_node14"><a xlink:href="classdenoptim_1_1gui_1_1_main_tool_bar.html#a0df9ca063352fbc50f9476f3b2820926" target="_top" xlink:title="Initialize the contents of the tool bar.">
<polygon fill="white" stroke="black" points="167,-203 167,-222 332,-222 332,-203 167,-203"/>
<text text-anchor="middle" x="249.5" y="-210" font-family="Helvetica,sans-Serif" font-size="10.00">denoptim.gui.MainToolBar.initialize</text>
</a>
</g>
</g>
<!-- Node13&#45;&gt;Node14 -->
<g id="edge14" class="edge">
<title>Node13&#45;&gt;Node14</title>
<path fill="none" stroke="midnightblue" d="M648.99,-201.93C621.32,-207.21 587.02,-212.88 556,-215.5 472.74,-222.53 451.55,-216.57 368,-215.5 356.37,-215.35 344.09,-215.12 332.03,-214.85"/>
<polygon fill="midnightblue" stroke="midnightblue" points="649.72,-205.35 658.86,-200.01 648.38,-198.48 649.72,-205.35"/>
</g>
<!-- Node16 -->
<g id="node16" class="node">
<title>Node16</title>
<g id="a_node16"><a xlink:href="classdenoptim_1_1gui_1_1_g_u_i.html#a460fa99497f04de06d2adf8671a92441" target="_top" xlink:title="Launch the application.">
<polygon fill="white" stroke="black" points="408.5,-137 408.5,-156 515.5,-156 515.5,-137 408.5,-137"/>
<text text-anchor="middle" x="462" y="-144" font-family="Helvetica,sans-Serif" font-size="10.00">denoptim.gui.GUI.run</text>
</a>
</g>
</g>
<!-- Node13&#45;&gt;Node16 -->
<g id="edge16" class="edge">
<title>Node13&#45;&gt;Node16</title>
<path fill="none" stroke="midnightblue" d="M640.73,-179.08C601.67,-171.92 551.91,-162.8 514.97,-156.03"/>
<polygon fill="midnightblue" stroke="midnightblue" points="640.46,-182.59 650.92,-180.95 641.72,-175.71 640.46,-182.59"/>
</g>
<!-- Node17 -->
<g id="node17" class="node">
<title>Node17</title>
<g id="a_node17"><a xlink:href="classdenoptim_1_1gui_1_1_main_tool_bar.html#a94df24e485081c9b9d7441387f409e26" target="_top" xlink:title="Updated the the list of recent files in the &quot;open Recent&quot; menu.">
<polygon fill="white" stroke="black" points="382,-175.5 382,-205.5 542,-205.5 542,-175.5 382,-175.5"/>
<text text-anchor="start" x="390" y="-193.5" font-family="Helvetica,sans-Serif" font-size="10.00">denoptim.gui.MainToolBar.update</text>
<text text-anchor="middle" x="462" y="-182.5" font-family="Helvetica,sans-Serif" font-size="10.00">OpenRecentMenu</text>
</a>
</g>
</g>
<!-- Node13&#45;&gt;Node17 -->
<g id="edge17" class="edge">
<title>Node13&#45;&gt;Node17</title>
<path fill="none" stroke="midnightblue" d="M610.18,-190.5C587.7,-190.5 563.88,-190.5 542.1,-190.5"/>
<polygon fill="midnightblue" stroke="midnightblue" points="610.41,-194 620.41,-190.5 610.41,-187 610.41,-194"/>
</g>
<!-- Node15 -->
<g id="node15" class="node">
<title>Node15</title>
<g id="a_node15"><a xlink:href="classdenoptim_1_1gui_1_1_main_tool_bar.html#a36f4409849998e032342f49b19e6c5b5" target="_top" xlink:title="Constructor that build the tool bar.">
<polygon fill="white" stroke="black" points="0,-197.5 0,-227.5 131,-227.5 131,-197.5 0,-197.5"/>
<text text-anchor="start" x="8" y="-215.5" font-family="Helvetica,sans-Serif" font-size="10.00">denoptim.gui.MainToolBar.</text>
<text text-anchor="middle" x="65.5" y="-204.5" font-family="Helvetica,sans-Serif" font-size="10.00">MainToolBar</text>
</a>
</g>
</g>
<!-- Node14&#45;&gt;Node15 -->
<g id="edge15" class="edge">
<title>Node14&#45;&gt;Node15</title>
<path fill="none" stroke="midnightblue" d="M156.66,-212.5C147.99,-212.5 139.34,-212.5 131,-212.5"/>
<polygon fill="midnightblue" stroke="midnightblue" points="156.82,-216 166.82,-212.5 156.82,-209 156.82,-216"/>
</g>
<!-- Node17&#45;&gt;Node14 -->
<g id="edge18" class="edge">
<title>Node17&#45;&gt;Node14</title>
<path fill="none" stroke="midnightblue" d="M371.75,-199.83C358.62,-201.2 345.14,-202.61 332.16,-203.97"/>
<polygon fill="midnightblue" stroke="midnightblue" points="372.14,-203.31 381.72,-198.79 371.41,-196.34 372.14,-203.31"/>
</g>
<!-- Node18&#45;&gt;Node7 -->
<g id="edge21" class="edge">
<title>Node18&#45;&gt;Node7</title>
<path fill="none" stroke="midnightblue" d="M1100.37,-320.28C1065.37,-312.81 1025.7,-304.34 996.13,-298.03"/>
<polygon fill="midnightblue" stroke="midnightblue" points="1100.07,-323.8 1110.58,-322.47 1101.53,-316.95 1100.07,-323.8"/>
</g>
<!-- Node19&#45;&gt;Node7 -->
<g id="edge23" class="edge">
<title>Node19&#45;&gt;Node7</title>
<path fill="none" stroke="midnightblue" d="M1080.07,-288.5C1069.79,-288.5 1059.35,-288.5 1049.1,-288.5"/>
<polygon fill="midnightblue" stroke="midnightblue" points="1080.3,-292 1090.3,-288.5 1080.3,-285 1080.3,-292"/>
</g>
<!-- Node22 -->
<g id="node22" class="node">
<title>Node22</title>
<g id="a_node22"><a xlink:href="classdenoptim_1_1gui_1_1_g_u_i_vertex_selector.html#a9a6057c6f67098a32bd84f4f7bffe4a8" target="_top" xlink:title="Loads the vertices corresponding to the field index.">
<polygon fill="white" stroke="black" points="1321.5,-126.5 1321.5,-156.5 1497.5,-156.5 1497.5,-126.5 1321.5,-126.5"/>
<text text-anchor="start" x="1329.5" y="-144.5" font-family="Helvetica,sans-Serif" font-size="10.00">denoptim.gui.GUIVertexSelector.load</text>
<text text-anchor="middle" x="1409.5" y="-133.5" font-family="Helvetica,sans-Serif" font-size="10.00">CurrentVrtxIdxToViewer</text>
</a>
</g>
</g>
<!-- Node21&#45;&gt;Node22 -->
<g id="edge27" class="edge">
<title>Node21&#45;&gt;Node22</title>
<path fill="none" stroke="midnightblue" d="M1582.86,-209.66C1542.7,-193.78 1485.99,-171.35 1448.75,-156.63"/>
<polygon fill="midnightblue" stroke="midnightblue" points="1581.59,-212.92 1592.18,-213.35 1584.17,-206.41 1581.59,-212.92"/>
</g>
<!-- Node23 -->
<g id="node23" class="node">
<title>Node23</title>
<g id="a_node23"><a xlink:href="classdenoptim_1_1gui_1_1_g_u_i_vertex_selector.html#a15c6a5de34e54f74d33c7c82f2a3125d" target="_top" xlink:title="Load the list of vertexes to choose from.">
<polygon fill="white" stroke="black" points="1094,-50 1094,-69 1270,-69 1270,-50 1094,-50"/>
<text text-anchor="middle" x="1182" y="-57" font-family="Helvetica,sans-Serif" font-size="10.00">denoptim.gui.GUIVertexSelector.load</text>
</a>
</g>
</g>
<!-- Node22&#45;&gt;Node23 -->
<g id="edge28" class="edge">
<title>Node22&#45;&gt;Node23</title>
<path fill="none" stroke="midnightblue" d="M1357.63,-123C1311.57,-106.25 1245.54,-82.24 1209.3,-69.06"/>
<polygon fill="midnightblue" stroke="midnightblue" points="1356.55,-126.33 1367.14,-126.46 1358.94,-119.75 1356.55,-126.33"/>
</g>
<!-- Node29 -->
<g id="node29" class="node">
<title>Node29</title>
<g id="a_node29"><a xlink:href="classdenoptim_1_1gui_1_1_g_u_i_vertex_selector_1_1_vrtx_spinner_change_event.html#aa4094444bbbf29fde85df9440ab5c0e7" target="_top" xlink:title=" ">
<polygon fill="white" stroke="black" points="1088.5,-126.5 1088.5,-156.5 1275.5,-156.5 1275.5,-126.5 1088.5,-126.5"/>
<text text-anchor="start" x="1096.5" y="-144.5" font-family="Helvetica,sans-Serif" font-size="10.00">denoptim.gui.GUIVertexSelector.</text>
<text text-anchor="middle" x="1182" y="-133.5" font-family="Helvetica,sans-Serif" font-size="10.00">VrtxSpinnerChangeEvent.stateChanged</text>
</a>
</g>
</g>
<!-- Node22&#45;&gt;Node29 -->
<g id="edge38" class="edge">
<title>Node22&#45;&gt;Node29</title>
<path fill="none" stroke="midnightblue" d="M1311.04,-141.5C1299.26,-141.5 1287.26,-141.5 1275.55,-141.5"/>
<polygon fill="midnightblue" stroke="midnightblue" points="1311.32,-145 1321.32,-141.5 1311.32,-138 1311.32,-145"/>
</g>
<!-- Node23&#45;&gt;Node7 -->
<g id="edge36" class="edge">
<title>Node23&#45;&gt;Node7</title>
<path fill="none" stroke="midnightblue" d="M1098.37,-73.51C1093.51,-76.29 1088.99,-79.59 1085,-83.5 1041.55,-126.04 1083.19,-165.22 1049,-215.5 1029.02,-244.88 993.28,-267.13 971.06,-278.97"/>
<polygon fill="midnightblue" stroke="midnightblue" points="1100.02,-76.6 1107.43,-69.03 1096.92,-70.32 1100.02,-76.6"/>
</g>
<!-- Node24 -->
<g id="node24" class="node">
<title>Node24</title>
<g id="a_node24"><a xlink:href="classdenoptim_1_1gui_1_1_g_u_i_graph_handler.html#af7024886a4203aa93d8cf7975f7c2e72" target="_top" xlink:title=" ">
<polygon fill="white" stroke="black" points="860,-44.5 860,-74.5 1041,-74.5 1041,-44.5 860,-44.5"/>
<text text-anchor="start" x="868" y="-62.5" font-family="Helvetica,sans-Serif" font-size="10.00">denoptim.gui.GUIGraphHandler.create</text>
<text text-anchor="middle" x="950.5" y="-51.5" font-family="Helvetica,sans-Serif" font-size="10.00">EmptyVertexAndPlaceItInGraph</text>
</a>
</g>
</g>
<!-- Node23&#45;&gt;Node24 -->
<g id="edge29" class="edge">
<title>Node23&#45;&gt;Node24</title>
<path fill="none" stroke="midnightblue" d="M1083.72,-59.5C1069.61,-59.5 1055.15,-59.5 1041.2,-59.5"/>
<polygon fill="midnightblue" stroke="midnightblue" points="1083.91,-63 1093.91,-59.5 1083.91,-56 1083.91,-63"/>
</g>
<!-- Node27 -->
<g id="node27" class="node">
<title>Node27</title>
<g id="a_node27"><a xlink:href="classdenoptim_1_1gui_1_1_g_u_i_graph_handler.html#a857bfe6291322daccf2af3fd9a28a356" target="_top" xlink:title="Start the construction of a new graph from scratch.">
<polygon fill="white" stroke="black" points="592,-88.5 592,-118.5 816,-118.5 816,-88.5 592,-88.5"/>
<text text-anchor="start" x="600" y="-106.5" font-family="Helvetica,sans-Serif" font-size="10.00">denoptim.gui.GUIGraphHandler.start</text>
<text text-anchor="middle" x="704" y="-95.5" font-family="Helvetica,sans-Serif" font-size="10.00">GraphFromFragSpaceOrCreationOfEmptyVertex</text>
</a>
</g>
</g>
<!-- Node23&#45;&gt;Node27 -->
<g id="edge37" class="edge">
<title>Node23&#45;&gt;Node27</title>
<path fill="none" stroke="midnightblue" d="M1126.44,-70.96C1102.74,-75.54 1074.6,-80.44 1049,-83.5 971.48,-92.77 883.6,-97.78 816.07,-100.47"/>
<polygon fill="midnightblue" stroke="midnightblue" points="1127.16,-74.39 1136.3,-69.03 1125.81,-67.52 1127.16,-74.39"/>
</g>
<!-- Node28 -->
<g id="node28" class="node">
<title>Node28</title>
<g id="a_node28"><a xlink:href="classdenoptim_1_1gui_1_1_g_u_i_graph_handler.html#a44e2ff798d22b73f966cb8393ceb4f18" target="_top" xlink:title="Extends the current graph by appending a node to a specific free AP on the growing graph.">
<polygon fill="white" stroke="black" points="613,-0.5 613,-30.5 795,-30.5 795,-0.5 613,-0.5"/>
<text text-anchor="start" x="621" y="-18.5" font-family="Helvetica,sans-Serif" font-size="10.00">denoptim.gui.GUIGraphHandler.extend</text>
<text text-anchor="middle" x="704" y="-7.5" font-family="Helvetica,sans-Serif" font-size="10.00">GraphFromFragSpace</text>
</a>
</g>
</g>
<!-- Node23&#45;&gt;Node28 -->
<g id="edge34" class="edge">
<title>Node23&#45;&gt;Node28</title>
<path fill="none" stroke="midnightblue" d="M1128.42,-47.89C1104.33,-43 1075.34,-37.71 1049,-34.5 963.2,-24.05 864.66,-19.35 795.1,-17.23"/>
<polygon fill="midnightblue" stroke="midnightblue" points="1127.92,-51.36 1138.42,-49.96 1129.34,-44.51 1127.92,-51.36"/>
</g>
<!-- Node25 -->
<g id="node25" class="node">
<title>Node25</title>
<g id="a_node25"><a xlink:href="classdenoptim_1_1gui_1_1_g_u_i_graph_handler.html#af5b000c105018cbd7c262b34f9750044" target="_top" xlink:title="Initialize the panel and add buttons.">
<polygon fill="white" stroke="black" points="368,-50 368,-69 556,-69 556,-50 368,-50"/>
<text text-anchor="middle" x="462" y="-57" font-family="Helvetica,sans-Serif" font-size="10.00">denoptim.gui.GUIGraphHandler.initialize</text>
</a>
</g>
</g>
<!-- Node24&#45;&gt;Node25 -->
<g id="edge30" class="edge">
<title>Node24&#45;&gt;Node25</title>
<path fill="none" stroke="midnightblue" d="M849.94,-59.5C763.83,-59.5 640.28,-59.5 556.11,-59.5"/>
<polygon fill="midnightblue" stroke="midnightblue" points="849.99,-63 859.99,-59.5 849.99,-56 849.99,-63"/>
</g>
<!-- Node24&#45;&gt;Node27 -->
<g id="edge32" class="edge">
<title>Node24&#45;&gt;Node27</title>
<path fill="none" stroke="midnightblue" d="M855.95,-76.34C833.75,-80.33 810.21,-84.57 788.5,-88.47"/>
<polygon fill="midnightblue" stroke="midnightblue" points="856.82,-79.74 866.04,-74.52 855.58,-72.85 856.82,-79.74"/>
</g>
<!-- Node26 -->
<g id="node26" class="node">
<title>Node26</title>
<g id="a_node26"><a xlink:href="classdenoptim_1_1gui_1_1_g_u_i_graph_handler.html#ab7d010d9a384f6b85edce47c95d6723b" target="_top" xlink:title="Constructor.">
<polygon fill="white" stroke="black" points="172.5,-44.5 172.5,-74.5 326.5,-74.5 326.5,-44.5 172.5,-44.5"/>
<text text-anchor="start" x="180.5" y="-62.5" font-family="Helvetica,sans-Serif" font-size="10.00">denoptim.gui.GUIGraphHandler.</text>
<text text-anchor="middle" x="249.5" y="-51.5" font-family="Helvetica,sans-Serif" font-size="10.00">GUIGraphHandler</text>
</a>
</g>
</g>
<!-- Node25&#45;&gt;Node26 -->
<g id="edge31" class="edge">
<title>Node25&#45;&gt;Node26</title>
<path fill="none" stroke="midnightblue" d="M357.73,-59.5C347.25,-59.5 336.75,-59.5 326.64,-59.5"/>
<polygon fill="midnightblue" stroke="midnightblue" points="357.75,-63 367.75,-59.5 357.75,-56 357.75,-63"/>
</g>
<!-- Node27&#45;&gt;Node25 -->
<g id="edge33" class="edge">
<title>Node27&#45;&gt;Node25</title>
<path fill="none" stroke="midnightblue" d="M611.07,-86.65C578.48,-80.67 542.96,-74.16 514.89,-69.01"/>
<polygon fill="midnightblue" stroke="midnightblue" points="610.61,-90.12 621.08,-88.48 611.87,-83.23 610.61,-90.12"/>
</g>
<!-- Node28&#45;&gt;Node25 -->
<g id="edge35" class="edge">
<title>Node28&#45;&gt;Node25</title>
<path fill="none" stroke="midnightblue" d="M611.07,-32.35C578.48,-38.33 542.96,-44.84 514.89,-49.99"/>
<polygon fill="midnightblue" stroke="midnightblue" points="611.87,-35.77 621.08,-30.52 610.61,-28.88 611.87,-35.77"/>
</g>
<!-- Node31 -->
<g id="node31" class="node">
<title>Node31</title>
<g id="a_node31"><a xlink:href="classdenoptim_1_1gui_1_1_vertex_view_panel.html#af961ff72b42d1852cd21fc95a238a294" target="_top" xlink:title="Loads the given empty vertex to this viewer.">
<polygon fill="white" stroke="black" points="1966,-172.5 1966,-202.5 2134,-202.5 2134,-172.5 1966,-172.5"/>
<text text-anchor="start" x="1974" y="-190.5" font-family="Helvetica,sans-Serif" font-size="10.00">denoptim.gui.VertexViewPanel.load</text>
<text text-anchor="middle" x="2050" y="-179.5" font-family="Helvetica,sans-Serif" font-size="10.00">EmptyVertexToViewer</text>
</a>
</g>
</g>
<!-- Node30&#45;&gt;Node31 -->
<g id="edge40" class="edge">
<title>Node30&#45;&gt;Node31</title>
<path fill="none" stroke="midnightblue" d="M2175.52,-156.05C2154.21,-161.43 2130.98,-167.3 2110.41,-172.49"/>
<polygon fill="midnightblue" stroke="midnightblue" points="2176.64,-159.38 2185.48,-153.53 2174.92,-152.59 2176.64,-159.38"/>
</g>
<!-- Node33 -->
<g id="node33" class="node">
<title>Node33</title>
<g id="a_node33"><a xlink:href="classdenoptim_1_1gui_1_1_vertex_view_panel.html#a5de255e134fc5c4eea74c6b653ddb913" target="_top" xlink:title="Loads the given fragments to this viewer.">
<polygon fill="white" stroke="black" points="1966,-123.5 1966,-153.5 2134,-153.5 2134,-123.5 1966,-123.5"/>
<text text-anchor="start" x="1974" y="-141.5" font-family="Helvetica,sans-Serif" font-size="10.00">denoptim.gui.VertexViewPanel.load</text>
<text text-anchor="middle" x="2050" y="-130.5" font-family="Helvetica,sans-Serif" font-size="10.00">FragmentToViewer</text>
</a>
</g>
</g>
<!-- Node30&#45;&gt;Node33 -->
<g id="edge45" class="edge">
<title>Node30&#45;&gt;Node33</title>
<path fill="none" stroke="midnightblue" d="M2159.73,-138.5C2151.25,-138.5 2142.64,-138.5 2134.19,-138.5"/>
<polygon fill="midnightblue" stroke="midnightblue" points="2159.99,-142 2169.99,-138.5 2159.99,-135 2159.99,-142"/>
</g>
<!-- Node34 -->
<g id="node34" class="node">
<title>Node34</title>
<g id="a_node34"><a xlink:href="classdenoptim_1_1gui_1_1_vertex_view_panel.html#a23695fc49f5ff660a828bddbf74a5006" target="_top" xlink:title="Loads the given template to this viewer.">
<polygon fill="white" stroke="black" points="1760.5,-82.5 1760.5,-112.5 1928.5,-112.5 1928.5,-82.5 1760.5,-82.5"/>
<text text-anchor="start" x="1768.5" y="-100.5" font-family="Helvetica,sans-Serif" font-size="10.00">denoptim.gui.VertexViewPanel.load</text>
<text text-anchor="middle" x="1844.5" y="-89.5" font-family="Helvetica,sans-Serif" font-size="10.00">TemplateToViewer</text>
</a>
</g>
</g>
<!-- Node30&#45;&gt;Node34 -->
<g id="edge49" class="edge">
<title>Node30&#45;&gt;Node34</title>
<path fill="none" stroke="midnightblue" d="M2176.77,-121.26C2162.7,-118.24 2147.93,-115.44 2134,-113.5 2065.19,-103.91 1986.39,-100.01 1928.55,-98.46"/>
<polygon fill="midnightblue" stroke="midnightblue" points="2176.34,-124.75 2186.86,-123.5 2177.86,-117.92 2176.34,-124.75"/>
</g>
<!-- Node32 -->
<g id="node32" class="node">
<title>Node32</title>
<g id="a_node32"><a xlink:href="classdenoptim_1_1gui_1_1_vertex_view_panel.html#a697ecc5ef3352a5860a6a6a355d87d1b" target="_top" xlink:title="Loads the given vertex to this viewer.">
<polygon fill="white" stroke="black" points="1547.5,-126.5 1547.5,-156.5 1715.5,-156.5 1715.5,-126.5 1547.5,-126.5"/>
<text text-anchor="start" x="1555.5" y="-144.5" font-family="Helvetica,sans-Serif" font-size="10.00">denoptim.gui.VertexViewPanel.load</text>
<text text-anchor="middle" x="1631.5" y="-133.5" font-family="Helvetica,sans-Serif" font-size="10.00">VertexToViewer</text>
</a>
</g>
</g>
<!-- Node31&#45;&gt;Node32 -->
<g id="edge41" class="edge">
<title>Node31&#45;&gt;Node32</title>
<path fill="none" stroke="midnightblue" d="M1955.74,-177.2C1883.72,-169.25 1784.98,-158.34 1715.64,-150.68"/>
<polygon fill="midnightblue" stroke="midnightblue" points="1955.39,-180.68 1965.72,-178.3 1956.16,-173.73 1955.39,-180.68"/>
</g>
<!-- Node32&#45;&gt;Node7 -->
<g id="edge42" class="edge">
<title>Node32&#45;&gt;Node7</title>
<path fill="none" stroke="midnightblue" d="M1557.11,-124.48C1539.79,-121.17 1521.32,-118.2 1504,-116.5 1411.33,-107.43 1161.26,-63.08 1085,-116.5 1046.65,-143.36 1076.9,-177.9 1049,-215.5 1027.7,-244.2 992.03,-266.82 970.25,-278.88"/>
<polygon fill="midnightblue" stroke="midnightblue" points="1556.67,-127.96 1567.16,-126.47 1558.02,-121.1 1556.67,-127.96"/>
</g>
<!-- Node32&#45;&gt;Node10 -->
<g id="edge43" class="edge">
<title>Node32&#45;&gt;Node10</title>
<path fill="none" stroke="midnightblue" d="M1593.76,-161.38C1550.02,-185.03 1477.95,-224.02 1438.48,-245.36"/>
<polygon fill="midnightblue" stroke="midnightblue" points="1595.51,-164.41 1602.64,-156.57 1592.18,-158.25 1595.51,-164.41"/>
</g>
<!-- Node32&#45;&gt;Node22 -->
<g id="edge44" class="edge">
<title>Node32&#45;&gt;Node22</title>
<path fill="none" stroke="midnightblue" d="M1536.99,-141.5C1524,-141.5 1510.69,-141.5 1497.82,-141.5"/>
<polygon fill="midnightblue" stroke="midnightblue" points="1537.33,-145 1547.33,-141.5 1537.33,-138 1537.33,-145"/>
</g>
<!-- Node33&#45;&gt;Node32 -->
<g id="edge48" class="edge">
<title>Node33&#45;&gt;Node32</title>
<path fill="none" stroke="midnightblue" d="M1955.3,-139.17C1883.32,-139.69 1784.84,-140.4 1715.64,-140.9"/>
<polygon fill="midnightblue" stroke="midnightblue" points="1955.74,-142.67 1965.72,-139.1 1955.69,-135.67 1955.74,-142.67"/>
</g>
<!-- Node33&#45;&gt;Node34 -->
<g id="edge46" class="edge">
<title>Node33&#45;&gt;Node34</title>
<path fill="none" stroke="midnightblue" d="M1964.32,-121.44C1949.65,-118.48 1934.49,-115.43 1920.11,-112.53"/>
<polygon fill="midnightblue" stroke="midnightblue" points="1963.89,-124.92 1974.38,-123.47 1965.27,-118.06 1963.89,-124.92"/>
</g>
<!-- Node34&#45;&gt;Node32 -->
<g id="edge47" class="edge">
<title>Node34&#45;&gt;Node32</title>
<path fill="none" stroke="midnightblue" d="M1761.47,-114.61C1742.69,-118.52 1722.88,-122.65 1704.56,-126.47"/>
<polygon fill="midnightblue" stroke="midnightblue" points="1762.4,-117.99 1771.48,-112.52 1760.97,-111.13 1762.4,-117.99"/>
</g>
<!-- Node35&#45;&gt;Node30 -->
<g id="edge51" class="edge">
<title>Node35&#45;&gt;Node30</title>
<path fill="none" stroke="midnightblue" d="M2347.8,-138.5C2339.2,-138.5 2330.56,-138.5 2322.16,-138.5"/>
<polygon fill="midnightblue" stroke="midnightblue" points="2347.88,-142 2357.88,-138.5 2347.88,-135 2347.88,-142"/>
</g>
<!-- Node36&#45;&gt;Node30 -->
<g id="edge53" class="edge">
<title>Node36&#45;&gt;Node30</title>
<path fill="none" stroke="midnightblue" d="M2556.68,-96.69C2500.88,-99.02 2424.58,-103.79 2358,-113.5 2340.99,-115.98 2322.73,-119.66 2306.02,-123.44"/>
<polygon fill="midnightblue" stroke="midnightblue" points="2557,-100.18 2566.85,-96.28 2556.72,-93.19 2557,-100.18"/>
</g>
</g>
</svg>
        <g id="navigator" transform="translate(0 0)" fill="#404254">
                <rect fill="#f2f5e9" fill-opacity="0.5" stroke="#606060" stroke-width=".5" x="0" y="0" width="60" height="60"/>
                <use id="zoomplus" xlink:href="#zoomPlus" x="17" y="9" onmousedown="handleZoom(evt,'in')"/>
                <use id="zoomminus" xlink:href="#zoomMin" x="42" y="9" onmousedown="handleZoom(evt,'out')"/>
                <use id="reset" xlink:href="#resetDef" x="30" y="36" onmousedown="handleReset()"/>
                <g id="arrowUp" xlink:href="#dirArrow" transform="translate(30 24)" onmousedown="handlePan(0,-1)">
                  <use xlink:href="#rim" fill="#404040">
                        <set attributeName="fill" to="#808080" begin="arrowUp.mouseover" end="arrowUp.mouseout"/>
                  </use>
                  <path fill="none" stroke="white" stroke-width="1.5" d="M0,-3.0v7 M-2.5,-0.5L0,-3.0L2.5,-0.5"/>
                </g>
                <g id="arrowRight" xlink:href="#dirArrow" transform="rotate(90) translate(36 -43)" onmousedown="handlePan(1,0)">
                  <use xlink:href="#rim" fill="#404040">
                        <set attributeName="fill" to="#808080" begin="arrowRight.mouseover" end="arrowRight.mouseout"/>
                  </use>
                  <path fill="none" stroke="white" stroke-width="1.5" d="M0,-3.0v7 M-2.5,-0.5L0,-3.0L2.5,-0.5"/>
                </g>
                <g id="arrowDown" xlink:href="#dirArrow" transform="rotate(180) translate(-30 -48)" onmousedown="handlePan(0,1)">
                  <use xlink:href="#rim" fill="#404040">
                        <set attributeName="fill" to="#808080" begin="arrowDown.mouseover" end="arrowDown.mouseout"/>
                  </use>
                  <path fill="none" stroke="white" stroke-width="1.5" d="M0,-3.0v7 M-2.5,-0.5L0,-3.0L2.5,-0.5"/>
                </g>
                <g id="arrowLeft" xlink:href="#dirArrow" transform="rotate(270) translate(-36 17)" onmousedown="handlePan(-1,0)">
                  <use xlink:href="#rim" fill="#404040">
                        <set attributeName="fill" to="#808080" begin="arrowLeft.mouseover" end="arrowLeft.mouseout"/>
                  </use>
                  <path fill="none" stroke="white" stroke-width="1.5" d="M0,-3.0v7 M-2.5,-0.5L0,-3.0L2.5,-0.5"/>
                </g>
        </g>
        <svg viewBox="0 0 15 15" width="100%" height="30px" preserveAspectRatio="xMaxYMin meet">
         <g id="arrow_out" transform="scale(0.3 0.3)">
          <a xlink:href="classdenoptim_1_1gui_1_1_vertex_as_graph_view_panel_a87f08fd10d2e9ce079c42619f52317e3_icgraph_org.svg" target="_base">
           <rect id="button" ry="5" rx="5" y="6" x="6" height="38" width="38"
                fill="#f2f5e9" fill-opacity="0.5" stroke="#606060" stroke-width="1.0"/>
           <path id="arrow"
             d="M 11.500037,31.436501 C 11.940474,20.09759 22.043105,11.32322 32.158766,21.979434 L 37.068811,17.246167 C 37.068811,17.246167 37.088388,32 37.088388,32 L 22.160133,31.978069 C 22.160133,31.978069 26.997745,27.140456 26.997745,27.140456 C 18.528582,18.264221 13.291696,25.230495 11.500037,31.436501 z"
             style="fill:#404040;"/>
          </a>
         </g>
        </svg>
</svg>
