<?xml version="1.0" encoding="UTF-8" standalone="no"?>
<!DOCTYPE svg PUBLIC "-//W3C//DTD SVG 1.1//EN"
 "http://www.w3.org/Graphics/SVG/1.1/DTD/svg11.dtd">
<!-- Generated by graphviz version 3.0.0 (20221109.1736)
 -->
<!-- Title: denoptim.utils.MathUtils.centroidOf Pages: 1 -->
<!--zoomable 255 -->
<svg id="main" version="1.1" xmlns="http://www.w3.org/2000/svg" xmlns:xlink="http://www.w3.org/1999/xlink" xml:space="preserve" onload="init(evt)">
<style type="text/css"><![CDATA[
.edge:hover path { stroke: red; }
.edge:hover polygon { stroke: red; fill: red; }
]]></style>
<script type="text/javascript"><![CDATA[
var edges = document.getElementsByTagName('g');
if (edges && edges.length) {
  for (var i=0;i<edges.length;i++) {
    if (edges[i].id.substr(0,4)=='edge') {
      edges[i].setAttribute('class','edge');
    }
  }
}
]]></script>
        <defs>
                <circle id="rim" cx="0" cy="0" r="7"/>
                <circle id="rim2" cx="0" cy="0" r="3.5"/>
                <g id="zoomPlus">
                        <use xlink:href="#rim" fill="#404040">
                                <set attributeName="fill" to="#808080" begin="zoomplus.mouseover" end="zoomplus.mouseout"/>
                        </use>
                        <path d="M-4,0h8M0,-4v8" fill="none" stroke="white" stroke-width="1.5" pointer-events="none"/>
                </g>
                <g id="zoomMin">
                        <use xlink:href="#rim" fill="#404040">
                                <set attributeName="fill" to="#808080" begin="zoomminus.mouseover" end="zoomminus.mouseout"/>
                        </use>
                        <path d="M-4,0h8" fill="none" stroke="white" stroke-width="1.5" pointer-events="none"/>
                </g>
                <g id="dirArrow">
                        <path fill="none" stroke="white" stroke-width="1.5" d="M0,-3.0v7 M-2.5,-0.5L0,-3.0L2.5,-0.5"/>
                </g>
               <g id="resetDef">
                       <use xlink:href="#rim2" fill="#404040">
                               <set attributeName="fill" to="#808080" begin="reset.mouseover" end="reset.mouseout"/>
                       </use>
               </g>
        </defs>

<script type="text/javascript">
var viewWidth = 1443;
var viewHeight = 255;
var sectionId = 'dynsection-5';
</script>
<script xlink:href="svgpan.js"/>
<svg id="graph" class="graph">
<g id="viewport">
<title>denoptim.utils.MathUtils.centroidOf</title>
<polygon fill="white" stroke="transparent" points="-4,4 -4,-250.5 1439,-250.5 1439,4 -4,4"/>
<!-- Node1 -->
<g id="node1" class="node">
<title>Node1</title>
<g id="a_node1"><a xlink:title=" ">
<polygon fill="#bfbfbf" stroke="black" points="1267,-142 1267,-161 1435,-161 1435,-142 1267,-142"/>
<text text-anchor="middle" x="1351" y="-149" font-family="Helvetica,sans-Serif" font-size="10.00">denoptim.utils.MathUtils.centroidOf</text>
</a>
</g>
</g>
<!-- Node2 -->
<g id="node2" class="node">
<title>Node2</title>
<g id="a_node2"><a xlink:href="classdenoptim_1_1fragmenter_1_1_dynamic_centroid_cluster.html#a02ff66aa7ed756b8272fd82694e01293" target="_top" xlink:title="Get the point chosen to be the centroid of this cluster.">
<polygon fill="white" stroke="black" points="1055,-161.5 1055,-191.5 1200,-191.5 1200,-161.5 1055,-161.5"/>
<text text-anchor="start" x="1063" y="-179.5" font-family="Helvetica,sans-Serif" font-size="10.00">denoptim.fragmenter.Dynamic</text>
<text text-anchor="middle" x="1127.5" y="-168.5" font-family="Helvetica,sans-Serif" font-size="10.00">CentroidCluster.getCentroid</text>
</a>
</g>
</g>
<!-- Node1&#45;&gt;Node2 -->
<g id="edge1" class="edge">
<title>Node1&#45;&gt;Node2</title>
<path fill="none" stroke="midnightblue" d="M1256.75,-162.02C1237.8,-164.16 1218.15,-166.38 1200.09,-168.42"/>
<polygon fill="midnightblue" stroke="midnightblue" points="1257.35,-165.48 1266.89,-160.88 1256.56,-158.52 1257.35,-165.48"/>
</g>
<!-- Node15 -->
<g id="node15" class="node">
<title>Node15</title>
<g id="a_node15"><a xlink:href="classdenoptim_1_1fragmenter_1_1_fragment_clusterer.html#a35f0f15849987cecbc1102cf0b38398d" target="_top" xlink:title="Computes statistics for a unimodal, normally noise&#45;distorted population of points generated by distor...">
<polygon fill="white" stroke="black" points="1024,-112.5 1024,-142.5 1231,-142.5 1231,-112.5 1024,-112.5"/>
<text text-anchor="start" x="1032" y="-130.5" font-family="Helvetica,sans-Serif" font-size="10.00">denoptim.fragmenter.Fragment</text>
<text text-anchor="middle" x="1127.5" y="-119.5" font-family="Helvetica,sans-Serif" font-size="10.00">Clusterer.getRMSDStatsOfNoisyDistorsions</text>
</a>
</g>
</g>
<!-- Node1&#45;&gt;Node15 -->
<g id="edge20" class="edge">
<title>Node1&#45;&gt;Node15</title>
<path fill="none" stroke="midnightblue" d="M1256.68,-141.39C1248.25,-140.47 1239.67,-139.55 1231.16,-138.62"/>
<polygon fill="midnightblue" stroke="midnightblue" points="1256.57,-144.9 1266.89,-142.5 1257.33,-137.94 1256.57,-144.9"/>
</g>
<!-- Node3 -->
<g id="node3" class="node">
<title>Node3</title>
<g id="a_node3"><a xlink:href="classdenoptim_1_1fragmenter_1_1_dynamic_centroid_cluster.html#a3c880a07fe0dc88b2efbd1c97205acab" target="_top" xlink:title="Gets the original data that upon clustering is closest to the cluster centroid according to the given...">
<polygon fill="white" stroke="black" points="807,-210.5 807,-240.5 988,-240.5 988,-210.5 807,-210.5"/>
<text text-anchor="start" x="815" y="-228.5" font-family="Helvetica,sans-Serif" font-size="10.00">denoptim.fragmenter.Dynamic</text>
<text text-anchor="middle" x="897.5" y="-217.5" font-family="Helvetica,sans-Serif" font-size="10.00">CentroidCluster.getNearestToCentroid</text>
</a>
</g>
</g>
<!-- Node2&#45;&gt;Node3 -->
<g id="edge2" class="edge">
<title>Node2&#45;&gt;Node3</title>
<path fill="none" stroke="midnightblue" d="M1046.54,-193.69C1021.04,-199.16 993.04,-205.18 968.32,-210.49"/>
<polygon fill="midnightblue" stroke="midnightblue" points="1047.5,-197.06 1056.54,-191.53 1046.03,-190.21 1047.5,-197.06"/>
</g>
<!-- Node5 -->
<g id="node5" class="node">
<title>Node5</title>
<g id="a_node5"><a xlink:href="classdenoptim_1_1fragmenter_1_1_fragment_clusterer.html#a726885b85d9bce4b147f273a1f9e92f4" target="_top" xlink:title=" ">
<polygon fill="white" stroke="black" points="823,-112.5 823,-142.5 972,-142.5 972,-112.5 823,-112.5"/>
<text text-anchor="start" x="831" y="-130.5" font-family="Helvetica,sans-Serif" font-size="10.00">denoptim.fragmenter.Fragment</text>
<text text-anchor="middle" x="897.5" y="-119.5" font-family="Helvetica,sans-Serif" font-size="10.00">Clusterer.mergeClusters</text>
</a>
</g>
</g>
<!-- Node2&#45;&gt;Node5 -->
<g id="edge4" class="edge">
<title>Node2&#45;&gt;Node5</title>
<path fill="none" stroke="midnightblue" d="M1046.54,-159.31C1021.04,-153.84 993.04,-147.82 968.32,-142.51"/>
<polygon fill="midnightblue" stroke="midnightblue" points="1046.03,-162.79 1056.54,-161.47 1047.5,-155.94 1046.03,-162.79"/>
</g>
<!-- Node14 -->
<g id="node14" class="node">
<title>Node14</title>
<g id="a_node14"><a xlink:href="classdenoptim_1_1fragmenter_1_1_dynamic_centroid_cluster_test.html#aafed3e3048038cfe0a17feeb5d728a13" target="_top" xlink:title=" ">
<polygon fill="white" stroke="black" points="811,-161.5 811,-191.5 984,-191.5 984,-161.5 811,-161.5"/>
<text text-anchor="start" x="819" y="-179.5" font-family="Helvetica,sans-Serif" font-size="10.00">denoptim.fragmenter.Dynamic</text>
<text text-anchor="middle" x="897.5" y="-168.5" font-family="Helvetica,sans-Serif" font-size="10.00">CentroidClusterTest.testGetCentroid</text>
</a>
</g>
</g>
<!-- Node2&#45;&gt;Node14 -->
<g id="edge19" class="edge">
<title>Node2&#45;&gt;Node14</title>
<path fill="none" stroke="midnightblue" d="M1044.83,-176.5C1025.13,-176.5 1004.03,-176.5 984.15,-176.5"/>
<polygon fill="midnightblue" stroke="midnightblue" points="1044.98,-180 1054.98,-176.5 1044.98,-173 1044.98,-180"/>
</g>
<!-- Node4 -->
<g id="node4" class="node">
<title>Node4</title>
<g id="a_node4"><a xlink:href="classdenoptim_1_1fragmenter_1_1_dynamic_centroid_cluster_test.html#a8e2fd50e0c8a9163b1a831baa3976935" target="_top" xlink:title=" ">
<polygon fill="white" stroke="black" points="599,-205 599,-246 771,-246 771,-205 599,-205"/>
<text text-anchor="start" x="607" y="-234" font-family="Helvetica,sans-Serif" font-size="10.00">denoptim.fragmenter.Dynamic</text>
<text text-anchor="start" x="607" y="-223" font-family="Helvetica,sans-Serif" font-size="10.00">CentroidClusterTest.testGetNearest</text>
<text text-anchor="middle" x="685" y="-212" font-family="Helvetica,sans-Serif" font-size="10.00">ToCentroid</text>
</a>
</g>
</g>
<!-- Node3&#45;&gt;Node4 -->
<g id="edge3" class="edge">
<title>Node3&#45;&gt;Node4</title>
<path fill="none" stroke="midnightblue" d="M796.87,-225.5C788.27,-225.5 779.62,-225.5 771.15,-225.5"/>
<polygon fill="midnightblue" stroke="midnightblue" points="796.92,-229 806.92,-225.5 796.92,-222 796.92,-229"/>
</g>
<!-- Node6 -->
<g id="node6" class="node">
<title>Node6</title>
<g id="a_node6"><a xlink:href="classdenoptim_1_1fragmenter_1_1_fragment_clusterer.html#a635a9135bdb762deafd03ff2913ca74c" target="_top" xlink:title="Runs the clustering algorithm:">
<polygon fill="white" stroke="black" points="610.5,-112.5 610.5,-142.5 759.5,-142.5 759.5,-112.5 610.5,-112.5"/>
<text text-anchor="start" x="618.5" y="-130.5" font-family="Helvetica,sans-Serif" font-size="10.00">denoptim.fragmenter.Fragment</text>
<text text-anchor="middle" x="685" y="-119.5" font-family="Helvetica,sans-Serif" font-size="10.00">Clusterer.cluster</text>
</a>
</g>
</g>
<!-- Node5&#45;&gt;Node6 -->
<g id="edge5" class="edge">
<title>Node5&#45;&gt;Node6</title>
<path fill="none" stroke="midnightblue" d="M812.66,-127.5C795.1,-127.5 776.72,-127.5 759.58,-127.5"/>
<polygon fill="midnightblue" stroke="midnightblue" points="812.88,-131 822.88,-127.5 812.88,-124 812.88,-131"/>
</g>
<!-- Node6&#45;&gt;Node6 -->
<g id="edge8" class="edge">
<title>Node6&#45;&gt;Node6</title>
<path fill="none" stroke="midnightblue" d="M722.67,-152.96C717.99,-157.68 705.44,-161 685,-161 651.46,-161 639.15,-152.06 648.05,-142.66"/>
<polygon fill="midnightblue" stroke="midnightblue" points="726.14,-152.39 721.95,-142.66 719.16,-152.88 726.14,-152.39"/>
</g>
<!-- Node7 -->
<g id="node7" class="node">
<title>Node7</title>
<g id="a_node7"><a xlink:href="classdenoptim_1_1fragmenter_1_1_conformer_extractor_task.html#aa21ebdf147f5bdb2685f9e775efd0b10" target="_top" xlink:title=" ">
<polygon fill="white" stroke="black" points="186,-161.5 186,-191.5 338,-191.5 338,-161.5 186,-161.5"/>
<text text-anchor="start" x="194" y="-179.5" font-family="Helvetica,sans-Serif" font-size="10.00">denoptim.fragmenter.Conformer</text>
<text text-anchor="middle" x="262" y="-168.5" font-family="Helvetica,sans-Serif" font-size="10.00">ExtractorTask.call</text>
</a>
</g>
</g>
<!-- Node6&#45;&gt;Node7 -->
<g id="edge6" class="edge">
<title>Node6&#45;&gt;Node7</title>
<path fill="none" stroke="midnightblue" d="M656.76,-149.06C640.03,-162.37 618.2,-179.83 599,-195.5 582.87,-208.67 582.58,-218.41 563,-225.5 484.02,-254.1 456.19,-242.83 374,-225.5 343.29,-219.02 310.72,-203.49 288.87,-191.63"/>
<polygon fill="midnightblue" stroke="midnightblue" points="659.35,-151.48 665.01,-142.52 655,-145.99 659.35,-151.48"/>
</g>
<!-- Node9 -->
<g id="node9" class="node">
<title>Node9</title>
<g id="a_node9"><a xlink:href="classdenoptim_1_1fragmenter_1_1_fragment_clusterer.html#a1845241fead0bee7fd92feaf6d71e331" target="_top" xlink:title="Once the clustering is done, this method return the list of cluster centroids.">
<polygon fill="white" stroke="black" points="394,-137.5 394,-167.5 543,-167.5 543,-137.5 394,-137.5"/>
<text text-anchor="start" x="402" y="-155.5" font-family="Helvetica,sans-Serif" font-size="10.00">denoptim.fragmenter.Fragment</text>
<text text-anchor="middle" x="468.5" y="-144.5" font-family="Helvetica,sans-Serif" font-size="10.00">Clusterer.getClusterCentroids</text>
</a>
</g>
</g>
<!-- Node6&#45;&gt;Node9 -->
<g id="edge9" class="edge">
<title>Node6&#45;&gt;Node9</title>
<path fill="none" stroke="midnightblue" d="M600.43,-137.24C581.58,-139.44 561.7,-141.75 543.29,-143.9"/>
<polygon fill="midnightblue" stroke="midnightblue" points="600.95,-140.7 610.48,-136.07 600.14,-133.75 600.95,-140.7"/>
</g>
<!-- Node10 -->
<g id="node10" class="node">
<title>Node10</title>
<g id="a_node10"><a xlink:href="classdenoptim_1_1fragmenter_1_1_fragment_clusterer_test.html#aa17925160f3f03080e8680c7016fc1c4" target="_top" xlink:title=" ">
<polygon fill="white" stroke="black" points="187.5,-88.5 187.5,-118.5 336.5,-118.5 336.5,-88.5 187.5,-88.5"/>
<text text-anchor="start" x="195.5" y="-106.5" font-family="Helvetica,sans-Serif" font-size="10.00">denoptim.fragmenter.Fragment</text>
<text text-anchor="middle" x="262" y="-95.5" font-family="Helvetica,sans-Serif" font-size="10.00">ClustererTest.testCluster</text>
</a>
</g>
</g>
<!-- Node6&#45;&gt;Node10 -->
<g id="edge17" class="edge">
<title>Node6&#45;&gt;Node10</title>
<path fill="none" stroke="midnightblue" d="M646.45,-107.91C623.12,-96.87 592.13,-84.17 563,-78.5 480.55,-62.44 457.49,-69.21 374,-78.5 355.74,-80.53 336.1,-84.39 318.49,-88.47"/>
<polygon fill="midnightblue" stroke="midnightblue" points="645.1,-111.15 655.63,-112.36 648.15,-104.85 645.1,-111.15"/>
</g>
<!-- Node11 -->
<g id="node11" class="node">
<title>Node11</title>
<g id="a_node11"><a xlink:href="classdenoptim_1_1fragmenter_1_1_fragment_clusterer.html#aae37739ae959ab8a85bf01286c5a518e" target="_top" xlink:title="Once the clustering is done, this method return the list of fragments that are nearest to the respect...">
<polygon fill="white" stroke="black" points="374,-186.5 374,-216.5 563,-216.5 563,-186.5 374,-186.5"/>
<text text-anchor="start" x="382" y="-204.5" font-family="Helvetica,sans-Serif" font-size="10.00">denoptim.fragmenter.Fragment</text>
<text text-anchor="middle" x="468.5" y="-193.5" font-family="Helvetica,sans-Serif" font-size="10.00">Clusterer.getNearestToClusterCentroids</text>
</a>
</g>
</g>
<!-- Node6&#45;&gt;Node11 -->
<g id="edge12" class="edge">
<title>Node6&#45;&gt;Node11</title>
<path fill="none" stroke="midnightblue" d="M640.59,-146.6C617.75,-156.25 589.14,-167.75 563,-176.5 552.48,-180.02 541.18,-183.39 530.18,-186.45"/>
<polygon fill="midnightblue" stroke="midnightblue" points="642.17,-149.73 650,-142.58 639.43,-143.29 642.17,-149.73"/>
</g>
<!-- Node12 -->
<g id="node12" class="node">
<title>Node12</title>
<g id="a_node12"><a xlink:href="classdenoptim_1_1fragmenter_1_1_fragment_clusterer.html#afa43e74f7825a3f2cc22f11430bf5862" target="_top" xlink:title="Once the clustering is done, this method return the list of clusters.">
<polygon fill="white" stroke="black" points="387.5,-88.5 387.5,-118.5 549.5,-118.5 549.5,-88.5 387.5,-88.5"/>
<text text-anchor="start" x="395.5" y="-106.5" font-family="Helvetica,sans-Serif" font-size="10.00">denoptim.fragmenter.Fragment</text>
<text text-anchor="middle" x="468.5" y="-95.5" font-family="Helvetica,sans-Serif" font-size="10.00">Clusterer.getTransformedClusters</text>
</a>
</g>
</g>
<!-- Node6&#45;&gt;Node12 -->
<g id="edge14" class="edge">
<title>Node6&#45;&gt;Node12</title>
<path fill="none" stroke="midnightblue" d="M600.22,-118.13C583.54,-116.26 566.07,-114.31 549.53,-112.45"/>
<polygon fill="midnightblue" stroke="midnightblue" points="600.15,-121.64 610.48,-119.27 600.93,-114.68 600.15,-121.64"/>
</g>
<!-- Node13 -->
<g id="node13" class="node">
<title>Node13</title>
<g id="a_node13"><a xlink:href="classdenoptim_1_1fragmenter_1_1_fragment_clusterer_test.html#acb2fe702b9d02d39a38ca1cc732c9ee4" target="_top" xlink:title=" ">
<polygon fill="white" stroke="black" points="394,-0.5 394,-30.5 543,-30.5 543,-0.5 394,-0.5"/>
<text text-anchor="start" x="402" y="-18.5" font-family="Helvetica,sans-Serif" font-size="10.00">denoptim.fragmenter.Fragment</text>
<text text-anchor="middle" x="468.5" y="-7.5" font-family="Helvetica,sans-Serif" font-size="10.00">ClustererTest.testCluster2</text>
</a>
</g>
</g>
<!-- Node6&#45;&gt;Node13 -->
<g id="edge18" class="edge">
<title>Node6&#45;&gt;Node13</title>
<path fill="none" stroke="midnightblue" d="M657.21,-106.04C633.55,-87.92 597.55,-62.32 563,-45.5 551.2,-39.75 538.04,-34.75 525.4,-30.56"/>
<polygon fill="midnightblue" stroke="midnightblue" points="655.29,-108.99 665.34,-112.35 659.58,-103.45 655.29,-108.99"/>
</g>
<!-- Node8 -->
<g id="node8" class="node">
<title>Node8</title>
<g id="a_node8"><a xlink:href="classdenoptim_1_1programs_1_1fragmenter_1_1_fragmenter.html#aa27df9705e3aed34cc8cb8bc05e6ce85" target="_top" xlink:title=" ">
<polygon fill="white" stroke="black" points="0,-161.5 0,-191.5 150,-191.5 150,-161.5 0,-161.5"/>
<text text-anchor="start" x="8" y="-179.5" font-family="Helvetica,sans-Serif" font-size="10.00">denoptim.programs.fragmenter.</text>
<text text-anchor="middle" x="75" y="-168.5" font-family="Helvetica,sans-Serif" font-size="10.00">Fragmenter.runProgram</text>
</a>
</g>
</g>
<!-- Node7&#45;&gt;Node8 -->
<g id="edge7" class="edge">
<title>Node7&#45;&gt;Node8</title>
<path fill="none" stroke="midnightblue" d="M175.53,-176.5C167.1,-176.5 158.59,-176.5 150.28,-176.5"/>
<polygon fill="midnightblue" stroke="midnightblue" points="175.75,-180 185.75,-176.5 175.75,-173 175.75,-180"/>
</g>
<!-- Node9&#45;&gt;Node7 -->
<g id="edge10" class="edge">
<title>Node9&#45;&gt;Node7</title>
<path fill="none" stroke="midnightblue" d="M383.66,-162.34C368.64,-164.1 353.06,-165.93 338.3,-167.66"/>
<polygon fill="midnightblue" stroke="midnightblue" points="384.44,-165.77 393.96,-161.13 383.62,-158.82 384.44,-165.77"/>
</g>
<!-- Node9&#45;&gt;Node10 -->
<g id="edge11" class="edge">
<title>Node9&#45;&gt;Node10</title>
<path fill="none" stroke="midnightblue" d="M394.87,-135.1C372.24,-129.68 347.5,-123.75 325.63,-118.51"/>
<polygon fill="midnightblue" stroke="midnightblue" points="394.21,-138.54 404.75,-137.47 395.84,-131.73 394.21,-138.54"/>
</g>
<!-- Node11&#45;&gt;Node7 -->
<g id="edge13" class="edge">
<title>Node11&#45;&gt;Node7</title>
<path fill="none" stroke="midnightblue" d="M363.79,-188.82C355.14,-187.76 346.51,-186.71 338.14,-185.69"/>
<polygon fill="midnightblue" stroke="midnightblue" points="363.58,-192.32 373.93,-190.06 364.43,-185.37 363.58,-192.32"/>
</g>
<!-- Node12&#45;&gt;Node7 -->
<g id="edge15" class="edge">
<title>Node12&#45;&gt;Node7</title>
<path fill="none" stroke="midnightblue" d="M393.48,-121.29C386.85,-123.25 380.28,-125.33 374,-127.5 346.13,-137.15 315.55,-150.9 293.55,-161.38"/>
<polygon fill="midnightblue" stroke="midnightblue" points="394.55,-124.63 403.21,-118.51 392.63,-117.9 394.55,-124.63"/>
</g>
<!-- Node12&#45;&gt;Node10 -->
<g id="edge16" class="edge">
<title>Node12&#45;&gt;Node10</title>
<path fill="none" stroke="midnightblue" d="M377.02,-103.5C363.53,-103.5 349.76,-103.5 336.67,-103.5"/>
<polygon fill="midnightblue" stroke="midnightblue" points="377.26,-107 387.26,-103.5 377.26,-100 377.26,-107"/>
</g>
<!-- Node15&#45;&gt;Node5 -->
<g id="edge21" class="edge">
<title>Node15&#45;&gt;Node5</title>
<path fill="none" stroke="midnightblue" d="M1013.63,-127.5C999.59,-127.5 985.52,-127.5 972.29,-127.5"/>
<polygon fill="midnightblue" stroke="midnightblue" points="1013.84,-131 1023.84,-127.5 1013.84,-124 1013.84,-131"/>
</g>
<!-- Node16 -->
<g id="node16" class="node">
<title>Node16</title>
<g id="a_node16"><a xlink:href="classdenoptim_1_1fragmenter_1_1_fragment_clusterer_test.html#ab3a7ea488d0b81e84bfa52fa0a8cdabb" target="_top" xlink:title=" ">
<polygon fill="white" stroke="black" points="811.5,-53 811.5,-94 983.5,-94 983.5,-53 811.5,-53"/>
<text text-anchor="start" x="819.5" y="-82" font-family="Helvetica,sans-Serif" font-size="10.00">denoptim.fragmenter.Fragment</text>
<text text-anchor="start" x="819.5" y="-71" font-family="Helvetica,sans-Serif" font-size="10.00">ClustererTest.testGetRMSDStatsOf</text>
<text text-anchor="middle" x="897.5" y="-60" font-family="Helvetica,sans-Serif" font-size="10.00">NoisyDistorsions</text>
</a>
</g>
</g>
<!-- Node15&#45;&gt;Node16 -->
<g id="edge22" class="edge">
<title>Node15&#45;&gt;Node16</title>
<path fill="none" stroke="midnightblue" d="M1053.03,-110.1C1030.97,-104.88 1006.59,-99.1 983.83,-93.71"/>
<polygon fill="midnightblue" stroke="midnightblue" points="1052.45,-113.56 1062.99,-112.46 1054.07,-106.75 1052.45,-113.56"/>
</g>
</g>
</svg>
        <g id="navigator" transform="translate(0 0)" fill="#404254">
                <rect fill="#f2f5e9" fill-opacity="0.5" stroke="#606060" stroke-width=".5" x="0" y="0" width="60" height="60"/>
                <use id="zoomplus" xlink:href="#zoomPlus" x="17" y="9" onmousedown="handleZoom(evt,'in')"/>
                <use id="zoomminus" xlink:href="#zoomMin" x="42" y="9" onmousedown="handleZoom(evt,'out')"/>
                <use id="reset" xlink:href="#resetDef" x="30" y="36" onmousedown="handleReset()"/>
                <g id="arrowUp" xlink:href="#dirArrow" transform="translate(30 24)" onmousedown="handlePan(0,-1)">
                  <use xlink:href="#rim" fill="#404040">
                        <set attributeName="fill" to="#808080" begin="arrowUp.mouseover" end="arrowUp.mouseout"/>
                  </use>
                  <path fill="none" stroke="white" stroke-width="1.5" d="M0,-3.0v7 M-2.5,-0.5L0,-3.0L2.5,-0.5"/>
                </g>
                <g id="arrowRight" xlink:href="#dirArrow" transform="rotate(90) translate(36 -43)" onmousedown="handlePan(1,0)">
                  <use xlink:href="#rim" fill="#404040">
                        <set attributeName="fill" to="#808080" begin="arrowRight.mouseover" end="arrowRight.mouseout"/>
                  </use>
                  <path fill="none" stroke="white" stroke-width="1.5" d="M0,-3.0v7 M-2.5,-0.5L0,-3.0L2.5,-0.5"/>
                </g>
                <g id="arrowDown" xlink:href="#dirArrow" transform="rotate(180) translate(-30 -48)" onmousedown="handlePan(0,1)">
                  <use xlink:href="#rim" fill="#404040">
                        <set attributeName="fill" to="#808080" begin="arrowDown.mouseover" end="arrowDown.mouseout"/>
                  </use>
                  <path fill="none" stroke="white" stroke-width="1.5" d="M0,-3.0v7 M-2.5,-0.5L0,-3.0L2.5,-0.5"/>
                </g>
                <g id="arrowLeft" xlink:href="#dirArrow" transform="rotate(270) translate(-36 17)" onmousedown="handlePan(-1,0)">
                  <use xlink:href="#rim" fill="#404040">
                        <set attributeName="fill" to="#808080" begin="arrowLeft.mouseover" end="arrowLeft.mouseout"/>
                  </use>
                  <path fill="none" stroke="white" stroke-width="1.5" d="M0,-3.0v7 M-2.5,-0.5L0,-3.0L2.5,-0.5"/>
                </g>
        </g>
        <svg viewBox="0 0 15 15" width="100%" height="30px" preserveAspectRatio="xMaxYMin meet">
         <g id="arrow_out" transform="scale(0.3 0.3)">
          <a xlink:href="classdenoptim_1_1utils_1_1_math_utils_ade2c9d5d24cad1bf24d74e9a9b65c47b_icgraph_org.svg" target="_base">
           <rect id="button" ry="5" rx="5" y="6" x="6" height="38" width="38"
                fill="#f2f5e9" fill-opacity="0.5" stroke="#606060" stroke-width="1.0"/>
           <path id="arrow"
             d="M 11.500037,31.436501 C 11.940474,20.09759 22.043105,11.32322 32.158766,21.979434 L 37.068811,17.246167 C 37.068811,17.246167 37.088388,32 37.088388,32 L 22.160133,31.978069 C 22.160133,31.978069 26.997745,27.140456 26.997745,27.140456 C 18.528582,18.264221 13.291696,25.230495 11.500037,31.436501 z"
             style="fill:#404040;"/>
          </a>
         </g>
        </svg>
</svg>
