<?xml version="1.0" encoding="UTF-8" standalone="no"?>
<!DOCTYPE svg PUBLIC "-//W3C//DTD SVG 1.1//EN"
 "http://www.w3.org/Graphics/SVG/1.1/DTD/svg11.dtd">
<!-- Generated by graphviz version 3.0.0 (20221109.1736)
 -->
<!-- Title: denoptim.fragspace.GraphLinkFinder.GraphLinkFinder Pages: 1 -->
<svg width="682pt" height="372pt"
 viewBox="0.00 0.00 682.00 372.00" xmlns="http://www.w3.org/2000/svg" xmlns:xlink="http://www.w3.org/1999/xlink">
<g id="graph0" class="graph" transform="scale(1 1) rotate(0) translate(4 368)">
<title>denoptim.fragspace.GraphLinkFinder.GraphLinkFinder</title>
<polygon fill="white" stroke="transparent" points="-4,4 -4,-368 678,-368 678,4 -4,4"/>
<!-- Node1 -->
<g id="node1" class="node">
<title>Node1</title>
<g id="a_node1"><a xlink:title="Constructor that specifies which vertex has to be replaced.">
<polygon fill="#bfbfbf" stroke="black" points="0,-171.5 0,-201.5 137,-201.5 137,-171.5 0,-171.5"/>
<text text-anchor="start" x="8" y="-189.5" font-family="Helvetica,sans-Serif" font-size="10.00">denoptim.fragspace.Graph</text>
<text text-anchor="middle" x="68.5" y="-178.5" font-family="Helvetica,sans-Serif" font-size="10.00">LinkFinder.GraphLinkFinder</text>
</a>
</g>
</g>
<!-- Node2 -->
<g id="node2" class="node">
<title>Node2</title>
<g id="a_node2"><a xlink:href="classdenoptim_1_1fragspace_1_1_a_p_map_finder.html#a6db61d6017ac32cdd5b12c0665270406" target="_top" xlink:title="Returns true if any mapping has been found.">
<polygon fill="white" stroke="black" points="176.5,-333.5 176.5,-363.5 312.5,-363.5 312.5,-333.5 176.5,-333.5"/>
<text text-anchor="start" x="184.5" y="-351.5" font-family="Helvetica,sans-Serif" font-size="10.00">denoptim.fragspace.APMap</text>
<text text-anchor="middle" x="244.5" y="-340.5" font-family="Helvetica,sans-Serif" font-size="10.00">Finder.foundMapping</text>
</a>
</g>
</g>
<!-- Node1&#45;&gt;Node2 -->
<g id="edge1" class="edge">
<title>Node1&#45;&gt;Node2</title>
<path fill="none" stroke="midnightblue" d="M76.95,-201.73C91.51,-229.99 126.46,-290.73 173,-324.5 175.06,-325.99 177.22,-327.4 179.45,-328.73"/>
<polygon fill="midnightblue" stroke="midnightblue" points="177.89,-331.86 188.37,-333.43 181.16,-325.67 177.89,-331.86"/>
</g>
<!-- Node3 -->
<g id="node3" class="node">
<title>Node3</title>
<g id="a_node3"><a xlink:href="classdenoptim_1_1fragspace_1_1_a_p_map_finder.html#a7bf9e961f1aed252d9d3e255d5f4e223" target="_top" xlink:title="Returns all AttachmentPoint&#45;AttachmentPoint mapping found.">
<polygon fill="white" stroke="black" points="176.5,-284.5 176.5,-314.5 312.5,-314.5 312.5,-284.5 176.5,-284.5"/>
<text text-anchor="start" x="184.5" y="-302.5" font-family="Helvetica,sans-Serif" font-size="10.00">denoptim.fragspace.APMap</text>
<text text-anchor="middle" x="244.5" y="-291.5" font-family="Helvetica,sans-Serif" font-size="10.00">Finder.getAllAPMappings</text>
</a>
</g>
</g>
<!-- Node1&#45;&gt;Node3 -->
<g id="edge2" class="edge">
<title>Node1&#45;&gt;Node3</title>
<path fill="none" stroke="midnightblue" d="M85.32,-201.5C104.78,-219.39 139.4,-249.4 173,-269.5 179.36,-273.3 186.28,-276.87 193.23,-280.13"/>
<polygon fill="midnightblue" stroke="midnightblue" points="192.11,-283.46 202.67,-284.36 194.98,-277.07 192.11,-283.46"/>
</g>
<!-- Node4 -->
<g id="node4" class="node">
<title>Node4</title>
<g id="a_node4"><a xlink:href="classdenoptim_1_1graph_1_1_vertex.html#a200f775296c4c9804e3a2b59e065be8a" target="_top" xlink:title="Returns the index of the building block that should correspond to the position of the building block ...">
<polygon fill="white" stroke="black" points="539.5,-238.5 539.5,-268.5 667.5,-268.5 667.5,-238.5 539.5,-238.5"/>
<text text-anchor="start" x="547.5" y="-256.5" font-family="Helvetica,sans-Serif" font-size="10.00">denoptim.graph.Vertex.get</text>
<text text-anchor="middle" x="603.5" y="-245.5" font-family="Helvetica,sans-Serif" font-size="10.00">BuildingBlockId</text>
</a>
</g>
</g>
<!-- Node1&#45;&gt;Node4 -->
<g id="edge3" class="edge">
<title>Node1&#45;&gt;Node4</title>
<path fill="none" stroke="midnightblue" d="M93.51,-201.63C113.82,-213.54 144.15,-229.29 173,-236.5 295.1,-267 442.72,-264.69 529.25,-259.57"/>
<polygon fill="midnightblue" stroke="midnightblue" points="529.73,-263.04 539.49,-258.93 529.3,-256.06 529.73,-263.04"/>
</g>
<!-- Node5 -->
<g id="node5" class="node">
<title>Node5</title>
<g id="a_node5"><a xlink:href="classdenoptim_1_1graph_1_1_vertex.html#a46dadb5fd30f1877db91e97ae55c2dd8" target="_top" xlink:title=" ">
<polygon fill="white" stroke="black" points="180.5,-196.5 180.5,-226.5 308.5,-226.5 308.5,-196.5 180.5,-196.5"/>
<text text-anchor="start" x="188.5" y="-214.5" font-family="Helvetica,sans-Serif" font-size="10.00">denoptim.graph.Vertex.get</text>
<text text-anchor="middle" x="244.5" y="-203.5" font-family="Helvetica,sans-Serif" font-size="10.00">BuildingBlockType</text>
</a>
</g>
</g>
<!-- Node1&#45;&gt;Node5 -->
<g id="edge4" class="edge">
<title>Node1&#45;&gt;Node5</title>
<path fill="none" stroke="midnightblue" d="M137.27,-196.24C148.16,-197.8 159.47,-199.43 170.47,-201.01"/>
<polygon fill="midnightblue" stroke="midnightblue" points="170.07,-204.49 180.46,-202.44 171.06,-197.56 170.07,-204.49"/>
</g>
<!-- Node6 -->
<g id="node6" class="node">
<title>Node6</title>
<g id="a_node6"><a xlink:href="classdenoptim_1_1fragspace_1_1_graph_link_finder.html#a23a02a7ccf016632eb93ac02eae9bc6b" target="_top" xlink:title=" ">
<polygon fill="white" stroke="black" points="174.5,-147.5 174.5,-177.5 314.5,-177.5 314.5,-147.5 174.5,-147.5"/>
<text text-anchor="start" x="182.5" y="-165.5" font-family="Helvetica,sans-Serif" font-size="10.00">denoptim.fragspace.Graph</text>
<text text-anchor="middle" x="244.5" y="-154.5" font-family="Helvetica,sans-Serif" font-size="10.00">LinkFinder.getCandidateBBs</text>
</a>
</g>
</g>
<!-- Node1&#45;&gt;Node6 -->
<g id="edge5" class="edge">
<title>Node1&#45;&gt;Node6</title>
<path fill="none" stroke="midnightblue" d="M137.27,-177.15C146.15,-175.93 155.3,-174.67 164.34,-173.42"/>
<polygon fill="midnightblue" stroke="midnightblue" points="165.05,-176.85 174.48,-172.02 164.1,-169.92 165.05,-176.85"/>
</g>
<!-- Node9 -->
<g id="node9" class="node">
<title>Node9</title>
<g id="a_node9"><a xlink:href="classdenoptim_1_1fragspace_1_1_fragment_space.html#a492683049dc687fcdc41b43051d30554" target="_top" xlink:title="Returns a clone of the requested building block.">
<polygon fill="white" stroke="black" points="352,-98.5 352,-128.5 497,-128.5 497,-98.5 352,-98.5"/>
<text text-anchor="start" x="360" y="-116.5" font-family="Helvetica,sans-Serif" font-size="10.00">denoptim.fragspace.Fragment</text>
<text text-anchor="middle" x="424.5" y="-105.5" font-family="Helvetica,sans-Serif" font-size="10.00">Space.getVertexFromLibrary</text>
</a>
</g>
</g>
<!-- Node1&#45;&gt;Node9 -->
<g id="edge18" class="edge">
<title>Node1&#45;&gt;Node9</title>
<path fill="none" stroke="midnightblue" d="M95.8,-171.3C116.18,-160.27 145.49,-146.02 173,-138.5 228.12,-123.43 292.28,-117.23 341.86,-114.78"/>
<polygon fill="midnightblue" stroke="midnightblue" points="342.06,-118.27 351.9,-114.32 341.75,-111.28 342.06,-118.27"/>
</g>
<!-- Node15 -->
<g id="node15" class="node">
<title>Node15</title>
<g id="a_node15"><a xlink:href="classdenoptim_1_1fragspace_1_1_a_p_map_finder.html#a1259fc018fc5131cdf102d4030933f3e" target="_top" xlink:title="Returns the AttachmentPoint&#45;AttachmentPoint mapping chosen among the possible mappings.">
<polygon fill="white" stroke="black" points="173,-59.5 173,-89.5 316,-89.5 316,-59.5 173,-59.5"/>
<text text-anchor="start" x="181" y="-77.5" font-family="Helvetica,sans-Serif" font-size="10.00">denoptim.fragspace.APMap</text>
<text text-anchor="middle" x="244.5" y="-66.5" font-family="Helvetica,sans-Serif" font-size="10.00">Finder.getChosenAPMapping</text>
</a>
</g>
</g>
<!-- Node1&#45;&gt;Node15 -->
<g id="edge15" class="edge">
<title>Node1&#45;&gt;Node15</title>
<path fill="none" stroke="midnightblue" d="M85.7,-171.38C105.26,-153.69 139.69,-124.29 173,-104.5 179.45,-100.67 186.47,-97.07 193.51,-93.79"/>
<polygon fill="midnightblue" stroke="midnightblue" points="195.36,-96.79 203.06,-89.52 192.5,-90.4 195.36,-96.79"/>
</g>
<!-- Node16 -->
<g id="node16" class="node">
<title>Node16</title>
<g id="a_node16"><a xlink:href="classdenoptim_1_1graph_1_1_vertex.html#a514b89b11dff8939e74e5b95e749b703" target="_top" xlink:title=" ">
<polygon fill="white" stroke="black" points="180.5,-10.5 180.5,-40.5 308.5,-40.5 308.5,-10.5 180.5,-10.5"/>
<text text-anchor="start" x="188.5" y="-28.5" font-family="Helvetica,sans-Serif" font-size="10.00">denoptim.graph.Vertex.get</text>
<text text-anchor="middle" x="244.5" y="-17.5" font-family="Helvetica,sans-Serif" font-size="10.00">NumberOfAPs</text>
</a>
</g>
</g>
<!-- Node1&#45;&gt;Node16 -->
<g id="edge16" class="edge">
<title>Node1&#45;&gt;Node16</title>
<path fill="none" stroke="midnightblue" d="M76.98,-171.38C91.59,-143.33 126.62,-83.03 173,-49.5 175.06,-48.01 177.23,-46.6 179.46,-45.28"/>
<polygon fill="midnightblue" stroke="midnightblue" points="181.16,-48.34 188.38,-40.59 177.9,-42.15 181.16,-48.34"/>
</g>
<!-- Node7 -->
<g id="node7" class="node">
<title>Node7</title>
<g id="a_node7"><a xlink:href="classdenoptim_1_1fragspace_1_1_fragment_space.html#aed02226a5695be948ae2c33e787e22c3" target="_top" xlink:title=" ">
<polygon fill="white" stroke="black" points="352,-196.5 352,-226.5 497,-226.5 497,-196.5 352,-196.5"/>
<text text-anchor="start" x="360" y="-214.5" font-family="Helvetica,sans-Serif" font-size="10.00">denoptim.fragspace.Fragment</text>
<text text-anchor="middle" x="424.5" y="-203.5" font-family="Helvetica,sans-Serif" font-size="10.00">Space.getFragmentLibrary</text>
</a>
</g>
</g>
<!-- Node6&#45;&gt;Node7 -->
<g id="edge6" class="edge">
<title>Node6&#45;&gt;Node7</title>
<path fill="none" stroke="midnightblue" d="M300.36,-177.6C318.89,-182.7 339.74,-188.44 358.95,-193.73"/>
<polygon fill="midnightblue" stroke="midnightblue" points="358.25,-197.17 368.82,-196.45 360.11,-190.42 358.25,-197.17"/>
</g>
<!-- Node8 -->
<g id="node8" class="node">
<title>Node8</title>
<g id="a_node8"><a xlink:href="classdenoptim_1_1fragspace_1_1_fragment_space.html#ae30c8a77be3202d7072d5b0b66a6ae59" target="_top" xlink:title=" ">
<polygon fill="white" stroke="black" points="352,-147.5 352,-177.5 497,-177.5 497,-147.5 352,-147.5"/>
<text text-anchor="start" x="360" y="-165.5" font-family="Helvetica,sans-Serif" font-size="10.00">denoptim.fragspace.Fragment</text>
<text text-anchor="middle" x="424.5" y="-154.5" font-family="Helvetica,sans-Serif" font-size="10.00">Space.getScaffoldLibrary</text>
</a>
</g>
</g>
<!-- Node6&#45;&gt;Node8 -->
<g id="edge7" class="edge">
<title>Node6&#45;&gt;Node8</title>
<path fill="none" stroke="midnightblue" d="M314.57,-162.5C323.45,-162.5 332.6,-162.5 341.66,-162.5"/>
<polygon fill="midnightblue" stroke="midnightblue" points="341.82,-166 351.82,-162.5 341.82,-159 341.82,-166"/>
</g>
<!-- Node6&#45;&gt;Node9 -->
<g id="edge8" class="edge">
<title>Node6&#45;&gt;Node9</title>
<path fill="none" stroke="midnightblue" d="M300.36,-147.4C318.89,-142.3 339.74,-136.56 358.95,-131.27"/>
<polygon fill="midnightblue" stroke="midnightblue" points="360.11,-134.58 368.82,-128.55 358.25,-127.83 360.11,-134.58"/>
</g>
<!-- Node9&#45;&gt;Node4 -->
<g id="edge10" class="edge">
<title>Node9&#45;&gt;Node4</title>
<path fill="none" stroke="midnightblue" d="M483.09,-128.55C488.15,-131.33 492.89,-134.62 497,-138.5 527.41,-167.25 503.27,-196.05 533,-225.5 535.83,-228.3 538.98,-230.84 542.33,-233.13"/>
<polygon fill="midnightblue" stroke="midnightblue" points="540.62,-236.18 551,-238.32 544.22,-230.18 540.62,-236.18"/>
</g>
<!-- Node10 -->
<g id="node10" class="node">
<title>Node10</title>
<g id="a_node10"><a xlink:href="classdenoptim_1_1graph_1_1_vertex.html#a05e1f8f3d4595534fb18c8d6b7e4a82d" target="_top" xlink:title="Returns a deep&#45;copy of this vertex.">
<polygon fill="white" stroke="black" points="534.5,-197 534.5,-216 672.5,-216 672.5,-197 534.5,-197"/>
<text text-anchor="middle" x="603.5" y="-204" font-family="Helvetica,sans-Serif" font-size="10.00">denoptim.graph.Vertex.clone</text>
</a>
</g>
</g>
<!-- Node9&#45;&gt;Node10 -->
<g id="edge9" class="edge">
<title>Node9&#45;&gt;Node10</title>
<path fill="none" stroke="midnightblue" d="M479.98,-128.59C486,-131.39 491.82,-134.67 497,-138.5 518.73,-154.57 510.73,-172.2 533,-187.5 535.92,-189.51 539.05,-191.31 542.31,-192.91"/>
<polygon fill="midnightblue" stroke="midnightblue" points="541.16,-196.23 551.73,-196.96 543.92,-189.8 541.16,-196.23"/>
</g>
<!-- Node11 -->
<g id="node11" class="node">
<title>Node11</title>
<g id="a_node11"><a xlink:href="classdenoptim_1_1programs_1_1_run_time_parameters.html#a5d529ee791990d15bde012d8dcd6b5c1" target="_top" xlink:title="Get the name of the program specific logger.">
<polygon fill="white" stroke="black" points="533.5,-147.5 533.5,-177.5 673.5,-177.5 673.5,-147.5 533.5,-147.5"/>
<text text-anchor="start" x="541.5" y="-165.5" font-family="Helvetica,sans-Serif" font-size="10.00">denoptim.programs.RunTime</text>
<text text-anchor="middle" x="603.5" y="-154.5" font-family="Helvetica,sans-Serif" font-size="10.00">Parameters.getLogger</text>
</a>
</g>
</g>
<!-- Node9&#45;&gt;Node11 -->
<g id="edge11" class="edge">
<title>Node9&#45;&gt;Node11</title>
<path fill="none" stroke="midnightblue" d="M480.05,-128.6C498.47,-133.7 519.21,-139.44 538.31,-144.73"/>
<polygon fill="midnightblue" stroke="midnightblue" points="537.56,-148.15 548.13,-147.45 539.43,-141.41 537.56,-148.15"/>
</g>
<!-- Node12 -->
<g id="node12" class="node">
<title>Node12</title>
<g id="a_node12"><a xlink:href="classdenoptim_1_1utils_1_1_graph_utils.html#aad6245f297edf8a9f100b3949092f3c1" target="_top" xlink:title="Unique counter for the number of graph vertices generated.">
<polygon fill="white" stroke="black" points="533,-98.5 533,-128.5 674,-128.5 674,-98.5 533,-98.5"/>
<text text-anchor="start" x="541" y="-116.5" font-family="Helvetica,sans-Serif" font-size="10.00">denoptim.utils.GraphUtils.get</text>
<text text-anchor="middle" x="603.5" y="-105.5" font-family="Helvetica,sans-Serif" font-size="10.00">UniqueVertexIndex</text>
</a>
</g>
</g>
<!-- Node9&#45;&gt;Node12 -->
<g id="edge12" class="edge">
<title>Node9&#45;&gt;Node12</title>
<path fill="none" stroke="midnightblue" d="M497.24,-113.5C505.62,-113.5 514.21,-113.5 522.69,-113.5"/>
<polygon fill="midnightblue" stroke="midnightblue" points="522.96,-117 532.96,-113.5 522.96,-110 522.96,-117"/>
</g>
<!-- Node13 -->
<g id="node13" class="node">
<title>Node13</title>
<g id="a_node13"><a xlink:href="classdenoptim_1_1graph_1_1_vertex.html#a867032399d8aad0a894cbf5b51406ac4" target="_top" xlink:title=" ">
<polygon fill="white" stroke="black" points="539.5,-49.5 539.5,-79.5 667.5,-79.5 667.5,-49.5 539.5,-49.5"/>
<text text-anchor="start" x="547.5" y="-67.5" font-family="Helvetica,sans-Serif" font-size="10.00">denoptim.graph.Vertex.set</text>
<text text-anchor="middle" x="603.5" y="-56.5" font-family="Helvetica,sans-Serif" font-size="10.00">BuildingBlockId</text>
</a>
</g>
</g>
<!-- Node9&#45;&gt;Node13 -->
<g id="edge13" class="edge">
<title>Node9&#45;&gt;Node13</title>
<path fill="none" stroke="midnightblue" d="M480.05,-98.4C498.47,-93.3 519.21,-87.56 538.31,-82.27"/>
<polygon fill="midnightblue" stroke="midnightblue" points="539.43,-85.59 548.13,-79.55 537.56,-78.85 539.43,-85.59"/>
</g>
<!-- Node14 -->
<g id="node14" class="node">
<title>Node14</title>
<g id="a_node14"><a xlink:href="classdenoptim_1_1graph_1_1_vertex.html#a29e20c43a6110fbaac6cc86c216fe143" target="_top" xlink:title=" ">
<polygon fill="white" stroke="black" points="539.5,-0.5 539.5,-30.5 667.5,-30.5 667.5,-0.5 539.5,-0.5"/>
<text text-anchor="start" x="547.5" y="-18.5" font-family="Helvetica,sans-Serif" font-size="10.00">denoptim.graph.Vertex.set</text>
<text text-anchor="middle" x="603.5" y="-7.5" font-family="Helvetica,sans-Serif" font-size="10.00">VertexId</text>
</a>
</g>
</g>
<!-- Node9&#45;&gt;Node14 -->
<g id="edge14" class="edge">
<title>Node9&#45;&gt;Node14</title>
<path fill="none" stroke="midnightblue" d="M443.94,-98.49C464.62,-82.22 499.63,-56.35 533,-39.5 536.55,-37.71 540.27,-35.99 544.06,-34.37"/>
<polygon fill="midnightblue" stroke="midnightblue" points="545.62,-37.51 553.58,-30.51 542.99,-31.02 545.62,-37.51"/>
</g>
<!-- Node17 -->
<g id="node17" class="node">
<title>Node17</title>
<g id="a_node17"><a xlink:href="classdenoptim_1_1graph_1_1_vertex.html#a85aa901ec3fff8e566c0cc32d9c9f84e" target="_top" xlink:title=" ">
<polygon fill="white" stroke="black" points="360.5,-10.5 360.5,-40.5 488.5,-40.5 488.5,-10.5 360.5,-10.5"/>
<text text-anchor="start" x="368.5" y="-28.5" font-family="Helvetica,sans-Serif" font-size="10.00">denoptim.graph.Vertex.get</text>
<text text-anchor="middle" x="424.5" y="-17.5" font-family="Helvetica,sans-Serif" font-size="10.00">AttachmentPoints</text>
</a>
</g>
</g>
<!-- Node16&#45;&gt;Node17 -->
<g id="edge17" class="edge">
<title>Node16&#45;&gt;Node17</title>
<path fill="none" stroke="midnightblue" d="M308.51,-25.5C321.9,-25.5 336.14,-25.5 349.89,-25.5"/>
<polygon fill="midnightblue" stroke="midnightblue" points="350.28,-29 360.28,-25.5 350.28,-22 350.28,-29"/>
</g>
</g>
</svg>
