<?xml version="1.0" encoding="UTF-8" standalone="no"?>
<!DOCTYPE svg PUBLIC "-//W3C//DTD SVG 1.1//EN"
 "http://www.w3.org/Graphics/SVG/1.1/DTD/svg11.dtd">
<!-- Generated by graphviz version 3.0.0 (20221109.1736)
 -->
<!-- Title: denoptim.programs.grapheditor.GraphEdParameters.processParameters Pages: 1 -->
<svg width="1009pt" height="137pt"
 viewBox="0.00 0.00 1009.00 137.00" xmlns="http://www.w3.org/2000/svg" xmlns:xlink="http://www.w3.org/1999/xlink">
<g id="graph0" class="graph" transform="scale(1 1) rotate(0) translate(4 133)">
<title>denoptim.programs.grapheditor.GraphEdParameters.processParameters</title>
<polygon fill="white" stroke="transparent" points="-4,4 -4,-133 1005,-133 1005,4 -4,4"/>
<!-- Node1 -->
<g id="node1" class="node">
<title>Node1</title>
<g id="a_node1"><a xlink:title="Processes all parameters and initialize related objects.">
<polygon fill="#bfbfbf" stroke="black" points="0,-49.5 0,-79.5 191,-79.5 191,-49.5 0,-49.5"/>
<text text-anchor="start" x="8" y="-67.5" font-family="Helvetica,sans-Serif" font-size="10.00">denoptim.programs.grapheditor.</text>
<text text-anchor="middle" x="95.5" y="-56.5" font-family="Helvetica,sans-Serif" font-size="10.00">GraphEdParameters.processParameters</text>
</a>
</g>
</g>
<!-- Node2 -->
<g id="node2" class="node">
<title>Node2</title>
<g id="a_node2"><a xlink:href="classdenoptim_1_1files_1_1_file_utils.html#a16bc762b79f5033f2323fb8728593334" target="_top" xlink:title=" ">
<polygon fill="white" stroke="black" points="244.5,-98.5 244.5,-128.5 387.5,-128.5 387.5,-98.5 244.5,-98.5"/>
<text text-anchor="start" x="252.5" y="-116.5" font-family="Helvetica,sans-Serif" font-size="10.00">denoptim.files.FileUtils.check</text>
<text text-anchor="middle" x="316" y="-105.5" font-family="Helvetica,sans-Serif" font-size="10.00">Exists</text>
</a>
</g>
</g>
<!-- Node1&#45;&gt;Node2 -->
<g id="edge1" class="edge">
<title>Node1&#45;&gt;Node2</title>
<path fill="none" stroke="midnightblue" d="M163.54,-79.53C187.14,-84.83 213.84,-90.81 238.17,-96.27"/>
<polygon fill="midnightblue" stroke="midnightblue" points="237.56,-99.72 248.08,-98.49 239.09,-92.89 237.56,-99.72"/>
</g>
<!-- Node3 -->
<g id="node3" class="node">
<title>Node3</title>
<g id="a_node3"><a xlink:href="classdenoptim_1_1programs_1_1_run_time_parameters.html#abcdf563c6c95b9a293cb0e71738355ff" target="_top" xlink:title="Processes any of the parameter collections contained in this instance.">
<polygon fill="white" stroke="black" points="227,-49.5 227,-79.5 405,-79.5 405,-49.5 227,-49.5"/>
<text text-anchor="start" x="235" y="-67.5" font-family="Helvetica,sans-Serif" font-size="10.00">denoptim.programs.RunTime</text>
<text text-anchor="middle" x="316" y="-56.5" font-family="Helvetica,sans-Serif" font-size="10.00">Parameters.processOtherParameters</text>
</a>
</g>
</g>
<!-- Node1&#45;&gt;Node3 -->
<g id="edge2" class="edge">
<title>Node1&#45;&gt;Node3</title>
<path fill="none" stroke="midnightblue" d="M191.07,-64.5C199.6,-64.5 208.27,-64.5 216.83,-64.5"/>
<polygon fill="midnightblue" stroke="midnightblue" points="216.84,-68 226.84,-64.5 216.84,-61 216.84,-68"/>
</g>
<!-- Node4 -->
<g id="node4" class="node">
<title>Node4</title>
<g id="a_node4"><a xlink:href="classdenoptim_1_1io_1_1_denoptim_i_o.html#af483b79b1aed95e3e72074ddb02be508" target="_top" xlink:title="Reads a list of graph editing tasks from a JSON file.">
<polygon fill="white" stroke="black" points="241.5,-0.5 241.5,-30.5 390.5,-30.5 390.5,-0.5 241.5,-0.5"/>
<text text-anchor="start" x="249.5" y="-18.5" font-family="Helvetica,sans-Serif" font-size="10.00">denoptim.io.DenoptimIO.read</text>
<text text-anchor="middle" x="316" y="-7.5" font-family="Helvetica,sans-Serif" font-size="10.00">DENOPTIMGraphEditFromFile</text>
</a>
</g>
</g>
<!-- Node1&#45;&gt;Node4 -->
<g id="edge3" class="edge">
<title>Node1&#45;&gt;Node4</title>
<path fill="none" stroke="midnightblue" d="M163.54,-49.47C187.14,-44.17 213.84,-38.19 238.17,-32.73"/>
<polygon fill="midnightblue" stroke="midnightblue" points="239.09,-36.11 248.08,-30.51 237.56,-29.28 239.09,-36.11"/>
</g>
<!-- Node5 -->
<g id="node5" class="node">
<title>Node5</title>
<g id="a_node5"><a xlink:href="classdenoptim_1_1json_1_1_d_e_n_o_p_t_i_mgson.html#a3e85cb26bb2f36407e309e41880ef191" target="_top" xlink:title=" ">
<polygon fill="white" stroke="black" points="441,-0.5 441,-30.5 608,-30.5 608,-0.5 441,-0.5"/>
<text text-anchor="start" x="449" y="-18.5" font-family="Helvetica,sans-Serif" font-size="10.00">denoptim.json.DENOPTIMgson.get</text>
<text text-anchor="middle" x="524.5" y="-7.5" font-family="Helvetica,sans-Serif" font-size="10.00">Reader</text>
</a>
</g>
</g>
<!-- Node4&#45;&gt;Node5 -->
<g id="edge4" class="edge">
<title>Node4&#45;&gt;Node5</title>
<path fill="none" stroke="midnightblue" d="M390.68,-15.5C403.6,-15.5 417.2,-15.5 430.56,-15.5"/>
<polygon fill="midnightblue" stroke="midnightblue" points="430.72,-19 440.72,-15.5 430.72,-12 430.72,-19"/>
</g>
<!-- Node6 -->
<g id="node6" class="node">
<title>Node6</title>
<g id="a_node6"><a xlink:href="classdenoptim_1_1json_1_1_d_e_n_o_p_t_i_mgson.html#aa14de224ae5d1ae5156f11d5715d360c" target="_top" xlink:title=" ">
<polygon fill="white" stroke="black" points="644,-0.5 644,-30.5 811,-30.5 811,-0.5 644,-0.5"/>
<text text-anchor="start" x="652" y="-18.5" font-family="Helvetica,sans-Serif" font-size="10.00">denoptim.json.DENOPTIMgson.get</text>
<text text-anchor="middle" x="727.5" y="-7.5" font-family="Helvetica,sans-Serif" font-size="10.00">Instance</text>
</a>
</g>
</g>
<!-- Node5&#45;&gt;Node6 -->
<g id="edge5" class="edge">
<title>Node5&#45;&gt;Node6</title>
<path fill="none" stroke="midnightblue" d="M608.12,-15.5C616.61,-15.5 625.27,-15.5 633.85,-15.5"/>
<polygon fill="midnightblue" stroke="midnightblue" points="633.87,-19 643.87,-15.5 633.87,-12 633.87,-19"/>
</g>
<!-- Node7 -->
<g id="node7" class="node">
<title>Node7</title>
<g id="a_node7"><a xlink:href="classdenoptim_1_1json_1_1_d_e_n_o_p_t_i_mgson.html#a4aafec42bd09225870fdf330db93b84c" target="_top" xlink:title=" ">
<polygon fill="white" stroke="black" points="847,-0.5 847,-30.5 1001,-30.5 1001,-0.5 847,-0.5"/>
<text text-anchor="start" x="855" y="-18.5" font-family="Helvetica,sans-Serif" font-size="10.00">denoptim.json.DENOPTIMgson.</text>
<text text-anchor="middle" x="924" y="-7.5" font-family="Helvetica,sans-Serif" font-size="10.00">DENOPTIMgson</text>
</a>
</g>
</g>
<!-- Node6&#45;&gt;Node7 -->
<g id="edge6" class="edge">
<title>Node6&#45;&gt;Node7</title>
<path fill="none" stroke="midnightblue" d="M811.27,-15.5C819.65,-15.5 828.17,-15.5 836.59,-15.5"/>
<polygon fill="midnightblue" stroke="midnightblue" points="836.79,-19 846.79,-15.5 836.79,-12 836.79,-19"/>
</g>
</g>
</svg>
