<?xml version="1.0" encoding="UTF-8" standalone="no"?>
<!DOCTYPE svg PUBLIC "-//W3C//DTD SVG 1.1//EN"
 "http://www.w3.org/Graphics/SVG/1.1/DTD/svg11.dtd">
<!-- Generated by graphviz version 3.0.0 (20221109.1736)
 -->
<!-- Title: denoptim.graph.Fragment.addAtom Pages: 1 -->
<svg width="851pt" height="1649pt"
 viewBox="0.00 0.00 851.00 1649.00" xmlns="http://www.w3.org/2000/svg" xmlns:xlink="http://www.w3.org/1999/xlink">
<g id="graph0" class="graph" transform="scale(1 1) rotate(0) translate(4 1645)">
<title>denoptim.graph.Fragment.addAtom</title>
<polygon fill="white" stroke="transparent" points="-4,4 -4,-1645 847,-1645 847,4 -4,4"/>
<!-- Node1 -->
<g id="node1" class="node">
<title>Node1</title>
<g id="a_node1"><a xlink:title=" ">
<polygon fill="#bfbfbf" stroke="black" points="676,-588 676,-607 843,-607 843,-588 676,-588"/>
<text text-anchor="middle" x="759.5" y="-595" font-family="Helvetica,sans-Serif" font-size="10.00">denoptim.graph.Fragment.addAtom</text>
</a>
</g>
</g>
<!-- Node2 -->
<g id="node2" class="node">
<title>Node2</title>
<g id="a_node2"><a xlink:href="classdenoptim_1_1utils_1_1_dummy_atom_handler.html#a100cd8246e61d933a6420fac5c22160a" target="_top" xlink:title="Append dummy atoms on otherwise linear arrangements of atoms.">
<polygon fill="white" stroke="black" points="458,-1517.5 458,-1547.5 625,-1547.5 625,-1517.5 458,-1517.5"/>
<text text-anchor="start" x="466" y="-1535.5" font-family="Helvetica,sans-Serif" font-size="10.00">denoptim.utils.DummyAtom</text>
<text text-anchor="middle" x="541.5" y="-1524.5" font-family="Helvetica,sans-Serif" font-size="10.00">Handler.addDummiesOnLinearities</text>
</a>
</g>
</g>
<!-- Node1&#45;&gt;Node2 -->
<g id="edge1" class="edge">
<title>Node1&#45;&gt;Node2</title>
<path fill="none" stroke="midnightblue" d="M757.04,-617.17C748.68,-726.57 705.13,-1260.43 640,-1410.5 620.89,-1454.52 581.6,-1495.99 559.17,-1517.39"/>
<polygon fill="midnightblue" stroke="midnightblue" points="760.53,-617.42 757.79,-607.19 753.55,-616.9 760.53,-617.42"/>
</g>
<!-- Node8 -->
<g id="node8" class="node">
<title>Node8</title>
<g id="a_node8"><a xlink:href="classdenoptim_1_1fragspace_1_1_fragment_space_test.html#ae401cb5105c9afd41d058685eb051869" target="_top" xlink:title=" ">
<polygon fill="white" stroke="black" points="464,-1009.5 464,-1039.5 619,-1039.5 619,-1009.5 464,-1009.5"/>
<text text-anchor="start" x="472" y="-1027.5" font-family="Helvetica,sans-Serif" font-size="10.00">denoptim.fragspace.Fragment</text>
<text text-anchor="middle" x="541.5" y="-1016.5" font-family="Helvetica,sans-Serif" font-size="10.00">SpaceTest.buildFragmentSpace</text>
</a>
</g>
</g>
<!-- Node1&#45;&gt;Node8 -->
<g id="edge7" class="edge">
<title>Node1&#45;&gt;Node8</title>
<path fill="none" stroke="midnightblue" d="M754.62,-617.23C743.46,-670.61 707.71,-821.02 640,-927.5 618.73,-960.95 584.05,-991.8 562.29,-1009.37"/>
<polygon fill="midnightblue" stroke="midnightblue" points="758.11,-617.6 756.68,-607.1 751.25,-616.2 758.11,-617.6"/>
</g>
<!-- Node17 -->
<g id="node17" class="node">
<title>Node17</title>
<g id="a_node17"><a xlink:href="classdenoptim_1_1fragspace_1_1_fragment_space_test.html#a692723b803a64dd25e775b2f8726fe27" target="_top" xlink:title="Works with this graph:">
<polygon fill="white" stroke="black" points="210,-817 210,-858 395,-858 395,-817 210,-817"/>
<text text-anchor="start" x="218" y="-846" font-family="Helvetica,sans-Serif" font-size="10.00">denoptim.fragspace.Fragment</text>
<text text-anchor="start" x="218" y="-835" font-family="Helvetica,sans-Serif" font-size="10.00">SpaceTest.testUseWholeMolGeometry</text>
<text text-anchor="middle" x="302.5" y="-824" font-family="Helvetica,sans-Serif" font-size="10.00">ForExtractedTemplates</text>
</a>
</g>
</g>
<!-- Node1&#45;&gt;Node17 -->
<g id="edge48" class="edge">
<title>Node1&#45;&gt;Node17</title>
<path fill="none" stroke="midnightblue" d="M757.68,-617.55C754.19,-673.16 735.89,-829.52 640,-894.5 567.52,-943.62 526.06,-922.19 443,-894.5 424.03,-888.18 424.9,-876.43 407,-867.5 400.05,-864.03 392.64,-860.9 385.09,-858.09"/>
<polygon fill="midnightblue" stroke="midnightblue" points="761.19,-617.45 758.22,-607.28 754.2,-617.08 761.19,-617.45"/>
</g>
<!-- Node18 -->
<g id="node18" class="node">
<title>Node18</title>
<g id="a_node18"><a xlink:href="classdenoptim_1_1fragspace_1_1_fragment_space.html#a31408bedecb5c73e7af157fcaee4d2dd" target="_top" xlink:title="Returns a newly&#45;built vertex that can play the role of a ring&#45;closing vertex even when working with 3...">
<polygon fill="white" stroke="black" points="469,-854.5 469,-884.5 614,-884.5 614,-854.5 469,-854.5"/>
<text text-anchor="start" x="477" y="-872.5" font-family="Helvetica,sans-Serif" font-size="10.00">denoptim.fragspace.Fragment</text>
<text text-anchor="middle" x="541.5" y="-861.5" font-family="Helvetica,sans-Serif" font-size="10.00">Space.getPolarizedRCV</text>
</a>
</g>
</g>
<!-- Node1&#45;&gt;Node18 -->
<g id="edge17" class="edge">
<title>Node1&#45;&gt;Node18</title>
<path fill="none" stroke="midnightblue" d="M755,-617.28C745.55,-664.5 715.05,-784.42 640,-845.5 632.43,-851.66 623.5,-856.28 614.18,-859.73"/>
<polygon fill="midnightblue" stroke="midnightblue" points="758.49,-617.63 756.91,-607.15 751.61,-616.33 758.49,-617.63"/>
</g>
<!-- Node19 -->
<g id="node19" class="node">
<title>Node19</title>
<g id="a_node19"><a xlink:href="classdenoptim_1_1graph_1_1_fragment_test.html#a198cffde4134eecf80f3eba650efc5ba" target="_top" xlink:title=" ">
<polygon fill="white" stroke="black" points="455.5,-805.5 455.5,-835.5 627.5,-835.5 627.5,-805.5 455.5,-805.5"/>
<text text-anchor="start" x="463.5" y="-823.5" font-family="Helvetica,sans-Serif" font-size="10.00">denoptim.graph.FragmentTest.make</text>
<text text-anchor="middle" x="541.5" y="-812.5" font-family="Helvetica,sans-Serif" font-size="10.00">Fragment</text>
</a>
</g>
</g>
<!-- Node1&#45;&gt;Node19 -->
<g id="edge18" class="edge">
<title>Node1&#45;&gt;Node19</title>
<path fill="none" stroke="midnightblue" d="M752.65,-616.86C739.49,-656.98 703.64,-749.36 640,-796.5 635.38,-799.92 630.33,-802.86 625.03,-805.39"/>
<polygon fill="midnightblue" stroke="midnightblue" points="756.02,-617.81 755.7,-607.22 749.35,-615.7 756.02,-617.81"/>
</g>
<!-- Node23 -->
<g id="node23" class="node">
<title>Node23</title>
<g id="a_node23"><a xlink:href="classdenoptim_1_1graph_1_1_fragment_test.html#a8bff8b7d1c409ddc9a55707f4e67f427" target="_top" xlink:title=" ">
<polygon fill="white" stroke="black" points="455.5,-1370.5 455.5,-1400.5 627.5,-1400.5 627.5,-1370.5 455.5,-1370.5"/>
<text text-anchor="start" x="463.5" y="-1388.5" font-family="Helvetica,sans-Serif" font-size="10.00">denoptim.graph.FragmentTest.make</text>
<text text-anchor="middle" x="541.5" y="-1377.5" font-family="Helvetica,sans-Serif" font-size="10.00">FragmentA</text>
</a>
</g>
</g>
<!-- Node1&#45;&gt;Node23 -->
<g id="edge22" class="edge">
<title>Node1&#45;&gt;Node23</title>
<path fill="none" stroke="midnightblue" d="M756.95,-617.48C748.81,-719 708.7,-1177.79 640,-1300.5 623,-1330.87 590.84,-1355.63 568.11,-1370.43"/>
<polygon fill="midnightblue" stroke="midnightblue" points="760.45,-617.61 757.75,-607.37 753.47,-617.06 760.45,-617.61"/>
</g>
<!-- Node27 -->
<g id="node27" class="node">
<title>Node27</title>
<g id="a_node27"><a xlink:href="classdenoptim_1_1graph_1_1_fragment_test.html#ae2ae980f38f76b7681a4e967d4cbdb4f" target="_top" xlink:title="Differs from the fragment produced by makeFragmentA() only by the identity of one atom.">
<polygon fill="white" stroke="black" points="455.5,-1260.5 455.5,-1290.5 627.5,-1290.5 627.5,-1260.5 455.5,-1260.5"/>
<text text-anchor="start" x="463.5" y="-1278.5" font-family="Helvetica,sans-Serif" font-size="10.00">denoptim.graph.FragmentTest.make</text>
<text text-anchor="middle" x="541.5" y="-1267.5" font-family="Helvetica,sans-Serif" font-size="10.00">FragmentB</text>
</a>
</g>
</g>
<!-- Node1&#45;&gt;Node27 -->
<g id="edge27" class="edge">
<title>Node1&#45;&gt;Node27</title>
<path fill="none" stroke="midnightblue" d="M756.75,-617.24C749.84,-688.8 720.86,-940.35 640,-1129.5 617.72,-1181.63 576.34,-1235.08 555.38,-1260.41"/>
<polygon fill="midnightblue" stroke="midnightblue" points="760.26,-617.28 757.7,-607 753.29,-616.64 760.26,-617.28"/>
</g>
<!-- Node28 -->
<g id="node28" class="node">
<title>Node28</title>
<g id="a_node28"><a xlink:href="classdenoptim_1_1graph_1_1_fragment_test.html#a63f6f06d84a8b731e131034a8e24c238" target="_top" xlink:title="Differs from the fragment produced by makeFragmentA() only by the one APCLass.">
<polygon fill="white" stroke="black" points="455.5,-1089.5 455.5,-1119.5 627.5,-1119.5 627.5,-1089.5 455.5,-1089.5"/>
<text text-anchor="start" x="463.5" y="-1107.5" font-family="Helvetica,sans-Serif" font-size="10.00">denoptim.graph.FragmentTest.make</text>
<text text-anchor="middle" x="541.5" y="-1096.5" font-family="Helvetica,sans-Serif" font-size="10.00">FragmentC</text>
</a>
</g>
</g>
<!-- Node1&#45;&gt;Node28 -->
<g id="edge29" class="edge">
<title>Node1&#45;&gt;Node28</title>
<path fill="none" stroke="midnightblue" d="M758.56,-617.43C757.75,-685.33 746.76,-911.03 640,-1049.5 626.12,-1067.51 604.56,-1080.54 585.24,-1089.39"/>
<polygon fill="midnightblue" stroke="midnightblue" points="762.06,-617.3 758.61,-607.28 755.06,-617.26 762.06,-617.3"/>
</g>
<!-- Node29 -->
<g id="node29" class="node">
<title>Node29</title>
<g id="a_node29"><a xlink:href="classdenoptim_1_1graph_1_1_fragment_isomorphism_inspector_test.html#acb9a03612c6166cb98bb92587213b4a4" target="_top" xlink:title=" ">
<polygon fill="white" stroke="black" points="443,-756.5 443,-786.5 640,-786.5 640,-756.5 443,-756.5"/>
<text text-anchor="start" x="451" y="-774.5" font-family="Helvetica,sans-Serif" font-size="10.00">denoptim.graph.FragmentIsomorphism</text>
<text text-anchor="middle" x="541.5" y="-763.5" font-family="Helvetica,sans-Serif" font-size="10.00">InspectorTest.makePathologicalFragment</text>
</a>
</g>
</g>
<!-- Node1&#45;&gt;Node29 -->
<g id="edge31" class="edge">
<title>Node1&#45;&gt;Node29</title>
<path fill="none" stroke="midnightblue" d="M749.13,-616.18C732.03,-648.26 692.63,-713.63 640,-747.5 634.72,-750.9 629,-753.81 623.07,-756.31"/>
<polygon fill="midnightblue" stroke="midnightblue" points="752.38,-617.5 753.88,-607.02 746.17,-614.28 752.38,-617.5"/>
</g>
<!-- Node31 -->
<g id="node31" class="node">
<title>Node31</title>
<g id="a_node31"><a xlink:href="classdenoptim_1_1io_1_1_denoptim_i_o_test.html#a7710e822a7212af405b83c4693ace410" target="_top" xlink:title=" ">
<polygon fill="white" stroke="black" points="462.5,-707.5 462.5,-737.5 620.5,-737.5 620.5,-707.5 462.5,-707.5"/>
<text text-anchor="start" x="470.5" y="-725.5" font-family="Helvetica,sans-Serif" font-size="10.00">denoptim.io.DenoptimIOTest.test</text>
<text text-anchor="middle" x="541.5" y="-714.5" font-family="Helvetica,sans-Serif" font-size="10.00">AppendToJSON</text>
</a>
</g>
</g>
<!-- Node1&#45;&gt;Node31 -->
<g id="edge33" class="edge">
<title>Node1&#45;&gt;Node31</title>
<path fill="none" stroke="midnightblue" d="M743.16,-614.54C722.08,-636.91 681.98,-675.86 640,-697.5 632.54,-701.34 624.46,-704.62 616.24,-707.42"/>
<polygon fill="midnightblue" stroke="midnightblue" points="745.81,-616.83 750.03,-607.11 740.67,-612.08 745.81,-616.83"/>
</g>
<!-- Node32 -->
<g id="node32" class="node">
<title>Node32</title>
<g id="a_node32"><a xlink:href="classdenoptim_1_1graph_1_1_vertex_test.html#ab36c441c57e9852e2be6d810d80fbc87" target="_top" xlink:title=" ">
<polygon fill="white" stroke="black" points="466,-658.5 466,-688.5 617,-688.5 617,-658.5 466,-658.5"/>
<text text-anchor="start" x="474" y="-676.5" font-family="Helvetica,sans-Serif" font-size="10.00">denoptim.graph.VertexTest.test</text>
<text text-anchor="middle" x="541.5" y="-665.5" font-family="Helvetica,sans-Serif" font-size="10.00">Clone</text>
</a>
</g>
</g>
<!-- Node1&#45;&gt;Node32 -->
<g id="edge34" class="edge">
<title>Node1&#45;&gt;Node32</title>
<path fill="none" stroke="midnightblue" d="M729.61,-611.44C705.92,-622.5 671.3,-637.82 640,-648.5 629.41,-652.11 618.03,-655.48 606.9,-658.5"/>
<polygon fill="midnightblue" stroke="midnightblue" points="731.19,-614.56 738.74,-607.13 728.21,-608.23 731.19,-614.56"/>
</g>
<!-- Node33 -->
<g id="node33" class="node">
<title>Node33</title>
<g id="a_node33"><a xlink:href="classdenoptim_1_1graph_1_1_attachment_point_test.html#afb83fb2ca67c9375f299a24ca787b9c7" target="_top" xlink:title=" ">
<polygon fill="white" stroke="black" points="444,-609.5 444,-639.5 639,-639.5 639,-609.5 444,-609.5"/>
<text text-anchor="start" x="452" y="-627.5" font-family="Helvetica,sans-Serif" font-size="10.00">denoptim.graph.Attachment</text>
<text text-anchor="middle" x="541.5" y="-616.5" font-family="Helvetica,sans-Serif" font-size="10.00">PointTest.testConstructorsAndSDFString</text>
</a>
</g>
</g>
<!-- Node1&#45;&gt;Node33 -->
<g id="edge35" class="edge">
<title>Node1&#45;&gt;Node33</title>
<path fill="none" stroke="midnightblue" d="M672.41,-608.26C661.48,-609.63 650.24,-611.03 639.16,-612.42"/>
<polygon fill="midnightblue" stroke="midnightblue" points="672.86,-611.73 682.35,-607.02 671.99,-604.79 672.86,-611.73"/>
</g>
<!-- Node34 -->
<g id="node34" class="node">
<title>Node34</title>
<g id="a_node34"><a xlink:href="classdenoptim_1_1graph_1_1_attachment_point_test.html#a582ae9ff2fcac313e9041b51f6d3bf70" target="_top" xlink:title=" ">
<polygon fill="white" stroke="black" points="444,-550 444,-591 639,-591 639,-550 444,-550"/>
<text text-anchor="start" x="452" y="-579" font-family="Helvetica,sans-Serif" font-size="10.00">denoptim.graph.Attachment</text>
<text text-anchor="start" x="452" y="-568" font-family="Helvetica,sans-Serif" font-size="10.00">PointTest.testConstructorsAndSDFString</text>
<text text-anchor="middle" x="541.5" y="-557" font-family="Helvetica,sans-Serif" font-size="10.00">NoDirVec</text>
</a>
</g>
</g>
<!-- Node1&#45;&gt;Node34 -->
<g id="edge36" class="edge">
<title>Node1&#45;&gt;Node34</title>
<path fill="none" stroke="midnightblue" d="M672.41,-586.74C661.48,-585.37 650.24,-583.97 639.16,-582.58"/>
<polygon fill="midnightblue" stroke="midnightblue" points="671.99,-590.21 682.35,-587.98 672.86,-583.27 671.99,-590.21"/>
</g>
<!-- Node35 -->
<g id="node35" class="node">
<title>Node35</title>
<g id="a_node35"><a xlink:href="classdenoptim_1_1molecularmodeling_1_1_three_dim_tree_builder_test.html#a1aea42a3aa474b25c0edc4541509f8f7" target="_top" xlink:title=" ">
<polygon fill="white" stroke="black" points="444,-490 444,-531 639,-531 639,-490 444,-490"/>
<text text-anchor="start" x="452" y="-519" font-family="Helvetica,sans-Serif" font-size="10.00">denoptim.molecularmodeling.</text>
<text text-anchor="start" x="452" y="-508" font-family="Helvetica,sans-Serif" font-size="10.00">ThreeDimTreeBuilderTest.testConversion</text>
<text text-anchor="middle" x="541.5" y="-497" font-family="Helvetica,sans-Serif" font-size="10.00">To3dTree</text>
</a>
</g>
</g>
<!-- Node1&#45;&gt;Node35 -->
<g id="edge37" class="edge">
<title>Node1&#45;&gt;Node35</title>
<path fill="none" stroke="midnightblue" d="M731.74,-583.2C708.05,-570.89 672.32,-553.16 640,-540.5 631.59,-537.21 622.66,-534.03 613.75,-531.06"/>
<polygon fill="midnightblue" stroke="midnightblue" points="730.32,-586.41 740.8,-587.95 733.57,-580.21 730.32,-586.41"/>
</g>
<!-- Node36 -->
<g id="node36" class="node">
<title>Node36</title>
<g id="a_node36"><a xlink:href="classdenoptim_1_1graph_1_1_fragment_test.html#a12552fabbb6c8af399da78f10279fce2" target="_top" xlink:title=" ">
<polygon fill="white" stroke="black" points="459.5,-441.5 459.5,-471.5 623.5,-471.5 623.5,-441.5 459.5,-441.5"/>
<text text-anchor="start" x="467.5" y="-459.5" font-family="Helvetica,sans-Serif" font-size="10.00">denoptim.graph.FragmentTest.test</text>
<text text-anchor="middle" x="541.5" y="-448.5" font-family="Helvetica,sans-Serif" font-size="10.00">ConversionToIAC</text>
</a>
</g>
</g>
<!-- Node1&#45;&gt;Node36 -->
<g id="edge38" class="edge">
<title>Node1&#45;&gt;Node36</title>
<path fill="none" stroke="midnightblue" d="M745.61,-579.71C725.86,-553.8 685.59,-506.01 640,-480.5 633.84,-477.05 627.19,-474.09 620.35,-471.56"/>
<polygon fill="midnightblue" stroke="midnightblue" points="742.92,-581.96 751.71,-587.89 748.53,-577.78 742.92,-581.96"/>
</g>
<!-- Node37 -->
<g id="node37" class="node">
<title>Node37</title>
<g id="a_node37"><a xlink:href="classdenoptim_1_1ga_1_1_graph_operations_test.html#a2b8d6293663bce9a9da1d35efe31911b" target="_top" xlink:title=" ">
<polygon fill="white" stroke="black" points="469,-392.5 469,-422.5 614,-422.5 614,-392.5 469,-392.5"/>
<text text-anchor="start" x="477" y="-410.5" font-family="Helvetica,sans-Serif" font-size="10.00">denoptim.ga.GraphOperations</text>
<text text-anchor="middle" x="541.5" y="-399.5" font-family="Helvetica,sans-Serif" font-size="10.00">Test.testExtendGraph</text>
</a>
</g>
</g>
<!-- Node1&#45;&gt;Node37 -->
<g id="edge39" class="edge">
<title>Node1&#45;&gt;Node37</title>
<path fill="none" stroke="midnightblue" d="M750.34,-578.29C734.47,-543.36 696.03,-469.51 640,-431.5 632.14,-426.17 623.2,-422.02 614.01,-418.79"/>
<polygon fill="midnightblue" stroke="midnightblue" points="747.3,-580.07 754.53,-587.8 753.7,-577.24 747.3,-580.07"/>
</g>
<!-- Node38 -->
<g id="node38" class="node">
<title>Node38</title>
<g id="a_node38"><a xlink:href="classdenoptim_1_1fragspace_1_1_fragment_space_test.html#a342092d5d542a9e50e81c73aa931b223" target="_top" xlink:title=" ">
<polygon fill="white" stroke="black" points="453.5,-343.5 453.5,-373.5 629.5,-373.5 629.5,-343.5 453.5,-343.5"/>
<text text-anchor="start" x="461.5" y="-361.5" font-family="Helvetica,sans-Serif" font-size="10.00">denoptim.fragspace.Fragment</text>
<text text-anchor="middle" x="541.5" y="-350.5" font-family="Helvetica,sans-Serif" font-size="10.00">SpaceTest.testGetRCVsForAPClass</text>
</a>
</g>
</g>
<!-- Node1&#45;&gt;Node38 -->
<g id="edge40" class="edge">
<title>Node1&#45;&gt;Node38</title>
<path fill="none" stroke="midnightblue" d="M753.54,-578.07C741.64,-535.6 707.37,-434.16 640,-382.5 635.57,-379.11 630.73,-376.18 625.64,-373.67"/>
<polygon fill="midnightblue" stroke="midnightblue" points="750.22,-579.22 756.2,-587.97 756.98,-577.4 750.22,-579.22"/>
</g>
<!-- Node39 -->
<g id="node39" class="node">
<title>Node39</title>
<g id="a_node39"><a xlink:href="classdenoptim_1_1fragspace_1_1_fragment_space_test.html#ac722cc2d3eff673746ba6c3eba3cace3" target="_top" xlink:title=" ">
<polygon fill="white" stroke="black" points="450.5,-294.5 450.5,-324.5 632.5,-324.5 632.5,-294.5 450.5,-294.5"/>
<text text-anchor="start" x="458.5" y="-312.5" font-family="Helvetica,sans-Serif" font-size="10.00">denoptim.fragspace.Fragment</text>
<text text-anchor="middle" x="541.5" y="-301.5" font-family="Helvetica,sans-Serif" font-size="10.00">SpaceTest.testGetRCVsWithAPClass</text>
</a>
</g>
</g>
<!-- Node1&#45;&gt;Node39 -->
<g id="edge41" class="edge">
<title>Node1&#45;&gt;Node39</title>
<path fill="none" stroke="midnightblue" d="M755.63,-577.78C747.38,-528.52 718.93,-399.32 640,-333.5 635.85,-330.04 631.28,-327.06 626.44,-324.51"/>
<polygon fill="midnightblue" stroke="midnightblue" points="752.19,-578.44 757.2,-587.77 759.1,-577.35 752.19,-578.44"/>
</g>
<!-- Node40 -->
<g id="node40" class="node">
<title>Node40</title>
<g id="a_node40"><a xlink:href="classdenoptim_1_1graph_1_1_fragment_test.html#a6494b234f01c4cf298d123dc59e047d6" target="_top" xlink:title=" ">
<polygon fill="white" stroke="black" points="459.5,-245.5 459.5,-275.5 623.5,-275.5 623.5,-245.5 459.5,-245.5"/>
<text text-anchor="start" x="467.5" y="-263.5" font-family="Helvetica,sans-Serif" font-size="10.00">denoptim.graph.FragmentTest.test</text>
<text text-anchor="middle" x="541.5" y="-252.5" font-family="Helvetica,sans-Serif" font-size="10.00">HandlingAPsAsObjOrProperty</text>
</a>
</g>
</g>
<!-- Node1&#45;&gt;Node40 -->
<g id="edge42" class="edge">
<title>Node1&#45;&gt;Node40</title>
<path fill="none" stroke="midnightblue" d="M757.15,-577.6C752.28,-522.18 730.74,-364.91 640,-284.5 635.17,-280.22 629.7,-276.68 623.88,-273.75"/>
<polygon fill="midnightblue" stroke="midnightblue" points="753.68,-578.12 757.95,-587.81 760.66,-577.57 753.68,-578.12"/>
</g>
<!-- Node41 -->
<g id="node41" class="node">
<title>Node41</title>
<g id="a_node41"><a xlink:href="classdenoptim_1_1graph_1_1_attachment_point_test.html#af88d30ce68477984fe6179325d1540b2" target="_top" xlink:title=" ">
<polygon fill="white" stroke="black" points="451.5,-196.5 451.5,-226.5 631.5,-226.5 631.5,-196.5 451.5,-196.5"/>
<text text-anchor="start" x="459.5" y="-214.5" font-family="Helvetica,sans-Serif" font-size="10.00">denoptim.graph.Attachment</text>
<text text-anchor="middle" x="541.5" y="-203.5" font-family="Helvetica,sans-Serif" font-size="10.00">PointTest.testHasConnectedSrcAtom</text>
</a>
</g>
</g>
<!-- Node1&#45;&gt;Node41 -->
<g id="edge43" class="edge">
<title>Node1&#45;&gt;Node41</title>
<path fill="none" stroke="midnightblue" d="M758.32,-577.82C756.64,-517.09 742.93,-330.99 640,-235.5 636.29,-232.06 632.18,-229.09 627.79,-226.54"/>
<polygon fill="midnightblue" stroke="midnightblue" points="754.82,-578.01 758.51,-587.94 761.82,-577.87 754.82,-578.01"/>
</g>
<!-- Node42 -->
<g id="node42" class="node">
<title>Node42</title>
<g id="a_node42"><a xlink:href="classdenoptim_1_1graph_1_1_attachment_point_test.html#a4889032266eb87d0f91af8b4e9869360" target="_top" xlink:title=" ">
<polygon fill="white" stroke="black" points="462,-147.5 462,-177.5 621,-177.5 621,-147.5 462,-147.5"/>
<text text-anchor="start" x="470" y="-165.5" font-family="Helvetica,sans-Serif" font-size="10.00">denoptim.graph.Attachment</text>
<text text-anchor="middle" x="541.5" y="-154.5" font-family="Helvetica,sans-Serif" font-size="10.00">PointTest.testHasSameSrcAtom</text>
</a>
</g>
</g>
<!-- Node1&#45;&gt;Node42 -->
<g id="edge44" class="edge">
<title>Node1&#45;&gt;Node42</title>
<path fill="none" stroke="midnightblue" d="M759.22,-577.41C760.43,-511.07 754.89,-296.96 640,-186.5 634.6,-181.3 628.26,-177.18 621.45,-173.91"/>
<polygon fill="midnightblue" stroke="midnightblue" points="755.71,-577.62 758.95,-587.71 762.71,-577.8 755.71,-577.62"/>
</g>
<!-- Node43 -->
<g id="node43" class="node">
<title>Node43</title>
<g id="a_node43"><a xlink:href="classdenoptim_1_1io_1_1_denoptim_i_o_test.html#a92ea09ddfe9f40627e43ce087f160e12" target="_top" xlink:title=" ">
<polygon fill="white" stroke="black" points="462.5,-98.5 462.5,-128.5 620.5,-128.5 620.5,-98.5 462.5,-98.5"/>
<text text-anchor="start" x="470.5" y="-116.5" font-family="Helvetica,sans-Serif" font-size="10.00">denoptim.io.DenoptimIOTest.test</text>
<text text-anchor="middle" x="541.5" y="-105.5" font-family="Helvetica,sans-Serif" font-size="10.00">ReadAllAPClasses</text>
</a>
</g>
</g>
<!-- Node1&#45;&gt;Node43 -->
<g id="edge45" class="edge">
<title>Node1&#45;&gt;Node43</title>
<path fill="none" stroke="midnightblue" d="M756.11,-577.79C746.07,-498.18 704.82,-201.63 640,-137.5 634.42,-131.98 627.79,-127.66 620.66,-124.29"/>
<polygon fill="midnightblue" stroke="midnightblue" points="752.66,-578.41 757.36,-587.9 759.61,-577.55 752.66,-578.41"/>
</g>
<!-- Node44 -->
<g id="node44" class="node">
<title>Node44</title>
<g id="a_node44"><a xlink:href="classdenoptim_1_1graph_1_1_d_graph_test.html#a42ea1a0adbc30b78070c3096171094a9" target="_top" xlink:title=" ">
<polygon fill="white" stroke="black" points="463.5,-49.5 463.5,-79.5 619.5,-79.5 619.5,-49.5 463.5,-49.5"/>
<text text-anchor="start" x="471.5" y="-67.5" font-family="Helvetica,sans-Serif" font-size="10.00">denoptim.graph.DGraphTest.test</text>
<text text-anchor="middle" x="541.5" y="-56.5" font-family="Helvetica,sans-Serif" font-size="10.00">RemoveUnusedRCVs</text>
</a>
</g>
</g>
<!-- Node1&#45;&gt;Node44 -->
<g id="edge46" class="edge">
<title>Node1&#45;&gt;Node44</title>
<path fill="none" stroke="midnightblue" d="M756.62,-577.62C748.16,-492.58 711.01,-160.41 640,-88.5 634.24,-82.67 627.31,-78.17 619.84,-74.71"/>
<polygon fill="midnightblue" stroke="midnightblue" points="753.15,-578.12 757.6,-587.73 760.12,-577.44 753.15,-578.12"/>
</g>
<!-- Node45 -->
<g id="node45" class="node">
<title>Node45</title>
<g id="a_node45"><a xlink:href="classdenoptim_1_1graph_1_1_attachment_point_test.html#ab3ec3ba7ebaaa69204c2368187a01f6f" target="_top" xlink:title=" ">
<polygon fill="white" stroke="black" points="474,-0.5 474,-30.5 609,-30.5 609,-0.5 474,-0.5"/>
<text text-anchor="start" x="482" y="-18.5" font-family="Helvetica,sans-Serif" font-size="10.00">denoptim.graph.Attachment</text>
<text text-anchor="middle" x="541.5" y="-7.5" font-family="Helvetica,sans-Serif" font-size="10.00">PointTest.testSortAPs</text>
</a>
</g>
</g>
<!-- Node1&#45;&gt;Node45 -->
<g id="edge47" class="edge">
<title>Node1&#45;&gt;Node45</title>
<path fill="none" stroke="midnightblue" d="M757.04,-577.47C750.07,-487.21 717.22,-119.24 640,-39.5 631.63,-30.86 620.69,-25.13 609.17,-21.38"/>
<polygon fill="midnightblue" stroke="midnightblue" points="753.57,-577.98 757.81,-587.69 760.55,-577.46 753.57,-577.98"/>
</g>
<!-- Node3 -->
<g id="node3" class="node">
<title>Node3</title>
<g id="a_node3"><a xlink:href="classdenoptim_1_1gui_1_1_g_u_i_vertex_inspector.html#acadecc92299a7ea46113c06382a1f333" target="_top" xlink:title="Initialize the panel and add buttons.">
<polygon fill="white" stroke="black" points="204,-1616 204,-1635 401,-1635 401,-1616 204,-1616"/>
<text text-anchor="middle" x="302.5" y="-1623" font-family="Helvetica,sans-Serif" font-size="10.00">denoptim.gui.GUIVertexInspector.initialize</text>
</a>
</g>
</g>
<!-- Node2&#45;&gt;Node3 -->
<g id="edge2" class="edge">
<title>Node2&#45;&gt;Node3</title>
<path fill="none" stroke="midnightblue" d="M509.72,-1553.37C483.5,-1570.19 444.27,-1593.15 407,-1606.5 396.25,-1610.35 384.58,-1613.45 373.08,-1615.94"/>
<polygon fill="midnightblue" stroke="midnightblue" points="511.95,-1556.09 518.42,-1547.7 508.13,-1550.23 511.95,-1556.09"/>
</g>
<!-- Node5 -->
<g id="node5" class="node">
<title>Node5</title>
<g id="a_node5"><a xlink:href="classdenoptim_1_1ga_1_1_e_a_utils.html#a18eb5d0ba6772e9116176ef6ca9f84fc" target="_top" xlink:title="Converts a molecule into a DGraph by fragmentation and re&#45;assembling of the fragments.">
<polygon fill="white" stroke="black" points="225.5,-1566.5 225.5,-1596.5 379.5,-1596.5 379.5,-1566.5 225.5,-1566.5"/>
<text text-anchor="start" x="233.5" y="-1584.5" font-family="Helvetica,sans-Serif" font-size="10.00">denoptim.ga.EAUtils.make</text>
<text text-anchor="middle" x="302.5" y="-1573.5" font-family="Helvetica,sans-Serif" font-size="10.00">GraphFromFragmentationOfMol</text>
</a>
</g>
</g>
<!-- Node2&#45;&gt;Node5 -->
<g id="edge4" class="edge">
<title>Node2&#45;&gt;Node5</title>
<path fill="none" stroke="midnightblue" d="M457.73,-1549.61C431.13,-1555.11 401.89,-1561.16 376.08,-1566.49"/>
<polygon fill="midnightblue" stroke="midnightblue" points="458.7,-1552.99 467.78,-1547.53 457.28,-1546.13 458.7,-1552.99"/>
</g>
<!-- Node6 -->
<g id="node6" class="node">
<title>Node6</title>
<g id="a_node6"><a xlink:href="classdenoptim_1_1fragmenter_1_1_fragmenter_tools.html#a82c4a82da2a3283a870a8c8af94f0a4e" target="_top" xlink:title="Management of fragments: includes application of fragment filters, rejection rules,...">
<polygon fill="white" stroke="black" points="222,-1517.5 222,-1547.5 383,-1547.5 383,-1517.5 222,-1517.5"/>
<text text-anchor="start" x="230" y="-1535.5" font-family="Helvetica,sans-Serif" font-size="10.00">denoptim.fragmenter.Fragmenter</text>
<text text-anchor="middle" x="302.5" y="-1524.5" font-family="Helvetica,sans-Serif" font-size="10.00">Tools.manageFragmentCollection</text>
</a>
</g>
</g>
<!-- Node2&#45;&gt;Node6 -->
<g id="edge5" class="edge">
<title>Node2&#45;&gt;Node6</title>
<path fill="none" stroke="midnightblue" d="M447.91,-1532.5C426.59,-1532.5 404.09,-1532.5 383.37,-1532.5"/>
<polygon fill="midnightblue" stroke="midnightblue" points="447.94,-1536 457.94,-1532.5 447.94,-1529 447.94,-1536"/>
</g>
<!-- Node7 -->
<g id="node7" class="node">
<title>Node7</title>
<g id="a_node7"><a xlink:href="classdenoptim_1_1graph_1_1_fragment_test.html#aa17f42b21847b022c3d7a87876e17717" target="_top" xlink:title=" ">
<polygon fill="white" stroke="black" points="220.5,-1468.5 220.5,-1498.5 384.5,-1498.5 384.5,-1468.5 220.5,-1468.5"/>
<text text-anchor="start" x="228.5" y="-1486.5" font-family="Helvetica,sans-Serif" font-size="10.00">denoptim.graph.FragmentTest.test</text>
<text text-anchor="middle" x="302.5" y="-1475.5" font-family="Helvetica,sans-Serif" font-size="10.00">IsomorphicInLinear</text>
</a>
</g>
</g>
<!-- Node2&#45;&gt;Node7 -->
<g id="edge6" class="edge">
<title>Node2&#45;&gt;Node7</title>
<path fill="none" stroke="midnightblue" d="M457.73,-1515.39C431.13,-1509.89 401.89,-1503.84 376.08,-1498.51"/>
<polygon fill="midnightblue" stroke="midnightblue" points="457.28,-1518.87 467.78,-1517.47 458.7,-1512.01 457.28,-1518.87"/>
</g>
<!-- Node4 -->
<g id="node4" class="node">
<title>Node4</title>
<g id="a_node4"><a xlink:href="classdenoptim_1_1gui_1_1_g_u_i_vertex_inspector.html#abc5d3c33ad9b2b114ce43e9b2cd577bb" target="_top" xlink:title="Constructor.">
<polygon fill="white" stroke="black" points="0,-1610.5 0,-1640.5 162,-1640.5 162,-1610.5 0,-1610.5"/>
<text text-anchor="start" x="8" y="-1628.5" font-family="Helvetica,sans-Serif" font-size="10.00">denoptim.gui.GUIVertexInspector.</text>
<text text-anchor="middle" x="81" y="-1617.5" font-family="Helvetica,sans-Serif" font-size="10.00">GUIVertexInspector</text>
</a>
</g>
</g>
<!-- Node3&#45;&gt;Node4 -->
<g id="edge3" class="edge">
<title>Node3&#45;&gt;Node4</title>
<path fill="none" stroke="midnightblue" d="M193.76,-1625.5C183.12,-1625.5 172.45,-1625.5 162.16,-1625.5"/>
<polygon fill="midnightblue" stroke="midnightblue" points="193.95,-1629 203.95,-1625.5 193.95,-1622 193.95,-1629"/>
</g>
<!-- Node9 -->
<g id="node9" class="node">
<title>Node9</title>
<g id="a_node9"><a xlink:href="classdenoptim_1_1fragspace_1_1_fragment_space_test.html#a6f2ce8f6a8319b39440b0dc43ede061f" target="_top" xlink:title="Check that the following graph&#39;s fused ring gets added to the fragment library.">
<polygon fill="white" stroke="black" points="198,-1262 198,-1303 407,-1303 407,-1262 198,-1262"/>
<text text-anchor="start" x="206" y="-1291" font-family="Helvetica,sans-Serif" font-size="10.00">denoptim.fragspace.Fragment</text>
<text text-anchor="start" x="206" y="-1280" font-family="Helvetica,sans-Serif" font-size="10.00">SpaceTest.testFusedRingAddedToFragment</text>
<text text-anchor="middle" x="302.5" y="-1269" font-family="Helvetica,sans-Serif" font-size="10.00">Library</text>
</a>
</g>
</g>
<!-- Node8&#45;&gt;Node9 -->
<g id="edge8" class="edge">
<title>Node8&#45;&gt;Node9</title>
<path fill="none" stroke="midnightblue" d="M488.56,-1044.06C471.7,-1052.81 454.42,-1064.77 443,-1080.5 397.12,-1143.7 460.09,-1195.22 407,-1252.5 403.82,-1255.93 400.27,-1258.98 396.47,-1261.68"/>
<polygon fill="midnightblue" stroke="midnightblue" points="490.39,-1047.06 497.84,-1039.52 487.32,-1040.77 490.39,-1047.06"/>
</g>
<!-- Node10 -->
<g id="node10" class="node">
<title>Node10</title>
<g id="a_node10"><a xlink:href="classdenoptim_1_1fragspace_1_1_fragment_space_test.html#a56ef448997df677c5ce4a73737f127e2" target="_top" xlink:title="Checks that a graph with a fused ring containing a scaffold vertex is added to the scaffold library.">
<polygon fill="white" stroke="black" points="201,-1202 201,-1243 404,-1243 404,-1202 201,-1202"/>
<text text-anchor="start" x="209" y="-1231" font-family="Helvetica,sans-Serif" font-size="10.00">denoptim.fragspace.Fragment</text>
<text text-anchor="start" x="209" y="-1220" font-family="Helvetica,sans-Serif" font-size="10.00">SpaceTest.testFusedRingAddedToScaffold</text>
<text text-anchor="middle" x="302.5" y="-1209" font-family="Helvetica,sans-Serif" font-size="10.00">Library</text>
</a>
</g>
</g>
<!-- Node8&#45;&gt;Node10 -->
<g id="edge9" class="edge">
<title>Node8&#45;&gt;Node10</title>
<path fill="none" stroke="midnightblue" d="M490.3,-1044.29C473.26,-1053.14 455.41,-1065.12 443,-1080.5 409.9,-1121.52 444.92,-1156.89 407,-1193.5 403.78,-1196.61 400.25,-1199.39 396.5,-1201.88"/>
<polygon fill="midnightblue" stroke="midnightblue" points="492.21,-1047.24 499.64,-1039.69 489.12,-1040.96 492.21,-1047.24"/>
</g>
<!-- Node11 -->
<g id="node11" class="node">
<title>Node11</title>
<g id="a_node11"><a xlink:href="classdenoptim_1_1fragspace_1_1_fragment_space_test.html#a7555fcdf60b6fabae0c95844f351fc6f" target="_top" xlink:title=" ">
<polygon fill="white" stroke="black" points="202.5,-1153.5 202.5,-1183.5 402.5,-1183.5 402.5,-1153.5 202.5,-1153.5"/>
<text text-anchor="start" x="210.5" y="-1171.5" font-family="Helvetica,sans-Serif" font-size="10.00">denoptim.fragspace.Fragment</text>
<text text-anchor="middle" x="302.5" y="-1160.5" font-family="Helvetica,sans-Serif" font-size="10.00">SpaceTest.testFusedRingOnlyAddedOnce</text>
</a>
</g>
</g>
<!-- Node8&#45;&gt;Node11 -->
<g id="edge10" class="edge">
<title>Node8&#45;&gt;Node11</title>
<path fill="none" stroke="midnightblue" d="M494.95,-1044.18C477.26,-1053.38 457.74,-1065.62 443,-1080.5 420.03,-1103.68 433.12,-1124.93 407,-1144.5 402.42,-1147.93 397.44,-1150.88 392.21,-1153.42"/>
<polygon fill="midnightblue" stroke="midnightblue" points="496.63,-1047.25 504,-1039.64 493.49,-1040.99 496.63,-1047.25"/>
</g>
<!-- Node12 -->
<g id="node12" class="node">
<title>Node12</title>
<g id="a_node12"><a xlink:href="classdenoptim_1_1fragspace_1_1_fragment_space_test.html#ae884d9d970bc9d561dad00bf0c20b4b5" target="_top" xlink:title=" ">
<polygon fill="white" stroke="black" points="210,-1094 210,-1135 395,-1135 395,-1094 210,-1094"/>
<text text-anchor="start" x="218" y="-1123" font-family="Helvetica,sans-Serif" font-size="10.00">denoptim.fragspace.Fragment</text>
<text text-anchor="start" x="218" y="-1112" font-family="Helvetica,sans-Serif" font-size="10.00">SpaceTest.testGetFragAPsCompatible</text>
<text text-anchor="middle" x="302.5" y="-1101" font-family="Helvetica,sans-Serif" font-size="10.00">WithClass</text>
</a>
</g>
</g>
<!-- Node8&#45;&gt;Node12 -->
<g id="edge11" class="edge">
<title>Node8&#45;&gt;Node12</title>
<path fill="none" stroke="midnightblue" d="M501.02,-1044.01C474.76,-1056.54 439.29,-1072.63 407,-1084.5 398.04,-1087.79 388.55,-1090.96 379.09,-1093.93"/>
<polygon fill="midnightblue" stroke="midnightblue" points="502.76,-1047.05 510.25,-1039.56 499.72,-1040.74 502.76,-1047.05"/>
</g>
<!-- Node13 -->
<g id="node13" class="node">
<title>Node13</title>
<g id="a_node13"><a xlink:href="classdenoptim_1_1fragspace_1_1_fragment_space_test.html#a2ba7718688486212e987638aef444bad" target="_top" xlink:title=" ">
<polygon fill="white" stroke="black" points="210,-1034 210,-1075 395,-1075 395,-1034 210,-1034"/>
<text text-anchor="start" x="218" y="-1063" font-family="Helvetica,sans-Serif" font-size="10.00">denoptim.fragspace.Fragment</text>
<text text-anchor="start" x="218" y="-1052" font-family="Helvetica,sans-Serif" font-size="10.00">SpaceTest.testGetFragAPsCompatible</text>
<text text-anchor="middle" x="302.5" y="-1041" font-family="Helvetica,sans-Serif" font-size="10.00">WithTheseAPs</text>
</a>
</g>
</g>
<!-- Node8&#45;&gt;Node13 -->
<g id="edge12" class="edge">
<title>Node8&#45;&gt;Node13</title>
<path fill="none" stroke="midnightblue" d="M453.73,-1035.48C434.66,-1037.9 414.41,-1040.46 395.16,-1042.9"/>
<polygon fill="midnightblue" stroke="midnightblue" points="454.4,-1038.93 463.88,-1034.2 453.52,-1031.98 454.4,-1038.93"/>
</g>
<!-- Node14 -->
<g id="node14" class="node">
<title>Node14</title>
<g id="a_node14"><a xlink:href="classdenoptim_1_1fragspace_1_1_fragment_space_test.html#ab95d03f36f68718eb1cc11fac188401f" target="_top" xlink:title=" ">
<polygon fill="white" stroke="black" points="205.5,-974 205.5,-1015 399.5,-1015 399.5,-974 205.5,-974"/>
<text text-anchor="start" x="213.5" y="-1003" font-family="Helvetica,sans-Serif" font-size="10.00">denoptim.fragspace.Fragment</text>
<text text-anchor="start" x="213.5" y="-992" font-family="Helvetica,sans-Serif" font-size="10.00">SpaceTest.testGetFragmentsCompatible</text>
<text text-anchor="middle" x="302.5" y="-981" font-family="Helvetica,sans-Serif" font-size="10.00">WithTheseAPs</text>
</a>
</g>
</g>
<!-- Node8&#45;&gt;Node14 -->
<g id="edge13" class="edge">
<title>Node8&#45;&gt;Node14</title>
<path fill="none" stroke="midnightblue" d="M453.69,-1013.51C436.16,-1011.29 417.63,-1008.95 399.8,-1006.69"/>
<polygon fill="midnightblue" stroke="midnightblue" points="453.52,-1017.02 463.88,-1014.8 454.4,-1010.07 453.52,-1017.02"/>
</g>
<!-- Node15 -->
<g id="node15" class="node">
<title>Node15</title>
<g id="a_node15"><a xlink:href="classdenoptim_1_1fragspace_1_1_fragment_space_test.html#a7179e27179c0bbe5a8ae101a9aa8e3d8" target="_top" xlink:title=" ">
<polygon fill="white" stroke="black" points="212,-925.5 212,-955.5 393,-955.5 393,-925.5 212,-925.5"/>
<text text-anchor="start" x="220" y="-943.5" font-family="Helvetica,sans-Serif" font-size="10.00">denoptim.fragspace.Fragment</text>
<text text-anchor="middle" x="302.5" y="-932.5" font-family="Helvetica,sans-Serif" font-size="10.00">SpaceTest.testGetFragsWithAPClass</text>
</a>
</g>
</g>
<!-- Node8&#45;&gt;Node15 -->
<g id="edge14" class="edge">
<title>Node8&#45;&gt;Node15</title>
<path fill="none" stroke="midnightblue" d="M502.25,-1004.91C475.98,-992.06 440.03,-975.63 407,-964.5 397.21,-961.2 386.75,-958.2 376.39,-955.52"/>
<polygon fill="midnightblue" stroke="midnightblue" points="500.95,-1008.17 511.47,-1009.47 504.06,-1001.9 500.95,-1008.17"/>
</g>
<!-- Node16 -->
<g id="node16" class="node">
<title>Node16</title>
<g id="a_node16"><a xlink:href="classdenoptim_1_1fragspace_1_1_fragment_space_test.html#ab364422886eee4ba289a703f83b0ef1b" target="_top" xlink:title=" ">
<polygon fill="white" stroke="black" points="230,-876.5 230,-906.5 375,-906.5 375,-876.5 230,-876.5"/>
<text text-anchor="start" x="238" y="-894.5" font-family="Helvetica,sans-Serif" font-size="10.00">denoptim.fragspace.Fragment</text>
<text text-anchor="middle" x="302.5" y="-883.5" font-family="Helvetica,sans-Serif" font-size="10.00">SpaceTest.testSymmetry</text>
</a>
</g>
</g>
<!-- Node8&#45;&gt;Node16 -->
<g id="edge15" class="edge">
<title>Node8&#45;&gt;Node16</title>
<path fill="none" stroke="midnightblue" d="M519.39,-1002.3C494.72,-977.67 451.57,-938.51 407,-916.5 397.05,-911.59 386.09,-907.61 375.12,-904.39"/>
<polygon fill="midnightblue" stroke="midnightblue" points="516.92,-1004.78 526.43,-1009.44 521.9,-999.86 516.92,-1004.78"/>
</g>
<!-- Node8&#45;&gt;Node17 -->
<g id="edge16" class="edge">
<title>Node8&#45;&gt;Node17</title>
<path fill="none" stroke="midnightblue" d="M515.12,-1002.5C494.35,-983.77 464.93,-955.51 443,-927.5 423.83,-903.01 431.64,-886.47 407,-867.5 402.41,-863.96 397.41,-860.84 392.17,-858.09"/>
<polygon fill="midnightblue" stroke="midnightblue" points="512.83,-1005.15 522.62,-1009.19 517.49,-999.92 512.83,-1005.15"/>
</g>
<!-- Node20 -->
<g id="node20" class="node">
<title>Node20</title>
<g id="a_node20"><a xlink:href="classdenoptim_1_1graph_1_1_fragment_test.html#a0a98792d99861bb6673e66a76ff49d31" target="_top" xlink:title=" ">
<polygon fill="white" stroke="black" points="220.5,-768.5 220.5,-798.5 384.5,-798.5 384.5,-768.5 220.5,-768.5"/>
<text text-anchor="start" x="228.5" y="-786.5" font-family="Helvetica,sans-Serif" font-size="10.00">denoptim.graph.FragmentTest.test</text>
<text text-anchor="middle" x="302.5" y="-775.5" font-family="Helvetica,sans-Serif" font-size="10.00">Clone</text>
</a>
</g>
</g>
<!-- Node19&#45;&gt;Node20 -->
<g id="edge19" class="edge">
<title>Node19&#45;&gt;Node20</title>
<path fill="none" stroke="midnightblue" d="M445.22,-805.62C425.2,-802.5 404.26,-799.23 384.8,-796.19"/>
<polygon fill="midnightblue" stroke="midnightblue" points="444.85,-809.11 455.27,-807.19 445.93,-802.19 444.85,-809.11"/>
</g>
<!-- Node21 -->
<g id="node21" class="node">
<title>Node21</title>
<g id="a_node21"><a xlink:href="classdenoptim_1_1io_1_1_denoptim_i_o_test.html#afa1376c9ab452a7e75cdf00489be1e07" target="_top" xlink:title=" ">
<polygon fill="white" stroke="black" points="223.5,-719.5 223.5,-749.5 381.5,-749.5 381.5,-719.5 223.5,-719.5"/>
<text text-anchor="start" x="231.5" y="-737.5" font-family="Helvetica,sans-Serif" font-size="10.00">denoptim.io.DenoptimIOTest.test</text>
<text text-anchor="middle" x="302.5" y="-726.5" font-family="Helvetica,sans-Serif" font-size="10.00">IOMolFragment</text>
</a>
</g>
</g>
<!-- Node19&#45;&gt;Node21 -->
<g id="edge20" class="edge">
<title>Node19&#45;&gt;Node21</title>
<path fill="none" stroke="midnightblue" d="M453.01,-801.61C449.57,-800.04 446.21,-798.34 443,-796.5 423.09,-785.1 426.93,-770.86 407,-759.5 399.13,-755.01 390.48,-751.33 381.64,-748.3"/>
<polygon fill="midnightblue" stroke="midnightblue" points="451.74,-804.88 462.32,-805.48 454.43,-798.41 451.74,-804.88"/>
</g>
<!-- Node22 -->
<g id="node22" class="node">
<title>Node22</title>
<g id="a_node22"><a xlink:href="classdenoptim_1_1json_1_1_d_e_n_o_p_t_i_mgson_test.html#ac2186d67581bef7c19379247af6672d6" target="_top" xlink:title=" ">
<polygon fill="white" stroke="black" points="207,-670.5 207,-700.5 398,-700.5 398,-670.5 207,-670.5"/>
<text text-anchor="start" x="215" y="-688.5" font-family="Helvetica,sans-Serif" font-size="10.00">denoptim.json.DENOPTIMgson</text>
<text text-anchor="middle" x="302.5" y="-677.5" font-family="Helvetica,sans-Serif" font-size="10.00">Test.testMolecularFragmentSerialization</text>
</a>
</g>
</g>
<!-- Node19&#45;&gt;Node22 -->
<g id="edge21" class="edge">
<title>Node19&#45;&gt;Node22</title>
<path fill="none" stroke="midnightblue" d="M447.24,-799.84C445.78,-798.78 444.37,-797.67 443,-796.5 411.52,-769.56 438.54,-737.37 407,-710.5 402.5,-706.66 397.5,-703.4 392.21,-700.61"/>
<polygon fill="midnightblue" stroke="midnightblue" points="445.67,-802.99 455.99,-805.36 449.4,-797.07 445.67,-802.99"/>
</g>
<!-- Node23&#45;&gt;Node7 -->
<g id="edge24" class="edge">
<title>Node23&#45;&gt;Node7</title>
<path fill="none" stroke="midnightblue" d="M509.08,-1406.22C482.77,-1422.74 443.73,-1445.38 407,-1459.5 398.22,-1462.88 388.83,-1465.86 379.42,-1468.47"/>
<polygon fill="midnightblue" stroke="midnightblue" points="511.27,-1408.97 517.83,-1400.65 507.51,-1403.07 511.27,-1408.97"/>
</g>
<!-- Node24 -->
<g id="node24" class="node">
<title>Node24</title>
<g id="a_node24"><a xlink:href="classdenoptim_1_1graph_1_1_symmetric_a_ps_test.html#a9425bd6d6e87f4d8ff966498564a3633" target="_top" xlink:title=" ">
<polygon fill="white" stroke="black" points="229.5,-1419.5 229.5,-1449.5 375.5,-1449.5 375.5,-1419.5 229.5,-1419.5"/>
<text text-anchor="start" x="237.5" y="-1437.5" font-family="Helvetica,sans-Serif" font-size="10.00">denoptim.graph.Symmetric</text>
<text text-anchor="middle" x="302.5" y="-1426.5" font-family="Helvetica,sans-Serif" font-size="10.00">APsTest.testGetSameAsThis</text>
</a>
</g>
</g>
<!-- Node23&#45;&gt;Node24 -->
<g id="edge23" class="edge">
<title>Node23&#45;&gt;Node24</title>
<path fill="none" stroke="midnightblue" d="M457.68,-1402.62C430.96,-1408.15 401.57,-1414.22 375.67,-1419.58"/>
<polygon fill="midnightblue" stroke="midnightblue" points="458.7,-1405.99 467.78,-1400.53 457.28,-1399.13 458.7,-1405.99"/>
</g>
<!-- Node25 -->
<g id="node25" class="node">
<title>Node25</title>
<g id="a_node25"><a xlink:href="classdenoptim_1_1graph_1_1_fragment_test.html#af49cc0e35c38f683bfc3d332210d1124" target="_top" xlink:title=" ">
<polygon fill="white" stroke="black" points="220.5,-1321.5 220.5,-1351.5 384.5,-1351.5 384.5,-1321.5 220.5,-1321.5"/>
<text text-anchor="start" x="228.5" y="-1339.5" font-family="Helvetica,sans-Serif" font-size="10.00">denoptim.graph.FragmentTest.test</text>
<text text-anchor="middle" x="302.5" y="-1328.5" font-family="Helvetica,sans-Serif" font-size="10.00">IsomorphicTo</text>
</a>
</g>
</g>
<!-- Node23&#45;&gt;Node25 -->
<g id="edge25" class="edge">
<title>Node23&#45;&gt;Node25</title>
<path fill="none" stroke="midnightblue" d="M457.73,-1368.39C431.13,-1362.89 401.89,-1356.84 376.08,-1351.51"/>
<polygon fill="midnightblue" stroke="midnightblue" points="457.28,-1371.87 467.78,-1370.47 458.7,-1365.01 457.28,-1371.87"/>
</g>
<!-- Node26 -->
<g id="node26" class="node">
<title>Node26</title>
<g id="a_node26"><a xlink:href="classdenoptim_1_1graph_1_1_symmetric_a_ps_test.html#a90b0920db91160f9d8f797d5167e39de" target="_top" xlink:title=" ">
<polygon fill="white" stroke="black" points="237,-1370.5 237,-1400.5 368,-1400.5 368,-1370.5 237,-1370.5"/>
<text text-anchor="start" x="245" y="-1388.5" font-family="Helvetica,sans-Serif" font-size="10.00">denoptim.graph.Symmetric</text>
<text text-anchor="middle" x="302.5" y="-1377.5" font-family="Helvetica,sans-Serif" font-size="10.00">APsTest.testSameAs</text>
</a>
</g>
</g>
<!-- Node23&#45;&gt;Node26 -->
<g id="edge26" class="edge">
<title>Node23&#45;&gt;Node26</title>
<path fill="none" stroke="midnightblue" d="M445.09,-1385.5C419.29,-1385.5 391.97,-1385.5 368.29,-1385.5"/>
<polygon fill="midnightblue" stroke="midnightblue" points="445.27,-1389 455.27,-1385.5 445.27,-1382 445.27,-1389"/>
</g>
<!-- Node27&#45;&gt;Node25 -->
<g id="edge28" class="edge">
<title>Node27&#45;&gt;Node25</title>
<path fill="none" stroke="midnightblue" d="M478.57,-1293.25C456.09,-1299.54 430.45,-1306.53 407,-1312.5 395.11,-1315.52 382.42,-1318.6 370.14,-1321.49"/>
<polygon fill="midnightblue" stroke="midnightblue" points="479.65,-1296.59 488.33,-1290.51 477.76,-1289.85 479.65,-1296.59"/>
</g>
<!-- Node28&#45;&gt;Node25 -->
<g id="edge30" class="edge">
<title>Node28&#45;&gt;Node25</title>
<path fill="none" stroke="midnightblue" d="M524.11,-1128.37C504.41,-1157.24 470.57,-1207.47 443,-1251.5 426.29,-1278.18 432.39,-1293.88 407,-1312.5 400.23,-1317.46 392.6,-1321.42 384.63,-1324.57"/>
<polygon fill="midnightblue" stroke="midnightblue" points="527.23,-1130.01 529.98,-1119.78 521.45,-1126.06 527.23,-1130.01"/>
</g>
<!-- Node30 -->
<g id="node30" class="node">
<title>Node30</title>
<g id="a_node30"><a xlink:href="classdenoptim_1_1graph_1_1_fragment_isomorphism_inspector_test.html#a06e7f03c86471b6a5b06ffcb5358d0cf" target="_top" xlink:title=" ">
<polygon fill="white" stroke="black" points="211.5,-621.5 211.5,-651.5 393.5,-651.5 393.5,-621.5 211.5,-621.5"/>
<text text-anchor="start" x="219.5" y="-639.5" font-family="Helvetica,sans-Serif" font-size="10.00">denoptim.graph.FragmentIsomorphism</text>
<text text-anchor="middle" x="302.5" y="-628.5" font-family="Helvetica,sans-Serif" font-size="10.00">InspectorTest.testTimeout</text>
</a>
</g>
</g>
<!-- Node29&#45;&gt;Node30 -->
<g id="edge32" class="edge">
<title>Node29&#45;&gt;Node30</title>
<path fill="none" stroke="midnightblue" d="M447.23,-750.85C445.78,-749.79 444.36,-748.67 443,-747.5 411.26,-720.23 438.92,-687.56 407,-660.5 402.92,-657.04 398.44,-654.06 393.69,-651.49"/>
<polygon fill="midnightblue" stroke="midnightblue" points="445.65,-754 455.98,-756.38 449.39,-748.08 445.65,-754"/>
</g>
</g>
</svg>
