<?xml version="1.0" encoding="UTF-8" standalone="no"?>
<!DOCTYPE svg PUBLIC "-//W3C//DTD SVG 1.1//EN"
 "http://www.w3.org/Graphics/SVG/1.1/DTD/svg11.dtd">
<!-- Generated by graphviz version 3.0.0 (20221109.1736)
 -->
<!-- Title: denoptim.graph.Fragment.Fragment Pages: 1 -->
<svg width="1154pt" height="816pt"
 viewBox="0.00 0.00 1154.00 816.00" xmlns="http://www.w3.org/2000/svg" xmlns:xlink="http://www.w3.org/1999/xlink">
<g id="graph0" class="graph" transform="scale(1 1) rotate(0) translate(4 812)">
<title>denoptim.graph.Fragment.Fragment</title>
<polygon fill="white" stroke="transparent" points="-4,4 -4,-812 1150,-812 1150,4 -4,4"/>
<!-- Node1 -->
<g id="node1" class="node">
<title>Node1</title>
<g id="a_node1"><a xlink:title="Constructor of an empty fragment.">
<polygon fill="#bfbfbf" stroke="black" points="1018,-366.5 1018,-396.5 1146,-396.5 1146,-366.5 1018,-366.5"/>
<text text-anchor="start" x="1026" y="-384.5" font-family="Helvetica,sans-Serif" font-size="10.00">denoptim.graph.Fragment.</text>
<text text-anchor="middle" x="1082" y="-373.5" font-family="Helvetica,sans-Serif" font-size="10.00">Fragment</text>
</a>
</g>
</g>
<!-- Node2 -->
<g id="node2" class="node">
<title>Node2</title>
<g id="a_node2"><a xlink:href="classdenoptim_1_1graph_1_1_fragment.html#a3b476687a392e637d2bf2f3b6ccb09a4" target="_top" xlink:title="Returns a deep copy of this fragments.">
<polygon fill="white" stroke="black" points="830,-394 830,-413 982,-413 982,-394 830,-394"/>
<text text-anchor="middle" x="906" y="-401" font-family="Helvetica,sans-Serif" font-size="10.00">denoptim.graph.Fragment.clone</text>
</a>
</g>
</g>
<!-- Node1&#45;&gt;Node2 -->
<g id="edge1" class="edge">
<title>Node1&#45;&gt;Node2</title>
<path fill="none" stroke="midnightblue" d="M1007.53,-390.79C999.12,-391.85 990.53,-392.94 982.09,-394.01"/>
<polygon fill="midnightblue" stroke="midnightblue" points="1008.21,-394.23 1017.69,-389.5 1007.33,-387.29 1008.21,-394.23"/>
</g>
<!-- Node25 -->
<g id="node25" class="node">
<title>Node25</title>
<g id="a_node25"><a xlink:href="classdenoptim_1_1graph_1_1_fragment.html#a58818a8ad99db167934420283484a5f7" target="_top" xlink:title="Checks for isomorphism of the graph representation of this and another fragment.">
<polygon fill="white" stroke="black" points="838,-344.5 838,-374.5 974,-374.5 974,-344.5 838,-344.5"/>
<text text-anchor="start" x="846" y="-362.5" font-family="Helvetica,sans-Serif" font-size="10.00">denoptim.graph.Fragment.is</text>
<text text-anchor="middle" x="906" y="-351.5" font-family="Helvetica,sans-Serif" font-size="10.00">IsomorphicTo</text>
</a>
</g>
</g>
<!-- Node1&#45;&gt;Node25 -->
<g id="edge26" class="edge">
<title>Node1&#45;&gt;Node25</title>
<path fill="none" stroke="midnightblue" d="M1007.59,-372.22C996.47,-370.81 985.05,-369.37 974.07,-367.98"/>
<polygon fill="midnightblue" stroke="midnightblue" points="1007.33,-375.71 1017.69,-373.5 1008.21,-368.77 1007.33,-375.71"/>
</g>
<!-- Node2&#45;&gt;Node2 -->
<g id="edge2" class="edge">
<title>Node2&#45;&gt;Node2</title>
<path fill="none" stroke="midnightblue" d="M938.98,-421.39C938.5,-427.04 927.51,-431.5 906,-431.5 874.72,-431.5 865.68,-422.07 878.87,-413.26"/>
<polygon fill="midnightblue" stroke="midnightblue" points="941.81,-419.33 933.13,-413.26 936.13,-423.42 941.81,-419.33"/>
</g>
<!-- Node3 -->
<g id="node3" class="node">
<title>Node3</title>
<g id="a_node3"><a xlink:href="classdenoptim_1_1fragmenter_1_1_fragmenter_tools.html#a38e4793ebca03b3cbda4f035580620b7" target="_top" xlink:title="Chops one chemical structure by applying the given fragmentation templates.">
<polygon fill="white" stroke="black" points="618,-777.5 618,-807.5 775,-807.5 775,-777.5 618,-777.5"/>
<text text-anchor="start" x="626" y="-795.5" font-family="Helvetica,sans-Serif" font-size="10.00">denoptim.fragmenter.Fragmenter</text>
<text text-anchor="middle" x="696.5" y="-784.5" font-family="Helvetica,sans-Serif" font-size="10.00">Tools.fragmentation</text>
</a>
</g>
</g>
<!-- Node2&#45;&gt;Node3 -->
<g id="edge3" class="edge">
<title>Node2&#45;&gt;Node3</title>
<path fill="none" stroke="midnightblue" d="M905.25,-423.2C904.91,-484 895.27,-670.44 794,-767.5 788.5,-772.77 782.04,-776.97 775.12,-780.3"/>
<polygon fill="midnightblue" stroke="midnightblue" points="908.75,-423.06 905.23,-413.07 901.75,-423.08 908.75,-423.06"/>
</g>
<!-- Node4 -->
<g id="node4" class="node">
<title>Node4</title>
<g id="a_node4"><a xlink:href="classdenoptim_1_1fragmenter_1_1_clusterable_fragment.html#a1e02c5f6054d5764ff597bd12337345a" target="_top" xlink:title=" ">
<polygon fill="white" stroke="black" points="618.5,-728.5 618.5,-758.5 774.5,-758.5 774.5,-728.5 618.5,-728.5"/>
<text text-anchor="start" x="626.5" y="-746.5" font-family="Helvetica,sans-Serif" font-size="10.00">denoptim.fragmenter.Clusterable</text>
<text text-anchor="middle" x="696.5" y="-735.5" font-family="Helvetica,sans-Serif" font-size="10.00">Fragment.getTransformedCopy</text>
</a>
</g>
</g>
<!-- Node2&#45;&gt;Node4 -->
<g id="edge4" class="edge">
<title>Node2&#45;&gt;Node4</title>
<path fill="none" stroke="midnightblue" d="M904.16,-423.44C900.7,-478.97 883.12,-636.67 794,-718.5 788.39,-723.65 781.86,-727.77 774.89,-731.06"/>
<polygon fill="midnightblue" stroke="midnightblue" points="907.67,-423.38 904.7,-413.2 900.68,-423 907.67,-423.38"/>
</g>
<!-- Node11 -->
<g id="node11" class="node">
<title>Node11</title>
<g id="a_node11"><a xlink:href="classdenoptim_1_1graph_1_1rings_1_1_ring_size_manager_test.html#ac3efa7ffa90ffbdb876e8489054b02af" target="_top" xlink:title="Build a graph meant to be used in unit tests.">
<polygon fill="white" stroke="black" points="611,-679.5 611,-709.5 782,-709.5 782,-679.5 611,-679.5"/>
<text text-anchor="start" x="619" y="-697.5" font-family="Helvetica,sans-Serif" font-size="10.00">denoptim.graph.rings.Ring</text>
<text text-anchor="middle" x="696.5" y="-686.5" font-family="Helvetica,sans-Serif" font-size="10.00">SizeManagerTest.makeTestGraphA</text>
</a>
</g>
</g>
<!-- Node2&#45;&gt;Node11 -->
<g id="edge12" class="edge">
<title>Node2&#45;&gt;Node11</title>
<path fill="none" stroke="midnightblue" d="M902.72,-423.28C895.95,-472.7 871.33,-602.43 794,-669.5 789.55,-673.36 784.59,-676.63 779.32,-679.4"/>
<polygon fill="midnightblue" stroke="midnightblue" points="906.21,-423.62 904,-413.26 899.26,-422.73 906.21,-423.62"/>
</g>
<!-- Node12 -->
<g id="node12" class="node">
<title>Node12</title>
<g id="a_node12"><a xlink:href="classdenoptim_1_1ga_1_1_graph_operations_test.html#af86b79061d15a4d2e3d7ccdf0d758f44" target="_top" xlink:title=" ">
<polygon fill="white" stroke="black" points="624,-630.5 624,-660.5 769,-660.5 769,-630.5 624,-630.5"/>
<text text-anchor="start" x="632" y="-648.5" font-family="Helvetica,sans-Serif" font-size="10.00">denoptim.ga.GraphOperations</text>
<text text-anchor="middle" x="696.5" y="-637.5" font-family="Helvetica,sans-Serif" font-size="10.00">Test.testAddRing</text>
</a>
</g>
</g>
<!-- Node2&#45;&gt;Node12 -->
<g id="edge13" class="edge">
<title>Node2&#45;&gt;Node12</title>
<path fill="none" stroke="midnightblue" d="M900.74,-423.02C890.39,-465.72 859.77,-567.78 794,-620.5 786.71,-626.35 778.2,-630.84 769.31,-634.29"/>
<polygon fill="midnightblue" stroke="midnightblue" points="904.2,-423.61 903.04,-413.08 897.38,-422.03 904.2,-423.61"/>
</g>
<!-- Node13 -->
<g id="node13" class="node">
<title>Node13</title>
<g id="a_node13"><a xlink:href="classdenoptim_1_1graph_1_1_fragment_test.html#a0a98792d99861bb6673e66a76ff49d31" target="_top" xlink:title=" ">
<polygon fill="white" stroke="black" points="614.5,-581.5 614.5,-611.5 778.5,-611.5 778.5,-581.5 614.5,-581.5"/>
<text text-anchor="start" x="622.5" y="-599.5" font-family="Helvetica,sans-Serif" font-size="10.00">denoptim.graph.FragmentTest.test</text>
<text text-anchor="middle" x="696.5" y="-588.5" font-family="Helvetica,sans-Serif" font-size="10.00">Clone</text>
</a>
</g>
</g>
<!-- Node2&#45;&gt;Node13 -->
<g id="edge14" class="edge">
<title>Node2&#45;&gt;Node13</title>
<path fill="none" stroke="midnightblue" d="M897.72,-422.87C883.46,-458.1 848.4,-532.65 794,-571.5 788.65,-575.32 782.76,-578.56 776.61,-581.3"/>
<polygon fill="midnightblue" stroke="midnightblue" points="901.09,-423.86 901.48,-413.27 894.57,-421.31 901.09,-423.86"/>
</g>
<!-- Node14 -->
<g id="node14" class="node">
<title>Node14</title>
<g id="a_node14"><a xlink:href="classdenoptim_1_1graph_1_1_vertex_test.html#ab36c441c57e9852e2be6d810d80fbc87" target="_top" xlink:title=" ">
<polygon fill="white" stroke="black" points="621,-532.5 621,-562.5 772,-562.5 772,-532.5 621,-532.5"/>
<text text-anchor="start" x="629" y="-550.5" font-family="Helvetica,sans-Serif" font-size="10.00">denoptim.graph.VertexTest.test</text>
<text text-anchor="middle" x="696.5" y="-539.5" font-family="Helvetica,sans-Serif" font-size="10.00">Clone</text>
</a>
</g>
</g>
<!-- Node2&#45;&gt;Node14 -->
<g id="edge15" class="edge">
<title>Node2&#45;&gt;Node14</title>
<path fill="none" stroke="midnightblue" d="M893.32,-421.72C875.31,-448.3 838.16,-497.38 794,-523.5 787.24,-527.5 779.83,-530.83 772.22,-533.62"/>
<polygon fill="midnightblue" stroke="midnightblue" points="896.48,-423.3 899.07,-413.03 890.64,-419.44 896.48,-423.3"/>
</g>
<!-- Node15 -->
<g id="node15" class="node">
<title>Node15</title>
<g id="a_node15"><a xlink:href="classdenoptim_1_1molecularmodeling_1_1_three_dim_tree_builder_test.html#a05bc0bc51bae9e72e7ca4c83e8528d55" target="_top" xlink:title=" ">
<polygon fill="white" stroke="black" points="599,-473 599,-514 794,-514 794,-473 599,-473"/>
<text text-anchor="start" x="607" y="-502" font-family="Helvetica,sans-Serif" font-size="10.00">denoptim.molecularmodeling.</text>
<text text-anchor="start" x="607" y="-491" font-family="Helvetica,sans-Serif" font-size="10.00">ThreeDimTreeBuilderTest.testConversion</text>
<text text-anchor="middle" x="696.5" y="-480" font-family="Helvetica,sans-Serif" font-size="10.00">To3dTreeWithDisconnectedGraphs</text>
</a>
</g>
</g>
<!-- Node2&#45;&gt;Node15 -->
<g id="edge16" class="edge">
<title>Node2&#45;&gt;Node15</title>
<path fill="none" stroke="midnightblue" d="M880.99,-418.25C858.94,-431.36 825.09,-450.41 794,-463.5 786.08,-466.84 777.65,-469.99 769.21,-472.92"/>
<polygon fill="midnightblue" stroke="midnightblue" points="882.9,-421.18 889.67,-413.03 879.29,-415.19 882.9,-421.18"/>
</g>
<!-- Node16 -->
<g id="node16" class="node">
<title>Node16</title>
<g id="a_node16"><a xlink:href="classdenoptim_1_1graph_1_1rings_1_1_path_closability_tools_test.html#af991094bf8c17599150d2e43ea582cf9" target="_top" xlink:title=" ">
<polygon fill="white" stroke="black" points="616,-413 616,-454 777,-454 777,-413 616,-413"/>
<text text-anchor="start" x="624" y="-442" font-family="Helvetica,sans-Serif" font-size="10.00">denoptim.graph.rings.Path</text>
<text text-anchor="start" x="624" y="-431" font-family="Helvetica,sans-Serif" font-size="10.00">ClosabilityToolsTest.testEvaluate</text>
<text text-anchor="middle" x="696.5" y="-420" font-family="Helvetica,sans-Serif" font-size="10.00">ConstitutionalClosability</text>
</a>
</g>
</g>
<!-- Node2&#45;&gt;Node16 -->
<g id="edge17" class="edge">
<title>Node2&#45;&gt;Node16</title>
<path fill="none" stroke="midnightblue" d="M828.73,-414.53C811.9,-416.96 794.04,-419.54 777.08,-421.99"/>
<polygon fill="midnightblue" stroke="midnightblue" points="829.66,-417.93 839.06,-413.03 828.66,-411 829.66,-417.93"/>
</g>
<!-- Node17 -->
<g id="node17" class="node">
<title>Node17</title>
<g id="a_node17"><a xlink:href="classdenoptim_1_1graph_1_1rings_1_1_random_comb_of_ring_iterator_test.html#a4a178f479d08c120f5fea6ef60feac8b" target="_top" xlink:title=" ">
<polygon fill="white" stroke="black" points="607,-353 607,-394 786,-394 786,-353 607,-353"/>
<text text-anchor="start" x="615" y="-382" font-family="Helvetica,sans-Serif" font-size="10.00">denoptim.graph.rings.Random</text>
<text text-anchor="start" x="615" y="-371" font-family="Helvetica,sans-Serif" font-size="10.00">CombOfRingIteratorTest.testEvaluate</text>
<text text-anchor="middle" x="696.5" y="-360" font-family="Helvetica,sans-Serif" font-size="10.00">ConstitutionalClosability</text>
</a>
</g>
</g>
<!-- Node2&#45;&gt;Node17 -->
<g id="edge18" class="edge">
<title>Node2&#45;&gt;Node17</title>
<path fill="none" stroke="midnightblue" d="M829.03,-392.52C815.05,-390.49 800.34,-388.37 786.03,-386.3"/>
<polygon fill="midnightblue" stroke="midnightblue" points="828.66,-396 839.06,-393.97 829.66,-389.07 828.66,-396"/>
</g>
<!-- Node18 -->
<g id="node18" class="node">
<title>Node18</title>
<g id="a_node18"><a xlink:href="classdenoptim_1_1graph_1_1rings_1_1_ring_size_manager_test.html#a55d1482a18edbaabf15b090392a282f3" target="_top" xlink:title=" ">
<polygon fill="white" stroke="black" points="603.5,-304.5 603.5,-334.5 789.5,-334.5 789.5,-304.5 603.5,-304.5"/>
<text text-anchor="start" x="611.5" y="-322.5" font-family="Helvetica,sans-Serif" font-size="10.00">denoptim.graph.rings.Ring</text>
<text text-anchor="middle" x="696.5" y="-311.5" font-family="Helvetica,sans-Serif" font-size="10.00">SizeManagerTest.testEvaluateRCVPair</text>
</a>
</g>
</g>
<!-- Node2&#45;&gt;Node18 -->
<g id="edge19" class="edge">
<title>Node2&#45;&gt;Node18</title>
<path fill="none" stroke="midnightblue" d="M843.88,-390.47C839.04,-388.47 834.34,-386.16 830,-383.5 809.6,-371.01 814.5,-355.81 794,-343.5 788.23,-340.03 781.98,-337.07 775.52,-334.53"/>
<polygon fill="midnightblue" stroke="midnightblue" points="842.75,-393.78 853.34,-393.97 845.18,-387.22 842.75,-393.78"/>
</g>
<!-- Node19 -->
<g id="node19" class="node">
<title>Node19</title>
<g id="a_node19"><a xlink:href="classdenoptim_1_1ga_1_1_graph_operations_test.html#a2b8d6293663bce9a9da1d35efe31911b" target="_top" xlink:title=" ">
<polygon fill="white" stroke="black" points="624,-255.5 624,-285.5 769,-285.5 769,-255.5 624,-255.5"/>
<text text-anchor="start" x="632" y="-273.5" font-family="Helvetica,sans-Serif" font-size="10.00">denoptim.ga.GraphOperations</text>
<text text-anchor="middle" x="696.5" y="-262.5" font-family="Helvetica,sans-Serif" font-size="10.00">Test.testExtendGraph</text>
</a>
</g>
</g>
<!-- Node2&#45;&gt;Node19 -->
<g id="edge20" class="edge">
<title>Node2&#45;&gt;Node19</title>
<path fill="none" stroke="midnightblue" d="M838,-389.38C835.16,-387.64 832.47,-385.69 830,-383.5 798.02,-355.25 826.22,-322.48 794,-294.5 786.83,-288.27 778.29,-283.62 769.29,-280.14"/>
<polygon fill="midnightblue" stroke="midnightblue" points="836.41,-392.49 846.9,-393.99 839.63,-386.28 836.41,-392.49"/>
</g>
<!-- Node20 -->
<g id="node20" class="node">
<title>Node20</title>
<g id="a_node20"><a xlink:href="classdenoptim_1_1fragmenter_1_1_conformer_extractor_task_test.html#a2dc64f375774087fc0b4511384f50bc9" target="_top" xlink:title=" ">
<polygon fill="white" stroke="black" points="599.5,-196 599.5,-237 793.5,-237 793.5,-196 599.5,-196"/>
<text text-anchor="start" x="607.5" y="-225" font-family="Helvetica,sans-Serif" font-size="10.00">denoptim.fragmenter.Conformer</text>
<text text-anchor="start" x="607.5" y="-214" font-family="Helvetica,sans-Serif" font-size="10.00">ExtractorTaskTest.testExtractClusterable</text>
<text text-anchor="middle" x="696.5" y="-203" font-family="Helvetica,sans-Serif" font-size="10.00">Fragments</text>
</a>
</g>
</g>
<!-- Node2&#45;&gt;Node20 -->
<g id="edge21" class="edge">
<title>Node2&#45;&gt;Node20</title>
<path fill="none" stroke="midnightblue" d="M836.05,-388.65C833.9,-387.09 831.87,-385.38 830,-383.5 785.3,-338.56 837.99,-291.14 794,-245.5 790.96,-242.35 787.6,-239.54 784.01,-237.03"/>
<polygon fill="midnightblue" stroke="midnightblue" points="834.47,-391.78 844.85,-393.9 838.06,-385.77 834.47,-391.78"/>
</g>
<!-- Node21 -->
<g id="node21" class="node">
<title>Node21</title>
<g id="a_node21"><a xlink:href="classdenoptim_1_1fragmenter_1_1_fragment_alignement_test.html#ad46b9a4324bb5b9bbfc08c73de0e1124" target="_top" xlink:title=" ">
<polygon fill="white" stroke="black" points="602.5,-147.5 602.5,-177.5 790.5,-177.5 790.5,-147.5 602.5,-147.5"/>
<text text-anchor="start" x="610.5" y="-165.5" font-family="Helvetica,sans-Serif" font-size="10.00">denoptim.fragmenter.Fragment</text>
<text text-anchor="middle" x="696.5" y="-154.5" font-family="Helvetica,sans-Serif" font-size="10.00">AlignementTest.testGetMinimumRMSD</text>
</a>
</g>
</g>
<!-- Node2&#45;&gt;Node21 -->
<g id="edge22" class="edge">
<title>Node2&#45;&gt;Node21</title>
<path fill="none" stroke="midnightblue" d="M835.16,-388.27C833.32,-386.82 831.6,-385.23 830,-383.5 769.63,-318.1 854.92,-251.39 794,-186.5 790.81,-183.1 787.22,-180.15 783.35,-177.6"/>
<polygon fill="midnightblue" stroke="midnightblue" points="833.5,-391.37 843.8,-393.85 837.29,-385.48 833.5,-391.37"/>
</g>
<!-- Node22 -->
<g id="node22" class="node">
<title>Node22</title>
<g id="a_node22"><a xlink:href="classdenoptim_1_1graph_1_1_attachment_point_test.html#af88d30ce68477984fe6179325d1540b2" target="_top" xlink:title=" ">
<polygon fill="white" stroke="black" points="606.5,-98.5 606.5,-128.5 786.5,-128.5 786.5,-98.5 606.5,-98.5"/>
<text text-anchor="start" x="614.5" y="-116.5" font-family="Helvetica,sans-Serif" font-size="10.00">denoptim.graph.Attachment</text>
<text text-anchor="middle" x="696.5" y="-105.5" font-family="Helvetica,sans-Serif" font-size="10.00">PointTest.testHasConnectedSrcAtom</text>
</a>
</g>
</g>
<!-- Node2&#45;&gt;Node22 -->
<g id="edge23" class="edge">
<title>Node2&#45;&gt;Node22</title>
<path fill="none" stroke="midnightblue" d="M835.08,-388.34C833.27,-386.87 831.57,-385.26 830,-383.5 756.5,-300.99 868.19,-219.38 794,-137.5 790.99,-134.17 787.59,-131.28 783.92,-128.75"/>
<polygon fill="midnightblue" stroke="midnightblue" points="833.37,-391.41 843.64,-393.99 837.22,-385.56 833.37,-391.41"/>
</g>
<!-- Node23 -->
<g id="node23" class="node">
<title>Node23</title>
<g id="a_node23"><a xlink:href="classdenoptim_1_1graph_1_1_attachment_point_test.html#a4889032266eb87d0f91af8b4e9869360" target="_top" xlink:title=" ">
<polygon fill="white" stroke="black" points="617,-49.5 617,-79.5 776,-79.5 776,-49.5 617,-49.5"/>
<text text-anchor="start" x="625" y="-67.5" font-family="Helvetica,sans-Serif" font-size="10.00">denoptim.graph.Attachment</text>
<text text-anchor="middle" x="696.5" y="-56.5" font-family="Helvetica,sans-Serif" font-size="10.00">PointTest.testHasSameSrcAtom</text>
</a>
</g>
</g>
<!-- Node2&#45;&gt;Node23 -->
<g id="edge24" class="edge">
<title>Node2&#45;&gt;Node23</title>
<path fill="none" stroke="midnightblue" d="M834.5,-387.95C832.9,-386.58 831.39,-385.1 830,-383.5 743.32,-283.83 881.51,-187.43 794,-88.5 788.97,-82.81 782.81,-78.37 776.07,-74.91"/>
<polygon fill="midnightblue" stroke="midnightblue" points="832.95,-391.13 843.18,-393.89 836.9,-385.36 832.95,-391.13"/>
</g>
<!-- Node24 -->
<g id="node24" class="node">
<title>Node24</title>
<g id="a_node24"><a xlink:href="classdenoptim_1_1graph_1_1_fragment_isomorphism_inspector_test.html#ac33b26784f254c873593368ccd717125" target="_top" xlink:title=" ">
<polygon fill="white" stroke="black" points="605.5,-0.5 605.5,-30.5 787.5,-30.5 787.5,-0.5 605.5,-0.5"/>
<text text-anchor="start" x="613.5" y="-18.5" font-family="Helvetica,sans-Serif" font-size="10.00">denoptim.graph.FragmentIsomorphism</text>
<text text-anchor="middle" x="696.5" y="-7.5" font-family="Helvetica,sans-Serif" font-size="10.00">InspectorTest.testIsomorphismExists</text>
</a>
</g>
</g>
<!-- Node2&#45;&gt;Node24 -->
<g id="edge25" class="edge">
<title>Node2&#45;&gt;Node24</title>
<path fill="none" stroke="midnightblue" d="M834.46,-387.98C832.87,-386.6 831.38,-385.11 830,-383.5 730.12,-266.64 894.86,-155.51 794,-39.5 791.05,-36.11 787.71,-33.17 784.08,-30.6"/>
<polygon fill="midnightblue" stroke="midnightblue" points="832.89,-391.15 843.1,-393.96 836.87,-385.39 832.89,-391.15"/>
</g>
<!-- Node5 -->
<g id="node5" class="node">
<title>Node5</title>
<g id="a_node5"><a xlink:href="classdenoptim_1_1fragmenter_1_1_fragment_clusterer.html#a1845241fead0bee7fd92feaf6d71e331" target="_top" xlink:title="Once the clustering is done, this method return the list of cluster centroids.">
<polygon fill="white" stroke="black" points="394,-728.5 394,-758.5 543,-758.5 543,-728.5 394,-728.5"/>
<text text-anchor="start" x="402" y="-746.5" font-family="Helvetica,sans-Serif" font-size="10.00">denoptim.fragmenter.Fragment</text>
<text text-anchor="middle" x="468.5" y="-735.5" font-family="Helvetica,sans-Serif" font-size="10.00">Clusterer.getClusterCentroids</text>
</a>
</g>
</g>
<!-- Node4&#45;&gt;Node5 -->
<g id="edge5" class="edge">
<title>Node4&#45;&gt;Node5</title>
<path fill="none" stroke="midnightblue" d="M608.27,-743.5C586.79,-743.5 564.01,-743.5 543.24,-743.5"/>
<polygon fill="midnightblue" stroke="midnightblue" points="608.36,-747 618.36,-743.5 608.36,-740 608.36,-747"/>
</g>
<!-- Node9 -->
<g id="node9" class="node">
<title>Node9</title>
<g id="a_node9"><a xlink:href="classdenoptim_1_1fragmenter_1_1_fragment_clusterer.html#aae37739ae959ab8a85bf01286c5a518e" target="_top" xlink:title="Once the clustering is done, this method return the list of fragments that are nearest to the respect...">
<polygon fill="white" stroke="black" points="374,-777.5 374,-807.5 563,-807.5 563,-777.5 374,-777.5"/>
<text text-anchor="start" x="382" y="-795.5" font-family="Helvetica,sans-Serif" font-size="10.00">denoptim.fragmenter.Fragment</text>
<text text-anchor="middle" x="468.5" y="-784.5" font-family="Helvetica,sans-Serif" font-size="10.00">Clusterer.getNearestToClusterCentroids</text>
</a>
</g>
</g>
<!-- Node4&#45;&gt;Node9 -->
<g id="edge9" class="edge">
<title>Node4&#45;&gt;Node9</title>
<path fill="none" stroke="midnightblue" d="M616.24,-760.69C590.96,-766.16 563.21,-772.18 538.71,-777.49"/>
<polygon fill="midnightblue" stroke="midnightblue" points="617.13,-764.07 626.16,-758.53 615.64,-757.23 617.13,-764.07"/>
</g>
<!-- Node10 -->
<g id="node10" class="node">
<title>Node10</title>
<g id="a_node10"><a xlink:href="classdenoptim_1_1fragmenter_1_1_clusterable_fragment_test.html#a30be40702849bf4781129bf3dabf88e8" target="_top" xlink:title=" ">
<polygon fill="white" stroke="black" points="374.5,-679.5 374.5,-709.5 562.5,-709.5 562.5,-679.5 374.5,-679.5"/>
<text text-anchor="start" x="382.5" y="-697.5" font-family="Helvetica,sans-Serif" font-size="10.00">denoptim.fragmenter.Clusterable</text>
<text text-anchor="middle" x="468.5" y="-686.5" font-family="Helvetica,sans-Serif" font-size="10.00">FragmentTest.testGetTransformedCopy</text>
</a>
</g>
</g>
<!-- Node4&#45;&gt;Node10 -->
<g id="edge11" class="edge">
<title>Node4&#45;&gt;Node10</title>
<path fill="none" stroke="midnightblue" d="M616.24,-726.31C590.96,-720.84 563.21,-714.82 538.71,-709.51"/>
<polygon fill="midnightblue" stroke="midnightblue" points="615.64,-729.77 626.16,-728.47 617.13,-722.93 615.64,-729.77"/>
</g>
<!-- Node6 -->
<g id="node6" class="node">
<title>Node6</title>
<g id="a_node6"><a xlink:href="classdenoptim_1_1fragmenter_1_1_conformer_extractor_task.html#aa21ebdf147f5bdb2685f9e775efd0b10" target="_top" xlink:title=" ">
<polygon fill="white" stroke="black" points="186,-777.5 186,-807.5 338,-807.5 338,-777.5 186,-777.5"/>
<text text-anchor="start" x="194" y="-795.5" font-family="Helvetica,sans-Serif" font-size="10.00">denoptim.fragmenter.Conformer</text>
<text text-anchor="middle" x="262" y="-784.5" font-family="Helvetica,sans-Serif" font-size="10.00">ExtractorTask.call</text>
</a>
</g>
</g>
<!-- Node5&#45;&gt;Node6 -->
<g id="edge6" class="edge">
<title>Node5&#45;&gt;Node6</title>
<path fill="none" stroke="midnightblue" d="M394.87,-760.9C372.24,-766.32 347.5,-772.25 325.63,-777.49"/>
<polygon fill="midnightblue" stroke="midnightblue" points="395.84,-764.27 404.75,-758.53 394.21,-757.46 395.84,-764.27"/>
</g>
<!-- Node8 -->
<g id="node8" class="node">
<title>Node8</title>
<g id="a_node8"><a xlink:href="classdenoptim_1_1fragmenter_1_1_fragment_clusterer_test.html#aa17925160f3f03080e8680c7016fc1c4" target="_top" xlink:title=" ">
<polygon fill="white" stroke="black" points="187.5,-728.5 187.5,-758.5 336.5,-758.5 336.5,-728.5 187.5,-728.5"/>
<text text-anchor="start" x="195.5" y="-746.5" font-family="Helvetica,sans-Serif" font-size="10.00">denoptim.fragmenter.Fragment</text>
<text text-anchor="middle" x="262" y="-735.5" font-family="Helvetica,sans-Serif" font-size="10.00">ClustererTest.testCluster</text>
</a>
</g>
</g>
<!-- Node5&#45;&gt;Node8 -->
<g id="edge8" class="edge">
<title>Node5&#45;&gt;Node8</title>
<path fill="none" stroke="midnightblue" d="M383.78,-743.5C368.13,-743.5 351.89,-743.5 336.57,-743.5"/>
<polygon fill="midnightblue" stroke="midnightblue" points="383.96,-747 393.96,-743.5 383.96,-740 383.96,-747"/>
</g>
<!-- Node7 -->
<g id="node7" class="node">
<title>Node7</title>
<g id="a_node7"><a xlink:href="classdenoptim_1_1programs_1_1fragmenter_1_1_fragmenter.html#aa27df9705e3aed34cc8cb8bc05e6ce85" target="_top" xlink:title=" ">
<polygon fill="white" stroke="black" points="0,-777.5 0,-807.5 150,-807.5 150,-777.5 0,-777.5"/>
<text text-anchor="start" x="8" y="-795.5" font-family="Helvetica,sans-Serif" font-size="10.00">denoptim.programs.fragmenter.</text>
<text text-anchor="middle" x="75" y="-784.5" font-family="Helvetica,sans-Serif" font-size="10.00">Fragmenter.runProgram</text>
</a>
</g>
</g>
<!-- Node6&#45;&gt;Node7 -->
<g id="edge7" class="edge">
<title>Node6&#45;&gt;Node7</title>
<path fill="none" stroke="midnightblue" d="M175.53,-792.5C167.1,-792.5 158.59,-792.5 150.28,-792.5"/>
<polygon fill="midnightblue" stroke="midnightblue" points="175.75,-796 185.75,-792.5 175.75,-789 175.75,-796"/>
</g>
<!-- Node9&#45;&gt;Node6 -->
<g id="edge10" class="edge">
<title>Node9&#45;&gt;Node6</title>
<path fill="none" stroke="midnightblue" d="M363.79,-792.5C355.14,-792.5 346.51,-792.5 338.14,-792.5"/>
<polygon fill="midnightblue" stroke="midnightblue" points="363.93,-796 373.93,-792.5 363.93,-789 363.93,-796"/>
</g>
</g>
</svg>
