<?xml version="1.0" encoding="UTF-8" standalone="no"?>
<!DOCTYPE svg PUBLIC "-//W3C//DTD SVG 1.1//EN"
 "http://www.w3.org/Graphics/SVG/1.1/DTD/svg11.dtd">
<!-- Generated by graphviz version 3.0.0 (20221109.1736)
 -->
<!-- Title: denoptim.fitness.DescriptorUtils.getAllClassNamesInPackage Pages: 1 -->
<svg width="1231pt" height="284pt"
 viewBox="0.00 0.00 1231.00 284.00" xmlns="http://www.w3.org/2000/svg" xmlns:xlink="http://www.w3.org/1999/xlink">
<g id="graph0" class="graph" transform="scale(1 1) rotate(0) translate(4 280)">
<title>denoptim.fitness.DescriptorUtils.getAllClassNamesInPackage</title>
<polygon fill="white" stroke="transparent" points="-4,4 -4,-280 1227,-280 1227,4 -4,4"/>
<!-- Node1 -->
<g id="node1" class="node">
<title>Node1</title>
<g id="a_node1"><a xlink:title="Search for packages in the class path and in the appended archives.">
<polygon fill="#bfbfbf" stroke="black" points="1056,-134.5 1056,-164.5 1223,-164.5 1223,-134.5 1056,-134.5"/>
<text text-anchor="start" x="1064" y="-152.5" font-family="Helvetica,sans-Serif" font-size="10.00">denoptim.fitness.Descriptor</text>
<text text-anchor="middle" x="1139.5" y="-141.5" font-family="Helvetica,sans-Serif" font-size="10.00">Utils.getAllClassNamesInPackage</text>
</a>
</g>
</g>
<!-- Node2 -->
<g id="node2" class="node">
<title>Node2</title>
<g id="a_node2"><a xlink:href="classdenoptim_1_1fitness_1_1_descriptor_utils.html#a1ca2050364309818fa51a7f49eb7ecd2" target="_top" xlink:title=" ">
<polygon fill="white" stroke="black" points="819.5,-98.5 819.5,-128.5 1009.5,-128.5 1009.5,-98.5 819.5,-98.5"/>
<text text-anchor="start" x="827.5" y="-116.5" font-family="Helvetica,sans-Serif" font-size="10.00">denoptim.fitness.Descriptor</text>
<text text-anchor="middle" x="914.5" y="-105.5" font-family="Helvetica,sans-Serif" font-size="10.00">Utils.getClassNamesToCDKDescriptors</text>
</a>
</g>
</g>
<!-- Node1&#45;&gt;Node2 -->
<g id="edge1" class="edge">
<title>Node1&#45;&gt;Node2</title>
<path fill="none" stroke="midnightblue" d="M1045.59,-134.5C1033.37,-132.53 1020.83,-130.5 1008.6,-128.53"/>
<polygon fill="midnightblue" stroke="midnightblue" points="1045.35,-138.01 1055.78,-136.15 1046.47,-131.1 1045.35,-138.01"/>
</g>
<!-- Node14 -->
<g id="node14" class="node">
<title>Node14</title>
<g id="a_node14"><a xlink:href="classdenoptim_1_1fitness_1_1_descriptor_utils.html#af01d235137411887b1053e89fd97775b" target="_top" xlink:title=" ">
<polygon fill="white" stroke="black" points="809,-171.5 809,-201.5 1020,-201.5 1020,-171.5 809,-171.5"/>
<text text-anchor="start" x="817" y="-189.5" font-family="Helvetica,sans-Serif" font-size="10.00">denoptim.fitness.Descriptor</text>
<text text-anchor="middle" x="914.5" y="-178.5" font-family="Helvetica,sans-Serif" font-size="10.00">Utils.getClassNamesToDenoptimDescriptors</text>
</a>
</g>
</g>
<!-- Node1&#45;&gt;Node14 -->
<g id="edge13" class="edge">
<title>Node1&#45;&gt;Node14</title>
<path fill="none" stroke="midnightblue" d="M1045.79,-164.88C1032.62,-167.07 1019.08,-169.31 1005.95,-171.49"/>
<polygon fill="midnightblue" stroke="midnightblue" points="1046.49,-168.31 1055.78,-163.22 1045.34,-161.41 1046.49,-168.31"/>
</g>
<!-- Node3 -->
<g id="node3" class="node">
<title>Node3</title>
<g id="a_node3"><a xlink:href="classdenoptim_1_1fitness_1_1_descriptor_utils.html#a83fbe159812be962183c264ddc5c54ea" target="_top" xlink:title="Searches for descriptor implementations in the CDK packages.">
<polygon fill="white" stroke="black" points="611.5,-98.5 611.5,-128.5 746.5,-128.5 746.5,-98.5 611.5,-98.5"/>
<text text-anchor="start" x="619.5" y="-116.5" font-family="Helvetica,sans-Serif" font-size="10.00">denoptim.fitness.Descriptor</text>
<text text-anchor="middle" x="679" y="-105.5" font-family="Helvetica,sans-Serif" font-size="10.00">Utils.findAllCDKDescriptors</text>
</a>
</g>
</g>
<!-- Node2&#45;&gt;Node3 -->
<g id="edge2" class="edge">
<title>Node2&#45;&gt;Node3</title>
<path fill="none" stroke="midnightblue" d="M809.17,-113.5C787.94,-113.5 766.16,-113.5 746.68,-113.5"/>
<polygon fill="midnightblue" stroke="midnightblue" points="809.2,-117 819.2,-113.5 809.2,-110 809.2,-117"/>
</g>
<!-- Node5 -->
<g id="node5" class="node">
<title>Node5</title>
<g id="a_node5"><a xlink:href="classdenoptim_1_1fitness_1_1_descriptor_utils.html#a8ba0703407e819bb2da20abf1d551641" target="_top" xlink:title="Searches for descriptor implementations.">
<polygon fill="white" stroke="black" points="588,-147.5 588,-177.5 770,-177.5 770,-147.5 588,-147.5"/>
<text text-anchor="start" x="596" y="-165.5" font-family="Helvetica,sans-Serif" font-size="10.00">denoptim.fitness.Descriptor</text>
<text text-anchor="middle" x="679" y="-154.5" font-family="Helvetica,sans-Serif" font-size="10.00">Utils.findAllDescriptorImplementations</text>
</a>
</g>
</g>
<!-- Node2&#45;&gt;Node5 -->
<g id="edge4" class="edge">
<title>Node2&#45;&gt;Node5</title>
<path fill="none" stroke="midnightblue" d="M831.95,-130.61C805.75,-136.11 776.94,-142.16 751.51,-147.49"/>
<polygon fill="midnightblue" stroke="midnightblue" points="832.79,-134.01 841.86,-128.53 831.35,-127.16 832.79,-134.01"/>
</g>
<!-- Node12 -->
<g id="node12" class="node">
<title>Node12</title>
<g id="a_node12"><a xlink:href="classdenoptim_1_1fitness_1_1_descriptor_utils.html#a1061bbb3c2f16c3b97f9945bfd1de8f4" target="_top" xlink:title="Makes an engine using CDK descriptors.">
<polygon fill="white" stroke="black" points="606,-0.5 606,-30.5 752,-30.5 752,-0.5 606,-0.5"/>
<text text-anchor="start" x="614" y="-18.5" font-family="Helvetica,sans-Serif" font-size="10.00">denoptim.fitness.Descriptor</text>
<text text-anchor="middle" x="679" y="-7.5" font-family="Helvetica,sans-Serif" font-size="10.00">Utils.getCDKDescriptorEngine</text>
</a>
</g>
</g>
<!-- Node2&#45;&gt;Node12 -->
<g id="edge11" class="edge">
<title>Node2&#45;&gt;Node12</title>
<path fill="none" stroke="midnightblue" d="M879.45,-93.14C851.59,-77.14 810.75,-55.18 773,-40.5 763.65,-36.86 753.58,-33.56 743.63,-30.63"/>
<polygon fill="midnightblue" stroke="midnightblue" points="877.98,-96.33 888.38,-98.32 881.49,-90.28 877.98,-96.33"/>
</g>
<!-- Node13 -->
<g id="node13" class="node">
<title>Node13</title>
<g id="a_node13"><a xlink:href="classdenoptim_1_1fitness_1_1_descriptor_utils_test.html#a0ba6dcaaef343801ba787465297003fd" target="_top" xlink:title=" ">
<polygon fill="white" stroke="black" points="597,-49.5 597,-79.5 761,-79.5 761,-49.5 597,-49.5"/>
<text text-anchor="start" x="605" y="-67.5" font-family="Helvetica,sans-Serif" font-size="10.00">denoptim.fitness.Descriptor</text>
<text text-anchor="middle" x="679" y="-56.5" font-family="Helvetica,sans-Serif" font-size="10.00">UtilsTest.testFindCDKDescriptors</text>
</a>
</g>
</g>
<!-- Node2&#45;&gt;Node13 -->
<g id="edge12" class="edge">
<title>Node2&#45;&gt;Node13</title>
<path fill="none" stroke="midnightblue" d="M831.95,-96.39C805.75,-90.89 776.94,-84.84 751.51,-79.51"/>
<polygon fill="midnightblue" stroke="midnightblue" points="831.35,-99.84 841.86,-98.47 832.79,-92.99 831.35,-99.84"/>
</g>
<!-- Node4 -->
<g id="node4" class="node">
<title>Node4</title>
<g id="a_node4"><a xlink:href="classdenoptim_1_1gui_1_1_fitness_parameters_form.html#a989880b9075bcb6124c36a444731b6a9" target="_top" xlink:title=" ">
<polygon fill="white" stroke="black" points="393,-196.5 393,-226.5 549,-226.5 549,-196.5 393,-196.5"/>
<text text-anchor="start" x="401" y="-214.5" font-family="Helvetica,sans-Serif" font-size="10.00">denoptim.gui.FitnessParameters</text>
<text text-anchor="middle" x="471" y="-203.5" font-family="Helvetica,sans-Serif" font-size="10.00">Form.FitnessParametersForm</text>
</a>
</g>
</g>
<!-- Node3&#45;&gt;Node4 -->
<g id="edge3" class="edge">
<title>Node3&#45;&gt;Node4</title>
<path fill="none" stroke="midnightblue" d="M601.67,-129.33C595.8,-131.94 590.16,-134.97 585,-138.5 562.69,-153.76 571,-171.81 549,-187.5 544.21,-190.92 538.92,-193.86 533.43,-196.39"/>
<polygon fill="midnightblue" stroke="midnightblue" points="603.05,-132.55 611.04,-125.58 600.45,-126.05 603.05,-132.55"/>
</g>
<!-- Node6 -->
<g id="node6" class="node">
<title>Node6</title>
<g id="a_node6"><a xlink:href="classdenoptim_1_1fitness_1_1_fitness_expression_parser.html#a761cd46875eff5864f29dbb7f353bde7" target="_top" xlink:title="Parses the given expressions.">
<polygon fill="white" stroke="black" points="410,-147.5 410,-177.5 532,-177.5 532,-147.5 410,-147.5"/>
<text text-anchor="start" x="418" y="-165.5" font-family="Helvetica,sans-Serif" font-size="10.00">denoptim.fitness.Fitness</text>
<text text-anchor="middle" x="471" y="-154.5" font-family="Helvetica,sans-Serif" font-size="10.00">ExpressionParser.parse</text>
</a>
</g>
</g>
<!-- Node5&#45;&gt;Node6 -->
<g id="edge5" class="edge">
<title>Node5&#45;&gt;Node6</title>
<path fill="none" stroke="midnightblue" d="M577.75,-162.5C562.19,-162.5 546.55,-162.5 532.24,-162.5"/>
<polygon fill="midnightblue" stroke="midnightblue" points="577.95,-166 587.95,-162.5 577.95,-159 577.95,-166"/>
</g>
<!-- Node7 -->
<g id="node7" class="node">
<title>Node7</title>
<g id="a_node7"><a xlink:href="classdenoptim_1_1fitness_1_1_fitness_parameters.html#a2ab06430e0d6c35625d03557520cf505" target="_top" xlink:title="Processes all parameters and initialize related objects.">
<polygon fill="white" stroke="black" points="203,-147.5 203,-177.5 357,-177.5 357,-147.5 203,-147.5"/>
<text text-anchor="start" x="211" y="-165.5" font-family="Helvetica,sans-Serif" font-size="10.00">denoptim.fitness.Fitness</text>
<text text-anchor="middle" x="280" y="-154.5" font-family="Helvetica,sans-Serif" font-size="10.00">Parameters.processParameters</text>
</a>
</g>
</g>
<!-- Node6&#45;&gt;Node7 -->
<g id="edge6" class="edge">
<title>Node6&#45;&gt;Node7</title>
<path fill="none" stroke="midnightblue" d="M399.54,-162.5C385.74,-162.5 371.19,-162.5 357.21,-162.5"/>
<polygon fill="midnightblue" stroke="midnightblue" points="399.94,-166 409.94,-162.5 399.94,-159 399.94,-166"/>
</g>
<!-- Node8 -->
<g id="node8" class="node">
<title>Node8</title>
<g id="a_node8"><a xlink:href="classdenoptim_1_1fitness_1_1_fitness_provider_test.html#a2272dbcf72c993b4544719ddf64c98b6" target="_top" xlink:title=" ">
<polygon fill="white" stroke="black" points="10.5,-229 10.5,-270 156.5,-270 156.5,-229 10.5,-229"/>
<text text-anchor="start" x="18.5" y="-258" font-family="Helvetica,sans-Serif" font-size="10.00">denoptim.fitness.Fitness</text>
<text text-anchor="start" x="18.5" y="-247" font-family="Helvetica,sans-Serif" font-size="10.00">ProviderTest.testGetConstant</text>
<text text-anchor="middle" x="83.5" y="-236" font-family="Helvetica,sans-Serif" font-size="10.00">Fitness</text>
</a>
</g>
</g>
<!-- Node7&#45;&gt;Node8 -->
<g id="edge7" class="edge">
<title>Node7&#45;&gt;Node8</title>
<path fill="none" stroke="midnightblue" d="M242.97,-182.25C221.27,-193.79 192.91,-208.24 167,-219.5 159.59,-222.72 151.71,-225.89 143.88,-228.9"/>
<polygon fill="midnightblue" stroke="midnightblue" points="244.67,-185.31 251.83,-177.51 241.36,-179.14 244.67,-185.31"/>
</g>
<!-- Node9 -->
<g id="node9" class="node">
<title>Node9</title>
<g id="a_node9"><a xlink:href="classdenoptim_1_1fitness_1_1_fitness_provider_test.html#ac3684e1e2969ee1c883ab279d4d5c048" target="_top" xlink:title="This test is reproducing most of what done in FitnessParametersTest#testProcessExpressions() so if bo...">
<polygon fill="white" stroke="black" points="4.5,-169 4.5,-210 162.5,-210 162.5,-169 4.5,-169"/>
<text text-anchor="start" x="12.5" y="-198" font-family="Helvetica,sans-Serif" font-size="10.00">denoptim.fitness.Fitness</text>
<text text-anchor="start" x="12.5" y="-187" font-family="Helvetica,sans-Serif" font-size="10.00">ProviderTest.testGetFitnessWith</text>
<text text-anchor="middle" x="83.5" y="-176" font-family="Helvetica,sans-Serif" font-size="10.00">ParametrizedDescriptors</text>
</a>
</g>
</g>
<!-- Node7&#45;&gt;Node9 -->
<g id="edge8" class="edge">
<title>Node7&#45;&gt;Node9</title>
<path fill="none" stroke="midnightblue" d="M192.97,-174.44C182.9,-175.84 172.68,-177.26 162.72,-178.64"/>
<polygon fill="midnightblue" stroke="midnightblue" points="193.54,-177.9 202.97,-173.05 192.58,-170.96 193.54,-177.9"/>
</g>
<!-- Node10 -->
<g id="node10" class="node">
<title>Node10</title>
<g id="a_node10"><a xlink:href="classdenoptim_1_1fitness_1_1_fitness_provider_test.html#a81954dc756c3f22356f01bdc0037e9f5" target="_top" xlink:title=" ">
<polygon fill="white" stroke="black" points="12,-120.5 12,-150.5 155,-150.5 155,-120.5 12,-120.5"/>
<text text-anchor="start" x="20" y="-138.5" font-family="Helvetica,sans-Serif" font-size="10.00">denoptim.fitness.Fitness</text>
<text text-anchor="middle" x="83.5" y="-127.5" font-family="Helvetica,sans-Serif" font-size="10.00">ProviderTest.testNaNFitness</text>
</a>
</g>
</g>
<!-- Node7&#45;&gt;Node10 -->
<g id="edge9" class="edge">
<title>Node7&#45;&gt;Node10</title>
<path fill="none" stroke="midnightblue" d="M192.9,-150.55C180.26,-148.79 167.36,-147 155.08,-145.3"/>
<polygon fill="midnightblue" stroke="midnightblue" points="192.58,-154.04 202.97,-151.95 193.54,-147.1 192.58,-154.04"/>
</g>
<!-- Node11 -->
<g id="node11" class="node">
<title>Node11</title>
<g id="a_node11"><a xlink:href="classdenoptim_1_1fitness_1_1_fitness_expression_parser_test.html#ad8c3056173f2ab17ebb7c12133ea03a8" target="_top" xlink:title=" ">
<polygon fill="white" stroke="black" points="0,-61 0,-102 167,-102 167,-61 0,-61"/>
<text text-anchor="start" x="8" y="-90" font-family="Helvetica,sans-Serif" font-size="10.00">denoptim.fitness.Fitness</text>
<text text-anchor="start" x="8" y="-79" font-family="Helvetica,sans-Serif" font-size="10.00">ExpressionParserTest.testProcess</text>
<text text-anchor="middle" x="83.5" y="-68" font-family="Helvetica,sans-Serif" font-size="10.00">Expressions</text>
</a>
</g>
</g>
<!-- Node7&#45;&gt;Node11 -->
<g id="edge10" class="edge">
<title>Node7&#45;&gt;Node11</title>
<path fill="none" stroke="midnightblue" d="M238.13,-142.96C217.06,-133.12 190.84,-121.24 167,-111.5 159.24,-108.33 151.01,-105.13 142.86,-102.08"/>
<polygon fill="midnightblue" stroke="midnightblue" points="236.89,-146.24 247.43,-147.32 239.86,-139.9 236.89,-146.24"/>
</g>
<!-- Node14&#45;&gt;Node5 -->
<g id="edge16" class="edge">
<title>Node14&#45;&gt;Node5</title>
<path fill="none" stroke="midnightblue" d="M798.74,-174.7C789.15,-173.72 779.55,-172.73 770.19,-171.77"/>
<polygon fill="midnightblue" stroke="midnightblue" points="798.4,-178.19 808.7,-175.73 799.11,-171.22 798.4,-178.19"/>
</g>
<!-- Node15 -->
<g id="node15" class="node">
<title>Node15</title>
<g id="a_node15"><a xlink:href="classdenoptim_1_1fitness_1_1_descriptor_utils.html#aad0f6a48a1e75772f06cf70290ad8b45" target="_top" xlink:title="Searches for descriptor implementations in the DENOPTIM packages.">
<polygon fill="white" stroke="black" points="595.5,-196.5 595.5,-226.5 762.5,-226.5 762.5,-196.5 595.5,-196.5"/>
<text text-anchor="start" x="603.5" y="-214.5" font-family="Helvetica,sans-Serif" font-size="10.00">denoptim.fitness.Descriptor</text>
<text text-anchor="middle" x="679" y="-203.5" font-family="Helvetica,sans-Serif" font-size="10.00">Utils.findAllDENOPTIMDescriptors</text>
</a>
</g>
</g>
<!-- Node14&#45;&gt;Node15 -->
<g id="edge14" class="edge">
<title>Node14&#45;&gt;Node15</title>
<path fill="none" stroke="midnightblue" d="M798.57,-198.81C786.49,-200.1 774.37,-201.4 762.76,-202.64"/>
<polygon fill="midnightblue" stroke="midnightblue" points="799.13,-202.27 808.7,-197.72 798.39,-195.3 799.13,-202.27"/>
</g>
<!-- Node16 -->
<g id="node16" class="node">
<title>Node16</title>
<g id="a_node16"><a xlink:href="classdenoptim_1_1fitness_1_1_descriptor_utils_test.html#a4e6e8344bdb170eeeba008e39b2b85cc" target="_top" xlink:title=" ">
<polygon fill="white" stroke="black" points="585,-245.5 585,-275.5 773,-275.5 773,-245.5 585,-245.5"/>
<text text-anchor="start" x="593" y="-263.5" font-family="Helvetica,sans-Serif" font-size="10.00">denoptim.fitness.Descriptor</text>
<text text-anchor="middle" x="679" y="-252.5" font-family="Helvetica,sans-Serif" font-size="10.00">UtilsTest.testFindDemoptimDescriptors</text>
</a>
</g>
</g>
<!-- Node14&#45;&gt;Node16 -->
<g id="edge17" class="edge">
<title>Node14&#45;&gt;Node16</title>
<path fill="none" stroke="midnightblue" d="M864.6,-205.11C837.75,-215.03 803.76,-227.08 773,-236.5 762.96,-239.58 752.22,-242.59 741.75,-245.39"/>
<polygon fill="midnightblue" stroke="midnightblue" points="865.99,-208.33 874.15,-201.57 863.55,-201.77 865.99,-208.33"/>
</g>
<!-- Node15&#45;&gt;Node4 -->
<g id="edge15" class="edge">
<title>Node15&#45;&gt;Node4</title>
<path fill="none" stroke="midnightblue" d="M585.33,-211.5C573.28,-211.5 561.04,-211.5 549.27,-211.5"/>
<polygon fill="midnightblue" stroke="midnightblue" points="585.4,-215 595.4,-211.5 585.4,-208 585.4,-215"/>
</g>
</g>
</svg>
