<?xml version="1.0" encoding="UTF-8" standalone="no"?>
<!DOCTYPE svg PUBLIC "-//W3C//DTD SVG 1.1//EN"
 "http://www.w3.org/Graphics/SVG/1.1/DTD/svg11.dtd">
<!-- Generated by graphviz version 3.0.0 (20221109.1736)
 -->
<!-- Title: denoptim.gui.GUIInspectGARun.PlottedCandidatesComparator.compare Pages: 1 -->
<svg width="358pt" height="137pt"
 viewBox="0.00 0.00 358.00 137.00" xmlns="http://www.w3.org/2000/svg" xmlns:xlink="http://www.w3.org/1999/xlink">
<g id="graph0" class="graph" transform="scale(1 1) rotate(0) translate(4 133)">
<title>denoptim.gui.GUIInspectGARun.PlottedCandidatesComparator.compare</title>
<polygon fill="white" stroke="transparent" points="-4,4 -4,-133 354,-133 354,4 -4,4"/>
<!-- Node1 -->
<g id="node1" class="node">
<title>Node1</title>
<g id="a_node1"><a xlink:title=" ">
<polygon fill="#bfbfbf" stroke="black" points="0,-49.5 0,-79.5 186,-79.5 186,-49.5 0,-49.5"/>
<text text-anchor="start" x="8" y="-67.5" font-family="Helvetica,sans-Serif" font-size="10.00">denoptim.gui.GUIInspectGARun.</text>
<text text-anchor="middle" x="93" y="-56.5" font-family="Helvetica,sans-Serif" font-size="10.00">PlottedCandidatesComparator.compare</text>
</a>
</g>
</g>
<!-- Node2 -->
<g id="node2" class="node">
<title>Node2</title>
<g id="a_node2"><a xlink:href="classdenoptim_1_1graph_1_1_candidate_l_w.html#a95069843e337d5e85a5434aceb8e9c42" target="_top" xlink:title=" ">
<polygon fill="white" stroke="black" points="222,-98.5 222,-128.5 350,-128.5 350,-98.5 222,-98.5"/>
<text text-anchor="start" x="230" y="-116.5" font-family="Helvetica,sans-Serif" font-size="10.00">denoptim.graph.Candidate</text>
<text text-anchor="middle" x="286" y="-105.5" font-family="Helvetica,sans-Serif" font-size="10.00">LW.getFitness</text>
</a>
</g>
</g>
<!-- Node1&#45;&gt;Node2 -->
<g id="edge1" class="edge">
<title>Node1&#45;&gt;Node2</title>
<path fill="none" stroke="midnightblue" d="M152.6,-79.53C172.86,-84.73 195.74,-90.6 216.71,-95.98"/>
<polygon fill="midnightblue" stroke="midnightblue" points="215.95,-99.4 226.51,-98.49 217.69,-92.62 215.95,-99.4"/>
</g>
<!-- Node3 -->
<g id="node3" class="node">
<title>Node3</title>
<g id="a_node3"><a xlink:href="classdenoptim_1_1graph_1_1_candidate_l_w.html#ae0d754f27cb1396b28fadfa6e1cfcd92" target="_top" xlink:title=" ">
<polygon fill="white" stroke="black" points="222,-49.5 222,-79.5 350,-79.5 350,-49.5 222,-49.5"/>
<text text-anchor="start" x="230" y="-67.5" font-family="Helvetica,sans-Serif" font-size="10.00">denoptim.graph.Candidate</text>
<text text-anchor="middle" x="286" y="-56.5" font-family="Helvetica,sans-Serif" font-size="10.00">LW.getGeneration</text>
</a>
</g>
</g>
<!-- Node1&#45;&gt;Node3 -->
<g id="edge2" class="edge">
<title>Node1&#45;&gt;Node3</title>
<path fill="none" stroke="midnightblue" d="M186.14,-64.5C194.76,-64.5 203.41,-64.5 211.81,-64.5"/>
<polygon fill="midnightblue" stroke="midnightblue" points="211.92,-68 221.92,-64.5 211.92,-61 211.92,-68"/>
</g>
<!-- Node4 -->
<g id="node4" class="node">
<title>Node4</title>
<g id="a_node4"><a xlink:href="classdenoptim_1_1graph_1_1_candidate_l_w.html#a015435de7c18b38757709c97bd46f10d" target="_top" xlink:title=" ">
<polygon fill="white" stroke="black" points="222,-0.5 222,-30.5 350,-30.5 350,-0.5 222,-0.5"/>
<text text-anchor="start" x="230" y="-18.5" font-family="Helvetica,sans-Serif" font-size="10.00">denoptim.graph.Candidate</text>
<text text-anchor="middle" x="286" y="-7.5" font-family="Helvetica,sans-Serif" font-size="10.00">LW.hasFitness</text>
</a>
</g>
</g>
<!-- Node1&#45;&gt;Node4 -->
<g id="edge3" class="edge">
<title>Node1&#45;&gt;Node4</title>
<path fill="none" stroke="midnightblue" d="M152.6,-49.47C172.86,-44.27 195.74,-38.4 216.71,-33.02"/>
<polygon fill="midnightblue" stroke="midnightblue" points="217.69,-36.38 226.51,-30.51 215.95,-29.6 217.69,-36.38"/>
</g>
</g>
</svg>
