<?xml version="1.0" encoding="UTF-8" standalone="no"?>
<!DOCTYPE svg PUBLIC "-//W3C//DTD SVG 1.1//EN"
 "http://www.w3.org/Graphics/SVG/1.1/DTD/svg11.dtd">
<!-- Generated by graphviz version 3.0.0 (20221109.1736)
 -->
<!-- Title: denoptim.utils.GraphUtils.resetUniqueVertexCounter Pages: 1 -->
<!--zoomable 392 -->
<svg id="main" version="1.1" xmlns="http://www.w3.org/2000/svg" xmlns:xlink="http://www.w3.org/1999/xlink" xml:space="preserve" onload="init(evt)">
<style type="text/css"><![CDATA[
.edge:hover path { stroke: red; }
.edge:hover polygon { stroke: red; fill: red; }
]]></style>
<script type="text/javascript"><![CDATA[
var edges = document.getElementsByTagName('g');
if (edges && edges.length) {
  for (var i=0;i<edges.length;i++) {
    if (edges[i].id.substr(0,4)=='edge') {
      edges[i].setAttribute('class','edge');
    }
  }
}
]]></script>
        <defs>
                <circle id="rim" cx="0" cy="0" r="7"/>
                <circle id="rim2" cx="0" cy="0" r="3.5"/>
                <g id="zoomPlus">
                        <use xlink:href="#rim" fill="#404040">
                                <set attributeName="fill" to="#808080" begin="zoomplus.mouseover" end="zoomplus.mouseout"/>
                        </use>
                        <path d="M-4,0h8M0,-4v8" fill="none" stroke="white" stroke-width="1.5" pointer-events="none"/>
                </g>
                <g id="zoomMin">
                        <use xlink:href="#rim" fill="#404040">
                                <set attributeName="fill" to="#808080" begin="zoomminus.mouseover" end="zoomminus.mouseout"/>
                        </use>
                        <path d="M-4,0h8" fill="none" stroke="white" stroke-width="1.5" pointer-events="none"/>
                </g>
                <g id="dirArrow">
                        <path fill="none" stroke="white" stroke-width="1.5" d="M0,-3.0v7 M-2.5,-0.5L0,-3.0L2.5,-0.5"/>
                </g>
               <g id="resetDef">
                       <use xlink:href="#rim2" fill="#404040">
                               <set attributeName="fill" to="#808080" begin="reset.mouseover" end="reset.mouseout"/>
                       </use>
               </g>
        </defs>

<script type="text/javascript">
var viewWidth = 1420;
var viewHeight = 392;
var sectionId = 'dynsection-11';
</script>
<script xlink:href="svgpan.js"/>
<svg id="graph" class="graph">
<g id="viewport">
<title>denoptim.utils.GraphUtils.resetUniqueVertexCounter</title>
<polygon fill="white" stroke="transparent" points="-4,4 -4,-388 1416,-388 1416,4 -4,4"/>
<!-- Node1 -->
<g id="node1" class="node">
<title>Node1</title>
<g id="a_node1"><a xlink:title="Reset the unique vertex counter to the given value.">
<polygon fill="#bfbfbf" stroke="black" points="1263,-130.5 1263,-160.5 1412,-160.5 1412,-130.5 1263,-130.5"/>
<text text-anchor="start" x="1271" y="-148.5" font-family="Helvetica,sans-Serif" font-size="10.00">denoptim.utils.GraphUtils.reset</text>
<text text-anchor="middle" x="1337.5" y="-137.5" font-family="Helvetica,sans-Serif" font-size="10.00">UniqueVertexCounter</text>
</a>
</g>
</g>
<!-- Node2 -->
<g id="node2" class="node">
<title>Node2</title>
<g id="a_node2"><a xlink:href="classdenoptim_1_1utils_1_1_graph_utils.html#a642eb920915ad715efab1cdda1afa891" target="_top" xlink:title="Method used to ensure consistency between internal atomic integer and vertex id from imported graphs.">
<polygon fill="white" stroke="black" points="1059.5,-206.5 1059.5,-236.5 1216.5,-236.5 1216.5,-206.5 1059.5,-206.5"/>
<text text-anchor="start" x="1067.5" y="-224.5" font-family="Helvetica,sans-Serif" font-size="10.00">denoptim.utils.GraphUtils.ensure</text>
<text text-anchor="middle" x="1138" y="-213.5" font-family="Helvetica,sans-Serif" font-size="10.00">VertexIDConsistency</text>
</a>
</g>
</g>
<!-- Node1&#45;&gt;Node2 -->
<g id="edge1" class="edge">
<title>Node1&#45;&gt;Node2</title>
<path fill="none" stroke="midnightblue" d="M1287.82,-164.23C1254.09,-177.21 1209.76,-194.27 1178.28,-206.39"/>
<polygon fill="midnightblue" stroke="midnightblue" points="1289.4,-167.37 1297.48,-160.52 1286.89,-160.84 1289.4,-167.37"/>
</g>
<!-- Node22 -->
<g id="node22" class="node">
<title>Node22</title>
<g id="a_node22"><a xlink:href="classdenoptim_1_1combinatorial_1_1_combinatorial_explorer_by_layer.html#af9327fa81f9e2a617cdff353848ad6e1" target="_top" xlink:title="Run the combinatorial exploration.">
<polygon fill="white" stroke="black" points="1049,-54.5 1049,-84.5 1227,-84.5 1227,-54.5 1049,-54.5"/>
<text text-anchor="start" x="1057" y="-72.5" font-family="Helvetica,sans-Serif" font-size="10.00">denoptim.combinatorial.Combinatorial</text>
<text text-anchor="middle" x="1138" y="-61.5" font-family="Helvetica,sans-Serif" font-size="10.00">ExplorerByLayer.run</text>
</a>
</g>
</g>
<!-- Node1&#45;&gt;Node22 -->
<g id="edge21" class="edge">
<title>Node1&#45;&gt;Node22</title>
<path fill="none" stroke="midnightblue" d="M1287.82,-126.77C1254.09,-113.79 1209.76,-96.73 1178.28,-84.61"/>
<polygon fill="midnightblue" stroke="midnightblue" points="1286.89,-130.16 1297.48,-130.48 1289.4,-123.63 1286.89,-130.16"/>
</g>
<!-- Node3 -->
<g id="node3" class="node">
<title>Node3</title>
<g id="a_node3"><a xlink:href="classdenoptim_1_1ga_1_1_graph_operations.html#a104e82aba7242a457da09540ff0400da" target="_top" xlink:title="function that will keep extending the graph.">
<polygon fill="white" stroke="black" points="834,-353.5 834,-383.5 1010,-383.5 1010,-353.5 834,-353.5"/>
<text text-anchor="start" x="842" y="-371.5" font-family="Helvetica,sans-Serif" font-size="10.00">denoptim.ga.GraphOperations.extend</text>
<text text-anchor="middle" x="922" y="-360.5" font-family="Helvetica,sans-Serif" font-size="10.00">Graph</text>
</a>
</g>
</g>
<!-- Node2&#45;&gt;Node3 -->
<g id="edge2" class="edge">
<title>Node2&#45;&gt;Node3</title>
<path fill="none" stroke="midnightblue" d="M1120.05,-244.5C1098.32,-272.33 1058.05,-318.65 1013,-344.5 1006.97,-347.96 1000.42,-350.94 993.71,-353.49"/>
<polygon fill="midnightblue" stroke="midnightblue" points="1122.87,-246.57 1126.18,-236.5 1117.32,-242.31 1122.87,-246.57"/>
</g>
<!-- Node4 -->
<g id="node4" class="node">
<title>Node4</title>
<g id="a_node4"><a xlink:href="classdenoptim_1_1graph_1_1_d_graph.html#ade5b573cc8eac0a26ec18969238fd84a" target="_top" xlink:title="Inserts a given vertex in between two vertices connected by the given edge.">
<polygon fill="white" stroke="black" points="850,-304.5 850,-334.5 994,-334.5 994,-304.5 850,-304.5"/>
<text text-anchor="start" x="858" y="-322.5" font-family="Helvetica,sans-Serif" font-size="10.00">denoptim.graph.DGraph.insert</text>
<text text-anchor="middle" x="922" y="-311.5" font-family="Helvetica,sans-Serif" font-size="10.00">Vertex</text>
</a>
</g>
</g>
<!-- Node2&#45;&gt;Node4 -->
<g id="edge3" class="edge">
<title>Node2&#45;&gt;Node4</title>
<path fill="none" stroke="midnightblue" d="M1107.59,-242.25C1083.21,-258.64 1047.15,-281.09 1013,-295.5 1005.1,-298.83 996.62,-301.81 988.13,-304.45"/>
<polygon fill="midnightblue" stroke="midnightblue" points="1109.72,-245.03 1116.01,-236.51 1105.78,-239.25 1109.72,-245.03"/>
</g>
<!-- Node6 -->
<g id="node6" class="node">
<title>Node6</title>
<g id="a_node6"><a xlink:href="classdenoptim_1_1graph_1_1_d_graph.html#a00209ca8b4a9623b41e7d9e1e62f69ec" target="_top" xlink:title="Remove a given vertex belonging to this graph and re&#45;connects the resulting graph branches as much as...">
<polygon fill="white" stroke="black" points="846,-255.5 846,-285.5 998,-285.5 998,-255.5 846,-255.5"/>
<text text-anchor="start" x="854" y="-273.5" font-family="Helvetica,sans-Serif" font-size="10.00">denoptim.graph.DGraph.remove</text>
<text text-anchor="middle" x="922" y="-262.5" font-family="Helvetica,sans-Serif" font-size="10.00">VertexAndWeld</text>
</a>
</g>
</g>
<!-- Node2&#45;&gt;Node6 -->
<g id="edge5" class="edge">
<title>Node2&#45;&gt;Node6</title>
<path fill="none" stroke="midnightblue" d="M1061.31,-238.83C1037.55,-244.27 1011.53,-250.23 988.54,-255.49"/>
<polygon fill="midnightblue" stroke="midnightblue" points="1062.37,-242.18 1071.34,-236.53 1060.81,-235.35 1062.37,-242.18"/>
</g>
<!-- Node9 -->
<g id="node9" class="node">
<title>Node9</title>
<g id="a_node9"><a xlink:href="classdenoptim_1_1graph_1_1_d_graph.html#a86e888ef245d2bd40b49d145c7ef3af0" target="_top" xlink:title="Replaced the subgraph represented by a given collection of vertices that belong to this graph.">
<polygon fill="white" stroke="black" points="846,-206.5 846,-236.5 998,-236.5 998,-206.5 846,-206.5"/>
<text text-anchor="start" x="854" y="-224.5" font-family="Helvetica,sans-Serif" font-size="10.00">denoptim.graph.DGraph.replace</text>
<text text-anchor="middle" x="922" y="-213.5" font-family="Helvetica,sans-Serif" font-size="10.00">SubGraph</text>
</a>
</g>
</g>
<!-- Node2&#45;&gt;Node9 -->
<g id="edge8" class="edge">
<title>Node2&#45;&gt;Node9</title>
<path fill="none" stroke="midnightblue" d="M1049.02,-221.5C1032.13,-221.5 1014.59,-221.5 998.15,-221.5"/>
<polygon fill="midnightblue" stroke="midnightblue" points="1049.44,-225 1059.44,-221.5 1049.44,-218 1049.44,-225"/>
</g>
<!-- Node15 -->
<g id="node15" class="node">
<title>Node15</title>
<g id="a_node15"><a xlink:href="classdenoptim_1_1graph_1_1_d_graph.html#adc362402e41af41656e820def73de5ad" target="_top" xlink:title="Replaced a given vertex belonging to this graph with a new vertex generated specifically for this pur...">
<polygon fill="white" stroke="black" points="846,-157.5 846,-187.5 998,-187.5 998,-157.5 846,-157.5"/>
<text text-anchor="start" x="854" y="-175.5" font-family="Helvetica,sans-Serif" font-size="10.00">denoptim.graph.DGraph.replace</text>
<text text-anchor="middle" x="922" y="-164.5" font-family="Helvetica,sans-Serif" font-size="10.00">Vertex</text>
</a>
</g>
</g>
<!-- Node2&#45;&gt;Node15 -->
<g id="edge14" class="edge">
<title>Node2&#45;&gt;Node15</title>
<path fill="none" stroke="midnightblue" d="M1061.31,-204.17C1037.55,-198.73 1011.53,-192.77 988.54,-187.51"/>
<polygon fill="midnightblue" stroke="midnightblue" points="1060.81,-207.65 1071.34,-206.47 1062.37,-200.82 1060.81,-207.65"/>
</g>
<!-- Node16 -->
<g id="node16" class="node">
<title>Node16</title>
<g id="a_node16"><a xlink:href="classdenoptim_1_1ga_1_1_e_a_utils.html#a6b9258348dd659b17113f8e67f203504" target="_top" xlink:title="Set the Vertex counter value according to the largest value found in the given population.">
<polygon fill="white" stroke="black" points="848,-108.5 848,-138.5 996,-138.5 996,-108.5 848,-108.5"/>
<text text-anchor="start" x="856" y="-126.5" font-family="Helvetica,sans-Serif" font-size="10.00">denoptim.ga.EAUtils.setVertex</text>
<text text-anchor="middle" x="922" y="-115.5" font-family="Helvetica,sans-Serif" font-size="10.00">CounterValue</text>
</a>
</g>
</g>
<!-- Node2&#45;&gt;Node16 -->
<g id="edge15" class="edge">
<title>Node2&#45;&gt;Node16</title>
<path fill="none" stroke="midnightblue" d="M1107.06,-200.86C1082.65,-184.78 1046.79,-162.85 1013,-148.5 1004.34,-144.82 994.99,-141.53 985.7,-138.64"/>
<polygon fill="midnightblue" stroke="midnightblue" points="1105.25,-203.86 1115.52,-206.49 1109.14,-198.03 1105.25,-203.86"/>
</g>
<!-- Node5 -->
<g id="node5" class="node">
<title>Node5</title>
<g id="a_node5"><a xlink:href="classdenoptim_1_1ga_1_1_graph_operations.html#af53d9f29a7d8f8e7bc5540ab3cb0c9c7" target="_top" xlink:title="Replace an edge with two edges with a new vertex in between, thus inserting a vertex in between two d...">
<polygon fill="white" stroke="black" points="601,-310 601,-329 795,-329 795,-310 601,-310"/>
<text text-anchor="middle" x="698" y="-317" font-family="Helvetica,sans-Serif" font-size="10.00">denoptim.ga.GraphOperations.extendLink</text>
</a>
</g>
</g>
<!-- Node4&#45;&gt;Node5 -->
<g id="edge4" class="edge">
<title>Node4&#45;&gt;Node5</title>
<path fill="none" stroke="midnightblue" d="M839.5,-319.5C825.11,-319.5 810.01,-319.5 795.26,-319.5"/>
<polygon fill="midnightblue" stroke="midnightblue" points="839.84,-323 849.84,-319.5 839.84,-316 839.84,-323"/>
</g>
<!-- Node7 -->
<g id="node7" class="node">
<title>Node7</title>
<g id="a_node7"><a xlink:href="classdenoptim_1_1ga_1_1_graph_operations.html#ab3adb5141a8941bf23916bb516faee63" target="_top" xlink:title="Removes a vertex while merging as many of the child branches into the parent vertex.">
<polygon fill="white" stroke="black" points="602,-261 602,-280 794,-280 794,-261 602,-261"/>
<text text-anchor="middle" x="698" y="-268" font-family="Helvetica,sans-Serif" font-size="10.00">denoptim.ga.GraphOperations.deleteLink</text>
</a>
</g>
</g>
<!-- Node6&#45;&gt;Node7 -->
<g id="edge6" class="edge">
<title>Node6&#45;&gt;Node7</title>
<path fill="none" stroke="midnightblue" d="M835.59,-270.5C822.03,-270.5 807.92,-270.5 794.15,-270.5"/>
<polygon fill="midnightblue" stroke="midnightblue" points="835.84,-274 845.84,-270.5 835.84,-267 835.84,-274"/>
</g>
<!-- Node8 -->
<g id="node8" class="node">
<title>Node8</title>
<g id="a_node8"><a xlink:href="classdenoptim_1_1ga_1_1_graph_operations.html#a0c851972015fbb4b2a317b053b8b81d9" target="_top" xlink:title="Mutates the given vertex according to the given mutation type, if possible.">
<polygon fill="white" stroke="black" points="385,-255.5 385,-285.5 565,-285.5 565,-255.5 385,-255.5"/>
<text text-anchor="start" x="393" y="-273.5" font-family="Helvetica,sans-Serif" font-size="10.00">denoptim.ga.GraphOperations.perform</text>
<text text-anchor="middle" x="475" y="-262.5" font-family="Helvetica,sans-Serif" font-size="10.00">Mutation</text>
</a>
</g>
</g>
<!-- Node7&#45;&gt;Node8 -->
<g id="edge7" class="edge">
<title>Node7&#45;&gt;Node8</title>
<path fill="none" stroke="midnightblue" d="M591.97,-270.5C583.06,-270.5 574.1,-270.5 565.33,-270.5"/>
<polygon fill="midnightblue" stroke="midnightblue" points="591.99,-274 601.99,-270.5 591.99,-267 591.99,-274"/>
</g>
<!-- Node10 -->
<g id="node10" class="node">
<title>Node10</title>
<g id="a_node10"><a xlink:href="classdenoptim_1_1graph_1_1_d_graph.html#a1cb3c55237933f7a4d32e002175b84bc" target="_top" xlink:title="Searches for the given pattern type and generated a new graph where each set of (clones of) vertexes ...">
<polygon fill="white" stroke="black" points="623.5,-206.5 623.5,-236.5 772.5,-236.5 772.5,-206.5 623.5,-206.5"/>
<text text-anchor="start" x="631.5" y="-224.5" font-family="Helvetica,sans-Serif" font-size="10.00">denoptim.graph.DGraph.embed</text>
<text text-anchor="middle" x="698" y="-213.5" font-family="Helvetica,sans-Serif" font-size="10.00">PatternsInTemplates</text>
</a>
</g>
</g>
<!-- Node9&#45;&gt;Node10 -->
<g id="edge9" class="edge">
<title>Node9&#45;&gt;Node10</title>
<path fill="none" stroke="midnightblue" d="M835.73,-221.5C814.91,-221.5 792.8,-221.5 772.58,-221.5"/>
<polygon fill="midnightblue" stroke="midnightblue" points="835.84,-225 845.84,-221.5 835.84,-218 835.84,-225"/>
</g>
<!-- Node11 -->
<g id="node11" class="node">
<title>Node11</title>
<g id="a_node11"><a xlink:href="classdenoptim_1_1ga_1_1_graph_operations.html#affb1be89a32e4a429bd7dbdfe0708419" target="_top" xlink:title="Performs the crossover that swaps the two subgraphs defining the given XoverSite.">
<polygon fill="white" stroke="black" points="608,-157.5 608,-187.5 788,-187.5 788,-157.5 608,-157.5"/>
<text text-anchor="start" x="616" y="-175.5" font-family="Helvetica,sans-Serif" font-size="10.00">denoptim.ga.GraphOperations.perform</text>
<text text-anchor="middle" x="698" y="-164.5" font-family="Helvetica,sans-Serif" font-size="10.00">Crossover</text>
</a>
</g>
</g>
<!-- Node9&#45;&gt;Node11 -->
<g id="edge10" class="edge">
<title>Node9&#45;&gt;Node11</title>
<path fill="none" stroke="midnightblue" d="M842.81,-204.24C818.07,-198.78 790.95,-192.79 766.99,-187.51"/>
<polygon fill="midnightblue" stroke="midnightblue" points="842.36,-207.73 852.88,-206.47 843.87,-200.89 842.36,-207.73"/>
</g>
<!-- Node12 -->
<g id="node12" class="node">
<title>Node12</title>
<g id="a_node12"><a xlink:href="classdenoptim_1_1ga_1_1_e_a_utils.html#a0b958439d79fae30f14530213ad22e3a" target="_top" xlink:title="Generates up to a pair of new offspring by performing a crossover operation.">
<polygon fill="white" stroke="black" points="411.5,-206.5 411.5,-236.5 538.5,-236.5 538.5,-206.5 411.5,-206.5"/>
<text text-anchor="start" x="419.5" y="-224.5" font-family="Helvetica,sans-Serif" font-size="10.00">denoptim.ga.EAUtils.build</text>
<text text-anchor="middle" x="475" y="-213.5" font-family="Helvetica,sans-Serif" font-size="10.00">CandidatesByXOver</text>
</a>
</g>
</g>
<!-- Node11&#45;&gt;Node12 -->
<g id="edge11" class="edge">
<title>Node11&#45;&gt;Node12</title>
<path fill="none" stroke="midnightblue" d="M619.24,-189.74C592.89,-195.58 563.82,-202.03 538.78,-207.58"/>
<polygon fill="midnightblue" stroke="midnightblue" points="620.19,-193.12 629.19,-187.53 618.67,-186.28 620.19,-193.12"/>
</g>
<!-- Node13 -->
<g id="node13" class="node">
<title>Node13</title>
<g id="a_node13"><a xlink:href="classdenoptim_1_1programs_1_1genetweeker_1_1_gene_ops_runner.html#ab0f92a94c4fb2334e7d3813e73fc4247" target="_top" xlink:title=" ">
<polygon fill="white" stroke="black" points="395.5,-157.5 395.5,-187.5 554.5,-187.5 554.5,-157.5 395.5,-157.5"/>
<text text-anchor="start" x="403.5" y="-175.5" font-family="Helvetica,sans-Serif" font-size="10.00">denoptim.programs.genetweeker.</text>
<text text-anchor="middle" x="475" y="-164.5" font-family="Helvetica,sans-Serif" font-size="10.00">GeneOpsRunner.runXOver</text>
</a>
</g>
</g>
<!-- Node11&#45;&gt;Node13 -->
<g id="edge12" class="edge">
<title>Node11&#45;&gt;Node13</title>
<path fill="none" stroke="midnightblue" d="M597.36,-172.5C583.01,-172.5 568.42,-172.5 554.55,-172.5"/>
<polygon fill="midnightblue" stroke="midnightblue" points="597.75,-176 607.75,-172.5 597.75,-169 597.75,-176"/>
</g>
<!-- Node14 -->
<g id="node14" class="node">
<title>Node14</title>
<g id="a_node14"><a xlink:href="classdenoptim_1_1programs_1_1genetweeker_1_1_gene_ops_runner.html#a3c2407eb1204a7b25600d3d347d98447" target="_top" xlink:title=" ">
<polygon fill="white" stroke="black" points="190,-157.5 190,-187.5 349,-187.5 349,-157.5 190,-157.5"/>
<text text-anchor="start" x="198" y="-175.5" font-family="Helvetica,sans-Serif" font-size="10.00">denoptim.programs.genetweeker.</text>
<text text-anchor="middle" x="269.5" y="-164.5" font-family="Helvetica,sans-Serif" font-size="10.00">GeneOpsRunner.runProgram</text>
</a>
</g>
</g>
<!-- Node13&#45;&gt;Node14 -->
<g id="edge13" class="edge">
<title>Node13&#45;&gt;Node14</title>
<path fill="none" stroke="midnightblue" d="M384.97,-172.5C373.09,-172.5 360.99,-172.5 349.3,-172.5"/>
<polygon fill="midnightblue" stroke="midnightblue" points="385.32,-176 395.32,-172.5 385.32,-169 385.32,-176"/>
</g>
<!-- Node17 -->
<g id="node17" class="node">
<title>Node17</title>
<g id="a_node17"><a xlink:href="classdenoptim_1_1ga_1_1_e_a_utils.html#a2f160fc3fb0488bb995d1e008a706ed4" target="_top" xlink:title="Reconstruct the molecular population from the file.">
<polygon fill="white" stroke="black" points="615,-108.5 615,-138.5 781,-138.5 781,-108.5 615,-108.5"/>
<text text-anchor="start" x="623" y="-126.5" font-family="Helvetica,sans-Serif" font-size="10.00">denoptim.ga.EAUtils.getPopulation</text>
<text text-anchor="middle" x="698" y="-115.5" font-family="Helvetica,sans-Serif" font-size="10.00">FromFile</text>
</a>
</g>
</g>
<!-- Node16&#45;&gt;Node17 -->
<g id="edge16" class="edge">
<title>Node16&#45;&gt;Node17</title>
<path fill="none" stroke="midnightblue" d="M837.55,-123.5C819.06,-123.5 799.48,-123.5 781.05,-123.5"/>
<polygon fill="midnightblue" stroke="midnightblue" points="837.69,-127 847.69,-123.5 837.69,-120 837.69,-127"/>
</g>
<!-- Node18 -->
<g id="node18" class="node">
<title>Node18</title>
<g id="a_node18"><a xlink:href="classdenoptim_1_1ga_1_1_e_a_utils.html#aecbe9af608218e129a006ddae17ac66b" target="_top" xlink:title="Reads unique identifiers and initial population file according to the GAParameters.">
<polygon fill="white" stroke="black" points="408,-108.5 408,-138.5 542,-138.5 542,-108.5 408,-108.5"/>
<text text-anchor="start" x="416" y="-126.5" font-family="Helvetica,sans-Serif" font-size="10.00">denoptim.ga.EAUtils.import</text>
<text text-anchor="middle" x="475" y="-115.5" font-family="Helvetica,sans-Serif" font-size="10.00">InitialPopulation</text>
</a>
</g>
</g>
<!-- Node17&#45;&gt;Node18 -->
<g id="edge17" class="edge">
<title>Node17&#45;&gt;Node18</title>
<path fill="none" stroke="midnightblue" d="M604.51,-123.5C583.57,-123.5 561.75,-123.5 542.15,-123.5"/>
<polygon fill="midnightblue" stroke="midnightblue" points="604.71,-127 614.71,-123.5 604.71,-120 604.71,-127"/>
</g>
<!-- Node19 -->
<g id="node19" class="node">
<title>Node19</title>
<g id="a_node19"><a xlink:href="classdenoptim_1_1ga_1_1_evolutionary_algorithm.html#a6bfc2fa59b199da6259b5b6bad3d6de7" target="_top" xlink:title=" ">
<polygon fill="white" stroke="black" points="207.5,-108.5 207.5,-138.5 331.5,-138.5 331.5,-108.5 207.5,-108.5"/>
<text text-anchor="start" x="215.5" y="-126.5" font-family="Helvetica,sans-Serif" font-size="10.00">denoptim.ga.Evolutionary</text>
<text text-anchor="middle" x="269.5" y="-115.5" font-family="Helvetica,sans-Serif" font-size="10.00">Algorithm.run</text>
</a>
</g>
</g>
<!-- Node18&#45;&gt;Node19 -->
<g id="edge18" class="edge">
<title>Node18&#45;&gt;Node19</title>
<path fill="none" stroke="midnightblue" d="M397.73,-123.5C375.95,-123.5 352.51,-123.5 331.76,-123.5"/>
<polygon fill="midnightblue" stroke="midnightblue" points="397.93,-127 407.93,-123.5 397.93,-120 397.93,-127"/>
</g>
<!-- Node20 -->
<g id="node20" class="node">
<title>Node20</title>
<g id="a_node20"><a xlink:href="classdenoptim_1_1ga_1_1_evolutionary_algorithm.html#a0f2063b722b7291daf83d62acaa683d3" target="_top" xlink:title=" ">
<polygon fill="white" stroke="black" points="0,-133.5 0,-163.5 154,-163.5 154,-133.5 0,-133.5"/>
<text text-anchor="start" x="8" y="-151.5" font-family="Helvetica,sans-Serif" font-size="10.00">denoptim.ga.Evolutionary</text>
<text text-anchor="middle" x="77" y="-140.5" font-family="Helvetica,sans-Serif" font-size="10.00">Algorithm.EvolutionaryAlgorithm</text>
</a>
</g>
</g>
<!-- Node19&#45;&gt;Node20 -->
<g id="edge19" class="edge">
<title>Node19&#45;&gt;Node20</title>
<path fill="none" stroke="midnightblue" d="M197.32,-132.84C183.21,-134.69 168.35,-136.64 154.09,-138.51"/>
<polygon fill="midnightblue" stroke="midnightblue" points="197.98,-136.28 207.44,-131.51 197.07,-129.34 197.98,-136.28"/>
</g>
<!-- Node21 -->
<g id="node21" class="node">
<title>Node21</title>
<g id="a_node21"><a xlink:href="classdenoptim_1_1programs_1_1denovo_1_1_g_a_runner.html#a7cafd6d78727b89dce3e2c8d06f0dd7c" target="_top" xlink:title=" ">
<polygon fill="white" stroke="black" points="9.5,-84.5 9.5,-114.5 144.5,-114.5 144.5,-84.5 9.5,-84.5"/>
<text text-anchor="start" x="17.5" y="-102.5" font-family="Helvetica,sans-Serif" font-size="10.00">denoptim.programs.denovo.</text>
<text text-anchor="middle" x="77" y="-91.5" font-family="Helvetica,sans-Serif" font-size="10.00">GARunner.runProgram</text>
</a>
</g>
</g>
<!-- Node19&#45;&gt;Node21 -->
<g id="edge20" class="edge">
<title>Node19&#45;&gt;Node21</title>
<path fill="none" stroke="midnightblue" d="M197.41,-114.54C180.13,-112.37 161.72,-110.05 144.65,-107.9"/>
<polygon fill="midnightblue" stroke="midnightblue" points="197.08,-118.03 207.44,-115.81 197.95,-111.08 197.08,-118.03"/>
</g>
<!-- Node23 -->
<g id="node23" class="node">
<title>Node23</title>
<g id="a_node23"><a xlink:href="classdenoptim_1_1combinatorial_1_1_combinatorial_explorer_by_layer.html#a8f359a45038dc604a5e437d63a35e1a2" target="_top" xlink:title="Constructor.">
<polygon fill="white" stroke="black" points="831,-49 831,-90 1013,-90 1013,-49 831,-49"/>
<text text-anchor="start" x="839" y="-78" font-family="Helvetica,sans-Serif" font-size="10.00">denoptim.combinatorial.Combinatorial</text>
<text text-anchor="start" x="839" y="-67" font-family="Helvetica,sans-Serif" font-size="10.00">ExplorerByLayer.CombinatorialExplorer</text>
<text text-anchor="middle" x="922" y="-56" font-family="Helvetica,sans-Serif" font-size="10.00">ByLayer</text>
</a>
</g>
</g>
<!-- Node22&#45;&gt;Node23 -->
<g id="edge22" class="edge">
<title>Node22&#45;&gt;Node23</title>
<path fill="none" stroke="midnightblue" d="M1038.47,-69.5C1030.03,-69.5 1021.52,-69.5 1013.15,-69.5"/>
<polygon fill="midnightblue" stroke="midnightblue" points="1038.72,-73 1048.72,-69.5 1038.72,-66 1038.72,-73"/>
</g>
<!-- Node24 -->
<g id="node24" class="node">
<title>Node24</title>
<g id="a_node24"><a xlink:href="classdenoptim_1_1programs_1_1combinatorial_1_1_frag_space_explorer.html#a1c6a2aae9ab686d5c7c0fc6246f7aa61" target="_top" xlink:title=" ">
<polygon fill="white" stroke="black" points="841.5,-0.5 841.5,-30.5 1002.5,-30.5 1002.5,-0.5 841.5,-0.5"/>
<text text-anchor="start" x="849.5" y="-18.5" font-family="Helvetica,sans-Serif" font-size="10.00">denoptim.programs.combinatorial.</text>
<text text-anchor="middle" x="922" y="-7.5" font-family="Helvetica,sans-Serif" font-size="10.00">FragSpaceExplorer.runProgram</text>
</a>
</g>
</g>
<!-- Node22&#45;&gt;Node24 -->
<g id="edge23" class="edge">
<title>Node22&#45;&gt;Node24</title>
<path fill="none" stroke="midnightblue" d="M1067.49,-51.96C1040.11,-45.05 1008.99,-37.2 982.66,-30.55"/>
<polygon fill="midnightblue" stroke="midnightblue" points="1066.84,-55.4 1077.39,-54.46 1068.55,-48.62 1066.84,-55.4"/>
</g>
</g>
</svg>
        <g id="navigator" transform="translate(0 0)" fill="#404254">
                <rect fill="#f2f5e9" fill-opacity="0.5" stroke="#606060" stroke-width=".5" x="0" y="0" width="60" height="60"/>
                <use id="zoomplus" xlink:href="#zoomPlus" x="17" y="9" onmousedown="handleZoom(evt,'in')"/>
                <use id="zoomminus" xlink:href="#zoomMin" x="42" y="9" onmousedown="handleZoom(evt,'out')"/>
                <use id="reset" xlink:href="#resetDef" x="30" y="36" onmousedown="handleReset()"/>
                <g id="arrowUp" xlink:href="#dirArrow" transform="translate(30 24)" onmousedown="handlePan(0,-1)">
                  <use xlink:href="#rim" fill="#404040">
                        <set attributeName="fill" to="#808080" begin="arrowUp.mouseover" end="arrowUp.mouseout"/>
                  </use>
                  <path fill="none" stroke="white" stroke-width="1.5" d="M0,-3.0v7 M-2.5,-0.5L0,-3.0L2.5,-0.5"/>
                </g>
                <g id="arrowRight" xlink:href="#dirArrow" transform="rotate(90) translate(36 -43)" onmousedown="handlePan(1,0)">
                  <use xlink:href="#rim" fill="#404040">
                        <set attributeName="fill" to="#808080" begin="arrowRight.mouseover" end="arrowRight.mouseout"/>
                  </use>
                  <path fill="none" stroke="white" stroke-width="1.5" d="M0,-3.0v7 M-2.5,-0.5L0,-3.0L2.5,-0.5"/>
                </g>
                <g id="arrowDown" xlink:href="#dirArrow" transform="rotate(180) translate(-30 -48)" onmousedown="handlePan(0,1)">
                  <use xlink:href="#rim" fill="#404040">
                        <set attributeName="fill" to="#808080" begin="arrowDown.mouseover" end="arrowDown.mouseout"/>
                  </use>
                  <path fill="none" stroke="white" stroke-width="1.5" d="M0,-3.0v7 M-2.5,-0.5L0,-3.0L2.5,-0.5"/>
                </g>
                <g id="arrowLeft" xlink:href="#dirArrow" transform="rotate(270) translate(-36 17)" onmousedown="handlePan(-1,0)">
                  <use xlink:href="#rim" fill="#404040">
                        <set attributeName="fill" to="#808080" begin="arrowLeft.mouseover" end="arrowLeft.mouseout"/>
                  </use>
                  <path fill="none" stroke="white" stroke-width="1.5" d="M0,-3.0v7 M-2.5,-0.5L0,-3.0L2.5,-0.5"/>
                </g>
        </g>
        <svg viewBox="0 0 15 15" width="100%" height="30px" preserveAspectRatio="xMaxYMin meet">
         <g id="arrow_out" transform="scale(0.3 0.3)">
          <a xlink:href="classdenoptim_1_1utils_1_1_graph_utils_adceb5d2a62ee7cb0c67e8ccd1c13e0f0_icgraph_org.svg" target="_base">
           <rect id="button" ry="5" rx="5" y="6" x="6" height="38" width="38"
                fill="#f2f5e9" fill-opacity="0.5" stroke="#606060" stroke-width="1.0"/>
           <path id="arrow"
             d="M 11.500037,31.436501 C 11.940474,20.09759 22.043105,11.32322 32.158766,21.979434 L 37.068811,17.246167 C 37.068811,17.246167 37.088388,32 37.088388,32 L 22.160133,31.978069 C 22.160133,31.978069 26.997745,27.140456 26.997745,27.140456 C 18.528582,18.264221 13.291696,25.230495 11.500037,31.436501 z"
             style="fill:#404040;"/>
          </a>
         </g>
        </svg>
</svg>
