<?xml version="1.0" encoding="UTF-8" standalone="no"?>
<!DOCTYPE svg PUBLIC "-//W3C//DTD SVG 1.1//EN"
 "http://www.w3.org/Graphics/SVG/1.1/DTD/svg11.dtd">
<!-- Generated by graphviz version 3.0.0 (20221109.1736)
 -->
<!-- Title: denoptim.gui.GUIModalDialog.GUIModalDialog Pages: 1 -->
<svg width="579pt" height="39pt"
 viewBox="0.00 0.00 579.00 39.00" xmlns="http://www.w3.org/2000/svg" xmlns:xlink="http://www.w3.org/1999/xlink">
<g id="graph0" class="graph" transform="scale(1 1) rotate(0) translate(4 35)">
<title>denoptim.gui.GUIModalDialog.GUIModalDialog</title>
<polygon fill="white" stroke="transparent" points="-4,4 -4,-35 575,-35 575,4 -4,4"/>
<!-- Node1 -->
<g id="node1" class="node">
<title>Node1</title>
<g id="a_node1"><a xlink:title="Constructor.">
<polygon fill="#bfbfbf" stroke="black" points="0,-0.5 0,-30.5 147,-30.5 147,-0.5 0,-0.5"/>
<text text-anchor="start" x="8" y="-18.5" font-family="Helvetica,sans-Serif" font-size="10.00">denoptim.gui.GUIModalDialog.</text>
<text text-anchor="middle" x="73.5" y="-7.5" font-family="Helvetica,sans-Serif" font-size="10.00">GUIModalDialog</text>
</a>
</g>
</g>
<!-- Node2 -->
<g id="node2" class="node">
<title>Node2</title>
<g id="a_node2"><a xlink:href="classdenoptim_1_1gui_1_1_g_u_i_modal_dialog.html#a8cf9d55d17239583a8a83252ef46897f" target="_top" xlink:title=" ">
<polygon fill="white" stroke="black" points="183,-6 183,-25 365,-25 365,-6 183,-6"/>
<text text-anchor="middle" x="274" y="-13" font-family="Helvetica,sans-Serif" font-size="10.00">denoptim.gui.GUIModalDialog.initialize</text>
</a>
</g>
</g>
<!-- Node1&#45;&gt;Node2 -->
<g id="edge1" class="edge">
<title>Node1&#45;&gt;Node2</title>
<path fill="none" stroke="midnightblue" d="M147.01,-15.5C155.36,-15.5 164,-15.5 172.64,-15.5"/>
<polygon fill="midnightblue" stroke="midnightblue" points="172.77,-19 182.77,-15.5 172.77,-12 172.77,-19"/>
</g>
<!-- Node3 -->
<g id="node3" class="node">
<title>Node3</title>
<g id="a_node3"><a xlink:href="classdenoptim_1_1gui_1_1_g_u_i_modal_dialog.html#aef5c48b1c797dddd898f2564c330318c" target="_top" xlink:title="Closes the dialog window.">
<polygon fill="white" stroke="black" points="401,-6 401,-25 571,-25 571,-6 401,-6"/>
<text text-anchor="middle" x="486" y="-13" font-family="Helvetica,sans-Serif" font-size="10.00">denoptim.gui.GUIModalDialog.close</text>
</a>
</g>
</g>
<!-- Node2&#45;&gt;Node3 -->
<g id="edge2" class="edge">
<title>Node2&#45;&gt;Node3</title>
<path fill="none" stroke="midnightblue" d="M365.28,-15.5C373.66,-15.5 382.16,-15.5 390.57,-15.5"/>
<polygon fill="midnightblue" stroke="midnightblue" points="390.78,-19 400.78,-15.5 390.78,-12 390.78,-19"/>
</g>
</g>
</svg>
