<?xml version="1.0" encoding="UTF-8" standalone="no"?>
<!DOCTYPE svg PUBLIC "-//W3C//DTD SVG 1.1//EN"
 "http://www.w3.org/Graphics/SVG/1.1/DTD/svg11.dtd">
<!-- Generated by graphviz version 3.0.0 (20221109.1736)
 -->
<!-- Title: denoptim.molecularmodeling.ChemicalObjectModel.updateXYZFromINT Pages: 1 -->
<svg width="455pt" height="459pt"
 viewBox="0.00 0.00 455.00 458.50" xmlns="http://www.w3.org/2000/svg" xmlns:xlink="http://www.w3.org/1999/xlink">
<g id="graph0" class="graph" transform="scale(1 1) rotate(0) translate(4 454.5)">
<title>denoptim.molecularmodeling.ChemicalObjectModel.updateXYZFromINT</title>
<polygon fill="white" stroke="transparent" points="-4,4 -4,-454.5 451,-454.5 451,4 -4,4"/>
<!-- Node1 -->
<g id="node1" class="node">
<title>Node1</title>
<g id="a_node1"><a xlink:title="Converts currently loaded internal coordinates into Cartesian overwriting the current XYZ.">
<polygon fill="#bfbfbf" stroke="black" points="245,-216 245,-246 447,-246 447,-216 245,-216"/>
<text text-anchor="start" x="253" y="-234" font-family="Helvetica,sans-Serif" font-size="10.00">denoptim.molecularmodeling.</text>
<text text-anchor="middle" x="346" y="-223" font-family="Helvetica,sans-Serif" font-size="10.00">ChemicalObjectModel.updateXYZFromINT</text>
</a>
</g>
</g>
<!-- Node2 -->
<g id="node2" class="node">
<title>Node2</title>
<g id="a_node2"><a xlink:href="classdenoptim_1_1molecularmodeling_1_1_chemical_object_model.html#a5b6a2d27491b6dcf3d6a7d5910bd9c8b" target="_top" xlink:title="Constructs a Molecule3DBuilder specifying all its features.">
<polygon fill="white" stroke="black" points="0,-420 0,-450 209,-450 209,-420 0,-420"/>
<text text-anchor="start" x="8" y="-438" font-family="Helvetica,sans-Serif" font-size="10.00">denoptim.molecularmodeling.</text>
<text text-anchor="middle" x="104.5" y="-427" font-family="Helvetica,sans-Serif" font-size="10.00">ChemicalObjectModel.ChemicalObjectModel</text>
</a>
</g>
</g>
<!-- Node1&#45;&gt;Node2 -->
<g id="edge1" class="edge">
<title>Node1&#45;&gt;Node2</title>
<path fill="none" stroke="midnightblue" d="M333.68,-255.27C314.09,-294.49 270.02,-371.38 209,-411 203.66,-414.47 197.88,-417.43 191.88,-419.97"/>
<polygon fill="midnightblue" stroke="midnightblue" points="336.89,-256.68 338.13,-246.16 330.6,-253.61 336.89,-256.68"/>
</g>
<!-- Node3 -->
<g id="node3" class="node">
<title>Node3</title>
<g id="a_node3"><a xlink:href="classdenoptim_1_1molecularmodeling_1_1_chemical_object_model_test.html#abc0a13511805e3a3762c00f95f7427de" target="_top" xlink:title=" ">
<polygon fill="white" stroke="black" points="13.5,-360.5 13.5,-401.5 195.5,-401.5 195.5,-360.5 13.5,-360.5"/>
<text text-anchor="start" x="21.5" y="-389.5" font-family="Helvetica,sans-Serif" font-size="10.00">denoptim.molecularmodeling.</text>
<text text-anchor="start" x="21.5" y="-378.5" font-family="Helvetica,sans-Serif" font-size="10.00">ChemicalObjectModelTest.testUpdate</text>
<text text-anchor="middle" x="104.5" y="-367.5" font-family="Helvetica,sans-Serif" font-size="10.00">XYZFromINT</text>
</a>
</g>
</g>
<!-- Node1&#45;&gt;Node3 -->
<g id="edge2" class="edge">
<title>Node1&#45;&gt;Node3</title>
<path fill="none" stroke="midnightblue" d="M325.24,-253.7C300.6,-280.66 255.97,-325.19 209,-351 202.61,-354.51 195.76,-357.65 188.74,-360.45"/>
<polygon fill="midnightblue" stroke="midnightblue" points="327.84,-256.04 331.93,-246.27 322.64,-251.36 327.84,-256.04"/>
</g>
<!-- Node4 -->
<g id="node4" class="node">
<title>Node4</title>
<g id="a_node4"><a xlink:href="classdenoptim_1_1molecularmodeling_1_1_chemical_object_model_test.html#a991182ec86fd53cd373d3359a9c92373" target="_top" xlink:title=" ">
<polygon fill="white" stroke="black" points="13.5,-300.5 13.5,-341.5 195.5,-341.5 195.5,-300.5 13.5,-300.5"/>
<text text-anchor="start" x="21.5" y="-329.5" font-family="Helvetica,sans-Serif" font-size="10.00">denoptim.molecularmodeling.</text>
<text text-anchor="start" x="21.5" y="-318.5" font-family="Helvetica,sans-Serif" font-size="10.00">ChemicalObjectModelTest.testUpdate</text>
<text text-anchor="middle" x="104.5" y="-307.5" font-family="Helvetica,sans-Serif" font-size="10.00">XYZFromINT_ChiralityMinusOne</text>
</a>
</g>
</g>
<!-- Node1&#45;&gt;Node4 -->
<g id="edge3" class="edge">
<title>Node1&#45;&gt;Node4</title>
<path fill="none" stroke="midnightblue" d="M305.09,-250.29C278.29,-262.83 241.98,-279.01 209,-291 199.95,-294.29 190.35,-297.48 180.79,-300.46"/>
<polygon fill="midnightblue" stroke="midnightblue" points="306.6,-253.45 314.15,-246.02 303.61,-247.12 306.6,-253.45"/>
</g>
<!-- Node5 -->
<g id="node5" class="node">
<title>Node5</title>
<g id="a_node5"><a xlink:href="classdenoptim_1_1molecularmodeling_1_1_chemical_object_model_test.html#a419ebc591b27f69c2eef988bbfa30034" target="_top" xlink:title=" ">
<polygon fill="white" stroke="black" points="13.5,-240.5 13.5,-281.5 195.5,-281.5 195.5,-240.5 13.5,-240.5"/>
<text text-anchor="start" x="21.5" y="-269.5" font-family="Helvetica,sans-Serif" font-size="10.00">denoptim.molecularmodeling.</text>
<text text-anchor="start" x="21.5" y="-258.5" font-family="Helvetica,sans-Serif" font-size="10.00">ChemicalObjectModelTest.testUpdate</text>
<text text-anchor="middle" x="104.5" y="-247.5" font-family="Helvetica,sans-Serif" font-size="10.00">XYZFromINT_ChiralityOne</text>
</a>
</g>
</g>
<!-- Node1&#45;&gt;Node5 -->
<g id="edge4" class="edge">
<title>Node1&#45;&gt;Node5</title>
<path fill="none" stroke="midnightblue" d="M234.85,-244.8C221.76,-246.44 208.51,-248.1 195.74,-249.7"/>
<polygon fill="midnightblue" stroke="midnightblue" points="235.33,-248.26 244.82,-243.55 234.46,-241.32 235.33,-248.26"/>
</g>
<!-- Node6 -->
<g id="node6" class="node">
<title>Node6</title>
<g id="a_node6"><a xlink:href="classdenoptim_1_1molecularmodeling_1_1_chemical_object_model_test.html#a3b3e26d79f2d7cccd68c6bb2fa7143cb" target="_top" xlink:title=" ">
<polygon fill="white" stroke="black" points="13.5,-180.5 13.5,-221.5 195.5,-221.5 195.5,-180.5 13.5,-180.5"/>
<text text-anchor="start" x="21.5" y="-209.5" font-family="Helvetica,sans-Serif" font-size="10.00">denoptim.molecularmodeling.</text>
<text text-anchor="start" x="21.5" y="-198.5" font-family="Helvetica,sans-Serif" font-size="10.00">ChemicalObjectModelTest.testUpdate</text>
<text text-anchor="middle" x="104.5" y="-187.5" font-family="Helvetica,sans-Serif" font-size="10.00">XYZFromINT_FirstAtomAtOrigin</text>
</a>
</g>
</g>
<!-- Node1&#45;&gt;Node6 -->
<g id="edge5" class="edge">
<title>Node1&#45;&gt;Node6</title>
<path fill="none" stroke="midnightblue" d="M234.85,-217.2C221.76,-215.56 208.51,-213.9 195.74,-212.3"/>
<polygon fill="midnightblue" stroke="midnightblue" points="234.46,-220.68 244.82,-218.45 235.33,-213.74 234.46,-220.68"/>
</g>
<!-- Node7 -->
<g id="node7" class="node">
<title>Node7</title>
<g id="a_node7"><a xlink:href="classdenoptim_1_1molecularmodeling_1_1_chemical_object_model_test.html#a0bde13c1170d9e7983b0a40db875cecb" target="_top" xlink:title=" ">
<polygon fill="white" stroke="black" points="11.5,-120.5 11.5,-161.5 197.5,-161.5 197.5,-120.5 11.5,-120.5"/>
<text text-anchor="start" x="19.5" y="-149.5" font-family="Helvetica,sans-Serif" font-size="10.00">denoptim.molecularmodeling.</text>
<text text-anchor="start" x="19.5" y="-138.5" font-family="Helvetica,sans-Serif" font-size="10.00">ChemicalObjectModelTest.testUpdate</text>
<text text-anchor="middle" x="104.5" y="-127.5" font-family="Helvetica,sans-Serif" font-size="10.00">XYZFromINT_FourthAtomWithDihedral</text>
</a>
</g>
</g>
<!-- Node1&#45;&gt;Node7 -->
<g id="edge6" class="edge">
<title>Node1&#45;&gt;Node7</title>
<path fill="none" stroke="midnightblue" d="M305.09,-211.71C278.29,-199.17 241.98,-182.99 209,-171 199.95,-167.71 190.35,-164.52 180.79,-161.54"/>
<polygon fill="midnightblue" stroke="midnightblue" points="303.61,-214.88 314.15,-215.98 306.6,-208.55 303.61,-214.88"/>
</g>
<!-- Node8 -->
<g id="node8" class="node">
<title>Node8</title>
<g id="a_node8"><a xlink:href="classdenoptim_1_1molecularmodeling_1_1_chemical_object_model_test.html#a4b1c2991fa23f24226f266e7914a62b4" target="_top" xlink:title=" ">
<polygon fill="white" stroke="black" points="11.5,-60.5 11.5,-101.5 197.5,-101.5 197.5,-60.5 11.5,-60.5"/>
<text text-anchor="start" x="19.5" y="-89.5" font-family="Helvetica,sans-Serif" font-size="10.00">denoptim.molecularmodeling.</text>
<text text-anchor="start" x="19.5" y="-78.5" font-family="Helvetica,sans-Serif" font-size="10.00">ChemicalObjectModelTest.testUpdate</text>
<text text-anchor="middle" x="104.5" y="-67.5" font-family="Helvetica,sans-Serif" font-size="10.00">XYZFromINT_SecondAtomAlongZAxis</text>
</a>
</g>
</g>
<!-- Node1&#45;&gt;Node8 -->
<g id="edge7" class="edge">
<title>Node1&#45;&gt;Node8</title>
<path fill="none" stroke="midnightblue" d="M325.24,-208.3C300.6,-181.34 255.97,-136.81 209,-111 202.61,-107.49 195.76,-104.35 188.74,-101.55"/>
<polygon fill="midnightblue" stroke="midnightblue" points="322.64,-210.64 331.93,-215.73 327.84,-205.96 322.64,-210.64"/>
</g>
<!-- Node9 -->
<g id="node9" class="node">
<title>Node9</title>
<g id="a_node9"><a xlink:href="classdenoptim_1_1molecularmodeling_1_1_chemical_object_model_test.html#a671cec65638eb9e1b2c514b9ce821e8d" target="_top" xlink:title=" ">
<polygon fill="white" stroke="black" points="13.5,-0.5 13.5,-41.5 195.5,-41.5 195.5,-0.5 13.5,-0.5"/>
<text text-anchor="start" x="21.5" y="-29.5" font-family="Helvetica,sans-Serif" font-size="10.00">denoptim.molecularmodeling.</text>
<text text-anchor="start" x="21.5" y="-18.5" font-family="Helvetica,sans-Serif" font-size="10.00">ChemicalObjectModelTest.testUpdate</text>
<text text-anchor="middle" x="104.5" y="-7.5" font-family="Helvetica,sans-Serif" font-size="10.00">XYZFromINT_ThirdAtomWithAngle</text>
</a>
</g>
</g>
<!-- Node1&#45;&gt;Node9 -->
<g id="edge8" class="edge">
<title>Node1&#45;&gt;Node9</title>
<path fill="none" stroke="midnightblue" d="M333.29,-206.81C313.27,-168.04 268.78,-92.15 209,-51 203.84,-47.45 198.25,-44.31 192.45,-41.54"/>
<polygon fill="midnightblue" stroke="midnightblue" points="330.21,-208.48 337.84,-215.83 336.46,-205.32 330.21,-208.48"/>
</g>
</g>
</svg>
