<?xml version="1.0" encoding="UTF-8" standalone="no"?>
<!DOCTYPE svg PUBLIC "-//W3C//DTD SVG 1.1//EN"
 "http://www.w3.org/Graphics/SVG/1.1/DTD/svg11.dtd">
<!-- Generated by graphviz version 3.0.0 (20221109.1736)
 -->
<!-- Title: denoptim.graph.Edge.getTrgAPID Pages: 1 -->
<svg width="787pt" height="176pt"
 viewBox="0.00 0.00 787.00 175.50" xmlns="http://www.w3.org/2000/svg" xmlns:xlink="http://www.w3.org/1999/xlink">
<g id="graph0" class="graph" transform="scale(1 1) rotate(0) translate(4 171.5)">
<title>denoptim.graph.Edge.getTrgAPID</title>
<polygon fill="white" stroke="transparent" points="-4,4 -4,-171.5 783,-171.5 783,4 -4,4"/>
<!-- Node1 -->
<g id="node1" class="node">
<title>Node1</title>
<g id="a_node1"><a xlink:title=" ">
<polygon fill="#bfbfbf" stroke="black" points="619,-68.5 619,-87.5 779,-87.5 779,-68.5 619,-68.5"/>
<text text-anchor="middle" x="699" y="-75.5" font-family="Helvetica,sans-Serif" font-size="10.00">denoptim.graph.Edge.getTrgAPID</text>
</a>
</g>
</g>
<!-- Node2 -->
<g id="node2" class="node">
<title>Node2</title>
<g id="a_node2"><a xlink:href="classdenoptim_1_1graph_1_1_d_graph.html#a5bac29c23eccedca8d2371ad372d87b6" target="_top" xlink:title=" ">
<polygon fill="white" stroke="black" points="435.5,-137 435.5,-167 569.5,-167 569.5,-137 435.5,-137"/>
<text text-anchor="start" x="443.5" y="-155" font-family="Helvetica,sans-Serif" font-size="10.00">denoptim.graph.DGraph.get</text>
<text text-anchor="middle" x="502.5" y="-144" font-family="Helvetica,sans-Serif" font-size="10.00">BondingAPIndex</text>
</a>
</g>
</g>
<!-- Node1&#45;&gt;Node2 -->
<g id="edge1" class="edge">
<title>Node1&#45;&gt;Node2</title>
<path fill="none" stroke="midnightblue" d="M668.72,-91.86C645.71,-102.48 612.69,-117.11 583,-128 574.47,-131.13 565.33,-134.17 556.39,-136.98"/>
<polygon fill="midnightblue" stroke="midnightblue" points="670.34,-94.97 677.93,-87.58 667.39,-88.62 670.34,-94.97"/>
</g>
<!-- Node3 -->
<g id="node3" class="node">
<title>Node3</title>
<g id="a_node3"><a xlink:href="classdenoptim_1_1ga_1_1_graph_operations.html#a7a13e1b1304c0857ae6fa97b744e7289" target="_top" xlink:title="Method to select fragments that increase the likeliness of generating closable chains.">
<polygon fill="white" stroke="black" points="422,-88 422,-118 583,-118 583,-88 422,-88"/>
<text text-anchor="start" x="430" y="-106" font-family="Helvetica,sans-Serif" font-size="10.00">denoptim.ga.GraphOperations.get</text>
<text text-anchor="middle" x="502.5" y="-95" font-family="Helvetica,sans-Serif" font-size="10.00">FragmentForClosableChain</text>
</a>
</g>
</g>
<!-- Node1&#45;&gt;Node3 -->
<g id="edge2" class="edge">
<title>Node1&#45;&gt;Node3</title>
<path fill="none" stroke="midnightblue" d="M613.83,-88.82C603.67,-90.13 593.31,-91.46 583.21,-92.75"/>
<polygon fill="midnightblue" stroke="midnightblue" points="614.44,-92.27 623.91,-87.52 613.55,-85.33 614.44,-92.27"/>
</g>
<!-- Node6 -->
<g id="node6" class="node">
<title>Node6</title>
<g id="a_node6"><a xlink:href="classdenoptim_1_1graph_1_1rings_1_1_path_sub_graph.html#a5c018cc9952d2cac46a5d44f8bf06d8c" target="_top" xlink:title="Constructs a new PathSubGraph specifying the first and last vertex of the path.">
<polygon fill="white" stroke="black" points="438.5,-39 438.5,-69 566.5,-69 566.5,-39 438.5,-39"/>
<text text-anchor="start" x="446.5" y="-57" font-family="Helvetica,sans-Serif" font-size="10.00">denoptim.graph.rings.Path</text>
<text text-anchor="middle" x="502.5" y="-46" font-family="Helvetica,sans-Serif" font-size="10.00">SubGraph.PathSubGraph</text>
</a>
</g>
</g>
<!-- Node1&#45;&gt;Node6 -->
<g id="edge5" class="edge">
<title>Node1&#45;&gt;Node6</title>
<path fill="none" stroke="midnightblue" d="M610.68,-67.23C595.9,-65.4 580.81,-63.54 566.8,-61.81"/>
<polygon fill="midnightblue" stroke="midnightblue" points="610.5,-70.73 620.85,-68.48 611.35,-63.78 610.5,-70.73"/>
</g>
<!-- Node7 -->
<g id="node7" class="node">
<title>Node7</title>
<g id="a_node7"><a xlink:href="classdenoptim_1_1graph_1_1_edge.html#a9a7430e5a0df146b404ca4d30e0beee4" target="_top" xlink:title=" ">
<polygon fill="white" stroke="black" points="431,-0.5 431,-19.5 574,-19.5 574,-0.5 431,-0.5"/>
<text text-anchor="middle" x="502.5" y="-7.5" font-family="Helvetica,sans-Serif" font-size="10.00">denoptim.graph.Edge.toString</text>
</a>
</g>
</g>
<!-- Node1&#45;&gt;Node7 -->
<g id="edge6" class="edge">
<title>Node1&#45;&gt;Node7</title>
<path fill="none" stroke="midnightblue" d="M668.38,-64.2C645.42,-53.86 612.64,-39.85 583,-30 571.25,-26.09 558.3,-22.53 546.33,-19.53"/>
<polygon fill="midnightblue" stroke="midnightblue" points="667.03,-67.43 677.58,-68.39 669.93,-61.06 667.03,-67.43"/>
</g>
<!-- Node4 -->
<g id="node4" class="node">
<title>Node4</title>
<g id="a_node4"><a xlink:href="classdenoptim_1_1ga_1_1_graph_operations.html#a649892c4a2b1d4ccd2f97cae6dd7ed98" target="_top" xlink:title=" ">
<polygon fill="white" stroke="black" points="212,-88 212,-118 386,-118 386,-88 212,-88"/>
<text text-anchor="start" x="220" y="-106" font-family="Helvetica,sans-Serif" font-size="10.00">denoptim.ga.GraphOperations.attach</text>
<text text-anchor="middle" x="299" y="-95" font-family="Helvetica,sans-Serif" font-size="10.00">FragmentInClosableChain</text>
</a>
</g>
</g>
<!-- Node3&#45;&gt;Node4 -->
<g id="edge3" class="edge">
<title>Node3&#45;&gt;Node4</title>
<path fill="none" stroke="midnightblue" d="M411.85,-103C403.27,-103 394.57,-103 386.02,-103"/>
<polygon fill="midnightblue" stroke="midnightblue" points="411.86,-106.5 421.86,-103 411.86,-99.5 411.86,-106.5"/>
</g>
<!-- Node5 -->
<g id="node5" class="node">
<title>Node5</title>
<g id="a_node5"><a xlink:href="classdenoptim_1_1ga_1_1_graph_operations.html#a104e82aba7242a457da09540ff0400da" target="_top" xlink:title="function that will keep extending the graph.">
<polygon fill="white" stroke="black" points="0,-88 0,-118 176,-118 176,-88 0,-88"/>
<text text-anchor="start" x="8" y="-106" font-family="Helvetica,sans-Serif" font-size="10.00">denoptim.ga.GraphOperations.extend</text>
<text text-anchor="middle" x="88" y="-95" font-family="Helvetica,sans-Serif" font-size="10.00">Graph</text>
</a>
</g>
</g>
<!-- Node4&#45;&gt;Node5 -->
<g id="edge4" class="edge">
<title>Node4&#45;&gt;Node5</title>
<path fill="none" stroke="midnightblue" d="M201.76,-103C193.18,-103 184.53,-103 176.03,-103"/>
<polygon fill="midnightblue" stroke="midnightblue" points="201.79,-106.5 211.79,-103 201.79,-99.5 201.79,-106.5"/>
</g>
</g>
</svg>
