<?xml version="1.0" encoding="UTF-8" standalone="no"?>
<!DOCTYPE svg PUBLIC "-//W3C//DTD SVG 1.1//EN"
 "http://www.w3.org/Graphics/SVG/1.1/DTD/svg11.dtd">
<!-- Generated by graphviz version 3.0.0 (20221109.1736)
 -->
<!-- Title: denoptim.io.DenoptimIO.writeVertexesToJSON Pages: 1 -->
<svg width="1158pt" height="122pt"
 viewBox="0.00 0.00 1158.00 121.50" xmlns="http://www.w3.org/2000/svg" xmlns:xlink="http://www.w3.org/1999/xlink">
<g id="graph0" class="graph" transform="scale(1 1) rotate(0) translate(4 117.5)">
<title>denoptim.io.DenoptimIO.writeVertexesToJSON</title>
<polygon fill="white" stroke="transparent" points="-4,4 -4,-117.5 1154,-117.5 1154,4 -4,4"/>
<!-- Node1 -->
<g id="node1" class="node">
<title>Node1</title>
<g id="a_node1"><a xlink:title="Writes vertexes to JSON file.">
<polygon fill="#bfbfbf" stroke="black" points="0,-39 0,-69 143,-69 143,-39 0,-39"/>
<text text-anchor="start" x="8" y="-57" font-family="Helvetica,sans-Serif" font-size="10.00">denoptim.io.DenoptimIO.write</text>
<text text-anchor="middle" x="71.5" y="-46" font-family="Helvetica,sans-Serif" font-size="10.00">VertexesToJSON</text>
</a>
</g>
</g>
<!-- Node2 -->
<g id="node2" class="node">
<title>Node2</title>
<g id="a_node2"><a xlink:href="classdenoptim_1_1json_1_1_d_e_n_o_p_t_i_mgson.html#aa8cbbc7dcd366e9f1053c4b2b676e0d7" target="_top" xlink:title=" ">
<polygon fill="white" stroke="black" points="387,-83 387,-113 554,-113 554,-83 387,-83"/>
<text text-anchor="start" x="395" y="-101" font-family="Helvetica,sans-Serif" font-size="10.00">denoptim.json.DENOPTIMgson.get</text>
<text text-anchor="middle" x="470.5" y="-90" font-family="Helvetica,sans-Serif" font-size="10.00">Writer</text>
</a>
</g>
</g>
<!-- Node1&#45;&gt;Node2 -->
<g id="edge1" class="edge">
<title>Node1&#45;&gt;Node2</title>
<path fill="none" stroke="midnightblue" d="M131.63,-69.01C146.97,-72.44 163.53,-75.74 179,-78 244.71,-87.61 319.47,-92.62 376.7,-95.23"/>
<polygon fill="midnightblue" stroke="midnightblue" points="376.67,-98.73 386.81,-95.67 376.97,-91.74 376.67,-98.73"/>
</g>
<!-- Node5 -->
<g id="node5" class="node">
<title>Node5</title>
<g id="a_node5"><a xlink:href="classdenoptim_1_1io_1_1_denoptim_i_o.html#a3c0fb8cce99f346b2f4fb353363a6979" target="_top" xlink:title="Reads a list of Vertexes from a JSON file.">
<polygon fill="white" stroke="black" points="179,-39 179,-69 351,-69 351,-39 179,-39"/>
<text text-anchor="start" x="187" y="-57" font-family="Helvetica,sans-Serif" font-size="10.00">denoptim.io.DenoptimIO.read</text>
<text text-anchor="middle" x="265" y="-46" font-family="Helvetica,sans-Serif" font-size="10.00">DENOPTIMVertexesFromJSONFile</text>
</a>
</g>
</g>
<!-- Node1&#45;&gt;Node5 -->
<g id="edge4" class="edge">
<title>Node1&#45;&gt;Node5</title>
<path fill="none" stroke="midnightblue" d="M143.26,-54C151.61,-54 160.23,-54 168.84,-54"/>
<polygon fill="midnightblue" stroke="midnightblue" points="168.93,-57.5 178.93,-54 168.93,-50.5 168.93,-57.5"/>
</g>
<!-- Node8 -->
<g id="node8" class="node">
<title>Node8</title>
<g id="a_node8"><a xlink:href="classdenoptim_1_1io_1_1_denoptim_i_o.html#adc7de175de66792f4f37f1661c10e7f8" target="_top" xlink:title="Write text&#45;like data file.">
<polygon fill="white" stroke="black" points="183,-0.5 183,-19.5 347,-19.5 347,-0.5 183,-0.5"/>
<text text-anchor="middle" x="265" y="-7.5" font-family="Helvetica,sans-Serif" font-size="10.00">denoptim.io.DenoptimIO.writeData</text>
</a>
</g>
</g>
<!-- Node1&#45;&gt;Node8 -->
<g id="edge9" class="edge">
<title>Node1&#45;&gt;Node8</title>
<path fill="none" stroke="midnightblue" d="M136.11,-38.95C150.23,-35.64 165.12,-32.18 179,-29 189.28,-26.65 200.26,-24.16 210.8,-21.8"/>
<polygon fill="midnightblue" stroke="midnightblue" points="211.74,-25.18 220.74,-19.58 210.22,-18.34 211.74,-25.18"/>
</g>
<!-- Node3 -->
<g id="node3" class="node">
<title>Node3</title>
<g id="a_node3"><a xlink:href="classdenoptim_1_1json_1_1_d_e_n_o_p_t_i_mgson.html#aa14de224ae5d1ae5156f11d5715d360c" target="_top" xlink:title=" ">
<polygon fill="white" stroke="black" points="793,-61 793,-91 960,-91 960,-61 793,-61"/>
<text text-anchor="start" x="801" y="-79" font-family="Helvetica,sans-Serif" font-size="10.00">denoptim.json.DENOPTIMgson.get</text>
<text text-anchor="middle" x="876.5" y="-68" font-family="Helvetica,sans-Serif" font-size="10.00">Instance</text>
</a>
</g>
</g>
<!-- Node2&#45;&gt;Node3 -->
<g id="edge2" class="edge">
<title>Node2&#45;&gt;Node3</title>
<path fill="none" stroke="midnightblue" d="M554.23,-93.49C620.68,-89.88 713.96,-84.8 782.89,-81.04"/>
<polygon fill="midnightblue" stroke="midnightblue" points="783.09,-84.54 792.88,-80.5 782.7,-77.55 783.09,-84.54"/>
</g>
<!-- Node4 -->
<g id="node4" class="node">
<title>Node4</title>
<g id="a_node4"><a xlink:href="classdenoptim_1_1json_1_1_d_e_n_o_p_t_i_mgson.html#a4aafec42bd09225870fdf330db93b84c" target="_top" xlink:title=" ">
<polygon fill="white" stroke="black" points="996,-61 996,-91 1150,-91 1150,-61 996,-61"/>
<text text-anchor="start" x="1004" y="-79" font-family="Helvetica,sans-Serif" font-size="10.00">denoptim.json.DENOPTIMgson.</text>
<text text-anchor="middle" x="1073" y="-68" font-family="Helvetica,sans-Serif" font-size="10.00">DENOPTIMgson</text>
</a>
</g>
</g>
<!-- Node3&#45;&gt;Node4 -->
<g id="edge3" class="edge">
<title>Node3&#45;&gt;Node4</title>
<path fill="none" stroke="midnightblue" d="M960.27,-76C968.65,-76 977.17,-76 985.59,-76"/>
<polygon fill="midnightblue" stroke="midnightblue" points="985.79,-79.5 995.79,-76 985.79,-72.5 985.79,-79.5"/>
</g>
<!-- Node6 -->
<g id="node6" class="node">
<title>Node6</title>
<g id="a_node6"><a xlink:href="classdenoptim_1_1graph_1_1_vertex.html#aaac79f0c3bbeeb57790d23dd57332a6f" target="_top" xlink:title=" ">
<polygon fill="white" stroke="black" points="393,-44.5 393,-63.5 548,-63.5 548,-44.5 393,-44.5"/>
<text text-anchor="middle" x="470.5" y="-51.5" font-family="Helvetica,sans-Serif" font-size="10.00">denoptim.graph.Vertex.fromJson</text>
</a>
</g>
</g>
<!-- Node5&#45;&gt;Node6 -->
<g id="edge5" class="edge">
<title>Node5&#45;&gt;Node6</title>
<path fill="none" stroke="midnightblue" d="M351.12,-54C361.5,-54 372.11,-54 382.51,-54"/>
<polygon fill="midnightblue" stroke="midnightblue" points="382.82,-57.5 392.82,-54 382.82,-50.5 382.82,-57.5"/>
</g>
<!-- Node7 -->
<g id="node7" class="node">
<title>Node7</title>
<g id="a_node7"><a xlink:href="classdenoptim_1_1json_1_1_d_e_n_o_p_t_i_mgson.html#a3e85cb26bb2f36407e309e41880ef191" target="_top" xlink:title=" ">
<polygon fill="white" stroke="black" points="590,-39 590,-69 757,-69 757,-39 590,-39"/>
<text text-anchor="start" x="598" y="-57" font-family="Helvetica,sans-Serif" font-size="10.00">denoptim.json.DENOPTIMgson.get</text>
<text text-anchor="middle" x="673.5" y="-46" font-family="Helvetica,sans-Serif" font-size="10.00">Reader</text>
</a>
</g>
</g>
<!-- Node5&#45;&gt;Node7 -->
<g id="edge8" class="edge">
<title>Node5&#45;&gt;Node7</title>
<path fill="none" stroke="midnightblue" d="M350.75,-38.98C362.88,-37.33 375.23,-35.92 387,-35 461,-29.23 480.01,-29.11 554,-35 562.36,-35.67 571.02,-36.59 579.68,-37.68"/>
<polygon fill="midnightblue" stroke="midnightblue" points="579.45,-41.18 589.83,-39.03 580.37,-34.24 579.45,-41.18"/>
</g>
<!-- Node6&#45;&gt;Node7 -->
<g id="edge6" class="edge">
<title>Node6&#45;&gt;Node7</title>
<path fill="none" stroke="midnightblue" d="M548.06,-54C558.4,-54 569.1,-54 579.69,-54"/>
<polygon fill="midnightblue" stroke="midnightblue" points="579.79,-57.5 589.79,-54 579.79,-50.5 579.79,-57.5"/>
</g>
<!-- Node7&#45;&gt;Node3 -->
<g id="edge7" class="edge">
<title>Node7&#45;&gt;Node3</title>
<path fill="none" stroke="midnightblue" d="M757.12,-63.04C765.61,-63.97 774.27,-64.92 782.85,-65.86"/>
<polygon fill="midnightblue" stroke="midnightblue" points="782.55,-69.35 792.87,-66.96 783.31,-62.39 782.55,-69.35"/>
</g>
</g>
</svg>
