<?xml version="1.0" encoding="UTF-8" standalone="no"?>
<!DOCTYPE svg PUBLIC "-//W3C//DTD SVG 1.1//EN"
 "http://www.w3.org/Graphics/SVG/1.1/DTD/svg11.dtd">
<!-- Generated by graphviz version 3.0.0 (20221109.1736)
 -->
<!-- Title: denoptim.fragmenter.ParallelConformerExtractionAlgorithm Pages: 1 -->
<svg width="1177pt" height="813pt"
 viewBox="0.00 0.00 1177.00 812.56" xmlns="http://www.w3.org/2000/svg" xmlns:xlink="http://www.w3.org/1999/xlink">
<g id="graph0" class="graph" transform="scale(1 1) rotate(0) translate(4 808.56)">
<title>denoptim.fragmenter.ParallelConformerExtractionAlgorithm</title>
<polygon fill="white" stroke="transparent" points="-4,4 -4,-808.56 1173,-808.56 1173,4 -4,4"/>
<!-- Node1 -->
<g id="node1" class="node">
<title>Node1</title>
<g id="a_node1"><a xlink:title="Runs threads that extract the most representative conformer of fragments given as input.">
<polygon fill="#bfbfbf" stroke="black" points="1023,-505.06 1023,-535.06 1169,-535.06 1169,-505.06 1023,-505.06"/>
<text text-anchor="start" x="1031" y="-523.06" font-family="Helvetica,sans-Serif" font-size="10.00">denoptim.fragmenter.Parallel</text>
<text text-anchor="middle" x="1096" y="-512.06" font-family="Helvetica,sans-Serif" font-size="10.00">ConformerExtractionAlgorithm</text>
</a>
</g>
</g>
<!-- Node2 -->
<g id="node2" class="node">
<title>Node2</title>
<g id="a_node2"><a xlink:href="classdenoptim_1_1task_1_1_parallel_asynchronous_task_executor.html" target="_top" xlink:title="Runs tasks parallel in asynchronous fashion.">
<polygon fill="white" stroke="black" points="455,-675.06 455,-705.06 628,-705.06 628,-675.06 455,-675.06"/>
<text text-anchor="start" x="463" y="-693.06" font-family="Helvetica,sans-Serif" font-size="10.00">denoptim.task.ParallelAsynchronous</text>
<text text-anchor="middle" x="541.5" y="-682.06" font-family="Helvetica,sans-Serif" font-size="10.00">TaskExecutor</text>
</a>
</g>
</g>
<!-- Node2&#45;&gt;Node1 -->
<g id="edge1" class="edge">
<title>Node2&#45;&gt;Node1</title>
<path fill="none" stroke="midnightblue" d="M601.1,-672.03C710.61,-638.33 944.4,-566.4 1046.08,-535.11"/>
<polygon fill="midnightblue" stroke="midnightblue" points="600.06,-668.69 591.53,-674.97 602.12,-675.38 600.06,-668.69"/>
</g>
<!-- Node3 -->
<g id="node3" class="node">
<title>Node3</title>
<g id="a_node3"><a xlink:title=" ">
<polygon fill="white" stroke="black" points="177,-774.06 177,-804.06 308,-804.06 308,-774.06 177,-774.06"/>
<text text-anchor="start" x="185" y="-792.06" font-family="Helvetica,sans-Serif" font-size="10.00">Map&lt; denoptim.task.Task,</text>
<text text-anchor="middle" x="242.5" y="-781.06" font-family="Helvetica,sans-Serif" font-size="10.00"> Future&lt; Object &gt; &gt;</text>
</a>
</g>
</g>
<!-- Node3&#45;&gt;Node2 -->
<g id="edge2" class="edge">
<title>Node3&#45;&gt;Node2</title>
<path fill="none" stroke="#9a32cd" stroke-dasharray="5,2" d="M318.33,-775.45C354.47,-767.8 398.11,-756.97 436,-743.06 464.07,-732.75 494.36,-716.81 515.06,-705.1"/>
<polygon fill="#9a32cd" stroke="#9a32cd" points="317.42,-772.06 308.34,-777.52 318.85,-778.92 317.42,-772.06"/>
<text text-anchor="middle" x="398.5" y="-768.06" font-family="Helvetica,sans-Serif" font-size="10.00"> futures</text>
</g>
<!-- Node4 -->
<g id="node4" class="node">
<title>Node4</title>
<g id="a_node4"><a xlink:title=" ">
<polygon fill="white" stroke="black" points="175.5,-735.56 175.5,-754.56 309.5,-754.56 309.5,-735.56 175.5,-735.56"/>
<text text-anchor="middle" x="242.5" y="-742.56" font-family="Helvetica,sans-Serif" font-size="10.00">List&lt; denoptim.task.Task &gt;</text>
</a>
</g>
</g>
<!-- Node4&#45;&gt;Node2 -->
<g id="edge3" class="edge">
<title>Node4&#45;&gt;Node2</title>
<path fill="none" stroke="#9a32cd" stroke-dasharray="5,2" d="M319.93,-734.59C355.35,-729.37 397.94,-722.57 436,-715.06 450.73,-712.16 466.53,-708.6 481.27,-705.1"/>
<polygon fill="#9a32cd" stroke="#9a32cd" points="319.05,-731.18 309.66,-736.09 320.06,-738.11 319.05,-731.18"/>
<text text-anchor="middle" x="398.5" y="-731.06" font-family="Helvetica,sans-Serif" font-size="10.00"> submitted</text>
</g>
<!-- Node5 -->
<g id="node5" class="node">
<title>Node5</title>
<g id="a_node5"><a xlink:title=" ">
<polygon fill="white" stroke="black" points="203.5,-697.56 203.5,-716.56 281.5,-716.56 281.5,-697.56 203.5,-697.56"/>
<text text-anchor="middle" x="242.5" y="-704.56" font-family="Helvetica,sans-Serif" font-size="10.00">List&lt; Object &gt;</text>
</a>
</g>
</g>
<!-- Node5&#45;&gt;Node2 -->
<g id="edge4" class="edge">
<title>Node5&#45;&gt;Node2</title>
<path fill="none" stroke="#9a32cd" stroke-dasharray="5,2" d="M291.86,-704.29C335.85,-701.77 401.81,-698 454.73,-694.97"/>
<polygon fill="#9a32cd" stroke="#9a32cd" points="291.5,-700.81 281.72,-704.87 291.9,-707.8 291.5,-700.81"/>
<text text-anchor="middle" x="398.5" y="-703.06" font-family="Helvetica,sans-Serif" font-size="10.00"> results</text>
</g>
<!-- Node6 -->
<g id="node6" class="node">
<title>Node6</title>
<g id="a_node6"><a xlink:title=" ">
<polygon fill="white" stroke="black" points="190.5,-659.56 190.5,-678.56 294.5,-678.56 294.5,-659.56 190.5,-659.56"/>
<text text-anchor="middle" x="242.5" y="-666.56" font-family="Helvetica,sans-Serif" font-size="10.00">ThreadPoolExecutor</text>
</a>
</g>
</g>
<!-- Node6&#45;&gt;Node2 -->
<g id="edge5" class="edge">
<title>Node6&#45;&gt;Node2</title>
<path fill="none" stroke="#9a32cd" stroke-dasharray="5,2" d="M304.95,-671.97C342.77,-673.91 392.22,-676.72 436,-680.06 442.18,-680.53 448.56,-681.06 454.98,-681.61"/>
<polygon fill="#9a32cd" stroke="#9a32cd" points="304.77,-668.46 294.6,-671.45 304.41,-675.45 304.77,-668.46"/>
<text text-anchor="middle" x="398.5" y="-683.06" font-family="Helvetica,sans-Serif" font-size="10.00"> tpe</text>
</g>
<!-- Node7 -->
<g id="node7" class="node">
<title>Node7</title>
<g id="a_node7"><a xlink:title=" ">
<polygon fill="white" stroke="black" points="219,-618.56 219,-637.56 266,-637.56 266,-618.56 219,-618.56"/>
<text text-anchor="middle" x="242.5" y="-625.56" font-family="Helvetica,sans-Serif" font-size="10.00">Logger</text>
</a>
</g>
</g>
<!-- Node7&#45;&gt;Node2 -->
<g id="edge6" class="edge">
<title>Node7&#45;&gt;Node2</title>
<path fill="none" stroke="#9a32cd" stroke-dasharray="5,2" d="M276.29,-632.34C314.78,-637.64 380.42,-647.51 436,-660.06 454.6,-664.26 474.78,-669.82 492.41,-675"/>
<polygon fill="#9a32cd" stroke="#9a32cd" points="276.57,-628.85 266.19,-630.97 275.63,-635.78 276.57,-628.85"/>
<text text-anchor="middle" x="398.5" y="-663.06" font-family="Helvetica,sans-Serif" font-size="10.00"> logger</text>
</g>
<!-- Node9 -->
<g id="node9" class="node">
<title>Node9</title>
<g id="a_node9"><a xlink:href="classdenoptim_1_1programs_1_1_run_time_parameters.html" target="_top" xlink:title="Collection of parameters controlling the behavior of the software.">
<polygon fill="white" stroke="black" points="471.5,-556.06 471.5,-586.06 611.5,-586.06 611.5,-556.06 471.5,-556.06"/>
<text text-anchor="start" x="479.5" y="-574.06" font-family="Helvetica,sans-Serif" font-size="10.00">denoptim.programs.RunTime</text>
<text text-anchor="middle" x="541.5" y="-563.06" font-family="Helvetica,sans-Serif" font-size="10.00">Parameters</text>
</a>
</g>
</g>
<!-- Node7&#45;&gt;Node9 -->
<g id="edge9" class="edge">
<title>Node7&#45;&gt;Node9</title>
<path fill="none" stroke="#9a32cd" stroke-dasharray="5,2" d="M276.2,-621.78C322.96,-612.81 410.06,-596.09 471.46,-584.31"/>
<polygon fill="#9a32cd" stroke="#9a32cd" points="275.47,-618.36 266.31,-623.68 276.79,-625.23 275.47,-618.36"/>
<text text-anchor="middle" x="398.5" y="-607.06" font-family="Helvetica,sans-Serif" font-size="10.00"> logger</text>
</g>
<!-- Node8 -->
<g id="node8" class="node">
<title>Node8</title>
<g id="a_node8"><a xlink:href="classdenoptim_1_1programs_1_1fragmenter_1_1_fragmenter_parameters.html" target="_top" xlink:title="Parameters controlling execution of the fragmenter.">
<polygon fill="white" stroke="black" points="800,-307.06 800,-337.06 950,-337.06 950,-307.06 800,-307.06"/>
<text text-anchor="start" x="808" y="-325.06" font-family="Helvetica,sans-Serif" font-size="10.00">denoptim.programs.fragmenter.</text>
<text text-anchor="middle" x="875" y="-314.06" font-family="Helvetica,sans-Serif" font-size="10.00">FragmenterParameters</text>
</a>
</g>
</g>
<!-- Node8&#45;&gt;Node1 -->
<g id="edge7" class="edge">
<title>Node8&#45;&gt;Node1</title>
<path fill="none" stroke="#9a32cd" stroke-dasharray="5,2" d="M900.33,-344.06C945.13,-384.56 1039.61,-469.98 1078.12,-504.8"/>
<polygon fill="#9a32cd" stroke="#9a32cd" points="902.59,-341.38 892.82,-337.27 897.89,-346.57 902.59,-341.38"/>
<text text-anchor="middle" x="986.5" y="-436.06" font-family="Helvetica,sans-Serif" font-size="10.00"> settings</text>
</g>
<!-- Node9&#45;&gt;Node8 -->
<g id="edge8" class="edge">
<title>Node9&#45;&gt;Node8</title>
<path fill="none" stroke="midnightblue" d="M621.96,-581.83C672.53,-584.34 736.78,-579 782,-545.06 851.67,-492.77 868.86,-378.24 872.86,-337.13"/>
<polygon fill="midnightblue" stroke="midnightblue" points="621.91,-578.32 611.71,-581.21 621.48,-585.31 621.91,-578.32"/>
</g>
<!-- Node10 -->
<g id="node10" class="node">
<title>Node10</title>
<g id="a_node10"><a xlink:href="classdenoptim_1_1utils_1_1_randomizer.html" target="_top" xlink:title="Tool to generate random numbers and random decisions.">
<polygon fill="white" stroke="black" points="177.5,-576.56 177.5,-595.56 307.5,-595.56 307.5,-576.56 177.5,-576.56"/>
<text text-anchor="middle" x="242.5" y="-583.56" font-family="Helvetica,sans-Serif" font-size="10.00">denoptim.utils.Randomizer</text>
</a>
</g>
</g>
<!-- Node10&#45;&gt;Node9 -->
<g id="edge10" class="edge">
<title>Node10&#45;&gt;Node9</title>
<path fill="none" stroke="#9a32cd" stroke-dasharray="5,2" d="M317.98,-575.9C332.23,-574.32 347.06,-572.93 361,-572.06 397.39,-569.8 438.01,-569.4 471.4,-569.62"/>
<polygon fill="#9a32cd" stroke="#9a32cd" points="317.25,-572.46 307.72,-577.08 318.05,-579.42 317.25,-572.46"/>
<text text-anchor="middle" x="398.5" y="-575.06" font-family="Helvetica,sans-Serif" font-size="10.00"> rng</text>
</g>
<!-- Node11 -->
<g id="node11" class="node">
<title>Node11</title>
<g id="a_node11"><a xlink:title=" ">
<polygon fill="white" stroke="black" points="0,-576.56 0,-595.56 92,-595.56 92,-576.56 0,-576.56"/>
<text text-anchor="middle" x="46" y="-583.56" font-family="Helvetica,sans-Serif" font-size="10.00">MersenneTwister</text>
</a>
</g>
</g>
<!-- Node11&#45;&gt;Node10 -->
<g id="edge11" class="edge">
<title>Node11&#45;&gt;Node10</title>
<path fill="none" stroke="#9a32cd" stroke-dasharray="5,2" d="M102.23,-586.06C125.67,-586.06 153.15,-586.06 177.48,-586.06"/>
<polygon fill="#9a32cd" stroke="#9a32cd" points="102.11,-582.56 92.11,-586.06 102.11,-589.56 102.11,-582.56"/>
<text text-anchor="middle" x="117" y="-589.06" font-family="Helvetica,sans-Serif" font-size="10.00"> mt</text>
</g>
<!-- Node12 -->
<g id="node12" class="node">
<title>Node12</title>
<g id="a_node12"><a xlink:title=" ">
<polygon fill="white" stroke="black" points="142,-516.56 142,-557.56 343,-557.56 343,-516.56 142,-516.56"/>
<text text-anchor="start" x="150" y="-545.56" font-family="Helvetica,sans-Serif" font-size="10.00">Map&lt; denoptim.programs.Run</text>
<text text-anchor="start" x="150" y="-534.56" font-family="Helvetica,sans-Serif" font-size="10.00">TimeParameters.ParametersType,</text>
<text text-anchor="middle" x="242.5" y="-523.56" font-family="Helvetica,sans-Serif" font-size="10.00"> denoptim.programs.RunTimeParameters &gt;</text>
</a>
</g>
</g>
<!-- Node12&#45;&gt;Node9 -->
<g id="edge12" class="edge">
<title>Node12&#45;&gt;Node9</title>
<path fill="none" stroke="#9a32cd" stroke-dasharray="5,2" d="M353.34,-545.36C380.4,-547.79 409.29,-550.71 436,-554.06 447.49,-555.5 459.65,-557.26 471.46,-559.1"/>
<polygon fill="#9a32cd" stroke="#9a32cd" points="353.33,-541.85 343.06,-544.46 352.72,-548.82 353.33,-541.85"/>
<text text-anchor="middle" x="398.5" y="-557.06" font-family="Helvetica,sans-Serif" font-size="10.00"> otherParameters</text>
</g>
<!-- Node13 -->
<g id="node13" class="node">
<title>Node13</title>
<g id="a_node13"><a xlink:href="enumdenoptim_1_1programs_1_1_run_time_parameters_1_1_parameters_type.html" target="_top" xlink:title="Identifier of the type of parameters.">
<polygon fill="white" stroke="black" points="172.5,-468.06 172.5,-498.06 312.5,-498.06 312.5,-468.06 172.5,-468.06"/>
<text text-anchor="start" x="180.5" y="-486.06" font-family="Helvetica,sans-Serif" font-size="10.00">denoptim.programs.RunTime</text>
<text text-anchor="middle" x="242.5" y="-475.06" font-family="Helvetica,sans-Serif" font-size="10.00">Parameters.ParametersType</text>
</a>
</g>
</g>
<!-- Node13&#45;&gt;Node9 -->
<g id="edge13" class="edge">
<title>Node13&#45;&gt;Node9</title>
<path fill="none" stroke="#9a32cd" stroke-dasharray="5,2" d="M316.19,-500.45C325.22,-502.65 334.33,-504.9 343,-507.06 384.42,-517.4 398.33,-510.99 436,-531.06 445.45,-536.09 444.6,-541.94 454,-547.06 460.3,-550.49 467.12,-553.46 474.08,-556.03"/>
<polygon fill="#9a32cd" stroke="#9a32cd" points="316.98,-497.04 306.43,-498.08 315.32,-503.84 316.98,-497.04"/>
<text text-anchor="middle" x="398.5" y="-534.06" font-family="Helvetica,sans-Serif" font-size="10.00"> paramType</text>
</g>
<!-- Node14 -->
<g id="node14" class="node">
<title>Node14</title>
<g id="a_node14"><a xlink:title=" ">
<polygon fill="white" stroke="black" points="479,-507.06 479,-537.06 604,-537.06 604,-507.06 479,-507.06"/>
<text text-anchor="start" x="487" y="-525.06" font-family="Helvetica,sans-Serif" font-size="10.00">LinkedHashMap&lt; String,</text>
<text text-anchor="middle" x="541.5" y="-514.06" font-family="Helvetica,sans-Serif" font-size="10.00"> String &gt;</text>
</a>
</g>
</g>
<!-- Node14&#45;&gt;Node8 -->
<g id="edge14" class="edge">
<title>Node14&#45;&gt;Node8</title>
<path fill="none" stroke="#9a32cd" stroke-dasharray="5,2" d="M614.47,-532.64C665.44,-536.28 733.16,-532.95 782,-500.06 840.28,-460.81 863.87,-372.68 871.23,-337.24"/>
<polygon fill="#9a32cd" stroke="#9a32cd" points="614.44,-529.12 604.19,-531.79 613.87,-536.1 614.44,-529.12"/>
<text text-anchor="middle" x="714.5" y="-536.06" font-family="Helvetica,sans-Serif" font-size="10.00"> formulae</text>
</g>
<!-- Node15 -->
<g id="node15" class="node">
<title>Node15</title>
<g id="a_node15"><a xlink:title=" ">
<polygon fill="white" stroke="black" points="454,-458.06 454,-488.06 629,-488.06 629,-458.06 454,-458.06"/>
<text text-anchor="start" x="462" y="-476.06" font-family="Helvetica,sans-Serif" font-size="10.00">List&lt; denoptim.programs.fragmenter.</text>
<text text-anchor="middle" x="541.5" y="-465.06" font-family="Helvetica,sans-Serif" font-size="10.00">CuttingRule &gt;</text>
</a>
</g>
</g>
<!-- Node15&#45;&gt;Node8 -->
<g id="edge15" class="edge">
<title>Node15&#45;&gt;Node8</title>
<path fill="none" stroke="#9a32cd" stroke-dasharray="5,2" d="M639.22,-485.96C685.24,-487.54 739.37,-482.43 782,-458.06 830.01,-430.62 858.09,-366.67 868.87,-337.3"/>
<polygon fill="#9a32cd" stroke="#9a32cd" points="639.38,-482.46 629.23,-485.51 639.06,-489.45 639.38,-482.46"/>
<text text-anchor="middle" x="714.5" y="-490.06" font-family="Helvetica,sans-Serif" font-size="10.00"> cuttingRules</text>
</g>
<!-- Node16 -->
<g id="node16" class="node">
<title>Node16</title>
<g id="a_node16"><a xlink:title=" ">
<polygon fill="white" stroke="black" points="504.5,-419.56 504.5,-438.56 578.5,-438.56 578.5,-419.56 504.5,-419.56"/>
<text text-anchor="middle" x="541.5" y="-426.56" font-family="Helvetica,sans-Serif" font-size="10.00">Set&lt; String &gt;</text>
</a>
</g>
</g>
<!-- Node16&#45;&gt;Node8 -->
<g id="edge16" class="edge">
<title>Node16&#45;&gt;Node8</title>
<path fill="none" stroke="#9a32cd" stroke-dasharray="5,2" d="M589.17,-426.35C648.82,-422.34 748.38,-413.7 782,-399.06 814.65,-384.84 844.73,-355.26 861.11,-337.19"/>
<polygon fill="#9a32cd" stroke="#9a32cd" points="588.63,-422.88 578.88,-427.02 589.09,-429.86 588.63,-422.88"/>
<text text-anchor="middle" x="714.5" y="-447.06" font-family="Helvetica,sans-Serif" font-size="10.00"> preFilterSMARTS</text>
<text text-anchor="middle" x="714.5" y="-436.06" font-family="Helvetica,sans-Serif" font-size="10.00">rejectedAPClasses</text>
<text text-anchor="middle" x="714.5" y="-425.06" font-family="Helvetica,sans-Serif" font-size="10.00">rejectedElements</text>
</g>
<!-- Node17 -->
<g id="node17" class="node">
<title>Node17</title>
<g id="a_node17"><a xlink:title=" ">
<polygon fill="white" stroke="black" points="485,-381.56 485,-400.56 598,-400.56 598,-381.56 485,-381.56"/>
<text text-anchor="middle" x="541.5" y="-388.56" font-family="Helvetica,sans-Serif" font-size="10.00">Map&lt; String, Double &gt;</text>
</a>
</g>
</g>
<!-- Node17&#45;&gt;Node8 -->
<g id="edge17" class="edge">
<title>Node17&#45;&gt;Node8</title>
<path fill="none" stroke="#9a32cd" stroke-dasharray="5,2" d="M608.11,-387.74C656.78,-384.1 724.39,-376.56 782,-361.06 803.44,-355.29 826.44,-345.54 844.08,-337.23"/>
<polygon fill="#9a32cd" stroke="#9a32cd" points="607.75,-384.25 598.03,-388.45 608.25,-391.24 607.75,-384.25"/>
<text text-anchor="middle" x="714.5" y="-387.06" font-family="Helvetica,sans-Serif" font-size="10.00"> formulaCriteriaLessThan</text>
</g>
<!-- Node18 -->
<g id="node18" class="node">
<title>Node18</title>
<g id="a_node18"><a xlink:title=" ">
<polygon fill="white" stroke="black" points="469.5,-343.56 469.5,-362.56 613.5,-362.56 613.5,-343.56 469.5,-343.56"/>
<text text-anchor="middle" x="541.5" y="-350.56" font-family="Helvetica,sans-Serif" font-size="10.00">Set&lt; Map&lt; String, Double &gt; &gt;</text>
</a>
</g>
</g>
<!-- Node18&#45;&gt;Node8 -->
<g id="edge18" class="edge">
<title>Node18&#45;&gt;Node8</title>
<path fill="none" stroke="#9a32cd" stroke-dasharray="5,2" d="M623.59,-347.65C670.02,-344.3 729.34,-339.58 782,-334.06 787.77,-333.46 793.73,-332.78 799.72,-332.08"/>
<polygon fill="#9a32cd" stroke="#9a32cd" points="623.31,-344.16 613.59,-348.37 623.81,-351.14 623.31,-344.16"/>
<text text-anchor="middle" x="714.5" y="-349.06" font-family="Helvetica,sans-Serif" font-size="10.00"> formulaCriteriaMoreThan</text>
</g>
<!-- Node19 -->
<g id="node19" class="node">
<title>Node19</title>
<g id="a_node19"><a xlink:title=" ">
<polygon fill="white" stroke="black" points="503,-305.56 503,-324.56 580,-324.56 580,-305.56 503,-305.56"/>
<text text-anchor="middle" x="541.5" y="-312.56" font-family="Helvetica,sans-Serif" font-size="10.00">Set&lt; String[]&gt;</text>
</a>
</g>
</g>
<!-- Node19&#45;&gt;Node8 -->
<g id="edge19" class="edge">
<title>Node19&#45;&gt;Node8</title>
<path fill="none" stroke="#9a32cd" stroke-dasharray="5,2" d="M590.35,-316.07C645.19,-317.23 735.73,-319.14 799.75,-320.49"/>
<polygon fill="#9a32cd" stroke="#9a32cd" points="590.28,-312.57 580.2,-315.86 590.13,-319.57 590.28,-312.57"/>
<text text-anchor="middle" x="714.5" y="-323.06" font-family="Helvetica,sans-Serif" font-size="10.00"> rejectedAPClassCombinations</text>
</g>
<!-- Node20 -->
<g id="node20" class="node">
<title>Node20</title>
<g id="a_node20"><a xlink:title=" ">
<polygon fill="white" stroke="black" points="487.5,-267.56 487.5,-286.56 595.5,-286.56 595.5,-267.56 487.5,-267.56"/>
<text text-anchor="middle" x="541.5" y="-274.56" font-family="Helvetica,sans-Serif" font-size="10.00">Map&lt; String, String &gt;</text>
</a>
</g>
</g>
<!-- Node20&#45;&gt;Node8 -->
<g id="edge20" class="edge">
<title>Node20&#45;&gt;Node8</title>
<path fill="none" stroke="#9a32cd" stroke-dasharray="5,2" d="M605.83,-276.69C654.43,-277.45 722.98,-280.78 782,-292.06 799.82,-295.47 818.98,-301.34 835.18,-306.99"/>
<polygon fill="#9a32cd" stroke="#9a32cd" points="605.82,-273.19 595.78,-276.57 605.73,-280.19 605.82,-273.19"/>
<text text-anchor="middle" x="714.5" y="-306.06" font-family="Helvetica,sans-Serif" font-size="10.00"> fragRejectionSMARTS</text>
<text text-anchor="middle" x="714.5" y="-295.06" font-family="Helvetica,sans-Serif" font-size="10.00">fragRetentionSMARTS</text>
</g>
<!-- Node21 -->
<g id="node21" class="node">
<title>Node21</title>
<g id="a_node21"><a xlink:title=" ">
<polygon fill="white" stroke="black" points="475.5,-218.06 475.5,-248.06 607.5,-248.06 607.5,-218.06 475.5,-218.06"/>
<text text-anchor="start" x="483.5" y="-236.06" font-family="Helvetica,sans-Serif" font-size="10.00">ArrayList&lt; denoptim.graph.</text>
<text text-anchor="middle" x="541.5" y="-225.06" font-family="Helvetica,sans-Serif" font-size="10.00">Vertex &gt;</text>
</a>
</g>
</g>
<!-- Node21&#45;&gt;Node8 -->
<g id="edge21" class="edge">
<title>Node21&#45;&gt;Node8</title>
<path fill="none" stroke="#9a32cd" stroke-dasharray="5,2" d="M617.76,-228.82C666.16,-228.61 729.57,-233.12 782,-253.06 812.98,-264.84 842.46,-290.36 859.37,-306.84"/>
<polygon fill="#9a32cd" stroke="#9a32cd" points="617.63,-225.32 607.67,-228.93 617.7,-232.32 617.63,-225.32"/>
<text text-anchor="middle" x="714.5" y="-267.06" font-family="Helvetica,sans-Serif" font-size="10.00"> ignorableFragments</text>
<text text-anchor="middle" x="714.5" y="-256.06" font-family="Helvetica,sans-Serif" font-size="10.00">targetFragments</text>
</g>
<!-- Node22 -->
<g id="node22" class="node">
<title>Node22</title>
<g id="a_node22"><a xlink:title=" ">
<polygon fill="white" stroke="black" points="492.5,-179.56 492.5,-198.56 590.5,-198.56 590.5,-179.56 492.5,-179.56"/>
<text text-anchor="middle" x="541.5" y="-186.56" font-family="Helvetica,sans-Serif" font-size="10.00">Map&lt; String, File &gt;</text>
</a>
</g>
</g>
<!-- Node22&#45;&gt;Node8 -->
<g id="edge22" class="edge">
<title>Node22&#45;&gt;Node8</title>
<path fill="none" stroke="#9a32cd" stroke-dasharray="5,2" d="M600.74,-179.89C651.58,-174.76 725.81,-174.41 782,-204.06 825.42,-226.97 854.87,-280.37 867.32,-306.75"/>
<polygon fill="#9a32cd" stroke="#9a32cd" points="600.14,-176.44 590.58,-181.01 600.9,-183.4 600.14,-176.44"/>
<text text-anchor="middle" x="714.5" y="-218.06" font-family="Helvetica,sans-Serif" font-size="10.00"> mwSlotToAllFragsFile</text>
<text text-anchor="middle" x="714.5" y="-207.06" font-family="Helvetica,sans-Serif" font-size="10.00">mwSlotToUnqFragsFile</text>
</g>
<!-- Node23 -->
<g id="node23" class="node">
<title>Node23</title>
<g id="a_node23"><a xlink:title=" ">
<polygon fill="white" stroke="black" points="485,-141.56 485,-160.56 598,-160.56 598,-141.56 485,-141.56"/>
<text text-anchor="middle" x="541.5" y="-148.56" font-family="Helvetica,sans-Serif" font-size="10.00">Map&lt; String, Integer &gt;</text>
</a>
</g>
</g>
<!-- Node23&#45;&gt;Node8 -->
<g id="edge23" class="edge">
<title>Node23&#45;&gt;Node8</title>
<path fill="none" stroke="#9a32cd" stroke-dasharray="5,2" d="M596.27,-139.92C647.82,-132.24 725.87,-128.79 782,-163.06 836.17,-196.13 861.71,-273.87 870.4,-306.84"/>
<polygon fill="#9a32cd" stroke="#9a32cd" points="595.65,-136.47 586.33,-141.5 596.75,-143.38 595.65,-136.47"/>
<text text-anchor="middle" x="714.5" y="-166.06" font-family="Helvetica,sans-Serif" font-size="10.00"> isomorphsCount</text>
</g>
<!-- Node24 -->
<g id="node24" class="node">
<title>Node24</title>
<g id="a_node24"><a xlink:title=" ">
<polygon fill="white" stroke="black" points="503,-103.56 503,-122.56 580,-122.56 580,-103.56 503,-103.56"/>
<text text-anchor="middle" x="541.5" y="-110.56" font-family="Helvetica,sans-Serif" font-size="10.00">AtomicInteger</text>
</a>
</g>
</g>
<!-- Node24&#45;&gt;Node8 -->
<g id="edge24" class="edge">
<title>Node24&#45;&gt;Node8</title>
<path fill="none" stroke="#9a32cd" stroke-dasharray="5,2" d="M587.05,-101.32C638.55,-90.49 723.69,-81.33 782,-120.06 848.12,-163.98 867.4,-268.02 872.41,-306.98"/>
<polygon fill="#9a32cd" stroke="#9a32cd" points="586.23,-97.92 577.22,-103.49 587.74,-104.75 586.23,-97.92"/>
<text text-anchor="middle" x="714.5" y="-123.06" font-family="Helvetica,sans-Serif" font-size="10.00"> unqIsomorphicFamilyId</text>
</g>
<!-- Node25 -->
<g id="node25" class="node">
<title>Node25</title>
<g id="a_node25"><a xlink:href="enumdenoptim_1_1fragmenter_1_1_scaffolding_policy.html" target="_top" xlink:title="Defines how to define the scaffold vertex of a graph.">
<polygon fill="white" stroke="black" points="464,-54.06 464,-84.06 619,-84.06 619,-54.06 464,-54.06"/>
<text text-anchor="start" x="472" y="-72.06" font-family="Helvetica,sans-Serif" font-size="10.00">denoptim.fragmenter.Scaffolding</text>
<text text-anchor="middle" x="541.5" y="-61.06" font-family="Helvetica,sans-Serif" font-size="10.00">Policy</text>
</a>
</g>
</g>
<!-- Node25&#45;&gt;Node8 -->
<g id="edge25" class="edge">
<title>Node25&#45;&gt;Node8</title>
<path fill="none" stroke="#9a32cd" stroke-dasharray="5,2" d="M611.81,-52.28C663.5,-43.97 733.28,-42.1 782,-77.06 859.7,-132.82 871.82,-262.53 873.68,-306.88"/>
<polygon fill="#9a32cd" stroke="#9a32cd" points="610.99,-48.87 601.73,-54.02 612.18,-55.77 610.99,-48.87"/>
<text text-anchor="middle" x="714.5" y="-80.06" font-family="Helvetica,sans-Serif" font-size="10.00"> scaffoldingPolicy</text>
</g>
<!-- Node26 -->
<g id="node26" class="node">
<title>Node26</title>
<g id="a_node26"><a xlink:href="enumdenoptim_1_1graph_1_1_template_1_1_contract_level.html" target="_top" xlink:title="Enum specifying to what extent the template&#39;s inner graph can be changed.">
<polygon fill="white" stroke="black" points="477.5,-5.06 477.5,-35.06 605.5,-35.06 605.5,-5.06 477.5,-5.06"/>
<text text-anchor="start" x="485.5" y="-23.06" font-family="Helvetica,sans-Serif" font-size="10.00">denoptim.graph.Template.</text>
<text text-anchor="middle" x="541.5" y="-12.06" font-family="Helvetica,sans-Serif" font-size="10.00">ContractLevel</text>
</a>
</g>
</g>
<!-- Node26&#45;&gt;Node8 -->
<g id="edge26" class="edge">
<title>Node26&#45;&gt;Node8</title>
<path fill="none" stroke="#9a32cd" stroke-dasharray="5,2" d="M615.85,-3.84C667.53,3.16 735.53,2.89 782,-33.06 871.13,-102.01 875.53,-257.63 874.58,-306.84"/>
<polygon fill="#9a32cd" stroke="#9a32cd" points="615.13,-0.41 605.74,-5.33 616.15,-7.33 615.13,-0.41"/>
<text text-anchor="middle" x="714.5" y="-36.06" font-family="Helvetica,sans-Serif" font-size="10.00"> embeddedRingsContract</text>
</g>
</g>
</svg>
