<?xml version="1.0" encoding="UTF-8" standalone="no"?>
<!DOCTYPE svg PUBLIC "-//W3C//DTD SVG 1.1//EN"
 "http://www.w3.org/Graphics/SVG/1.1/DTD/svg11.dtd">
<!-- Generated by graphviz version 3.0.0 (20221109.1736)
 -->
<!-- Title: denoptim.utils.GraphConversionTool.getJGraphFromGraph Pages: 1 -->
<svg width="1576pt" height="582pt"
 viewBox="0.00 0.00 1576.00 582.00" xmlns="http://www.w3.org/2000/svg" xmlns:xlink="http://www.w3.org/1999/xlink">
<g id="graph0" class="graph" transform="scale(1 1) rotate(0) translate(4 578)">
<title>denoptim.utils.GraphConversionTool.getJGraphFromGraph</title>
<polygon fill="white" stroke="transparent" points="-4,4 -4,-578 1572,-578 1572,4 -4,4"/>
<!-- Node1 -->
<g id="node1" class="node">
<title>Node1</title>
<g id="a_node1"><a xlink:title="Converts a DGraph into a simplified JGraphT DefaultUndirectedGraph.">
<polygon fill="#bfbfbf" stroke="black" points="1414,-220.5 1414,-250.5 1568,-250.5 1568,-220.5 1414,-220.5"/>
<text text-anchor="start" x="1422" y="-238.5" font-family="Helvetica,sans-Serif" font-size="10.00">denoptim.utils.GraphConversion</text>
<text text-anchor="middle" x="1491" y="-227.5" font-family="Helvetica,sans-Serif" font-size="10.00">Tool.getJGraphFromGraph</text>
</a>
</g>
</g>
<!-- Node2 -->
<g id="node2" class="node">
<title>Node2</title>
<g id="a_node2"><a xlink:href="classdenoptim_1_1graph_1_1_d_graph.html#a305c9a12afe5bb190894fcd730ef299a" target="_top" xlink:title="Checks if this graph is &quot;DENOPTIM&#45;isomorphic&quot; to the other one given.">
<polygon fill="white" stroke="black" points="1250,-220.5 1250,-250.5 1378,-250.5 1378,-220.5 1250,-220.5"/>
<text text-anchor="start" x="1258" y="-238.5" font-family="Helvetica,sans-Serif" font-size="10.00">denoptim.graph.DGraph.is</text>
<text text-anchor="middle" x="1314" y="-227.5" font-family="Helvetica,sans-Serif" font-size="10.00">IsomorphicTo</text>
</a>
</g>
</g>
<!-- Node1&#45;&gt;Node2 -->
<g id="edge1" class="edge">
<title>Node1&#45;&gt;Node2</title>
<path fill="none" stroke="midnightblue" d="M1403.68,-235.5C1395.08,-235.5 1386.46,-235.5 1378.16,-235.5"/>
<polygon fill="midnightblue" stroke="midnightblue" points="1403.75,-239 1413.75,-235.5 1403.75,-232 1403.75,-239"/>
</g>
<!-- Node3 -->
<g id="node3" class="node">
<title>Node3</title>
<g id="a_node3"><a xlink:href="classdenoptim_1_1ga_1_1_graph_operations.html#a2396c23acf24d07f255b94eb3a2105b7" target="_top" xlink:title="Identify crossover sites, i.e., subgraphs that can be swapped between two graphs (i....">
<polygon fill="white" stroke="black" points="590,-414.5 590,-444.5 763,-444.5 763,-414.5 590,-414.5"/>
<text text-anchor="start" x="598" y="-432.5" font-family="Helvetica,sans-Serif" font-size="10.00">denoptim.ga.GraphOperations.locate</text>
<text text-anchor="middle" x="676.5" y="-421.5" font-family="Helvetica,sans-Serif" font-size="10.00">CompatibleXOverPoints</text>
</a>
</g>
</g>
<!-- Node2&#45;&gt;Node3 -->
<g id="edge2" class="edge">
<title>Node2&#45;&gt;Node3</title>
<path fill="none" stroke="midnightblue" d="M1308.98,-260.53C1300.41,-304.45 1275.85,-394.36 1214,-432.5 1056.62,-529.54 820.74,-474.29 722.72,-444.57"/>
<polygon fill="midnightblue" stroke="midnightblue" points="1312.42,-261.12 1310.78,-250.65 1305.54,-259.86 1312.42,-261.12"/>
</g>
<!-- Node12 -->
<g id="node12" class="node">
<title>Node12</title>
<g id="a_node12"><a xlink:href="classdenoptim_1_1ga_1_1_graph_operations.html#a65b1468961ba53b217848640d8fd5232" target="_top" xlink:title="Given a pair of seed vertexes that define where a pair of subgraphs stars in the corresponding origin...">
<polygon fill="white" stroke="black" points="1024.5,-392.5 1024.5,-422.5 1206.5,-422.5 1206.5,-392.5 1024.5,-392.5"/>
<text text-anchor="start" x="1032.5" y="-410.5" font-family="Helvetica,sans-Serif" font-size="10.00">denoptim.ga.GraphOperations.process</text>
<text text-anchor="middle" x="1115.5" y="-399.5" font-family="Helvetica,sans-Serif" font-size="10.00">PermutationOfEndPoints</text>
</a>
</g>
</g>
<!-- Node2&#45;&gt;Node12 -->
<g id="edge12" class="edge">
<title>Node2&#45;&gt;Node12</title>
<path fill="none" stroke="midnightblue" d="M1303.18,-260.04C1288.69,-293.03 1258.43,-351.15 1214,-382.5 1208.57,-386.33 1202.61,-389.57 1196.39,-392.32"/>
<polygon fill="midnightblue" stroke="midnightblue" points="1306.47,-261.24 1307.17,-250.67 1300.03,-258.5 1306.47,-261.24"/>
</g>
<!-- Node14 -->
<g id="node14" class="node">
<title>Node14</title>
<g id="a_node14"><a xlink:href="classdenoptim_1_1programs_1_1graphlisthandler_1_1_graph_lists_handler.html#a82e75728262a789cc27189d910b5c74a" target="_top" xlink:title=" ">
<polygon fill="white" stroke="black" points="1029.5,-343.5 1029.5,-373.5 1201.5,-373.5 1201.5,-343.5 1029.5,-343.5"/>
<text text-anchor="start" x="1037.5" y="-361.5" font-family="Helvetica,sans-Serif" font-size="10.00">denoptim.programs.graphlisthandler.</text>
<text text-anchor="middle" x="1115.5" y="-350.5" font-family="Helvetica,sans-Serif" font-size="10.00">GraphListsHandler.runProgram</text>
</a>
</g>
</g>
<!-- Node2&#45;&gt;Node14 -->
<g id="edge15" class="edge">
<title>Node2&#45;&gt;Node14</title>
<path fill="none" stroke="midnightblue" d="M1295.75,-258.62C1277.77,-281.07 1247.58,-314.47 1214,-333.5 1207.16,-337.38 1199.71,-340.66 1192.08,-343.45"/>
<polygon fill="midnightblue" stroke="midnightblue" points="1298.61,-260.64 1302.02,-250.61 1293.1,-256.33 1298.61,-260.64"/>
</g>
<!-- Node15 -->
<g id="node15" class="node">
<title>Node15</title>
<g id="a_node15"><a xlink:href="classdenoptim_1_1programs_1_1isomorphism_1_1_isomorphism.html#a558ff128682d8685e2c95b8eeea85461" target="_top" xlink:title=" ">
<polygon fill="white" stroke="black" points="1036,-294.5 1036,-324.5 1195,-324.5 1195,-294.5 1036,-294.5"/>
<text text-anchor="start" x="1044" y="-312.5" font-family="Helvetica,sans-Serif" font-size="10.00">denoptim.programs.isomorphism.</text>
<text text-anchor="middle" x="1115.5" y="-301.5" font-family="Helvetica,sans-Serif" font-size="10.00">Isomorphism.runProgram</text>
</a>
</g>
</g>
<!-- Node2&#45;&gt;Node15 -->
<g id="edge16" class="edge">
<title>Node2&#45;&gt;Node15</title>
<path fill="none" stroke="midnightblue" d="M1277.42,-255.37C1258.92,-265.11 1235.69,-276.45 1214,-284.5 1204.09,-288.18 1193.42,-291.51 1182.9,-294.46"/>
<polygon fill="midnightblue" stroke="midnightblue" points="1279.19,-258.39 1286.36,-250.59 1275.89,-252.21 1279.19,-258.39"/>
</g>
<!-- Node16 -->
<g id="node16" class="node">
<title>Node16</title>
<g id="a_node16"><a xlink:href="classdenoptim_1_1ga_1_1_e_a_utils_test.html#ae0baa3684be9b8a4af611083649a9e6d" target="_top" xlink:title=" ">
<polygon fill="white" stroke="black" points="1017,-245.5 1017,-275.5 1214,-275.5 1214,-245.5 1017,-245.5"/>
<text text-anchor="start" x="1025" y="-263.5" font-family="Helvetica,sans-Serif" font-size="10.00">denoptim.ga.EAUtilsTest.test</text>
<text text-anchor="middle" x="1115.5" y="-252.5" font-family="Helvetica,sans-Serif" font-size="10.00">BuildByXOver_Embedded_FixedStructure</text>
</a>
</g>
</g>
<!-- Node2&#45;&gt;Node16 -->
<g id="edge17" class="edge">
<title>Node2&#45;&gt;Node16</title>
<path fill="none" stroke="midnightblue" d="M1239.76,-244.82C1231.45,-245.88 1222.89,-246.96 1214.33,-248.05"/>
<polygon fill="midnightblue" stroke="midnightblue" points="1240.27,-248.28 1249.74,-243.55 1239.38,-241.34 1240.27,-248.28"/>
</g>
<!-- Node17 -->
<g id="node17" class="node">
<title>Node17</title>
<g id="a_node17"><a xlink:href="classdenoptim_1_1graph_1_1_d_graph_test.html#a6b4a7a889a0e36c8b2dc97bcd8055c9e" target="_top" xlink:title=" ">
<polygon fill="white" stroke="black" points="1037.5,-196.5 1037.5,-226.5 1193.5,-226.5 1193.5,-196.5 1037.5,-196.5"/>
<text text-anchor="start" x="1045.5" y="-214.5" font-family="Helvetica,sans-Serif" font-size="10.00">denoptim.graph.DGraphTest.test</text>
<text text-anchor="middle" x="1115.5" y="-203.5" font-family="Helvetica,sans-Serif" font-size="10.00">ExtractSubgraph</text>
</a>
</g>
</g>
<!-- Node2&#45;&gt;Node17 -->
<g id="edge18" class="edge">
<title>Node2&#45;&gt;Node17</title>
<path fill="none" stroke="midnightblue" d="M1239.54,-226.53C1224.59,-224.7 1208.82,-222.78 1193.74,-220.93"/>
<polygon fill="midnightblue" stroke="midnightblue" points="1239.39,-230.04 1249.74,-227.77 1240.24,-223.09 1239.39,-230.04"/>
</g>
<!-- Node18 -->
<g id="node18" class="node">
<title>Node18</title>
<g id="a_node18"><a xlink:href="classdenoptim_1_1graph_1_1_d_graph_test.html#a02791a3f61db5dd584dec5c3995ec72c" target="_top" xlink:title=" ">
<polygon fill="white" stroke="black" points="1037.5,-147.5 1037.5,-177.5 1193.5,-177.5 1193.5,-147.5 1037.5,-147.5"/>
<text text-anchor="start" x="1045.5" y="-165.5" font-family="Helvetica,sans-Serif" font-size="10.00">denoptim.graph.DGraphTest.test</text>
<text text-anchor="middle" x="1115.5" y="-154.5" font-family="Helvetica,sans-Serif" font-size="10.00">GraphIsomorphism</text>
</a>
</g>
</g>
<!-- Node2&#45;&gt;Node18 -->
<g id="edge19" class="edge">
<title>Node2&#45;&gt;Node18</title>
<path fill="none" stroke="midnightblue" d="M1277.45,-215.55C1258.96,-205.78 1235.73,-194.44 1214,-186.5 1205,-183.21 1195.36,-180.22 1185.78,-177.56"/>
<polygon fill="midnightblue" stroke="midnightblue" points="1275.92,-218.7 1286.39,-220.34 1279.23,-212.53 1275.92,-218.7"/>
</g>
<!-- Node19 -->
<g id="node19" class="node">
<title>Node19</title>
<g id="a_node19"><a xlink:href="classdenoptim_1_1graph_1_1_d_graph_test.html#aea227d615f6c2f3bac5839a8099a900d" target="_top" xlink:title=" ">
<polygon fill="white" stroke="black" points="1037.5,-98.5 1037.5,-128.5 1193.5,-128.5 1193.5,-98.5 1037.5,-98.5"/>
<text text-anchor="start" x="1045.5" y="-116.5" font-family="Helvetica,sans-Serif" font-size="10.00">denoptim.graph.DGraphTest.test</text>
<text text-anchor="middle" x="1115.5" y="-105.5" font-family="Helvetica,sans-Serif" font-size="10.00">IsIsostructuralTo</text>
</a>
</g>
</g>
<!-- Node2&#45;&gt;Node19 -->
<g id="edge20" class="edge">
<title>Node2&#45;&gt;Node19</title>
<path fill="none" stroke="midnightblue" d="M1295.78,-212.31C1277.84,-189.81 1247.67,-156.37 1214,-137.5 1207.61,-133.92 1200.7,-130.87 1193.6,-128.27"/>
<polygon fill="midnightblue" stroke="midnightblue" points="1293.14,-214.61 1302.05,-220.34 1298.66,-210.3 1293.14,-214.61"/>
</g>
<!-- Node20 -->
<g id="node20" class="node">
<title>Node20</title>
<g id="a_node20"><a xlink:href="classdenoptim_1_1graph_1_1_d_graph_test.html#a83a9624ea5dc6a2c515407b865b62611" target="_top" xlink:title=" ">
<polygon fill="white" stroke="black" points="1037.5,-49.5 1037.5,-79.5 1193.5,-79.5 1193.5,-49.5 1037.5,-49.5"/>
<text text-anchor="start" x="1045.5" y="-67.5" font-family="Helvetica,sans-Serif" font-size="10.00">denoptim.graph.DGraphTest.test</text>
<text text-anchor="middle" x="1115.5" y="-56.5" font-family="Helvetica,sans-Serif" font-size="10.00">ReplaceSubGraph</text>
</a>
</g>
</g>
<!-- Node2&#45;&gt;Node20 -->
<g id="edge21" class="edge">
<title>Node2&#45;&gt;Node20</title>
<path fill="none" stroke="midnightblue" d="M1303.22,-210.9C1288.79,-177.83 1258.58,-119.64 1214,-88.5 1207.85,-84.21 1201.02,-80.68 1193.91,-77.78"/>
<polygon fill="midnightblue" stroke="midnightblue" points="1300.08,-212.44 1307.19,-220.29 1306.52,-209.72 1300.08,-212.44"/>
</g>
<!-- Node21 -->
<g id="node21" class="node">
<title>Node21</title>
<g id="a_node21"><a xlink:href="classdenoptim_1_1graph_1_1_d_graph_test.html#a0b946dc2730c68f796c37e5f5cea4e36" target="_top" xlink:title=" ">
<polygon fill="white" stroke="black" points="1037.5,-0.5 1037.5,-30.5 1193.5,-30.5 1193.5,-0.5 1037.5,-0.5"/>
<text text-anchor="start" x="1045.5" y="-18.5" font-family="Helvetica,sans-Serif" font-size="10.00">denoptim.graph.DGraphTest.test</text>
<text text-anchor="middle" x="1115.5" y="-7.5" font-family="Helvetica,sans-Serif" font-size="10.00">ReplaceVertex_inRing</text>
</a>
</g>
</g>
<!-- Node2&#45;&gt;Node21 -->
<g id="edge22" class="edge">
<title>Node2&#45;&gt;Node21</title>
<path fill="none" stroke="midnightblue" d="M1307.49,-210.27C1296.95,-168.2 1269.84,-83.94 1214,-39.5 1207.86,-34.62 1200.87,-30.71 1193.51,-27.58"/>
<polygon fill="midnightblue" stroke="midnightblue" points="1304.15,-211.33 1309.88,-220.25 1310.96,-209.71 1304.15,-211.33"/>
</g>
<!-- Node3&#45;&gt;Node3 -->
<g id="edge8" class="edge">
<title>Node3&#45;&gt;Node3</title>
<path fill="none" stroke="midnightblue" d="M714.17,-454.96C709.49,-459.68 696.94,-463 676.5,-463 642.96,-463 630.65,-454.06 639.55,-444.66"/>
<polygon fill="midnightblue" stroke="midnightblue" points="717.64,-454.39 713.45,-444.66 710.66,-454.88 717.64,-454.39"/>
</g>
<!-- Node4 -->
<g id="node4" class="node">
<title>Node4</title>
<g id="a_node4"><a xlink:href="classdenoptim_1_1ga_1_1_population.html#a31b74cc5407c42fa3a4214029fb08190" target="_top" xlink:title="Returns a list of population members that can do crossover with the specified member.">
<polygon fill="white" stroke="black" points="393,-487.5 393,-517.5 526,-517.5 526,-487.5 393,-487.5"/>
<text text-anchor="start" x="401" y="-505.5" font-family="Helvetica,sans-Serif" font-size="10.00">denoptim.ga.Population.get</text>
<text text-anchor="middle" x="459.5" y="-494.5" font-family="Helvetica,sans-Serif" font-size="10.00">XoverPartners</text>
</a>
</g>
</g>
<!-- Node3&#45;&gt;Node4 -->
<g id="edge3" class="edge">
<title>Node3&#45;&gt;Node4</title>
<path fill="none" stroke="midnightblue" d="M621.35,-447.89C585.3,-460.12 538.54,-476 504.73,-487.48"/>
<polygon fill="midnightblue" stroke="midnightblue" points="622.87,-451.07 631.21,-444.54 620.62,-444.44 622.87,-451.07"/>
</g>
<!-- Node9 -->
<g id="node9" class="node">
<title>Node9</title>
<g id="a_node9"><a xlink:href="classdenoptim_1_1programs_1_1genetweeker_1_1_gene_ops_runner.html#ab0f92a94c4fb2334e7d3813e73fc4247" target="_top" xlink:title=" ">
<polygon fill="white" stroke="black" points="380,-414.5 380,-444.5 539,-444.5 539,-414.5 380,-414.5"/>
<text text-anchor="start" x="388" y="-432.5" font-family="Helvetica,sans-Serif" font-size="10.00">denoptim.programs.genetweeker.</text>
<text text-anchor="middle" x="459.5" y="-421.5" font-family="Helvetica,sans-Serif" font-size="10.00">GeneOpsRunner.runXOver</text>
</a>
</g>
</g>
<!-- Node3&#45;&gt;Node9 -->
<g id="edge9" class="edge">
<title>Node3&#45;&gt;Node9</title>
<path fill="none" stroke="midnightblue" d="M579.63,-429.5C566.1,-429.5 552.32,-429.5 539.17,-429.5"/>
<polygon fill="midnightblue" stroke="midnightblue" points="579.91,-433 589.91,-429.5 579.91,-426 579.91,-433"/>
</g>
<!-- Node11 -->
<g id="node11" class="node">
<title>Node11</title>
<g id="a_node11"><a xlink:href="classdenoptim_1_1ga_1_1_graph_operations_test.html#a9fcf8fffef10a59df722c92e94da2815" target="_top" xlink:title=" ">
<polygon fill="white" stroke="black" points="365,-365.5 365,-395.5 554,-395.5 554,-365.5 365,-365.5"/>
<text text-anchor="start" x="373" y="-383.5" font-family="Helvetica,sans-Serif" font-size="10.00">denoptim.ga.GraphOperations</text>
<text text-anchor="middle" x="459.5" y="-372.5" font-family="Helvetica,sans-Serif" font-size="10.00">Test.testLocateCompatibleXOverPoints</text>
</a>
</g>
</g>
<!-- Node3&#45;&gt;Node11 -->
<g id="edge11" class="edge">
<title>Node3&#45;&gt;Node11</title>
<path fill="none" stroke="midnightblue" d="M599.78,-412.24C575.82,-406.78 549.55,-400.79 526.34,-395.51"/>
<polygon fill="midnightblue" stroke="midnightblue" points="599,-415.66 609.53,-414.47 600.56,-408.83 599,-415.66"/>
</g>
<!-- Node5 -->
<g id="node5" class="node">
<title>Node5</title>
<g id="a_node5"><a xlink:href="classdenoptim_1_1ga_1_1_e_a_utils.html#a45d4e9ec6a308aa73891efa1d501dd5e" target="_top" xlink:title="Perform fitness&#45;based, class&#45;compatible selection of parents that can do crossover operations.">
<polygon fill="white" stroke="black" points="163,-549 163,-568 329,-568 329,-549 163,-549"/>
<text text-anchor="middle" x="246" y="-556" font-family="Helvetica,sans-Serif" font-size="10.00">denoptim.ga.EAUtils.performFBCC</text>
</a>
</g>
</g>
<!-- Node4&#45;&gt;Node5 -->
<g id="edge4" class="edge">
<title>Node4&#45;&gt;Node5</title>
<path fill="none" stroke="midnightblue" d="M398.45,-520.34C376.64,-526.64 351.77,-533.61 329,-539.5 316.41,-542.76 302.66,-546.04 290.08,-548.95"/>
<polygon fill="midnightblue" stroke="midnightblue" points="399.6,-523.65 408.23,-517.5 397.65,-516.93 399.6,-523.65"/>
</g>
<!-- Node7 -->
<g id="node7" class="node">
<title>Node7</title>
<g id="a_node7"><a xlink:href="classdenoptim_1_1ga_1_1_population_test.html#a5db0672054a9fc1dbc923310732fdb3a" target="_top" xlink:title=" ">
<polygon fill="white" stroke="black" points="168.5,-499.5 168.5,-529.5 323.5,-529.5 323.5,-499.5 168.5,-499.5"/>
<text text-anchor="start" x="176.5" y="-517.5" font-family="Helvetica,sans-Serif" font-size="10.00">denoptim.ga.PopulationTest.test</text>
<text text-anchor="middle" x="246" y="-506.5" font-family="Helvetica,sans-Serif" font-size="10.00">Clone</text>
</a>
</g>
</g>
<!-- Node4&#45;&gt;Node7 -->
<g id="edge6" class="edge">
<title>Node4&#45;&gt;Node7</title>
<path fill="none" stroke="midnightblue" d="M382.59,-506.81C363.49,-507.89 342.98,-509.05 323.83,-510.14"/>
<polygon fill="midnightblue" stroke="midnightblue" points="382.95,-510.29 392.74,-506.23 382.56,-503.3 382.95,-510.29"/>
</g>
<!-- Node8 -->
<g id="node8" class="node">
<title>Node8</title>
<g id="a_node8"><a xlink:href="classdenoptim_1_1ga_1_1_population_test.html#a278212ebff2501b7071d342f9a027599" target="_top" xlink:title=" ">
<polygon fill="white" stroke="black" points="168.5,-450.5 168.5,-480.5 323.5,-480.5 323.5,-450.5 168.5,-450.5"/>
<text text-anchor="start" x="176.5" y="-468.5" font-family="Helvetica,sans-Serif" font-size="10.00">denoptim.ga.PopulationTest.test</text>
<text text-anchor="middle" x="246" y="-457.5" font-family="Helvetica,sans-Serif" font-size="10.00">XOverCompatibility</text>
</a>
</g>
</g>
<!-- Node4&#45;&gt;Node8 -->
<g id="edge7" class="edge">
<title>Node4&#45;&gt;Node8</title>
<path fill="none" stroke="midnightblue" d="M382.86,-489.27C363.68,-485.91 343.07,-482.31 323.83,-478.94"/>
<polygon fill="midnightblue" stroke="midnightblue" points="382.29,-492.72 392.74,-491 383.49,-485.82 382.29,-492.72"/>
</g>
<!-- Node6 -->
<g id="node6" class="node">
<title>Node6</title>
<g id="a_node6"><a xlink:href="classdenoptim_1_1ga_1_1_e_a_utils.html#a0b958439d79fae30f14530213ad22e3a" target="_top" xlink:title="Generates up to a pair of new offspring by performing a crossover operation.">
<polygon fill="white" stroke="black" points="0,-543.5 0,-573.5 127,-573.5 127,-543.5 0,-543.5"/>
<text text-anchor="start" x="8" y="-561.5" font-family="Helvetica,sans-Serif" font-size="10.00">denoptim.ga.EAUtils.build</text>
<text text-anchor="middle" x="63.5" y="-550.5" font-family="Helvetica,sans-Serif" font-size="10.00">CandidatesByXOver</text>
</a>
</g>
</g>
<!-- Node5&#45;&gt;Node6 -->
<g id="edge5" class="edge">
<title>Node5&#45;&gt;Node6</title>
<path fill="none" stroke="midnightblue" d="M152.77,-558.5C144.11,-558.5 135.47,-558.5 127.17,-558.5"/>
<polygon fill="midnightblue" stroke="midnightblue" points="152.94,-562 162.94,-558.5 152.94,-555 152.94,-562"/>
</g>
<!-- Node10 -->
<g id="node10" class="node">
<title>Node10</title>
<g id="a_node10"><a xlink:href="classdenoptim_1_1programs_1_1genetweeker_1_1_gene_ops_runner.html#a3c2407eb1204a7b25600d3d347d98447" target="_top" xlink:title=" ">
<polygon fill="white" stroke="black" points="166.5,-401.5 166.5,-431.5 325.5,-431.5 325.5,-401.5 166.5,-401.5"/>
<text text-anchor="start" x="174.5" y="-419.5" font-family="Helvetica,sans-Serif" font-size="10.00">denoptim.programs.genetweeker.</text>
<text text-anchor="middle" x="246" y="-408.5" font-family="Helvetica,sans-Serif" font-size="10.00">GeneOpsRunner.runProgram</text>
</a>
</g>
</g>
<!-- Node9&#45;&gt;Node10 -->
<g id="edge10" class="edge">
<title>Node9&#45;&gt;Node10</title>
<path fill="none" stroke="midnightblue" d="M369.74,-424.04C355.16,-423.15 340.14,-422.22 325.82,-421.34"/>
<polygon fill="midnightblue" stroke="midnightblue" points="369.55,-427.54 379.75,-424.66 369.98,-420.55 369.55,-427.54"/>
</g>
<!-- Node13 -->
<g id="node13" class="node">
<title>Node13</title>
<g id="a_node13"><a xlink:href="classdenoptim_1_1ga_1_1_graph_operations.html#a5d90c6e2fa30f287f8f69ed3367ccd0e" target="_top" xlink:title="Given a pair of seed vertexes that define where a pair of subgraphs stars in the corresponding origin...">
<polygon fill="white" stroke="black" points="799,-392.5 799,-422.5 981,-422.5 981,-392.5 799,-392.5"/>
<text text-anchor="start" x="807" y="-410.5" font-family="Helvetica,sans-Serif" font-size="10.00">denoptim.ga.GraphOperations.process</text>
<text text-anchor="middle" x="890" y="-399.5" font-family="Helvetica,sans-Serif" font-size="10.00">CombinationOfEndPoints</text>
</a>
</g>
</g>
<!-- Node12&#45;&gt;Node13 -->
<g id="edge13" class="edge">
<title>Node12&#45;&gt;Node13</title>
<path fill="none" stroke="midnightblue" d="M1014.2,-407.5C1003.22,-407.5 992.09,-407.5 981.24,-407.5"/>
<polygon fill="midnightblue" stroke="midnightblue" points="1014.24,-411 1024.24,-407.5 1014.24,-404 1014.24,-411"/>
</g>
<!-- Node13&#45;&gt;Node3 -->
<g id="edge14" class="edge">
<title>Node13&#45;&gt;Node3</title>
<path fill="none" stroke="midnightblue" d="M788.89,-417.91C780.25,-418.81 771.56,-419.72 763.05,-420.6"/>
<polygon fill="midnightblue" stroke="midnightblue" points="789.41,-421.38 799,-416.86 788.69,-414.42 789.41,-421.38"/>
</g>
</g>
</svg>
