<?xml version="1.0" encoding="UTF-8" standalone="no"?>
<!DOCTYPE svg PUBLIC "-//W3C//DTD SVG 1.1//EN"
 "http://www.w3.org/Graphics/SVG/1.1/DTD/svg11.dtd">
<!-- Generated by graphviz version 3.0.0 (20221109.1736)
 -->
<!-- Title: denoptim.files.FileUtils.canWriteAndReadTo Pages: 1 -->
<svg width="340pt" height="84pt"
 viewBox="0.00 0.00 340.00 84.00" xmlns="http://www.w3.org/2000/svg" xmlns:xlink="http://www.w3.org/1999/xlink">
<g id="graph0" class="graph" transform="scale(1 1) rotate(0) translate(4 80)">
<title>denoptim.files.FileUtils.canWriteAndReadTo</title>
<polygon fill="white" stroke="transparent" points="-4,4 -4,-80 336,-80 336,4 -4,4"/>
<!-- Node1 -->
<g id="node1" class="node">
<title>Node1</title>
<g id="a_node1"><a xlink:title="Check whether we can write and read to a given pathname.">
<polygon fill="#bfbfbf" stroke="black" points="0,-14 0,-44 132,-44 132,-14 0,-14"/>
<text text-anchor="start" x="8" y="-32" font-family="Helvetica,sans-Serif" font-size="10.00">denoptim.files.FileUtils.can</text>
<text text-anchor="middle" x="66" y="-21" font-family="Helvetica,sans-Serif" font-size="10.00">WriteAndReadTo</text>
</a>
</g>
</g>
<!-- Node2 -->
<g id="node2" class="node">
<title>Node2</title>
<g id="a_node2"><a xlink:href="classdenoptim_1_1io_1_1_denoptim_i_o.html#ad5bee53baea572e1d76f8dd0bf3ddd76" target="_top" xlink:title="Read list of data as text.">
<polygon fill="white" stroke="black" points="171,-38.5 171,-57.5 329,-57.5 329,-38.5 171,-38.5"/>
<text text-anchor="middle" x="250" y="-45.5" font-family="Helvetica,sans-Serif" font-size="10.00">denoptim.io.DenoptimIO.readList</text>
</a>
</g>
</g>
<!-- Node1&#45;&gt;Node2 -->
<g id="edge1" class="edge">
<title>Node1&#45;&gt;Node2</title>
<path fill="none" stroke="midnightblue" d="M132.19,-35.81C141.5,-36.78 151.21,-37.79 160.87,-38.8"/>
<polygon fill="midnightblue" stroke="midnightblue" points="160.59,-42.29 170.9,-39.85 161.32,-35.33 160.59,-42.29"/>
</g>
<!-- Node3 -->
<g id="node3" class="node">
<title>Node3</title>
<g id="a_node3"><a xlink:href="classdenoptim_1_1io_1_1_denoptim_i_o.html#adc7de175de66792f4f37f1661c10e7f8" target="_top" xlink:title="Write text&#45;like data file.">
<polygon fill="white" stroke="black" points="168,-0.5 168,-19.5 332,-19.5 332,-0.5 168,-0.5"/>
<text text-anchor="middle" x="250" y="-7.5" font-family="Helvetica,sans-Serif" font-size="10.00">denoptim.io.DenoptimIO.writeData</text>
</a>
</g>
</g>
<!-- Node1&#45;&gt;Node3 -->
<g id="edge3" class="edge">
<title>Node1&#45;&gt;Node3</title>
<path fill="none" stroke="midnightblue" d="M132.19,-22.19C140.48,-21.33 149.07,-20.43 157.67,-19.53"/>
<polygon fill="midnightblue" stroke="midnightblue" points="158.17,-23 167.75,-18.48 157.44,-16.04 158.17,-23"/>
</g>
<!-- Node2&#45;&gt;Node2 -->
<g id="edge2" class="edge">
<title>Node2&#45;&gt;Node2</title>
<path fill="none" stroke="midnightblue" d="M221.64,-57.76C207.84,-66.57 217.3,-76 250,-76 272.48,-76 283.98,-71.54 284.48,-65.89"/>
<polygon fill="midnightblue" stroke="midnightblue" points="287.17,-63.64 278.36,-57.76 281.58,-67.85 287.17,-63.64"/>
</g>
</g>
</svg>
