<?xml version="1.0" encoding="UTF-8" standalone="no"?>
<!DOCTYPE svg PUBLIC "-//W3C//DTD SVG 1.1//EN"
 "http://www.w3.org/Graphics/SVG/1.1/DTD/svg11.dtd">
<!-- Generated by graphviz version 3.0.0 (20221109.1736)
 -->
<!-- Title: denoptim.gui.GUIGraphHandler.readGraphsFromFile Pages: 1 -->
<!--zoomable 354 -->
<svg id="main" version="1.1" xmlns="http://www.w3.org/2000/svg" xmlns:xlink="http://www.w3.org/1999/xlink" xml:space="preserve" onload="init(evt)">
<style type="text/css"><![CDATA[
.edge:hover path { stroke: red; }
.edge:hover polygon { stroke: red; fill: red; }
]]></style>
<script type="text/javascript"><![CDATA[
var edges = document.getElementsByTagName('g');
if (edges && edges.length) {
  for (var i=0;i<edges.length;i++) {
    if (edges[i].id.substr(0,4)=='edge') {
      edges[i].setAttribute('class','edge');
    }
  }
}
]]></script>
        <defs>
                <circle id="rim" cx="0" cy="0" r="7"/>
                <circle id="rim2" cx="0" cy="0" r="3.5"/>
                <g id="zoomPlus">
                        <use xlink:href="#rim" fill="#404040">
                                <set attributeName="fill" to="#808080" begin="zoomplus.mouseover" end="zoomplus.mouseout"/>
                        </use>
                        <path d="M-4,0h8M0,-4v8" fill="none" stroke="white" stroke-width="1.5" pointer-events="none"/>
                </g>
                <g id="zoomMin">
                        <use xlink:href="#rim" fill="#404040">
                                <set attributeName="fill" to="#808080" begin="zoomminus.mouseover" end="zoomminus.mouseout"/>
                        </use>
                        <path d="M-4,0h8" fill="none" stroke="white" stroke-width="1.5" pointer-events="none"/>
                </g>
                <g id="dirArrow">
                        <path fill="none" stroke="white" stroke-width="1.5" d="M0,-3.0v7 M-2.5,-0.5L0,-3.0L2.5,-0.5"/>
                </g>
               <g id="resetDef">
                       <use xlink:href="#rim2" fill="#404040">
                               <set attributeName="fill" to="#808080" begin="reset.mouseover" end="reset.mouseout"/>
                       </use>
               </g>
        </defs>

<script type="text/javascript">
var viewWidth = 1363;
var viewHeight = 354;
var sectionId = 'dynsection-36';
</script>
<script xlink:href="svgpan.js"/>
<svg id="graph" class="graph">
<g id="viewport">
<title>denoptim.gui.GUIGraphHandler.readGraphsFromFile</title>
<polygon fill="white" stroke="transparent" points="-4,4 -4,-349.5 1359,-349.5 1359,4 -4,4"/>
<!-- Node1 -->
<g id="node1" class="node">
<title>Node1</title>
<g id="a_node1"><a xlink:title=" ">
<polygon fill="#bfbfbf" stroke="black" points="0,-142.5 0,-172.5 173,-172.5 173,-142.5 0,-142.5"/>
<text text-anchor="start" x="8" y="-160.5" font-family="Helvetica,sans-Serif" font-size="10.00">denoptim.gui.GUIGraphHandler.read</text>
<text text-anchor="middle" x="86.5" y="-149.5" font-family="Helvetica,sans-Serif" font-size="10.00">GraphsFromFile</text>
</a>
</g>
</g>
<!-- Node2 -->
<g id="node2" class="node">
<title>Node2</title>
<g id="a_node2"><a xlink:href="classdenoptim_1_1io_1_1_denoptim_i_o.html#a9efd887c11557ffc565a152950ad9e25" target="_top" xlink:title="Reads a list of &lt;DGraphs from file.">
<polygon fill="white" stroke="black" points="214.5,-142.5 214.5,-172.5 355.5,-172.5 355.5,-142.5 214.5,-142.5"/>
<text text-anchor="start" x="222.5" y="-160.5" font-family="Helvetica,sans-Serif" font-size="10.00">denoptim.io.DenoptimIO.read</text>
<text text-anchor="middle" x="285" y="-149.5" font-family="Helvetica,sans-Serif" font-size="10.00">DENOPTIMGraphsFromFile</text>
</a>
</g>
</g>
<!-- Node1&#45;&gt;Node2 -->
<g id="edge1" class="edge">
<title>Node1&#45;&gt;Node2</title>
<path fill="none" stroke="midnightblue" d="M173.12,-157.5C183.43,-157.5 193.94,-157.5 204.17,-157.5"/>
<polygon fill="midnightblue" stroke="midnightblue" points="204.29,-161 214.29,-157.5 204.29,-154 204.29,-161"/>
</g>
<!-- Node16 -->
<g id="node16" class="node">
<title>Node16</title>
<g id="a_node16"><a xlink:href="classdenoptim_1_1io_1_1_denoptim_i_o.html#a8c1a03486f0b05207bce11ae61c843dd" target="_top" xlink:title="Reads a list of DGraphs from a JSON file.">
<polygon fill="white" stroke="black" points="397,-264.5 397,-294.5 562,-294.5 562,-264.5 397,-264.5"/>
<text text-anchor="start" x="405" y="-282.5" font-family="Helvetica,sans-Serif" font-size="10.00">denoptim.io.DenoptimIO.read</text>
<text text-anchor="middle" x="479.5" y="-271.5" font-family="Helvetica,sans-Serif" font-size="10.00">DENOPTIMGraphsFromJSONFile</text>
</a>
</g>
</g>
<!-- Node1&#45;&gt;Node16 -->
<g id="edge18" class="edge">
<title>Node1&#45;&gt;Node16</title>
<path fill="none" stroke="midnightblue" d="M129.52,-172.54C152.85,-180.76 182.44,-190.97 209,-199.5 279.32,-222.08 360.68,-245.92 415.45,-261.64"/>
<polygon fill="midnightblue" stroke="midnightblue" points="414.78,-265.09 425.36,-264.48 416.71,-258.36 414.78,-265.09"/>
</g>
<!-- Node18 -->
<g id="node18" class="node">
<title>Node18</title>
<g id="a_node18"><a xlink:href="classdenoptim_1_1io_1_1_denoptim_i_o.html#ac6c5a3a9286a795c120861c768ce4bd3" target="_top" xlink:title="Reads a list of &lt;DGraphs from a SDF file.">
<polygon fill="white" stroke="black" points="209,-75.5 209,-105.5 361,-105.5 361,-75.5 209,-75.5"/>
<text text-anchor="start" x="217" y="-93.5" font-family="Helvetica,sans-Serif" font-size="10.00">denoptim.io.DenoptimIO.read</text>
<text text-anchor="middle" x="285" y="-82.5" font-family="Helvetica,sans-Serif" font-size="10.00">DENOPTIMGraphsFromSDFile</text>
</a>
</g>
</g>
<!-- Node1&#45;&gt;Node18 -->
<g id="edge23" class="edge">
<title>Node1&#45;&gt;Node18</title>
<path fill="none" stroke="midnightblue" d="M131.6,-142.46C160.7,-132.54 199.01,-119.48 229.95,-108.93"/>
<polygon fill="midnightblue" stroke="midnightblue" points="231.37,-112.14 239.71,-105.6 229.11,-105.52 231.37,-112.14"/>
</g>
<!-- Node2&#45;&gt;Node2 -->
<g id="edge17" class="edge">
<title>Node2&#45;&gt;Node2</title>
<path fill="none" stroke="midnightblue" d="M251.19,-172.66C243.04,-182.06 254.31,-191 285,-191 303.7,-191 315.19,-187.68 319.47,-182.96"/>
<polygon fill="midnightblue" stroke="midnightblue" points="322.94,-182.41 318.81,-172.66 315.96,-182.86 322.94,-182.41"/>
</g>
<!-- Node3 -->
<g id="node3" class="node">
<title>Node3</title>
<g id="a_node3"><a xlink:href="classdenoptim_1_1files_1_1_file_utils.html#adf038babeb9f64d8c853a0290efe04fb" target="_top" xlink:title="Inspects a file/folder and tries to detect if there is one of the data sources that is recognized by ...">
<polygon fill="white" stroke="black" points="408,-142.5 408,-172.5 551,-172.5 551,-142.5 408,-142.5"/>
<text text-anchor="start" x="416" y="-160.5" font-family="Helvetica,sans-Serif" font-size="10.00">denoptim.files.FileUtils.detect</text>
<text text-anchor="middle" x="479.5" y="-149.5" font-family="Helvetica,sans-Serif" font-size="10.00">FileFormat</text>
</a>
</g>
</g>
<!-- Node2&#45;&gt;Node3 -->
<g id="edge2" class="edge">
<title>Node2&#45;&gt;Node3</title>
<path fill="none" stroke="midnightblue" d="M355.77,-157.5C369.45,-157.5 383.9,-157.5 397.9,-157.5"/>
<polygon fill="midnightblue" stroke="midnightblue" points="398,-161 408,-157.5 398,-154 398,-161"/>
</g>
<!-- Node4 -->
<g id="node4" class="node">
<title>Node4</title>
<g id="a_node4"><a xlink:href="classdenoptim_1_1files_1_1_file_utils.html#a81ee3939d31a3703a85b19b02b7c2906" target="_top" xlink:title="Detect the content of a json file.">
<polygon fill="white" stroke="black" points="607,-220.5 607,-250.5 750,-250.5 750,-220.5 607,-220.5"/>
<text text-anchor="start" x="615" y="-238.5" font-family="Helvetica,sans-Serif" font-size="10.00">denoptim.files.FileUtils.detect</text>
<text text-anchor="middle" x="678.5" y="-227.5" font-family="Helvetica,sans-Serif" font-size="10.00">KindOfJSONFile</text>
</a>
</g>
</g>
<!-- Node3&#45;&gt;Node4 -->
<g id="edge3" class="edge">
<title>Node3&#45;&gt;Node4</title>
<path fill="none" stroke="midnightblue" d="M511.49,-172.7C534.94,-183.9 568.1,-199.1 598,-210.5 603.94,-212.77 610.19,-214.99 616.46,-217.12"/>
<polygon fill="midnightblue" stroke="midnightblue" points="615.7,-220.56 626.3,-220.39 617.91,-213.91 615.7,-220.56"/>
</g>
<!-- Node8 -->
<g id="node8" class="node">
<title>Node8</title>
<g id="a_node8"><a xlink:href="classdenoptim_1_1files_1_1_file_utils.html#af0429c88ee95afd0cc9d3da72fe5b60b" target="_top" xlink:title="Looks into a text file and tries to understand if the file is a collection of parameters for any spec...">
<polygon fill="white" stroke="black" points="607,-24.5 607,-54.5 750,-54.5 750,-24.5 607,-24.5"/>
<text text-anchor="start" x="615" y="-42.5" font-family="Helvetica,sans-Serif" font-size="10.00">denoptim.files.FileUtils.detect</text>
<text text-anchor="middle" x="678.5" y="-31.5" font-family="Helvetica,sans-Serif" font-size="10.00">KindOfParameterFile</text>
</a>
</g>
</g>
<!-- Node3&#45;&gt;Node8 -->
<g id="edge7" class="edge">
<title>Node3&#45;&gt;Node8</title>
<path fill="none" stroke="midnightblue" d="M546.53,-142.43C552.07,-139.66 557.33,-136.38 562,-132.5 588.59,-110.38 571.36,-85.56 598,-63.5 599.54,-62.22 601.15,-61.02 602.81,-59.87"/>
<polygon fill="midnightblue" stroke="midnightblue" points="604.73,-62.8 611.52,-54.67 601.14,-56.79 604.73,-62.8"/>
</g>
<!-- Node11 -->
<g id="node11" class="node">
<title>Node11</title>
<g id="a_node11"><a xlink:href="classdenoptim_1_1files_1_1_file_utils.html#aa44c824a41849bcaaae541151db21cd6" target="_top" xlink:title="Looks into a text file and tries to understand if the file is a collection of parameters for any spec...">
<polygon fill="white" stroke="black" points="607,-73.5 607,-103.5 750,-103.5 750,-73.5 607,-73.5"/>
<text text-anchor="start" x="615" y="-91.5" font-family="Helvetica,sans-Serif" font-size="10.00">denoptim.files.FileUtils.detect</text>
<text text-anchor="middle" x="678.5" y="-80.5" font-family="Helvetica,sans-Serif" font-size="10.00">KindOfSDFFile</text>
</a>
</g>
</g>
<!-- Node3&#45;&gt;Node11 -->
<g id="edge10" class="edge">
<title>Node3&#45;&gt;Node11</title>
<path fill="none" stroke="midnightblue" d="M535.43,-142.38C544.42,-139.41 553.56,-136.09 562,-132.5 578.84,-125.33 581.14,-119.63 598,-112.5 602.69,-110.52 607.61,-108.62 612.59,-106.83"/>
<polygon fill="midnightblue" stroke="midnightblue" points="613.9,-110.08 622.21,-103.52 611.62,-103.46 613.9,-110.08"/>
</g>
<!-- Node13 -->
<g id="node13" class="node">
<title>Node13</title>
<g id="a_node13"><a xlink:href="classdenoptim_1_1files_1_1_file_utils.html#a33e38e26f52c870617eec9e1c4810f7a" target="_top" xlink:title="Looks into a text file and tries to understand if the file is a known text file.">
<polygon fill="white" stroke="black" points="607,-122.5 607,-152.5 750,-152.5 750,-122.5 607,-122.5"/>
<text text-anchor="start" x="615" y="-140.5" font-family="Helvetica,sans-Serif" font-size="10.00">denoptim.files.FileUtils.detect</text>
<text text-anchor="middle" x="678.5" y="-129.5" font-family="Helvetica,sans-Serif" font-size="10.00">KindOfTXTFile</text>
</a>
</g>
</g>
<!-- Node3&#45;&gt;Node13 -->
<g id="edge13" class="edge">
<title>Node3&#45;&gt;Node13</title>
<path fill="none" stroke="midnightblue" d="M551.07,-150.34C565.78,-148.84 581.39,-147.26 596.45,-145.73"/>
<polygon fill="midnightblue" stroke="midnightblue" points="597.17,-149.17 606.77,-144.68 596.46,-142.21 597.17,-149.17"/>
</g>
<!-- Node15 -->
<g id="node15" class="node">
<title>Node15</title>
<g id="a_node15"><a xlink:href="enumdenoptim_1_1files_1_1_file_format.html#a3add0e6a04faada7ca012a68d9658bf2" target="_top" xlink:title=" ">
<polygon fill="white" stroke="black" points="608.5,-171.5 608.5,-201.5 748.5,-201.5 748.5,-171.5 608.5,-171.5"/>
<text text-anchor="start" x="616.5" y="-189.5" font-family="Helvetica,sans-Serif" font-size="10.00">denoptim.files.FileFormat.get</text>
<text text-anchor="middle" x="678.5" y="-178.5" font-family="Helvetica,sans-Serif" font-size="10.00">Extension</text>
</a>
</g>
</g>
<!-- Node3&#45;&gt;Node15 -->
<g id="edge16" class="edge">
<title>Node3&#45;&gt;Node15</title>
<path fill="none" stroke="midnightblue" d="M551.07,-167.89C566.37,-170.14 582.66,-172.54 598.27,-174.84"/>
<polygon fill="midnightblue" stroke="midnightblue" points="598.02,-178.34 608.42,-176.33 599.03,-171.41 598.02,-178.34"/>
</g>
<!-- Node5 -->
<g id="node5" class="node">
<title>Node5</title>
<g id="a_node5"><a xlink:href="classdenoptim_1_1json_1_1_d_e_n_o_p_t_i_mgson.html#a3e85cb26bb2f36407e309e41880ef191" target="_top" xlink:title=" ">
<polygon fill="white" stroke="black" points="795,-264.5 795,-294.5 962,-294.5 962,-264.5 795,-264.5"/>
<text text-anchor="start" x="803" y="-282.5" font-family="Helvetica,sans-Serif" font-size="10.00">denoptim.json.DENOPTIMgson.get</text>
<text text-anchor="middle" x="878.5" y="-271.5" font-family="Helvetica,sans-Serif" font-size="10.00">Reader</text>
</a>
</g>
</g>
<!-- Node4&#45;&gt;Node5 -->
<g id="edge4" class="edge">
<title>Node4&#45;&gt;Node5</title>
<path fill="none" stroke="midnightblue" d="M747.09,-250.52C764.04,-254.29 782.36,-258.36 799.76,-262.22"/>
<polygon fill="midnightblue" stroke="midnightblue" points="799.36,-265.72 809.88,-264.47 800.88,-258.89 799.36,-265.72"/>
</g>
<!-- Node6 -->
<g id="node6" class="node">
<title>Node6</title>
<g id="a_node6"><a xlink:href="classdenoptim_1_1json_1_1_d_e_n_o_p_t_i_mgson.html#aa14de224ae5d1ae5156f11d5715d360c" target="_top" xlink:title=" ">
<polygon fill="white" stroke="black" points="998,-264.5 998,-294.5 1165,-294.5 1165,-264.5 998,-264.5"/>
<text text-anchor="start" x="1006" y="-282.5" font-family="Helvetica,sans-Serif" font-size="10.00">denoptim.json.DENOPTIMgson.get</text>
<text text-anchor="middle" x="1081.5" y="-271.5" font-family="Helvetica,sans-Serif" font-size="10.00">Instance</text>
</a>
</g>
</g>
<!-- Node5&#45;&gt;Node6 -->
<g id="edge5" class="edge">
<title>Node5&#45;&gt;Node6</title>
<path fill="none" stroke="midnightblue" d="M962.12,-279.5C970.61,-279.5 979.27,-279.5 987.85,-279.5"/>
<polygon fill="midnightblue" stroke="midnightblue" points="987.87,-283 997.87,-279.5 987.87,-276 987.87,-283"/>
</g>
<!-- Node7 -->
<g id="node7" class="node">
<title>Node7</title>
<g id="a_node7"><a xlink:href="classdenoptim_1_1json_1_1_d_e_n_o_p_t_i_mgson.html#a4aafec42bd09225870fdf330db93b84c" target="_top" xlink:title=" ">
<polygon fill="white" stroke="black" points="1201,-264.5 1201,-294.5 1355,-294.5 1355,-264.5 1201,-264.5"/>
<text text-anchor="start" x="1209" y="-282.5" font-family="Helvetica,sans-Serif" font-size="10.00">denoptim.json.DENOPTIMgson.</text>
<text text-anchor="middle" x="1278" y="-271.5" font-family="Helvetica,sans-Serif" font-size="10.00">DENOPTIMgson</text>
</a>
</g>
</g>
<!-- Node6&#45;&gt;Node7 -->
<g id="edge6" class="edge">
<title>Node6&#45;&gt;Node7</title>
<path fill="none" stroke="midnightblue" d="M1165.27,-279.5C1173.65,-279.5 1182.17,-279.5 1190.59,-279.5"/>
<polygon fill="midnightblue" stroke="midnightblue" points="1190.79,-283 1200.79,-279.5 1190.79,-276 1190.79,-283"/>
</g>
<!-- Node9 -->
<g id="node9" class="node">
<title>Node9</title>
<g id="a_node9"><a xlink:href="classdenoptim_1_1files_1_1_file_utils.html#ac4f9dab79d47fe1f2c398fa7ab99da83" target="_top" xlink:title="Looks into a text file and tries to understand what format it is among the given formats.">
<polygon fill="white" stroke="black" points="807,-49.5 807,-79.5 950,-79.5 950,-49.5 807,-49.5"/>
<text text-anchor="start" x="815" y="-67.5" font-family="Helvetica,sans-Serif" font-size="10.00">denoptim.files.FileUtils.detect</text>
<text text-anchor="middle" x="878.5" y="-56.5" font-family="Helvetica,sans-Serif" font-size="10.00">KindFile</text>
</a>
</g>
</g>
<!-- Node8&#45;&gt;Node9 -->
<g id="edge8" class="edge">
<title>Node8&#45;&gt;Node9</title>
<path fill="none" stroke="midnightblue" d="M750.14,-48.42C765.27,-50.33 781.35,-52.36 796.82,-54.31"/>
<polygon fill="midnightblue" stroke="midnightblue" points="796.52,-57.8 806.88,-55.58 797.4,-50.86 796.52,-57.8"/>
</g>
<!-- Node10 -->
<g id="node10" class="node">
<title>Node10</title>
<g id="a_node10"><a xlink:href="enumdenoptim_1_1files_1_1_file_format.html#a1195c718a5815ad69711686b478e5ec6" target="_top" xlink:title="Returns the collection of file formats with input parameters.">
<polygon fill="white" stroke="black" points="808.5,-0.5 808.5,-30.5 948.5,-30.5 948.5,-0.5 808.5,-0.5"/>
<text text-anchor="start" x="816.5" y="-18.5" font-family="Helvetica,sans-Serif" font-size="10.00">denoptim.files.FileFormat.get</text>
<text text-anchor="middle" x="878.5" y="-7.5" font-family="Helvetica,sans-Serif" font-size="10.00">ParameterFormats</text>
</a>
</g>
</g>
<!-- Node8&#45;&gt;Node10 -->
<g id="edge9" class="edge">
<title>Node8&#45;&gt;Node10</title>
<path fill="none" stroke="midnightblue" d="M750.14,-30.94C765.63,-29.06 782.13,-27.06 797.94,-25.14"/>
<polygon fill="midnightblue" stroke="midnightblue" points="798.71,-28.58 808.21,-23.9 797.86,-21.63 798.71,-28.58"/>
</g>
<!-- Node11&#45;&gt;Node9 -->
<g id="edge11" class="edge">
<title>Node11&#45;&gt;Node9</title>
<path fill="none" stroke="midnightblue" d="M750.14,-79.94C765.27,-78.1 781.35,-76.15 796.82,-74.28"/>
<polygon fill="midnightblue" stroke="midnightblue" points="797.38,-77.74 806.88,-73.06 796.53,-70.79 797.38,-77.74"/>
</g>
<!-- Node12 -->
<g id="node12" class="node">
<title>Node12</title>
<g id="a_node12"><a xlink:href="enumdenoptim_1_1files_1_1_file_format.html#a45ce558c824bcceb76dcb1cd0ccc6013" target="_top" xlink:title="Returns the collection of file formats using SDF syntax.">
<polygon fill="white" stroke="black" points="808.5,-98.5 808.5,-128.5 948.5,-128.5 948.5,-98.5 808.5,-98.5"/>
<text text-anchor="start" x="816.5" y="-116.5" font-family="Helvetica,sans-Serif" font-size="10.00">denoptim.files.FileFormat.get</text>
<text text-anchor="middle" x="878.5" y="-105.5" font-family="Helvetica,sans-Serif" font-size="10.00">SDFFormats</text>
</a>
</g>
</g>
<!-- Node11&#45;&gt;Node12 -->
<g id="edge12" class="edge">
<title>Node11&#45;&gt;Node12</title>
<path fill="none" stroke="midnightblue" d="M750.14,-97.42C765.63,-99.38 782.13,-101.46 797.94,-103.45"/>
<polygon fill="midnightblue" stroke="midnightblue" points="797.85,-106.97 808.21,-104.75 798.73,-100.03 797.85,-106.97"/>
</g>
<!-- Node13&#45;&gt;Node9 -->
<g id="edge14" class="edge">
<title>Node13&#45;&gt;Node9</title>
<path fill="none" stroke="midnightblue" d="M734.6,-122.42C742.93,-119.5 751.3,-116.18 759,-112.5 776.35,-104.2 777.57,-96.61 795,-88.5 799.26,-86.52 803.71,-84.66 808.25,-82.93"/>
<polygon fill="midnightblue" stroke="midnightblue" points="809.44,-86.22 817.67,-79.55 807.07,-79.64 809.44,-86.22"/>
</g>
<!-- Node14 -->
<g id="node14" class="node">
<title>Node14</title>
<g id="a_node14"><a xlink:href="enumdenoptim_1_1files_1_1_file_format.html#aacb6d37afa380f4f44c3f6699882a432" target="_top" xlink:title="Returns the collection of file formats restricted to TXT files (excluded parameter files)">
<polygon fill="white" stroke="black" points="808.5,-147.5 808.5,-177.5 948.5,-177.5 948.5,-147.5 808.5,-147.5"/>
<text text-anchor="start" x="816.5" y="-165.5" font-family="Helvetica,sans-Serif" font-size="10.00">denoptim.files.FileFormat.get</text>
<text text-anchor="middle" x="878.5" y="-154.5" font-family="Helvetica,sans-Serif" font-size="10.00">TXTFormats</text>
</a>
</g>
</g>
<!-- Node13&#45;&gt;Node14 -->
<g id="edge15" class="edge">
<title>Node13&#45;&gt;Node14</title>
<path fill="none" stroke="midnightblue" d="M750.14,-146.42C765.63,-148.38 782.13,-150.46 797.94,-152.45"/>
<polygon fill="midnightblue" stroke="midnightblue" points="797.85,-155.97 808.21,-153.75 798.73,-149.03 797.85,-155.97"/>
</g>
<!-- Node16&#45;&gt;Node5 -->
<g id="edge22" class="edge">
<title>Node16&#45;&gt;Node5</title>
<path fill="none" stroke="midnightblue" d="M562.28,-279.5C626.94,-279.5 717.23,-279.5 784.62,-279.5"/>
<polygon fill="midnightblue" stroke="midnightblue" points="784.81,-283 794.81,-279.5 784.81,-276 784.81,-283"/>
</g>
<!-- Node17 -->
<g id="node17" class="node">
<title>Node17</title>
<g id="a_node17"><a xlink:href="classdenoptim_1_1graph_1_1_d_graph.html#aa5f803143b57df02989af878b098798f" target="_top" xlink:title="Reads a JSON string and returns an instance of this class.">
<polygon fill="white" stroke="black" points="598,-308 598,-327 759,-327 759,-308 598,-308"/>
<text text-anchor="middle" x="678.5" y="-315" font-family="Helvetica,sans-Serif" font-size="10.00">denoptim.graph.DGraph.fromJson</text>
</a>
</g>
</g>
<!-- Node16&#45;&gt;Node17 -->
<g id="edge19" class="edge">
<title>Node16&#45;&gt;Node17</title>
<path fill="none" stroke="midnightblue" d="M558.36,-294.52C578.32,-298.37 599.47,-302.45 618.32,-306.09"/>
<polygon fill="midnightblue" stroke="midnightblue" points="617.76,-309.54 628.25,-308 619.09,-302.67 617.76,-309.54"/>
</g>
<!-- Node17&#45;&gt;Node5 -->
<g id="edge21" class="edge">
<title>Node17&#45;&gt;Node5</title>
<path fill="none" stroke="midnightblue" d="M729.21,-307.96C747.42,-304.46 768.62,-300.4 789.2,-296.45"/>
<polygon fill="midnightblue" stroke="midnightblue" points="790.07,-299.84 799.23,-294.52 788.75,-292.97 790.07,-299.84"/>
</g>
<!-- Node17&#45;&gt;Node17 -->
<g id="edge20" class="edge">
<title>Node17&#45;&gt;Node17</title>
<path fill="none" stroke="midnightblue" d="M647.98,-327.26C633.14,-336.07 643.31,-345.5 678.5,-345.5 703.24,-345.5 715.62,-340.84 715.62,-335"/>
<polygon fill="midnightblue" stroke="midnightblue" points="718.17,-332.59 709.02,-327.26 712.84,-337.14 718.17,-332.59"/>
</g>
<!-- Node19 -->
<g id="node19" class="node">
<title>Node19</title>
<g id="a_node19"><a xlink:href="classdenoptim_1_1io_1_1_denoptim_i_o.html#a3d1393195144f47b8071517c24336a66" target="_top" xlink:title="Converts an atom container read in from an SDF file into a graph, if possible.">
<polygon fill="white" stroke="black" points="409,-75.5 409,-105.5 550,-105.5 550,-75.5 409,-75.5"/>
<text text-anchor="start" x="417" y="-93.5" font-family="Helvetica,sans-Serif" font-size="10.00">denoptim.io.DenoptimIO.read</text>
<text text-anchor="middle" x="479.5" y="-82.5" font-family="Helvetica,sans-Serif" font-size="10.00">GraphFromSDFileIAC</text>
</a>
</g>
</g>
<!-- Node18&#45;&gt;Node19 -->
<g id="edge24" class="edge">
<title>Node18&#45;&gt;Node19</title>
<path fill="none" stroke="midnightblue" d="M361.25,-90.5C373.53,-90.5 386.28,-90.5 398.66,-90.5"/>
<polygon fill="midnightblue" stroke="midnightblue" points="398.96,-94 408.96,-90.5 398.96,-87 398.96,-94"/>
</g>
<!-- Node20 -->
<g id="node20" class="node">
<title>Node20</title>
<g id="a_node20"><a xlink:href="classdenoptim_1_1io_1_1_denoptim_i_o.html#a48102bb79e9cc581e8c6ef527e003b08" target="_top" xlink:title="Reads a file containing multiple molecules (multiple SD format))">
<polygon fill="white" stroke="black" points="409,-26.5 409,-56.5 550,-56.5 550,-26.5 409,-26.5"/>
<text text-anchor="start" x="417" y="-44.5" font-family="Helvetica,sans-Serif" font-size="10.00">denoptim.io.DenoptimIO.read</text>
<text text-anchor="middle" x="479.5" y="-33.5" font-family="Helvetica,sans-Serif" font-size="10.00">SDFFile</text>
</a>
</g>
</g>
<!-- Node18&#45;&gt;Node20 -->
<g id="edge26" class="edge">
<title>Node18&#45;&gt;Node20</title>
<path fill="none" stroke="midnightblue" d="M345.06,-75.47C365.48,-70.27 388.54,-64.4 409.67,-59.02"/>
<polygon fill="midnightblue" stroke="midnightblue" points="410.72,-62.36 419.55,-56.51 408.99,-55.58 410.72,-62.36"/>
</g>
<!-- Node19&#45;&gt;Node19 -->
<g id="edge25" class="edge">
<title>Node19&#45;&gt;Node19</title>
<path fill="none" stroke="midnightblue" d="M445.69,-105.66C437.54,-115.06 448.81,-124 479.5,-124 498.2,-124 509.69,-120.68 513.97,-115.96"/>
<polygon fill="midnightblue" stroke="midnightblue" points="517.44,-115.41 513.31,-105.66 510.46,-115.86 517.44,-115.41"/>
</g>
</g>
</svg>
        <g id="navigator" transform="translate(0 0)" fill="#404254">
                <rect fill="#f2f5e9" fill-opacity="0.5" stroke="#606060" stroke-width=".5" x="0" y="0" width="60" height="60"/>
                <use id="zoomplus" xlink:href="#zoomPlus" x="17" y="9" onmousedown="handleZoom(evt,'in')"/>
                <use id="zoomminus" xlink:href="#zoomMin" x="42" y="9" onmousedown="handleZoom(evt,'out')"/>
                <use id="reset" xlink:href="#resetDef" x="30" y="36" onmousedown="handleReset()"/>
                <g id="arrowUp" xlink:href="#dirArrow" transform="translate(30 24)" onmousedown="handlePan(0,-1)">
                  <use xlink:href="#rim" fill="#404040">
                        <set attributeName="fill" to="#808080" begin="arrowUp.mouseover" end="arrowUp.mouseout"/>
                  </use>
                  <path fill="none" stroke="white" stroke-width="1.5" d="M0,-3.0v7 M-2.5,-0.5L0,-3.0L2.5,-0.5"/>
                </g>
                <g id="arrowRight" xlink:href="#dirArrow" transform="rotate(90) translate(36 -43)" onmousedown="handlePan(1,0)">
                  <use xlink:href="#rim" fill="#404040">
                        <set attributeName="fill" to="#808080" begin="arrowRight.mouseover" end="arrowRight.mouseout"/>
                  </use>
                  <path fill="none" stroke="white" stroke-width="1.5" d="M0,-3.0v7 M-2.5,-0.5L0,-3.0L2.5,-0.5"/>
                </g>
                <g id="arrowDown" xlink:href="#dirArrow" transform="rotate(180) translate(-30 -48)" onmousedown="handlePan(0,1)">
                  <use xlink:href="#rim" fill="#404040">
                        <set attributeName="fill" to="#808080" begin="arrowDown.mouseover" end="arrowDown.mouseout"/>
                  </use>
                  <path fill="none" stroke="white" stroke-width="1.5" d="M0,-3.0v7 M-2.5,-0.5L0,-3.0L2.5,-0.5"/>
                </g>
                <g id="arrowLeft" xlink:href="#dirArrow" transform="rotate(270) translate(-36 17)" onmousedown="handlePan(-1,0)">
                  <use xlink:href="#rim" fill="#404040">
                        <set attributeName="fill" to="#808080" begin="arrowLeft.mouseover" end="arrowLeft.mouseout"/>
                  </use>
                  <path fill="none" stroke="white" stroke-width="1.5" d="M0,-3.0v7 M-2.5,-0.5L0,-3.0L2.5,-0.5"/>
                </g>
        </g>
        <svg viewBox="0 0 15 15" width="100%" height="30px" preserveAspectRatio="xMaxYMin meet">
         <g id="arrow_out" transform="scale(0.3 0.3)">
          <a xlink:href="classdenoptim_1_1gui_1_1_g_u_i_graph_handler_a288cf0ff784fd2355c5011f9b18001b2_cgraph_org.svg" target="_base">
           <rect id="button" ry="5" rx="5" y="6" x="6" height="38" width="38"
                fill="#f2f5e9" fill-opacity="0.5" stroke="#606060" stroke-width="1.0"/>
           <path id="arrow"
             d="M 11.500037,31.436501 C 11.940474,20.09759 22.043105,11.32322 32.158766,21.979434 L 37.068811,17.246167 C 37.068811,17.246167 37.088388,32 37.088388,32 L 22.160133,31.978069 C 22.160133,31.978069 26.997745,27.140456 26.997745,27.140456 C 18.528582,18.264221 13.291696,25.230495 11.500037,31.436501 z"
             style="fill:#404040;"/>
          </a>
         </g>
        </svg>
</svg>
