<?xml version="1.0" encoding="UTF-8" standalone="no"?>
<!DOCTYPE svg PUBLIC "-//W3C//DTD SVG 1.1//EN"
 "http://www.w3.org/Graphics/SVG/1.1/DTD/svg11.dtd">
<!-- Generated by graphviz version 3.0.0 (20221109.1736)
 -->
<!-- Title: denoptim.integration.rcoserver.RCOSocketServerClient.RCOSocketServerClient Pages: 1 -->
<svg width="1324pt" height="77pt"
 viewBox="0.00 0.00 1324.00 77.00" xmlns="http://www.w3.org/2000/svg" xmlns:xlink="http://www.w3.org/1999/xlink">
<g id="graph0" class="graph" transform="scale(1 1) rotate(0) translate(4 73)">
<title>denoptim.integration.rcoserver.RCOSocketServerClient.RCOSocketServerClient</title>
<polygon fill="white" stroke="transparent" points="-4,4 -4,-73 1320,-73 1320,4 -4,4"/>
<!-- Node1 -->
<g id="node1" class="node">
<title>Node1</title>
<g id="a_node1"><a xlink:title="Private constructor for singleton pattern.">
<polygon fill="#bfbfbf" stroke="black" points="1087,-8 1087,-38 1316,-38 1316,-8 1087,-8"/>
<text text-anchor="start" x="1095" y="-26" font-family="Helvetica,sans-Serif" font-size="10.00">denoptim.integration.rcoserver.</text>
<text text-anchor="middle" x="1201.5" y="-15" font-family="Helvetica,sans-Serif" font-size="10.00">RCOSocketServerClient.RCOSocketServerClient</text>
</a>
</g>
</g>
<!-- Node2 -->
<g id="node2" class="node">
<title>Node2</title>
<g id="a_node2"><a xlink:href="classdenoptim_1_1integration_1_1rcoserver_1_1_r_c_o_socket_server_client.html#a11716f434d8367284cc7072ca7917b93" target="_top" xlink:title="Gets the singleton instance of RCOSocketServerClient.">
<polygon fill="white" stroke="black" points="876,-8 876,-38 1051,-38 1051,-8 876,-8"/>
<text text-anchor="start" x="884" y="-26" font-family="Helvetica,sans-Serif" font-size="10.00">denoptim.integration.rcoserver.</text>
<text text-anchor="middle" x="963.5" y="-15" font-family="Helvetica,sans-Serif" font-size="10.00">RCOSocketServerClient.getInstance</text>
</a>
</g>
</g>
<!-- Node1&#45;&gt;Node2 -->
<g id="edge1" class="edge">
<title>Node1&#45;&gt;Node2</title>
<path fill="none" stroke="midnightblue" d="M1076.83,-23C1068.17,-23 1059.56,-23 1051.17,-23"/>
<polygon fill="midnightblue" stroke="midnightblue" points="1076.99,-26.5 1086.99,-23 1076.99,-19.5 1076.99,-26.5"/>
</g>
<!-- Node3 -->
<g id="node3" class="node">
<title>Node3</title>
<g id="a_node3"><a xlink:href="classdenoptim_1_1molecularmodeling_1_1_ring_closure_tool.html#aa33d747366e6462bc5c35b4e2f1718e4" target="_top" xlink:title="Attempts to close rings by finding the conformation that allows to join heads and tails of specific a...">
<polygon fill="white" stroke="black" points="664,-27.5 664,-68.5 840,-68.5 840,-27.5 664,-27.5"/>
<text text-anchor="start" x="672" y="-56.5" font-family="Helvetica,sans-Serif" font-size="10.00">denoptim.molecularmodeling.</text>
<text text-anchor="start" x="672" y="-45.5" font-family="Helvetica,sans-Serif" font-size="10.00">RingClosureTool.attemptRingClosure</text>
<text text-anchor="middle" x="752" y="-34.5" font-family="Helvetica,sans-Serif" font-size="10.00">WithRCOServer</text>
</a>
</g>
</g>
<!-- Node2&#45;&gt;Node3 -->
<g id="edge2" class="edge">
<title>Node2&#45;&gt;Node3</title>
<path fill="none" stroke="midnightblue" d="M865.84,-34.53C857.33,-35.55 848.76,-36.57 840.33,-37.58"/>
<polygon fill="midnightblue" stroke="midnightblue" points="866.26,-38.01 875.78,-33.35 865.43,-31.06 866.26,-38.01"/>
</g>
<!-- Node5 -->
<g id="node5" class="node">
<title>Node5</title>
<g id="a_node5"><a xlink:href="classdenoptim_1_1molecularmodeling_1_1_multi_molecular_model_builder.html#a6a8e314f3fb37f66c32c8c4d5695b8a4" target="_top" xlink:title="Given the graph representation of the molecular constitution, along with the 3D coordinates of the fr...">
<polygon fill="white" stroke="black" points="242,-0.5 242,-41.5 400,-41.5 400,-0.5 242,-0.5"/>
<text text-anchor="start" x="250" y="-29.5" font-family="Helvetica,sans-Serif" font-size="10.00">denoptim.molecularmodeling.</text>
<text text-anchor="start" x="250" y="-18.5" font-family="Helvetica,sans-Serif" font-size="10.00">MultiMolecularModelBuilder.build</text>
<text text-anchor="middle" x="321" y="-7.5" font-family="Helvetica,sans-Serif" font-size="10.00">Multi3DStructure</text>
</a>
</g>
</g>
<!-- Node2&#45;&gt;Node5 -->
<g id="edge6" class="edge">
<title>Node2&#45;&gt;Node5</title>
<path fill="none" stroke="midnightblue" d="M865.67,-18.68C856.99,-18.41 848.34,-18.17 840,-18 684,-14.82 501.52,-17.33 400.11,-19.27"/>
<polygon fill="midnightblue" stroke="midnightblue" points="865.74,-22.19 875.85,-19.02 865.97,-15.19 865.74,-22.19"/>
</g>
<!-- Node4 -->
<g id="node4" class="node">
<title>Node4</title>
<g id="a_node4"><a xlink:href="classdenoptim_1_1molecularmodeling_1_1_ring_closure_tool.html#a26896649739e0a5e63dd88079c6efe7a" target="_top" xlink:title="Performs one or more attempts to close rings by conformational adaptation.">
<polygon fill="white" stroke="black" points="436,-30 436,-60 628,-60 628,-30 436,-30"/>
<text text-anchor="start" x="444" y="-48" font-family="Helvetica,sans-Serif" font-size="10.00">denoptim.molecularmodeling.</text>
<text text-anchor="middle" x="532" y="-37" font-family="Helvetica,sans-Serif" font-size="10.00">RingClosureTool.attemptAllRingClosures</text>
</a>
</g>
</g>
<!-- Node3&#45;&gt;Node4 -->
<g id="edge3" class="edge">
<title>Node3&#45;&gt;Node4</title>
<path fill="none" stroke="midnightblue" d="M653.64,-46.66C645.19,-46.54 636.63,-46.43 628.19,-46.31"/>
<polygon fill="midnightblue" stroke="midnightblue" points="653.85,-50.16 663.9,-46.8 653.95,-43.16 653.85,-50.16"/>
</g>
<!-- Node4&#45;&gt;Node5 -->
<g id="edge4" class="edge">
<title>Node4&#45;&gt;Node5</title>
<path fill="none" stroke="midnightblue" d="M425.85,-32.93C417.22,-31.93 408.59,-30.94 400.2,-29.98"/>
<polygon fill="midnightblue" stroke="midnightblue" points="425.65,-36.42 435.98,-34.09 426.44,-29.47 425.65,-36.42"/>
</g>
<!-- Node6 -->
<g id="node6" class="node">
<title>Node6</title>
<g id="a_node6"><a xlink:href="classdenoptim_1_1programs_1_1moldecularmodelbuilder_1_1_molecular_model_builder.html#ad2e44290de6a861274def677044e9754" target="_top" xlink:title=" ">
<polygon fill="white" stroke="black" points="0,-6 0,-36 206,-36 206,-6 0,-6"/>
<text text-anchor="start" x="8" y="-24" font-family="Helvetica,sans-Serif" font-size="10.00">denoptim.programs.moldecularmodelbuilder.</text>
<text text-anchor="middle" x="103" y="-13" font-family="Helvetica,sans-Serif" font-size="10.00">MolecularModelBuilder.runProgram</text>
</a>
</g>
</g>
<!-- Node5&#45;&gt;Node6 -->
<g id="edge5" class="edge">
<title>Node5&#45;&gt;Node6</title>
<path fill="none" stroke="midnightblue" d="M231.55,-21C223.14,-21 214.57,-21 206.05,-21"/>
<polygon fill="midnightblue" stroke="midnightblue" points="231.71,-24.5 241.71,-21 231.71,-17.5 231.71,-24.5"/>
</g>
</g>
</svg>
