<?xml version="1.0" encoding="UTF-8" standalone="no"?>
<!DOCTYPE svg PUBLIC "-//W3C//DTD SVG 1.1//EN"
 "http://www.w3.org/Graphics/SVG/1.1/DTD/svg11.dtd">
<!-- Generated by graphviz version 3.0.0 (20221109.1736)
 -->
<!-- Title: denoptim.graph.DGraph.getEdgeWithParent Pages: 1 -->
<svg width="662pt" height="129pt"
 viewBox="0.00 0.00 662.00 129.00" xmlns="http://www.w3.org/2000/svg" xmlns:xlink="http://www.w3.org/1999/xlink">
<g id="graph0" class="graph" transform="scale(1 1) rotate(0) translate(4 125)">
<title>denoptim.graph.DGraph.getEdgeWithParent</title>
<polygon fill="white" stroke="transparent" points="-4,4 -4,-125 658,-125 658,4 -4,4"/>
<!-- Node1 -->
<g id="node1" class="node">
<title>Node1</title>
<g id="a_node1"><a xlink:title="Looks for an edge that points to a vertex with the given vertex id.">
<polygon fill="#bfbfbf" stroke="black" points="0,-24.5 0,-54.5 134,-54.5 134,-24.5 0,-24.5"/>
<text text-anchor="start" x="8" y="-42.5" font-family="Helvetica,sans-Serif" font-size="10.00">denoptim.graph.DGraph.get</text>
<text text-anchor="middle" x="67" y="-31.5" font-family="Helvetica,sans-Serif" font-size="10.00">EdgeWithParent</text>
</a>
</g>
</g>
<!-- Node2 -->
<g id="node2" class="node">
<title>Node2</title>
<g id="a_node2"><a xlink:href="classdenoptim_1_1graph_1_1_vertex.html#a2937a75fd3652481c84235742b94736b" target="_top" xlink:title="Looks into the edges that use any of the APs that belong to this vertex and returns the edge that has...">
<polygon fill="white" stroke="black" points="173,-49.5 173,-79.5 301,-79.5 301,-49.5 173,-49.5"/>
<text text-anchor="start" x="181" y="-67.5" font-family="Helvetica,sans-Serif" font-size="10.00">denoptim.graph.Vertex.get</text>
<text text-anchor="middle" x="237" y="-56.5" font-family="Helvetica,sans-Serif" font-size="10.00">EdgeToParent</text>
</a>
</g>
</g>
<!-- Node1&#45;&gt;Node2 -->
<g id="edge1" class="edge">
<title>Node1&#45;&gt;Node2</title>
<path fill="none" stroke="midnightblue" d="M134.4,-49.38C143.69,-50.76 153.29,-52.19 162.7,-53.59"/>
<polygon fill="midnightblue" stroke="midnightblue" points="162.42,-57.09 172.82,-55.1 163.45,-50.16 162.42,-57.09"/>
</g>
<!-- Node5 -->
<g id="node5" class="node">
<title>Node5</title>
<g id="a_node5"><a xlink:href="classdenoptim_1_1graph_1_1_d_graph.html#a16e970d1e94704f9e720ff16f58f5796" target="_top" xlink:title="Searches for a vertex with the given identifier.">
<polygon fill="white" stroke="black" points="170,-0.5 170,-30.5 304,-30.5 304,-0.5 170,-0.5"/>
<text text-anchor="start" x="178" y="-18.5" font-family="Helvetica,sans-Serif" font-size="10.00">denoptim.graph.DGraph.get</text>
<text text-anchor="middle" x="237" y="-7.5" font-family="Helvetica,sans-Serif" font-size="10.00">VertexWithId</text>
</a>
</g>
</g>
<!-- Node1&#45;&gt;Node5 -->
<g id="edge4" class="edge">
<title>Node1&#45;&gt;Node5</title>
<path fill="none" stroke="midnightblue" d="M134.4,-30.01C142.77,-28.82 151.39,-27.59 159.89,-26.37"/>
<polygon fill="midnightblue" stroke="midnightblue" points="160.4,-29.83 169.81,-24.96 159.41,-22.91 160.4,-29.83"/>
</g>
<!-- Node3 -->
<g id="node3" class="node">
<title>Node3</title>
<g id="a_node3"><a xlink:href="classdenoptim_1_1graph_1_1_vertex.html#a85aa901ec3fff8e566c0cc32d9c9f84e" target="_top" xlink:title=" ">
<polygon fill="white" stroke="black" points="351,-90.5 351,-120.5 479,-120.5 479,-90.5 351,-90.5"/>
<text text-anchor="start" x="359" y="-108.5" font-family="Helvetica,sans-Serif" font-size="10.00">denoptim.graph.Vertex.get</text>
<text text-anchor="middle" x="415" y="-97.5" font-family="Helvetica,sans-Serif" font-size="10.00">AttachmentPoints</text>
</a>
</g>
</g>
<!-- Node2&#45;&gt;Node3 -->
<g id="edge2" class="edge">
<title>Node2&#45;&gt;Node3</title>
<path fill="none" stroke="midnightblue" d="M301.04,-79.19C313.93,-82.19 327.6,-85.37 340.81,-88.45"/>
<polygon fill="midnightblue" stroke="midnightblue" points="340.27,-91.92 350.81,-90.78 341.86,-85.1 340.27,-91.92"/>
</g>
<!-- Node4 -->
<g id="node4" class="node">
<title>Node4</title>
<g id="a_node4"><a xlink:href="classdenoptim_1_1graph_1_1_edge.html#a44521a3ad1a83e5d0a6be227e35ceffa" target="_top" xlink:title=" ">
<polygon fill="white" stroke="black" points="340,-52 340,-71 490,-71 490,-52 340,-52"/>
<text text-anchor="middle" x="415" y="-59" font-family="Helvetica,sans-Serif" font-size="10.00">denoptim.graph.Edge.getTrgAP</text>
</a>
</g>
</g>
<!-- Node2&#45;&gt;Node4 -->
<g id="edge3" class="edge">
<title>Node2&#45;&gt;Node4</title>
<path fill="none" stroke="midnightblue" d="M301.04,-63.43C310.41,-63.27 320.2,-63.1 329.91,-62.93"/>
<polygon fill="midnightblue" stroke="midnightblue" points="330.06,-66.43 340,-62.76 329.94,-59.43 330.06,-66.43"/>
</g>
<!-- Node6 -->
<g id="node6" class="node">
<title>Node6</title>
<g id="a_node6"><a xlink:href="classdenoptim_1_1graph_1_1_d_graph.html#a3560b051e55499bf45522a55f6219d29" target="_top" xlink:title="Returns the position of the first vertex that has the given ID.">
<polygon fill="white" stroke="black" points="343.5,-0.5 343.5,-30.5 486.5,-30.5 486.5,-0.5 343.5,-0.5"/>
<text text-anchor="start" x="351.5" y="-18.5" font-family="Helvetica,sans-Serif" font-size="10.00">denoptim.graph.DGraph.index</text>
<text text-anchor="middle" x="415" y="-7.5" font-family="Helvetica,sans-Serif" font-size="10.00">OfVertexWithID</text>
</a>
</g>
</g>
<!-- Node5&#45;&gt;Node6 -->
<g id="edge5" class="edge">
<title>Node5&#45;&gt;Node6</title>
<path fill="none" stroke="midnightblue" d="M304.04,-15.5C313.59,-15.5 323.52,-15.5 333.32,-15.5"/>
<polygon fill="midnightblue" stroke="midnightblue" points="333.47,-19 343.47,-15.5 333.47,-12 333.47,-19"/>
</g>
<!-- Node7 -->
<g id="node7" class="node">
<title>Node7</title>
<g id="a_node7"><a xlink:href="classdenoptim_1_1graph_1_1_vertex.html#a9493346ca1480edfcfa00cb78a52adf5" target="_top" xlink:title=" ">
<polygon fill="white" stroke="black" points="526,-0.5 526,-30.5 654,-30.5 654,-0.5 526,-0.5"/>
<text text-anchor="start" x="534" y="-18.5" font-family="Helvetica,sans-Serif" font-size="10.00">denoptim.graph.Vertex.get</text>
<text text-anchor="middle" x="590" y="-7.5" font-family="Helvetica,sans-Serif" font-size="10.00">VertexId</text>
</a>
</g>
</g>
<!-- Node6&#45;&gt;Node7 -->
<g id="edge6" class="edge">
<title>Node6&#45;&gt;Node7</title>
<path fill="none" stroke="midnightblue" d="M486.86,-15.5C496.32,-15.5 506.04,-15.5 515.54,-15.5"/>
<polygon fill="midnightblue" stroke="midnightblue" points="515.74,-19 525.74,-15.5 515.74,-12 515.74,-19"/>
</g>
</g>
</svg>
