<?xml version="1.0" encoding="UTF-8" standalone="no"?>
<!DOCTYPE svg PUBLIC "-//W3C//DTD SVG 1.1//EN"
 "http://www.w3.org/Graphics/SVG/1.1/DTD/svg11.dtd">
<!-- Generated by graphviz version 3.0.0 (20221109.1736)
 -->
<!-- Title: denoptim.graph.AttachmentPoint.setID Pages: 1 -->
<!--zoomable 927 -->
<svg id="main" version="1.1" xmlns="http://www.w3.org/2000/svg" xmlns:xlink="http://www.w3.org/1999/xlink" xml:space="preserve" onload="init(evt)">
<style type="text/css"><![CDATA[
.edge:hover path { stroke: red; }
.edge:hover polygon { stroke: red; fill: red; }
]]></style>
<script type="text/javascript"><![CDATA[
var edges = document.getElementsByTagName('g');
if (edges && edges.length) {
  for (var i=0;i<edges.length;i++) {
    if (edges[i].id.substr(0,4)=='edge') {
      edges[i].setAttribute('class','edge');
    }
  }
}
]]></script>
        <defs>
                <circle id="rim" cx="0" cy="0" r="7"/>
                <circle id="rim2" cx="0" cy="0" r="3.5"/>
                <g id="zoomPlus">
                        <use xlink:href="#rim" fill="#404040">
                                <set attributeName="fill" to="#808080" begin="zoomplus.mouseover" end="zoomplus.mouseout"/>
                        </use>
                        <path d="M-4,0h8M0,-4v8" fill="none" stroke="white" stroke-width="1.5" pointer-events="none"/>
                </g>
                <g id="zoomMin">
                        <use xlink:href="#rim" fill="#404040">
                                <set attributeName="fill" to="#808080" begin="zoomminus.mouseover" end="zoomminus.mouseout"/>
                        </use>
                        <path d="M-4,0h8" fill="none" stroke="white" stroke-width="1.5" pointer-events="none"/>
                </g>
                <g id="dirArrow">
                        <path fill="none" stroke="white" stroke-width="1.5" d="M0,-3.0v7 M-2.5,-0.5L0,-3.0L2.5,-0.5"/>
                </g>
               <g id="resetDef">
                       <use xlink:href="#rim2" fill="#404040">
                               <set attributeName="fill" to="#808080" begin="reset.mouseover" end="reset.mouseout"/>
                       </use>
               </g>
        </defs>

<script type="text/javascript">
var viewWidth = 1173;
var viewHeight = 927;
var sectionId = 'dynsection-54';
</script>
<script xlink:href="svgpan.js"/>
<svg id="graph" class="graph">
<g id="viewport">
<title>denoptim.graph.AttachmentPoint.setID</title>
<polygon fill="white" stroke="transparent" points="-4,4 -4,-923 1169,-923 1169,4 -4,4"/>
<!-- Node1 -->
<g id="node1" class="node">
<title>Node1</title>
<g id="a_node1"><a xlink:title="Sets the unique integer that is used to sort list of attachment points.">
<polygon fill="#bfbfbf" stroke="black" points="1030,-543.5 1030,-573.5 1165,-573.5 1165,-543.5 1030,-543.5"/>
<text text-anchor="start" x="1038" y="-561.5" font-family="Helvetica,sans-Serif" font-size="10.00">denoptim.graph.Attachment</text>
<text text-anchor="middle" x="1097.5" y="-550.5" font-family="Helvetica,sans-Serif" font-size="10.00">Point.setID</text>
</a>
</g>
</g>
<!-- Node2 -->
<g id="node2" class="node">
<title>Node2</title>
<g id="a_node2"><a xlink:href="classdenoptim_1_1graph_1_1_empty_vertex.html#a537720023ac6debd9f4663d61026a423" target="_top" xlink:title="Returns a deep&#45;copy of this vertex.">
<polygon fill="white" stroke="black" points="829,-747 829,-766 994,-766 994,-747 829,-747"/>
<text text-anchor="middle" x="911.5" y="-754" font-family="Helvetica,sans-Serif" font-size="10.00">denoptim.graph.EmptyVertex.clone</text>
</a>
</g>
</g>
<!-- Node1&#45;&gt;Node2 -->
<g id="edge1" class="edge">
<title>Node1&#45;&gt;Node2</title>
<path fill="none" stroke="midnightblue" d="M1075.42,-581.18C1035.25,-624.41 949.23,-716.98 921.39,-746.93"/>
<polygon fill="midnightblue" stroke="midnightblue" points="1078.12,-583.42 1082.37,-573.71 1073,-578.65 1078.12,-583.42"/>
</g>
<!-- Node10 -->
<g id="node10" class="node">
<title>Node10</title>
<g id="a_node10"><a xlink:href="classdenoptim_1_1graph_1_1_fragment.html#a3b476687a392e637d2bf2f3b6ccb09a4" target="_top" xlink:title="Returns a deep copy of this fragments.">
<polygon fill="white" stroke="black" points="835.5,-375 835.5,-394 987.5,-394 987.5,-375 835.5,-375"/>
<text text-anchor="middle" x="911.5" y="-382" font-family="Helvetica,sans-Serif" font-size="10.00">denoptim.graph.Fragment.clone</text>
</a>
</g>
</g>
<!-- Node1&#45;&gt;Node10 -->
<g id="edge9" class="edge">
<title>Node1&#45;&gt;Node10</title>
<path fill="none" stroke="midnightblue" d="M1072.98,-536.26C1032.55,-498.03 951.49,-421.37 922.83,-394.27"/>
<polygon fill="midnightblue" stroke="midnightblue" points="1070.82,-539.04 1080.49,-543.36 1075.63,-533.95 1070.82,-539.04"/>
</g>
<!-- Node3 -->
<g id="node3" class="node">
<title>Node3</title>
<g id="a_node3"><a xlink:href="classdenoptim_1_1graph_1_1_d_graph_test.html#a0fd4c84840d3eb11b1838a627d9e6956" target="_top" xlink:title="Returns a graph with definition of symmetric vertexes and symmetric APs meant for testing purposes.">
<polygon fill="white" stroke="black" points="614,-864.5 614,-894.5 778,-894.5 778,-864.5 614,-864.5"/>
<text text-anchor="start" x="622" y="-882.5" font-family="Helvetica,sans-Serif" font-size="10.00">denoptim.graph.DGraphTest.make</text>
<text text-anchor="middle" x="696" y="-871.5" font-family="Helvetica,sans-Serif" font-size="10.00">TestGraphM</text>
</a>
</g>
</g>
<!-- Node2&#45;&gt;Node3 -->
<g id="edge2" class="edge">
<title>Node2&#45;&gt;Node3</title>
<path fill="none" stroke="midnightblue" d="M895.3,-773.41C874.42,-795.59 834.67,-834.2 793,-855.5 786.27,-858.94 779.02,-861.91 771.62,-864.46"/>
<polygon fill="midnightblue" stroke="midnightblue" points="897.89,-775.76 902.11,-766.04 892.75,-771.01 897.89,-775.76"/>
</g>
<!-- Node6 -->
<g id="node6" class="node">
<title>Node6</title>
<g id="a_node6"><a xlink:href="classdenoptim_1_1graph_1_1_d_graph_test.html#ade544f5bf2f66ccb7a4f179e84b33c1c" target="_top" xlink:title="Returns a graph with peculiar definition of symmetric vertexes and symmetric APs meant for testing pu...">
<polygon fill="white" stroke="black" points="614,-815.5 614,-845.5 778,-845.5 778,-815.5 614,-815.5"/>
<text text-anchor="start" x="622" y="-833.5" font-family="Helvetica,sans-Serif" font-size="10.00">denoptim.graph.DGraphTest.make</text>
<text text-anchor="middle" x="696" y="-822.5" font-family="Helvetica,sans-Serif" font-size="10.00">TestGraphN</text>
</a>
</g>
</g>
<!-- Node2&#45;&gt;Node6 -->
<g id="edge5" class="edge">
<title>Node2&#45;&gt;Node6</title>
<path fill="none" stroke="midnightblue" d="M881.43,-770.39C857.95,-781.23 823.85,-796.15 793,-806.5 783.39,-809.72 773.11,-812.74 762.98,-815.46"/>
<polygon fill="midnightblue" stroke="midnightblue" points="882.91,-773.56 890.5,-766.16 879.95,-767.21 882.91,-773.56"/>
</g>
<!-- Node7 -->
<g id="node7" class="node">
<title>Node7</title>
<g id="a_node7"><a xlink:href="classdenoptim_1_1graph_1_1_vertex_test.html#ab36c441c57e9852e2be6d810d80fbc87" target="_top" xlink:title=" ">
<polygon fill="white" stroke="black" points="620.5,-668.5 620.5,-698.5 771.5,-698.5 771.5,-668.5 620.5,-668.5"/>
<text text-anchor="start" x="628.5" y="-686.5" font-family="Helvetica,sans-Serif" font-size="10.00">denoptim.graph.VertexTest.test</text>
<text text-anchor="middle" x="696" y="-675.5" font-family="Helvetica,sans-Serif" font-size="10.00">Clone</text>
</a>
</g>
</g>
<!-- Node2&#45;&gt;Node7 -->
<g id="edge6" class="edge">
<title>Node2&#45;&gt;Node7</title>
<path fill="none" stroke="midnightblue" d="M880.18,-742.81C856.7,-732.53 823.19,-718.55 793,-708.5 782.3,-704.94 770.79,-701.56 759.58,-698.51"/>
<polygon fill="midnightblue" stroke="midnightblue" points="879.03,-746.13 889.59,-746.97 881.86,-739.73 879.03,-746.13"/>
</g>
<!-- Node8 -->
<g id="node8" class="node">
<title>Node8</title>
<g id="a_node8"><a xlink:href="classdenoptim_1_1graph_1_1_attachment_point_test.html#a309f26b0bad9acff15e95672089c2432" target="_top" xlink:title=" ">
<polygon fill="white" stroke="black" points="628.5,-766.5 628.5,-796.5 763.5,-796.5 763.5,-766.5 628.5,-766.5"/>
<text text-anchor="start" x="636.5" y="-784.5" font-family="Helvetica,sans-Serif" font-size="10.00">denoptim.graph.Attachment</text>
<text text-anchor="middle" x="696" y="-773.5" font-family="Helvetica,sans-Serif" font-size="10.00">PointTest.testSameAs</text>
</a>
</g>
</g>
<!-- Node2&#45;&gt;Node8 -->
<g id="edge7" class="edge">
<title>Node2&#45;&gt;Node8</title>
<path fill="none" stroke="midnightblue" d="M819.18,-767.19C800.49,-769.38 781.16,-771.65 763.54,-773.71"/>
<polygon fill="midnightblue" stroke="midnightblue" points="819.65,-770.66 829.18,-766.02 818.84,-763.71 819.65,-770.66"/>
</g>
<!-- Node9 -->
<g id="node9" class="node">
<title>Node9</title>
<g id="a_node9"><a xlink:href="classdenoptim_1_1graph_1_1_attachment_point_test.html#af2fc2503c300637c2369eb4347c990c1" target="_top" xlink:title=" ">
<polygon fill="white" stroke="black" points="609.5,-717.5 609.5,-747.5 782.5,-747.5 782.5,-717.5 609.5,-717.5"/>
<text text-anchor="start" x="617.5" y="-735.5" font-family="Helvetica,sans-Serif" font-size="10.00">denoptim.graph.Attachment</text>
<text text-anchor="middle" x="696" y="-724.5" font-family="Helvetica,sans-Serif" font-size="10.00">PointTest.testSameAs_DiffAPClass</text>
</a>
</g>
</g>
<!-- Node2&#45;&gt;Node9 -->
<g id="edge8" class="edge">
<title>Node2&#45;&gt;Node9</title>
<path fill="none" stroke="midnightblue" d="M818.89,-746.2C806.93,-744.86 794.7,-743.48 782.84,-742.15"/>
<polygon fill="midnightblue" stroke="midnightblue" points="818.54,-749.68 828.87,-747.32 819.32,-742.73 818.54,-749.68"/>
</g>
<!-- Node4 -->
<g id="node4" class="node">
<title>Node4</title>
<g id="a_node4"><a xlink:href="classdenoptim_1_1graph_1_1_d_graph_test.html#a05b87ffb43b9710fcea83b0777654e27" target="_top" xlink:title=" ">
<polygon fill="white" stroke="black" points="390.5,-888.5 390.5,-918.5 546.5,-918.5 546.5,-888.5 390.5,-888.5"/>
<text text-anchor="start" x="398.5" y="-906.5" font-family="Helvetica,sans-Serif" font-size="10.00">denoptim.graph.DGraphTest.test</text>
<text text-anchor="middle" x="468.5" y="-895.5" font-family="Helvetica,sans-Serif" font-size="10.00">DetectSymVertexSets</text>
</a>
</g>
</g>
<!-- Node3&#45;&gt;Node4 -->
<g id="edge3" class="edge">
<title>Node3&#45;&gt;Node4</title>
<path fill="none" stroke="midnightblue" d="M603.82,-889.2C584.93,-891.22 565.2,-893.31 546.86,-895.27"/>
<polygon fill="midnightblue" stroke="midnightblue" points="604.33,-892.67 613.91,-888.13 603.59,-885.71 604.33,-892.67"/>
</g>
<!-- Node5 -->
<g id="node5" class="node">
<title>Node5</title>
<g id="a_node5"><a xlink:href="classdenoptim_1_1graph_1_1_d_graph_test.html#ac02ab6b199aee9280e88a14d0026a175" target="_top" xlink:title=" ">
<polygon fill="white" stroke="black" points="383.5,-839.5 383.5,-869.5 553.5,-869.5 553.5,-839.5 383.5,-839.5"/>
<text text-anchor="start" x="391.5" y="-857.5" font-family="Helvetica,sans-Serif" font-size="10.00">denoptim.graph.DGraphTest.test</text>
<text text-anchor="middle" x="468.5" y="-846.5" font-family="Helvetica,sans-Serif" font-size="10.00">FindSymmetrySetsOfChildVertexes</text>
</a>
</g>
</g>
<!-- Node3&#45;&gt;Node5 -->
<g id="edge4" class="edge">
<title>Node3&#45;&gt;Node5</title>
<path fill="none" stroke="midnightblue" d="M603.71,-869.38C587.17,-867.55 569.99,-865.64 553.67,-863.83"/>
<polygon fill="midnightblue" stroke="midnightblue" points="603.58,-872.89 613.91,-870.51 604.35,-865.93 603.58,-872.89"/>
</g>
<!-- Node10&#45;&gt;Node7 -->
<g id="edge23" class="edge">
<title>Node10&#45;&gt;Node7</title>
<path fill="none" stroke="midnightblue" d="M908.11,-403.99C900.86,-454.42 874.36,-590.14 793,-659.5 786.72,-664.85 779.43,-669.04 771.71,-672.31"/>
<polygon fill="midnightblue" stroke="midnightblue" points="911.58,-404.45 909.44,-394.07 904.64,-403.52 911.58,-404.45"/>
</g>
<!-- Node10&#45;&gt;Node10 -->
<g id="edge10" class="edge">
<title>Node10&#45;&gt;Node10</title>
<path fill="none" stroke="midnightblue" d="M946.36,-402.39C945.85,-408.04 934.23,-412.5 911.5,-412.5 878.44,-412.5 868.89,-403.07 882.83,-394.26"/>
<polygon fill="midnightblue" stroke="midnightblue" points="949.01,-400.1 940.17,-394.26 943.44,-404.33 949.01,-400.1"/>
</g>
<!-- Node11 -->
<g id="node11" class="node">
<title>Node11</title>
<g id="a_node11"><a xlink:href="classdenoptim_1_1fragmenter_1_1_fragmenter_tools.html#a37c0e44680ec1c54fcff98dae0832a50" target="_top" xlink:title="Chops one chemical structure by applying the given cutting rules.">
<polygon fill="white" stroke="black" points="617.5,-619.5 617.5,-649.5 774.5,-649.5 774.5,-619.5 617.5,-619.5"/>
<text text-anchor="start" x="625.5" y="-637.5" font-family="Helvetica,sans-Serif" font-size="10.00">denoptim.fragmenter.Fragmenter</text>
<text text-anchor="middle" x="696" y="-626.5" font-family="Helvetica,sans-Serif" font-size="10.00">Tools.fragmentation</text>
</a>
</g>
</g>
<!-- Node10&#45;&gt;Node11 -->
<g id="edge11" class="edge">
<title>Node10&#45;&gt;Node11</title>
<path fill="none" stroke="midnightblue" d="M906,-404.18C894.9,-448.11 861.98,-554.61 793,-609.5 787.47,-613.9 781.26,-617.53 774.71,-620.52"/>
<polygon fill="midnightblue" stroke="midnightblue" points="909.41,-404.97 908.36,-394.43 902.61,-403.33 909.41,-404.97"/>
</g>
<!-- Node12 -->
<g id="node12" class="node">
<title>Node12</title>
<g id="a_node12"><a xlink:href="classdenoptim_1_1fragmenter_1_1_clusterable_fragment.html#a1e02c5f6054d5764ff597bd12337345a" target="_top" xlink:title=" ">
<polygon fill="white" stroke="black" points="618,-570.5 618,-600.5 774,-600.5 774,-570.5 618,-570.5"/>
<text text-anchor="start" x="626" y="-588.5" font-family="Helvetica,sans-Serif" font-size="10.00">denoptim.fragmenter.Clusterable</text>
<text text-anchor="middle" x="696" y="-577.5" font-family="Helvetica,sans-Serif" font-size="10.00">Fragment.getTransformedCopy</text>
</a>
</g>
</g>
<!-- Node10&#45;&gt;Node12 -->
<g id="edge12" class="edge">
<title>Node10&#45;&gt;Node12</title>
<path fill="none" stroke="midnightblue" d="M903.14,-403.79C888.2,-440.27 850.76,-519.4 793,-560.5 787.25,-564.59 780.87,-568.02 774.23,-570.88"/>
<polygon fill="midnightblue" stroke="midnightblue" points="906.47,-404.89 906.9,-394.31 899.96,-402.31 906.47,-404.89"/>
</g>
<!-- Node19 -->
<g id="node19" class="node">
<title>Node19</title>
<g id="a_node19"><a xlink:href="classdenoptim_1_1graph_1_1rings_1_1_ring_size_manager_test.html#ac3efa7ffa90ffbdb876e8489054b02af" target="_top" xlink:title="Build a graph meant to be used in unit tests.">
<polygon fill="white" stroke="black" points="610.5,-521.5 610.5,-551.5 781.5,-551.5 781.5,-521.5 610.5,-521.5"/>
<text text-anchor="start" x="618.5" y="-539.5" font-family="Helvetica,sans-Serif" font-size="10.00">denoptim.graph.rings.Ring</text>
<text text-anchor="middle" x="696" y="-528.5" font-family="Helvetica,sans-Serif" font-size="10.00">SizeManagerTest.makeTestGraphA</text>
</a>
</g>
</g>
<!-- Node10&#45;&gt;Node19 -->
<g id="edge20" class="edge">
<title>Node10&#45;&gt;Node19</title>
<path fill="none" stroke="midnightblue" d="M898.88,-402.57C880.06,-430.34 840.23,-483.22 793,-511.5 786.5,-515.39 779.4,-518.69 772.09,-521.47"/>
<polygon fill="midnightblue" stroke="midnightblue" points="901.82,-404.46 904.43,-394.19 895.99,-400.6 901.82,-404.46"/>
</g>
<!-- Node20 -->
<g id="node20" class="node">
<title>Node20</title>
<g id="a_node20"><a xlink:href="classdenoptim_1_1ga_1_1_graph_operations_test.html#af86b79061d15a4d2e3d7ccdf0d758f44" target="_top" xlink:title=" ">
<polygon fill="white" stroke="black" points="623.5,-472.5 623.5,-502.5 768.5,-502.5 768.5,-472.5 623.5,-472.5"/>
<text text-anchor="start" x="631.5" y="-490.5" font-family="Helvetica,sans-Serif" font-size="10.00">denoptim.ga.GraphOperations</text>
<text text-anchor="middle" x="696" y="-479.5" font-family="Helvetica,sans-Serif" font-size="10.00">Test.testAddRing</text>
</a>
</g>
</g>
<!-- Node10&#45;&gt;Node20 -->
<g id="edge21" class="edge">
<title>Node10&#45;&gt;Node20</title>
<path fill="none" stroke="midnightblue" d="M890.89,-400.5C868.48,-418.05 830.1,-445.92 793,-462.5 784.51,-466.3 775.33,-469.6 766.13,-472.46"/>
<polygon fill="midnightblue" stroke="midnightblue" points="893.28,-403.07 898.93,-394.11 888.92,-397.59 893.28,-403.07"/>
</g>
<!-- Node21 -->
<g id="node21" class="node">
<title>Node21</title>
<g id="a_node21"><a xlink:href="classdenoptim_1_1graph_1_1_fragment_test.html#a0a98792d99861bb6673e66a76ff49d31" target="_top" xlink:title=" ">
<polygon fill="white" stroke="black" points="614,-423.5 614,-453.5 778,-453.5 778,-423.5 614,-423.5"/>
<text text-anchor="start" x="622" y="-441.5" font-family="Helvetica,sans-Serif" font-size="10.00">denoptim.graph.FragmentTest.test</text>
<text text-anchor="middle" x="696" y="-430.5" font-family="Helvetica,sans-Serif" font-size="10.00">Clone</text>
</a>
</g>
</g>
<!-- Node10&#45;&gt;Node21 -->
<g id="edge22" class="edge">
<title>Node10&#45;&gt;Node21</title>
<path fill="none" stroke="midnightblue" d="M863.6,-396.53C842.09,-402.03 816.26,-408.62 793,-414.5 781.51,-417.4 769.24,-420.49 757.44,-423.44"/>
<polygon fill="midnightblue" stroke="midnightblue" points="864.65,-399.88 873.47,-394.01 862.91,-393.09 864.65,-399.88"/>
</g>
<!-- Node22 -->
<g id="node22" class="node">
<title>Node22</title>
<g id="a_node22"><a xlink:href="classdenoptim_1_1graph_1_1rings_1_1_path_closability_tools_test.html#af991094bf8c17599150d2e43ea582cf9" target="_top" xlink:title=" ">
<polygon fill="white" stroke="black" points="615.5,-364 615.5,-405 776.5,-405 776.5,-364 615.5,-364"/>
<text text-anchor="start" x="623.5" y="-393" font-family="Helvetica,sans-Serif" font-size="10.00">denoptim.graph.rings.Path</text>
<text text-anchor="start" x="623.5" y="-382" font-family="Helvetica,sans-Serif" font-size="10.00">ClosabilityToolsTest.testEvaluate</text>
<text text-anchor="middle" x="696" y="-371" font-family="Helvetica,sans-Serif" font-size="10.00">ConstitutionalClosability</text>
</a>
</g>
</g>
<!-- Node10&#45;&gt;Node22 -->
<g id="edge24" class="edge">
<title>Node10&#45;&gt;Node22</title>
<path fill="none" stroke="midnightblue" d="M824.88,-384.5C808.96,-384.5 792.39,-384.5 776.66,-384.5"/>
<polygon fill="midnightblue" stroke="midnightblue" points="825.23,-388 835.23,-384.5 825.23,-381 825.23,-388"/>
</g>
<!-- Node23 -->
<g id="node23" class="node">
<title>Node23</title>
<g id="a_node23"><a xlink:href="classdenoptim_1_1graph_1_1rings_1_1_random_comb_of_ring_iterator_test.html#a4a178f479d08c120f5fea6ef60feac8b" target="_top" xlink:title=" ">
<polygon fill="white" stroke="black" points="606.5,-304 606.5,-345 785.5,-345 785.5,-304 606.5,-304"/>
<text text-anchor="start" x="614.5" y="-333" font-family="Helvetica,sans-Serif" font-size="10.00">denoptim.graph.rings.Random</text>
<text text-anchor="start" x="614.5" y="-322" font-family="Helvetica,sans-Serif" font-size="10.00">CombOfRingIteratorTest.testEvaluate</text>
<text text-anchor="middle" x="696" y="-311" font-family="Helvetica,sans-Serif" font-size="10.00">ConstitutionalClosability</text>
</a>
</g>
</g>
<!-- Node10&#45;&gt;Node23 -->
<g id="edge25" class="edge">
<title>Node10&#45;&gt;Node23</title>
<path fill="none" stroke="midnightblue" d="M866.84,-372.23C839,-364.41 802.22,-354.07 770.01,-345.02"/>
<polygon fill="midnightblue" stroke="midnightblue" points="866.1,-375.66 876.67,-374.99 867.99,-368.92 866.1,-375.66"/>
</g>
<!-- Node24 -->
<g id="node24" class="node">
<title>Node24</title>
<g id="a_node24"><a xlink:href="classdenoptim_1_1graph_1_1rings_1_1_ring_size_manager_test.html#a55d1482a18edbaabf15b090392a282f3" target="_top" xlink:title=" ">
<polygon fill="white" stroke="black" points="603,-255.5 603,-285.5 789,-285.5 789,-255.5 603,-255.5"/>
<text text-anchor="start" x="611" y="-273.5" font-family="Helvetica,sans-Serif" font-size="10.00">denoptim.graph.rings.Ring</text>
<text text-anchor="middle" x="696" y="-262.5" font-family="Helvetica,sans-Serif" font-size="10.00">SizeManagerTest.testEvaluateRCVPair</text>
</a>
</g>
</g>
<!-- Node10&#45;&gt;Node24 -->
<g id="edge26" class="edge">
<title>Node10&#45;&gt;Node24</title>
<path fill="none" stroke="midnightblue" d="M893.38,-367.68C871.77,-347.38 832.61,-313.6 793,-294.5 785.88,-291.07 778.22,-288.09 770.45,-285.52"/>
<polygon fill="midnightblue" stroke="midnightblue" points="891.12,-370.37 900.77,-374.74 895.96,-365.3 891.12,-370.37"/>
</g>
<!-- Node25 -->
<g id="node25" class="node">
<title>Node25</title>
<g id="a_node25"><a xlink:href="classdenoptim_1_1ga_1_1_graph_operations_test.html#a2b8d6293663bce9a9da1d35efe31911b" target="_top" xlink:title=" ">
<polygon fill="white" stroke="black" points="623.5,-206.5 623.5,-236.5 768.5,-236.5 768.5,-206.5 623.5,-206.5"/>
<text text-anchor="start" x="631.5" y="-224.5" font-family="Helvetica,sans-Serif" font-size="10.00">denoptim.ga.GraphOperations</text>
<text text-anchor="middle" x="696" y="-213.5" font-family="Helvetica,sans-Serif" font-size="10.00">Test.testExtendGraph</text>
</a>
</g>
</g>
<!-- Node10&#45;&gt;Node25 -->
<g id="edge27" class="edge">
<title>Node10&#45;&gt;Node25</title>
<path fill="none" stroke="midnightblue" d="M900.13,-365.96C882.3,-335.85 842.88,-276.57 793,-245.5 785.56,-240.87 777.28,-237.13 768.78,-234.11"/>
<polygon fill="midnightblue" stroke="midnightblue" points="897.3,-368.06 905.34,-374.97 903.37,-364.56 897.3,-368.06"/>
</g>
<!-- Node26 -->
<g id="node26" class="node">
<title>Node26</title>
<g id="a_node26"><a xlink:href="classdenoptim_1_1fragmenter_1_1_conformer_extractor_task_test.html#a2dc64f375774087fc0b4511384f50bc9" target="_top" xlink:title=" ">
<polygon fill="white" stroke="black" points="599,-147 599,-188 793,-188 793,-147 599,-147"/>
<text text-anchor="start" x="607" y="-176" font-family="Helvetica,sans-Serif" font-size="10.00">denoptim.fragmenter.Conformer</text>
<text text-anchor="start" x="607" y="-165" font-family="Helvetica,sans-Serif" font-size="10.00">ExtractorTaskTest.testExtractClusterable</text>
<text text-anchor="middle" x="696" y="-154" font-family="Helvetica,sans-Serif" font-size="10.00">Fragments</text>
</a>
</g>
</g>
<!-- Node10&#45;&gt;Node26 -->
<g id="edge28" class="edge">
<title>Node10&#45;&gt;Node26</title>
<path fill="none" stroke="midnightblue" d="M903.75,-365.15C889.47,-327.04 852.53,-242.02 793,-196.5 788.99,-193.43 784.65,-190.69 780.12,-188.23"/>
<polygon fill="midnightblue" stroke="midnightblue" points="900.48,-366.38 907.18,-374.58 907.06,-363.99 900.48,-366.38"/>
</g>
<!-- Node27 -->
<g id="node27" class="node">
<title>Node27</title>
<g id="a_node27"><a xlink:href="classdenoptim_1_1fragmenter_1_1_fragment_alignement_test.html#ad46b9a4324bb5b9bbfc08c73de0e1124" target="_top" xlink:title=" ">
<polygon fill="white" stroke="black" points="602,-98.5 602,-128.5 790,-128.5 790,-98.5 602,-98.5"/>
<text text-anchor="start" x="610" y="-116.5" font-family="Helvetica,sans-Serif" font-size="10.00">denoptim.fragmenter.Fragment</text>
<text text-anchor="middle" x="696" y="-105.5" font-family="Helvetica,sans-Serif" font-size="10.00">AlignementTest.testGetMinimumRMSD</text>
</a>
</g>
</g>
<!-- Node10&#45;&gt;Node27 -->
<g id="edge29" class="edge">
<title>Node10&#45;&gt;Node27</title>
<path fill="none" stroke="midnightblue" d="M907.04,-364.82C897.71,-317.83 867.52,-198.49 793,-137.5 788.88,-134.13 784.35,-131.22 779.57,-128.71"/>
<polygon fill="midnightblue" stroke="midnightblue" points="903.65,-365.71 908.93,-374.89 910.52,-364.42 903.65,-365.71"/>
</g>
<!-- Node28 -->
<g id="node28" class="node">
<title>Node28</title>
<g id="a_node28"><a xlink:href="classdenoptim_1_1graph_1_1_attachment_point_test.html#af88d30ce68477984fe6179325d1540b2" target="_top" xlink:title=" ">
<polygon fill="white" stroke="black" points="606,-49.5 606,-79.5 786,-79.5 786,-49.5 606,-49.5"/>
<text text-anchor="start" x="614" y="-67.5" font-family="Helvetica,sans-Serif" font-size="10.00">denoptim.graph.Attachment</text>
<text text-anchor="middle" x="696" y="-56.5" font-family="Helvetica,sans-Serif" font-size="10.00">PointTest.testHasConnectedSrcAtom</text>
</a>
</g>
</g>
<!-- Node10&#45;&gt;Node28 -->
<g id="edge30" class="edge">
<title>Node10&#45;&gt;Node28</title>
<path fill="none" stroke="midnightblue" d="M908.72,-364.63C902.86,-311.3 879.24,-163.98 793,-88.5 789.12,-85.11 784.83,-82.18 780.29,-79.65"/>
<polygon fill="midnightblue" stroke="midnightblue" points="905.26,-365.18 909.75,-374.78 912.23,-364.48 905.26,-365.18"/>
</g>
<!-- Node29 -->
<g id="node29" class="node">
<title>Node29</title>
<g id="a_node29"><a xlink:href="classdenoptim_1_1graph_1_1_attachment_point_test.html#a4889032266eb87d0f91af8b4e9869360" target="_top" xlink:title=" ">
<polygon fill="white" stroke="black" points="616.5,-0.5 616.5,-30.5 775.5,-30.5 775.5,-0.5 616.5,-0.5"/>
<text text-anchor="start" x="624.5" y="-18.5" font-family="Helvetica,sans-Serif" font-size="10.00">denoptim.graph.Attachment</text>
<text text-anchor="middle" x="696" y="-7.5" font-family="Helvetica,sans-Serif" font-size="10.00">PointTest.testHasSameSrcAtom</text>
</a>
</g>
</g>
<!-- Node10&#45;&gt;Node29 -->
<g id="edge31" class="edge">
<title>Node10&#45;&gt;Node29</title>
<path fill="none" stroke="midnightblue" d="M909.99,-364.59C907.35,-305.55 891.22,-129.87 793,-39.5 787.94,-34.85 782.12,-31.06 775.9,-27.99"/>
<polygon fill="midnightblue" stroke="midnightblue" points="906.5,-364.92 910.36,-374.79 913.49,-364.67 906.5,-364.92"/>
</g>
<!-- Node13 -->
<g id="node13" class="node">
<title>Node13</title>
<g id="a_node13"><a xlink:href="classdenoptim_1_1fragmenter_1_1_fragment_clusterer.html#a1845241fead0bee7fd92feaf6d71e331" target="_top" xlink:title="Once the clustering is done, this method return the list of cluster centroids.">
<polygon fill="white" stroke="black" points="394,-570.5 394,-600.5 543,-600.5 543,-570.5 394,-570.5"/>
<text text-anchor="start" x="402" y="-588.5" font-family="Helvetica,sans-Serif" font-size="10.00">denoptim.fragmenter.Fragment</text>
<text text-anchor="middle" x="468.5" y="-577.5" font-family="Helvetica,sans-Serif" font-size="10.00">Clusterer.getClusterCentroids</text>
</a>
</g>
</g>
<!-- Node12&#45;&gt;Node13 -->
<g id="edge13" class="edge">
<title>Node12&#45;&gt;Node13</title>
<path fill="none" stroke="midnightblue" d="M607.71,-585.5C586.42,-585.5 563.85,-585.5 543.26,-585.5"/>
<polygon fill="midnightblue" stroke="midnightblue" points="607.71,-589 617.71,-585.5 607.71,-582 607.71,-589"/>
</g>
<!-- Node17 -->
<g id="node17" class="node">
<title>Node17</title>
<g id="a_node17"><a xlink:href="classdenoptim_1_1fragmenter_1_1_fragment_clusterer.html#aae37739ae959ab8a85bf01286c5a518e" target="_top" xlink:title="Once the clustering is done, this method return the list of fragments that are nearest to the respect...">
<polygon fill="white" stroke="black" points="374,-619.5 374,-649.5 563,-649.5 563,-619.5 374,-619.5"/>
<text text-anchor="start" x="382" y="-637.5" font-family="Helvetica,sans-Serif" font-size="10.00">denoptim.fragmenter.Fragment</text>
<text text-anchor="middle" x="468.5" y="-626.5" font-family="Helvetica,sans-Serif" font-size="10.00">Clusterer.getNearestToClusterCentroids</text>
</a>
</g>
</g>
<!-- Node12&#45;&gt;Node17 -->
<g id="edge17" class="edge">
<title>Node12&#45;&gt;Node17</title>
<path fill="none" stroke="midnightblue" d="M615.91,-602.69C590.7,-608.16 563.01,-614.18 538.56,-619.49"/>
<polygon fill="midnightblue" stroke="midnightblue" points="616.78,-606.08 625.81,-600.53 615.29,-599.24 616.78,-606.08"/>
</g>
<!-- Node18 -->
<g id="node18" class="node">
<title>Node18</title>
<g id="a_node18"><a xlink:href="classdenoptim_1_1fragmenter_1_1_clusterable_fragment_test.html#a30be40702849bf4781129bf3dabf88e8" target="_top" xlink:title=" ">
<polygon fill="white" stroke="black" points="374.5,-521.5 374.5,-551.5 562.5,-551.5 562.5,-521.5 374.5,-521.5"/>
<text text-anchor="start" x="382.5" y="-539.5" font-family="Helvetica,sans-Serif" font-size="10.00">denoptim.fragmenter.Clusterable</text>
<text text-anchor="middle" x="468.5" y="-528.5" font-family="Helvetica,sans-Serif" font-size="10.00">FragmentTest.testGetTransformedCopy</text>
</a>
</g>
</g>
<!-- Node12&#45;&gt;Node18 -->
<g id="edge19" class="edge">
<title>Node12&#45;&gt;Node18</title>
<path fill="none" stroke="midnightblue" d="M615.91,-568.31C590.7,-562.84 563.01,-556.82 538.56,-551.51"/>
<polygon fill="midnightblue" stroke="midnightblue" points="615.29,-571.76 625.81,-570.47 616.78,-564.92 615.29,-571.76"/>
</g>
<!-- Node14 -->
<g id="node14" class="node">
<title>Node14</title>
<g id="a_node14"><a xlink:href="classdenoptim_1_1fragmenter_1_1_conformer_extractor_task.html#aa21ebdf147f5bdb2685f9e775efd0b10" target="_top" xlink:title=" ">
<polygon fill="white" stroke="black" points="186,-619.5 186,-649.5 338,-649.5 338,-619.5 186,-619.5"/>
<text text-anchor="start" x="194" y="-637.5" font-family="Helvetica,sans-Serif" font-size="10.00">denoptim.fragmenter.Conformer</text>
<text text-anchor="middle" x="262" y="-626.5" font-family="Helvetica,sans-Serif" font-size="10.00">ExtractorTask.call</text>
</a>
</g>
</g>
<!-- Node13&#45;&gt;Node14 -->
<g id="edge14" class="edge">
<title>Node13&#45;&gt;Node14</title>
<path fill="none" stroke="midnightblue" d="M394.87,-602.9C372.24,-608.32 347.5,-614.25 325.63,-619.49"/>
<polygon fill="midnightblue" stroke="midnightblue" points="395.84,-606.27 404.75,-600.53 394.21,-599.46 395.84,-606.27"/>
</g>
<!-- Node16 -->
<g id="node16" class="node">
<title>Node16</title>
<g id="a_node16"><a xlink:href="classdenoptim_1_1fragmenter_1_1_fragment_clusterer_test.html#aa17925160f3f03080e8680c7016fc1c4" target="_top" xlink:title=" ">
<polygon fill="white" stroke="black" points="187.5,-570.5 187.5,-600.5 336.5,-600.5 336.5,-570.5 187.5,-570.5"/>
<text text-anchor="start" x="195.5" y="-588.5" font-family="Helvetica,sans-Serif" font-size="10.00">denoptim.fragmenter.Fragment</text>
<text text-anchor="middle" x="262" y="-577.5" font-family="Helvetica,sans-Serif" font-size="10.00">ClustererTest.testCluster</text>
</a>
</g>
</g>
<!-- Node13&#45;&gt;Node16 -->
<g id="edge16" class="edge">
<title>Node13&#45;&gt;Node16</title>
<path fill="none" stroke="midnightblue" d="M383.78,-585.5C368.13,-585.5 351.89,-585.5 336.57,-585.5"/>
<polygon fill="midnightblue" stroke="midnightblue" points="383.96,-589 393.96,-585.5 383.96,-582 383.96,-589"/>
</g>
<!-- Node15 -->
<g id="node15" class="node">
<title>Node15</title>
<g id="a_node15"><a xlink:href="classdenoptim_1_1programs_1_1fragmenter_1_1_fragmenter.html#aa27df9705e3aed34cc8cb8bc05e6ce85" target="_top" xlink:title=" ">
<polygon fill="white" stroke="black" points="0,-619.5 0,-649.5 150,-649.5 150,-619.5 0,-619.5"/>
<text text-anchor="start" x="8" y="-637.5" font-family="Helvetica,sans-Serif" font-size="10.00">denoptim.programs.fragmenter.</text>
<text text-anchor="middle" x="75" y="-626.5" font-family="Helvetica,sans-Serif" font-size="10.00">Fragmenter.runProgram</text>
</a>
</g>
</g>
<!-- Node14&#45;&gt;Node15 -->
<g id="edge15" class="edge">
<title>Node14&#45;&gt;Node15</title>
<path fill="none" stroke="midnightblue" d="M175.53,-634.5C167.1,-634.5 158.59,-634.5 150.28,-634.5"/>
<polygon fill="midnightblue" stroke="midnightblue" points="175.75,-638 185.75,-634.5 175.75,-631 175.75,-638"/>
</g>
<!-- Node17&#45;&gt;Node14 -->
<g id="edge18" class="edge">
<title>Node17&#45;&gt;Node14</title>
<path fill="none" stroke="midnightblue" d="M363.79,-634.5C355.14,-634.5 346.51,-634.5 338.14,-634.5"/>
<polygon fill="midnightblue" stroke="midnightblue" points="363.93,-638 373.93,-634.5 363.93,-631 363.93,-638"/>
</g>
</g>
</svg>
        <g id="navigator" transform="translate(0 0)" fill="#404254">
                <rect fill="#f2f5e9" fill-opacity="0.5" stroke="#606060" stroke-width=".5" x="0" y="0" width="60" height="60"/>
                <use id="zoomplus" xlink:href="#zoomPlus" x="17" y="9" onmousedown="handleZoom(evt,'in')"/>
                <use id="zoomminus" xlink:href="#zoomMin" x="42" y="9" onmousedown="handleZoom(evt,'out')"/>
                <use id="reset" xlink:href="#resetDef" x="30" y="36" onmousedown="handleReset()"/>
                <g id="arrowUp" xlink:href="#dirArrow" transform="translate(30 24)" onmousedown="handlePan(0,-1)">
                  <use xlink:href="#rim" fill="#404040">
                        <set attributeName="fill" to="#808080" begin="arrowUp.mouseover" end="arrowUp.mouseout"/>
                  </use>
                  <path fill="none" stroke="white" stroke-width="1.5" d="M0,-3.0v7 M-2.5,-0.5L0,-3.0L2.5,-0.5"/>
                </g>
                <g id="arrowRight" xlink:href="#dirArrow" transform="rotate(90) translate(36 -43)" onmousedown="handlePan(1,0)">
                  <use xlink:href="#rim" fill="#404040">
                        <set attributeName="fill" to="#808080" begin="arrowRight.mouseover" end="arrowRight.mouseout"/>
                  </use>
                  <path fill="none" stroke="white" stroke-width="1.5" d="M0,-3.0v7 M-2.5,-0.5L0,-3.0L2.5,-0.5"/>
                </g>
                <g id="arrowDown" xlink:href="#dirArrow" transform="rotate(180) translate(-30 -48)" onmousedown="handlePan(0,1)">
                  <use xlink:href="#rim" fill="#404040">
                        <set attributeName="fill" to="#808080" begin="arrowDown.mouseover" end="arrowDown.mouseout"/>
                  </use>
                  <path fill="none" stroke="white" stroke-width="1.5" d="M0,-3.0v7 M-2.5,-0.5L0,-3.0L2.5,-0.5"/>
                </g>
                <g id="arrowLeft" xlink:href="#dirArrow" transform="rotate(270) translate(-36 17)" onmousedown="handlePan(-1,0)">
                  <use xlink:href="#rim" fill="#404040">
                        <set attributeName="fill" to="#808080" begin="arrowLeft.mouseover" end="arrowLeft.mouseout"/>
                  </use>
                  <path fill="none" stroke="white" stroke-width="1.5" d="M0,-3.0v7 M-2.5,-0.5L0,-3.0L2.5,-0.5"/>
                </g>
        </g>
        <svg viewBox="0 0 15 15" width="100%" height="30px" preserveAspectRatio="xMaxYMin meet">
         <g id="arrow_out" transform="scale(0.3 0.3)">
          <a xlink:href="classdenoptim_1_1graph_1_1_attachment_point_a929c8f781b4c999a5228f322a3bd901e_icgraph_org.svg" target="_base">
           <rect id="button" ry="5" rx="5" y="6" x="6" height="38" width="38"
                fill="#f2f5e9" fill-opacity="0.5" stroke="#606060" stroke-width="1.0"/>
           <path id="arrow"
             d="M 11.500037,31.436501 C 11.940474,20.09759 22.043105,11.32322 32.158766,21.979434 L 37.068811,17.246167 C 37.068811,17.246167 37.088388,32 37.088388,32 L 22.160133,31.978069 C 22.160133,31.978069 26.997745,27.140456 26.997745,27.140456 C 18.528582,18.264221 13.291696,25.230495 11.500037,31.436501 z"
             style="fill:#404040;"/>
          </a>
         </g>
        </svg>
</svg>
