<?xml version="1.0" encoding="UTF-8" standalone="no"?>
<!DOCTYPE svg PUBLIC "-//W3C//DTD SVG 1.1//EN"
 "http://www.w3.org/Graphics/SVG/1.1/DTD/svg11.dtd">
<!-- Generated by graphviz version 3.0.0 (20221109.1736)
 -->
<!-- Title: denoptim.graph.Template.getOuterAPFromInnerAP Pages: 1 -->
<!--zoomable 370 -->
<svg id="main" version="1.1" xmlns="http://www.w3.org/2000/svg" xmlns:xlink="http://www.w3.org/1999/xlink" xml:space="preserve" onload="init(evt)">
<style type="text/css"><![CDATA[
.edge:hover path { stroke: red; }
.edge:hover polygon { stroke: red; fill: red; }
]]></style>
<script type="text/javascript"><![CDATA[
var edges = document.getElementsByTagName('g');
if (edges && edges.length) {
  for (var i=0;i<edges.length;i++) {
    if (edges[i].id.substr(0,4)=='edge') {
      edges[i].setAttribute('class','edge');
    }
  }
}
]]></script>
        <defs>
                <circle id="rim" cx="0" cy="0" r="7"/>
                <circle id="rim2" cx="0" cy="0" r="3.5"/>
                <g id="zoomPlus">
                        <use xlink:href="#rim" fill="#404040">
                                <set attributeName="fill" to="#808080" begin="zoomplus.mouseover" end="zoomplus.mouseout"/>
                        </use>
                        <path d="M-4,0h8M0,-4v8" fill="none" stroke="white" stroke-width="1.5" pointer-events="none"/>
                </g>
                <g id="zoomMin">
                        <use xlink:href="#rim" fill="#404040">
                                <set attributeName="fill" to="#808080" begin="zoomminus.mouseover" end="zoomminus.mouseout"/>
                        </use>
                        <path d="M-4,0h8" fill="none" stroke="white" stroke-width="1.5" pointer-events="none"/>
                </g>
                <g id="dirArrow">
                        <path fill="none" stroke="white" stroke-width="1.5" d="M0,-3.0v7 M-2.5,-0.5L0,-3.0L2.5,-0.5"/>
                </g>
               <g id="resetDef">
                       <use xlink:href="#rim2" fill="#404040">
                               <set attributeName="fill" to="#808080" begin="reset.mouseover" end="reset.mouseout"/>
                       </use>
               </g>
        </defs>

<script type="text/javascript">
var viewWidth = 1660;
var viewHeight = 370;
var sectionId = 'dynsection-28';
</script>
<script xlink:href="svgpan.js"/>
<svg id="graph" class="graph">
<g id="viewport">
<title>denoptim.graph.Template.getOuterAPFromInnerAP</title>
<polygon fill="white" stroke="transparent" points="-4,4 -4,-366 1656,-366 1656,4 -4,4"/>
<!-- Node1 -->
<g id="node1" class="node">
<title>Node1</title>
<g id="a_node1"><a xlink:title=" ">
<polygon fill="#bfbfbf" stroke="black" points="1511,-166.5 1511,-196.5 1652,-196.5 1652,-166.5 1511,-166.5"/>
<text text-anchor="start" x="1519" y="-184.5" font-family="Helvetica,sans-Serif" font-size="10.00">denoptim.graph.Template.get</text>
<text text-anchor="middle" x="1581.5" y="-173.5" font-family="Helvetica,sans-Serif" font-size="10.00">OuterAPFromInnerAP</text>
</a>
</g>
</g>
<!-- Node2 -->
<g id="node2" class="node">
<title>Node2</title>
<g id="a_node2"><a xlink:href="classdenoptim_1_1graph_1_1_d_graph.html#a1cb3c55237933f7a4d32e002175b84bc" target="_top" xlink:title="Searches for the given pattern type and generated a new graph where each set of (clones of) vertexes ...">
<polygon fill="white" stroke="black" points="1326,-233.5 1326,-263.5 1475,-263.5 1475,-233.5 1326,-233.5"/>
<text text-anchor="start" x="1334" y="-251.5" font-family="Helvetica,sans-Serif" font-size="10.00">denoptim.graph.DGraph.embed</text>
<text text-anchor="middle" x="1400.5" y="-240.5" font-family="Helvetica,sans-Serif" font-size="10.00">PatternsInTemplates</text>
</a>
</g>
</g>
<!-- Node1&#45;&gt;Node2 -->
<g id="edge1" class="edge">
<title>Node1&#45;&gt;Node2</title>
<path fill="none" stroke="midnightblue" d="M1534.71,-200.32C1516.24,-207.75 1494.69,-216.24 1475,-223.5 1466.02,-226.81 1456.37,-230.21 1447.11,-233.39"/>
<polygon fill="midnightblue" stroke="midnightblue" points="1536.1,-203.53 1544.06,-196.54 1533.48,-197.04 1536.1,-203.53"/>
</g>
<!-- Node3 -->
<g id="node3" class="node">
<title>Node3</title>
<g id="a_node3"><a xlink:href="classdenoptim_1_1graph_1_1_attachment_point.html#aa1ae3c328e8ea24ead206b822daca7f7" target="_top" xlink:title="Gets the edge that is using this AP, or null if no edge is using this AP.">
<polygon fill="white" stroke="black" points="1327.5,-166.5 1327.5,-196.5 1473.5,-196.5 1473.5,-166.5 1327.5,-166.5"/>
<text text-anchor="start" x="1335.5" y="-184.5" font-family="Helvetica,sans-Serif" font-size="10.00">denoptim.graph.Attachment</text>
<text text-anchor="middle" x="1400.5" y="-173.5" font-family="Helvetica,sans-Serif" font-size="10.00">Point.getEdgeUserThroughout</text>
</a>
</g>
</g>
<!-- Node1&#45;&gt;Node3 -->
<g id="edge2" class="edge">
<title>Node1&#45;&gt;Node3</title>
<path fill="none" stroke="midnightblue" d="M1500.7,-181.5C1491.7,-181.5 1482.58,-181.5 1473.69,-181.5"/>
<polygon fill="midnightblue" stroke="midnightblue" points="1500.78,-185 1510.78,-181.5 1500.78,-178 1500.78,-185"/>
</g>
<!-- Node28 -->
<g id="node28" class="node">
<title>Node28</title>
<g id="a_node28"><a xlink:href="classdenoptim_1_1graph_1_1_attachment_point.html#a941d391d3ebf78b94cb0169ed9318b7a" target="_top" xlink:title="Check availability of this attachment point throughout the graph level, i.e., check also across the i...">
<polygon fill="white" stroke="black" points="1332,-94.5 1332,-124.5 1469,-124.5 1469,-94.5 1332,-94.5"/>
<text text-anchor="start" x="1340" y="-112.5" font-family="Helvetica,sans-Serif" font-size="10.00">denoptim.graph.Attachment</text>
<text text-anchor="middle" x="1400.5" y="-101.5" font-family="Helvetica,sans-Serif" font-size="10.00">Point.isAvailableThroughout</text>
</a>
</g>
</g>
<!-- Node1&#45;&gt;Node28 -->
<g id="edge33" class="edge">
<title>Node1&#45;&gt;Node28</title>
<path fill="none" stroke="midnightblue" d="M1533.69,-162.67C1504.16,-150.79 1466.53,-135.66 1438.97,-124.57"/>
<polygon fill="midnightblue" stroke="midnightblue" points="1532.39,-165.92 1542.98,-166.41 1535,-159.43 1532.39,-165.92"/>
</g>
<!-- Node3&#45;&gt;Node3 -->
<g id="edge4" class="edge">
<title>Node3&#45;&gt;Node3</title>
<path fill="none" stroke="midnightblue" d="M1432.48,-206.96C1428.51,-211.68 1417.85,-215 1400.5,-215 1372.02,-215 1361.57,-206.06 1369.13,-196.66"/>
<polygon fill="midnightblue" stroke="midnightblue" points="1435.96,-206.43 1431.87,-196.66 1428.97,-206.85 1435.96,-206.43"/>
</g>
<!-- Node4 -->
<g id="node4" class="node">
<title>Node4</title>
<g id="a_node4"><a xlink:href="classdenoptim_1_1ga_1_1_graph_operations.html#ac98a7de3b7bbb99fc18af1dd15bc5f87" target="_top" xlink:title="Inserts a vertex in between two connected vertexes that are identified by the one vertex holding the ...">
<polygon fill="white" stroke="black" points="1096,-197 1096,-216 1290,-216 1290,-197 1096,-197"/>
<text text-anchor="middle" x="1193" y="-204" font-family="Helvetica,sans-Serif" font-size="10.00">denoptim.ga.GraphOperations.extendLink</text>
</a>
</g>
</g>
<!-- Node3&#45;&gt;Node4 -->
<g id="edge3" class="edge">
<title>Node3&#45;&gt;Node4</title>
<path fill="none" stroke="midnightblue" d="M1317.19,-191.51C1302.38,-193.32 1286.98,-195.19 1272.28,-196.98"/>
<polygon fill="midnightblue" stroke="midnightblue" points="1317.83,-194.96 1327.34,-190.28 1316.99,-188.01 1317.83,-194.96"/>
</g>
<!-- Node5 -->
<g id="node5" class="node">
<title>Node5</title>
<g id="a_node5"><a xlink:href="classdenoptim_1_1graph_1_1_attachment_point.html#adfc2840f3e5126d847c8d800082f8958" target="_top" xlink:title="Gets the attachment point (AP) that is connected to this AP via the edge user or in any edge user tha...">
<polygon fill="white" stroke="black" points="1120,-147.5 1120,-177.5 1266,-177.5 1266,-147.5 1120,-147.5"/>
<text text-anchor="start" x="1128" y="-165.5" font-family="Helvetica,sans-Serif" font-size="10.00">denoptim.graph.Attachment</text>
<text text-anchor="middle" x="1193" y="-154.5" font-family="Helvetica,sans-Serif" font-size="10.00">Point.getLinkedAPThroughout</text>
</a>
</g>
</g>
<!-- Node3&#45;&gt;Node5 -->
<g id="edge5" class="edge">
<title>Node3&#45;&gt;Node5</title>
<path fill="none" stroke="midnightblue" d="M1317.01,-173.87C1300.24,-172.32 1282.72,-170.7 1266.34,-169.19"/>
<polygon fill="midnightblue" stroke="midnightblue" points="1317.06,-177.39 1327.34,-174.83 1317.7,-170.42 1317.06,-177.39"/>
</g>
<!-- Node27 -->
<g id="node27" class="node">
<title>Node27</title>
<g id="a_node27"><a xlink:href="classdenoptim_1_1graph_1_1_attachment_point.html#a817a26666da5405c5e4d876729bfe549" target="_top" xlink:title="Checks the role of this AP in the user or in any user that might be external to the template embeddin...">
<polygon fill="white" stroke="black" points="1122,-235.5 1122,-265.5 1264,-265.5 1264,-235.5 1122,-235.5"/>
<text text-anchor="start" x="1130" y="-253.5" font-family="Helvetica,sans-Serif" font-size="10.00">denoptim.graph.Attachment</text>
<text text-anchor="middle" x="1193" y="-242.5" font-family="Helvetica,sans-Serif" font-size="10.00">Point.isSrcInUserThroughout</text>
</a>
</g>
</g>
<!-- Node3&#45;&gt;Node27 -->
<g id="edge32" class="edge">
<title>Node3&#45;&gt;Node27</title>
<path fill="none" stroke="midnightblue" d="M1355.98,-200.47C1336.08,-208.76 1312.07,-218.22 1290,-225.5 1279.29,-229.03 1267.77,-232.39 1256.56,-235.44"/>
<polygon fill="midnightblue" stroke="midnightblue" points="1357.53,-203.61 1365.39,-196.51 1354.82,-197.16 1357.53,-203.61"/>
</g>
<!-- Node6 -->
<g id="node6" class="node">
<title>Node6</title>
<g id="a_node6"><a xlink:href="classdenoptim_1_1graph_1_1_d_graph.html#ad38e8849839cb63835e727530ca124d9" target="_top" xlink:title="Checks if the Vertexs that are attached to two given AttachmentPoints apA and apB satisfy these condi...">
<polygon fill="white" stroke="black" points="906,-302.5 906,-332.5 1047,-332.5 1047,-302.5 906,-302.5"/>
<text text-anchor="start" x="914" y="-320.5" font-family="Helvetica,sans-Serif" font-size="10.00">denoptim.graph.DGraph.are</text>
<text text-anchor="middle" x="976.5" y="-309.5" font-family="Helvetica,sans-Serif" font-size="10.00">ApsUsedBySymmetricUsers</text>
</a>
</g>
</g>
<!-- Node5&#45;&gt;Node6 -->
<g id="edge6" class="edge">
<title>Node5&#45;&gt;Node6</title>
<path fill="none" stroke="midnightblue" d="M1110.66,-177.24C1105.36,-180.09 1100.4,-183.48 1096,-187.5 1061.12,-219.35 1093.35,-254.04 1060,-287.5 1053.87,-293.65 1046.38,-298.55 1038.43,-302.45"/>
<polygon fill="midnightblue" stroke="midnightblue" points="1112.28,-180.34 1119.84,-172.92 1109.3,-174.01 1112.28,-180.34"/>
</g>
<!-- Node10 -->
<g id="node10" class="node">
<title>Node10</title>
<g id="a_node10"><a xlink:href="classdenoptim_1_1graph_1_1_d_graph.html#aa46fb7d3a38e4c4401723a75f7c8d764" target="_top" xlink:title=" ">
<polygon fill="white" stroke="black" points="678,-263.5 678,-293.5 829,-293.5 829,-263.5 678,-263.5"/>
<text text-anchor="start" x="686" y="-281.5" font-family="Helvetica,sans-Serif" font-size="10.00">denoptim.graph.DGraph.find</text>
<text text-anchor="middle" x="753.5" y="-270.5" font-family="Helvetica,sans-Serif" font-size="10.00">SymmetrySetsOfChildVertexes</text>
</a>
</g>
</g>
<!-- Node5&#45;&gt;Node10 -->
<g id="edge17" class="edge">
<title>Node5&#45;&gt;Node10</title>
<path fill="none" stroke="midnightblue" d="M1110.31,-178.48C1105.23,-181.06 1100.4,-184.04 1096,-187.5 1069.43,-208.39 1088.31,-236.03 1060,-254.5 1023.3,-278.45 907.31,-281.51 829.28,-280.65"/>
<polygon fill="midnightblue" stroke="midnightblue" points="1111.99,-181.56 1119.69,-174.28 1109.13,-175.18 1111.99,-181.56"/>
</g>
<!-- Node12 -->
<g id="node12" class="node">
<title>Node12</title>
<g id="a_node12"><a xlink:href="classdenoptim_1_1fragspace_1_1_a_p_map_finder.html#a5868844d747acb9bd5331c760a24ff09" target="_top" xlink:title="Compares the AttachmentPoint of two lists searching for all the APs of the second list that are &quot;comp...">
<polygon fill="white" stroke="black" points="893,-49.5 893,-79.5 1060,-79.5 1060,-49.5 893,-49.5"/>
<text text-anchor="start" x="901" y="-67.5" font-family="Helvetica,sans-Serif" font-size="10.00">denoptim.fragspace.APMap</text>
<text text-anchor="middle" x="976.5" y="-56.5" font-family="Helvetica,sans-Serif" font-size="10.00">Finder.findMappingCompatibileAPs</text>
</a>
</g>
</g>
<!-- Node5&#45;&gt;Node12 -->
<g id="edge13" class="edge">
<title>Node5&#45;&gt;Node12</title>
<path fill="none" stroke="midnightblue" d="M1150.63,-142.91C1133.44,-134.39 1113.47,-123.96 1096,-113.5 1079.29,-103.49 1077.58,-96.89 1060,-88.5 1053,-85.16 1045.44,-82.19 1037.83,-79.57"/>
<polygon fill="midnightblue" stroke="midnightblue" points="1149.33,-146.18 1159.85,-147.44 1152.42,-139.89 1149.33,-146.18"/>
</g>
<!-- Node16 -->
<g id="node16" class="node">
<title>Node16</title>
<g id="a_node16"><a xlink:href="classdenoptim_1_1graph_1_1_vertex.html#a2e2ffd927172ca1a4b1fce14c2c347b0" target="_top" xlink:title="Gets attachment points that are used by capping groups throughout the graph levels,...">
<polygon fill="white" stroke="black" points="912.5,-98.5 912.5,-128.5 1040.5,-128.5 1040.5,-98.5 912.5,-98.5"/>
<text text-anchor="start" x="920.5" y="-116.5" font-family="Helvetica,sans-Serif" font-size="10.00">denoptim.graph.Vertex.get</text>
<text text-anchor="middle" x="976.5" y="-105.5" font-family="Helvetica,sans-Serif" font-size="10.00">CappedAPsThroughout</text>
</a>
</g>
</g>
<!-- Node5&#45;&gt;Node16 -->
<g id="edge18" class="edge">
<title>Node5&#45;&gt;Node16</title>
<path fill="none" stroke="midnightblue" d="M1116.13,-145.17C1091.42,-139.52 1064.29,-133.33 1040.62,-127.92"/>
<polygon fill="midnightblue" stroke="midnightblue" points="1115.66,-148.65 1126.19,-147.47 1117.22,-141.83 1115.66,-148.65"/>
</g>
<!-- Node22 -->
<g id="node22" class="node">
<title>Node22</title>
<g id="a_node22"><a xlink:href="classdenoptim_1_1graph_1_1_attachment_point.html#aa3f954b074d8d8deef518821f13dcd24" target="_top" xlink:title="Checks if this and another APs are rooted on atoms that are bonded in any way other than a possible c...">
<polygon fill="white" stroke="black" points="905.5,-214.5 905.5,-244.5 1047.5,-244.5 1047.5,-214.5 905.5,-214.5"/>
<text text-anchor="start" x="913.5" y="-232.5" font-family="Helvetica,sans-Serif" font-size="10.00">denoptim.graph.Attachment</text>
<text text-anchor="middle" x="976.5" y="-221.5" font-family="Helvetica,sans-Serif" font-size="10.00">Point.hasConnectedSrcAtom</text>
</a>
</g>
</g>
<!-- Node5&#45;&gt;Node22 -->
<g id="edge24" class="edge">
<title>Node5&#45;&gt;Node22</title>
<path fill="none" stroke="midnightblue" d="M1117.48,-180.43C1110.17,-182.63 1102.9,-185 1096,-187.5 1079.37,-193.53 1076.51,-198.14 1060,-204.5 1050.78,-208.05 1040.83,-211.43 1031.14,-214.5"/>
<polygon fill="midnightblue" stroke="midnightblue" points="1118.83,-183.69 1127.46,-177.54 1116.88,-176.96 1118.83,-183.69"/>
</g>
<!-- Node26 -->
<g id="node26" class="node">
<title>Node26</title>
<g id="a_node26"><a xlink:href="classdenoptim_1_1graph_1_1_d_graph.html#a357b4099599e47ae47102123550771f8" target="_top" xlink:title="Remove a given vertex belonging to this graph and re&#45;connects the resulting graph branches as much as...">
<polygon fill="white" stroke="black" points="900.5,-147.5 900.5,-177.5 1052.5,-177.5 1052.5,-147.5 900.5,-147.5"/>
<text text-anchor="start" x="908.5" y="-165.5" font-family="Helvetica,sans-Serif" font-size="10.00">denoptim.graph.DGraph.remove</text>
<text text-anchor="middle" x="976.5" y="-154.5" font-family="Helvetica,sans-Serif" font-size="10.00">SingleVertexAndWeld</text>
</a>
</g>
</g>
<!-- Node5&#45;&gt;Node26 -->
<g id="edge29" class="edge">
<title>Node5&#45;&gt;Node26</title>
<path fill="none" stroke="midnightblue" d="M1109.94,-162.5C1091.1,-162.5 1071.16,-162.5 1052.63,-162.5"/>
<polygon fill="midnightblue" stroke="midnightblue" points="1109.98,-166 1119.98,-162.5 1109.98,-159 1109.98,-166"/>
</g>
<!-- Node7 -->
<g id="node7" class="node">
<title>Node7</title>
<g id="a_node7"><a xlink:href="classdenoptim_1_1graph_1_1_d_graph.html#aff06be9fc2508e591352e7ae46260721" target="_top" xlink:title="Tries to determine the set of symmetric vertices in this graph based on finding compatible Vertexes t...">
<polygon fill="white" stroke="black" points="455.5,-307.5 455.5,-337.5 602.5,-337.5 602.5,-307.5 455.5,-307.5"/>
<text text-anchor="start" x="463.5" y="-325.5" font-family="Helvetica,sans-Serif" font-size="10.00">denoptim.graph.DGraph.detect</text>
<text text-anchor="middle" x="529" y="-314.5" font-family="Helvetica,sans-Serif" font-size="10.00">SymVertexSets</text>
</a>
</g>
</g>
<!-- Node6&#45;&gt;Node7 -->
<g id="edge7" class="edge">
<title>Node6&#45;&gt;Node7</title>
<path fill="none" stroke="midnightblue" d="M895.73,-318.4C812.55,-319.33 683.31,-320.78 602.82,-321.68"/>
<polygon fill="midnightblue" stroke="midnightblue" points="895.93,-321.89 905.89,-318.28 895.85,-314.89 895.93,-321.89"/>
</g>
<!-- Node6&#45;&gt;Node10 -->
<g id="edge10" class="edge">
<title>Node6&#45;&gt;Node10</title>
<path fill="none" stroke="midnightblue" d="M896,-303.47C874.2,-299.62 850.64,-295.47 829.13,-291.67"/>
<polygon fill="midnightblue" stroke="midnightblue" points="895.42,-306.92 905.88,-305.21 896.64,-300.03 895.42,-306.92"/>
</g>
<!-- Node8 -->
<g id="node8" class="node">
<title>Node8</title>
<g id="a_node8"><a xlink:href="classdenoptim_1_1ga_1_1_e_a_utils.html#a18eb5d0ba6772e9116176ef6ca9f84fc" target="_top" xlink:title="Converts a molecule into a DGraph by fragmentation and re&#45;assembling of the fragments.">
<polygon fill="white" stroke="black" points="235,-331.5 235,-361.5 389,-361.5 389,-331.5 235,-331.5"/>
<text text-anchor="start" x="243" y="-349.5" font-family="Helvetica,sans-Serif" font-size="10.00">denoptim.ga.EAUtils.make</text>
<text text-anchor="middle" x="312" y="-338.5" font-family="Helvetica,sans-Serif" font-size="10.00">GraphFromFragmentationOfMol</text>
</a>
</g>
</g>
<!-- Node7&#45;&gt;Node8 -->
<g id="edge8" class="edge">
<title>Node7&#45;&gt;Node8</title>
<path fill="none" stroke="midnightblue" d="M445.08,-331.76C426.64,-333.81 407.17,-335.99 389.02,-338.01"/>
<polygon fill="midnightblue" stroke="midnightblue" points="445.66,-335.21 455.21,-330.63 444.88,-328.26 445.66,-335.21"/>
</g>
<!-- Node9 -->
<g id="node9" class="node">
<title>Node9</title>
<g id="a_node9"><a xlink:href="classdenoptim_1_1graph_1_1_d_graph_test.html#a05b87ffb43b9710fcea83b0777654e27" target="_top" xlink:title=" ">
<polygon fill="white" stroke="black" points="234,-282.5 234,-312.5 390,-312.5 390,-282.5 234,-282.5"/>
<text text-anchor="start" x="242" y="-300.5" font-family="Helvetica,sans-Serif" font-size="10.00">denoptim.graph.DGraphTest.test</text>
<text text-anchor="middle" x="312" y="-289.5" font-family="Helvetica,sans-Serif" font-size="10.00">DetectSymVertexSets</text>
</a>
</g>
</g>
<!-- Node7&#45;&gt;Node9 -->
<g id="edge9" class="edge">
<title>Node7&#45;&gt;Node9</title>
<path fill="none" stroke="midnightblue" d="M445.26,-312.88C427.14,-310.77 408.02,-308.55 390.13,-306.47"/>
<polygon fill="midnightblue" stroke="midnightblue" points="444.87,-316.36 455.21,-314.04 445.68,-309.4 444.87,-316.36"/>
</g>
<!-- Node10&#45;&gt;Node7 -->
<g id="edge11" class="edge">
<title>Node10&#45;&gt;Node7</title>
<path fill="none" stroke="midnightblue" d="M667.72,-295.27C646.26,-299.51 623.42,-304.03 602.62,-308.14"/>
<polygon fill="midnightblue" stroke="midnightblue" points="668.66,-298.65 677.79,-293.27 667.3,-291.78 668.66,-298.65"/>
</g>
<!-- Node11 -->
<g id="node11" class="node">
<title>Node11</title>
<g id="a_node11"><a xlink:href="classdenoptim_1_1graph_1_1_d_graph_test.html#ac02ab6b199aee9280e88a14d0026a175" target="_top" xlink:title=" ">
<polygon fill="white" stroke="black" points="444,-258.5 444,-288.5 614,-288.5 614,-258.5 444,-258.5"/>
<text text-anchor="start" x="452" y="-276.5" font-family="Helvetica,sans-Serif" font-size="10.00">denoptim.graph.DGraphTest.test</text>
<text text-anchor="middle" x="529" y="-265.5" font-family="Helvetica,sans-Serif" font-size="10.00">FindSymmetrySetsOfChildVertexes</text>
</a>
</g>
</g>
<!-- Node10&#45;&gt;Node11 -->
<g id="edge12" class="edge">
<title>Node10&#45;&gt;Node11</title>
<path fill="none" stroke="midnightblue" d="M667.59,-276.59C650.06,-276.2 631.6,-275.78 614.1,-275.39"/>
<polygon fill="midnightblue" stroke="midnightblue" points="667.72,-280.1 677.79,-276.82 667.87,-273.1 667.72,-280.1"/>
</g>
<!-- Node13 -->
<g id="node13" class="node">
<title>Node13</title>
<g id="a_node13"><a xlink:href="classdenoptim_1_1fragspace_1_1_a_p_map_finder.html#ae5c8afa4b7defd6ce35df0fa1c5facf2" target="_top" xlink:title="Searches for mappings between the AttachmentPoints on the two lists.">
<polygon fill="white" stroke="black" points="685.5,-49.5 685.5,-79.5 821.5,-79.5 821.5,-49.5 685.5,-49.5"/>
<text text-anchor="start" x="693.5" y="-67.5" font-family="Helvetica,sans-Serif" font-size="10.00">denoptim.fragspace.APMap</text>
<text text-anchor="middle" x="753.5" y="-56.5" font-family="Helvetica,sans-Serif" font-size="10.00">Finder.findAllMappings</text>
</a>
</g>
</g>
<!-- Node12&#45;&gt;Node13 -->
<g id="edge14" class="edge">
<title>Node12&#45;&gt;Node13</title>
<path fill="none" stroke="midnightblue" d="M882.87,-64.5C862.28,-64.5 840.85,-64.5 821.52,-64.5"/>
<polygon fill="midnightblue" stroke="midnightblue" points="882.89,-68 892.89,-64.5 882.89,-61 882.89,-68"/>
</g>
<!-- Node15 -->
<g id="node15" class="node">
<title>Node15</title>
<g id="a_node15"><a xlink:href="classdenoptim_1_1fragspace_1_1_a_p_map_finder_test.html#a4908ea837bed3714cd5d17ba4e3954fa" target="_top" xlink:title=" ">
<polygon fill="white" stroke="black" points="650,-0.5 650,-30.5 857,-30.5 857,-0.5 650,-0.5"/>
<text text-anchor="start" x="658" y="-18.5" font-family="Helvetica,sans-Serif" font-size="10.00">denoptim.fragspace.APMap</text>
<text text-anchor="middle" x="753.5" y="-7.5" font-family="Helvetica,sans-Serif" font-size="10.00">FinderTest.testFindMappingCompatibileAPs</text>
</a>
</g>
</g>
<!-- Node12&#45;&gt;Node15 -->
<g id="edge16" class="edge">
<title>Node12&#45;&gt;Node15</title>
<path fill="none" stroke="midnightblue" d="M897.66,-47.24C873.04,-41.78 846.03,-35.79 822.18,-30.51"/>
<polygon fill="midnightblue" stroke="midnightblue" points="897.17,-50.72 907.69,-49.47 898.69,-43.88 897.17,-50.72"/>
</g>
<!-- Node14 -->
<g id="node14" class="node">
<title>Node14</title>
<g id="a_node14"><a xlink:href="classdenoptim_1_1fragspace_1_1_a_p_map_finder.html#ada1b2c2155faeefced1d9a64f82a6668" target="_top" xlink:title="Constructor that launches the search for a mapping between the AttachmentPoints on the first vertex t...">
<polygon fill="white" stroke="black" points="461,-36.5 461,-66.5 597,-66.5 597,-36.5 461,-36.5"/>
<text text-anchor="start" x="469" y="-54.5" font-family="Helvetica,sans-Serif" font-size="10.00">denoptim.fragspace.APMap</text>
<text text-anchor="middle" x="529" y="-43.5" font-family="Helvetica,sans-Serif" font-size="10.00">Finder.APMapFinder</text>
</a>
</g>
</g>
<!-- Node13&#45;&gt;Node14 -->
<g id="edge15" class="edge">
<title>Node13&#45;&gt;Node14</title>
<path fill="none" stroke="midnightblue" d="M675.13,-59.98C649.78,-58.5 621.85,-56.87 597.31,-55.43"/>
<polygon fill="midnightblue" stroke="midnightblue" points="675.25,-63.49 685.44,-60.58 675.66,-56.5 675.25,-63.49"/>
</g>
<!-- Node17 -->
<g id="node17" class="node">
<title>Node17</title>
<g id="a_node17"><a xlink:href="classdenoptim_1_1graph_1_1_vertex.html#ab96b76e89a6ca31a68c9f43466f9c5a9" target="_top" xlink:title="Counts the number of attachment points that are used by BBType#CAP vertex.">
<polygon fill="white" stroke="black" points="685,-98.5 685,-128.5 822,-128.5 822,-98.5 685,-98.5"/>
<text text-anchor="start" x="693" y="-116.5" font-family="Helvetica,sans-Serif" font-size="10.00">denoptim.graph.Vertex.get</text>
<text text-anchor="middle" x="753.5" y="-105.5" font-family="Helvetica,sans-Serif" font-size="10.00">CappedAPCountThroughout</text>
</a>
</g>
</g>
<!-- Node16&#45;&gt;Node17 -->
<g id="edge19" class="edge">
<title>Node16&#45;&gt;Node17</title>
<path fill="none" stroke="midnightblue" d="M902.36,-113.5C876.53,-113.5 847.62,-113.5 822.26,-113.5"/>
<polygon fill="midnightblue" stroke="midnightblue" points="902.47,-117 912.47,-113.5 902.47,-110 902.47,-117"/>
</g>
<!-- Node18 -->
<g id="node18" class="node">
<title>Node18</title>
<g id="a_node18"><a xlink:href="classdenoptim_1_1graph_1_1_vertex.html#a5c6af6108f5caedf3641ef2ed383f954" target="_top" xlink:title="Returns the list of mutation types.">
<polygon fill="white" stroke="black" points="465,-85.5 465,-115.5 593,-115.5 593,-85.5 465,-85.5"/>
<text text-anchor="start" x="473" y="-103.5" font-family="Helvetica,sans-Serif" font-size="10.00">denoptim.graph.Vertex.get</text>
<text text-anchor="middle" x="529" y="-92.5" font-family="Helvetica,sans-Serif" font-size="10.00">MutationTypes</text>
</a>
</g>
</g>
<!-- Node17&#45;&gt;Node18 -->
<g id="edge20" class="edge">
<title>Node17&#45;&gt;Node18</title>
<path fill="none" stroke="midnightblue" d="M674.76,-108.96C648.07,-107.4 618.55,-105.67 593.16,-104.19"/>
<polygon fill="midnightblue" stroke="midnightblue" points="674.65,-112.46 684.84,-109.55 675.06,-105.47 674.65,-112.46"/>
</g>
<!-- Node19 -->
<g id="node19" class="node">
<title>Node19</title>
<g id="a_node19"><a xlink:href="classdenoptim_1_1graph_1_1_d_graph.html#af404e25092eabcdfbe69b5d7204e9483" target="_top" xlink:title="Mutates the graph by removing the chain where a given vertex is located up to the first branching (i....">
<polygon fill="white" stroke="black" points="453,-134.5 453,-164.5 605,-164.5 605,-134.5 453,-134.5"/>
<text text-anchor="start" x="461" y="-152.5" font-family="Helvetica,sans-Serif" font-size="10.00">denoptim.graph.DGraph.remove</text>
<text text-anchor="middle" x="529" y="-141.5" font-family="Helvetica,sans-Serif" font-size="10.00">ChainUpToBranching</text>
</a>
</g>
</g>
<!-- Node17&#45;&gt;Node19 -->
<g id="edge21" class="edge">
<title>Node17&#45;&gt;Node19</title>
<path fill="none" stroke="midnightblue" d="M674.93,-126.05C652.29,-129.71 627.59,-133.71 605.11,-137.35"/>
<polygon fill="midnightblue" stroke="midnightblue" points="675.52,-129.5 684.84,-124.45 674.41,-122.59 675.52,-129.5"/>
</g>
<!-- Node20 -->
<g id="node20" class="node">
<title>Node20</title>
<g id="a_node20"><a xlink:href="classdenoptim_1_1ga_1_1_graph_operations.html#afd659e74a056d1a6ae6f52513fee0be3" target="_top" xlink:title="Deletes the given vertex and all other vertexes that are not connected to more than 2 non&#45;capping gro...">
<polygon fill="white" stroke="black" points="225.5,-134.5 225.5,-164.5 398.5,-164.5 398.5,-134.5 225.5,-134.5"/>
<text text-anchor="start" x="233.5" y="-152.5" font-family="Helvetica,sans-Serif" font-size="10.00">denoptim.ga.GraphOperations.delete</text>
<text text-anchor="middle" x="312" y="-141.5" font-family="Helvetica,sans-Serif" font-size="10.00">Chain</text>
</a>
</g>
</g>
<!-- Node19&#45;&gt;Node20 -->
<g id="edge22" class="edge">
<title>Node19&#45;&gt;Node20</title>
<path fill="none" stroke="midnightblue" d="M442.46,-149.5C428.1,-149.5 413.19,-149.5 398.82,-149.5"/>
<polygon fill="midnightblue" stroke="midnightblue" points="442.8,-153 452.8,-149.5 442.8,-146 442.8,-153"/>
</g>
<!-- Node21 -->
<g id="node21" class="node">
<title>Node21</title>
<g id="a_node21"><a xlink:href="classdenoptim_1_1ga_1_1_graph_operations.html#a0c851972015fbb4b2a317b053b8b81d9" target="_top" xlink:title="Mutates the given vertex according to the given mutation type, if possible.">
<polygon fill="white" stroke="black" points="0,-156.5 0,-186.5 180,-186.5 180,-156.5 0,-156.5"/>
<text text-anchor="start" x="8" y="-174.5" font-family="Helvetica,sans-Serif" font-size="10.00">denoptim.ga.GraphOperations.perform</text>
<text text-anchor="middle" x="90" y="-163.5" font-family="Helvetica,sans-Serif" font-size="10.00">Mutation</text>
</a>
</g>
</g>
<!-- Node20&#45;&gt;Node21 -->
<g id="edge23" class="edge">
<title>Node20&#45;&gt;Node21</title>
<path fill="none" stroke="midnightblue" d="M215.14,-159.09C203.49,-160.25 191.63,-161.44 180.08,-162.59"/>
<polygon fill="midnightblue" stroke="midnightblue" points="215.71,-162.55 225.31,-158.07 215.01,-155.58 215.71,-162.55"/>
</g>
<!-- Node23 -->
<g id="node23" class="node">
<title>Node23</title>
<g id="a_node23"><a xlink:href="classdenoptim_1_1graph_1_1_d_graph.html#a00209ca8b4a9623b41e7d9e1e62f69ec" target="_top" xlink:title="Remove a given vertex belonging to this graph and re&#45;connects the resulting graph branches as much as...">
<polygon fill="white" stroke="black" points="677.5,-165.5 677.5,-195.5 829.5,-195.5 829.5,-165.5 677.5,-165.5"/>
<text text-anchor="start" x="685.5" y="-183.5" font-family="Helvetica,sans-Serif" font-size="10.00">denoptim.graph.DGraph.remove</text>
<text text-anchor="middle" x="753.5" y="-172.5" font-family="Helvetica,sans-Serif" font-size="10.00">VertexAndWeld</text>
</a>
</g>
</g>
<!-- Node22&#45;&gt;Node23 -->
<g id="edge25" class="edge">
<title>Node22&#45;&gt;Node23</title>
<path fill="none" stroke="midnightblue" d="M897.66,-212.24C873.04,-206.78 846.03,-200.79 822.18,-195.51"/>
<polygon fill="midnightblue" stroke="midnightblue" points="897.17,-215.72 907.69,-214.47 898.69,-208.88 897.17,-215.72"/>
</g>
<!-- Node25 -->
<g id="node25" class="node">
<title>Node25</title>
<g id="a_node25"><a xlink:href="classdenoptim_1_1graph_1_1_attachment_point_test.html#af88d30ce68477984fe6179325d1540b2" target="_top" xlink:title=" ">
<polygon fill="white" stroke="black" points="663.5,-214.5 663.5,-244.5 843.5,-244.5 843.5,-214.5 663.5,-214.5"/>
<text text-anchor="start" x="671.5" y="-232.5" font-family="Helvetica,sans-Serif" font-size="10.00">denoptim.graph.Attachment</text>
<text text-anchor="middle" x="753.5" y="-221.5" font-family="Helvetica,sans-Serif" font-size="10.00">PointTest.testHasConnectedSrcAtom</text>
</a>
</g>
</g>
<!-- Node22&#45;&gt;Node25 -->
<g id="edge28" class="edge">
<title>Node22&#45;&gt;Node25</title>
<path fill="none" stroke="midnightblue" d="M895.01,-229.5C878.3,-229.5 860.61,-229.5 843.61,-229.5"/>
<polygon fill="midnightblue" stroke="midnightblue" points="895.27,-233 905.27,-229.5 895.27,-226 895.27,-233"/>
</g>
<!-- Node24 -->
<g id="node24" class="node">
<title>Node24</title>
<g id="a_node24"><a xlink:href="classdenoptim_1_1ga_1_1_graph_operations.html#ab3adb5141a8941bf23916bb516faee63" target="_top" xlink:title="Removes a vertex while merging as many of the child branches into the parent vertex.">
<polygon fill="white" stroke="black" points="216,-184 216,-203 408,-203 408,-184 216,-184"/>
<text text-anchor="middle" x="312" y="-191" font-family="Helvetica,sans-Serif" font-size="10.00">denoptim.ga.GraphOperations.deleteLink</text>
</a>
</g>
</g>
<!-- Node23&#45;&gt;Node24 -->
<g id="edge26" class="edge">
<title>Node23&#45;&gt;Node24</title>
<path fill="none" stroke="midnightblue" d="M667.18,-183.02C592.84,-185.22 485.16,-188.41 408.07,-190.69"/>
<polygon fill="midnightblue" stroke="midnightblue" points="667.55,-186.51 677.45,-182.72 667.35,-179.52 667.55,-186.51"/>
</g>
<!-- Node24&#45;&gt;Node21 -->
<g id="edge27" class="edge">
<title>Node24&#45;&gt;Node21</title>
<path fill="none" stroke="midnightblue" d="M205.75,-182.97C197.17,-182.12 188.56,-181.26 180.11,-180.41"/>
<polygon fill="midnightblue" stroke="midnightblue" points="205.49,-186.47 215.78,-183.98 206.18,-179.5 205.49,-186.47"/>
</g>
<!-- Node26&#45;&gt;Node23 -->
<g id="edge31" class="edge">
<title>Node26&#45;&gt;Node23</title>
<path fill="none" stroke="midnightblue" d="M890.37,-169.43C870.41,-171.06 849.29,-172.78 829.8,-174.37"/>
<polygon fill="midnightblue" stroke="midnightblue" points="890.69,-172.92 900.37,-168.62 890.12,-165.94 890.69,-172.92"/>
</g>
<!-- Node26&#45;&gt;Node26 -->
<g id="edge30" class="edge">
<title>Node26&#45;&gt;Node26</title>
<path fill="none" stroke="midnightblue" d="M1014.88,-187.96C1010.12,-192.68 997.32,-196 976.5,-196 942.33,-196 929.78,-187.06 938.86,-177.66"/>
<polygon fill="midnightblue" stroke="midnightblue" points="1018.35,-187.38 1014.14,-177.66 1011.37,-187.88 1018.35,-187.38"/>
</g>
<!-- Node28&#45;&gt;Node12 -->
<g id="edge34" class="edge">
<title>Node28&#45;&gt;Node12</title>
<path fill="none" stroke="midnightblue" d="M1321.48,-101.18C1247.3,-93.27 1136.1,-81.41 1060.36,-73.34"/>
<polygon fill="midnightblue" stroke="midnightblue" points="1321.38,-104.69 1331.7,-102.27 1322.13,-97.73 1321.38,-104.69"/>
</g>
<!-- Node28&#45;&gt;Node28 -->
<g id="edge35" class="edge">
<title>Node28&#45;&gt;Node28</title>
<path fill="none" stroke="midnightblue" d="M1432.48,-134.96C1428.51,-139.68 1417.85,-143 1400.5,-143 1372.02,-143 1361.57,-134.06 1369.13,-124.66"/>
<polygon fill="midnightblue" stroke="midnightblue" points="1435.96,-134.43 1431.87,-124.66 1428.97,-134.85 1435.96,-134.43"/>
</g>
</g>
</svg>
        <g id="navigator" transform="translate(0 0)" fill="#404254">
                <rect fill="#f2f5e9" fill-opacity="0.5" stroke="#606060" stroke-width=".5" x="0" y="0" width="60" height="60"/>
                <use id="zoomplus" xlink:href="#zoomPlus" x="17" y="9" onmousedown="handleZoom(evt,'in')"/>
                <use id="zoomminus" xlink:href="#zoomMin" x="42" y="9" onmousedown="handleZoom(evt,'out')"/>
                <use id="reset" xlink:href="#resetDef" x="30" y="36" onmousedown="handleReset()"/>
                <g id="arrowUp" xlink:href="#dirArrow" transform="translate(30 24)" onmousedown="handlePan(0,-1)">
                  <use xlink:href="#rim" fill="#404040">
                        <set attributeName="fill" to="#808080" begin="arrowUp.mouseover" end="arrowUp.mouseout"/>
                  </use>
                  <path fill="none" stroke="white" stroke-width="1.5" d="M0,-3.0v7 M-2.5,-0.5L0,-3.0L2.5,-0.5"/>
                </g>
                <g id="arrowRight" xlink:href="#dirArrow" transform="rotate(90) translate(36 -43)" onmousedown="handlePan(1,0)">
                  <use xlink:href="#rim" fill="#404040">
                        <set attributeName="fill" to="#808080" begin="arrowRight.mouseover" end="arrowRight.mouseout"/>
                  </use>
                  <path fill="none" stroke="white" stroke-width="1.5" d="M0,-3.0v7 M-2.5,-0.5L0,-3.0L2.5,-0.5"/>
                </g>
                <g id="arrowDown" xlink:href="#dirArrow" transform="rotate(180) translate(-30 -48)" onmousedown="handlePan(0,1)">
                  <use xlink:href="#rim" fill="#404040">
                        <set attributeName="fill" to="#808080" begin="arrowDown.mouseover" end="arrowDown.mouseout"/>
                  </use>
                  <path fill="none" stroke="white" stroke-width="1.5" d="M0,-3.0v7 M-2.5,-0.5L0,-3.0L2.5,-0.5"/>
                </g>
                <g id="arrowLeft" xlink:href="#dirArrow" transform="rotate(270) translate(-36 17)" onmousedown="handlePan(-1,0)">
                  <use xlink:href="#rim" fill="#404040">
                        <set attributeName="fill" to="#808080" begin="arrowLeft.mouseover" end="arrowLeft.mouseout"/>
                  </use>
                  <path fill="none" stroke="white" stroke-width="1.5" d="M0,-3.0v7 M-2.5,-0.5L0,-3.0L2.5,-0.5"/>
                </g>
        </g>
        <svg viewBox="0 0 15 15" width="100%" height="30px" preserveAspectRatio="xMaxYMin meet">
         <g id="arrow_out" transform="scale(0.3 0.3)">
          <a xlink:href="classdenoptim_1_1graph_1_1_template_aca9a03a1d6e2fd5de8f859f18996ec62_icgraph_org.svg" target="_base">
           <rect id="button" ry="5" rx="5" y="6" x="6" height="38" width="38"
                fill="#f2f5e9" fill-opacity="0.5" stroke="#606060" stroke-width="1.0"/>
           <path id="arrow"
             d="M 11.500037,31.436501 C 11.940474,20.09759 22.043105,11.32322 32.158766,21.979434 L 37.068811,17.246167 C 37.068811,17.246167 37.088388,32 37.088388,32 L 22.160133,31.978069 C 22.160133,31.978069 26.997745,27.140456 26.997745,27.140456 C 18.528582,18.264221 13.291696,25.230495 11.500037,31.436501 z"
             style="fill:#404040;"/>
          </a>
         </g>
        </svg>
</svg>
