<?xml version="1.0" encoding="UTF-8" standalone="no"?>
<!DOCTYPE svg PUBLIC "-//W3C//DTD SVG 1.1//EN"
 "http://www.w3.org/Graphics/SVG/1.1/DTD/svg11.dtd">
<!-- Generated by graphviz version 3.0.0 (20221109.1736)
 -->
<!-- Title: denoptim.integration.tinker.TinkerUtils.getNameLastCycleFile Pages: 1 -->
<svg width="397pt" height="50pt"
 viewBox="0.00 0.00 397.00 50.00" xmlns="http://www.w3.org/2000/svg" xmlns:xlink="http://www.w3.org/1999/xlink">
<g id="graph0" class="graph" transform="scale(1 1) rotate(0) translate(4 46)">
<title>denoptim.integration.tinker.TinkerUtils.getNameLastCycleFile</title>
<polygon fill="white" stroke="transparent" points="-4,4 -4,-46 393,-46 393,4 -4,4"/>
<!-- Node1 -->
<g id="node1" class="node">
<title>Node1</title>
<g id="a_node1"><a xlink:title="Identifies how many iteration Tinker has done by looking into the log file, searching for a given pat...">
<polygon fill="#bfbfbf" stroke="black" points="224,-6 224,-36 389,-36 389,-6 224,-6"/>
<text text-anchor="start" x="232" y="-24" font-family="Helvetica,sans-Serif" font-size="10.00">denoptim.integration.tinker.</text>
<text text-anchor="middle" x="306.5" y="-13" font-family="Helvetica,sans-Serif" font-size="10.00">TinkerUtils.getNameLastCycleFile</text>
</a>
</g>
</g>
<!-- Node2 -->
<g id="node2" class="node">
<title>Node2</title>
<g id="a_node2"><a xlink:href="classdenoptim_1_1integration_1_1tinker_1_1_conformational_search_p_s_s_r_o_t.html#aedff481352b5fd5ac099a3129e11f16c" target="_top" xlink:title="Performs PSSROT conformational search on the given chemical object.">
<polygon fill="white" stroke="black" points="0,-0.5 0,-41.5 188,-41.5 188,-0.5 0,-0.5"/>
<text text-anchor="start" x="8" y="-29.5" font-family="Helvetica,sans-Serif" font-size="10.00">denoptim.integration.tinker.</text>
<text text-anchor="start" x="8" y="-18.5" font-family="Helvetica,sans-Serif" font-size="10.00">ConformationalSearchPSSROT.perform</text>
<text text-anchor="middle" x="94" y="-7.5" font-family="Helvetica,sans-Serif" font-size="10.00">PSSROT</text>
</a>
</g>
</g>
<!-- Node1&#45;&gt;Node2 -->
<g id="edge1" class="edge">
<title>Node1&#45;&gt;Node2</title>
<path fill="none" stroke="midnightblue" d="M213.6,-21C205.18,-21 196.63,-21 188.19,-21"/>
<polygon fill="midnightblue" stroke="midnightblue" points="213.81,-24.5 223.81,-21 213.81,-17.5 213.81,-24.5"/>
</g>
</g>
</svg>
