<?xml version="1.0" encoding="UTF-8" standalone="no"?>
<!DOCTYPE svg PUBLIC "-//W3C//DTD SVG 1.1//EN"
 "http://www.w3.org/Graphics/SVG/1.1/DTD/svg11.dtd">
<!-- Generated by graphviz version 3.0.0 (20221109.1736)
 -->
<!-- Title: denoptim.graph.Candidate.getUID Pages: 1 -->
<svg width="904pt" height="249pt"
 viewBox="0.00 0.00 904.00 249.00" xmlns="http://www.w3.org/2000/svg" xmlns:xlink="http://www.w3.org/1999/xlink">
<g id="graph0" class="graph" transform="scale(1 1) rotate(0) translate(4 245)">
<title>denoptim.graph.Candidate.getUID</title>
<polygon fill="white" stroke="transparent" points="-4,4 -4,-245 900,-245 900,4 -4,4"/>
<!-- Node1 -->
<g id="node1" class="node">
<title>Node1</title>
<g id="a_node1"><a xlink:title=" ">
<polygon fill="#bfbfbf" stroke="black" points="735,-128 735,-147 896,-147 896,-128 735,-128"/>
<text text-anchor="middle" x="815.5" y="-135" font-family="Helvetica,sans-Serif" font-size="10.00">denoptim.graph.Candidate.getUID</text>
</a>
</g>
</g>
<!-- Node2 -->
<g id="node2" class="node">
<title>Node2</title>
<g id="a_node2"><a xlink:href="classdenoptim_1_1ga_1_1_offspring_evaluation_task.html#aab5b9c0b8a88922460f5c28ae161d1fa" target="_top" xlink:title=" ">
<polygon fill="white" stroke="black" points="544,-210.5 544,-240.5 699,-240.5 699,-210.5 544,-210.5"/>
<text text-anchor="start" x="552" y="-228.5" font-family="Helvetica,sans-Serif" font-size="10.00">denoptim.ga.OffspringEvaluation</text>
<text text-anchor="middle" x="621.5" y="-217.5" font-family="Helvetica,sans-Serif" font-size="10.00">Task.call</text>
</a>
</g>
</g>
<!-- Node1&#45;&gt;Node2 -->
<g id="edge1" class="edge">
<title>Node1&#45;&gt;Node2</title>
<path fill="none" stroke="midnightblue" d="M787.84,-151.76C764.65,-163.96 729.98,-181.68 699,-195.5 687.4,-200.67 674.63,-205.87 662.89,-210.46"/>
<polygon fill="midnightblue" stroke="midnightblue" points="789.53,-154.83 796.74,-147.06 786.26,-148.64 789.53,-154.83"/>
</g>
<!-- Node3 -->
<g id="node3" class="node">
<title>Node3</title>
<g id="a_node3"><a xlink:href="classdenoptim_1_1ga_1_1_evolutionary_algorithm.html#a596b2f5f0b097c5b67a6e5163bd6fe66" target="_top" xlink:title="Generates a given number of new candidate items and adds them to the current population.">
<polygon fill="white" stroke="black" points="362,-151.5 362,-181.5 496,-181.5 496,-151.5 362,-151.5"/>
<text text-anchor="start" x="370" y="-169.5" font-family="Helvetica,sans-Serif" font-size="10.00">denoptim.ga.Evolutionary</text>
<text text-anchor="middle" x="429" y="-158.5" font-family="Helvetica,sans-Serif" font-size="10.00">Algorithm.evolvePopulation</text>
</a>
</g>
</g>
<!-- Node1&#45;&gt;Node3 -->
<g id="edge2" class="edge">
<title>Node1&#45;&gt;Node3</title>
<path fill="none" stroke="midnightblue" d="M769.16,-149.49C748.01,-154.52 722.38,-159.82 699,-162.5 630.09,-170.39 550.61,-170.47 496.01,-169.15"/>
<polygon fill="midnightblue" stroke="midnightblue" points="770.28,-152.82 779.16,-147.05 768.62,-146.02 770.28,-152.82"/>
</g>
<!-- Node7 -->
<g id="node7" class="node">
<title>Node7</title>
<g id="a_node7"><a xlink:href="classdenoptim_1_1gui_1_1_molecule_view_panel.html#acfa83a9b27d29f5582ee14973e902aee" target="_top" xlink:title=" ">
<polygon fill="white" stroke="black" points="554.5,-122.5 554.5,-152.5 688.5,-152.5 688.5,-122.5 554.5,-122.5"/>
<text text-anchor="start" x="562.5" y="-140.5" font-family="Helvetica,sans-Serif" font-size="10.00">denoptim.gui.MoleculeView</text>
<text text-anchor="middle" x="621.5" y="-129.5" font-family="Helvetica,sans-Serif" font-size="10.00">Panel.fillDataTable</text>
</a>
</g>
</g>
<!-- Node1&#45;&gt;Node7 -->
<g id="edge6" class="edge">
<title>Node1&#45;&gt;Node7</title>
<path fill="none" stroke="midnightblue" d="M724.6,-137.5C712.48,-137.5 700.22,-137.5 688.61,-137.5"/>
<polygon fill="midnightblue" stroke="midnightblue" points="724.74,-141 734.74,-137.5 724.74,-134 724.74,-141"/>
</g>
<!-- Node8 -->
<g id="node8" class="node">
<title>Node8</title>
<g id="a_node8"><a xlink:href="classdenoptim_1_1ga_1_1_offspring_evaluation_task.html#ab222efa0ae1a954ba00305d123484264" target="_top" xlink:title=" ">
<polygon fill="white" stroke="black" points="544,-73.5 544,-103.5 699,-103.5 699,-73.5 544,-73.5"/>
<text text-anchor="start" x="552" y="-91.5" font-family="Helvetica,sans-Serif" font-size="10.00">denoptim.ga.OffspringEvaluation</text>
<text text-anchor="middle" x="621.5" y="-80.5" font-family="Helvetica,sans-Serif" font-size="10.00">Task.OffspringEvaluationTask</text>
</a>
</g>
</g>
<!-- Node1&#45;&gt;Node8 -->
<g id="edge7" class="edge">
<title>Node1&#45;&gt;Node8</title>
<path fill="none" stroke="midnightblue" d="M767.08,-125.4C741.2,-118.79 708.91,-110.55 681.42,-103.54"/>
<polygon fill="midnightblue" stroke="midnightblue" points="766.47,-128.85 777.02,-127.94 768.2,-122.07 766.47,-128.85"/>
</g>
<!-- Node9 -->
<g id="node9" class="node">
<title>Node9</title>
<g id="a_node9"><a xlink:href="classdenoptim_1_1ga_1_1_e_a_utils.html#ac03e7d805c9afda30244e831da74ae81" target="_top" xlink:title="Write out summary for the current GA population.">
<polygon fill="white" stroke="black" points="554.5,-24.5 554.5,-54.5 688.5,-54.5 688.5,-24.5 554.5,-24.5"/>
<text text-anchor="start" x="562.5" y="-42.5" font-family="Helvetica,sans-Serif" font-size="10.00">denoptim.ga.EAUtils.output</text>
<text text-anchor="middle" x="621.5" y="-31.5" font-family="Helvetica,sans-Serif" font-size="10.00">PopulationDetails</text>
</a>
</g>
</g>
<!-- Node1&#45;&gt;Node9 -->
<g id="edge8" class="edge">
<title>Node1&#45;&gt;Node9</title>
<path fill="none" stroke="midnightblue" d="M793.47,-121.95C770.99,-105.88 733.87,-80.9 699,-64.5 691.29,-60.87 682.91,-57.55 674.62,-54.6"/>
<polygon fill="midnightblue" stroke="midnightblue" points="791.45,-124.81 801.6,-127.83 795.55,-119.14 791.45,-124.81"/>
</g>
<!-- Node4 -->
<g id="node4" class="node">
<title>Node4</title>
<g id="a_node4"><a xlink:href="classdenoptim_1_1ga_1_1_evolutionary_algorithm.html#a6bfc2fa59b199da6259b5b6bad3d6de7" target="_top" xlink:title=" ">
<polygon fill="white" stroke="black" points="190,-93.5 190,-123.5 314,-123.5 314,-93.5 190,-93.5"/>
<text text-anchor="start" x="198" y="-111.5" font-family="Helvetica,sans-Serif" font-size="10.00">denoptim.ga.Evolutionary</text>
<text text-anchor="middle" x="252" y="-100.5" font-family="Helvetica,sans-Serif" font-size="10.00">Algorithm.run</text>
</a>
</g>
</g>
<!-- Node3&#45;&gt;Node4 -->
<g id="edge3" class="edge">
<title>Node3&#45;&gt;Node4</title>
<path fill="none" stroke="midnightblue" d="M372.8,-148.2C348.81,-140.25 321.05,-131.05 298.29,-123.51"/>
<polygon fill="midnightblue" stroke="midnightblue" points="371.88,-151.59 382.48,-151.41 374.09,-144.94 371.88,-151.59"/>
</g>
<!-- Node5 -->
<g id="node5" class="node">
<title>Node5</title>
<g id="a_node5"><a xlink:href="classdenoptim_1_1ga_1_1_evolutionary_algorithm.html#a0f2063b722b7291daf83d62acaa683d3" target="_top" xlink:title=" ">
<polygon fill="white" stroke="black" points="0,-118.5 0,-148.5 154,-148.5 154,-118.5 0,-118.5"/>
<text text-anchor="start" x="8" y="-136.5" font-family="Helvetica,sans-Serif" font-size="10.00">denoptim.ga.Evolutionary</text>
<text text-anchor="middle" x="77" y="-125.5" font-family="Helvetica,sans-Serif" font-size="10.00">Algorithm.EvolutionaryAlgorithm</text>
</a>
</g>
</g>
<!-- Node4&#45;&gt;Node5 -->
<g id="edge4" class="edge">
<title>Node4&#45;&gt;Node5</title>
<path fill="none" stroke="midnightblue" d="M179.44,-118.84C171.09,-120.05 162.54,-121.28 154.12,-122.5"/>
<polygon fill="midnightblue" stroke="midnightblue" points="180.12,-122.28 189.52,-117.38 179.12,-115.35 180.12,-122.28"/>
</g>
<!-- Node6 -->
<g id="node6" class="node">
<title>Node6</title>
<g id="a_node6"><a xlink:href="classdenoptim_1_1programs_1_1denovo_1_1_g_a_runner.html#a7cafd6d78727b89dce3e2c8d06f0dd7c" target="_top" xlink:title=" ">
<polygon fill="white" stroke="black" points="9.5,-69.5 9.5,-99.5 144.5,-99.5 144.5,-69.5 9.5,-69.5"/>
<text text-anchor="start" x="17.5" y="-87.5" font-family="Helvetica,sans-Serif" font-size="10.00">denoptim.programs.denovo.</text>
<text text-anchor="middle" x="77" y="-76.5" font-family="Helvetica,sans-Serif" font-size="10.00">GARunner.runProgram</text>
</a>
</g>
</g>
<!-- Node4&#45;&gt;Node6 -->
<g id="edge5" class="edge">
<title>Node4&#45;&gt;Node6</title>
<path fill="none" stroke="midnightblue" d="M179.48,-98.58C167.92,-96.97 156,-95.32 144.57,-93.73"/>
<polygon fill="midnightblue" stroke="midnightblue" points="179.13,-102.06 189.52,-99.97 180.1,-95.13 179.13,-102.06"/>
</g>
<!-- Node9&#45;&gt;Node4 -->
<g id="edge11" class="edge">
<title>Node9&#45;&gt;Node4</title>
<path fill="none" stroke="midnightblue" d="M558.07,-58.2C553.24,-60.16 548.5,-62.26 544,-64.5 526.56,-73.17 526.36,-82.99 508,-89.5 444.61,-111.97 366.94,-114.5 314.09,-112.82"/>
<polygon fill="midnightblue" stroke="midnightblue" points="559.35,-61.46 567.43,-54.61 556.84,-54.93 559.35,-61.46"/>
</g>
<!-- Node10 -->
<g id="node10" class="node">
<title>Node10</title>
<g id="a_node10"><a xlink:href="classdenoptim_1_1ga_1_1_e_a_utils.html#a01ee989f992e0cff04e3498b63d6c0b0" target="_top" xlink:title="Saves the final results to disk.">
<polygon fill="white" stroke="black" points="362,-49.5 362,-79.5 496,-79.5 496,-49.5 362,-49.5"/>
<text text-anchor="start" x="370" y="-67.5" font-family="Helvetica,sans-Serif" font-size="10.00">denoptim.ga.EAUtils.output</text>
<text text-anchor="middle" x="429" y="-56.5" font-family="Helvetica,sans-Serif" font-size="10.00">FinalResults</text>
</a>
</g>
</g>
<!-- Node9&#45;&gt;Node10 -->
<g id="edge9" class="edge">
<title>Node9&#45;&gt;Node10</title>
<path fill="none" stroke="midnightblue" d="M544.13,-49.52C528.29,-51.6 511.74,-53.77 496.3,-55.8"/>
<polygon fill="midnightblue" stroke="midnightblue" points="544.95,-52.95 554.41,-48.17 544.04,-46 544.95,-52.95"/>
</g>
<!-- Node11 -->
<g id="node11" class="node">
<title>Node11</title>
<g id="a_node11"><a xlink:href="classdenoptim_1_1io_1_1_denoptim_i_o_test.html#af5c2f9114881ebde82a83f922c0c23fe" target="_top" xlink:title=" ">
<polygon fill="white" stroke="black" points="350,-0.5 350,-30.5 508,-30.5 508,-0.5 350,-0.5"/>
<text text-anchor="start" x="358" y="-18.5" font-family="Helvetica,sans-Serif" font-size="10.00">denoptim.io.DenoptimIOTest.test</text>
<text text-anchor="middle" x="429" y="-7.5" font-family="Helvetica,sans-Serif" font-size="10.00">ReadGenerationFromSummary</text>
</a>
</g>
</g>
<!-- Node9&#45;&gt;Node11 -->
<g id="edge12" class="edge">
<title>Node9&#45;&gt;Node11</title>
<path fill="none" stroke="midnightblue" d="M544.47,-29.92C532.5,-28.41 520.11,-26.85 508.09,-25.34"/>
<polygon fill="midnightblue" stroke="midnightblue" points="544.05,-33.4 554.41,-31.17 544.92,-26.45 544.05,-33.4"/>
</g>
<!-- Node10&#45;&gt;Node4 -->
<g id="edge10" class="edge">
<title>Node10&#45;&gt;Node4</title>
<path fill="none" stroke="midnightblue" d="M358.46,-81.99C343.33,-85.79 327.47,-89.78 312.76,-93.47"/>
<polygon fill="midnightblue" stroke="midnightblue" points="359.42,-85.35 368.26,-79.52 357.71,-78.56 359.42,-85.35"/>
</g>
</g>
</svg>
