<?xml version="1.0" encoding="UTF-8" standalone="no"?>
<!DOCTYPE svg PUBLIC "-//W3C//DTD SVG 1.1//EN"
 "http://www.w3.org/Graphics/SVG/1.1/DTD/svg11.dtd">
<!-- Generated by graphviz version 3.0.0 (20221109.1736)
 -->
<!-- Title: denoptim.gui.GraphViewerPanel.getLayoutCenter Pages: 1 -->
<svg width="536pt" height="88pt"
 viewBox="0.00 0.00 536.00 88.00" xmlns="http://www.w3.org/2000/svg" xmlns:xlink="http://www.w3.org/1999/xlink">
<g id="graph0" class="graph" transform="scale(1 1) rotate(0) translate(4 84)">
<title>denoptim.gui.GraphViewerPanel.getLayoutCenter</title>
<polygon fill="white" stroke="transparent" points="-4,4 -4,-84 532,-84 532,4 -4,4"/>
<!-- Node1 -->
<g id="node1" class="node">
<title>Node1</title>
<g id="a_node1"><a xlink:title=" ">
<polygon fill="#bfbfbf" stroke="black" points="398,-24.5 398,-54.5 528,-54.5 528,-24.5 398,-24.5"/>
<text text-anchor="start" x="406" y="-42.5" font-family="Helvetica,sans-Serif" font-size="10.00">denoptim.gui.GraphViewer</text>
<text text-anchor="middle" x="463" y="-31.5" font-family="Helvetica,sans-Serif" font-size="10.00">Panel.getLayoutCenter</text>
</a>
</g>
</g>
<!-- Node2 -->
<g id="node2" class="node">
<title>Node2</title>
<g id="a_node2"><a xlink:href="classdenoptim_1_1gui_1_1_graph_viewer_panel.html#a5d141993a4e2544320e3905fd2ef5df9" target="_top" xlink:title=" ">
<polygon fill="white" stroke="black" points="232,-24.5 232,-54.5 362,-54.5 362,-24.5 232,-24.5"/>
<text text-anchor="start" x="240" y="-42.5" font-family="Helvetica,sans-Serif" font-size="10.00">denoptim.gui.GraphViewer</text>
<text text-anchor="middle" x="297" y="-31.5" font-family="Helvetica,sans-Serif" font-size="10.00">Panel.centerGraphLayout</text>
</a>
</g>
</g>
<!-- Node1&#45;&gt;Node2 -->
<g id="edge1" class="edge">
<title>Node1&#45;&gt;Node2</title>
<path fill="none" stroke="midnightblue" d="M387.44,-39.5C379,-39.5 370.45,-39.5 362.16,-39.5"/>
<polygon fill="midnightblue" stroke="midnightblue" points="387.65,-43 397.65,-39.5 387.65,-36 387.65,-43"/>
</g>
<!-- Node3 -->
<g id="node3" class="node">
<title>Node3</title>
<g id="a_node3"><a xlink:href="classdenoptim_1_1gui_1_1_graph_viewer_panel_1_1_graph_opts_popup.html#ad5380bf971a6c413523b5b4d4093645b" target="_top" xlink:title=" ">
<polygon fill="white" stroke="black" points="0,-49.5 0,-79.5 196,-79.5 196,-49.5 0,-49.5"/>
<text text-anchor="start" x="8" y="-67.5" font-family="Helvetica,sans-Serif" font-size="10.00">denoptim.gui.GraphViewer</text>
<text text-anchor="middle" x="98" y="-56.5" font-family="Helvetica,sans-Serif" font-size="10.00">Panel.GraphOptsPopup.GraphOptsPopup</text>
</a>
</g>
</g>
<!-- Node2&#45;&gt;Node3 -->
<g id="edge2" class="edge">
<title>Node2&#45;&gt;Node3</title>
<path fill="none" stroke="midnightblue" d="M221.68,-48.93C213.29,-50 204.65,-51.09 196.03,-52.19"/>
<polygon fill="midnightblue" stroke="midnightblue" points="222.29,-52.38 231.77,-47.65 221.41,-45.44 222.29,-52.38"/>
</g>
<!-- Node4 -->
<g id="node4" class="node">
<title>Node4</title>
<g id="a_node4"><a xlink:href="classdenoptim_1_1gui_1_1_graph_viewer_panel.html#a70a996f829ed30d6c728b0d55e5fbef3" target="_top" xlink:title="Load the given graph to the graph viewer.">
<polygon fill="white" stroke="black" points="33,-0.5 33,-30.5 163,-30.5 163,-0.5 33,-0.5"/>
<text text-anchor="start" x="41" y="-18.5" font-family="Helvetica,sans-Serif" font-size="10.00">denoptim.gui.GraphViewer</text>
<text text-anchor="middle" x="98" y="-7.5" font-family="Helvetica,sans-Serif" font-size="10.00">Panel.loadGraphToViewer</text>
</a>
</g>
</g>
<!-- Node2&#45;&gt;Node4 -->
<g id="edge3" class="edge">
<title>Node2&#45;&gt;Node4</title>
<path fill="none" stroke="midnightblue" d="M221.81,-30.46C202.51,-28.11 181.88,-25.6 163.15,-23.31"/>
<polygon fill="midnightblue" stroke="midnightblue" points="221.42,-33.94 231.77,-31.67 222.26,-26.99 221.42,-33.94"/>
</g>
</g>
</svg>
