<?xml version="1.0" encoding="UTF-8" standalone="no"?>
<!DOCTYPE svg PUBLIC "-//W3C//DTD SVG 1.1//EN"
 "http://www.w3.org/Graphics/SVG/1.1/DTD/svg11.dtd">
<!-- Generated by graphviz version 3.0.0 (20221109.1736)
 -->
<!-- Title: denoptim.gui.FitnessParametersForm.FitnessParametersForm Pages: 1 -->
<!--zoomable 690 -->
<svg id="main" version="1.1" xmlns="http://www.w3.org/2000/svg" xmlns:xlink="http://www.w3.org/1999/xlink" xml:space="preserve" onload="init(evt)">
<style type="text/css"><![CDATA[
.edge:hover path { stroke: red; }
.edge:hover polygon { stroke: red; fill: red; }
]]></style>
<script type="text/javascript"><![CDATA[
var edges = document.getElementsByTagName('g');
if (edges && edges.length) {
  for (var i=0;i<edges.length;i++) {
    if (edges[i].id.substr(0,4)=='edge') {
      edges[i].setAttribute('class','edge');
    }
  }
}
]]></script>
        <defs>
                <circle id="rim" cx="0" cy="0" r="7"/>
                <circle id="rim2" cx="0" cy="0" r="3.5"/>
                <g id="zoomPlus">
                        <use xlink:href="#rim" fill="#404040">
                                <set attributeName="fill" to="#808080" begin="zoomplus.mouseover" end="zoomplus.mouseout"/>
                        </use>
                        <path d="M-4,0h8M0,-4v8" fill="none" stroke="white" stroke-width="1.5" pointer-events="none"/>
                </g>
                <g id="zoomMin">
                        <use xlink:href="#rim" fill="#404040">
                                <set attributeName="fill" to="#808080" begin="zoomminus.mouseover" end="zoomminus.mouseout"/>
                        </use>
                        <path d="M-4,0h8" fill="none" stroke="white" stroke-width="1.5" pointer-events="none"/>
                </g>
                <g id="dirArrow">
                        <path fill="none" stroke="white" stroke-width="1.5" d="M0,-3.0v7 M-2.5,-0.5L0,-3.0L2.5,-0.5"/>
                </g>
               <g id="resetDef">
                       <use xlink:href="#rim2" fill="#404040">
                               <set attributeName="fill" to="#808080" begin="reset.mouseover" end="reset.mouseout"/>
                       </use>
               </g>
        </defs>

<script type="text/javascript">
var viewWidth = 832;
var viewHeight = 690;
var sectionId = 'dynsection-2';
</script>
<script xlink:href="svgpan.js"/>
<svg id="graph" class="graph">
<g id="viewport">
<title>denoptim.gui.FitnessParametersForm.FitnessParametersForm</title>
<polygon fill="white" stroke="transparent" points="-4,4 -4,-686 828,-686 828,4 -4,4"/>
<!-- Node1 -->
<g id="node1" class="node">
<title>Node1</title>
<g id="a_node1"><a xlink:title=" ">
<polygon fill="#bfbfbf" stroke="black" points="0,-308.5 0,-338.5 156,-338.5 156,-308.5 0,-308.5"/>
<text text-anchor="start" x="8" y="-326.5" font-family="Helvetica,sans-Serif" font-size="10.00">denoptim.gui.FitnessParameters</text>
<text text-anchor="middle" x="78" y="-315.5" font-family="Helvetica,sans-Serif" font-size="10.00">Form.FitnessParametersForm</text>
</a>
</g>
</g>
<!-- Node2 -->
<g id="node2" class="node">
<title>Node2</title>
<g id="a_node2"><a xlink:href="classdenoptim_1_1fitness_1_1_descriptor_utils.html#a83fbe159812be962183c264ddc5c54ea" target="_top" xlink:title="Searches for descriptor implementations in the CDK packages.">
<polygon fill="white" stroke="black" points="215.5,-578.5 215.5,-608.5 350.5,-608.5 350.5,-578.5 215.5,-578.5"/>
<text text-anchor="start" x="223.5" y="-596.5" font-family="Helvetica,sans-Serif" font-size="10.00">denoptim.fitness.Descriptor</text>
<text text-anchor="middle" x="283" y="-585.5" font-family="Helvetica,sans-Serif" font-size="10.00">Utils.findAllCDKDescriptors</text>
</a>
</g>
</g>
<!-- Node1&#45;&gt;Node2 -->
<g id="edge1" class="edge">
<title>Node1&#45;&gt;Node2</title>
<path fill="none" stroke="midnightblue" d="M81.38,-338.62C88.97,-381.7 116.72,-506.04 192,-569.5 196.25,-573.08 200.98,-576.14 205.99,-578.74"/>
<polygon fill="midnightblue" stroke="midnightblue" points="204.7,-582 215.25,-582.95 207.6,-575.62 204.7,-582"/>
</g>
<!-- Node9 -->
<g id="node9" class="node">
<title>Node9</title>
<g id="a_node9"><a xlink:href="classdenoptim_1_1fitness_1_1_descriptor_utils.html#aad0f6a48a1e75772f06cf70290ad8b45" target="_top" xlink:title="Searches for descriptor implementations in the DENOPTIM packages.">
<polygon fill="white" stroke="black" points="199.5,-529.5 199.5,-559.5 366.5,-559.5 366.5,-529.5 199.5,-529.5"/>
<text text-anchor="start" x="207.5" y="-547.5" font-family="Helvetica,sans-Serif" font-size="10.00">denoptim.fitness.Descriptor</text>
<text text-anchor="middle" x="283" y="-536.5" font-family="Helvetica,sans-Serif" font-size="10.00">Utils.findAllDENOPTIMDescriptors</text>
</a>
</g>
</g>
<!-- Node1&#45;&gt;Node9 -->
<g id="edge8" class="edge">
<title>Node1&#45;&gt;Node9</title>
<path fill="none" stroke="midnightblue" d="M83.2,-338.52C94.34,-375.49 128.23,-471.48 192,-520.5 193.82,-521.9 195.72,-523.22 197.68,-524.46"/>
<polygon fill="midnightblue" stroke="midnightblue" points="196.18,-527.63 206.62,-529.43 199.58,-521.52 196.18,-527.63"/>
</g>
<!-- Node11 -->
<g id="node11" class="node">
<title>Node11</title>
<g id="a_node11"><a xlink:href="classdenoptim_1_1fitness_1_1_descriptor_for_fitness.html#a67354732129b314d5c66b397b885b7fd" target="_top" xlink:title=" ">
<polygon fill="white" stroke="black" points="216,-480.5 216,-510.5 350,-510.5 350,-480.5 216,-480.5"/>
<text text-anchor="start" x="224" y="-498.5" font-family="Helvetica,sans-Serif" font-size="10.00">denoptim.fitness.Descriptor</text>
<text text-anchor="middle" x="283" y="-487.5" font-family="Helvetica,sans-Serif" font-size="10.00">ForFitness.getClassName</text>
</a>
</g>
</g>
<!-- Node1&#45;&gt;Node11 -->
<g id="edge12" class="edge">
<title>Node1&#45;&gt;Node11</title>
<path fill="none" stroke="midnightblue" d="M86.27,-338.73C101.47,-368.92 139.61,-436.45 192,-471.5 196.54,-474.53 201.44,-477.19 206.54,-479.5"/>
<polygon fill="midnightblue" stroke="midnightblue" points="205.3,-482.78 215.88,-483.32 207.95,-476.3 205.3,-482.78"/>
</g>
<!-- Node12 -->
<g id="node12" class="node">
<title>Node12</title>
<g id="a_node12"><a xlink:href="classdenoptim_1_1fitness_1_1_descriptor_for_fitness.html#a732e13bcfcb397dd059461b568268204" target="_top" xlink:title=" ">
<polygon fill="white" stroke="black" points="216,-431.5 216,-461.5 350,-461.5 350,-431.5 216,-431.5"/>
<text text-anchor="start" x="224" y="-449.5" font-family="Helvetica,sans-Serif" font-size="10.00">denoptim.fitness.Descriptor</text>
<text text-anchor="middle" x="283" y="-438.5" font-family="Helvetica,sans-Serif" font-size="10.00">ForFitness.getDictClasses</text>
</a>
</g>
</g>
<!-- Node1&#45;&gt;Node12 -->
<g id="edge13" class="edge">
<title>Node1&#45;&gt;Node12</title>
<path fill="none" stroke="midnightblue" d="M92.01,-338.65C111.54,-360.44 150.58,-400.4 192,-422.5 196.52,-424.91 201.3,-427.09 206.21,-429.07"/>
<polygon fill="midnightblue" stroke="midnightblue" points="205.17,-432.42 215.77,-432.61 207.6,-425.85 205.17,-432.42"/>
</g>
<!-- Node13 -->
<g id="node13" class="node">
<title>Node13</title>
<g id="a_node13"><a xlink:href="classdenoptim_1_1fitness_1_1_descriptor_for_fitness.html#a946f92d93b2d9de0f3925d44281e93d5" target="_top" xlink:title=" ">
<polygon fill="white" stroke="black" points="215,-382.5 215,-412.5 351,-412.5 351,-382.5 215,-382.5"/>
<text text-anchor="start" x="223" y="-400.5" font-family="Helvetica,sans-Serif" font-size="10.00">denoptim.fitness.Descriptor</text>
<text text-anchor="middle" x="283" y="-389.5" font-family="Helvetica,sans-Serif" font-size="10.00">ForFitness.getDictDefinition</text>
</a>
</g>
</g>
<!-- Node1&#45;&gt;Node13 -->
<g id="edge14" class="edge">
<title>Node1&#45;&gt;Node13</title>
<path fill="none" stroke="midnightblue" d="M109.65,-338.62C132.09,-349.31 163.47,-363.45 192,-373.5 197.91,-375.58 204.08,-377.58 210.32,-379.48"/>
<polygon fill="midnightblue" stroke="midnightblue" points="209.54,-382.9 220.13,-382.37 211.52,-376.18 209.54,-382.9"/>
</g>
<!-- Node14 -->
<g id="node14" class="node">
<title>Node14</title>
<g id="a_node14"><a xlink:href="classdenoptim_1_1fitness_1_1_descriptor_for_fitness.html#a052909922844c7d99b9918fb37002c9f" target="_top" xlink:title=" ">
<polygon fill="white" stroke="black" points="216,-333.5 216,-363.5 350,-363.5 350,-333.5 216,-333.5"/>
<text text-anchor="start" x="224" y="-351.5" font-family="Helvetica,sans-Serif" font-size="10.00">denoptim.fitness.Descriptor</text>
<text text-anchor="middle" x="283" y="-340.5" font-family="Helvetica,sans-Serif" font-size="10.00">ForFitness.getDictTitle</text>
</a>
</g>
</g>
<!-- Node1&#45;&gt;Node14 -->
<g id="edge15" class="edge">
<title>Node1&#45;&gt;Node14</title>
<path fill="none" stroke="midnightblue" d="M156.04,-332.99C172.38,-335 189.63,-337.12 205.94,-339.13"/>
<polygon fill="midnightblue" stroke="midnightblue" points="205.61,-342.62 215.96,-340.37 206.46,-335.67 205.61,-342.62"/>
</g>
<!-- Node15 -->
<g id="node15" class="node">
<title>Node15</title>
<g id="a_node15"><a xlink:href="classdenoptim_1_1fitness_1_1_descriptor_for_fitness.html#ae93b296b1ac13cc2eed0f7a012dfff64" target="_top" xlink:title=" ">
<polygon fill="white" stroke="black" points="210,-284.5 210,-314.5 356,-314.5 356,-284.5 210,-284.5"/>
<text text-anchor="start" x="218" y="-302.5" font-family="Helvetica,sans-Serif" font-size="10.00">denoptim.fitness.Descriptor</text>
<text text-anchor="middle" x="283" y="-291.5" font-family="Helvetica,sans-Serif" font-size="10.00">ForFitness.getImplementation</text>
</a>
</g>
</g>
<!-- Node1&#45;&gt;Node15 -->
<g id="edge16" class="edge">
<title>Node1&#45;&gt;Node15</title>
<path fill="none" stroke="midnightblue" d="M156.04,-314.39C170.21,-312.72 185.05,-310.96 199.38,-309.27"/>
<polygon fill="midnightblue" stroke="midnightblue" points="200.18,-312.7 209.7,-308.05 199.36,-305.75 200.18,-312.7"/>
</g>
<!-- Node16 -->
<g id="node16" class="node">
<title>Node16</title>
<g id="a_node16"><a xlink:href="classdenoptim_1_1fitness_1_1_descriptor_for_fitness.html#a0f88be44c1b2f155f06d74422e730b3c" target="_top" xlink:title=" ">
<polygon fill="white" stroke="black" points="216,-235.5 216,-265.5 350,-265.5 350,-235.5 216,-235.5"/>
<text text-anchor="start" x="224" y="-253.5" font-family="Helvetica,sans-Serif" font-size="10.00">denoptim.fitness.Descriptor</text>
<text text-anchor="middle" x="283" y="-242.5" font-family="Helvetica,sans-Serif" font-size="10.00">ForFitness.getShortName</text>
</a>
</g>
</g>
<!-- Node1&#45;&gt;Node16 -->
<g id="edge17" class="edge">
<title>Node1&#45;&gt;Node16</title>
<path fill="none" stroke="midnightblue" d="M111.19,-308.49C133.57,-298.4 164.23,-285.21 192,-275.5 198.95,-273.07 206.26,-270.72 213.59,-268.49"/>
<polygon fill="midnightblue" stroke="midnightblue" points="214.96,-271.73 223.56,-265.53 212.98,-265.02 214.96,-271.73"/>
</g>
<!-- Node17 -->
<g id="node17" class="node">
<title>Node17</title>
<g id="a_node17"><a xlink:href="classdenoptim_1_1gui_1_1_fitness_parameters_form.html#a0de28f13de415fffbcb06ec0d31b36c5" target="_top" xlink:title="Imports parameters from a properly formatted parameters file.">
<polygon fill="white" stroke="black" points="192,-157 192,-198 374,-198 374,-157 192,-157"/>
<text text-anchor="start" x="200" y="-186" font-family="Helvetica,sans-Serif" font-size="10.00">denoptim.gui.FitnessParameters</text>
<text text-anchor="start" x="200" y="-175" font-family="Helvetica,sans-Serif" font-size="10.00">Form.importParametersFromDenoptim</text>
<text text-anchor="middle" x="283" y="-164" font-family="Helvetica,sans-Serif" font-size="10.00">ParamsFile</text>
</a>
</g>
</g>
<!-- Node1&#45;&gt;Node17 -->
<g id="edge18" class="edge">
<title>Node1&#45;&gt;Node17</title>
<path fill="none" stroke="midnightblue" d="M94.17,-308.36C115.05,-288 154.34,-251.39 192,-225.5 203.74,-217.43 217,-209.69 229.65,-202.87"/>
<polygon fill="midnightblue" stroke="midnightblue" points="231.52,-205.84 238.73,-198.07 228.25,-199.65 231.52,-205.84"/>
</g>
<!-- Node20 -->
<g id="node20" class="node">
<title>Node20</title>
<g id="a_node20"><a xlink:href="classdenoptim_1_1gui_1_1_g_u_i_file_opener.html#aff1eb57da9cbb113e119fbc24c96c3da" target="_top" xlink:title=" ">
<polygon fill="white" stroke="black" points="203.5,-108.5 203.5,-138.5 362.5,-138.5 362.5,-108.5 203.5,-108.5"/>
<text text-anchor="start" x="211.5" y="-126.5" font-family="Helvetica,sans-Serif" font-size="10.00">denoptim.gui.GUIFileOpener.pick</text>
<text text-anchor="middle" x="283" y="-115.5" font-family="Helvetica,sans-Serif" font-size="10.00">FileForTxtField</text>
</a>
</g>
</g>
<!-- Node1&#45;&gt;Node20 -->
<g id="edge22" class="edge">
<title>Node1&#45;&gt;Node20</title>
<path fill="none" stroke="midnightblue" d="M84.34,-308.32C97.18,-274.07 133.19,-190.41 192,-147.5 193.91,-146.11 195.9,-144.79 197.94,-143.56"/>
<polygon fill="midnightblue" stroke="midnightblue" points="200.07,-146.39 207.26,-138.61 196.79,-140.21 200.07,-146.39"/>
</g>
<!-- Node22 -->
<g id="node22" class="node">
<title>Node22</title>
<g id="a_node22"><a xlink:href="classdenoptim_1_1gui_1_1_fitness_parameters_form.html#a8c576faa5cd57a6753244be043239c15" target="_top" xlink:title=" ">
<polygon fill="white" stroke="black" points="194,-49 194,-90 372,-90 372,-49 194,-49"/>
<text text-anchor="start" x="202" y="-78" font-family="Helvetica,sans-Serif" font-size="10.00">denoptim.gui.FitnessParameters</text>
<text text-anchor="start" x="202" y="-67" font-family="Helvetica,sans-Serif" font-size="10.00">Form.setVisibilityAccordingToFitness</text>
<text text-anchor="middle" x="283" y="-56" font-family="Helvetica,sans-Serif" font-size="10.00">ProviderSelection</text>
</a>
</g>
</g>
<!-- Node1&#45;&gt;Node22 -->
<g id="edge24" class="edge">
<title>Node1&#45;&gt;Node22</title>
<path fill="none" stroke="midnightblue" d="M82.28,-308.4C91.82,-268.15 123.29,-157.38 192,-98.5 193.02,-97.63 194.06,-96.78 195.13,-95.96"/>
<polygon fill="midnightblue" stroke="midnightblue" points="197.4,-98.65 203.73,-90.16 193.48,-92.85 197.4,-98.65"/>
</g>
<!-- Node23 -->
<g id="node23" class="node">
<title>Node23</title>
<g id="a_node23"><a xlink:href="classdenoptim_1_1gui_1_1_g_u_i_modal_dialog.html#aaa04536e178fdfa5bad92cdc1fcc4583" target="_top" xlink:title="Shows the dialog and restrains the modality to it, until the dialog gets closed.">
<polygon fill="white" stroke="black" points="198,-0.5 198,-30.5 368,-30.5 368,-0.5 198,-0.5"/>
<text text-anchor="start" x="206" y="-18.5" font-family="Helvetica,sans-Serif" font-size="10.00">denoptim.gui.GUIModalDialog.show</text>
<text text-anchor="middle" x="283" y="-7.5" font-family="Helvetica,sans-Serif" font-size="10.00">Dialog</text>
</a>
</g>
</g>
<!-- Node1&#45;&gt;Node23 -->
<g id="edge25" class="edge">
<title>Node1&#45;&gt;Node23</title>
<path fill="none" stroke="midnightblue" d="M80.38,-308.17C85.49,-260.64 107.7,-114.39 192,-39.5 193.33,-38.32 194.71,-37.19 196.14,-36.12"/>
<polygon fill="midnightblue" stroke="midnightblue" points="198.24,-38.93 204.75,-30.57 194.45,-33.05 198.24,-38.93"/>
</g>
<!-- Node3 -->
<g id="node3" class="node">
<title>Node3</title>
<g id="a_node3"><a xlink:href="classdenoptim_1_1fitness_1_1_descriptor_utils.html#ac88e544610dbd8d6463e1aadceeb24bd" target="_top" xlink:title="Searches for descriptor implementations.">
<polygon fill="white" stroke="black" points="430.5,-602.5 430.5,-632.5 600.5,-632.5 600.5,-602.5 430.5,-602.5"/>
<text text-anchor="start" x="438.5" y="-620.5" font-family="Helvetica,sans-Serif" font-size="10.00">denoptim.fitness.Descriptor</text>
<text text-anchor="middle" x="515.5" y="-609.5" font-family="Helvetica,sans-Serif" font-size="10.00">Utils.findDescriptorImplementations</text>
</a>
</g>
</g>
<!-- Node2&#45;&gt;Node3 -->
<g id="edge2" class="edge">
<title>Node2&#45;&gt;Node3</title>
<path fill="none" stroke="midnightblue" d="M350.67,-600.44C372.33,-602.7 396.79,-605.24 420.08,-607.67"/>
<polygon fill="midnightblue" stroke="midnightblue" points="420.01,-611.18 430.32,-608.74 420.74,-604.22 420.01,-611.18"/>
</g>
<!-- Node7 -->
<g id="node7" class="node">
<title>Node7</title>
<g id="a_node7"><a xlink:href="classdenoptim_1_1fitness_1_1_descriptor_utils.html#a1ca2050364309818fa51a7f49eb7ecd2" target="_top" xlink:title=" ">
<polygon fill="white" stroke="black" points="420.5,-553.5 420.5,-583.5 610.5,-583.5 610.5,-553.5 420.5,-553.5"/>
<text text-anchor="start" x="428.5" y="-571.5" font-family="Helvetica,sans-Serif" font-size="10.00">denoptim.fitness.Descriptor</text>
<text text-anchor="middle" x="515.5" y="-560.5" font-family="Helvetica,sans-Serif" font-size="10.00">Utils.getClassNamesToCDKDescriptors</text>
</a>
</g>
</g>
<!-- Node2&#45;&gt;Node7 -->
<g id="edge6" class="edge">
<title>Node2&#45;&gt;Node7</title>
<path fill="none" stroke="midnightblue" d="M350.67,-586.27C369.21,-584.26 389.8,-582.02 409.96,-579.84"/>
<polygon fill="midnightblue" stroke="midnightblue" points="410.56,-583.29 420.12,-578.74 409.8,-576.34 410.56,-583.29"/>
</g>
<!-- Node4 -->
<g id="node4" class="node">
<title>Node4</title>
<g id="a_node4"><a xlink:href="interfacedenoptim_1_1fitness_1_1_i_denoptim_descriptor.html#a349d60db2af497012dd0c903f91125e4" target="_top" xlink:title="Get the classification of this descriptor.">
<polygon fill="white" stroke="black" points="668.5,-651.5 668.5,-681.5 812.5,-681.5 812.5,-651.5 668.5,-651.5"/>
<text text-anchor="start" x="676.5" y="-669.5" font-family="Helvetica,sans-Serif" font-size="10.00">denoptim.fitness.IDenoptim</text>
<text text-anchor="middle" x="740.5" y="-658.5" font-family="Helvetica,sans-Serif" font-size="10.00">Descriptor.getDictionaryClass</text>
</a>
</g>
</g>
<!-- Node3&#45;&gt;Node4 -->
<g id="edge3" class="edge">
<title>Node3&#45;&gt;Node4</title>
<path fill="none" stroke="midnightblue" d="M584.92,-632.53C609.11,-637.85 636.49,-643.87 661.42,-649.34"/>
<polygon fill="midnightblue" stroke="midnightblue" points="660.69,-652.77 671.21,-651.49 662.19,-645.93 660.69,-652.77"/>
</g>
<!-- Node5 -->
<g id="node5" class="node">
<title>Node5</title>
<g id="a_node5"><a xlink:href="interfacedenoptim_1_1fitness_1_1_i_denoptim_descriptor.html#ae9dfd06511a97b92fb7df7636edc6c57" target="_top" xlink:title="Get a string that describes the descriptor in detail.">
<polygon fill="white" stroke="black" points="661,-602.5 661,-632.5 820,-632.5 820,-602.5 661,-602.5"/>
<text text-anchor="start" x="669" y="-620.5" font-family="Helvetica,sans-Serif" font-size="10.00">denoptim.fitness.IDenoptim</text>
<text text-anchor="middle" x="740.5" y="-609.5" font-family="Helvetica,sans-Serif" font-size="10.00">Descriptor.getDictionaryDefinition</text>
</a>
</g>
</g>
<!-- Node3&#45;&gt;Node5 -->
<g id="edge4" class="edge">
<title>Node3&#45;&gt;Node5</title>
<path fill="none" stroke="midnightblue" d="M600.81,-617.5C617.15,-617.5 634.32,-617.5 650.8,-617.5"/>
<polygon fill="midnightblue" stroke="midnightblue" points="650.96,-621 660.96,-617.5 650.96,-614 650.96,-621"/>
</g>
<!-- Node6 -->
<g id="node6" class="node">
<title>Node6</title>
<g id="a_node6"><a xlink:href="interfacedenoptim_1_1fitness_1_1_i_denoptim_descriptor.html#ad2108e8cc890e1869717e956fbcdbffa" target="_top" xlink:title="Gets the title of this descriptor as it should be in the dictionary.">
<polygon fill="white" stroke="black" points="671.5,-553.5 671.5,-583.5 809.5,-583.5 809.5,-553.5 671.5,-553.5"/>
<text text-anchor="start" x="679.5" y="-571.5" font-family="Helvetica,sans-Serif" font-size="10.00">denoptim.fitness.IDenoptim</text>
<text text-anchor="middle" x="740.5" y="-560.5" font-family="Helvetica,sans-Serif" font-size="10.00">Descriptor.getDictionaryTitle</text>
</a>
</g>
</g>
<!-- Node3&#45;&gt;Node6 -->
<g id="edge5" class="edge">
<title>Node3&#45;&gt;Node6</title>
<path fill="none" stroke="midnightblue" d="M584.92,-602.47C609.11,-597.15 636.49,-591.13 661.42,-585.66"/>
<polygon fill="midnightblue" stroke="midnightblue" points="662.19,-589.07 671.21,-583.51 660.69,-582.23 662.19,-589.07"/>
</g>
<!-- Node8 -->
<g id="node8" class="node">
<title>Node8</title>
<g id="a_node8"><a xlink:href="classdenoptim_1_1fitness_1_1_descriptor_utils.html#a9c51a30d8807d0045eb9ff8a853d42c9" target="_top" xlink:title="Search for packages in the class path and in the appended archives.">
<polygon fill="white" stroke="black" points="657,-504.5 657,-534.5 824,-534.5 824,-504.5 657,-504.5"/>
<text text-anchor="start" x="665" y="-522.5" font-family="Helvetica,sans-Serif" font-size="10.00">denoptim.fitness.Descriptor</text>
<text text-anchor="middle" x="740.5" y="-511.5" font-family="Helvetica,sans-Serif" font-size="10.00">Utils.getAllClassNamesInPackage</text>
</a>
</g>
</g>
<!-- Node7&#45;&gt;Node8 -->
<g id="edge7" class="edge">
<title>Node7&#45;&gt;Node8</title>
<path fill="none" stroke="midnightblue" d="M584.92,-553.47C609.11,-548.15 636.49,-542.13 661.42,-536.66"/>
<polygon fill="midnightblue" stroke="midnightblue" points="662.19,-540.07 671.21,-534.51 660.69,-533.23 662.19,-540.07"/>
</g>
<!-- Node9&#45;&gt;Node3 -->
<g id="edge9" class="edge">
<title>Node9&#45;&gt;Node3</title>
<path fill="none" stroke="midnightblue" d="M347.85,-559.51C356.79,-562.4 365.74,-565.72 374,-569.5 391.48,-577.51 392.34,-585.89 410,-593.5 414.97,-595.64 420.16,-597.61 425.45,-599.4"/>
<polygon fill="midnightblue" stroke="midnightblue" points="424.47,-602.77 435.06,-602.47 426.6,-596.1 424.47,-602.77"/>
</g>
<!-- Node10 -->
<g id="node10" class="node">
<title>Node10</title>
<g id="a_node10"><a xlink:href="classdenoptim_1_1fitness_1_1_descriptor_utils.html#af01d235137411887b1053e89fd97775b" target="_top" xlink:title=" ">
<polygon fill="white" stroke="black" points="410,-504.5 410,-534.5 621,-534.5 621,-504.5 410,-504.5"/>
<text text-anchor="start" x="418" y="-522.5" font-family="Helvetica,sans-Serif" font-size="10.00">denoptim.fitness.Descriptor</text>
<text text-anchor="middle" x="515.5" y="-511.5" font-family="Helvetica,sans-Serif" font-size="10.00">Utils.getClassNamesToDenoptimDescriptors</text>
</a>
</g>
</g>
<!-- Node9&#45;&gt;Node10 -->
<g id="edge10" class="edge">
<title>Node9&#45;&gt;Node10</title>
<path fill="none" stroke="midnightblue" d="M366.56,-535.55C377.35,-534.38 388.54,-533.16 399.73,-531.95"/>
<polygon fill="midnightblue" stroke="midnightblue" points="400.43,-535.39 409.99,-530.83 399.68,-528.43 400.43,-535.39"/>
</g>
<!-- Node10&#45;&gt;Node8 -->
<g id="edge11" class="edge">
<title>Node10&#45;&gt;Node8</title>
<path fill="none" stroke="midnightblue" d="M621.14,-519.5C629.67,-519.5 638.25,-519.5 646.69,-519.5"/>
<polygon fill="midnightblue" stroke="midnightblue" points="646.89,-523 656.89,-519.5 646.89,-516 646.89,-523"/>
</g>
<!-- Node17&#45;&gt;Node17 -->
<g id="edge20" class="edge">
<title>Node17&#45;&gt;Node17</title>
<path fill="none" stroke="midnightblue" d="M245.51,-198.36C241.42,-208.04 253.91,-216.5 283,-216.5 301.18,-216.5 312.88,-213.2 318.1,-208.36"/>
<polygon fill="midnightblue" stroke="midnightblue" points="321.56,-208.9 320.49,-198.36 314.76,-207.27 321.56,-208.9"/>
</g>
<!-- Node18 -->
<g id="node18" class="node">
<title>Node18</title>
<g id="a_node18"><a xlink:href="classdenoptim_1_1gui_1_1_parameters_form.html#a32d73057266a7b76fdf463cbf4400547" target="_top" xlink:title=" ">
<polygon fill="white" stroke="black" points="430.5,-206.5 430.5,-236.5 600.5,-236.5 600.5,-206.5 430.5,-206.5"/>
<text text-anchor="start" x="438.5" y="-224.5" font-family="Helvetica,sans-Serif" font-size="10.00">denoptim.gui.ParametersForm.clear</text>
<text text-anchor="middle" x="515.5" y="-213.5" font-family="Helvetica,sans-Serif" font-size="10.00">UnformattedTxtArea</text>
</a>
</g>
</g>
<!-- Node17&#45;&gt;Node18 -->
<g id="edge19" class="edge">
<title>Node17&#45;&gt;Node18</title>
<path fill="none" stroke="midnightblue" d="M374.11,-194.7C391.1,-197.94 408.86,-201.33 425.81,-204.57"/>
<polygon fill="midnightblue" stroke="midnightblue" points="425.21,-208.02 435.69,-206.46 426.52,-201.14 425.21,-208.02"/>
</g>
<!-- Node19 -->
<g id="node19" class="node">
<title>Node19</title>
<g id="a_node19"><a xlink:href="classdenoptim_1_1gui_1_1_parameters_form.html#aa73e9df9398e76e8f146f8b70e4a468c" target="_top" xlink:title="Shown a warning dialog that informs the user about having found text that is not present in the Param...">
<polygon fill="white" stroke="black" points="429.5,-157.5 429.5,-187.5 601.5,-187.5 601.5,-157.5 429.5,-157.5"/>
<text text-anchor="start" x="437.5" y="-175.5" font-family="Helvetica,sans-Serif" font-size="10.00">denoptim.gui.ParametersForm.show</text>
<text text-anchor="middle" x="515.5" y="-164.5" font-family="Helvetica,sans-Serif" font-size="10.00">UnknownKeyWarning</text>
</a>
</g>
</g>
<!-- Node17&#45;&gt;Node19 -->
<g id="edge21" class="edge">
<title>Node17&#45;&gt;Node19</title>
<path fill="none" stroke="midnightblue" d="M374.11,-175.55C388.88,-175.22 404.23,-174.89 419.13,-174.57"/>
<polygon fill="midnightblue" stroke="midnightblue" points="419.43,-178.06 429.36,-174.35 419.28,-171.06 419.43,-178.06"/>
</g>
<!-- Node21 -->
<g id="node21" class="node">
<title>Node21</title>
<g id="a_node21"><a xlink:href="classdenoptim_1_1gui_1_1_g_u_i_file_opener.html#ad35e400e91aa5777334a672546a124cc" target="_top" xlink:title=" ">
<polygon fill="white" stroke="black" points="428,-114 428,-133 603,-133 603,-114 428,-114"/>
<text text-anchor="middle" x="515.5" y="-121" font-family="Helvetica,sans-Serif" font-size="10.00">denoptim.gui.GUIFileOpener.pickFile</text>
</a>
</g>
</g>
<!-- Node20&#45;&gt;Node21 -->
<g id="edge23" class="edge">
<title>Node20&#45;&gt;Node21</title>
<path fill="none" stroke="midnightblue" d="M362.68,-123.5C380.4,-123.5 399.4,-123.5 417.76,-123.5"/>
<polygon fill="midnightblue" stroke="midnightblue" points="417.88,-127 427.88,-123.5 417.88,-120 417.88,-127"/>
</g>
</g>
</svg>
        <g id="navigator" transform="translate(0 0)" fill="#404254">
                <rect fill="#f2f5e9" fill-opacity="0.5" stroke="#606060" stroke-width=".5" x="0" y="0" width="60" height="60"/>
                <use id="zoomplus" xlink:href="#zoomPlus" x="17" y="9" onmousedown="handleZoom(evt,'in')"/>
                <use id="zoomminus" xlink:href="#zoomMin" x="42" y="9" onmousedown="handleZoom(evt,'out')"/>
                <use id="reset" xlink:href="#resetDef" x="30" y="36" onmousedown="handleReset()"/>
                <g id="arrowUp" xlink:href="#dirArrow" transform="translate(30 24)" onmousedown="handlePan(0,-1)">
                  <use xlink:href="#rim" fill="#404040">
                        <set attributeName="fill" to="#808080" begin="arrowUp.mouseover" end="arrowUp.mouseout"/>
                  </use>
                  <path fill="none" stroke="white" stroke-width="1.5" d="M0,-3.0v7 M-2.5,-0.5L0,-3.0L2.5,-0.5"/>
                </g>
                <g id="arrowRight" xlink:href="#dirArrow" transform="rotate(90) translate(36 -43)" onmousedown="handlePan(1,0)">
                  <use xlink:href="#rim" fill="#404040">
                        <set attributeName="fill" to="#808080" begin="arrowRight.mouseover" end="arrowRight.mouseout"/>
                  </use>
                  <path fill="none" stroke="white" stroke-width="1.5" d="M0,-3.0v7 M-2.5,-0.5L0,-3.0L2.5,-0.5"/>
                </g>
                <g id="arrowDown" xlink:href="#dirArrow" transform="rotate(180) translate(-30 -48)" onmousedown="handlePan(0,1)">
                  <use xlink:href="#rim" fill="#404040">
                        <set attributeName="fill" to="#808080" begin="arrowDown.mouseover" end="arrowDown.mouseout"/>
                  </use>
                  <path fill="none" stroke="white" stroke-width="1.5" d="M0,-3.0v7 M-2.5,-0.5L0,-3.0L2.5,-0.5"/>
                </g>
                <g id="arrowLeft" xlink:href="#dirArrow" transform="rotate(270) translate(-36 17)" onmousedown="handlePan(-1,0)">
                  <use xlink:href="#rim" fill="#404040">
                        <set attributeName="fill" to="#808080" begin="arrowLeft.mouseover" end="arrowLeft.mouseout"/>
                  </use>
                  <path fill="none" stroke="white" stroke-width="1.5" d="M0,-3.0v7 M-2.5,-0.5L0,-3.0L2.5,-0.5"/>
                </g>
        </g>
        <svg viewBox="0 0 15 15" width="100%" height="30px" preserveAspectRatio="xMaxYMin meet">
         <g id="arrow_out" transform="scale(0.3 0.3)">
          <a xlink:href="classdenoptim_1_1gui_1_1_fitness_parameters_form_a989880b9075bcb6124c36a444731b6a9_cgraph_org.svg" target="_base">
           <rect id="button" ry="5" rx="5" y="6" x="6" height="38" width="38"
                fill="#f2f5e9" fill-opacity="0.5" stroke="#606060" stroke-width="1.0"/>
           <path id="arrow"
             d="M 11.500037,31.436501 C 11.940474,20.09759 22.043105,11.32322 32.158766,21.979434 L 37.068811,17.246167 C 37.068811,17.246167 37.088388,32 37.088388,32 L 22.160133,31.978069 C 22.160133,31.978069 26.997745,27.140456 26.997745,27.140456 C 18.528582,18.264221 13.291696,25.230495 11.500037,31.436501 z"
             style="fill:#404040;"/>
          </a>
         </g>
        </svg>
</svg>
