<?xml version="1.0" encoding="UTF-8" standalone="no"?>
<!DOCTYPE svg PUBLIC "-//W3C//DTD SVG 1.1//EN"
 "http://www.w3.org/Graphics/SVG/1.1/DTD/svg11.dtd">
<!-- Generated by graphviz version 3.0.0 (20221109.1736)
 -->
<!-- Title: denoptim.graph.Fragment.getSymmetricAPSets Pages: 1 -->
<svg width="1206pt" height="708pt"
 viewBox="0.00 0.00 1206.00 707.50" xmlns="http://www.w3.org/2000/svg" xmlns:xlink="http://www.w3.org/1999/xlink">
<g id="graph0" class="graph" transform="scale(1 1) rotate(0) translate(4 703.5)">
<title>denoptim.graph.Fragment.getSymmetricAPSets</title>
<polygon fill="white" stroke="transparent" points="-4,4 -4,-703.5 1202,-703.5 1202,4 -4,4"/>
<!-- Node1 -->
<g id="node1" class="node">
<title>Node1</title>
<g id="a_node1"><a xlink:title=" ">
<polygon fill="#bfbfbf" stroke="black" points="1056,-345 1056,-375 1198,-375 1198,-345 1056,-345"/>
<text text-anchor="start" x="1064" y="-363" font-family="Helvetica,sans-Serif" font-size="10.00">denoptim.graph.Fragment.get</text>
<text text-anchor="middle" x="1127" y="-352" font-family="Helvetica,sans-Serif" font-size="10.00">SymmetricAPSets</text>
</a>
</g>
</g>
<!-- Node2 -->
<g id="node2" class="node">
<title>Node2</title>
<g id="a_node2"><a xlink:href="classdenoptim_1_1graph_1_1_fragment.html#a3b476687a392e637d2bf2f3b6ccb09a4" target="_top" xlink:title="Returns a deep copy of this fragments.">
<polygon fill="white" stroke="black" points="848.5,-394.5 848.5,-413.5 1000.5,-413.5 1000.5,-394.5 848.5,-394.5"/>
<text text-anchor="middle" x="924.5" y="-401.5" font-family="Helvetica,sans-Serif" font-size="10.00">denoptim.graph.Fragment.clone</text>
</a>
</g>
</g>
<!-- Node1&#45;&gt;Node2 -->
<g id="edge1" class="edge">
<title>Node1&#45;&gt;Node2</title>
<path fill="none" stroke="midnightblue" d="M1050.1,-377.32C1039.99,-379.59 1029.75,-381.87 1020,-384 1004.11,-387.48 986.69,-391.19 971.19,-394.47"/>
<polygon fill="midnightblue" stroke="midnightblue" points="1051.17,-380.67 1060.16,-375.06 1049.63,-373.84 1051.17,-380.67"/>
</g>
<!-- Node13 -->
<g id="node13" class="node">
<title>Node13</title>
<g id="a_node13"><a xlink:href="classdenoptim_1_1graph_1_1_fragment_test.html#a0a98792d99861bb6673e66a76ff49d31" target="_top" xlink:title=" ">
<polygon fill="white" stroke="black" points="614,-669 614,-699 778,-699 778,-669 614,-669"/>
<text text-anchor="start" x="622" y="-687" font-family="Helvetica,sans-Serif" font-size="10.00">denoptim.graph.FragmentTest.test</text>
<text text-anchor="middle" x="696" y="-676" font-family="Helvetica,sans-Serif" font-size="10.00">Clone</text>
</a>
</g>
</g>
<!-- Node1&#45;&gt;Node13 -->
<g id="edge24" class="edge">
<title>Node1&#45;&gt;Node13</title>
<path fill="none" stroke="midnightblue" d="M1116.6,-384.78C1101.3,-422.39 1067.82,-494.32 1020,-540 946.63,-610.08 833.39,-649.68 762.33,-668.96"/>
<polygon fill="midnightblue" stroke="midnightblue" points="1120,-385.72 1120.43,-375.13 1113.49,-383.13 1120,-385.72"/>
</g>
<!-- Node14 -->
<g id="node14" class="node">
<title>Node14</title>
<g id="a_node14"><a xlink:href="classdenoptim_1_1graph_1_1_vertex_test.html#ab36c441c57e9852e2be6d810d80fbc87" target="_top" xlink:title=" ">
<polygon fill="white" stroke="black" points="620.5,-620 620.5,-650 771.5,-650 771.5,-620 620.5,-620"/>
<text text-anchor="start" x="628.5" y="-638" font-family="Helvetica,sans-Serif" font-size="10.00">denoptim.graph.VertexTest.test</text>
<text text-anchor="middle" x="696" y="-627" font-family="Helvetica,sans-Serif" font-size="10.00">Clone</text>
</a>
</g>
</g>
<!-- Node1&#45;&gt;Node14 -->
<g id="edge25" class="edge">
<title>Node1&#45;&gt;Node14</title>
<path fill="none" stroke="midnightblue" d="M1103.32,-382.21C1052.33,-430.9 922.88,-547.68 793,-610 785,-613.84 776.34,-617.14 767.6,-619.97"/>
<polygon fill="midnightblue" stroke="midnightblue" points="1105.76,-384.72 1110.55,-375.26 1100.91,-379.67 1105.76,-384.72"/>
</g>
<!-- Node23 -->
<g id="node23" class="node">
<title>Node23</title>
<g id="a_node23"><a xlink:href="classdenoptim_1_1graph_1_1_fragment_test.html#a12552fabbb6c8af399da78f10279fce2" target="_top" xlink:title=" ">
<polygon fill="white" stroke="black" points="842.5,-345 842.5,-375 1006.5,-375 1006.5,-345 842.5,-345"/>
<text text-anchor="start" x="850.5" y="-363" font-family="Helvetica,sans-Serif" font-size="10.00">denoptim.graph.FragmentTest.test</text>
<text text-anchor="middle" x="924.5" y="-352" font-family="Helvetica,sans-Serif" font-size="10.00">ConversionToIAC</text>
</a>
</g>
</g>
<!-- Node1&#45;&gt;Node23 -->
<g id="edge26" class="edge">
<title>Node1&#45;&gt;Node23</title>
<path fill="none" stroke="midnightblue" d="M1045.67,-360C1032.79,-360 1019.47,-360 1006.58,-360"/>
<polygon fill="midnightblue" stroke="midnightblue" points="1045.87,-363.5 1055.87,-360 1045.87,-356.5 1045.87,-363.5"/>
</g>
<!-- Node24 -->
<g id="node24" class="node">
<title>Node24</title>
<g id="a_node24"><a xlink:href="classdenoptim_1_1graph_1_1_symmetric_a_ps_test.html#a9425bd6d6e87f4d8ff966498564a3633" target="_top" xlink:title=" ">
<polygon fill="white" stroke="black" points="851.5,-296 851.5,-326 997.5,-326 997.5,-296 851.5,-296"/>
<text text-anchor="start" x="859.5" y="-314" font-family="Helvetica,sans-Serif" font-size="10.00">denoptim.graph.Symmetric</text>
<text text-anchor="middle" x="924.5" y="-303" font-family="Helvetica,sans-Serif" font-size="10.00">APsTest.testGetSameAsThis</text>
</a>
</g>
</g>
<!-- Node1&#45;&gt;Node24 -->
<g id="edge27" class="edge">
<title>Node1&#45;&gt;Node24</title>
<path fill="none" stroke="midnightblue" d="M1054.49,-342.52C1032.39,-337.12 1008.26,-331.22 986.9,-326.01"/>
<polygon fill="midnightblue" stroke="midnightblue" points="1053.94,-345.99 1064.48,-344.97 1055.6,-339.19 1053.94,-345.99"/>
</g>
<!-- Node25 -->
<g id="node25" class="node">
<title>Node25</title>
<g id="a_node25"><a xlink:href="classdenoptim_1_1json_1_1_d_e_n_o_p_t_i_mgson_test.html#ac2186d67581bef7c19379247af6672d6" target="_top" xlink:title=" ">
<polygon fill="white" stroke="black" points="829,-247 829,-277 1020,-277 1020,-247 829,-247"/>
<text text-anchor="start" x="837" y="-265" font-family="Helvetica,sans-Serif" font-size="10.00">denoptim.json.DENOPTIMgson</text>
<text text-anchor="middle" x="924.5" y="-254" font-family="Helvetica,sans-Serif" font-size="10.00">Test.testMolecularFragmentSerialization</text>
</a>
</g>
</g>
<!-- Node1&#45;&gt;Node25 -->
<g id="edge28" class="edge">
<title>Node1&#45;&gt;Node25</title>
<path fill="none" stroke="midnightblue" d="M1100.57,-338.27C1080.04,-321.75 1049.78,-299.62 1020,-286 1012.53,-282.58 1004.51,-279.6 996.4,-277.01"/>
<polygon fill="midnightblue" stroke="midnightblue" points="1098.52,-341.11 1108.47,-344.74 1102.95,-335.7 1098.52,-341.11"/>
</g>
<!-- Node26 -->
<g id="node26" class="node">
<title>Node26</title>
<g id="a_node26"><a xlink:href="classdenoptim_1_1graph_1_1_symmetric_a_ps_test.html#a90b0920db91160f9d8f797d5167e39de" target="_top" xlink:title=" ">
<polygon fill="white" stroke="black" points="859,-198 859,-228 990,-228 990,-198 859,-198"/>
<text text-anchor="start" x="867" y="-216" font-family="Helvetica,sans-Serif" font-size="10.00">denoptim.graph.Symmetric</text>
<text text-anchor="middle" x="924.5" y="-205" font-family="Helvetica,sans-Serif" font-size="10.00">APsTest.testSameAs</text>
</a>
</g>
</g>
<!-- Node1&#45;&gt;Node26 -->
<g id="edge29" class="edge">
<title>Node1&#45;&gt;Node26</title>
<path fill="none" stroke="midnightblue" d="M1111.89,-336.12C1094.05,-308.08 1060.71,-262.19 1020,-237 1010.93,-231.39 1000.6,-227.09 990.18,-223.79"/>
<polygon fill="midnightblue" stroke="midnightblue" points="1109.08,-338.24 1117.33,-344.9 1115.03,-334.55 1109.08,-338.24"/>
</g>
<!-- Node2&#45;&gt;Node2 -->
<g id="edge2" class="edge">
<title>Node2&#45;&gt;Node2</title>
<path fill="none" stroke="midnightblue" d="M962.37,-421.5C962.37,-427.34 949.74,-432 924.5,-432 888.6,-432 878.22,-422.57 893.37,-413.76"/>
<polygon fill="midnightblue" stroke="midnightblue" points="964.84,-419 955.63,-413.76 959.56,-423.6 964.84,-419"/>
</g>
<!-- Node3 -->
<g id="node3" class="node">
<title>Node3</title>
<g id="a_node3"><a xlink:href="classdenoptim_1_1fragmenter_1_1_fragmenter_tools.html#a37c0e44680ec1c54fcff98dae0832a50" target="_top" xlink:title="Chops one chemical structure by applying the given cutting rules.">
<polygon fill="white" stroke="black" points="617.5,-267 617.5,-297 774.5,-297 774.5,-267 617.5,-267"/>
<text text-anchor="start" x="625.5" y="-285" font-family="Helvetica,sans-Serif" font-size="10.00">denoptim.fragmenter.Fragmenter</text>
<text text-anchor="middle" x="696" y="-274" font-family="Helvetica,sans-Serif" font-size="10.00">Tools.fragmentation</text>
</a>
</g>
</g>
<!-- Node2&#45;&gt;Node3 -->
<g id="edge3" class="edge">
<title>Node2&#45;&gt;Node3</title>
<path fill="none" stroke="midnightblue" d="M839.11,-390.69C835.55,-388.74 832.15,-386.52 829,-384 799.16,-360.19 822.41,-330.35 793,-306 787.58,-301.51 781.43,-297.84 774.92,-294.84"/>
<polygon fill="midnightblue" stroke="midnightblue" points="837.75,-393.92 848.28,-395.04 840.74,-387.59 837.75,-393.92"/>
</g>
<!-- Node4 -->
<g id="node4" class="node">
<title>Node4</title>
<g id="a_node4"><a xlink:href="classdenoptim_1_1fragmenter_1_1_clusterable_fragment.html#a1e02c5f6054d5764ff597bd12337345a" target="_top" xlink:title=" ">
<polygon fill="white" stroke="black" points="618,-218 618,-248 774,-248 774,-218 618,-218"/>
<text text-anchor="start" x="626" y="-236" font-family="Helvetica,sans-Serif" font-size="10.00">denoptim.fragmenter.Clusterable</text>
<text text-anchor="middle" x="696" y="-225" font-family="Helvetica,sans-Serif" font-size="10.00">Fragment.getTransformedCopy</text>
</a>
</g>
</g>
<!-- Node2&#45;&gt;Node4 -->
<g id="edge4" class="edge">
<title>Node2&#45;&gt;Node4</title>
<path fill="none" stroke="midnightblue" d="M839.39,-391.75C835.67,-389.53 832.17,-386.96 829,-384 786.14,-343.94 835.13,-297.83 793,-257 787.57,-251.74 781.17,-247.58 774.3,-244.29"/>
<polygon fill="midnightblue" stroke="midnightblue" points="837.93,-394.94 848.43,-396.34 841.1,-388.7 837.93,-394.94"/>
</g>
<!-- Node11 -->
<g id="node11" class="node">
<title>Node11</title>
<g id="a_node11"><a xlink:href="classdenoptim_1_1graph_1_1rings_1_1_ring_size_manager_test.html#ac3efa7ffa90ffbdb876e8489054b02af" target="_top" xlink:title="Build a graph meant to be used in unit tests.">
<polygon fill="white" stroke="black" points="610.5,-169 610.5,-199 781.5,-199 781.5,-169 610.5,-169"/>
<text text-anchor="start" x="618.5" y="-187" font-family="Helvetica,sans-Serif" font-size="10.00">denoptim.graph.rings.Ring</text>
<text text-anchor="middle" x="696" y="-176" font-family="Helvetica,sans-Serif" font-size="10.00">SizeManagerTest.makeTestGraphA</text>
</a>
</g>
</g>
<!-- Node2&#45;&gt;Node11 -->
<g id="edge12" class="edge">
<title>Node2&#45;&gt;Node11</title>
<path fill="none" stroke="midnightblue" d="M839.35,-392.18C835.61,-389.85 832.12,-387.15 829,-384 772.74,-327.35 848.22,-265.66 793,-208 789.67,-204.53 785.93,-201.52 781.89,-198.93"/>
<polygon fill="midnightblue" stroke="midnightblue" points="838.01,-395.43 848.49,-396.96 841.25,-389.23 838.01,-395.43"/>
</g>
<!-- Node12 -->
<g id="node12" class="node">
<title>Node12</title>
<g id="a_node12"><a xlink:href="classdenoptim_1_1ga_1_1_graph_operations_test.html#af86b79061d15a4d2e3d7ccdf0d758f44" target="_top" xlink:title=" ">
<polygon fill="white" stroke="black" points="623.5,-120 623.5,-150 768.5,-150 768.5,-120 623.5,-120"/>
<text text-anchor="start" x="631.5" y="-138" font-family="Helvetica,sans-Serif" font-size="10.00">denoptim.ga.GraphOperations</text>
<text text-anchor="middle" x="696" y="-127" font-family="Helvetica,sans-Serif" font-size="10.00">Test.testAddRing</text>
</a>
</g>
</g>
<!-- Node2&#45;&gt;Node12 -->
<g id="edge13" class="edge">
<title>Node2&#45;&gt;Node12</title>
<path fill="none" stroke="midnightblue" d="M839.19,-392.34C835.49,-389.97 832.06,-387.21 829,-384 759.2,-310.63 861.45,-233.63 793,-159 786.38,-151.78 777.95,-146.59 768.84,-142.88"/>
<polygon fill="midnightblue" stroke="midnightblue" points="837.78,-395.56 848.25,-397.19 841.08,-389.39 837.78,-395.56"/>
</g>
<!-- Node2&#45;&gt;Node13 -->
<g id="edge14" class="edge">
<title>Node2&#45;&gt;Node13</title>
<path fill="none" stroke="midnightblue" d="M919.41,-423.48C908.25,-471.57 872.67,-596.6 793,-660 788.43,-663.64 783.38,-666.73 778.06,-669.36"/>
<polygon fill="midnightblue" stroke="midnightblue" points="922.83,-424.23 921.58,-413.71 915.99,-422.71 922.83,-424.23"/>
</g>
<!-- Node2&#45;&gt;Node14 -->
<g id="edge15" class="edge">
<title>Node2&#45;&gt;Node14</title>
<path fill="none" stroke="midnightblue" d="M910.71,-422.02C892.05,-448.52 856.61,-499.78 829,-545 811.79,-573.19 819.09,-589.76 793,-610 786.6,-614.96 779.32,-618.94 771.69,-622.14"/>
<polygon fill="midnightblue" stroke="midnightblue" points="913.65,-423.91 916.56,-413.73 907.93,-419.88 913.65,-423.91"/>
</g>
<!-- Node15 -->
<g id="node15" class="node">
<title>Node15</title>
<g id="a_node15"><a xlink:href="classdenoptim_1_1graph_1_1rings_1_1_path_closability_tools_test.html#af991094bf8c17599150d2e43ea582cf9" target="_top" xlink:title=" ">
<polygon fill="white" stroke="black" points="615.5,-60.5 615.5,-101.5 776.5,-101.5 776.5,-60.5 615.5,-60.5"/>
<text text-anchor="start" x="623.5" y="-89.5" font-family="Helvetica,sans-Serif" font-size="10.00">denoptim.graph.rings.Path</text>
<text text-anchor="start" x="623.5" y="-78.5" font-family="Helvetica,sans-Serif" font-size="10.00">ClosabilityToolsTest.testEvaluate</text>
<text text-anchor="middle" x="696" y="-67.5" font-family="Helvetica,sans-Serif" font-size="10.00">ConstitutionalClosability</text>
</a>
</g>
</g>
<!-- Node2&#45;&gt;Node15 -->
<g id="edge16" class="edge">
<title>Node2&#45;&gt;Node15</title>
<path fill="none" stroke="midnightblue" d="M839.08,-392.45C835.41,-390.05 832.01,-387.25 829,-384 745.6,-293.83 872.5,-203.62 793,-110 788.38,-104.56 782.78,-100.12 776.62,-96.49"/>
<polygon fill="midnightblue" stroke="midnightblue" points="837.63,-395.64 848.09,-397.34 840.97,-389.49 837.63,-395.64"/>
</g>
<!-- Node16 -->
<g id="node16" class="node">
<title>Node16</title>
<g id="a_node16"><a xlink:href="classdenoptim_1_1graph_1_1rings_1_1_random_comb_of_ring_iterator_test.html#a4a178f479d08c120f5fea6ef60feac8b" target="_top" xlink:title=" ">
<polygon fill="white" stroke="black" points="606.5,-0.5 606.5,-41.5 785.5,-41.5 785.5,-0.5 606.5,-0.5"/>
<text text-anchor="start" x="614.5" y="-29.5" font-family="Helvetica,sans-Serif" font-size="10.00">denoptim.graph.rings.Random</text>
<text text-anchor="start" x="614.5" y="-18.5" font-family="Helvetica,sans-Serif" font-size="10.00">CombOfRingIteratorTest.testEvaluate</text>
<text text-anchor="middle" x="696" y="-7.5" font-family="Helvetica,sans-Serif" font-size="10.00">ConstitutionalClosability</text>
</a>
</g>
</g>
<!-- Node2&#45;&gt;Node16 -->
<g id="edge17" class="edge">
<title>Node2&#45;&gt;Node16</title>
<path fill="none" stroke="midnightblue" d="M839.53,-392.89C835.67,-390.39 832.12,-387.45 829,-384 729.18,-273.57 887.5,-166.02 793,-51 790.12,-47.49 786.83,-44.39 783.25,-41.64"/>
<polygon fill="midnightblue" stroke="midnightblue" points="837.95,-396.01 848.41,-397.67 841.27,-389.85 837.95,-396.01"/>
</g>
<!-- Node17 -->
<g id="node17" class="node">
<title>Node17</title>
<g id="a_node17"><a xlink:href="classdenoptim_1_1graph_1_1rings_1_1_ring_size_manager_test.html#a55d1482a18edbaabf15b090392a282f3" target="_top" xlink:title=" ">
<polygon fill="white" stroke="black" points="603,-571 603,-601 789,-601 789,-571 603,-571"/>
<text text-anchor="start" x="611" y="-589" font-family="Helvetica,sans-Serif" font-size="10.00">denoptim.graph.rings.Ring</text>
<text text-anchor="middle" x="696" y="-578" font-family="Helvetica,sans-Serif" font-size="10.00">SizeManagerTest.testEvaluateRCVPair</text>
</a>
</g>
</g>
<!-- Node2&#45;&gt;Node17 -->
<g id="edge18" class="edge">
<title>Node2&#45;&gt;Node17</title>
<path fill="none" stroke="midnightblue" d="M913.38,-422.56C894.34,-455.67 849.93,-524.83 793,-561 786.89,-564.88 780.21,-568.16 773.3,-570.93"/>
<polygon fill="midnightblue" stroke="midnightblue" points="916.61,-423.95 918.46,-413.52 910.51,-420.52 916.61,-423.95"/>
</g>
<!-- Node18 -->
<g id="node18" class="node">
<title>Node18</title>
<g id="a_node18"><a xlink:href="classdenoptim_1_1ga_1_1_graph_operations_test.html#a2b8d6293663bce9a9da1d35efe31911b" target="_top" xlink:title=" ">
<polygon fill="white" stroke="black" points="623.5,-522 623.5,-552 768.5,-552 768.5,-522 623.5,-522"/>
<text text-anchor="start" x="631.5" y="-540" font-family="Helvetica,sans-Serif" font-size="10.00">denoptim.ga.GraphOperations</text>
<text text-anchor="middle" x="696" y="-529" font-family="Helvetica,sans-Serif" font-size="10.00">Test.testExtendGraph</text>
</a>
</g>
</g>
<!-- Node2&#45;&gt;Node18 -->
<g id="edge19" class="edge">
<title>Node2&#45;&gt;Node18</title>
<path fill="none" stroke="midnightblue" d="M908.23,-420.87C885.48,-444.97 840.28,-488.96 793,-513 785.34,-516.89 777.02,-520.18 768.57,-522.95"/>
<polygon fill="midnightblue" stroke="midnightblue" points="910.81,-423.23 915.05,-413.52 905.68,-418.47 910.81,-423.23"/>
</g>
<!-- Node19 -->
<g id="node19" class="node">
<title>Node19</title>
<g id="a_node19"><a xlink:href="classdenoptim_1_1fragmenter_1_1_conformer_extractor_task_test.html#a2dc64f375774087fc0b4511384f50bc9" target="_top" xlink:title=" ">
<polygon fill="white" stroke="black" points="599,-462.5 599,-503.5 793,-503.5 793,-462.5 599,-462.5"/>
<text text-anchor="start" x="607" y="-491.5" font-family="Helvetica,sans-Serif" font-size="10.00">denoptim.fragmenter.Conformer</text>
<text text-anchor="start" x="607" y="-480.5" font-family="Helvetica,sans-Serif" font-size="10.00">ExtractorTaskTest.testExtractClusterable</text>
<text text-anchor="middle" x="696" y="-469.5" font-family="Helvetica,sans-Serif" font-size="10.00">Fragments</text>
</a>
</g>
</g>
<!-- Node2&#45;&gt;Node19 -->
<g id="edge20" class="edge">
<title>Node2&#45;&gt;Node19</title>
<path fill="none" stroke="midnightblue" d="M889.64,-417.31C863.4,-427.48 826.08,-441.63 793,-453 783.75,-456.18 773.96,-459.4 764.3,-462.5"/>
<polygon fill="midnightblue" stroke="midnightblue" points="891.07,-420.51 899.12,-413.63 888.53,-413.99 891.07,-420.51"/>
</g>
<!-- Node20 -->
<g id="node20" class="node">
<title>Node20</title>
<g id="a_node20"><a xlink:href="classdenoptim_1_1fragmenter_1_1_fragment_alignement_test.html#ad46b9a4324bb5b9bbfc08c73de0e1124" target="_top" xlink:title=" ">
<polygon fill="white" stroke="black" points="602,-414 602,-444 790,-444 790,-414 602,-414"/>
<text text-anchor="start" x="610" y="-432" font-family="Helvetica,sans-Serif" font-size="10.00">denoptim.fragmenter.Fragment</text>
<text text-anchor="middle" x="696" y="-421" font-family="Helvetica,sans-Serif" font-size="10.00">AlignementTest.testGetMinimumRMSD</text>
</a>
</g>
</g>
<!-- Node2&#45;&gt;Node20 -->
<g id="edge21" class="edge">
<title>Node2&#45;&gt;Node20</title>
<path fill="none" stroke="midnightblue" d="M838.19,-413.42C822.47,-415.15 805.99,-416.97 790.06,-418.73"/>
<polygon fill="midnightblue" stroke="midnightblue" points="838.84,-416.87 848.39,-412.29 838.07,-409.91 838.84,-416.87"/>
</g>
<!-- Node21 -->
<g id="node21" class="node">
<title>Node21</title>
<g id="a_node21"><a xlink:href="classdenoptim_1_1graph_1_1_attachment_point_test.html#af88d30ce68477984fe6179325d1540b2" target="_top" xlink:title=" ">
<polygon fill="white" stroke="black" points="606,-365 606,-395 786,-395 786,-365 606,-365"/>
<text text-anchor="start" x="614" y="-383" font-family="Helvetica,sans-Serif" font-size="10.00">denoptim.graph.Attachment</text>
<text text-anchor="middle" x="696" y="-372" font-family="Helvetica,sans-Serif" font-size="10.00">PointTest.testHasConnectedSrcAtom</text>
</a>
</g>
</g>
<!-- Node2&#45;&gt;Node21 -->
<g id="edge22" class="edge">
<title>Node2&#45;&gt;Node21</title>
<path fill="none" stroke="midnightblue" d="M838.44,-394.99C821.33,-393.17 803.3,-391.26 786.06,-389.44"/>
<polygon fill="midnightblue" stroke="midnightblue" points="838.08,-398.47 848.39,-396.04 838.82,-391.51 838.08,-398.47"/>
</g>
<!-- Node22 -->
<g id="node22" class="node">
<title>Node22</title>
<g id="a_node22"><a xlink:href="classdenoptim_1_1graph_1_1_attachment_point_test.html#a4889032266eb87d0f91af8b4e9869360" target="_top" xlink:title=" ">
<polygon fill="white" stroke="black" points="616.5,-316 616.5,-346 775.5,-346 775.5,-316 616.5,-316"/>
<text text-anchor="start" x="624.5" y="-334" font-family="Helvetica,sans-Serif" font-size="10.00">denoptim.graph.Attachment</text>
<text text-anchor="middle" x="696" y="-323" font-family="Helvetica,sans-Serif" font-size="10.00">PointTest.testHasSameSrcAtom</text>
</a>
</g>
</g>
<!-- Node2&#45;&gt;Node22 -->
<g id="edge23" class="edge">
<title>Node2&#45;&gt;Node22</title>
<path fill="none" stroke="midnightblue" d="M848.46,-391.56C841.74,-389.42 835.16,-386.92 829,-384 810.44,-375.19 811.4,-364.15 793,-355 786.08,-351.56 778.62,-348.58 771.04,-346.02"/>
<polygon fill="midnightblue" stroke="midnightblue" points="847.79,-395.01 858.37,-394.44 849.75,-388.29 847.79,-395.01"/>
</g>
<!-- Node5 -->
<g id="node5" class="node">
<title>Node5</title>
<g id="a_node5"><a xlink:href="classdenoptim_1_1fragmenter_1_1_fragment_clusterer.html#a1845241fead0bee7fd92feaf6d71e331" target="_top" xlink:title="Once the clustering is done, this method return the list of cluster centroids.">
<polygon fill="white" stroke="black" points="394,-218 394,-248 543,-248 543,-218 394,-218"/>
<text text-anchor="start" x="402" y="-236" font-family="Helvetica,sans-Serif" font-size="10.00">denoptim.fragmenter.Fragment</text>
<text text-anchor="middle" x="468.5" y="-225" font-family="Helvetica,sans-Serif" font-size="10.00">Clusterer.getClusterCentroids</text>
</a>
</g>
</g>
<!-- Node4&#45;&gt;Node5 -->
<g id="edge5" class="edge">
<title>Node4&#45;&gt;Node5</title>
<path fill="none" stroke="midnightblue" d="M607.71,-233C586.42,-233 563.85,-233 543.26,-233"/>
<polygon fill="midnightblue" stroke="midnightblue" points="607.71,-236.5 617.71,-233 607.71,-229.5 607.71,-236.5"/>
</g>
<!-- Node9 -->
<g id="node9" class="node">
<title>Node9</title>
<g id="a_node9"><a xlink:href="classdenoptim_1_1fragmenter_1_1_fragment_clusterer.html#aae37739ae959ab8a85bf01286c5a518e" target="_top" xlink:title="Once the clustering is done, this method return the list of fragments that are nearest to the respect...">
<polygon fill="white" stroke="black" points="374,-267 374,-297 563,-297 563,-267 374,-267"/>
<text text-anchor="start" x="382" y="-285" font-family="Helvetica,sans-Serif" font-size="10.00">denoptim.fragmenter.Fragment</text>
<text text-anchor="middle" x="468.5" y="-274" font-family="Helvetica,sans-Serif" font-size="10.00">Clusterer.getNearestToClusterCentroids</text>
</a>
</g>
</g>
<!-- Node4&#45;&gt;Node9 -->
<g id="edge9" class="edge">
<title>Node4&#45;&gt;Node9</title>
<path fill="none" stroke="midnightblue" d="M615.91,-250.19C590.7,-255.66 563.01,-261.68 538.56,-266.99"/>
<polygon fill="midnightblue" stroke="midnightblue" points="616.78,-253.58 625.81,-248.03 615.29,-246.74 616.78,-253.58"/>
</g>
<!-- Node10 -->
<g id="node10" class="node">
<title>Node10</title>
<g id="a_node10"><a xlink:href="classdenoptim_1_1fragmenter_1_1_clusterable_fragment_test.html#a30be40702849bf4781129bf3dabf88e8" target="_top" xlink:title=" ">
<polygon fill="white" stroke="black" points="374.5,-169 374.5,-199 562.5,-199 562.5,-169 374.5,-169"/>
<text text-anchor="start" x="382.5" y="-187" font-family="Helvetica,sans-Serif" font-size="10.00">denoptim.fragmenter.Clusterable</text>
<text text-anchor="middle" x="468.5" y="-176" font-family="Helvetica,sans-Serif" font-size="10.00">FragmentTest.testGetTransformedCopy</text>
</a>
</g>
</g>
<!-- Node4&#45;&gt;Node10 -->
<g id="edge11" class="edge">
<title>Node4&#45;&gt;Node10</title>
<path fill="none" stroke="midnightblue" d="M615.91,-215.81C590.7,-210.34 563.01,-204.32 538.56,-199.01"/>
<polygon fill="midnightblue" stroke="midnightblue" points="615.29,-219.26 625.81,-217.97 616.78,-212.42 615.29,-219.26"/>
</g>
<!-- Node6 -->
<g id="node6" class="node">
<title>Node6</title>
<g id="a_node6"><a xlink:href="classdenoptim_1_1fragmenter_1_1_conformer_extractor_task.html#aa21ebdf147f5bdb2685f9e775efd0b10" target="_top" xlink:title=" ">
<polygon fill="white" stroke="black" points="186,-267 186,-297 338,-297 338,-267 186,-267"/>
<text text-anchor="start" x="194" y="-285" font-family="Helvetica,sans-Serif" font-size="10.00">denoptim.fragmenter.Conformer</text>
<text text-anchor="middle" x="262" y="-274" font-family="Helvetica,sans-Serif" font-size="10.00">ExtractorTask.call</text>
</a>
</g>
</g>
<!-- Node5&#45;&gt;Node6 -->
<g id="edge6" class="edge">
<title>Node5&#45;&gt;Node6</title>
<path fill="none" stroke="midnightblue" d="M394.87,-250.4C372.24,-255.82 347.5,-261.75 325.63,-266.99"/>
<polygon fill="midnightblue" stroke="midnightblue" points="395.84,-253.77 404.75,-248.03 394.21,-246.96 395.84,-253.77"/>
</g>
<!-- Node8 -->
<g id="node8" class="node">
<title>Node8</title>
<g id="a_node8"><a xlink:href="classdenoptim_1_1fragmenter_1_1_fragment_clusterer_test.html#aa17925160f3f03080e8680c7016fc1c4" target="_top" xlink:title=" ">
<polygon fill="white" stroke="black" points="187.5,-218 187.5,-248 336.5,-248 336.5,-218 187.5,-218"/>
<text text-anchor="start" x="195.5" y="-236" font-family="Helvetica,sans-Serif" font-size="10.00">denoptim.fragmenter.Fragment</text>
<text text-anchor="middle" x="262" y="-225" font-family="Helvetica,sans-Serif" font-size="10.00">ClustererTest.testCluster</text>
</a>
</g>
</g>
<!-- Node5&#45;&gt;Node8 -->
<g id="edge8" class="edge">
<title>Node5&#45;&gt;Node8</title>
<path fill="none" stroke="midnightblue" d="M383.78,-233C368.13,-233 351.89,-233 336.57,-233"/>
<polygon fill="midnightblue" stroke="midnightblue" points="383.96,-236.5 393.96,-233 383.96,-229.5 383.96,-236.5"/>
</g>
<!-- Node7 -->
<g id="node7" class="node">
<title>Node7</title>
<g id="a_node7"><a xlink:href="classdenoptim_1_1programs_1_1fragmenter_1_1_fragmenter.html#aa27df9705e3aed34cc8cb8bc05e6ce85" target="_top" xlink:title=" ">
<polygon fill="white" stroke="black" points="0,-267 0,-297 150,-297 150,-267 0,-267"/>
<text text-anchor="start" x="8" y="-285" font-family="Helvetica,sans-Serif" font-size="10.00">denoptim.programs.fragmenter.</text>
<text text-anchor="middle" x="75" y="-274" font-family="Helvetica,sans-Serif" font-size="10.00">Fragmenter.runProgram</text>
</a>
</g>
</g>
<!-- Node6&#45;&gt;Node7 -->
<g id="edge7" class="edge">
<title>Node6&#45;&gt;Node7</title>
<path fill="none" stroke="midnightblue" d="M175.53,-282C167.1,-282 158.59,-282 150.28,-282"/>
<polygon fill="midnightblue" stroke="midnightblue" points="175.75,-285.5 185.75,-282 175.75,-278.5 175.75,-285.5"/>
</g>
<!-- Node9&#45;&gt;Node6 -->
<g id="edge10" class="edge">
<title>Node9&#45;&gt;Node6</title>
<path fill="none" stroke="midnightblue" d="M363.79,-282C355.14,-282 346.51,-282 338.14,-282"/>
<polygon fill="midnightblue" stroke="midnightblue" points="363.93,-285.5 373.93,-282 363.93,-278.5 363.93,-285.5"/>
</g>
</g>
</svg>
