<?xml version="1.0" encoding="UTF-8" standalone="no"?>
<!DOCTYPE svg PUBLIC "-//W3C//DTD SVG 1.1//EN"
 "http://www.w3.org/Graphics/SVG/1.1/DTD/svg11.dtd">
<!-- Generated by graphviz version 3.0.0 (20221109.1736)
 -->
<!-- Title: denoptim.molecularmodeling.zmatrix.ZMatrixTest.testGetAngleRefAtomIndex Pages: 1 -->
<svg width="830pt" height="179pt"
 viewBox="0.00 0.00 830.00 179.00" xmlns="http://www.w3.org/2000/svg" xmlns:xlink="http://www.w3.org/1999/xlink">
<g id="graph0" class="graph" transform="scale(1 1) rotate(0) translate(4 175)">
<title>denoptim.molecularmodeling.zmatrix.ZMatrixTest.testGetAngleRefAtomIndex</title>
<polygon fill="white" stroke="transparent" points="-4,4 -4,-175 826,-175 826,4 -4,4"/>
<!-- Node1 -->
<g id="node1" class="node">
<title>Node1</title>
<g id="a_node1"><a xlink:title=" ">
<polygon fill="#bfbfbf" stroke="black" points="0,-91.5 0,-121.5 189,-121.5 189,-91.5 0,-91.5"/>
<text text-anchor="start" x="8" y="-109.5" font-family="Helvetica,sans-Serif" font-size="10.00">denoptim.molecularmodeling.zmatrix.</text>
<text text-anchor="middle" x="94.5" y="-98.5" font-family="Helvetica,sans-Serif" font-size="10.00">ZMatrixTest.testGetAngleRefAtomIndex</text>
</a>
</g>
</g>
<!-- Node2 -->
<g id="node2" class="node">
<title>Node2</title>
<g id="a_node2"><a xlink:href="classdenoptim_1_1molecularmodeling_1_1zmatrix_1_1_z_matrix.html#afdcc04b2f8a9fe8f0eeabe867b6ff9e2" target="_top" xlink:title="Get the index of the angle reference atom for the atom at the given index.">
<polygon fill="white" stroke="black" points="225,-116.5 225,-146.5 400,-146.5 400,-116.5 225,-116.5"/>
<text text-anchor="start" x="233" y="-134.5" font-family="Helvetica,sans-Serif" font-size="10.00">denoptim.molecularmodeling.zmatrix.</text>
<text text-anchor="middle" x="312.5" y="-123.5" font-family="Helvetica,sans-Serif" font-size="10.00">ZMatrix.getAngleRefAtomIndex</text>
</a>
</g>
</g>
<!-- Node1&#45;&gt;Node2 -->
<g id="edge1" class="edge">
<title>Node1&#45;&gt;Node2</title>
<path fill="none" stroke="midnightblue" d="M189.3,-117.36C197.81,-118.34 206.44,-119.34 214.97,-120.33"/>
<polygon fill="midnightblue" stroke="midnightblue" points="214.6,-123.81 224.93,-121.48 215.4,-116.85 214.6,-123.81"/>
</g>
<!-- Node6 -->
<g id="node6" class="node">
<title>Node6</title>
<g id="a_node6"><a xlink:href="classdenoptim_1_1molecularmodeling_1_1zmatrix_1_1_z_matrix_test.html#af057822127c5cdb8dd95809365f69f32" target="_top" xlink:title=" ">
<polygon fill="white" stroke="black" points="225,-67.5 225,-97.5 400,-97.5 400,-67.5 225,-67.5"/>
<text text-anchor="start" x="233" y="-85.5" font-family="Helvetica,sans-Serif" font-size="10.00">denoptim.molecularmodeling.zmatrix.</text>
<text text-anchor="middle" x="312.5" y="-74.5" font-family="Helvetica,sans-Serif" font-size="10.00">ZMatrixTest.getTestZMatrix</text>
</a>
</g>
</g>
<!-- Node1&#45;&gt;Node6 -->
<g id="edge5" class="edge">
<title>Node1&#45;&gt;Node6</title>
<path fill="none" stroke="midnightblue" d="M189.3,-96.08C197.81,-95.13 206.44,-94.17 214.97,-93.23"/>
<polygon fill="midnightblue" stroke="midnightblue" points="215.38,-96.7 224.93,-92.12 214.61,-89.74 215.38,-96.7"/>
</g>
<!-- Node3 -->
<g id="node3" class="node">
<title>Node3</title>
<g id="a_node3"><a xlink:href="classdenoptim_1_1molecularmodeling_1_1zmatrix_1_1_z_matrix.html#a4ac6b31dc0dbed6e2b53bb659f7d60d5" target="_top" xlink:title="Get the angle reference atom for the atom at the given index.">
<polygon fill="white" stroke="black" points="436,-116.5 436,-146.5 611,-146.5 611,-116.5 436,-116.5"/>
<text text-anchor="start" x="444" y="-134.5" font-family="Helvetica,sans-Serif" font-size="10.00">denoptim.molecularmodeling.zmatrix.</text>
<text text-anchor="middle" x="523.5" y="-123.5" font-family="Helvetica,sans-Serif" font-size="10.00">ZMatrix.getAngleRefAtom</text>
</a>
</g>
</g>
<!-- Node2&#45;&gt;Node3 -->
<g id="edge2" class="edge">
<title>Node2&#45;&gt;Node3</title>
<path fill="none" stroke="midnightblue" d="M400.02,-131.5C408.49,-131.5 417.13,-131.5 425.7,-131.5"/>
<polygon fill="midnightblue" stroke="midnightblue" points="425.71,-135 435.71,-131.5 425.71,-128 425.71,-135"/>
</g>
<!-- Node4 -->
<g id="node4" class="node">
<title>Node4</title>
<g id="a_node4"><a xlink:href="classdenoptim_1_1molecularmodeling_1_1zmatrix_1_1_z_matrix_atom.html#af58205f6fbb21f9df38755ee8cd17e89" target="_top" xlink:title="Get the angle reference atom.">
<polygon fill="white" stroke="black" points="647,-140.5 647,-170.5 822,-170.5 822,-140.5 647,-140.5"/>
<text text-anchor="start" x="655" y="-158.5" font-family="Helvetica,sans-Serif" font-size="10.00">denoptim.molecularmodeling.zmatrix.</text>
<text text-anchor="middle" x="734.5" y="-147.5" font-family="Helvetica,sans-Serif" font-size="10.00">ZMatrixAtom.getAngleRefAtom</text>
</a>
</g>
</g>
<!-- Node3&#45;&gt;Node4 -->
<g id="edge3" class="edge">
<title>Node3&#45;&gt;Node4</title>
<path fill="none" stroke="midnightblue" d="M611.02,-141.43C619.49,-142.41 628.13,-143.4 636.7,-144.38"/>
<polygon fill="midnightblue" stroke="midnightblue" points="636.38,-147.87 646.71,-145.53 637.18,-140.92 636.38,-147.87"/>
</g>
<!-- Node5 -->
<g id="node5" class="node">
<title>Node5</title>
<g id="a_node5"><a xlink:href="classdenoptim_1_1molecularmodeling_1_1zmatrix_1_1_z_matrix.html#ad0f695527ee91cd88d95d381e55f73cc" target="_top" xlink:title="Get the atom at the given index.">
<polygon fill="white" stroke="black" points="647,-91.5 647,-121.5 822,-121.5 822,-91.5 647,-91.5"/>
<text text-anchor="start" x="655" y="-109.5" font-family="Helvetica,sans-Serif" font-size="10.00">denoptim.molecularmodeling.zmatrix.</text>
<text text-anchor="middle" x="734.5" y="-98.5" font-family="Helvetica,sans-Serif" font-size="10.00">ZMatrix.getAtom</text>
</a>
</g>
</g>
<!-- Node3&#45;&gt;Node5 -->
<g id="edge4" class="edge">
<title>Node3&#45;&gt;Node5</title>
<path fill="none" stroke="midnightblue" d="M611.02,-121.15C619.49,-120.14 628.13,-119.1 636.7,-118.08"/>
<polygon fill="midnightblue" stroke="midnightblue" points="637.2,-121.54 646.71,-116.88 636.37,-114.59 637.2,-121.54"/>
</g>
<!-- Node7 -->
<g id="node7" class="node">
<title>Node7</title>
<g id="a_node7"><a xlink:href="classdenoptim_1_1molecularmodeling_1_1zmatrix_1_1_z_matrix.html#ae9486d28880e0c8225c0092acab98165" target="_top" xlink:title="Add an atom to the ZMatrix.">
<polygon fill="white" stroke="black" points="436,-67.5 436,-97.5 611,-97.5 611,-67.5 436,-67.5"/>
<text text-anchor="start" x="444" y="-85.5" font-family="Helvetica,sans-Serif" font-size="10.00">denoptim.molecularmodeling.zmatrix.</text>
<text text-anchor="middle" x="523.5" y="-74.5" font-family="Helvetica,sans-Serif" font-size="10.00">ZMatrix.addAtom</text>
</a>
</g>
</g>
<!-- Node6&#45;&gt;Node7 -->
<g id="edge6" class="edge">
<title>Node6&#45;&gt;Node7</title>
<path fill="none" stroke="midnightblue" d="M400.02,-82.5C408.49,-82.5 417.13,-82.5 425.7,-82.5"/>
<polygon fill="midnightblue" stroke="midnightblue" points="425.71,-86 435.71,-82.5 425.71,-79 425.71,-86"/>
</g>
<!-- Node8 -->
<g id="node8" class="node">
<title>Node8</title>
<g id="a_node8"><a xlink:href="classdenoptim_1_1molecularmodeling_1_1zmatrix_1_1_z_matrix.html#a74973227abbe71ddf68a01051675a16c" target="_top" xlink:title="Add a bond between the two atoms at the given indices.">
<polygon fill="white" stroke="black" points="436,-0.5 436,-30.5 611,-30.5 611,-0.5 436,-0.5"/>
<text text-anchor="start" x="444" y="-18.5" font-family="Helvetica,sans-Serif" font-size="10.00">denoptim.molecularmodeling.zmatrix.</text>
<text text-anchor="middle" x="523.5" y="-7.5" font-family="Helvetica,sans-Serif" font-size="10.00">ZMatrix.addBond</text>
</a>
</g>
</g>
<!-- Node6&#45;&gt;Node8 -->
<g id="edge7" class="edge">
<title>Node6&#45;&gt;Node8</title>
<path fill="none" stroke="midnightblue" d="M360.4,-67.46C391.62,-57.46 432.81,-44.25 465.86,-33.66"/>
<polygon fill="midnightblue" stroke="midnightblue" points="466.94,-36.99 475.39,-30.6 464.8,-30.32 466.94,-36.99"/>
</g>
<!-- Node8&#45;&gt;Node8 -->
<g id="edge8" class="edge">
<title>Node8&#45;&gt;Node8</title>
<path fill="none" stroke="midnightblue" d="M486.9,-30.66C478.08,-40.06 490.28,-49 523.5,-49 543.75,-49 556.18,-45.68 560.81,-40.96"/>
<polygon fill="midnightblue" stroke="midnightblue" points="564.28,-40.39 560.1,-30.66 557.3,-40.88 564.28,-40.39"/>
</g>
</g>
</svg>
