<?xml version="1.0" encoding="UTF-8" standalone="no"?>
<!DOCTYPE svg PUBLIC "-//W3C//DTD SVG 1.1//EN"
 "http://www.w3.org/Graphics/SVG/1.1/DTD/svg11.dtd">
<!-- Generated by graphviz version 3.0.0 (20221109.1736)
 -->
<!-- Title: denoptim.graph.Candidate.getChemicalRepresentation Pages: 1 -->
<svg width="394pt" height="88pt"
 viewBox="0.00 0.00 394.00 88.00" xmlns="http://www.w3.org/2000/svg" xmlns:xlink="http://www.w3.org/1999/xlink">
<g id="graph0" class="graph" transform="scale(1 1) rotate(0) translate(4 84)">
<title>denoptim.graph.Candidate.getChemicalRepresentation</title>
<polygon fill="white" stroke="transparent" points="-4,4 -4,-84 390,-84 390,4 -4,4"/>
<!-- Node1 -->
<g id="node1" class="node">
<title>Node1</title>
<g id="a_node1"><a xlink:title="Returns the atom container representing this candidate.">
<polygon fill="#bfbfbf" stroke="black" points="242,-24.5 242,-54.5 386,-54.5 386,-24.5 242,-24.5"/>
<text text-anchor="start" x="250" y="-42.5" font-family="Helvetica,sans-Serif" font-size="10.00">denoptim.graph.Candidate.get</text>
<text text-anchor="middle" x="314" y="-31.5" font-family="Helvetica,sans-Serif" font-size="10.00">ChemicalRepresentation</text>
</a>
</g>
</g>
<!-- Node2 -->
<g id="node2" class="node">
<title>Node2</title>
<g id="a_node2"><a xlink:href="classdenoptim_1_1ga_1_1_offspring_evaluation_task.html#ab222efa0ae1a954ba00305d123484264" target="_top" xlink:title=" ">
<polygon fill="white" stroke="black" points="25.5,-49.5 25.5,-79.5 180.5,-79.5 180.5,-49.5 25.5,-49.5"/>
<text text-anchor="start" x="33.5" y="-67.5" font-family="Helvetica,sans-Serif" font-size="10.00">denoptim.ga.OffspringEvaluation</text>
<text text-anchor="middle" x="103" y="-56.5" font-family="Helvetica,sans-Serif" font-size="10.00">Task.OffspringEvaluationTask</text>
</a>
</g>
</g>
<!-- Node1&#45;&gt;Node2 -->
<g id="edge1" class="edge">
<title>Node1&#45;&gt;Node2</title>
<path fill="none" stroke="midnightblue" d="M231.62,-49.23C214.82,-51.24 197.19,-53.35 180.58,-55.34"/>
<polygon fill="midnightblue" stroke="midnightblue" points="232.44,-52.66 241.95,-48 231.61,-45.71 232.44,-52.66"/>
</g>
<!-- Node3 -->
<g id="node3" class="node">
<title>Node3</title>
<g id="a_node3"><a xlink:href="classdenoptim_1_1programs_1_1moldecularmodelbuilder_1_1_molecular_model_builder.html#ad2e44290de6a861274def677044e9754" target="_top" xlink:title=" ">
<polygon fill="white" stroke="black" points="0,-0.5 0,-30.5 206,-30.5 206,-0.5 0,-0.5"/>
<text text-anchor="start" x="8" y="-18.5" font-family="Helvetica,sans-Serif" font-size="10.00">denoptim.programs.moldecularmodelbuilder.</text>
<text text-anchor="middle" x="103" y="-7.5" font-family="Helvetica,sans-Serif" font-size="10.00">MolecularModelBuilder.runProgram</text>
</a>
</g>
</g>
<!-- Node1&#45;&gt;Node3 -->
<g id="edge2" class="edge">
<title>Node1&#45;&gt;Node3</title>
<path fill="none" stroke="midnightblue" d="M231.86,-30.18C223.49,-29.22 214.91,-28.24 206.35,-27.25"/>
<polygon fill="midnightblue" stroke="midnightblue" points="231.62,-33.68 241.95,-31.34 232.42,-26.72 231.62,-33.68"/>
</g>
</g>
</svg>
