<?xml version="1.0" encoding="UTF-8" standalone="no"?>
<!DOCTYPE svg PUBLIC "-//W3C//DTD SVG 1.1//EN"
 "http://www.w3.org/Graphics/SVG/1.1/DTD/svg11.dtd">
<!-- Generated by graphviz version 3.0.0 (20221109.1736)
 -->
<!-- Title: denoptim.ga.SelectionHelper.performRWS Pages: 1 -->
<svg width="1263pt" height="156pt"
 viewBox="0.00 0.00 1263.00 155.50" xmlns="http://www.w3.org/2000/svg" xmlns:xlink="http://www.w3.org/1999/xlink">
<g id="graph0" class="graph" transform="scale(1 1) rotate(0) translate(4 151.5)">
<title>denoptim.ga.SelectionHelper.performRWS</title>
<polygon fill="white" stroke="transparent" points="-4,4 -4,-151.5 1259,-151.5 1259,4 -4,4"/>
<!-- Node1 -->
<g id="node1" class="node">
<title>Node1</title>
<g id="a_node1"><a xlink:title="Roulette wheel selection is implemented as follows:">
<polygon fill="#bfbfbf" stroke="black" points="1057,-38.5 1057,-57.5 1255,-57.5 1255,-38.5 1057,-38.5"/>
<text text-anchor="middle" x="1156" y="-45.5" font-family="Helvetica,sans-Serif" font-size="10.00">denoptim.ga.SelectionHelper.performRWS</text>
</a>
</g>
</g>
<!-- Node2 -->
<g id="node2" class="node">
<title>Node2</title>
<g id="a_node2"><a xlink:href="classdenoptim_1_1ga_1_1_e_a_utils.html#a17505cbf52d9203a1af793f07bcf27f9" target="_top" xlink:title="Selects a number of members from the given population.">
<polygon fill="white" stroke="black" points="888,-33 888,-63 1021,-63 1021,-33 888,-33"/>
<text text-anchor="start" x="896" y="-51" font-family="Helvetica,sans-Serif" font-size="10.00">denoptim.ga.EAUtils.select</text>
<text text-anchor="middle" x="954.5" y="-40" font-family="Helvetica,sans-Serif" font-size="10.00">BasedOnFitness</text>
</a>
</g>
</g>
<!-- Node1&#45;&gt;Node2 -->
<g id="edge1" class="edge">
<title>Node1&#45;&gt;Node2</title>
<path fill="none" stroke="midnightblue" d="M1046.51,-48C1037.85,-48 1029.27,-48 1021.04,-48"/>
<polygon fill="midnightblue" stroke="midnightblue" points="1046.71,-51.5 1056.71,-48 1046.71,-44.5 1046.71,-51.5"/>
</g>
<!-- Node3 -->
<g id="node3" class="node">
<title>Node3</title>
<g id="a_node3"><a xlink:href="classdenoptim_1_1ga_1_1_e_a_utils.html#a8122818f58919fce84dce75e7506025a" target="_top" xlink:title=" ">
<polygon fill="white" stroke="black" points="705.5,-77 705.5,-107 832.5,-107 832.5,-77 705.5,-77"/>
<text text-anchor="start" x="713.5" y="-95" font-family="Helvetica,sans-Serif" font-size="10.00">denoptim.ga.EAUtils.build</text>
<text text-anchor="middle" x="769" y="-84" font-family="Helvetica,sans-Serif" font-size="10.00">CandidateByMutation</text>
</a>
</g>
</g>
<!-- Node2&#45;&gt;Node3 -->
<g id="edge2" class="edge">
<title>Node2&#45;&gt;Node3</title>
<path fill="none" stroke="midnightblue" d="M881.03,-65.38C865.04,-69.21 848.23,-73.24 832.67,-76.97"/>
<polygon fill="midnightblue" stroke="midnightblue" points="881.95,-68.75 890.86,-63.02 880.32,-61.95 881.95,-68.75"/>
</g>
<!-- Node10 -->
<g id="node10" class="node">
<title>Node10</title>
<g id="a_node10"><a xlink:href="classdenoptim_1_1ga_1_1_e_a_utils.html#a0b958439d79fae30f14530213ad22e3a" target="_top" xlink:title="Generates up to a pair of new offspring by performing a crossover operation.">
<polygon fill="white" stroke="black" points="521.5,-11 521.5,-41 648.5,-41 648.5,-11 521.5,-11"/>
<text text-anchor="start" x="529.5" y="-29" font-family="Helvetica,sans-Serif" font-size="10.00">denoptim.ga.EAUtils.build</text>
<text text-anchor="middle" x="585" y="-18" font-family="Helvetica,sans-Serif" font-size="10.00">CandidatesByXOver</text>
</a>
</g>
</g>
<!-- Node2&#45;&gt;Node10 -->
<g id="edge10" class="edge">
<title>Node2&#45;&gt;Node10</title>
<path fill="none" stroke="midnightblue" d="M877.62,-43.46C809.94,-39.41 712.02,-33.54 648.68,-29.75"/>
<polygon fill="midnightblue" stroke="midnightblue" points="877.61,-46.96 887.8,-44.07 878.03,-39.98 877.61,-46.96"/>
</g>
<!-- Node11 -->
<g id="node11" class="node">
<title>Node11</title>
<g id="a_node11"><a xlink:href="classdenoptim_1_1ga_1_1_e_a_utils.html#a45d4e9ec6a308aa73891efa1d501dd5e" target="_top" xlink:title="Perform fitness&#45;based, class&#45;compatible selection of parents that can do crossover operations.">
<polygon fill="white" stroke="black" points="686,-0.5 686,-19.5 852,-19.5 852,-0.5 686,-0.5"/>
<text text-anchor="middle" x="769" y="-7.5" font-family="Helvetica,sans-Serif" font-size="10.00">denoptim.ga.EAUtils.performFBCC</text>
</a>
</g>
</g>
<!-- Node2&#45;&gt;Node11 -->
<g id="edge11" class="edge">
<title>Node2&#45;&gt;Node11</title>
<path fill="none" stroke="midnightblue" d="M877.9,-32.35C856.91,-28 834.75,-23.41 816.02,-19.53"/>
<polygon fill="midnightblue" stroke="midnightblue" points="877.27,-35.79 887.77,-34.39 878.69,-28.93 877.27,-35.79"/>
</g>
<!-- Node4 -->
<g id="node4" class="node">
<title>Node4</title>
<g id="a_node4"><a xlink:href="classdenoptim_1_1ga_1_1_evolutionary_algorithm.html#a0c2e353b243250b4959a3f86608f1020" target="_top" xlink:title="Generates one offspring according to the method where crossover and mutation are decoupled,...">
<polygon fill="white" stroke="black" points="520,-117 520,-147 650,-147 650,-117 520,-117"/>
<text text-anchor="start" x="528" y="-135" font-family="Helvetica,sans-Serif" font-size="10.00">denoptim.ga.Evolutionary</text>
<text text-anchor="middle" x="585" y="-124" font-family="Helvetica,sans-Serif" font-size="10.00">Algorithm.makeOffspringA</text>
</a>
</g>
</g>
<!-- Node3&#45;&gt;Node4 -->
<g id="edge3" class="edge">
<title>Node3&#45;&gt;Node4</title>
<path fill="none" stroke="midnightblue" d="M695.21,-108C680.36,-111.26 664.83,-114.68 650.3,-117.87"/>
<polygon fill="midnightblue" stroke="midnightblue" points="696.35,-111.33 705.37,-105.77 694.85,-104.49 696.35,-111.33"/>
</g>
<!-- Node9 -->
<g id="node9" class="node">
<title>Node9</title>
<g id="a_node9"><a xlink:href="classdenoptim_1_1ga_1_1_evolutionary_algorithm.html#ae7a90a911b109ed47b3acf54193acc35" target="_top" xlink:title="Generates one offspring according to the method where crossover and mutation are coupled,...">
<polygon fill="white" stroke="black" points="520,-68 520,-98 650,-98 650,-68 520,-68"/>
<text text-anchor="start" x="528" y="-86" font-family="Helvetica,sans-Serif" font-size="10.00">denoptim.ga.Evolutionary</text>
<text text-anchor="middle" x="585" y="-75" font-family="Helvetica,sans-Serif" font-size="10.00">Algorithm.makeOffspringB</text>
</a>
</g>
</g>
<!-- Node3&#45;&gt;Node9 -->
<g id="edge8" class="edge">
<title>Node3&#45;&gt;Node9</title>
<path fill="none" stroke="midnightblue" d="M695.21,-88.4C680.36,-87.67 664.83,-86.9 650.3,-86.18"/>
<polygon fill="midnightblue" stroke="midnightblue" points="695.21,-91.9 705.37,-88.9 695.55,-84.91 695.21,-91.9"/>
</g>
<!-- Node5 -->
<g id="node5" class="node">
<title>Node5</title>
<g id="a_node5"><a xlink:href="classdenoptim_1_1ga_1_1_evolutionary_algorithm.html#a596b2f5f0b097c5b67a6e5163bd6fe66" target="_top" xlink:title="Generates a given number of new candidate items and adds them to the current population.">
<polygon fill="white" stroke="black" points="350,-92 350,-122 484,-122 484,-92 350,-92"/>
<text text-anchor="start" x="358" y="-110" font-family="Helvetica,sans-Serif" font-size="10.00">denoptim.ga.Evolutionary</text>
<text text-anchor="middle" x="417" y="-99" font-family="Helvetica,sans-Serif" font-size="10.00">Algorithm.evolvePopulation</text>
</a>
</g>
</g>
<!-- Node4&#45;&gt;Node5 -->
<g id="edge4" class="edge">
<title>Node4&#45;&gt;Node5</title>
<path fill="none" stroke="midnightblue" d="M509.86,-120.83C501.31,-119.55 492.64,-118.24 484.2,-116.97"/>
<polygon fill="midnightblue" stroke="midnightblue" points="509.41,-124.31 519.82,-122.33 510.45,-117.38 509.41,-124.31"/>
</g>
<!-- Node6 -->
<g id="node6" class="node">
<title>Node6</title>
<g id="a_node6"><a xlink:href="classdenoptim_1_1ga_1_1_evolutionary_algorithm.html#a6bfc2fa59b199da6259b5b6bad3d6de7" target="_top" xlink:title=" ">
<polygon fill="white" stroke="black" points="190,-92 190,-122 314,-122 314,-92 190,-92"/>
<text text-anchor="start" x="198" y="-110" font-family="Helvetica,sans-Serif" font-size="10.00">denoptim.ga.Evolutionary</text>
<text text-anchor="middle" x="252" y="-99" font-family="Helvetica,sans-Serif" font-size="10.00">Algorithm.run</text>
</a>
</g>
</g>
<!-- Node5&#45;&gt;Node6 -->
<g id="edge5" class="edge">
<title>Node5&#45;&gt;Node6</title>
<path fill="none" stroke="midnightblue" d="M339.45,-107C331,-107 322.48,-107 314.25,-107"/>
<polygon fill="midnightblue" stroke="midnightblue" points="339.7,-110.5 349.7,-107 339.7,-103.5 339.7,-110.5"/>
</g>
<!-- Node7 -->
<g id="node7" class="node">
<title>Node7</title>
<g id="a_node7"><a xlink:href="classdenoptim_1_1ga_1_1_evolutionary_algorithm.html#a0f2063b722b7291daf83d62acaa683d3" target="_top" xlink:title=" ">
<polygon fill="white" stroke="black" points="0,-117 0,-147 154,-147 154,-117 0,-117"/>
<text text-anchor="start" x="8" y="-135" font-family="Helvetica,sans-Serif" font-size="10.00">denoptim.ga.Evolutionary</text>
<text text-anchor="middle" x="77" y="-124" font-family="Helvetica,sans-Serif" font-size="10.00">Algorithm.EvolutionaryAlgorithm</text>
</a>
</g>
</g>
<!-- Node6&#45;&gt;Node7 -->
<g id="edge6" class="edge">
<title>Node6&#45;&gt;Node7</title>
<path fill="none" stroke="midnightblue" d="M179.44,-117.34C171.09,-118.55 162.54,-119.78 154.12,-121"/>
<polygon fill="midnightblue" stroke="midnightblue" points="180.12,-120.78 189.52,-115.88 179.12,-113.85 180.12,-120.78"/>
</g>
<!-- Node8 -->
<g id="node8" class="node">
<title>Node8</title>
<g id="a_node8"><a xlink:href="classdenoptim_1_1programs_1_1denovo_1_1_g_a_runner.html#a7cafd6d78727b89dce3e2c8d06f0dd7c" target="_top" xlink:title=" ">
<polygon fill="white" stroke="black" points="9.5,-68 9.5,-98 144.5,-98 144.5,-68 9.5,-68"/>
<text text-anchor="start" x="17.5" y="-86" font-family="Helvetica,sans-Serif" font-size="10.00">denoptim.programs.denovo.</text>
<text text-anchor="middle" x="77" y="-75" font-family="Helvetica,sans-Serif" font-size="10.00">GARunner.runProgram</text>
</a>
</g>
</g>
<!-- Node6&#45;&gt;Node8 -->
<g id="edge7" class="edge">
<title>Node6&#45;&gt;Node8</title>
<path fill="none" stroke="midnightblue" d="M179.48,-97.08C167.92,-95.47 156,-93.82 144.57,-92.23"/>
<polygon fill="midnightblue" stroke="midnightblue" points="179.13,-100.56 189.52,-98.47 180.1,-93.63 179.13,-100.56"/>
</g>
<!-- Node9&#45;&gt;Node5 -->
<g id="edge9" class="edge">
<title>Node9&#45;&gt;Node5</title>
<path fill="none" stroke="midnightblue" d="M509.86,-93.72C501.31,-94.95 492.64,-96.21 484.2,-97.43"/>
<polygon fill="midnightblue" stroke="midnightblue" points="510.42,-97.17 519.82,-92.28 509.42,-90.25 510.42,-97.17"/>
</g>
<!-- Node11&#45;&gt;Node10 -->
<g id="edge12" class="edge">
<title>Node11&#45;&gt;Node10</title>
<path fill="none" stroke="midnightblue" d="M675.56,-18.13C666.48,-18.92 657.43,-19.72 648.76,-20.48"/>
<polygon fill="midnightblue" stroke="midnightblue" points="676.13,-21.59 685.79,-17.23 675.52,-14.62 676.13,-21.59"/>
</g>
</g>
</svg>
