<?xml version="1.0" encoding="UTF-8" standalone="no"?>
<!DOCTYPE svg PUBLIC "-//W3C//DTD SVG 1.1//EN"
 "http://www.w3.org/Graphics/SVG/1.1/DTD/svg11.dtd">
<!-- Generated by graphviz version 3.0.0 (20221109.1736)
 -->
<!-- Title: denoptim.ga.EAUtils.getCrowdingProbabilityForCrowdedness Pages: 1 -->
<svg width="950pt" height="156pt"
 viewBox="0.00 0.00 950.00 155.50" xmlns="http://www.w3.org/2000/svg" xmlns:xlink="http://www.w3.org/1999/xlink">
<g id="graph0" class="graph" transform="scale(1 1) rotate(0) translate(4 151.5)">
<title>denoptim.ga.EAUtils.getCrowdingProbabilityForCrowdedness</title>
<polygon fill="white" stroke="transparent" points="-4,4 -4,-151.5 946,-151.5 946,4 -4,4"/>
<!-- Node1 -->
<g id="node1" class="node">
<title>Node1</title>
<g id="a_node1"><a xlink:title="Calculated the crowding probability for a given level of crowdedness.">
<polygon fill="#bfbfbf" stroke="black" points="781,-70 781,-100 942,-100 942,-70 781,-70"/>
<text text-anchor="start" x="789" y="-88" font-family="Helvetica,sans-Serif" font-size="10.00">denoptim.ga.EAUtils.getCrowding</text>
<text text-anchor="middle" x="861.5" y="-77" font-family="Helvetica,sans-Serif" font-size="10.00">ProbabilityForCrowdedness</text>
</a>
</g>
</g>
<!-- Node2 -->
<g id="node2" class="node">
<title>Node2</title>
<g id="a_node2"><a xlink:href="classdenoptim_1_1gui_1_1_g_a_parameters_form.html#a44e653526253cfea892611376a7fa3bb" target="_top" xlink:title=" ">
<polygon fill="white" stroke="black" points="589.5,-95 589.5,-125 739.5,-125 739.5,-95 589.5,-95"/>
<text text-anchor="start" x="597.5" y="-113" font-family="Helvetica,sans-Serif" font-size="10.00">denoptim.gui.GAParameters</text>
<text text-anchor="middle" x="664.5" y="-102" font-family="Helvetica,sans-Serif" font-size="10.00">Form.createCrowdProbDataset</text>
</a>
</g>
</g>
<!-- Node1&#45;&gt;Node2 -->
<g id="edge1" class="edge">
<title>Node1&#45;&gt;Node2</title>
<path fill="none" stroke="midnightblue" d="M770.89,-96.49C760.38,-97.84 749.76,-99.2 739.5,-100.51"/>
<polygon fill="midnightblue" stroke="midnightblue" points="771.43,-99.95 780.9,-95.2 770.54,-93 771.43,-99.95"/>
</g>
<!-- Node8 -->
<g id="node8" class="node">
<title>Node8</title>
<g id="a_node8"><a xlink:href="classdenoptim_1_1ga_1_1_e_a_utils.html#a11c2af48ff1901e53677b8e6b914b1db" target="_top" xlink:title="Calculated the probability of using and attachment point rooted on an atom that is holding other atta...">
<polygon fill="white" stroke="black" points="584,-46 584,-76 745,-76 745,-46 584,-46"/>
<text text-anchor="start" x="592" y="-64" font-family="Helvetica,sans-Serif" font-size="10.00">denoptim.ga.EAUtils.getCrowding</text>
<text text-anchor="middle" x="664.5" y="-53" font-family="Helvetica,sans-Serif" font-size="10.00">Probability</text>
</a>
</g>
</g>
<!-- Node1&#45;&gt;Node8 -->
<g id="edge10" class="edge">
<title>Node1&#45;&gt;Node8</title>
<path fill="none" stroke="midnightblue" d="M770.88,-73.97C762.3,-72.91 753.64,-71.85 745.16,-70.8"/>
<polygon fill="midnightblue" stroke="midnightblue" points="770.55,-77.46 780.9,-75.2 771.41,-70.51 770.55,-77.46"/>
</g>
<!-- Node3 -->
<g id="node3" class="node">
<title>Node3</title>
<g id="a_node3"><a xlink:href="classdenoptim_1_1gui_1_1_g_a_parameters_form.html#a567ed81852332217cc344d9a5ecd8eb0" target="_top" xlink:title=" ">
<polygon fill="white" stroke="black" points="197.5,-117 197.5,-147 340.5,-147 340.5,-117 197.5,-117"/>
<text text-anchor="start" x="205.5" y="-135" font-family="Helvetica,sans-Serif" font-size="10.00">denoptim.gui.GAParameters</text>
<text text-anchor="middle" x="269" y="-124" font-family="Helvetica,sans-Serif" font-size="10.00">Form.createCrowdProbGraph</text>
</a>
</g>
</g>
<!-- Node2&#45;&gt;Node3 -->
<g id="edge2" class="edge">
<title>Node2&#45;&gt;Node3</title>
<path fill="none" stroke="midnightblue" d="M579.22,-114.71C508.16,-118.68 407.63,-124.31 340.7,-128.05"/>
<polygon fill="midnightblue" stroke="midnightblue" points="579.7,-118.19 589.49,-114.14 579.31,-111.2 579.7,-118.19"/>
</g>
<!-- Node5 -->
<g id="node5" class="node">
<title>Node5</title>
<g id="a_node5"><a xlink:href="classdenoptim_1_1gui_1_1_g_a_parameters_form.html#a2e63957f5d08fb45f9a5fb3fbf5882a0" target="_top" xlink:title=" ">
<polygon fill="white" stroke="black" points="396,-73 396,-103 548,-103 548,-73 396,-73"/>
<text text-anchor="start" x="404" y="-91" font-family="Helvetica,sans-Serif" font-size="10.00">denoptim.gui.GAParameters</text>
<text text-anchor="middle" x="472" y="-80" font-family="Helvetica,sans-Serif" font-size="10.00">Form.updateCrowdProbDataset</text>
</a>
</g>
</g>
<!-- Node2&#45;&gt;Node5 -->
<g id="edge4" class="edge">
<title>Node2&#45;&gt;Node5</title>
<path fill="none" stroke="midnightblue" d="M579.1,-100.25C568.83,-99.07 558.38,-97.86 548.25,-96.69"/>
<polygon fill="midnightblue" stroke="midnightblue" points="578.97,-103.76 589.3,-101.43 579.77,-96.81 578.97,-103.76"/>
</g>
<!-- Node4 -->
<g id="node4" class="node">
<title>Node4</title>
<g id="a_node4"><a xlink:href="classdenoptim_1_1gui_1_1_g_a_parameters_form.html#a1da1237b4f0c1d5c5335abc8c2bb2602" target="_top" xlink:title=" ">
<polygon fill="white" stroke="black" points="2,-73 2,-103 140,-103 140,-73 2,-73"/>
<text text-anchor="start" x="10" y="-91" font-family="Helvetica,sans-Serif" font-size="10.00">denoptim.gui.GAParameters</text>
<text text-anchor="middle" x="71" y="-80" font-family="Helvetica,sans-Serif" font-size="10.00">Form.GAParametersForm</text>
</a>
</g>
</g>
<!-- Node3&#45;&gt;Node4 -->
<g id="edge3" class="edge">
<title>Node3&#45;&gt;Node4</title>
<path fill="none" stroke="midnightblue" d="M191.08,-114.73C173.85,-110.86 155.72,-106.79 138.93,-103.03"/>
<polygon fill="midnightblue" stroke="midnightblue" points="190.57,-118.21 201.1,-116.98 192.11,-111.38 190.57,-118.21"/>
</g>
<!-- Node5&#45;&gt;Node4 -->
<g id="edge5" class="edge">
<title>Node5&#45;&gt;Node4</title>
<path fill="none" stroke="midnightblue" d="M385.81,-88C312.45,-88 207.95,-88 140.06,-88"/>
<polygon fill="midnightblue" stroke="midnightblue" points="385.95,-91.5 395.95,-88 385.95,-84.5 385.95,-91.5"/>
</g>
<!-- Node6 -->
<g id="node6" class="node">
<title>Node6</title>
<g id="a_node6"><a xlink:href="classdenoptim_1_1gui_1_1_g_a_parameters_form.html#aee2a063d83a006a2cddb4b4af1af2673" target="_top" xlink:title="Imports parameters from a properly formatted parameters file.">
<polygon fill="white" stroke="black" points="178,-0.5 178,-41.5 360,-41.5 360,-0.5 178,-0.5"/>
<text text-anchor="start" x="186" y="-29.5" font-family="Helvetica,sans-Serif" font-size="10.00">denoptim.gui.GAParameters</text>
<text text-anchor="start" x="186" y="-18.5" font-family="Helvetica,sans-Serif" font-size="10.00">Form.importParametersFromDenoptim</text>
<text text-anchor="middle" x="269" y="-7.5" font-family="Helvetica,sans-Serif" font-size="10.00">ParamsFile</text>
</a>
</g>
</g>
<!-- Node5&#45;&gt;Node6 -->
<g id="edge6" class="edge">
<title>Node5&#45;&gt;Node6</title>
<path fill="none" stroke="midnightblue" d="M416.16,-69.72C390.03,-61.01 358.68,-50.56 331.72,-41.57"/>
<polygon fill="midnightblue" stroke="midnightblue" points="415.3,-73.12 425.89,-72.96 417.51,-66.48 415.3,-73.12"/>
</g>
<!-- Node6&#45;&gt;Node4 -->
<g id="edge7" class="edge">
<title>Node6&#45;&gt;Node4</title>
<path fill="none" stroke="midnightblue" d="M198.33,-44.82C170.96,-54.17 140.37,-64.63 116.15,-72.91"/>
<polygon fill="midnightblue" stroke="midnightblue" points="199.53,-48.1 207.86,-41.56 197.27,-41.48 199.53,-48.1"/>
</g>
<!-- Node6&#45;&gt;Node6 -->
<g id="edge8" class="edge">
<title>Node6&#45;&gt;Node6</title>
<path fill="none" stroke="midnightblue" d="M303.06,-51.86C298,-56.7 286.64,-60 269,-60 240.77,-60 228.64,-51.54 232.61,-41.86"/>
<polygon fill="midnightblue" stroke="midnightblue" points="306.53,-52.4 305.39,-41.86 299.71,-50.81 306.53,-52.4"/>
</g>
<!-- Node7 -->
<g id="node7" class="node">
<title>Node7</title>
<g id="a_node7"><a xlink:href="classdenoptim_1_1gui_1_1_g_a_parameters_form.html#aa88930fb4bdf44a723bfe96599a7275f" target="_top" xlink:title=" ">
<polygon fill="white" stroke="black" points="0,-6 0,-36 142,-36 142,-6 0,-6"/>
<text text-anchor="start" x="8" y="-24" font-family="Helvetica,sans-Serif" font-size="10.00">denoptim.gui.GAParameters</text>
<text text-anchor="middle" x="71" y="-13" font-family="Helvetica,sans-Serif" font-size="10.00">Form.putParametersToString</text>
</a>
</g>
</g>
<!-- Node6&#45;&gt;Node7 -->
<g id="edge9" class="edge">
<title>Node6&#45;&gt;Node7</title>
<path fill="none" stroke="midnightblue" d="M167.64,-21C159.02,-21 150.43,-21 142.13,-21"/>
<polygon fill="midnightblue" stroke="midnightblue" points="167.74,-24.5 177.74,-21 167.74,-17.5 167.74,-24.5"/>
</g>
</g>
</svg>
