<?xml version="1.0" encoding="UTF-8" standalone="no"?>
<!DOCTYPE svg PUBLIC "-//W3C//DTD SVG 1.1//EN"
 "http://www.w3.org/Graphics/SVG/1.1/DTD/svg11.dtd">
<!-- Generated by graphviz version 3.0.0 (20221109.1736)
 -->
<!-- Title: denoptim.programs.denovo.GAParameters.getMaxTriesFactor Pages: 1 -->
<svg width="913pt" height="121pt"
 viewBox="0.00 0.00 913.00 121.00" xmlns="http://www.w3.org/2000/svg" xmlns:xlink="http://www.w3.org/1999/xlink">
<g id="graph0" class="graph" transform="scale(1 1) rotate(0) translate(4 117)">
<title>denoptim.programs.denovo.GAParameters.getMaxTriesFactor</title>
<polygon fill="white" stroke="transparent" points="-4,4 -4,-117 909,-117 909,4 -4,4"/>
<!-- Node1 -->
<g id="node1" class="node">
<title>Node1</title>
<g id="a_node1"><a xlink:title=" ">
<polygon fill="#bfbfbf" stroke="black" points="741,-44.5 741,-74.5 905,-74.5 905,-44.5 741,-44.5"/>
<text text-anchor="start" x="749" y="-62.5" font-family="Helvetica,sans-Serif" font-size="10.00">denoptim.programs.denovo.</text>
<text text-anchor="middle" x="823" y="-51.5" font-family="Helvetica,sans-Serif" font-size="10.00">GAParameters.getMaxTriesFactor</text>
</a>
</g>
</g>
<!-- Node2 -->
<g id="node2" class="node">
<title>Node2</title>
<g id="a_node2"><a xlink:href="classdenoptim_1_1ga_1_1_evolutionary_algorithm.html#a596b2f5f0b097c5b67a6e5163bd6fe66" target="_top" xlink:title="Generates a given number of new candidate items and adds them to the current population.">
<polygon fill="white" stroke="black" points="353,-82.5 353,-112.5 487,-112.5 487,-82.5 353,-82.5"/>
<text text-anchor="start" x="361" y="-100.5" font-family="Helvetica,sans-Serif" font-size="10.00">denoptim.ga.Evolutionary</text>
<text text-anchor="middle" x="420" y="-89.5" font-family="Helvetica,sans-Serif" font-size="10.00">Algorithm.evolvePopulation</text>
</a>
</g>
</g>
<!-- Node1&#45;&gt;Node2 -->
<g id="edge1" class="edge">
<title>Node1&#45;&gt;Node2</title>
<path fill="none" stroke="midnightblue" d="M730.58,-68.16C656.37,-75.2 553.52,-84.94 487.11,-91.24"/>
<polygon fill="midnightblue" stroke="midnightblue" points="731.23,-71.62 740.85,-67.19 730.57,-64.65 731.23,-71.62"/>
</g>
<!-- Node6 -->
<g id="node6" class="node">
<title>Node6</title>
<g id="a_node6"><a xlink:href="classdenoptim_1_1ga_1_1_evolutionary_algorithm.html#ad43588620dab3340e0d8b0042ec73618" target="_top" xlink:title="Fills up the population with candidates build from scratch.">
<polygon fill="white" stroke="black" points="350,-33.5 350,-63.5 490,-63.5 490,-33.5 350,-33.5"/>
<text text-anchor="start" x="358" y="-51.5" font-family="Helvetica,sans-Serif" font-size="10.00">denoptim.ga.Evolutionary</text>
<text text-anchor="middle" x="420" y="-40.5" font-family="Helvetica,sans-Serif" font-size="10.00">Algorithm.initializePopulation</text>
</a>
</g>
</g>
<!-- Node1&#45;&gt;Node6 -->
<g id="edge5" class="edge">
<title>Node1&#45;&gt;Node6</title>
<path fill="none" stroke="midnightblue" d="M730.72,-57C657.58,-54.99 556.52,-52.22 490.01,-50.39"/>
<polygon fill="midnightblue" stroke="midnightblue" points="730.76,-60.5 740.85,-57.27 730.95,-53.5 730.76,-60.5"/>
</g>
<!-- Node7 -->
<g id="node7" class="node">
<title>Node7</title>
<g id="a_node7"><a xlink:href="classdenoptim_1_1ga_1_1_evolutionary_algorithm.html#a5288db1eb3c645ed5b3cb33430c62bdf" target="_top" xlink:title=" ">
<polygon fill="white" stroke="black" points="526,-0.5 526,-30.5 705,-30.5 705,-0.5 526,-0.5"/>
<text text-anchor="start" x="534" y="-18.5" font-family="Helvetica,sans-Serif" font-size="10.00">denoptim.ga.Evolutionary</text>
<text text-anchor="middle" x="615.5" y="-7.5" font-family="Helvetica,sans-Serif" font-size="10.00">Algorithm.processInitialPopCandidate</text>
</a>
</g>
</g>
<!-- Node1&#45;&gt;Node7 -->
<g id="edge7" class="edge">
<title>Node1&#45;&gt;Node7</title>
<path fill="none" stroke="midnightblue" d="M741.85,-42.34C723.64,-38.44 704.44,-34.33 686.68,-30.53"/>
<polygon fill="midnightblue" stroke="midnightblue" points="741.34,-45.81 751.85,-44.48 742.81,-38.96 741.34,-45.81"/>
</g>
<!-- Node3 -->
<g id="node3" class="node">
<title>Node3</title>
<g id="a_node3"><a xlink:href="classdenoptim_1_1ga_1_1_evolutionary_algorithm.html#a6bfc2fa59b199da6259b5b6bad3d6de7" target="_top" xlink:title=" ">
<polygon fill="white" stroke="black" points="190,-57.5 190,-87.5 314,-87.5 314,-57.5 190,-57.5"/>
<text text-anchor="start" x="198" y="-75.5" font-family="Helvetica,sans-Serif" font-size="10.00">denoptim.ga.Evolutionary</text>
<text text-anchor="middle" x="252" y="-64.5" font-family="Helvetica,sans-Serif" font-size="10.00">Algorithm.run</text>
</a>
</g>
</g>
<!-- Node2&#45;&gt;Node3 -->
<g id="edge2" class="edge">
<title>Node2&#45;&gt;Node3</title>
<path fill="none" stroke="midnightblue" d="M342.9,-86.04C333.21,-84.58 323.41,-83.1 314.01,-81.69"/>
<polygon fill="midnightblue" stroke="midnightblue" points="342.51,-89.52 352.92,-87.55 343.55,-82.6 342.51,-89.52"/>
</g>
<!-- Node4 -->
<g id="node4" class="node">
<title>Node4</title>
<g id="a_node4"><a xlink:href="classdenoptim_1_1ga_1_1_evolutionary_algorithm.html#a0f2063b722b7291daf83d62acaa683d3" target="_top" xlink:title=" ">
<polygon fill="white" stroke="black" points="0,-82.5 0,-112.5 154,-112.5 154,-82.5 0,-82.5"/>
<text text-anchor="start" x="8" y="-100.5" font-family="Helvetica,sans-Serif" font-size="10.00">denoptim.ga.Evolutionary</text>
<text text-anchor="middle" x="77" y="-89.5" font-family="Helvetica,sans-Serif" font-size="10.00">Algorithm.EvolutionaryAlgorithm</text>
</a>
</g>
</g>
<!-- Node3&#45;&gt;Node4 -->
<g id="edge3" class="edge">
<title>Node3&#45;&gt;Node4</title>
<path fill="none" stroke="midnightblue" d="M179.44,-82.84C171.09,-84.05 162.54,-85.28 154.12,-86.5"/>
<polygon fill="midnightblue" stroke="midnightblue" points="180.12,-86.28 189.52,-81.38 179.12,-79.35 180.12,-86.28"/>
</g>
<!-- Node5 -->
<g id="node5" class="node">
<title>Node5</title>
<g id="a_node5"><a xlink:href="classdenoptim_1_1programs_1_1denovo_1_1_g_a_runner.html#a7cafd6d78727b89dce3e2c8d06f0dd7c" target="_top" xlink:title=" ">
<polygon fill="white" stroke="black" points="9.5,-33.5 9.5,-63.5 144.5,-63.5 144.5,-33.5 9.5,-33.5"/>
<text text-anchor="start" x="17.5" y="-51.5" font-family="Helvetica,sans-Serif" font-size="10.00">denoptim.programs.denovo.</text>
<text text-anchor="middle" x="77" y="-40.5" font-family="Helvetica,sans-Serif" font-size="10.00">GARunner.runProgram</text>
</a>
</g>
</g>
<!-- Node3&#45;&gt;Node5 -->
<g id="edge4" class="edge">
<title>Node3&#45;&gt;Node5</title>
<path fill="none" stroke="midnightblue" d="M179.48,-62.58C167.92,-60.97 156,-59.32 144.57,-57.73"/>
<polygon fill="midnightblue" stroke="midnightblue" points="179.13,-66.06 189.52,-63.97 180.1,-59.13 179.13,-66.06"/>
</g>
<!-- Node6&#45;&gt;Node3 -->
<g id="edge6" class="edge">
<title>Node6&#45;&gt;Node3</title>
<path fill="none" stroke="midnightblue" d="M339.6,-59.98C331.08,-61.21 322.5,-62.45 314.24,-63.65"/>
<polygon fill="midnightblue" stroke="midnightblue" points="340.17,-63.43 349.56,-58.54 339.16,-56.51 340.17,-63.43"/>
</g>
<!-- Node7&#45;&gt;Node6 -->
<g id="edge8" class="edge">
<title>Node7&#45;&gt;Node6</title>
<path fill="none" stroke="midnightblue" d="M516.51,-32.21C507.63,-33.73 498.76,-35.24 490.21,-36.7"/>
<polygon fill="midnightblue" stroke="midnightblue" points="517.26,-35.63 526.53,-30.5 516.08,-28.73 517.26,-35.63"/>
</g>
</g>
</svg>
