<?xml version="1.0" encoding="UTF-8" standalone="no"?>
<!DOCTYPE svg PUBLIC "-//W3C//DTD SVG 1.1//EN"
 "http://www.w3.org/Graphics/SVG/1.1/DTD/svg11.dtd">
<!-- Generated by graphviz version 3.0.0 (20221109.1736)
 -->
<!-- Title: denoptim.programs.fragmenter.FragmenterParameters.setAddExplicitH Pages: 1 -->
<svg width="831pt" height="39pt"
 viewBox="0.00 0.00 831.00 39.00" xmlns="http://www.w3.org/2000/svg" xmlns:xlink="http://www.w3.org/1999/xlink">
<g id="graph0" class="graph" transform="scale(1 1) rotate(0) translate(4 35)">
<title>denoptim.programs.fragmenter.FragmenterParameters.setAddExplicitH</title>
<polygon fill="white" stroke="transparent" points="-4,4 -4,-35 827,-35 827,4 -4,4"/>
<!-- Node1 -->
<g id="node1" class="node">
<title>Node1</title>
<g id="a_node1"><a xlink:title="Give true to add explicit H atoms on all atoms.">
<polygon fill="#bfbfbf" stroke="black" points="635,-0.5 635,-30.5 823,-30.5 823,-0.5 635,-0.5"/>
<text text-anchor="start" x="643" y="-18.5" font-family="Helvetica,sans-Serif" font-size="10.00">denoptim.programs.fragmenter.</text>
<text text-anchor="middle" x="729" y="-7.5" font-family="Helvetica,sans-Serif" font-size="10.00">FragmenterParameters.setAddExplicitH</text>
</a>
</g>
</g>
<!-- Node2 -->
<g id="node2" class="node">
<title>Node2</title>
<g id="a_node2"><a xlink:href="classdenoptim_1_1gui_1_1_g_u_i_graph_handler.html#a2546eaac0cf6becaf10b56a1c929953a" target="_top" xlink:title=" ">
<polygon fill="white" stroke="black" points="414,-0.5 414,-30.5 599,-30.5 599,-0.5 414,-0.5"/>
<text text-anchor="start" x="422" y="-18.5" font-family="Helvetica,sans-Serif" font-size="10.00">denoptim.gui.GUIGraphHandler.append</text>
<text text-anchor="middle" x="506.5" y="-7.5" font-family="Helvetica,sans-Serif" font-size="10.00">GraphsFromConvertingMolecule</text>
</a>
</g>
</g>
<!-- Node1&#45;&gt;Node2 -->
<g id="edge1" class="edge">
<title>Node1&#45;&gt;Node2</title>
<path fill="none" stroke="midnightblue" d="M624.56,-15.5C616.13,-15.5 607.64,-15.5 599.3,-15.5"/>
<polygon fill="midnightblue" stroke="midnightblue" points="624.81,-19 634.81,-15.5 624.81,-12 624.81,-19"/>
</g>
<!-- Node3 -->
<g id="node3" class="node">
<title>Node3</title>
<g id="a_node3"><a xlink:href="classdenoptim_1_1gui_1_1_g_u_i_graph_handler.html#af5b000c105018cbd7c262b34f9750044" target="_top" xlink:title="Initialize the panel and add buttons.">
<polygon fill="white" stroke="black" points="190,-6 190,-25 378,-25 378,-6 190,-6"/>
<text text-anchor="middle" x="284" y="-13" font-family="Helvetica,sans-Serif" font-size="10.00">denoptim.gui.GUIGraphHandler.initialize</text>
</a>
</g>
</g>
<!-- Node2&#45;&gt;Node3 -->
<g id="edge2" class="edge">
<title>Node2&#45;&gt;Node3</title>
<path fill="none" stroke="midnightblue" d="M403.86,-15.5C395.27,-15.5 386.61,-15.5 378.09,-15.5"/>
<polygon fill="midnightblue" stroke="midnightblue" points="403.9,-19 413.9,-15.5 403.9,-12 403.9,-19"/>
</g>
<!-- Node4 -->
<g id="node4" class="node">
<title>Node4</title>
<g id="a_node4"><a xlink:href="classdenoptim_1_1gui_1_1_g_u_i_graph_handler.html#ab7d010d9a384f6b85edce47c95d6723b" target="_top" xlink:title="Constructor.">
<polygon fill="white" stroke="black" points="0,-0.5 0,-30.5 154,-30.5 154,-0.5 0,-0.5"/>
<text text-anchor="start" x="8" y="-18.5" font-family="Helvetica,sans-Serif" font-size="10.00">denoptim.gui.GUIGraphHandler.</text>
<text text-anchor="middle" x="77" y="-7.5" font-family="Helvetica,sans-Serif" font-size="10.00">GUIGraphHandler</text>
</a>
</g>
</g>
<!-- Node3&#45;&gt;Node4 -->
<g id="edge3" class="edge">
<title>Node3&#45;&gt;Node4</title>
<path fill="none" stroke="midnightblue" d="M179.69,-15.5C171.07,-15.5 162.45,-15.5 154.09,-15.5"/>
<polygon fill="midnightblue" stroke="midnightblue" points="179.8,-19 189.8,-15.5 179.8,-12 179.8,-19"/>
</g>
</g>
</svg>
