<?xml version="1.0" encoding="UTF-8" standalone="no"?>
<!DOCTYPE svg PUBLIC "-//W3C//DTD SVG 1.1//EN"
 "http://www.w3.org/Graphics/SVG/1.1/DTD/svg11.dtd">
<!-- Generated by graphviz version 3.0.0 (20221109.1736)
 -->
<!-- Title: denoptim.ga.Population.add Pages: 1 -->
<!--zoomable 624 -->
<svg id="main" version="1.1" xmlns="http://www.w3.org/2000/svg" xmlns:xlink="http://www.w3.org/1999/xlink" xml:space="preserve" onload="init(evt)">
<style type="text/css"><![CDATA[
.edge:hover path { stroke: red; }
.edge:hover polygon { stroke: red; fill: red; }
]]></style>
<script type="text/javascript"><![CDATA[
var edges = document.getElementsByTagName('g');
if (edges && edges.length) {
  for (var i=0;i<edges.length;i++) {
    if (edges[i].id.substr(0,4)=='edge') {
      edges[i].setAttribute('class','edge');
    }
  }
}
]]></script>
        <defs>
                <circle id="rim" cx="0" cy="0" r="7"/>
                <circle id="rim2" cx="0" cy="0" r="3.5"/>
                <g id="zoomPlus">
                        <use xlink:href="#rim" fill="#404040">
                                <set attributeName="fill" to="#808080" begin="zoomplus.mouseover" end="zoomplus.mouseout"/>
                        </use>
                        <path d="M-4,0h8M0,-4v8" fill="none" stroke="white" stroke-width="1.5" pointer-events="none"/>
                </g>
                <g id="zoomMin">
                        <use xlink:href="#rim" fill="#404040">
                                <set attributeName="fill" to="#808080" begin="zoomminus.mouseover" end="zoomminus.mouseout"/>
                        </use>
                        <path d="M-4,0h8" fill="none" stroke="white" stroke-width="1.5" pointer-events="none"/>
                </g>
                <g id="dirArrow">
                        <path fill="none" stroke="white" stroke-width="1.5" d="M0,-3.0v7 M-2.5,-0.5L0,-3.0L2.5,-0.5"/>
                </g>
               <g id="resetDef">
                       <use xlink:href="#rim2" fill="#404040">
                               <set attributeName="fill" to="#808080" begin="reset.mouseover" end="reset.mouseout"/>
                       </use>
               </g>
        </defs>

<script type="text/javascript">
var viewWidth = 572;
var viewHeight = 624;
var sectionId = 'dynsection-4';
</script>
<script xlink:href="svgpan.js"/>
<svg id="graph" class="graph">
<g id="viewport">
<title>denoptim.ga.Population.add</title>
<polygon fill="white" stroke="transparent" points="-4,4 -4,-620 568,-620 568,4 -4,4"/>
<!-- Node1 -->
<g id="node1" class="node">
<title>Node1</title>
<g id="a_node1"><a xlink:title=" ">
<polygon fill="#bfbfbf" stroke="black" points="429,-300 429,-319 564,-319 564,-300 429,-300"/>
<text text-anchor="middle" x="496.5" y="-307" font-family="Helvetica,sans-Serif" font-size="10.00">denoptim.ga.Population.add</text>
</a>
</g>
</g>
<!-- Node2 -->
<g id="node2" class="node">
<title>Node2</title>
<g id="a_node2"><a xlink:href="classdenoptim_1_1ga_1_1_offspring_evaluation_task.html#aab5b9c0b8a88922460f5c28ae161d1fa" target="_top" xlink:title=" ">
<polygon fill="white" stroke="black" points="214.5,-585.5 214.5,-615.5 369.5,-615.5 369.5,-585.5 214.5,-585.5"/>
<text text-anchor="start" x="222.5" y="-603.5" font-family="Helvetica,sans-Serif" font-size="10.00">denoptim.ga.OffspringEvaluation</text>
<text text-anchor="middle" x="292" y="-592.5" font-family="Helvetica,sans-Serif" font-size="10.00">Task.call</text>
</a>
</g>
</g>
<!-- Node1&#45;&gt;Node2 -->
<g id="edge1" class="edge">
<title>Node1&#45;&gt;Node2</title>
<path fill="none" stroke="midnightblue" d="M493.93,-329.28C488.93,-378.7 468.85,-508.44 393,-575.5 386.16,-581.55 378.08,-586.17 369.52,-589.71"/>
<polygon fill="midnightblue" stroke="midnightblue" points="497.43,-329.53 494.85,-319.26 490.45,-328.9 497.43,-329.53"/>
</g>
<!-- Node3 -->
<g id="node3" class="node">
<title>Node3</title>
<g id="a_node3"><a xlink:href="classdenoptim_1_1ga_1_1_population.html#a6ee19df57078d4a4e9831cf97dcf7cc4" target="_top" xlink:title="Does not clone the cross&#45;over compatibility relations between each pairs of population members.">
<polygon fill="white" stroke="black" points="220.5,-529 220.5,-548 363.5,-548 363.5,-529 220.5,-529"/>
<text text-anchor="middle" x="292" y="-536" font-family="Helvetica,sans-Serif" font-size="10.00">denoptim.ga.Population.clone</text>
</a>
</g>
</g>
<!-- Node1&#45;&gt;Node3 -->
<g id="edge2" class="edge">
<title>Node1&#45;&gt;Node3</title>
<path fill="none" stroke="midnightblue" d="M491.58,-328.84C482.23,-369.8 454.64,-465.53 393,-514.5 384.4,-521.33 374.16,-526.26 363.57,-529.82"/>
<polygon fill="midnightblue" stroke="midnightblue" points="495.01,-329.55 493.7,-319.03 488.17,-328.07 495.01,-329.55"/>
</g>
<!-- Node4 -->
<g id="node4" class="node">
<title>Node4</title>
<g id="a_node4"><a xlink:href="classdenoptim_1_1ga_1_1_population_test.html#a5db0672054a9fc1dbc923310732fdb3a" target="_top" xlink:title=" ">
<polygon fill="white" stroke="black" points="0,-504.5 0,-534.5 155,-534.5 155,-504.5 0,-504.5"/>
<text text-anchor="start" x="8" y="-522.5" font-family="Helvetica,sans-Serif" font-size="10.00">denoptim.ga.PopulationTest.test</text>
<text text-anchor="middle" x="77.5" y="-511.5" font-family="Helvetica,sans-Serif" font-size="10.00">Clone</text>
</a>
</g>
</g>
<!-- Node1&#45;&gt;Node4 -->
<g id="edge10" class="edge">
<title>Node1&#45;&gt;Node4</title>
<path fill="none" stroke="midnightblue" d="M490.16,-328.96C478.95,-365.71 449.24,-444.91 393,-481.5 354.97,-506.24 235.31,-514.88 155.05,-517.89"/>
<polygon fill="midnightblue" stroke="midnightblue" points="493.62,-329.59 493.05,-319.01 486.89,-327.63 493.62,-329.59"/>
</g>
<!-- Node5 -->
<g id="node5" class="node">
<title>Node5</title>
<g id="a_node5"><a xlink:href="classdenoptim_1_1ga_1_1_e_a_utils_test.html#a9aa17c44bb5d48c83e350c36cd68af68" target="_top" xlink:title=" ">
<polygon fill="white" stroke="black" points="220.5,-441.5 220.5,-471.5 363.5,-471.5 363.5,-441.5 220.5,-441.5"/>
<text text-anchor="start" x="228.5" y="-459.5" font-family="Helvetica,sans-Serif" font-size="10.00">denoptim.ga.EAUtilsTest.test</text>
<text text-anchor="middle" x="292" y="-448.5" font-family="Helvetica,sans-Serif" font-size="10.00">AvoidRedundantXOver</text>
</a>
</g>
</g>
<!-- Node1&#45;&gt;Node5 -->
<g id="edge5" class="edge">
<title>Node1&#45;&gt;Node5</title>
<path fill="none" stroke="midnightblue" d="M485.21,-328.24C469.21,-355.57 435.69,-405.98 393,-432.5 384.05,-438.06 373.92,-442.33 363.62,-445.61"/>
<polygon fill="midnightblue" stroke="midnightblue" points="488.4,-329.73 490.3,-319.3 482.31,-326.26 488.4,-329.73"/>
</g>
<!-- Node6 -->
<g id="node6" class="node">
<title>Node6</title>
<g id="a_node6"><a xlink:href="classdenoptim_1_1ga_1_1_e_a_utils_test.html#ae0baa3684be9b8a4af611083649a9e6d" target="_top" xlink:title=" ">
<polygon fill="white" stroke="black" points="193.5,-392.5 193.5,-422.5 390.5,-422.5 390.5,-392.5 193.5,-392.5"/>
<text text-anchor="start" x="201.5" y="-410.5" font-family="Helvetica,sans-Serif" font-size="10.00">denoptim.ga.EAUtilsTest.test</text>
<text text-anchor="middle" x="292" y="-399.5" font-family="Helvetica,sans-Serif" font-size="10.00">BuildByXOver_Embedded_FixedStructure</text>
</a>
</g>
</g>
<!-- Node1&#45;&gt;Node6 -->
<g id="edge6" class="edge">
<title>Node1&#45;&gt;Node6</title>
<path fill="none" stroke="midnightblue" d="M477.27,-326.1C457.79,-342.96 425.32,-368.66 393,-383.5 385.54,-386.93 377.53,-389.9 369.41,-392.46"/>
<polygon fill="midnightblue" stroke="midnightblue" points="479.84,-328.49 485.02,-319.25 475.21,-323.25 479.84,-328.49"/>
</g>
<!-- Node7 -->
<g id="node7" class="node">
<title>Node7</title>
<g id="a_node7"><a xlink:href="classdenoptim_1_1ga_1_1_e_a_utils_test.html#ad4662f1a3a989020f953f7034d7c1beb" target="_top" xlink:title="NB: the graphs from methods getPairOfTestGraphsB() and getPairOfTestGraphsBxo() and &#160;&#160;getPairOfTestGr...">
<polygon fill="white" stroke="black" points="215.5,-343.5 215.5,-373.5 368.5,-373.5 368.5,-343.5 215.5,-343.5"/>
<text text-anchor="start" x="223.5" y="-361.5" font-family="Helvetica,sans-Serif" font-size="10.00">denoptim.ga.EAUtilsTest.test</text>
<text text-anchor="middle" x="292" y="-350.5" font-family="Helvetica,sans-Serif" font-size="10.00">BuildByXOver_Embedded_Free</text>
</a>
</g>
</g>
<!-- Node1&#45;&gt;Node7 -->
<g id="edge7" class="edge">
<title>Node1&#45;&gt;Node7</title>
<path fill="none" stroke="midnightblue" d="M446.83,-321.41C429.81,-325.56 410.56,-330.25 393,-334.5 380.94,-337.42 368.06,-340.52 355.69,-343.49"/>
<polygon fill="midnightblue" stroke="midnightblue" points="447.69,-324.8 456.57,-319.03 446.03,-318 447.69,-324.8"/>
</g>
<!-- Node8 -->
<g id="node8" class="node">
<title>Node8</title>
<g id="a_node8"><a xlink:href="classdenoptim_1_1ga_1_1_e_a_utils_test.html#af8cfc323dd7d12090ddf4b836a3349cf" target="_top" xlink:title="NB: the graphs from methods getPairOfTestGraphsB() and getPairOfTestGraphsBxo() and &#160;&#160;getPairOfTestGr...">
<polygon fill="white" stroke="black" points="191,-294.5 191,-324.5 393,-324.5 393,-294.5 191,-294.5"/>
<text text-anchor="start" x="199" y="-312.5" font-family="Helvetica,sans-Serif" font-size="10.00">denoptim.ga.EAUtilsTest.test</text>
<text text-anchor="middle" x="292" y="-301.5" font-family="Helvetica,sans-Serif" font-size="10.00">BuildByXOver_Embedded_FreeBackwards</text>
</a>
</g>
</g>
<!-- Node1&#45;&gt;Node8 -->
<g id="edge8" class="edge">
<title>Node1&#45;&gt;Node8</title>
<path fill="none" stroke="midnightblue" d="M418.87,-309.5C410.52,-309.5 401.93,-309.5 393.36,-309.5"/>
<polygon fill="midnightblue" stroke="midnightblue" points="418.91,-313 428.91,-309.5 418.91,-306 418.91,-313"/>
</g>
<!-- Node9 -->
<g id="node9" class="node">
<title>Node9</title>
<g id="a_node9"><a xlink:href="classdenoptim_1_1ga_1_1_e_a_utils_test.html#a52682a0cc73283eafd36d345b6929ea8" target="_top" xlink:title=" ">
<polygon fill="white" stroke="black" points="220.5,-245.5 220.5,-275.5 363.5,-275.5 363.5,-245.5 220.5,-245.5"/>
<text text-anchor="start" x="228.5" y="-263.5" font-family="Helvetica,sans-Serif" font-size="10.00">denoptim.ga.EAUtilsTest.test</text>
<text text-anchor="middle" x="292" y="-252.5" font-family="Helvetica,sans-Serif" font-size="10.00">BuildByXOver_SubGraph</text>
</a>
</g>
</g>
<!-- Node1&#45;&gt;Node9 -->
<g id="edge9" class="edge">
<title>Node1&#45;&gt;Node9</title>
<path fill="none" stroke="midnightblue" d="M446.21,-297.57C418.79,-290.94 384.39,-282.61 355.14,-275.54"/>
<polygon fill="midnightblue" stroke="midnightblue" points="445.43,-300.99 455.98,-299.94 447.08,-294.18 445.43,-300.99"/>
</g>
<!-- Node10 -->
<g id="node10" class="node">
<title>Node10</title>
<g id="a_node10"><a xlink:href="classdenoptim_1_1ga_1_1_population_test.html#aa40d0bedbf2ca22b34267aa8491d7ec3" target="_top" xlink:title=" ">
<polygon fill="white" stroke="black" points="214.5,-196.5 214.5,-226.5 369.5,-226.5 369.5,-196.5 214.5,-196.5"/>
<text text-anchor="start" x="222.5" y="-214.5" font-family="Helvetica,sans-Serif" font-size="10.00">denoptim.ga.PopulationTest.test</text>
<text text-anchor="middle" x="292" y="-203.5" font-family="Helvetica,sans-Serif" font-size="10.00">GetMinMax</text>
</a>
</g>
</g>
<!-- Node1&#45;&gt;Node10 -->
<g id="edge11" class="edge">
<title>Node1&#45;&gt;Node10</title>
<path fill="none" stroke="midnightblue" d="M477.2,-293.2C457.66,-276.62 425.15,-251.32 393,-236.5 384.71,-232.68 375.76,-229.39 366.73,-226.57"/>
<polygon fill="midnightblue" stroke="midnightblue" points="475.12,-296.03 484.98,-299.93 479.7,-290.74 475.12,-296.03"/>
</g>
<!-- Node11 -->
<g id="node11" class="node">
<title>Node11</title>
<g id="a_node11"><a xlink:href="classdenoptim_1_1ga_1_1_population_test.html#a6725ae8dc980dd79466800b489fc9620" target="_top" xlink:title=" ">
<polygon fill="white" stroke="black" points="214.5,-147.5 214.5,-177.5 369.5,-177.5 369.5,-147.5 214.5,-147.5"/>
<text text-anchor="start" x="222.5" y="-165.5" font-family="Helvetica,sans-Serif" font-size="10.00">denoptim.ga.PopulationTest.test</text>
<text text-anchor="middle" x="292" y="-154.5" font-family="Helvetica,sans-Serif" font-size="10.00">IsInPercentile</text>
</a>
</g>
</g>
<!-- Node1&#45;&gt;Node11 -->
<g id="edge12" class="edge">
<title>Node1&#45;&gt;Node11</title>
<path fill="none" stroke="midnightblue" d="M485.14,-290.96C469.04,-263.92 435.42,-214 393,-187.5 385.79,-183 377.81,-179.3 369.6,-176.27"/>
<polygon fill="midnightblue" stroke="midnightblue" points="482.22,-292.91 490.26,-299.8 488.28,-289.4 482.22,-292.91"/>
</g>
<!-- Node12 -->
<g id="node12" class="node">
<title>Node12</title>
<g id="a_node12"><a xlink:href="classdenoptim_1_1ga_1_1_population_test.html#a94541e70343daaeaf733289dab8f2dee" target="_top" xlink:title=" ">
<polygon fill="white" stroke="black" points="214.5,-98.5 214.5,-128.5 369.5,-128.5 369.5,-98.5 214.5,-98.5"/>
<text text-anchor="start" x="222.5" y="-116.5" font-family="Helvetica,sans-Serif" font-size="10.00">denoptim.ga.PopulationTest.test</text>
<text text-anchor="middle" x="292" y="-105.5" font-family="Helvetica,sans-Serif" font-size="10.00">PopulationVersion</text>
</a>
</g>
</g>
<!-- Node1&#45;&gt;Node12 -->
<g id="edge13" class="edge">
<title>Node1&#45;&gt;Node12</title>
<path fill="none" stroke="midnightblue" d="M489.52,-290.27C477.39,-254.57 446.42,-178.1 393,-138.5 385.96,-133.28 377.94,-129.14 369.59,-125.86"/>
<polygon fill="midnightblue" stroke="midnightblue" points="486.25,-291.54 492.68,-299.95 492.9,-289.36 486.25,-291.54"/>
</g>
<!-- Node13 -->
<g id="node13" class="node">
<title>Node13</title>
<g id="a_node13"><a xlink:href="classdenoptim_1_1io_1_1_denoptim_i_o_test.html#af5c2f9114881ebde82a83f922c0c23fe" target="_top" xlink:title=" ">
<polygon fill="white" stroke="black" points="213,-49.5 213,-79.5 371,-79.5 371,-49.5 213,-49.5"/>
<text text-anchor="start" x="221" y="-67.5" font-family="Helvetica,sans-Serif" font-size="10.00">denoptim.io.DenoptimIOTest.test</text>
<text text-anchor="middle" x="292" y="-56.5" font-family="Helvetica,sans-Serif" font-size="10.00">ReadGenerationFromSummary</text>
</a>
</g>
</g>
<!-- Node1&#45;&gt;Node13 -->
<g id="edge14" class="edge">
<title>Node1&#45;&gt;Node13</title>
<path fill="none" stroke="midnightblue" d="M492.16,-289.7C483.79,-246.41 457.74,-142.92 393,-89.5 386.51,-84.15 379.04,-79.92 371.15,-76.58"/>
<polygon fill="midnightblue" stroke="midnightblue" points="488.76,-290.58 494,-299.79 495.65,-289.32 488.76,-290.58"/>
</g>
<!-- Node14 -->
<g id="node14" class="node">
<title>Node14</title>
<g id="a_node14"><a xlink:href="classdenoptim_1_1ga_1_1_population_test.html#a278212ebff2501b7071d342f9a027599" target="_top" xlink:title=" ">
<polygon fill="white" stroke="black" points="214.5,-0.5 214.5,-30.5 369.5,-30.5 369.5,-0.5 214.5,-0.5"/>
<text text-anchor="start" x="222.5" y="-18.5" font-family="Helvetica,sans-Serif" font-size="10.00">denoptim.ga.PopulationTest.test</text>
<text text-anchor="middle" x="292" y="-7.5" font-family="Helvetica,sans-Serif" font-size="10.00">XOverCompatibility</text>
</a>
</g>
</g>
<!-- Node1&#45;&gt;Node14 -->
<g id="edge15" class="edge">
<title>Node1&#45;&gt;Node14</title>
<path fill="none" stroke="midnightblue" d="M494.04,-289.84C489.26,-240.13 469.64,-108.52 393,-40.5 386.17,-34.44 378.1,-29.81 369.54,-26.26"/>
<polygon fill="midnightblue" stroke="midnightblue" points="490.56,-290.24 494.91,-299.9 497.54,-289.64 490.56,-290.24"/>
</g>
<!-- Node3&#45;&gt;Node3 -->
<g id="edge3" class="edge">
<title>Node3&#45;&gt;Node3</title>
<path fill="none" stroke="midnightblue" d="M330.23,-555.61C330.8,-561.63 318.06,-566.5 292,-566.5 255.74,-566.5 245.26,-557.07 260.56,-548.26"/>
<polygon fill="midnightblue" stroke="midnightblue" points="332.8,-553.23 323.44,-548.26 327.65,-557.98 332.8,-553.23"/>
</g>
<!-- Node3&#45;&gt;Node4 -->
<g id="edge4" class="edge">
<title>Node3&#45;&gt;Node4</title>
<path fill="none" stroke="midnightblue" d="M210.06,-531.26C192.04,-529.65 173,-527.95 155.16,-526.35"/>
<polygon fill="midnightblue" stroke="midnightblue" points="209.97,-534.77 220.24,-532.17 210.59,-527.8 209.97,-534.77"/>
</g>
</g>
</svg>
        <g id="navigator" transform="translate(0 0)" fill="#404254">
                <rect fill="#f2f5e9" fill-opacity="0.5" stroke="#606060" stroke-width=".5" x="0" y="0" width="60" height="60"/>
                <use id="zoomplus" xlink:href="#zoomPlus" x="17" y="9" onmousedown="handleZoom(evt,'in')"/>
                <use id="zoomminus" xlink:href="#zoomMin" x="42" y="9" onmousedown="handleZoom(evt,'out')"/>
                <use id="reset" xlink:href="#resetDef" x="30" y="36" onmousedown="handleReset()"/>
                <g id="arrowUp" xlink:href="#dirArrow" transform="translate(30 24)" onmousedown="handlePan(0,-1)">
                  <use xlink:href="#rim" fill="#404040">
                        <set attributeName="fill" to="#808080" begin="arrowUp.mouseover" end="arrowUp.mouseout"/>
                  </use>
                  <path fill="none" stroke="white" stroke-width="1.5" d="M0,-3.0v7 M-2.5,-0.5L0,-3.0L2.5,-0.5"/>
                </g>
                <g id="arrowRight" xlink:href="#dirArrow" transform="rotate(90) translate(36 -43)" onmousedown="handlePan(1,0)">
                  <use xlink:href="#rim" fill="#404040">
                        <set attributeName="fill" to="#808080" begin="arrowRight.mouseover" end="arrowRight.mouseout"/>
                  </use>
                  <path fill="none" stroke="white" stroke-width="1.5" d="M0,-3.0v7 M-2.5,-0.5L0,-3.0L2.5,-0.5"/>
                </g>
                <g id="arrowDown" xlink:href="#dirArrow" transform="rotate(180) translate(-30 -48)" onmousedown="handlePan(0,1)">
                  <use xlink:href="#rim" fill="#404040">
                        <set attributeName="fill" to="#808080" begin="arrowDown.mouseover" end="arrowDown.mouseout"/>
                  </use>
                  <path fill="none" stroke="white" stroke-width="1.5" d="M0,-3.0v7 M-2.5,-0.5L0,-3.0L2.5,-0.5"/>
                </g>
                <g id="arrowLeft" xlink:href="#dirArrow" transform="rotate(270) translate(-36 17)" onmousedown="handlePan(-1,0)">
                  <use xlink:href="#rim" fill="#404040">
                        <set attributeName="fill" to="#808080" begin="arrowLeft.mouseover" end="arrowLeft.mouseout"/>
                  </use>
                  <path fill="none" stroke="white" stroke-width="1.5" d="M0,-3.0v7 M-2.5,-0.5L0,-3.0L2.5,-0.5"/>
                </g>
        </g>
        <svg viewBox="0 0 15 15" width="100%" height="30px" preserveAspectRatio="xMaxYMin meet">
         <g id="arrow_out" transform="scale(0.3 0.3)">
          <a xlink:href="classdenoptim_1_1ga_1_1_population_a4c6d546befc92708dbf8fff1aa840438_icgraph_org.svg" target="_base">
           <rect id="button" ry="5" rx="5" y="6" x="6" height="38" width="38"
                fill="#f2f5e9" fill-opacity="0.5" stroke="#606060" stroke-width="1.0"/>
           <path id="arrow"
             d="M 11.500037,31.436501 C 11.940474,20.09759 22.043105,11.32322 32.158766,21.979434 L 37.068811,17.246167 C 37.068811,17.246167 37.088388,32 37.088388,32 L 22.160133,31.978069 C 22.160133,31.978069 26.997745,27.140456 26.997745,27.140456 C 18.528582,18.264221 13.291696,25.230495 11.500037,31.436501 z"
             style="fill:#404040;"/>
          </a>
         </g>
        </svg>
</svg>
