<?xml version="1.0" encoding="UTF-8" standalone="no"?>
<!DOCTYPE svg PUBLIC "-//W3C//DTD SVG 1.1//EN"
 "http://www.w3.org/Graphics/SVG/1.1/DTD/svg11.dtd">
<!-- Generated by graphviz version 3.0.0 (20221109.1736)
 -->
<!-- Title: denoptim.fragspace.FragmentSpace.classifyFragment Pages: 1 -->
<svg width="521pt" height="421pt"
 viewBox="0.00 0.00 521.00 421.00" xmlns="http://www.w3.org/2000/svg" xmlns:xlink="http://www.w3.org/1999/xlink">
<g id="graph0" class="graph" transform="scale(1 1) rotate(0) translate(4 417)">
<title>denoptim.fragspace.FragmentSpace.classifyFragment</title>
<polygon fill="white" stroke="transparent" points="-4,4 -4,-417 517,-417 517,4 -4,4"/>
<!-- Node1 -->
<g id="node1" class="node">
<title>Node1</title>
<g id="a_node1"><a xlink:title="Classify a fragment in terms of the number of APs and possibly their type (AP&#45;Class).">
<polygon fill="#bfbfbf" stroke="black" points="0,-196.5 0,-226.5 145,-226.5 145,-196.5 0,-196.5"/>
<text text-anchor="start" x="8" y="-214.5" font-family="Helvetica,sans-Serif" font-size="10.00">denoptim.fragspace.Fragment</text>
<text text-anchor="middle" x="72.5" y="-203.5" font-family="Helvetica,sans-Serif" font-size="10.00">Space.classifyFragment</text>
</a>
</g>
</g>
<!-- Node2 -->
<g id="node2" class="node">
<title>Node2</title>
<g id="a_node2"><a xlink:href="classdenoptim_1_1graph_1_1_vertex.html#a274e9253fa2a75073e7fc14918e54eef" target="_top" xlink:title="Returns the list of all APClasses present on this vertex.">
<polygon fill="white" stroke="black" points="201,-382.5 201,-412.5 329,-412.5 329,-382.5 201,-382.5"/>
<text text-anchor="start" x="209" y="-400.5" font-family="Helvetica,sans-Serif" font-size="10.00">denoptim.graph.Vertex.get</text>
<text text-anchor="middle" x="265" y="-389.5" font-family="Helvetica,sans-Serif" font-size="10.00">AllAPClasses</text>
</a>
</g>
</g>
<!-- Node1&#45;&gt;Node2 -->
<g id="edge1" class="edge">
<title>Node1&#45;&gt;Node2</title>
<path fill="none" stroke="midnightblue" d="M80.04,-226.7C94.06,-257.6 129.96,-328.12 181,-367.5 186.3,-371.59 192.2,-375.15 198.36,-378.26"/>
<polygon fill="midnightblue" stroke="midnightblue" points="196.96,-381.47 207.5,-382.48 199.89,-375.11 196.96,-381.47"/>
</g>
<!-- Node3 -->
<g id="node3" class="node">
<title>Node3</title>
<g id="a_node3"><a xlink:href="classdenoptim_1_1graph_1_1_vertex.html#a85aa901ec3fff8e566c0cc32d9c9f84e" target="_top" xlink:title=" ">
<polygon fill="white" stroke="black" points="385,-338.5 385,-368.5 513,-368.5 513,-338.5 385,-338.5"/>
<text text-anchor="start" x="393" y="-356.5" font-family="Helvetica,sans-Serif" font-size="10.00">denoptim.graph.Vertex.get</text>
<text text-anchor="middle" x="449" y="-345.5" font-family="Helvetica,sans-Serif" font-size="10.00">AttachmentPoints</text>
</a>
</g>
</g>
<!-- Node1&#45;&gt;Node3 -->
<g id="edge4" class="edge">
<title>Node1&#45;&gt;Node3</title>
<path fill="none" stroke="midnightblue" d="M81.39,-226.59C96.53,-253.78 132.51,-310.37 181,-334.5 241.22,-364.47 318.69,-366.62 374.66,-362.84"/>
<polygon fill="midnightblue" stroke="midnightblue" points="375.15,-366.31 384.85,-362.06 374.62,-359.33 375.15,-366.31"/>
</g>
<!-- Node4 -->
<g id="node4" class="node">
<title>Node4</title>
<g id="a_node4"><a xlink:href="classdenoptim_1_1graph_1_1_attachment_point.html#a31bed4cb29f6437bf8a888a1dda3fd95" target="_top" xlink:title="Returns the Attachment Point class.">
<polygon fill="white" stroke="black" points="197.5,-294.5 197.5,-324.5 332.5,-324.5 332.5,-294.5 197.5,-294.5"/>
<text text-anchor="start" x="205.5" y="-312.5" font-family="Helvetica,sans-Serif" font-size="10.00">denoptim.graph.Attachment</text>
<text text-anchor="middle" x="265" y="-301.5" font-family="Helvetica,sans-Serif" font-size="10.00">Point.getAPClass</text>
</a>
</g>
</g>
<!-- Node1&#45;&gt;Node4 -->
<g id="edge3" class="edge">
<title>Node1&#45;&gt;Node4</title>
<path fill="none" stroke="midnightblue" d="M91.41,-226.54C111.9,-243.07 147.01,-269.41 181,-285.5 185.08,-287.43 189.34,-289.24 193.69,-290.92"/>
<polygon fill="midnightblue" stroke="midnightblue" points="192.72,-294.3 203.31,-294.43 195.11,-287.72 192.72,-294.3"/>
</g>
<!-- Node5 -->
<g id="node5" class="node">
<title>Node5</title>
<g id="a_node5"><a xlink:href="classdenoptim_1_1fragspace_1_1_fragment_space.html#ae9d431ee87c4285c7d49d78b90ebe3a6" target="_top" xlink:title="Returns the list of fragments with given number of APs.">
<polygon fill="white" stroke="black" points="192.5,-245.5 192.5,-275.5 337.5,-275.5 337.5,-245.5 192.5,-245.5"/>
<text text-anchor="start" x="200.5" y="-263.5" font-family="Helvetica,sans-Serif" font-size="10.00">denoptim.fragspace.Fragment</text>
<text text-anchor="middle" x="265" y="-252.5" font-family="Helvetica,sans-Serif" font-size="10.00">Space.getFragsWithNumAps</text>
</a>
</g>
</g>
<!-- Node1&#45;&gt;Node5 -->
<g id="edge5" class="edge">
<title>Node1&#45;&gt;Node5</title>
<path fill="none" stroke="midnightblue" d="M131.95,-226.53C152.16,-231.73 174.97,-237.6 195.89,-242.98"/>
<polygon fill="midnightblue" stroke="midnightblue" points="195.1,-246.39 205.66,-245.49 196.85,-239.61 195.1,-246.39"/>
</g>
<!-- Node6 -->
<g id="node6" class="node">
<title>Node6</title>
<g id="a_node6"><a xlink:href="classdenoptim_1_1graph_1_1_vertex.html#ac578a57700de26b2f0ba1fc7470129d0" target="_top" xlink:title=" ">
<polygon fill="white" stroke="black" points="201,-196.5 201,-226.5 329,-226.5 329,-196.5 201,-196.5"/>
<text text-anchor="start" x="209" y="-214.5" font-family="Helvetica,sans-Serif" font-size="10.00">denoptim.graph.Vertex.get</text>
<text text-anchor="middle" x="265" y="-203.5" font-family="Helvetica,sans-Serif" font-size="10.00">FreeAPCount</text>
</a>
</g>
</g>
<!-- Node1&#45;&gt;Node6 -->
<g id="edge6" class="edge">
<title>Node1&#45;&gt;Node6</title>
<path fill="none" stroke="midnightblue" d="M145.25,-211.5C160.07,-211.5 175.71,-211.5 190.59,-211.5"/>
<polygon fill="midnightblue" stroke="midnightblue" points="190.76,-215 200.76,-211.5 190.76,-208 190.76,-215"/>
</g>
<!-- Node7 -->
<g id="node7" class="node">
<title>Node7</title>
<g id="a_node7"><a xlink:href="classdenoptim_1_1fragspace_1_1_fragment_space.html#a3aad125a846731307d56e68cd69b8ae5" target="_top" xlink:title=" ">
<polygon fill="white" stroke="black" points="181.5,-147.5 181.5,-177.5 348.5,-177.5 348.5,-147.5 181.5,-147.5"/>
<text text-anchor="start" x="189.5" y="-165.5" font-family="Helvetica,sans-Serif" font-size="10.00">denoptim.fragspace.Fragment</text>
<text text-anchor="middle" x="265" y="-154.5" font-family="Helvetica,sans-Serif" font-size="10.00">Space.getMapOfFragsPerNumAps</text>
</a>
</g>
</g>
<!-- Node1&#45;&gt;Node7 -->
<g id="edge8" class="edge">
<title>Node1&#45;&gt;Node7</title>
<path fill="none" stroke="midnightblue" d="M131.95,-196.47C152.16,-191.27 174.97,-185.4 195.89,-180.02"/>
<polygon fill="midnightblue" stroke="midnightblue" points="196.85,-183.39 205.66,-177.51 195.1,-176.61 196.85,-183.39"/>
</g>
<!-- Node8 -->
<g id="node8" class="node">
<title>Node8</title>
<g id="a_node8"><a xlink:href="classdenoptim_1_1graph_1_1_attachment_point.html#a77887ce020d49c189b89e049f12b70ba" target="_top" xlink:title="Check availability of this attachment point.">
<polygon fill="white" stroke="black" points="197.5,-98.5 197.5,-128.5 332.5,-128.5 332.5,-98.5 197.5,-98.5"/>
<text text-anchor="start" x="205.5" y="-116.5" font-family="Helvetica,sans-Serif" font-size="10.00">denoptim.graph.Attachment</text>
<text text-anchor="middle" x="265" y="-105.5" font-family="Helvetica,sans-Serif" font-size="10.00">Point.isAvailable</text>
</a>
</g>
</g>
<!-- Node1&#45;&gt;Node8 -->
<g id="edge9" class="edge">
<title>Node1&#45;&gt;Node8</title>
<path fill="none" stroke="midnightblue" d="M91.85,-196.45C112.45,-180.21 147.39,-154.51 181,-138.5 185.84,-136.19 190.94,-134.05 196.14,-132.06"/>
<polygon fill="midnightblue" stroke="midnightblue" points="197.34,-135.34 205.55,-128.65 194.96,-128.76 197.34,-135.34"/>
</g>
<!-- Node9 -->
<g id="node9" class="node">
<title>Node9</title>
<g id="a_node9"><a xlink:href="classdenoptim_1_1fragspace_1_1_fragment_space.html#a1746f750aa65cefd1ed92ab55e750e63" target="_top" xlink:title="Adds the reference to a ring&#45;closing vertex (RCV) to the quick&#45;access list of RCVs known in this buil...">
<polygon fill="white" stroke="black" points="192.5,-49.5 192.5,-79.5 337.5,-79.5 337.5,-49.5 192.5,-49.5"/>
<text text-anchor="start" x="200.5" y="-67.5" font-family="Helvetica,sans-Serif" font-size="10.00">denoptim.fragspace.Fragment</text>
<text text-anchor="middle" x="265" y="-56.5" font-family="Helvetica,sans-Serif" font-size="10.00">Space.registerRCV</text>
</a>
</g>
</g>
<!-- Node1&#45;&gt;Node9 -->
<g id="edge10" class="edge">
<title>Node1&#45;&gt;Node9</title>
<path fill="none" stroke="midnightblue" d="M82.77,-196.32C99.3,-170.52 136.33,-118.16 181,-89.5 184.16,-87.47 187.5,-85.6 190.94,-83.87"/>
<polygon fill="midnightblue" stroke="midnightblue" points="192.61,-86.96 200.27,-79.64 189.72,-80.59 192.61,-86.96"/>
</g>
<!-- Node10 -->
<g id="node10" class="node">
<title>Node10</title>
<g id="a_node10"><a xlink:href="classdenoptim_1_1fragspace_1_1_fragment_space.html#a47b278f84db073b1f06809f9c42cfae5" target="_top" xlink:title="Check usage of APClass&#45;based approach, i.e., uses attachment points with annotated data (i....">
<polygon fill="white" stroke="black" points="181,-0.5 181,-30.5 349,-30.5 349,-0.5 181,-0.5"/>
<text text-anchor="start" x="189" y="-18.5" font-family="Helvetica,sans-Serif" font-size="10.00">denoptim.fragspace.Fragment</text>
<text text-anchor="middle" x="265" y="-7.5" font-family="Helvetica,sans-Serif" font-size="10.00">Space.useAPclassBasedApproach</text>
</a>
</g>
</g>
<!-- Node1&#45;&gt;Node10 -->
<g id="edge11" class="edge">
<title>Node1&#45;&gt;Node10</title>
<path fill="none" stroke="midnightblue" d="M78.77,-196.38C91.15,-163.06 125.35,-82.9 181,-40.5 183.36,-38.7 185.84,-37.04 188.42,-35.49"/>
<polygon fill="midnightblue" stroke="midnightblue" points="190.31,-38.45 197.51,-30.67 187.03,-32.26 190.31,-38.45"/>
</g>
<!-- Node2&#45;&gt;Node3 -->
<g id="edge2" class="edge">
<title>Node2&#45;&gt;Node3</title>
<path fill="none" stroke="midnightblue" d="M328.13,-382.48C343.56,-378.75 360.23,-374.72 376.09,-370.88"/>
<polygon fill="midnightblue" stroke="midnightblue" points="376.95,-374.28 385.85,-368.53 375.3,-367.47 376.95,-374.28"/>
</g>
<!-- Node6&#45;&gt;Node3 -->
<g id="edge7" class="edge">
<title>Node6&#45;&gt;Node3</title>
<path fill="none" stroke="midnightblue" d="M329.38,-226.35C336.27,-229.18 342.96,-232.54 349,-236.5 386.02,-260.78 416.74,-302.92 433.71,-329.45"/>
<polygon fill="midnightblue" stroke="midnightblue" points="430.86,-331.5 439.12,-338.13 436.8,-327.79 430.86,-331.5"/>
</g>
</g>
</svg>
