<?xml version="1.0" encoding="UTF-8" standalone="no"?>
<!DOCTYPE svg PUBLIC "-//W3C//DTD SVG 1.1//EN"
 "http://www.w3.org/Graphics/SVG/1.1/DTD/svg11.dtd">
<!-- Generated by graphviz version 3.0.0 (20221109.1736)
 -->
<!-- Title: denoptim.ga.EAUtils.combineRelatedAPPairUtil Pages: 1 -->
<svg width="336pt" height="78pt"
 viewBox="0.00 0.00 336.00 77.50" xmlns="http://www.w3.org/2000/svg" xmlns:xlink="http://www.w3.org/1999/xlink">
<g id="graph0" class="graph" transform="scale(1 1) rotate(0) translate(4 73.5)">
<title>denoptim.ga.EAUtils.combineRelatedAPPairUtil</title>
<polygon fill="white" stroke="transparent" points="-4,4 -4,-73.5 332,-73.5 332,4 -4,4"/>
<!-- Node1 -->
<g id="node1" class="node">
<title>Node1</title>
<g id="a_node1"><a xlink:title=" ">
<polygon fill="#bfbfbf" stroke="black" points="0,-17 0,-47 143,-47 143,-17 0,-17"/>
<text text-anchor="start" x="8" y="-35" font-family="Helvetica,sans-Serif" font-size="10.00">denoptim.ga.EAUtils.combine</text>
<text text-anchor="middle" x="71.5" y="-24" font-family="Helvetica,sans-Serif" font-size="10.00">RelatedAPPairUtil</text>
</a>
</g>
</g>
<!-- Node1&#45;&gt;Node1 -->
<g id="edge2" class="edge">
<title>Node1&#45;&gt;Node1</title>
<path fill="none" stroke="midnightblue" d="M39.78,-47.16C32.13,-56.56 42.71,-65.5 71.5,-65.5 89.05,-65.5 99.83,-62.18 103.84,-57.46"/>
<polygon fill="midnightblue" stroke="midnightblue" points="107.31,-56.93 103.22,-47.16 100.33,-57.35 107.31,-56.93"/>
</g>
<!-- Node2 -->
<g id="node2" class="node">
<title>Node2</title>
<g id="a_node2"><a xlink:href="classdenoptim_1_1ga_1_1_e_a_utils.html#afe6f781d7afa4125fd1f7bd6684a127d" target="_top" xlink:title="Evaluates if any pair of AttachmentPoint pairs involve the same AttachmentPoint, i....">
<polygon fill="white" stroke="black" points="183.5,-39 183.5,-69 323.5,-69 323.5,-39 183.5,-39"/>
<text text-anchor="start" x="191.5" y="-57" font-family="Helvetica,sans-Serif" font-size="10.00">denoptim.ga.EAUtils.apPairs</text>
<text text-anchor="middle" x="253.5" y="-46" font-family="Helvetica,sans-Serif" font-size="10.00">AreOverlapping</text>
</a>
</g>
</g>
<!-- Node1&#45;&gt;Node2 -->
<g id="edge1" class="edge">
<title>Node1&#45;&gt;Node2</title>
<path fill="none" stroke="midnightblue" d="M143.12,-40.63C153.02,-41.84 163.25,-43.09 173.29,-44.32"/>
<polygon fill="midnightblue" stroke="midnightblue" points="172.91,-47.8 183.26,-45.54 173.76,-40.85 172.91,-47.8"/>
</g>
<!-- Node3 -->
<g id="node3" class="node">
<title>Node3</title>
<g id="a_node3"><a xlink:href="classdenoptim_1_1ga_1_1_e_a_utils.html#a01d0514ae5e850bf2186bcb7d9b2b2ed" target="_top" xlink:title="Evaluates if a RelatedAPPair involves the same AttachmentPoint present in a collection.">
<polygon fill="white" stroke="black" points="179,-0.5 179,-19.5 328,-19.5 328,-0.5 179,-0.5"/>
<text text-anchor="middle" x="253.5" y="-7.5" font-family="Helvetica,sans-Serif" font-size="10.00">denoptim.ga.EAUtils.shareAPs</text>
</a>
</g>
</g>
<!-- Node1&#45;&gt;Node3 -->
<g id="edge3" class="edge">
<title>Node1&#45;&gt;Node3</title>
<path fill="none" stroke="midnightblue" d="M143.12,-23.37C151.55,-22.34 160.21,-21.28 168.8,-20.23"/>
<polygon fill="midnightblue" stroke="midnightblue" points="169.32,-23.69 178.82,-19.01 168.47,-16.74 169.32,-23.69"/>
</g>
</g>
</svg>
