<?xml version="1.0" encoding="UTF-8" standalone="no"?>
<!DOCTYPE svg PUBLIC "-//W3C//DTD SVG 1.1//EN"
 "http://www.w3.org/Graphics/SVG/1.1/DTD/svg11.dtd">
<!-- Generated by graphviz version 3.0.0 (20221109.1736)
 -->
<!-- Title: denoptim.gui.VertexViewPanel.loadSMILES Pages: 1 -->
<svg width="1944pt" height="359pt"
 viewBox="0.00 0.00 1944.00 359.00" xmlns="http://www.w3.org/2000/svg" xmlns:xlink="http://www.w3.org/1999/xlink">
<g id="graph0" class="graph" transform="scale(1 1) rotate(0) translate(4 355)">
<title>denoptim.gui.VertexViewPanel.loadSMILES</title>
<polygon fill="white" stroke="transparent" points="-4,4 -4,-355 1940,-355 1940,4 -4,4"/>
<!-- Node1 -->
<g id="node1" class="node">
<title>Node1</title>
<g id="a_node1"><a xlink:title="Loads a molecule build from a smiles string.">
<polygon fill="#bfbfbf" stroke="black" points="0,-97.5 0,-127.5 168,-127.5 168,-97.5 0,-97.5"/>
<text text-anchor="start" x="8" y="-115.5" font-family="Helvetica,sans-Serif" font-size="10.00">denoptim.gui.VertexViewPanel.load</text>
<text text-anchor="middle" x="84" y="-104.5" font-family="Helvetica,sans-Serif" font-size="10.00">SMILES</text>
</a>
</g>
</g>
<!-- Node2 -->
<g id="node2" class="node">
<title>Node2</title>
<g id="a_node2"><a xlink:href="classdenoptim_1_1gui_1_1_fragment_view_panel.html#a4e986670257e51a91dcf4aa090043427" target="_top" xlink:title="Loads a molecule build from a smiles string.">
<polygon fill="white" stroke="black" points="225,-122.5 225,-152.5 362,-152.5 362,-122.5 225,-122.5"/>
<text text-anchor="start" x="233" y="-140.5" font-family="Helvetica,sans-Serif" font-size="10.00">denoptim.gui.FragmentView</text>
<text text-anchor="middle" x="293.5" y="-129.5" font-family="Helvetica,sans-Serif" font-size="10.00">Panel.loadSMILES</text>
</a>
</g>
</g>
<!-- Node1&#45;&gt;Node2 -->
<g id="edge1" class="edge">
<title>Node1&#45;&gt;Node2</title>
<path fill="none" stroke="midnightblue" d="M168.2,-122.52C183.5,-124.37 199.42,-126.29 214.56,-128.11"/>
<polygon fill="midnightblue" stroke="midnightblue" points="214.55,-131.63 224.9,-129.35 215.39,-124.68 214.55,-131.63"/>
</g>
<!-- Node30 -->
<g id="node30" class="node">
<title>Node30</title>
<g id="a_node30"><a xlink:href="classdenoptim_1_1gui_1_1_vertex_view_panel.html#a8b9a434e470a5fab4d54100e931657bd" target="_top" xlink:title=" ">
<polygon fill="white" stroke="black" points="204,-73.5 204,-103.5 383,-103.5 383,-73.5 204,-73.5"/>
<text text-anchor="start" x="212" y="-91.5" font-family="Helvetica,sans-Serif" font-size="10.00">denoptim.gui.VertexViewPanel.switch</text>
<text text-anchor="middle" x="293.5" y="-80.5" font-family="Helvetica,sans-Serif" font-size="10.00">ToMolecularViewer</text>
</a>
</g>
</g>
<!-- Node1&#45;&gt;Node30 -->
<g id="edge39" class="edge">
<title>Node1&#45;&gt;Node30</title>
<path fill="none" stroke="midnightblue" d="M168.2,-102.88C176.63,-101.9 185.25,-100.91 193.82,-99.91"/>
<polygon fill="midnightblue" stroke="midnightblue" points="194.31,-103.38 203.84,-98.75 193.51,-96.43 194.31,-103.38"/>
</g>
<!-- Node3 -->
<g id="node3" class="node">
<title>Node3</title>
<g id="a_node3"><a xlink:href="classdenoptim_1_1gui_1_1_fragment_view_panel.html#ae215d0cd0d6f3890132bcd422fd09d86" target="_top" xlink:title=" ">
<polygon fill="white" stroke="black" points="827,-320.5 827,-350.5 964,-350.5 964,-320.5 827,-320.5"/>
<text text-anchor="start" x="835" y="-338.5" font-family="Helvetica,sans-Serif" font-size="10.00">denoptim.gui.FragmentView</text>
<text text-anchor="middle" x="895.5" y="-327.5" font-family="Helvetica,sans-Serif" font-size="10.00">Panel.getDataFromJmol</text>
</a>
</g>
</g>
<!-- Node2&#45;&gt;Node3 -->
<g id="edge2" class="edge">
<title>Node2&#45;&gt;Node3</title>
<path fill="none" stroke="midnightblue" d="M326.33,-152.52C351.25,-163.97 386.93,-179.73 419,-191.5 562.17,-244.03 734.39,-292.69 827.25,-317.77"/>
<polygon fill="midnightblue" stroke="midnightblue" points="826.51,-321.19 837.07,-320.41 828.33,-314.43 826.51,-321.19"/>
</g>
<!-- Node4 -->
<g id="node4" class="node">
<title>Node4</title>
<g id="a_node4"><a xlink:href="classdenoptim_1_1gui_1_1_fragment_view_panel.html#a114ae07298284cc78bb2167f20511308" target="_top" xlink:title=" ">
<polygon fill="white" stroke="black" points="619,-199.5 619,-229.5 789,-229.5 789,-199.5 619,-199.5"/>
<text text-anchor="start" x="627" y="-217.5" font-family="Helvetica,sans-Serif" font-size="10.00">denoptim.gui.FragmentView</text>
<text text-anchor="middle" x="704" y="-206.5" font-family="Helvetica,sans-Serif" font-size="10.00">Panel.getStructureFromJmolViewer</text>
</a>
</g>
</g>
<!-- Node2&#45;&gt;Node4 -->
<g id="edge3" class="edge">
<title>Node2&#45;&gt;Node4</title>
<path fill="none" stroke="midnightblue" d="M362.01,-150.59C380.48,-154.15 400.51,-157.99 419,-161.5 483.5,-173.74 556.29,-187.31 612.02,-197.66"/>
<polygon fill="midnightblue" stroke="midnightblue" points="611.4,-201.11 621.87,-199.49 612.68,-194.23 611.4,-201.11"/>
</g>
<!-- Node14 -->
<g id="node14" class="node">
<title>Node14</title>
<g id="a_node14"><a xlink:href="classdenoptim_1_1gui_1_1_fragment_view_panel.html#a208bb82cc9e83c541c42345ba46c084b" target="_top" xlink:title=" ">
<polygon fill="white" stroke="black" points="419,-122.5 419,-152.5 583,-152.5 583,-122.5 419,-122.5"/>
<text text-anchor="start" x="427" y="-140.5" font-family="Helvetica,sans-Serif" font-size="10.00">denoptim.gui.FragmentView</text>
<text text-anchor="middle" x="501" y="-129.5" font-family="Helvetica,sans-Serif" font-size="10.00">Panel.make3DusingCDKgenerator</text>
</a>
</g>
</g>
<!-- Node2&#45;&gt;Node14 -->
<g id="edge17" class="edge">
<title>Node2&#45;&gt;Node14</title>
<path fill="none" stroke="midnightblue" d="M362.07,-137.5C376.95,-137.5 392.94,-137.5 408.58,-137.5"/>
<polygon fill="midnightblue" stroke="midnightblue" points="408.79,-141 418.79,-137.5 408.79,-134 408.79,-141"/>
</g>
<!-- Node27 -->
<g id="node27" class="node">
<title>Node27</title>
<g id="a_node27"><a xlink:href="classdenoptim_1_1gui_1_1_fragment_view_panel.html#a64e3d7a39793618cd92488244d147269" target="_top" xlink:title=" ">
<polygon fill="white" stroke="black" points="1009.5,-0.5 1009.5,-30.5 1146.5,-30.5 1146.5,-0.5 1009.5,-0.5"/>
<text text-anchor="start" x="1017.5" y="-18.5" font-family="Helvetica,sans-Serif" font-size="10.00">denoptim.gui.FragmentView</text>
<text text-anchor="middle" x="1078" y="-7.5" font-family="Helvetica,sans-Serif" font-size="10.00">Panel.setJmolViewer</text>
</a>
</g>
</g>
<!-- Node2&#45;&gt;Node27 -->
<g id="edge37" class="edge">
<title>Node2&#45;&gt;Node27</title>
<path fill="none" stroke="midnightblue" d="M357.82,-122.4C366.45,-119.54 375.06,-116.25 383,-112.5 400.61,-104.18 400.98,-94.91 419,-87.5 615.87,-6.55 872.34,-5.05 999.09,-10.41"/>
<polygon fill="midnightblue" stroke="midnightblue" points="998.95,-13.9 1009.1,-10.85 999.26,-6.91 998.95,-13.9"/>
</g>
<!-- Node29 -->
<g id="node29" class="node">
<title>Node29</title>
<g id="a_node29"><a xlink:href="classdenoptim_1_1gui_1_1_fragment_view_panel.html#a2bd1c0b9b8f1aa078ecb3bb11ba6ae1b" target="_top" xlink:title="Waits until Jmol is finished.">
<polygon fill="white" stroke="black" points="635.5,-62.5 635.5,-92.5 772.5,-92.5 772.5,-62.5 635.5,-62.5"/>
<text text-anchor="start" x="643.5" y="-80.5" font-family="Helvetica,sans-Serif" font-size="10.00">denoptim.gui.FragmentView</text>
<text text-anchor="middle" x="704" y="-69.5" font-family="Helvetica,sans-Serif" font-size="10.00">Panel.waitForJmolViewer</text>
</a>
</g>
</g>
<!-- Node2&#45;&gt;Node29 -->
<g id="edge38" class="edge">
<title>Node2&#45;&gt;Node29</title>
<path fill="none" stroke="midnightblue" d="M362.18,-122.94C380.56,-119.25 400.5,-115.49 419,-112.5 488.51,-101.25 568.11,-91.73 625.32,-85.47"/>
<polygon fill="midnightblue" stroke="midnightblue" points="625.81,-88.94 635.37,-84.38 625.05,-81.98 625.81,-88.94"/>
</g>
<!-- Node4&#45;&gt;Node3 -->
<g id="edge8" class="edge">
<title>Node4&#45;&gt;Node3</title>
<path fill="none" stroke="midnightblue" d="M723.08,-229.69C753.8,-255.42 813.93,-305.36 825,-311.5 828.2,-313.28 831.56,-314.95 835,-316.54"/>
<polygon fill="midnightblue" stroke="midnightblue" points="833.66,-319.77 844.23,-320.5 836.42,-313.34 833.66,-319.77"/>
</g>
<!-- Node5 -->
<g id="node5" class="node">
<title>Node5</title>
<g id="a_node5"><a xlink:href="classdenoptim_1_1gui_1_1_fragment_view_panel.html#a65e5473c03b2075c97fbfa9b587b8949" target="_top" xlink:title="Clears the table of attachment points.">
<polygon fill="white" stroke="black" points="827,-271.5 827,-301.5 964,-301.5 964,-271.5 827,-271.5"/>
<text text-anchor="start" x="835" y="-289.5" font-family="Helvetica,sans-Serif" font-size="10.00">denoptim.gui.FragmentView</text>
<text text-anchor="middle" x="895.5" y="-278.5" font-family="Helvetica,sans-Serif" font-size="10.00">Panel.clearAPTable</text>
</a>
</g>
</g>
<!-- Node4&#45;&gt;Node5 -->
<g id="edge4" class="edge">
<title>Node4&#45;&gt;Node5</title>
<path fill="none" stroke="midnightblue" d="M741.32,-229.56C765.03,-239.25 796.72,-251.97 825,-262.5 829.88,-264.32 834.98,-266.17 840.09,-267.99"/>
<polygon fill="midnightblue" stroke="midnightblue" points="839.3,-271.42 849.9,-271.45 841.63,-264.82 839.3,-271.42"/>
</g>
<!-- Node8 -->
<g id="node8" class="node">
<title>Node8</title>
<g id="a_node8"><a xlink:href="classdenoptim_1_1gui_1_1_fragment_view_panel.html#ad2fc717c7c33817e4178031130d46f6d" target="_top" xlink:title="Clears the molecular viewer.">
<polygon fill="white" stroke="black" points="827,-116.5 827,-146.5 964,-146.5 964,-116.5 827,-116.5"/>
<text text-anchor="start" x="835" y="-134.5" font-family="Helvetica,sans-Serif" font-size="10.00">denoptim.gui.FragmentView</text>
<text text-anchor="middle" x="895.5" y="-123.5" font-family="Helvetica,sans-Serif" font-size="10.00">Panel.clearMolecularViewer</text>
</a>
</g>
</g>
<!-- Node4&#45;&gt;Node8 -->
<g id="edge7" class="edge">
<title>Node4&#45;&gt;Node8</title>
<path fill="none" stroke="midnightblue" d="M753.3,-199.35C765.19,-195.05 777.74,-190.02 789,-184.5 806.05,-176.14 808.23,-170.4 825,-161.5 832.02,-157.77 839.6,-154.13 847.09,-150.75"/>
<polygon fill="midnightblue" stroke="midnightblue" points="848.73,-153.85 856.47,-146.61 845.91,-147.44 848.73,-153.85"/>
</g>
<!-- Node9 -->
<g id="node9" class="node">
<title>Node9</title>
<g id="a_node9"><a xlink:href="classdenoptim_1_1io_1_1_denoptim_i_o.html#aded8f83abc7d4310a5d95312a29363af" target="_top" xlink:title="Returns a single collection with all atom containers found in a file of any format.">
<polygon fill="white" stroke="black" points="825,-204.5 825,-234.5 966,-234.5 966,-204.5 825,-204.5"/>
<text text-anchor="start" x="833" y="-222.5" font-family="Helvetica,sans-Serif" font-size="10.00">denoptim.io.DenoptimIO.read</text>
<text text-anchor="middle" x="895.5" y="-211.5" font-family="Helvetica,sans-Serif" font-size="10.00">AllAtomContainers</text>
</a>
</g>
</g>
<!-- Node4&#45;&gt;Node9 -->
<g id="edge9" class="edge">
<title>Node4&#45;&gt;Node9</title>
<path fill="none" stroke="midnightblue" d="M789.22,-216.72C797.65,-216.94 806.2,-217.17 814.59,-217.39"/>
<polygon fill="midnightblue" stroke="midnightblue" points="814.63,-220.89 824.72,-217.66 814.82,-213.9 814.63,-220.89"/>
</g>
<!-- Node13 -->
<g id="node13" class="node">
<title>Node13</title>
<g id="a_node13"><a xlink:href="classdenoptim_1_1io_1_1_denoptim_i_o.html#adc7de175de66792f4f37f1661c10e7f8" target="_top" xlink:title="Write text&#45;like data file.">
<polygon fill="white" stroke="black" points="1411,-191 1411,-210 1575,-210 1575,-191 1411,-191"/>
<text text-anchor="middle" x="1493" y="-198" font-family="Helvetica,sans-Serif" font-size="10.00">denoptim.io.DenoptimIO.writeData</text>
</a>
</g>
</g>
<!-- Node4&#45;&gt;Node13 -->
<g id="edge16" class="edge">
<title>Node4&#45;&gt;Node13</title>
<path fill="none" stroke="midnightblue" d="M789.05,-199.48C801.08,-197.83 813.33,-196.42 825,-195.5 1030.27,-179.35 1272.17,-188.05 1400.79,-194.87"/>
<polygon fill="midnightblue" stroke="midnightblue" points="1400.81,-198.37 1410.99,-195.42 1401.19,-191.38 1400.81,-198.37"/>
</g>
<!-- Node6 -->
<g id="node6" class="node">
<title>Node6</title>
<g id="a_node6"><a xlink:href="classdenoptim_1_1gui_1_1_fragment_view_panel.html#ad1564e5c67234495668c68f02ab04ed4" target="_top" xlink:title="Allows to activate and deactivate the listener.">
<polygon fill="white" stroke="black" points="1002,-271.5 1002,-301.5 1154,-301.5 1154,-271.5 1002,-271.5"/>
<text text-anchor="start" x="1010" y="-289.5" font-family="Helvetica,sans-Serif" font-size="10.00">denoptim.gui.FragmentView</text>
<text text-anchor="middle" x="1078" y="-278.5" font-family="Helvetica,sans-Serif" font-size="10.00">Panel.activateTabEditsListener</text>
</a>
</g>
</g>
<!-- Node5&#45;&gt;Node6 -->
<g id="edge5" class="edge">
<title>Node5&#45;&gt;Node6</title>
<path fill="none" stroke="midnightblue" d="M964.23,-286.5C973.26,-286.5 982.62,-286.5 991.9,-286.5"/>
<polygon fill="midnightblue" stroke="midnightblue" points="991.93,-290 1001.93,-286.5 991.93,-283 991.93,-290"/>
</g>
<!-- Node7 -->
<g id="node7" class="node">
<title>Node7</title>
<g id="a_node7"><a xlink:href="classdenoptim_1_1gui_1_1_fragment_view_panel_1_1_pausable_table_model_listener.html#ab8f315a71d317424e2647c160fc3fdfb" target="_top" xlink:title=" ">
<polygon fill="white" stroke="black" points="1190,-266 1190,-307 1375,-307 1375,-266 1190,-266"/>
<text text-anchor="start" x="1198" y="-295" font-family="Helvetica,sans-Serif" font-size="10.00">denoptim.gui.FragmentView</text>
<text text-anchor="start" x="1198" y="-284" font-family="Helvetica,sans-Serif" font-size="10.00">Panel.PausableTableModelListener.set</text>
<text text-anchor="middle" x="1282.5" y="-273" font-family="Helvetica,sans-Serif" font-size="10.00">Active</text>
</a>
</g>
</g>
<!-- Node6&#45;&gt;Node7 -->
<g id="edge6" class="edge">
<title>Node6&#45;&gt;Node7</title>
<path fill="none" stroke="midnightblue" d="M1154.12,-286.5C1162.45,-286.5 1171.03,-286.5 1179.63,-286.5"/>
<polygon fill="midnightblue" stroke="midnightblue" points="1179.7,-290 1189.7,-286.5 1179.7,-283 1179.7,-290"/>
</g>
<!-- Node9&#45;&gt;Node9 -->
<g id="edge15" class="edge">
<title>Node9&#45;&gt;Node9</title>
<path fill="none" stroke="midnightblue" d="M863.78,-234.66C856.13,-244.06 866.71,-253 895.5,-253 913.05,-253 923.83,-249.68 927.84,-244.96"/>
<polygon fill="midnightblue" stroke="midnightblue" points="931.31,-244.43 927.22,-234.66 924.33,-244.85 931.31,-244.43"/>
</g>
<!-- Node10 -->
<g id="node10" class="node">
<title>Node10</title>
<g id="a_node10"><a xlink:href="classdenoptim_1_1files_1_1_file_utils.html#ae2209fbdfdcf1fdf0499e32989b057b5" target="_top" xlink:title="Looks for a writable location where to put temporary files and returns an absolute pathname to the fo...">
<polygon fill="white" stroke="black" points="1013,-204.5 1013,-234.5 1143,-234.5 1143,-204.5 1013,-204.5"/>
<text text-anchor="start" x="1021" y="-222.5" font-family="Helvetica,sans-Serif" font-size="10.00">denoptim.files.FileUtils.get</text>
<text text-anchor="middle" x="1078" y="-211.5" font-family="Helvetica,sans-Serif" font-size="10.00">TempFolder</text>
</a>
</g>
</g>
<!-- Node9&#45;&gt;Node10 -->
<g id="edge10" class="edge">
<title>Node9&#45;&gt;Node10</title>
<path fill="none" stroke="midnightblue" d="M966.03,-219.5C978.05,-219.5 990.6,-219.5 1002.74,-219.5"/>
<polygon fill="midnightblue" stroke="midnightblue" points="1002.83,-223 1012.83,-219.5 1002.83,-216 1002.83,-223"/>
</g>
<!-- Node11 -->
<g id="node11" class="node">
<title>Node11</title>
<g id="a_node11"><a xlink:href="classdenoptim_1_1files_1_1_file_utils.html#abb578573334c0bc633d537d987223e63" target="_top" xlink:title="Check whether we can write and read to a given pathname.">
<polygon fill="white" stroke="black" points="1216.5,-204.5 1216.5,-234.5 1348.5,-234.5 1348.5,-204.5 1216.5,-204.5"/>
<text text-anchor="start" x="1224.5" y="-222.5" font-family="Helvetica,sans-Serif" font-size="10.00">denoptim.files.FileUtils.can</text>
<text text-anchor="middle" x="1282.5" y="-211.5" font-family="Helvetica,sans-Serif" font-size="10.00">WriteAndReadTo</text>
</a>
</g>
</g>
<!-- Node10&#45;&gt;Node11 -->
<g id="edge11" class="edge">
<title>Node10&#45;&gt;Node11</title>
<path fill="none" stroke="midnightblue" d="M1143.07,-219.5C1163.19,-219.5 1185.57,-219.5 1206.38,-219.5"/>
<polygon fill="midnightblue" stroke="midnightblue" points="1206.45,-223 1216.45,-219.5 1206.45,-216 1206.45,-223"/>
</g>
<!-- Node12 -->
<g id="node12" class="node">
<title>Node12</title>
<g id="a_node12"><a xlink:href="classdenoptim_1_1io_1_1_denoptim_i_o.html#ad5bee53baea572e1d76f8dd0bf3ddd76" target="_top" xlink:title="Read list of data as text.">
<polygon fill="white" stroke="black" points="1414,-229 1414,-248 1572,-248 1572,-229 1414,-229"/>
<text text-anchor="middle" x="1493" y="-236" font-family="Helvetica,sans-Serif" font-size="10.00">denoptim.io.DenoptimIO.readList</text>
</a>
</g>
</g>
<!-- Node11&#45;&gt;Node12 -->
<g id="edge12" class="edge">
<title>Node11&#45;&gt;Node12</title>
<path fill="none" stroke="midnightblue" d="M1348.61,-225.43C1366.05,-227.02 1385.2,-228.77 1403.67,-230.45"/>
<polygon fill="midnightblue" stroke="midnightblue" points="1403.57,-233.96 1413.85,-231.38 1404.21,-226.99 1403.57,-233.96"/>
</g>
<!-- Node11&#45;&gt;Node13 -->
<g id="edge14" class="edge">
<title>Node11&#45;&gt;Node13</title>
<path fill="none" stroke="midnightblue" d="M1348.61,-213.57C1365.09,-212.06 1383.1,-210.42 1400.62,-208.83"/>
<polygon fill="midnightblue" stroke="midnightblue" points="1401.22,-212.29 1410.86,-207.89 1400.58,-205.32 1401.22,-212.29"/>
</g>
<!-- Node12&#45;&gt;Node12 -->
<g id="edge13" class="edge">
<title>Node12&#45;&gt;Node12</title>
<path fill="none" stroke="midnightblue" d="M1464.02,-248.26C1449.93,-257.07 1459.59,-266.5 1493,-266.5 1515.97,-266.5 1527.72,-262.04 1528.23,-256.39"/>
<polygon fill="midnightblue" stroke="midnightblue" points="1530.85,-254.05 1521.98,-248.26 1525.3,-258.32 1530.85,-254.05"/>
</g>
<!-- Node14&#45;&gt;Node4 -->
<g id="edge19" class="edge">
<title>Node14&#45;&gt;Node4</title>
<path fill="none" stroke="midnightblue" d="M538.48,-152.58C561.49,-161.99 591.88,-174.21 619,-184.5 628.98,-188.29 639.69,-192.21 649.99,-195.92"/>
<polygon fill="midnightblue" stroke="midnightblue" points="649.12,-199.33 659.72,-199.41 651.48,-192.74 649.12,-199.33"/>
</g>
<!-- Node14&#45;&gt;Node8 -->
<g id="edge18" class="edge">
<title>Node14&#45;&gt;Node8</title>
<path fill="none" stroke="midnightblue" d="M583.1,-147.69C595.12,-148.85 607.37,-149.86 619,-150.5 694.44,-154.68 713.74,-157.22 789,-150.5 798.05,-149.69 807.49,-148.5 816.84,-147.1"/>
<polygon fill="midnightblue" stroke="midnightblue" points="817.59,-150.53 826.92,-145.51 816.5,-143.61 817.59,-150.53"/>
</g>
<!-- Node15 -->
<g id="node15" class="node">
<title>Node15</title>
<g id="a_node15"><a xlink:href="classdenoptim_1_1gui_1_1_fragment_view_panel.html#a6623f5bbe63c3a68ec2d349a9a8d88a6" target="_top" xlink:title="Loads a structure in the Jmol viewer.">
<polygon fill="white" stroke="black" points="635.5,-111.5 635.5,-141.5 772.5,-141.5 772.5,-111.5 635.5,-111.5"/>
<text text-anchor="start" x="643.5" y="-129.5" font-family="Helvetica,sans-Serif" font-size="10.00">denoptim.gui.FragmentView</text>
<text text-anchor="middle" x="704" y="-118.5" font-family="Helvetica,sans-Serif" font-size="10.00">Panel.loadPlainStructure</text>
</a>
</g>
</g>
<!-- Node14&#45;&gt;Node15 -->
<g id="edge20" class="edge">
<title>Node14&#45;&gt;Node15</title>
<path fill="none" stroke="midnightblue" d="M583.18,-133.06C596.98,-132.3 611.29,-131.52 625.01,-130.77"/>
<polygon fill="midnightblue" stroke="midnightblue" points="625.58,-134.24 635.37,-130.2 625.19,-127.25 625.58,-134.24"/>
</g>
<!-- Node14&#45;&gt;Node29 -->
<g id="edge35" class="edge">
<title>Node14&#45;&gt;Node29</title>
<path fill="none" stroke="midnightblue" d="M550.03,-122.48C571.16,-115.94 596.28,-108.24 619,-101.5 625.8,-99.48 632.91,-97.4 640.01,-95.35"/>
<polygon fill="midnightblue" stroke="midnightblue" points="640.99,-98.71 649.63,-92.57 639.05,-91.98 640.99,-98.71"/>
</g>
<!-- Node16 -->
<g id="node16" class="node">
<title>Node16</title>
<g id="a_node16"><a xlink:href="classdenoptim_1_1gui_1_1_fragment_view_panel.html#aa904048d57867cca4527be0531c79dc5" target="_top" xlink:title="Loads the structure of the currently loaded &#39;fragment&#39; (i.e., our member) into the Jmol viewer.">
<polygon fill="white" stroke="black" points="827,-54.5 827,-84.5 964,-84.5 964,-54.5 827,-54.5"/>
<text text-anchor="start" x="835" y="-72.5" font-family="Helvetica,sans-Serif" font-size="10.00">denoptim.gui.FragmentView</text>
<text text-anchor="middle" x="895.5" y="-61.5" font-family="Helvetica,sans-Serif" font-size="10.00">Panel.loadStructure</text>
</a>
</g>
</g>
<!-- Node15&#45;&gt;Node16 -->
<g id="edge21" class="edge">
<title>Node15&#45;&gt;Node16</title>
<path fill="none" stroke="midnightblue" d="M755.65,-111.47C766.65,-108.2 778.22,-104.74 789,-101.5 804.04,-96.98 820.27,-92.07 835.39,-87.49"/>
<polygon fill="midnightblue" stroke="midnightblue" points="836.58,-90.78 845.14,-84.53 834.55,-84.09 836.58,-90.78"/>
</g>
<!-- Node17 -->
<g id="node17" class="node">
<title>Node17</title>
<g id="a_node17"><a xlink:href="classdenoptim_1_1graph_1_1_fragment.html#a7e8b973a33c7ec906e65d1512d9faecb" target="_top" xlink:title=" ">
<polygon fill="white" stroke="black" points="1007,-116.5 1007,-146.5 1149,-146.5 1149,-116.5 1007,-116.5"/>
<text text-anchor="start" x="1015" y="-134.5" font-family="Helvetica,sans-Serif" font-size="10.00">denoptim.graph.Fragment.get</text>
<text text-anchor="middle" x="1078" y="-123.5" font-family="Helvetica,sans-Serif" font-size="10.00">IAtomContainer</text>
</a>
</g>
</g>
<!-- Node16&#45;&gt;Node17 -->
<g id="edge22" class="edge">
<title>Node16&#45;&gt;Node17</title>
<path fill="none" stroke="midnightblue" d="M938.8,-84.5C958.06,-91.29 981.16,-99.37 1002,-106.5 1008.37,-108.68 1015.05,-110.94 1021.69,-113.17"/>
<polygon fill="midnightblue" stroke="midnightblue" points="1020.76,-116.55 1031.35,-116.41 1022.98,-109.91 1020.76,-116.55"/>
</g>
<!-- Node16&#45;&gt;Node27 -->
<g id="edge32" class="edge">
<title>Node16&#45;&gt;Node27</title>
<path fill="none" stroke="midnightblue" d="M946.78,-54.46C968.5,-47.96 994.08,-40.31 1016.8,-33.51"/>
<polygon fill="midnightblue" stroke="midnightblue" points="1018.1,-36.77 1026.68,-30.55 1016.09,-30.07 1018.1,-36.77"/>
</g>
<!-- Node28 -->
<g id="node28" class="node">
<title>Node28</title>
<g id="a_node28"><a xlink:href="classdenoptim_1_1io_1_1_denoptim_i_o.html#a33af2ecd8e9f62a54855b2a7866262b3" target="_top" xlink:title="Writes IAtomContainer to SDF file.">
<polygon fill="white" stroke="black" points="1006.5,-49.5 1006.5,-79.5 1149.5,-79.5 1149.5,-49.5 1006.5,-49.5"/>
<text text-anchor="start" x="1014.5" y="-67.5" font-family="Helvetica,sans-Serif" font-size="10.00">denoptim.io.DenoptimIO.write</text>
<text text-anchor="middle" x="1078" y="-56.5" font-family="Helvetica,sans-Serif" font-size="10.00">SDFFile</text>
</a>
</g>
</g>
<!-- Node16&#45;&gt;Node28 -->
<g id="edge33" class="edge">
<title>Node16&#45;&gt;Node28</title>
<path fill="none" stroke="midnightblue" d="M964.23,-67.62C974.69,-67.33 985.58,-67.03 996.29,-66.74"/>
<polygon fill="midnightblue" stroke="midnightblue" points="996.59,-70.23 1006.48,-66.45 996.39,-63.23 996.59,-70.23"/>
</g>
<!-- Node18 -->
<g id="node18" class="node">
<title>Node18</title>
<g id="a_node18"><a xlink:href="classdenoptim_1_1graph_1_1_vertex.html#a9ad275adf822019ad803cb3c95e9a6d2" target="_top" xlink:title=" ">
<polygon fill="white" stroke="black" points="1218.5,-67.5 1218.5,-97.5 1346.5,-97.5 1346.5,-67.5 1218.5,-67.5"/>
<text text-anchor="start" x="1226.5" y="-85.5" font-family="Helvetica,sans-Serif" font-size="10.00">denoptim.graph.Vertex.get</text>
<text text-anchor="middle" x="1282.5" y="-74.5" font-family="Helvetica,sans-Serif" font-size="10.00">Property</text>
</a>
</g>
</g>
<!-- Node17&#45;&gt;Node18 -->
<g id="edge23" class="edge">
<title>Node17&#45;&gt;Node18</title>
<path fill="none" stroke="midnightblue" d="M1141.13,-116.47C1162.81,-111.22 1187.3,-105.29 1209.7,-99.87"/>
<polygon fill="midnightblue" stroke="midnightblue" points="1210.59,-103.26 1219.48,-97.51 1208.94,-96.46 1210.59,-103.26"/>
</g>
<!-- Node19 -->
<g id="node19" class="node">
<title>Node19</title>
<g id="a_node19"><a xlink:href="classdenoptim_1_1graph_1_1_vertex.html#a9493346ca1480edfcfa00cb78a52adf5" target="_top" xlink:title=" ">
<polygon fill="white" stroke="black" points="1218.5,-18.5 1218.5,-48.5 1346.5,-48.5 1346.5,-18.5 1218.5,-18.5"/>
<text text-anchor="start" x="1226.5" y="-36.5" font-family="Helvetica,sans-Serif" font-size="10.00">denoptim.graph.Vertex.get</text>
<text text-anchor="middle" x="1282.5" y="-25.5" font-family="Helvetica,sans-Serif" font-size="10.00">VertexId</text>
</a>
</g>
</g>
<!-- Node17&#45;&gt;Node19 -->
<g id="edge24" class="edge">
<title>Node17&#45;&gt;Node19</title>
<path fill="none" stroke="midnightblue" d="M1136.53,-116.49C1142.71,-113.68 1148.67,-110.38 1154,-106.5 1175.84,-90.59 1167.65,-72.69 1190,-57.5 1195.75,-53.59 1202.1,-50.32 1208.69,-47.58"/>
<polygon fill="midnightblue" stroke="midnightblue" points="1210.34,-50.71 1218.49,-43.94 1207.9,-44.15 1210.34,-50.71"/>
</g>
<!-- Node20 -->
<g id="node20" class="node">
<title>Node20</title>
<g id="a_node20"><a xlink:href="classdenoptim_1_1graph_1_1_fragment.html#a9e7e05e43d235a3b0bfc01e3ac43c26d" target="_top" xlink:title="Finds the DENOPTIMAttachmentPoint objects defined as properties of the atoms in this container,...">
<polygon fill="white" stroke="black" points="1203.5,-116.5 1203.5,-146.5 1361.5,-146.5 1361.5,-116.5 1203.5,-116.5"/>
<text text-anchor="start" x="1211.5" y="-134.5" font-family="Helvetica,sans-Serif" font-size="10.00">denoptim.graph.Fragment.project</text>
<text text-anchor="middle" x="1282.5" y="-123.5" font-family="Helvetica,sans-Serif" font-size="10.00">APsToProperties</text>
</a>
</g>
</g>
<!-- Node17&#45;&gt;Node20 -->
<g id="edge25" class="edge">
<title>Node17&#45;&gt;Node20</title>
<path fill="none" stroke="midnightblue" d="M1149.26,-131.5C1163.46,-131.5 1178.56,-131.5 1193.28,-131.5"/>
<polygon fill="midnightblue" stroke="midnightblue" points="1193.4,-135 1203.4,-131.5 1193.4,-128 1193.4,-135"/>
</g>
<!-- Node21 -->
<g id="node21" class="node">
<title>Node21</title>
<g id="a_node21"><a xlink:href="classdenoptim_1_1graph_1_1_attachment_point.html#abf5b2cd3742215db41d879865d9d6609" target="_top" xlink:title="Prepares the two strings that can be used to define AttachmentPoints in SDF files.">
<polygon fill="white" stroke="black" points="1419.5,-92.5 1419.5,-122.5 1566.5,-122.5 1566.5,-92.5 1419.5,-92.5"/>
<text text-anchor="start" x="1427.5" y="-110.5" font-family="Helvetica,sans-Serif" font-size="10.00">denoptim.graph.Attachment</text>
<text text-anchor="middle" x="1493" y="-99.5" font-family="Helvetica,sans-Serif" font-size="10.00">Point.getAPDefinitionsForSDF</text>
</a>
</g>
</g>
<!-- Node20&#45;&gt;Node21 -->
<g id="edge26" class="edge">
<title>Node20&#45;&gt;Node21</title>
<path fill="none" stroke="midnightblue" d="M1361.73,-122.5C1377.18,-120.72 1393.45,-118.84 1409.05,-117.05"/>
<polygon fill="midnightblue" stroke="midnightblue" points="1409.65,-120.5 1419.19,-115.88 1408.85,-113.55 1409.65,-120.5"/>
</g>
<!-- Node25 -->
<g id="node25" class="node">
<title>Node25</title>
<g id="a_node25"><a xlink:href="classdenoptim_1_1graph_1_1_fragment.html#a551361a1155600e6e2fe4e37590c924f" target="_top" xlink:title=" ">
<polygon fill="white" stroke="black" points="1422,-43.5 1422,-73.5 1564,-73.5 1564,-43.5 1422,-43.5"/>
<text text-anchor="start" x="1430" y="-61.5" font-family="Helvetica,sans-Serif" font-size="10.00">denoptim.graph.Fragment.get</text>
<text text-anchor="middle" x="1493" y="-50.5" font-family="Helvetica,sans-Serif" font-size="10.00">APsFromAtom</text>
</a>
</g>
</g>
<!-- Node20&#45;&gt;Node25 -->
<g id="edge30" class="edge">
<title>Node20&#45;&gt;Node25</title>
<path fill="none" stroke="midnightblue" d="M1348.9,-116.41C1357.83,-113.55 1366.76,-110.25 1375,-106.5 1392.5,-98.53 1393.59,-90.66 1411,-82.5 1415.07,-80.59 1419.33,-78.8 1423.66,-77.12"/>
<polygon fill="midnightblue" stroke="midnightblue" points="1425.06,-80.34 1433.26,-73.62 1422.66,-73.76 1425.06,-80.34"/>
</g>
<!-- Node26 -->
<g id="node26" class="node">
<title>Node26</title>
<g id="a_node26"><a xlink:href="classdenoptim_1_1graph_1_1_vertex.html#ad26ecf426a5e415605df94be904e58d3" target="_top" xlink:title=" ">
<polygon fill="white" stroke="black" points="1429,-141.5 1429,-171.5 1557,-171.5 1557,-141.5 1429,-141.5"/>
<text text-anchor="start" x="1437" y="-159.5" font-family="Helvetica,sans-Serif" font-size="10.00">denoptim.graph.Vertex.set</text>
<text text-anchor="middle" x="1493" y="-148.5" font-family="Helvetica,sans-Serif" font-size="10.00">Property</text>
</a>
</g>
</g>
<!-- Node20&#45;&gt;Node26 -->
<g id="edge31" class="edge">
<title>Node20&#45;&gt;Node26</title>
<path fill="none" stroke="midnightblue" d="M1361.73,-140.88C1380.45,-143.12 1400.37,-145.51 1418.85,-147.73"/>
<polygon fill="midnightblue" stroke="midnightblue" points="1418.6,-151.22 1428.95,-148.94 1419.44,-144.27 1418.6,-151.22"/>
</g>
<!-- Node22 -->
<g id="node22" class="node">
<title>Node22</title>
<g id="a_node22"><a xlink:href="classdenoptim_1_1graph_1_1_attachment_point.html#ae529678561712f679be4b8d737f2ab83" target="_top" xlink:title="Prepare a string for writing this AP in a fragment SDF file.">
<polygon fill="white" stroke="black" points="1611,-92.5 1611,-122.5 1751,-122.5 1751,-92.5 1611,-92.5"/>
<text text-anchor="start" x="1619" y="-110.5" font-family="Helvetica,sans-Serif" font-size="10.00">denoptim.graph.Attachment</text>
<text text-anchor="middle" x="1681" y="-99.5" font-family="Helvetica,sans-Serif" font-size="10.00">Point.getSingleAPStringSDF</text>
</a>
</g>
</g>
<!-- Node21&#45;&gt;Node22 -->
<g id="edge27" class="edge">
<title>Node21&#45;&gt;Node22</title>
<path fill="none" stroke="midnightblue" d="M1566.71,-107.5C1577.87,-107.5 1589.43,-107.5 1600.72,-107.5"/>
<polygon fill="midnightblue" stroke="midnightblue" points="1600.99,-111 1610.99,-107.5 1600.99,-104 1600.99,-111"/>
</g>
<!-- Node23 -->
<g id="node23" class="node">
<title>Node23</title>
<g id="a_node23"><a xlink:href="classdenoptim_1_1utils_1_1_general_utils.html#a05bc718161978283c7db11369386a934" target="_top" xlink:title="Formats a decimal number using the given pattern but with English format as for separators.">
<polygon fill="white" stroke="black" points="1787,-117.5 1787,-147.5 1936,-147.5 1936,-117.5 1787,-117.5"/>
<text text-anchor="start" x="1795" y="-135.5" font-family="Helvetica,sans-Serif" font-size="10.00">denoptim.utils.GeneralUtils.get</text>
<text text-anchor="middle" x="1861.5" y="-124.5" font-family="Helvetica,sans-Serif" font-size="10.00">EnglishFormattedDecimal</text>
</a>
</g>
</g>
<!-- Node22&#45;&gt;Node23 -->
<g id="edge28" class="edge">
<title>Node22&#45;&gt;Node23</title>
<path fill="none" stroke="midnightblue" d="M1751.01,-117.17C1759.47,-118.35 1768.19,-119.57 1776.84,-120.78"/>
<polygon fill="midnightblue" stroke="midnightblue" points="1776.55,-124.28 1786.94,-122.2 1777.52,-117.34 1776.55,-124.28"/>
</g>
<!-- Node24 -->
<g id="node24" class="node">
<title>Node24</title>
<g id="a_node24"><a xlink:href="classdenoptim_1_1graph_1_1_a_p_class.html#ad771aba34950060ecbba81eb4b924445" target="_top" xlink:title=" ">
<polygon fill="white" stroke="black" points="1794.5,-68.5 1794.5,-98.5 1928.5,-98.5 1928.5,-68.5 1794.5,-68.5"/>
<text text-anchor="start" x="1802.5" y="-86.5" font-family="Helvetica,sans-Serif" font-size="10.00">denoptim.graph.APClass.to</text>
<text text-anchor="middle" x="1861.5" y="-75.5" font-family="Helvetica,sans-Serif" font-size="10.00">SDFString</text>
</a>
</g>
</g>
<!-- Node22&#45;&gt;Node24 -->
<g id="edge29" class="edge">
<title>Node22&#45;&gt;Node24</title>
<path fill="none" stroke="midnightblue" d="M1751.01,-98.22C1761.9,-96.76 1773.22,-95.24 1784.26,-93.75"/>
<polygon fill="midnightblue" stroke="midnightblue" points="1784.87,-97.2 1794.31,-92.4 1783.93,-90.26 1784.87,-97.2"/>
</g>
<!-- Node28&#45;&gt;Node28 -->
<g id="edge34" class="edge">
<title>Node28&#45;&gt;Node28</title>
<path fill="none" stroke="midnightblue" d="M1046.28,-79.66C1038.63,-89.06 1049.21,-98 1078,-98 1095.55,-98 1106.33,-94.68 1110.34,-89.96"/>
<polygon fill="midnightblue" stroke="midnightblue" points="1113.81,-89.43 1109.72,-79.66 1106.83,-89.85 1113.81,-89.43"/>
</g>
<!-- Node29&#45;&gt;Node8 -->
<g id="edge36" class="edge">
<title>Node29&#45;&gt;Node8</title>
<path fill="none" stroke="midnightblue" d="M757.79,-92.54C780.79,-99.1 807.93,-106.83 831.94,-113.67"/>
<polygon fill="midnightblue" stroke="midnightblue" points="831.09,-117.07 841.67,-116.45 833.01,-110.34 831.09,-117.07"/>
</g>
</g>
</svg>
