<?xml version="1.0" encoding="UTF-8" standalone="no"?>
<!DOCTYPE svg PUBLIC "-//W3C//DTD SVG 1.1//EN"
 "http://www.w3.org/Graphics/SVG/1.1/DTD/svg11.dtd">
<!-- Generated by graphviz version 3.0.0 (20221109.1736)
 -->
<!-- Title: denoptim.graph.DGraph.checkConsistency Pages: 1 -->
<!--zoomable 1076 -->
<svg id="main" version="1.1" xmlns="http://www.w3.org/2000/svg" xmlns:xlink="http://www.w3.org/1999/xlink" xml:space="preserve" onload="init(evt)">
<style type="text/css"><![CDATA[
.edge:hover path { stroke: red; }
.edge:hover polygon { stroke: red; fill: red; }
]]></style>
<script type="text/javascript"><![CDATA[
var edges = document.getElementsByTagName('g');
if (edges && edges.length) {
  for (var i=0;i<edges.length;i++) {
    if (edges[i].id.substr(0,4)=='edge') {
      edges[i].setAttribute('class','edge');
    }
  }
}
]]></script>
        <defs>
                <circle id="rim" cx="0" cy="0" r="7"/>
                <circle id="rim2" cx="0" cy="0" r="3.5"/>
                <g id="zoomPlus">
                        <use xlink:href="#rim" fill="#404040">
                                <set attributeName="fill" to="#808080" begin="zoomplus.mouseover" end="zoomplus.mouseout"/>
                        </use>
                        <path d="M-4,0h8M0,-4v8" fill="none" stroke="white" stroke-width="1.5" pointer-events="none"/>
                </g>
                <g id="zoomMin">
                        <use xlink:href="#rim" fill="#404040">
                                <set attributeName="fill" to="#808080" begin="zoomminus.mouseover" end="zoomminus.mouseout"/>
                        </use>
                        <path d="M-4,0h8" fill="none" stroke="white" stroke-width="1.5" pointer-events="none"/>
                </g>
                <g id="dirArrow">
                        <path fill="none" stroke="white" stroke-width="1.5" d="M0,-3.0v7 M-2.5,-0.5L0,-3.0L2.5,-0.5"/>
                </g>
               <g id="resetDef">
                       <use xlink:href="#rim2" fill="#404040">
                               <set attributeName="fill" to="#808080" begin="reset.mouseover" end="reset.mouseout"/>
                       </use>
               </g>
        </defs>

<script type="text/javascript">
var viewWidth = 1001;
var viewHeight = 1076;
var sectionId = 'dynsection-24';
</script>
<script xlink:href="svgpan.js"/>
<svg id="graph" class="graph">
<g id="viewport">
<title>denoptim.graph.DGraph.checkConsistency</title>
<polygon fill="white" stroke="transparent" points="-4,4 -4,-1072 997,-1072 997,4 -4,4"/>
<!-- Node1 -->
<g id="node1" class="node">
<title>Node1</title>
<g id="a_node1"><a xlink:title="Peeks into this graph to derive a preliminary chemical representation with SMILES and InChIKey.">
<polygon fill="#bfbfbf" stroke="black" points="0,-490.5 0,-520.5 146,-520.5 146,-490.5 0,-490.5"/>
<text text-anchor="start" x="8" y="-508.5" font-family="Helvetica,sans-Serif" font-size="10.00">denoptim.graph.DGraph.check</text>
<text text-anchor="middle" x="73" y="-497.5" font-family="Helvetica,sans-Serif" font-size="10.00">Consistency</text>
</a>
</g>
</g>
<!-- Node2 -->
<g id="node2" class="node">
<title>Node2</title>
<g id="a_node2"><a xlink:href="classdenoptim_1_1graph_1_1rings_1_1_ring_closure_parameters.html#ac31060459a0e96c5382f0e609422f178" target="_top" xlink:title=" ">
<polygon fill="white" stroke="black" points="187,-1032.5 187,-1062.5 369,-1062.5 369,-1032.5 187,-1032.5"/>
<text text-anchor="start" x="195" y="-1050.5" font-family="Helvetica,sans-Serif" font-size="10.00">denoptim.graph.rings.Ring</text>
<text text-anchor="middle" x="278" y="-1039.5" font-family="Helvetica,sans-Serif" font-size="10.00">ClosureParameters.allowRingClosures</text>
</a>
</g>
</g>
<!-- Node1&#45;&gt;Node2 -->
<g id="edge1" class="edge">
<title>Node1&#45;&gt;Node2</title>
<path fill="none" stroke="midnightblue" d="M75.07,-520.74C80.78,-598.14 110.25,-946.96 182,-1022.5 183.25,-1023.82 184.56,-1025.07 185.93,-1026.26"/>
<polygon fill="midnightblue" stroke="midnightblue" points="184.15,-1029.29 194.28,-1032.39 188.29,-1023.65 184.15,-1029.29"/>
</g>
<!-- Node3 -->
<g id="node3" class="node">
<title>Node3</title>
<g id="a_node3"><a xlink:href="classdenoptim_1_1molecularmodeling_1_1_three_dim_tree_builder.html#aa1352172290adaaf3a478ed7a90cf3fc" target="_top" xlink:title="Created a three&#45;dimensional molecular representation from a given DGraph.">
<polygon fill="white" stroke="black" points="193.5,-954 193.5,-995 362.5,-995 362.5,-954 193.5,-954"/>
<text text-anchor="start" x="201.5" y="-983" font-family="Helvetica,sans-Serif" font-size="10.00">denoptim.molecularmodeling.</text>
<text text-anchor="start" x="201.5" y="-972" font-family="Helvetica,sans-Serif" font-size="10.00">ThreeDimTreeBuilder.convertGraph</text>
<text text-anchor="middle" x="278" y="-961" font-family="Helvetica,sans-Serif" font-size="10.00">To3DAtomContainer</text>
</a>
</g>
</g>
<!-- Node1&#45;&gt;Node3 -->
<g id="edge2" class="edge">
<title>Node1&#45;&gt;Node3</title>
<path fill="none" stroke="midnightblue" d="M75.86,-520.65C84.63,-589.76 123.82,-874.6 182,-939.5 184.84,-942.67 187.99,-945.55 191.36,-948.17"/>
<polygon fill="midnightblue" stroke="midnightblue" points="189.39,-951.06 199.62,-953.82 193.35,-945.28 189.39,-951.06"/>
</g>
<!-- Node4 -->
<g id="node4" class="node">
<title>Node4</title>
<g id="a_node4"><a xlink:href="classdenoptim_1_1fragspace_1_1_fragment_space_parameters.html#a93693af51412000689dc7517151b9a05" target="_top" xlink:title=" ">
<polygon fill="white" stroke="black" points="417,-1037.5 417,-1067.5 596,-1067.5 596,-1037.5 417,-1037.5"/>
<text text-anchor="start" x="425" y="-1055.5" font-family="Helvetica,sans-Serif" font-size="10.00">denoptim.fragspace.Fragment</text>
<text text-anchor="middle" x="506.5" y="-1044.5" font-family="Helvetica,sans-Serif" font-size="10.00">SpaceParameters.getFragmentSpace</text>
</a>
</g>
</g>
<!-- Node1&#45;&gt;Node4 -->
<g id="edge4" class="edge">
<title>Node1&#45;&gt;Node4</title>
<path fill="none" stroke="midnightblue" d="M75.93,-520.59C84.73,-586.89 123.13,-851.49 182,-906.5 245.56,-965.89 306.4,-889.76 374,-944.5 405.57,-970.06 379.09,-1002.15 410,-1028.5 411.51,-1029.79 413.08,-1031.01 414.71,-1032.17"/>
<polygon fill="midnightblue" stroke="midnightblue" points="412.86,-1035.14 423.21,-1037.44 416.55,-1029.2 412.86,-1035.14"/>
</g>
<!-- Node5 -->
<g id="node5" class="node">
<title>Node5</title>
<g id="a_node5"><a xlink:href="classdenoptim_1_1utils_1_1_molecule_utils.html#afcb5ae979766b07bc1347834442793aa" target="_top" xlink:title="The heavy atom count.">
<polygon fill="white" stroke="black" points="429.5,-792.5 429.5,-822.5 583.5,-822.5 583.5,-792.5 429.5,-792.5"/>
<text text-anchor="start" x="437.5" y="-810.5" font-family="Helvetica,sans-Serif" font-size="10.00">denoptim.utils.MoleculeUtils.get</text>
<text text-anchor="middle" x="506.5" y="-799.5" font-family="Helvetica,sans-Serif" font-size="10.00">HeavyAtomCount</text>
</a>
</g>
</g>
<!-- Node1&#45;&gt;Node5 -->
<g id="edge5" class="edge">
<title>Node1&#45;&gt;Node5</title>
<path fill="none" stroke="midnightblue" d="M74.81,-520.79C78.21,-568.09 95.57,-712.79 182,-777.5 249.46,-828 348.36,-829.78 419.03,-822.5"/>
<polygon fill="midnightblue" stroke="midnightblue" points="419.69,-825.95 429.24,-821.36 418.92,-818.99 419.69,-825.95"/>
</g>
<!-- Node6 -->
<g id="node6" class="node">
<title>Node6</title>
<g id="a_node6"><a xlink:href="classdenoptim_1_1utils_1_1_molecule_utils.html#a8bca186632882f9399b9511020a43211" target="_top" xlink:title="Gets either the elemental symbol (for standard atoms) of the label (for pseudo&#45;atoms).">
<polygon fill="white" stroke="black" points="647,-737.5 647,-767.5 801,-767.5 801,-737.5 647,-737.5"/>
<text text-anchor="start" x="655" y="-755.5" font-family="Helvetica,sans-Serif" font-size="10.00">denoptim.utils.MoleculeUtils.get</text>
<text text-anchor="middle" x="724" y="-744.5" font-family="Helvetica,sans-Serif" font-size="10.00">SymbolOrLabel</text>
</a>
</g>
</g>
<!-- Node1&#45;&gt;Node6 -->
<g id="edge40" class="edge">
<title>Node1&#45;&gt;Node6</title>
<path fill="none" stroke="midnightblue" d="M75.46,-520.8C80.59,-564.83 102.05,-692.05 182,-744.5 254.43,-792.02 503.33,-775.22 636.8,-762.11"/>
<polygon fill="midnightblue" stroke="midnightblue" points="637.39,-765.57 647,-761.1 636.7,-758.6 637.39,-765.57"/>
</g>
<!-- Node8 -->
<g id="node8" class="node">
<title>Node8</title>
<g id="a_node8"><a xlink:href="classdenoptim_1_1utils_1_1_molecule_utils.html#a1720cc65862dcf630440ac4391a19e4a" target="_top" xlink:title="Generates the InChI key for the given atom container.">
<polygon fill="white" stroke="black" points="201,-637.5 201,-667.5 355,-667.5 355,-637.5 201,-637.5"/>
<text text-anchor="start" x="209" y="-655.5" font-family="Helvetica,sans-Serif" font-size="10.00">denoptim.utils.MoleculeUtils.get</text>
<text text-anchor="middle" x="278" y="-644.5" font-family="Helvetica,sans-Serif" font-size="10.00">InChIKeyForMolecule</text>
</a>
</g>
</g>
<!-- Node1&#45;&gt;Node8 -->
<g id="edge10" class="edge">
<title>Node1&#45;&gt;Node8</title>
<path fill="none" stroke="midnightblue" d="M82.9,-520.61C99.15,-546.79 136.18,-600.48 182,-628.5 184.99,-630.33 188.12,-632.02 191.34,-633.58"/>
<polygon fill="midnightblue" stroke="midnightblue" points="190.07,-636.85 200.63,-637.66 192.88,-630.44 190.07,-636.85"/>
</g>
<!-- Node9 -->
<g id="node9" class="node">
<title>Node9</title>
<g id="a_node9"><a xlink:href="classdenoptim_1_1fragspace_1_1_fragment_space_parameters.html#afa65cd5ca21323bcc1a4c26d38f0ed55" target="_top" xlink:title=" ">
<polygon fill="white" stroke="black" points="188.5,-588.5 188.5,-618.5 367.5,-618.5 367.5,-588.5 188.5,-588.5"/>
<text text-anchor="start" x="196.5" y="-606.5" font-family="Helvetica,sans-Serif" font-size="10.00">denoptim.fragspace.Fragment</text>
<text text-anchor="middle" x="278" y="-595.5" font-family="Helvetica,sans-Serif" font-size="10.00">SpaceParameters.getMaxHeavyAtom</text>
</a>
</g>
</g>
<!-- Node1&#45;&gt;Node9 -->
<g id="edge12" class="edge">
<title>Node1&#45;&gt;Node9</title>
<path fill="none" stroke="midnightblue" d="M91.91,-520.75C112.41,-537.47 147.61,-563.97 182,-579.5 186.58,-581.57 191.37,-583.48 196.26,-585.24"/>
<polygon fill="midnightblue" stroke="midnightblue" points="195.16,-588.57 205.76,-588.45 197.4,-581.93 195.16,-588.57"/>
</g>
<!-- Node10 -->
<g id="node10" class="node">
<title>Node10</title>
<g id="a_node10"><a xlink:href="classdenoptim_1_1fragspace_1_1_fragment_space_parameters.html#aad21189ae5add3f4f5794b185bc5b2b6" target="_top" xlink:title=" ">
<polygon fill="white" stroke="black" points="205,-539.5 205,-569.5 351,-569.5 351,-539.5 205,-539.5"/>
<text text-anchor="start" x="213" y="-557.5" font-family="Helvetica,sans-Serif" font-size="10.00">denoptim.fragspace.Fragment</text>
<text text-anchor="middle" x="278" y="-546.5" font-family="Helvetica,sans-Serif" font-size="10.00">SpaceParameters.getMaxMW</text>
</a>
</g>
</g>
<!-- Node1&#45;&gt;Node10 -->
<g id="edge13" class="edge">
<title>Node1&#45;&gt;Node10</title>
<path fill="none" stroke="midnightblue" d="M136.29,-520.53C158.01,-525.78 182.57,-531.71 205.02,-537.13"/>
<polygon fill="midnightblue" stroke="midnightblue" points="204.29,-540.55 214.83,-539.49 205.93,-533.75 204.29,-540.55"/>
</g>
<!-- Node11 -->
<g id="node11" class="node">
<title>Node11</title>
<g id="a_node11"><a xlink:href="classdenoptim_1_1graph_1_1rings_1_1_ring_closure_parameters.html#a69db306dd4ec24c01e82d2f5c6fe0cb6" target="_top" xlink:title=" ">
<polygon fill="white" stroke="black" points="184.5,-490.5 184.5,-520.5 371.5,-520.5 371.5,-490.5 184.5,-490.5"/>
<text text-anchor="start" x="192.5" y="-508.5" font-family="Helvetica,sans-Serif" font-size="10.00">denoptim.graph.rings.Ring</text>
<text text-anchor="middle" x="278" y="-497.5" font-family="Helvetica,sans-Serif" font-size="10.00">ClosureParameters.getMaxRcaPerType</text>
</a>
</g>
</g>
<!-- Node1&#45;&gt;Node11 -->
<g id="edge14" class="edge">
<title>Node1&#45;&gt;Node11</title>
<path fill="none" stroke="midnightblue" d="M146.14,-505.5C155.26,-505.5 164.73,-505.5 174.22,-505.5"/>
<polygon fill="midnightblue" stroke="midnightblue" points="174.5,-509 184.5,-505.5 174.5,-502 174.5,-509"/>
</g>
<!-- Node12 -->
<g id="node12" class="node">
<title>Node12</title>
<g id="a_node12"><a xlink:href="classdenoptim_1_1fragspace_1_1_fragment_space_parameters.html#ab78cd9ebc918ddc3d77bb1a2d0bbba4a" target="_top" xlink:title=" ">
<polygon fill="white" stroke="black" points="182,-441.5 182,-471.5 374,-471.5 374,-441.5 182,-441.5"/>
<text text-anchor="start" x="190" y="-459.5" font-family="Helvetica,sans-Serif" font-size="10.00">denoptim.fragspace.Fragment</text>
<text text-anchor="middle" x="278" y="-448.5" font-family="Helvetica,sans-Serif" font-size="10.00">SpaceParameters.getMaxRotatableBond</text>
</a>
</g>
</g>
<!-- Node1&#45;&gt;Node12 -->
<g id="edge15" class="edge">
<title>Node1&#45;&gt;Node12</title>
<path fill="none" stroke="midnightblue" d="M136.29,-490.47C158.01,-485.22 182.57,-479.29 205.02,-473.87"/>
<polygon fill="midnightblue" stroke="midnightblue" points="205.93,-477.25 214.83,-471.51 204.29,-470.45 205.93,-477.25"/>
</g>
<!-- Node13 -->
<g id="node13" class="node">
<title>Node13</title>
<g id="a_node13"><a xlink:href="classdenoptim_1_1graph_1_1rings_1_1_ring_closure_parameters.html#a8f20219150b9fbcb4638a246e921dc1d" target="_top" xlink:title=" ">
<polygon fill="white" stroke="black" points="185.5,-392.5 185.5,-422.5 370.5,-422.5 370.5,-392.5 185.5,-392.5"/>
<text text-anchor="start" x="193.5" y="-410.5" font-family="Helvetica,sans-Serif" font-size="10.00">denoptim.graph.rings.Ring</text>
<text text-anchor="middle" x="278" y="-399.5" font-family="Helvetica,sans-Serif" font-size="10.00">ClosureParameters.getMinRcaPerType</text>
</a>
</g>
</g>
<!-- Node1&#45;&gt;Node13 -->
<g id="edge16" class="edge">
<title>Node1&#45;&gt;Node13</title>
<path fill="none" stroke="midnightblue" d="M91.91,-490.25C112.41,-473.53 147.61,-447.03 182,-431.5 186.58,-429.43 191.37,-427.52 196.26,-425.76"/>
<polygon fill="midnightblue" stroke="midnightblue" points="197.4,-429.07 205.76,-422.55 195.16,-422.43 197.4,-429.07"/>
</g>
<!-- Node14 -->
<g id="node14" class="node">
<title>Node14</title>
<g id="a_node14"><a xlink:href="classdenoptim_1_1graph_1_1rings_1_1_ring_closure_parameters.html#aadc92a2682df451c5bdb5a184b541407" target="_top" xlink:title=" ">
<polygon fill="white" stroke="black" points="183.5,-343.5 183.5,-373.5 372.5,-373.5 372.5,-343.5 183.5,-343.5"/>
<text text-anchor="start" x="191.5" y="-361.5" font-family="Helvetica,sans-Serif" font-size="10.00">denoptim.graph.rings.Ring</text>
<text text-anchor="middle" x="278" y="-350.5" font-family="Helvetica,sans-Serif" font-size="10.00">ClosureParameters.getMinRingClosures</text>
</a>
</g>
</g>
<!-- Node1&#45;&gt;Node14 -->
<g id="edge17" class="edge">
<title>Node1&#45;&gt;Node14</title>
<path fill="none" stroke="midnightblue" d="M82.9,-490.39C99.15,-464.21 136.18,-410.52 182,-382.5 184.83,-380.77 187.78,-379.16 190.82,-377.67"/>
<polygon fill="midnightblue" stroke="midnightblue" points="192.42,-380.79 200.14,-373.54 189.58,-374.39 192.42,-380.79"/>
</g>
<!-- Node15 -->
<g id="node15" class="node">
<title>Node15</title>
<g id="a_node15"><a xlink:href="classdenoptim_1_1utils_1_1_molecule_utils.html#a5f26a5f6c49536d2cc8c54aae5713224" target="_top" xlink:title=" ">
<polygon fill="white" stroke="black" points="201,-294.5 201,-324.5 355,-324.5 355,-294.5 201,-294.5"/>
<text text-anchor="start" x="209" y="-312.5" font-family="Helvetica,sans-Serif" font-size="10.00">denoptim.utils.MoleculeUtils.get</text>
<text text-anchor="middle" x="278" y="-301.5" font-family="Helvetica,sans-Serif" font-size="10.00">MolecularWeight</text>
</a>
</g>
</g>
<!-- Node1&#45;&gt;Node15 -->
<g id="edge18" class="edge">
<title>Node1&#45;&gt;Node15</title>
<path fill="none" stroke="midnightblue" d="M79.06,-490.36C91.13,-456.63 124.97,-374.98 182,-333.5 185.07,-331.27 188.33,-329.24 191.71,-327.4"/>
<polygon fill="midnightblue" stroke="midnightblue" points="193.45,-330.45 200.95,-322.96 190.42,-324.14 193.45,-330.45"/>
</g>
<!-- Node16 -->
<g id="node16" class="node">
<title>Node16</title>
<g id="a_node16"><a xlink:href="classdenoptim_1_1utils_1_1_molecule_utils.html#a4c8d5b9488679451464ecc234532eb07" target="_top" xlink:title="Count number of rotatable bonds.">
<polygon fill="white" stroke="black" points="201,-245.5 201,-275.5 355,-275.5 355,-245.5 201,-245.5"/>
<text text-anchor="start" x="209" y="-263.5" font-family="Helvetica,sans-Serif" font-size="10.00">denoptim.utils.MoleculeUtils.get</text>
<text text-anchor="middle" x="278" y="-252.5" font-family="Helvetica,sans-Serif" font-size="10.00">NumberOfRotatableBonds</text>
</a>
</g>
</g>
<!-- Node1&#45;&gt;Node16 -->
<g id="edge19" class="edge">
<title>Node1&#45;&gt;Node16</title>
<path fill="none" stroke="midnightblue" d="M76.81,-490.43C85.11,-450.32 113.37,-340.21 182,-284.5 185.11,-281.98 188.44,-279.72 191.94,-277.69"/>
<polygon fill="midnightblue" stroke="midnightblue" points="193.61,-280.77 200.94,-273.12 190.43,-274.53 193.61,-280.77"/>
</g>
<!-- Node17 -->
<g id="node17" class="node">
<title>Node17</title>
<g id="a_node17"><a xlink:href="classdenoptim_1_1programs_1_1_run_time_parameters.html#a4da800dd8e739b91dbf8b4b960ee2e51" target="_top" xlink:title=" ">
<polygon fill="white" stroke="black" points="208,-196.5 208,-226.5 348,-226.5 348,-196.5 208,-196.5"/>
<text text-anchor="start" x="216" y="-214.5" font-family="Helvetica,sans-Serif" font-size="10.00">denoptim.programs.RunTime</text>
<text text-anchor="middle" x="278" y="-203.5" font-family="Helvetica,sans-Serif" font-size="10.00">Parameters.getParameters</text>
</a>
</g>
</g>
<!-- Node1&#45;&gt;Node17 -->
<g id="edge20" class="edge">
<title>Node1&#45;&gt;Node17</title>
<path fill="none" stroke="midnightblue" d="M75.37,-490.24C80.35,-444.24 101.64,-305.82 182,-235.5 186.87,-231.24 192.4,-227.71 198.27,-224.8"/>
<polygon fill="midnightblue" stroke="midnightblue" points="199.95,-227.88 207.74,-220.7 197.18,-221.46 199.95,-227.88"/>
</g>
<!-- Node18 -->
<g id="node18" class="node">
<title>Node18</title>
<g id="a_node18"><a xlink:href="classdenoptim_1_1graph_1_1_d_graph.html#a46e5563a41c18adbcee9aa60b39094fa" target="_top" xlink:title="Search for ring closing vertices: vertices that contain only a RingClosingAttractor">
<polygon fill="white" stroke="black" points="211,-147.5 211,-177.5 345,-177.5 345,-147.5 211,-147.5"/>
<text text-anchor="start" x="219" y="-165.5" font-family="Helvetica,sans-Serif" font-size="10.00">denoptim.graph.DGraph.get</text>
<text text-anchor="middle" x="278" y="-154.5" font-family="Helvetica,sans-Serif" font-size="10.00">RCVertices</text>
</a>
</g>
</g>
<!-- Node1&#45;&gt;Node18 -->
<g id="edge21" class="edge">
<title>Node1&#45;&gt;Node18</title>
<path fill="none" stroke="midnightblue" d="M74.31,-490.49C76.19,-439.61 89.45,-272.01 182,-186.5 187.58,-181.34 194.11,-177.25 201.09,-174.02"/>
<polygon fill="midnightblue" stroke="midnightblue" points="202.85,-177.08 210.83,-170.11 200.24,-170.58 202.85,-177.08"/>
</g>
<!-- Node19 -->
<g id="node19" class="node">
<title>Node19</title>
<g id="a_node19"><a xlink:href="classdenoptim_1_1utils_1_1_molecule_utils.html#a572e6936929d9decea95808edbbfd16c" target="_top" xlink:title="Returns the SMILES representation of the molecule.">
<polygon fill="white" stroke="black" points="201,-704.5 201,-734.5 355,-734.5 355,-704.5 201,-704.5"/>
<text text-anchor="start" x="209" y="-722.5" font-family="Helvetica,sans-Serif" font-size="10.00">denoptim.utils.MoleculeUtils.get</text>
<text text-anchor="middle" x="278" y="-711.5" font-family="Helvetica,sans-Serif" font-size="10.00">SMILESForMolecule</text>
</a>
</g>
</g>
<!-- Node1&#45;&gt;Node19 -->
<g id="edge22" class="edge">
<title>Node1&#45;&gt;Node19</title>
<path fill="none" stroke="midnightblue" d="M78.09,-520.56C88.71,-556.71 120.71,-648.84 182,-695.5 185.02,-697.8 188.24,-699.88 191.59,-701.76"/>
<polygon fill="midnightblue" stroke="midnightblue" points="190.24,-705 200.75,-706.3 193.34,-698.72 190.24,-705"/>
</g>
<!-- Node30 -->
<g id="node30" class="node">
<title>Node30</title>
<g id="a_node30"><a xlink:href="classdenoptim_1_1graph_1_1_d_graph.html#a6f8ce50f702ca94de401335a3a18d0da" target="_top" xlink:title="Check if there are forbidden ends: free attachment points that are not suitable for capping and not a...">
<polygon fill="white" stroke="black" points="210,-866.5 210,-896.5 346,-896.5 346,-866.5 210,-866.5"/>
<text text-anchor="start" x="218" y="-884.5" font-family="Helvetica,sans-Serif" font-size="10.00">denoptim.graph.DGraph.has</text>
<text text-anchor="middle" x="278" y="-873.5" font-family="Helvetica,sans-Serif" font-size="10.00">ForbiddenEnd</text>
</a>
</g>
</g>
<!-- Node1&#45;&gt;Node30 -->
<g id="edge41" class="edge">
<title>Node1&#45;&gt;Node30</title>
<path fill="none" stroke="midnightblue" d="M75.77,-520.83C82.06,-569.29 107.05,-721.68 182,-818.5 195.85,-836.39 216.27,-850.86 234.63,-861.4"/>
<polygon fill="midnightblue" stroke="midnightblue" points="232.99,-864.5 243.44,-866.26 236.37,-858.37 232.99,-864.5"/>
</g>
<!-- Node35 -->
<g id="node35" class="node">
<title>Node35</title>
<g id="a_node35"><a xlink:href="classdenoptim_1_1molecularmodeling_1_1_three_dim_tree_builder.html#a3d187f47c0c8df855ea6a0601e95fcc0" target="_top" xlink:title="Sets the flag that controls whether building blocks have to be aligned according to the AP vectors or...">
<polygon fill="white" stroke="black" points="185.5,-98.5 185.5,-128.5 370.5,-128.5 370.5,-98.5 185.5,-98.5"/>
<text text-anchor="start" x="193.5" y="-116.5" font-family="Helvetica,sans-Serif" font-size="10.00">denoptim.molecularmodeling.</text>
<text text-anchor="middle" x="278" y="-105.5" font-family="Helvetica,sans-Serif" font-size="10.00">ThreeDimTreeBuilder.setAlignBBsIn3D</text>
</a>
</g>
</g>
<!-- Node1&#45;&gt;Node35 -->
<g id="edge47" class="edge">
<title>Node1&#45;&gt;Node35</title>
<path fill="none" stroke="midnightblue" d="M73.52,-490.24C72.64,-434.24 77.43,-238.17 182,-137.5 183.11,-136.43 184.26,-135.41 185.45,-134.43"/>
<polygon fill="midnightblue" stroke="midnightblue" points="187.6,-137.19 193.76,-128.58 183.57,-131.47 187.6,-137.19"/>
</g>
<!-- Node36 -->
<g id="node36" class="node">
<title>Node36</title>
<g id="a_node36"><a xlink:href="classdenoptim_1_1graph_1_1_d_graph.html#a964c16febfae88b341e3f878856acefb" target="_top" xlink:title=" ">
<polygon fill="white" stroke="black" points="214,-49.5 214,-79.5 342,-79.5 342,-49.5 214,-49.5"/>
<text text-anchor="start" x="222" y="-67.5" font-family="Helvetica,sans-Serif" font-size="10.00">denoptim.graph.DGraph.to</text>
<text text-anchor="middle" x="278" y="-56.5" font-family="Helvetica,sans-Serif" font-size="10.00">String</text>
</a>
</g>
</g>
<!-- Node1&#45;&gt;Node36 -->
<g id="edge48" class="edge">
<title>Node1&#45;&gt;Node36</title>
<path fill="none" stroke="midnightblue" d="M75.86,-490.35C84.46,-422.53 122.6,-147.55 182,-88.5 188.31,-82.23 196.01,-77.51 204.27,-73.99"/>
<polygon fill="midnightblue" stroke="midnightblue" points="205.6,-77.23 213.78,-70.49 203.19,-70.66 205.6,-77.23"/>
</g>
<!-- Node37 -->
<g id="node37" class="node">
<title>Node37</title>
<g id="a_node37"><a xlink:href="classdenoptim_1_1fragspace_1_1_fragment_space.html#a47b278f84db073b1f06809f9c42cfae5" target="_top" xlink:title="Check usage of APClass&#45;based approach, i.e., uses attachment points with annotated data (i....">
<polygon fill="white" stroke="black" points="194,-0.5 194,-30.5 362,-30.5 362,-0.5 194,-0.5"/>
<text text-anchor="start" x="202" y="-18.5" font-family="Helvetica,sans-Serif" font-size="10.00">denoptim.fragspace.Fragment</text>
<text text-anchor="middle" x="278" y="-7.5" font-family="Helvetica,sans-Serif" font-size="10.00">Space.useAPclassBasedApproach</text>
</a>
</g>
</g>
<!-- Node1&#45;&gt;Node37 -->
<g id="edge49" class="edge">
<title>Node1&#45;&gt;Node37</title>
<path fill="none" stroke="midnightblue" d="M75.44,-490.08C82.58,-417.01 116.45,-106.36 182,-39.5 183.23,-38.25 184.51,-37.06 185.84,-35.93"/>
<polygon fill="midnightblue" stroke="midnightblue" points="187.9,-38.76 193.96,-30.07 183.8,-33.08 187.9,-38.76"/>
</g>
<!-- Node3&#45;&gt;Node3 -->
<g id="edge3" class="edge">
<title>Node3&#45;&gt;Node3</title>
<path fill="none" stroke="midnightblue" d="M240.51,-995.36C236.42,-1005.04 248.91,-1013.5 278,-1013.5 296.18,-1013.5 307.88,-1010.2 313.1,-1005.36"/>
<polygon fill="midnightblue" stroke="midnightblue" points="316.56,-1005.9 315.49,-995.36 309.76,-1004.27 316.56,-1005.9"/>
</g>
<!-- Node5&#45;&gt;Node6 -->
<g id="edge6" class="edge">
<title>Node5&#45;&gt;Node6</title>
<path fill="none" stroke="midnightblue" d="M566.39,-792.47C593.59,-785.53 626.06,-777.24 654.36,-770.02"/>
<polygon fill="midnightblue" stroke="midnightblue" points="655.36,-773.38 664.18,-767.51 653.63,-766.59 655.36,-773.38"/>
</g>
<!-- Node7 -->
<g id="node7" class="node">
<title>Node7</title>
<g id="a_node7"><a xlink:href="classdenoptim_1_1utils_1_1_molecule_utils.html#af975649c8225c4653efb1135d8360c2d" target="_top" xlink:title="Check element symbol corresponds to real element of Periodic Table.">
<polygon fill="white" stroke="black" points="845,-762.5 845,-792.5 993,-792.5 993,-762.5 845,-762.5"/>
<text text-anchor="start" x="853" y="-780.5" font-family="Helvetica,sans-Serif" font-size="10.00">denoptim.utils.MoleculeUtils.is</text>
<text text-anchor="middle" x="919" y="-769.5" font-family="Helvetica,sans-Serif" font-size="10.00">Element</text>
</a>
</g>
</g>
<!-- Node5&#45;&gt;Node7 -->
<g id="edge9" class="edge">
<title>Node5&#45;&gt;Node7</title>
<path fill="none" stroke="midnightblue" d="M583.75,-801.93C655.06,-796.72 761.29,-788.95 834.77,-783.58"/>
<polygon fill="midnightblue" stroke="midnightblue" points="835.2,-787.06 844.92,-782.84 834.69,-780.08 835.2,-787.06"/>
</g>
<!-- Node6&#45;&gt;Node7 -->
<g id="edge7" class="edge">
<title>Node6&#45;&gt;Node7</title>
<path fill="none" stroke="midnightblue" d="M801,-762.34C812.07,-763.78 823.51,-765.26 834.71,-766.71"/>
<polygon fill="midnightblue" stroke="midnightblue" points="834.54,-770.22 844.91,-768.03 835.44,-763.28 834.54,-770.22"/>
</g>
<!-- Node7&#45;&gt;Node7 -->
<g id="edge8" class="edge">
<title>Node7&#45;&gt;Node7</title>
<path fill="none" stroke="midnightblue" d="M885.19,-792.66C877.04,-802.06 888.31,-811 919,-811 937.7,-811 949.19,-807.68 953.47,-802.96"/>
<polygon fill="midnightblue" stroke="midnightblue" points="956.94,-802.41 952.81,-792.66 949.96,-802.86 956.94,-802.41"/>
</g>
<!-- Node8&#45;&gt;Node8 -->
<g id="edge11" class="edge">
<title>Node8&#45;&gt;Node8</title>
<path fill="none" stroke="midnightblue" d="M242.45,-667.66C233.88,-677.06 245.73,-686 278,-686 297.67,-686 309.75,-682.68 314.25,-677.96"/>
<polygon fill="midnightblue" stroke="midnightblue" points="317.72,-677.4 313.55,-667.66 310.73,-677.87 317.72,-677.4"/>
</g>
<!-- Node20 -->
<g id="node20" class="node">
<title>Node20</title>
<g id="a_node20"><a xlink:href="classdenoptim_1_1utils_1_1_molecule_utils.html#a8cc5143fa76686dda4a0e1e348fef03c" target="_top" xlink:title="Sets bond order = single to all otherwise unset bonds.">
<polygon fill="white" stroke="black" points="421.5,-466.5 421.5,-496.5 591.5,-496.5 591.5,-466.5 421.5,-466.5"/>
<text text-anchor="start" x="429.5" y="-484.5" font-family="Helvetica,sans-Serif" font-size="10.00">denoptim.utils.MoleculeUtils.ensure</text>
<text text-anchor="middle" x="506.5" y="-473.5" font-family="Helvetica,sans-Serif" font-size="10.00">NoUnsetBondOrdersSilent</text>
</a>
</g>
</g>
<!-- Node19&#45;&gt;Node20 -->
<g id="edge23" class="edge">
<title>Node19&#45;&gt;Node20</title>
<path fill="none" stroke="midnightblue" d="M355.03,-709C362.09,-705.59 368.61,-701.18 374,-695.5 430.76,-635.69 355.54,-575.42 410,-513.5 413.99,-508.96 418.65,-505.06 423.72,-501.71"/>
<polygon fill="midnightblue" stroke="midnightblue" points="425.69,-504.62 432.6,-496.59 422.19,-498.56 425.69,-504.62"/>
</g>
<!-- Node22 -->
<g id="node22" class="node">
<title>Node22</title>
<g id="a_node22"><a xlink:href="classdenoptim_1_1utils_1_1_dummy_atom_handler.html#aebb34175897f152ed3927c27c896a4c3" target="_top" xlink:title="Removes all dummy atoms and the bonds connecting them to other atoms.">
<polygon fill="white" stroke="black" points="439,-617.5 439,-647.5 574,-647.5 574,-617.5 439,-617.5"/>
<text text-anchor="start" x="447" y="-635.5" font-family="Helvetica,sans-Serif" font-size="10.00">denoptim.utils.DummyAtom</text>
<text text-anchor="middle" x="506.5" y="-624.5" font-family="Helvetica,sans-Serif" font-size="10.00">Handler.removeDummy</text>
</a>
</g>
</g>
<!-- Node19&#45;&gt;Node22 -->
<g id="edge25" class="edge">
<title>Node19&#45;&gt;Node22</title>
<path fill="none" stroke="midnightblue" d="M355.23,-704.42C361.77,-701.89 368.13,-698.94 374,-695.5 394.07,-683.74 389.98,-669.35 410,-657.5 415.95,-653.98 422.39,-650.95 429.02,-648.34"/>
<polygon fill="midnightblue" stroke="midnightblue" points="430.61,-651.49 438.84,-644.82 428.25,-644.9 430.61,-651.49"/>
</g>
<!-- Node24 -->
<g id="node24" class="node">
<title>Node24</title>
<g id="a_node24"><a xlink:href="classdenoptim_1_1utils_1_1_dummy_atom_handler.html#afeb315a7590ab0ded7285e333319a195" target="_top" xlink:title=" ">
<polygon fill="white" stroke="black" points="430.5,-568.5 430.5,-598.5 582.5,-598.5 582.5,-568.5 430.5,-568.5"/>
<text text-anchor="start" x="438.5" y="-586.5" font-family="Helvetica,sans-Serif" font-size="10.00">denoptim.utils.DummyAtom</text>
<text text-anchor="middle" x="506.5" y="-575.5" font-family="Helvetica,sans-Serif" font-size="10.00">Handler.removeDummyInHapto</text>
</a>
</g>
</g>
<!-- Node19&#45;&gt;Node24 -->
<g id="edge28" class="edge">
<title>Node19&#45;&gt;Node24</title>
<path fill="none" stroke="midnightblue" d="M355.37,-707.24C362.11,-704.14 368.47,-700.28 374,-695.5 405.65,-668.13 378.46,-636.01 410,-608.5 413.43,-605.5 417.19,-602.86 421.15,-600.53"/>
<polygon fill="midnightblue" stroke="midnightblue" points="422.85,-603.59 430.14,-595.91 419.64,-597.37 422.85,-603.59"/>
</g>
<!-- Node27 -->
<g id="node27" class="node">
<title>Node27</title>
<g id="a_node27"><a xlink:href="classdenoptim_1_1io_1_1_denoptim_i_o.html#a33af2ecd8e9f62a54855b2a7866262b3" target="_top" xlink:title="Writes IAtomContainer to SDF file.">
<polygon fill="white" stroke="black" points="652.5,-501.5 652.5,-531.5 795.5,-531.5 795.5,-501.5 652.5,-501.5"/>
<text text-anchor="start" x="660.5" y="-519.5" font-family="Helvetica,sans-Serif" font-size="10.00">denoptim.io.DenoptimIO.write</text>
<text text-anchor="middle" x="724" y="-508.5" font-family="Helvetica,sans-Serif" font-size="10.00">SDFFile</text>
</a>
</g>
</g>
<!-- Node19&#45;&gt;Node27 -->
<g id="edge39" class="edge">
<title>Node19&#45;&gt;Node27</title>
<path fill="none" stroke="midnightblue" d="M355.13,-708.43C362.09,-705.11 368.56,-700.88 374,-695.5 418.46,-651.54 363.17,-600.93 410,-559.5 443.44,-529.92 560.91,-520.57 642.03,-517.69"/>
<polygon fill="midnightblue" stroke="midnightblue" points="642.35,-521.18 652.23,-517.35 642.12,-514.18 642.35,-521.18"/>
</g>
<!-- Node28 -->
<g id="node28" class="node">
<title>Node28</title>
<g id="a_node28"><a xlink:href="classdenoptim_1_1utils_1_1_molecule_utils.html#a5b9d0a88dd69734a1c54659e07d1294a" target="_top" xlink:title="Replace any PseudoAtoms representing ring closing attractors with H.">
<polygon fill="white" stroke="black" points="410,-716 410,-735 603,-735 603,-716 410,-716"/>
<text text-anchor="middle" x="506.5" y="-723" font-family="Helvetica,sans-Serif" font-size="10.00">denoptim.utils.MoleculeUtils.removeRCA</text>
</a>
</g>
</g>
<!-- Node19&#45;&gt;Node28 -->
<g id="edge36" class="edge">
<title>Node19&#45;&gt;Node28</title>
<path fill="none" stroke="midnightblue" d="M355.05,-721.51C369.36,-721.89 384.55,-722.3 399.58,-722.69"/>
<polygon fill="midnightblue" stroke="midnightblue" points="399.85,-726.2 409.94,-722.97 400.03,-719.2 399.85,-726.2"/>
</g>
<!-- Node29 -->
<g id="node29" class="node">
<title>Node29</title>
<g id="a_node29"><a xlink:href="classdenoptim_1_1utils_1_1_molecule_utils.html#a364533d507e42ebb43dc537c0e3ad3a4" target="_top" xlink:title="Sets zero implicit hydrogen count to all atoms.">
<polygon fill="white" stroke="black" points="424,-666.5 424,-696.5 589,-696.5 589,-666.5 424,-666.5"/>
<text text-anchor="start" x="432" y="-684.5" font-family="Helvetica,sans-Serif" font-size="10.00">denoptim.utils.MoleculeUtils.set</text>
<text text-anchor="middle" x="506.5" y="-673.5" font-family="Helvetica,sans-Serif" font-size="10.00">ZeroImplicitHydrogensToAllAtoms</text>
</a>
</g>
</g>
<!-- Node19&#45;&gt;Node29 -->
<g id="edge38" class="edge">
<title>Node19&#45;&gt;Node29</title>
<path fill="none" stroke="midnightblue" d="M355.05,-706.74C373.88,-703.58 394.24,-700.17 413.73,-696.9"/>
<polygon fill="midnightblue" stroke="midnightblue" points="414.54,-700.31 423.82,-695.2 413.38,-693.41 414.54,-700.31"/>
</g>
<!-- Node21 -->
<g id="node21" class="node">
<title>Node21</title>
<g id="a_node21"><a xlink:href="classdenoptim_1_1utils_1_1_molecule_utils.html#ab217b40e0b54cad6f9857b2103d4fd69" target="_top" xlink:title="Sets bond order = single to all otherwise unset bonds.">
<polygon fill="white" stroke="black" points="639,-452.5 639,-482.5 809,-482.5 809,-452.5 639,-452.5"/>
<text text-anchor="start" x="647" y="-470.5" font-family="Helvetica,sans-Serif" font-size="10.00">denoptim.utils.MoleculeUtils.ensure</text>
<text text-anchor="middle" x="724" y="-459.5" font-family="Helvetica,sans-Serif" font-size="10.00">NoUnsetBondOrders</text>
</a>
</g>
</g>
<!-- Node20&#45;&gt;Node21 -->
<g id="edge24" class="edge">
<title>Node20&#45;&gt;Node21</title>
<path fill="none" stroke="midnightblue" d="M591.74,-476.03C603.83,-475.24 616.32,-474.43 628.58,-473.63"/>
<polygon fill="midnightblue" stroke="midnightblue" points="629.06,-477.11 638.81,-472.97 628.61,-470.12 629.06,-477.11"/>
</g>
<!-- Node22&#45;&gt;Node6 -->
<g id="edge27" class="edge">
<title>Node22&#45;&gt;Node6</title>
<path fill="none" stroke="midnightblue" d="M574.03,-642.32C584.42,-645.92 594.52,-650.82 603,-657.5 629.56,-678.41 613.14,-702.73 639,-724.5 642.54,-727.48 646.4,-730.14 650.46,-732.52"/>
<polygon fill="midnightblue" stroke="midnightblue" points="649.15,-735.79 659.64,-737.3 652.39,-729.58 649.15,-735.79"/>
</g>
<!-- Node23 -->
<g id="node23" class="node">
<title>Node23</title>
<g id="a_node23"><a xlink:href="classdenoptim_1_1utils_1_1_dummy_atom_handler.html#a4cd147e9f65c7826d4bf8bc295f9d5b3" target="_top" xlink:title=" ">
<polygon fill="white" stroke="black" points="652.5,-684.5 652.5,-714.5 795.5,-714.5 795.5,-684.5 652.5,-684.5"/>
<text text-anchor="start" x="660.5" y="-702.5" font-family="Helvetica,sans-Serif" font-size="10.00">denoptim.utils.DummyAtom</text>
<text text-anchor="middle" x="724" y="-691.5" font-family="Helvetica,sans-Serif" font-size="10.00">Handler.getSDFAtomNumber</text>
</a>
</g>
</g>
<!-- Node22&#45;&gt;Node23 -->
<g id="edge26" class="edge">
<title>Node22&#45;&gt;Node23</title>
<path fill="none" stroke="midnightblue" d="M572.29,-647.51C582.67,-650.47 593.22,-653.82 603,-657.5 619.74,-663.8 622.33,-669.01 639,-675.5 644.34,-677.58 649.94,-679.57 655.6,-681.44"/>
<polygon fill="midnightblue" stroke="midnightblue" points="654.55,-684.79 665.14,-684.5 656.69,-678.12 654.55,-684.79"/>
</g>
<!-- Node24&#45;&gt;Node6 -->
<g id="edge33" class="edge">
<title>Node24&#45;&gt;Node6</title>
<path fill="none" stroke="midnightblue" d="M582.88,-595.15C590.27,-598.57 597.18,-602.93 603,-608.5 642.02,-645.8 601.23,-685.93 639,-724.5 641.69,-727.24 644.65,-729.72 647.8,-731.95"/>
<polygon fill="midnightblue" stroke="midnightblue" points="646.21,-735.07 656.56,-737.31 649.86,-729.1 646.21,-735.07"/>
</g>
<!-- Node24&#45;&gt;Node23 -->
<g id="edge32" class="edge">
<title>Node24&#45;&gt;Node23</title>
<path fill="none" stroke="midnightblue" d="M582.83,-596.73C590.06,-599.86 596.94,-603.73 603,-608.5 629.56,-629.41 612.67,-654.3 639,-675.5 640.59,-676.78 642.25,-678 643.97,-679.15"/>
<polygon fill="midnightblue" stroke="midnightblue" points="642.54,-682.37 652.94,-684.38 646.06,-676.32 642.54,-682.37"/>
</g>
<!-- Node25 -->
<g id="node25" class="node">
<title>Node25</title>
<g id="a_node25"><a xlink:href="classdenoptim_1_1utils_1_1_dummy_atom_handler.html#a51781b0ca6eb50ceb2160e1020af04ab" target="_top" xlink:title="Explore connected systems in a list of atoms and returns all the atoms that can be reached starting f...">
<polygon fill="white" stroke="black" points="642,-568.5 642,-598.5 806,-598.5 806,-568.5 642,-568.5"/>
<text text-anchor="start" x="650" y="-586.5" font-family="Helvetica,sans-Serif" font-size="10.00">denoptim.utils.DummyAtom</text>
<text text-anchor="middle" x="724" y="-575.5" font-family="Helvetica,sans-Serif" font-size="10.00">Handler.exploreConnectedToAtom</text>
</a>
</g>
</g>
<!-- Node24&#45;&gt;Node25 -->
<g id="edge29" class="edge">
<title>Node24&#45;&gt;Node25</title>
<path fill="none" stroke="midnightblue" d="M582.57,-583.5C598.46,-583.5 615.4,-583.5 631.82,-583.5"/>
<polygon fill="midnightblue" stroke="midnightblue" points="631.96,-587 641.96,-583.5 631.96,-580 631.96,-587"/>
</g>
<!-- Node26 -->
<g id="node26" class="node">
<title>Node26</title>
<g id="a_node26"><a xlink:href="classdenoptim_1_1utils_1_1_dummy_atom_handler.html#a27e71c4eff13a223903ab212a4f316eb" target="_top" xlink:title="Generates a vector of boolean flags.">
<polygon fill="white" stroke="black" points="656.5,-635.5 656.5,-665.5 791.5,-665.5 791.5,-635.5 656.5,-635.5"/>
<text text-anchor="start" x="664.5" y="-653.5" font-family="Helvetica,sans-Serif" font-size="10.00">denoptim.utils.DummyAtom</text>
<text text-anchor="middle" x="724" y="-642.5" font-family="Helvetica,sans-Serif" font-size="10.00">Handler.getFlagsVector</text>
</a>
</g>
</g>
<!-- Node24&#45;&gt;Node26 -->
<g id="edge31" class="edge">
<title>Node24&#45;&gt;Node26</title>
<path fill="none" stroke="midnightblue" d="M572.29,-598.51C582.67,-601.47 593.22,-604.82 603,-608.5 619.74,-614.8 622.33,-620.01 639,-626.5 644.34,-628.58 649.94,-630.57 655.6,-632.44"/>
<polygon fill="midnightblue" stroke="midnightblue" points="654.55,-635.79 665.14,-635.5 656.69,-629.12 654.55,-635.79"/>
</g>
<!-- Node24&#45;&gt;Node27 -->
<g id="edge34" class="edge">
<title>Node24&#45;&gt;Node27</title>
<path fill="none" stroke="midnightblue" d="M555.86,-568.46C588.05,-558.46 630.52,-545.25 664.6,-534.66"/>
<polygon fill="midnightblue" stroke="midnightblue" points="665.92,-537.91 674.43,-531.6 663.84,-531.23 665.92,-537.91"/>
</g>
<!-- Node25&#45;&gt;Node25 -->
<g id="edge30" class="edge">
<title>Node25&#45;&gt;Node25</title>
<path fill="none" stroke="midnightblue" d="M690.19,-598.66C682.04,-608.06 693.31,-617 724,-617 742.7,-617 754.19,-613.68 758.47,-608.96"/>
<polygon fill="midnightblue" stroke="midnightblue" points="761.94,-608.41 757.81,-598.66 754.96,-608.86 761.94,-608.41"/>
</g>
<!-- Node27&#45;&gt;Node27 -->
<g id="edge35" class="edge">
<title>Node27&#45;&gt;Node27</title>
<path fill="none" stroke="midnightblue" d="M690.19,-531.66C682.04,-541.06 693.31,-550 724,-550 742.7,-550 754.19,-546.68 758.47,-541.96"/>
<polygon fill="midnightblue" stroke="midnightblue" points="761.94,-541.41 757.81,-531.66 754.96,-541.86 761.94,-541.41"/>
</g>
<!-- Node28&#45;&gt;Node6 -->
<g id="edge37" class="edge">
<title>Node28&#45;&gt;Node6</title>
<path fill="none" stroke="midnightblue" d="M583.48,-735.02C600.7,-737.18 619.11,-739.48 636.72,-741.69"/>
<polygon fill="midnightblue" stroke="midnightblue" points="636.62,-745.21 646.98,-742.98 637.5,-738.26 636.62,-745.21"/>
</g>
<!-- Node30&#45;&gt;Node4 -->
<g id="edge43" class="edge">
<title>Node30&#45;&gt;Node4</title>
<path fill="none" stroke="midnightblue" d="M346.48,-893.76C356.67,-898.02 366.32,-903.77 374,-911.5 412.33,-950.11 370.54,-991.05 410,-1028.5 411.12,-1029.57 412.29,-1030.59 413.49,-1031.57"/>
<polygon fill="midnightblue" stroke="midnightblue" points="411.67,-1034.57 421.88,-1037.4 415.67,-1028.82 411.67,-1034.57"/>
</g>
<!-- Node31 -->
<g id="node31" class="node">
<title>Node31</title>
<g id="a_node31"><a xlink:href="classdenoptim_1_1fragspace_1_1_fragment_space.html#a5933a7161684c3526a63b176407f059e" target="_top" xlink:title=" ">
<polygon fill="white" stroke="black" points="434,-939.5 434,-969.5 579,-969.5 579,-939.5 434,-939.5"/>
<text text-anchor="start" x="442" y="-957.5" font-family="Helvetica,sans-Serif" font-size="10.00">denoptim.fragspace.Fragment</text>
<text text-anchor="middle" x="506.5" y="-946.5" font-family="Helvetica,sans-Serif" font-size="10.00">Space.getForbiddenEndList</text>
</a>
</g>
</g>
<!-- Node30&#45;&gt;Node31 -->
<g id="edge42" class="edge">
<title>Node30&#45;&gt;Node31</title>
<path fill="none" stroke="midnightblue" d="M332.37,-896.5C346.11,-900.87 360.75,-905.97 374,-911.5 390.69,-918.47 393.11,-924.03 410,-930.5 415.57,-932.64 421.4,-934.64 427.32,-936.5"/>
<polygon fill="midnightblue" stroke="midnightblue" points="426.73,-939.97 437.31,-939.5 428.74,-933.27 426.73,-939.97"/>
</g>
<!-- Node32 -->
<g id="node32" class="node">
<title>Node32</title>
<g id="a_node32"><a xlink:href="classdenoptim_1_1programs_1_1_run_time_parameters.html#a5d529ee791990d15bde012d8dcd6b5c1" target="_top" xlink:title="Get the name of the program specific logger.">
<polygon fill="white" stroke="black" points="436.5,-890.5 436.5,-920.5 576.5,-920.5 576.5,-890.5 436.5,-890.5"/>
<text text-anchor="start" x="444.5" y="-908.5" font-family="Helvetica,sans-Serif" font-size="10.00">denoptim.programs.RunTime</text>
<text text-anchor="middle" x="506.5" y="-897.5" font-family="Helvetica,sans-Serif" font-size="10.00">Parameters.getLogger</text>
</a>
</g>
</g>
<!-- Node30&#45;&gt;Node32 -->
<g id="edge44" class="edge">
<title>Node30&#45;&gt;Node32</title>
<path fill="none" stroke="midnightblue" d="M346.04,-888.6C371.14,-891.26 399.91,-894.31 426.03,-897.08"/>
<polygon fill="midnightblue" stroke="midnightblue" points="425.96,-900.59 436.28,-898.17 426.7,-893.63 425.96,-900.59"/>
</g>
<!-- Node33 -->
<g id="node33" class="node">
<title>Node33</title>
<g id="a_node33"><a xlink:href="classdenoptim_1_1graph_1_1_d_graph.html#a650a0f54382fb930bf57429dd616258a" target="_top" xlink:title=" ">
<polygon fill="white" stroke="black" points="439.5,-841.5 439.5,-871.5 573.5,-871.5 573.5,-841.5 439.5,-841.5"/>
<text text-anchor="start" x="447.5" y="-859.5" font-family="Helvetica,sans-Serif" font-size="10.00">denoptim.graph.DGraph.get</text>
<text text-anchor="middle" x="506.5" y="-848.5" font-family="Helvetica,sans-Serif" font-size="10.00">VertexList</text>
</a>
</g>
</g>
<!-- Node30&#45;&gt;Node33 -->
<g id="edge45" class="edge">
<title>Node30&#45;&gt;Node33</title>
<path fill="none" stroke="midnightblue" d="M346.04,-874.1C372.18,-871.22 402.29,-867.89 429.25,-864.92"/>
<polygon fill="midnightblue" stroke="midnightblue" points="429.86,-868.37 439.41,-863.79 429.09,-861.41 429.86,-868.37"/>
</g>
<!-- Node34 -->
<g id="node34" class="node">
<title>Node34</title>
<g id="a_node34"><a xlink:href="classdenoptim_1_1graph_1_1_a_p_class.html#ac33a29894453a78896488fa441fcbd85" target="_top" xlink:title="Do not use this to make SDF representations.">
<polygon fill="white" stroke="black" points="439.5,-988.5 439.5,-1018.5 573.5,-1018.5 573.5,-988.5 439.5,-988.5"/>
<text text-anchor="start" x="447.5" y="-1006.5" font-family="Helvetica,sans-Serif" font-size="10.00">denoptim.graph.APClass.to</text>
<text text-anchor="middle" x="506.5" y="-995.5" font-family="Helvetica,sans-Serif" font-size="10.00">String</text>
</a>
</g>
</g>
<!-- Node30&#45;&gt;Node34 -->
<g id="edge46" class="edge">
<title>Node30&#45;&gt;Node34</title>
<path fill="none" stroke="midnightblue" d="M346.28,-895.44C356.26,-899.51 365.9,-904.74 374,-911.5 400.27,-933.4 383.09,-958.4 410,-979.5 415.92,-984.14 422.62,-987.9 429.67,-990.93"/>
<polygon fill="midnightblue" stroke="midnightblue" points="428.86,-994.37 439.45,-994.64 431.34,-987.82 428.86,-994.37"/>
</g>
</g>
</svg>
        <g id="navigator" transform="translate(0 0)" fill="#404254">
                <rect fill="#f2f5e9" fill-opacity="0.5" stroke="#606060" stroke-width=".5" x="0" y="0" width="60" height="60"/>
                <use id="zoomplus" xlink:href="#zoomPlus" x="17" y="9" onmousedown="handleZoom(evt,'in')"/>
                <use id="zoomminus" xlink:href="#zoomMin" x="42" y="9" onmousedown="handleZoom(evt,'out')"/>
                <use id="reset" xlink:href="#resetDef" x="30" y="36" onmousedown="handleReset()"/>
                <g id="arrowUp" xlink:href="#dirArrow" transform="translate(30 24)" onmousedown="handlePan(0,-1)">
                  <use xlink:href="#rim" fill="#404040">
                        <set attributeName="fill" to="#808080" begin="arrowUp.mouseover" end="arrowUp.mouseout"/>
                  </use>
                  <path fill="none" stroke="white" stroke-width="1.5" d="M0,-3.0v7 M-2.5,-0.5L0,-3.0L2.5,-0.5"/>
                </g>
                <g id="arrowRight" xlink:href="#dirArrow" transform="rotate(90) translate(36 -43)" onmousedown="handlePan(1,0)">
                  <use xlink:href="#rim" fill="#404040">
                        <set attributeName="fill" to="#808080" begin="arrowRight.mouseover" end="arrowRight.mouseout"/>
                  </use>
                  <path fill="none" stroke="white" stroke-width="1.5" d="M0,-3.0v7 M-2.5,-0.5L0,-3.0L2.5,-0.5"/>
                </g>
                <g id="arrowDown" xlink:href="#dirArrow" transform="rotate(180) translate(-30 -48)" onmousedown="handlePan(0,1)">
                  <use xlink:href="#rim" fill="#404040">
                        <set attributeName="fill" to="#808080" begin="arrowDown.mouseover" end="arrowDown.mouseout"/>
                  </use>
                  <path fill="none" stroke="white" stroke-width="1.5" d="M0,-3.0v7 M-2.5,-0.5L0,-3.0L2.5,-0.5"/>
                </g>
                <g id="arrowLeft" xlink:href="#dirArrow" transform="rotate(270) translate(-36 17)" onmousedown="handlePan(-1,0)">
                  <use xlink:href="#rim" fill="#404040">
                        <set attributeName="fill" to="#808080" begin="arrowLeft.mouseover" end="arrowLeft.mouseout"/>
                  </use>
                  <path fill="none" stroke="white" stroke-width="1.5" d="M0,-3.0v7 M-2.5,-0.5L0,-3.0L2.5,-0.5"/>
                </g>
        </g>
        <svg viewBox="0 0 15 15" width="100%" height="30px" preserveAspectRatio="xMaxYMin meet">
         <g id="arrow_out" transform="scale(0.3 0.3)">
          <a xlink:href="classdenoptim_1_1graph_1_1_d_graph_ac1e5c9703afc6f29fe11cca08ddb1a1c_cgraph_org.svg" target="_base">
           <rect id="button" ry="5" rx="5" y="6" x="6" height="38" width="38"
                fill="#f2f5e9" fill-opacity="0.5" stroke="#606060" stroke-width="1.0"/>
           <path id="arrow"
             d="M 11.500037,31.436501 C 11.940474,20.09759 22.043105,11.32322 32.158766,21.979434 L 37.068811,17.246167 C 37.068811,17.246167 37.088388,32 37.088388,32 L 22.160133,31.978069 C 22.160133,31.978069 26.997745,27.140456 26.997745,27.140456 C 18.528582,18.264221 13.291696,25.230495 11.500037,31.436501 z"
             style="fill:#404040;"/>
          </a>
         </g>
        </svg>
</svg>
