<?xml version="1.0" encoding="UTF-8" standalone="no"?>
<!DOCTYPE svg PUBLIC "-//W3C//DTD SVG 1.1//EN"
 "http://www.w3.org/Graphics/SVG/1.1/DTD/svg11.dtd">
<!-- Generated by graphviz version 3.0.0 (20221109.1736)
 -->
<!-- Title: denoptim.graph.Vertex.setMutationTypes Pages: 1 -->
<!--zoomable 1110 -->
<svg id="main" version="1.1" xmlns="http://www.w3.org/2000/svg" xmlns:xlink="http://www.w3.org/1999/xlink" xml:space="preserve" onload="init(evt)">
<style type="text/css"><![CDATA[
.edge:hover path { stroke: red; }
.edge:hover polygon { stroke: red; fill: red; }
]]></style>
<script type="text/javascript"><![CDATA[
var edges = document.getElementsByTagName('g');
if (edges && edges.length) {
  for (var i=0;i<edges.length;i++) {
    if (edges[i].id.substr(0,4)=='edge') {
      edges[i].setAttribute('class','edge');
    }
  }
}
]]></script>
        <defs>
                <circle id="rim" cx="0" cy="0" r="7"/>
                <circle id="rim2" cx="0" cy="0" r="3.5"/>
                <g id="zoomPlus">
                        <use xlink:href="#rim" fill="#404040">
                                <set attributeName="fill" to="#808080" begin="zoomplus.mouseover" end="zoomplus.mouseout"/>
                        </use>
                        <path d="M-4,0h8M0,-4v8" fill="none" stroke="white" stroke-width="1.5" pointer-events="none"/>
                </g>
                <g id="zoomMin">
                        <use xlink:href="#rim" fill="#404040">
                                <set attributeName="fill" to="#808080" begin="zoomminus.mouseover" end="zoomminus.mouseout"/>
                        </use>
                        <path d="M-4,0h8" fill="none" stroke="white" stroke-width="1.5" pointer-events="none"/>
                </g>
                <g id="dirArrow">
                        <path fill="none" stroke="white" stroke-width="1.5" d="M0,-3.0v7 M-2.5,-0.5L0,-3.0L2.5,-0.5"/>
                </g>
               <g id="resetDef">
                       <use xlink:href="#rim2" fill="#404040">
                               <set attributeName="fill" to="#808080" begin="reset.mouseover" end="reset.mouseout"/>
                       </use>
               </g>
        </defs>

<script type="text/javascript">
var viewWidth = 1167;
var viewHeight = 1110;
var sectionId = 'dynsection-92';
</script>
<script xlink:href="svgpan.js"/>
<svg id="graph" class="graph">
<g id="viewport">
<title>denoptim.graph.Vertex.setMutationTypes</title>
<polygon fill="white" stroke="transparent" points="-4,4 -4,-1106 1163,-1106 1163,4 -4,4"/>
<!-- Node1 -->
<g id="node1" class="node">
<title>Node1</title>
<g id="a_node1"><a xlink:title=" ">
<polygon fill="#bfbfbf" stroke="black" points="1031,-98.5 1031,-128.5 1159,-128.5 1159,-98.5 1031,-98.5"/>
<text text-anchor="start" x="1039" y="-116.5" font-family="Helvetica,sans-Serif" font-size="10.00">denoptim.graph.Vertex.set</text>
<text text-anchor="middle" x="1095" y="-105.5" font-family="Helvetica,sans-Serif" font-size="10.00">MutationTypes</text>
</a>
</g>
</g>
<!-- Node2 -->
<g id="node2" class="node">
<title>Node2</title>
<g id="a_node2"><a xlink:href="classdenoptim_1_1graph_1_1_empty_vertex.html#a537720023ac6debd9f4663d61026a423" target="_top" xlink:title="Returns a deep&#45;copy of this vertex.">
<polygon fill="white" stroke="black" points="830,-954 830,-973 995,-973 995,-954 830,-954"/>
<text text-anchor="middle" x="912.5" y="-961" font-family="Helvetica,sans-Serif" font-size="10.00">denoptim.graph.EmptyVertex.clone</text>
</a>
</g>
</g>
<!-- Node1&#45;&gt;Node2 -->
<g id="edge1" class="edge">
<title>Node1&#45;&gt;Node2</title>
<path fill="none" stroke="midnightblue" d="M1088.69,-138.49C1060.97,-269.06 933.33,-870.14 915.56,-953.82"/>
<polygon fill="midnightblue" stroke="midnightblue" points="1092.14,-139.12 1090.79,-128.61 1085.29,-137.67 1092.14,-139.12"/>
</g>
<!-- Node9 -->
<g id="node9" class="node">
<title>Node9</title>
<g id="a_node9"><a xlink:href="classdenoptim_1_1graph_1_1_fragment.html#a3b476687a392e637d2bf2f3b6ccb09a4" target="_top" xlink:title="Returns a deep copy of this fragments.">
<polygon fill="white" stroke="black" points="836.5,-462 836.5,-481 988.5,-481 988.5,-462 836.5,-462"/>
<text text-anchor="middle" x="912.5" y="-469" font-family="Helvetica,sans-Serif" font-size="10.00">denoptim.graph.Fragment.clone</text>
</a>
</g>
</g>
<!-- Node1&#45;&gt;Node9 -->
<g id="edge8" class="edge">
<title>Node1&#45;&gt;Node9</title>
<path fill="none" stroke="midnightblue" d="M1081.63,-138.04C1045.61,-209.48 941.88,-415.22 918.3,-461.97"/>
<polygon fill="midnightblue" stroke="midnightblue" points="1084.87,-139.39 1086.24,-128.88 1078.62,-136.24 1084.87,-139.39"/>
</g>
<!-- Node31 -->
<g id="node31" class="node">
<title>Node31</title>
<g id="a_node31"><a xlink:href="classdenoptim_1_1graph_1_1_template.html#ac7d7400f47d4bad33f3755f1b3d19a3e" target="_top" xlink:title="Returns a deep copy of this template.">
<polygon fill="white" stroke="black" points="837,-104 837,-123 988,-123 988,-104 837,-104"/>
<text text-anchor="middle" x="912.5" y="-111" font-family="Helvetica,sans-Serif" font-size="10.00">denoptim.graph.Template.clone</text>
</a>
</g>
</g>
<!-- Node1&#45;&gt;Node31 -->
<g id="edge33" class="edge">
<title>Node1&#45;&gt;Node31</title>
<path fill="none" stroke="midnightblue" d="M1020.68,-113.5C1009.92,-113.5 998.84,-113.5 988.06,-113.5"/>
<polygon fill="midnightblue" stroke="midnightblue" points="1020.87,-117 1030.87,-113.5 1020.87,-110 1020.87,-117"/>
</g>
<!-- Node34 -->
<g id="node34" class="node">
<title>Node34</title>
<g id="a_node34"><a xlink:href="classdenoptim_1_1graph_1_1_d_graph.html#adc362402e41af41656e820def73de5ad" target="_top" xlink:title="Replaced a given vertex belonging to this graph with a new vertex generated specifically for this pur...">
<polygon fill="white" stroke="black" points="836.5,-54.5 836.5,-84.5 988.5,-84.5 988.5,-54.5 836.5,-54.5"/>
<text text-anchor="start" x="844.5" y="-72.5" font-family="Helvetica,sans-Serif" font-size="10.00">denoptim.graph.DGraph.replace</text>
<text text-anchor="middle" x="912.5" y="-61.5" font-family="Helvetica,sans-Serif" font-size="10.00">Vertex</text>
</a>
</g>
</g>
<!-- Node1&#45;&gt;Node34 -->
<g id="edge38" class="edge">
<title>Node1&#45;&gt;Node34</title>
<path fill="none" stroke="midnightblue" d="M1022.27,-96.01C1006.67,-92.21 990.31,-88.22 975.14,-84.53"/>
<polygon fill="midnightblue" stroke="midnightblue" points="1021.84,-99.51 1032.39,-98.48 1023.5,-92.71 1021.84,-99.51"/>
</g>
<!-- Node35 -->
<g id="node35" class="node">
<title>Node35</title>
<g id="a_node35"><a xlink:href="classdenoptim_1_1graph_1_1_vertex_test.html#a234abebcaf7e7b6e32bdc988b08828ec" target="_top" xlink:title=" ">
<polygon fill="white" stroke="black" points="837,-5.5 837,-35.5 988,-35.5 988,-5.5 837,-5.5"/>
<text text-anchor="start" x="845" y="-23.5" font-family="Helvetica,sans-Serif" font-size="10.00">denoptim.graph.VertexTest.test</text>
<text text-anchor="middle" x="912.5" y="-12.5" font-family="Helvetica,sans-Serif" font-size="10.00">GetMutationSites</text>
</a>
</g>
</g>
<!-- Node1&#45;&gt;Node35 -->
<g id="edge39" class="edge">
<title>Node1&#45;&gt;Node35</title>
<path fill="none" stroke="midnightblue" d="M1068.18,-92.01C1049,-76.95 1021.65,-57.29 995,-44.5 988.09,-41.18 980.62,-38.22 973.11,-35.61"/>
<polygon fill="midnightblue" stroke="midnightblue" points="1066.14,-94.86 1076.13,-98.36 1070.51,-89.39 1066.14,-94.86"/>
</g>
<!-- Node3 -->
<g id="node3" class="node">
<title>Node3</title>
<g id="a_node3"><a xlink:href="classdenoptim_1_1graph_1_1_d_graph_test.html#a0fd4c84840d3eb11b1838a627d9e6956" target="_top" xlink:title="Returns a graph with definition of symmetric vertexes and symmetric APs meant for testing purposes.">
<polygon fill="white" stroke="black" points="614.5,-1071.5 614.5,-1101.5 778.5,-1101.5 778.5,-1071.5 614.5,-1071.5"/>
<text text-anchor="start" x="622.5" y="-1089.5" font-family="Helvetica,sans-Serif" font-size="10.00">denoptim.graph.DGraphTest.make</text>
<text text-anchor="middle" x="696.5" y="-1078.5" font-family="Helvetica,sans-Serif" font-size="10.00">TestGraphM</text>
</a>
</g>
</g>
<!-- Node2&#45;&gt;Node3 -->
<g id="edge2" class="edge">
<title>Node2&#45;&gt;Node3</title>
<path fill="none" stroke="midnightblue" d="M896.3,-980.42C875.42,-1002.61 835.69,-1041.22 794,-1062.5 787.23,-1065.95 779.94,-1068.93 772.51,-1071.49"/>
<polygon fill="midnightblue" stroke="midnightblue" points="898.9,-982.77 903.11,-973.04 893.76,-978.02 898.9,-982.77"/>
</g>
<!-- Node5 -->
<g id="node5" class="node">
<title>Node5</title>
<g id="a_node5"><a xlink:href="classdenoptim_1_1graph_1_1_d_graph_test.html#ade544f5bf2f66ccb7a4f179e84b33c1c" target="_top" xlink:title="Returns a graph with peculiar definition of symmetric vertexes and symmetric APs meant for testing pu...">
<polygon fill="white" stroke="black" points="614.5,-1022.5 614.5,-1052.5 778.5,-1052.5 778.5,-1022.5 614.5,-1022.5"/>
<text text-anchor="start" x="622.5" y="-1040.5" font-family="Helvetica,sans-Serif" font-size="10.00">denoptim.graph.DGraphTest.make</text>
<text text-anchor="middle" x="696.5" y="-1029.5" font-family="Helvetica,sans-Serif" font-size="10.00">TestGraphN</text>
</a>
</g>
</g>
<!-- Node2&#45;&gt;Node5 -->
<g id="edge4" class="edge">
<title>Node2&#45;&gt;Node5</title>
<path fill="none" stroke="midnightblue" d="M882.44,-977.4C858.96,-988.25 824.86,-1003.17 794,-1013.5 784.34,-1016.73 774.01,-1019.75 763.83,-1022.48"/>
<polygon fill="midnightblue" stroke="midnightblue" points="883.92,-980.57 891.5,-973.17 880.96,-974.22 883.92,-980.57"/>
</g>
<!-- Node6 -->
<g id="node6" class="node">
<title>Node6</title>
<g id="a_node6"><a xlink:href="classdenoptim_1_1graph_1_1_vertex_test.html#ab36c441c57e9852e2be6d810d80fbc87" target="_top" xlink:title=" ">
<polygon fill="white" stroke="black" points="621,-875.5 621,-905.5 772,-905.5 772,-875.5 621,-875.5"/>
<text text-anchor="start" x="629" y="-893.5" font-family="Helvetica,sans-Serif" font-size="10.00">denoptim.graph.VertexTest.test</text>
<text text-anchor="middle" x="696.5" y="-882.5" font-family="Helvetica,sans-Serif" font-size="10.00">Clone</text>
</a>
</g>
</g>
<!-- Node2&#45;&gt;Node6 -->
<g id="edge5" class="edge">
<title>Node2&#45;&gt;Node6</title>
<path fill="none" stroke="midnightblue" d="M881.18,-949.8C857.7,-939.51 824.19,-925.53 794,-915.5 783.32,-911.95 771.85,-908.6 760.67,-905.56"/>
<polygon fill="midnightblue" stroke="midnightblue" points="880.03,-953.12 890.59,-953.96 882.86,-946.72 880.03,-953.12"/>
</g>
<!-- Node7 -->
<g id="node7" class="node">
<title>Node7</title>
<g id="a_node7"><a xlink:href="classdenoptim_1_1graph_1_1_attachment_point_test.html#a309f26b0bad9acff15e95672089c2432" target="_top" xlink:title=" ">
<polygon fill="white" stroke="black" points="629,-973.5 629,-1003.5 764,-1003.5 764,-973.5 629,-973.5"/>
<text text-anchor="start" x="637" y="-991.5" font-family="Helvetica,sans-Serif" font-size="10.00">denoptim.graph.Attachment</text>
<text text-anchor="middle" x="696.5" y="-980.5" font-family="Helvetica,sans-Serif" font-size="10.00">PointTest.testSameAs</text>
</a>
</g>
</g>
<!-- Node2&#45;&gt;Node7 -->
<g id="edge6" class="edge">
<title>Node2&#45;&gt;Node7</title>
<path fill="none" stroke="midnightblue" d="M819.96,-974.19C801.23,-976.38 781.85,-978.65 764.19,-980.71"/>
<polygon fill="midnightblue" stroke="midnightblue" points="820.46,-977.66 829.99,-973.02 819.65,-970.71 820.46,-977.66"/>
</g>
<!-- Node8 -->
<g id="node8" class="node">
<title>Node8</title>
<g id="a_node8"><a xlink:href="classdenoptim_1_1graph_1_1_attachment_point_test.html#af2fc2503c300637c2369eb4347c990c1" target="_top" xlink:title=" ">
<polygon fill="white" stroke="black" points="610,-924.5 610,-954.5 783,-954.5 783,-924.5 610,-924.5"/>
<text text-anchor="start" x="618" y="-942.5" font-family="Helvetica,sans-Serif" font-size="10.00">denoptim.graph.Attachment</text>
<text text-anchor="middle" x="696.5" y="-931.5" font-family="Helvetica,sans-Serif" font-size="10.00">PointTest.testSameAs_DiffAPClass</text>
</a>
</g>
</g>
<!-- Node2&#45;&gt;Node8 -->
<g id="edge7" class="edge">
<title>Node2&#45;&gt;Node8</title>
<path fill="none" stroke="midnightblue" d="M819.82,-953.22C807.62,-951.85 795.15,-950.45 783.06,-949.1"/>
<polygon fill="midnightblue" stroke="midnightblue" points="819.66,-956.72 829.99,-954.36 820.44,-949.77 819.66,-956.72"/>
</g>
<!-- Node4 -->
<g id="node4" class="node">
<title>Node4</title>
<g id="a_node4"><a xlink:href="classdenoptim_1_1graph_1_1_d_graph_test.html#a05b87ffb43b9710fcea83b0777654e27" target="_top" xlink:title=" ">
<polygon fill="white" stroke="black" points="390.5,-1071.5 390.5,-1101.5 546.5,-1101.5 546.5,-1071.5 390.5,-1071.5"/>
<text text-anchor="start" x="398.5" y="-1089.5" font-family="Helvetica,sans-Serif" font-size="10.00">denoptim.graph.DGraphTest.test</text>
<text text-anchor="middle" x="468.5" y="-1078.5" font-family="Helvetica,sans-Serif" font-size="10.00">DetectSymVertexSets</text>
</a>
</g>
</g>
<!-- Node3&#45;&gt;Node4 -->
<g id="edge3" class="edge">
<title>Node3&#45;&gt;Node4</title>
<path fill="none" stroke="midnightblue" d="M604.06,-1086.5C585.01,-1086.5 565.12,-1086.5 546.66,-1086.5"/>
<polygon fill="midnightblue" stroke="midnightblue" points="604.23,-1090 614.23,-1086.5 604.23,-1083 604.23,-1090"/>
</g>
<!-- Node9&#45;&gt;Node6 -->
<g id="edge22" class="edge">
<title>Node9&#45;&gt;Node6</title>
<path fill="none" stroke="midnightblue" d="M911.99,-491.64C912.41,-556.34 904.54,-760.87 794,-866.5 787.76,-872.46 780.28,-877.01 772.27,-880.47"/>
<polygon fill="midnightblue" stroke="midnightblue" points="915.48,-491.19 911.84,-481.24 908.48,-491.29 915.48,-491.19"/>
</g>
<!-- Node9&#45;&gt;Node9 -->
<g id="edge9" class="edge">
<title>Node9&#45;&gt;Node9</title>
<path fill="none" stroke="midnightblue" d="M946.61,-489.39C946.11,-495.04 934.74,-499.5 912.5,-499.5 880.15,-499.5 870.8,-490.07 884.45,-481.26"/>
<polygon fill="midnightblue" stroke="midnightblue" points="949.33,-487.19 940.55,-481.26 943.72,-491.37 949.33,-487.19"/>
</g>
<!-- Node10 -->
<g id="node10" class="node">
<title>Node10</title>
<g id="a_node10"><a xlink:href="classdenoptim_1_1fragmenter_1_1_fragmenter_tools.html#a38e4793ebca03b3cbda4f035580620b7" target="_top" xlink:title="Chops one chemical structure by applying the given fragmentation templates.">
<polygon fill="white" stroke="black" points="618,-826.5 618,-856.5 775,-856.5 775,-826.5 618,-826.5"/>
<text text-anchor="start" x="626" y="-844.5" font-family="Helvetica,sans-Serif" font-size="10.00">denoptim.fragmenter.Fragmenter</text>
<text text-anchor="middle" x="696.5" y="-833.5" font-family="Helvetica,sans-Serif" font-size="10.00">Tools.fragmentation</text>
</a>
</g>
</g>
<!-- Node9&#45;&gt;Node10 -->
<g id="edge10" class="edge">
<title>Node9&#45;&gt;Node10</title>
<path fill="none" stroke="midnightblue" d="M911.02,-491.47C908.45,-550.7 892.49,-726.92 794,-817.5 788.54,-822.53 782.18,-826.54 775.4,-829.74"/>
<polygon fill="midnightblue" stroke="midnightblue" points="914.52,-491.36 911.37,-481.24 907.53,-491.11 914.52,-491.36"/>
</g>
<!-- Node11 -->
<g id="node11" class="node">
<title>Node11</title>
<g id="a_node11"><a xlink:href="classdenoptim_1_1fragmenter_1_1_clusterable_fragment.html#a1e02c5f6054d5764ff597bd12337345a" target="_top" xlink:title=" ">
<polygon fill="white" stroke="black" points="618.5,-777.5 618.5,-807.5 774.5,-807.5 774.5,-777.5 618.5,-777.5"/>
<text text-anchor="start" x="626.5" y="-795.5" font-family="Helvetica,sans-Serif" font-size="10.00">denoptim.fragmenter.Clusterable</text>
<text text-anchor="middle" x="696.5" y="-784.5" font-family="Helvetica,sans-Serif" font-size="10.00">Fragment.getTransformedCopy</text>
</a>
</g>
</g>
<!-- Node9&#45;&gt;Node11 -->
<g id="edge11" class="edge">
<title>Node9&#45;&gt;Node11</title>
<path fill="none" stroke="midnightblue" d="M909.75,-491.44C903.96,-544.96 880.5,-692.8 794,-768.5 788.28,-773.5 781.68,-777.49 774.67,-780.68"/>
<polygon fill="midnightblue" stroke="midnightblue" points="913.26,-491.55 910.76,-481.25 906.29,-490.86 913.26,-491.55"/>
</g>
<!-- Node18 -->
<g id="node18" class="node">
<title>Node18</title>
<g id="a_node18"><a xlink:href="classdenoptim_1_1graph_1_1rings_1_1_ring_size_manager_test.html#ac3efa7ffa90ffbdb876e8489054b02af" target="_top" xlink:title="Build a graph meant to be used in unit tests.">
<polygon fill="white" stroke="black" points="611,-728.5 611,-758.5 782,-758.5 782,-728.5 611,-728.5"/>
<text text-anchor="start" x="619" y="-746.5" font-family="Helvetica,sans-Serif" font-size="10.00">denoptim.graph.rings.Ring</text>
<text text-anchor="middle" x="696.5" y="-735.5" font-family="Helvetica,sans-Serif" font-size="10.00">SizeManagerTest.makeTestGraphA</text>
</a>
</g>
</g>
<!-- Node9&#45;&gt;Node18 -->
<g id="edge19" class="edge">
<title>Node9&#45;&gt;Node18</title>
<path fill="none" stroke="midnightblue" d="M908.07,-491.26C898.81,-538.45 868.75,-658.3 794,-719.5 789.86,-722.89 785.31,-725.81 780.5,-728.33"/>
<polygon fill="midnightblue" stroke="midnightblue" points="911.56,-491.62 909.95,-481.15 904.68,-490.34 911.56,-491.62"/>
</g>
<!-- Node19 -->
<g id="node19" class="node">
<title>Node19</title>
<g id="a_node19"><a xlink:href="classdenoptim_1_1ga_1_1_graph_operations_test.html#af86b79061d15a4d2e3d7ccdf0d758f44" target="_top" xlink:title=" ">
<polygon fill="white" stroke="black" points="624,-679.5 624,-709.5 769,-709.5 769,-679.5 624,-679.5"/>
<text text-anchor="start" x="632" y="-697.5" font-family="Helvetica,sans-Serif" font-size="10.00">denoptim.ga.GraphOperations</text>
<text text-anchor="middle" x="696.5" y="-686.5" font-family="Helvetica,sans-Serif" font-size="10.00">Test.testAddRing</text>
</a>
</g>
</g>
<!-- Node9&#45;&gt;Node19 -->
<g id="edge20" class="edge">
<title>Node9&#45;&gt;Node19</title>
<path fill="none" stroke="midnightblue" d="M905.74,-490.85C892.77,-530.94 857.35,-623.27 794,-670.5 786.66,-675.97 778.23,-680.2 769.47,-683.48"/>
<polygon fill="midnightblue" stroke="midnightblue" points="909.11,-491.8 908.75,-481.21 902.43,-489.71 909.11,-491.8"/>
</g>
<!-- Node20 -->
<g id="node20" class="node">
<title>Node20</title>
<g id="a_node20"><a xlink:href="classdenoptim_1_1graph_1_1_fragment_test.html#a0a98792d99861bb6673e66a76ff49d31" target="_top" xlink:title=" ">
<polygon fill="white" stroke="black" points="614.5,-630.5 614.5,-660.5 778.5,-660.5 778.5,-630.5 614.5,-630.5"/>
<text text-anchor="start" x="622.5" y="-648.5" font-family="Helvetica,sans-Serif" font-size="10.00">denoptim.graph.FragmentTest.test</text>
<text text-anchor="middle" x="696.5" y="-637.5" font-family="Helvetica,sans-Serif" font-size="10.00">Clone</text>
</a>
</g>
</g>
<!-- Node9&#45;&gt;Node20 -->
<g id="edge21" class="edge">
<title>Node9&#45;&gt;Node20</title>
<path fill="none" stroke="midnightblue" d="M902.24,-490.17C885.34,-522.23 846.35,-587.57 794,-621.5 788.64,-624.97 782.81,-627.95 776.77,-630.49"/>
<polygon fill="midnightblue" stroke="midnightblue" points="905.49,-491.5 906.94,-481.01 899.26,-488.31 905.49,-491.5"/>
</g>
<!-- Node21 -->
<g id="node21" class="node">
<title>Node21</title>
<g id="a_node21"><a xlink:href="classdenoptim_1_1molecularmodeling_1_1_three_dim_tree_builder_test.html#a05bc0bc51bae9e72e7ca4c83e8528d55" target="_top" xlink:title=" ">
<polygon fill="white" stroke="black" points="599,-571 599,-612 794,-612 794,-571 599,-571"/>
<text text-anchor="start" x="607" y="-600" font-family="Helvetica,sans-Serif" font-size="10.00">denoptim.molecularmodeling.</text>
<text text-anchor="start" x="607" y="-589" font-family="Helvetica,sans-Serif" font-size="10.00">ThreeDimTreeBuilderTest.testConversion</text>
<text text-anchor="middle" x="696.5" y="-578" font-family="Helvetica,sans-Serif" font-size="10.00">To3dTreeWithDisconnectedGraphs</text>
</a>
</g>
</g>
<!-- Node9&#45;&gt;Node21 -->
<g id="edge23" class="edge">
<title>Node9&#45;&gt;Node21</title>
<path fill="none" stroke="midnightblue" d="M894.2,-487.95C872.4,-507.88 833.06,-541.29 794,-561.5 787.3,-564.97 780.13,-568.12 772.83,-570.96"/>
<polygon fill="midnightblue" stroke="midnightblue" points="896.71,-490.4 901.66,-481.03 891.95,-485.27 896.71,-490.4"/>
</g>
<!-- Node22 -->
<g id="node22" class="node">
<title>Node22</title>
<g id="a_node22"><a xlink:href="classdenoptim_1_1graph_1_1rings_1_1_path_closability_tools_test.html#af991094bf8c17599150d2e43ea582cf9" target="_top" xlink:title=" ">
<polygon fill="white" stroke="black" points="616,-511 616,-552 777,-552 777,-511 616,-511"/>
<text text-anchor="start" x="624" y="-540" font-family="Helvetica,sans-Serif" font-size="10.00">denoptim.graph.rings.Path</text>
<text text-anchor="start" x="624" y="-529" font-family="Helvetica,sans-Serif" font-size="10.00">ClosabilityToolsTest.testEvaluate</text>
<text text-anchor="middle" x="696.5" y="-518" font-family="Helvetica,sans-Serif" font-size="10.00">ConstitutionalClosability</text>
</a>
</g>
</g>
<!-- Node9&#45;&gt;Node22 -->
<g id="edge24" class="edge">
<title>Node9&#45;&gt;Node22</title>
<path fill="none" stroke="midnightblue" d="M867.74,-483.77C839.83,-491.59 802.97,-501.93 770.68,-510.98"/>
<polygon fill="midnightblue" stroke="midnightblue" points="868.91,-487.08 877.59,-481.01 867.02,-480.34 868.91,-487.08"/>
</g>
<!-- Node23 -->
<g id="node23" class="node">
<title>Node23</title>
<g id="a_node23"><a xlink:href="classdenoptim_1_1graph_1_1rings_1_1_random_comb_of_ring_iterator_test.html#a4a178f479d08c120f5fea6ef60feac8b" target="_top" xlink:title=" ">
<polygon fill="white" stroke="black" points="607,-451 607,-492 786,-492 786,-451 607,-451"/>
<text text-anchor="start" x="615" y="-480" font-family="Helvetica,sans-Serif" font-size="10.00">denoptim.graph.rings.Random</text>
<text text-anchor="start" x="615" y="-469" font-family="Helvetica,sans-Serif" font-size="10.00">CombOfRingIteratorTest.testEvaluate</text>
<text text-anchor="middle" x="696.5" y="-458" font-family="Helvetica,sans-Serif" font-size="10.00">ConstitutionalClosability</text>
</a>
</g>
</g>
<!-- Node9&#45;&gt;Node23 -->
<g id="edge25" class="edge">
<title>Node9&#45;&gt;Node23</title>
<path fill="none" stroke="midnightblue" d="M826.33,-471.5C813.08,-471.5 799.36,-471.5 786.04,-471.5"/>
<polygon fill="midnightblue" stroke="midnightblue" points="826.35,-475 836.35,-471.5 826.35,-468 826.35,-475"/>
</g>
<!-- Node24 -->
<g id="node24" class="node">
<title>Node24</title>
<g id="a_node24"><a xlink:href="classdenoptim_1_1graph_1_1rings_1_1_ring_size_manager_test.html#a55d1482a18edbaabf15b090392a282f3" target="_top" xlink:title=" ">
<polygon fill="white" stroke="black" points="603.5,-402.5 603.5,-432.5 789.5,-432.5 789.5,-402.5 603.5,-402.5"/>
<text text-anchor="start" x="611.5" y="-420.5" font-family="Helvetica,sans-Serif" font-size="10.00">denoptim.graph.rings.Ring</text>
<text text-anchor="middle" x="696.5" y="-409.5" font-family="Helvetica,sans-Serif" font-size="10.00">SizeManagerTest.testEvaluateRCVPair</text>
</a>
</g>
</g>
<!-- Node9&#45;&gt;Node24 -->
<g id="edge26" class="edge">
<title>Node9&#45;&gt;Node24</title>
<path fill="none" stroke="midnightblue" d="M864.61,-459.46C843.1,-453.95 817.26,-447.36 794,-441.5 782.45,-438.59 770.11,-435.5 758.26,-432.55"/>
<polygon fill="midnightblue" stroke="midnightblue" points="863.92,-462.89 874.47,-461.98 865.65,-456.11 863.92,-462.89"/>
</g>
<!-- Node25 -->
<g id="node25" class="node">
<title>Node25</title>
<g id="a_node25"><a xlink:href="classdenoptim_1_1ga_1_1_graph_operations_test.html#a2b8d6293663bce9a9da1d35efe31911b" target="_top" xlink:title=" ">
<polygon fill="white" stroke="black" points="624,-353.5 624,-383.5 769,-383.5 769,-353.5 624,-353.5"/>
<text text-anchor="start" x="632" y="-371.5" font-family="Helvetica,sans-Serif" font-size="10.00">denoptim.ga.GraphOperations</text>
<text text-anchor="middle" x="696.5" y="-360.5" font-family="Helvetica,sans-Serif" font-size="10.00">Test.testExtendGraph</text>
</a>
</g>
</g>
<!-- Node9&#45;&gt;Node25 -->
<g id="edge27" class="edge">
<title>Node9&#45;&gt;Node25</title>
<path fill="none" stroke="midnightblue" d="M891.89,-455.49C869.49,-437.93 831.11,-410.06 794,-393.5 785.47,-389.69 776.24,-386.38 766.99,-383.52"/>
<polygon fill="midnightblue" stroke="midnightblue" points="889.93,-458.4 899.93,-461.88 894.28,-452.92 889.93,-458.4"/>
</g>
<!-- Node26 -->
<g id="node26" class="node">
<title>Node26</title>
<g id="a_node26"><a xlink:href="classdenoptim_1_1fragmenter_1_1_conformer_extractor_task_test.html#a2dc64f375774087fc0b4511384f50bc9" target="_top" xlink:title=" ">
<polygon fill="white" stroke="black" points="599.5,-294 599.5,-335 793.5,-335 793.5,-294 599.5,-294"/>
<text text-anchor="start" x="607.5" y="-323" font-family="Helvetica,sans-Serif" font-size="10.00">denoptim.fragmenter.Conformer</text>
<text text-anchor="start" x="607.5" y="-312" font-family="Helvetica,sans-Serif" font-size="10.00">ExtractorTaskTest.testExtractClusterable</text>
<text text-anchor="middle" x="696.5" y="-301" font-family="Helvetica,sans-Serif" font-size="10.00">Fragments</text>
</a>
</g>
</g>
<!-- Node9&#45;&gt;Node26 -->
<g id="edge28" class="edge">
<title>Node9&#45;&gt;Node26</title>
<path fill="none" stroke="midnightblue" d="M899.47,-453.33C880.33,-425.83 840.36,-373.75 794,-344.5 788.51,-341.04 782.59,-337.95 776.48,-335.2"/>
<polygon fill="midnightblue" stroke="midnightblue" points="896.82,-455.66 905.34,-461.96 902.6,-451.72 896.82,-455.66"/>
</g>
<!-- Node27 -->
<g id="node27" class="node">
<title>Node27</title>
<g id="a_node27"><a xlink:href="classdenoptim_1_1fragmenter_1_1_fragment_alignement_test.html#ad46b9a4324bb5b9bbfc08c73de0e1124" target="_top" xlink:title=" ">
<polygon fill="white" stroke="black" points="602.5,-245.5 602.5,-275.5 790.5,-275.5 790.5,-245.5 602.5,-245.5"/>
<text text-anchor="start" x="610.5" y="-263.5" font-family="Helvetica,sans-Serif" font-size="10.00">denoptim.fragmenter.Fragment</text>
<text text-anchor="middle" x="696.5" y="-252.5" font-family="Helvetica,sans-Serif" font-size="10.00">AlignementTest.testGetMinimumRMSD</text>
</a>
</g>
</g>
<!-- Node9&#45;&gt;Node27 -->
<g id="edge29" class="edge">
<title>Node9&#45;&gt;Node27</title>
<path fill="none" stroke="midnightblue" d="M904.93,-452.04C890.95,-413.7 854.49,-328.3 794,-284.5 789.25,-281.06 784.05,-278.11 778.62,-275.58"/>
<polygon fill="midnightblue" stroke="midnightblue" points="901.79,-453.67 908.42,-461.94 908.39,-451.34 901.79,-453.67"/>
</g>
<!-- Node28 -->
<g id="node28" class="node">
<title>Node28</title>
<g id="a_node28"><a xlink:href="classdenoptim_1_1graph_1_1_attachment_point_test.html#af88d30ce68477984fe6179325d1540b2" target="_top" xlink:title=" ">
<polygon fill="white" stroke="black" points="606.5,-98.5 606.5,-128.5 786.5,-128.5 786.5,-98.5 606.5,-98.5"/>
<text text-anchor="start" x="614.5" y="-116.5" font-family="Helvetica,sans-Serif" font-size="10.00">denoptim.graph.Attachment</text>
<text text-anchor="middle" x="696.5" y="-105.5" font-family="Helvetica,sans-Serif" font-size="10.00">PointTest.testHasConnectedSrcAtom</text>
</a>
</g>
</g>
<!-- Node9&#45;&gt;Node28 -->
<g id="edge30" class="edge">
<title>Node9&#45;&gt;Node28</title>
<path fill="none" stroke="midnightblue" d="M910.67,-451.57C907.16,-393.91 888.87,-225.56 794,-138.5 789.79,-134.64 785.07,-131.36 780.02,-128.57"/>
<polygon fill="midnightblue" stroke="midnightblue" points="907.19,-452.04 911.21,-461.84 914.18,-451.67 907.19,-452.04"/>
</g>
<!-- Node29 -->
<g id="node29" class="node">
<title>Node29</title>
<g id="a_node29"><a xlink:href="classdenoptim_1_1graph_1_1_attachment_point_test.html#a4889032266eb87d0f91af8b4e9869360" target="_top" xlink:title=" ">
<polygon fill="white" stroke="black" points="617,-196.5 617,-226.5 776,-226.5 776,-196.5 617,-196.5"/>
<text text-anchor="start" x="625" y="-214.5" font-family="Helvetica,sans-Serif" font-size="10.00">denoptim.graph.Attachment</text>
<text text-anchor="middle" x="696.5" y="-203.5" font-family="Helvetica,sans-Serif" font-size="10.00">PointTest.testHasSameSrcAtom</text>
</a>
</g>
</g>
<!-- Node9&#45;&gt;Node29 -->
<g id="edge31" class="edge">
<title>Node9&#45;&gt;Node29</title>
<path fill="none" stroke="midnightblue" d="M907.42,-451.58C897.05,-406.12 865.26,-294.16 794,-236.5 788.62,-232.15 782.56,-228.54 776.17,-225.56"/>
<polygon fill="midnightblue" stroke="midnightblue" points="904.07,-452.61 909.61,-461.64 910.91,-451.12 904.07,-452.61"/>
</g>
<!-- Node30 -->
<g id="node30" class="node">
<title>Node30</title>
<g id="a_node30"><a xlink:href="classdenoptim_1_1graph_1_1_fragment_isomorphism_inspector_test.html#ac33b26784f254c873593368ccd717125" target="_top" xlink:title=" ">
<polygon fill="white" stroke="black" points="605.5,-147.5 605.5,-177.5 787.5,-177.5 787.5,-147.5 605.5,-147.5"/>
<text text-anchor="start" x="613.5" y="-165.5" font-family="Helvetica,sans-Serif" font-size="10.00">denoptim.graph.FragmentIsomorphism</text>
<text text-anchor="middle" x="696.5" y="-154.5" font-family="Helvetica,sans-Serif" font-size="10.00">InspectorTest.testIsomorphismExists</text>
</a>
</g>
</g>
<!-- Node9&#45;&gt;Node30 -->
<g id="edge32" class="edge">
<title>Node9&#45;&gt;Node30</title>
<path fill="none" stroke="midnightblue" d="M909.33,-451.78C902.57,-400.11 877.08,-259.78 794,-187.5 789.56,-183.64 784.6,-180.36 779.33,-177.58"/>
<polygon fill="midnightblue" stroke="midnightblue" points="905.88,-452.41 910.56,-461.92 912.83,-451.57 905.88,-452.41"/>
</g>
<!-- Node12 -->
<g id="node12" class="node">
<title>Node12</title>
<g id="a_node12"><a xlink:href="classdenoptim_1_1fragmenter_1_1_fragment_clusterer.html#a1845241fead0bee7fd92feaf6d71e331" target="_top" xlink:title="Once the clustering is done, this method return the list of cluster centroids.">
<polygon fill="white" stroke="black" points="394,-777.5 394,-807.5 543,-807.5 543,-777.5 394,-777.5"/>
<text text-anchor="start" x="402" y="-795.5" font-family="Helvetica,sans-Serif" font-size="10.00">denoptim.fragmenter.Fragment</text>
<text text-anchor="middle" x="468.5" y="-784.5" font-family="Helvetica,sans-Serif" font-size="10.00">Clusterer.getClusterCentroids</text>
</a>
</g>
</g>
<!-- Node11&#45;&gt;Node12 -->
<g id="edge12" class="edge">
<title>Node11&#45;&gt;Node12</title>
<path fill="none" stroke="midnightblue" d="M608.27,-792.5C586.79,-792.5 564.01,-792.5 543.24,-792.5"/>
<polygon fill="midnightblue" stroke="midnightblue" points="608.36,-796 618.36,-792.5 608.36,-789 608.36,-796"/>
</g>
<!-- Node16 -->
<g id="node16" class="node">
<title>Node16</title>
<g id="a_node16"><a xlink:href="classdenoptim_1_1fragmenter_1_1_fragment_clusterer.html#aae37739ae959ab8a85bf01286c5a518e" target="_top" xlink:title="Once the clustering is done, this method return the list of fragments that are nearest to the respect...">
<polygon fill="white" stroke="black" points="374,-826.5 374,-856.5 563,-856.5 563,-826.5 374,-826.5"/>
<text text-anchor="start" x="382" y="-844.5" font-family="Helvetica,sans-Serif" font-size="10.00">denoptim.fragmenter.Fragment</text>
<text text-anchor="middle" x="468.5" y="-833.5" font-family="Helvetica,sans-Serif" font-size="10.00">Clusterer.getNearestToClusterCentroids</text>
</a>
</g>
</g>
<!-- Node11&#45;&gt;Node16 -->
<g id="edge16" class="edge">
<title>Node11&#45;&gt;Node16</title>
<path fill="none" stroke="midnightblue" d="M616.24,-809.69C590.96,-815.16 563.21,-821.18 538.71,-826.49"/>
<polygon fill="midnightblue" stroke="midnightblue" points="617.13,-813.07 626.16,-807.53 615.64,-806.23 617.13,-813.07"/>
</g>
<!-- Node17 -->
<g id="node17" class="node">
<title>Node17</title>
<g id="a_node17"><a xlink:href="classdenoptim_1_1fragmenter_1_1_clusterable_fragment_test.html#a30be40702849bf4781129bf3dabf88e8" target="_top" xlink:title=" ">
<polygon fill="white" stroke="black" points="374.5,-728.5 374.5,-758.5 562.5,-758.5 562.5,-728.5 374.5,-728.5"/>
<text text-anchor="start" x="382.5" y="-746.5" font-family="Helvetica,sans-Serif" font-size="10.00">denoptim.fragmenter.Clusterable</text>
<text text-anchor="middle" x="468.5" y="-735.5" font-family="Helvetica,sans-Serif" font-size="10.00">FragmentTest.testGetTransformedCopy</text>
</a>
</g>
</g>
<!-- Node11&#45;&gt;Node17 -->
<g id="edge18" class="edge">
<title>Node11&#45;&gt;Node17</title>
<path fill="none" stroke="midnightblue" d="M616.24,-775.31C590.96,-769.84 563.21,-763.82 538.71,-758.51"/>
<polygon fill="midnightblue" stroke="midnightblue" points="615.64,-778.77 626.16,-777.47 617.13,-771.93 615.64,-778.77"/>
</g>
<!-- Node13 -->
<g id="node13" class="node">
<title>Node13</title>
<g id="a_node13"><a xlink:href="classdenoptim_1_1fragmenter_1_1_conformer_extractor_task.html#aa21ebdf147f5bdb2685f9e775efd0b10" target="_top" xlink:title=" ">
<polygon fill="white" stroke="black" points="186,-826.5 186,-856.5 338,-856.5 338,-826.5 186,-826.5"/>
<text text-anchor="start" x="194" y="-844.5" font-family="Helvetica,sans-Serif" font-size="10.00">denoptim.fragmenter.Conformer</text>
<text text-anchor="middle" x="262" y="-833.5" font-family="Helvetica,sans-Serif" font-size="10.00">ExtractorTask.call</text>
</a>
</g>
</g>
<!-- Node12&#45;&gt;Node13 -->
<g id="edge13" class="edge">
<title>Node12&#45;&gt;Node13</title>
<path fill="none" stroke="midnightblue" d="M394.87,-809.9C372.24,-815.32 347.5,-821.25 325.63,-826.49"/>
<polygon fill="midnightblue" stroke="midnightblue" points="395.84,-813.27 404.75,-807.53 394.21,-806.46 395.84,-813.27"/>
</g>
<!-- Node15 -->
<g id="node15" class="node">
<title>Node15</title>
<g id="a_node15"><a xlink:href="classdenoptim_1_1fragmenter_1_1_fragment_clusterer_test.html#aa17925160f3f03080e8680c7016fc1c4" target="_top" xlink:title=" ">
<polygon fill="white" stroke="black" points="187.5,-777.5 187.5,-807.5 336.5,-807.5 336.5,-777.5 187.5,-777.5"/>
<text text-anchor="start" x="195.5" y="-795.5" font-family="Helvetica,sans-Serif" font-size="10.00">denoptim.fragmenter.Fragment</text>
<text text-anchor="middle" x="262" y="-784.5" font-family="Helvetica,sans-Serif" font-size="10.00">ClustererTest.testCluster</text>
</a>
</g>
</g>
<!-- Node12&#45;&gt;Node15 -->
<g id="edge15" class="edge">
<title>Node12&#45;&gt;Node15</title>
<path fill="none" stroke="midnightblue" d="M383.78,-792.5C368.13,-792.5 351.89,-792.5 336.57,-792.5"/>
<polygon fill="midnightblue" stroke="midnightblue" points="383.96,-796 393.96,-792.5 383.96,-789 383.96,-796"/>
</g>
<!-- Node14 -->
<g id="node14" class="node">
<title>Node14</title>
<g id="a_node14"><a xlink:href="classdenoptim_1_1programs_1_1fragmenter_1_1_fragmenter.html#aa27df9705e3aed34cc8cb8bc05e6ce85" target="_top" xlink:title=" ">
<polygon fill="white" stroke="black" points="0,-826.5 0,-856.5 150,-856.5 150,-826.5 0,-826.5"/>
<text text-anchor="start" x="8" y="-844.5" font-family="Helvetica,sans-Serif" font-size="10.00">denoptim.programs.fragmenter.</text>
<text text-anchor="middle" x="75" y="-833.5" font-family="Helvetica,sans-Serif" font-size="10.00">Fragmenter.runProgram</text>
</a>
</g>
</g>
<!-- Node13&#45;&gt;Node14 -->
<g id="edge14" class="edge">
<title>Node13&#45;&gt;Node14</title>
<path fill="none" stroke="midnightblue" d="M175.53,-841.5C167.1,-841.5 158.59,-841.5 150.28,-841.5"/>
<polygon fill="midnightblue" stroke="midnightblue" points="175.75,-845 185.75,-841.5 175.75,-838 175.75,-845"/>
</g>
<!-- Node16&#45;&gt;Node13 -->
<g id="edge17" class="edge">
<title>Node16&#45;&gt;Node13</title>
<path fill="none" stroke="midnightblue" d="M363.79,-841.5C355.14,-841.5 346.51,-841.5 338.14,-841.5"/>
<polygon fill="midnightblue" stroke="midnightblue" points="363.93,-845 373.93,-841.5 363.93,-838 363.93,-845"/>
</g>
<!-- Node31&#45;&gt;Node28 -->
<g id="edge36" class="edge">
<title>Node31&#45;&gt;Node28</title>
<path fill="none" stroke="midnightblue" d="M826.6,-113.5C813.54,-113.5 800.02,-113.5 786.87,-113.5"/>
<polygon fill="midnightblue" stroke="midnightblue" points="826.95,-117 836.95,-113.5 826.95,-110 826.95,-117"/>
</g>
<!-- Node31&#45;&gt;Node31 -->
<g id="edge34" class="edge">
<title>Node31&#45;&gt;Node31</title>
<path fill="none" stroke="midnightblue" d="M946.61,-131.39C946.11,-137.04 934.74,-141.5 912.5,-141.5 880.15,-141.5 870.8,-132.07 884.45,-123.26"/>
<polygon fill="midnightblue" stroke="midnightblue" points="949.33,-129.19 940.55,-123.26 943.72,-133.37 949.33,-129.19"/>
</g>
<!-- Node32 -->
<g id="node32" class="node">
<title>Node32</title>
<g id="a_node32"><a xlink:href="classdenoptim_1_1graph_1_1_template_test.html#a72d37b4c24ad896838401b319b1d667e" target="_top" xlink:title=" ">
<polygon fill="white" stroke="black" points="614.5,-49.5 614.5,-79.5 778.5,-79.5 778.5,-49.5 614.5,-49.5"/>
<text text-anchor="start" x="622.5" y="-67.5" font-family="Helvetica,sans-Serif" font-size="10.00">denoptim.graph.TemplateTest.test</text>
<text text-anchor="middle" x="696.5" y="-56.5" font-family="Helvetica,sans-Serif" font-size="10.00">Clone</text>
</a>
</g>
</g>
<!-- Node31&#45;&gt;Node32 -->
<g id="edge35" class="edge">
<title>Node31&#45;&gt;Node32</title>
<path fill="none" stroke="midnightblue" d="M860.05,-101.72C831.02,-95.07 794.43,-86.69 763.32,-79.57"/>
<polygon fill="midnightblue" stroke="midnightblue" points="859.46,-105.17 869.98,-103.99 861.02,-98.35 859.46,-105.17"/>
</g>
<!-- Node33 -->
<g id="node33" class="node">
<title>Node33</title>
<g id="a_node33"><a xlink:href="classdenoptim_1_1graph_1_1_template_test.html#a50688358b5a557ee51683082427bdc14" target="_top" xlink:title=" ">
<polygon fill="white" stroke="black" points="614.5,-0.5 614.5,-30.5 778.5,-30.5 778.5,-0.5 614.5,-0.5"/>
<text text-anchor="start" x="622.5" y="-18.5" font-family="Helvetica,sans-Serif" font-size="10.00">denoptim.graph.TemplateTest.test</text>
<text text-anchor="middle" x="696.5" y="-7.5" font-family="Helvetica,sans-Serif" font-size="10.00">NestedTemplateCloning</text>
</a>
</g>
</g>
<!-- Node31&#45;&gt;Node33 -->
<g id="edge37" class="edge">
<title>Node31&#45;&gt;Node33</title>
<path fill="none" stroke="midnightblue" d="M838.66,-99.69C835.64,-98.14 832.74,-96.41 830,-94.5 806.06,-77.76 817.82,-56.42 794,-39.5 789.21,-36.1 784,-33.18 778.55,-30.68"/>
<polygon fill="midnightblue" stroke="midnightblue" points="837.45,-102.98 848.01,-103.85 840.29,-96.59 837.45,-102.98"/>
</g>
</g>
</svg>
        <g id="navigator" transform="translate(0 0)" fill="#404254">
                <rect fill="#f2f5e9" fill-opacity="0.5" stroke="#606060" stroke-width=".5" x="0" y="0" width="60" height="60"/>
                <use id="zoomplus" xlink:href="#zoomPlus" x="17" y="9" onmousedown="handleZoom(evt,'in')"/>
                <use id="zoomminus" xlink:href="#zoomMin" x="42" y="9" onmousedown="handleZoom(evt,'out')"/>
                <use id="reset" xlink:href="#resetDef" x="30" y="36" onmousedown="handleReset()"/>
                <g id="arrowUp" xlink:href="#dirArrow" transform="translate(30 24)" onmousedown="handlePan(0,-1)">
                  <use xlink:href="#rim" fill="#404040">
                        <set attributeName="fill" to="#808080" begin="arrowUp.mouseover" end="arrowUp.mouseout"/>
                  </use>
                  <path fill="none" stroke="white" stroke-width="1.5" d="M0,-3.0v7 M-2.5,-0.5L0,-3.0L2.5,-0.5"/>
                </g>
                <g id="arrowRight" xlink:href="#dirArrow" transform="rotate(90) translate(36 -43)" onmousedown="handlePan(1,0)">
                  <use xlink:href="#rim" fill="#404040">
                        <set attributeName="fill" to="#808080" begin="arrowRight.mouseover" end="arrowRight.mouseout"/>
                  </use>
                  <path fill="none" stroke="white" stroke-width="1.5" d="M0,-3.0v7 M-2.5,-0.5L0,-3.0L2.5,-0.5"/>
                </g>
                <g id="arrowDown" xlink:href="#dirArrow" transform="rotate(180) translate(-30 -48)" onmousedown="handlePan(0,1)">
                  <use xlink:href="#rim" fill="#404040">
                        <set attributeName="fill" to="#808080" begin="arrowDown.mouseover" end="arrowDown.mouseout"/>
                  </use>
                  <path fill="none" stroke="white" stroke-width="1.5" d="M0,-3.0v7 M-2.5,-0.5L0,-3.0L2.5,-0.5"/>
                </g>
                <g id="arrowLeft" xlink:href="#dirArrow" transform="rotate(270) translate(-36 17)" onmousedown="handlePan(-1,0)">
                  <use xlink:href="#rim" fill="#404040">
                        <set attributeName="fill" to="#808080" begin="arrowLeft.mouseover" end="arrowLeft.mouseout"/>
                  </use>
                  <path fill="none" stroke="white" stroke-width="1.5" d="M0,-3.0v7 M-2.5,-0.5L0,-3.0L2.5,-0.5"/>
                </g>
        </g>
        <svg viewBox="0 0 15 15" width="100%" height="30px" preserveAspectRatio="xMaxYMin meet">
         <g id="arrow_out" transform="scale(0.3 0.3)">
          <a xlink:href="classdenoptim_1_1graph_1_1_vertex_a0e1114b16856fd16a2de9cface2ea806_icgraph_org.svg" target="_base">
           <rect id="button" ry="5" rx="5" y="6" x="6" height="38" width="38"
                fill="#f2f5e9" fill-opacity="0.5" stroke="#606060" stroke-width="1.0"/>
           <path id="arrow"
             d="M 11.500037,31.436501 C 11.940474,20.09759 22.043105,11.32322 32.158766,21.979434 L 37.068811,17.246167 C 37.068811,17.246167 37.088388,32 37.088388,32 L 22.160133,31.978069 C 22.160133,31.978069 26.997745,27.140456 26.997745,27.140456 C 18.528582,18.264221 13.291696,25.230495 11.500037,31.436501 z"
             style="fill:#404040;"/>
          </a>
         </g>
        </svg>
</svg>
