<?xml version="1.0" encoding="UTF-8" standalone="no"?>
<!DOCTYPE svg PUBLIC "-//W3C//DTD SVG 1.1//EN"
 "http://www.w3.org/Graphics/SVG/1.1/DTD/svg11.dtd">
<!-- Generated by graphviz version 3.0.0 (20221109.1736)
 -->
<!-- Title: denoptim.ga.SelectionHelper.performSUS Pages: 1 -->
<svg width="1269pt" height="172pt"
 viewBox="0.00 0.00 1269.00 172.00" xmlns="http://www.w3.org/2000/svg" xmlns:xlink="http://www.w3.org/1999/xlink">
<g id="graph0" class="graph" transform="scale(1 1) rotate(0) translate(4 168)">
<title>denoptim.ga.SelectionHelper.performSUS</title>
<polygon fill="white" stroke="transparent" points="-4,4 -4,-168 1265,-168 1265,4 -4,4"/>
<!-- Node1 -->
<g id="node1" class="node">
<title>Node1</title>
<g id="a_node1"><a xlink:title="Stochastic Uniform Sampling Note: this implementation is based on the WATCHMAKER framework http://wat...">
<polygon fill="#bfbfbf" stroke="black" points="1064,-30 1064,-49 1261,-49 1261,-30 1064,-30"/>
<text text-anchor="middle" x="1162.5" y="-37" font-family="Helvetica,sans-Serif" font-size="10.00">denoptim.ga.SelectionHelper.performSUS</text>
</a>
</g>
</g>
<!-- Node2 -->
<g id="node2" class="node">
<title>Node2</title>
<g id="a_node2"><a xlink:href="classdenoptim_1_1ga_1_1_e_a_utils.html#a17505cbf52d9203a1af793f07bcf27f9" target="_top" xlink:title="Selects a number of members from the given population.">
<polygon fill="white" stroke="black" points="891.5,-49.5 891.5,-79.5 1024.5,-79.5 1024.5,-49.5 891.5,-49.5"/>
<text text-anchor="start" x="899.5" y="-67.5" font-family="Helvetica,sans-Serif" font-size="10.00">denoptim.ga.EAUtils.select</text>
<text text-anchor="middle" x="958" y="-56.5" font-family="Helvetica,sans-Serif" font-size="10.00">BasedOnFitness</text>
</a>
</g>
</g>
<!-- Node1&#45;&gt;Node2 -->
<g id="edge1" class="edge">
<title>Node1&#45;&gt;Node2</title>
<path fill="none" stroke="midnightblue" d="M1074.12,-50.29C1057.55,-52.33 1040.46,-54.44 1024.69,-56.39"/>
<polygon fill="midnightblue" stroke="midnightblue" points="1074.87,-53.72 1084.37,-49.02 1074.01,-46.77 1074.87,-53.72"/>
</g>
<!-- Node12 -->
<g id="node12" class="node">
<title>Node12</title>
<g id="a_node12"><a xlink:href="classdenoptim_1_1ga_1_1_seelction_helper_test.html#aafd5d3124aa2d4a523894cd96bdd9240" target="_top" xlink:title=" ">
<polygon fill="white" stroke="black" points="888,-0.5 888,-30.5 1028,-30.5 1028,-0.5 888,-0.5"/>
<text text-anchor="start" x="896" y="-18.5" font-family="Helvetica,sans-Serif" font-size="10.00">denoptim.ga.SeelctionHelper</text>
<text text-anchor="middle" x="958" y="-7.5" font-family="Helvetica,sans-Serif" font-size="10.00">Test.testPerformSUS</text>
</a>
</g>
</g>
<!-- Node1&#45;&gt;Node12 -->
<g id="edge13" class="edge">
<title>Node1&#45;&gt;Node12</title>
<path fill="none" stroke="midnightblue" d="M1071.22,-28.8C1056.75,-27.09 1041.98,-25.33 1028.11,-23.69"/>
<polygon fill="midnightblue" stroke="midnightblue" points="1070.83,-32.28 1081.18,-29.98 1071.66,-25.33 1070.83,-32.28"/>
</g>
<!-- Node3 -->
<g id="node3" class="node">
<title>Node3</title>
<g id="a_node3"><a xlink:href="classdenoptim_1_1ga_1_1_e_a_utils.html#a8122818f58919fce84dce75e7506025a" target="_top" xlink:title=" ">
<polygon fill="white" stroke="black" points="705.5,-93.5 705.5,-123.5 832.5,-123.5 832.5,-93.5 705.5,-93.5"/>
<text text-anchor="start" x="713.5" y="-111.5" font-family="Helvetica,sans-Serif" font-size="10.00">denoptim.ga.EAUtils.build</text>
<text text-anchor="middle" x="769" y="-100.5" font-family="Helvetica,sans-Serif" font-size="10.00">CandidateByMutation</text>
</a>
</g>
</g>
<!-- Node2&#45;&gt;Node3 -->
<g id="edge2" class="edge">
<title>Node2&#45;&gt;Node3</title>
<path fill="none" stroke="midnightblue" d="M883.4,-81.82C866.59,-85.77 848.89,-89.94 832.59,-93.77"/>
<polygon fill="midnightblue" stroke="midnightblue" points="884.24,-85.22 893.17,-79.52 882.63,-78.4 884.24,-85.22"/>
</g>
<!-- Node10 -->
<g id="node10" class="node">
<title>Node10</title>
<g id="a_node10"><a xlink:href="classdenoptim_1_1ga_1_1_e_a_utils.html#a0b958439d79fae30f14530213ad22e3a" target="_top" xlink:title="Generates up to a pair of new offspring by performing a crossover operation.">
<polygon fill="white" stroke="black" points="521.5,-27.5 521.5,-57.5 648.5,-57.5 648.5,-27.5 521.5,-27.5"/>
<text text-anchor="start" x="529.5" y="-45.5" font-family="Helvetica,sans-Serif" font-size="10.00">denoptim.ga.EAUtils.build</text>
<text text-anchor="middle" x="585" y="-34.5" font-family="Helvetica,sans-Serif" font-size="10.00">CandidatesByXOver</text>
</a>
</g>
</g>
<!-- Node2&#45;&gt;Node10 -->
<g id="edge10" class="edge">
<title>Node2&#45;&gt;Node10</title>
<path fill="none" stroke="midnightblue" d="M880.79,-59.98C812.17,-55.91 712.54,-50 648.51,-46.21"/>
<polygon fill="midnightblue" stroke="midnightblue" points="880.91,-63.49 891.1,-60.59 881.32,-56.51 880.91,-63.49"/>
</g>
<!-- Node11 -->
<g id="node11" class="node">
<title>Node11</title>
<g id="a_node11"><a xlink:href="classdenoptim_1_1ga_1_1_e_a_utils.html#a45d4e9ec6a308aa73891efa1d501dd5e" target="_top" xlink:title="Perform fitness&#45;based, class&#45;compatible selection of parents that can do crossover operations.">
<polygon fill="white" stroke="black" points="686,-17 686,-36 852,-36 852,-17 686,-17"/>
<text text-anchor="middle" x="769" y="-24" font-family="Helvetica,sans-Serif" font-size="10.00">denoptim.ga.EAUtils.performFBCC</text>
</a>
</g>
</g>
<!-- Node2&#45;&gt;Node11 -->
<g id="edge11" class="edge">
<title>Node2&#45;&gt;Node11</title>
<path fill="none" stroke="midnightblue" d="M881.43,-49.14C859.64,-44.72 836.49,-40.01 816.98,-36.05"/>
<polygon fill="midnightblue" stroke="midnightblue" points="880.84,-52.59 891.33,-51.16 882.23,-45.73 880.84,-52.59"/>
</g>
<!-- Node4 -->
<g id="node4" class="node">
<title>Node4</title>
<g id="a_node4"><a xlink:href="classdenoptim_1_1ga_1_1_evolutionary_algorithm.html#a0c2e353b243250b4959a3f86608f1020" target="_top" xlink:title="Generates one offspring according to the method where crossover and mutation are decoupled,...">
<polygon fill="white" stroke="black" points="520,-133.5 520,-163.5 650,-163.5 650,-133.5 520,-133.5"/>
<text text-anchor="start" x="528" y="-151.5" font-family="Helvetica,sans-Serif" font-size="10.00">denoptim.ga.Evolutionary</text>
<text text-anchor="middle" x="585" y="-140.5" font-family="Helvetica,sans-Serif" font-size="10.00">Algorithm.makeOffspringA</text>
</a>
</g>
</g>
<!-- Node3&#45;&gt;Node4 -->
<g id="edge3" class="edge">
<title>Node3&#45;&gt;Node4</title>
<path fill="none" stroke="midnightblue" d="M695.21,-124.5C680.36,-127.76 664.83,-131.18 650.3,-134.37"/>
<polygon fill="midnightblue" stroke="midnightblue" points="696.35,-127.83 705.37,-122.27 694.85,-120.99 696.35,-127.83"/>
</g>
<!-- Node9 -->
<g id="node9" class="node">
<title>Node9</title>
<g id="a_node9"><a xlink:href="classdenoptim_1_1ga_1_1_evolutionary_algorithm.html#ae7a90a911b109ed47b3acf54193acc35" target="_top" xlink:title="Generates one offspring according to the method where crossover and mutation are coupled,...">
<polygon fill="white" stroke="black" points="520,-84.5 520,-114.5 650,-114.5 650,-84.5 520,-84.5"/>
<text text-anchor="start" x="528" y="-102.5" font-family="Helvetica,sans-Serif" font-size="10.00">denoptim.ga.Evolutionary</text>
<text text-anchor="middle" x="585" y="-91.5" font-family="Helvetica,sans-Serif" font-size="10.00">Algorithm.makeOffspringB</text>
</a>
</g>
</g>
<!-- Node3&#45;&gt;Node9 -->
<g id="edge8" class="edge">
<title>Node3&#45;&gt;Node9</title>
<path fill="none" stroke="midnightblue" d="M695.21,-104.9C680.36,-104.17 664.83,-103.4 650.3,-102.68"/>
<polygon fill="midnightblue" stroke="midnightblue" points="695.21,-108.4 705.37,-105.4 695.55,-101.41 695.21,-108.4"/>
</g>
<!-- Node5 -->
<g id="node5" class="node">
<title>Node5</title>
<g id="a_node5"><a xlink:href="classdenoptim_1_1ga_1_1_evolutionary_algorithm.html#a596b2f5f0b097c5b67a6e5163bd6fe66" target="_top" xlink:title="Generates a given number of new candidate items and adds them to the current population.">
<polygon fill="white" stroke="black" points="350,-108.5 350,-138.5 484,-138.5 484,-108.5 350,-108.5"/>
<text text-anchor="start" x="358" y="-126.5" font-family="Helvetica,sans-Serif" font-size="10.00">denoptim.ga.Evolutionary</text>
<text text-anchor="middle" x="417" y="-115.5" font-family="Helvetica,sans-Serif" font-size="10.00">Algorithm.evolvePopulation</text>
</a>
</g>
</g>
<!-- Node4&#45;&gt;Node5 -->
<g id="edge4" class="edge">
<title>Node4&#45;&gt;Node5</title>
<path fill="none" stroke="midnightblue" d="M509.86,-137.33C501.31,-136.05 492.64,-134.74 484.2,-133.47"/>
<polygon fill="midnightblue" stroke="midnightblue" points="509.41,-140.81 519.82,-138.83 510.45,-133.88 509.41,-140.81"/>
</g>
<!-- Node6 -->
<g id="node6" class="node">
<title>Node6</title>
<g id="a_node6"><a xlink:href="classdenoptim_1_1ga_1_1_evolutionary_algorithm.html#a6bfc2fa59b199da6259b5b6bad3d6de7" target="_top" xlink:title=" ">
<polygon fill="white" stroke="black" points="190,-108.5 190,-138.5 314,-138.5 314,-108.5 190,-108.5"/>
<text text-anchor="start" x="198" y="-126.5" font-family="Helvetica,sans-Serif" font-size="10.00">denoptim.ga.Evolutionary</text>
<text text-anchor="middle" x="252" y="-115.5" font-family="Helvetica,sans-Serif" font-size="10.00">Algorithm.run</text>
</a>
</g>
</g>
<!-- Node5&#45;&gt;Node6 -->
<g id="edge5" class="edge">
<title>Node5&#45;&gt;Node6</title>
<path fill="none" stroke="midnightblue" d="M339.45,-123.5C331,-123.5 322.48,-123.5 314.25,-123.5"/>
<polygon fill="midnightblue" stroke="midnightblue" points="339.7,-127 349.7,-123.5 339.7,-120 339.7,-127"/>
</g>
<!-- Node7 -->
<g id="node7" class="node">
<title>Node7</title>
<g id="a_node7"><a xlink:href="classdenoptim_1_1ga_1_1_evolutionary_algorithm.html#a0f2063b722b7291daf83d62acaa683d3" target="_top" xlink:title=" ">
<polygon fill="white" stroke="black" points="0,-133.5 0,-163.5 154,-163.5 154,-133.5 0,-133.5"/>
<text text-anchor="start" x="8" y="-151.5" font-family="Helvetica,sans-Serif" font-size="10.00">denoptim.ga.Evolutionary</text>
<text text-anchor="middle" x="77" y="-140.5" font-family="Helvetica,sans-Serif" font-size="10.00">Algorithm.EvolutionaryAlgorithm</text>
</a>
</g>
</g>
<!-- Node6&#45;&gt;Node7 -->
<g id="edge6" class="edge">
<title>Node6&#45;&gt;Node7</title>
<path fill="none" stroke="midnightblue" d="M179.44,-133.84C171.09,-135.05 162.54,-136.28 154.12,-137.5"/>
<polygon fill="midnightblue" stroke="midnightblue" points="180.12,-137.28 189.52,-132.38 179.12,-130.35 180.12,-137.28"/>
</g>
<!-- Node8 -->
<g id="node8" class="node">
<title>Node8</title>
<g id="a_node8"><a xlink:href="classdenoptim_1_1programs_1_1denovo_1_1_g_a_runner.html#a7cafd6d78727b89dce3e2c8d06f0dd7c" target="_top" xlink:title=" ">
<polygon fill="white" stroke="black" points="9.5,-84.5 9.5,-114.5 144.5,-114.5 144.5,-84.5 9.5,-84.5"/>
<text text-anchor="start" x="17.5" y="-102.5" font-family="Helvetica,sans-Serif" font-size="10.00">denoptim.programs.denovo.</text>
<text text-anchor="middle" x="77" y="-91.5" font-family="Helvetica,sans-Serif" font-size="10.00">GARunner.runProgram</text>
</a>
</g>
</g>
<!-- Node6&#45;&gt;Node8 -->
<g id="edge7" class="edge">
<title>Node6&#45;&gt;Node8</title>
<path fill="none" stroke="midnightblue" d="M179.48,-113.58C167.92,-111.97 156,-110.32 144.57,-108.73"/>
<polygon fill="midnightblue" stroke="midnightblue" points="179.13,-117.06 189.52,-114.97 180.1,-110.13 179.13,-117.06"/>
</g>
<!-- Node9&#45;&gt;Node5 -->
<g id="edge9" class="edge">
<title>Node9&#45;&gt;Node5</title>
<path fill="none" stroke="midnightblue" d="M509.86,-110.22C501.31,-111.45 492.64,-112.71 484.2,-113.93"/>
<polygon fill="midnightblue" stroke="midnightblue" points="510.42,-113.67 519.82,-108.78 509.42,-106.75 510.42,-113.67"/>
</g>
<!-- Node11&#45;&gt;Node10 -->
<g id="edge12" class="edge">
<title>Node11&#45;&gt;Node10</title>
<path fill="none" stroke="midnightblue" d="M675.56,-34.63C666.48,-35.42 657.43,-36.22 648.76,-36.98"/>
<polygon fill="midnightblue" stroke="midnightblue" points="676.13,-38.09 685.79,-33.73 675.52,-31.12 676.13,-38.09"/>
</g>
</g>
</svg>
