<?xml version="1.0" encoding="UTF-8" standalone="no"?>
<!DOCTYPE svg PUBLIC "-//W3C//DTD SVG 1.1//EN"
 "http://www.w3.org/Graphics/SVG/1.1/DTD/svg11.dtd">
<!-- Generated by graphviz version 3.0.0 (20221109.1736)
 -->
<!-- Title: denoptim.programs.RunTimeParameters.containsParameters Pages: 1 -->
<!--zoomable 758 -->
<svg id="main" version="1.1" xmlns="http://www.w3.org/2000/svg" xmlns:xlink="http://www.w3.org/1999/xlink" xml:space="preserve" onload="init(evt)">
<style type="text/css"><![CDATA[
.edge:hover path { stroke: red; }
.edge:hover polygon { stroke: red; fill: red; }
]]></style>
<script type="text/javascript"><![CDATA[
var edges = document.getElementsByTagName('g');
if (edges && edges.length) {
  for (var i=0;i<edges.length;i++) {
    if (edges[i].id.substr(0,4)=='edge') {
      edges[i].setAttribute('class','edge');
    }
  }
}
]]></script>
        <defs>
                <circle id="rim" cx="0" cy="0" r="7"/>
                <circle id="rim2" cx="0" cy="0" r="3.5"/>
                <g id="zoomPlus">
                        <use xlink:href="#rim" fill="#404040">
                                <set attributeName="fill" to="#808080" begin="zoomplus.mouseover" end="zoomplus.mouseout"/>
                        </use>
                        <path d="M-4,0h8M0,-4v8" fill="none" stroke="white" stroke-width="1.5" pointer-events="none"/>
                </g>
                <g id="zoomMin">
                        <use xlink:href="#rim" fill="#404040">
                                <set attributeName="fill" to="#808080" begin="zoomminus.mouseover" end="zoomminus.mouseout"/>
                        </use>
                        <path d="M-4,0h8" fill="none" stroke="white" stroke-width="1.5" pointer-events="none"/>
                </g>
                <g id="dirArrow">
                        <path fill="none" stroke="white" stroke-width="1.5" d="M0,-3.0v7 M-2.5,-0.5L0,-3.0L2.5,-0.5"/>
                </g>
               <g id="resetDef">
                       <use xlink:href="#rim2" fill="#404040">
                               <set attributeName="fill" to="#808080" begin="reset.mouseover" end="reset.mouseout"/>
                       </use>
               </g>
        </defs>

<script type="text/javascript">
var viewWidth = 1329;
var viewHeight = 758;
var sectionId = 'dynsection-4';
</script>
<script xlink:href="svgpan.js"/>
<svg id="graph" class="graph">
<g id="viewport">
<title>denoptim.programs.RunTimeParameters.containsParameters</title>
<polygon fill="white" stroke="transparent" points="-4,4 -4,-753.68 1325,-753.68 1325,4 -4,4"/>
<!-- Node1 -->
<g id="node1" class="node">
<title>Node1</title>
<g id="a_node1"><a xlink:title=" ">
<polygon fill="#bfbfbf" stroke="black" points="1165,-298.5 1165,-328.5 1321,-328.5 1321,-298.5 1165,-298.5"/>
<text text-anchor="start" x="1173" y="-316.5" font-family="Helvetica,sans-Serif" font-size="10.00">denoptim.programs.RunTime</text>
<text text-anchor="middle" x="1243" y="-305.5" font-family="Helvetica,sans-Serif" font-size="10.00">Parameters.containsParameters</text>
</a>
</g>
</g>
<!-- Node2 -->
<g id="node2" class="node">
<title>Node2</title>
<g id="a_node2"><a xlink:href="classdenoptim_1_1molecularmodeling_1_1_multi_molecular_model_builder.html#a6a8e314f3fb37f66c32c8c4d5695b8a4" target="_top" xlink:title="Given the graph representation of the molecular constitution, along with the 3D coordinates of the fr...">
<polygon fill="white" stroke="black" points="242,-637 242,-678 400,-678 400,-637 242,-637"/>
<text text-anchor="start" x="250" y="-666" font-family="Helvetica,sans-Serif" font-size="10.00">denoptim.molecularmodeling.</text>
<text text-anchor="start" x="250" y="-655" font-family="Helvetica,sans-Serif" font-size="10.00">MultiMolecularModelBuilder.build</text>
<text text-anchor="middle" x="321" y="-644" font-family="Helvetica,sans-Serif" font-size="10.00">Multi3DStructure</text>
</a>
</g>
</g>
<!-- Node1&#45;&gt;Node2 -->
<g id="edge1" class="edge">
<title>Node1&#45;&gt;Node2</title>
<path fill="none" stroke="midnightblue" d="M1242.53,-338.98C1242.33,-404.18 1231.71,-577.3 1129,-653.5 899.32,-823.91 522.84,-725.1 379.69,-678.07"/>
<polygon fill="midnightblue" stroke="midnightblue" points="1246.03,-338.77 1242.47,-328.79 1239.03,-338.81 1246.03,-338.77"/>
</g>
<!-- Node4 -->
<g id="node4" class="node">
<title>Node4</title>
<g id="a_node4"><a xlink:href="classdenoptim_1_1molecularmodeling_1_1_ring_closure_tool.html#a065481cf3ca3229eee8b417fa3f7c0b5" target="_top" xlink:title="Makes new rings by connecting pairs of atoms that hold properly arranged RingClosingAttractors.">
<polygon fill="white" stroke="black" points="945,-613.5 945,-643.5 1087,-643.5 1087,-613.5 945,-613.5"/>
<text text-anchor="start" x="953" y="-631.5" font-family="Helvetica,sans-Serif" font-size="10.00">denoptim.molecularmodeling.</text>
<text text-anchor="middle" x="1016" y="-620.5" font-family="Helvetica,sans-Serif" font-size="10.00">RingClosureTool.closeRings</text>
</a>
</g>
</g>
<!-- Node1&#45;&gt;Node4 -->
<g id="edge3" class="edge">
<title>Node1&#45;&gt;Node4</title>
<path fill="none" stroke="midnightblue" d="M1238.87,-338.72C1230.83,-392.84 1204.47,-520.92 1129,-591.5 1117.33,-602.41 1102.38,-610.11 1087.22,-615.53"/>
<polygon fill="midnightblue" stroke="midnightblue" points="1242.36,-339.02 1240.28,-328.63 1235.43,-338.05 1242.36,-339.02"/>
</g>
<!-- Node7 -->
<g id="node7" class="node">
<title>Node7</title>
<g id="a_node7"><a xlink:href="classdenoptim_1_1combinatorial_1_1_combinatorial_explorer_by_layer.html#a8f359a45038dc604a5e437d63a35e1a2" target="_top" xlink:title="Constructor.">
<polygon fill="white" stroke="black" points="925,-541 925,-582 1107,-582 1107,-541 925,-541"/>
<text text-anchor="start" x="933" y="-570" font-family="Helvetica,sans-Serif" font-size="10.00">denoptim.combinatorial.Combinatorial</text>
<text text-anchor="start" x="933" y="-559" font-family="Helvetica,sans-Serif" font-size="10.00">ExplorerByLayer.CombinatorialExplorer</text>
<text text-anchor="middle" x="1016" y="-548" font-family="Helvetica,sans-Serif" font-size="10.00">ByLayer</text>
</a>
</g>
</g>
<!-- Node1&#45;&gt;Node7 -->
<g id="edge7" class="edge">
<title>Node1&#45;&gt;Node7</title>
<path fill="none" stroke="midnightblue" d="M1236.15,-338.53C1224.18,-384.07 1192.52,-480.44 1129,-531.5 1122.41,-536.8 1114.97,-541.16 1107.13,-544.76"/>
<polygon fill="midnightblue" stroke="midnightblue" points="1239.6,-339.17 1238.65,-328.61 1232.81,-337.45 1239.6,-339.17"/>
</g>
<!-- Node8 -->
<g id="node8" class="node">
<title>Node8</title>
<g id="a_node8"><a xlink:href="classdenoptim_1_1programs_1_1mol2graph_1_1_mol2_graph_parameters.html#a36bba7d683495a288f718e58b6494ff1" target="_top" xlink:title=" ">
<polygon fill="white" stroke="black" points="918.5,-481 918.5,-522 1113.5,-522 1113.5,-481 918.5,-481"/>
<text text-anchor="start" x="926.5" y="-510" font-family="Helvetica,sans-Serif" font-size="10.00">denoptim.programs.mol2graph.</text>
<text text-anchor="start" x="926.5" y="-499" font-family="Helvetica,sans-Serif" font-size="10.00">Mol2GraphParameters.ensureFragmenter</text>
<text text-anchor="middle" x="1016" y="-488" font-family="Helvetica,sans-Serif" font-size="10.00">Params</text>
</a>
</g>
</g>
<!-- Node1&#45;&gt;Node8 -->
<g id="edge8" class="edge">
<title>Node1&#45;&gt;Node8</title>
<path fill="none" stroke="midnightblue" d="M1231.03,-338.28C1214.22,-373.36 1178.71,-437.07 1129,-471.5 1123.87,-475.05 1118.34,-478.19 1112.58,-480.95"/>
<polygon fill="midnightblue" stroke="midnightblue" points="1234.41,-339.32 1235.46,-328.78 1228.06,-336.36 1234.41,-339.32"/>
</g>
<!-- Node14 -->
<g id="node14" class="node">
<title>Node14</title>
<g id="a_node14"><a xlink:href="classdenoptim_1_1programs_1_1mol2graph_1_1_mol2_graph_parameters.html#a2cbb59c28aafec9b7ca7922e173d0a4f" target="_top" xlink:title=" ">
<polygon fill="white" stroke="black" points="920.5,-421 920.5,-462 1111.5,-462 1111.5,-421 920.5,-421"/>
<text text-anchor="start" x="928.5" y="-450" font-family="Helvetica,sans-Serif" font-size="10.00">denoptim.programs.mol2graph.</text>
<text text-anchor="start" x="928.5" y="-439" font-family="Helvetica,sans-Serif" font-size="10.00">Mol2GraphParameters.ensureFragSpare</text>
<text text-anchor="middle" x="1016" y="-428" font-family="Helvetica,sans-Serif" font-size="10.00">Params</text>
</a>
</g>
</g>
<!-- Node1&#45;&gt;Node14 -->
<g id="edge17" class="edge">
<title>Node1&#45;&gt;Node14</title>
<path fill="none" stroke="midnightblue" d="M1222.21,-336.17C1201.25,-358.77 1166.13,-392.87 1129,-412.5 1123.05,-415.65 1116.74,-418.46 1110.27,-420.99"/>
<polygon fill="midnightblue" stroke="midnightblue" points="1224.87,-338.44 1229.01,-328.69 1219.69,-333.73 1224.87,-338.44"/>
</g>
<!-- Node16 -->
<g id="node16" class="node">
<title>Node16</title>
<g id="a_node16"><a xlink:href="classdenoptim_1_1programs_1_1fitnessevaluator_1_1_fitness_evaluation_task.html#a916d0f71da568a6824263a70b3d3ad4a" target="_top" xlink:title=" ">
<polygon fill="white" stroke="black" points="907.5,-372.5 907.5,-402.5 1124.5,-402.5 1124.5,-372.5 907.5,-372.5"/>
<text text-anchor="start" x="915.5" y="-390.5" font-family="Helvetica,sans-Serif" font-size="10.00">denoptim.programs.fitnessevaluator.</text>
<text text-anchor="middle" x="1016" y="-379.5" font-family="Helvetica,sans-Serif" font-size="10.00">FitnessEvaluationTask.FitnessEvaluationTask</text>
</a>
</g>
</g>
<!-- Node1&#45;&gt;Node16 -->
<g id="edge21" class="edge">
<title>Node1&#45;&gt;Node16</title>
<path fill="none" stroke="midnightblue" d="M1203.33,-332.98C1181.85,-343.19 1154.42,-355.25 1129,-363.5 1118.79,-366.82 1107.9,-369.8 1097.07,-372.45"/>
<polygon fill="midnightblue" stroke="midnightblue" points="1204.95,-336.08 1212.44,-328.59 1201.91,-329.78 1204.95,-336.08"/>
</g>
<!-- Node17 -->
<g id="node17" class="node">
<title>Node17</title>
<g id="a_node17"><a xlink:href="classdenoptim_1_1ga_1_1_evolutionary_algorithm.html#ad43588620dab3340e0d8b0042ec73618" target="_top" xlink:title="Fills up the population with candidates build from scratch.">
<polygon fill="white" stroke="black" points="946,-323.5 946,-353.5 1086,-353.5 1086,-323.5 946,-323.5"/>
<text text-anchor="start" x="954" y="-341.5" font-family="Helvetica,sans-Serif" font-size="10.00">denoptim.ga.Evolutionary</text>
<text text-anchor="middle" x="1016" y="-330.5" font-family="Helvetica,sans-Serif" font-size="10.00">Algorithm.initializePopulation</text>
</a>
</g>
</g>
<!-- Node1&#45;&gt;Node17 -->
<g id="edge22" class="edge">
<title>Node1&#45;&gt;Node17</title>
<path fill="none" stroke="midnightblue" d="M1154.87,-323.18C1132.08,-325.71 1107.81,-328.41 1086.1,-330.82"/>
<polygon fill="midnightblue" stroke="midnightblue" points="1155.33,-326.65 1164.88,-322.07 1154.56,-319.69 1155.33,-326.65"/>
</g>
<!-- Node21 -->
<g id="node21" class="node">
<title>Node21</title>
<g id="a_node21"><a xlink:href="classdenoptim_1_1ga_1_1_offspring_evaluation_task.html#ab222efa0ae1a954ba00305d123484264" target="_top" xlink:title=" ">
<polygon fill="white" stroke="black" points="938.5,-274.5 938.5,-304.5 1093.5,-304.5 1093.5,-274.5 938.5,-274.5"/>
<text text-anchor="start" x="946.5" y="-292.5" font-family="Helvetica,sans-Serif" font-size="10.00">denoptim.ga.OffspringEvaluation</text>
<text text-anchor="middle" x="1016" y="-281.5" font-family="Helvetica,sans-Serif" font-size="10.00">Task.OffspringEvaluationTask</text>
</a>
</g>
</g>
<!-- Node1&#45;&gt;Node21 -->
<g id="edge26" class="edge">
<title>Node1&#45;&gt;Node21</title>
<path fill="none" stroke="midnightblue" d="M1154.77,-304.2C1134.61,-302.05 1113.31,-299.77 1093.64,-297.67"/>
<polygon fill="midnightblue" stroke="midnightblue" points="1154.57,-307.69 1164.88,-305.27 1155.31,-300.73 1154.57,-307.69"/>
</g>
<!-- Node22 -->
<g id="node22" class="node">
<title>Node22</title>
<g id="a_node22"><a xlink:href="classdenoptim_1_1ga_1_1_e_a_utils.html#a45d4e9ec6a308aa73891efa1d501dd5e" target="_top" xlink:title="Perform fitness&#45;based, class&#45;compatible selection of parents that can do crossover operations.">
<polygon fill="white" stroke="black" points="933,-236 933,-255 1099,-255 1099,-236 933,-236"/>
<text text-anchor="middle" x="1016" y="-243" font-family="Helvetica,sans-Serif" font-size="10.00">denoptim.ga.EAUtils.performFBCC</text>
</a>
</g>
</g>
<!-- Node1&#45;&gt;Node22 -->
<g id="edge27" class="edge">
<title>Node1&#45;&gt;Node22</title>
<path fill="none" stroke="midnightblue" d="M1202.45,-294.11C1181.12,-284.32 1154.09,-272.97 1129,-265.5 1114.8,-261.28 1099.31,-257.81 1084.5,-255.02"/>
<polygon fill="midnightblue" stroke="midnightblue" points="1200.97,-297.28 1211.52,-298.33 1203.93,-290.94 1200.97,-297.28"/>
</g>
<!-- Node24 -->
<g id="node24" class="node">
<title>Node24</title>
<g id="a_node24"><a xlink:href="classdenoptim_1_1programs_1_1denovo_1_1_g_a_parameters.html#ad8adff3858c7dea67631d2c0de1b0a8c" target="_top" xlink:title="Processes currently loaded fields.">
<polygon fill="white" stroke="black" points="932,-186.5 932,-216.5 1100,-216.5 1100,-186.5 932,-186.5"/>
<text text-anchor="start" x="940" y="-204.5" font-family="Helvetica,sans-Serif" font-size="10.00">denoptim.programs.denovo.</text>
<text text-anchor="middle" x="1016" y="-193.5" font-family="Helvetica,sans-Serif" font-size="10.00">GAParameters.processParameters</text>
</a>
</g>
</g>
<!-- Node1&#45;&gt;Node24 -->
<g id="edge29" class="edge">
<title>Node1&#45;&gt;Node24</title>
<path fill="none" stroke="midnightblue" d="M1219.7,-291.49C1198.23,-271.55 1163.95,-242.86 1129,-226.5 1119.89,-222.23 1110.01,-218.68 1100.03,-215.72"/>
<polygon fill="midnightblue" stroke="midnightblue" points="1217.34,-294.07 1227.01,-298.4 1222.15,-288.99 1217.34,-294.07"/>
</g>
<!-- Node26 -->
<g id="node26" class="node">
<title>Node26</title>
<g id="a_node26"><a xlink:href="classdenoptim_1_1programs_1_1genetweeker_1_1_gene_ops_runner_parameters.html#a98b6c6b389e456945a968edc31086451" target="_top" xlink:title="Processes all parameters and initialize related objects.">
<polygon fill="white" stroke="black" points="903,-137.5 903,-167.5 1129,-167.5 1129,-137.5 903,-137.5"/>
<text text-anchor="start" x="911" y="-155.5" font-family="Helvetica,sans-Serif" font-size="10.00">denoptim.programs.genetweeker.</text>
<text text-anchor="middle" x="1016" y="-144.5" font-family="Helvetica,sans-Serif" font-size="10.00">GeneOpsRunnerParameters.processParameters</text>
</a>
</g>
</g>
<!-- Node1&#45;&gt;Node26 -->
<g id="edge32" class="edge">
<title>Node1&#45;&gt;Node26</title>
<path fill="none" stroke="midnightblue" d="M1229.04,-289.4C1210.94,-258.2 1175.08,-204.51 1129,-176.5 1123.31,-173.04 1117.19,-170.07 1110.85,-167.53"/>
<polygon fill="midnightblue" stroke="midnightblue" points="1226.11,-291.33 1234.08,-298.31 1232.2,-287.88 1226.11,-291.33"/>
</g>
<!-- Node27 -->
<g id="node27" class="node">
<title>Node27</title>
<g id="a_node27"><a xlink:href="classdenoptim_1_1programs_1_1genetweeker_1_1_gene_ops_runner.html#a3c2407eb1204a7b25600d3d347d98447" target="_top" xlink:title=" ">
<polygon fill="white" stroke="black" points="686,-93.5 686,-123.5 845,-123.5 845,-93.5 686,-93.5"/>
<text text-anchor="start" x="694" y="-111.5" font-family="Helvetica,sans-Serif" font-size="10.00">denoptim.programs.genetweeker.</text>
<text text-anchor="middle" x="765.5" y="-100.5" font-family="Helvetica,sans-Serif" font-size="10.00">GeneOpsRunner.runProgram</text>
</a>
</g>
</g>
<!-- Node1&#45;&gt;Node27 -->
<g id="edge36" class="edge">
<title>Node1&#45;&gt;Node27</title>
<path fill="none" stroke="midnightblue" d="M1235.24,-288.86C1222.36,-247.22 1190,-163.95 1129,-127.5 1082.88,-99.94 937.4,-100.66 845.36,-104.22"/>
<polygon fill="midnightblue" stroke="midnightblue" points="1231.9,-289.9 1238.1,-298.49 1238.61,-287.91 1231.9,-289.9"/>
</g>
<!-- Node28 -->
<g id="node28" class="node">
<title>Node28</title>
<g id="a_node28"><a xlink:href="classdenoptim_1_1programs_1_1genetweeker_1_1_gene_ops_runner.html#adb60b4cb2cda6a912a831974c5303df4" target="_top" xlink:title=" ">
<polygon fill="white" stroke="black" points="936.5,-49.5 936.5,-79.5 1095.5,-79.5 1095.5,-49.5 936.5,-49.5"/>
<text text-anchor="start" x="944.5" y="-67.5" font-family="Helvetica,sans-Serif" font-size="10.00">denoptim.programs.genetweeker.</text>
<text text-anchor="middle" x="1016" y="-56.5" font-family="Helvetica,sans-Serif" font-size="10.00">GeneOpsRunner.runMutation</text>
</a>
</g>
</g>
<!-- Node1&#45;&gt;Node28 -->
<g id="edge34" class="edge">
<title>Node1&#45;&gt;Node28</title>
<path fill="none" stroke="midnightblue" d="M1236.19,-288.35C1224.28,-242.61 1192.7,-145.81 1129,-94.5 1119.28,-86.67 1107.7,-80.87 1095.73,-76.59"/>
<polygon fill="midnightblue" stroke="midnightblue" points="1232.86,-289.47 1238.68,-298.32 1239.65,-287.77 1232.86,-289.47"/>
</g>
<!-- Node29 -->
<g id="node29" class="node">
<title>Node29</title>
<g id="a_node29"><a xlink:href="classdenoptim_1_1programs_1_1grapheditor_1_1_graph_editor.html#a649a62e3d4635ef4c19424fa49e6dcd4" target="_top" xlink:title=" ">
<polygon fill="white" stroke="black" points="940,-0.5 940,-30.5 1092,-30.5 1092,-0.5 940,-0.5"/>
<text text-anchor="start" x="948" y="-18.5" font-family="Helvetica,sans-Serif" font-size="10.00">denoptim.programs.grapheditor.</text>
<text text-anchor="middle" x="1016" y="-7.5" font-family="Helvetica,sans-Serif" font-size="10.00">GraphEditor.runProgram</text>
</a>
</g>
</g>
<!-- Node1&#45;&gt;Node29 -->
<g id="edge37" class="edge">
<title>Node1&#45;&gt;Node29</title>
<path fill="none" stroke="midnightblue" d="M1239.31,-288.01C1232.13,-233.42 1207.36,-104.88 1129,-39.5 1118.46,-30.71 1105.47,-24.91 1092.11,-21.14"/>
<polygon fill="midnightblue" stroke="midnightblue" points="1235.87,-288.69 1240.56,-298.19 1242.82,-287.84 1235.87,-288.69"/>
</g>
<!-- Node3 -->
<g id="node3" class="node">
<title>Node3</title>
<g id="a_node3"><a xlink:href="classdenoptim_1_1programs_1_1moldecularmodelbuilder_1_1_molecular_model_builder.html#ad2e44290de6a861274def677044e9754" target="_top" xlink:title=" ">
<polygon fill="white" stroke="black" points="0,-642.5 0,-672.5 206,-672.5 206,-642.5 0,-642.5"/>
<text text-anchor="start" x="8" y="-660.5" font-family="Helvetica,sans-Serif" font-size="10.00">denoptim.programs.moldecularmodelbuilder.</text>
<text text-anchor="middle" x="103" y="-649.5" font-family="Helvetica,sans-Serif" font-size="10.00">MolecularModelBuilder.runProgram</text>
</a>
</g>
</g>
<!-- Node2&#45;&gt;Node3 -->
<g id="edge2" class="edge">
<title>Node2&#45;&gt;Node3</title>
<path fill="none" stroke="midnightblue" d="M231.55,-657.5C223.14,-657.5 214.57,-657.5 206.05,-657.5"/>
<polygon fill="midnightblue" stroke="midnightblue" points="231.71,-661 241.71,-657.5 231.71,-654 231.71,-661"/>
</g>
<!-- Node5 -->
<g id="node5" class="node">
<title>Node5</title>
<g id="a_node5"><a xlink:href="classdenoptim_1_1molecularmodeling_1_1_ring_closure_tool.html#abd87e8b7391948be1c3156eb9d131be7" target="_top" xlink:title="Attempts to close rings by finding the conformation that allows to join heads and tails of atom speci...">
<polygon fill="white" stroke="black" points="677.5,-620.5 677.5,-650.5 853.5,-650.5 853.5,-620.5 677.5,-620.5"/>
<text text-anchor="start" x="685.5" y="-638.5" font-family="Helvetica,sans-Serif" font-size="10.00">denoptim.molecularmodeling.</text>
<text text-anchor="middle" x="765.5" y="-627.5" font-family="Helvetica,sans-Serif" font-size="10.00">RingClosureTool.attemptRingClosure</text>
</a>
</g>
</g>
<!-- Node4&#45;&gt;Node5 -->
<g id="edge4" class="edge">
<title>Node4&#45;&gt;Node5</title>
<path fill="none" stroke="midnightblue" d="M934.67,-630.76C908.84,-631.49 880.11,-632.3 853.81,-633.04"/>
<polygon fill="midnightblue" stroke="midnightblue" points="934.89,-634.26 944.79,-630.48 934.69,-627.26 934.89,-634.26"/>
</g>
<!-- Node6 -->
<g id="node6" class="node">
<title>Node6</title>
<g id="a_node6"><a xlink:href="classdenoptim_1_1molecularmodeling_1_1_ring_closure_tool.html#a26896649739e0a5e63dd88079c6efe7a" target="_top" xlink:title="Performs one or more attempts to close rings by conformational adaptation.">
<polygon fill="white" stroke="black" points="436,-620.5 436,-650.5 628,-650.5 628,-620.5 436,-620.5"/>
<text text-anchor="start" x="444" y="-638.5" font-family="Helvetica,sans-Serif" font-size="10.00">denoptim.molecularmodeling.</text>
<text text-anchor="middle" x="532" y="-627.5" font-family="Helvetica,sans-Serif" font-size="10.00">RingClosureTool.attemptAllRingClosures</text>
</a>
</g>
</g>
<!-- Node5&#45;&gt;Node6 -->
<g id="edge5" class="edge">
<title>Node5&#45;&gt;Node6</title>
<path fill="none" stroke="midnightblue" d="M667.08,-635.5C654.23,-635.5 641.06,-635.5 628.25,-635.5"/>
<polygon fill="midnightblue" stroke="midnightblue" points="667.31,-639 677.31,-635.5 667.31,-632 667.31,-639"/>
</g>
<!-- Node6&#45;&gt;Node2 -->
<g id="edge6" class="edge">
<title>Node6&#45;&gt;Node2</title>
<path fill="none" stroke="midnightblue" d="M425.85,-646.57C417.22,-647.48 408.59,-648.39 400.2,-649.27"/>
<polygon fill="midnightblue" stroke="midnightblue" points="426.4,-650.03 435.98,-645.5 425.67,-643.07 426.4,-650.03"/>
</g>
<!-- Node9 -->
<g id="node9" class="node">
<title>Node9</title>
<g id="a_node9"><a xlink:href="classdenoptim_1_1programs_1_1mol2graph_1_1_mol2_graph_parameters.html#a5e334ae3cc2712bf8e893b82b2f655e9" target="_top" xlink:title=" ">
<polygon fill="white" stroke="black" points="673,-571.5 673,-601.5 858,-601.5 858,-571.5 673,-571.5"/>
<text text-anchor="start" x="681" y="-589.5" font-family="Helvetica,sans-Serif" font-size="10.00">denoptim.programs.mol2graph.</text>
<text text-anchor="middle" x="765.5" y="-578.5" font-family="Helvetica,sans-Serif" font-size="10.00">Mol2GraphParameters.getCuttingRules</text>
</a>
</g>
</g>
<!-- Node8&#45;&gt;Node9 -->
<g id="edge9" class="edge">
<title>Node8&#45;&gt;Node9</title>
<path fill="none" stroke="midnightblue" d="M914.64,-525.91C910.65,-527.65 906.75,-529.52 903,-531.5 884.33,-541.37 885.8,-552.89 867,-562.5 860.29,-565.93 853.08,-568.88 845.71,-571.42"/>
<polygon fill="midnightblue" stroke="midnightblue" points="916.16,-529.07 924.09,-522.05 913.51,-522.59 916.16,-529.07"/>
</g>
<!-- Node11 -->
<g id="node11" class="node">
<title>Node11</title>
<g id="a_node11"><a xlink:href="classdenoptim_1_1programs_1_1mol2graph_1_1_mol2_graph_parameters.html#a219eff4d45e790b5e6223e2f217a6988" target="_top" xlink:title=" ">
<polygon fill="white" stroke="black" points="664,-522.5 664,-552.5 867,-552.5 867,-522.5 664,-522.5"/>
<text text-anchor="start" x="672" y="-540.5" font-family="Helvetica,sans-Serif" font-size="10.00">denoptim.programs.mol2graph.</text>
<text text-anchor="middle" x="765.5" y="-529.5" font-family="Helvetica,sans-Serif" font-size="10.00">Mol2GraphParameters.getLinearAngleLimit</text>
</a>
</g>
</g>
<!-- Node8&#45;&gt;Node11 -->
<g id="edge11" class="edge">
<title>Node8&#45;&gt;Node11</title>
<path fill="none" stroke="midnightblue" d="M907.92,-517.01C894.38,-518.97 880.56,-520.98 867.12,-522.92"/>
<polygon fill="midnightblue" stroke="midnightblue" points="908.82,-520.42 918.21,-515.52 907.81,-513.49 908.82,-520.42"/>
</g>
<!-- Node12 -->
<g id="node12" class="node">
<title>Node12</title>
<g id="a_node12"><a xlink:href="classdenoptim_1_1programs_1_1mol2graph_1_1_mol2_graph_parameters.html#af5bb3fefec5ad4f6a564031cfe1165a4" target="_top" xlink:title=" ">
<polygon fill="white" stroke="black" points="676.5,-463 676.5,-504 854.5,-504 854.5,-463 676.5,-463"/>
<text text-anchor="start" x="684.5" y="-492" font-family="Helvetica,sans-Serif" font-size="10.00">denoptim.programs.mol2graph.</text>
<text text-anchor="start" x="684.5" y="-481" font-family="Helvetica,sans-Serif" font-size="10.00">Mol2GraphParameters.getScaffolding</text>
<text text-anchor="middle" x="765.5" y="-470" font-family="Helvetica,sans-Serif" font-size="10.00">Policy</text>
</a>
</g>
</g>
<!-- Node8&#45;&gt;Node12 -->
<g id="edge13" class="edge">
<title>Node8&#45;&gt;Node12</title>
<path fill="none" stroke="midnightblue" d="M907.8,-493.74C890.02,-492.45 871.75,-491.12 854.51,-489.88"/>
<polygon fill="midnightblue" stroke="midnightblue" points="907.99,-497.26 918.21,-494.49 908.49,-490.28 907.99,-497.26"/>
</g>
<!-- Node13 -->
<g id="node13" class="node">
<title>Node13</title>
<g id="a_node13"><a xlink:href="classdenoptim_1_1programs_1_1mol2graph_1_1_mol2_graph_parameters.html#a978e5b8072fc346a9c580e841a5bb201" target="_top" xlink:title="Processes all parameters and initialize related objects.">
<polygon fill="white" stroke="black" points="665,-414.5 665,-444.5 866,-444.5 866,-414.5 665,-414.5"/>
<text text-anchor="start" x="673" y="-432.5" font-family="Helvetica,sans-Serif" font-size="10.00">denoptim.programs.mol2graph.</text>
<text text-anchor="middle" x="765.5" y="-421.5" font-family="Helvetica,sans-Serif" font-size="10.00">Mol2GraphParameters.processParameters</text>
</a>
</g>
</g>
<!-- Node8&#45;&gt;Node13 -->
<g id="edge15" class="edge">
<title>Node8&#45;&gt;Node13</title>
<path fill="none" stroke="midnightblue" d="M921.15,-477.88C914.97,-475.86 908.87,-473.73 903,-471.5 886.28,-465.15 883.81,-459.62 867,-453.5 857.9,-450.19 848.16,-447.2 838.47,-444.56"/>
<polygon fill="midnightblue" stroke="midnightblue" points="920.34,-481.29 930.93,-480.97 922.45,-474.62 920.34,-481.29"/>
</g>
<!-- Node10 -->
<g id="node10" class="node">
<title>Node10</title>
<g id="a_node10"><a xlink:href="classdenoptim_1_1programs_1_1mol2graph_1_1_mol2_graph.html#a55924e2fcd5c0081af56b98766d74ee1" target="_top" xlink:title=" ">
<polygon fill="white" stroke="black" points="457.5,-468.5 457.5,-498.5 606.5,-498.5 606.5,-468.5 457.5,-468.5"/>
<text text-anchor="start" x="465.5" y="-486.5" font-family="Helvetica,sans-Serif" font-size="10.00">denoptim.programs.mol2graph.</text>
<text text-anchor="middle" x="532" y="-475.5" font-family="Helvetica,sans-Serif" font-size="10.00">Mol2Graph.runProgram</text>
</a>
</g>
</g>
<!-- Node9&#45;&gt;Node10 -->
<g id="edge10" class="edge">
<title>Node9&#45;&gt;Node10</title>
<path fill="none" stroke="midnightblue" d="M680.54,-568.53C674.88,-566.68 669.32,-564.68 664,-562.5 622.46,-545.5 578.68,-516.51 553.71,-498.78"/>
<polygon fill="midnightblue" stroke="midnightblue" points="679.54,-571.89 690.13,-571.49 681.6,-565.2 679.54,-571.89"/>
</g>
<!-- Node11&#45;&gt;Node10 -->
<g id="edge12" class="edge">
<title>Node11&#45;&gt;Node10</title>
<path fill="none" stroke="midnightblue" d="M690.08,-520.14C660.28,-513.19 626.28,-505.26 597.54,-498.55"/>
<polygon fill="midnightblue" stroke="midnightblue" points="689.48,-523.59 700.01,-522.46 691.07,-516.78 689.48,-523.59"/>
</g>
<!-- Node12&#45;&gt;Node10 -->
<g id="edge14" class="edge">
<title>Node12&#45;&gt;Node10</title>
<path fill="none" stroke="midnightblue" d="M666.26,-483.5C646.28,-483.5 625.58,-483.5 606.62,-483.5"/>
<polygon fill="midnightblue" stroke="midnightblue" points="666.32,-487 676.32,-483.5 666.32,-480 666.32,-487"/>
</g>
<!-- Node13&#45;&gt;Node10 -->
<g id="edge16" class="edge">
<title>Node13&#45;&gt;Node10</title>
<path fill="none" stroke="midnightblue" d="M690.08,-446.86C660.28,-453.81 626.28,-461.74 597.54,-468.45"/>
<polygon fill="midnightblue" stroke="midnightblue" points="691.07,-450.22 700.01,-444.54 689.48,-443.41 691.07,-450.22"/>
</g>
<!-- Node14&#45;&gt;Node13 -->
<g id="edge20" class="edge">
<title>Node14&#45;&gt;Node13</title>
<path fill="none" stroke="midnightblue" d="M910.31,-436.44C895.72,-435.74 880.76,-435.02 866.26,-434.32"/>
<polygon fill="midnightblue" stroke="midnightblue" points="910.19,-439.94 920.34,-436.93 910.52,-432.95 910.19,-439.94"/>
</g>
<!-- Node15 -->
<g id="node15" class="node">
<title>Node15</title>
<g id="a_node15"><a xlink:href="classdenoptim_1_1programs_1_1mol2graph_1_1_mol2_graph_parameters.html#a28d48b83380c4dd412104dd8d7a972fa" target="_top" xlink:title=" ">
<polygon fill="white" stroke="black" points="666,-365.5 666,-395.5 865,-395.5 865,-365.5 666,-365.5"/>
<text text-anchor="start" x="674" y="-383.5" font-family="Helvetica,sans-Serif" font-size="10.00">denoptim.programs.mol2graph.</text>
<text text-anchor="middle" x="765.5" y="-372.5" font-family="Helvetica,sans-Serif" font-size="10.00">Mol2GraphParameters.getFragmentSpace</text>
</a>
</g>
</g>
<!-- Node14&#45;&gt;Node15 -->
<g id="edge18" class="edge">
<title>Node14&#45;&gt;Node15</title>
<path fill="none" stroke="midnightblue" d="M921.19,-418.47C889.99,-410.81 856.05,-402.48 827.94,-395.58"/>
<polygon fill="midnightblue" stroke="midnightblue" points="920.67,-421.95 931.22,-420.93 922.34,-415.15 920.67,-421.95"/>
</g>
<!-- Node15&#45;&gt;Node10 -->
<g id="edge19" class="edge">
<title>Node15&#45;&gt;Node10</title>
<path fill="none" stroke="midnightblue" d="M683.17,-398.53C676.61,-400.65 670.14,-402.97 664,-405.5 622.63,-422.52 578.79,-451.06 553.77,-468.5"/>
<polygon fill="midnightblue" stroke="midnightblue" points="684.3,-401.85 692.84,-395.57 682.25,-395.16 684.3,-401.85"/>
</g>
<!-- Node18 -->
<g id="node18" class="node">
<title>Node18</title>
<g id="a_node18"><a xlink:href="classdenoptim_1_1ga_1_1_evolutionary_algorithm.html#a6bfc2fa59b199da6259b5b6bad3d6de7" target="_top" xlink:title=" ">
<polygon fill="white" stroke="black" points="703.5,-298.5 703.5,-328.5 827.5,-328.5 827.5,-298.5 703.5,-298.5"/>
<text text-anchor="start" x="711.5" y="-316.5" font-family="Helvetica,sans-Serif" font-size="10.00">denoptim.ga.Evolutionary</text>
<text text-anchor="middle" x="765.5" y="-305.5" font-family="Helvetica,sans-Serif" font-size="10.00">Algorithm.run</text>
</a>
</g>
</g>
<!-- Node17&#45;&gt;Node18 -->
<g id="edge23" class="edge">
<title>Node17&#45;&gt;Node18</title>
<path fill="none" stroke="midnightblue" d="M935.61,-330.51C900.68,-327 860.28,-322.93 827.73,-319.66"/>
<polygon fill="midnightblue" stroke="midnightblue" points="935.48,-334.02 945.78,-331.54 936.18,-327.05 935.48,-334.02"/>
</g>
<!-- Node19 -->
<g id="node19" class="node">
<title>Node19</title>
<g id="a_node19"><a xlink:href="classdenoptim_1_1ga_1_1_evolutionary_algorithm.html#a0f2063b722b7291daf83d62acaa683d3" target="_top" xlink:title=" ">
<polygon fill="white" stroke="black" points="455,-298.5 455,-328.5 609,-328.5 609,-298.5 455,-298.5"/>
<text text-anchor="start" x="463" y="-316.5" font-family="Helvetica,sans-Serif" font-size="10.00">denoptim.ga.Evolutionary</text>
<text text-anchor="middle" x="532" y="-305.5" font-family="Helvetica,sans-Serif" font-size="10.00">Algorithm.EvolutionaryAlgorithm</text>
</a>
</g>
</g>
<!-- Node18&#45;&gt;Node19 -->
<g id="edge24" class="edge">
<title>Node18&#45;&gt;Node19</title>
<path fill="none" stroke="midnightblue" d="M693.02,-313.5C666.51,-313.5 636.34,-313.5 609.4,-313.5"/>
<polygon fill="midnightblue" stroke="midnightblue" points="693.37,-317 703.37,-313.5 693.37,-310 693.37,-317"/>
</g>
<!-- Node20 -->
<g id="node20" class="node">
<title>Node20</title>
<g id="a_node20"><a xlink:href="classdenoptim_1_1programs_1_1denovo_1_1_g_a_runner.html#a7cafd6d78727b89dce3e2c8d06f0dd7c" target="_top" xlink:title=" ">
<polygon fill="white" stroke="black" points="464.5,-219.5 464.5,-249.5 599.5,-249.5 599.5,-219.5 464.5,-219.5"/>
<text text-anchor="start" x="472.5" y="-237.5" font-family="Helvetica,sans-Serif" font-size="10.00">denoptim.programs.denovo.</text>
<text text-anchor="middle" x="532" y="-226.5" font-family="Helvetica,sans-Serif" font-size="10.00">GARunner.runProgram</text>
</a>
</g>
</g>
<!-- Node18&#45;&gt;Node20 -->
<g id="edge25" class="edge">
<title>Node18&#45;&gt;Node20</title>
<path fill="none" stroke="midnightblue" d="M710.31,-295.22C695.31,-290.14 679.02,-284.62 664,-279.5 634.87,-269.57 602.12,-258.32 576.65,-249.55"/>
<polygon fill="midnightblue" stroke="midnightblue" points="709.36,-298.59 719.96,-298.48 711.61,-291.96 709.36,-298.59"/>
</g>
<!-- Node23 -->
<g id="node23" class="node">
<title>Node23</title>
<g id="a_node23"><a xlink:href="classdenoptim_1_1ga_1_1_e_a_utils.html#a0b958439d79fae30f14530213ad22e3a" target="_top" xlink:title="Generates up to a pair of new offspring by performing a crossover operation.">
<polygon fill="white" stroke="black" points="702,-239.5 702,-269.5 829,-269.5 829,-239.5 702,-239.5"/>
<text text-anchor="start" x="710" y="-257.5" font-family="Helvetica,sans-Serif" font-size="10.00">denoptim.ga.EAUtils.build</text>
<text text-anchor="middle" x="765.5" y="-246.5" font-family="Helvetica,sans-Serif" font-size="10.00">CandidatesByXOver</text>
</a>
</g>
</g>
<!-- Node22&#45;&gt;Node23 -->
<g id="edge28" class="edge">
<title>Node22&#45;&gt;Node23</title>
<path fill="none" stroke="midnightblue" d="M922.92,-248.83C891.7,-249.97 857.57,-251.2 829.18,-252.23"/>
<polygon fill="midnightblue" stroke="midnightblue" points="923.08,-252.33 932.94,-248.47 922.82,-245.34 923.08,-252.33"/>
</g>
<!-- Node24&#45;&gt;Node20 -->
<g id="edge30" class="edge">
<title>Node24&#45;&gt;Node20</title>
<path fill="none" stroke="midnightblue" d="M921.73,-207.89C827.17,-214.36 683.22,-224.22 599.59,-229.94"/>
<polygon fill="midnightblue" stroke="midnightblue" points="922.13,-211.37 931.87,-207.19 921.65,-204.38 922.13,-211.37"/>
</g>
<!-- Node25 -->
<g id="node25" class="node">
<title>Node25</title>
<g id="a_node25"><a xlink:href="classdenoptim_1_1programs_1_1denovo_1_1_g_a_parameters_test.html#a5f81adfed5156347b58d54172f7618d8" target="_top" xlink:title=" ">
<polygon fill="white" stroke="black" points="688.5,-151.5 688.5,-181.5 842.5,-181.5 842.5,-151.5 688.5,-151.5"/>
<text text-anchor="start" x="696.5" y="-169.5" font-family="Helvetica,sans-Serif" font-size="10.00">denoptim.programs.denovo.</text>
<text text-anchor="middle" x="765.5" y="-158.5" font-family="Helvetica,sans-Serif" font-size="10.00">GAParametersTest.testLogging</text>
</a>
</g>
</g>
<!-- Node24&#45;&gt;Node25 -->
<g id="edge31" class="edge">
<title>Node24&#45;&gt;Node25</title>
<path fill="none" stroke="midnightblue" d="M921.66,-188.35C895.65,-184.69 867.71,-180.76 842.81,-177.25"/>
<polygon fill="midnightblue" stroke="midnightblue" points="921.52,-191.87 931.91,-189.8 922.49,-184.94 921.52,-191.87"/>
</g>
<!-- Node26&#45;&gt;Node27 -->
<g id="edge33" class="edge">
<title>Node26&#45;&gt;Node27</title>
<path fill="none" stroke="midnightblue" d="M920.05,-135.69C895.29,-131.3 868.89,-126.63 845.09,-122.42"/>
<polygon fill="midnightblue" stroke="midnightblue" points="919.72,-139.18 930.18,-137.48 920.94,-132.29 919.72,-139.18"/>
</g>
<!-- Node28&#45;&gt;Node27 -->
<g id="edge35" class="edge">
<title>Node28&#45;&gt;Node27</title>
<path fill="none" stroke="midnightblue" d="M926.33,-80.2C899.79,-84.9 870.88,-90.02 845.04,-94.59"/>
<polygon fill="midnightblue" stroke="midnightblue" points="927.14,-83.61 936.37,-78.42 925.92,-76.72 927.14,-83.61"/>
</g>
</g>
</svg>
        <g id="navigator" transform="translate(0 0)" fill="#404254">
                <rect fill="#f2f5e9" fill-opacity="0.5" stroke="#606060" stroke-width=".5" x="0" y="0" width="60" height="60"/>
                <use id="zoomplus" xlink:href="#zoomPlus" x="17" y="9" onmousedown="handleZoom(evt,'in')"/>
                <use id="zoomminus" xlink:href="#zoomMin" x="42" y="9" onmousedown="handleZoom(evt,'out')"/>
                <use id="reset" xlink:href="#resetDef" x="30" y="36" onmousedown="handleReset()"/>
                <g id="arrowUp" xlink:href="#dirArrow" transform="translate(30 24)" onmousedown="handlePan(0,-1)">
                  <use xlink:href="#rim" fill="#404040">
                        <set attributeName="fill" to="#808080" begin="arrowUp.mouseover" end="arrowUp.mouseout"/>
                  </use>
                  <path fill="none" stroke="white" stroke-width="1.5" d="M0,-3.0v7 M-2.5,-0.5L0,-3.0L2.5,-0.5"/>
                </g>
                <g id="arrowRight" xlink:href="#dirArrow" transform="rotate(90) translate(36 -43)" onmousedown="handlePan(1,0)">
                  <use xlink:href="#rim" fill="#404040">
                        <set attributeName="fill" to="#808080" begin="arrowRight.mouseover" end="arrowRight.mouseout"/>
                  </use>
                  <path fill="none" stroke="white" stroke-width="1.5" d="M0,-3.0v7 M-2.5,-0.5L0,-3.0L2.5,-0.5"/>
                </g>
                <g id="arrowDown" xlink:href="#dirArrow" transform="rotate(180) translate(-30 -48)" onmousedown="handlePan(0,1)">
                  <use xlink:href="#rim" fill="#404040">
                        <set attributeName="fill" to="#808080" begin="arrowDown.mouseover" end="arrowDown.mouseout"/>
                  </use>
                  <path fill="none" stroke="white" stroke-width="1.5" d="M0,-3.0v7 M-2.5,-0.5L0,-3.0L2.5,-0.5"/>
                </g>
                <g id="arrowLeft" xlink:href="#dirArrow" transform="rotate(270) translate(-36 17)" onmousedown="handlePan(-1,0)">
                  <use xlink:href="#rim" fill="#404040">
                        <set attributeName="fill" to="#808080" begin="arrowLeft.mouseover" end="arrowLeft.mouseout"/>
                  </use>
                  <path fill="none" stroke="white" stroke-width="1.5" d="M0,-3.0v7 M-2.5,-0.5L0,-3.0L2.5,-0.5"/>
                </g>
        </g>
        <svg viewBox="0 0 15 15" width="100%" height="30px" preserveAspectRatio="xMaxYMin meet">
         <g id="arrow_out" transform="scale(0.3 0.3)">
          <a xlink:href="classdenoptim_1_1programs_1_1_run_time_parameters_a132443dda8e8278736100a7ff759f666_icgraph_org.svg" target="_base">
           <rect id="button" ry="5" rx="5" y="6" x="6" height="38" width="38"
                fill="#f2f5e9" fill-opacity="0.5" stroke="#606060" stroke-width="1.0"/>
           <path id="arrow"
             d="M 11.500037,31.436501 C 11.940474,20.09759 22.043105,11.32322 32.158766,21.979434 L 37.068811,17.246167 C 37.068811,17.246167 37.088388,32 37.088388,32 L 22.160133,31.978069 C 22.160133,31.978069 26.997745,27.140456 26.997745,27.140456 C 18.528582,18.264221 13.291696,25.230495 11.500037,31.436501 z"
             style="fill:#404040;"/>
          </a>
         </g>
        </svg>
</svg>
