<?xml version="1.0" encoding="UTF-8" standalone="no"?>
<!DOCTYPE svg PUBLIC "-//W3C//DTD SVG 1.1//EN"
 "http://www.w3.org/Graphics/SVG/1.1/DTD/svg11.dtd">
<!-- Generated by graphviz version 3.0.0 (20221109.1736)
 -->
<!-- Title: denoptim.molecularmodeling.zmatrix.ZMatrixTest.testGetIdAndSetId Pages: 1 -->
<svg width="605pt" height="137pt"
 viewBox="0.00 0.00 605.00 137.00" xmlns="http://www.w3.org/2000/svg" xmlns:xlink="http://www.w3.org/1999/xlink">
<g id="graph0" class="graph" transform="scale(1 1) rotate(0) translate(4 133)">
<title>denoptim.molecularmodeling.zmatrix.ZMatrixTest.testGetIdAndSetId</title>
<polygon fill="white" stroke="transparent" points="-4,4 -4,-133 601,-133 601,4 -4,4"/>
<!-- Node1 -->
<g id="node1" class="node">
<title>Node1</title>
<g id="a_node1"><a xlink:title=" ">
<polygon fill="#bfbfbf" stroke="black" points="0,-49.5 0,-79.5 175,-79.5 175,-49.5 0,-49.5"/>
<text text-anchor="start" x="8" y="-67.5" font-family="Helvetica,sans-Serif" font-size="10.00">denoptim.molecularmodeling.zmatrix.</text>
<text text-anchor="middle" x="87.5" y="-56.5" font-family="Helvetica,sans-Serif" font-size="10.00">ZMatrixTest.testGetIdAndSetId</text>
</a>
</g>
</g>
<!-- Node2 -->
<g id="node2" class="node">
<title>Node2</title>
<g id="a_node2"><a xlink:href="classdenoptim_1_1molecularmodeling_1_1zmatrix_1_1_z_matrix.html#a42f49eade36781cbe25048e21d15b251" target="_top" xlink:title="Get the id of the ZMatrix.">
<polygon fill="white" stroke="black" points="211,-98.5 211,-128.5 386,-128.5 386,-98.5 211,-98.5"/>
<text text-anchor="start" x="219" y="-116.5" font-family="Helvetica,sans-Serif" font-size="10.00">denoptim.molecularmodeling.zmatrix.</text>
<text text-anchor="middle" x="298.5" y="-105.5" font-family="Helvetica,sans-Serif" font-size="10.00">ZMatrix.getId</text>
</a>
</g>
</g>
<!-- Node1&#45;&gt;Node2 -->
<g id="edge1" class="edge">
<title>Node1&#45;&gt;Node2</title>
<path fill="none" stroke="midnightblue" d="M152.63,-79.53C175.1,-84.8 200.51,-90.76 223.7,-96.2"/>
<polygon fill="midnightblue" stroke="midnightblue" points="222.96,-99.62 233.49,-98.49 224.56,-92.8 222.96,-99.62"/>
</g>
<!-- Node3 -->
<g id="node3" class="node">
<title>Node3</title>
<g id="a_node3"><a xlink:href="classdenoptim_1_1molecularmodeling_1_1zmatrix_1_1_z_matrix_test.html#af057822127c5cdb8dd95809365f69f32" target="_top" xlink:title=" ">
<polygon fill="white" stroke="black" points="211,-49.5 211,-79.5 386,-79.5 386,-49.5 211,-49.5"/>
<text text-anchor="start" x="219" y="-67.5" font-family="Helvetica,sans-Serif" font-size="10.00">denoptim.molecularmodeling.zmatrix.</text>
<text text-anchor="middle" x="298.5" y="-56.5" font-family="Helvetica,sans-Serif" font-size="10.00">ZMatrixTest.getTestZMatrix</text>
</a>
</g>
</g>
<!-- Node1&#45;&gt;Node3 -->
<g id="edge2" class="edge">
<title>Node1&#45;&gt;Node3</title>
<path fill="none" stroke="midnightblue" d="M175.02,-64.5C183.49,-64.5 192.13,-64.5 200.7,-64.5"/>
<polygon fill="midnightblue" stroke="midnightblue" points="200.71,-68 210.71,-64.5 200.71,-61 200.71,-68"/>
</g>
<!-- Node6 -->
<g id="node6" class="node">
<title>Node6</title>
<g id="a_node6"><a xlink:href="classdenoptim_1_1molecularmodeling_1_1zmatrix_1_1_z_matrix.html#a6a5dddb77381cffcd8f187d3cf009c48" target="_top" xlink:title="Set the id of the ZMatrix.">
<polygon fill="white" stroke="black" points="211,-0.5 211,-30.5 386,-30.5 386,-0.5 211,-0.5"/>
<text text-anchor="start" x="219" y="-18.5" font-family="Helvetica,sans-Serif" font-size="10.00">denoptim.molecularmodeling.zmatrix.</text>
<text text-anchor="middle" x="298.5" y="-7.5" font-family="Helvetica,sans-Serif" font-size="10.00">ZMatrix.setId</text>
</a>
</g>
</g>
<!-- Node1&#45;&gt;Node6 -->
<g id="edge6" class="edge">
<title>Node1&#45;&gt;Node6</title>
<path fill="none" stroke="midnightblue" d="M152.63,-49.47C175.1,-44.2 200.51,-38.24 223.7,-32.8"/>
<polygon fill="midnightblue" stroke="midnightblue" points="224.56,-36.2 233.49,-30.51 222.96,-29.38 224.56,-36.2"/>
</g>
<!-- Node4 -->
<g id="node4" class="node">
<title>Node4</title>
<g id="a_node4"><a xlink:href="classdenoptim_1_1molecularmodeling_1_1zmatrix_1_1_z_matrix.html#ae9486d28880e0c8225c0092acab98165" target="_top" xlink:title="Add an atom to the ZMatrix.">
<polygon fill="white" stroke="black" points="422,-82.5 422,-112.5 597,-112.5 597,-82.5 422,-82.5"/>
<text text-anchor="start" x="430" y="-100.5" font-family="Helvetica,sans-Serif" font-size="10.00">denoptim.molecularmodeling.zmatrix.</text>
<text text-anchor="middle" x="509.5" y="-89.5" font-family="Helvetica,sans-Serif" font-size="10.00">ZMatrix.addAtom</text>
</a>
</g>
</g>
<!-- Node3&#45;&gt;Node4 -->
<g id="edge3" class="edge">
<title>Node3&#45;&gt;Node4</title>
<path fill="none" stroke="midnightblue" d="M386.02,-78.16C394.49,-79.5 403.13,-80.86 411.7,-82.22"/>
<polygon fill="midnightblue" stroke="midnightblue" points="411.29,-85.69 421.71,-83.8 412.38,-78.78 411.29,-85.69"/>
</g>
<!-- Node5 -->
<g id="node5" class="node">
<title>Node5</title>
<g id="a_node5"><a xlink:href="classdenoptim_1_1molecularmodeling_1_1zmatrix_1_1_z_matrix.html#a74973227abbe71ddf68a01051675a16c" target="_top" xlink:title="Add a bond between the two atoms at the given indices.">
<polygon fill="white" stroke="black" points="422,-15.5 422,-45.5 597,-45.5 597,-15.5 422,-15.5"/>
<text text-anchor="start" x="430" y="-33.5" font-family="Helvetica,sans-Serif" font-size="10.00">denoptim.molecularmodeling.zmatrix.</text>
<text text-anchor="middle" x="509.5" y="-22.5" font-family="Helvetica,sans-Serif" font-size="10.00">ZMatrix.addBond</text>
</a>
</g>
</g>
<!-- Node3&#45;&gt;Node5 -->
<g id="edge4" class="edge">
<title>Node3&#45;&gt;Node5</title>
<path fill="none" stroke="midnightblue" d="M386.02,-50.43C394.49,-49.05 403.13,-47.64 411.7,-46.25"/>
<polygon fill="midnightblue" stroke="midnightblue" points="412.4,-49.68 421.71,-44.62 411.28,-42.77 412.4,-49.68"/>
</g>
<!-- Node5&#45;&gt;Node5 -->
<g id="edge5" class="edge">
<title>Node5&#45;&gt;Node5</title>
<path fill="none" stroke="midnightblue" d="M472.9,-45.66C464.08,-55.06 476.28,-64 509.5,-64 529.75,-64 542.18,-60.68 546.81,-55.96"/>
<polygon fill="midnightblue" stroke="midnightblue" points="550.28,-55.39 546.1,-45.66 543.3,-55.88 550.28,-55.39"/>
</g>
</g>
</svg>
