<?xml version="1.0" encoding="UTF-8" standalone="no"?>
<!DOCTYPE svg PUBLIC "-//W3C//DTD SVG 1.1//EN"
 "http://www.w3.org/Graphics/SVG/1.1/DTD/svg11.dtd">
<!-- Generated by graphviz version 3.0.0 (20221109.1736)
 -->
<!-- Title: denoptim.gui.GAParametersForm.createLvlProbDataset Pages: 1 -->
<svg width="503pt" height="88pt"
 viewBox="0.00 0.00 503.00 88.00" xmlns="http://www.w3.org/2000/svg" xmlns:xlink="http://www.w3.org/1999/xlink">
<g id="graph0" class="graph" transform="scale(1 1) rotate(0) translate(4 84)">
<title>denoptim.gui.GAParametersForm.createLvlProbDataset</title>
<polygon fill="white" stroke="transparent" points="-4,4 -4,-84 499,-84 499,4 -4,4"/>
<!-- Node1 -->
<g id="node1" class="node">
<title>Node1</title>
<g id="a_node1"><a xlink:title=" ">
<polygon fill="#bfbfbf" stroke="black" points="357,-24.5 357,-54.5 495,-54.5 495,-24.5 357,-24.5"/>
<text text-anchor="start" x="365" y="-42.5" font-family="Helvetica,sans-Serif" font-size="10.00">denoptim.gui.GAParameters</text>
<text text-anchor="middle" x="426" y="-31.5" font-family="Helvetica,sans-Serif" font-size="10.00">Form.createLvlProbDataset</text>
</a>
</g>
</g>
<!-- Node2 -->
<g id="node2" class="node">
<title>Node2</title>
<g id="a_node2"><a xlink:href="classdenoptim_1_1gui_1_1_g_a_parameters_form.html#a158ba2f1ca48d1c41d976fb1e29270d4" target="_top" xlink:title=" ">
<polygon fill="white" stroke="black" points="178.5,-49.5 178.5,-79.5 316.5,-79.5 316.5,-49.5 178.5,-49.5"/>
<text text-anchor="start" x="186.5" y="-67.5" font-family="Helvetica,sans-Serif" font-size="10.00">denoptim.gui.GAParameters</text>
<text text-anchor="middle" x="247.5" y="-56.5" font-family="Helvetica,sans-Serif" font-size="10.00">Form.createLvlProbGraph</text>
</a>
</g>
</g>
<!-- Node1&#45;&gt;Node2 -->
<g id="edge1" class="edge">
<title>Node1&#45;&gt;Node2</title>
<path fill="none" stroke="midnightblue" d="M346.77,-50.58C336.7,-52.01 326.45,-53.46 316.56,-54.86"/>
<polygon fill="midnightblue" stroke="midnightblue" points="347.35,-54.03 356.76,-49.17 346.37,-47.1 347.35,-54.03"/>
</g>
<!-- Node4 -->
<g id="node4" class="node">
<title>Node4</title>
<g id="a_node4"><a xlink:href="classdenoptim_1_1gui_1_1_g_a_parameters_form.html#ad06889bcd32122fe3f16825f9525daca" target="_top" xlink:title=" ">
<polygon fill="white" stroke="black" points="174,-0.5 174,-30.5 321,-30.5 321,-0.5 174,-0.5"/>
<text text-anchor="start" x="182" y="-18.5" font-family="Helvetica,sans-Serif" font-size="10.00">denoptim.gui.GAParameters</text>
<text text-anchor="middle" x="247.5" y="-7.5" font-family="Helvetica,sans-Serif" font-size="10.00">Form.updateSubsProbDataset</text>
</a>
</g>
</g>
<!-- Node1&#45;&gt;Node4 -->
<g id="edge3" class="edge">
<title>Node1&#45;&gt;Node4</title>
<path fill="none" stroke="midnightblue" d="M346.84,-28.87C338.33,-27.71 329.68,-26.54 321.24,-25.39"/>
<polygon fill="midnightblue" stroke="midnightblue" points="346.38,-32.34 356.76,-30.22 347.32,-25.41 346.38,-32.34"/>
</g>
<!-- Node3 -->
<g id="node3" class="node">
<title>Node3</title>
<g id="a_node3"><a xlink:href="classdenoptim_1_1gui_1_1_g_a_parameters_form.html#a1da1237b4f0c1d5c5335abc8c2bb2602" target="_top" xlink:title=" ">
<polygon fill="white" stroke="black" points="0,-24.5 0,-54.5 138,-54.5 138,-24.5 0,-24.5"/>
<text text-anchor="start" x="8" y="-42.5" font-family="Helvetica,sans-Serif" font-size="10.00">denoptim.gui.GAParameters</text>
<text text-anchor="middle" x="69" y="-31.5" font-family="Helvetica,sans-Serif" font-size="10.00">Form.GAParametersForm</text>
</a>
</g>
</g>
<!-- Node2&#45;&gt;Node3 -->
<g id="edge2" class="edge">
<title>Node2&#45;&gt;Node3</title>
<path fill="none" stroke="midnightblue" d="M168.27,-53.42C158.2,-51.99 147.95,-50.54 138.06,-49.14"/>
<polygon fill="midnightblue" stroke="midnightblue" points="167.87,-56.9 178.26,-54.83 168.85,-49.97 167.87,-56.9"/>
</g>
<!-- Node4&#45;&gt;Node3 -->
<g id="edge4" class="edge">
<title>Node4&#45;&gt;Node3</title>
<path fill="none" stroke="midnightblue" d="M163.85,-26.74C155.2,-27.92 146.47,-29.1 138.01,-30.25"/>
<polygon fill="midnightblue" stroke="midnightblue" points="164.51,-30.18 173.95,-25.37 163.57,-23.24 164.51,-30.18"/>
</g>
</g>
</svg>
