<?xml version="1.0" encoding="UTF-8" standalone="no"?>
<!DOCTYPE svg PUBLIC "-//W3C//DTD SVG 1.1//EN"
 "http://www.w3.org/Graphics/SVG/1.1/DTD/svg11.dtd">
<!-- Generated by graphviz version 3.0.0 (20221109.1736)
 -->
<!-- Title: denoptim.programs.fragmenter.CuttingRule.satisfiesOptions Pages: 1 -->
<svg width="381pt" height="498pt"
 viewBox="0.00 0.00 381.00 498.00" xmlns="http://www.w3.org/2000/svg" xmlns:xlink="http://www.w3.org/1999/xlink">
<g id="graph0" class="graph" transform="scale(1 1) rotate(0) translate(4 494)">
<title>denoptim.programs.fragmenter.CuttingRule.satisfiesOptions</title>
<polygon fill="white" stroke="transparent" points="-4,4 -4,-494 377,-494 377,4 -4,4"/>
<!-- Node1 -->
<g id="node1" class="node">
<title>Node1</title>
<g id="a_node1"><a xlink:title="Checks if a given bond satisfies the additional options of this rule beyond the matching of the SMART...">
<polygon fill="#bfbfbf" stroke="black" points="0,-238.5 0,-268.5 150,-268.5 150,-238.5 0,-238.5"/>
<text text-anchor="start" x="8" y="-256.5" font-family="Helvetica,sans-Serif" font-size="10.00">denoptim.programs.fragmenter.</text>
<text text-anchor="middle" x="75" y="-245.5" font-family="Helvetica,sans-Serif" font-size="10.00">CuttingRule.satisfiesOptions</text>
</a>
</g>
</g>
<!-- Node2 -->
<g id="node2" class="node">
<title>Node2</title>
<g id="a_node2"><a xlink:href="classdenoptim_1_1programs_1_1fragmenter_1_1_matched_bond.html#ad5e7de6cfcb2a03d14a17326fc870c5c" target="_top" xlink:title="Returns the atom matching subclass &#39;0&#39;.">
<polygon fill="white" stroke="black" points="200.5,-459.5 200.5,-489.5 358.5,-489.5 358.5,-459.5 200.5,-459.5"/>
<text text-anchor="start" x="208.5" y="-477.5" font-family="Helvetica,sans-Serif" font-size="10.00">denoptim.programs.fragmenter.</text>
<text text-anchor="middle" x="279.5" y="-466.5" font-family="Helvetica,sans-Serif" font-size="10.00">MatchedBond.getAtmSubClass0</text>
</a>
</g>
</g>
<!-- Node1&#45;&gt;Node2 -->
<g id="edge1" class="edge">
<title>Node1&#45;&gt;Node2</title>
<path fill="none" stroke="midnightblue" d="M79.94,-268.54C90.46,-305.56 122.76,-401.65 186,-450.5 187.81,-451.9 189.7,-453.22 191.65,-454.46"/>
<polygon fill="midnightblue" stroke="midnightblue" points="190.1,-457.61 200.53,-459.44 193.52,-451.5 190.1,-457.61"/>
</g>
<!-- Node3 -->
<g id="node3" class="node">
<title>Node3</title>
<g id="a_node3"><a xlink:href="classdenoptim_1_1programs_1_1fragmenter_1_1_matched_bond.html#a59bf08633f90f0ff3980c7d9544b0b34" target="_top" xlink:title="Returns the atom matching subclass &#39;1&#39;.">
<polygon fill="white" stroke="black" points="200.5,-410.5 200.5,-440.5 358.5,-440.5 358.5,-410.5 200.5,-410.5"/>
<text text-anchor="start" x="208.5" y="-428.5" font-family="Helvetica,sans-Serif" font-size="10.00">denoptim.programs.fragmenter.</text>
<text text-anchor="middle" x="279.5" y="-417.5" font-family="Helvetica,sans-Serif" font-size="10.00">MatchedBond.getAtmSubClass1</text>
</a>
</g>
</g>
<!-- Node1&#45;&gt;Node3 -->
<g id="edge2" class="edge">
<title>Node1&#45;&gt;Node3</title>
<path fill="none" stroke="midnightblue" d="M82.94,-268.76C97.5,-299.01 134.22,-366.63 186,-401.5 188.31,-403.05 190.71,-404.51 193.18,-405.87"/>
<polygon fill="midnightblue" stroke="midnightblue" points="191.9,-409.13 202.42,-410.39 194.97,-402.85 191.9,-409.13"/>
</g>
<!-- Node4 -->
<g id="node4" class="node">
<title>Node4</title>
<g id="a_node4"><a xlink:href="classdenoptim_1_1utils_1_1_many_s_m_a_r_t_s_query.html#a3cd7e9334f87d11a46f3a424beaa6751" target="_top" xlink:title=" ">
<polygon fill="white" stroke="black" points="187,-361.5 187,-391.5 372,-391.5 372,-361.5 187,-361.5"/>
<text text-anchor="start" x="195" y="-379.5" font-family="Helvetica,sans-Serif" font-size="10.00">denoptim.utils.ManySMARTSQuery.get</text>
<text text-anchor="middle" x="279.5" y="-368.5" font-family="Helvetica,sans-Serif" font-size="10.00">MatchesOfSMARTS</text>
</a>
</g>
</g>
<!-- Node1&#45;&gt;Node4 -->
<g id="edge3" class="edge">
<title>Node1&#45;&gt;Node4</title>
<path fill="none" stroke="midnightblue" d="M88.56,-268.7C107.43,-290.55 145.27,-330.6 186,-352.5 189.52,-354.39 193.19,-356.14 196.96,-357.75"/>
<polygon fill="midnightblue" stroke="midnightblue" points="195.9,-361.1 206.49,-361.5 198.46,-354.58 195.9,-361.1"/>
</g>
<!-- Node5 -->
<g id="node5" class="node">
<title>Node5</title>
<g id="a_node5"><a xlink:href="classdenoptim_1_1utils_1_1_many_s_m_a_r_t_s_query.html#a3506079a3de962c32b2c715f8cea96e6" target="_top" xlink:title=" ">
<polygon fill="white" stroke="black" points="187,-312.5 187,-342.5 372,-342.5 372,-312.5 187,-312.5"/>
<text text-anchor="start" x="195" y="-330.5" font-family="Helvetica,sans-Serif" font-size="10.00">denoptim.utils.ManySMARTSQuery.get</text>
<text text-anchor="middle" x="279.5" y="-319.5" font-family="Helvetica,sans-Serif" font-size="10.00">Message</text>
</a>
</g>
</g>
<!-- Node1&#45;&gt;Node5 -->
<g id="edge4" class="edge">
<title>Node1&#45;&gt;Node5</title>
<path fill="none" stroke="midnightblue" d="M105.31,-268.5C127.15,-279.26 157.92,-293.56 186,-303.5 191.95,-305.61 198.18,-307.62 204.47,-309.52"/>
<polygon fill="midnightblue" stroke="midnightblue" points="203.79,-312.96 214.37,-312.4 205.75,-306.24 203.79,-312.96"/>
</g>
<!-- Node6 -->
<g id="node6" class="node">
<title>Node6</title>
<g id="a_node6"><a xlink:href="classdenoptim_1_1utils_1_1_many_s_m_a_r_t_s_query.html#aea287dfe72ffc150250c8180706289bd" target="_top" xlink:title=" ">
<polygon fill="white" stroke="black" points="187,-263.5 187,-293.5 372,-293.5 372,-263.5 187,-263.5"/>
<text text-anchor="start" x="195" y="-281.5" font-family="Helvetica,sans-Serif" font-size="10.00">denoptim.utils.ManySMARTSQuery.get</text>
<text text-anchor="middle" x="279.5" y="-270.5" font-family="Helvetica,sans-Serif" font-size="10.00">NumMatchesOfQuery</text>
</a>
</g>
</g>
<!-- Node1&#45;&gt;Node6 -->
<g id="edge5" class="edge">
<title>Node1&#45;&gt;Node6</title>
<path fill="none" stroke="midnightblue" d="M150.25,-262.67C158.87,-263.73 167.76,-264.83 176.66,-265.93"/>
<polygon fill="midnightblue" stroke="midnightblue" points="176.34,-269.41 186.69,-267.17 177.19,-262.47 176.34,-269.41"/>
</g>
<!-- Node7 -->
<g id="node7" class="node">
<title>Node7</title>
<g id="a_node7"><a xlink:href="classdenoptim_1_1programs_1_1fragmenter_1_1_cutting_rule.html#a9f007fc57ef012372a7fb2ae44fd6f66" target="_top" xlink:title="Get the SMARTS query of the first atom (SubClass 0)">
<polygon fill="white" stroke="black" points="203.5,-214.5 203.5,-244.5 355.5,-244.5 355.5,-214.5 203.5,-214.5"/>
<text text-anchor="start" x="211.5" y="-232.5" font-family="Helvetica,sans-Serif" font-size="10.00">denoptim.programs.fragmenter.</text>
<text text-anchor="middle" x="279.5" y="-221.5" font-family="Helvetica,sans-Serif" font-size="10.00">CuttingRule.getSMARTSAtom0</text>
</a>
</g>
</g>
<!-- Node1&#45;&gt;Node7 -->
<g id="edge6" class="edge">
<title>Node1&#45;&gt;Node7</title>
<path fill="none" stroke="midnightblue" d="M150.25,-244.7C164.15,-243.05 178.78,-241.32 192.99,-239.64"/>
<polygon fill="midnightblue" stroke="midnightblue" points="193.72,-243.07 203.24,-238.42 192.9,-236.12 193.72,-243.07"/>
</g>
<!-- Node8 -->
<g id="node8" class="node">
<title>Node8</title>
<g id="a_node8"><a xlink:href="classdenoptim_1_1programs_1_1fragmenter_1_1_cutting_rule.html#a672bec1cfce657b93283db403b89e922" target="_top" xlink:title="Get the SMARTS query of the second atom (SubClass 1)">
<polygon fill="white" stroke="black" points="203.5,-165.5 203.5,-195.5 355.5,-195.5 355.5,-165.5 203.5,-165.5"/>
<text text-anchor="start" x="211.5" y="-183.5" font-family="Helvetica,sans-Serif" font-size="10.00">denoptim.programs.fragmenter.</text>
<text text-anchor="middle" x="279.5" y="-172.5" font-family="Helvetica,sans-Serif" font-size="10.00">CuttingRule.getSMARTSAtom1</text>
</a>
</g>
</g>
<!-- Node1&#45;&gt;Node8 -->
<g id="edge7" class="edge">
<title>Node1&#45;&gt;Node8</title>
<path fill="none" stroke="midnightblue" d="M107.28,-238.38C129.02,-228.23 158.87,-215.03 186,-205.5 193.09,-203.01 200.57,-200.62 208.06,-198.37"/>
<polygon fill="midnightblue" stroke="midnightblue" points="209.28,-201.66 217.9,-195.5 207.32,-194.94 209.28,-201.66"/>
</g>
<!-- Node9 -->
<g id="node9" class="node">
<title>Node9</title>
<g id="a_node9"><a xlink:href="classdenoptim_1_1programs_1_1fragmenter_1_1_cutting_rule.html#ada45f336f895c367bc636c802b9f3142" target="_top" xlink:title="Get the SMARTS query of the bond.">
<polygon fill="white" stroke="black" points="204.5,-116.5 204.5,-146.5 354.5,-146.5 354.5,-116.5 204.5,-116.5"/>
<text text-anchor="start" x="212.5" y="-134.5" font-family="Helvetica,sans-Serif" font-size="10.00">denoptim.programs.fragmenter.</text>
<text text-anchor="middle" x="279.5" y="-123.5" font-family="Helvetica,sans-Serif" font-size="10.00">CuttingRule.getSMARTSBnd</text>
</a>
</g>
</g>
<!-- Node1&#45;&gt;Node9 -->
<g id="edge8" class="edge">
<title>Node1&#45;&gt;Node9</title>
<path fill="none" stroke="midnightblue" d="M88.97,-238.31C108.07,-216.91 145.86,-178.08 186,-156.5 190.26,-154.21 194.75,-152.11 199.36,-150.2"/>
<polygon fill="midnightblue" stroke="midnightblue" points="200.86,-153.38 208.95,-146.53 198.36,-146.84 200.86,-153.38"/>
</g>
<!-- Node10 -->
<g id="node10" class="node">
<title>Node10</title>
<g id="a_node10"><a xlink:href="classdenoptim_1_1utils_1_1_many_s_m_a_r_t_s_query.html#aaffb007354a24c9fb679742e431c9980" target="_top" xlink:title=" ">
<polygon fill="white" stroke="black" points="186,-67.5 186,-97.5 373,-97.5 373,-67.5 186,-67.5"/>
<text text-anchor="start" x="194" y="-85.5" font-family="Helvetica,sans-Serif" font-size="10.00">denoptim.utils.ManySMARTSQuery.has</text>
<text text-anchor="middle" x="279.5" y="-74.5" font-family="Helvetica,sans-Serif" font-size="10.00">Problems</text>
</a>
</g>
</g>
<!-- Node1&#45;&gt;Node10 -->
<g id="edge9" class="edge">
<title>Node1&#45;&gt;Node10</title>
<path fill="none" stroke="midnightblue" d="M83.03,-238.49C97.74,-208.73 134.73,-142.16 186,-107.5 188.91,-105.53 191.98,-103.72 195.14,-102.04"/>
<polygon fill="midnightblue" stroke="midnightblue" points="196.78,-105.14 204.31,-97.7 193.78,-98.82 196.78,-105.14"/>
</g>
<!-- Node11 -->
<g id="node11" class="node">
<title>Node11</title>
<g id="a_node11"><a xlink:href="classdenoptim_1_1utils_1_1_molecule_utils.html#af975649c8225c4653efb1135d8360c2d" target="_top" xlink:title="Check element symbol corresponds to real element of Periodic Table.">
<polygon fill="white" stroke="black" points="205.5,-0.5 205.5,-30.5 353.5,-30.5 353.5,-0.5 205.5,-0.5"/>
<text text-anchor="start" x="213.5" y="-18.5" font-family="Helvetica,sans-Serif" font-size="10.00">denoptim.utils.MoleculeUtils.is</text>
<text text-anchor="middle" x="279.5" y="-7.5" font-family="Helvetica,sans-Serif" font-size="10.00">Element</text>
</a>
</g>
</g>
<!-- Node1&#45;&gt;Node11 -->
<g id="edge10" class="edge">
<title>Node1&#45;&gt;Node11</title>
<path fill="none" stroke="midnightblue" d="M80.92,-238.25C93.19,-202.4 128.35,-111.8 186,-58.5 196.46,-48.83 209.49,-40.99 222.43,-34.78"/>
<polygon fill="midnightblue" stroke="midnightblue" points="224.13,-37.85 231.8,-30.55 221.25,-31.48 224.13,-37.85"/>
</g>
<!-- Node11&#45;&gt;Node11 -->
<g id="edge11" class="edge">
<title>Node11&#45;&gt;Node11</title>
<path fill="none" stroke="midnightblue" d="M243.95,-30.66C235.38,-40.06 247.23,-49 279.5,-49 299.17,-49 311.25,-45.68 315.75,-40.96"/>
<polygon fill="midnightblue" stroke="midnightblue" points="319.22,-40.4 315.05,-30.66 312.23,-40.87 319.22,-40.4"/>
</g>
</g>
</svg>
