<?xml version="1.0" encoding="UTF-8" standalone="no"?>
<!DOCTYPE svg PUBLIC "-//W3C//DTD SVG 1.1//EN"
 "http://www.w3.org/Graphics/SVG/1.1/DTD/svg11.dtd">
<!-- Generated by graphviz version 3.0.0 (20221109.1736)
 -->
<!-- Title: denoptim.graph.Template.setContractLevel Pages: 1 -->
<!--zoomable 367 -->
<svg id="main" version="1.1" xmlns="http://www.w3.org/2000/svg" xmlns:xlink="http://www.w3.org/1999/xlink" xml:space="preserve" onload="init(evt)">
<style type="text/css"><![CDATA[
.edge:hover path { stroke: red; }
.edge:hover polygon { stroke: red; fill: red; }
]]></style>
<script type="text/javascript"><![CDATA[
var edges = document.getElementsByTagName('g');
if (edges && edges.length) {
  for (var i=0;i<edges.length;i++) {
    if (edges[i].id.substr(0,4)=='edge') {
      edges[i].setAttribute('class','edge');
    }
  }
}
]]></script>
        <defs>
                <circle id="rim" cx="0" cy="0" r="7"/>
                <circle id="rim2" cx="0" cy="0" r="3.5"/>
                <g id="zoomPlus">
                        <use xlink:href="#rim" fill="#404040">
                                <set attributeName="fill" to="#808080" begin="zoomplus.mouseover" end="zoomplus.mouseout"/>
                        </use>
                        <path d="M-4,0h8M0,-4v8" fill="none" stroke="white" stroke-width="1.5" pointer-events="none"/>
                </g>
                <g id="zoomMin">
                        <use xlink:href="#rim" fill="#404040">
                                <set attributeName="fill" to="#808080" begin="zoomminus.mouseover" end="zoomminus.mouseout"/>
                        </use>
                        <path d="M-4,0h8" fill="none" stroke="white" stroke-width="1.5" pointer-events="none"/>
                </g>
                <g id="dirArrow">
                        <path fill="none" stroke="white" stroke-width="1.5" d="M0,-3.0v7 M-2.5,-0.5L0,-3.0L2.5,-0.5"/>
                </g>
               <g id="resetDef">
                       <use xlink:href="#rim2" fill="#404040">
                               <set attributeName="fill" to="#808080" begin="reset.mouseover" end="reset.mouseout"/>
                       </use>
               </g>
        </defs>

<script type="text/javascript">
var viewWidth = 844;
var viewHeight = 367;
var sectionId = 'dynsection-42';
</script>
<script xlink:href="svgpan.js"/>
<svg id="graph" class="graph">
<g id="viewport">
<title>denoptim.graph.Template.setContractLevel</title>
<polygon fill="white" stroke="transparent" points="-4,4 -4,-363 840,-363 840,4 -4,4"/>
<!-- Node1 -->
<g id="node1" class="node">
<title>Node1</title>
<g id="a_node1"><a xlink:title="Imposes the given contract to this template.">
<polygon fill="#bfbfbf" stroke="black" points="695,-169.5 695,-199.5 836,-199.5 836,-169.5 695,-169.5"/>
<text text-anchor="start" x="703" y="-187.5" font-family="Helvetica,sans-Serif" font-size="10.00">denoptim.graph.Template.set</text>
<text text-anchor="middle" x="765.5" y="-176.5" font-family="Helvetica,sans-Serif" font-size="10.00">ContractLevel</text>
</a>
</g>
</g>
<!-- Node2 -->
<g id="node2" class="node">
<title>Node2</title>
<g id="a_node2"><a xlink:href="classdenoptim_1_1graph_1_1_d_graph.html#a1cb3c55237933f7a4d32e002175b84bc" target="_top" xlink:title="Searches for the given pattern type and generated a new graph where each set of (clones of) vertexes ...">
<polygon fill="white" stroke="black" points="490.5,-328.5 490.5,-358.5 639.5,-358.5 639.5,-328.5 490.5,-328.5"/>
<text text-anchor="start" x="498.5" y="-346.5" font-family="Helvetica,sans-Serif" font-size="10.00">denoptim.graph.DGraph.embed</text>
<text text-anchor="middle" x="565" y="-335.5" font-family="Helvetica,sans-Serif" font-size="10.00">PatternsInTemplates</text>
</a>
</g>
</g>
<!-- Node1&#45;&gt;Node2 -->
<g id="edge1" class="edge">
<title>Node1&#45;&gt;Node2</title>
<path fill="none" stroke="midnightblue" d="M750.99,-208.27C733.39,-237.18 699.98,-285.55 659,-313.5 650.17,-319.52 640.05,-324.4 629.82,-328.33"/>
<polygon fill="midnightblue" stroke="midnightblue" points="754.03,-210.01 756.13,-199.62 748.01,-206.43 754.03,-210.01"/>
</g>
<!-- Node3 -->
<g id="node3" class="node">
<title>Node3</title>
<g id="a_node3"><a xlink:href="classdenoptim_1_1ga_1_1_graph_operations_test.html#a0dd5e8c7f80f7e7c7fa2d46e01355a2d" target="_top" xlink:title="Generates a pair of graphs that include templates with free content.">
<polygon fill="white" stroke="black" points="492.5,-240.5 492.5,-270.5 637.5,-270.5 637.5,-240.5 492.5,-240.5"/>
<text text-anchor="start" x="500.5" y="-258.5" font-family="Helvetica,sans-Serif" font-size="10.00">denoptim.ga.GraphOperations</text>
<text text-anchor="middle" x="565" y="-247.5" font-family="Helvetica,sans-Serif" font-size="10.00">Test.getPairOfTestGraphs</text>
</a>
</g>
</g>
<!-- Node1&#45;&gt;Node3 -->
<g id="edge2" class="edge">
<title>Node1&#45;&gt;Node3</title>
<path fill="none" stroke="midnightblue" d="M724.92,-204.01C705.39,-213.16 681.29,-223.72 659,-231.5 649.71,-234.74 639.76,-237.76 629.96,-240.5"/>
<polygon fill="midnightblue" stroke="midnightblue" points="726.58,-207.1 734.12,-199.66 723.58,-200.78 726.58,-207.1"/>
</g>
<!-- Node4 -->
<g id="node4" class="node">
<title>Node4</title>
<g id="a_node4"><a xlink:href="classdenoptim_1_1ga_1_1_graph_operations_test.html#a9fcf8fffef10a59df722c92e94da2815" target="_top" xlink:title=" ">
<polygon fill="white" stroke="black" points="242,-284.5 242,-314.5 431,-314.5 431,-284.5 242,-284.5"/>
<text text-anchor="start" x="250" y="-302.5" font-family="Helvetica,sans-Serif" font-size="10.00">denoptim.ga.GraphOperations</text>
<text text-anchor="middle" x="336.5" y="-291.5" font-family="Helvetica,sans-Serif" font-size="10.00">Test.testLocateCompatibleXOverPoints</text>
</a>
</g>
</g>
<!-- Node1&#45;&gt;Node4 -->
<g id="edge17" class="edge">
<title>Node1&#45;&gt;Node4</title>
<path fill="none" stroke="midnightblue" d="M747.26,-207.49C728.44,-230.58 695.99,-264.92 659,-280.5 586.86,-310.89 497.47,-313.72 431.27,-310.05"/>
<polygon fill="midnightblue" stroke="midnightblue" points="750.09,-209.55 753.56,-199.54 744.61,-205.2 750.09,-209.55"/>
</g>
<!-- Node5 -->
<g id="node5" class="node">
<title>Node5</title>
<g id="a_node5"><a xlink:href="classdenoptim_1_1ga_1_1_population_test.html#ad6c0ff8cf3b73b88407f1a8ce2d699dd" target="_top" xlink:title="Builds a pair of graphs that contain templates with ContractLevel#FREE contract.">
<polygon fill="white" stroke="black" points="489,-103.5 489,-133.5 641,-133.5 641,-103.5 489,-103.5"/>
<text text-anchor="start" x="497" y="-121.5" font-family="Helvetica,sans-Serif" font-size="10.00">denoptim.ga.PopulationTest.get</text>
<text text-anchor="middle" x="565" y="-110.5" font-family="Helvetica,sans-Serif" font-size="10.00">PairOfTestGraphsB</text>
</a>
</g>
</g>
<!-- Node1&#45;&gt;Node5 -->
<g id="edge4" class="edge">
<title>Node1&#45;&gt;Node5</title>
<path fill="none" stroke="midnightblue" d="M711.32,-166.16C694.59,-160.44 676.04,-154.16 659,-148.5 644.19,-143.58 628.01,-138.33 613.36,-133.61"/>
<polygon fill="midnightblue" stroke="midnightblue" points="710.33,-169.52 720.93,-169.45 712.6,-162.9 710.33,-169.52"/>
</g>
<!-- Node6 -->
<g id="node6" class="node">
<title>Node6</title>
<g id="a_node6"><a xlink:href="classdenoptim_1_1ga_1_1_population_test.html#a41f0c8d31458a49c72e7b22daf45073a" target="_top" xlink:title="Builds a pair of graphs that contain templates with ContractLevel#FREE contract.">
<polygon fill="white" stroke="black" points="260.5,-147.5 260.5,-177.5 412.5,-177.5 412.5,-147.5 260.5,-147.5"/>
<text text-anchor="start" x="268.5" y="-165.5" font-family="Helvetica,sans-Serif" font-size="10.00">denoptim.ga.PopulationTest.get</text>
<text text-anchor="middle" x="336.5" y="-154.5" font-family="Helvetica,sans-Serif" font-size="10.00">PairOfTestGraphsBxoxo</text>
</a>
</g>
</g>
<!-- Node1&#45;&gt;Node6 -->
<g id="edge13" class="edge">
<title>Node1&#45;&gt;Node6</title>
<path fill="none" stroke="midnightblue" d="M684.7,-180.39C606.78,-176.37 489.11,-170.31 412.78,-166.38"/>
<polygon fill="midnightblue" stroke="midnightblue" points="684.78,-183.9 694.94,-180.92 685.14,-176.91 684.78,-183.9"/>
</g>
<!-- Node8 -->
<g id="node8" class="node">
<title>Node8</title>
<g id="a_node8"><a xlink:href="classdenoptim_1_1ga_1_1_e_a_utils_test.html#ae0baa3684be9b8a4af611083649a9e6d" target="_top" xlink:title=" ">
<polygon fill="white" stroke="black" points="238,-49.5 238,-79.5 435,-79.5 435,-49.5 238,-49.5"/>
<text text-anchor="start" x="246" y="-67.5" font-family="Helvetica,sans-Serif" font-size="10.00">denoptim.ga.EAUtilsTest.test</text>
<text text-anchor="middle" x="336.5" y="-56.5" font-family="Helvetica,sans-Serif" font-size="10.00">BuildByXOver_Embedded_FixedStructure</text>
</a>
</g>
</g>
<!-- Node1&#45;&gt;Node8 -->
<g id="edge16" class="edge">
<title>Node1&#45;&gt;Node8</title>
<path fill="none" stroke="midnightblue" d="M745.3,-161.47C725.95,-140.05 694,-109.29 659,-94.5 588.12,-64.56 500.83,-58.1 435.1,-58.55"/>
<polygon fill="midnightblue" stroke="midnightblue" points="742.84,-163.98 752.08,-169.17 748.1,-159.35 742.84,-163.98"/>
</g>
<!-- Node11 -->
<g id="node11" class="node">
<title>Node11</title>
<g id="a_node11"><a xlink:href="classdenoptim_1_1ga_1_1_population_test.html#aec2f105b3ec1dad337b2a1708b803439" target="_top" xlink:title="Builds a pair of graphs that contain templates with ContractLevel#FREE contract.">
<polygon fill="white" stroke="black" points="489,-191.5 489,-221.5 641,-221.5 641,-191.5 489,-191.5"/>
<text text-anchor="start" x="497" y="-209.5" font-family="Helvetica,sans-Serif" font-size="10.00">denoptim.ga.PopulationTest.get</text>
<text text-anchor="middle" x="565" y="-198.5" font-family="Helvetica,sans-Serif" font-size="10.00">PairOfTestGraphsBxo</text>
</a>
</g>
</g>
<!-- Node1&#45;&gt;Node11 -->
<g id="edge10" class="edge">
<title>Node1&#45;&gt;Node11</title>
<path fill="none" stroke="midnightblue" d="M684.52,-193.36C670.24,-194.95 655.41,-196.59 641.28,-198.16"/>
<polygon fill="midnightblue" stroke="midnightblue" points="685.24,-196.81 694.8,-192.23 684.47,-189.85 685.24,-196.81"/>
</g>
<!-- Node12 -->
<g id="node12" class="node">
<title>Node12</title>
<g id="a_node12"><a xlink:href="classdenoptim_1_1gui_1_1_g_u_i_graph_handler.html#af5b000c105018cbd7c262b34f9750044" target="_top" xlink:title="Initialize the panel and add buttons.">
<polygon fill="white" stroke="black" points="471,-12 471,-31 659,-31 659,-12 471,-12"/>
<text text-anchor="middle" x="565" y="-19" font-family="Helvetica,sans-Serif" font-size="10.00">denoptim.gui.GUIGraphHandler.initialize</text>
</a>
</g>
</g>
<!-- Node1&#45;&gt;Node12 -->
<g id="edge14" class="edge">
<title>Node1&#45;&gt;Node12</title>
<path fill="none" stroke="midnightblue" d="M750.53,-160.53C732.67,-131.83 699.22,-84.08 659,-55.5 643.31,-44.35 623.54,-36.44 606.28,-31.08"/>
<polygon fill="midnightblue" stroke="midnightblue" points="747.57,-162.41 755.76,-169.13 753.55,-158.77 747.57,-162.41"/>
</g>
<!-- Node3&#45;&gt;Node4 -->
<g id="edge3" class="edge">
<title>Node3&#45;&gt;Node4</title>
<path fill="none" stroke="midnightblue" d="M482.37,-271.36C460.41,-275.62 436.71,-280.23 414.97,-284.45"/>
<polygon fill="midnightblue" stroke="midnightblue" points="483.18,-274.76 492.33,-269.42 481.85,-267.89 483.18,-274.76"/>
</g>
<!-- Node5&#45;&gt;Node6 -->
<g id="edge5" class="edge">
<title>Node5&#45;&gt;Node6</title>
<path fill="none" stroke="midnightblue" d="M479.02,-135.01C457.26,-139.24 434.02,-143.75 412.79,-147.87"/>
<polygon fill="midnightblue" stroke="midnightblue" points="479.74,-138.43 488.89,-133.09 478.41,-131.56 479.74,-138.43"/>
</g>
<!-- Node5&#45;&gt;Node8 -->
<g id="edge7" class="edge">
<title>Node5&#45;&gt;Node8</title>
<path fill="none" stroke="midnightblue" d="M490.81,-101.05C461.74,-94.12 428.64,-86.23 400.65,-79.55"/>
<polygon fill="midnightblue" stroke="midnightblue" points="490.37,-104.54 500.91,-103.46 491.99,-97.73 490.37,-104.54"/>
</g>
<!-- Node9 -->
<g id="node9" class="node">
<title>Node9</title>
<g id="a_node9"><a xlink:href="classdenoptim_1_1ga_1_1_e_a_utils_test.html#ad4662f1a3a989020f953f7034d7c1beb" target="_top" xlink:title="NB: the graphs from methods getPairOfTestGraphsB() and getPairOfTestGraphsBxo() and &#160;&#160;getPairOfTestGr...">
<polygon fill="white" stroke="black" points="260,-196.5 260,-226.5 413,-226.5 413,-196.5 260,-196.5"/>
<text text-anchor="start" x="268" y="-214.5" font-family="Helvetica,sans-Serif" font-size="10.00">denoptim.ga.EAUtilsTest.test</text>
<text text-anchor="middle" x="336.5" y="-203.5" font-family="Helvetica,sans-Serif" font-size="10.00">BuildByXOver_Embedded_Free</text>
</a>
</g>
</g>
<!-- Node5&#45;&gt;Node9 -->
<g id="edge8" class="edge">
<title>Node5&#45;&gt;Node9</title>
<path fill="none" stroke="midnightblue" d="M531.29,-138.96C505.84,-154.13 469.21,-174.38 435,-187.5 426.29,-190.84 416.97,-193.83 407.66,-196.48"/>
<polygon fill="midnightblue" stroke="midnightblue" points="533.38,-141.78 540.13,-133.62 529.76,-135.79 533.38,-141.78"/>
</g>
<!-- Node10 -->
<g id="node10" class="node">
<title>Node10</title>
<g id="a_node10"><a xlink:href="classdenoptim_1_1utils_1_1_graph_conversion_tool_test.html#a9cf6fcaba3bac28b528db1eb73c21c62" target="_top" xlink:title=" ">
<polygon fill="white" stroke="black" points="238,-98.5 238,-128.5 435,-128.5 435,-98.5 238,-98.5"/>
<text text-anchor="start" x="246" y="-116.5" font-family="Helvetica,sans-Serif" font-size="10.00">denoptim.utils.GraphConversion</text>
<text text-anchor="middle" x="336.5" y="-105.5" font-family="Helvetica,sans-Serif" font-size="10.00">ToolTest.testGetJGraphKernelFromGraph</text>
</a>
</g>
</g>
<!-- Node5&#45;&gt;Node10 -->
<g id="edge9" class="edge">
<title>Node5&#45;&gt;Node10</title>
<path fill="none" stroke="midnightblue" d="M478.72,-116.62C464.58,-116.31 449.82,-115.98 435.4,-115.66"/>
<polygon fill="midnightblue" stroke="midnightblue" points="478.82,-120.12 488.89,-116.84 478.97,-113.12 478.82,-120.12"/>
</g>
<!-- Node7 -->
<g id="node7" class="node">
<title>Node7</title>
<g id="a_node7"><a xlink:href="classdenoptim_1_1ga_1_1_e_a_utils_test.html#af8cfc323dd7d12090ddf4b836a3349cf" target="_top" xlink:title="NB: the graphs from methods getPairOfTestGraphsB() and getPairOfTestGraphsBxo() and &#160;&#160;getPairOfTestGr...">
<polygon fill="white" stroke="black" points="0,-193.5 0,-223.5 202,-223.5 202,-193.5 0,-193.5"/>
<text text-anchor="start" x="8" y="-211.5" font-family="Helvetica,sans-Serif" font-size="10.00">denoptim.ga.EAUtilsTest.test</text>
<text text-anchor="middle" x="101" y="-200.5" font-family="Helvetica,sans-Serif" font-size="10.00">BuildByXOver_Embedded_FreeBackwards</text>
</a>
</g>
</g>
<!-- Node6&#45;&gt;Node7 -->
<g id="edge6" class="edge">
<title>Node6&#45;&gt;Node7</title>
<path fill="none" stroke="midnightblue" d="M250.35,-179.28C226.75,-183.92 201.28,-188.94 178.23,-193.48"/>
<polygon fill="midnightblue" stroke="midnightblue" points="251.2,-182.67 260.33,-177.31 249.85,-175.81 251.2,-182.67"/>
</g>
<!-- Node11&#45;&gt;Node7 -->
<g id="edge12" class="edge">
<title>Node11&#45;&gt;Node7</title>
<path fill="none" stroke="midnightblue" d="M501.97,-223.95C480.89,-229.07 457.09,-233.97 435,-236.5 348.02,-246.48 325.1,-245.37 238,-236.5 212.82,-233.93 185.41,-228.76 161.85,-223.56"/>
<polygon fill="midnightblue" stroke="midnightblue" points="502.9,-227.32 511.75,-221.51 501.21,-220.53 502.9,-227.32"/>
</g>
<!-- Node11&#45;&gt;Node9 -->
<g id="edge11" class="edge">
<title>Node11&#45;&gt;Node9</title>
<path fill="none" stroke="midnightblue" d="M478.78,-208.38C457.22,-208.86 434.22,-209.36 413.18,-209.83"/>
<polygon fill="midnightblue" stroke="midnightblue" points="478.97,-211.88 488.89,-208.16 478.82,-204.88 478.97,-211.88"/>
</g>
<!-- Node13 -->
<g id="node13" class="node">
<title>Node13</title>
<g id="a_node13"><a xlink:href="classdenoptim_1_1gui_1_1_g_u_i_graph_handler.html#ab7d010d9a384f6b85edce47c95d6723b" target="_top" xlink:title="Constructor.">
<polygon fill="white" stroke="black" points="259.5,-0.5 259.5,-30.5 413.5,-30.5 413.5,-0.5 259.5,-0.5"/>
<text text-anchor="start" x="267.5" y="-18.5" font-family="Helvetica,sans-Serif" font-size="10.00">denoptim.gui.GUIGraphHandler.</text>
<text text-anchor="middle" x="336.5" y="-7.5" font-family="Helvetica,sans-Serif" font-size="10.00">GUIGraphHandler</text>
</a>
</g>
</g>
<!-- Node12&#45;&gt;Node13 -->
<g id="edge15" class="edge">
<title>Node12&#45;&gt;Node13</title>
<path fill="none" stroke="midnightblue" d="M460.57,-18.76C444.78,-18.34 428.74,-17.92 413.68,-17.52"/>
<polygon fill="midnightblue" stroke="midnightblue" points="460.8,-22.27 470.89,-19.03 460.99,-15.27 460.8,-22.27"/>
</g>
</g>
</svg>
        <g id="navigator" transform="translate(0 0)" fill="#404254">
                <rect fill="#f2f5e9" fill-opacity="0.5" stroke="#606060" stroke-width=".5" x="0" y="0" width="60" height="60"/>
                <use id="zoomplus" xlink:href="#zoomPlus" x="17" y="9" onmousedown="handleZoom(evt,'in')"/>
                <use id="zoomminus" xlink:href="#zoomMin" x="42" y="9" onmousedown="handleZoom(evt,'out')"/>
                <use id="reset" xlink:href="#resetDef" x="30" y="36" onmousedown="handleReset()"/>
                <g id="arrowUp" xlink:href="#dirArrow" transform="translate(30 24)" onmousedown="handlePan(0,-1)">
                  <use xlink:href="#rim" fill="#404040">
                        <set attributeName="fill" to="#808080" begin="arrowUp.mouseover" end="arrowUp.mouseout"/>
                  </use>
                  <path fill="none" stroke="white" stroke-width="1.5" d="M0,-3.0v7 M-2.5,-0.5L0,-3.0L2.5,-0.5"/>
                </g>
                <g id="arrowRight" xlink:href="#dirArrow" transform="rotate(90) translate(36 -43)" onmousedown="handlePan(1,0)">
                  <use xlink:href="#rim" fill="#404040">
                        <set attributeName="fill" to="#808080" begin="arrowRight.mouseover" end="arrowRight.mouseout"/>
                  </use>
                  <path fill="none" stroke="white" stroke-width="1.5" d="M0,-3.0v7 M-2.5,-0.5L0,-3.0L2.5,-0.5"/>
                </g>
                <g id="arrowDown" xlink:href="#dirArrow" transform="rotate(180) translate(-30 -48)" onmousedown="handlePan(0,1)">
                  <use xlink:href="#rim" fill="#404040">
                        <set attributeName="fill" to="#808080" begin="arrowDown.mouseover" end="arrowDown.mouseout"/>
                  </use>
                  <path fill="none" stroke="white" stroke-width="1.5" d="M0,-3.0v7 M-2.5,-0.5L0,-3.0L2.5,-0.5"/>
                </g>
                <g id="arrowLeft" xlink:href="#dirArrow" transform="rotate(270) translate(-36 17)" onmousedown="handlePan(-1,0)">
                  <use xlink:href="#rim" fill="#404040">
                        <set attributeName="fill" to="#808080" begin="arrowLeft.mouseover" end="arrowLeft.mouseout"/>
                  </use>
                  <path fill="none" stroke="white" stroke-width="1.5" d="M0,-3.0v7 M-2.5,-0.5L0,-3.0L2.5,-0.5"/>
                </g>
        </g>
        <svg viewBox="0 0 15 15" width="100%" height="30px" preserveAspectRatio="xMaxYMin meet">
         <g id="arrow_out" transform="scale(0.3 0.3)">
          <a xlink:href="classdenoptim_1_1graph_1_1_template_ab6a7859f36c5e25a8ad218b665a3a20c_icgraph_org.svg" target="_base">
           <rect id="button" ry="5" rx="5" y="6" x="6" height="38" width="38"
                fill="#f2f5e9" fill-opacity="0.5" stroke="#606060" stroke-width="1.0"/>
           <path id="arrow"
             d="M 11.500037,31.436501 C 11.940474,20.09759 22.043105,11.32322 32.158766,21.979434 L 37.068811,17.246167 C 37.068811,17.246167 37.088388,32 37.088388,32 L 22.160133,31.978069 C 22.160133,31.978069 26.997745,27.140456 26.997745,27.140456 C 18.528582,18.264221 13.291696,25.230495 11.500037,31.436501 z"
             style="fill:#404040;"/>
          </a>
         </g>
        </svg>
</svg>
