<?xml version="1.0" encoding="UTF-8" standalone="no"?>
<!DOCTYPE svg PUBLIC "-//W3C//DTD SVG 1.1//EN"
 "http://www.w3.org/Graphics/SVG/1.1/DTD/svg11.dtd">
<!-- Generated by graphviz version 3.0.0 (20221109.1736)
 -->
<!-- Title: denoptim.programs.fitnessevaluator.FPRunner.run Pages: 1 -->
<svg width="1342pt" height="428pt"
 viewBox="0.00 0.00 1342.00 427.50" xmlns="http://www.w3.org/2000/svg" xmlns:xlink="http://www.w3.org/1999/xlink">
<g id="graph0" class="graph" transform="scale(1 1) rotate(0) translate(4 423.5)">
<title>denoptim.programs.fitnessevaluator.FPRunner.run</title>
<polygon fill="white" stroke="transparent" points="-4,4 -4,-423.5 1338,-423.5 1338,4 -4,4"/>
<!-- Node1 -->
<g id="node1" class="node">
<title>Node1</title>
<g id="a_node1"><a xlink:title="Create and run the fitness task.">
<polygon fill="#bfbfbf" stroke="black" points="0,-193 0,-223 172,-223 172,-193 0,-193"/>
<text text-anchor="start" x="8" y="-211" font-family="Helvetica,sans-Serif" font-size="10.00">denoptim.programs.fitnessevaluator.</text>
<text text-anchor="middle" x="86" y="-200" font-family="Helvetica,sans-Serif" font-size="10.00">FPRunner.run</text>
</a>
</g>
</g>
<!-- Node2 -->
<g id="node2" class="node">
<title>Node2</title>
<g id="a_node2"><a xlink:href="classdenoptim_1_1programs_1_1fitnessevaluator_1_1_f_p_runner.html#a40bf1b1a9814d38ae4ff93be7a490dd7" target="_top" xlink:title="Removes only tasks that are marked as completed.">
<polygon fill="white" stroke="black" points="208,-389 208,-419 380,-419 380,-389 208,-389"/>
<text text-anchor="start" x="216" y="-407" font-family="Helvetica,sans-Serif" font-size="10.00">denoptim.programs.fitnessevaluator.</text>
<text text-anchor="middle" x="294" y="-396" font-family="Helvetica,sans-Serif" font-size="10.00">FPRunner.cleanupCompleted</text>
</a>
</g>
</g>
<!-- Node1&#45;&gt;Node2 -->
<g id="edge1" class="edge">
<title>Node1&#45;&gt;Node2</title>
<path fill="none" stroke="midnightblue" d="M93.28,-223.03C108.08,-256.55 148.42,-337.78 208,-380 210.13,-381.51 212.36,-382.93 214.66,-384.26"/>
<polygon fill="midnightblue" stroke="midnightblue" points="213.34,-387.51 223.84,-388.95 216.53,-381.28 213.34,-387.51"/>
</g>
<!-- Node3 -->
<g id="node3" class="node">
<title>Node3</title>
<g id="a_node3"><a xlink:href="classdenoptim_1_1programs_1_1fitnessevaluator_1_1_f_r_parameters.html#acab90131dd70affc8735e286e8baee15" target="_top" xlink:title=" ">
<polygon fill="white" stroke="black" points="208,-340 208,-370 380,-370 380,-340 208,-340"/>
<text text-anchor="start" x="216" y="-358" font-family="Helvetica,sans-Serif" font-size="10.00">denoptim.programs.fitnessevaluator.</text>
<text text-anchor="middle" x="294" y="-347" font-family="Helvetica,sans-Serif" font-size="10.00">FRParameters.getInputFile</text>
</a>
</g>
</g>
<!-- Node1&#45;&gt;Node3 -->
<g id="edge2" class="edge">
<title>Node1&#45;&gt;Node3</title>
<path fill="none" stroke="midnightblue" d="M97.82,-223.35C117,-249.43 159.54,-302.32 208,-331 210.99,-332.77 214.12,-334.42 217.34,-335.95"/>
<polygon fill="midnightblue" stroke="midnightblue" points="216.05,-339.2 226.62,-339.95 218.82,-332.77 216.05,-339.2"/>
</g>
<!-- Node4 -->
<g id="node4" class="node">
<title>Node4</title>
<g id="a_node4"><a xlink:href="classdenoptim_1_1programs_1_1fitnessevaluator_1_1_f_r_parameters.html#a889ae59819cafe71d2e4a7232b9a1cdd" target="_top" xlink:title=" ">
<polygon fill="white" stroke="black" points="208,-291 208,-321 380,-321 380,-291 208,-291"/>
<text text-anchor="start" x="216" y="-309" font-family="Helvetica,sans-Serif" font-size="10.00">denoptim.programs.fitnessevaluator.</text>
<text text-anchor="middle" x="294" y="-298" font-family="Helvetica,sans-Serif" font-size="10.00">FRParameters.getOutputFile</text>
</a>
</g>
</g>
<!-- Node1&#45;&gt;Node4 -->
<g id="edge3" class="edge">
<title>Node1&#45;&gt;Node4</title>
<path fill="none" stroke="midnightblue" d="M107.89,-223.24C131.27,-239.69 170.77,-265.73 208,-282 212.62,-284.02 217.46,-285.92 222.39,-287.69"/>
<polygon fill="midnightblue" stroke="midnightblue" points="221.33,-291.03 231.92,-290.95 223.59,-284.4 221.33,-291.03"/>
</g>
<!-- Node5 -->
<g id="node5" class="node">
<title>Node5</title>
<g id="a_node5"><a xlink:href="classdenoptim_1_1programs_1_1fitnessevaluator_1_1_f_r_parameters.html#ab189c368e9f365b479c613212f5e1504" target="_top" xlink:title="Returns the maximum number of seconds to wait for the fitness provider to deliver a result.">
<polygon fill="white" stroke="black" points="208,-242 208,-272 380,-272 380,-242 208,-242"/>
<text text-anchor="start" x="216" y="-260" font-family="Helvetica,sans-Serif" font-size="10.00">denoptim.programs.fitnessevaluator.</text>
<text text-anchor="middle" x="294" y="-249" font-family="Helvetica,sans-Serif" font-size="10.00">FRParameters.getWallTime</text>
</a>
</g>
</g>
<!-- Node1&#45;&gt;Node5 -->
<g id="edge4" class="edge">
<title>Node1&#45;&gt;Node5</title>
<path fill="none" stroke="midnightblue" d="M150.21,-223.03C172.25,-228.28 197.18,-234.21 219.96,-239.63"/>
<polygon fill="midnightblue" stroke="midnightblue" points="219.37,-243.08 229.91,-241.99 220.99,-236.27 219.37,-243.08"/>
</g>
<!-- Node6 -->
<g id="node6" class="node">
<title>Node6</title>
<g id="a_node6"><a xlink:href="classdenoptim_1_1programs_1_1_run_time_parameters.html#a37f87b26bd9a229cfd84e9c487f6495a" target="_top" xlink:title="Gets the pathname to the working directory.">
<polygon fill="white" stroke="black" points="222.5,-193 222.5,-223 365.5,-223 365.5,-193 222.5,-193"/>
<text text-anchor="start" x="230.5" y="-211" font-family="Helvetica,sans-Serif" font-size="10.00">denoptim.programs.RunTime</text>
<text text-anchor="middle" x="294" y="-200" font-family="Helvetica,sans-Serif" font-size="10.00">Parameters.getWorkDirectory</text>
</a>
</g>
</g>
<!-- Node1&#45;&gt;Node6 -->
<g id="edge5" class="edge">
<title>Node1&#45;&gt;Node6</title>
<path fill="none" stroke="midnightblue" d="M172.28,-208C185.38,-208 198.87,-208 211.88,-208"/>
<polygon fill="midnightblue" stroke="midnightblue" points="212.19,-211.5 222.19,-208 212.19,-204.5 212.19,-211.5"/>
</g>
<!-- Node7 -->
<g id="node7" class="node">
<title>Node7</title>
<g id="a_node7"><a xlink:href="classdenoptim_1_1io_1_1_denoptim_i_o.html#a9efd887c11557ffc565a152950ad9e25" target="_top" xlink:title="Reads a list of &lt;DGraphs from file.">
<polygon fill="white" stroke="black" points="223.5,-126 223.5,-156 364.5,-156 364.5,-126 223.5,-126"/>
<text text-anchor="start" x="231.5" y="-144" font-family="Helvetica,sans-Serif" font-size="10.00">denoptim.io.DenoptimIO.read</text>
<text text-anchor="middle" x="294" y="-133" font-family="Helvetica,sans-Serif" font-size="10.00">DENOPTIMGraphsFromFile</text>
</a>
</g>
</g>
<!-- Node1&#45;&gt;Node7 -->
<g id="edge6" class="edge">
<title>Node1&#45;&gt;Node7</title>
<path fill="none" stroke="midnightblue" d="M133.23,-192.96C163.87,-183 204.25,-169.86 236.75,-159.29"/>
<polygon fill="midnightblue" stroke="midnightblue" points="238.14,-162.52 246.57,-156.1 235.98,-155.87 238.14,-162.52"/>
</g>
<!-- Node21 -->
<g id="node21" class="node">
<title>Node21</title>
<g id="a_node21"><a xlink:href="classdenoptim_1_1io_1_1_denoptim_i_o.html#a48102bb79e9cc581e8c6ef527e003b08" target="_top" xlink:title="Reads a file containing multiple molecules (multiple SD format))">
<polygon fill="white" stroke="black" points="223.5,-77 223.5,-107 364.5,-107 364.5,-77 223.5,-77"/>
<text text-anchor="start" x="231.5" y="-95" font-family="Helvetica,sans-Serif" font-size="10.00">denoptim.io.DenoptimIO.read</text>
<text text-anchor="middle" x="294" y="-84" font-family="Helvetica,sans-Serif" font-size="10.00">SDFFile</text>
</a>
</g>
</g>
<!-- Node1&#45;&gt;Node21 -->
<g id="edge23" class="edge">
<title>Node1&#45;&gt;Node21</title>
<path fill="none" stroke="midnightblue" d="M102.95,-192.98C124.97,-172.99 166.66,-137.76 208,-117 212.61,-114.69 217.46,-112.55 222.43,-110.58"/>
<polygon fill="midnightblue" stroke="midnightblue" points="223.91,-113.77 232.07,-107.01 221.47,-107.21 223.91,-113.77"/>
</g>
<!-- Node22 -->
<g id="node22" class="node">
<title>Node22</title>
<g id="a_node22"><a xlink:href="classdenoptim_1_1io_1_1_denoptim_i_o.html#abb6475cf2be569dd6c87969f80b27d59" target="_top" xlink:title="Read text from file.">
<polygon fill="white" stroke="black" points="214,-38.5 214,-57.5 374,-57.5 374,-38.5 214,-38.5"/>
<text text-anchor="middle" x="294" y="-45.5" font-family="Helvetica,sans-Serif" font-size="10.00">denoptim.io.DenoptimIO.readText</text>
</a>
</g>
</g>
<!-- Node1&#45;&gt;Node22 -->
<g id="edge24" class="edge">
<title>Node1&#45;&gt;Node22</title>
<path fill="none" stroke="midnightblue" d="M95.74,-192.57C113.12,-163.38 154.97,-100.12 208,-68 212.35,-65.37 217.01,-63.08 221.84,-61.1"/>
<polygon fill="midnightblue" stroke="midnightblue" points="223.09,-64.37 231.27,-57.64 220.68,-57.79 223.09,-64.37"/>
</g>
<!-- Node23 -->
<g id="node23" class="node">
<title>Node23</title>
<g id="a_node23"><a xlink:href="classdenoptim_1_1io_1_1_denoptim_i_o.html#adc7de175de66792f4f37f1661c10e7f8" target="_top" xlink:title="Write text&#45;like data file.">
<polygon fill="white" stroke="black" points="212,-0.5 212,-19.5 376,-19.5 376,-0.5 212,-0.5"/>
<text text-anchor="middle" x="294" y="-7.5" font-family="Helvetica,sans-Serif" font-size="10.00">denoptim.io.DenoptimIO.writeData</text>
</a>
</g>
</g>
<!-- Node1&#45;&gt;Node23 -->
<g id="edge25" class="edge">
<title>Node1&#45;&gt;Node23</title>
<path fill="none" stroke="midnightblue" d="M92.62,-192.9C106.44,-158.02 145.54,-71.56 208,-29 210.9,-27.02 213.97,-25.25 217.16,-23.66"/>
<polygon fill="midnightblue" stroke="midnightblue" points="218.64,-26.83 226.42,-19.64 215.85,-20.41 218.64,-26.83"/>
</g>
<!-- Node7&#45;&gt;Node7 -->
<g id="edge22" class="edge">
<title>Node7&#45;&gt;Node7</title>
<path fill="none" stroke="midnightblue" d="M260.54,-156.16C252.47,-165.56 263.62,-174.5 294,-174.5 312.51,-174.5 323.88,-171.18 328.12,-166.46"/>
<polygon fill="midnightblue" stroke="midnightblue" points="331.59,-165.92 327.46,-156.16 324.6,-166.36 331.59,-165.92"/>
</g>
<!-- Node8 -->
<g id="node8" class="node">
<title>Node8</title>
<g id="a_node8"><a xlink:href="classdenoptim_1_1files_1_1_file_utils.html#adf038babeb9f64d8c853a0290efe04fb" target="_top" xlink:title="Inspects a file/folder and tries to detect if there is one of the data sources that is recognized by ...">
<polygon fill="white" stroke="black" points="416,-126 416,-156 559,-156 559,-126 416,-126"/>
<text text-anchor="start" x="424" y="-144" font-family="Helvetica,sans-Serif" font-size="10.00">denoptim.files.FileUtils.detect</text>
<text text-anchor="middle" x="487.5" y="-133" font-family="Helvetica,sans-Serif" font-size="10.00">FileFormat</text>
</a>
</g>
</g>
<!-- Node7&#45;&gt;Node8 -->
<g id="edge7" class="edge">
<title>Node7&#45;&gt;Node8</title>
<path fill="none" stroke="midnightblue" d="M364.68,-141C377.97,-141 391.99,-141 405.6,-141"/>
<polygon fill="midnightblue" stroke="midnightblue" points="405.91,-144.5 415.91,-141 405.91,-137.5 405.91,-144.5"/>
</g>
<!-- Node9 -->
<g id="node9" class="node">
<title>Node9</title>
<g id="a_node9"><a xlink:href="classdenoptim_1_1files_1_1_file_utils.html#a81ee3939d31a3703a85b19b02b7c2906" target="_top" xlink:title="Detect the content of a json file.">
<polygon fill="white" stroke="black" points="595,-224 595,-254 738,-254 738,-224 595,-224"/>
<text text-anchor="start" x="603" y="-242" font-family="Helvetica,sans-Serif" font-size="10.00">denoptim.files.FileUtils.detect</text>
<text text-anchor="middle" x="666.5" y="-231" font-family="Helvetica,sans-Serif" font-size="10.00">KindOfJSONFile</text>
</a>
</g>
</g>
<!-- Node8&#45;&gt;Node9 -->
<g id="edge8" class="edge">
<title>Node8&#45;&gt;Node9</title>
<path fill="none" stroke="midnightblue" d="M506.73,-156.06C527.18,-172.35 561.84,-198.25 595,-215 598.53,-216.79 602.23,-218.49 606,-220.1"/>
<polygon fill="midnightblue" stroke="midnightblue" points="604.9,-223.43 615.48,-223.92 607.51,-216.93 604.9,-223.43"/>
</g>
<!-- Node13 -->
<g id="node13" class="node">
<title>Node13</title>
<g id="a_node13"><a xlink:href="classdenoptim_1_1files_1_1_file_utils.html#af0429c88ee95afd0cc9d3da72fe5b60b" target="_top" xlink:title="Looks into a text file and tries to understand if the file is a collection of parameters for any spec...">
<polygon fill="white" stroke="black" points="595,-126 595,-156 738,-156 738,-126 595,-126"/>
<text text-anchor="start" x="603" y="-144" font-family="Helvetica,sans-Serif" font-size="10.00">denoptim.files.FileUtils.detect</text>
<text text-anchor="middle" x="666.5" y="-133" font-family="Helvetica,sans-Serif" font-size="10.00">KindOfParameterFile</text>
</a>
</g>
</g>
<!-- Node8&#45;&gt;Node13 -->
<g id="edge12" class="edge">
<title>Node8&#45;&gt;Node13</title>
<path fill="none" stroke="midnightblue" d="M559.22,-141C567.57,-141 576.14,-141 584.62,-141"/>
<polygon fill="midnightblue" stroke="midnightblue" points="584.89,-144.5 594.89,-141 584.89,-137.5 584.89,-144.5"/>
</g>
<!-- Node16 -->
<g id="node16" class="node">
<title>Node16</title>
<g id="a_node16"><a xlink:href="classdenoptim_1_1files_1_1_file_utils.html#aa44c824a41849bcaaae541151db21cd6" target="_top" xlink:title="Looks into a text file and tries to understand if the file is a collection of parameters for any spec...">
<polygon fill="white" stroke="black" points="595,-175 595,-205 738,-205 738,-175 595,-175"/>
<text text-anchor="start" x="603" y="-193" font-family="Helvetica,sans-Serif" font-size="10.00">denoptim.files.FileUtils.detect</text>
<text text-anchor="middle" x="666.5" y="-182" font-family="Helvetica,sans-Serif" font-size="10.00">KindOfSDFFile</text>
</a>
</g>
</g>
<!-- Node8&#45;&gt;Node16 -->
<g id="edge15" class="edge">
<title>Node8&#45;&gt;Node16</title>
<path fill="none" stroke="midnightblue" d="M543.05,-156.1C561.47,-161.2 582.21,-166.94 601.31,-172.23"/>
<polygon fill="midnightblue" stroke="midnightblue" points="600.56,-175.65 611.13,-174.95 602.43,-168.91 600.56,-175.65"/>
</g>
<!-- Node18 -->
<g id="node18" class="node">
<title>Node18</title>
<g id="a_node18"><a xlink:href="classdenoptim_1_1files_1_1_file_utils.html#a33e38e26f52c870617eec9e1c4810f7a" target="_top" xlink:title="Looks into a text file and tries to understand if the file is a known text file.">
<polygon fill="white" stroke="black" points="595,-77 595,-107 738,-107 738,-77 595,-77"/>
<text text-anchor="start" x="603" y="-95" font-family="Helvetica,sans-Serif" font-size="10.00">denoptim.files.FileUtils.detect</text>
<text text-anchor="middle" x="666.5" y="-84" font-family="Helvetica,sans-Serif" font-size="10.00">KindOfTXTFile</text>
</a>
</g>
</g>
<!-- Node8&#45;&gt;Node18 -->
<g id="edge18" class="edge">
<title>Node8&#45;&gt;Node18</title>
<path fill="none" stroke="midnightblue" d="M543.05,-125.9C561.47,-120.8 582.21,-115.06 601.31,-109.77"/>
<polygon fill="midnightblue" stroke="midnightblue" points="602.43,-113.09 611.13,-107.05 600.56,-106.35 602.43,-113.09"/>
</g>
<!-- Node20 -->
<g id="node20" class="node">
<title>Node20</title>
<g id="a_node20"><a xlink:href="enumdenoptim_1_1files_1_1_file_format.html#a3add0e6a04faada7ca012a68d9658bf2" target="_top" xlink:title=" ">
<polygon fill="white" stroke="black" points="596.5,-28 596.5,-58 736.5,-58 736.5,-28 596.5,-28"/>
<text text-anchor="start" x="604.5" y="-46" font-family="Helvetica,sans-Serif" font-size="10.00">denoptim.files.FileFormat.get</text>
<text text-anchor="middle" x="666.5" y="-35" font-family="Helvetica,sans-Serif" font-size="10.00">Extension</text>
</a>
</g>
</g>
<!-- Node8&#45;&gt;Node20 -->
<g id="edge21" class="edge">
<title>Node8&#45;&gt;Node20</title>
<path fill="none" stroke="midnightblue" d="M507.18,-125.95C527.74,-109.95 562.24,-84.68 595,-68 599.26,-65.83 603.75,-63.77 608.32,-61.83"/>
<polygon fill="midnightblue" stroke="midnightblue" points="609.8,-65.01 617.76,-58.02 607.18,-58.52 609.8,-65.01"/>
</g>
<!-- Node10 -->
<g id="node10" class="node">
<title>Node10</title>
<g id="a_node10"><a xlink:href="classdenoptim_1_1json_1_1_d_e_n_o_p_t_i_mgson.html#a3e85cb26bb2f36407e309e41880ef191" target="_top" xlink:title=" ">
<polygon fill="white" stroke="black" points="774,-224 774,-254 941,-254 941,-224 774,-224"/>
<text text-anchor="start" x="782" y="-242" font-family="Helvetica,sans-Serif" font-size="10.00">denoptim.json.DENOPTIMgson.get</text>
<text text-anchor="middle" x="857.5" y="-231" font-family="Helvetica,sans-Serif" font-size="10.00">Reader</text>
</a>
</g>
</g>
<!-- Node9&#45;&gt;Node10 -->
<g id="edge9" class="edge">
<title>Node9&#45;&gt;Node10</title>
<path fill="none" stroke="midnightblue" d="M738.15,-239C746.51,-239 755.14,-239 763.75,-239"/>
<polygon fill="midnightblue" stroke="midnightblue" points="763.84,-242.5 773.84,-239 763.84,-235.5 763.84,-242.5"/>
</g>
<!-- Node11 -->
<g id="node11" class="node">
<title>Node11</title>
<g id="a_node11"><a xlink:href="classdenoptim_1_1json_1_1_d_e_n_o_p_t_i_mgson.html#aa14de224ae5d1ae5156f11d5715d360c" target="_top" xlink:title=" ">
<polygon fill="white" stroke="black" points="977,-224 977,-254 1144,-254 1144,-224 977,-224"/>
<text text-anchor="start" x="985" y="-242" font-family="Helvetica,sans-Serif" font-size="10.00">denoptim.json.DENOPTIMgson.get</text>
<text text-anchor="middle" x="1060.5" y="-231" font-family="Helvetica,sans-Serif" font-size="10.00">Instance</text>
</a>
</g>
</g>
<!-- Node10&#45;&gt;Node11 -->
<g id="edge10" class="edge">
<title>Node10&#45;&gt;Node11</title>
<path fill="none" stroke="midnightblue" d="M941.12,-239C949.61,-239 958.27,-239 966.85,-239"/>
<polygon fill="midnightblue" stroke="midnightblue" points="966.87,-242.5 976.87,-239 966.87,-235.5 966.87,-242.5"/>
</g>
<!-- Node12 -->
<g id="node12" class="node">
<title>Node12</title>
<g id="a_node12"><a xlink:href="classdenoptim_1_1json_1_1_d_e_n_o_p_t_i_mgson.html#a4aafec42bd09225870fdf330db93b84c" target="_top" xlink:title=" ">
<polygon fill="white" stroke="black" points="1180,-224 1180,-254 1334,-254 1334,-224 1180,-224"/>
<text text-anchor="start" x="1188" y="-242" font-family="Helvetica,sans-Serif" font-size="10.00">denoptim.json.DENOPTIMgson.</text>
<text text-anchor="middle" x="1257" y="-231" font-family="Helvetica,sans-Serif" font-size="10.00">DENOPTIMgson</text>
</a>
</g>
</g>
<!-- Node11&#45;&gt;Node12 -->
<g id="edge11" class="edge">
<title>Node11&#45;&gt;Node12</title>
<path fill="none" stroke="midnightblue" d="M1144.27,-239C1152.65,-239 1161.17,-239 1169.59,-239"/>
<polygon fill="midnightblue" stroke="midnightblue" points="1169.79,-242.5 1179.79,-239 1169.79,-235.5 1169.79,-242.5"/>
</g>
<!-- Node14 -->
<g id="node14" class="node">
<title>Node14</title>
<g id="a_node14"><a xlink:href="classdenoptim_1_1files_1_1_file_utils.html#ac4f9dab79d47fe1f2c398fa7ab99da83" target="_top" xlink:title="Looks into a text file and tries to understand what format it is among the given formats.">
<polygon fill="white" stroke="black" points="786,-77 786,-107 929,-107 929,-77 786,-77"/>
<text text-anchor="start" x="794" y="-95" font-family="Helvetica,sans-Serif" font-size="10.00">denoptim.files.FileUtils.detect</text>
<text text-anchor="middle" x="857.5" y="-84" font-family="Helvetica,sans-Serif" font-size="10.00">KindFile</text>
</a>
</g>
</g>
<!-- Node13&#45;&gt;Node14 -->
<g id="edge13" class="edge">
<title>Node13&#45;&gt;Node14</title>
<path fill="none" stroke="midnightblue" d="M725.49,-125.97C745.54,-120.77 768.17,-114.9 788.92,-109.52"/>
<polygon fill="midnightblue" stroke="midnightblue" points="789.82,-112.9 798.62,-107.01 788.06,-106.13 789.82,-112.9"/>
</g>
<!-- Node15 -->
<g id="node15" class="node">
<title>Node15</title>
<g id="a_node15"><a xlink:href="enumdenoptim_1_1files_1_1_file_format.html#a1195c718a5815ad69711686b478e5ec6" target="_top" xlink:title="Returns the collection of file formats with input parameters.">
<polygon fill="white" stroke="black" points="787.5,-126 787.5,-156 927.5,-156 927.5,-126 787.5,-126"/>
<text text-anchor="start" x="795.5" y="-144" font-family="Helvetica,sans-Serif" font-size="10.00">denoptim.files.FileFormat.get</text>
<text text-anchor="middle" x="857.5" y="-133" font-family="Helvetica,sans-Serif" font-size="10.00">ParameterFormats</text>
</a>
</g>
</g>
<!-- Node13&#45;&gt;Node15 -->
<g id="edge14" class="edge">
<title>Node13&#45;&gt;Node15</title>
<path fill="none" stroke="midnightblue" d="M738.15,-141C750.8,-141 764.07,-141 776.96,-141"/>
<polygon fill="midnightblue" stroke="midnightblue" points="777.2,-144.5 787.2,-141 777.2,-137.5 777.2,-144.5"/>
</g>
<!-- Node16&#45;&gt;Node14 -->
<g id="edge16" class="edge">
<title>Node16&#45;&gt;Node14</title>
<path fill="none" stroke="midnightblue" d="M722.67,-174.98C728.09,-172.41 733.31,-169.44 738,-166 759.79,-150.02 751.94,-132.61 774,-117 776.83,-114.99 779.83,-113.15 782.94,-111.45"/>
<polygon fill="midnightblue" stroke="midnightblue" points="784.52,-114.57 791.96,-107.03 781.44,-108.29 784.52,-114.57"/>
</g>
<!-- Node17 -->
<g id="node17" class="node">
<title>Node17</title>
<g id="a_node17"><a xlink:href="enumdenoptim_1_1files_1_1_file_format.html#a45ce558c824bcceb76dcb1cd0ccc6013" target="_top" xlink:title="Returns the collection of file formats using SDF syntax.">
<polygon fill="white" stroke="black" points="787.5,-175 787.5,-205 927.5,-205 927.5,-175 787.5,-175"/>
<text text-anchor="start" x="795.5" y="-193" font-family="Helvetica,sans-Serif" font-size="10.00">denoptim.files.FileFormat.get</text>
<text text-anchor="middle" x="857.5" y="-182" font-family="Helvetica,sans-Serif" font-size="10.00">SDFFormats</text>
</a>
</g>
</g>
<!-- Node16&#45;&gt;Node17 -->
<g id="edge17" class="edge">
<title>Node16&#45;&gt;Node17</title>
<path fill="none" stroke="midnightblue" d="M738.15,-190C750.8,-190 764.07,-190 776.96,-190"/>
<polygon fill="midnightblue" stroke="midnightblue" points="777.2,-193.5 787.2,-190 777.2,-186.5 777.2,-193.5"/>
</g>
<!-- Node18&#45;&gt;Node14 -->
<g id="edge19" class="edge">
<title>Node18&#45;&gt;Node14</title>
<path fill="none" stroke="midnightblue" d="M738.15,-92C750.35,-92 763.12,-92 775.58,-92"/>
<polygon fill="midnightblue" stroke="midnightblue" points="775.94,-95.5 785.94,-92 775.94,-88.5 775.94,-95.5"/>
</g>
<!-- Node19 -->
<g id="node19" class="node">
<title>Node19</title>
<g id="a_node19"><a xlink:href="enumdenoptim_1_1files_1_1_file_format.html#aacb6d37afa380f4f44c3f6699882a432" target="_top" xlink:title="Returns the collection of file formats restricted to TXT files (excluded parameter files)">
<polygon fill="white" stroke="black" points="787.5,-28 787.5,-58 927.5,-58 927.5,-28 787.5,-28"/>
<text text-anchor="start" x="795.5" y="-46" font-family="Helvetica,sans-Serif" font-size="10.00">denoptim.files.FileFormat.get</text>
<text text-anchor="middle" x="857.5" y="-35" font-family="Helvetica,sans-Serif" font-size="10.00">TXTFormats</text>
</a>
</g>
</g>
<!-- Node18&#45;&gt;Node19 -->
<g id="edge20" class="edge">
<title>Node18&#45;&gt;Node19</title>
<path fill="none" stroke="midnightblue" d="M725.49,-76.97C745.54,-71.77 768.17,-65.9 788.92,-60.52"/>
<polygon fill="midnightblue" stroke="midnightblue" points="789.82,-63.9 798.62,-58.01 788.06,-57.13 789.82,-63.9"/>
</g>
</g>
</svg>
