<?xml version="1.0" encoding="UTF-8" standalone="no"?>
<!DOCTYPE svg PUBLIC "-//W3C//DTD SVG 1.1//EN"
 "http://www.w3.org/Graphics/SVG/1.1/DTD/svg11.dtd">
<!-- Generated by graphviz version 3.0.0 (20221109.1736)
 -->
<!-- Title: denoptim.ga.EAUtils.getPathNameToGenerationFolder Pages: 1 -->
<svg width="889pt" height="220pt"
 viewBox="0.00 0.00 889.00 220.00" xmlns="http://www.w3.org/2000/svg" xmlns:xlink="http://www.w3.org/1999/xlink">
<g id="graph0" class="graph" transform="scale(1 1) rotate(0) translate(4 216)">
<title>denoptim.ga.EAUtils.getPathNameToGenerationFolder</title>
<polygon fill="white" stroke="transparent" points="-4,4 -4,-216 885,-216 885,4 -4,4"/>
<!-- Node1 -->
<g id="node1" class="node">
<title>Node1</title>
<g id="a_node1"><a xlink:title=" ">
<polygon fill="#bfbfbf" stroke="black" points="741,-93.5 741,-123.5 881,-123.5 881,-93.5 741,-93.5"/>
<text text-anchor="start" x="749" y="-111.5" font-family="Helvetica,sans-Serif" font-size="10.00">denoptim.ga.EAUtils.getPath</text>
<text text-anchor="middle" x="811" y="-100.5" font-family="Helvetica,sans-Serif" font-size="10.00">NameToGenerationFolder</text>
</a>
</g>
</g>
<!-- Node2 -->
<g id="node2" class="node">
<title>Node2</title>
<g id="a_node2"><a xlink:href="classdenoptim_1_1ga_1_1_e_a_utils.html#aab14b898988cd607e9d08f09f2ba10cb" target="_top" xlink:title="Creates a folder meant to hold all the data generated during a generation.">
<polygon fill="white" stroke="black" points="548.5,-137.5 548.5,-167.5 682.5,-167.5 682.5,-137.5 548.5,-137.5"/>
<text text-anchor="start" x="556.5" y="-155.5" font-family="Helvetica,sans-Serif" font-size="10.00">denoptim.ga.EAUtils.create</text>
<text text-anchor="middle" x="615.5" y="-144.5" font-family="Helvetica,sans-Serif" font-size="10.00">FolderForGeneration</text>
</a>
</g>
</g>
<!-- Node1&#45;&gt;Node2 -->
<g id="edge1" class="edge">
<title>Node1&#45;&gt;Node2</title>
<path fill="none" stroke="midnightblue" d="M734.06,-125.77C717.05,-129.64 699.15,-133.71 682.58,-137.47"/>
<polygon fill="midnightblue" stroke="midnightblue" points="734.97,-129.15 743.95,-123.52 733.42,-122.32 734.97,-129.15"/>
</g>
<!-- Node3 -->
<g id="node3" class="node">
<title>Node3</title>
<g id="a_node3"><a xlink:href="classdenoptim_1_1ga_1_1_evolutionary_algorithm.html#a596b2f5f0b097c5b67a6e5163bd6fe66" target="_top" xlink:title="Generates a given number of new candidate items and adds them to the current population.">
<polygon fill="white" stroke="black" points="353,-181.5 353,-211.5 487,-211.5 487,-181.5 353,-181.5"/>
<text text-anchor="start" x="361" y="-199.5" font-family="Helvetica,sans-Serif" font-size="10.00">denoptim.ga.Evolutionary</text>
<text text-anchor="middle" x="420" y="-188.5" font-family="Helvetica,sans-Serif" font-size="10.00">Algorithm.evolvePopulation</text>
</a>
</g>
</g>
<!-- Node1&#45;&gt;Node3 -->
<g id="edge7" class="edge">
<title>Node1&#45;&gt;Node3</title>
<path fill="none" stroke="midnightblue" d="M785.54,-129.9C765.41,-146.12 735.35,-167.3 705,-177.5 633.33,-201.58 545.89,-203.66 487.12,-201.44"/>
<polygon fill="midnightblue" stroke="midnightblue" points="787.79,-132.58 793.27,-123.51 783.33,-127.18 787.79,-132.58"/>
</g>
<!-- Node7 -->
<g id="node7" class="node">
<title>Node7</title>
<g id="a_node7"><a xlink:href="classdenoptim_1_1ga_1_1_e_a_utils.html#aecbe9af608218e129a006ddae17ac66b" target="_top" xlink:title="Reads unique identifiers and initial population file according to the GAParameters.">
<polygon fill="white" stroke="black" points="353,-93.5 353,-123.5 487,-123.5 487,-93.5 353,-93.5"/>
<text text-anchor="start" x="361" y="-111.5" font-family="Helvetica,sans-Serif" font-size="10.00">denoptim.ga.EAUtils.import</text>
<text text-anchor="middle" x="420" y="-100.5" font-family="Helvetica,sans-Serif" font-size="10.00">InitialPopulation</text>
</a>
</g>
</g>
<!-- Node1&#45;&gt;Node7 -->
<g id="edge8" class="edge">
<title>Node1&#45;&gt;Node7</title>
<path fill="none" stroke="midnightblue" d="M730.56,-108.5C658.83,-108.5 554.49,-108.5 487.18,-108.5"/>
<polygon fill="midnightblue" stroke="midnightblue" points="730.9,-112 740.9,-108.5 730.9,-105 730.9,-112"/>
</g>
<!-- Node8 -->
<g id="node8" class="node">
<title>Node8</title>
<g id="a_node8"><a xlink:href="classdenoptim_1_1ga_1_1_evolutionary_algorithm.html#a5288db1eb3c645ed5b3cb33430c62bdf" target="_top" xlink:title=" ">
<polygon fill="white" stroke="black" points="526,-49.5 526,-79.5 705,-79.5 705,-49.5 526,-49.5"/>
<text text-anchor="start" x="534" y="-67.5" font-family="Helvetica,sans-Serif" font-size="10.00">denoptim.ga.Evolutionary</text>
<text text-anchor="middle" x="615.5" y="-56.5" font-family="Helvetica,sans-Serif" font-size="10.00">Algorithm.processInitialPopCandidate</text>
</a>
</g>
</g>
<!-- Node1&#45;&gt;Node8 -->
<g id="edge10" class="edge">
<title>Node1&#45;&gt;Node8</title>
<path fill="none" stroke="midnightblue" d="M734.06,-91.23C717.05,-87.36 699.15,-83.29 682.58,-79.53"/>
<polygon fill="midnightblue" stroke="midnightblue" points="733.42,-94.68 743.95,-93.48 734.97,-87.85 733.42,-94.68"/>
</g>
<!-- Node10 -->
<g id="node10" class="node">
<title>Node10</title>
<g id="a_node10"><a xlink:href="classdenoptim_1_1io_1_1_denoptim_i_o_test.html#af5c2f9114881ebde82a83f922c0c23fe" target="_top" xlink:title=" ">
<polygon fill="white" stroke="black" points="536.5,-0.5 536.5,-30.5 694.5,-30.5 694.5,-0.5 536.5,-0.5"/>
<text text-anchor="start" x="544.5" y="-18.5" font-family="Helvetica,sans-Serif" font-size="10.00">denoptim.io.DenoptimIOTest.test</text>
<text text-anchor="middle" x="615.5" y="-7.5" font-family="Helvetica,sans-Serif" font-size="10.00">ReadGenerationFromSummary</text>
</a>
</g>
</g>
<!-- Node1&#45;&gt;Node10 -->
<g id="edge13" class="edge">
<title>Node1&#45;&gt;Node10</title>
<path fill="none" stroke="midnightblue" d="M782.77,-87.12C762.36,-71.99 733.19,-52.2 705,-39.5 697.6,-36.17 689.63,-33.21 681.62,-30.61"/>
<polygon fill="midnightblue" stroke="midnightblue" points="780.87,-90.07 790.96,-93.29 785.08,-84.48 780.87,-90.07"/>
</g>
<!-- Node2&#45;&gt;Node3 -->
<g id="edge2" class="edge">
<title>Node2&#45;&gt;Node3</title>
<path fill="none" stroke="midnightblue" d="M538.56,-169.77C521.55,-173.64 503.65,-177.71 487.08,-181.47"/>
<polygon fill="midnightblue" stroke="midnightblue" points="539.47,-173.15 548.45,-167.52 537.92,-166.32 539.47,-173.15"/>
</g>
<!-- Node4 -->
<g id="node4" class="node">
<title>Node4</title>
<g id="a_node4"><a xlink:href="classdenoptim_1_1ga_1_1_evolutionary_algorithm.html#a6bfc2fa59b199da6259b5b6bad3d6de7" target="_top" xlink:title=" ">
<polygon fill="white" stroke="black" points="190,-115.5 190,-145.5 314,-145.5 314,-115.5 190,-115.5"/>
<text text-anchor="start" x="198" y="-133.5" font-family="Helvetica,sans-Serif" font-size="10.00">denoptim.ga.Evolutionary</text>
<text text-anchor="middle" x="252" y="-122.5" font-family="Helvetica,sans-Serif" font-size="10.00">Algorithm.run</text>
</a>
</g>
</g>
<!-- Node2&#45;&gt;Node4 -->
<g id="edge6" class="edge">
<title>Node2&#45;&gt;Node4</title>
<path fill="none" stroke="midnightblue" d="M538.16,-147.85C471.43,-143.79 375.82,-137.97 314.07,-134.22"/>
<polygon fill="midnightblue" stroke="midnightblue" points="538,-151.35 548.2,-148.46 538.43,-144.36 538,-151.35"/>
</g>
<!-- Node3&#45;&gt;Node4 -->
<g id="edge3" class="edge">
<title>Node3&#45;&gt;Node4</title>
<path fill="none" stroke="midnightblue" d="M371.42,-177.58C345.87,-167.42 314.81,-155.07 290.91,-145.57"/>
<polygon fill="midnightblue" stroke="midnightblue" points="370.33,-180.92 380.92,-181.36 372.92,-174.41 370.33,-180.92"/>
</g>
<!-- Node5 -->
<g id="node5" class="node">
<title>Node5</title>
<g id="a_node5"><a xlink:href="classdenoptim_1_1ga_1_1_evolutionary_algorithm.html#a0f2063b722b7291daf83d62acaa683d3" target="_top" xlink:title=" ">
<polygon fill="white" stroke="black" points="0,-140.5 0,-170.5 154,-170.5 154,-140.5 0,-140.5"/>
<text text-anchor="start" x="8" y="-158.5" font-family="Helvetica,sans-Serif" font-size="10.00">denoptim.ga.Evolutionary</text>
<text text-anchor="middle" x="77" y="-147.5" font-family="Helvetica,sans-Serif" font-size="10.00">Algorithm.EvolutionaryAlgorithm</text>
</a>
</g>
</g>
<!-- Node4&#45;&gt;Node5 -->
<g id="edge4" class="edge">
<title>Node4&#45;&gt;Node5</title>
<path fill="none" stroke="midnightblue" d="M179.44,-140.84C171.09,-142.05 162.54,-143.28 154.12,-144.5"/>
<polygon fill="midnightblue" stroke="midnightblue" points="180.12,-144.28 189.52,-139.38 179.12,-137.35 180.12,-144.28"/>
</g>
<!-- Node6 -->
<g id="node6" class="node">
<title>Node6</title>
<g id="a_node6"><a xlink:href="classdenoptim_1_1programs_1_1denovo_1_1_g_a_runner.html#a7cafd6d78727b89dce3e2c8d06f0dd7c" target="_top" xlink:title=" ">
<polygon fill="white" stroke="black" points="9.5,-91.5 9.5,-121.5 144.5,-121.5 144.5,-91.5 9.5,-91.5"/>
<text text-anchor="start" x="17.5" y="-109.5" font-family="Helvetica,sans-Serif" font-size="10.00">denoptim.programs.denovo.</text>
<text text-anchor="middle" x="77" y="-98.5" font-family="Helvetica,sans-Serif" font-size="10.00">GARunner.runProgram</text>
</a>
</g>
</g>
<!-- Node4&#45;&gt;Node6 -->
<g id="edge5" class="edge">
<title>Node4&#45;&gt;Node6</title>
<path fill="none" stroke="midnightblue" d="M179.48,-120.58C167.92,-118.97 156,-117.32 144.57,-115.73"/>
<polygon fill="midnightblue" stroke="midnightblue" points="179.13,-124.06 189.52,-121.97 180.1,-117.13 179.13,-124.06"/>
</g>
<!-- Node7&#45;&gt;Node4 -->
<g id="edge9" class="edge">
<title>Node7&#45;&gt;Node4</title>
<path fill="none" stroke="midnightblue" d="M342.9,-118.59C333.21,-119.87 323.41,-121.17 314.01,-122.41"/>
<polygon fill="midnightblue" stroke="midnightblue" points="343.46,-122.04 352.92,-117.26 342.54,-115.1 343.46,-122.04"/>
</g>
<!-- Node9 -->
<g id="node9" class="node">
<title>Node9</title>
<g id="a_node9"><a xlink:href="classdenoptim_1_1ga_1_1_evolutionary_algorithm.html#ad43588620dab3340e0d8b0042ec73618" target="_top" xlink:title="Fills up the population with candidates build from scratch.">
<polygon fill="white" stroke="black" points="350,-44.5 350,-74.5 490,-74.5 490,-44.5 350,-44.5"/>
<text text-anchor="start" x="358" y="-62.5" font-family="Helvetica,sans-Serif" font-size="10.00">denoptim.ga.Evolutionary</text>
<text text-anchor="middle" x="420" y="-51.5" font-family="Helvetica,sans-Serif" font-size="10.00">Algorithm.initializePopulation</text>
</a>
</g>
</g>
<!-- Node8&#45;&gt;Node9 -->
<g id="edge11" class="edge">
<title>Node8&#45;&gt;Node9</title>
<path fill="none" stroke="midnightblue" d="M515.78,-61.95C507.1,-61.72 498.44,-61.5 490.08,-61.28"/>
<polygon fill="midnightblue" stroke="midnightblue" points="515.87,-65.45 525.96,-62.21 516.05,-58.45 515.87,-65.45"/>
</g>
<!-- Node9&#45;&gt;Node4 -->
<g id="edge12" class="edge">
<title>Node9&#45;&gt;Node4</title>
<path fill="none" stroke="midnightblue" d="M365.73,-78.22C360.39,-80.27 355.07,-82.38 350,-84.5 327.12,-94.04 301.83,-106.09 282.82,-115.46"/>
<polygon fill="midnightblue" stroke="midnightblue" points="367.2,-81.41 375.32,-74.61 364.73,-74.86 367.2,-81.41"/>
</g>
</g>
</svg>
