<?xml version="1.0" encoding="UTF-8" standalone="no"?>
<!DOCTYPE svg PUBLIC "-//W3C//DTD SVG 1.1//EN"
 "http://www.w3.org/Graphics/SVG/1.1/DTD/svg11.dtd">
<!-- Generated by graphviz version 3.0.0 (20221109.1736)
 -->
<!-- Title: denoptim.gui.ParametersForm.getTextForUnformattedSettings Pages: 1 -->
<svg width="1208pt" height="246pt"
 viewBox="0.00 0.00 1208.00 245.50" xmlns="http://www.w3.org/2000/svg" xmlns:xlink="http://www.w3.org/1999/xlink">
<g id="graph0" class="graph" transform="scale(1 1) rotate(0) translate(4 241.5)">
<title>denoptim.gui.ParametersForm.getTextForUnformattedSettings</title>
<polygon fill="white" stroke="transparent" points="-4,4 -4,-241.5 1204,-241.5 1204,4 -4,4"/>
<!-- Node1 -->
<g id="node1" class="node">
<title>Node1</title>
<g id="a_node1"><a xlink:title=" ">
<polygon fill="#bfbfbf" stroke="black" points="1038,-109 1038,-139 1200,-139 1200,-109 1038,-109"/>
<text text-anchor="start" x="1046" y="-127" font-family="Helvetica,sans-Serif" font-size="10.00">denoptim.gui.ParametersForm.get</text>
<text text-anchor="middle" x="1119" y="-116" font-family="Helvetica,sans-Serif" font-size="10.00">TextForUnformattedSettings</text>
</a>
</g>
</g>
<!-- Node2 -->
<g id="node2" class="node">
<title>Node2</title>
<g id="a_node2"><a xlink:href="classdenoptim_1_1gui_1_1_fitness_parameters_form.html#a1977224ff3bcdcb05a811f8c228e9589" target="_top" xlink:title=" ">
<polygon fill="white" stroke="black" points="838.5,-207 838.5,-237 994.5,-237 994.5,-207 838.5,-207"/>
<text text-anchor="start" x="846.5" y="-225" font-family="Helvetica,sans-Serif" font-size="10.00">denoptim.gui.FitnessParameters</text>
<text text-anchor="middle" x="916.5" y="-214" font-family="Helvetica,sans-Serif" font-size="10.00">Form.putParametersToString</text>
</a>
</g>
</g>
<!-- Node1&#45;&gt;Node2 -->
<g id="edge1" class="edge">
<title>Node1&#45;&gt;Node2</title>
<path fill="none" stroke="midnightblue" d="M1089.92,-145.23C1067.21,-161.55 1033.88,-183.68 1002,-198 994.63,-201.31 986.69,-204.28 978.73,-206.91"/>
<polygon fill="midnightblue" stroke="midnightblue" points="1092.06,-148 1098.08,-139.28 1087.93,-142.34 1092.06,-148"/>
</g>
<!-- Node3 -->
<g id="node3" class="node">
<title>Node3</title>
<g id="a_node3"><a xlink:href="classdenoptim_1_1gui_1_1_f_s_e_parameters_form.html#a998029e4bda3be74f2d53e32ba3f7894" target="_top" xlink:title=" ">
<polygon fill="white" stroke="black" points="845,-158 845,-188 988,-188 988,-158 845,-158"/>
<text text-anchor="start" x="853" y="-176" font-family="Helvetica,sans-Serif" font-size="10.00">denoptim.gui.FSEParameters</text>
<text text-anchor="middle" x="916.5" y="-165" font-family="Helvetica,sans-Serif" font-size="10.00">Form.putParametersToString</text>
</a>
</g>
</g>
<!-- Node1&#45;&gt;Node3 -->
<g id="edge2" class="edge">
<title>Node1&#45;&gt;Node3</title>
<path fill="none" stroke="midnightblue" d="M1046.49,-141.48C1024.39,-146.88 1000.26,-152.78 978.9,-157.99"/>
<polygon fill="midnightblue" stroke="midnightblue" points="1047.6,-144.81 1056.48,-139.03 1045.94,-138.01 1047.6,-144.81"/>
</g>
<!-- Node4 -->
<g id="node4" class="node">
<title>Node4</title>
<g id="a_node4"><a xlink:href="classdenoptim_1_1gui_1_1_f_s_parameters_form.html#a06262c2710006e31961d2eeaa8df061e" target="_top" xlink:title=" ">
<polygon fill="white" stroke="black" points="845.5,-109 845.5,-139 987.5,-139 987.5,-109 845.5,-109"/>
<text text-anchor="start" x="853.5" y="-127" font-family="Helvetica,sans-Serif" font-size="10.00">denoptim.gui.FSParameters</text>
<text text-anchor="middle" x="916.5" y="-116" font-family="Helvetica,sans-Serif" font-size="10.00">Form.putParametersToString</text>
</a>
</g>
</g>
<!-- Node1&#45;&gt;Node4 -->
<g id="edge3" class="edge">
<title>Node1&#45;&gt;Node4</title>
<path fill="none" stroke="midnightblue" d="M1027.71,-124C1014.31,-124 1000.68,-124 987.77,-124"/>
<polygon fill="midnightblue" stroke="midnightblue" points="1027.89,-127.5 1037.89,-124 1027.89,-120.5 1027.89,-127.5"/>
</g>
<!-- Node10 -->
<g id="node10" class="node">
<title>Node10</title>
<g id="a_node10"><a xlink:href="classdenoptim_1_1gui_1_1_g_a_parameters_form.html#aa88930fb4bdf44a723bfe96599a7275f" target="_top" xlink:title=" ">
<polygon fill="white" stroke="black" points="845.5,-60 845.5,-90 987.5,-90 987.5,-60 845.5,-60"/>
<text text-anchor="start" x="853.5" y="-78" font-family="Helvetica,sans-Serif" font-size="10.00">denoptim.gui.GAParameters</text>
<text text-anchor="middle" x="916.5" y="-67" font-family="Helvetica,sans-Serif" font-size="10.00">Form.putParametersToString</text>
</a>
</g>
</g>
<!-- Node1&#45;&gt;Node10 -->
<g id="edge9" class="edge">
<title>Node1&#45;&gt;Node10</title>
<path fill="none" stroke="midnightblue" d="M1046.49,-106.52C1024.39,-101.12 1000.26,-95.22 978.9,-90.01"/>
<polygon fill="midnightblue" stroke="midnightblue" points="1045.94,-109.99 1056.48,-108.97 1047.6,-103.19 1045.94,-109.99"/>
</g>
<!-- Node11 -->
<g id="node11" class="node">
<title>Node11</title>
<g id="a_node11"><a xlink:href="classdenoptim_1_1gui_1_1_g_u_i_prepare_fitness_runner_1_1_input_form.html#a8fdfac40427c549bb2e9c5cea540c5b4" target="_top" xlink:title=" ">
<polygon fill="white" stroke="black" points="831,-0.5 831,-41.5 1002,-41.5 1002,-0.5 831,-0.5"/>
<text text-anchor="start" x="839" y="-29.5" font-family="Helvetica,sans-Serif" font-size="10.00">denoptim.gui.GUIPrepareFitness</text>
<text text-anchor="start" x="839" y="-18.5" font-family="Helvetica,sans-Serif" font-size="10.00">Runner.InputForm.putParametersTo</text>
<text text-anchor="middle" x="916.5" y="-7.5" font-family="Helvetica,sans-Serif" font-size="10.00">String</text>
</a>
</g>
</g>
<!-- Node1&#45;&gt;Node11 -->
<g id="edge10" class="edge">
<title>Node1&#45;&gt;Node11</title>
<path fill="none" stroke="midnightblue" d="M1088.78,-103.07C1065.93,-87.33 1032.95,-66 1002,-51 995.14,-47.67 987.8,-44.52 980.43,-41.6"/>
<polygon fill="midnightblue" stroke="midnightblue" points="1086.81,-105.96 1097.01,-108.8 1090.8,-100.21 1086.81,-105.96"/>
</g>
<!-- Node5 -->
<g id="node5" class="node">
<title>Node5</title>
<g id="a_node5"><a xlink:href="classdenoptim_1_1gui_1_1_f_s_params_dialog.html#ae39602275c1287e6916f7693a0824b08" target="_top" xlink:title="Reads all the parameters, calls the interpreters, and eventually creates the static FragmentSpace obj...">
<polygon fill="white" stroke="black" points="622,-109 622,-139 795,-139 795,-109 622,-109"/>
<text text-anchor="start" x="630" y="-127" font-family="Helvetica,sans-Serif" font-size="10.00">denoptim.gui.FSParamsDialog.make</text>
<text text-anchor="middle" x="708.5" y="-116" font-family="Helvetica,sans-Serif" font-size="10.00">FragSpace</text>
</a>
</g>
</g>
<!-- Node4&#45;&gt;Node5 -->
<g id="edge4" class="edge">
<title>Node4&#45;&gt;Node5</title>
<path fill="none" stroke="midnightblue" d="M835.46,-124C822.2,-124 808.41,-124 795.03,-124"/>
<polygon fill="midnightblue" stroke="midnightblue" points="835.47,-127.5 845.47,-124 835.47,-120.5 835.47,-127.5"/>
</g>
<!-- Node6 -->
<g id="node6" class="node">
<title>Node6</title>
<g id="a_node6"><a xlink:href="classdenoptim_1_1gui_1_1_f_s_params_dialog.html#a5a9b51978e6cfce0b434a8d72c7c6107" target="_top" xlink:title="Constructor.">
<polygon fill="white" stroke="black" points="425.5,-134 425.5,-164 574.5,-164 574.5,-134 425.5,-134"/>
<text text-anchor="start" x="433.5" y="-152" font-family="Helvetica,sans-Serif" font-size="10.00">denoptim.gui.FSParamsDialog.</text>
<text text-anchor="middle" x="500" y="-141" font-family="Helvetica,sans-Serif" font-size="10.00">FSParamsDialog</text>
</a>
</g>
</g>
<!-- Node5&#45;&gt;Node6 -->
<g id="edge5" class="edge">
<title>Node5&#45;&gt;Node6</title>
<path fill="none" stroke="midnightblue" d="M611.77,-135.59C599.31,-137.1 586.71,-138.62 574.68,-140.08"/>
<polygon fill="midnightblue" stroke="midnightblue" points="612.21,-139.06 621.72,-134.39 611.37,-132.11 612.21,-139.06"/>
</g>
<!-- Node7 -->
<g id="node7" class="node">
<title>Node7</title>
<g id="a_node7"><a xlink:href="classdenoptim_1_1gui_1_1_g_u_i_graph_handler.html#a67ce3e03e9d13d3f312652296d25c0a5" target="_top" xlink:title=" ">
<polygon fill="white" stroke="black" points="414,-85 414,-115 586,-115 586,-85 414,-85"/>
<text text-anchor="start" x="422" y="-103" font-family="Helvetica,sans-Serif" font-size="10.00">denoptim.gui.GUIGraphHandler.load</text>
<text text-anchor="middle" x="500" y="-92" font-family="Helvetica,sans-Serif" font-size="10.00">FragmentSpace</text>
</a>
</g>
</g>
<!-- Node5&#45;&gt;Node7 -->
<g id="edge6" class="edge">
<title>Node5&#45;&gt;Node7</title>
<path fill="none" stroke="midnightblue" d="M611.75,-112.87C603.22,-111.88 594.62,-110.88 586.18,-109.9"/>
<polygon fill="midnightblue" stroke="midnightblue" points="611.38,-116.35 621.72,-114.03 612.19,-109.4 611.38,-116.35"/>
</g>
<!-- Node8 -->
<g id="node8" class="node">
<title>Node8</title>
<g id="a_node8"><a xlink:href="classdenoptim_1_1gui_1_1_g_u_i_graph_handler.html#af5b000c105018cbd7c262b34f9750044" target="_top" xlink:title="Initialize the panel and add buttons.">
<polygon fill="white" stroke="black" points="190,-90.5 190,-109.5 378,-109.5 378,-90.5 190,-90.5"/>
<text text-anchor="middle" x="284" y="-97.5" font-family="Helvetica,sans-Serif" font-size="10.00">denoptim.gui.GUIGraphHandler.initialize</text>
</a>
</g>
</g>
<!-- Node7&#45;&gt;Node8 -->
<g id="edge7" class="edge">
<title>Node7&#45;&gt;Node8</title>
<path fill="none" stroke="midnightblue" d="M403.62,-100C395.22,-100 386.73,-100 378.34,-100"/>
<polygon fill="midnightblue" stroke="midnightblue" points="403.81,-103.5 413.81,-100 403.81,-96.5 403.81,-103.5"/>
</g>
<!-- Node9 -->
<g id="node9" class="node">
<title>Node9</title>
<g id="a_node9"><a xlink:href="classdenoptim_1_1gui_1_1_g_u_i_graph_handler.html#ab7d010d9a384f6b85edce47c95d6723b" target="_top" xlink:title="Constructor.">
<polygon fill="white" stroke="black" points="0,-85 0,-115 154,-115 154,-85 0,-85"/>
<text text-anchor="start" x="8" y="-103" font-family="Helvetica,sans-Serif" font-size="10.00">denoptim.gui.GUIGraphHandler.</text>
<text text-anchor="middle" x="77" y="-92" font-family="Helvetica,sans-Serif" font-size="10.00">GUIGraphHandler</text>
</a>
</g>
</g>
<!-- Node8&#45;&gt;Node9 -->
<g id="edge8" class="edge">
<title>Node8&#45;&gt;Node9</title>
<path fill="none" stroke="midnightblue" d="M179.69,-100C171.07,-100 162.45,-100 154.09,-100"/>
<polygon fill="midnightblue" stroke="midnightblue" points="179.8,-103.5 189.8,-100 179.8,-96.5 179.8,-103.5"/>
</g>
</g>
</svg>
