<?xml version="1.0" encoding="UTF-8" standalone="no"?>
<!DOCTYPE svg PUBLIC "-//W3C//DTD SVG 1.1//EN"
 "http://www.w3.org/Graphics/SVG/1.1/DTD/svg11.dtd">
<!-- Generated by graphviz version 3.0.0 (20221109.1736)
 -->
<!-- Title: denoptim.ga.EAUtils.getCrowdingProbability Pages: 1 -->
<svg width="588pt" height="267pt"
 viewBox="0.00 0.00 588.00 267.00" xmlns="http://www.w3.org/2000/svg" xmlns:xlink="http://www.w3.org/1999/xlink">
<g id="graph0" class="graph" transform="scale(1 1) rotate(0) translate(4 263)">
<title>denoptim.ga.EAUtils.getCrowdingProbability</title>
<polygon fill="white" stroke="transparent" points="-4,4 -4,-263 584,-263 584,4 -4,4"/>
<!-- Node1 -->
<g id="node1" class="node">
<title>Node1</title>
<g id="a_node1"><a xlink:title="Calculated the probability of using and attachment point rooted on an atom that is holding other atta...">
<polygon fill="#bfbfbf" stroke="black" points="0,-109 0,-139 161,-139 161,-109 0,-109"/>
<text text-anchor="start" x="8" y="-127" font-family="Helvetica,sans-Serif" font-size="10.00">denoptim.ga.EAUtils.getCrowding</text>
<text text-anchor="middle" x="80.5" y="-116" font-family="Helvetica,sans-Serif" font-size="10.00">Probability</text>
</a>
</g>
</g>
<!-- Node2 -->
<g id="node2" class="node">
<title>Node2</title>
<g id="a_node2"><a xlink:href="classdenoptim_1_1programs_1_1denovo_1_1_g_a_parameters.html#ace7e1ba3358b95a3ee3a8fa876f7aec9" target="_top" xlink:title=" ">
<polygon fill="white" stroke="black" points="205.5,-217.5 205.5,-258.5 370.5,-258.5 370.5,-217.5 205.5,-217.5"/>
<text text-anchor="start" x="213.5" y="-246.5" font-family="Helvetica,sans-Serif" font-size="10.00">denoptim.programs.denovo.</text>
<text text-anchor="start" x="213.5" y="-235.5" font-family="Helvetica,sans-Serif" font-size="10.00">GAParameters.getCrowdingFactor</text>
<text text-anchor="middle" x="288" y="-224.5" font-family="Helvetica,sans-Serif" font-size="10.00">MiddleSigma</text>
</a>
</g>
</g>
<!-- Node1&#45;&gt;Node2 -->
<g id="edge1" class="edge">
<title>Node1&#45;&gt;Node2</title>
<path fill="none" stroke="midnightblue" d="M98.78,-139.22C120.43,-157.64 159.3,-188.6 197,-208 200.71,-209.91 204.56,-211.73 208.5,-213.47"/>
<polygon fill="midnightblue" stroke="midnightblue" points="207.22,-216.73 217.8,-217.37 209.93,-210.27 207.22,-216.73"/>
</g>
<!-- Node3 -->
<g id="node3" class="node">
<title>Node3</title>
<g id="a_node3"><a xlink:href="classdenoptim_1_1programs_1_1denovo_1_1_g_a_parameters.html#ab8f0f25ae8075ce39076e386c9f820c1" target="_top" xlink:title=" ">
<polygon fill="white" stroke="black" points="205.5,-157.5 205.5,-198.5 370.5,-198.5 370.5,-157.5 205.5,-157.5"/>
<text text-anchor="start" x="213.5" y="-186.5" font-family="Helvetica,sans-Serif" font-size="10.00">denoptim.programs.denovo.</text>
<text text-anchor="start" x="213.5" y="-175.5" font-family="Helvetica,sans-Serif" font-size="10.00">GAParameters.getCrowdingFactor</text>
<text text-anchor="middle" x="288" y="-164.5" font-family="Helvetica,sans-Serif" font-size="10.00">SteepSigma</text>
</a>
</g>
</g>
<!-- Node1&#45;&gt;Node3 -->
<g id="edge2" class="edge">
<title>Node1&#45;&gt;Node3</title>
<path fill="none" stroke="midnightblue" d="M138.74,-139.04C157.42,-143.95 178.61,-149.52 199.01,-154.88"/>
<polygon fill="midnightblue" stroke="midnightblue" points="198.38,-158.33 208.95,-157.49 200.16,-151.56 198.38,-158.33"/>
</g>
<!-- Node4 -->
<g id="node4" class="node">
<title>Node4</title>
<g id="a_node4"><a xlink:href="classdenoptim_1_1programs_1_1denovo_1_1_g_a_parameters.html#af72195b7fac33581ce52b3fe81cd500d" target="_top" xlink:title=" ">
<polygon fill="white" stroke="black" points="200,-109 200,-139 376,-139 376,-109 200,-109"/>
<text text-anchor="start" x="208" y="-127" font-family="Helvetica,sans-Serif" font-size="10.00">denoptim.programs.denovo.</text>
<text text-anchor="middle" x="288" y="-116" font-family="Helvetica,sans-Serif" font-size="10.00">GAParameters.getCrowdingMultiplier</text>
</a>
</g>
</g>
<!-- Node1&#45;&gt;Node4 -->
<g id="edge3" class="edge">
<title>Node1&#45;&gt;Node4</title>
<path fill="none" stroke="midnightblue" d="M161.25,-124C170.53,-124 180.07,-124 189.55,-124"/>
<polygon fill="midnightblue" stroke="midnightblue" points="189.8,-127.5 199.8,-124 189.8,-120.5 189.8,-127.5"/>
</g>
<!-- Node5 -->
<g id="node5" class="node">
<title>Node5</title>
<g id="a_node5"><a xlink:href="classdenoptim_1_1ga_1_1_e_a_utils.html#acf42fcadab45800cf712361cc025ffbb" target="_top" xlink:title="Calculated the crowding probability for a given level of crowdedness.">
<polygon fill="white" stroke="black" points="207.5,-60 207.5,-90 368.5,-90 368.5,-60 207.5,-60"/>
<text text-anchor="start" x="215.5" y="-78" font-family="Helvetica,sans-Serif" font-size="10.00">denoptim.ga.EAUtils.getCrowding</text>
<text text-anchor="middle" x="288" y="-67" font-family="Helvetica,sans-Serif" font-size="10.00">ProbabilityForCrowdedness</text>
</a>
</g>
</g>
<!-- Node1&#45;&gt;Node5 -->
<g id="edge4" class="edge">
<title>Node1&#45;&gt;Node5</title>
<path fill="none" stroke="midnightblue" d="M144.55,-108.97C166.55,-103.72 191.41,-97.79 214.13,-92.37"/>
<polygon fill="midnightblue" stroke="midnightblue" points="215.15,-95.73 224.07,-90.01 213.53,-88.92 215.15,-95.73"/>
</g>
<!-- Node7 -->
<g id="node7" class="node">
<title>Node7</title>
<g id="a_node7"><a xlink:href="classdenoptim_1_1programs_1_1denovo_1_1_g_a_parameters.html#a2902a12263e9f2736e8c05f00a0470b5" target="_top" xlink:title=" ">
<polygon fill="white" stroke="black" points="197,-0.5 197,-41.5 379,-41.5 379,-0.5 197,-0.5"/>
<text text-anchor="start" x="205" y="-29.5" font-family="Helvetica,sans-Serif" font-size="10.00">denoptim.programs.denovo.</text>
<text text-anchor="start" x="205" y="-18.5" font-family="Helvetica,sans-Serif" font-size="10.00">GAParameters.getCrowdingProbability</text>
<text text-anchor="middle" x="288" y="-7.5" font-family="Helvetica,sans-Serif" font-size="10.00">Scheme</text>
</a>
</g>
</g>
<!-- Node1&#45;&gt;Node7 -->
<g id="edge6" class="edge">
<title>Node1&#45;&gt;Node7</title>
<path fill="none" stroke="midnightblue" d="M101.91,-108.95C124.33,-92.94 161.85,-67.67 197,-51 201.24,-48.99 205.65,-47.05 210.15,-45.2"/>
<polygon fill="midnightblue" stroke="midnightblue" points="211.44,-48.46 219.45,-41.52 208.87,-41.95 211.44,-48.46"/>
</g>
<!-- Node6 -->
<g id="node6" class="node">
<title>Node6</title>
<g id="a_node6"><a xlink:href="classdenoptim_1_1ga_1_1_e_a_utils.html#a41e3b62363bfa04f372d094483eee83f" target="_top" xlink:title="Calculated a probability given parameters defining the shape of the probability function and a single...">
<polygon fill="white" stroke="black" points="415,-65.5 415,-84.5 580,-84.5 580,-65.5 415,-65.5"/>
<text text-anchor="middle" x="497.5" y="-72.5" font-family="Helvetica,sans-Serif" font-size="10.00">denoptim.ga.EAUtils.getProbability</text>
</a>
</g>
</g>
<!-- Node5&#45;&gt;Node6 -->
<g id="edge5" class="edge">
<title>Node5&#45;&gt;Node6</title>
<path fill="none" stroke="midnightblue" d="M368.63,-75C380.42,-75 392.64,-75 404.65,-75"/>
<polygon fill="midnightblue" stroke="midnightblue" points="404.68,-78.5 414.68,-75 404.68,-71.5 404.68,-78.5"/>
</g>
</g>
</svg>
