<?xml version="1.0" encoding="UTF-8" standalone="no"?>
<!DOCTYPE svg PUBLIC "-//W3C//DTD SVG 1.1//EN"
 "http://www.w3.org/Graphics/SVG/1.1/DTD/svg11.dtd">
<!-- Generated by graphviz version 3.0.0 (20221109.1736)
 -->
<!-- Title: denoptim.gui.GUIFileSaver.pickFileForSavingVertexes Pages: 1 -->
<svg width="592pt" height="88pt"
 viewBox="0.00 0.00 592.00 88.00" xmlns="http://www.w3.org/2000/svg" xmlns:xlink="http://www.w3.org/1999/xlink">
<g id="graph0" class="graph" transform="scale(1 1) rotate(0) translate(4 84)">
<title>denoptim.gui.GUIFileSaver.pickFileForSavingVertexes</title>
<polygon fill="white" stroke="transparent" points="-4,4 -4,-84 588,-84 588,4 -4,4"/>
<!-- Node1 -->
<g id="node1" class="node">
<title>Node1</title>
<g id="a_node1"><a xlink:title=" ">
<polygon fill="#bfbfbf" stroke="black" points="431,-24.5 431,-54.5 584,-54.5 584,-24.5 431,-24.5"/>
<text text-anchor="start" x="439" y="-42.5" font-family="Helvetica,sans-Serif" font-size="10.00">denoptim.gui.GUIFileSaver.pick</text>
<text text-anchor="middle" x="507.5" y="-31.5" font-family="Helvetica,sans-Serif" font-size="10.00">FileForSavingVertexes</text>
</a>
</g>
</g>
<!-- Node2 -->
<g id="node2" class="node">
<title>Node2</title>
<g id="a_node2"><a xlink:href="classdenoptim_1_1gui_1_1_g_u_i_graph_handler.html#af5b000c105018cbd7c262b34f9750044" target="_top" xlink:title="Initialize the panel and add buttons.">
<polygon fill="white" stroke="black" points="202.5,-52 202.5,-71 390.5,-71 390.5,-52 202.5,-52"/>
<text text-anchor="middle" x="296.5" y="-59" font-family="Helvetica,sans-Serif" font-size="10.00">denoptim.gui.GUIGraphHandler.initialize</text>
</a>
</g>
</g>
<!-- Node1&#45;&gt;Node2 -->
<g id="edge1" class="edge">
<title>Node1&#45;&gt;Node2</title>
<path fill="none" stroke="midnightblue" d="M420.54,-48.55C409.78,-49.68 398.75,-50.84 387.93,-51.98"/>
<polygon fill="midnightblue" stroke="midnightblue" points="421.17,-52 430.75,-47.47 420.44,-45.04 421.17,-52"/>
</g>
<!-- Node4 -->
<g id="node4" class="node">
<title>Node4</title>
<g id="a_node4"><a xlink:href="classdenoptim_1_1gui_1_1_g_u_i_vertex_inspector.html#acadecc92299a7ea46113c06382a1f333" target="_top" xlink:title="Initialize the panel and add buttons.">
<polygon fill="white" stroke="black" points="198,-11 198,-30 395,-30 395,-11 198,-11"/>
<text text-anchor="middle" x="296.5" y="-18" font-family="Helvetica,sans-Serif" font-size="10.00">denoptim.gui.GUIVertexInspector.initialize</text>
</a>
</g>
</g>
<!-- Node1&#45;&gt;Node4 -->
<g id="edge3" class="edge">
<title>Node1&#45;&gt;Node4</title>
<path fill="none" stroke="midnightblue" d="M420.61,-31.69C412.21,-30.93 403.66,-30.15 395.16,-29.38"/>
<polygon fill="midnightblue" stroke="midnightblue" points="420.47,-35.19 430.75,-32.61 421.11,-28.22 420.47,-35.19"/>
</g>
<!-- Node3 -->
<g id="node3" class="node">
<title>Node3</title>
<g id="a_node3"><a xlink:href="classdenoptim_1_1gui_1_1_g_u_i_graph_handler.html#ab7d010d9a384f6b85edce47c95d6723b" target="_top" xlink:title="Constructor.">
<polygon fill="white" stroke="black" points="4,-49.5 4,-79.5 158,-79.5 158,-49.5 4,-49.5"/>
<text text-anchor="start" x="12" y="-67.5" font-family="Helvetica,sans-Serif" font-size="10.00">denoptim.gui.GUIGraphHandler.</text>
<text text-anchor="middle" x="81" y="-56.5" font-family="Helvetica,sans-Serif" font-size="10.00">GUIGraphHandler</text>
</a>
</g>
</g>
<!-- Node2&#45;&gt;Node3 -->
<g id="edge2" class="edge">
<title>Node2&#45;&gt;Node3</title>
<path fill="none" stroke="midnightblue" d="M192.35,-62.95C180.8,-63.11 169.19,-63.27 158.07,-63.43"/>
<polygon fill="midnightblue" stroke="midnightblue" points="192.53,-66.45 202.48,-62.81 192.43,-59.45 192.53,-66.45"/>
</g>
<!-- Node5 -->
<g id="node5" class="node">
<title>Node5</title>
<g id="a_node5"><a xlink:href="classdenoptim_1_1gui_1_1_g_u_i_vertex_inspector.html#abc5d3c33ad9b2b114ce43e9b2cd577bb" target="_top" xlink:title="Constructor.">
<polygon fill="white" stroke="black" points="0,-0.5 0,-30.5 162,-30.5 162,-0.5 0,-0.5"/>
<text text-anchor="start" x="8" y="-18.5" font-family="Helvetica,sans-Serif" font-size="10.00">denoptim.gui.GUIVertexInspector.</text>
<text text-anchor="middle" x="81" y="-7.5" font-family="Helvetica,sans-Serif" font-size="10.00">GUIVertexInspector</text>
</a>
</g>
</g>
<!-- Node4&#45;&gt;Node5 -->
<g id="edge4" class="edge">
<title>Node4&#45;&gt;Node5</title>
<path fill="none" stroke="midnightblue" d="M187.69,-17.98C179.06,-17.77 170.44,-17.57 162.05,-17.37"/>
<polygon fill="midnightblue" stroke="midnightblue" points="187.73,-21.48 197.81,-18.21 187.89,-14.48 187.73,-21.48"/>
</g>
</g>
</svg>
