<?xml version="1.0" encoding="UTF-8" standalone="no"?>
<!DOCTYPE svg PUBLIC "-//W3C//DTD SVG 1.1//EN"
 "http://www.w3.org/Graphics/SVG/1.1/DTD/svg11.dtd">
<!-- Generated by graphviz version 3.0.0 (20221109.1736)
 -->
<!-- Title: denoptim.ga.EAUtils.selectNonScaffoldNonCapVertex Pages: 1 -->
<svg width="338pt" height="88pt"
 viewBox="0.00 0.00 338.00 88.00" xmlns="http://www.w3.org/2000/svg" xmlns:xlink="http://www.w3.org/1999/xlink">
<g id="graph0" class="graph" transform="scale(1 1) rotate(0) translate(4 84)">
<title>denoptim.ga.EAUtils.selectNonScaffoldNonCapVertex</title>
<polygon fill="white" stroke="transparent" points="-4,4 -4,-84 334,-84 334,4 -4,4"/>
<!-- Node1 -->
<g id="node1" class="node">
<title>Node1</title>
<g id="a_node1"><a xlink:title="Chose randomly a vertex that is neither scaffold or capping group.">
<polygon fill="#bfbfbf" stroke="black" points="197,-24.5 197,-54.5 330,-54.5 330,-24.5 197,-24.5"/>
<text text-anchor="start" x="205" y="-42.5" font-family="Helvetica,sans-Serif" font-size="10.00">denoptim.ga.EAUtils.select</text>
<text text-anchor="middle" x="263.5" y="-31.5" font-family="Helvetica,sans-Serif" font-size="10.00">NonScaffoldNonCapVertex</text>
</a>
</g>
</g>
<!-- Node2 -->
<g id="node2" class="node">
<title>Node2</title>
<g id="a_node2"><a xlink:href="classdenoptim_1_1ga_1_1_e_a_utils.html#a0b958439d79fae30f14530213ad22e3a" target="_top" xlink:title="Generates up to a pair of new offspring by performing a crossover operation.">
<polygon fill="white" stroke="black" points="17,-49.5 17,-79.5 144,-79.5 144,-49.5 17,-49.5"/>
<text text-anchor="start" x="25" y="-67.5" font-family="Helvetica,sans-Serif" font-size="10.00">denoptim.ga.EAUtils.build</text>
<text text-anchor="middle" x="80.5" y="-56.5" font-family="Helvetica,sans-Serif" font-size="10.00">CandidatesByXOver</text>
</a>
</g>
</g>
<!-- Node1&#45;&gt;Node2 -->
<g id="edge1" class="edge">
<title>Node1&#45;&gt;Node2</title>
<path fill="none" stroke="midnightblue" d="M186.69,-49.97C172.53,-51.93 157.87,-53.95 144.16,-55.85"/>
<polygon fill="midnightblue" stroke="midnightblue" points="187.47,-53.4 196.9,-48.56 186.51,-46.46 187.47,-53.4"/>
</g>
<!-- Node3 -->
<g id="node3" class="node">
<title>Node3</title>
<g id="a_node3"><a xlink:href="classdenoptim_1_1ga_1_1_e_a_utils_test.html#a60b1ca7ac8b9d3775e72bd7cea418f1a" target="_top" xlink:title=" ">
<polygon fill="white" stroke="black" points="0,-0.5 0,-30.5 161,-30.5 161,-0.5 0,-0.5"/>
<text text-anchor="start" x="8" y="-18.5" font-family="Helvetica,sans-Serif" font-size="10.00">denoptim.ga.EAUtilsTest.test</text>
<text text-anchor="middle" x="80.5" y="-7.5" font-family="Helvetica,sans-Serif" font-size="10.00">SelectNonScaffoldNonCapVertex</text>
</a>
</g>
</g>
<!-- Node1&#45;&gt;Node3 -->
<g id="edge2" class="edge">
<title>Node1&#45;&gt;Node3</title>
<path fill="none" stroke="midnightblue" d="M186.96,-29.48C178.41,-28.35 169.67,-27.19 161.06,-26.05"/>
<polygon fill="midnightblue" stroke="midnightblue" points="186.53,-32.96 196.9,-30.8 187.45,-26.02 186.53,-32.96"/>
</g>
</g>
</svg>
