<?xml version="1.0" encoding="UTF-8" standalone="no"?>
<!DOCTYPE svg PUBLIC "-//W3C//DTD SVG 1.1//EN"
 "http://www.w3.org/Graphics/SVG/1.1/DTD/svg11.dtd">
<!-- Generated by graphviz version 3.0.0 (20221109.1736)
 -->
<!-- Title: denoptim.fragmenter.FragmenterTools.fragmentation Pages: 1 -->
<!--zoomable 310 -->
<svg id="main" version="1.1" xmlns="http://www.w3.org/2000/svg" xmlns:xlink="http://www.w3.org/1999/xlink" xml:space="preserve" onload="init(evt)">
<style type="text/css"><![CDATA[
.edge:hover path { stroke: red; }
.edge:hover polygon { stroke: red; fill: red; }
]]></style>
<script type="text/javascript"><![CDATA[
var edges = document.getElementsByTagName('g');
if (edges && edges.length) {
  for (var i=0;i<edges.length;i++) {
    if (edges[i].id.substr(0,4)=='edge') {
      edges[i].setAttribute('class','edge');
    }
  }
}
]]></script>
        <defs>
                <circle id="rim" cx="0" cy="0" r="7"/>
                <circle id="rim2" cx="0" cy="0" r="3.5"/>
                <g id="zoomPlus">
                        <use xlink:href="#rim" fill="#404040">
                                <set attributeName="fill" to="#808080" begin="zoomplus.mouseover" end="zoomplus.mouseout"/>
                        </use>
                        <path d="M-4,0h8M0,-4v8" fill="none" stroke="white" stroke-width="1.5" pointer-events="none"/>
                </g>
                <g id="zoomMin">
                        <use xlink:href="#rim" fill="#404040">
                                <set attributeName="fill" to="#808080" begin="zoomminus.mouseover" end="zoomminus.mouseout"/>
                        </use>
                        <path d="M-4,0h8" fill="none" stroke="white" stroke-width="1.5" pointer-events="none"/>
                </g>
                <g id="dirArrow">
                        <path fill="none" stroke="white" stroke-width="1.5" d="M0,-3.0v7 M-2.5,-0.5L0,-3.0L2.5,-0.5"/>
                </g>
               <g id="resetDef">
                       <use xlink:href="#rim2" fill="#404040">
                               <set attributeName="fill" to="#808080" begin="reset.mouseover" end="reset.mouseout"/>
                       </use>
               </g>
        </defs>

<script type="text/javascript">
var viewWidth = 541;
var viewHeight = 310;
var sectionId = 'dynsection-13';
</script>
<script xlink:href="svgpan.js"/>
<svg id="graph" class="graph">
<g id="viewport">
<title>denoptim.fragmenter.FragmenterTools.fragmentation</title>
<polygon fill="white" stroke="transparent" points="-4,4 -4,-306 537,-306 537,4 -4,4"/>
<!-- Node1 -->
<g id="node1" class="node">
<title>Node1</title>
<g id="a_node1"><a xlink:title="Performs fragmentation according to the given cutting rules.">
<polygon fill="#bfbfbf" stroke="black" points="0,-121.5 0,-151.5 157,-151.5 157,-121.5 0,-121.5"/>
<text text-anchor="start" x="8" y="-139.5" font-family="Helvetica,sans-Serif" font-size="10.00">denoptim.fragmenter.Fragmenter</text>
<text text-anchor="middle" x="78.5" y="-128.5" font-family="Helvetica,sans-Serif" font-size="10.00">Tools.fragmentation</text>
</a>
</g>
</g>
<!-- Node2 -->
<g id="node2" class="node">
<title>Node2</title>
<g id="a_node2"><a xlink:href="classdenoptim_1_1io_1_1_iterating_atom_container_reader.html#a79eaaa08cc9353e5ebc47066b7cc99eb" target="_top" xlink:title="Close the memory&#45;efficient iterator if any is open.">
<polygon fill="white" stroke="black" points="210,-271.5 210,-301.5 337,-301.5 337,-271.5 210,-271.5"/>
<text text-anchor="start" x="218" y="-289.5" font-family="Helvetica,sans-Serif" font-size="10.00">denoptim.io.IteratingAtom</text>
<text text-anchor="middle" x="273.5" y="-278.5" font-family="Helvetica,sans-Serif" font-size="10.00">ContainerReader.close</text>
</a>
</g>
</g>
<!-- Node1&#45;&gt;Node2 -->
<g id="edge1" class="edge">
<title>Node1&#45;&gt;Node2</title>
<path fill="none" stroke="midnightblue" d="M89.1,-151.75C106.54,-178.22 146.01,-232.69 193,-262.5 195.59,-264.15 198.31,-265.68 201.1,-267.12"/>
<polygon fill="midnightblue" stroke="midnightblue" points="199.71,-270.34 210.26,-271.38 202.66,-263.99 199.71,-270.34"/>
</g>
<!-- Node3 -->
<g id="node3" class="node">
<title>Node3</title>
<g id="a_node3"><a xlink:href="classdenoptim_1_1fragmenter_1_1_fragmenter_tools.html#a9b1cf1cfeabaeea07d799ea9d53e162e" target="_top" xlink:title="Performs fragmentation according to the given settings.">
<polygon fill="white" stroke="black" points="195,-204.5 195,-234.5 352,-234.5 352,-204.5 195,-204.5"/>
<text text-anchor="start" x="203" y="-222.5" font-family="Helvetica,sans-Serif" font-size="10.00">denoptim.fragmenter.Fragmenter</text>
<text text-anchor="middle" x="273.5" y="-211.5" font-family="Helvetica,sans-Serif" font-size="10.00">Tools.fragmentation</text>
</a>
</g>
</g>
<!-- Node1&#45;&gt;Node3 -->
<g id="edge2" class="edge">
<title>Node1&#45;&gt;Node3</title>
<path fill="none" stroke="midnightblue" d="M104.99,-151.5C127.58,-164.37 161.73,-182.78 193,-195.5 197.8,-197.45 202.82,-199.33 207.91,-201.12"/>
<polygon fill="midnightblue" stroke="midnightblue" points="207.13,-204.55 217.72,-204.43 209.37,-197.91 207.13,-204.55"/>
</g>
<!-- Node4 -->
<g id="node4" class="node">
<title>Node4</title>
<g id="a_node4"><a xlink:href="classdenoptim_1_1io_1_1_iterating_atom_container_reader.html#a9ed0aa4606b687bc3fdeb787fd5535b1" target="_top" xlink:title=" ">
<polygon fill="white" stroke="black" points="210,-155.5 210,-185.5 337,-185.5 337,-155.5 210,-155.5"/>
<text text-anchor="start" x="218" y="-173.5" font-family="Helvetica,sans-Serif" font-size="10.00">denoptim.io.IteratingAtom</text>
<text text-anchor="middle" x="273.5" y="-162.5" font-family="Helvetica,sans-Serif" font-size="10.00">ContainerReader.hasNext</text>
</a>
</g>
</g>
<!-- Node1&#45;&gt;Node4 -->
<g id="edge4" class="edge">
<title>Node1&#45;&gt;Node4</title>
<path fill="none" stroke="midnightblue" d="M157.17,-150.18C171.24,-152.66 185.87,-155.24 199.8,-157.69"/>
<polygon fill="midnightblue" stroke="midnightblue" points="199.34,-161.17 209.8,-159.45 200.56,-154.27 199.34,-161.17"/>
</g>
<!-- Node5 -->
<g id="node5" class="node">
<title>Node5</title>
<g id="a_node5"><a xlink:href="classdenoptim_1_1fragmenter_1_1_fragmenter_tools.html#ad312193f52098cff1378a43050403fb8" target="_top" xlink:title="Management of fragments: includes application of fragment filters, rejection rules,...">
<polygon fill="white" stroke="black" points="193,-88.5 193,-118.5 354,-118.5 354,-88.5 193,-88.5"/>
<text text-anchor="start" x="201" y="-106.5" font-family="Helvetica,sans-Serif" font-size="10.00">denoptim.fragmenter.Fragmenter</text>
<text text-anchor="middle" x="273.5" y="-95.5" font-family="Helvetica,sans-Serif" font-size="10.00">Tools.manageFragmentCollection</text>
</a>
</g>
</g>
<!-- Node1&#45;&gt;Node5 -->
<g id="edge5" class="edge">
<title>Node1&#45;&gt;Node5</title>
<path fill="none" stroke="midnightblue" d="M157.17,-123.22C165.6,-121.78 174.23,-120.3 182.79,-118.84"/>
<polygon fill="midnightblue" stroke="midnightblue" points="183.52,-122.26 192.79,-117.13 182.34,-115.36 183.52,-122.26"/>
</g>
<!-- Node6 -->
<g id="node6" class="node">
<title>Node6</title>
<g id="a_node6"><a xlink:href="classdenoptim_1_1io_1_1_denoptim_i_o.html#a04cf8bea6e235a0adf12e95708d7f627" target="_top" xlink:title="Writes vertexes to file.">
<polygon fill="white" stroke="black" points="390,-66.5 390,-96.5 533,-96.5 533,-66.5 390,-66.5"/>
<text text-anchor="start" x="398" y="-84.5" font-family="Helvetica,sans-Serif" font-size="10.00">denoptim.io.DenoptimIO.write</text>
<text text-anchor="middle" x="461.5" y="-73.5" font-family="Helvetica,sans-Serif" font-size="10.00">VertexesToFile</text>
</a>
</g>
</g>
<!-- Node1&#45;&gt;Node6 -->
<g id="edge10" class="edge">
<title>Node1&#45;&gt;Node6</title>
<path fill="none" stroke="midnightblue" d="M101.76,-121.37C123.81,-107.36 159.1,-87.53 193,-79.5 254.45,-64.94 326.1,-66.41 379.77,-70.99"/>
<polygon fill="midnightblue" stroke="midnightblue" points="379.64,-74.49 389.91,-71.91 380.27,-67.52 379.64,-74.49"/>
</g>
<!-- Node7 -->
<g id="node7" class="node">
<title>Node7</title>
<g id="a_node7"><a xlink:href="classdenoptim_1_1io_1_1_iterating_atom_container_reader.html#af5ec56eba56e5fd3898d162206d78c34" target="_top" xlink:title=" ">
<polygon fill="white" stroke="black" points="210,-0.5 210,-30.5 337,-30.5 337,-0.5 210,-0.5"/>
<text text-anchor="start" x="218" y="-18.5" font-family="Helvetica,sans-Serif" font-size="10.00">denoptim.io.IteratingAtom</text>
<text text-anchor="middle" x="273.5" y="-7.5" font-family="Helvetica,sans-Serif" font-size="10.00">ContainerReader.next</text>
</a>
</g>
</g>
<!-- Node1&#45;&gt;Node7 -->
<g id="edge9" class="edge">
<title>Node1&#45;&gt;Node7</title>
<path fill="none" stroke="midnightblue" d="M95.23,-121.17C116.11,-101.49 154.83,-67.27 193,-45.5 200.11,-41.45 207.86,-37.74 215.66,-34.43"/>
<polygon fill="midnightblue" stroke="midnightblue" points="217.19,-37.58 225.14,-30.57 214.56,-31.09 217.19,-37.58"/>
</g>
<!-- Node3&#45;&gt;Node3 -->
<g id="edge3" class="edge">
<title>Node3&#45;&gt;Node3</title>
<path fill="none" stroke="midnightblue" d="M240.74,-234.66C232.84,-244.06 243.76,-253 273.5,-253 291.62,-253 302.76,-249.68 306.91,-244.96"/>
<polygon fill="midnightblue" stroke="midnightblue" points="310.38,-244.42 306.26,-234.66 303.39,-244.86 310.38,-244.42"/>
</g>
<!-- Node5&#45;&gt;Node5 -->
<g id="edge6" class="edge">
<title>Node5&#45;&gt;Node5</title>
<path fill="none" stroke="midnightblue" d="M240.74,-118.66C232.84,-128.06 243.76,-137 273.5,-137 291.62,-137 302.76,-133.68 306.91,-128.96"/>
<polygon fill="midnightblue" stroke="midnightblue" points="310.38,-128.42 306.26,-118.66 303.39,-128.86 310.38,-128.42"/>
</g>
<!-- Node5&#45;&gt;Node6 -->
<g id="edge7" class="edge">
<title>Node5&#45;&gt;Node6</title>
<path fill="none" stroke="midnightblue" d="M354.19,-94.07C362.6,-93.08 371.16,-92.07 379.59,-91.07"/>
<polygon fill="midnightblue" stroke="midnightblue" points="380.26,-94.52 389.78,-89.86 379.44,-87.56 380.26,-94.52"/>
</g>
<!-- Node6&#45;&gt;Node6 -->
<g id="edge8" class="edge">
<title>Node6&#45;&gt;Node6</title>
<path fill="none" stroke="midnightblue" d="M428.74,-96.66C420.84,-106.06 431.76,-115 461.5,-115 479.62,-115 490.76,-111.68 494.91,-106.96"/>
<polygon fill="midnightblue" stroke="midnightblue" points="498.38,-106.42 494.26,-96.66 491.39,-106.86 498.38,-106.42"/>
</g>
</g>
</svg>
        <g id="navigator" transform="translate(0 0)" fill="#404254">
                <rect fill="#f2f5e9" fill-opacity="0.5" stroke="#606060" stroke-width=".5" x="0" y="0" width="60" height="60"/>
                <use id="zoomplus" xlink:href="#zoomPlus" x="17" y="9" onmousedown="handleZoom(evt,'in')"/>
                <use id="zoomminus" xlink:href="#zoomMin" x="42" y="9" onmousedown="handleZoom(evt,'out')"/>
                <use id="reset" xlink:href="#resetDef" x="30" y="36" onmousedown="handleReset()"/>
                <g id="arrowUp" xlink:href="#dirArrow" transform="translate(30 24)" onmousedown="handlePan(0,-1)">
                  <use xlink:href="#rim" fill="#404040">
                        <set attributeName="fill" to="#808080" begin="arrowUp.mouseover" end="arrowUp.mouseout"/>
                  </use>
                  <path fill="none" stroke="white" stroke-width="1.5" d="M0,-3.0v7 M-2.5,-0.5L0,-3.0L2.5,-0.5"/>
                </g>
                <g id="arrowRight" xlink:href="#dirArrow" transform="rotate(90) translate(36 -43)" onmousedown="handlePan(1,0)">
                  <use xlink:href="#rim" fill="#404040">
                        <set attributeName="fill" to="#808080" begin="arrowRight.mouseover" end="arrowRight.mouseout"/>
                  </use>
                  <path fill="none" stroke="white" stroke-width="1.5" d="M0,-3.0v7 M-2.5,-0.5L0,-3.0L2.5,-0.5"/>
                </g>
                <g id="arrowDown" xlink:href="#dirArrow" transform="rotate(180) translate(-30 -48)" onmousedown="handlePan(0,1)">
                  <use xlink:href="#rim" fill="#404040">
                        <set attributeName="fill" to="#808080" begin="arrowDown.mouseover" end="arrowDown.mouseout"/>
                  </use>
                  <path fill="none" stroke="white" stroke-width="1.5" d="M0,-3.0v7 M-2.5,-0.5L0,-3.0L2.5,-0.5"/>
                </g>
                <g id="arrowLeft" xlink:href="#dirArrow" transform="rotate(270) translate(-36 17)" onmousedown="handlePan(-1,0)">
                  <use xlink:href="#rim" fill="#404040">
                        <set attributeName="fill" to="#808080" begin="arrowLeft.mouseover" end="arrowLeft.mouseout"/>
                  </use>
                  <path fill="none" stroke="white" stroke-width="1.5" d="M0,-3.0v7 M-2.5,-0.5L0,-3.0L2.5,-0.5"/>
                </g>
        </g>
        <svg viewBox="0 0 15 15" width="100%" height="30px" preserveAspectRatio="xMaxYMin meet">
         <g id="arrow_out" transform="scale(0.3 0.3)">
          <a xlink:href="classdenoptim_1_1fragmenter_1_1_fragmenter_tools_afe25e249e1296a0a0d911a41e18bb2c2_cgraph_org.svg" target="_base">
           <rect id="button" ry="5" rx="5" y="6" x="6" height="38" width="38"
                fill="#f2f5e9" fill-opacity="0.5" stroke="#606060" stroke-width="1.0"/>
           <path id="arrow"
             d="M 11.500037,31.436501 C 11.940474,20.09759 22.043105,11.32322 32.158766,21.979434 L 37.068811,17.246167 C 37.068811,17.246167 37.088388,32 37.088388,32 L 22.160133,31.978069 C 22.160133,31.978069 26.997745,27.140456 26.997745,27.140456 C 18.528582,18.264221 13.291696,25.230495 11.500037,31.436501 z"
             style="fill:#404040;"/>
          </a>
         </g>
        </svg>
</svg>
