<?xml version="1.0" encoding="UTF-8" standalone="no"?>
<!DOCTYPE svg PUBLIC "-//W3C//DTD SVG 1.1//EN"
 "http://www.w3.org/Graphics/SVG/1.1/DTD/svg11.dtd">
<!-- Generated by graphviz version 3.0.0 (20221109.1736)
 -->
<!-- Title: denoptim.graph.Vertex.isConnectedTo Pages: 1 -->
<svg width="481pt" height="165pt"
 viewBox="0.00 0.00 481.00 164.50" xmlns="http://www.w3.org/2000/svg" xmlns:xlink="http://www.w3.org/1999/xlink">
<g id="graph0" class="graph" transform="scale(1 1) rotate(0) translate(4 160.5)">
<title>denoptim.graph.Vertex.isConnectedTo</title>
<polygon fill="white" stroke="transparent" points="-4,4 -4,-160.5 477,-160.5 477,4 -4,4"/>
<!-- Node1 -->
<g id="node1" class="node">
<title>Node1</title>
<g id="a_node1"><a xlink:title="Checks if this and another vertex are directly connected by an edge within the same graph recursion l...">
<polygon fill="#bfbfbf" stroke="black" points="0,-55 0,-85 122,-85 122,-55 0,-55"/>
<text text-anchor="start" x="8" y="-73" font-family="Helvetica,sans-Serif" font-size="10.00">denoptim.graph.Vertex.is</text>
<text text-anchor="middle" x="61" y="-62" font-family="Helvetica,sans-Serif" font-size="10.00">ConnectedTo</text>
</a>
</g>
</g>
<!-- Node2 -->
<g id="node2" class="node">
<title>Node2</title>
<g id="a_node2"><a xlink:href="classdenoptim_1_1graph_1_1_vertex.html#a44e705b8949b0fd73763e2e92a118b78" target="_top" xlink:title="Looks into the edges that use any of the APs that belong to this vertex and returns the vertex which ...">
<polygon fill="white" stroke="black" points="158,-55 158,-85 286,-85 286,-55 158,-55"/>
<text text-anchor="start" x="166" y="-73" font-family="Helvetica,sans-Serif" font-size="10.00">denoptim.graph.Vertex.get</text>
<text text-anchor="middle" x="222" y="-62" font-family="Helvetica,sans-Serif" font-size="10.00">Parent</text>
</a>
</g>
</g>
<!-- Node1&#45;&gt;Node2 -->
<g id="edge1" class="edge">
<title>Node1&#45;&gt;Node2</title>
<path fill="none" stroke="midnightblue" d="M122.11,-70C130.52,-70 139.23,-70 147.85,-70"/>
<polygon fill="midnightblue" stroke="midnightblue" points="147.89,-73.5 157.89,-70 147.89,-66.5 147.89,-73.5"/>
</g>
<!-- Node3 -->
<g id="node3" class="node">
<title>Node3</title>
<g id="a_node3"><a xlink:href="classdenoptim_1_1graph_1_1_vertex.html#a85aa901ec3fff8e566c0cc32d9c9f84e" target="_top" xlink:title=" ">
<polygon fill="white" stroke="black" points="333.5,-126 333.5,-156 461.5,-156 461.5,-126 333.5,-126"/>
<text text-anchor="start" x="341.5" y="-144" font-family="Helvetica,sans-Serif" font-size="10.00">denoptim.graph.Vertex.get</text>
<text text-anchor="middle" x="397.5" y="-133" font-family="Helvetica,sans-Serif" font-size="10.00">AttachmentPoints</text>
</a>
</g>
</g>
<!-- Node2&#45;&gt;Node3 -->
<g id="edge2" class="edge">
<title>Node2&#45;&gt;Node3</title>
<path fill="none" stroke="midnightblue" d="M252.01,-85.01C271.51,-94.8 297.95,-107.46 322,-117 326.77,-118.89 331.76,-120.75 336.79,-122.54"/>
<polygon fill="midnightblue" stroke="midnightblue" points="335.89,-125.93 346.49,-125.89 338.18,-119.31 335.89,-125.93"/>
</g>
<!-- Node4 -->
<g id="node4" class="node">
<title>Node4</title>
<g id="a_node4"><a xlink:href="classdenoptim_1_1graph_1_1_attachment_point.html#ac8551521d38644f5109800b665957ee9" target="_top" xlink:title=" ">
<polygon fill="white" stroke="black" points="330,-77 330,-107 465,-107 465,-77 330,-77"/>
<text text-anchor="start" x="338" y="-95" font-family="Helvetica,sans-Serif" font-size="10.00">denoptim.graph.Attachment</text>
<text text-anchor="middle" x="397.5" y="-84" font-family="Helvetica,sans-Serif" font-size="10.00">Point.getOwner</text>
</a>
</g>
</g>
<!-- Node2&#45;&gt;Node4 -->
<g id="edge3" class="edge">
<title>Node2&#45;&gt;Node4</title>
<path fill="none" stroke="midnightblue" d="M286.13,-78C297.03,-79.39 308.48,-80.84 319.7,-82.26"/>
<polygon fill="midnightblue" stroke="midnightblue" points="319.55,-85.77 329.91,-83.56 320.43,-78.83 319.55,-85.77"/>
</g>
<!-- Node5 -->
<g id="node5" class="node">
<title>Node5</title>
<g id="a_node5"><a xlink:href="classdenoptim_1_1graph_1_1_edge.html#a658e275a18a50f12474777f5f28c35e9" target="_top" xlink:title=" ">
<polygon fill="white" stroke="black" points="322,-38.5 322,-57.5 473,-57.5 473,-38.5 322,-38.5"/>
<text text-anchor="middle" x="397.5" y="-45.5" font-family="Helvetica,sans-Serif" font-size="10.00">denoptim.graph.Edge.getSrcAP</text>
</a>
</g>
</g>
<!-- Node2&#45;&gt;Node5 -->
<g id="edge4" class="edge">
<title>Node2&#45;&gt;Node5</title>
<path fill="none" stroke="midnightblue" d="M286.13,-62C294.49,-60.94 303.16,-59.84 311.8,-58.74"/>
<polygon fill="midnightblue" stroke="midnightblue" points="312.44,-62.19 321.92,-57.46 311.56,-55.24 312.44,-62.19"/>
</g>
<!-- Node6 -->
<g id="node6" class="node">
<title>Node6</title>
<g id="a_node6"><a xlink:href="classdenoptim_1_1graph_1_1_edge.html#a44521a3ad1a83e5d0a6be227e35ceffa" target="_top" xlink:title=" ">
<polygon fill="white" stroke="black" points="322.5,-0.5 322.5,-19.5 472.5,-19.5 472.5,-0.5 322.5,-0.5"/>
<text text-anchor="middle" x="397.5" y="-7.5" font-family="Helvetica,sans-Serif" font-size="10.00">denoptim.graph.Edge.getTrgAP</text>
</a>
</g>
</g>
<!-- Node2&#45;&gt;Node6 -->
<g id="edge5" class="edge">
<title>Node2&#45;&gt;Node6</title>
<path fill="none" stroke="midnightblue" d="M256,-54.94C275.04,-46.61 299.58,-36.46 322,-29 329.39,-26.54 337.28,-24.22 345.07,-22.09"/>
<polygon fill="midnightblue" stroke="midnightblue" points="346.05,-25.45 354.82,-19.51 344.26,-18.69 346.05,-25.45"/>
</g>
</g>
</svg>
