<?xml version="1.0" encoding="UTF-8" standalone="no"?>
<!DOCTYPE svg PUBLIC "-//W3C//DTD SVG 1.1//EN"
 "http://www.w3.org/Graphics/SVG/1.1/DTD/svg11.dtd">
<!-- Generated by graphviz version 3.0.0 (20221109.1736)
 -->
<!-- Title: denoptim.graph.APClass.equals Pages: 1 -->
<!--zoomable 333 -->
<svg id="main" version="1.1" xmlns="http://www.w3.org/2000/svg" xmlns:xlink="http://www.w3.org/1999/xlink" xml:space="preserve" onload="init(evt)">
<style type="text/css"><![CDATA[
.edge:hover path { stroke: red; }
.edge:hover polygon { stroke: red; fill: red; }
]]></style>
<script type="text/javascript"><![CDATA[
var edges = document.getElementsByTagName('g');
if (edges && edges.length) {
  for (var i=0;i<edges.length;i++) {
    if (edges[i].id.substr(0,4)=='edge') {
      edges[i].setAttribute('class','edge');
    }
  }
}
]]></script>
        <defs>
                <circle id="rim" cx="0" cy="0" r="7"/>
                <circle id="rim2" cx="0" cy="0" r="3.5"/>
                <g id="zoomPlus">
                        <use xlink:href="#rim" fill="#404040">
                                <set attributeName="fill" to="#808080" begin="zoomplus.mouseover" end="zoomplus.mouseout"/>
                        </use>
                        <path d="M-4,0h8M0,-4v8" fill="none" stroke="white" stroke-width="1.5" pointer-events="none"/>
                </g>
                <g id="zoomMin">
                        <use xlink:href="#rim" fill="#404040">
                                <set attributeName="fill" to="#808080" begin="zoomminus.mouseover" end="zoomminus.mouseout"/>
                        </use>
                        <path d="M-4,0h8" fill="none" stroke="white" stroke-width="1.5" pointer-events="none"/>
                </g>
                <g id="dirArrow">
                        <path fill="none" stroke="white" stroke-width="1.5" d="M0,-3.0v7 M-2.5,-0.5L0,-3.0L2.5,-0.5"/>
                </g>
               <g id="resetDef">
                       <use xlink:href="#rim2" fill="#404040">
                               <set attributeName="fill" to="#808080" begin="reset.mouseover" end="reset.mouseout"/>
                       </use>
               </g>
        </defs>

<script type="text/javascript">
var viewWidth = 604;
var viewHeight = 333;
var sectionId = 'dynsection-5';
</script>
<script xlink:href="svgpan.js"/>
<svg id="graph" class="graph">
<g id="viewport">
<title>denoptim.graph.APClass.equals</title>
<polygon fill="white" stroke="transparent" points="-4,4 -4,-329 600,-329 600,4 -4,4"/>
<!-- Node1 -->
<g id="node1" class="node">
<title>Node1</title>
<g id="a_node1"><a xlink:title=" ">
<polygon fill="#bfbfbf" stroke="black" points="442,-128 442,-147 596,-147 596,-128 442,-128"/>
<text text-anchor="middle" x="519" y="-135" font-family="Helvetica,sans-Serif" font-size="10.00">denoptim.graph.APClass.equals</text>
</a>
</g>
</g>
<!-- Node2 -->
<g id="node2" class="node">
<title>Node2</title>
<g id="a_node2"><a xlink:href="classdenoptim_1_1ga_1_1_graph_operations.html#add74b865c897144437bf30e3734edf01" target="_top" xlink:title="Tries to use any free AP of the given vertex to close ring in the graph by adding a chord.">
<polygon fill="white" stroke="black" points="221,-251 221,-270 403,-270 403,-251 221,-251"/>
<text text-anchor="middle" x="312" y="-258" font-family="Helvetica,sans-Serif" font-size="10.00">denoptim.ga.GraphOperations.addRing</text>
</a>
</g>
</g>
<!-- Node1&#45;&gt;Node2 -->
<g id="edge1" class="edge">
<title>Node1&#45;&gt;Node2</title>
<path fill="none" stroke="midnightblue" d="M503.4,-154.68C483.58,-176.9 446.04,-215.24 406,-236.5 394.22,-242.76 380.72,-247.45 367.72,-250.94"/>
<polygon fill="midnightblue" stroke="midnightblue" points="506.14,-156.86 510.09,-147.03 500.87,-152.25 506.14,-156.86"/>
</g>
<!-- Node5 -->
<g id="node5" class="node">
<title>Node5</title>
<g id="a_node5"><a xlink:href="classdenoptim_1_1fragspace_1_1_fragment_space.html#a4e447e0c71f560b1406af9322ece94ee" target="_top" xlink:title=" ">
<polygon fill="white" stroke="black" points="219.5,-196.5 219.5,-226.5 404.5,-226.5 404.5,-196.5 219.5,-196.5"/>
<text text-anchor="start" x="227.5" y="-214.5" font-family="Helvetica,sans-Serif" font-size="10.00">denoptim.fragspace.Fragment</text>
<text text-anchor="middle" x="312" y="-203.5" font-family="Helvetica,sans-Serif" font-size="10.00">Space.getCappingGroupsWithAPClass</text>
</a>
</g>
</g>
<!-- Node1&#45;&gt;Node5 -->
<g id="edge4" class="edge">
<title>Node1&#45;&gt;Node5</title>
<path fill="none" stroke="midnightblue" d="M489.75,-151.7C467.42,-162.53 435.24,-177.28 406,-187.5 396.87,-190.69 387.1,-193.67 377.46,-196.36"/>
<polygon fill="midnightblue" stroke="midnightblue" points="491.54,-154.72 498.97,-147.17 488.45,-148.43 491.54,-154.72"/>
</g>
<!-- Node7 -->
<g id="node7" class="node">
<title>Node7</title>
<g id="a_node7"><a xlink:href="classdenoptim_1_1fragspace_1_1_fragment_space.html#aaebd9e32b3be01d8eb6ddb12fdd84dfb" target="_top" xlink:title=" ">
<polygon fill="white" stroke="black" points="221.5,-147.5 221.5,-177.5 402.5,-177.5 402.5,-147.5 221.5,-147.5"/>
<text text-anchor="start" x="229.5" y="-165.5" font-family="Helvetica,sans-Serif" font-size="10.00">denoptim.fragspace.Fragment</text>
<text text-anchor="middle" x="312" y="-154.5" font-family="Helvetica,sans-Serif" font-size="10.00">Space.getCappingVertexWithAPClass</text>
</a>
</g>
</g>
<!-- Node1&#45;&gt;Node7 -->
<g id="edge6" class="edge">
<title>Node1&#45;&gt;Node7</title>
<path fill="none" stroke="midnightblue" d="M431.98,-147.99C422.33,-149.17 412.48,-150.37 402.78,-151.55"/>
<polygon fill="midnightblue" stroke="midnightblue" points="432.45,-151.46 441.96,-146.77 431.61,-144.51 432.45,-151.46"/>
</g>
<!-- Node8 -->
<g id="node8" class="node">
<title>Node8</title>
<g id="a_node8"><a xlink:href="classdenoptim_1_1programs_1_1fragmenter_1_1_cutting_rule.html#a53c5eb326cafb295b67556494e23eb37" target="_top" xlink:title="Get complementary class.">
<polygon fill="white" stroke="black" points="218,-98.5 218,-128.5 406,-128.5 406,-98.5 218,-98.5"/>
<text text-anchor="start" x="226" y="-116.5" font-family="Helvetica,sans-Serif" font-size="10.00">denoptim.programs.fragmenter.</text>
<text text-anchor="middle" x="312" y="-105.5" font-family="Helvetica,sans-Serif" font-size="10.00">CuttingRule.getComplementaryAPClass</text>
</a>
</g>
</g>
<!-- Node1&#45;&gt;Node8 -->
<g id="edge7" class="edge">
<title>Node1&#45;&gt;Node8</title>
<path fill="none" stroke="midnightblue" d="M431.77,-127.4C423.35,-126.42 414.77,-125.41 406.28,-124.42"/>
<polygon fill="midnightblue" stroke="midnightblue" points="431.62,-130.91 441.96,-128.6 432.43,-123.96 431.62,-130.91"/>
</g>
<!-- Node9 -->
<g id="node9" class="node">
<title>Node9</title>
<g id="a_node9"><a xlink:href="classdenoptim_1_1fragspace_1_1_fragment_space.html#a96de4850b97ff260187dc7450c883167" target="_top" xlink:title="Searches for all building blocks that are ring&#45;closing vertexes and hold an AP with the given class.">
<polygon fill="white" stroke="black" points="239.5,-49.5 239.5,-79.5 384.5,-79.5 384.5,-49.5 239.5,-49.5"/>
<text text-anchor="start" x="247.5" y="-67.5" font-family="Helvetica,sans-Serif" font-size="10.00">denoptim.fragspace.Fragment</text>
<text text-anchor="middle" x="312" y="-56.5" font-family="Helvetica,sans-Serif" font-size="10.00">Space.getRCVsWithAPClass</text>
</a>
</g>
</g>
<!-- Node1&#45;&gt;Node9 -->
<g id="edge8" class="edge">
<title>Node1&#45;&gt;Node9</title>
<path fill="none" stroke="midnightblue" d="M489.31,-123.43C466.98,-112.85 435.01,-98.52 406,-88.5 396.7,-85.29 386.75,-82.28 376.94,-79.56"/>
<polygon fill="midnightblue" stroke="midnightblue" points="488.02,-126.69 498.55,-127.85 491.04,-120.38 488.02,-126.69"/>
</g>
<!-- Node11 -->
<g id="node11" class="node">
<title>Node11</title>
<g id="a_node11"><a xlink:href="classdenoptim_1_1graph_1_1_a_p_class_test.html#ad0ca85848c4e5c3507ab801549ae8d77" target="_top" xlink:title=" ">
<polygon fill="white" stroke="black" points="231.5,-0.5 231.5,-30.5 392.5,-30.5 392.5,-0.5 231.5,-0.5"/>
<text text-anchor="start" x="239.5" y="-18.5" font-family="Helvetica,sans-Serif" font-size="10.00">denoptim.graph.APClassTest.test</text>
<text text-anchor="middle" x="312" y="-7.5" font-family="Helvetica,sans-Serif" font-size="10.00">Equals</text>
</a>
</g>
</g>
<!-- Node1&#45;&gt;Node11 -->
<g id="edge10" class="edge">
<title>Node1&#45;&gt;Node11</title>
<path fill="none" stroke="midnightblue" d="M503.06,-120.16C483.12,-98.13 445.71,-60.46 406,-39.5 399.51,-36.07 392.51,-33.12 385.35,-30.57"/>
<polygon fill="midnightblue" stroke="midnightblue" points="500.55,-122.61 509.81,-127.77 505.79,-117.97 500.55,-122.61"/>
</g>
<!-- Node3 -->
<g id="node3" class="node">
<title>Node3</title>
<g id="a_node3"><a xlink:href="classdenoptim_1_1ga_1_1_graph_operations.html#a0c851972015fbb4b2a317b053b8b81d9" target="_top" xlink:title="Mutates the given vertex according to the given mutation type, if possible.">
<polygon fill="white" stroke="black" points="1,-294.5 1,-324.5 181,-324.5 181,-294.5 1,-294.5"/>
<text text-anchor="start" x="9" y="-312.5" font-family="Helvetica,sans-Serif" font-size="10.00">denoptim.ga.GraphOperations.perform</text>
<text text-anchor="middle" x="91" y="-301.5" font-family="Helvetica,sans-Serif" font-size="10.00">Mutation</text>
</a>
</g>
</g>
<!-- Node2&#45;&gt;Node3 -->
<g id="edge2" class="edge">
<title>Node2&#45;&gt;Node3</title>
<path fill="none" stroke="midnightblue" d="M258.74,-272.19C228.96,-278.86 191.33,-287.27 159.36,-294.43"/>
<polygon fill="midnightblue" stroke="midnightblue" points="259.52,-275.6 268.51,-270.01 257.99,-268.77 259.52,-275.6"/>
</g>
<!-- Node4 -->
<g id="node4" class="node">
<title>Node4</title>
<g id="a_node4"><a xlink:href="classdenoptim_1_1ga_1_1_graph_operations_test.html#af86b79061d15a4d2e3d7ccdf0d758f44" target="_top" xlink:title=" ">
<polygon fill="white" stroke="black" points="18.5,-245.5 18.5,-275.5 163.5,-275.5 163.5,-245.5 18.5,-245.5"/>
<text text-anchor="start" x="26.5" y="-263.5" font-family="Helvetica,sans-Serif" font-size="10.00">denoptim.ga.GraphOperations</text>
<text text-anchor="middle" x="91" y="-252.5" font-family="Helvetica,sans-Serif" font-size="10.00">Test.testAddRing</text>
</a>
</g>
</g>
<!-- Node2&#45;&gt;Node4 -->
<g id="edge3" class="edge">
<title>Node2&#45;&gt;Node4</title>
<path fill="none" stroke="midnightblue" d="M210.61,-260.5C194.75,-260.5 178.64,-260.5 163.62,-260.5"/>
<polygon fill="midnightblue" stroke="midnightblue" points="210.98,-264 220.98,-260.5 210.98,-257 210.98,-264"/>
</g>
<!-- Node6 -->
<g id="node6" class="node">
<title>Node6</title>
<g id="a_node6"><a xlink:href="classdenoptim_1_1fragspace_1_1_frags_combination_iterator.html#afa4835767d37078abce9e3fbe5fa16e1" target="_top" xlink:title="Constructs a new factory for generating all the combination of fragments that can be attached on a gi...">
<polygon fill="white" stroke="black" points="0,-186 0,-227 182,-227 182,-186 0,-186"/>
<text text-anchor="start" x="8" y="-215" font-family="Helvetica,sans-Serif" font-size="10.00">denoptim.fragspace.Frags</text>
<text text-anchor="start" x="8" y="-204" font-family="Helvetica,sans-Serif" font-size="10.00">CombinationIterator.FragsCombination</text>
<text text-anchor="middle" x="91" y="-193" font-family="Helvetica,sans-Serif" font-size="10.00">Iterator</text>
</a>
</g>
</g>
<!-- Node5&#45;&gt;Node6 -->
<g id="edge5" class="edge">
<title>Node5&#45;&gt;Node6</title>
<path fill="none" stroke="midnightblue" d="M209.24,-209.18C200.21,-208.97 191.11,-208.76 182.19,-208.56"/>
<polygon fill="midnightblue" stroke="midnightblue" points="209.32,-212.68 219.39,-209.41 209.48,-205.68 209.32,-212.68"/>
</g>
<!-- Node10 -->
<g id="node10" class="node">
<title>Node10</title>
<g id="a_node10"><a xlink:href="classdenoptim_1_1fragspace_1_1_fragment_space_test.html#ac722cc2d3eff673746ba6c3eba3cace3" target="_top" xlink:title=" ">
<polygon fill="white" stroke="black" points="0,-49.5 0,-79.5 182,-79.5 182,-49.5 0,-49.5"/>
<text text-anchor="start" x="8" y="-67.5" font-family="Helvetica,sans-Serif" font-size="10.00">denoptim.fragspace.Fragment</text>
<text text-anchor="middle" x="91" y="-56.5" font-family="Helvetica,sans-Serif" font-size="10.00">SpaceTest.testGetRCVsWithAPClass</text>
</a>
</g>
</g>
<!-- Node9&#45;&gt;Node10 -->
<g id="edge9" class="edge">
<title>Node9&#45;&gt;Node10</title>
<path fill="none" stroke="midnightblue" d="M228.89,-64.5C213.68,-64.5 197.71,-64.5 182.27,-64.5"/>
<polygon fill="midnightblue" stroke="midnightblue" points="229.29,-68 239.29,-64.5 229.29,-61 229.29,-68"/>
</g>
</g>
</svg>
        <g id="navigator" transform="translate(0 0)" fill="#404254">
                <rect fill="#f2f5e9" fill-opacity="0.5" stroke="#606060" stroke-width=".5" x="0" y="0" width="60" height="60"/>
                <use id="zoomplus" xlink:href="#zoomPlus" x="17" y="9" onmousedown="handleZoom(evt,'in')"/>
                <use id="zoomminus" xlink:href="#zoomMin" x="42" y="9" onmousedown="handleZoom(evt,'out')"/>
                <use id="reset" xlink:href="#resetDef" x="30" y="36" onmousedown="handleReset()"/>
                <g id="arrowUp" xlink:href="#dirArrow" transform="translate(30 24)" onmousedown="handlePan(0,-1)">
                  <use xlink:href="#rim" fill="#404040">
                        <set attributeName="fill" to="#808080" begin="arrowUp.mouseover" end="arrowUp.mouseout"/>
                  </use>
                  <path fill="none" stroke="white" stroke-width="1.5" d="M0,-3.0v7 M-2.5,-0.5L0,-3.0L2.5,-0.5"/>
                </g>
                <g id="arrowRight" xlink:href="#dirArrow" transform="rotate(90) translate(36 -43)" onmousedown="handlePan(1,0)">
                  <use xlink:href="#rim" fill="#404040">
                        <set attributeName="fill" to="#808080" begin="arrowRight.mouseover" end="arrowRight.mouseout"/>
                  </use>
                  <path fill="none" stroke="white" stroke-width="1.5" d="M0,-3.0v7 M-2.5,-0.5L0,-3.0L2.5,-0.5"/>
                </g>
                <g id="arrowDown" xlink:href="#dirArrow" transform="rotate(180) translate(-30 -48)" onmousedown="handlePan(0,1)">
                  <use xlink:href="#rim" fill="#404040">
                        <set attributeName="fill" to="#808080" begin="arrowDown.mouseover" end="arrowDown.mouseout"/>
                  </use>
                  <path fill="none" stroke="white" stroke-width="1.5" d="M0,-3.0v7 M-2.5,-0.5L0,-3.0L2.5,-0.5"/>
                </g>
                <g id="arrowLeft" xlink:href="#dirArrow" transform="rotate(270) translate(-36 17)" onmousedown="handlePan(-1,0)">
                  <use xlink:href="#rim" fill="#404040">
                        <set attributeName="fill" to="#808080" begin="arrowLeft.mouseover" end="arrowLeft.mouseout"/>
                  </use>
                  <path fill="none" stroke="white" stroke-width="1.5" d="M0,-3.0v7 M-2.5,-0.5L0,-3.0L2.5,-0.5"/>
                </g>
        </g>
        <svg viewBox="0 0 15 15" width="100%" height="30px" preserveAspectRatio="xMaxYMin meet">
         <g id="arrow_out" transform="scale(0.3 0.3)">
          <a xlink:href="classdenoptim_1_1graph_1_1_a_p_class_a45fa1cc43d2915d4674fd544890b7019_icgraph_org.svg" target="_base">
           <rect id="button" ry="5" rx="5" y="6" x="6" height="38" width="38"
                fill="#f2f5e9" fill-opacity="0.5" stroke="#606060" stroke-width="1.0"/>
           <path id="arrow"
             d="M 11.500037,31.436501 C 11.940474,20.09759 22.043105,11.32322 32.158766,21.979434 L 37.068811,17.246167 C 37.068811,17.246167 37.088388,32 37.088388,32 L 22.160133,31.978069 C 22.160133,31.978069 26.997745,27.140456 26.997745,27.140456 C 18.528582,18.264221 13.291696,25.230495 11.500037,31.436501 z"
             style="fill:#404040;"/>
          </a>
         </g>
        </svg>
</svg>
