<?xml version="1.0" encoding="UTF-8" standalone="no"?>
<!DOCTYPE svg PUBLIC "-//W3C//DTD SVG 1.1//EN"
 "http://www.w3.org/Graphics/SVG/1.1/DTD/svg11.dtd">
<!-- Generated by graphviz version 3.0.0 (20221109.1736)
 -->
<!-- Title: denoptim.utils.MathUtils.computeDihedralAngle Pages: 1 -->
<svg width="366pt" height="127pt"
 viewBox="0.00 0.00 366.00 126.50" xmlns="http://www.w3.org/2000/svg" xmlns:xlink="http://www.w3.org/1999/xlink">
<g id="graph0" class="graph" transform="scale(1 1) rotate(0) translate(4 122.5)">
<title>denoptim.utils.MathUtils.computeDihedralAngle</title>
<polygon fill="white" stroke="transparent" points="-4,4 -4,-122.5 362,-122.5 362,4 -4,4"/>
<!-- Node1 -->
<g id="node1" class="node">
<title>Node1</title>
<g id="a_node1"><a xlink:title="Compute the dihedral angle.">
<polygon fill="#bfbfbf" stroke="black" points="0,-39 0,-69 161,-69 161,-39 0,-39"/>
<text text-anchor="start" x="8" y="-57" font-family="Helvetica,sans-Serif" font-size="10.00">denoptim.utils.MathUtils.compute</text>
<text text-anchor="middle" x="80.5" y="-46" font-family="Helvetica,sans-Serif" font-size="10.00">DihedralAngle</text>
</a>
</g>
</g>
<!-- Node2 -->
<g id="node2" class="node">
<title>Node2</title>
<g id="a_node2"><a xlink:href="classdenoptim_1_1utils_1_1_math_utils.html#af2e2b857db3b0a9c8d0ada2901eafca1" target="_top" xlink:title="Compute the cross product of two vectors.">
<polygon fill="white" stroke="black" points="197,-88 197,-118 358,-118 358,-88 197,-88"/>
<text text-anchor="start" x="205" y="-106" font-family="Helvetica,sans-Serif" font-size="10.00">denoptim.utils.MathUtils.compute</text>
<text text-anchor="middle" x="277.5" y="-95" font-family="Helvetica,sans-Serif" font-size="10.00">CrossProduct</text>
</a>
</g>
</g>
<!-- Node1&#45;&gt;Node2 -->
<g id="edge1" class="edge">
<title>Node1&#45;&gt;Node2</title>
<path fill="none" stroke="midnightblue" d="M141.33,-69.03C162.11,-74.26 185.58,-80.15 207.07,-85.55"/>
<polygon fill="midnightblue" stroke="midnightblue" points="206.23,-88.95 216.78,-87.99 207.94,-82.16 206.23,-88.95"/>
</g>
<!-- Node3 -->
<g id="node3" class="node">
<title>Node3</title>
<g id="a_node3"><a xlink:href="classdenoptim_1_1utils_1_1_math_utils.html#a2d786a84f8631fb1080ee7bfbc15d697" target="_top" xlink:title="Compute the dot product (a scalar) between two vectors.">
<polygon fill="white" stroke="black" points="197,-39 197,-69 358,-69 358,-39 197,-39"/>
<text text-anchor="start" x="205" y="-57" font-family="Helvetica,sans-Serif" font-size="10.00">denoptim.utils.MathUtils.compute</text>
<text text-anchor="middle" x="277.5" y="-46" font-family="Helvetica,sans-Serif" font-size="10.00">DotProduct</text>
</a>
</g>
</g>
<!-- Node1&#45;&gt;Node3 -->
<g id="edge2" class="edge">
<title>Node1&#45;&gt;Node3</title>
<path fill="none" stroke="midnightblue" d="M161.1,-54C169.57,-54 178.24,-54 186.82,-54"/>
<polygon fill="midnightblue" stroke="midnightblue" points="186.84,-57.5 196.84,-54 186.84,-50.5 186.84,-57.5"/>
</g>
<!-- Node4 -->
<g id="node4" class="node">
<title>Node4</title>
<g id="a_node4"><a xlink:href="classdenoptim_1_1utils_1_1_math_utils.html#abd305c2110e62105a52004b18053d3ec" target="_top" xlink:title="Perform vector subtraction.">
<polygon fill="white" stroke="black" points="198.5,-0.5 198.5,-19.5 356.5,-19.5 356.5,-0.5 198.5,-0.5"/>
<text text-anchor="middle" x="277.5" y="-7.5" font-family="Helvetica,sans-Serif" font-size="10.00">denoptim.utils.MathUtils.subtract</text>
</a>
</g>
</g>
<!-- Node1&#45;&gt;Node4 -->
<g id="edge3" class="edge">
<title>Node1&#45;&gt;Node4</title>
<path fill="none" stroke="midnightblue" d="M148.06,-38.98C173.07,-33.34 201.1,-27.01 224.58,-21.72"/>
<polygon fill="midnightblue" stroke="midnightblue" points="225.36,-25.13 234.34,-19.51 223.82,-18.3 225.36,-25.13"/>
</g>
</g>
</svg>
