<?xml version="1.0" encoding="UTF-8" standalone="no"?>
<!DOCTYPE svg PUBLIC "-//W3C//DTD SVG 1.1//EN"
 "http://www.w3.org/Graphics/SVG/1.1/DTD/svg11.dtd">
<!-- Generated by graphviz version 3.0.0 (20221109.1736)
 -->
<!-- Title: denoptim.fragspace.FragmentSpace.getRCVsWithAPClass Pages: 1 -->
<!--zoomable 274 -->
<svg id="main" version="1.1" xmlns="http://www.w3.org/2000/svg" xmlns:xlink="http://www.w3.org/1999/xlink" xml:space="preserve" onload="init(evt)">
<style type="text/css"><![CDATA[
.edge:hover path { stroke: red; }
.edge:hover polygon { stroke: red; fill: red; }
]]></style>
<script type="text/javascript"><![CDATA[
var edges = document.getElementsByTagName('g');
if (edges && edges.length) {
  for (var i=0;i<edges.length;i++) {
    if (edges[i].id.substr(0,4)=='edge') {
      edges[i].setAttribute('class','edge');
    }
  }
}
]]></script>
        <defs>
                <circle id="rim" cx="0" cy="0" r="7"/>
                <circle id="rim2" cx="0" cy="0" r="3.5"/>
                <g id="zoomPlus">
                        <use xlink:href="#rim" fill="#404040">
                                <set attributeName="fill" to="#808080" begin="zoomplus.mouseover" end="zoomplus.mouseout"/>
                        </use>
                        <path d="M-4,0h8M0,-4v8" fill="none" stroke="white" stroke-width="1.5" pointer-events="none"/>
                </g>
                <g id="zoomMin">
                        <use xlink:href="#rim" fill="#404040">
                                <set attributeName="fill" to="#808080" begin="zoomminus.mouseover" end="zoomminus.mouseout"/>
                        </use>
                        <path d="M-4,0h8" fill="none" stroke="white" stroke-width="1.5" pointer-events="none"/>
                </g>
                <g id="dirArrow">
                        <path fill="none" stroke="white" stroke-width="1.5" d="M0,-3.0v7 M-2.5,-0.5L0,-3.0L2.5,-0.5"/>
                </g>
               <g id="resetDef">
                       <use xlink:href="#rim2" fill="#404040">
                               <set attributeName="fill" to="#808080" begin="reset.mouseover" end="reset.mouseout"/>
                       </use>
               </g>
        </defs>

<script type="text/javascript">
var viewWidth = 520;
var viewHeight = 274;
var sectionId = 'dynsection-53';
</script>
<script xlink:href="svgpan.js"/>
<svg id="graph" class="graph">
<g id="viewport">
<title>denoptim.fragspace.FragmentSpace.getRCVsWithAPClass</title>
<polygon fill="white" stroke="transparent" points="-4,4 -4,-269.5 516,-269.5 516,4 -4,4"/>
<!-- Node1 -->
<g id="node1" class="node">
<title>Node1</title>
<g id="a_node1"><a xlink:title="Searches for all building blocks that are ring&#45;closing vertexes and hold an AP with the given class.">
<polygon fill="#bfbfbf" stroke="black" points="0,-171.5 0,-201.5 145,-201.5 145,-171.5 0,-171.5"/>
<text text-anchor="start" x="8" y="-189.5" font-family="Helvetica,sans-Serif" font-size="10.00">denoptim.fragspace.Fragment</text>
<text text-anchor="middle" x="72.5" y="-178.5" font-family="Helvetica,sans-Serif" font-size="10.00">Space.getRCVsWithAPClass</text>
</a>
</g>
</g>
<!-- Node2 -->
<g id="node2" class="node">
<title>Node2</title>
<g id="a_node2"><a xlink:href="classdenoptim_1_1graph_1_1_a_p_class.html#a45fa1cc43d2915d4674fd544890b7019" target="_top" xlink:title=" ">
<polygon fill="white" stroke="black" points="181,-221 181,-240 335,-240 335,-221 181,-221"/>
<text text-anchor="middle" x="258" y="-228" font-family="Helvetica,sans-Serif" font-size="10.00">denoptim.graph.APClass.equals</text>
</a>
</g>
</g>
<!-- Node1&#45;&gt;Node2 -->
<g id="edge1" class="edge">
<title>Node1&#45;&gt;Node2</title>
<path fill="none" stroke="midnightblue" d="M136.14,-201.52C159.46,-207.11 185.57,-213.37 207.55,-218.64"/>
<polygon fill="midnightblue" stroke="midnightblue" points="206.79,-222.06 217.33,-220.99 208.42,-215.25 206.79,-222.06"/>
</g>
<!-- Node3 -->
<g id="node3" class="node">
<title>Node3</title>
<g id="a_node3"><a xlink:href="classdenoptim_1_1fragspace_1_1_fragment_space.html#a95bf93e032a1e1e9e130244a1537b8a5" target="_top" xlink:title="Returns the list of registered ring&#45;closing vertexes (RCVs).">
<polygon fill="white" stroke="black" points="185.5,-171.5 185.5,-201.5 330.5,-201.5 330.5,-171.5 185.5,-171.5"/>
<text text-anchor="start" x="193.5" y="-189.5" font-family="Helvetica,sans-Serif" font-size="10.00">denoptim.fragspace.Fragment</text>
<text text-anchor="middle" x="258" y="-178.5" font-family="Helvetica,sans-Serif" font-size="10.00">Space.getRCVs</text>
</a>
</g>
</g>
<!-- Node1&#45;&gt;Node3 -->
<g id="edge2" class="edge">
<title>Node1&#45;&gt;Node3</title>
<path fill="none" stroke="midnightblue" d="M145.23,-186.5C155.01,-186.5 165.1,-186.5 175.04,-186.5"/>
<polygon fill="midnightblue" stroke="midnightblue" points="175.32,-190 185.32,-186.5 175.32,-183 175.32,-190"/>
</g>
<!-- Node4 -->
<g id="node4" class="node">
<title>Node4</title>
<g id="a_node4"><a xlink:href="classdenoptim_1_1fragspace_1_1_fragment_space.html#a492683049dc687fcdc41b43051d30554" target="_top" xlink:title="Returns a clone of the requested building block.">
<polygon fill="white" stroke="black" points="185.5,-122.5 185.5,-152.5 330.5,-152.5 330.5,-122.5 185.5,-122.5"/>
<text text-anchor="start" x="193.5" y="-140.5" font-family="Helvetica,sans-Serif" font-size="10.00">denoptim.fragspace.Fragment</text>
<text text-anchor="middle" x="258" y="-129.5" font-family="Helvetica,sans-Serif" font-size="10.00">Space.getVertexFromLibrary</text>
</a>
</g>
</g>
<!-- Node1&#45;&gt;Node4 -->
<g id="edge3" class="edge">
<title>Node1&#45;&gt;Node4</title>
<path fill="none" stroke="midnightblue" d="M129.8,-171.47C149.18,-166.29 171.05,-160.45 191.11,-155.09"/>
<polygon fill="midnightblue" stroke="midnightblue" points="192.04,-158.47 200.8,-152.51 190.24,-151.7 192.04,-158.47"/>
</g>
<!-- Node5 -->
<g id="node5" class="node">
<title>Node5</title>
<g id="a_node5"><a xlink:href="classdenoptim_1_1graph_1_1_vertex.html#a05e1f8f3d4595534fb18c8d6b7e4a82d" target="_top" xlink:title="Returns a deep&#45;copy of this vertex.">
<polygon fill="white" stroke="black" points="372.5,-246 372.5,-265 510.5,-265 510.5,-246 372.5,-246"/>
<text text-anchor="middle" x="441.5" y="-253" font-family="Helvetica,sans-Serif" font-size="10.00">denoptim.graph.Vertex.clone</text>
</a>
</g>
</g>
<!-- Node4&#45;&gt;Node5 -->
<g id="edge4" class="edge">
<title>Node4&#45;&gt;Node5</title>
<path fill="none" stroke="midnightblue" d="M320.32,-152.66C325.61,-155.41 330.61,-158.66 335,-162.5 362.55,-186.56 342.85,-213.15 371,-236.5 373.06,-238.21 375.27,-239.77 377.58,-241.19"/>
<polygon fill="midnightblue" stroke="midnightblue" points="376.42,-244.53 386.92,-246 379.63,-238.31 376.42,-244.53"/>
</g>
<!-- Node6 -->
<g id="node6" class="node">
<title>Node6</title>
<g id="a_node6"><a xlink:href="classdenoptim_1_1graph_1_1_vertex.html#a200f775296c4c9804e3a2b59e065be8a" target="_top" xlink:title="Returns the index of the building block that should correspond to the position of the building block ...">
<polygon fill="white" stroke="black" points="377.5,-196.5 377.5,-226.5 505.5,-226.5 505.5,-196.5 377.5,-196.5"/>
<text text-anchor="start" x="385.5" y="-214.5" font-family="Helvetica,sans-Serif" font-size="10.00">denoptim.graph.Vertex.get</text>
<text text-anchor="middle" x="441.5" y="-203.5" font-family="Helvetica,sans-Serif" font-size="10.00">BuildingBlockId</text>
</a>
</g>
</g>
<!-- Node4&#45;&gt;Node6 -->
<g id="edge5" class="edge">
<title>Node4&#45;&gt;Node6</title>
<path fill="none" stroke="midnightblue" d="M311.72,-152.63C319.67,-155.55 327.67,-158.84 335,-162.5 352.43,-171.19 353.63,-178.68 371,-187.5 374.49,-189.27 378.13,-190.96 381.85,-192.56"/>
<polygon fill="midnightblue" stroke="midnightblue" points="380.61,-195.84 391.19,-196.37 383.25,-189.35 380.61,-195.84"/>
</g>
<!-- Node7 -->
<g id="node7" class="node">
<title>Node7</title>
<g id="a_node7"><a xlink:href="classdenoptim_1_1programs_1_1_run_time_parameters.html#a5d529ee791990d15bde012d8dcd6b5c1" target="_top" xlink:title="Get the name of the program specific logger.">
<polygon fill="white" stroke="black" points="371.5,-147.5 371.5,-177.5 511.5,-177.5 511.5,-147.5 371.5,-147.5"/>
<text text-anchor="start" x="379.5" y="-165.5" font-family="Helvetica,sans-Serif" font-size="10.00">denoptim.programs.RunTime</text>
<text text-anchor="middle" x="441.5" y="-154.5" font-family="Helvetica,sans-Serif" font-size="10.00">Parameters.getLogger</text>
</a>
</g>
</g>
<!-- Node4&#45;&gt;Node7 -->
<g id="edge6" class="edge">
<title>Node4&#45;&gt;Node7</title>
<path fill="none" stroke="midnightblue" d="M330.73,-147.38C340.77,-148.76 351.12,-150.19 361.28,-151.59"/>
<polygon fill="midnightblue" stroke="midnightblue" points="360.98,-155.08 371.36,-152.98 361.93,-148.14 360.98,-155.08"/>
</g>
<!-- Node8 -->
<g id="node8" class="node">
<title>Node8</title>
<g id="a_node8"><a xlink:href="classdenoptim_1_1utils_1_1_graph_utils.html#aad6245f297edf8a9f100b3949092f3c1" target="_top" xlink:title="Unique counter for the number of graph vertices generated.">
<polygon fill="white" stroke="black" points="371,-98.5 371,-128.5 512,-128.5 512,-98.5 371,-98.5"/>
<text text-anchor="start" x="379" y="-116.5" font-family="Helvetica,sans-Serif" font-size="10.00">denoptim.utils.GraphUtils.get</text>
<text text-anchor="middle" x="441.5" y="-105.5" font-family="Helvetica,sans-Serif" font-size="10.00">UniqueVertexIndex</text>
</a>
</g>
</g>
<!-- Node4&#45;&gt;Node8 -->
<g id="edge7" class="edge">
<title>Node4&#45;&gt;Node8</title>
<path fill="none" stroke="midnightblue" d="M330.73,-128.01C340.62,-126.71 350.82,-125.36 360.83,-124.03"/>
<polygon fill="midnightblue" stroke="midnightblue" points="361.31,-127.5 370.77,-122.72 360.4,-120.56 361.31,-127.5"/>
</g>
<!-- Node9 -->
<g id="node9" class="node">
<title>Node9</title>
<g id="a_node9"><a xlink:href="classdenoptim_1_1graph_1_1_vertex.html#a867032399d8aad0a894cbf5b51406ac4" target="_top" xlink:title=" ">
<polygon fill="white" stroke="black" points="377.5,-49.5 377.5,-79.5 505.5,-79.5 505.5,-49.5 377.5,-49.5"/>
<text text-anchor="start" x="385.5" y="-67.5" font-family="Helvetica,sans-Serif" font-size="10.00">denoptim.graph.Vertex.set</text>
<text text-anchor="middle" x="441.5" y="-56.5" font-family="Helvetica,sans-Serif" font-size="10.00">BuildingBlockId</text>
</a>
</g>
</g>
<!-- Node4&#45;&gt;Node9 -->
<g id="edge8" class="edge">
<title>Node4&#45;&gt;Node9</title>
<path fill="none" stroke="midnightblue" d="M292.6,-122.48C314.73,-112.74 344.43,-99.96 371,-89.5 376.43,-87.36 382.12,-85.2 387.81,-83.08"/>
<polygon fill="midnightblue" stroke="midnightblue" points="389.17,-86.31 397.34,-79.57 386.75,-79.74 389.17,-86.31"/>
</g>
<!-- Node10 -->
<g id="node10" class="node">
<title>Node10</title>
<g id="a_node10"><a xlink:href="classdenoptim_1_1graph_1_1_vertex.html#a29e20c43a6110fbaac6cc86c216fe143" target="_top" xlink:title=" ">
<polygon fill="white" stroke="black" points="377.5,-0.5 377.5,-30.5 505.5,-30.5 505.5,-0.5 377.5,-0.5"/>
<text text-anchor="start" x="385.5" y="-18.5" font-family="Helvetica,sans-Serif" font-size="10.00">denoptim.graph.Vertex.set</text>
<text text-anchor="middle" x="441.5" y="-7.5" font-family="Helvetica,sans-Serif" font-size="10.00">VertexId</text>
</a>
</g>
</g>
<!-- Node4&#45;&gt;Node10 -->
<g id="edge9" class="edge">
<title>Node4&#45;&gt;Node10</title>
<path fill="none" stroke="midnightblue" d="M272.85,-122.41C292.77,-101.49 331.48,-63.63 371,-40.5 374.45,-38.48 378.09,-36.58 381.82,-34.81"/>
<polygon fill="midnightblue" stroke="midnightblue" points="383.51,-37.89 391.24,-30.64 380.68,-31.49 383.51,-37.89"/>
</g>
</g>
</svg>
        <g id="navigator" transform="translate(0 0)" fill="#404254">
                <rect fill="#f2f5e9" fill-opacity="0.5" stroke="#606060" stroke-width=".5" x="0" y="0" width="60" height="60"/>
                <use id="zoomplus" xlink:href="#zoomPlus" x="17" y="9" onmousedown="handleZoom(evt,'in')"/>
                <use id="zoomminus" xlink:href="#zoomMin" x="42" y="9" onmousedown="handleZoom(evt,'out')"/>
                <use id="reset" xlink:href="#resetDef" x="30" y="36" onmousedown="handleReset()"/>
                <g id="arrowUp" xlink:href="#dirArrow" transform="translate(30 24)" onmousedown="handlePan(0,-1)">
                  <use xlink:href="#rim" fill="#404040">
                        <set attributeName="fill" to="#808080" begin="arrowUp.mouseover" end="arrowUp.mouseout"/>
                  </use>
                  <path fill="none" stroke="white" stroke-width="1.5" d="M0,-3.0v7 M-2.5,-0.5L0,-3.0L2.5,-0.5"/>
                </g>
                <g id="arrowRight" xlink:href="#dirArrow" transform="rotate(90) translate(36 -43)" onmousedown="handlePan(1,0)">
                  <use xlink:href="#rim" fill="#404040">
                        <set attributeName="fill" to="#808080" begin="arrowRight.mouseover" end="arrowRight.mouseout"/>
                  </use>
                  <path fill="none" stroke="white" stroke-width="1.5" d="M0,-3.0v7 M-2.5,-0.5L0,-3.0L2.5,-0.5"/>
                </g>
                <g id="arrowDown" xlink:href="#dirArrow" transform="rotate(180) translate(-30 -48)" onmousedown="handlePan(0,1)">
                  <use xlink:href="#rim" fill="#404040">
                        <set attributeName="fill" to="#808080" begin="arrowDown.mouseover" end="arrowDown.mouseout"/>
                  </use>
                  <path fill="none" stroke="white" stroke-width="1.5" d="M0,-3.0v7 M-2.5,-0.5L0,-3.0L2.5,-0.5"/>
                </g>
                <g id="arrowLeft" xlink:href="#dirArrow" transform="rotate(270) translate(-36 17)" onmousedown="handlePan(-1,0)">
                  <use xlink:href="#rim" fill="#404040">
                        <set attributeName="fill" to="#808080" begin="arrowLeft.mouseover" end="arrowLeft.mouseout"/>
                  </use>
                  <path fill="none" stroke="white" stroke-width="1.5" d="M0,-3.0v7 M-2.5,-0.5L0,-3.0L2.5,-0.5"/>
                </g>
        </g>
        <svg viewBox="0 0 15 15" width="100%" height="30px" preserveAspectRatio="xMaxYMin meet">
         <g id="arrow_out" transform="scale(0.3 0.3)">
          <a xlink:href="classdenoptim_1_1fragspace_1_1_fragment_space_a96de4850b97ff260187dc7450c883167_cgraph_org.svg" target="_base">
           <rect id="button" ry="5" rx="5" y="6" x="6" height="38" width="38"
                fill="#f2f5e9" fill-opacity="0.5" stroke="#606060" stroke-width="1.0"/>
           <path id="arrow"
             d="M 11.500037,31.436501 C 11.940474,20.09759 22.043105,11.32322 32.158766,21.979434 L 37.068811,17.246167 C 37.068811,17.246167 37.088388,32 37.088388,32 L 22.160133,31.978069 C 22.160133,31.978069 26.997745,27.140456 26.997745,27.140456 C 18.528582,18.264221 13.291696,25.230495 11.500037,31.436501 z"
             style="fill:#404040;"/>
          </a>
         </g>
        </svg>
</svg>
