<?xml version="1.0" encoding="UTF-8" standalone="no"?>
<!DOCTYPE svg PUBLIC "-//W3C//DTD SVG 1.1//EN"
 "http://www.w3.org/Graphics/SVG/1.1/DTD/svg11.dtd">
<!-- Generated by graphviz version 3.0.0 (20221109.1736)
 -->
<!-- Title: denoptim.graph.DGraph.reorderVertexList Pages: 1 -->
<svg width="1206pt" height="375pt"
 viewBox="0.00 0.00 1206.00 375.00" xmlns="http://www.w3.org/2000/svg" xmlns:xlink="http://www.w3.org/1999/xlink">
<g id="graph0" class="graph" transform="scale(1 1) rotate(0) translate(4 371)">
<title>denoptim.graph.DGraph.reorderVertexList</title>
<polygon fill="white" stroke="transparent" points="-4,4 -4,-371 1202,-371 1202,4 -4,4"/>
<!-- Node1 -->
<g id="node1" class="node">
<title>Node1</title>
<g id="a_node1"><a xlink:title="Sets the vertex at the lowest level as the scaffold, changes the &#160;&#160;directions of edges so that the sc...">
<polygon fill="#bfbfbf" stroke="black" points="0,-209.5 0,-239.5 150,-239.5 150,-209.5 0,-209.5"/>
<text text-anchor="start" x="8" y="-227.5" font-family="Helvetica,sans-Serif" font-size="10.00">denoptim.graph.DGraph.reorder</text>
<text text-anchor="middle" x="75" y="-216.5" font-family="Helvetica,sans-Serif" font-size="10.00">VertexList</text>
</a>
</g>
</g>
<!-- Node2 -->
<g id="node2" class="node">
<title>Node2</title>
<g id="a_node2"><a xlink:href="classdenoptim_1_1graph_1_1_d_graph.html#a9f63f3990784eee06842737c42bfc08d" target="_top" xlink:title="Flips edges in the graph so that the scaffold is the only source vertex.">
<polygon fill="white" stroke="black" points="186,-253.5 186,-283.5 315,-283.5 315,-253.5 186,-253.5"/>
<text text-anchor="start" x="194" y="-271.5" font-family="Helvetica,sans-Serif" font-size="10.00">denoptim.graph.DGraph.fix</text>
<text text-anchor="middle" x="250.5" y="-260.5" font-family="Helvetica,sans-Serif" font-size="10.00">EdgeDirections</text>
</a>
</g>
</g>
<!-- Node1&#45;&gt;Node2 -->
<g id="edge1" class="edge">
<title>Node1&#45;&gt;Node2</title>
<path fill="none" stroke="midnightblue" d="M135.22,-239.52C149.8,-243.22 165.53,-247.21 180.52,-251.01"/>
<polygon fill="midnightblue" stroke="midnightblue" points="179.7,-254.41 190.25,-253.47 181.42,-247.62 179.7,-254.41"/>
</g>
<!-- Node3 -->
<g id="node3" class="node">
<title>Node3</title>
<g id="a_node3"><a xlink:href="classdenoptim_1_1graph_1_1_d_graph.html#a1aa43ea09d59d14420ae0b647578df52" target="_top" xlink:title="Identifies and return the vertex from which the spanning tree originates.">
<polygon fill="white" stroke="black" points="351,-253.5 351,-283.5 485,-283.5 485,-253.5 351,-253.5"/>
<text text-anchor="start" x="359" y="-271.5" font-family="Helvetica,sans-Serif" font-size="10.00">denoptim.graph.DGraph.get</text>
<text text-anchor="middle" x="418" y="-260.5" font-family="Helvetica,sans-Serif" font-size="10.00">SourceVertex</text>
</a>
</g>
</g>
<!-- Node1&#45;&gt;Node3 -->
<g id="edge14" class="edge">
<title>Node1&#45;&gt;Node3</title>
<path fill="none" stroke="midnightblue" d="M150.09,-227.87C197.46,-230.73 260.1,-235.79 315,-244.5 326.33,-246.3 338.26,-248.66 349.81,-251.21"/>
<polygon fill="midnightblue" stroke="midnightblue" points="349.32,-254.69 359.84,-253.49 350.87,-247.86 349.32,-254.69"/>
</g>
<!-- Node13 -->
<g id="node13" class="node">
<title>Node13</title>
<g id="a_node13"><a xlink:href="classdenoptim_1_1graph_1_1_d_graph.html#a5f83a5964a20b7fd7ca36f28e32fd425" target="_top" xlink:title="Update the graph so that the vertex argument is at the scaffold level i.e.">
<polygon fill="white" stroke="black" points="691,-147.5 691,-177.5 825,-177.5 825,-147.5 691,-147.5"/>
<text text-anchor="start" x="699" y="-165.5" font-family="Helvetica,sans-Serif" font-size="10.00">denoptim.graph.DGraph.set</text>
<text text-anchor="middle" x="758" y="-154.5" font-family="Helvetica,sans-Serif" font-size="10.00">Scaffold</text>
</a>
</g>
</g>
<!-- Node1&#45;&gt;Node13 -->
<g id="edge15" class="edge">
<title>Node1&#45;&gt;Node13</title>
<path fill="none" stroke="midnightblue" d="M150.18,-217.75C280.53,-205.88 549.35,-181.41 680.99,-169.42"/>
<polygon fill="midnightblue" stroke="midnightblue" points="681.36,-172.9 691,-168.51 680.72,-165.93 681.36,-172.9"/>
</g>
<!-- Node2&#45;&gt;Node2 -->
<g id="edge2" class="edge">
<title>Node2&#45;&gt;Node2</title>
<path fill="none" stroke="midnightblue" d="M221.57,-283.66C214.6,-293.06 224.24,-302 250.5,-302 266.5,-302 276.34,-298.68 280,-293.96"/>
<polygon fill="midnightblue" stroke="midnightblue" points="283.47,-293.45 279.43,-283.66 276.48,-293.84 283.47,-293.45"/>
</g>
<!-- Node2&#45;&gt;Node3 -->
<g id="edge3" class="edge">
<title>Node2&#45;&gt;Node3</title>
<path fill="none" stroke="midnightblue" d="M315.01,-268.5C323.47,-268.5 332.2,-268.5 340.84,-268.5"/>
<polygon fill="midnightblue" stroke="midnightblue" points="340.91,-272 350.91,-268.5 340.91,-265 340.91,-272"/>
</g>
<!-- Node4 -->
<g id="node4" class="node">
<title>Node4</title>
<g id="a_node4"><a xlink:href="classdenoptim_1_1graph_1_1_d_graph.html#ab5d3641bcfd0c8dd76d5de6159d6b8c8" target="_top" xlink:title=" ">
<polygon fill="white" stroke="black" points="521,-336.5 521,-366.5 655,-366.5 655,-336.5 521,-336.5"/>
<text text-anchor="start" x="529" y="-354.5" font-family="Helvetica,sans-Serif" font-size="10.00">denoptim.graph.DGraph.get</text>
<text text-anchor="middle" x="588" y="-343.5" font-family="Helvetica,sans-Serif" font-size="10.00">EdgeList</text>
</a>
</g>
</g>
<!-- Node3&#45;&gt;Node4 -->
<g id="edge4" class="edge">
<title>Node3&#45;&gt;Node4</title>
<path fill="none" stroke="midnightblue" d="M442.27,-283.54C462.55,-296.26 493.01,-314.44 521,-327.5 524.79,-329.27 528.75,-330.99 532.77,-332.66"/>
<polygon fill="midnightblue" stroke="midnightblue" points="531.6,-335.96 542.19,-336.41 534.19,-329.46 531.6,-335.96"/>
</g>
<!-- Node5 -->
<g id="node5" class="node">
<title>Node5</title>
<g id="a_node5"><a xlink:href="classdenoptim_1_1graph_1_1_d_graph.html#aaf3eb72074f66c853ea40c06ac9bea0e" target="_top" xlink:title="Traverse the graph until it identifies the source of the directed path reachable from the given verte...">
<polygon fill="white" stroke="black" points="521,-269.5 521,-299.5 655,-299.5 655,-269.5 521,-269.5"/>
<text text-anchor="start" x="529" y="-287.5" font-family="Helvetica,sans-Serif" font-size="10.00">denoptim.graph.DGraph.get</text>
<text text-anchor="middle" x="588" y="-276.5" font-family="Helvetica,sans-Serif" font-size="10.00">ParentTree</text>
</a>
</g>
</g>
<!-- Node3&#45;&gt;Node5 -->
<g id="edge5" class="edge">
<title>Node3&#45;&gt;Node5</title>
<path fill="none" stroke="midnightblue" d="M485.4,-274.82C493.68,-275.61 502.2,-276.42 510.62,-277.23"/>
<polygon fill="midnightblue" stroke="midnightblue" points="510.52,-280.73 520.81,-278.2 511.19,-273.76 510.52,-280.73"/>
</g>
<!-- Node12 -->
<g id="node12" class="node">
<title>Node12</title>
<g id="a_node12"><a xlink:href="classdenoptim_1_1graph_1_1_d_graph.html#a58811a9ea75a26abffc1a9c7c2b22741" target="_top" xlink:title="Returns the vertex that is in the given position of the list of vertices belonging to this graph.">
<polygon fill="white" stroke="black" points="521,-220.5 521,-250.5 655,-250.5 655,-220.5 521,-220.5"/>
<text text-anchor="start" x="529" y="-238.5" font-family="Helvetica,sans-Serif" font-size="10.00">denoptim.graph.DGraph.get</text>
<text text-anchor="middle" x="588" y="-227.5" font-family="Helvetica,sans-Serif" font-size="10.00">VertexAtPosition</text>
</a>
</g>
</g>
<!-- Node3&#45;&gt;Node12 -->
<g id="edge13" class="edge">
<title>Node3&#45;&gt;Node12</title>
<path fill="none" stroke="midnightblue" d="M485.4,-255.46C493.77,-253.81 502.39,-252.12 510.89,-250.45"/>
<polygon fill="midnightblue" stroke="midnightblue" points="511.67,-253.86 520.81,-248.5 510.32,-246.99 511.67,-253.86"/>
</g>
<!-- Node5&#45;&gt;Node5 -->
<g id="edge12" class="edge">
<title>Node5&#45;&gt;Node5</title>
<path fill="none" stroke="midnightblue" d="M558.37,-299.66C551.23,-309.06 561.11,-318 588,-318 604.39,-318 614.46,-314.68 618.21,-309.96"/>
<polygon fill="midnightblue" stroke="midnightblue" points="621.68,-309.45 617.63,-299.66 614.69,-309.84 621.68,-309.45"/>
</g>
<!-- Node6 -->
<g id="node6" class="node">
<title>Node6</title>
<g id="a_node6"><a xlink:href="classdenoptim_1_1graph_1_1_d_graph.html#a978d4b9f0c7e555fa1db7ed5a6af5a6c" target="_top" xlink:title=" ">
<polygon fill="white" stroke="black" points="691,-274.5 691,-304.5 825,-304.5 825,-274.5 691,-274.5"/>
<text text-anchor="start" x="699" y="-292.5" font-family="Helvetica,sans-Serif" font-size="10.00">denoptim.graph.DGraph.get</text>
<text text-anchor="middle" x="758" y="-281.5" font-family="Helvetica,sans-Serif" font-size="10.00">Parent</text>
</a>
</g>
</g>
<!-- Node5&#45;&gt;Node6 -->
<g id="edge6" class="edge">
<title>Node5&#45;&gt;Node6</title>
<path fill="none" stroke="midnightblue" d="M655.4,-286.48C663.68,-286.72 672.2,-286.98 680.62,-287.23"/>
<polygon fill="midnightblue" stroke="midnightblue" points="680.71,-290.73 690.81,-287.53 680.92,-283.73 680.71,-290.73"/>
</g>
<!-- Node7 -->
<g id="node7" class="node">
<title>Node7</title>
<g id="a_node7"><a xlink:href="classdenoptim_1_1graph_1_1_vertex.html#a2937a75fd3652481c84235742b94736b" target="_top" xlink:title="Looks into the edges that use any of the APs that belong to this vertex and returns the edge that has...">
<polygon fill="white" stroke="black" points="872.5,-323.5 872.5,-353.5 1000.5,-353.5 1000.5,-323.5 872.5,-323.5"/>
<text text-anchor="start" x="880.5" y="-341.5" font-family="Helvetica,sans-Serif" font-size="10.00">denoptim.graph.Vertex.get</text>
<text text-anchor="middle" x="936.5" y="-330.5" font-family="Helvetica,sans-Serif" font-size="10.00">EdgeToParent</text>
</a>
</g>
</g>
<!-- Node6&#45;&gt;Node7 -->
<g id="edge7" class="edge">
<title>Node6&#45;&gt;Node7</title>
<path fill="none" stroke="midnightblue" d="M813.4,-304.6C831.77,-309.7 852.45,-315.44 871.49,-320.73"/>
<polygon fill="midnightblue" stroke="midnightblue" points="870.71,-324.15 881.28,-323.45 872.58,-317.4 870.71,-324.15"/>
</g>
<!-- Node10 -->
<g id="node10" class="node">
<title>Node10</title>
<g id="a_node10"><a xlink:href="classdenoptim_1_1graph_1_1_attachment_point.html#ac8551521d38644f5109800b665957ee9" target="_top" xlink:title=" ">
<polygon fill="white" stroke="black" points="869,-235.5 869,-265.5 1004,-265.5 1004,-235.5 869,-235.5"/>
<text text-anchor="start" x="877" y="-253.5" font-family="Helvetica,sans-Serif" font-size="10.00">denoptim.graph.Attachment</text>
<text text-anchor="middle" x="936.5" y="-242.5" font-family="Helvetica,sans-Serif" font-size="10.00">Point.getOwner</text>
</a>
</g>
</g>
<!-- Node6&#45;&gt;Node10 -->
<g id="edge10" class="edge">
<title>Node6&#45;&gt;Node10</title>
<path fill="none" stroke="midnightblue" d="M825.22,-274.87C836.27,-272.43 847.81,-269.88 859.08,-267.39"/>
<polygon fill="midnightblue" stroke="midnightblue" points="859.9,-270.79 868.9,-265.22 858.38,-263.96 859.9,-270.79"/>
</g>
<!-- Node11 -->
<g id="node11" class="node">
<title>Node11</title>
<g id="a_node11"><a xlink:href="classdenoptim_1_1graph_1_1_edge.html#a658e275a18a50f12474777f5f28c35e9" target="_top" xlink:title=" ">
<polygon fill="white" stroke="black" points="861,-285 861,-304 1012,-304 1012,-285 861,-285"/>
<text text-anchor="middle" x="936.5" y="-292" font-family="Helvetica,sans-Serif" font-size="10.00">denoptim.graph.Edge.getSrcAP</text>
</a>
</g>
</g>
<!-- Node6&#45;&gt;Node11 -->
<g id="edge11" class="edge">
<title>Node6&#45;&gt;Node11</title>
<path fill="none" stroke="midnightblue" d="M825.22,-291.38C833.59,-291.61 842.24,-291.86 850.84,-292.1"/>
<polygon fill="midnightblue" stroke="midnightblue" points="850.81,-295.6 860.9,-292.39 851,-288.6 850.81,-295.6"/>
</g>
<!-- Node8 -->
<g id="node8" class="node">
<title>Node8</title>
<g id="a_node8"><a xlink:href="classdenoptim_1_1graph_1_1_vertex.html#a85aa901ec3fff8e566c0cc32d9c9f84e" target="_top" xlink:title=" ">
<polygon fill="white" stroke="black" points="1059,-235.5 1059,-265.5 1187,-265.5 1187,-235.5 1059,-235.5"/>
<text text-anchor="start" x="1067" y="-253.5" font-family="Helvetica,sans-Serif" font-size="10.00">denoptim.graph.Vertex.get</text>
<text text-anchor="middle" x="1123" y="-242.5" font-family="Helvetica,sans-Serif" font-size="10.00">AttachmentPoints</text>
</a>
</g>
</g>
<!-- Node7&#45;&gt;Node8 -->
<g id="edge8" class="edge">
<title>Node7&#45;&gt;Node8</title>
<path fill="none" stroke="midnightblue" d="M986.92,-323.44C995.4,-320.43 1004.03,-317.08 1012,-313.5 1039.23,-301.28 1068.48,-284.32 1089.97,-271.08"/>
<polygon fill="midnightblue" stroke="midnightblue" points="1092.04,-273.92 1098.68,-265.66 1088.34,-267.97 1092.04,-273.92"/>
</g>
<!-- Node9 -->
<g id="node9" class="node">
<title>Node9</title>
<g id="a_node9"><a xlink:href="classdenoptim_1_1graph_1_1_edge.html#a44521a3ad1a83e5d0a6be227e35ceffa" target="_top" xlink:title=" ">
<polygon fill="white" stroke="black" points="1048,-329 1048,-348 1198,-348 1198,-329 1048,-329"/>
<text text-anchor="middle" x="1123" y="-336" font-family="Helvetica,sans-Serif" font-size="10.00">denoptim.graph.Edge.getTrgAP</text>
</a>
</g>
</g>
<!-- Node7&#45;&gt;Node9 -->
<g id="edge9" class="edge">
<title>Node7&#45;&gt;Node9</title>
<path fill="none" stroke="midnightblue" d="M1000.74,-338.5C1012.55,-338.5 1025.08,-338.5 1037.42,-338.5"/>
<polygon fill="midnightblue" stroke="midnightblue" points="1037.72,-342 1047.72,-338.5 1037.72,-335 1037.72,-342"/>
</g>
<!-- Node13&#45;&gt;Node8 -->
<g id="edge16" class="edge">
<title>Node13&#45;&gt;Node8</title>
<path fill="none" stroke="midnightblue" d="M820.99,-177.53C884.45,-192.91 983.01,-216.81 1049.92,-233.03"/>
<polygon fill="midnightblue" stroke="midnightblue" points="1049.42,-236.51 1059.96,-235.46 1051.07,-229.7 1049.42,-236.51"/>
</g>
<!-- Node13&#45;&gt;Node10 -->
<g id="edge19" class="edge">
<title>Node13&#45;&gt;Node10</title>
<path fill="none" stroke="midnightblue" d="M783.24,-177.51C803.6,-189.82 833.67,-207.3 861,-220.5 868.94,-224.33 877.5,-228.1 885.89,-231.61"/>
<polygon fill="midnightblue" stroke="midnightblue" points="884.67,-234.89 895.25,-235.44 887.32,-228.41 884.67,-234.89"/>
</g>
<!-- Node14 -->
<g id="node14" class="node">
<title>Node14</title>
<g id="a_node14"><a xlink:href="classdenoptim_1_1graph_1_1_attachment_point.html#af8040db3f56d75da29132079df2b25cb" target="_top" xlink:title="Gets the edge that is using this AP, or null if no edge is using this AP.">
<polygon fill="white" stroke="black" points="869,-147.5 869,-177.5 1004,-177.5 1004,-147.5 869,-147.5"/>
<text text-anchor="start" x="877" y="-165.5" font-family="Helvetica,sans-Serif" font-size="10.00">denoptim.graph.Attachment</text>
<text text-anchor="middle" x="936.5" y="-154.5" font-family="Helvetica,sans-Serif" font-size="10.00">Point.getEdgeUser</text>
</a>
</g>
</g>
<!-- Node13&#45;&gt;Node14 -->
<g id="edge17" class="edge">
<title>Node13&#45;&gt;Node14</title>
<path fill="none" stroke="midnightblue" d="M825.22,-162.5C836.16,-162.5 847.57,-162.5 858.74,-162.5"/>
<polygon fill="midnightblue" stroke="midnightblue" points="858.9,-166 868.9,-162.5 858.9,-159 858.9,-166"/>
</g>
<!-- Node15 -->
<g id="node15" class="node">
<title>Node15</title>
<g id="a_node15"><a xlink:href="classdenoptim_1_1graph_1_1_vertex.html#a6615f1c869173b8bd6d730c6683b9de4" target="_top" xlink:title="Returns the graph this vertex belongs to or null.">
<polygon fill="white" stroke="black" points="872.5,-98.5 872.5,-128.5 1000.5,-128.5 1000.5,-98.5 872.5,-98.5"/>
<text text-anchor="start" x="880.5" y="-116.5" font-family="Helvetica,sans-Serif" font-size="10.00">denoptim.graph.Vertex.get</text>
<text text-anchor="middle" x="936.5" y="-105.5" font-family="Helvetica,sans-Serif" font-size="10.00">GraphOwner</text>
</a>
</g>
</g>
<!-- Node13&#45;&gt;Node15 -->
<g id="edge18" class="edge">
<title>Node13&#45;&gt;Node15</title>
<path fill="none" stroke="midnightblue" d="M813.4,-147.4C831.77,-142.3 852.45,-136.56 871.49,-131.27"/>
<polygon fill="midnightblue" stroke="midnightblue" points="872.58,-134.6 881.28,-128.55 870.71,-127.85 872.58,-134.6"/>
</g>
<!-- Node16 -->
<g id="node16" class="node">
<title>Node16</title>
<g id="a_node16"><a xlink:href="classdenoptim_1_1graph_1_1_vertex.html#a9493346ca1480edfcfa00cb78a52adf5" target="_top" xlink:title=" ">
<polygon fill="white" stroke="black" points="872.5,-49.5 872.5,-79.5 1000.5,-79.5 1000.5,-49.5 872.5,-49.5"/>
<text text-anchor="start" x="880.5" y="-67.5" font-family="Helvetica,sans-Serif" font-size="10.00">denoptim.graph.Vertex.get</text>
<text text-anchor="middle" x="936.5" y="-56.5" font-family="Helvetica,sans-Serif" font-size="10.00">VertexId</text>
</a>
</g>
</g>
<!-- Node13&#45;&gt;Node16 -->
<g id="edge20" class="edge">
<title>Node13&#45;&gt;Node16</title>
<path fill="none" stroke="midnightblue" d="M776.3,-147.29C795.74,-130.86 828.81,-104.84 861,-88.5 864.58,-86.68 868.32,-84.97 872.15,-83.35"/>
<polygon fill="midnightblue" stroke="midnightblue" points="873.76,-86.48 881.77,-79.54 871.18,-79.97 873.76,-86.48"/>
</g>
<!-- Node17 -->
<g id="node17" class="node">
<title>Node17</title>
<g id="a_node17"><a xlink:href="classdenoptim_1_1graph_1_1_d_graph.html#a0567839609e4cc14173ee2e882eccf56" target="_top" xlink:title=" ">
<polygon fill="white" stroke="black" points="869.5,-0.5 869.5,-30.5 1003.5,-30.5 1003.5,-0.5 869.5,-0.5"/>
<text text-anchor="start" x="877.5" y="-18.5" font-family="Helvetica,sans-Serif" font-size="10.00">denoptim.graph.DGraph.set</text>
<text text-anchor="middle" x="936.5" y="-7.5" font-family="Helvetica,sans-Serif" font-size="10.00">VertexList</text>
</a>
</g>
</g>
<!-- Node13&#45;&gt;Node17 -->
<g id="edge21" class="edge">
<title>Node13&#45;&gt;Node17</title>
<path fill="none" stroke="midnightblue" d="M767.63,-147.26C783.05,-121.37 817.81,-68.74 861,-39.5 863.37,-37.89 865.86,-36.39 868.43,-34.98"/>
<polygon fill="midnightblue" stroke="midnightblue" points="869.99,-38.11 877.42,-30.55 866.9,-31.83 869.99,-38.11"/>
</g>
</g>
</svg>
