<?xml version="1.0" encoding="UTF-8" standalone="no"?>
<!DOCTYPE svg PUBLIC "-//W3C//DTD SVG 1.1//EN"
 "http://www.w3.org/Graphics/SVG/1.1/DTD/svg11.dtd">
<!-- Generated by graphviz version 3.0.0 (20221109.1736)
 -->
<!-- Title: denoptim.task.ParallelAsynchronousTaskExecutor.submitTask Pages: 1 -->
<svg width="390pt" height="78pt"
 viewBox="0.00 0.00 390.00 77.50" xmlns="http://www.w3.org/2000/svg" xmlns:xlink="http://www.w3.org/1999/xlink">
<g id="graph0" class="graph" transform="scale(1 1) rotate(0) translate(4 73.5)">
<title>denoptim.task.ParallelAsynchronousTaskExecutor.submitTask</title>
<polygon fill="white" stroke="transparent" points="-4,4 -4,-73.5 386,-73.5 386,4 -4,4"/>
<!-- Node1 -->
<g id="node1" class="node">
<title>Node1</title>
<g id="a_node1"><a xlink:title=" ">
<polygon fill="#bfbfbf" stroke="black" points="0,-17 0,-47 173,-47 173,-17 0,-17"/>
<text text-anchor="start" x="8" y="-35" font-family="Helvetica,sans-Serif" font-size="10.00">denoptim.task.ParallelAsynchronous</text>
<text text-anchor="middle" x="86.5" y="-24" font-family="Helvetica,sans-Serif" font-size="10.00">TaskExecutor.submitTask</text>
</a>
</g>
</g>
<!-- Node2 -->
<g id="node2" class="node">
<title>Node2</title>
<g id="a_node2"><a xlink:href="classdenoptim_1_1task_1_1_parallel_asynchronous_task_executor.html#a1df7d9703e94f5d58dc53afdaa7688d4" target="_top" xlink:title="Removes only tasks that are marked as completed.">
<polygon fill="white" stroke="black" points="209,-39 209,-69 382,-69 382,-39 209,-39"/>
<text text-anchor="start" x="217" y="-57" font-family="Helvetica,sans-Serif" font-size="10.00">denoptim.task.ParallelAsynchronous</text>
<text text-anchor="middle" x="295.5" y="-46" font-family="Helvetica,sans-Serif" font-size="10.00">TaskExecutor.cleanupCompleted</text>
</a>
</g>
</g>
<!-- Node1&#45;&gt;Node2 -->
<g id="edge1" class="edge">
<title>Node1&#45;&gt;Node2</title>
<path fill="none" stroke="midnightblue" d="M173.19,-41.11C181.66,-42.01 190.3,-42.93 198.87,-43.84"/>
<polygon fill="midnightblue" stroke="midnightblue" points="198.56,-47.32 208.88,-44.9 199.3,-40.36 198.56,-47.32"/>
</g>
<!-- Node3 -->
<g id="node3" class="node">
<title>Node3</title>
<g id="a_node3"><a xlink:href="classdenoptim_1_1task_1_1_task.html#ad75b4d3407d7d677cc71ad94028f8841" target="_top" xlink:title=" ">
<polygon fill="white" stroke="black" points="233,-0.5 233,-19.5 358,-19.5 358,-0.5 233,-0.5"/>
<text text-anchor="middle" x="295.5" y="-7.5" font-family="Helvetica,sans-Serif" font-size="10.00">denoptim.task.Task.getId</text>
</a>
</g>
</g>
<!-- Node1&#45;&gt;Node3 -->
<g id="edge2" class="edge">
<title>Node1&#45;&gt;Node3</title>
<path fill="none" stroke="midnightblue" d="M173.19,-22.89C189.61,-21.15 206.65,-19.34 222.59,-17.64"/>
<polygon fill="midnightblue" stroke="midnightblue" points="223.31,-21.09 232.88,-16.55 222.57,-14.13 223.31,-21.09"/>
</g>
</g>
</svg>
