<?xml version="1.0" encoding="UTF-8" standalone="no"?>
<!DOCTYPE svg PUBLIC "-//W3C//DTD SVG 1.1//EN"
 "http://www.w3.org/Graphics/SVG/1.1/DTD/svg11.dtd">
<!-- Generated by graphviz version 3.0.0 (20221109.1736)
 -->
<!-- Title: denoptim.graph.Edge.BondType.hasCDKAnalogue Pages: 1 -->
<!--zoomable 387 -->
<svg id="main" version="1.1" xmlns="http://www.w3.org/2000/svg" xmlns:xlink="http://www.w3.org/1999/xlink" xml:space="preserve" onload="init(evt)">
<style type="text/css"><![CDATA[
.edge:hover path { stroke: red; }
.edge:hover polygon { stroke: red; fill: red; }
]]></style>
<script type="text/javascript"><![CDATA[
var edges = document.getElementsByTagName('g');
if (edges && edges.length) {
  for (var i=0;i<edges.length;i++) {
    if (edges[i].id.substr(0,4)=='edge') {
      edges[i].setAttribute('class','edge');
    }
  }
}
]]></script>
        <defs>
                <circle id="rim" cx="0" cy="0" r="7"/>
                <circle id="rim2" cx="0" cy="0" r="3.5"/>
                <g id="zoomPlus">
                        <use xlink:href="#rim" fill="#404040">
                                <set attributeName="fill" to="#808080" begin="zoomplus.mouseover" end="zoomplus.mouseout"/>
                        </use>
                        <path d="M-4,0h8M0,-4v8" fill="none" stroke="white" stroke-width="1.5" pointer-events="none"/>
                </g>
                <g id="zoomMin">
                        <use xlink:href="#rim" fill="#404040">
                                <set attributeName="fill" to="#808080" begin="zoomminus.mouseover" end="zoomminus.mouseout"/>
                        </use>
                        <path d="M-4,0h8" fill="none" stroke="white" stroke-width="1.5" pointer-events="none"/>
                </g>
                <g id="dirArrow">
                        <path fill="none" stroke="white" stroke-width="1.5" d="M0,-3.0v7 M-2.5,-0.5L0,-3.0L2.5,-0.5"/>
                </g>
               <g id="resetDef">
                       <use xlink:href="#rim2" fill="#404040">
                               <set attributeName="fill" to="#808080" begin="reset.mouseover" end="reset.mouseout"/>
                       </use>
               </g>
        </defs>

<script type="text/javascript">
var viewWidth = 2178;
var viewHeight = 387;
var sectionId = 'dynsection-2';
</script>
<script xlink:href="svgpan.js"/>
<svg id="graph" class="graph">
<g id="viewport">
<title>denoptim.graph.Edge.BondType.hasCDKAnalogue</title>
<polygon fill="white" stroke="transparent" points="-4,4 -4,-383 2174,-383 2174,4 -4,4"/>
<!-- Node1 -->
<g id="node1" class="node">
<title>Node1</title>
<g id="a_node1"><a xlink:title="Checks if it is possible to convert this edge type into a CDK bond.">
<polygon fill="#bfbfbf" stroke="black" points="2039,-168 2039,-198 2170,-198 2170,-168 2039,-168"/>
<text text-anchor="start" x="2047" y="-186" font-family="Helvetica,sans-Serif" font-size="10.00">denoptim.graph.Edge.Bond</text>
<text text-anchor="middle" x="2104.5" y="-175" font-family="Helvetica,sans-Serif" font-size="10.00">Type.hasCDKAnalogue</text>
</a>
</g>
</g>
<!-- Node2 -->
<g id="node2" class="node">
<title>Node2</title>
<g id="a_node2"><a xlink:href="classdenoptim_1_1molecularmodeling_1_1_chemical_object_model.html#a85aaa2ca417ef0cf65457ad46f288344" target="_top" xlink:title="Modify the molecule adding a cyclic bond between two atoms.">
<polygon fill="white" stroke="black" points="1827,-237 1827,-267 1979,-267 1979,-237 1827,-237"/>
<text text-anchor="start" x="1835" y="-255" font-family="Helvetica,sans-Serif" font-size="10.00">denoptim.molecularmodeling.</text>
<text text-anchor="middle" x="1903" y="-244" font-family="Helvetica,sans-Serif" font-size="10.00">ChemicalObjectModel.addBond</text>
</a>
</g>
</g>
<!-- Node1&#45;&gt;Node2 -->
<g id="edge1" class="edge">
<title>Node1&#45;&gt;Node2</title>
<path fill="none" stroke="midnightblue" d="M2056.89,-201.93C2040.02,-208.56 2020.75,-215.88 2003,-222 1987.97,-227.18 1971.51,-232.37 1956.39,-236.93"/>
<polygon fill="midnightblue" stroke="midnightblue" points="2058.51,-205.06 2066.52,-198.12 2055.93,-198.55 2058.51,-205.06"/>
</g>
<!-- Node3 -->
<g id="node3" class="node">
<title>Node3</title>
<g id="a_node3"><a xlink:href="classdenoptim_1_1molecularmodeling_1_1_ring_closure_tool.html#a065481cf3ca3229eee8b417fa3f7c0b5" target="_top" xlink:title="Makes new rings by connecting pairs of atoms that hold properly arranged RingClosingAttractors.">
<polygon fill="white" stroke="black" points="1611.5,-281 1611.5,-311 1753.5,-311 1753.5,-281 1611.5,-281"/>
<text text-anchor="start" x="1619.5" y="-299" font-family="Helvetica,sans-Serif" font-size="10.00">denoptim.molecularmodeling.</text>
<text text-anchor="middle" x="1682.5" y="-288" font-family="Helvetica,sans-Serif" font-size="10.00">RingClosureTool.closeRings</text>
</a>
</g>
</g>
<!-- Node1&#45;&gt;Node3 -->
<g id="edge34" class="edge">
<title>Node1&#45;&gt;Node3</title>
<path fill="none" stroke="midnightblue" d="M2086.68,-206.17C2068.79,-228.76 2038.23,-261.87 2003,-277 1922.71,-311.48 1820.51,-310.77 1753.61,-305.09"/>
<polygon fill="midnightblue" stroke="midnightblue" points="2089.58,-208.14 2092.91,-198.08 2084.03,-203.87 2089.58,-208.14"/>
</g>
<!-- Node9 -->
<g id="node9" class="node">
<title>Node9</title>
<g id="a_node9"><a xlink:href="classdenoptim_1_1graph_1_1rings_1_1_ring_size_manager.html#a547c0ffdb4a260f249040aba0a941b6b" target="_top" xlink:title=" ">
<polygon fill="white" stroke="black" points="1600,-193 1600,-223 1765,-223 1765,-193 1600,-193"/>
<text text-anchor="start" x="1608" y="-211" font-family="Helvetica,sans-Serif" font-size="10.00">denoptim.graph.rings.Ring</text>
<text text-anchor="middle" x="1682.5" y="-200" font-family="Helvetica,sans-Serif" font-size="10.00">SizeManager.addRingClosingBond</text>
</a>
</g>
</g>
<!-- Node1&#45;&gt;Node9 -->
<g id="edge9" class="edge">
<title>Node1&#45;&gt;Node9</title>
<path fill="none" stroke="midnightblue" d="M2028.75,-187.46C2020.07,-187.98 2011.34,-188.5 2003,-189 1922.15,-193.82 1829.8,-199.31 1765.25,-203.14"/>
<polygon fill="midnightblue" stroke="midnightblue" points="2029.12,-190.95 2038.89,-186.86 2028.7,-183.96 2029.12,-190.95"/>
</g>
<!-- Node27 -->
<g id="node27" class="node">
<title>Node27</title>
<g id="a_node27"><a xlink:href="classdenoptim_1_1molecularmodeling_1_1_three_dim_tree_builder.html#a91fba166ba9fe73858ed16209d575cc5" target="_top" xlink:title="Recursive method that appends branches of building blocks following the edges of the graph.">
<polygon fill="white" stroke="black" points="1803,-60.5 1803,-101.5 2003,-101.5 2003,-60.5 1803,-60.5"/>
<text text-anchor="start" x="1811" y="-89.5" font-family="Helvetica,sans-Serif" font-size="10.00">denoptim.molecularmodeling.</text>
<text text-anchor="start" x="1811" y="-78.5" font-family="Helvetica,sans-Serif" font-size="10.00">ThreeDimTreeBuilder.append3DFragments</text>
<text text-anchor="middle" x="1903" y="-67.5" font-family="Helvetica,sans-Serif" font-size="10.00">ViaEdges</text>
</a>
</g>
</g>
<!-- Node1&#45;&gt;Node27 -->
<g id="edge31" class="edge">
<title>Node1&#45;&gt;Node27</title>
<path fill="none" stroke="midnightblue" d="M2067.02,-162.93C2048.03,-152.6 2024.37,-139.92 2003,-129 1984.97,-119.79 1964.9,-109.98 1947.56,-101.64"/>
<polygon fill="midnightblue" stroke="midnightblue" points="2065.48,-166.07 2075.94,-167.79 2068.83,-159.93 2065.48,-166.07"/>
</g>
<!-- Node29 -->
<g id="node29" class="node">
<title>Node29</title>
<g id="a_node29"><a xlink:href="classdenoptim_1_1graph_1_1rings_1_1_path_closability_tools.html#a54bf5ea69523e3352eea462fbf97b9a1" target="_top" xlink:title="Method to evaluate the closability of a single path considering only its constitution.">
<polygon fill="white" stroke="black" points="1811.5,-138.5 1811.5,-179.5 1994.5,-179.5 1994.5,-138.5 1811.5,-138.5"/>
<text text-anchor="start" x="1819.5" y="-167.5" font-family="Helvetica,sans-Serif" font-size="10.00">denoptim.graph.rings.Path</text>
<text text-anchor="start" x="1819.5" y="-156.5" font-family="Helvetica,sans-Serif" font-size="10.00">ClosabilityTools.evaluateConstitutional</text>
<text text-anchor="middle" x="1903" y="-145.5" font-family="Helvetica,sans-Serif" font-size="10.00">Closability</text>
</a>
</g>
</g>
<!-- Node1&#45;&gt;Node29 -->
<g id="edge35" class="edge">
<title>Node1&#45;&gt;Node29</title>
<path fill="none" stroke="midnightblue" d="M2028.65,-174C2017.52,-172.66 2005.95,-171.26 1994.54,-169.89"/>
<polygon fill="midnightblue" stroke="midnightblue" points="2028.38,-177.49 2038.73,-175.21 2029.22,-170.54 2028.38,-177.49"/>
</g>
<!-- Node35 -->
<g id="node35" class="node">
<title>Node35</title>
<g id="a_node35"><a xlink:href="classdenoptim_1_1utils_1_1_molecule_utils.html#a1d0f69b9fe60e2df6c934b129eb2b044" target="_top" xlink:title="Replace used RCAs (i.e., those involved in Rings) while adding the ring closing bonds.">
<polygon fill="white" stroke="black" points="1816.5,-12 1816.5,-42 1989.5,-42 1989.5,-12 1816.5,-12"/>
<text text-anchor="start" x="1824.5" y="-30" font-family="Helvetica,sans-Serif" font-size="10.00">denoptim.utils.MoleculeUtils.remove</text>
<text text-anchor="middle" x="1903" y="-19" font-family="Helvetica,sans-Serif" font-size="10.00">UsedRCA</text>
</a>
</g>
</g>
<!-- Node1&#45;&gt;Node35 -->
<g id="edge43" class="edge">
<title>Node1&#45;&gt;Node35</title>
<path fill="none" stroke="midnightblue" d="M2091.63,-158.63C2075.71,-128.58 2044.55,-78.16 2003,-51 1997.82,-47.61 1992.2,-44.7 1986.37,-42.2"/>
<polygon fill="midnightblue" stroke="midnightblue" points="2088.57,-160.33 2096.26,-167.61 2094.79,-157.12 2088.57,-160.33"/>
</g>
<!-- Node2&#45;&gt;Node3 -->
<g id="edge2" class="edge">
<title>Node2&#45;&gt;Node3</title>
<path fill="none" stroke="midnightblue" d="M1817.5,-269.02C1796.41,-273.26 1774.02,-277.77 1753.7,-281.86"/>
<polygon fill="midnightblue" stroke="midnightblue" points="1818.3,-272.42 1827.42,-267.02 1816.92,-265.56 1818.3,-272.42"/>
</g>
<!-- Node4 -->
<g id="node4" class="node">
<title>Node4</title>
<g id="a_node4"><a xlink:href="classdenoptim_1_1molecularmodeling_1_1_ring_closure_tool.html#aa33d747366e6462bc5c35b4e2f1718e4" target="_top" xlink:title="Attempts to close rings by finding the conformation that allows to join heads and tails of specific a...">
<polygon fill="white" stroke="black" points="1382,-335.5 1382,-376.5 1558,-376.5 1558,-335.5 1382,-335.5"/>
<text text-anchor="start" x="1390" y="-364.5" font-family="Helvetica,sans-Serif" font-size="10.00">denoptim.molecularmodeling.</text>
<text text-anchor="start" x="1390" y="-353.5" font-family="Helvetica,sans-Serif" font-size="10.00">RingClosureTool.attemptRingClosure</text>
<text text-anchor="middle" x="1470" y="-342.5" font-family="Helvetica,sans-Serif" font-size="10.00">WithRCOServer</text>
</a>
</g>
</g>
<!-- Node3&#45;&gt;Node4 -->
<g id="edge3" class="edge">
<title>Node3&#45;&gt;Node4</title>
<path fill="none" stroke="midnightblue" d="M1619,-313.82C1595.1,-320.63 1567.67,-328.45 1542.96,-335.49"/>
<polygon fill="midnightblue" stroke="midnightblue" points="1620,-317.17 1628.65,-311.06 1618.08,-310.44 1620,-317.17"/>
</g>
<!-- Node8 -->
<g id="node8" class="node">
<title>Node8</title>
<g id="a_node8"><a xlink:href="classdenoptim_1_1molecularmodeling_1_1_ring_closure_tool.html#aadf300ed5d54402aa08a181cce4c9dc5" target="_top" xlink:title="Attempts to close rings by finding the conformation that allows to join heads and tails of specific a...">
<polygon fill="white" stroke="black" points="1382,-275.5 1382,-316.5 1558,-316.5 1558,-275.5 1382,-275.5"/>
<text text-anchor="start" x="1390" y="-304.5" font-family="Helvetica,sans-Serif" font-size="10.00">denoptim.molecularmodeling.</text>
<text text-anchor="start" x="1390" y="-293.5" font-family="Helvetica,sans-Serif" font-size="10.00">RingClosureTool.attemptRingClosure</text>
<text text-anchor="middle" x="1470" y="-282.5" font-family="Helvetica,sans-Serif" font-size="10.00">WithTinker</text>
</a>
</g>
</g>
<!-- Node3&#45;&gt;Node8 -->
<g id="edge7" class="edge">
<title>Node3&#45;&gt;Node8</title>
<path fill="none" stroke="midnightblue" d="M1601.24,-296C1587.1,-296 1572.33,-296 1558.02,-296"/>
<polygon fill="midnightblue" stroke="midnightblue" points="1601.41,-299.5 1611.41,-296 1601.41,-292.5 1601.41,-299.5"/>
</g>
<!-- Node5 -->
<g id="node5" class="node">
<title>Node5</title>
<g id="a_node5"><a xlink:href="classdenoptim_1_1molecularmodeling_1_1_ring_closure_tool.html#a26896649739e0a5e63dd88079c6efe7a" target="_top" xlink:title="Performs one or more attempts to close rings by conformational adaptation.">
<polygon fill="white" stroke="black" points="1150,-341 1150,-371 1342,-371 1342,-341 1150,-341"/>
<text text-anchor="start" x="1158" y="-359" font-family="Helvetica,sans-Serif" font-size="10.00">denoptim.molecularmodeling.</text>
<text text-anchor="middle" x="1246" y="-348" font-family="Helvetica,sans-Serif" font-size="10.00">RingClosureTool.attemptAllRingClosures</text>
</a>
</g>
</g>
<!-- Node4&#45;&gt;Node5 -->
<g id="edge4" class="edge">
<title>Node4&#45;&gt;Node5</title>
<path fill="none" stroke="midnightblue" d="M1371.77,-356C1361.98,-356 1352.05,-356 1342.29,-356"/>
<polygon fill="midnightblue" stroke="midnightblue" points="1371.9,-359.5 1381.9,-356 1371.9,-352.5 1371.9,-359.5"/>
</g>
<!-- Node6 -->
<g id="node6" class="node">
<title>Node6</title>
<g id="a_node6"><a xlink:href="classdenoptim_1_1molecularmodeling_1_1_multi_molecular_model_builder.html#a6a8e314f3fb37f66c32c8c4d5695b8a4" target="_top" xlink:title="Given the graph representation of the molecular constitution, along with the 3D coordinates of the fr...">
<polygon fill="white" stroke="black" points="945,-337.5 945,-378.5 1103,-378.5 1103,-337.5 945,-337.5"/>
<text text-anchor="start" x="953" y="-366.5" font-family="Helvetica,sans-Serif" font-size="10.00">denoptim.molecularmodeling.</text>
<text text-anchor="start" x="953" y="-355.5" font-family="Helvetica,sans-Serif" font-size="10.00">MultiMolecularModelBuilder.build</text>
<text text-anchor="middle" x="1024" y="-344.5" font-family="Helvetica,sans-Serif" font-size="10.00">Multi3DStructure</text>
</a>
</g>
</g>
<!-- Node5&#45;&gt;Node6 -->
<g id="edge5" class="edge">
<title>Node5&#45;&gt;Node6</title>
<path fill="none" stroke="midnightblue" d="M1139.53,-356.96C1127.28,-357.07 1114.96,-357.18 1103.17,-357.29"/>
<polygon fill="midnightblue" stroke="midnightblue" points="1139.82,-360.46 1149.78,-356.87 1139.75,-353.46 1139.82,-360.46"/>
</g>
<!-- Node7 -->
<g id="node7" class="node">
<title>Node7</title>
<g id="a_node7"><a xlink:href="classdenoptim_1_1programs_1_1moldecularmodelbuilder_1_1_molecular_model_builder.html#ad2e44290de6a861274def677044e9754" target="_top" xlink:title=" ">
<polygon fill="white" stroke="black" points="692,-343 692,-373 898,-373 898,-343 692,-343"/>
<text text-anchor="start" x="700" y="-361" font-family="Helvetica,sans-Serif" font-size="10.00">denoptim.programs.moldecularmodelbuilder.</text>
<text text-anchor="middle" x="795" y="-350" font-family="Helvetica,sans-Serif" font-size="10.00">MolecularModelBuilder.runProgram</text>
</a>
</g>
</g>
<!-- Node6&#45;&gt;Node7 -->
<g id="edge6" class="edge">
<title>Node6&#45;&gt;Node7</title>
<path fill="none" stroke="midnightblue" d="M934.55,-358C922.67,-358 910.41,-358 898.32,-358"/>
<polygon fill="midnightblue" stroke="midnightblue" points="934.88,-361.5 944.88,-358 934.88,-354.5 934.88,-361.5"/>
</g>
<!-- Node8&#45;&gt;Node5 -->
<g id="edge8" class="edge">
<title>Node8&#45;&gt;Node5</title>
<path fill="none" stroke="midnightblue" d="M1383.07,-319.22C1356.07,-326.52 1326.99,-334.38 1302.66,-340.96"/>
<polygon fill="midnightblue" stroke="midnightblue" points="1384.17,-322.55 1392.91,-316.56 1382.34,-315.8 1384.17,-322.55"/>
</g>
<!-- Node10 -->
<g id="node10" class="node">
<title>Node10</title>
<g id="a_node10"><a xlink:href="classdenoptim_1_1graph_1_1rings_1_1_random_comb_of_rings_iterator.html#a19576eb954cf002962af02f60a24c57e" target="_top" xlink:title=" ">
<polygon fill="white" stroke="black" points="1398,-193 1398,-223 1542,-223 1542,-193 1398,-193"/>
<text text-anchor="start" x="1406" y="-211" font-family="Helvetica,sans-Serif" font-size="10.00">denoptim.graph.rings.Random</text>
<text text-anchor="middle" x="1470" y="-200" font-family="Helvetica,sans-Serif" font-size="10.00">CombOfRingsIterator.next</text>
</a>
</g>
</g>
<!-- Node9&#45;&gt;Node10 -->
<g id="edge10" class="edge">
<title>Node9&#45;&gt;Node10</title>
<path fill="none" stroke="midnightblue" d="M1589.45,-208C1573.55,-208 1557.25,-208 1542.03,-208"/>
<polygon fill="midnightblue" stroke="midnightblue" points="1589.81,-211.5 1599.81,-208 1589.81,-204.5 1589.81,-211.5"/>
</g>
<!-- Node11 -->
<g id="node11" class="node">
<title>Node11</title>
<g id="a_node11"><a xlink:href="classdenoptim_1_1ga_1_1_graph_operations.html#add74b865c897144437bf30e3734edf01" target="_top" xlink:title="Tries to use any free AP of the given vertex to close ring in the graph by adding a chord.">
<polygon fill="white" stroke="black" points="1155,-294.5 1155,-313.5 1337,-313.5 1337,-294.5 1155,-294.5"/>
<text text-anchor="middle" x="1246" y="-301.5" font-family="Helvetica,sans-Serif" font-size="10.00">denoptim.ga.GraphOperations.addRing</text>
</a>
</g>
</g>
<!-- Node10&#45;&gt;Node11 -->
<g id="edge11" class="edge">
<title>Node10&#45;&gt;Node11</title>
<path fill="none" stroke="midnightblue" d="M1436.45,-228.54C1402.23,-250.01 1351.95,-281.13 1342,-285 1332.05,-288.87 1321.19,-292 1310.48,-294.5"/>
<polygon fill="midnightblue" stroke="midnightblue" points="1438.6,-231.32 1445.21,-223.04 1434.88,-225.4 1438.6,-231.32"/>
</g>
<!-- Node14 -->
<g id="node14" class="node">
<title>Node14</title>
<g id="a_node14"><a xlink:href="classdenoptim_1_1graph_1_1rings_1_1_cyclic_graph_handler.html#a08b02946eaac7c2cbbe6e71332d702e6" target="_top" xlink:title="Identifies a random combination of ring closing paths and returns it as list of DENOPTIMRings ready t...">
<polygon fill="white" stroke="black" points="1155,-174.5 1155,-215.5 1337,-215.5 1337,-174.5 1155,-174.5"/>
<text text-anchor="start" x="1163" y="-203.5" font-family="Helvetica,sans-Serif" font-size="10.00">denoptim.graph.rings.Cyclic</text>
<text text-anchor="start" x="1163" y="-192.5" font-family="Helvetica,sans-Serif" font-size="10.00">GraphHandler.getRandomCombination</text>
<text text-anchor="middle" x="1246" y="-181.5" font-family="Helvetica,sans-Serif" font-size="10.00">OfRings</text>
</a>
</g>
</g>
<!-- Node10&#45;&gt;Node14 -->
<g id="edge14" class="edge">
<title>Node10&#45;&gt;Node14</title>
<path fill="none" stroke="midnightblue" d="M1387.75,-203.24C1371.33,-202.28 1353.97,-201.26 1337.26,-200.29"/>
<polygon fill="midnightblue" stroke="midnightblue" points="1387.65,-206.74 1397.84,-203.83 1388.06,-199.75 1387.65,-206.74"/>
</g>
<!-- Node26 -->
<g id="node26" class="node">
<title>Node26</title>
<g id="a_node26"><a xlink:href="classdenoptim_1_1graph_1_1rings_1_1_random_comb_of_ring_iterator_test.html#a4a178f479d08c120f5fea6ef60feac8b" target="_top" xlink:title=" ">
<polygon fill="white" stroke="black" points="1156.5,-234.5 1156.5,-275.5 1335.5,-275.5 1335.5,-234.5 1156.5,-234.5"/>
<text text-anchor="start" x="1164.5" y="-263.5" font-family="Helvetica,sans-Serif" font-size="10.00">denoptim.graph.rings.Random</text>
<text text-anchor="start" x="1164.5" y="-252.5" font-family="Helvetica,sans-Serif" font-size="10.00">CombOfRingIteratorTest.testEvaluate</text>
<text text-anchor="middle" x="1246" y="-241.5" font-family="Helvetica,sans-Serif" font-size="10.00">ConstitutionalClosability</text>
</a>
</g>
</g>
<!-- Node10&#45;&gt;Node26 -->
<g id="edge30" class="edge">
<title>Node10&#45;&gt;Node26</title>
<path fill="none" stroke="midnightblue" d="M1388.26,-225.09C1371.24,-228.7 1353.19,-232.52 1335.89,-236.18"/>
<polygon fill="midnightblue" stroke="midnightblue" points="1389.09,-228.5 1398.15,-223 1387.64,-221.65 1389.09,-228.5"/>
</g>
<!-- Node12 -->
<g id="node12" class="node">
<title>Node12</title>
<g id="a_node12"><a xlink:href="classdenoptim_1_1ga_1_1_graph_operations.html#a0c851972015fbb4b2a317b053b8b81d9" target="_top" xlink:title="Mutates the given vertex according to the given mutation type, if possible.">
<polygon fill="white" stroke="black" points="934,-289 934,-319 1114,-319 1114,-289 934,-289"/>
<text text-anchor="start" x="942" y="-307" font-family="Helvetica,sans-Serif" font-size="10.00">denoptim.ga.GraphOperations.perform</text>
<text text-anchor="middle" x="1024" y="-296" font-family="Helvetica,sans-Serif" font-size="10.00">Mutation</text>
</a>
</g>
</g>
<!-- Node11&#45;&gt;Node12 -->
<g id="edge12" class="edge">
<title>Node11&#45;&gt;Node12</title>
<path fill="none" stroke="midnightblue" d="M1144.76,-304C1134.59,-304 1124.31,-304 1114.27,-304"/>
<polygon fill="midnightblue" stroke="midnightblue" points="1144.88,-307.5 1154.88,-304 1144.88,-300.5 1144.88,-307.5"/>
</g>
<!-- Node13 -->
<g id="node13" class="node">
<title>Node13</title>
<g id="a_node13"><a xlink:href="classdenoptim_1_1ga_1_1_graph_operations_test.html#af86b79061d15a4d2e3d7ccdf0d758f44" target="_top" xlink:title=" ">
<polygon fill="white" stroke="black" points="951.5,-240 951.5,-270 1096.5,-270 1096.5,-240 951.5,-240"/>
<text text-anchor="start" x="959.5" y="-258" font-family="Helvetica,sans-Serif" font-size="10.00">denoptim.ga.GraphOperations</text>
<text text-anchor="middle" x="1024" y="-247" font-family="Helvetica,sans-Serif" font-size="10.00">Test.testAddRing</text>
</a>
</g>
</g>
<!-- Node11&#45;&gt;Node13 -->
<g id="edge13" class="edge">
<title>Node11&#45;&gt;Node13</title>
<path fill="none" stroke="midnightblue" d="M1185.79,-292.52C1173.92,-290.12 1161.55,-287.54 1150,-285 1128.97,-280.37 1106.03,-274.97 1085.61,-270.04"/>
<polygon fill="midnightblue" stroke="midnightblue" points="1185.12,-295.96 1195.62,-294.5 1186.5,-289.09 1185.12,-295.96"/>
</g>
<!-- Node15 -->
<g id="node15" class="node">
<title>Node15</title>
<g id="a_node15"><a xlink:href="classdenoptim_1_1ga_1_1_e_a_utils.html#a1ddb932d4618434d435e4f85ce5e5eb5" target="_top" xlink:title="Evaluates the possibility of closing rings in a given graph and if any ring can be closed,...">
<polygon fill="white" stroke="black" points="958.5,-158 958.5,-188 1089.5,-188 1089.5,-158 958.5,-158"/>
<text text-anchor="start" x="966.5" y="-176" font-family="Helvetica,sans-Serif" font-size="10.00">denoptim.ga.EAUtils.setup</text>
<text text-anchor="middle" x="1024" y="-165" font-family="Helvetica,sans-Serif" font-size="10.00">Rings</text>
</a>
</g>
</g>
<!-- Node14&#45;&gt;Node15 -->
<g id="edge15" class="edge">
<title>Node14&#45;&gt;Node15</title>
<path fill="none" stroke="midnightblue" d="M1144.84,-184.98C1126.13,-183.11 1107.03,-181.2 1089.73,-179.47"/>
<polygon fill="midnightblue" stroke="midnightblue" points="1144.58,-188.48 1154.88,-185.99 1145.28,-181.51 1144.58,-188.48"/>
</g>
<!-- Node16 -->
<g id="node16" class="node">
<title>Node16</title>
<g id="a_node16"><a xlink:href="classdenoptim_1_1ga_1_1_e_a_utils.html#a8122818f58919fce84dce75e7506025a" target="_top" xlink:title=" ">
<polygon fill="white" stroke="black" points="731.5,-207 731.5,-237 858.5,-237 858.5,-207 731.5,-207"/>
<text text-anchor="start" x="739.5" y="-225" font-family="Helvetica,sans-Serif" font-size="10.00">denoptim.ga.EAUtils.build</text>
<text text-anchor="middle" x="795" y="-214" font-family="Helvetica,sans-Serif" font-size="10.00">CandidateByMutation</text>
</a>
</g>
</g>
<!-- Node15&#45;&gt;Node16 -->
<g id="edge16" class="edge">
<title>Node15&#45;&gt;Node16</title>
<path fill="none" stroke="midnightblue" d="M948.2,-189.15C919.28,-195.39 886.55,-202.45 858.87,-208.43"/>
<polygon fill="midnightblue" stroke="midnightblue" points="949.22,-192.51 958.25,-186.98 947.74,-185.66 949.22,-192.51"/>
</g>
<!-- Node23 -->
<g id="node23" class="node">
<title>Node23</title>
<g id="a_node23"><a xlink:href="classdenoptim_1_1ga_1_1_e_a_utils.html#ad3d2daeb11e68a356e971ca1846596b5" target="_top" xlink:title=" ">
<polygon fill="white" stroke="black" points="731.5,-158 731.5,-188 858.5,-188 858.5,-158 731.5,-158"/>
<text text-anchor="start" x="739.5" y="-176" font-family="Helvetica,sans-Serif" font-size="10.00">denoptim.ga.EAUtils.build</text>
<text text-anchor="middle" x="795" y="-165" font-family="Helvetica,sans-Serif" font-size="10.00">CandidateFromScratch</text>
</a>
</g>
</g>
<!-- Node15&#45;&gt;Node23 -->
<g id="edge24" class="edge">
<title>Node15&#45;&gt;Node23</title>
<path fill="none" stroke="midnightblue" d="M948.2,-173C919.28,-173 886.55,-173 858.87,-173"/>
<polygon fill="midnightblue" stroke="midnightblue" points="948.25,-176.5 958.25,-173 948.25,-169.5 948.25,-176.5"/>
</g>
<!-- Node25 -->
<g id="node25" class="node">
<title>Node25</title>
<g id="a_node25"><a xlink:href="classdenoptim_1_1ga_1_1_e_a_utils.html#a0b958439d79fae30f14530213ad22e3a" target="_top" xlink:title="Generates up to a pair of new offspring by performing a crossover operation.">
<polygon fill="white" stroke="black" points="731.5,-109 731.5,-139 858.5,-139 858.5,-109 731.5,-109"/>
<text text-anchor="start" x="739.5" y="-127" font-family="Helvetica,sans-Serif" font-size="10.00">denoptim.ga.EAUtils.build</text>
<text text-anchor="middle" x="795" y="-116" font-family="Helvetica,sans-Serif" font-size="10.00">CandidatesByXOver</text>
</a>
</g>
</g>
<!-- Node15&#45;&gt;Node25 -->
<g id="edge29" class="edge">
<title>Node15&#45;&gt;Node25</title>
<path fill="none" stroke="midnightblue" d="M948.2,-156.85C919.28,-150.61 886.55,-143.55 858.87,-137.57"/>
<polygon fill="midnightblue" stroke="midnightblue" points="947.74,-160.34 958.25,-159.02 949.22,-153.49 947.74,-160.34"/>
</g>
<!-- Node17 -->
<g id="node17" class="node">
<title>Node17</title>
<g id="a_node17"><a xlink:href="classdenoptim_1_1ga_1_1_evolutionary_algorithm.html#a0c2e353b243250b4959a3f86608f1020" target="_top" xlink:title="Generates one offspring according to the method where crossover and mutation are decoupled,...">
<polygon fill="white" stroke="black" points="526,-158 526,-188 656,-188 656,-158 526,-158"/>
<text text-anchor="start" x="534" y="-176" font-family="Helvetica,sans-Serif" font-size="10.00">denoptim.ga.Evolutionary</text>
<text text-anchor="middle" x="591" y="-165" font-family="Helvetica,sans-Serif" font-size="10.00">Algorithm.makeOffspringA</text>
</a>
</g>
</g>
<!-- Node16&#45;&gt;Node17 -->
<g id="edge17" class="edge">
<title>Node16&#45;&gt;Node17</title>
<path fill="none" stroke="midnightblue" d="M721.53,-205.08C711.6,-202.72 701.55,-200.32 692,-198 678.87,-194.81 664.79,-191.33 651.45,-188.01"/>
<polygon fill="midnightblue" stroke="midnightblue" points="720.86,-208.52 731.39,-207.41 722.47,-201.7 720.86,-208.52"/>
</g>
<!-- Node22 -->
<g id="node22" class="node">
<title>Node22</title>
<g id="a_node22"><a xlink:href="classdenoptim_1_1ga_1_1_evolutionary_algorithm.html#ae7a90a911b109ed47b3acf54193acc35" target="_top" xlink:title="Generates one offspring according to the method where crossover and mutation are coupled,...">
<polygon fill="white" stroke="black" points="526,-207 526,-237 656,-237 656,-207 526,-207"/>
<text text-anchor="start" x="534" y="-225" font-family="Helvetica,sans-Serif" font-size="10.00">denoptim.ga.Evolutionary</text>
<text text-anchor="middle" x="591" y="-214" font-family="Helvetica,sans-Serif" font-size="10.00">Algorithm.makeOffspringB</text>
</a>
</g>
</g>
<!-- Node16&#45;&gt;Node22 -->
<g id="edge22" class="edge">
<title>Node16&#45;&gt;Node22</title>
<path fill="none" stroke="midnightblue" d="M721.22,-222C700,-222 676.98,-222 656.33,-222"/>
<polygon fill="midnightblue" stroke="midnightblue" points="721.47,-225.5 731.47,-222 721.47,-218.5 721.47,-225.5"/>
</g>
<!-- Node18 -->
<g id="node18" class="node">
<title>Node18</title>
<g id="a_node18"><a xlink:href="classdenoptim_1_1ga_1_1_evolutionary_algorithm.html#a596b2f5f0b097c5b67a6e5163bd6fe66" target="_top" xlink:title="Generates a given number of new candidate items and adds them to the current population.">
<polygon fill="white" stroke="black" points="353,-163 353,-193 487,-193 487,-163 353,-163"/>
<text text-anchor="start" x="361" y="-181" font-family="Helvetica,sans-Serif" font-size="10.00">denoptim.ga.Evolutionary</text>
<text text-anchor="middle" x="420" y="-170" font-family="Helvetica,sans-Serif" font-size="10.00">Algorithm.evolvePopulation</text>
</a>
</g>
</g>
<!-- Node17&#45;&gt;Node18 -->
<g id="edge18" class="edge">
<title>Node17&#45;&gt;Node18</title>
<path fill="none" stroke="midnightblue" d="M515.48,-175.2C506.05,-175.48 496.45,-175.77 487.16,-176.04"/>
<polygon fill="midnightblue" stroke="midnightblue" points="515.73,-178.7 525.63,-174.9 515.53,-171.7 515.73,-178.7"/>
</g>
<!-- Node19 -->
<g id="node19" class="node">
<title>Node19</title>
<g id="a_node19"><a xlink:href="classdenoptim_1_1ga_1_1_evolutionary_algorithm.html#a6bfc2fa59b199da6259b5b6bad3d6de7" target="_top" xlink:title=" ">
<polygon fill="white" stroke="black" points="190,-138 190,-168 314,-168 314,-138 190,-138"/>
<text text-anchor="start" x="198" y="-156" font-family="Helvetica,sans-Serif" font-size="10.00">denoptim.ga.Evolutionary</text>
<text text-anchor="middle" x="252" y="-145" font-family="Helvetica,sans-Serif" font-size="10.00">Algorithm.run</text>
</a>
</g>
</g>
<!-- Node18&#45;&gt;Node19 -->
<g id="edge19" class="edge">
<title>Node18&#45;&gt;Node19</title>
<path fill="none" stroke="midnightblue" d="M342.9,-166.54C333.21,-165.08 323.41,-163.6 314.01,-162.19"/>
<polygon fill="midnightblue" stroke="midnightblue" points="342.51,-170.02 352.92,-168.05 343.55,-163.1 342.51,-170.02"/>
</g>
<!-- Node20 -->
<g id="node20" class="node">
<title>Node20</title>
<g id="a_node20"><a xlink:href="classdenoptim_1_1ga_1_1_evolutionary_algorithm.html#a0f2063b722b7291daf83d62acaa683d3" target="_top" xlink:title=" ">
<polygon fill="white" stroke="black" points="0,-163 0,-193 154,-193 154,-163 0,-163"/>
<text text-anchor="start" x="8" y="-181" font-family="Helvetica,sans-Serif" font-size="10.00">denoptim.ga.Evolutionary</text>
<text text-anchor="middle" x="77" y="-170" font-family="Helvetica,sans-Serif" font-size="10.00">Algorithm.EvolutionaryAlgorithm</text>
</a>
</g>
</g>
<!-- Node19&#45;&gt;Node20 -->
<g id="edge20" class="edge">
<title>Node19&#45;&gt;Node20</title>
<path fill="none" stroke="midnightblue" d="M179.44,-163.34C171.09,-164.55 162.54,-165.78 154.12,-167"/>
<polygon fill="midnightblue" stroke="midnightblue" points="180.12,-166.78 189.52,-161.88 179.12,-159.85 180.12,-166.78"/>
</g>
<!-- Node21 -->
<g id="node21" class="node">
<title>Node21</title>
<g id="a_node21"><a xlink:href="classdenoptim_1_1programs_1_1denovo_1_1_g_a_runner.html#a7cafd6d78727b89dce3e2c8d06f0dd7c" target="_top" xlink:title=" ">
<polygon fill="white" stroke="black" points="9.5,-114 9.5,-144 144.5,-144 144.5,-114 9.5,-114"/>
<text text-anchor="start" x="17.5" y="-132" font-family="Helvetica,sans-Serif" font-size="10.00">denoptim.programs.denovo.</text>
<text text-anchor="middle" x="77" y="-121" font-family="Helvetica,sans-Serif" font-size="10.00">GARunner.runProgram</text>
</a>
</g>
</g>
<!-- Node19&#45;&gt;Node21 -->
<g id="edge21" class="edge">
<title>Node19&#45;&gt;Node21</title>
<path fill="none" stroke="midnightblue" d="M179.48,-143.08C167.92,-141.47 156,-139.82 144.57,-138.23"/>
<polygon fill="midnightblue" stroke="midnightblue" points="179.13,-146.56 189.52,-144.47 180.1,-139.63 179.13,-146.56"/>
</g>
<!-- Node22&#45;&gt;Node18 -->
<g id="edge23" class="edge">
<title>Node22&#45;&gt;Node18</title>
<path fill="none" stroke="midnightblue" d="M522.42,-204.41C507.95,-200.64 492.78,-196.69 478.71,-193.03"/>
<polygon fill="midnightblue" stroke="midnightblue" points="521.75,-207.85 532.31,-206.98 523.52,-201.07 521.75,-207.85"/>
</g>
<!-- Node23&#45;&gt;Node17 -->
<g id="edge27" class="edge">
<title>Node23&#45;&gt;Node17</title>
<path fill="none" stroke="midnightblue" d="M721.22,-173C700,-173 676.98,-173 656.33,-173"/>
<polygon fill="midnightblue" stroke="midnightblue" points="721.47,-176.5 731.47,-173 721.47,-169.5 721.47,-176.5"/>
</g>
<!-- Node23&#45;&gt;Node22 -->
<g id="edge28" class="edge">
<title>Node23&#45;&gt;Node22</title>
<path fill="none" stroke="midnightblue" d="M722.25,-190.4C699.91,-195.82 675.47,-201.75 653.86,-206.99"/>
<polygon fill="midnightblue" stroke="midnightblue" points="723.13,-193.79 732.02,-188.03 721.48,-186.99 723.13,-193.79"/>
</g>
<!-- Node24 -->
<g id="node24" class="node">
<title>Node24</title>
<g id="a_node24"><a xlink:href="classdenoptim_1_1ga_1_1_evolutionary_algorithm.html#ad43588620dab3340e0d8b0042ec73618" target="_top" xlink:title="Fills up the population with candidates build from scratch.">
<polygon fill="white" stroke="black" points="350,-114 350,-144 490,-144 490,-114 350,-114"/>
<text text-anchor="start" x="358" y="-132" font-family="Helvetica,sans-Serif" font-size="10.00">denoptim.ga.Evolutionary</text>
<text text-anchor="middle" x="420" y="-121" font-family="Helvetica,sans-Serif" font-size="10.00">Algorithm.initializePopulation</text>
</a>
</g>
</g>
<!-- Node23&#45;&gt;Node24 -->
<g id="edge25" class="edge">
<title>Node23&#45;&gt;Node24</title>
<path fill="none" stroke="midnightblue" d="M721.19,-159.11C700.21,-155.44 677.24,-151.75 656,-149 600.37,-141.81 536.98,-136.59 490.06,-133.29"/>
<polygon fill="midnightblue" stroke="midnightblue" points="720.86,-162.61 731.32,-160.91 722.08,-155.72 720.86,-162.61"/>
</g>
<!-- Node24&#45;&gt;Node19 -->
<g id="edge26" class="edge">
<title>Node24&#45;&gt;Node19</title>
<path fill="none" stroke="midnightblue" d="M339.6,-140.48C331.08,-141.71 322.5,-142.95 314.24,-144.15"/>
<polygon fill="midnightblue" stroke="midnightblue" points="340.17,-143.93 349.56,-139.04 339.16,-137.01 340.17,-143.93"/>
</g>
<!-- Node27&#45;&gt;Node27 -->
<g id="edge32" class="edge">
<title>Node27&#45;&gt;Node27</title>
<path fill="none" stroke="midnightblue" d="M1937.41,-111.86C1932.29,-116.7 1920.82,-120 1903,-120 1874.48,-120 1862.23,-111.54 1866.24,-101.86"/>
<polygon fill="midnightblue" stroke="midnightblue" points="1940.88,-112.4 1939.76,-101.86 1934.06,-110.8 1940.88,-112.4"/>
</g>
<!-- Node28 -->
<g id="node28" class="node">
<title>Node28</title>
<g id="a_node28"><a xlink:href="classdenoptim_1_1molecularmodeling_1_1_three_dim_tree_builder.html#acbaf5061621ed283eecc80a51b523422" target="_top" xlink:title="Created a three&#45;dimensional molecular representation from a given DGraph.">
<polygon fill="white" stroke="black" points="1598,-60.5 1598,-101.5 1767,-101.5 1767,-60.5 1598,-60.5"/>
<text text-anchor="start" x="1606" y="-89.5" font-family="Helvetica,sans-Serif" font-size="10.00">denoptim.molecularmodeling.</text>
<text text-anchor="start" x="1606" y="-78.5" font-family="Helvetica,sans-Serif" font-size="10.00">ThreeDimTreeBuilder.convertGraph</text>
<text text-anchor="middle" x="1682.5" y="-67.5" font-family="Helvetica,sans-Serif" font-size="10.00">To3DAtomContainer</text>
</a>
</g>
</g>
<!-- Node27&#45;&gt;Node28 -->
<g id="edge33" class="edge">
<title>Node27&#45;&gt;Node28</title>
<path fill="none" stroke="midnightblue" d="M1792.85,-81C1784.22,-81 1775.58,-81 1767.16,-81"/>
<polygon fill="midnightblue" stroke="midnightblue" points="1792.98,-84.5 1802.98,-81 1792.98,-77.5 1792.98,-84.5"/>
</g>
<!-- Node30 -->
<g id="node30" class="node">
<title>Node30</title>
<g id="a_node30"><a xlink:href="classdenoptim_1_1graph_1_1rings_1_1_path_closability_tools.html#afa3b0160942d2da725db2930fc58a296" target="_top" xlink:title="Method to evaluate the closability of a single path in a graph.">
<polygon fill="white" stroke="black" points="1614,-139 1614,-169 1751,-169 1751,-139 1614,-139"/>
<text text-anchor="start" x="1622" y="-157" font-family="Helvetica,sans-Serif" font-size="10.00">denoptim.graph.rings.Path</text>
<text text-anchor="middle" x="1682.5" y="-146" font-family="Helvetica,sans-Serif" font-size="10.00">ClosabilityTools.isCloseable</text>
</a>
</g>
</g>
<!-- Node29&#45;&gt;Node30 -->
<g id="edge36" class="edge">
<title>Node29&#45;&gt;Node30</title>
<path fill="none" stroke="midnightblue" d="M1800.83,-156.69C1784.06,-156.3 1767.02,-155.91 1751.33,-155.55"/>
<polygon fill="midnightblue" stroke="midnightblue" points="1801.16,-160.19 1811.23,-156.92 1801.32,-153.2 1801.16,-160.19"/>
</g>
<!-- Node30&#45;&gt;Node10 -->
<g id="edge41" class="edge">
<title>Node30&#45;&gt;Node10</title>
<path fill="none" stroke="midnightblue" d="M1613.13,-171.54C1586.2,-178.45 1555.59,-186.3 1529.69,-192.95"/>
<polygon fill="midnightblue" stroke="midnightblue" points="1614.05,-174.92 1622.86,-169.04 1612.31,-168.14 1614.05,-174.92"/>
</g>
<!-- Node31 -->
<g id="node31" class="node">
<title>Node31</title>
<g id="a_node31"><a xlink:href="classdenoptim_1_1graph_1_1rings_1_1_cyclic_graph_handler.html#a3ce96322723f45d9285a248ebcef94d3" target="_top" xlink:title="Identifies all possible ring closing paths and returns them as list of DENOPTIMRings ready to be appe...">
<polygon fill="white" stroke="black" points="1378,-128.5 1378,-169.5 1562,-169.5 1562,-128.5 1378,-128.5"/>
<text text-anchor="start" x="1386" y="-157.5" font-family="Helvetica,sans-Serif" font-size="10.00">denoptim.graph.rings.Cyclic</text>
<text text-anchor="start" x="1386" y="-146.5" font-family="Helvetica,sans-Serif" font-size="10.00">GraphHandler.getPossibleCombination</text>
<text text-anchor="middle" x="1470" y="-135.5" font-family="Helvetica,sans-Serif" font-size="10.00">OfRings</text>
</a>
</g>
</g>
<!-- Node30&#45;&gt;Node31 -->
<g id="edge37" class="edge">
<title>Node30&#45;&gt;Node31</title>
<path fill="none" stroke="midnightblue" d="M1603.55,-152.15C1590.03,-151.83 1575.87,-151.49 1562.05,-151.16"/>
<polygon fill="midnightblue" stroke="midnightblue" points="1603.66,-155.65 1613.74,-152.39 1603.82,-148.65 1603.66,-155.65"/>
</g>
<!-- Node34 -->
<g id="node34" class="node">
<title>Node34</title>
<g id="a_node34"><a xlink:href="classdenoptim_1_1graph_1_1rings_1_1_path_closability_tools_test.html#af991094bf8c17599150d2e43ea582cf9" target="_top" xlink:title=" ">
<polygon fill="white" stroke="black" points="1389.5,-68.5 1389.5,-109.5 1550.5,-109.5 1550.5,-68.5 1389.5,-68.5"/>
<text text-anchor="start" x="1397.5" y="-97.5" font-family="Helvetica,sans-Serif" font-size="10.00">denoptim.graph.rings.Path</text>
<text text-anchor="start" x="1397.5" y="-86.5" font-family="Helvetica,sans-Serif" font-size="10.00">ClosabilityToolsTest.testEvaluate</text>
<text text-anchor="middle" x="1470" y="-75.5" font-family="Helvetica,sans-Serif" font-size="10.00">ConstitutionalClosability</text>
</a>
</g>
</g>
<!-- Node30&#45;&gt;Node34 -->
<g id="edge42" class="edge">
<title>Node30&#45;&gt;Node34</title>
<path fill="none" stroke="midnightblue" d="M1622.78,-135.87C1596.28,-127.69 1564.86,-117.98 1537.5,-109.53"/>
<polygon fill="midnightblue" stroke="midnightblue" points="1622.09,-139.32 1632.68,-138.92 1624.16,-132.63 1622.09,-139.32"/>
</g>
<!-- Node31&#45;&gt;Node15 -->
<g id="edge40" class="edge">
<title>Node31&#45;&gt;Node15</title>
<path fill="none" stroke="midnightblue" d="M1367.6,-153.73C1304.9,-156.74 1222.76,-160.85 1150,-165 1130.35,-166.12 1108.97,-167.45 1089.54,-168.7"/>
<polygon fill="midnightblue" stroke="midnightblue" points="1368.07,-157.21 1377.89,-153.24 1367.73,-150.22 1368.07,-157.21"/>
</g>
<!-- Node32 -->
<g id="node32" class="node">
<title>Node32</title>
<g id="a_node32"><a xlink:href="classdenoptim_1_1graph_1_1_d_graph.html#a7a4743d014e860237f4b20703ef9779b" target="_top" xlink:title="Evaluates the possibility of closing rings in this graph and generates all alternative graphs resulti...">
<polygon fill="white" stroke="black" points="1168.5,-87 1168.5,-117 1323.5,-117 1323.5,-87 1168.5,-87"/>
<text text-anchor="start" x="1176.5" y="-105" font-family="Helvetica,sans-Serif" font-size="10.00">denoptim.graph.DGraph.make</text>
<text text-anchor="middle" x="1246" y="-94" font-family="Helvetica,sans-Serif" font-size="10.00">AllGraphsWithDifferentRingSets</text>
</a>
</g>
</g>
<!-- Node31&#45;&gt;Node32 -->
<g id="edge38" class="edge">
<title>Node31&#45;&gt;Node32</title>
<path fill="none" stroke="midnightblue" d="M1367.85,-127.59C1350.98,-124.01 1333.8,-120.38 1317.88,-117.01"/>
<polygon fill="midnightblue" stroke="midnightblue" points="1367.23,-131.03 1377.74,-129.68 1368.68,-124.18 1367.23,-131.03"/>
</g>
<!-- Node33 -->
<g id="node33" class="node">
<title>Node33</title>
<g id="a_node33"><a xlink:href="classdenoptim_1_1combinatorial_1_1_graph_building_task.html#a3eaee724fc921194fa158714aafe182d" target="_top" xlink:title="Calls the task.">
<polygon fill="white" stroke="black" points="951.5,-87 951.5,-117 1096.5,-117 1096.5,-87 951.5,-87"/>
<text text-anchor="start" x="959.5" y="-105" font-family="Helvetica,sans-Serif" font-size="10.00">denoptim.combinatorial.Graph</text>
<text text-anchor="middle" x="1024" y="-94" font-family="Helvetica,sans-Serif" font-size="10.00">BuildingTask.call</text>
</a>
</g>
</g>
<!-- Node32&#45;&gt;Node33 -->
<g id="edge39" class="edge">
<title>Node32&#45;&gt;Node33</title>
<path fill="none" stroke="midnightblue" d="M1158.13,-102C1137.73,-102 1116.21,-102 1096.56,-102"/>
<polygon fill="midnightblue" stroke="midnightblue" points="1158.36,-105.5 1168.36,-102 1158.36,-98.5 1158.36,-105.5"/>
</g>
<!-- Node35&#45;&gt;Node28 -->
<g id="edge44" class="edge">
<title>Node35&#45;&gt;Node28</title>
<path fill="none" stroke="midnightblue" d="M1829.89,-44.41C1820.84,-46.62 1811.7,-48.85 1803,-51 1790.64,-54.05 1777.58,-57.3 1764.79,-60.5"/>
<polygon fill="midnightblue" stroke="midnightblue" points="1830.78,-47.8 1839.66,-42.03 1829.12,-40.99 1830.78,-47.8"/>
</g>
<!-- Node36 -->
<g id="node36" class="node">
<title>Node36</title>
<g id="a_node36"><a xlink:href="classdenoptim_1_1gui_1_1_graph_vertex_mol_viewer_panel.html#afb0f2245fdfc8158581b4cbcf2b239d1" target="_top" xlink:title="Updates the molecular representation of the loaded graph.">
<polygon fill="white" stroke="black" points="1602,-0.5 1602,-41.5 1763,-41.5 1763,-0.5 1602,-0.5"/>
<text text-anchor="start" x="1610" y="-29.5" font-family="Helvetica,sans-Serif" font-size="10.00">denoptim.gui.GraphVertex</text>
<text text-anchor="start" x="1610" y="-18.5" font-family="Helvetica,sans-Serif" font-size="10.00">MolViewerPanel.updateMolevular</text>
<text text-anchor="middle" x="1682.5" y="-7.5" font-family="Helvetica,sans-Serif" font-size="10.00">Viewer</text>
</a>
</g>
</g>
<!-- Node35&#45;&gt;Node36 -->
<g id="edge45" class="edge">
<title>Node35&#45;&gt;Node36</title>
<path fill="none" stroke="midnightblue" d="M1805.96,-24.36C1791.71,-23.97 1777.15,-23.57 1763.28,-23.19"/>
<polygon fill="midnightblue" stroke="midnightblue" points="1806.18,-27.87 1816.27,-24.65 1806.37,-20.87 1806.18,-27.87"/>
</g>
<!-- Node37 -->
<g id="node37" class="node">
<title>Node37</title>
<g id="a_node37"><a xlink:href="classdenoptim_1_1gui_1_1_g_u_i_graph_handler.html#ad54901fb2a09953591c971ffc48f3de1" target="_top" xlink:title=" ">
<polygon fill="white" stroke="black" points="1382.5,-6 1382.5,-36 1557.5,-36 1557.5,-6 1382.5,-6"/>
<text text-anchor="start" x="1390.5" y="-24" font-family="Helvetica,sans-Serif" font-size="10.00">denoptim.gui.GUIGraphHandler.save</text>
<text text-anchor="middle" x="1470" y="-13" font-family="Helvetica,sans-Serif" font-size="10.00">UnsavedChanges</text>
</a>
</g>
</g>
<!-- Node36&#45;&gt;Node37 -->
<g id="edge46" class="edge">
<title>Node36&#45;&gt;Node37</title>
<path fill="none" stroke="midnightblue" d="M1591.67,-21C1580.42,-21 1568.93,-21 1557.73,-21"/>
<polygon fill="midnightblue" stroke="midnightblue" points="1591.92,-24.5 1601.92,-21 1591.92,-17.5 1591.92,-24.5"/>
</g>
<!-- Node38 -->
<g id="node38" class="node">
<title>Node38</title>
<g id="a_node38"><a xlink:href="classdenoptim_1_1gui_1_1_g_u_i_graph_handler.html#af5b000c105018cbd7c262b34f9750044" target="_top" xlink:title="Initialize the panel and add buttons.">
<polygon fill="white" stroke="black" points="1152,-11.5 1152,-30.5 1340,-30.5 1340,-11.5 1152,-11.5"/>
<text text-anchor="middle" x="1246" y="-18.5" font-family="Helvetica,sans-Serif" font-size="10.00">denoptim.gui.GUIGraphHandler.initialize</text>
</a>
</g>
</g>
<!-- Node37&#45;&gt;Node38 -->
<g id="edge47" class="edge">
<title>Node37&#45;&gt;Node38</title>
<path fill="none" stroke="midnightblue" d="M1372.15,-21C1361.59,-21 1350.85,-21 1340.33,-21"/>
<polygon fill="midnightblue" stroke="midnightblue" points="1372.22,-24.5 1382.22,-21 1372.22,-17.5 1372.22,-24.5"/>
</g>
<!-- Node39 -->
<g id="node39" class="node">
<title>Node39</title>
<g id="a_node39"><a xlink:href="classdenoptim_1_1gui_1_1_g_u_i_graph_handler.html#ab7d010d9a384f6b85edce47c95d6723b" target="_top" xlink:title="Constructor.">
<polygon fill="white" stroke="black" points="947,-6 947,-36 1101,-36 1101,-6 947,-6"/>
<text text-anchor="start" x="955" y="-24" font-family="Helvetica,sans-Serif" font-size="10.00">denoptim.gui.GUIGraphHandler.</text>
<text text-anchor="middle" x="1024" y="-13" font-family="Helvetica,sans-Serif" font-size="10.00">GUIGraphHandler</text>
</a>
</g>
</g>
<!-- Node38&#45;&gt;Node39 -->
<g id="edge48" class="edge">
<title>Node38&#45;&gt;Node39</title>
<path fill="none" stroke="midnightblue" d="M1141.37,-21C1127.81,-21 1114.12,-21 1101.14,-21"/>
<polygon fill="midnightblue" stroke="midnightblue" points="1141.7,-24.5 1151.7,-21 1141.7,-17.5 1141.7,-24.5"/>
</g>
</g>
</svg>
        <g id="navigator" transform="translate(0 0)" fill="#404254">
                <rect fill="#f2f5e9" fill-opacity="0.5" stroke="#606060" stroke-width=".5" x="0" y="0" width="60" height="60"/>
                <use id="zoomplus" xlink:href="#zoomPlus" x="17" y="9" onmousedown="handleZoom(evt,'in')"/>
                <use id="zoomminus" xlink:href="#zoomMin" x="42" y="9" onmousedown="handleZoom(evt,'out')"/>
                <use id="reset" xlink:href="#resetDef" x="30" y="36" onmousedown="handleReset()"/>
                <g id="arrowUp" xlink:href="#dirArrow" transform="translate(30 24)" onmousedown="handlePan(0,-1)">
                  <use xlink:href="#rim" fill="#404040">
                        <set attributeName="fill" to="#808080" begin="arrowUp.mouseover" end="arrowUp.mouseout"/>
                  </use>
                  <path fill="none" stroke="white" stroke-width="1.5" d="M0,-3.0v7 M-2.5,-0.5L0,-3.0L2.5,-0.5"/>
                </g>
                <g id="arrowRight" xlink:href="#dirArrow" transform="rotate(90) translate(36 -43)" onmousedown="handlePan(1,0)">
                  <use xlink:href="#rim" fill="#404040">
                        <set attributeName="fill" to="#808080" begin="arrowRight.mouseover" end="arrowRight.mouseout"/>
                  </use>
                  <path fill="none" stroke="white" stroke-width="1.5" d="M0,-3.0v7 M-2.5,-0.5L0,-3.0L2.5,-0.5"/>
                </g>
                <g id="arrowDown" xlink:href="#dirArrow" transform="rotate(180) translate(-30 -48)" onmousedown="handlePan(0,1)">
                  <use xlink:href="#rim" fill="#404040">
                        <set attributeName="fill" to="#808080" begin="arrowDown.mouseover" end="arrowDown.mouseout"/>
                  </use>
                  <path fill="none" stroke="white" stroke-width="1.5" d="M0,-3.0v7 M-2.5,-0.5L0,-3.0L2.5,-0.5"/>
                </g>
                <g id="arrowLeft" xlink:href="#dirArrow" transform="rotate(270) translate(-36 17)" onmousedown="handlePan(-1,0)">
                  <use xlink:href="#rim" fill="#404040">
                        <set attributeName="fill" to="#808080" begin="arrowLeft.mouseover" end="arrowLeft.mouseout"/>
                  </use>
                  <path fill="none" stroke="white" stroke-width="1.5" d="M0,-3.0v7 M-2.5,-0.5L0,-3.0L2.5,-0.5"/>
                </g>
        </g>
        <svg viewBox="0 0 15 15" width="100%" height="30px" preserveAspectRatio="xMaxYMin meet">
         <g id="arrow_out" transform="scale(0.3 0.3)">
          <a xlink:href="enumdenoptim_1_1graph_1_1_edge_1_1_bond_type_a8be61f74c1beaa52e4a53ff70d32a614_icgraph_org.svg" target="_base">
           <rect id="button" ry="5" rx="5" y="6" x="6" height="38" width="38"
                fill="#f2f5e9" fill-opacity="0.5" stroke="#606060" stroke-width="1.0"/>
           <path id="arrow"
             d="M 11.500037,31.436501 C 11.940474,20.09759 22.043105,11.32322 32.158766,21.979434 L 37.068811,17.246167 C 37.068811,17.246167 37.088388,32 37.088388,32 L 22.160133,31.978069 C 22.160133,31.978069 26.997745,27.140456 26.997745,27.140456 C 18.528582,18.264221 13.291696,25.230495 11.500037,31.436501 z"
             style="fill:#404040;"/>
          </a>
         </g>
        </svg>
</svg>
