<?xml version="1.0" encoding="UTF-8" standalone="no"?>
<!DOCTYPE svg PUBLIC "-//W3C//DTD SVG 1.1//EN"
 "http://www.w3.org/Graphics/SVG/1.1/DTD/svg11.dtd">
<!-- Generated by graphviz version 3.0.0 (20221109.1736)
 -->
<!-- Title: Graphical Class Hierarchy Pages: 1 -->
<svg width="460pt" height="629pt"
 viewBox="0.00 0.00 460.00 628.50" xmlns="http://www.w3.org/2000/svg" xmlns:xlink="http://www.w3.org/1999/xlink">
<g id="graph0" class="graph" transform="scale(1 1) rotate(0) translate(4 624.5)">
<title>Graphical Class Hierarchy</title>
<polygon fill="white" stroke="transparent" points="-4,4 -4,-624.5 456,-624.5 456,4 -4,4"/>
<!-- Node0 -->
<g id="node1" class="node">
<title>Node0</title>
<g id="a_node1"><a xlink:title=" ">
<polygon fill="white" stroke="#bfbfbf" points="14.5,-294.5 14.5,-313.5 73.5,-313.5 73.5,-294.5 14.5,-294.5"/>
<text text-anchor="middle" x="44" y="-301.5" font-family="Helvetica,sans-Serif" font-size="10.00">Cloneable</text>
</a>
</g>
</g>
<!-- Node1 -->
<g id="node2" class="node">
<title>Node1</title>
<g id="a_node2"><a xlink:href="classdenoptim_1_1ga_1_1_population.html" target="_top" xlink:title="A collection of candidates.">
<polygon fill="white" stroke="black" points="141.5,-551.5 141.5,-570.5 258.5,-570.5 258.5,-551.5 141.5,-551.5"/>
<text text-anchor="middle" x="200" y="-558.5" font-family="Helvetica,sans-Serif" font-size="10.00">denoptim.ga.Population</text>
</a>
</g>
</g>
<!-- Node0&#45;&gt;Node1 -->
<g id="edge1" class="edge">
<title>Node0&#45;&gt;Node1</title>
<path fill="none" stroke="midnightblue" d="M50.31,-323.48C65.19,-377.54 107.34,-526.5 124,-542 129.02,-546.67 135.01,-550.23 141.39,-552.94"/>
<polygon fill="midnightblue" stroke="midnightblue" points="53.65,-322.45 47.64,-313.73 46.9,-324.3 53.65,-322.45"/>
</g>
<!-- Node4 -->
<g id="node3" class="node">
<title>Node4</title>
<g id="a_node3"><a xlink:href="classdenoptim_1_1ga_1_1_xover_site.html" target="_top" xlink:title="This class collects the data identifying the subgraphs that would be swapped by a crossover event.">
<polygon fill="white" stroke="black" points="143,-152.5 143,-171.5 257,-171.5 257,-152.5 143,-152.5"/>
<text text-anchor="middle" x="200" y="-159.5" font-family="Helvetica,sans-Serif" font-size="10.00">denoptim.ga.XoverSite</text>
</a>
</g>
</g>
<!-- Node0&#45;&gt;Node4 -->
<g id="edge2" class="edge">
<title>Node0&#45;&gt;Node4</title>
<path fill="none" stroke="midnightblue" d="M52.19,-284.83C63.34,-257.73 87.42,-208.58 124,-182 130,-177.64 136.88,-174.24 143.99,-171.57"/>
<polygon fill="midnightblue" stroke="midnightblue" points="48.84,-283.76 48.43,-294.35 55.35,-286.33 48.84,-283.76"/>
</g>
<!-- Node5 -->
<g id="node4" class="node">
<title>Node5</title>
<g id="a_node4"><a xlink:href="classdenoptim_1_1graph_1_1_a_p_class.html" target="_top" xlink:title=" ">
<polygon fill="white" stroke="black" points="138.5,-513.5 138.5,-532.5 261.5,-532.5 261.5,-513.5 138.5,-513.5"/>
<text text-anchor="middle" x="200" y="-520.5" font-family="Helvetica,sans-Serif" font-size="10.00">denoptim.graph.APClass</text>
</a>
</g>
</g>
<!-- Node0&#45;&gt;Node5 -->
<g id="edge3" class="edge">
<title>Node0&#45;&gt;Node5</title>
<path fill="none" stroke="midnightblue" d="M46.92,-323.78C51.92,-364.02 69.03,-455.65 124,-504 128.34,-507.81 133.33,-510.88 138.64,-513.35"/>
<polygon fill="midnightblue" stroke="midnightblue" points="50.38,-323.22 45.79,-313.67 43.42,-323.99 50.38,-323.22"/>
</g>
<!-- Node9 -->
<g id="node5" class="node">
<title>Node9</title>
<g id="a_node5"><a xlink:href="classdenoptim_1_1graph_1_1_a_p_mapping.html" target="_top" xlink:title="Class representing a mapping between attachment points (APs).">
<polygon fill="white" stroke="black" points="132.5,-38.5 132.5,-57.5 267.5,-57.5 267.5,-38.5 132.5,-38.5"/>
<text text-anchor="middle" x="200" y="-45.5" font-family="Helvetica,sans-Serif" font-size="10.00">denoptim.graph.APMapping</text>
</a>
</g>
</g>
<!-- Node0&#45;&gt;Node9 -->
<g id="edge4" class="edge">
<title>Node0&#45;&gt;Node9</title>
<path fill="none" stroke="midnightblue" d="M45.53,-284.08C47.86,-238.56 60.14,-126.32 124,-67 128.13,-63.16 132.93,-60.07 138.06,-57.58"/>
<polygon fill="midnightblue" stroke="midnightblue" points="42.03,-284.01 45.13,-294.14 49.02,-284.29 42.03,-284.01"/>
</g>
<!-- Node7 -->
<g id="node6" class="node">
<title>Node7</title>
<g id="a_node6"><a xlink:href="classdenoptim_1_1graph_1_1_attachment_point.html" target="_top" xlink:title="An attachment point (AP) is a possibility to attach a Vertex onto the vertex holding the AP (i....">
<polygon fill="white" stroke="black" points="132.5,-464 132.5,-494 267.5,-494 267.5,-464 132.5,-464"/>
<text text-anchor="start" x="140.5" y="-482" font-family="Helvetica,sans-Serif" font-size="10.00">denoptim.graph.Attachment</text>
<text text-anchor="middle" x="200" y="-471" font-family="Helvetica,sans-Serif" font-size="10.00">Point</text>
</a>
</g>
</g>
<!-- Node0&#45;&gt;Node7 -->
<g id="edge5" class="edge">
<title>Node0&#45;&gt;Node7</title>
<path fill="none" stroke="midnightblue" d="M50.12,-323.53C59.46,-355.4 82.25,-418.56 124,-454 128.5,-457.82 133.6,-461.06 138.98,-463.81"/>
<polygon fill="midnightblue" stroke="midnightblue" points="53.43,-322.36 47.37,-313.66 46.68,-324.24 53.43,-322.36"/>
</g>
<!-- Node8 -->
<g id="node7" class="node">
<title>Node8</title>
<g id="a_node7"><a xlink:href="classdenoptim_1_1graph_1_1_candidate.html" target="_top" xlink:title="A candidate is the combination of a denoptim graph with molecular representation and may include also...">
<polygon fill="white" stroke="black" points="136,-425.5 136,-444.5 264,-444.5 264,-425.5 136,-425.5"/>
<text text-anchor="middle" x="200" y="-432.5" font-family="Helvetica,sans-Serif" font-size="10.00">denoptim.graph.Candidate</text>
</a>
</g>
</g>
<!-- Node0&#45;&gt;Node8 -->
<g id="edge6" class="edge">
<title>Node0&#45;&gt;Node8</title>
<path fill="none" stroke="midnightblue" d="M53.08,-322.74C64.91,-347.9 89.36,-392.18 124,-416 129.64,-419.88 136.02,-422.97 142.6,-425.43"/>
<polygon fill="midnightblue" stroke="midnightblue" points="56.23,-321.2 48.92,-313.54 49.85,-324.09 56.23,-321.2"/>
</g>
<!-- Node12 -->
<g id="node8" class="node">
<title>Node12</title>
<g id="a_node8"><a xlink:href="classdenoptim_1_1graph_1_1_d_graph.html" target="_top" xlink:title="Container for the list of vertices and the edges that connect them.">
<polygon fill="white" stroke="black" points="141,-114.5 141,-133.5 259,-133.5 259,-114.5 141,-114.5"/>
<text text-anchor="middle" x="200" y="-121.5" font-family="Helvetica,sans-Serif" font-size="10.00">denoptim.graph.DGraph</text>
</a>
</g>
</g>
<!-- Node0&#45;&gt;Node12 -->
<g id="edge7" class="edge">
<title>Node0&#45;&gt;Node12</title>
<path fill="none" stroke="midnightblue" d="M49.05,-284.13C57.09,-249.91 78.37,-180 124,-143 129.01,-138.94 134.77,-135.73 140.84,-133.2"/>
<polygon fill="midnightblue" stroke="midnightblue" points="45.55,-283.74 46.82,-294.26 52.39,-285.25 45.55,-283.74"/>
</g>
<!-- Node13 -->
<g id="node9" class="node">
<title>Node13</title>
<g id="a_node9"><a xlink:href="classdenoptim_1_1graph_1_1_vertex.html" target="_top" xlink:title="A vertex is a data structure that has an identity and holds a list of AttachmentPoints.">
<polygon fill="white" stroke="black" points="143.5,-76.5 143.5,-95.5 256.5,-95.5 256.5,-76.5 143.5,-76.5"/>
<text text-anchor="middle" x="200" y="-83.5" font-family="Helvetica,sans-Serif" font-size="10.00">denoptim.graph.Vertex</text>
</a>
</g>
</g>
<!-- Node0&#45;&gt;Node13 -->
<g id="edge8" class="edge">
<title>Node0&#45;&gt;Node13</title>
<path fill="none" stroke="midnightblue" d="M46.95,-284.31C52.01,-244.28 69.22,-153.09 124,-105 129.55,-100.13 136.18,-96.47 143.17,-93.73"/>
<polygon fill="midnightblue" stroke="midnightblue" points="43.46,-284.05 45.81,-294.38 50.42,-284.84 43.46,-284.05"/>
</g>
<!-- Node17 -->
<g id="node13" class="node">
<title>Node17</title>
<g id="a_node13"><a xlink:href="classdenoptim_1_1graph_1_1rings_1_1_chain_link.html" target="_top" xlink:title="ChainLink represents a vertex in a closable chain.">
<polygon fill="white" stroke="black" points="124,-387.5 124,-406.5 276,-406.5 276,-387.5 124,-387.5"/>
<text text-anchor="middle" x="200" y="-394.5" font-family="Helvetica,sans-Serif" font-size="10.00">denoptim.graph.rings.ChainLink</text>
</a>
</g>
</g>
<!-- Node0&#45;&gt;Node17 -->
<g id="edge12" class="edge">
<title>Node0&#45;&gt;Node17</title>
<path fill="none" stroke="midnightblue" d="M59.07,-321.57C73.58,-338.51 97.74,-363.64 124,-378 131.07,-381.87 138.95,-384.96 146.86,-387.44"/>
<polygon fill="midnightblue" stroke="midnightblue" points="61.49,-319 52.4,-313.56 56.11,-323.48 61.49,-319"/>
</g>
<!-- Node18 -->
<g id="node14" class="node">
<title>Node18</title>
<g id="a_node14"><a xlink:href="classdenoptim_1_1graph_1_1rings_1_1_closable_chain.html" target="_top" xlink:title="ClosableChain represents a chain of fragments (chain links) that is closable (or candidate closable).">
<polygon fill="white" stroke="black" points="127,-338 127,-368 273,-368 273,-338 127,-338"/>
<text text-anchor="start" x="135" y="-356" font-family="Helvetica,sans-Serif" font-size="10.00">denoptim.graph.rings.Closable</text>
<text text-anchor="middle" x="200" y="-345" font-family="Helvetica,sans-Serif" font-size="10.00">Chain</text>
</a>
</g>
</g>
<!-- Node0&#45;&gt;Node18 -->
<g id="edge13" class="edge">
<title>Node0&#45;&gt;Node18</title>
<path fill="none" stroke="midnightblue" d="M83.34,-316.2C104.06,-322.79 129.84,-330.99 151.79,-337.98"/>
<polygon fill="midnightblue" stroke="midnightblue" points="84.2,-312.8 73.61,-313.1 82.07,-319.47 84.2,-312.8"/>
</g>
<!-- Node19 -->
<g id="node15" class="node">
<title>Node19</title>
<g id="a_node15"><a xlink:href="classdenoptim_1_1integration_1_1tinker_1_1_tinker_atom.html" target="_top" xlink:title="Based on the code from ffx.kenai.com Michael J.">
<polygon fill="white" stroke="black" points="134,-289 134,-319 266,-319 266,-289 134,-289"/>
<text text-anchor="start" x="142" y="-307" font-family="Helvetica,sans-Serif" font-size="10.00">denoptim.integration.tinker.</text>
<text text-anchor="middle" x="200" y="-296" font-family="Helvetica,sans-Serif" font-size="10.00">TinkerAtom</text>
</a>
</g>
</g>
<!-- Node0&#45;&gt;Node19 -->
<g id="edge14" class="edge">
<title>Node0&#45;&gt;Node19</title>
<path fill="none" stroke="midnightblue" d="M83.66,-304C98.86,-304 116.74,-304 133.82,-304"/>
<polygon fill="midnightblue" stroke="midnightblue" points="83.61,-300.5 73.61,-304 83.61,-307.5 83.61,-300.5"/>
</g>
<!-- Node20 -->
<g id="node16" class="node">
<title>Node20</title>
<g id="a_node16"><a xlink:href="classdenoptim_1_1integration_1_1tinker_1_1_tinker_bond.html" target="_top" xlink:title=" ">
<polygon fill="white" stroke="black" points="134,-240 134,-270 266,-270 266,-240 134,-240"/>
<text text-anchor="start" x="142" y="-258" font-family="Helvetica,sans-Serif" font-size="10.00">denoptim.integration.tinker.</text>
<text text-anchor="middle" x="200" y="-247" font-family="Helvetica,sans-Serif" font-size="10.00">TinkerBond</text>
</a>
</g>
</g>
<!-- Node0&#45;&gt;Node20 -->
<g id="edge15" class="edge">
<title>Node0&#45;&gt;Node20</title>
<path fill="none" stroke="midnightblue" d="M83.34,-291.8C104.06,-285.21 129.84,-277.01 151.79,-270.02"/>
<polygon fill="midnightblue" stroke="midnightblue" points="82.07,-288.53 73.61,-294.9 84.2,-295.2 82.07,-288.53"/>
</g>
<!-- Node21 -->
<g id="node17" class="node">
<title>Node21</title>
<g id="a_node17"><a xlink:href="classdenoptim_1_1integration_1_1tinker_1_1_tinker_molecule.html" target="_top" xlink:title=" ">
<polygon fill="white" stroke="black" points="134,-191 134,-221 266,-221 266,-191 134,-191"/>
<text text-anchor="start" x="142" y="-209" font-family="Helvetica,sans-Serif" font-size="10.00">denoptim.integration.tinker.</text>
<text text-anchor="middle" x="200" y="-198" font-family="Helvetica,sans-Serif" font-size="10.00">TinkerMolecule</text>
</a>
</g>
</g>
<!-- Node0&#45;&gt;Node21 -->
<g id="edge16" class="edge">
<title>Node0&#45;&gt;Node21</title>
<path fill="none" stroke="midnightblue" d="M60.07,-286.29C74.86,-269.9 98.81,-245.89 124,-231 130.38,-227.23 137.41,-223.94 144.52,-221.09"/>
<polygon fill="midnightblue" stroke="midnightblue" points="57.2,-284.26 53.21,-294.07 62.45,-288.88 57.2,-284.26"/>
</g>
<!-- Node14 -->
<g id="node10" class="node">
<title>Node14</title>
<g id="a_node10"><a xlink:href="classdenoptim_1_1graph_1_1_empty_vertex.html" target="_top" xlink:title="An empty vertex has the behaviors of a vertex, but has no molecular structure.">
<polygon fill="white" stroke="black" points="312,-114.5 312,-133.5 452,-133.5 452,-114.5 312,-114.5"/>
<text text-anchor="middle" x="382" y="-121.5" font-family="Helvetica,sans-Serif" font-size="10.00">denoptim.graph.EmptyVertex</text>
</a>
</g>
</g>
<!-- Node13&#45;&gt;Node14 -->
<g id="edge9" class="edge">
<title>Node13&#45;&gt;Node14</title>
<path fill="none" stroke="midnightblue" d="M256.33,-97.68C281.86,-103.07 311.78,-109.39 335.91,-114.48"/>
<polygon fill="midnightblue" stroke="midnightblue" points="256.93,-94.23 246.42,-95.59 255.48,-101.08 256.93,-94.23"/>
</g>
<!-- Node15 -->
<g id="node11" class="node">
<title>Node15</title>
<g id="a_node11"><a xlink:href="classdenoptim_1_1graph_1_1_fragment.html" target="_top" xlink:title="Class representing a continuously connected portion of chemical object holding attachment points.">
<polygon fill="white" stroke="black" points="319,-76.5 319,-95.5 445,-95.5 445,-76.5 319,-76.5"/>
<text text-anchor="middle" x="382" y="-83.5" font-family="Helvetica,sans-Serif" font-size="10.00">denoptim.graph.Fragment</text>
</a>
</g>
</g>
<!-- Node13&#45;&gt;Node15 -->
<g id="edge10" class="edge">
<title>Node13&#45;&gt;Node15</title>
<path fill="none" stroke="midnightblue" d="M267.28,-86C284.12,-86 302.16,-86 318.8,-86"/>
<polygon fill="midnightblue" stroke="midnightblue" points="266.97,-82.5 256.97,-86 266.97,-89.5 266.97,-82.5"/>
</g>
<!-- Node16 -->
<g id="node12" class="node">
<title>Node16</title>
<g id="a_node12"><a xlink:href="classdenoptim_1_1graph_1_1_template.html" target="_top" xlink:title=" ">
<polygon fill="white" stroke="black" points="319.5,-38.5 319.5,-57.5 444.5,-57.5 444.5,-38.5 319.5,-38.5"/>
<text text-anchor="middle" x="382" y="-45.5" font-family="Helvetica,sans-Serif" font-size="10.00">denoptim.graph.Template</text>
</a>
</g>
</g>
<!-- Node13&#45;&gt;Node16 -->
<g id="edge11" class="edge">
<title>Node13&#45;&gt;Node16</title>
<path fill="none" stroke="midnightblue" d="M256.33,-74.32C281.86,-68.93 311.78,-62.61 335.91,-57.52"/>
<polygon fill="midnightblue" stroke="midnightblue" points="255.48,-70.92 246.42,-76.41 256.93,-77.77 255.48,-70.92"/>
</g>
<!-- Node6 -->
<g id="node18" class="node">
<title>Node6</title>
<g id="a_node18"><a xlink:title=" ">
<polygon fill="white" stroke="#bfbfbf" points="10,-469.5 10,-488.5 78,-488.5 78,-469.5 10,-469.5"/>
<text text-anchor="middle" x="44" y="-476.5" font-family="Helvetica,sans-Serif" font-size="10.00">Comparable</text>
</a>
</g>
</g>
<!-- Node6&#45;&gt;Node5 -->
<g id="edge17" class="edge">
<title>Node6&#45;&gt;Node5</title>
<path fill="none" stroke="midnightblue" d="M83.65,-491.73C96.44,-495.81 110.79,-500.24 124,-504 135.5,-507.27 148.07,-510.57 159.57,-513.47"/>
<polygon fill="midnightblue" stroke="midnightblue" points="84.36,-488.28 73.77,-488.55 82.22,-494.94 84.36,-488.28"/>
</g>
<!-- Node6&#45;&gt;Node7 -->
<g id="edge18" class="edge">
<title>Node6&#45;&gt;Node7</title>
<path fill="none" stroke="midnightblue" d="M88.16,-479C101.9,-479 117.44,-479 132.44,-479"/>
<polygon fill="midnightblue" stroke="midnightblue" points="88.04,-475.5 78.04,-479 88.04,-482.5 88.04,-475.5"/>
</g>
<!-- Node6&#45;&gt;Node8 -->
<g id="edge19" class="edge">
<title>Node6&#45;&gt;Node8</title>
<path fill="none" stroke="midnightblue" d="M85.3,-466.47C97.69,-462.69 111.38,-458.6 124,-455 136.44,-451.45 150.1,-447.75 162.31,-444.51"/>
<polygon fill="midnightblue" stroke="midnightblue" points="84.23,-463.13 75.69,-469.41 86.28,-469.83 84.23,-463.13"/>
</g>
<!-- Node2 -->
<g id="node19" class="node">
<title>Node2</title>
<g id="a_node19"><a xlink:title=" ">
<polygon fill="white" stroke="#bfbfbf" points="16,-573.5 16,-592.5 72,-592.5 72,-573.5 16,-573.5"/>
<text text-anchor="middle" x="44" y="-580.5" font-family="Helvetica,sans-Serif" font-size="10.00">ArrayList</text>
</a>
</g>
</g>
<!-- Node2&#45;&gt;Node1 -->
<g id="edge20" class="edge">
<title>Node2&#45;&gt;Node1</title>
<path fill="none" stroke="midnightblue" d="M82.15,-577.69C99.93,-575.15 121.63,-572.05 141.48,-569.22"/>
<polygon fill="midnightblue" stroke="midnightblue" points="81.58,-574.24 72.18,-579.12 82.57,-581.17 81.58,-574.24"/>
</g>
<!-- Node3 -->
<g id="node20" class="node">
<title>Node3</title>
<g id="a_node20"><a xlink:href="classdenoptim_1_1graph_1_1_symmetric_set.html" target="_top" xlink:title="Class representing a list of references pointing to instances that are related by some conventional c...">
<polygon fill="white" stroke="black" points="134.5,-590 134.5,-620 265.5,-620 265.5,-590 134.5,-590"/>
<text text-anchor="start" x="142.5" y="-608" font-family="Helvetica,sans-Serif" font-size="10.00">denoptim.graph.Symmetric</text>
<text text-anchor="middle" x="200" y="-597" font-family="Helvetica,sans-Serif" font-size="10.00">Set&lt; T &gt;</text>
</a>
</g>
</g>
<!-- Node2&#45;&gt;Node3 -->
<g id="edge21" class="edge">
<title>Node2&#45;&gt;Node3</title>
<path fill="none" stroke="midnightblue" d="M82.46,-588.35C98.07,-590.58 116.66,-593.24 134.35,-595.76"/>
<polygon fill="midnightblue" stroke="midnightblue" points="82.57,-584.83 72.18,-586.88 81.58,-591.76 82.57,-584.83"/>
</g>
<!-- Node10 -->
<g id="node21" class="node">
<title>Node10</title>
<g id="a_node21"><a xlink:title=" ">
<polygon fill="white" stroke="#bfbfbf" points="0,-19.5 0,-38.5 88,-38.5 88,-19.5 0,-19.5"/>
<text text-anchor="middle" x="44" y="-26.5" font-family="Helvetica,sans-Serif" font-size="10.00">LinkedHashMap</text>
</a>
</g>
</g>
<!-- Node10&#45;&gt;Node9 -->
<g id="edge22" class="edge">
<title>Node10&#45;&gt;Node9</title>
<path fill="none" stroke="midnightblue" d="M98.54,-35.61C109.47,-36.95 121.1,-38.39 132.42,-39.79"/>
<polygon fill="midnightblue" stroke="midnightblue" points="98.66,-32.09 88.31,-34.34 97.8,-39.04 98.66,-32.09"/>
</g>
<!-- Node11 -->
<g id="node22" class="node">
<title>Node11</title>
<g id="a_node22"><a xlink:href="classdenoptim_1_1graph_1_1_a_p_tree_map.html" target="_top" xlink:title="Attachment point mapping where keys are sorted by natural ordering, i.e., by AttachmentPoint#compareT...">
<polygon fill="white" stroke="black" points="131.5,-0.5 131.5,-19.5 268.5,-19.5 268.5,-0.5 131.5,-0.5"/>
<text text-anchor="middle" x="200" y="-7.5" font-family="Helvetica,sans-Serif" font-size="10.00">denoptim.graph.APTreeMap</text>
</a>
</g>
</g>
<!-- Node10&#45;&gt;Node11 -->
<g id="edge23" class="edge">
<title>Node10&#45;&gt;Node11</title>
<path fill="none" stroke="midnightblue" d="M98.27,-22.43C108.9,-21.12 120.21,-19.72 131.26,-18.36"/>
<polygon fill="midnightblue" stroke="midnightblue" points="97.8,-18.96 88.31,-23.66 98.66,-25.91 97.8,-18.96"/>
</g>
</g>
</svg>
