<?xml version="1.0" encoding="UTF-8" standalone="no"?>
<!DOCTYPE svg PUBLIC "-//W3C//DTD SVG 1.1//EN"
 "http://www.w3.org/Graphics/SVG/1.1/DTD/svg11.dtd">
<!-- Generated by graphviz version 3.0.0 (20221109.1736)
 -->
<!-- Title: Graphical Class Hierarchy Pages: 1 -->
<svg width="669pt" height="460pt"
 viewBox="0.00 0.00 669.00 459.50" xmlns="http://www.w3.org/2000/svg" xmlns:xlink="http://www.w3.org/1999/xlink">
<g id="graph0" class="graph" transform="scale(1 1) rotate(0) translate(4 455.5)">
<title>Graphical Class Hierarchy</title>
<polygon fill="white" stroke="transparent" points="-4,4 -4,-455.5 665,-455.5 665,4 -4,4"/>
<!-- Node0 -->
<g id="node1" class="node">
<title>Node0</title>
<g id="a_node1"><a xlink:title=" ">
<polygon fill="white" stroke="#bfbfbf" points="0,-215.5 0,-234.5 49,-234.5 49,-215.5 0,-215.5"/>
<text text-anchor="middle" x="24.5" y="-222.5" font-family="Helvetica,sans-Serif" font-size="10.00">JDialog</text>
</a>
</g>
</g>
<!-- Node1 -->
<g id="node2" class="node">
<title>Node1</title>
<g id="a_node2"><a xlink:href="classdenoptim_1_1gui_1_1_g_u_i_modal_dialog.html" target="_top" xlink:title=" ">
<polygon fill="white" stroke="black" points="85,-215.5 85,-234.5 230,-234.5 230,-215.5 85,-215.5"/>
<text text-anchor="middle" x="157.5" y="-222.5" font-family="Helvetica,sans-Serif" font-size="10.00">denoptim.gui.GUIModalDialog</text>
</a>
</g>
</g>
<!-- Node0&#45;&gt;Node1 -->
<g id="edge1" class="edge">
<title>Node0&#45;&gt;Node1</title>
<path fill="none" stroke="midnightblue" d="M59.46,-225C67.37,-225 76.1,-225 84.97,-225"/>
<polygon fill="midnightblue" stroke="midnightblue" points="59.22,-221.5 49.22,-225 59.22,-228.5 59.22,-221.5"/>
</g>
<!-- Node2 -->
<g id="node3" class="node">
<title>Node2</title>
<g id="a_node3"><a xlink:href="classdenoptim_1_1gui_1_1_cutting_rules_selection_dialog.html" target="_top" xlink:title="A modal dialog to define parameters for fragmentation and fragment filtering.">
<polygon fill="white" stroke="black" points="292.5,-421 292.5,-451 421.5,-451 421.5,-421 292.5,-421"/>
<text text-anchor="start" x="300.5" y="-439" font-family="Helvetica,sans-Serif" font-size="10.00">denoptim.gui.CuttingRules</text>
<text text-anchor="middle" x="357" y="-428" font-family="Helvetica,sans-Serif" font-size="10.00">SelectionDialog</text>
</a>
</g>
</g>
<!-- Node1&#45;&gt;Node2 -->
<g id="edge2" class="edge">
<title>Node1&#45;&gt;Node2</title>
<path fill="none" stroke="midnightblue" d="M164.32,-244.73C176.6,-282.85 208.83,-366.73 266,-411 273.69,-416.96 282.72,-421.49 292.04,-424.95"/>
<polygon fill="midnightblue" stroke="midnightblue" points="167.57,-243.38 161.26,-234.86 160.88,-245.45 167.57,-243.38"/>
</g>
<!-- Node4 -->
<g id="node5" class="node">
<title>Node4</title>
<g id="a_node5"><a xlink:href="classdenoptim_1_1gui_1_1_f_s_params_dialog.html" target="_top" xlink:title="A modal dialog to define a fragment space and load it.">
<polygon fill="white" stroke="black" points="283.5,-382.5 283.5,-401.5 430.5,-401.5 430.5,-382.5 283.5,-382.5"/>
<text text-anchor="middle" x="357" y="-389.5" font-family="Helvetica,sans-Serif" font-size="10.00">denoptim.gui.FSParamsDialog</text>
</a>
</g>
</g>
<!-- Node1&#45;&gt;Node4 -->
<g id="edge4" class="edge">
<title>Node1&#45;&gt;Node4</title>
<path fill="none" stroke="midnightblue" d="M166.7,-244.06C181.53,-276.14 215.99,-340.57 266,-373 271.9,-376.82 278.42,-379.89 285.19,-382.36"/>
<polygon fill="midnightblue" stroke="midnightblue" points="169.86,-242.56 162.58,-234.87 163.47,-245.42 169.86,-242.56"/>
</g>
<!-- Node5 -->
<g id="node6" class="node">
<title>Node5</title>
<g id="a_node6"><a xlink:href="classdenoptim_1_1gui_1_1_fitness_parameters_form_1_1_atom_spec_expression_definition.html" target="_top" xlink:title=" ">
<polygon fill="white" stroke="black" points="270,-333 270,-363 444,-363 444,-333 270,-333"/>
<text text-anchor="start" x="278" y="-351" font-family="Helvetica,sans-Serif" font-size="10.00">denoptim.gui.FitnessParameters</text>
<text text-anchor="middle" x="357" y="-340" font-family="Helvetica,sans-Serif" font-size="10.00">Form.AtomSpecExpressionDefinition</text>
</a>
</g>
</g>
<!-- Node1&#45;&gt;Node5 -->
<g id="edge5" class="edge">
<title>Node1&#45;&gt;Node5</title>
<path fill="none" stroke="midnightblue" d="M172.64,-242.45C191.59,-264.68 227.33,-302.75 266,-324 272.24,-327.43 278.99,-330.38 285.89,-332.93"/>
<polygon fill="midnightblue" stroke="midnightblue" points="175.11,-239.95 166.02,-234.52 169.74,-244.44 175.11,-239.95"/>
</g>
<!-- Node6 -->
<g id="node7" class="node">
<title>Node6</title>
<g id="a_node7"><a xlink:href="classdenoptim_1_1gui_1_1_fitness_parameters_form_1_1_parametrized_descriptor_definition.html" target="_top" xlink:title=" ">
<polygon fill="white" stroke="black" points="266,-284 266,-314 448,-314 448,-284 266,-284"/>
<text text-anchor="start" x="274" y="-302" font-family="Helvetica,sans-Serif" font-size="10.00">denoptim.gui.FitnessParameters</text>
<text text-anchor="middle" x="357" y="-291" font-family="Helvetica,sans-Serif" font-size="10.00">Form.ParametrizedDescriptorDefinition</text>
</a>
</g>
</g>
<!-- Node1&#45;&gt;Node6 -->
<g id="edge6" class="edge">
<title>Node1&#45;&gt;Node6</title>
<path fill="none" stroke="midnightblue" d="M185.86,-239.35C207.26,-250.17 237.98,-264.84 266,-275 274.82,-278.2 284.26,-281.18 293.59,-283.88"/>
<polygon fill="midnightblue" stroke="midnightblue" points="187.22,-236.12 176.73,-234.68 184.04,-242.35 187.22,-236.12"/>
</g>
<!-- Node7 -->
<g id="node8" class="node">
<title>Node7</title>
<g id="a_node8"><a xlink:href="classdenoptim_1_1gui_1_1_g_u_i_a_p_class_definition_dialog.html" target="_top" xlink:title=" ">
<polygon fill="white" stroke="black" points="272,-235 272,-265 442,-265 442,-235 272,-235"/>
<text text-anchor="start" x="280" y="-253" font-family="Helvetica,sans-Serif" font-size="10.00">denoptim.gui.GUIAPClassDefinition</text>
<text text-anchor="middle" x="357" y="-242" font-family="Helvetica,sans-Serif" font-size="10.00">Dialog</text>
</a>
</g>
</g>
<!-- Node1&#45;&gt;Node7 -->
<g id="edge7" class="edge">
<title>Node1&#45;&gt;Node7</title>
<path fill="none" stroke="midnightblue" d="M240.06,-235.32C250.57,-236.65 261.35,-238.02 271.9,-239.36"/>
<polygon fill="midnightblue" stroke="midnightblue" points="240.44,-231.84 230.08,-234.06 239.56,-238.79 240.44,-231.84"/>
</g>
<!-- Node8 -->
<g id="node9" class="node">
<title>Node8</title>
<g id="a_node9"><a xlink:href="classdenoptim_1_1gui_1_1_g_u_i_empty_vertex_maker.html" target="_top" xlink:title=" ">
<polygon fill="white" stroke="black" points="284,-186 284,-216 430,-216 430,-186 284,-186"/>
<text text-anchor="start" x="292" y="-204" font-family="Helvetica,sans-Serif" font-size="10.00">denoptim.gui.GUIEmptyVertex</text>
<text text-anchor="middle" x="357" y="-193" font-family="Helvetica,sans-Serif" font-size="10.00">Maker</text>
</a>
</g>
</g>
<!-- Node1&#45;&gt;Node8 -->
<g id="edge8" class="edge">
<title>Node1&#45;&gt;Node8</title>
<path fill="none" stroke="midnightblue" d="M240.42,-215.04C254.77,-213.3 269.61,-211.5 283.67,-209.79"/>
<polygon fill="midnightblue" stroke="midnightblue" points="239.59,-211.62 230.08,-216.3 240.43,-218.57 239.59,-211.62"/>
</g>
<!-- Node9 -->
<g id="node10" class="node">
<title>Node9</title>
<g id="a_node10"><a xlink:href="classdenoptim_1_1gui_1_1_g_u_i_graph_handler_1_1_config_template_dialog.html" target="_top" xlink:title="Dialog to configure one or more templates.">
<polygon fill="white" stroke="black" points="280,-137 280,-167 434,-167 434,-137 280,-137"/>
<text text-anchor="start" x="288" y="-155" font-family="Helvetica,sans-Serif" font-size="10.00">denoptim.gui.GUIGraphHandler.</text>
<text text-anchor="middle" x="357" y="-144" font-family="Helvetica,sans-Serif" font-size="10.00">ConfigTemplateDialog</text>
</a>
</g>
</g>
<!-- Node1&#45;&gt;Node9 -->
<g id="edge9" class="edge">
<title>Node1&#45;&gt;Node9</title>
<path fill="none" stroke="midnightblue" d="M186.73,-211C208.14,-200.73 238.48,-186.9 266,-177 275.92,-173.43 286.6,-170.06 297.02,-167.02"/>
<polygon fill="midnightblue" stroke="midnightblue" points="185.04,-207.93 177.56,-215.45 188.09,-214.23 185.04,-207.93"/>
</g>
<!-- Node10 -->
<g id="node11" class="node">
<title>Node10</title>
<g id="a_node11"><a xlink:href="classdenoptim_1_1gui_1_1_g_u_i_inspect_g_a_run_1_1_generation_choice_dialog.html" target="_top" xlink:title="Modal dialog that asks the user for a generation number.">
<polygon fill="white" stroke="black" points="278,-88 278,-118 436,-118 436,-88 278,-88"/>
<text text-anchor="start" x="286" y="-106" font-family="Helvetica,sans-Serif" font-size="10.00">denoptim.gui.GUIInspectGARun.</text>
<text text-anchor="middle" x="357" y="-95" font-family="Helvetica,sans-Serif" font-size="10.00">GenerationChoiceDialog</text>
</a>
</g>
</g>
<!-- Node1&#45;&gt;Node10 -->
<g id="edge10" class="edge">
<title>Node1&#45;&gt;Node10</title>
<path fill="none" stroke="midnightblue" d="M173.04,-207.64C192.18,-185.89 227.88,-148.95 266,-128 272.96,-124.17 280.56,-120.89 288.29,-118.1"/>
<polygon fill="midnightblue" stroke="midnightblue" points="170.21,-205.56 166.33,-215.42 175.51,-210.14 170.21,-205.56"/>
</g>
<!-- Node11 -->
<g id="node12" class="node">
<title>Node11</title>
<g id="a_node12"><a xlink:href="classdenoptim_1_1gui_1_1_g_u_i_preferences_dialog.html" target="_top" xlink:title=" ">
<polygon fill="white" stroke="black" points="285,-39 285,-69 429,-69 429,-39 285,-39"/>
<text text-anchor="start" x="293" y="-57" font-family="Helvetica,sans-Serif" font-size="10.00">denoptim.gui.GUIPreferences</text>
<text text-anchor="middle" x="357" y="-46" font-family="Helvetica,sans-Serif" font-size="10.00">Dialog</text>
</a>
</g>
</g>
<!-- Node1&#45;&gt;Node11 -->
<g id="edge11" class="edge">
<title>Node1&#45;&gt;Node11</title>
<path fill="none" stroke="midnightblue" d="M167.19,-206.12C182.56,-174.83 217.57,-112.39 266,-79 271.74,-75.04 278.09,-71.71 284.69,-68.9"/>
<polygon fill="midnightblue" stroke="midnightblue" points="163.88,-204.91 162.74,-215.45 170.2,-207.93 163.88,-204.91"/>
</g>
<!-- Node12 -->
<g id="node13" class="node">
<title>Node12</title>
<g id="a_node13"><a xlink:href="classdenoptim_1_1gui_1_1_g_u_i_vertex_selector.html" target="_top" xlink:title="A modal dialog with a viewer that understands the different types of DENOPTIM vertex and allows to se...">
<polygon fill="white" stroke="black" points="279.5,-0.5 279.5,-19.5 434.5,-19.5 434.5,-0.5 279.5,-0.5"/>
<text text-anchor="middle" x="357" y="-7.5" font-family="Helvetica,sans-Serif" font-size="10.00">denoptim.gui.GUIVertexSelector</text>
</a>
</g>
</g>
<!-- Node1&#45;&gt;Node12 -->
<g id="edge12" class="edge">
<title>Node1&#45;&gt;Node12</title>
<path fill="none" stroke="midnightblue" d="M163.36,-205.69C174.39,-166.08 205.19,-75.54 266,-30 271.77,-25.68 278.28,-22.26 285.11,-19.56"/>
<polygon fill="midnightblue" stroke="midnightblue" points="159.96,-204.87 160.77,-215.43 166.73,-206.67 159.96,-204.87"/>
</g>
<!-- Node3 -->
<g id="node4" class="node">
<title>Node3</title>
<g id="a_node4"><a xlink:href="classdenoptim_1_1gui_1_1_mol_to_graph_parameters_dialog.html" target="_top" xlink:title=" ">
<polygon fill="white" stroke="black" points="484,-421 484,-451 661,-451 661,-421 484,-421"/>
<text text-anchor="start" x="492" y="-439" font-family="Helvetica,sans-Serif" font-size="10.00">denoptim.gui.MolToGraphParameters</text>
<text text-anchor="middle" x="572.5" y="-428" font-family="Helvetica,sans-Serif" font-size="10.00">Dialog</text>
</a>
</g>
</g>
<!-- Node2&#45;&gt;Node3 -->
<g id="edge3" class="edge">
<title>Node2&#45;&gt;Node3</title>
<path fill="none" stroke="midnightblue" d="M432.03,-436C448.78,-436 466.73,-436 483.98,-436"/>
<polygon fill="midnightblue" stroke="midnightblue" points="431.77,-432.5 421.77,-436 431.77,-439.5 431.77,-432.5"/>
</g>
</g>
</svg>
